<?xml version="1.0" encoding="UTF-8"?>
<svg version="1.1" xmlns="http://www.w3.org/2000/svg" width="400" height="400">
<path d="M0 0 C132 0 264 0 400 0 C400 132 400 264 400 400 C268 400 136 400 0 400 C0 268 0 136 0 0 Z " fill="#EFF2F5" transform="translate(0,0)"/>
<path d="M0 0 C1.7125296 -0.01925285 1.7125296 -0.01925285 3.45965576 -0.03889465 C5.31895721 -0.04997505 5.31895721 -0.04997505 7.21582031 -0.0612793 C8.48613098 -0.06935104 9.75644165 -0.07742279 11.06524658 -0.08573914 C13.75870419 -0.09959131 16.45203893 -0.11060399 19.14550781 -0.11816406 C22.58663115 -0.12920954 26.02710442 -0.16358628 29.4679985 -0.20333576 C32.75887443 -0.23585883 36.04980818 -0.24028631 39.34082031 -0.2487793 C40.57225769 -0.26628738 41.80369507 -0.28379547 43.07244873 -0.30183411 C44.8038913 -0.29744576 44.8038913 -0.29744576 46.5703125 -0.29296875 C47.58132019 -0.29883499 48.59232788 -0.30470123 49.63397217 -0.31074524 C56.51735568 0.84299427 61.19275276 6.5426887 65.91040039 11.30053711 C66.62168091 12.00991928 67.33296143 12.71930145 68.0657959 13.45018005 C70.40326321 15.78395815 72.733479 18.12483055 75.06347656 20.46606445 C76.68881859 22.09259908 78.31453099 23.71876367 79.94059753 25.34457397 C83.34037867 28.74591659 86.73678079 32.15058533 90.13061523 35.55786133 C94.48811906 39.9324018 98.85222422 44.30028312 103.2186327 48.66593361 C106.57226008 52.01983235 109.92327933 55.37632652 113.2734127 58.73371506 C114.88243092 60.3459216 116.49206096 61.95751777 118.10230446 63.56850052 C120.34555648 65.81391166 122.58549003 68.06257889 124.82446289 70.31225586 C125.49404526 70.98138504 126.16362762 71.65051422 126.85350037 72.33992004 C127.46043732 72.95112198 128.06737427 73.56232391 128.69270325 74.19204712 C129.22231565 74.72333536 129.75192804 75.2546236 130.2975893 75.80201149 C132.7935006 78.55552189 133.07419694 81.33102358 132.99881268 84.99656582 C132.44772763 87.63822765 131.58653817 88.70967418 129.7660675 90.6889801 C129.12551737 91.38592546 128.48496723 92.08287083 127.82500648 92.80093575 C123.10689325 97.71555599 118.31166772 102.54778955 113.48999023 107.36035156 C112.28018897 108.57151004 111.07060007 109.78288067 109.86120605 110.9944458 C106.59738875 114.26279638 103.33044739 117.528007 100.06277251 120.79250026 C96.63892326 124.2138081 93.21752536 127.63756597 89.79573059 131.06092834 C84.05710439 136.80136957 78.31638208 142.53970822 72.57446289 148.27685547 C65.93153395 154.9143275 59.2922361 161.55541531 52.65478247 168.19836229 C46.95118771 173.90648866 41.2456546 179.61267207 35.53848344 185.31722265 C32.13146705 188.72267854 28.72513358 192.12881014 25.3205471 195.53669548 C22.12577825 198.73434425 18.92858983 201.92955357 15.72948456 205.12286377 C14.55389101 206.29713103 13.37915507 207.47225756 12.20532417 208.64828682 C10.60814485 210.24818238 9.00794387 211.84499179 7.40690613 213.44102478 C6.06274266 214.78462271 6.06274266 214.78462271 4.69142437 216.15536404 C1.94914865 218.73694384 1.01980058 219.12313155 -2.76855469 219.55200195 C-7.36203656 219.0848682 -8.57053454 217.65659978 -11.45605469 214.17700195 C-11.78605469 213.84700195 -12.11605469 213.51700195 -12.45605469 213.17700195 C-12.56496491 210.53523949 -12.60829926 207.91922342 -12.60995483 205.27656555 C-12.61433709 204.43873274 -12.61871934 203.60089992 -12.62323439 202.73767823 C-12.63667339 199.9079617 -12.64281268 197.07827635 -12.64892578 194.24853516 C-12.65682282 192.22859047 -12.66509152 190.2086472 -12.67370605 188.18870544 C-12.69997523 181.5350785 -12.71523991 174.8814451 -12.72949219 168.2277832 C-12.73485011 165.94060957 -12.74022761 163.65343598 -12.74562454 161.36626244 C-12.76726165 151.85369697 -12.78599906 142.34113325 -12.79724693 132.82854939 C-12.81348902 119.1800818 -12.84666383 105.53189882 -12.90364778 91.88353854 C-12.94231549 82.29624272 -12.96187596 72.70902312 -12.9671675 63.12165135 C-12.97082568 57.39136415 -12.9828964 51.66138014 -13.01527023 45.93117714 C-13.04529439 40.53932816 -13.05168273 35.1479667 -13.03988647 29.75605202 C-13.03966526 27.77672002 -13.04800994 25.79736579 -13.06554031 23.81811142 C-13.08817382 21.1156038 -13.07996435 18.41487259 -13.0640564 15.71235657 C-13.07793848 14.92898039 -13.09182057 14.14560421 -13.10612333 13.33848935 C-13.02357541 7.64701546 -11.52969058 5.15937146 -7.45605469 1.17700195 C-4.85223839 -0.12490619 -2.91598999 0.02848272 0 0 Z " fill="#05DAE1" transform="translate(56.4560546875,43.822998046875)"/>
<path d="M0 0 C2.99045181 1.99555874 2.99045181 1.99555874 5.76080322 4.7698822 C6.26821619 5.26677675 6.77562916 5.7636713 7.29841828 6.27562326 C8.35876306 7.31837263 9.41051507 8.36992742 10.45376301 9.42978168 C11.91720327 10.91591913 13.40107425 12.3767546 14.89690399 13.8302021 C17.89927913 16.75535066 20.86398226 19.7171047 23.82714844 22.68188477 C24.95186199 23.80359613 26.07677664 24.92510588 27.20187378 26.0464325 C30.21585686 29.05169368 33.22669722 32.06008331 36.23664379 35.06938672 C38.11963008 36.95165743 40.00332856 38.83321242 41.8872757 40.71452141 C48.46447142 47.28251347 55.03912838 53.85303423 61.61132812 60.42602539 C67.73498053 66.55028207 73.86422956 72.66889859 79.99603629 78.78498989 C85.27367651 84.04958536 90.54748569 89.31799754 95.81828713 94.58943981 C98.96135796 97.73276588 102.10597089 100.87451078 105.25444794 104.01242256 C108.2039656 106.95230726 111.14870859 109.89688971 114.08975601 112.84524727 C115.17165311 113.92819518 116.25527646 115.00942154 117.34070206 116.08883286 C118.81606773 117.55654757 120.2852081 119.03021701 121.75286865 120.50563049 C122.57795803 121.3301751 123.40304741 122.15471972 124.2531395 123.00425053 C126 125 126 125 126 127 C126.99 127.33 127.98 127.66 129 128 C131.60685066 130.51030063 131.98590397 131.84212446 132.3125 135.5 C132.02719819 138.69538024 131.81740915 140.41736594 130 143 C126.2049913 145.5300058 123.17355266 145.28747619 118.77639771 145.27415466 C117.5037762 145.28200968 117.5037762 145.28200968 116.20544517 145.29002339 C113.35192277 145.30506996 110.49857894 145.30572956 107.64501953 145.30639648 C105.60345149 145.31401481 103.56188633 145.32244174 101.52032471 145.33161926 C95.96661925 145.35360274 90.41296886 145.36236828 84.8592248 145.36744571 C81.39154433 145.37108459 77.9238784 145.37732218 74.45620346 145.3844471 C62.36451328 145.40895449 50.27286609 145.42199638 38.18115234 145.42553711 C26.90041953 145.42917389 15.61995855 145.45907629 4.33930886 145.50094169 C-5.33804158 145.53560101 -15.01530174 145.55108479 -24.69271386 145.55178314 C-30.47602067 145.55257741 -36.25905072 145.56138502 -42.04229355 145.58978081 C-47.48096748 145.61588681 -52.91913371 145.61820833 -58.35784149 145.60212517 C-60.35532612 145.60030475 -62.35283943 145.60705454 -64.35026169 145.62294388 C-67.07492404 145.643299 -69.79779238 145.63291544 -72.52243042 145.61473083 C-73.3151371 145.6279308 -74.10784378 145.64113077 -74.92457187 145.65473074 C-78.98401781 145.59273716 -80.77503569 145.18296927 -83.9673481 142.58657932 C-86.83513545 138.93727791 -87.13824983 137.15490312 -87.22460938 132.57568359 C-87.24712769 131.44045258 -87.269646 130.30522156 -87.29284668 129.1355896 C-87.36379797 123.9265824 -87.42157344 118.71764384 -87.45996094 113.50830078 C-87.48218525 110.76286842 -87.52387067 108.0188066 -87.58300781 105.27392578 C-87.66811222 101.31550541 -87.69528979 97.35772471 -87.71875 93.3984375 C-87.75174194 92.17732269 -87.78473389 90.95620789 -87.81872559 89.6980896 C-87.81602661 88.54394562 -87.81332764 87.38980164 -87.81054688 86.20068359 C-87.82933899 84.69083389 -87.82933899 84.69083389 -87.84851074 83.15048218 C-86.55205516 78.336801 -83.42643487 75.51057351 -80 72 C-79.41591684 71.38488745 -78.83183369 70.76977489 -78.23005104 70.13602257 C-76.41132086 68.23415548 -74.57056631 66.35617559 -72.72290039 64.48242188 C-72.03247147 63.77899658 -71.34204254 63.07557129 -70.63069153 62.35083008 C-63.49410955 55.08869694 -56.32330353 47.86025792 -49.1496582 40.63476562 C-45.74936063 37.20759113 -42.36044151 33.76972379 -38.98071289 30.32226562 C-34.88593335 26.14567632 -30.77197502 21.98892547 -26.64355278 17.84559631 C-25.07737403 16.26716531 -23.51810124 14.68185041 -21.96599007 13.08958435 C-19.79780927 10.86808519 -17.60586905 8.67298092 -15.40649414 6.48242188 C-14.77300049 5.82173706 -14.13950684 5.16105225 -13.48681641 4.48034668 C-12.88011612 3.88608887 -12.27341583 3.29183105 -11.64833069 2.67956543 C-10.87660066 1.89872211 -10.87660066 1.89872211 -10.08928013 1.10210419 C-6.7884183 -0.63911452 -3.58719544 -0.68958421 0 0 Z " fill="#EC54AE" transform="translate(131,212)"/>
<path d="M0 0 C1.2457802 -0.00445668 1.2457802 -0.00445668 2.51672769 -0.0090034 C5.31570692 -0.01771484 8.11464351 -0.01920071 10.91363525 -0.02069092 C12.91402275 -0.0253174 14.91440935 -0.03034183 16.91479492 -0.03573608 C22.36118631 -0.04887937 27.80756537 -0.05530892 33.25397015 -0.05974674 C36.65481165 -0.06267467 40.05564976 -0.06677896 43.45648956 -0.07125092 C54.0914317 -0.0849316 64.72636611 -0.09459517 75.36131644 -0.09845281 C87.64771505 -0.10293359 99.93400242 -0.12048009 112.22036719 -0.1494534 C121.71002168 -0.17105648 131.19964484 -0.18115637 140.68932366 -0.18249393 C146.36026547 -0.18354304 152.03110277 -0.18947332 157.70201874 -0.20731354 C163.0371625 -0.22377019 168.37212295 -0.22596138 173.70728302 -0.21717453 C175.66563914 -0.21640284 177.62400502 -0.22076424 179.58233643 -0.23063278 C182.25595646 -0.24331568 184.92892373 -0.23749538 187.60253906 -0.22705078 C188.37745123 -0.23510719 189.15236339 -0.24316359 189.95075774 -0.25146413 C194.72373895 -0.20785941 198.02612385 0.5577139 202.05523682 3.14044189 C204.33326662 6.55748659 204.31186529 7.80121538 204.32989502 11.81768799 C204.33942703 12.9825473 204.34895905 14.14740662 204.35877991 15.3475647 C204.3574128 17.23664047 204.3574128 17.23664047 204.35601807 19.16387939 C204.36030319 20.45734283 204.36458832 21.75080627 204.3690033 23.08346558 C204.37646408 25.82222591 204.37617581 28.56085734 204.37091064 31.29962158 C204.36512297 34.80238265 204.38202992 38.30461373 204.40525532 41.80728722 C204.42356955 45.15533984 204.41980653 48.50327697 204.41851807 51.85137939 C204.42772781 53.10671478 204.43693756 54.36205017 204.44642639 55.65542603 C204.4401976 56.82658966 204.43396881 57.9977533 204.42755127 59.20440674 C204.42818069 60.23238373 204.42881012 61.26036072 204.42945862 62.31948853 C203.55175394 68.93578925 198.47696966 72.99912021 193.95343018 77.48516846 C193.23444046 78.20605652 192.51545074 78.92694458 191.77467346 79.66967773 C189.40299709 82.04505121 187.02421075 84.41316089 184.64508057 86.78106689 C182.99469662 88.43025858 181.34468234 90.07982026 179.69502258 91.72973633 C176.24062464 95.18257137 172.78289575 98.63202349 169.3225708 102.07891846 C164.87962746 106.50483903 160.4433287 110.93734728 156.00926876 115.37216568 C152.60475569 118.77640737 149.19764675 122.17804066 145.78964424 125.57878876 C144.15231759 127.21292644 142.51560189 128.8476765 140.87949944 130.48303986 C138.59805671 132.76232333 136.31335712 135.03828856 134.02764893 137.31329346 C133.00757248 138.33404968 133.00757248 138.33404968 131.96688843 139.37542725 C131.34582718 139.99222351 130.72476593 140.60901978 130.08488464 141.24450684 C129.27494254 142.05193518 129.27494254 142.05193518 128.44863796 142.8756752 C125.69719364 145.37311476 122.93375802 145.67756522 119.26350784 145.61310387 C114.79165242 144.65594056 112.05474513 141.16497811 108.99029541 137.96783447 C108.22823288 137.20533386 107.46617035 136.44283325 106.68101501 135.65722656 C104.16927034 133.13482101 101.68694601 130.58538856 99.20367432 128.03497314 C97.4601112 126.27393928 95.71469094 124.51474236 93.96749878 122.75730896 C89.37201212 118.12562128 84.8006017 113.47088023 80.23425293 108.81048584 C74.69293 103.15894292 69.12029541 97.53820158 63.55298805 91.91228008 C59.21960141 87.53249551 54.89061961 83.14864551 50.57461548 78.75172424 C49.77780869 77.9417247 48.98100189 77.13172516 48.16004944 76.29718018 C46.67993908 74.79228095 45.20186864 73.28537127 43.72633362 71.77598572 C39.99383407 67.98600015 36.19387099 64.48176438 32.05523682 61.14044189 C29.68023682 58.95294189 29.68023682 58.95294189 28.05523682 57.14044189 C28.05523682 56.48044189 28.05523682 55.82044189 28.05523682 55.14044189 C27.47177994 54.88164749 26.88832306 54.62285309 26.28718567 54.35621643 C23.88070539 53.04537212 22.28151961 51.62055422 20.34405518 49.68804932 C19.6332933 48.98359177 18.92253143 48.27913422 18.19023132 47.55332947 C17.43283157 46.79188126 16.67543182 46.03043304 15.89508057 45.24591064 C15.10879776 44.46154129 14.32251495 43.67717194 13.5124054 42.86903381 C11.85161397 41.20960267 10.19334274 39.54764597 8.53741455 37.88336182 C6.00583171 35.34109207 3.4637927 32.80963373 0.92047119 30.27911377 C-0.69280054 28.66452014 -2.3054516 27.04930605 -3.91741943 25.43341064 C-5.0565554 24.30034737 -5.0565554 24.30034737 -6.21870422 23.14439392 C-14.50394775 14.78533451 -14.50394775 14.78533451 -15.44476318 9.14044189 C-14.77379456 5.11463013 -13.02607464 3.70820144 -9.94476318 1.14044189 C-6.80425715 -0.42981112 -3.44802837 -0.00381159 0 0 Z " fill="#FEA603" transform="translate(152.94476318359375,43.85955810546875)"/>
<path d="M0 0 C2.69990662 1.79993774 4.5418865 3.083773 6 6 C6.10663596 8.69669174 6.15221385 11.36805887 6.15390015 14.06538391 C6.16047353 15.33059845 6.16047353 15.33059845 6.1671797 16.62137288 C6.18059622 19.46413685 6.18675293 22.3068698 6.19287109 25.1496582 C6.20076974 27.18122499 6.20903854 29.21279036 6.21765137 31.24435425 C6.24389641 37.92981623 6.25918033 44.61528457 6.2734375 51.30078125 C6.27879594 53.59943331 6.28417344 55.89808532 6.28956985 58.19673729 C6.31120118 67.75566852 6.32993944 77.31459804 6.34119225 86.87354755 C6.35744138 100.58799546 6.39063986 114.30216048 6.44759309 128.01650172 C6.48624563 137.65136007 6.50581932 147.28614261 6.51111281 156.92107648 C6.51477236 162.6798208 6.52685796 168.43826358 6.55921555 174.19692421 C6.58921397 179.613406 6.59563733 185.02940249 6.58383179 190.44594955 C6.58361037 192.43537769 6.59197142 194.4248278 6.60948563 196.41417885 C6.63207946 199.12792991 6.62392831 201.83990659 6.60800171 204.55366516 C6.6218838 205.34316301 6.63576588 206.13266086 6.65006864 206.94608289 C6.59070788 211.04377641 6.18951737 212.77297757 3.52449989 215.96539593 C2.69141493 216.63681527 1.85832996 217.30823462 1 218 C0.67 218.33 0.34 218.66 0 219 C-1.81742538 219.14099083 -3.64029037 219.21239781 -5.46264648 219.25634766 C-6.63153915 219.28532135 -7.80043182 219.31429504 -9.00474548 219.34414673 C-13.68069743 219.42870269 -18.35661761 219.50157937 -23.03309536 219.54844093 C-26.57845187 219.58407004 -30.12151391 219.6370059 -33.66577148 219.73388672 C-37.75534302 219.84533087 -41.84262037 219.88182952 -45.93359375 219.9140625 C-47.1912706 219.95737701 -48.44894745 220.00069153 -49.74473572 220.0453186 C-55.96862558 220.03207344 -60.12418195 219.60570448 -64.890625 215.4230957 C-66.61677536 213.6373707 -68.31699054 211.82644136 -70 210 C-71.77904098 208.22387648 -73.57808166 206.46927797 -75.37652588 204.71281719 C-78.88457103 201.27555242 -82.34636093 197.79195413 -85.81640625 194.31640625 C-87.32414927 192.80933799 -88.83204061 191.3024181 -90.34007263 189.79563904 C-93.47907291 186.65810403 -96.61627968 183.51878985 -99.75219727 180.37817383 C-103.77723813 176.34739681 -107.80680536 172.3211792 -111.83769321 168.29625034 C-114.94233044 165.19521688 -118.04459423 162.09181789 -121.14613152 158.98768425 C-122.63220717 157.50094085 -124.11902785 156.01494177 -125.60659981 154.52969551 C-127.67448317 152.46433985 -129.73915445 150.39582688 -131.80297852 148.32641602 C-132.41952301 147.71189575 -133.0360675 147.09737549 -133.67129517 146.4642334 C-138.87782607 141.23144264 -138.87782607 141.23144264 -139.37248802 136.24553585 C-139.30977108 132.4091277 -138.3038516 130.36554259 -135.58064616 127.54333359 C-135.07229617 127.05760421 -134.56394618 126.57187484 -134.04019165 126.07142639 C-133.50665742 125.5303512 -132.9731232 124.98927601 -132.42342126 124.4318046 C-130.6361925 122.62909393 -128.82192652 120.85639576 -127.00634766 119.08227539 C-125.71725686 117.79380432 -124.42991992 116.50357649 -123.14421082 115.21173096 C-119.65165614 111.71261118 -116.13489872 108.23877362 -112.61315203 104.76906896 C-108.93386241 101.13608534 -105.27684512 97.48081892 -101.61727905 93.82798767 C-95.47137276 87.69954796 -89.31121112 81.58576333 -83.140625 75.48217773 C-74.42999358 66.8660923 -65.74501563 58.22450617 -57.06520391 49.57738888 C-45.44652657 38.00522292 -33.8207622 26.43997476 -22.16480446 14.90534973 C-20.90056158 13.65365183 -19.6371419 12.40112188 -18.37458992 11.14771843 C-16.65665539 9.44266058 -14.93567774 7.74073776 -13.21377563 6.03968811 C-12.45794282 5.28767147 -12.45794282 5.28767147 -11.68684065 4.52046257 C-7.7155381 0.60890242 -5.66927034 -0.55581082 0 0 Z " fill="#6A9FFA" transform="translate(351,138)"/>
<path d="M0 0 C8.19921573 2.83693043 15.11761592 12.68692793 21.17446899 18.75750732 C22.23427011 19.81663333 23.2942195 20.87561097 24.35430908 21.93444824 C26.5594974 24.13817256 28.76289269 26.34366948 30.96499634 28.55047607 C33.78604359 31.37725508 36.6116048 34.19947297 39.43849754 37.02040482 C41.62100989 39.19930624 43.80113829 41.38058039 45.98054886 43.56258392 C47.02201608 44.60471712 48.06422361 45.64611103 49.10718918 46.68674469 C50.55962088 48.13663733 52.00880982 49.58969557 53.45718384 51.04364014 C54.28132782 51.86857971 55.1054718 52.69351929 55.95458984 53.54345703 C59.35374588 57.15747108 60.49757933 59.60656518 60.35108566 64.62457466 C59.67301912 68.21967551 57.31322142 70.38464627 54.7628479 72.80413818 C54.21010696 73.35965363 53.65736603 73.91516907 53.08787537 74.48751831 C51.26542382 76.30949682 49.41623232 78.1014398 47.56509399 79.89422607 C46.29026148 81.15666679 45.01712106 82.42081831 43.74560547 83.68659973 C40.40031658 87.00706671 37.0312703 90.30239317 33.65707397 93.59344482 C30.90100143 96.28942065 28.16181376 99.00219708 25.42342567 101.71611691 C19.77389638 107.31504741 14.11338322 112.90296165 8.42300415 118.46038818 C7.89720261 118.97721664 7.37140106 119.4940451 6.82966614 120.02653503 C3.76923911 123.00488678 2.10372661 124.49695111 -2.16146851 125.17938232 C-11.44185393 123.98191324 -19.02117911 112.85809244 -25.46615601 106.41766357 C-26.54845218 105.33858766 -27.63082043 104.25958404 -28.71325684 103.1806488 C-30.9656656 100.93418666 -33.21604027 98.68570951 -35.46517944 96.43597412 C-38.34505922 93.55599206 -41.2317992 90.68299164 -44.12028313 87.81164265 C-46.35074596 85.59229194 -48.57665552 83.36841763 -50.80130386 81.14323997 C-51.86421506 80.0815067 -52.92874333 79.02138969 -53.99493027 77.96294594 C-55.4808562 76.48681959 -56.96031026 75.00448967 -58.43832397 73.52044678 C-59.70118729 72.25972099 -59.70118729 72.25972099 -60.98956299 70.973526 C-64.06154768 67.53048762 -65.05323106 65.9990109 -64.99360657 61.30508423 C-63.85068783 56.97563293 -61.85704787 54.68380079 -58.72225952 51.66815186 C-57.89292908 50.83509773 -57.89292908 50.83509773 -57.04684448 49.98521423 C-55.22536667 48.16282202 -53.38349626 46.36267234 -51.54037476 44.56219482 C-50.26740529 43.29788414 -48.99568871 42.03231085 -47.72517395 40.76553345 C-44.38383552 37.441396 -41.02443862 34.13609094 -37.66134644 30.83398438 C-34.91347097 28.1297789 -32.17871629 25.41251606 -29.44455051 22.69445992 C-26.18908177 19.45857006 -22.92815557 16.22821017 -19.66537476 12.99969482 C-19.0410663 12.38181217 -18.41675785 11.76392952 -17.77353096 11.12732315 C-16.01194008 9.38665961 -14.24674226 7.64975195 -12.48007202 5.91424561 C-11.95584152 5.3958461 -11.43161102 4.87744659 -10.89149475 4.34333801 C-7.17753216 0.70695542 -5.35440172 -0.89811359 0 0 Z " fill="#CFD8DA" transform="translate(203.03646850585938,138.32061767578125)"/>
<path d="M0 0 C0.93005859 0.2165625 0.93005859 0.2165625 1.87890625 0.4375 C12.22898207 2.60694821 22.90405428 3.2067567 33.19140625 0.4453125 C35.48767861 -0.12007637 37.64734468 -0.15178421 40 0 C40.495 2.475 40.495 2.475 41 5 C36.6147081 7.97068161 32.01508715 9.45941767 27 11 C27.48192351 15.8995557 28.10208209 20.67066456 29.0625 25.5 C30.00104577 30.42910334 30.16424425 34.99055049 30 40 C28.125 40.625 28.125 40.625 26 41 C23.13367056 38.13367056 22.7684332 34.70683574 21.875 30.875 C21.69324219 30.12089844 21.51148438 29.36679688 21.32421875 28.58984375 C20.87645291 26.72808054 20.43739278 24.86422747 20 23 C17.79675411 26.30486883 17.25573063 28.76089514 16.4375 32.625 C15.10098177 38.89901823 15.10098177 38.89901823 14 40 C12.33382885 40.04063832 10.66611905 40.042721 9 40 C8.70546901 33.51111417 9.82985807 27.4310765 11 21.0625 C11.19078125 19.99708984 11.3815625 18.93167969 11.578125 17.83398438 C12.04670757 15.22163652 12.52080211 12.61041775 13 10 C12.07876343 9.81171631 12.07876343 9.81171631 11.13891602 9.61962891 C9.92739868 9.36318604 9.92739868 9.36318604 8.69140625 9.1015625 C7.89162354 8.93479004 7.09184082 8.76801758 6.26782227 8.59619141 C3.49083842 7.8661457 1.33395034 6.65635186 -1 5 C-0.67 3.35 -0.34 1.7 0 0 Z " fill="#343C3D" transform="translate(181,186)"/>
<path d="M0 0 C6.13836393 5.98096998 6.20289525 9.07548063 6.62109375 17.51953125 C6.82726212 20.93452437 6.82726212 20.93452437 8.09765625 23.63671875 C9.22370839 26.58590292 8.62038167 27.92833422 8 31 C7.95377708 33.13361554 7.96098829 35.26874132 8.0078125 37.40234375 C8.02457031 38.62244141 8.04132813 39.84253906 8.05859375 41.09960938 C8.10279956 43.65444533 8.15486026 46.20915766 8.21484375 48.76367188 C8.22902344 49.98505859 8.24320312 51.20644531 8.2578125 52.46484375 C8.2798877 53.574646 8.30196289 54.68444824 8.32470703 55.82788086 C7.95378811 59.45145196 6.79814541 61.85960619 5 65 C4.34 65 3.68 65 3 65 C3 65.66 3 66.32 3 67 C2.38125 67.0825 1.7625 67.165 1.125 67.25 C-1.14199908 67.78097138 -1.14199908 67.78097138 -1.953125 69.7890625 C-2.29859375 70.51867187 -2.6440625 71.24828125 -3 72 C-3.92358764 73.39857558 -4.88341995 74.77377952 -5.875 76.125 C-6.36742187 76.80820313 -6.85984375 77.49140625 -7.3671875 78.1953125 C-9.14131144 80.15618633 -10.61064907 80.9206407 -13 82 C-14.18326025 82.80959912 -15.35052022 83.64311507 -16.5 84.5 C-18.43122313 85.91430045 -20.15297419 87.07441988 -22.3125 88.125 C-24.35773921 89.01301388 -24.35773921 89.01301388 -26 92 C-26.66 92 -27.32 92 -28 92 C-24.1740688 83.71048239 -18.29528951 78.11280423 -11.8125 71.8125 C-9.98111606 70.03202319 -8.15406461 68.24707573 -6.33203125 66.45703125 C-5.52483643 65.67303955 -4.7176416 64.88904785 -3.88598633 64.08129883 C-0.79863457 60.67422133 -0.86061361 57.66111165 -0.79467773 53.2434082 C-0.77473251 52.06241043 -0.75478729 50.88141266 -0.73423767 49.66462708 C-0.71752518 48.38955795 -0.70081268 47.11448883 -0.68359375 45.80078125 C-0.66281265 44.49545944 -0.64203156 43.19013763 -0.62062073 41.84526062 C-0.56547727 38.37817647 -0.51603405 34.91103354 -0.46777344 31.44384766 C-0.4175019 27.90456931 -0.36184537 24.36537611 -0.30664062 20.82617188 C-0.19915362 13.88418844 -0.09768773 6.94212806 0 0 Z " fill="#CDEAE5" transform="translate(357,50)"/>
<path d="M0 0 C0.48212952 0.32342377 0.96425903 0.64684753 1.46099854 0.98007202 C5.12767162 2.45299061 8.73026594 2.30856288 12.62402344 2.31884766 C13.92700127 2.33391609 13.92700127 2.33391609 15.25630188 2.34928894 C18.12398627 2.38014943 20.99157717 2.39716408 23.859375 2.4140625 C25.84906826 2.43277184 27.83875356 2.45234507 29.82843018 2.4727478 C35.0627982 2.52409972 40.29719195 2.56370913 45.53167725 2.60089111 C50.87404767 2.64091153 56.21631076 2.69201283 61.55859375 2.7421875 C72.03898714 2.83898305 82.51944108 2.92337629 93 3 C92.67 3.66 92.34 4.32 92 5 C91.01 4.67 90.02 4.34 89 4 C88.67 4.66 88.34 5.32 88 6 C87.38125 5.814375 86.7625 5.62875 86.125 5.4375 C78.50208595 4.37029203 71.04248809 6.048251 64 9 C63.67 9.33 63.34 9.66 63 10 C60.22311455 10.26558947 57.47081108 10.46948221 54.6875 10.625 C53.91470703 10.6765625 53.14191406 10.728125 52.34570312 10.78125 C51.59611328 10.82507813 50.84652344 10.86890625 50.07421875 10.9140625 C49.38932373 10.9548291 48.70442871 10.9955957 47.9987793 11.03759766 C45.86112161 10.99738765 44.04809849 10.59302894 42 10 C41.67 10.66 41.34 11.32 41 12 C41 11.34 41 10.68 41 10 C40.01 10 39.02 10 38 10 C37.67 10.66 37.34 11.32 37 12 C37 11.34 37 10.68 37 10 C36.34 10 35.68 10 35 10 C34.67 10.66 34.34 11.32 34 12 C33.443125 11.814375 32.88625 11.62875 32.3125 11.4375 C29.57681481 10.91993794 27.70010024 11.39247745 25 12 C23.68 12 22.36 12 21 12 C21 12.66 21 13.32 21 14 C19.02 14.33 17.04 14.66 15 15 C14.67 14.01 14.34 13.02 14 12 C13.01 12.33 12.02 12.66 11 13 C10.443125 12.38125 9.88625 11.7625 9.3125 11.125 C6.93354822 8.93893621 5.03642904 8.01214301 2 7 C1.34 7.66 0.68 8.32 0 9 C0 6 0 3 0 0 Z " fill="#E0DFEE" transform="translate(46,354)"/>
<path d="M0 0 C0.268125 1.0725 0.53625 2.145 0.8125 3.25 C1.73857319 6.91989191 1.73857319 6.91989191 3.6875 9.1875 C5 11 5 11 4.6875 13.25 C4.460625 13.8275 4.23375 14.405 4 15 C1.36 14.67 -1.28 14.34 -4 14 C-2.35 17.3 -0.7 20.6 1 24 C0 25 0 25 -3.37890625 25.09765625 C-4.77347077 25.09098369 -6.16801743 25.07902532 -7.5625 25.0625 C-8.27341797 25.05798828 -8.98433594 25.05347656 -9.71679688 25.04882812 C-11.47790013 25.03700864 -13.23896036 25.01907263 -15 25 C-17.4584235 20.63383986 -17.66858498 16.92175207 -17 12 C-15.45012867 7.51835237 -13.98510184 4.65673456 -10 2 C-7.7734375 1.3671875 -7.7734375 1.3671875 -5.375 0.875 C-4.57835937 0.70742188 -3.78171875 0.53984375 -2.9609375 0.3671875 C-1 0 -1 0 0 0 Z " fill="#FEF7FB" transform="translate(199,306)"/>
<path d="M0 0 C4.29 0 8.58 0 13 0 C13 0.66 13 1.32 13 2 C15.97 2 18.94 2 22 2 C21.690625 2.721875 21.38125 3.44375 21.0625 4.1875 C20.042684 6.88701295 19.2214175 9.12157253 19 12 C20.37168238 14.19038423 20.37168238 14.19038423 22 16 C22 16.66 22 17.32 22 18 C18.04 18 14.08 18 10 18 C10 17.34 10 16.68 10 16 C7.36 16 4.72 16 2 16 C2 20.95 2 25.9 2 31 C1.34 31 0.68 31 0 31 C0 20.77 0 10.54 0 0 Z " fill="#FEF9F1" transform="translate(197,64)"/>
<path d="M0 0 C0.66386719 0.42152344 1.32773437 0.84304688 2.01171875 1.27734375 C2.89472656 1.82519531 3.77773438 2.37304688 4.6875 2.9375 C5.99267578 3.75541016 5.99267578 3.75541016 7.32421875 4.58984375 C11.46137385 6.77015469 15.34667052 7.12573438 19.97387695 7.11352539 C20.93449539 7.11344986 21.89511383 7.11337433 22.88484192 7.11329651 C23.9089769 7.10813522 24.93311188 7.10297394 25.98828125 7.09765625 C27.04661667 7.0962413 28.10495209 7.09482635 29.19535828 7.09336853 C32.56776789 7.08778159 35.94011054 7.07523144 39.3125 7.0625 C41.60221258 7.05748331 43.89192621 7.0529207 46.18164062 7.04882812 C51.78778317 7.03781643 57.3938868 7.02109126 63 7 C63 7.99 63 8.98 63 10 C60.25034772 10.19511725 57.50057868 10.38136433 54.75 10.5625 C53.58404297 10.64661133 53.58404297 10.64661133 52.39453125 10.73242188 C51.64042969 10.78076172 50.88632813 10.82910156 50.109375 10.87890625 C49.41811523 10.9260376 48.72685547 10.97316895 48.01464844 11.02172852 C45.86382928 10.99853136 44.05915129 10.5995764 42 10 C41.67 10.66 41.34 11.32 41 12 C41 11.34 41 10.68 41 10 C40.01 10 39.02 10 38 10 C37.67 10.66 37.34 11.32 37 12 C37 11.34 37 10.68 37 10 C36.34 10 35.68 10 35 10 C34.67 10.66 34.34 11.32 34 12 C33.443125 11.814375 32.88625 11.62875 32.3125 11.4375 C29.57681481 10.91993794 27.70010024 11.39247745 25 12 C23.68 12 22.36 12 21 12 C21 12.66 21 13.32 21 14 C19.02 14.33 17.04 14.66 15 15 C14.67 14.01 14.34 13.02 14 12 C13.01 12.33 12.02 12.66 11 13 C10.443125 12.38125 9.88625 11.7625 9.3125 11.125 C6.93354822 8.93893621 5.03642904 8.01214301 2 7 C1.34 7.66 0.68 8.32 0 9 C0 6 0 3 0 0 Z " fill="#E2E6F6" transform="translate(46,354)"/>
<path d="M0 0 C0.66 0.66 1.32 1.32 2 2 C1.67342446 5.75561867 0.8830622 8.73602552 -1 12 C-1.66 12 -2.32 12 -3 12 C-3.40605469 12.86238281 -3.40605469 12.86238281 -3.8203125 13.7421875 C-5.01715435 16.03283183 -6.34670657 18.04240326 -7.875 20.125 C-8.36742187 20.80820313 -8.85984375 21.49140625 -9.3671875 22.1953125 C-11.14131144 24.15618633 -12.61064907 24.9206407 -15 26 C-16.18326025 26.80959912 -17.35052022 27.64311507 -18.5 28.5 C-20.43122313 29.91430045 -22.15297419 31.07441988 -24.3125 32.125 C-26.35773921 33.01301388 -26.35773921 33.01301388 -28 36 C-28.66 36 -29.32 36 -30 36 C-26.18599089 27.7363136 -20.33793938 22.15511224 -13.875 15.875 C-12.05526754 14.10631193 -10.23995791 12.33305887 -8.4296875 10.5546875 C-7.62772949 9.77593262 -6.82577148 8.99717773 -5.99951172 8.19482422 C-4.16376697 6.17976375 -3.05146623 4.49412616 -2 2 C-1.34 2 -0.68 2 0 2 C0 1.34 0 0.68 0 0 Z " fill="#E0E8DB" transform="translate(359,106)"/>
<path d="M0 0 C2.62187494 1.04874998 3.79371361 1.64931313 5.25 4.125 C5.4975 4.74375 5.745 5.3625 6 6 C5.01 6 4.02 6 3 6 C2.9175 7.0725 2.835 8.145 2.75 9.25 C1.90600273 13.46998634 1.47676151 14.56626694 -2 17 C-4.33730241 17.87597673 -6.669548 18.62000517 -9.07421875 19.2890625 C-11.19660691 19.82305062 -11.19660691 19.82305062 -12 22 C-12.22467831 23.53668865 -12.40796805 25.07968054 -12.5625 26.625 C-12.64628906 27.44226563 -12.73007813 28.25953125 -12.81640625 29.1015625 C-12.87699219 29.72804687 -12.93757813 30.35453125 -13 31 C-14.32 30.67 -15.64 30.34 -17 30 C-17.4582125 24.84765497 -17.65143613 21.15577378 -15.0625 16.5625 C-11.69295289 13.74308303 -9.11076962 12.93336837 -4.9609375 11.7890625 C-2.69640495 11.11114292 -2.69640495 11.11114292 -1.4375 8.3125 C-1.293125 7.549375 -1.14875 6.78625 -1 6 C-1.99 6 -2.98 6 -4 6 C-2.84826645 3.53199953 -1.95216435 1.95216435 0 0 Z " fill="#EBFCFC" transform="translate(77,174)"/>
<path d="M0 0 C0.66 0 1.32 0 2 0 C2 0.66 2 1.32 2 2 C3.32 2.33 4.64 2.66 6 3 C6.042721 4.66611905 6.04063832 6.33382885 6 8 C5 9 5 9 2.71484375 9.09765625 C1.34005859 9.08025391 1.34005859 9.08025391 -0.0625 9.0625 C-0.98160156 9.05347656 -1.90070313 9.04445313 -2.84765625 9.03515625 C-3.55792969 9.02355469 -4.26820313 9.01195313 -5 9 C-5.12375 8.360625 -5.2475 7.72125 -5.375 7.0625 C-5.58125 6.381875 -5.7875 5.70125 -6 5 C-6.66 4.67 -7.32 4.34 -8 4 C-8 5.65 -8 7.3 -8 9 C-15.42857143 9.14285714 -15.42857143 9.14285714 -19 8 C-19 7.34 -19 6.68 -19 6 C-19.33 6.33 -19.66 6.66 -20 7 C-20 7.33 -20 7.66 -20 8 C-22 8 -24 8 -26 8 C-26.5534764 5.92446352 -27 4.15634036 -27 2 C-23.04 2 -19.08 2 -15 2 C-15 3.65 -15 5.3 -15 7 C-14.34 7 -13.68 7 -13 7 C-13 5.35 -13 3.7 -13 2 C-9.04 2 -5.08 2 -1 2 C-0.67 1.34 -0.34 0.68 0 0 Z " fill="#FEDB9F" transform="translate(330,74)"/>
<path d="M0 0 C0.66 0 1.32 0 2 0 C2.33 0.99 2.66 1.98 3 3 C5.475 3.495 5.475 3.495 8 4 C7.67 5.65 7.34 7.3 7 9 C4.66705225 9.04241723 2.33297433 9.04092937 0 9 C-0.33 8.67 -0.66 8.34 -1 8 C-1 8.33 -1 8.66 -1 9 C-2.65 9 -4.3 9 -6 9 C-6 8.34 -6 7.68 -6 7 C-6.66 7 -7.32 7 -8 7 C-8 7.66 -8 8.32 -8 9 C-8.99 8.67 -9.98 8.34 -11 8 C-11 7.34 -11 6.68 -11 6 C-11.66 6.66 -12.32 7.32 -13 8 C-16.9660586 9.27937374 -20.87309413 9 -25 9 C-25 6.36 -25 3.72 -25 1 C-21.28400809 0.79913557 -20.22791555 0.8480563 -17 3 C-13.45828022 3.16669318 -13.45828022 3.16669318 -10 3 C-9.34 3 -8.68 3 -8 3 C-6.989375 2.979375 -5.97875 2.95875 -4.9375 2.9375 C-2 3 -2 3 -1 4 C-0.67 2.68 -0.34 1.36 0 0 Z " fill="#DDE9FD" transform="translate(280,253)"/>
<path d="M0 0 C1.66666667 0.33333333 3.33333333 0.66666667 5 1 C5.33 0.67 5.66 0.34 6 0 C7.41570123 -0.08651611 8.835595 -0.10704904 10.25390625 -0.09765625 C11.53491211 -0.09282227 11.53491211 -0.09282227 12.84179688 -0.08789062 C13.73962891 -0.07951172 14.63746094 -0.07113281 15.5625 -0.0625 C16.46419922 -0.05798828 17.36589844 -0.05347656 18.29492188 -0.04882812 C20.53001314 -0.03700225 22.76497437 -0.0205222 25 0 C24.01 0.495 24.01 0.495 23 1 C23 1.66 23 2.32 23 3 C23.99 3 24.98 3 26 3 C26.33 2.01 26.66 1.02 27 0 C28.32 0 29.64 0 31 0 C31 4 31 4 30 7 C27.87527424 7.05386629 25.75016348 7.09273071 23.625 7.125 C21.84996094 7.15980469 21.84996094 7.15980469 20.0390625 7.1953125 C17 7 17 7 15 5 C15 4.01 15 3.02 15 2 C14.34 2 13.68 2 13 2 C13 3.32 13 4.64 13 6 C12.34 6 11.68 6 11 6 C10.67 5.01 10.34 4.02 10 3 C10 3.66 10 4.32 10 5 C10 6.32 10 7.64 10 9 C8.35 9 6.7 9 5 9 C4.67 8.01 4.34 7.02 4 6 C3.0409375 6.2784375 3.0409375 6.2784375 2.0625 6.5625 C1.381875 6.706875 0.70125 6.85125 0 7 C-1 6 -1 6 -1.125 3.5 C-1 1 -1 1 0 0 Z " fill="#BFF6F8" transform="translate(111,109)"/>
<path d="M0 0 C0.66 0 1.32 0 2 0 C2 0.99 2 1.98 2 3 C3.65 3 5.3 3 7 3 C7.04254356 4.99954746 7.04080783 7.00041636 7 9 C6.67 9.33 6.34 9.66 6 10 C2.16633668 9.78093352 -1.65125028 9.49382215 -5.47460938 9.140625 C-6.27576172 9.08132812 -7.07691406 9.02203125 -7.90234375 8.9609375 C-8.63960693 8.89696777 -9.37687012 8.83299805 -10.13647461 8.76708984 C-11.05891968 8.88238037 -11.05891968 8.88238037 -12 9 C-12.99 10.485 -12.99 10.485 -14 12 C-15.65 11.67 -17.3 11.34 -19 11 C-18.67 8.36 -18.34 5.72 -18 3 C-14.7 3 -11.4 3 -8 3 C-7.67 3.99 -7.34 4.98 -7 6 C-6.67 5.01 -6.34 4.02 -6 3 C-4.35 3 -2.7 3 -1 3 C-0.67 2.01 -0.34 1.02 0 0 Z " fill="#FED58E" transform="translate(338,87)"/>
<path d="M0 0 C1.65 0 3.3 0 5 0 C5 0.66 5 1.32 5 2 C5.804375 1.979375 6.60875 1.95875 7.4375 1.9375 C10 2 10 2 11 3 C11.04080783 4.99958364 11.04254356 7.00045254 11 9 C10.34 9 9.68 9 9 9 C9 7.35 9 5.7 9 4 C8.34 4 7.68 4 7 4 C7 5.65 7 7.3 7 9 C-5 9 -5 9 -8.375 8.5 C-12.05052737 7.9089084 -12.05052737 7.9089084 -16 8 C-16.33 6.35 -16.66 4.7 -17 3 C-14.23735711 2.40267181 -11.83967231 2 -9 2 C-9 3.65 -9 5.3 -9 7 C-8.34 7 -7.68 7 -7 7 C-7 5.35 -7 3.7 -7 2 C-2.25 0.875 -2.25 0.875 0 2 C0 1.34 0 0.68 0 0 Z " fill="#D4E3FD" transform="translate(301,268)"/>
<path d="M0 0 C0.99 0.66 1.98 1.32 3 2 C3 2.99 3 3.98 3 5 C3.01571045 6.05034424 3.0314209 7.10068848 3.04760742 8.18286133 C3.09898097 11.64483149 3.13627594 15.106399 3.16479492 18.56860352 C3.17987795 20.05922818 3.20034735 21.54980849 3.22631836 23.0402832 C3.26292614 25.20014211 3.27976916 27.35941757 3.29296875 29.51953125 C3.31653442 31.45469604 3.31653442 31.45469604 3.34057617 33.42895508 C2.9743221 37.26924064 1.93451608 39.69356808 0 43 C-0.66 43 -1.32 43 -2 43 C-2 43.66 -2 44.32 -2 45 C-2.66 44.67 -3.32 44.34 -4 44 C-3.67128906 43.19304687 -3.34257812 42.38609375 -3.00390625 41.5546875 C-1.79370206 37.26952869 -1.81580947 33.54273494 -1.9375 29.125 C-2.07055959 23.28023434 -1.79024363 17.79511997 -1 12 C-0.96297561 10.58381723 -0.95240783 9.16586702 -1 7.75 C-1 4.8341654 -0.90742041 2.72226123 0 0 Z " fill="#D6EEEC" transform="translate(362,72)"/>
<path d="M0 0 C3.63 0 7.26 0 11 0 C11 4.95 11 9.9 11 15 C7.37 15 3.74 15 0 15 C0 10.05 0 5.1 0 0 Z " fill="#FFFEFE" transform="translate(198,64)"/>
<path d="M0 0 C-0.66 0 -1.32 0 -2 0 C-2 1.32 -2 2.64 -2 4 C-1.34 4 -0.68 4 0 4 C0.33 2.35 0.66 0.7 1 -1 C6.28 -1 11.56 -1 17 -1 C16.67 -0.34 16.34 0.32 16 1 C16.33 1.33 16.66 1.66 17 2 C16.5625 4.0625 16.5625 4.0625 16 6 C13.36 6 10.72 6 8 6 C8 6.66 8 7.32 8 8 C7.34 8 6.68 8 6 8 C5.67 7.34 5.34 6.68 5 6 C3.906875 6 2.81375 6 1.6875 6 C-5.375 6 -5.375 6 -9 5 C-9 2 -9 2 -8 -1 C-3.375 -2.25 -3.375 -2.25 0 0 Z " fill="#E0EAFE" transform="translate(329,285)"/>
<path d="M0 0 C0.66 0 1.32 0 2 0 C2.33 0.99 2.66 1.98 3 3 C4.06541016 2.87431641 4.06541016 2.87431641 5.15234375 2.74609375 C6.07144531 2.64425781 6.99054688 2.54242188 7.9375 2.4375 C9.31228516 2.28087891 9.31228516 2.28087891 10.71484375 2.12109375 C11.46894531 2.08113281 12.22304687 2.04117187 13 2 C14 3 14 3 14.0625 6.0625 C14.041875 7.031875 14.02125 8.00125 14 9 C13.34 9 12.68 9 12 9 C12 7.35 12 5.7 12 4 C11.34 4 10.68 4 10 4 C10 5.65 10 7.3 10 9 C5.05 9 0.1 9 -5 9 C-5.33 9.66 -5.66 10.32 -6 11 C-6 8.36 -6 5.72 -6 3 C-4.02 3 -2.04 3 0 3 C0 2.01 0 1.02 0 0 Z " fill="#F9D1E9" transform="translate(129,324)"/>
<path d="M0 0 C2.31 0 4.62 0 7 0 C7 0.66 7 1.32 7 2 C6.01 2 5.02 2 4 2 C4 3.65 4 5.3 4 7 C1.70839681 7.02692484 -0.58329546 7.04636124 -2.875 7.0625 C-4.15117188 7.07410156 -5.42734375 7.08570313 -6.7421875 7.09765625 C-10 7 -10 7 -12 6 C-12.66 7.32 -13.32 8.64 -14 10 C-14.99 10 -15.98 10 -17 10 C-17 9.34 -17 8.68 -17 8 C-16.34 8 -15.68 8 -15 8 C-15.66 5.69 -16.32 3.38 -17 1 C-12.33333333 1 -7.66666667 1 -3 1 C-2.34 2.32 -1.68 3.64 -1 5 C-0.67 3.35 -0.34 1.7 0 0 Z " fill="#F8C9E5" transform="translate(113,326)"/>
<path d="M0 0 C0.66 0 1.32 0 2 0 C2.33 0.99 2.66 1.98 3 3 C4.11375 2.79375 5.2275 2.5875 6.375 2.375 C7.57125 2.25125 8.7675 2.1275 10 2 C10.66 2.66 11.32 3.32 12 4 C11.34 4 10.68 4 10 4 C10 5.32 10 6.64 10 8 C10.66 8 11.32 8 12 8 C12 7.34 12 6.68 12 6 C12.66 5.67 13.32 5.34 14 5 C13.67 4.34 13.34 3.68 13 3 C14.32 3 15.64 3 17 3 C17 4.98 17 6.96 17 9 C9.25 9.125 9.25 9.125 7 8 C6.443125 8.144375 5.88625 8.28875 5.3125 8.4375 C2.18769 9.19758892 -0.79759201 9.06158477 -4 9 C-4 7.02 -4 5.04 -4 3 C-2.68 3 -1.36 3 0 3 C0 2.01 0 1.02 0 0 Z " fill="#D7E5FD" transform="translate(311,253)"/>
<path d="M0 0 C0.66 0.66 1.32 1.32 2 2 C1.625 4.125 1.625 4.125 1 6 C1.66 6 2.32 6 3 6 C3.33 4.35 3.66 2.7 4 1 C5.32 1.33 6.64 1.66 8 2 C8 3.98 8 5.96 8 8 C4.68751813 8.02888146 1.37506833 8.04675799 -1.9375 8.0625 C-2.88302734 8.07087891 -3.82855469 8.07925781 -4.80273438 8.08789062 C-6.15141602 8.09272461 -6.15141602 8.09272461 -7.52734375 8.09765625 C-8.35999756 8.10289307 -9.19265137 8.10812988 -10.05053711 8.11352539 C-12 8 -12 8 -13 7 C-13.04080783 5.00041636 -13.04254356 2.99954746 -13 1 C-12.34 1 -11.68 1 -11 1 C-11 2.65 -11 4.3 -11 6 C-10.34 6 -9.68 6 -9 6 C-9 4.35 -9 2.7 -9 1 C-8.34 1 -7.68 1 -7 1 C-7 1.99 -7 2.98 -7 4 C-6.01 4 -5.02 4 -4 4 C-4.66 3.67 -5.32 3.34 -6 3 C-6 2.34 -6 1.68 -6 1 C-3.125 0.375 -3.125 0.375 0 0 Z " fill="#A3F2F4" transform="translate(87,108)"/>
<path d="M0 0 C2.15502531 3.23253796 2.46856135 4.25150923 2 8 C0.875 9.8125 0.875 9.8125 -1 11 C-4.0625 11.3125 -4.0625 11.3125 -7 11 C-9 9 -9 9 -9.375 5.5625 C-9 2 -9 2 -7.3125 0 C-4.3733951 -1.27096428 -2.98417102 -1.09943143 0 0 Z " fill="#CCF7F9" transform="translate(83,193)"/>
<path d="M0 0 C1.18613892 0.00785522 1.18613892 0.00785522 2.39624023 0.01586914 C3.67724609 0.02070313 3.67724609 0.02070313 4.98413086 0.02563477 C5.88196289 0.03401367 6.77979492 0.04239258 7.70483398 0.05102539 C8.6065332 0.05553711 9.50823242 0.06004883 10.43725586 0.06469727 C12.67234712 0.07652315 14.90730835 0.09300319 17.14233398 0.11352539 C16.48233398 2.09352539 15.82233398 4.07352539 15.14233398 6.11352539 C9.20233398 6.11352539 3.26233398 6.11352539 -2.85766602 6.11352539 C-2.85766602 0.17463723 -2.85766602 0.17463723 0 0 Z " fill="#7FEDF0" transform="translate(62.857666015625,136.886474609375)"/>
<path d="M0 0 C0.66 0 1.32 0 2 0 C2 0.99 2 1.98 2 3 C3.32 3.33 4.64 3.66 6 4 C6 5.98 6 7.96 6 10 C5.34 10 4.68 10 4 10 C4 8.35 4 6.7 4 5 C3.34 5 2.68 5 2 5 C2 6.65 2 8.3 2 10 C-1.96 10 -5.92 10 -10 10 C-11 6 -11 6 -10 3 C-6.7 3 -3.4 3 0 3 C0 2.01 0 1.02 0 0 Z " fill="#FEE4B6" transform="translate(275,87)"/>
<path d="M0 0 C0.66 0 1.32 0 2 0 C2 0.66 2 1.32 2 2 C2.763125 2 3.52625 2 4.3125 2 C7.54166667 2 10.77083333 2 14 2 C14 4.97 14 7.94 14 11 C10.26797874 11.20733451 8.28754936 10.64377468 5 9 C2.33290931 8.83249586 2.33290931 8.83249586 0 9 C0 6.03 0 3.06 0 0 Z " fill="#D7E5FD" transform="translate(313,268)"/>
<path d="M0 0 C2 2 2 2 2.3125 4.9375 C2 8 2 8 0.8125 9.875 C-1.65507108 11.40659584 -3.14519831 11.42822025 -6 11 C-7.8125 9.8125 -7.8125 9.8125 -9 8 C-9.42822025 5.14519831 -9.40659584 3.65507108 -7.875 1.1875 C-5.16554166 -0.52849028 -3.13704316 -0.333728 0 0 Z " fill="#323A3B" transform="translate(204,175)"/>
<path d="M0 0 C0.66 0.33 1.32 0.66 2 1 C1.09373216 2.2989839 0.17450463 3.58893167 -0.75 4.875 C-1.26046875 5.59429687 -1.7709375 6.31359375 -2.296875 7.0546875 C-4.11172476 9.12761223 -5.51208859 9.89104724 -8 11 C-9.18326025 11.80959912 -10.35052022 12.64311507 -11.5 13.5 C-13.43122313 14.91430045 -15.15297419 16.07441988 -17.3125 17.125 C-19.35773921 18.01301388 -19.35773921 18.01301388 -21 21 C-21.66 21 -22.32 21 -23 21 C-18.65522726 11.58632574 -13.06321436 7.4309048 -4 3 C-2.64136599 2.03465478 -1.29656863 1.04722851 0 0 Z " fill="#E7EAE3" transform="translate(352,121)"/>
<path d="M0 0 C0.33 0 0.66 0 1 0 C1 4.95 1 9.9 1 15 C4.63 15 8.26 15 12 15 C12 10.05 12 5.1 12 0 C14 2 14 2 14.1953125 5.2578125 C14.16050781 7.17207031 14.16050781 7.17207031 14.125 9.125 C14.10695312 10.40632813 14.08890625 11.68765625 14.0703125 13.0078125 C14.04710937 13.99523437 14.02390625 14.98265625 14 16 C12.02 16.99 12.02 16.99 10 18 C10 17.34 10 16.68 10 16 C7.36 16 4.72 16 2 16 C2 20.95 2 25.9 2 31 C1.34 31 0.68 31 0 31 C0 20.77 0 10.54 0 0 Z " fill="#FED389" transform="translate(197,64)"/>
<path d="M0 0 C6.6 0 13.2 0 20 0 C20 0.99 20 1.98 20 3 C16.7 3 13.4 3 10 3 C10 3.99 10 4.98 10 6 C6.7 6 3.4 6 0 6 C0 4.02 0 2.04 0 0 Z " fill="#C9DCFD" transform="translate(324,209)"/>
<path d="M0 0 C6.6 0 13.2 0 20 0 C20 0.99 20 1.98 20 3 C16.7 3 13.4 3 10 3 C10 3.99 10 4.98 10 6 C6.7 6 3.4 6 0 6 C0 4.02 0 2.04 0 0 Z " fill="#C9DBFD" transform="translate(324,198)"/>
<path d="M0 0 C0.66 0 1.32 0 2 0 C2.33 0.99 2.66 1.98 3 3 C5.97 3 8.94 3 12 3 C12 2.01 12 1.02 12 0 C12.66 0 13.32 0 14 0 C14 2.97 14 5.94 14 9 C9.33333333 9 4.66666667 9 0 9 C0 6.03 0 3.06 0 0 Z " fill="#DDE9FE" transform="translate(332,253)"/>
<path d="M0 0 C2.64 0.33 5.28 0.66 8 1 C7.67 2.32 7.34 3.64 7 5 C8.32 5 9.64 5 11 5 C11.33 3.68 11.66 2.36 12 1 C12 2.98 12 4.96 12 7 C9.125 7.125 9.125 7.125 6 7 C5.34 6.34 4.68 5.68 4 5 C4 5.66 4 6.32 4 7 C1.83125748 6.49396008 0.00032373 6.00016187 -2 5 C-2 5.66 -2 6.32 -2 7 C-2.99 7 -3.98 7 -5 7 C-5 7.66 -5 8.32 -5 9 C-5.66 9 -6.32 9 -7 9 C-7 6.36 -7 3.72 -7 1 C-6.34 1 -5.68 1 -5 1 C-5 2.32 -5 3.64 -5 5 C-4.34 5 -3.68 5 -3 5 C-2.67 3.68 -2.34 2.36 -2 1 C-1.34 1.33 -0.68 1.66 0 2 C0 1.34 0 0.68 0 0 Z " fill="#FEECCD" transform="translate(321,62)"/>
<path d="M0 0 C0.66 0 1.32 0 2 0 C2 2.64 2 5.28 2 8 C0.35 8 -1.3 8 -3 8 C-3 6.35 -3 4.7 -3 3 C-4.32 3 -5.64 3 -7 3 C-7 4.32 -7 5.64 -7 7 C-6.01 7.33 -5.02 7.66 -4 8 C-7.63 8 -11.26 8 -15 8 C-15 7.01 -15 6.02 -15 5 C-14.34 4.67 -13.68 4.34 -13 4 C-13.33 3.34 -13.66 2.68 -14 2 C-12.04235617 1.80543295 -10.08384679 1.61955753 -8.125 1.4375 C-6.48917969 1.28087891 -6.48917969 1.28087891 -4.8203125 1.12109375 C-2 1 -2 1 0 2 C0 1.34 0 0.68 0 0 Z " fill="#FBE2F1" transform="translate(96,311)"/>
<path d="M0 0 C6.27 0 12.54 0 19 0 C19.33 1.32 19.66 2.64 20 4 C13.4 4 6.8 4 0 4 C0 2.68 0 1.36 0 0 Z " fill="#FEFCFD" transform="translate(182,333)"/>
<path d="M0 0 C11.375 0 11.375 0 15 1 C15 2.65 15 4.3 15 6 C12.10765685 6.82638376 10.11257569 7 7 7 C7 5.35 7 3.7 7 2 C6.34 2 5.68 2 5 2 C5 3.65 5 5.3 5 7 C3.35 7 1.7 7 0 7 C0 4.69 0 2.38 0 0 Z " fill="#FEE6BD" transform="translate(287,76)"/>
<path d="M0 0 C0.66 0 1.32 0 2 0 C2.33 0.66 2.66 1.32 3 2 C4.0725 1.979375 5.145 1.95875 6.25 1.9375 C9.14790424 1.9857984 11.28612141 2.13155885 14 3 C13.34 4.65 12.68 6.3 12 8 C10.68 7.67 9.36 7.34 8 7 C7.67 7.66 7.34 8.32 7 9 C6.401875 8.814375 5.80375 8.62875 5.1875 8.4375 C2.83591238 7.77906313 2.83591238 7.77906313 0 9 C0 6.03 0 3.06 0 0 Z " fill="#FEE9C4" transform="translate(282,88)"/>
<path d="M0 0 C3.96 0 7.92 0 12 0 C12 1.65 12 3.3 12 5 C12.66 5 13.32 5 14 5 C14 3.35 14 1.7 14 0 C14.66 0 15.32 0 16 0 C16 1.98 16 3.96 16 6 C13.36 6 10.72 6 8 6 C8 5.34 8 4.68 8 4 C7.67 4.33 7.34 4.66 7 5 C7 5.33 7 5.66 7 6 C5 6 3 6 1 6 C0.4465236 3.92446352 0 2.15634036 0 0 Z " fill="#FEE8C3" transform="translate(303,76)"/>
<path d="M0 0 C1.32 0 2.64 0 4 0 C4 0.66 4 1.32 4 2 C4.804375 1.979375 5.60875 1.95875 6.4375 1.9375 C9 2 9 2 10 3 C10.04080783 4.99958364 10.04254356 7.00045254 10 9 C9.34 9 8.68 9 8 9 C8 7.35 8 5.7 8 4 C7.34 4 6.68 4 6 4 C6 5.65 6 7.3 6 9 C3.36 9 0.72 9 -2 9 C-1.34 8.67 -0.68 8.34 0 8 C0 5.36 0 2.72 0 0 Z " fill="#B4CEFC" transform="translate(302,268)"/>
<path d="M0 0 C3.96 0 7.92 0 12 0 C11.67 1.65 11.34 3.3 11 5 C11 6.32 11 7.64 11 9 C9.35 8.67 7.7 8.34 6 8 C6 7.34 6 6.68 6 6 C5.34 6 4.68 6 4 6 C4 4.35 4 2.7 4 1 C3.34 1 2.68 1 2 1 C2 2.65 2 4.3 2 6 C1.34 6 0.68 6 0 6 C0 4.02 0 2.04 0 0 Z " fill="#D4F9FA" transform="translate(90,137)"/>
<path d="M0 0 C1.33599921 0.32248257 2.66893378 0.65772583 4 1 C5.32 1 6.64 1 8 1 C7.814375 1.5775 7.62875 2.155 7.4375 2.75 C6.7761831 5.30393357 6.7761831 5.30393357 8 9 C5.03 9 2.06 9 -1 9 C-1.09765625 2.84765625 -1.09765625 2.84765625 -1 1 C-0.67 0.67 -0.34 0.34 0 0 Z " fill="#E7FBFC" transform="translate(60,175)"/>
<path d="M0 0 C0.33 0.99 0.66 1.98 1 3 C-0.32 3 -1.64 3 -3 3 C-3 3.66 -3 4.32 -3 5 C-2.01 5.33 -1.02 5.66 0 6 C-2.64 6 -5.28 6 -8 6 C-8 4.35 -8 2.7 -8 1 C-8.66 1 -9.32 1 -10 1 C-10 2.65 -10 4.3 -10 6 C-11.65 5.67 -13.3 5.34 -15 5 C-15 3.35 -15 1.7 -15 0 C-14.34 0 -13.68 0 -13 0 C-12.67 1.32 -12.34 2.64 -12 4 C-11.896875 3.360625 -11.79375 2.72125 -11.6875 2.0625 C-11.460625 1.381875 -11.23375 0.70125 -11 0 C-6.94952424 -1.35015859 -4.2079832 -0.62084998 0 0 Z " fill="#FCEBF6" transform="translate(93,327)"/>
<path d="M0 0 C3.0625 0.25 3.0625 0.25 6.0625 2.25 C6.0625 3.9 6.0625 5.55 6.0625 7.25 C2.7625 7.25 -0.5375 7.25 -3.9375 7.25 C-4.5625 4.875 -4.5625 4.875 -4.9375 2.25 C-2.9375 0.25 -2.9375 0.25 0 0 Z " fill="#F189C7" transform="translate(59.9375,325.75)"/>
<path d="M0 0 C1.32 0.33 2.64 0.66 4 1 C4 3.97 4 6.94 4 10 C1.69 10 -0.62 10 -3 10 C-3.33 8.02 -3.66 6.04 -4 4 C-2.68 3.67 -1.36 3.34 0 3 C0 2.01 0 1.02 0 0 Z " fill="#7AECF0" transform="translate(85,134)"/>
<path d="M0 0 C0.66 0 1.32 0 2 0 C2.33 0.99 2.66 1.98 3 3 C3.66 3.33 4.32 3.66 5 4 C5.33 3.67 5.66 3.34 6 3 C7.67542976 3.28604898 9.34385343 3.61781233 11 4 C11 5.65 11 7.3 11 9 C7.33333333 9 3.66666667 9 0 9 C0 6.03 0 3.06 0 0 Z " fill="#FAD3EA" transform="translate(67,310)"/>
<path d="M0 0 C0.66 0 1.32 0 2 0 C2 0.99 2 1.98 2 3 C3.65 3 5.3 3 7 3 C7.04254356 4.99954746 7.04080783 7.00041636 7 9 C6 10 6 10 2.9375 10.0625 C1.968125 10.041875 0.99875 10.02125 0 10 C-1.125 6.6875 -1.125 6.6875 -2 3 C-1.34 2.01 -0.68 1.02 0 0 Z " fill="#FED182" transform="translate(338,87)"/>
<path d="M0 0 C3.63 0 7.26 0 11 0 C10.67 0.66 10.34 1.32 10 2 C10.33 2.33 10.66 2.66 11 3 C10.5625 5.0625 10.5625 5.0625 10 7 C7.40321849 6.56720308 5.30814759 6.17333302 3 4.875 C0.35022223 3.71572222 -1.26937322 4.24149256 -4 5 C-3.01 4.67 -2.02 4.34 -1 4 C-0.67 2.68 -0.34 1.36 0 0 Z " fill="#ADCAFC" transform="translate(335,284)"/>
<path d="M0 0 C1.65 0.33 3.3 0.66 5 1 C4.01 1.66 3.02 2.32 2 3 C4.62113708 3 6.50935112 2.68707555 9 2 C10 6.75 10 6.75 10 9 C9.113125 8.814375 8.22625 8.62875 7.3125 8.4375 C4.14821189 8.01957516 2.05160358 8.19222258 -1 9 C-1 8.34 -1 7.68 -1 7 C-0.01 6.67 0.98 6.34 2 6 C1.01 5.34 0.02 4.68 -1 4 C-0.67 2.68 -0.34 1.36 0 0 Z " fill="#FEE7C0" transform="translate(291,60)"/>
<path d="M0 0 C0.66 0 1.32 0 2 0 C2 2.64 2 5.28 2 8 C0.02 8.33 -1.96 8.66 -4 9 C-4 9.66 -4 10.32 -4 11 C-4.66 11 -5.32 11 -6 11 C-6 8.03 -6 5.06 -6 2 C-4.35 2 -2.7 2 -1 2 C-0.67 1.34 -0.34 0.68 0 0 Z " fill="#82EDF1" transform="translate(115,121)"/>
<path d="M0 0 C0.66 0 1.32 0 2 0 C2 0.66 2 1.32 2 2 C3.32 2.33 4.64 2.66 6 3 C6 4.98 6 6.96 6 9 C5.34 9 4.68 9 4 9 C4 7.35 4 5.7 4 4 C3.34 4 2.68 4 2 4 C2 5.65 2 7.3 2 9 C0.35 8.67 -1.3 8.34 -3 8 C-3.33 6.02 -3.66 4.04 -4 2 C-3.34 1.67 -2.68 1.34 -2 1 C-1.34 1.33 -0.68 1.66 0 2 C0 1.34 0 0.68 0 0 Z " fill="#C4D9FD" transform="translate(334,268)"/>
<path d="M0 0 C1.65 0 3.3 0 5 0 C5 0.66 5 1.32 5 2 C5.66 2 6.32 2 7 2 C7 2.99 7 3.98 7 5 C7.66 5 8.32 5 9 5 C9 4.01 9 3.02 9 2 C9.66 2 10.32 2 11 2 C10.34 3.98 9.68 5.96 9 8 C8.01 7.67 7.02 7.34 6 7 C5.67 6.34 5.34 5.68 5 5 C4.01 5 3.02 5 2 5 C2 5.66 2 6.32 2 7 C2.99 7 3.98 7 5 7 C5 7.66 5 8.32 5 9 C3.35 9 1.7 9 0 9 C0 6.03 0 3.06 0 0 Z " fill="#ABF3F5" transform="translate(54,107)"/>
<path d="M0 0 C1.65 0 3.3 0 5 0 C5 0.99 5 1.98 5 3 C6.65 2.67 8.3 2.34 10 2 C10 2.66 10 3.32 10 4 C9.01 4 8.02 4 7 4 C7 4.99 7 5.98 7 7 C7.99 7 8.98 7 10 7 C10 7.66 10 8.32 10 9 C9.401875 8.814375 8.80375 8.62875 8.1875 8.4375 C5.83591238 7.77906313 5.83591238 7.77906313 3 9 C3 7.35 3 5.7 3 4 C2.34 4 1.68 4 1 4 C1 5.65 1 7.3 1 9 C0.67 9 0.34 9 0 9 C-1.125 2.25 -1.125 2.25 0 0 Z " fill="#FEE3B5" transform="translate(335,60)"/>
<path d="M0 0 C0.9075 0.00257813 1.815 0.00515625 2.75 0.0078125 C4.11125 0.00394531 4.11125 0.00394531 5.5 0 C7.75 0.1328125 7.75 0.1328125 8.75 1.1328125 C8.79063832 2.79898365 8.792721 4.46669345 8.75 6.1328125 C8.09 6.1328125 7.43 6.1328125 6.75 6.1328125 C6.75 4.4828125 6.75 2.8328125 6.75 1.1328125 C6.09 1.1328125 5.43 1.1328125 4.75 1.1328125 C4.75 2.7828125 4.75 4.4328125 4.75 6.1328125 C2.44 6.1328125 0.13 6.1328125 -2.25 6.1328125 C-2.63218767 4.47666593 -2.96395102 2.80824226 -3.25 1.1328125 C-2.25 0.1328125 -2.25 0.1328125 0 0 Z " fill="#F9CFE8" transform="translate(102.25,312.8671875)"/>
<path d="M0 0 C1.671549 0.30791692 3.33805547 0.64386903 5 1 C5.99 1 6.98 1 8 1 C8 1.66 8 2.32 8 3 C7.34 3 6.68 3 6 3 C6 3.99 6 4.98 6 6 C6.99 6 7.98 6 9 6 C9.33 6.99 9.66 7.98 10 9 C8.35 9 6.7 9 5 9 C4.67 8.01 4.34 7.02 4 6 C3.0409375 6.2784375 3.0409375 6.2784375 2.0625 6.5625 C1.381875 6.706875 0.70125 6.85125 0 7 C-1 6 -1 6 -1.125 3.5 C-1 1 -1 1 0 0 Z " fill="#A3F2F4" transform="translate(111,109)"/>
<path d="M0 0 C0.66 0 1.32 0 2 0 C2 0.99 2 1.98 2 3 C3.32 3.33 4.64 3.66 6 4 C6 5.98 6 7.96 6 10 C5.34 10 4.68 10 4 10 C4 8.35 4 6.7 4 5 C3.34 5 2.68 5 2 5 C2 6.65 2 8.3 2 10 C0.35 10 -1.3 10 -3 10 C-3 8.02 -3 6.04 -3 4 C-2.01 4 -1.02 4 0 4 C0 2.68 0 1.36 0 0 Z " fill="#FEC25A" transform="translate(275,87)"/>
<path d="M0 0 C3.63 0 7.26 0 11 0 C11 1.98 11 3.96 11 6 C10.71125 5.360625 10.4225 4.72125 10.125 4.0625 C9.17176549 1.84793921 9.17176549 1.84793921 7 1 C7 2.65 7 4.3 7 6 C4.69 6 2.38 6 0 6 C-0.33 5.01 -0.66 4.02 -1 3 C-0.34 2.67 0.32 2.34 1 2 C0.67 1.34 0.34 0.68 0 0 Z " fill="#FAD8ED" transform="translate(115,313)"/>
<path d="M0 0 C0.66 0 1.32 0 2 0 C2.33 0.99 2.66 1.98 3 3 C4.32 2.67 5.64 2.34 7 2 C8.125 6.75 8.125 6.75 7 9 C6.401875 8.814375 5.80375 8.62875 5.1875 8.4375 C2.83591238 7.77906313 2.83591238 7.77906313 0 9 C0 6.03 0 3.06 0 0 Z " fill="#FEEBCB" transform="translate(337,74)"/>
<path d="M0 0 C3.66666667 0 7.33333333 0 11 0 C11.33 1.32 11.66 2.64 12 4 C10.68 3.01 9.36 2.02 8 1 C8 2.32 8 3.64 8 5 C8.66 5.33 9.32 5.66 10 6 C8.35 5.67 6.7 5.34 5 5 C4.34 6.32 3.68 7.64 3 9 C2.01 9 1.02 9 0 9 C0 8.34 0 7.68 0 7 C0.66 7 1.32 7 2 7 C1.34 4.69 0.68 2.38 0 0 Z " fill="#FCE8F4" transform="translate(96,327)"/>
<path d="M0 0 C1.23556641 0.01740234 1.23556641 0.01740234 2.49609375 0.03515625 C3.32238281 0.04417969 4.14867188 0.05320313 5 0.0625 C5.63808594 0.07410156 6.27617188 0.08570313 6.93359375 0.09765625 C6.27359375 2.07765625 5.61359375 4.05765625 4.93359375 6.09765625 C2.62359375 6.09765625 0.31359375 6.09765625 -2.06640625 6.09765625 C-2.44859392 4.44150968 -2.78035727 2.77308601 -3.06640625 1.09765625 C-2.06640625 0.09765625 -2.06640625 0.09765625 0 0 Z " fill="#A8F2F5" transform="translate(73.06640625,136.90234375)"/>
<path d="M0 0 C0.66 0.33 1.32 0.66 2 1 C2.08107646 3.75059381 2.14052813 6.49879021 2.1875 9.25 C2.21263672 10.02730469 2.23777344 10.80460937 2.26367188 11.60546875 C2.33834499 17.42997175 2.33834499 17.42997175 0.48828125 20.546875 C-0.00285156 21.02640625 -0.49398438 21.5059375 -1 22 C-1.14715692 14.6094524 -0.70776992 7.35575165 0 0 Z " fill="#DDF4F1" transform="translate(363,91)"/>
<path d="M0 0 C0.66 0 1.32 0 2 0 C2 2.97 2 5.94 2 9 C0.35 8.67 -1.3 8.34 -3 8 C-2.67 6.68 -2.34 5.36 -2 4 C-2.66 4 -3.32 4 -4 4 C-4.33 6.31 -4.66 8.62 -5 11 C-5.33 11 -5.66 11 -6 11 C-6 8.03 -6 5.06 -6 2 C-3.525 2.495 -3.525 2.495 -1 3 C-0.67 2.01 -0.34 1.02 0 0 Z " fill="#ECF2FE" transform="translate(266,268)"/>
<path d="M0 0 C1.66611905 -0.042721 3.33382885 -0.04063832 5 0 C6 1 6 1 6.125 4 C6 7 6 7 5 8 C3.33382885 8.04063832 1.66611905 8.042721 0 8 C0 5.36 0 2.72 0 0 Z " fill="#C5D9FC" transform="translate(255,254)"/>
<path d="M0 0 C1.23556641 0.01740234 1.23556641 0.01740234 2.49609375 0.03515625 C3.32238281 0.04417969 4.14867188 0.05320312 5 0.0625 C5.63808594 0.07410156 6.27617188 0.08570313 6.93359375 0.09765625 C6.27359375 1.41765625 5.61359375 2.73765625 4.93359375 4.09765625 C5.59359375 4.75765625 6.25359375 5.41765625 6.93359375 6.09765625 C3.96359375 6.09765625 0.99359375 6.09765625 -2.06640625 6.09765625 C-2.44859392 4.44150968 -2.78035727 2.77308601 -3.06640625 1.09765625 C-2.06640625 0.09765625 -2.06640625 0.09765625 0 0 Z " fill="#F8C5E4" transform="translate(70.06640625,326.90234375)"/>
<path d="M0 0 C2.0625 0.4375 2.0625 0.4375 4 1 C3.34 2.98 2.68 4.96 2 7 C0 7 -2 7 -4 7 C-4 7.66 -4 8.32 -4 9 C-4.66 9 -5.32 9 -6 9 C-6 6.36 -6 3.72 -6 1 C-5.34 1 -4.68 1 -4 1 C-4 2.32 -4 3.64 -4 5 C-3.34 5 -2.68 5 -2 5 C-1.855625 4.360625 -1.71125 3.72125 -1.5625 3.0625 C-1 1 -1 1 0 0 Z " fill="#D5F9FA" transform="translate(105,109)"/>
<path d="M0 0 C0.33 0 0.66 0 1 0 C1 2.64 1 5.28 1 8 C0.278125 7.979375 -0.44375 7.95875 -1.1875 7.9375 C-3.99858823 7.91411357 -3.99858823 7.91411357 -6.6875 8.5625 C-9 9 -9 9 -11 8 C-10.67 7.01 -10.34 6.02 -10 5 C-8 6 -8 6 -7 7 C-7 5.68 -7 4.36 -7 3 C-7.66 2.67 -8.32 2.34 -9 2 C-6.03 2.495 -6.03 2.495 -3 3 C-3 4.32 -3 5.64 -3 7 C-2.01 7 -1.02 7 0 7 C0 4.69 0 2.38 0 0 Z " fill="#CDF8F9" transform="translate(86,121)"/>
<path d="M0 0 C0.66 0.66 1.32 1.32 2 2 C1.625 4.125 1.625 4.125 1 6 C1.66 6 2.32 6 3 6 C3.33 4.35 3.66 2.7 4 1 C5.32 1.33 6.64 1.66 8 2 C8 3.98 8 5.96 8 8 C5.36 8 2.72 8 0 8 C-0.38063221 5.6739143 -0.71269945 3.33944736 -1 1 C-0.67 0.67 -0.34 0.34 0 0 Z " fill="#C5F7F8" transform="translate(87,108)"/>
<path d="M0 0 C1.65 0 3.3 0 5 0 C5.33 1.65 5.66 3.3 6 5 C4.02 5.99 4.02 5.99 2 7 C2 7.66 2 8.32 2 9 C1.34 9 0.68 9 0 9 C0 6.03 0 3.06 0 0 Z " fill="#CFE0FD" transform="translate(289,256)"/>
<path d="M0 0 C0.66 0 1.32 0 2 0 C2.33 0.99 2.66 1.98 3 3 C4.65 3.33 6.3 3.66 8 4 C7.67 5.65 7.34 7.3 7 9 C5.02 9 3.04 9 1 9 C0.67 6.03 0.34 3.06 0 0 Z " fill="#C4D9FD" transform="translate(280,253)"/>
<path d="M0 0 C0.66 0 1.32 0 2 0 C2 2.97 2 5.94 2 9 C0.35 9 -1.3 9 -3 9 C-3.33 7.35 -3.66 5.7 -4 4 C-2.68 3.67 -1.36 3.34 0 3 C0 2.01 0 1.02 0 0 Z " fill="#F8C9E5" transform="translate(131,310)"/>
<path d="M0 0 C2 3 2 3 2 7 C2.66 7 3.32 7 4 7 C4 5.68 4 4.36 4 3 C4.66 3 5.32 3 6 3 C6 2.01 6 1.02 6 0 C6.66 0 7.32 0 8 0 C8 2.64 8 5.28 8 8 C5.36 8 2.72 8 0 8 C0 5.36 0 2.72 0 0 Z " fill="#FEF7EC" transform="translate(302,88)"/>
<path d="M0 0 C1.65 0.33 3.3 0.66 5 1 C5 2.65 5 4.3 5 6 C1.37 6 -2.26 6 -6 6 C-6 4.35 -6 2.7 -6 1 C-5.67 2.32 -5.34 3.64 -5 5 C-3.68 5 -2.36 5 -1 5 C-0.67 3.35 -0.34 1.7 0 0 Z " fill="#FEEAC5" transform="translate(332,90)"/>
<path d="M0 0 C1.98 0 3.96 0 6 0 C6 1.98 6 3.96 6 6 C4.35 6 2.7 6 1 6 C0.67 6.66 0.34 7.32 0 8 C0 5.36 0 2.72 0 0 Z " fill="#F7BFE1" transform="translate(123,327)"/>
<path d="M0 0 C1.485 0.99 1.485 0.99 3 2 C2.34 2 1.68 2 1 2 C1 3.32 1 4.64 1 6 C1.66 6 2.32 6 3 6 C3 5.34 3 4.68 3 4 C3.66 3.67 4.32 3.34 5 3 C4.67 2.34 4.34 1.68 4 1 C5.32 1 6.64 1 8 1 C8 2.98 8 4.96 8 7 C5.36 7 2.72 7 0 7 C-0.38133299 5.0085944 -0.71325582 3.00720923 -1 1 C-0.67 0.67 -0.34 0.34 0 0 Z " fill="#EBF2FE" transform="translate(320,255)"/>
<path d="M0 0 C0.33 0.66 0.66 1.32 1 2 C2.32 2 3.64 2 5 2 C5.66 2 6.32 2 7 2 C6.01 4.97 5.02 7.94 4 11 C3.01 11 2.02 11 1 11 C1 10.34 1 9.68 1 9 C1.66 9 2.32 9 3 9 C2.67 7.68 2.34 6.36 2 5 C1.34 5.99 0.68 6.98 0 8 C0 5.36 0 2.72 0 0 Z " fill="#CFF8F9" transform="translate(103,135)"/>
<path d="M0 0 C0.66 0 1.32 0 2 0 C3.85776765 3.13498292 4.20140476 5.37471432 4 9 C3.34 9 2.68 9 2 9 C1.67 8.34 1.34 7.68 1 7 C-0.32 7 -1.64 7 -3 7 C-3 5.35 -3 3.7 -3 2 C-2.01 2 -1.02 2 0 2 C0 1.34 0 0.68 0 0 Z " fill="#FEC562" transform="translate(331,60)"/>
<path d="M0 0 C2.64 0 5.28 0 8 0 C8.33 0.66 8.66 1.32 9 2 C8.01 2 7.02 2 6 2 C6 3.32 6 4.64 6 6 C5.34 6 4.68 6 4 6 C3.67 5.01 3.34 4.02 3 3 C3 3.66 3 4.32 3 5 C2.67 5.99 2.34 6.98 2 8 C2 7.34 2 6.68 2 6 C1.01 6 0.02 6 -1 6 C-1 5.01 -1 4.02 -1 3 C-0.34 3 0.32 3 1 3 C0.67 2.01 0.34 1.02 0 0 Z " fill="#CEF8F9" transform="translate(118,109)"/>
<path d="M0 0 C0 0.66 0 1.32 0 2 C-1.32 2 -2.64 2 -4 2 C-4 2.66 -4 3.32 -4 4 C-3.01 4.33 -2.02 4.66 -1 5 C-3.31 4.67 -5.62 4.34 -8 4 C-8 2.68 -8 1.36 -8 0 C-4.71023192 -1.09658936 -3.28696233 -0.79953138 0 0 Z " fill="#F8C7E5" transform="translate(94,328)"/>
<path d="M0 0 C1.65 0.33 3.3 0.66 5 1 C4.67 2.65 4.34 4.3 4 6 C2.68 6.33 1.36 6.66 0 7 C-0.93423645 3.98968256 -1.04449911 3.13349732 0 0 Z " fill="#CBDDFD" transform="translate(321,284)"/>
<path d="M0 0 C1.51953125 1.36328125 1.51953125 1.36328125 3 3 C2.6875 5.1875 2.6875 5.1875 2 7 C1.67 7 1.34 7 1 7 C0.01 8.98 -0.98 10.96 -2 13 C-3.18771723 9.57056481 -2.80226223 7.62215325 -1.5625 4.25 C-1.27503906 3.45078125 -0.98757812 2.6515625 -0.69140625 1.828125 C-0.46324219 1.22484375 -0.23507813 0.6215625 0 0 Z " fill="#BAC3C5" transform="translate(200,208)"/>
<path d="M0 0 C0.66 0 1.32 0 2 0 C4.21747812 2.30276574 4.96760006 3.52480092 5.1875 6.75 C5.125625 7.4925 5.06375 8.235 5 9 C3.35 9 1.7 9 0 9 C0 6.03 0 3.06 0 0 Z " fill="#B8D1FC" transform="translate(313,268)"/>
<path d="M0 0 C1.66611905 -0.042721 3.33382885 -0.04063832 5 0 C6 1 6 1 6.0625 4.0625 C6.041875 5.031875 6.02125 6.00125 6 7 C5.34 7 4.68 7 4 7 C4 5.35 4 3.7 4 2 C3.34 2 2.68 2 2 2 C2 3.65 2 5.3 2 7 C1.34 7 0.68 7 0 7 C0 4.69 0 2.38 0 0 Z " fill="#D4E3FD" transform="translate(275,270)"/>
<path d="M0 0 C0.66 0 1.32 0 2 0 C2 1.65 2 3.3 2 5 C2.66 5 3.32 5 4 5 C4 3.35 4 1.7 4 0 C4.66 0 5.32 0 6 0 C6.625 1.8125 6.625 1.8125 7 4 C6.01 5.485 6.01 5.485 5 7 C3.35 6.67 1.7 6.34 0 6 C0 4.02 0 2.04 0 0 Z " fill="#B0F4F6" transform="translate(74,109)"/>
<path d="M0 0 C0.33 0.66 0.66 1.32 1 2 C1.66 2 2.32 2 3 2 C3.33 1.34 3.66 0.68 4 0 C4.33 2.31 4.66 4.62 5 7 C3.35 7.33 1.7 7.66 0 8 C-1.09658936 4.71023192 -0.79953138 3.28696233 0 0 Z " fill="#FEF0D6" transform="translate(320,91)"/>
<path d="M0 0 C0.33 0.66 0.66 1.32 1 2 C3.02463255 2.65213292 3.02463255 2.65213292 5 3 C5 4.65 5 6.3 5 8 C3.35 8 1.7 8 0 8 C0 5.36 0 2.72 0 0 Z " fill="#FEE5B9" transform="translate(331,74)"/>
<path d="M0 0 C2.0625 0.4375 2.0625 0.4375 4 1 C4 2.98 4 4.96 4 7 C2.35 6.67 0.7 6.34 -1 6 C-1.042721 4.33388095 -1.04063832 2.66617115 -1 1 C-0.67 0.67 -0.34 0.34 0 0 Z " fill="#D6E5FD" transform="translate(270,270)"/>
<path d="M0 0 C0.33 0 0.66 0 1 0 C1 2.64 1 5.28 1 8 C-0.65 7.67 -2.3 7.34 -4 7 C-3.67 5.35 -3.34 3.7 -3 2 C-2.01 2 -1.02 2 0 2 C0 1.34 0 0.68 0 0 Z " fill="#B6F4F6" transform="translate(85,135)"/>
<path d="M0 0 C1.66611905 -0.042721 3.33382885 -0.04063832 5 0 C6 1 6 1 6.0625 4.0625 C6.041875 5.031875 6.02125 6.00125 6 7 C5.34 7 4.68 7 4 7 C4 5.35 4 3.7 4 2 C3.34 2 2.68 2 2 2 C2 3.32 2 4.64 2 6 C1.34 6 0.68 6 0 6 C0 4.02 0 2.04 0 0 Z " fill="#D9E6FD" transform="translate(306,270)"/>
<path d="M0 0 C-0.66 0 -1.32 0 -2 0 C-2 1.32 -2 2.64 -2 4 C-1.34 4.33 -0.68 4.66 0 5 C-0.99 5 -1.98 5 -3 5 C-3 3.35 -3 1.7 -3 0 C-4.32 0 -5.64 0 -7 0 C-7 0.66 -7 1.32 -7 2 C-6.01 2.33 -5.02 2.66 -4 3 C-4.33 3.66 -4.66 4.32 -5 5 C-6.32 4.67 -7.64 4.34 -9 4 C-8.67 2.35 -8.34 0.7 -8 -1 C-3.375 -2.25 -3.375 -2.25 0 0 Z " fill="#DFFAFB" transform="translate(106,124)"/>
<path d="M0 0 C2.0625 0.4375 2.0625 0.4375 4 1 C4 2.65 4 4.3 4 6 C2.0625 6.5625 2.0625 6.5625 0 7 C-1 6 -1 6 -1.125 3.5 C-1 1 -1 1 0 0 Z " fill="#E0EBFD" transform="translate(342,270)"/>
<path d="M0 0 C2.475 0.495 2.475 0.495 5 1 C5 2.65 5 4.3 5 6 C3.35 6 1.7 6 0 6 C0 4.02 0 2.04 0 0 Z " fill="#B9F5F7" transform="translate(54,123)"/>
<path d="M0 0 C2.0625 0.4375 2.0625 0.4375 4 1 C4 2.65 4 4.3 4 6 C2.0625 6.5625 2.0625 6.5625 0 7 C-1 6 -1 6 -1.125 3.5 C-1 1 -1 1 0 0 Z " fill="#FEEBCA" transform="translate(298,76)"/>
<path d="M0 0 C0.66 0 1.32 0 2 0 C2 2.97 2 5.94 2 9 C0.35 9 -1.3 9 -3 9 C-2.67 8.34 -2.34 7.68 -2 7 C-1.34 7.33 -0.68 7.66 0 8 C0 6.68 0 5.36 0 4 C-0.66 4 -1.32 4 -2 4 C-2.33 4.66 -2.66 5.32 -3 6 C-3 5.01 -3 4.02 -3 3 C-2.01 3 -1.02 3 0 3 C0 2.01 0 1.02 0 0 Z " fill="#EAF1FE" transform="translate(344,253)"/>
<path d="M0 0 C4 4.5 4 4.5 4 9 C-0.75 8.25 -0.75 8.25 -3 6 C-2.34 6 -1.68 6 -1 6 C-0.67 4.02 -0.34 2.04 0 0 Z " fill="#4EE6EB" transform="translate(102,135)"/>
<path d="M0 0 C1.66611905 -0.042721 3.33382885 -0.04063832 5 0 C6 1 6 1 6.0625 3.5625 C6.041875 4.366875 6.02125 5.17125 6 6 C5.34 6 4.68 6 4 6 C4 4.68 4 3.36 4 2 C3.34 2 2.68 2 2 2 C2 3.32 2 4.64 2 6 C1.34 6 0.68 6 0 6 C0 4.02 0 2.04 0 0 Z " fill="#C4F6F8" transform="translate(124,123)"/>
<path d="M0 0 C1.98 0.495 1.98 0.495 4 1 C4 2.98 4 4.96 4 7 C2.35 6.67 0.7 6.34 -1 6 C-1 5.01 -1 4.02 -1 3 C-0.01 3 0.98 3 2 3 C1.34 2.67 0.68 2.34 0 2 C0 1.34 0 0.68 0 0 Z " fill="#C0F6F8" transform="translate(66,109)"/>
<path d="M0 0 C0.66 0 1.32 0 2 0 C2 2.64 2 5.28 2 8 C0.68 7.67 -0.64 7.34 -2 7 C-1.125 2.25 -1.125 2.25 0 0 Z " fill="#F7B6DD" transform="translate(96,311)"/>
<path d="M0 0 C0.66 0 1.32 0 2 0 C1.43628586 3.26954202 0.50037734 4.82575883 -2 7 C-3.32 6.34 -4.64 5.68 -6 5 C-6 4.34 -6 3.68 -6 3 C-5.195625 2.87625 -4.39125 2.7525 -3.5625 2.625 C-2.716875 2.41875 -1.87125 2.2125 -1 2 C-0.67 1.34 -0.34 0.68 0 0 Z " fill="#ECF3FE" transform="translate(319,197)"/>
<path d="M0 0 C1.32 0 2.64 0 4 0 C4 1.98 4 3.96 4 6 C2.35 6 0.7 6 -1 6 C-0.67 4.02 -0.34 2.04 0 0 Z " fill="#FBE0F0" transform="translate(62,313)"/>
<path d="M0 0 C0.33 0.66 0.66 1.32 1 2 C3.02463255 2.65213292 3.02463255 2.65213292 5 3 C5 4.98 5 6.96 5 9 C4.34 9 3.68 9 3 9 C3 7.35 3 5.7 3 4 C2.34 4 1.68 4 1 4 C0.67 5.32 0.34 6.64 0 8 C0 5.36 0 2.72 0 0 Z " fill="#E4EDFD" transform="translate(335,268)"/>
<path d="M0 0 C0.33 0.66 0.66 1.32 1 2 C3.02463255 2.65213292 3.02463255 2.65213292 5 3 C5 4.98 5 6.96 5 9 C4.34 9 3.68 9 3 9 C3 7.35 3 5.7 3 4 C2.34 4 1.68 4 1 4 C0.67 5.32 0.34 6.64 0 8 C0 5.36 0 2.72 0 0 Z " fill="#FEEFD4" transform="translate(276,88)"/>
<path d="M0 0 C1.32 0 2.64 0 4 0 C4 1.98 4 3.96 4 6 C2.35 6 0.7 6 -1 6 C-1 5.01 -1 4.02 -1 3 C-0.34 2.67 0.32 2.34 1 2 C0.67 1.34 0.34 0.68 0 0 Z " fill="#E5EEFD" transform="translate(299,256)"/>
<path d="M0 0 C2.64 0 5.28 0 8 0 C8 1.32 8 2.64 8 4 C5.36 4 2.72 4 0 4 C0 2.68 0 1.36 0 0 Z " fill="#AECAFC" transform="translate(336,257)"/>
<path d="M0 0 C1.98 0.495 1.98 0.495 4 1 C4 2.65 4 4.3 4 6 C2.35 5.67 0.7 5.34 -1 5 C-0.67 3.35 -0.34 1.7 0 0 Z " fill="#FEF1D9" transform="translate(312,90)"/>
<path d="M0 0 C1.32 0 2.64 0 4 0 C4 1.98 4 3.96 4 6 C2.68 6.33 1.36 6.66 0 7 C0 4.66666667 0 2.33333333 0 0 Z " fill="#FEE8C3" transform="translate(309,62)"/>
<path d="M0 0 C1.9375 0.8125 1.9375 0.8125 4 2 C5 5 5 5 4.0625 7.1875 C3.5365625 8.0846875 3.5365625 8.0846875 3 9 C2.01 9 1.02 9 0 9 C0 8.34 0 7.68 0 7 C0.66 7 1.32 7 2 7 C1.34 4.69 0.68 2.38 0 0 Z " fill="#FAD8EC" transform="translate(96,327)"/>
<path d="M0 0 C1.98 0.495 1.98 0.495 4 1 C4 2.65 4 4.3 4 6 C2.35 6 0.7 6 -1 6 C-1 5.01 -1 4.02 -1 3 C-0.34 2.67 0.32 2.34 1 2 C0.67 1.34 0.34 0.68 0 0 Z " fill="#FEEFD3" transform="translate(297,90)"/>
<path d="M0 0 C1.32 0.33 2.64 0.66 4 1 C4 2.98 4 4.96 4 7 C2.68 6.67 1.36 6.34 0 6 C0 4.02 0 2.04 0 0 Z " fill="#FEEDCE" transform="translate(297,62)"/>
<path d="M0 0 C1.32 0 2.64 0 4 0 C4 0.99 4 1.98 4 3 C3.01 3 2.02 3 1 3 C1 3.66 1 4.32 1 5 C1.99 5.33 2.98 5.66 4 6 C2.35 5.67 0.7 5.34 -1 5 C-0.67 3.35 -0.34 1.7 0 0 Z " fill="#FCE5F3" transform="translate(56,327)"/>
<path d="M0 0 C2.31 0.33 4.62 0.66 7 1 C6.34 2.32 5.68 3.64 5 5 C4.34 5 3.68 5 3 5 C3 5.66 3 6.32 3 7 C2.34 7 1.68 7 1 7 C1.020625 6.21625 1.04125 5.4325 1.0625 4.625 C1.18684063 2.01885039 1.18684063 2.01885039 0 0 Z " fill="#88B2FA" transform="translate(320,254)"/>
<path d="M0 0 C0.66 0 1.32 0 2 0 C2 1.32 2 2.64 2 4 C2.99 3.67 3.98 3.34 5 3 C4.67 3.99 4.34 4.98 4 6 C3.34 6 2.68 6 2 6 C2 6.66 2 7.32 2 8 C1.34 8 0.68 8 0 8 C0 5.36 0 2.72 0 0 Z " fill="#CEF7F9" transform="translate(109,124)"/>
<path d="M0 0 C1.98 0.495 1.98 0.495 4 1 C4 2.65 4 4.3 4 6 C2.35 6 0.7 6 -1 6 C-1 5.01 -1 4.02 -1 3 C-0.01 3 0.98 3 2 3 C2 2.34 2 1.68 2 1 C1.34 0.67 0.68 0.34 0 0 Z " fill="#CFF8F9" transform="translate(119,123)"/>
<path d="M0 0 C0.66 0 1.32 0 2 0 C3.125 6.75 3.125 6.75 2 9 C1.34 9 0.68 9 0 9 C0 6.03 0 3.06 0 0 Z " fill="#FEE0AE" transform="translate(282,88)"/>
<path d="M0 0 C1.485 0.99 1.485 0.99 3 2 C3.29296875 4.3828125 3.29296875 4.3828125 3.1875 7.125 C3.16042969 8.03507812 3.13335937 8.94515625 3.10546875 9.8828125 C3.07066406 10.58148438 3.03585937 11.28015625 3 12 C2.67 12 2.34 12 2 12 C2 10.02 2 8.04 2 6 C1.34 6 0.68 6 0 6 C0 4.02 0 2.04 0 0 Z " fill="#EBEAE5" transform="translate(357,291)"/>
<path d="M0 0 C1.32 0 2.64 0 4 0 C3.67 0.66 3.34 1.32 3 2 C3.33 2.33 3.66 2.66 4 3 C3.5625 5.0625 3.5625 5.0625 3 7 C2.01 7 1.02 7 0 7 C0 4.66666667 0 2.33333333 0 0 Z " fill="#DFEAFD" transform="translate(342,284)"/>
<path d="M0 0 C0.66 0 1.32 0 2 0 C2 2.97 2 5.94 2 9 C1.34 9 0.68 9 0 9 C-0.84454356 5.62182575 -1.10844919 3.32534757 0 0 Z " fill="#D6E4FD" transform="translate(266,268)"/>
<path d="M0 0 C1.98 0.495 1.98 0.495 4 1 C3.67 2.32 3.34 3.64 3 5 C1.68 4.67 0.36 4.34 -1 4 C-0.67 2.68 -0.34 1.36 0 0 Z " fill="#E7EFFE" transform="translate(316,220)"/>
<path d="M0 0 C1.32 0 2.64 0 4 0 C4 1.98 4 3.96 4 6 C2.68 5.67 1.36 5.34 0 5 C0 3.35 0 1.7 0 0 Z " fill="#FEE8C3" transform="translate(341,90)"/>
<path d="M0 0 C0.66 0 1.32 0 2 0 C3.125 6.75 3.125 6.75 2 9 C1.34 9 0.68 9 0 9 C0 6.03 0 3.06 0 0 Z " fill="#FEE6BC" transform="translate(337,74)"/>
<path d="M0 0 C1.65 0 3.3 0 5 0 C5 1.98 5 3.96 5 6 C3.35 6 1.7 6 0 6 C0 4.02 0 2.04 0 0 Z " fill="#FBE4F2" transform="translate(61,327)"/>
<path d="M0 0 C1.98 0.495 1.98 0.495 4 1 C3.67 2.32 3.34 3.64 3 5 C1.68 5 0.36 5 -1 5 C-0.67 3.35 -0.34 1.7 0 0 Z " fill="#B7D0FC" transform="translate(285,270)"/>
<path d="M0 0 C0.33 0.99 0.66 1.98 1 3 C-1.64 3 -4.28 3 -7 3 C-7 2.01 -7 1.02 -7 0 C-3.98968256 -0.93423645 -3.13349732 -1.04449911 0 0 Z " fill="#6AEAEE" transform="translate(135,113)"/>
<path d="M0 0 C1.98 0.495 1.98 0.495 4 1 C3.34 2.98 2.68 4.96 2 7 C1.34 7 0.68 7 0 7 C-1.125 2.25 -1.125 2.25 0 0 Z " fill="#AFF4F6" transform="translate(105,109)"/>
<path d="M0 0 C0.66 0 1.32 0 2 0 C2 2.64 2 5.28 2 8 C1.01 7.67 0.02 7.34 -1 7 C-0.67 4.69 -0.34 2.38 0 0 Z " fill="#FEE8C3" transform="translate(308,88)"/>
<path d="M0 0 C0.66 0 1.32 0 2 0 C2 1.65 2 3.3 2 5 C1.01 5.33 0.02 5.66 -1 6 C-1.66 5.67 -2.32 5.34 -3 5 C-3 3.68 -3 2.36 -3 1 C-2.01 1 -1.02 1 0 1 C0 0.67 0 0.34 0 0 Z " fill="#F28FCA" transform="translate(107,327)"/>
<path d="M0 0 C1.32 0.66 2.64 1.32 4 2 C3.67 2.99 3.34 3.98 3 5 C1.68 4.67 0.36 4.34 -1 4 C-0.67 2.68 -0.34 1.36 0 0 Z " fill="#EEF4FE" transform="translate(316,209)"/>
<path d="M0 0 C0.66 0 1.32 0 2 0 C2 1.65 2 3.3 2 5 C2.99 5 3.98 5 5 5 C5 5.66 5 6.32 5 7 C4.01 7.33 3.02 7.66 2 8 C-0.1519437 4.77208445 -0.20086443 3.71599191 0 0 Z " fill="#7DEDF1" transform="translate(95,138)"/>
<path d="M0 0 C0.66 0 1.32 0 2 0 C2.33 0.99 2.66 1.98 3 3 C3.66 3.33 4.32 3.66 5 4 C5 4.66 5 5.32 5 6 C4.01 6 3.02 6 2 6 C2 7.32 2 8.64 2 10 C1.34 9.67 0.68 9.34 0 9 C0 6.03 0 3.06 0 0 Z " fill="#42E4EA" transform="translate(116,120)"/>
<path d="M0 0 C0.66 0 1.32 0 2 0 C2 0.99 2 1.98 2 3 C2.66 3 3.32 3 4 3 C4 2.01 4 1.02 4 0 C4.66 0 5.32 0 6 0 C5.34 1.98 4.68 3.96 4 6 C3.01 5.67 2.02 5.34 1 5 C0.67 3.35 0.34 1.7 0 0 Z " fill="#CEF8F9" transform="translate(59,109)"/>
<path d="M0 0 C-0.33 0.66 -0.66 1.32 -1 2 C-4.76624671 3.25541557 -6.37188934 2.37061958 -10 1 C-10 0.67 -10 0.34 -10 0 C-6.33694766 -0.74926071 -3.57644848 -1.2380014 0 0 Z " fill="#F9F4E8" transform="translate(324,364)"/>
<path d="M0 0 C3 1 3 1 4 3 C3.01 3 2.02 3 1 3 C1 3.66 1 4.32 1 5 C1.99 5.33 2.98 5.66 4 6 C2.35 5.67 0.7 5.34 -1 5 C-0.67 3.35 -0.34 1.7 0 0 Z " fill="#FCEEF7" transform="translate(68,327)"/>
<path d="M0 0 C1.98 0.99 1.98 0.99 4 2 C4 2.99 4 3.98 4 5 C2.68 5.33 1.36 5.66 0 6 C0 4.02 0 2.04 0 0 Z " fill="#B6D0FC" transform="translate(307,256)"/>
<path d="M0 0 C0.66 0 1.32 0 2 0 C2 2.64 2 5.28 2 8 C1.01 7.67 0.02 7.34 -1 7 C-0.67 4.69 -0.34 2.38 0 0 Z " fill="#9CF1F4" transform="translate(115,121)"/>
<path d="M0 0 C0.99 0.33 1.98 0.66 3 1 C3 1.66 3 2.32 3 3 C2.34 3 1.68 3 1 3 C1 3.99 1 4.98 1 6 C1.66 6 2.32 6 3 6 C3 6.66 3 7.32 3 8 C2.01 8 1.02 8 0 8 C-0.38063221 5.6739143 -0.71269945 3.33944736 -1 1 C-0.67 0.67 -0.34 0.34 0 0 Z " fill="#FEECCC" transform="translate(303,61)"/>
<path d="M0 0 C0.33 1.98 0.66 3.96 1 6 C-1.475 5.01 -1.475 5.01 -4 4 C-3.67 3.01 -3.34 2.02 -3 1 C-1 0 -1 0 0 0 Z " fill="#F077BF" transform="translate(78,327)"/>
<path d="M0 0 C1.32 0 2.64 0 4 0 C3 2 3 2 2 4 C1.64386903 5.66194453 1.30791692 7.328451 1 9 C0.67 9 0.34 9 0 9 C-1.125 2.25 -1.125 2.25 0 0 Z " fill="#FEF4E2" transform="translate(335,60)"/>
</svg>
