<?xml version="1.0" encoding="UTF-8"?>
<svg version="1.1" xmlns="http://www.w3.org/2000/svg" width="400" height="400">
<path d="M0 0 C132 0 264 0 400 0 C400 132 400 264 400 400 C268 400 136 400 0 400 C0 268 0 136 0 0 Z " fill="#EFEAFD" transform="translate(0,0)"/>
<path d="M0 0 C7.61567412 6.45372384 13.14979575 15.03007533 14.40609932 25.05575752 C14.5151322 27.383627 14.53892182 29.69526925 14.52563477 32.02563477 C14.53261383 32.89857681 14.5395929 33.77151886 14.54678345 34.6709137 C14.56663385 37.53201188 14.56625965 40.39274557 14.56640625 43.25390625 C14.57819874 45.26538545 14.59156749 47.27685596 14.60643005 49.28831482 C14.64252127 54.57405938 14.66277926 59.85972706 14.67797852 65.14556885 C14.70284185 73.57854346 14.74306902 82.0113479 14.79987907 90.44416618 C14.81597981 93.36406999 14.81996553 96.28380828 14.82289124 99.20375061 C14.86243017 108.80987408 15.29974565 118.07856982 16.79600525 127.57554626 C17.11244225 130.68894524 16.85315209 132.80487241 16.125 135.8125 C16.04940125 137.21644191 16.0167624 138.62336085 16.02734375 140.02929688 C16.03064697 140.82783081 16.0339502 141.62636475 16.03735352 142.44909668 C16.04980103 143.72726257 16.04980103 143.72726257 16.0625 145.03125 C16.06628662 145.92557739 16.07007324 146.81990479 16.07397461 147.74133301 C16.09020767 151.54831718 16.11811053 155.35519164 16.14550781 159.16210938 C16.26473586 177.2973234 16.26473586 177.2973234 15.890625 185.46484375 C15.84711914 186.44187256 15.80361328 187.41890137 15.75878906 188.42553711 C15.125 190.8125 15.125 190.8125 13.13818359 192.59790039 C10.86731862 193.87933455 8.5484535 194.88568129 6.14355469 195.88671875 C1.76473329 197.89500258 -2.34162647 200.45171476 -6.5 202.875 C-9.11563152 204.37944206 -11.73360825 205.87880659 -14.36035156 207.36376953 C-16.04251952 208.33289425 -17.70639341 209.33445764 -19.35058594 210.36669922 C-20.12950195 210.84252441 -20.90841797 211.31834961 -21.7109375 211.80859375 C-22.39462402 212.24228271 -23.07831055 212.67597168 -23.78271484 213.12280273 C-25.875 213.8125 -25.875 213.8125 -28.25976562 213.13964844 C-32.96574022 210.7515157 -37.57530886 208.20846109 -42.18359375 205.63745117 C-43.97138527 204.64094964 -45.762793 203.65120944 -47.5546875 202.66210938 C-48.72679024 202.01082637 -49.89867184 201.35914517 -51.0703125 200.70703125 C-52.11203613 200.12800049 -53.15375977 199.54896973 -54.22705078 198.95239258 C-54.77343704 198.62076111 -55.3198233 198.28912964 -55.88276672 197.94744873 C-57.97543229 196.7128723 -57.97543229 196.7128723 -60.70549011 195.54425049 C-63.95373484 193.90158085 -66.33191961 192.42755724 -68.875 189.8125 C-70.43948674 184.75734037 -70.25200298 179.85596794 -70.09765625 174.6328125 C-70.09449175 173.13654795 -70.09649472 171.64026452 -70.1033783 170.14401245 C-70.10903253 166.20687711 -70.05093331 162.27332731 -69.97729492 158.3369751 C-69.89889259 153.60962688 -69.88740956 148.8817797 -69.87444973 144.15386772 C-69.86420865 140.461522 -69.84234959 136.77096668 -69.77809143 133.07913208 C-69.64350618 123.18312372 -70.51196563 113.61173039 -71.875 103.8125 C-72.865 103.8125 -73.855 103.8125 -74.875 103.8125 C-75.205 103.1525 -75.535 102.4925 -75.875 101.8125 C-77.855 103.2975 -77.855 103.2975 -79.875 104.8125 C-80.2771875 103.575 -80.2771875 103.575 -80.6875 102.3125 C-82.51886933 95.03839683 -82.51886933 95.03839683 -86.875 89.8125 C-86.875 103.6725 -86.875 117.5325 -86.875 131.8125 C-99.4375 138.75 -99.4375 138.75 -103.50830078 140.99560547 C-111.22318625 145.27445889 -118.77475929 149.72567539 -126.15234375 154.56640625 C-127.05082031 154.97761719 -127.94929688 155.38882813 -128.875 155.8125 C-130.70751953 155.07641602 -130.70751953 155.07641602 -132.875 153.8125 C-133.71409912 153.35536621 -134.55319824 152.89823242 -135.41772461 152.42724609 C-138.55099689 150.68365618 -141.68242401 148.93682191 -144.8125 147.1875 C-146.41061523 146.29998047 -146.41061523 146.29998047 -148.04101562 145.39453125 C-150.21966258 144.1770134 -152.38278325 142.93133545 -154.53027344 141.65966797 C-157.85131999 139.72630139 -157.85131999 139.72630139 -161.52441406 138.40673828 C-165.60182957 136.61144158 -167.97223073 135.21963061 -170.875 131.8125 C-173.09661875 125.19564791 -172.91165866 118.15317467 -172.78955078 111.25048828 C-172.750068 107.943196 -172.87027507 104.66757108 -173.00390625 101.36328125 C-173.2076885 86.62760515 -173.2076885 86.62760515 -169.29782104 81.90914917 C-165.2964561 78.63301461 -160.79273941 76.63268184 -156.02148438 74.72009277 C-153.0074692 73.44568406 -150.35023074 71.74019531 -147.61328125 69.95703125 C-146.24719727 69.11881836 -146.24719727 69.11881836 -144.85351562 68.26367188 C-143.02577693 67.1402486 -141.20579076 66.00414265 -139.39257812 64.85742188 C-138.04776367 64.04047852 -138.04776367 64.04047852 -136.67578125 63.20703125 C-135.50269409 62.47770386 -135.50269409 62.47770386 -134.3059082 61.73364258 C-131.04506259 60.49801232 -129.2191163 60.88917819 -125.875 61.8125 C-122.96582031 63.20776367 -122.96582031 63.20776367 -119.953125 64.98046875 C-118.84453125 65.62693359 -117.7359375 66.27339844 -116.59375 66.93945312 C-115.43739289 67.62612173 -114.28114336 68.31297155 -113.125 69 C-111.43117188 69.9909668 -111.43117188 69.9909668 -109.703125 71.00195312 C-103.06570111 74.89298923 -96.47272586 78.85386448 -89.875 82.8125 C-89.545 74.2325 -89.215 65.6525 -88.875 56.8125 C-88.545 56.8125 -88.215 56.8125 -87.875 56.8125 C-87.38 61.7625 -87.38 61.7625 -86.875 66.8125 C-85.988125 67.080625 -85.10125 67.34875 -84.1875 67.625 C-81.06710962 68.74363051 -78.54327733 69.85053137 -75.875 71.8125 C-75.875 72.8025 -75.875 73.7925 -75.875 74.8125 C-75.215 74.8125 -74.555 74.8125 -73.875 74.8125 C-72.48561923 76.77397874 -71.1489589 78.77416576 -69.875 80.8125 C-69.16718038 72.32113366 -68.79752109 63.88312362 -68.734375 55.36328125 C-68.71495869 53.50716025 -68.69542592 51.65104047 -68.67578125 49.79492188 C-68.64679958 46.95152514 -68.62499726 44.10893537 -68.62451172 41.26538086 C-68.60735548 26.98281498 -67.48927918 15.2703105 -57.953125 3.84765625 C-54.06221125 0.03719372 -49.67163856 -2.65536891 -44.875 -5.1875 C-44.19050781 -5.54972656 -43.50601563 -5.91195312 -42.80078125 -6.28515625 C-28.95881053 -12.13196117 -11.78582965 -8.3590254 0 0 Z " fill="#C161D5" transform="translate(221.875,134.1875)"/>
<path d="M0 0 C9.44577352 5.47370465 17.89648717 13.49106963 20.8326416 24.3487854 C22.62706595 32.95769861 22.59556698 41.5078688 22.62068176 50.26127243 C22.62905841 53.08647461 22.64963753 55.9113669 22.67321777 58.73648071 C22.72926387 65.74283239 22.76488508 72.74925885 22.80084229 79.7557373 C22.83210682 85.70075312 22.87127979 91.6456135 22.9210968 97.59050369 C22.94111436 100.36963247 22.94947016 103.14864024 22.95739746 105.92782593 C22.97036856 107.63076216 22.98388868 109.33369432 22.99804688 111.03662109 C22.99706497 111.80552673 22.99608307 112.57443237 22.99507141 113.36663818 C23.04239438 117.45415603 23.4619496 120.64454808 25.28515625 124.32421875 C24.95515625 124.65421875 24.62515625 124.98421875 24.28515625 125.32421875 C24.23689875 127.07355326 24.24851507 128.82460239 24.28515625 130.57421875 C24.34886928 137.2003741 23.88090055 143.72847826 23.28515625 150.32421875 C23.94515625 150.65421875 24.60515625 150.98421875 25.28515625 151.32421875 C24.95515625 151.65421875 24.62515625 151.98421875 24.28515625 152.32421875 C24.20928615 154.47532576 24.20214007 156.6289032 24.22265625 158.78125 C24.22644287 159.43945236 24.23022949 160.09765472 24.23413086 160.77580261 C24.25041674 163.5936965 24.27804822 166.41144557 24.30566406 169.22924805 C24.33628967 172.64521235 24.34547894 176.05796737 24.30419922 179.47387695 C24.29221179 181.89764259 24.34466687 184.32341213 24.48876953 186.74291992 C24.54510527 189.9781646 24.42725388 192.29227602 23.28515625 195.32421875 C19.69279044 198.77453751 15.60098942 200.81892954 11.16015625 203.01171875 C9.96426857 203.63946649 8.77066014 204.27157506 7.5793457 204.90795898 C5.23056919 206.15935187 2.87458506 207.38965383 0.50927734 208.61035156 C-4.82186239 211.44426046 -9.81904846 214.76320919 -14.859375 218.078125 C-17.71484375 219.32421875 -17.71484375 219.32421875 -20.15625 218.8046875 C-21.00058594 218.31613281 -21.84492188 217.82757813 -22.71484375 217.32421875 C-23.83117187 216.6796875 -24.9475 216.03515625 -26.09765625 215.37109375 C-27.34685604 214.60841564 -28.59417789 213.84265519 -29.83984375 213.07421875 C-35.12402627 209.85879498 -40.43894854 206.75515014 -45.89501953 203.83691406 C-48.7847109 202.2867385 -51.66489815 200.72007273 -54.54296875 199.1484375 C-56.00331543 198.35119263 -56.00331543 198.35119263 -57.49316406 197.5378418 C-58.22631836 197.13734619 -58.95947266 196.73685059 -59.71484375 196.32421875 C-59.76160292 174.83595363 -59.7968518 153.34769692 -59.81846809 131.85939121 C-59.82877251 121.88158528 -59.84281691 111.903811 -59.86572266 101.92602539 C-59.88568206 93.22751196 -59.89856625 84.52902146 -59.90302074 75.83048576 C-59.90562379 71.22639912 -59.91172475 66.62237805 -59.92630386 62.01831245 C-59.93992807 57.68045983 -59.94405663 53.34269949 -59.94105911 49.0048275 C-59.94160711 47.41700869 -59.94555564 45.82918665 -59.9532547 44.24138641 C-60.01974869 29.81452495 -58.57943463 18.66290887 -48.58984375 7.57421875 C-36.50301708 -3.86219573 -15.1272341 -6.83242745 0 0 Z " fill="#9AD0FB" transform="translate(316.71484375,70.67578125)"/>
<path d="M0 0 C7.61567412 6.45372384 13.14979575 15.03007533 14.40609932 25.05575752 C14.5151322 27.383627 14.53892182 29.69526925 14.52563477 32.02563477 C14.53610336 33.33504784 14.53610336 33.33504784 14.54678345 34.6709137 C14.56663385 37.53201188 14.56625965 40.39274557 14.56640625 43.25390625 C14.57819874 45.26538545 14.59156749 47.27685596 14.60643005 49.28831482 C14.64252127 54.57405938 14.66277926 59.85972706 14.67797852 65.14556885 C14.70284185 73.57854346 14.74306902 82.0113479 14.79987907 90.44416618 C14.81597981 93.36406999 14.81996553 96.28380828 14.82289124 99.20375061 C14.86243017 108.80987408 15.29974565 118.07856982 16.79600525 127.57554626 C17.11244225 130.68894524 16.85315209 132.80487241 16.125 135.8125 C16.04940125 137.21644191 16.0167624 138.62336085 16.02734375 140.02929688 C16.03064697 140.82783081 16.0339502 141.62636475 16.03735352 142.44909668 C16.04980103 143.72726257 16.04980103 143.72726257 16.0625 145.03125 C16.06628662 145.92557739 16.07007324 146.81990479 16.07397461 147.74133301 C16.09020767 151.54831718 16.11811053 155.35519164 16.14550781 159.16210938 C16.21523337 169.76773314 16.23151554 180.25120438 15.125 190.8125 C14.795 190.8125 14.465 190.8125 14.125 190.8125 C14.125 174.6425 14.125 158.4725 14.125 141.8125 C12.475 141.1525 10.825 140.4925 9.125 139.8125 C7.24132048 138.82533287 5.37370981 137.8071476 3.51953125 136.765625 C2.45283203 136.1675 1.38613281 135.569375 0.28710938 134.953125 C-0.81826172 134.32921875 -1.92363281 133.7053125 -3.0625 133.0625 C-4.14853516 132.4540625 -5.23457031 131.845625 -6.35351562 131.21875 C-7.42666016 130.61546875 -8.49980469 130.0121875 -9.60546875 129.390625 C-10.66169434 128.79830078 -11.71791992 128.20597656 -12.80615234 127.59570312 C-14.81046336 126.43106608 -16.78733555 125.21749177 -18.72900391 123.95117188 C-19.59831543 123.38462891 -20.46762695 122.81808594 -21.36328125 122.234375 C-22.11778564 121.7197168 -22.87229004 121.20505859 -23.6496582 120.67480469 C-25.90311747 119.54472745 -25.90311747 119.54472745 -28.41772461 120.53417969 C-29.22862549 120.95602539 -30.03952637 121.37787109 -30.875 121.8125 C-31.51856445 122.13798828 -32.16212891 122.46347656 -32.82519531 122.79882812 C-33.44491211 123.14365234 -34.06462891 123.48847656 -34.703125 123.84375 C-35.41275391 124.23771973 -36.12238281 124.63168945 -36.85351562 125.03759766 C-37.97790039 125.66867432 -37.97790039 125.66867432 -39.125 126.3125 C-39.90552734 126.74739746 -40.68605469 127.18229492 -41.49023438 127.63037109 C-47.91602129 131.22906983 -54.2657658 134.95182515 -60.56738281 138.76367188 C-65.66103689 141.8125 -65.66103689 141.8125 -67.875 141.8125 C-67.99215654 126.50418462 -68.08014563 111.19589 -68.13406086 95.8872261 C-68.15976777 88.77801718 -68.19477277 81.66908793 -68.25219727 74.56005859 C-68.30226438 68.35886488 -68.33434553 62.15787384 -68.34544247 55.9564836 C-68.35192236 52.67722651 -68.36967375 49.39867916 -68.40365028 46.1195755 C-68.44018873 42.44558497 -68.44493472 38.77277711 -68.44262695 35.09863281 C-68.46060333 34.02903824 -68.47857971 32.95944366 -68.49710083 31.85743713 C-68.42588473 21.31197574 -64.72333658 11.9571923 -57.953125 3.84765625 C-54.06221125 0.03719372 -49.67163856 -2.65536891 -44.875 -5.1875 C-44.19050781 -5.54972656 -43.50601563 -5.91195312 -42.80078125 -6.28515625 C-28.95881053 -12.13196117 -11.78582965 -8.3590254 0 0 Z " fill="#8983FE" transform="translate(221.875,134.1875)"/>
<path d="M0 0 C9.04721937 6.2832681 14.44640983 14.21694249 17.74609375 24.6796875 C18.36465188 28.82889943 18.38351296 32.86867412 18.3137207 37.05761719 C18.31445084 38.22979797 18.31518097 39.40197876 18.31593323 40.60968018 C18.31248109 44.44079701 18.27373006 48.27066103 18.234375 52.1015625 C18.2250384 54.77486221 18.21768005 57.44809471 18.2129364 60.12139893 C18.19747878 66.41108666 18.15656199 72.7003329 18.10618895 78.98982739 C18.05004134 86.15798398 18.02274558 93.32616315 17.99771178 100.49448538 C17.94563726 115.22311049 17.8578549 129.95139124 17.74609375 144.6796875 C15.99033906 143.72541968 14.23499676 142.77039307 12.47982788 141.81504822 C11.50227728 141.28329955 10.52472668 140.75155088 9.51755333 140.20368862 C6.21059707 138.38522261 2.96526622 136.48945347 -0.27734375 134.55859375 C-1.49432569 133.84360732 -2.71178683 133.12943599 -3.9296875 132.41601562 C-5.79702626 131.32149676 -7.66121745 130.22283335 -9.51806641 129.1105957 C-11.34686087 128.01716562 -13.1856849 126.94267572 -15.02734375 125.87109375 C-16.64261963 124.91505249 -16.64261963 124.91505249 -18.29052734 123.93969727 C-21.6287548 122.52030429 -22.88010626 122.50300101 -26.25390625 123.6796875 C-28.1892944 124.50775194 -28.1892944 124.50775194 -30.01171875 125.578125 C-31.06081421 126.1661792 -31.06081421 126.1661792 -32.13110352 126.76611328 C-33.24376587 127.40395752 -33.24376587 127.40395752 -34.37890625 128.0546875 C-35.15355225 128.49151855 -35.92819824 128.92834961 -36.72631836 129.37841797 C-43.6264414 133.28284413 -50.48432522 137.26350379 -57.32275391 141.27490234 C-58.08507324 141.72043457 -58.84739258 142.1659668 -59.6328125 142.625 C-60.30900635 143.02219238 -60.9852002 143.41938477 -61.68188477 143.82861328 C-63.25390625 144.6796875 -63.25390625 144.6796875 -64.25390625 144.6796875 C-64.32414889 129.5975278 -64.3769689 114.51538084 -64.40934277 99.43309212 C-64.42477754 92.42929728 -64.44580173 85.42560438 -64.48022461 78.421875 C-64.51344693 71.65915846 -64.53077478 64.89654776 -64.53853798 58.13375473 C-64.54406836 55.55745658 -64.5548678 52.98116402 -64.57109642 50.40491104 C-64.592967 46.78820675 -64.59586908 43.17193588 -64.59448242 39.55517578 C-64.60526825 38.49709213 -64.61605408 37.43900848 -64.62716675 36.34886169 C-64.57836589 24.53672905 -61.16913576 14.38126697 -53.28515625 5.44921875 C-39.28831299 -8.06584911 -16.72769775 -9.798894 0 0 Z " fill="#E884FC" transform="translate(115.25390625,73.3203125)"/>
<path d="M0 0 C1.91845703 0.85693359 1.91845703 0.85693359 3.7578125 1.8984375 C4.80702881 2.4864917 4.80702881 2.4864917 5.87744141 3.08642578 C6.61913574 3.51165527 7.36083008 3.93688477 8.125 4.375 C8.8989209 4.81183105 9.6728418 5.24866211 10.47021484 5.69873047 C12.98564149 7.12308009 15.49379084 8.5594976 18 10 C18.88945312 10.51111328 19.77890625 11.02222656 20.6953125 11.54882812 C26.13975545 14.68291308 31.57324595 17.8353962 37 21 C37.33 18.03 37.66 15.06 38 12 C38.33 12 38.66 12 39 12 C39 16.29 39 20.58 39 25 C39.66 25.33 40.32 25.66 41 26 C40.505 26.495 40.505 26.495 40 27 C39.9241299 29.15110701 39.91698382 31.30468445 39.9375 33.45703125 C39.94128662 34.11523361 39.94507324 34.77343597 39.94897461 35.45158386 C39.96526049 38.26947775 39.99289197 41.08722682 40.02050781 43.9050293 C40.05113342 47.3209936 40.06032269 50.73374862 40.01904297 54.1496582 C40.00705554 56.57342384 40.05951062 58.99919338 40.20361328 61.41870117 C40.25994902 64.65394585 40.14209763 66.96805727 39 70 C35.40763419 73.45031876 31.31583317 75.49471079 26.875 77.6875 C25.67911232 78.31524774 24.48550389 78.94735631 23.29418945 79.58374023 C20.94541294 80.83513312 18.58942881 82.06543508 16.22412109 83.28613281 C10.89298136 86.12004171 5.89579529 89.43899044 0.85546875 92.75390625 C-2 94 -2 94 -4.44140625 93.48046875 C-5.28574219 92.99191406 -6.13007813 92.50335938 -7 92 C-8.11632812 91.35546875 -9.23265625 90.7109375 -10.3828125 90.046875 C-11.63201229 89.28419689 -12.87933414 88.51843644 -14.125 87.75 C-19.40918252 84.53457623 -24.72410479 81.43093139 -30.18017578 78.51269531 C-33.06986715 76.96251975 -35.9500544 75.39585398 -38.828125 73.82421875 C-40.28847168 73.02697388 -40.28847168 73.02697388 -41.77832031 72.21362305 C-42.51147461 71.81312744 -43.24462891 71.41263184 -44 71 C-44.33078131 64.16950724 -44.55770383 57.34108654 -44.71411133 50.50439453 C-44.77932368 48.18166971 -44.86792541 45.85947538 -44.98071289 43.53857422 C-45.89011992 24.33815249 -45.89011992 24.33815249 -41.52294922 18.93579102 C-38.10305525 16.8241422 -34.75363431 15.42584308 -31 14 C-28.71468489 12.67619438 -26.45352457 11.30979147 -24.21875 9.90234375 C-21.98030675 8.57879911 -19.74072291 7.25718157 -17.5 5.9375 C-16.92958984 5.59307861 -16.35917969 5.24865723 -15.77148438 4.89379883 C-14.09549056 3.8828405 -12.40725712 2.89226078 -10.71875 1.90234375 C-9.73841797 1.31960693 -8.75808594 0.73687012 -7.74804688 0.13647461 C-4.54842667 -1.18675141 -3.24077219 -1.09057409 0 0 Z " fill="#7AB1DA" transform="translate(301,196)"/>
<path d="M0 0 C4.3931662 2.23072688 8.60989632 4.65601345 12.78398132 7.27372742 C16.77742231 9.74215914 20.66769902 11.87187454 25.03955078 13.59521484 C30.31605429 15.82363309 35.23616363 18.10890161 39.015625 22.53125 C42.0687191 30.46547278 40.7988698 39.42505955 40.203125 47.71875 C40.10771042 50.02894923 40.02103684 52.33952701 39.94335938 54.65039062 C39.73497813 60.28566473 39.41822008 65.90669062 39.015625 71.53125 C37.28388673 72.53130639 35.55210659 73.53129027 33.8203125 74.53125 C32.71776123 75.16812744 31.61520996 75.80500488 30.47924805 76.46118164 C28.08413556 77.84383587 25.68703057 79.22294568 23.28833008 80.59936523 C15.77296645 84.91273081 15.77296645 84.91273081 8.34765625 89.37890625 C7.7129541 89.76369141 7.07825195 90.14847656 6.42431641 90.54492188 C4.82603759 91.51885177 3.23869163 92.51066155 1.65234375 93.50390625 C-0.984375 94.53125 -0.984375 94.53125 -3.27148438 93.79956055 C-6.26417941 92.40043791 -9.14068524 90.87277352 -12.02734375 89.265625 C-12.59584549 88.94974426 -13.16434723 88.63386353 -13.75007629 88.30841064 C-14.95014044 87.64078068 -16.14940202 86.97170626 -17.34790039 86.30126953 C-19.14731633 85.29498392 -20.94938738 84.29359884 -22.75195312 83.29296875 C-29.32300628 79.63279531 -29.32300628 79.63279531 -31.08056641 78.59194946 C-33.06990641 77.44820692 -33.06990641 77.44820692 -35.59423828 76.35604858 C-42.47145999 72.96394466 -42.47145999 72.96394466 -43.85203552 69.10766602 C-44.14425646 66.09844193 -44.11067386 63.24621161 -43.9609375 60.2265625 C-43.93971329 58.60788773 -43.93971329 58.60788773 -43.9180603 56.95651245 C-43.86221338 53.52023129 -43.73680276 50.09054828 -43.609375 46.65625 C-43.5592013 44.32301106 -43.51357621 41.98966957 -43.47265625 39.65625 C-43.36258752 33.94567734 -43.19542333 28.23893483 -42.984375 22.53125 C-41.3768122 21.62618193 -39.76922201 20.72116248 -38.16162109 19.81616211 C-37.20648621 19.27845184 -36.25135132 18.74074158 -35.26727295 18.18673706 C-33.21772 17.03366522 -31.1670032 15.88266171 -29.11572266 14.73266602 C-24.31455968 12.03024641 -19.55058478 9.29895812 -14.8828125 6.37109375 C-14.12282959 5.89978027 -13.36284668 5.4284668 -12.57983398 4.94287109 C-11.1726864 4.06314516 -9.77564911 3.16697214 -8.39086914 2.25244141 C-5.34223024 0.35975287 -3.60374174 -0.56603273 0 0 Z " fill="#5F60D8" transform="translate(196.984375,253.46875)"/>
<path d="M0 0 C0.33 0 0.66 0 1 0 C1 4.29 1 8.58 1 13 C1.66 13.33 2.32 13.66 3 14 C2.67 14.33 2.34 14.66 2 15 C1.9241299 17.15110701 1.91698382 19.30468445 1.9375 21.45703125 C1.94128662 22.11523361 1.94507324 22.77343597 1.94897461 23.45158386 C1.96526049 26.26947775 1.99289197 29.08722682 2.02050781 31.9050293 C2.05113423 35.32108379 2.06025825 38.73390456 2.01879883 42.14990234 C2.0069682 44.572876 2.06011274 46.99788582 2.20581055 49.41650391 C2.2640246 52.65564545 2.14634517 54.96530442 1 58 C-2.6129063 61.47105033 -6.72378483 63.53741421 -11.1875 65.75 C-12.3837652 66.38189881 -13.57778336 67.01806964 -14.76953125 67.65844727 C-17.10672904 68.90803638 -19.45236448 70.13057768 -21.81005859 71.34228516 C-25.78858752 73.40980478 -29.64620897 75.64879499 -33.5 77.9375 C-38.7537155 81 -38.7537155 81 -41 81 C-41.43358827 74.49206967 -41.72963467 67.98787783 -41.93383789 61.46875 C-42.01897814 59.25607283 -42.13475231 57.04434284 -42.2824707 54.83496094 C-43.44271264 37.02584938 -43.44271264 37.02584938 -39.45178223 32.08218384 C-35.44727423 28.78046003 -30.9225806 26.77762382 -26.12631226 24.87963867 C-23.24586875 23.68802183 -20.69348569 22.10833247 -18.0703125 20.43359375 C-17.23628906 19.92892578 -16.40226562 19.42425781 -15.54296875 18.90429688 C-13.87542277 17.89272415 -12.20881167 16.87960923 -10.54296875 15.86523438 C-9.31900391 15.12563477 -9.31900391 15.12563477 -8.0703125 14.37109375 C-7.35633301 13.93724365 -6.64235352 13.50339355 -5.90673828 13.05639648 C-4 12 -4 12 -1 11 C-0.67 7.37 -0.34 3.74 0 0 Z " fill="#6A9FC8" transform="translate(339,208)"/>
<path d="M0 0 C0.33 0.66 0.66 1.32 1 2 C2.65354676 2.69857378 4.32322338 3.35918616 6 4 C7.88367952 4.98716713 9.75129019 6.0053524 11.60546875 7.046875 C13.20551758 7.9440625 13.20551758 7.9440625 14.83789062 8.859375 C15.94326172 9.48328125 17.04863281 10.1071875 18.1875 10.75 C19.27353516 11.3584375 20.35957031 11.966875 21.47851562 12.59375 C24.66063312 14.38261605 27.83856082 16.17477275 31 18 C31.84985474 18.38592316 32.69970947 18.77184631 33.57531738 19.16946411 C40.46287968 22.58909693 40.46287968 22.58909693 41.90818787 26.38562012 C42.25554509 29.32883966 42.28176948 32.12359293 42.1953125 35.0859375 C42.20335907 36.14285797 42.21140564 37.19977844 42.21969604 38.28872681 C42.23465451 41.65270276 42.18079335 45.01152697 42.125 48.375 C42.12305767 50.66015691 42.12561106 52.94532236 42.1328125 55.23046875 C42.14063149 60.8214602 42.09200662 66.40980794 42 72 C38.11887071 70.54452071 34.57711329 68.74985743 30.95703125 66.734375 C30.38852951 66.41849426 29.82002777 66.10261353 29.23429871 65.77716064 C28.03423456 65.10953068 26.83497298 64.44045626 25.63647461 63.77001953 C23.83705867 62.76373392 22.03498762 61.76234884 20.23242188 60.76171875 C13.66136872 57.10154531 13.66136872 57.10154531 11.90380859 56.06069946 C9.91446859 54.91695692 9.91446859 54.91695692 7.39013672 53.82479858 C0.51291501 50.43269466 0.51291501 50.43269466 -0.86766052 46.57641602 C-1.15988146 43.56719193 -1.12629886 40.71496161 -0.9765625 37.6953125 C-0.95533829 36.07663773 -0.95533829 36.07663773 -0.9336853 34.42526245 C-0.87783838 30.98898129 -0.75242776 27.55929828 -0.625 24.125 C-0.5748263 21.79176106 -0.52920121 19.45841957 -0.48828125 17.125 C-0.37821252 11.41442734 -0.21104833 5.70768483 0 0 Z " fill="#6D6BE5" transform="translate(154,276)"/>
<path d="M0 0 C0.8569043 0.49193848 1.71380859 0.98387695 2.59667969 1.49072266 C8.63461786 4.95190268 14.68194297 8.39301383 20.765625 11.7734375 C21.83941406 12.37027344 22.91320312 12.96710938 24.01953125 13.58203125 C26.21895868 14.80275337 28.41952577 16.02142386 30.62109375 17.23828125 C31.67941406 17.82738281 32.73773438 18.41648438 33.828125 19.0234375 C35.2497998 19.81113525 35.2497998 19.81113525 36.70019531 20.61474609 C39 22 39 22 41 24 C41.2784729 26.06277466 41.2784729 26.06277466 41.31884766 28.63330078 C41.33871735 29.59414581 41.35858704 30.55499084 41.37905884 31.54495239 C41.39061005 32.58457123 41.40216125 33.62419006 41.4140625 34.6953125 C41.43342865 35.75789276 41.4527948 36.82047302 41.4727478 37.91525269 C41.53266084 41.31841943 41.57897598 44.72161978 41.625 48.125 C41.66316897 50.4284004 41.70222005 52.73178636 41.7421875 55.03515625 C41.83837187 60.68997628 41.92338481 66.34488283 42 72 C36.58397693 69.31292861 31.33929756 66.3240714 26.0625 63.375 C24.99708984 62.78332031 23.93167969 62.19164062 22.83398438 61.58203125 C20.65602941 60.36490011 18.4942653 59.11838464 16.34887695 57.84472656 C13.02171539 55.90725522 13.02171539 55.90725522 9.31323242 54.61621094 C5.17497615 52.82867845 2.86342827 51.51218031 0 48 C-2.16606271 40.10829158 -1.21335238 31.5752265 -0.8125 23.5 C-0.74724825 21.22412263 -0.68794003 18.94806658 -0.63476562 16.671875 C-0.49191937 11.11066991 -0.27484537 5.55616232 0 0 Z " fill="#CE6CE2" transform="translate(51,218)"/>
<path d="M0 0 C0 15.51 0 31.02 0 47 C-12.25 54.0625 -12.25 54.0625 -16.03222656 56.24243164 C-17.05799805 56.83403076 -18.08376953 57.42562988 -19.140625 58.03515625 C-20.27693359 58.68887207 -21.41324219 59.34258789 -22.58398438 60.01611328 C-24.87779839 61.34826971 -27.15947136 62.69042747 -29.43164062 64.05810547 C-30.50091797 64.6976416 -31.57019531 65.33717773 -32.671875 65.99609375 C-34.10418457 66.8631897 -34.10418457 66.8631897 -35.56542969 67.74780273 C-38 69 -38 69 -41 69 C-41.2286411 62.55945274 -41.38597823 56.11995425 -41.49438477 49.67626953 C-41.53958148 47.48576761 -41.60095438 45.29553628 -41.67895508 43.10595703 C-41.7884506 39.95277232 -41.83922919 36.80317944 -41.87890625 33.6484375 C-41.92535782 32.67321136 -41.97180939 31.69798523 -42.01966858 30.69320679 C-42.02458031 24.04214076 -42.02458031 24.04214076 -39.18025208 21.14906311 C-36.85403551 19.57110699 -34.50791826 18.26633501 -32 17 C-30.80920196 16.29542341 -29.62197206 15.58475358 -28.43969727 14.8659668 C-27.32651123 14.23343994 -26.2133252 13.60091309 -25.06640625 12.94921875 C-24.46239487 12.60494339 -23.85838348 12.26066803 -23.23606873 11.90596008 C-21.34661394 10.83005437 -19.45459343 9.758757 -17.5625 8.6875 C-16.27131894 7.9527646 -14.98030216 7.21774044 -13.68945312 6.48242188 C-2.29443403 0 -2.29443403 0 0 0 Z " fill="#5255CB" transform="translate(236,278)"/>
<path d="M0 0 C0.33 0 0.66 0 1 0 C0.99777939 0.57185028 0.99555878 1.14370056 0.99327087 1.73287964 C0.97119517 7.66973243 0.9560838 13.60657362 0.94506836 19.54345703 C0.94003091 21.76090976 0.93320078 23.97835916 0.92456055 26.19580078 C0.91246928 29.37793805 0.9067659 32.56003151 0.90234375 35.7421875 C0.89718246 36.73805878 0.89202118 37.73393005 0.88670349 38.75997925 C0.88662796 39.68078278 0.88655243 40.6015863 0.88647461 41.55029297 C0.884254 42.3630368 0.88203339 43.17578064 0.87974548 44.01315308 C0.87415342 46.07527359 0.87415342 46.07527359 2 48 C1.30551758 48.38744385 0.61103516 48.7748877 -0.10449219 49.17407227 C-3.32032183 50.96903459 -6.53516351 52.76575956 -9.75 54.5625 C-10.84183594 55.17158203 -11.93367188 55.78066406 -13.05859375 56.40820312 C-19.62190232 60.07821886 -26.11997626 63.82696912 -32.54785156 67.73022461 C-35 69 -35 69 -38 69 C-38.2286411 62.55945274 -38.38597823 56.11995425 -38.49438477 49.67626953 C-38.53958148 47.48576761 -38.60095438 45.29553628 -38.67895508 43.10595703 C-38.7884506 39.95277232 -38.83922919 36.80317944 -38.87890625 33.6484375 C-38.92535782 32.67321136 -38.97180939 31.69798523 -39.01966858 30.69320679 C-39.02457979 24.04284853 -39.02457979 24.04284853 -36.18148804 21.14906311 C-33.85497133 19.57024404 -31.5090487 18.26573292 -29 17 C-27.80416451 16.29502559 -26.6116813 15.58430953 -25.42382812 14.8659668 C-24.30427734 14.23343994 -23.18472656 13.60091309 -22.03125 12.94921875 C-21.42486694 12.60494339 -20.81848389 12.26066803 -20.19372559 11.90596008 C-18.29759662 10.8299605 -16.39900393 9.75841607 -14.5 8.6875 C-12.5728018 7.59809902 -10.64617009 6.50772443 -8.72058105 5.41548157 C-6.9952734 4.43719684 -5.26819163 3.46204288 -3.54101562 2.48706055 C-1.14354607 1.22792299 -1.14354607 1.22792299 0 0 Z " fill="#B352C8" transform="translate(131,219)"/>
<path d="M0 0 C0.33 0 0.66 0 1 0 C1.33 3.3 1.66 6.6 2 10 C3.3303125 10.4021875 3.3303125 10.4021875 4.6875 10.8125 C7.80789038 11.93113051 10.33172267 13.03803137 13 15 C13 15.99 13 16.98 13 18 C13.66 18 14.32 18 15 18 C16.98 20.97 16.98 20.97 19 24 C19.33 19.05 19.66 14.1 20 9 C20.33 9 20.66 9 21 9 C21 49.92 21 90.84 21 133 C20.67 133 20.34 133 20 133 C19.98786972 131.75996971 19.98786972 131.75996971 19.97549438 130.49488831 C19.89689874 122.62692492 19.8094247 114.75911778 19.71247292 106.89135838 C19.66295302 102.84842278 19.61662735 98.8055079 19.578125 94.76245117 C19.54070206 90.8460026 19.49420586 86.92974914 19.44193649 83.0134716 C19.42368976 81.53432649 19.40847794 80.05514006 19.39665604 78.57592964 C19.30869364 67.93004905 18.42570994 57.55014039 17 47 C16.01 47 15.02 47 14 47 C13.67 46.34 13.34 45.68 13 45 C11.68 45.99 10.36 46.98 9 48 C8.731875 47.175 8.46375 46.35 8.1875 45.5 C6.35613067 38.22589683 6.35613067 38.22589683 2 33 C2 46.86 2 60.72 2 75 C1.34 75 0.68 75 0 75 C0 50.25 0 25.5 0 0 Z " fill="#CDC9E8" transform="translate(133,191)"/>
<path d="M0 0 C1.72945653 0.14235457 3.45855654 0.28904382 5.1875 0.4375 C6.63189453 0.55931641 6.63189453 0.55931641 8.10546875 0.68359375 C11 1 11 1 13.71875 1.5625 C16.17924747 2.03437623 17.64682943 1.78439019 20 1 C20 2.65 20 4.3 20 6 C19.01 6.33 18.02 6.66 17 7 C17.33 7.99 17.66 8.98 18 10 C19.9490625 9.7215625 19.9490625 9.7215625 21.9375 9.4375 C24.15234375 9.12109375 24.15234375 9.12109375 26 9 C26.33 9.33 26.66 9.66 27 10 C28.99958364 10.04080783 31.00045254 10.04254356 33 10 C32.67 11.32 32.34 12.64 32 14 C32.66 13.67 33.32 13.34 34 13 C34.33 12.01 34.66 11.02 35 10 C35.71655762 10.01047363 36.43311523 10.02094727 37.17138672 10.03173828 C40.40588905 10.07321299 43.64033553 10.09929892 46.875 10.125 C48.00292969 10.14175781 49.13085938 10.15851563 50.29296875 10.17578125 C51.90751953 10.18544922 51.90751953 10.18544922 53.5546875 10.1953125 C55.04718018 10.21102295 55.04718018 10.21102295 56.56982422 10.22705078 C59.18171417 10.24379401 59.18171417 10.24379401 61 8 C61.495 8.99 61.495 8.99 62 10 C62.99 10.495 62.99 10.495 64 11 C64 11.99 64 12.98 64 14 C62.87980469 13.96519531 61.75960937 13.93039063 60.60546875 13.89453125 C59.13282749 13.86639161 57.66017002 13.83909163 56.1875 13.8125 C55.44951172 13.78736328 54.71152344 13.76222656 53.95117188 13.73632812 C49.7216656 13.63695903 49.7216656 13.63695903 45.98828125 15.38671875 C44.82587721 16.96891932 44.82587721 16.96891932 45 19 C47.31 18.67 49.62 18.34 52 18 C52 19.65 52 21.3 52 23 C51.01 23 50.02 23 49 23 C49 22.01 49 21.02 49 20 C48.34 20 47.68 20 47 20 C46.67 20.66 46.34 21.32 46 22 C44 22.5625 44 22.5625 41 23 C40.33484375 23.10441406 39.6696875 23.20882812 38.984375 23.31640625 C34.14403173 23.9849152 29.78233725 23.938718 24.9453125 23.25390625 C22.83117413 22.93528785 22.83117413 22.93528785 20 23 C19.67 22.67 19.34 22.34 19 22 C18.1028125 22.2475 18.1028125 22.2475 17.1875 22.5 C14.74011646 23.05940195 13.36003266 22.75858193 11 22 C11.33 21.01 11.66 20.02 12 19 C12.66 19 13.32 19 14 19 C14.33 18.34 14.66 17.68 15 17 C15.33 17.66 15.66 18.32 16 19 C18.91652174 19.16681109 18.91652174 19.16681109 22 19 C22.66 18.34 23.32 17.68 24 17 C23.01 16.01 22.02 15.02 21 14 C20.67 14.33 20.34 14.66 20 15 C16.93518979 15.1613058 14.94450722 14.98150241 12 14 C11.67 11.69 11.34 9.38 11 7 C11.99 6.67 12.98 6.34 14 6 C9.05 6 4.1 6 -1 6 C-1.33 4.68 -1.66 3.36 -2 2 C-1.34 2 -0.68 2 0 2 C0 1.34 0 0.68 0 0 Z " fill="#9691FE" transform="translate(163,203)"/>
<path d="M0 0 C0.66 0 1.32 0 2 0 C2 0.66 2 1.32 2 2 C4.31 2 6.62 2 9 2 C9.33 3.65 9.66 5.3 10 7 C10.66 5.68 11.32 4.36 12 3 C12 3.66 12 4.32 12 5 C12.66 5 13.32 5 14 5 C14.33 4.01 14.66 3.02 15 2 C17.64 2 20.28 2 23 2 C23 1.34 23 0.68 23 0 C24.65 0 26.3 0 28 0 C28.495 0.99 28.495 0.99 29 2 C30.1446875 1.690625 30.1446875 1.690625 31.3125 1.375 C34 1 34 1 37 3 C37 4.66666667 37 6.33333333 37 8 C37.99 8.66 38.98 9.32 40 10 C40.1875 12.625 40.1875 12.625 40 15 C35.56251365 15.02896822 31.12505153 15.04678788 26.6875 15.0625 C25.42486328 15.07087891 24.16222656 15.07925781 22.86132812 15.08789062 C21.04858398 15.09272461 21.04858398 15.09272461 19.19921875 15.09765625 C18.08377686 15.10289307 16.96833496 15.10812988 15.8190918 15.11352539 C13 15 13 15 10 14 C9.67 14.33 9.34 14.66 9 15 C7.48071962 15.07179964 5.95832518 15.08392007 4.4375 15.0625 C3.61121094 15.05347656 2.78492188 15.04445312 1.93359375 15.03515625 C1.29550781 15.02355469 0.65742188 15.01195312 0 15 C0 13.68 0 12.36 0 11 C2.05078125 10.77213542 4.1015625 10.54427083 6.15234375 10.31640625 C8.01140229 10.18113386 8.01140229 10.18113386 9 9 C4.16959546 6.05463138 1.49317802 5.88101929 -4 7 C-8 7 -8 7 -10 6 C-11.99960012 5.960008 -14.00047242 5.95653201 -16 6 C-16.33 4.35 -16.66 2.7 -17 1 C-11.39 1.33 -5.78 1.66 0 2 C0 1.34 0 0.68 0 0 Z " fill="#8E88FF" transform="translate(185,194)"/>
<path d="M0 0 C0.33 0 0.66 0 1 0 C1.33 6.93 1.66 13.86 2 21 C3.32 21.66 4.64 22.32 6 23 C11.19696702 26.89772527 13.36497457 33.43651017 14.47265625 39.65234375 C14.70931659 41.76228736 14.86330519 43.88123039 15 46 C14.01 46.495 14.01 46.495 13 47 C13 46.34 13 45.68 13 45 C11.68 45.99 10.36 46.98 9 48 C8.731875 47.175 8.46375 46.35 8.1875 45.5 C6.35613067 38.22589683 6.35613067 38.22589683 2 33 C2 46.86 2 60.72 2 75 C1.34 75 0.68 75 0 75 C0 50.25 0 25.5 0 0 Z " fill="#B4A7CC" transform="translate(133,191)"/>
<path d="M0 0 C0.33 -0.33 0.66 -0.66 1 -1 C5.38925787 -1.46202714 5.38925787 -1.46202714 7.65234375 0.25 C9.34830778 2.45229532 9.39414221 3.5011781 9.1875 6.25 C8.47271776 11.44918989 5.72743627 13.67522075 1.71484375 16.78515625 C1.14894531 17.18605469 0.58304687 17.58695313 0 18 C-4.42761914 16.60846256 -6.9556255 14.47928514 -10 11 C-10 10.34 -10 9.68 -10 9 C-7.1875 8.3125 -7.1875 8.3125 -4 8 C-2.125 9.4375 -2.125 9.4375 -1 11 C-0.67 10.34 -0.34 9.68 0 9 C1.32 9 2.64 9 4 9 C4 8.34 4 7.68 4 7 C1.69 7.33 -0.62 7.66 -3 8 C-3.66 7.01 -4.32 6.02 -5 5 C-5.33 5.66 -5.66 6.32 -6 7 C-7.65 7 -9.3 7 -11 7 C-11.2181301 4.30972879 -11.28470316 2.53381842 -10 0.125 C-6.70473448 -1.72858686 -3.66165487 -0.5905895 0 0 Z " fill="#F6F9FD" transform="translate(299,209)"/>
<path d="M0 0 C1.39895508 -0.01836914 1.39895508 -0.01836914 2.82617188 -0.03710938 C4.16325195 -0.04000977 4.16325195 -0.04000977 5.52734375 -0.04296875 C6.348396 -0.04707764 7.16944824 -0.05118652 8.01538086 -0.05541992 C10.0625 0.1875 10.0625 0.1875 12.0625 2.1875 C12.0625 6.1875 12.0625 6.1875 10.8269043 7.91918945 C8.64543206 9.48730185 7.49747804 9.53718038 4.83203125 9.48046875 C4.02958984 9.47080078 3.22714844 9.46113281 2.40039062 9.45117188 C1.56701172 9.42603516 0.73363281 9.40089844 -0.125 9.375 C-0.96998047 9.36146484 -1.81496094 9.34792969 -2.68554688 9.33398438 C-4.76980384 9.29865799 -6.85373277 9.24485139 -8.9375 9.1875 C-9.2675 8.1975 -9.5975 7.2075 -9.9375 6.1875 C-10.5975 6.1875 -11.2575 6.1875 -11.9375 6.1875 C-10.54248603 -1.58472067 -7.18323895 0.00494373 0 0 Z " fill="#E2E3F8" transform="translate(194.9375,273.8125)"/>
<path d="M0 0 C4.99524202 0.83254034 7.80431258 1.46307272 12 4 C12.33 4.99 12.66 5.98 13 7 C15.01508358 7.73323796 15.01508358 7.73323796 17 8 C17.83211276 13.03854106 18.1078534 17.8125662 18.0625 22.9375 C18.05798828 23.62134766 18.05347656 24.30519531 18.04882812 25.00976562 C18.0371956 26.67321604 18.01926694 28.3366205 18 30 C17.67 30 17.34 30 17 30 C16.96261719 29.39671875 16.92523438 28.7934375 16.88671875 28.171875 C16.50675198 23.5526711 16.24820627 20.53065899 13 17 C13 16.34 13 15.68 13 15 C12.34 15 11.68 15 11 15 C10.773125 14.38125 10.54625 13.7625 10.3125 13.125 C8.59251083 10.34025563 7.05884971 10.01961657 4 9 C2.65949948 8.34786461 1.32338632 7.68620031 0 7 C0 8.98 0 10.96 0 13 C-0.33 13 -0.66 13 -1 13 C-0.67 8.71 -0.34 4.42 0 0 Z " fill="#D7DAED" transform="translate(135,194)"/>
<path d="M0 0 C0.33 0 0.66 0 1 0 C1.00808685 1.06631149 1.01617371 2.13262299 1.02450562 3.23124695 C1.10199501 13.28092239 1.18974149 23.33046292 1.28752708 33.37996197 C1.33746989 38.54649356 1.38380023 43.71300491 1.421875 48.87963867 C1.45875309 53.86585145 1.50512013 58.85189402 1.55806351 63.8379612 C1.57659399 65.74011054 1.59170693 67.64229635 1.60334396 69.54450035 C1.62022933 72.20912475 1.64927004 74.87336047 1.68115234 77.5378418 C1.68331253 78.32402893 1.68547272 79.11021606 1.68769836 79.92022705 C1.75070039 84.04280993 2.15490031 87.2891463 4 91 C3.505 91.495 3.505 91.495 3 92 C2.92755947 94.01964199 2.91622812 96.04167124 2.9375 98.0625 C2.95103516 99.71958984 2.95103516 99.71958984 2.96484375 101.41015625 C2.97644531 102.26480469 2.98804688 103.11945313 3 104 C2.34 104 1.68 104 1 104 C1 107.3 1 110.6 1 114 C0.67 114 0.34 114 0 114 C0 76.38 0 38.76 0 0 Z " fill="#A1D3FC" transform="translate(338,104)"/>
<path d="M0 0 C1.4540625 0.0309375 1.4540625 0.0309375 2.9375 0.0625 C2.9375 0.7225 2.9375 1.3825 2.9375 2.0625 C9.2075 2.0625 15.4775 2.0625 21.9375 2.0625 C22.2675 3.7125 22.5975 5.3625 22.9375 7.0625 C21.679375 7.248125 20.42125 7.43375 19.125 7.625 C18.06345703 7.78162109 18.06345703 7.78162109 16.98046875 7.94140625 C14.9375 8.0625 14.9375 8.0625 11.9375 7.0625 C9.38700979 7.01745823 6.86100075 7.01459585 4.3125 7.0625 C1.84744869 7.1083188 -0.59595945 7.10959385 -3.0625 7.0625 C-4.0625 6.0625 -4.0625 6.0625 -4.1875 3.5625 C-4.00295237 -0.12845252 -3.76342282 0.07680455 0 0 Z " fill="#F8DEFE" transform="translate(83.0625,111.9375)"/>
<path d="M0 0 C0.99 0 1.98 0 3 0 C3 0.66 3 1.32 3 2 C5.31 2 7.62 2 10 2 C10.33 1.34 10.66 0.68 11 0 C12.65 0 14.3 0 16 0 C16 0.66 16 1.32 16 2 C19.99740847 3.05813754 22.96609477 2.80678105 27 2 C27.66 2 28.32 2 29 2 C29 1.34 29 0.68 29 0 C29.66 0 30.32 0 31 0 C31 0.66 31 1.32 31 2 C31.99 2 32.98 2 34 2 C34 3.32 34 4.64 34 6 C30.18751574 6.02887236 26.3750593 6.04675492 22.5625 6.0625 C21.47388672 6.07087891 20.38527344 6.07925781 19.26367188 6.08789062 C18.22919922 6.09111328 17.19472656 6.09433594 16.12890625 6.09765625 C15.17056885 6.10289307 14.21223145 6.10812988 13.22485352 6.11352539 C11 6 11 6 10 5 C8.66158328 5.31229724 7.32860925 5.64830932 6 6 C4 6 2 6 0 6 C0 4.02 0 2.04 0 0 Z " fill="#F4C6FD" transform="translate(87,170)"/>
<path d="M0 0 C0.33 0 0.66 0 1 0 C1.3641989 2.5614319 1.71662798 5.12358419 2.0625 7.6875 C2.16626953 8.40873047 2.27003906 9.12996094 2.37695312 9.87304688 C2.47041016 10.57880859 2.56386719 11.28457031 2.66015625 12.01171875 C2.74918213 12.65584717 2.83820801 13.29997559 2.92993164 13.96362305 C3 16 3 16 2.52514648 18.1730957 C1.77758257 22.19729027 1.89773424 26.13542397 1.9375 30.21875 C1.94128662 31.11307739 1.94507324 32.00740479 1.94897461 32.92883301 C1.96520767 36.73581718 1.99311053 40.54269164 2.02050781 44.34960938 C2.09023337 54.95523314 2.10651554 65.43870438 1 76 C0.67 76 0.34 76 0 76 C0 50.92 0 25.84 0 0 Z " fill="#A39AC2" transform="translate(236,249)"/>
<path d="M0 0 C0.33 0 0.66 0 1 0 C1.33 6.93 1.66 13.86 2 21 C3.32 21.66 4.64 22.32 6 23 C11.19696702 26.89772527 13.36497457 33.43651017 14.47265625 39.65234375 C14.70931659 41.76228736 14.86330519 43.88123039 15 46 C14.01 46.495 14.01 46.495 13 47 C10.92142164 43.88213246 10.51861876 42.13321309 9.9375 38.5 C9.45341807 35.52349625 8.95551852 32.86655555 8 30 C7.34 29.67 6.68 29.34 6 29 C4.875 26.9375 4.875 26.9375 4 25 C3.34 25 2.68 25 2 25 C2 26.98 2 28.96 2 31 C-0.14503684 27.51153178 -0.23354662 24.75594122 -0.1953125 20.703125 C-0.18886719 19.49785156 -0.18242187 18.29257813 -0.17578125 17.05078125 C-0.15064453 15.16939453 -0.15064453 15.16939453 -0.125 13.25 C-0.11597656 11.98027344 -0.10695312 10.71054688 -0.09765625 9.40234375 C-0.07409005 6.26803907 -0.04118832 3.13411459 0 0 Z " fill="#BEB9D5" transform="translate(133,191)"/>
<path d="M0 0 C1.8125 1.0625 1.8125 1.0625 3 3 C3.3125 6.5625 3.3125 6.5625 3 10 C1 12 1 12 -2.4375 12.3125 C-6 12 -6 12 -8 10.9375 C-9.63378851 7.77203476 -8.85267564 5.34979714 -8 2 C-4.76746204 -0.15502531 -3.74849077 -0.46856135 0 0 Z " fill="#FAF5FD" transform="translate(95,211)"/>
<path d="M0 0 C0.66 0 1.32 0 2 0 C1.67 0.99 1.34 1.98 1 3 C0.34 3 -0.32 3 -1 3 C-1.309375 3.8353125 -1.309375 3.8353125 -1.625 4.6875 C-4.90782484 10.20861451 -10.82470244 13.63778058 -16.66796875 15.9453125 C-17.56064453 16.29980469 -18.45332031 16.65429688 -19.37304688 17.01953125 C-20.30181641 17.38433594 -21.23058594 17.74914062 -22.1875 18.125 C-23.59805664 18.68380859 -23.59805664 18.68380859 -25.03710938 19.25390625 C-27.35686205 20.17238701 -29.6778419 21.08762171 -32 22 C-32.33 21.34 -32.66 20.68 -33 20 C-29.10632243 17.75377966 -25.21018839 15.51189919 -21.31176758 13.27392578 C-19.98719833 12.51273114 -18.66329553 11.75037551 -17.34008789 10.98681641 C-15.43291434 9.88655156 -13.52334613 8.79054848 -11.61328125 7.6953125 C-10.73329216 7.18582565 -10.73329216 7.18582565 -9.83552551 6.66604614 C-6.63429233 4.83640008 -3.4604925 3.27536579 0 2 C0 1.34 0 0.68 0 0 Z " fill="#CFC3EC" transform="translate(340,264)"/>
<path d="M0 0 C0.66 0 1.32 0 2 0 C2 0.66 2 1.32 2 2 C4.31 2 6.62 2 9 2 C9.33 3.65 9.66 5.3 10 7 C6 7 6 7 3 6 C0.6618385 6.29758419 -1.67182036 6.63239269 -4 7 C-8 7 -8 7 -10 6 C-11.99960012 5.960008 -14.00047242 5.95653201 -16 6 C-16.33 4.35 -16.66 2.7 -17 1 C-11.39 1.33 -5.78 1.66 0 2 C0 1.34 0 0.68 0 0 Z " fill="#BFBCFE" transform="translate(185,194)"/>
<path d="M0 0 C0.66 0 1.32 0 2 0 C2 0.66 2 1.32 2 2 C6.95 2 11.9 2 17 2 C17 2.99 17 3.98 17 5 C17.66 5 18.32 5 19 5 C19.33 4.01 19.66 3.02 20 2 C21.33333333 2 22.66666667 2 24 2 C24.66 1.34 25.32 0.68 26 0 C26 2.31 26 4.62 26 7 C19.44842017 7.6992655 13.5299755 8.15234862 7 7 C4.66696056 6.96296763 2.33284758 6.95239087 0 7 C0 4.69 0 2.38 0 0 Z " fill="#E2F1FE" transform="translate(293,102)"/>
<path d="M0 0 C1.32 0 2.64 0 4 0 C4 0.66 4 1.32 4 2 C2.68 2 1.36 2 0 2 C0 2.99 0 3.98 0 5 C0.66 5 1.32 5 2 5 C2 4.34 2 3.68 2 3 C2.66 3 3.32 3 4 3 C4.33 2.01 4.66 1.02 5 0 C5.66 0 6.32 0 7 0 C7 0.66 7 1.32 7 2 C8.32 2 9.64 2 11 2 C11 1.34 11 0.68 11 0 C11.66 0 12.32 0 13 0 C13 0.66 13 1.32 13 2 C16.01031744 2.93423645 16.86650268 3.04449911 20 2 C20 1.34 20 0.68 20 0 C20.66 0 21.32 0 22 0 C22 2.31 22 4.62 22 7 C18.35418313 7.02887512 14.70839537 7.04675585 11.0625 7.0625 C9.50112305 7.07506836 9.50112305 7.07506836 7.90820312 7.08789062 C6.91884766 7.09111328 5.92949219 7.09433594 4.91015625 7.09765625 C3.53549194 7.10551147 3.53549194 7.10551147 2.13305664 7.11352539 C0 7 0 7 -1 6 C-1.125 3.5 -1.125 3.5 -1 1 C-0.67 0.67 -0.34 0.34 0 0 Z " fill="#F7D7FE" transform="translate(67,102)"/>
<path d="M0 0 C0.66 0.33 1.32 0.66 2 1 C-9.25 12.25 -9.25 12.25 -13.3515625 13.7265625 C-14.20234375 14.0359375 -15.053125 14.3453125 -15.9296875 14.6640625 C-16.81914062 14.98117187 -17.70859375 15.29828125 -18.625 15.625 C-19.5221875 15.94984375 -20.419375 16.2746875 -21.34375 16.609375 C-23.56074574 17.41126708 -25.7794874 18.20790954 -28 19 C-28.33 18.34 -28.66 17.68 -29 17 C-28.22809326 16.5560791 -27.45618652 16.1121582 -26.66088867 15.65478516 C-23.79225346 14.00439667 -20.92414857 12.35309407 -18.05639648 10.70117188 C-16.81604751 9.98693827 -15.57548941 9.2730677 -14.3347168 8.55957031 C-12.5494134 7.53285999 -10.7648707 6.50483853 -8.98046875 5.4765625 C-7.37014771 4.549646 -7.37014771 4.549646 -5.72729492 3.60400391 C-3.78300181 2.46050684 -1.8767966 1.25119773 0 0 Z " fill="#CEC3EA" transform="translate(234,325)"/>
<path d="M0 0 C0.66 0 1.32 0 2 0 C2 0.99 2 1.98 2 3 C2.66 3 3.32 3 4 3 C4 2.01 4 1.02 4 0 C4.66 0 5.32 0 6 0 C6 0.66 6 1.32 6 2 C8.64 2 11.28 2 14 2 C14 1.34 14 0.68 14 0 C15.98 0.66 17.96 1.32 20 2 C20.33 1.34 20.66 0.68 21 0 C21 0.66 21 1.32 21 2 C21.99 2 22.98 2 24 2 C24 3.65 24 5.3 24 7 C23.67 5.68 23.34 4.36 23 3 C22.34 3 21.68 3 21 3 C20.67 3.99 20.34 4.98 20 6 C19.67 5.67 19.34 5.34 19 5 C19 5.66 19 6.32 19 7 C14.05 7 9.1 7 4 7 C4 6.01 4 5.02 4 4 C3.34 4 2.68 4 2 4 C2 4.99 2 5.98 2 7 C1.34 7 0.68 7 0 7 C0 4.69 0 2.38 0 0 Z " fill="#D7ECFD" transform="translate(267,102)"/>
<path d="M0 0 C4.02099417 1.10380232 6.25403384 0.04047145 10.1875 -1.125 C12.625 -0.25 12.625 -0.25 14.1875 0.875 C13.5275 1.205 12.8675 1.535 12.1875 1.875 C12.1875 2.535 12.1875 3.195 12.1875 3.875 C1.9575 3.875 -8.2725 3.875 -18.8125 3.875 C-18.8125 2.885 -18.8125 1.895 -18.8125 0.875 C-16.89654518 0.53759915 -14.97970278 0.20523588 -13.0625 -0.125 C-11.99515625 -0.310625 -10.9278125 -0.49625 -9.828125 -0.6875 C-6.13940475 -1.22265112 -3.49395098 -1.39758039 0 0 Z " fill="#C6C3FE" transform="translate(196.8125,230.125)"/>
<path d="M0 0 C6.46691395 2.61756041 10.2893499 6.40974671 13.265625 12.65625 C15.30183617 17.87583357 16.71502782 22.39894871 16 28 C15.34 28.66 14.68 29.32 14 30 C12 27 12 27 11.6875 23.5 C11.05453981 17.60692236 8.91592207 10.53945326 4.3359375 6.55078125 C2.89773834 5.68854336 1.4496605 4.84282587 0 4 C0 2.68 0 1.36 0 0 Z " fill="#C7C4DD" transform="translate(135,208)"/>
<path d="M0 0 C0.99 0.33 1.98 0.66 3 1 C4.48123547 1.0806622 5.96582204 1.10761193 7.44921875 1.09765625 C8.29677734 1.09443359 9.14433594 1.09121094 10.01757812 1.08789062 C10.89865234 1.07951172 11.77972656 1.07113281 12.6875 1.0625 C13.58017578 1.05798828 14.47285156 1.05347656 15.39257812 1.04882812 C17.59511987 1.03704983 19.79752599 1.02060164 22 1 C22 2.32 22 3.64 22 5 C12.1 5 2.2 5 -8 5 C-8 3.68 -8 2.36 -8 1 C-7.05125 1.020625 -6.1025 1.04125 -5.125 1.0625 C-2.09333717 1.22551826 -2.09333717 1.22551826 0 0 Z " fill="#D3EAFD" transform="translate(291,171)"/>
<path d="M0 0 C0.85271484 0.10828125 0.85271484 0.10828125 1.72265625 0.21875 C10.44362367 1.40066193 10.44362367 1.40066193 19 0 C19 0.66 19 1.32 19 2 C21.64 2 24.28 2 27 2 C26.67 2.99 26.34 3.98 26 5 C26 4.34 26 3.68 26 3 C25.34 3 24.68 3 24 3 C23.67 3.66 23.34 4.32 23 5 C20.10421207 6.01416361 17.42271651 6.10836864 14.375 6.0625 C13.59898438 6.05347656 12.82296875 6.04445312 12.0234375 6.03515625 C11.35570313 6.02355469 10.68796875 6.01195312 10 6 C9.34 6 8.68 6 8 6 C5.33333333 6 2.66666667 6 0 6 C0 4.02 0 2.04 0 0 Z " fill="#F2BCFD" transform="translate(90,153)"/>
<path d="M0 0 C0.33 0.66 0.66 1.32 1 2 C4.3 2 7.6 2 11 2 C11 1.34 11 0.68 11 0 C11.61875 0.185625 12.2375 0.37125 12.875 0.5625 C15.04160178 1.23686176 15.04160178 1.23686176 17 0 C17 0.66 17 1.32 17 2 C18.98 2 20.96 2 23 2 C22.01 2.495 22.01 2.495 21 3 C21 3.66 21 4.32 21 5 C21.391875 4.505 21.78375 4.01 22.1875 3.5 C24.55091715 1.54406857 26.01435003 1.75792027 29 2 C28.67 3.32 28.34 4.64 28 6 C18.76 6 9.52 6 0 6 C0 4.02 0 2.04 0 0 Z " fill="#CDE7FD" transform="translate(263,144)"/>
<path d="M0 0 C0.33 0.66 0.66 1.32 1 2 C1.66 1.34 2.32 0.68 3 0 C6.625 0.375 6.625 0.375 10 1 C10 2.65 10 4.3 10 6 C3.07 6 -3.86 6 -11 6 C-10.67 4.35 -10.34 2.7 -10 1 C-2.25 0 -2.25 0 0 0 Z " fill="#BBB8FF" transform="translate(215,203)"/>
<path d="M0 0 C0.66 0 1.32 0 2 0 C2 0.66 2 1.32 2 2 C2.79664062 1.90460938 3.59328125 1.80921875 4.4140625 1.7109375 C14.93848858 0.60984183 14.93848858 0.60984183 20 3 C20 4.32 20 5.64 20 7 C13.4 7 6.8 7 0 7 C0 4.69 0 2.38 0 0 Z " fill="#F6D1FE" transform="translate(99,102)"/>
<path d="M0 0 C1.65 0 3.3 0 5 0 C5.33 0.66 5.66 1.32 6 2 C6.763125 1.79375 7.52625 1.5875 8.3125 1.375 C11 1 11 1 14 3 C14 3.99 14 4.98 14 6 C5.42 6 -3.16 6 -12 6 C-11.67 5.01 -11.34 4.02 -11 3 C-11 3.66 -11 4.32 -11 5 C-10.34 5 -9.68 5 -9 5 C-8.67 4.01 -8.34 3.02 -8 2 C-5.36 2 -2.72 2 0 2 C0 1.34 0 0.68 0 0 Z " fill="#BAB6FE" transform="translate(208,194)"/>
<path d="M0 0 C0.33 0.66 0.66 1.32 1 2 C1.61875 1.835 2.2375 1.67 2.875 1.5 C5 1 5 1 7 1 C7 2.65 7 4.3 7 6 C0 6 0 6 -3.0625 5.375 C-7.76126042 4.92749901 -11.49304875 5.76339886 -16 7 C-16 5.02 -16 3.04 -16 1 C-13.98177083 1.03255208 -11.96354167 1.06510417 -9.9453125 1.09765625 C-6.51830434 0.92561769 -3.66076545 -0.07958186 0 0 Z " fill="#C8E5FD" transform="translate(304,136)"/>
<path d="M0 0 C0.99 0.33 1.98 0.66 3 1 C3 1.99 3 2.98 3 4 C3.66 4 4.32 4 5 4 C5 3.34 5 2.68 5 2 C10.19548425 -0.20808081 13.58264203 0.06597276 19 1 C19 2.65 19 4.3 19 6 C15.5126236 7.12604443 12.5662873 6.95775125 8.9375 6.625 C7.89464844 6.53476563 6.85179688 6.44453125 5.77734375 6.3515625 C3 6 3 6 0 5 C0 3.35 0 1.7 0 0 Z " fill="#F1B4FD" transform="translate(61,136)"/>
<path d="M0 0 C0.66 0.66 1.32 1.32 2 2 C9.67107943 2.60105403 17.39236303 2.04932924 25 1 C25 2.65 25 4.3 25 6 C24.01 6 23.02 6 22 6 C22 5.01 22 4.02 22 3 C21.34 3 20.68 3 20 3 C19.67 3.66 19.34 4.32 19 5 C17 5.5625 17 5.5625 14 6 C12.93265625 6.15662109 12.93265625 6.15662109 11.84375 6.31640625 C7.65787115 6.86754697 4.12517419 7.19763122 0 6 C0 4.02 0 2.04 0 0 Z " fill="#C6C3FE" transform="translate(190,220)"/>
<path d="M0 0 C0.84433594 0.00322266 1.68867187 0.00644531 2.55859375 0.00976562 C3.86763672 0.02233398 3.86763672 0.02233398 5.203125 0.03515625 C6.09128906 0.03966797 6.97945312 0.04417969 7.89453125 0.04882812 C10.08079829 0.06058225 12.26692679 0.07701376 14.453125 0.09765625 C14.453125 1.41765625 14.453125 2.73765625 14.453125 4.09765625 C13.463125 4.09765625 12.473125 4.09765625 11.453125 4.09765625 C11.453125 3.43765625 11.453125 2.77765625 11.453125 2.09765625 C10.793125 2.09765625 10.133125 2.09765625 9.453125 2.09765625 C9.123125 2.75765625 8.793125 3.41765625 8.453125 4.09765625 C8.453125 3.43765625 8.453125 2.77765625 8.453125 2.09765625 C7.793125 2.09765625 7.133125 2.09765625 6.453125 2.09765625 C6.453125 2.75765625 6.453125 3.41765625 6.453125 4.09765625 C4.473125 4.75765625 2.493125 5.41765625 0.453125 6.09765625 C-0.206875 5.43765625 -0.866875 4.77765625 -1.546875 4.09765625 C-4.64614319 4.41964591 -4.64614319 4.41964591 -7.546875 5.09765625 C-7.876875 3.77765625 -8.206875 2.45765625 -8.546875 1.09765625 C-5.6220117 0.25573843 -3.03945844 -0.02053688 0 0 Z " fill="#F3C3FD" transform="translate(92.546875,136.90234375)"/>
<path d="M0 0 C0.33 0.66 0.66 1.32 1 2 C1.99 2 2.98 2 4 2 C4 1.34 4 0.68 4 0 C6.64 0 9.28 0 12 0 C12 0.66 12 1.32 12 2 C13.65 2 15.3 2 17 2 C16.625 4.4375 16.625 4.4375 16 7 C15.01 7.495 15.01 7.495 14 8 C14 6.35 14 4.7 14 3 C13.34 3 12.68 3 12 3 C12.33 3.99 12.66 4.98 13 6 C8.71 6 4.42 6 0 6 C0 4.02 0 2.04 0 0 Z " fill="#D5D3FE" transform="translate(211,161)"/>
<path d="M0 0 C0 1.65 0 3.3 0 5 C-6.66666667 5 -13.33333333 5 -20 5 C-20 3.68 -20 2.36 -20 1 C-13.29980211 0.29867087 -6.73742646 -0.11044961 0 0 Z " fill="#F1B5FD" transform="translate(88,154)"/>
<path d="M0 0 C2.33006911 0.35543427 4.66327016 0.6913753 7 1 C7.33 0.34 7.66 -0.32 8 -1 C8.99 -0.67 9.98 -0.34 11 0 C10.67 1.32 10.34 2.64 10 4 C4.10106757 5.79074734 0.06820868 6.08360869 -6 5 C-6 3.35 -6 1.7 -6 0 C-3 -1 -3 -1 0 0 Z " fill="#C8E5FD" transform="translate(292,154)"/>
<path d="M0 0 C4.55105375 0.54179211 8.06386006 1.62000841 12 4 C12.33 4.99 12.66 5.98 13 7 C15.01508358 7.73323796 15.01508358 7.73323796 17 8 C17 9.98 17 11.96 17 14 C15 13 15 13 13.375 11.1875 C9.52583858 7.64221975 4.93526562 5.64508854 0 4 C0 2.68 0 1.36 0 0 Z " fill="#DDE2F3" transform="translate(135,194)"/>
<path d="M0 0 C2 1.3125 2 1.3125 4 3 C4 3.99 4 4.98 4 6 C-3.26 6 -10.52 6 -18 6 C-17.67 4.68 -17.34 3.36 -17 2 C-11.72 2 -6.44 2 -1 2 C-0.67 1.34 -0.34 0.68 0 0 Z " fill="#C7C4FE" transform="translate(223,211)"/>
<path d="M0 0 C1.98 0.99 1.98 0.99 4 2 C3.67 2.99 3.34 3.98 3 5 C3.66 5 4.32 5 5 5 C5 3.35 5 1.7 5 0 C5.66 0.66 6.32 1.32 7 2 C9.68839385 2.26991906 12.29141936 2.08737357 15 2 C15.33 1.34 15.66 0.68 16 0 C16 2.31 16 4.62 16 7 C10.72 6.67 5.44 6.34 0 6 C0 4.02 0 2.04 0 0 Z " fill="#D1CFFE" transform="translate(174,161)"/>
<path d="M0 0 C-0.33 0.99 -0.66 1.98 -1 3 C-1.33 2.67 -1.66 2.34 -2 2 C-2.99 2.33 -3.98 2.66 -5 3 C-5.66 3 -6.32 3 -7 3 C-7 2.01 -7 1.02 -7 0 C-7.33 0.99 -7.66 1.98 -8 3 C-8.99 2.67 -9.98 2.34 -11 2 C-11.66 2.66 -12.32 3.32 -13 4 C-13.33 3.34 -13.66 2.68 -14 2 C-14.33 2.33 -14.66 2.66 -15 3 C-16.99958364 3.04080783 -19.00045254 3.04254356 -21 3 C-20.67 1.68 -20.34 0.36 -20 -1 C-18.1746875 -0.9690625 -18.1746875 -0.9690625 -16.3125 -0.9375 C-13.81944569 -0.92437866 -11.87477418 -1.03054288 -9.4375 -1.625 C-5.96584119 -2.15910135 -3.28659182 -1.09553061 0 0 Z " fill="#F4C4FD" transform="translate(96,164)"/>
<path d="M0 0 C0.69867188 0.08378906 1.39734375 0.16757813 2.1171875 0.25390625 C3.02726563 0.35574219 3.93734375 0.45757812 4.875 0.5625 C5.77992188 0.66691406 6.68484375 0.77132812 7.6171875 0.87890625 C10.01653057 1.19674852 10.01653057 1.19674852 12 0 C12.33 1.32 12.66 2.64 13 4 C14.32 3.67 15.64 3.34 17 3 C17 3.99 17 4.98 17 6 C13.04 6 9.08 6 5 6 C5 5.01 5 4.02 5 3 C4.34 3 3.68 3 3 3 C3 3.99 3 4.98 3 6 C2.01 6 1.02 6 0 6 C0 4.02 0 2.04 0 0 Z " fill="#DBD9FE" transform="translate(193,161)"/>
<path d="M0 0 C5.61 0 11.22 0 17 0 C16.67 1.32 16.34 2.64 16 4 C10.39 4 4.78 4 -1 4 C-0.67 2.68 -0.34 1.36 0 0 Z " fill="#F4C2FD" transform="translate(68,172)"/>
<path d="M0 0 C0.33 0.66 0.66 1.32 1 2 C2.9490625 1.7215625 2.9490625 1.7215625 4.9375 1.4375 C7.15234375 1.12109375 7.15234375 1.12109375 9 1 C9.33 1.33 9.66 1.66 10 2 C11.99958364 2.04080783 14.00045254 2.04254356 16 2 C15.67 3.32 15.34 4.64 15 6 C10.05 6 5.1 6 0 6 C0 4.02 0 2.04 0 0 Z " fill="#C5C2FE" transform="translate(180,211)"/>
<path d="M0 0 C1.65322266 0.01740234 1.65322266 0.01740234 3.33984375 0.03515625 C4.99693359 0.04869141 4.99693359 0.04869141 6.6875 0.0625 C7.54214844 0.07410156 8.39679688 0.08570313 9.27734375 0.09765625 C9.60734375 1.74765625 9.93734375 3.39765625 10.27734375 5.09765625 C6.97734375 5.09765625 3.67734375 5.09765625 0.27734375 5.09765625 C0.27734375 4.10765625 0.27734375 3.11765625 0.27734375 2.09765625 C-0.38265625 2.09765625 -1.04265625 2.09765625 -1.72265625 2.09765625 C-1.39265625 3.08765625 -1.06265625 4.07765625 -0.72265625 5.09765625 C-2.04265625 4.76765625 -3.36265625 4.43765625 -4.72265625 4.09765625 C-3.39739004 0.12185761 -3.39739004 0.12185761 0 0 Z " fill="#C7E5FD" transform="translate(307.72265625,153.90234375)"/>
<path d="M0 0 C2.31 0 4.62 0 7 0 C7.33 0.66 7.66 1.32 8 2 C10.8159849 2.46898963 10.8159849 2.46898963 14.0625 2.625 C15.71958984 2.73714844 15.71958984 2.73714844 17.41015625 2.8515625 C18.26480469 2.90054687 19.11945313 2.94953125 20 3 C20 3.33 20 3.66 20 4 C12.63959083 4.79725902 5.40239645 5.12886183 -2 5 C-1.34 3.35 -0.68 1.7 0 0 Z " fill="#F1F2FC" transform="translate(187,268)"/>
<path d="M0 0 C0.33 0 0.66 0 1 0 C1 1.98 1 3.96 1 6 C-0.134375 5.814375 -1.26875 5.62875 -2.4375 5.4375 C-3.613125 5.293125 -4.78875 5.14875 -6 5 C-6.33 5.33 -6.66 5.66 -7 6 C-8.51928038 6.07179964 -10.04167482 6.08392007 -11.5625 6.0625 C-12.38878906 6.05347656 -13.21507812 6.04445312 -14.06640625 6.03515625 C-14.70449219 6.02355469 -15.34257812 6.01195312 -16 6 C-16 4.68 -16 3.36 -16 2 C-12.04 2 -8.08 2 -4 2 C-4 2.66 -4 3.32 -4 4 C-3.34 4 -2.68 4 -2 4 C-2 3.34 -2 2.68 -2 2 C-1.34 2 -0.68 2 0 2 C0 1.34 0 0.68 0 0 Z " fill="#C2BFFE" transform="translate(201,203)"/>
<path d="M0 0 C0.99 1.32 1.98 2.64 3 4 C2.67 4.66 2.34 5.32 2 6 C1.92934383 8.04055005 1.91578024 10.08334257 1.9375 12.125 C1.95103516 13.76855469 1.95103516 13.76855469 1.96484375 15.4453125 C1.97644531 16.28835937 1.98804688 17.13140625 2 18 C1.34 18 0.68 18 0 18 C0 21.3 0 24.6 0 28 C-0.33 28 -0.66 28 -1 28 C-1.02886338 23.52084672 -1.04675187 19.04171709 -1.0625 14.5625 C-1.07087891 13.28310547 -1.07925781 12.00371094 -1.08789062 10.68554688 C-1.09111328 9.47060547 -1.09433594 8.25566406 -1.09765625 7.00390625 C-1.10289307 5.87799072 -1.10812988 4.7520752 -1.11352539 3.59204102 C-1 1 -1 1 0 0 Z " fill="#98C9F3" transform="translate(339,190)"/>
<path d="M0 0 C3.02419525 0.58803797 6.01758453 1.22678118 9 2 C9 1.34 9 0.68 9 0 C9.66 0 10.32 0 11 0 C11 1.98 11 3.96 11 6 C5.375 6.25 5.375 6.25 2 4 C2 4.66 2 5.32 2 6 C1.34 6 0.68 6 0 6 C0 4.02 0 2.04 0 0 Z " fill="#D3D0FE" transform="translate(162,161)"/>
<path d="M0 0 C0.33 0 0.66 0 1 0 C1.3641989 2.5614319 1.71662798 5.12358419 2.0625 7.6875 C2.16626953 8.40873047 2.27003906 9.12996094 2.37695312 9.87304688 C2.9085791 13.88773956 2.98027549 17.02443829 2 21 C1.93628632 22.60303627 1.91355786 24.20837672 1.9375 25.8125 C1.94652344 26.60269531 1.95554688 27.39289063 1.96484375 28.20703125 C1.97644531 28.79871094 1.98804688 29.39039063 2 30 C1.34 30 0.68 30 0 30 C0 20.1 0 10.2 0 0 Z " fill="#B3A9D1" transform="translate(236,249)"/>
<path d="M0 0 C0.66 0.66 1.32 1.32 2 2 C4.44012949 2.24287489 4.44012949 2.24287489 7.125 2.125 C8.03507813 2.10695312 8.94515625 2.08890625 9.8828125 2.0703125 C10.58148438 2.04710937 11.28015625 2.02390625 12 2 C12 3.32 12 4.64 12 6 C10.00045254 6.04254356 7.99958364 6.04080783 6 6 C5.67 5.67 5.34 5.34 5 5 C4.401875 5.165 3.80375 5.33 3.1875 5.5 C0.74011646 6.05940195 -0.63996734 5.75858193 -3 5 C-2.67 4.01 -2.34 3.02 -2 2 C-1.34 2 -0.68 2 0 2 C0 1.34 0 0.68 0 0 Z " fill="#CAC7FE" transform="translate(177,220)"/>
<path d="M0 0 C0.042721 1.66611905 0.04063832 3.33382885 0 5 C-1 6 -1 6 -3.06640625 6.09765625 C-3.89011719 6.08605469 -4.71382812 6.07445312 -5.5625 6.0625 C-6.38878906 6.05347656 -7.21507812 6.04445312 -8.06640625 6.03515625 C-8.70449219 6.02355469 -9.34257812 6.01195312 -10 6 C-9.67 4.35 -9.34 2.7 -9 1 C-1.125 0 -1.125 0 0 0 Z " fill="#B1ADFE" transform="translate(214,203)"/>
<path d="M0 0 C0 0.66 0 1.32 0 2 C2.97 2 5.94 2 9 2 C8.01 3.32 7.02 4.64 6 6 C5.67 5.67 5.34 5.34 5 5 C4.13375 5.2165625 4.13375 5.2165625 3.25 5.4375 C0.76197755 6.05950561 -1.4454459 6.07095984 -4 6 C-4 4.35 -4 2.7 -4 1 C-2 0 -2 0 0 0 Z " fill="#F2BBFD" transform="translate(117,144)"/>
<path d="M0 0 C0 1.65 0 3.3 0 5 C-4.29 5 -8.58 5 -13 5 C-12.67 4.01 -12.34 3.02 -12 2 C-12 2.66 -12 3.32 -12 4 C-11.34 4 -10.68 4 -10 4 C-9.67 3.01 -9.34 2.02 -9 1 C-1.125 0 -1.125 0 0 0 Z " fill="#C5C2FE" transform="translate(209,195)"/>
<path d="M0 0 C0 1.65 0 3.3 0 5 C-3.63 5 -7.26 5 -11 5 C-11 3.68 -11 2.36 -11 1 C-9.35422741 0.83273455 -7.70838013 0.66620388 -6.0625 0.5 C-4.68771484 0.36078125 -4.68771484 0.36078125 -3.28515625 0.21875 C-1 0 -1 0 0 0 Z " fill="#F3C0FD" transform="translate(117,162)"/>
<path d="M0 0 C2.05078125 0.03255208 4.1015625 0.06510417 6.15234375 0.09765625 C6.15234375 1.74765625 6.15234375 3.39765625 6.15234375 5.09765625 C2.85234375 5.09765625 -0.44765625 5.09765625 -3.84765625 5.09765625 C-2.6076991 0.13782765 -2.6076991 0.13782765 0 0 Z " fill="#CCE7FD" transform="translate(269.84765625,161.90234375)"/>
<path d="M0 0 C0 1.65 0 3.3 0 5 C-2.33294775 5.04241723 -4.66702567 5.04092937 -7 5 C-7.33 4.67 -7.66 4.34 -8 4 C-10.05396726 4.40929986 -10.05396726 4.40929986 -12 5 C-12 4.01 -12 3.02 -12 2 C-10.7625 1.67 -9.525 1.34 -8.25 1 C-7.55390625 0.814375 -6.8578125 0.62875 -6.140625 0.4375 C-4 0 -4 0 0 0 Z " fill="#D1E9FD" transform="translate(325,162)"/>
<path d="M0 0 C1.2065625 0.0309375 1.2065625 0.0309375 2.4375 0.0625 C2.7675 2.3725 3.0975 4.6825 3.4375 7.0625 C1.43795254 7.10504356 -0.56291636 7.10330783 -2.5625 7.0625 C-3.5625 6.0625 -3.5625 6.0625 -3.6875 3.5625 C-3.51717518 0.15600356 -3.41884482 0.08338646 0 0 Z " fill="#F2BEFD" transform="translate(82.5625,111.9375)"/>
<path d="M0 0 C0 1.65 0 3.3 0 5 C-0.99 5 -1.98 5 -3 5 C-3 4.01 -3 3.02 -3 2 C-3.66 2 -4.32 2 -5 2 C-5.33 2.66 -5.66 3.32 -6 4 C-8.38629447 4.61187038 -10.53540571 5 -13 5 C-13 4.01 -13 3.02 -13 2 C-13.66 1.67 -14.32 1.34 -15 1 C-12.8750734 0.83240016 -10.75005624 0.66594799 -8.625 0.5 C-7.44164062 0.4071875 -6.25828125 0.314375 -5.0390625 0.21875 C-3.36213157 0.09804546 -1.68126944 0 0 0 Z " fill="#D2CFFE" transform="translate(215,221)"/>
<path d="M0 0 C-0.33 1.32 -0.66 2.64 -1 4 C-1.99 4 -2.98 4 -4 4 C-4 3.01 -4 2.02 -4 1 C-4.66 1 -5.32 1 -6 1 C-5.67 1.99 -5.34 2.98 -5 4 C-7.31 4 -9.62 4 -12 4 C-12 2.68 -12 1.36 -12 0 C-7.6835078 -0.76173392 -4.25566547 -1.16063604 0 0 Z " fill="#F4C6FD" transform="translate(84,146)"/>
<path d="M0 0 C0.78375 0.185625 1.5675 0.37125 2.375 0.5625 C4.97089775 1.25962266 4.97089775 1.25962266 7 0 C7 0.66 7 1.32 7 2 C7.99 2.33 8.98 2.66 10 3 C9.67 3.66 9.34 4.32 9 5 C7.68 5 6.36 5 5 5 C4.278125 5.185625 3.55625 5.37125 2.8125 5.5625 C2.214375 5.706875 1.61625 5.85125 1 6 C0 5 0 5 -0.0625 2.4375 C-0.041875 1.633125 -0.02125 0.82875 0 0 Z " fill="#BADFFC" transform="translate(277,136)"/>
<path d="M0 0 C0 2.31 0 4.62 0 7 C0.99 7.33 1.98 7.66 3 8 C-0.04386724 8.08226668 -2.07175348 7.97608217 -5 7 C-5.33 4.69 -5.66 2.38 -6 0 C-2.25 -1.125 -2.25 -1.125 0 0 Z " fill="#A49FFE" transform="translate(180,210)"/>
<path d="M0 0 C3.3 0 6.6 0 10 0 C10 1.32 10 2.64 10 4 C6.7 4 3.4 4 0 4 C0 2.68 0 1.36 0 0 Z " fill="#C9E6FD" transform="translate(284,163)"/>
<path d="M0 0 C0 1.98 0 3.96 0 6 C0.804375 5.7215625 0.804375 5.7215625 1.625 5.4375 C4.61990614 4.88580676 7.03745829 5.39402556 10 6 C10 6.33 10 6.66 10 7 C4.39 7 -1.22 7 -7 7 C-7 6.67 -7 6.34 -7 6 C-5.02 6 -3.04 6 -1 6 C-1.33 5.34 -1.66 4.68 -2 4 C-3.32 4.33 -4.64 4.66 -6 5 C-6 3.68 -6 2.36 -6 1 C-1.125 0 -1.125 0 0 0 Z " fill="#B1ADFE" transform="translate(211,161)"/>
<path d="M0 0 C0.66 0 1.32 0 2 0 C2.66 0 3.32 0 4 0 C4 1.32 4 2.64 4 4 C0.04 4 -3.92 4 -8 4 C-8 3.01 -8 2.02 -8 1 C-5.28148823 -0.35925589 -3.00882974 -0.06268395 0 0 Z " fill="#F5C9FD" transform="translate(108,146)"/>
<path d="M0 0 C2.97 0 5.94 0 9 0 C9 1.32 9 2.64 9 4 C6.03 4 3.06 4 0 4 C0 2.68 0 1.36 0 0 Z " fill="#C9E6FD" transform="translate(309,146)"/>
<path d="M0 0 C0 1.65 0 3.3 0 5 C-3.63 5 -7.26 5 -11 5 C-11 3.68 -11 2.36 -11 1 C-8.98177083 1.03255208 -6.96354167 1.06510417 -4.9453125 1.09765625 C-3.0426929 1.00214322 -1.80150594 0 0 0 Z " fill="#F5C9FD" transform="translate(70,145)"/>
<path d="M0 0 C4.29 0 8.58 0 13 0 C13 1.32 13 2.64 13 4 C11.52093108 4.02689216 10.04172517 4.04634621 8.5625 4.0625 C7.32693359 4.07990234 7.32693359 4.07990234 6.06640625 4.09765625 C4 4 4 4 3 3 C2.01 3.33 1.02 3.66 0 4 C0 2.68 0 1.36 0 0 Z " fill="#F6CEFE" transform="translate(85,146)"/>
<path d="M0 0 C0.66 0.33 1.32 0.66 2 1 C0.97424768 3.77419379 0.32502454 4.82211495 -2.3125 6.265625 C-3.199375 6.59046875 -4.08625 6.9153125 -5 7.25 C-5.886875 7.58515625 -6.77375 7.9203125 -7.6875 8.265625 C-10 9 -10 9 -12 9 C-12 8.34 -12 7.68 -12 7 C-9.4453125 5.23828125 -9.4453125 5.23828125 -6.125 3.3125 C-5.03445312 2.66925781 -3.94390625 2.02601563 -2.8203125 1.36328125 C-1.88960937 0.91339844 -0.95890625 0.46351563 0 0 Z " fill="#CCC0EB" transform="translate(115,276)"/>
<path d="M0 0 C0.66 1.32 1.32 2.64 2 4 C5.465 3.505 5.465 3.505 9 3 C9 3.66 9 4.32 9 5 C7.68 5 6.36 5 5 5 C4.67 5.99 4.34 6.98 4 8 C3.278125 7.525625 2.55625 7.05125 1.8125 6.5625 C-0.89475226 5.05847097 -2.96194275 4.43400818 -6 4 C-6 3.67 -6 3.34 -6 3 C-4.35 3 -2.7 3 -1 3 C-0.67 2.01 -0.34 1.02 0 0 Z " fill="#88B7DB" transform="translate(294,213)"/>
<path d="M0 0 C0 1.65 0 3.3 0 5 C-3.66305234 5.74926071 -6.42355152 6.2380014 -10 5 C-9.67 3.68 -9.34 2.36 -9 1 C-2.25 0 -2.25 0 0 0 Z " fill="#C7C5FE" transform="translate(183,204)"/>
<path d="M0 0 C0.33 0 0.66 0 1 0 C1 2.31 1 4.62 1 7 C2.65 6.34 4.3 5.68 6 5 C6 4.34 6 3.68 6 3 C8.5 1.375 8.5 1.375 11 0 C9.42586583 4.09274885 6.45897623 7.35956013 3 10 C2.01 10 1.02 10 0 10 C0 6.7 0 3.4 0 0 Z " fill="#CEC2E9" transform="translate(237,314)"/>
<path d="M0 0 C4.455 0.99 4.455 0.99 9 2 C8.34 3.98 7.68 5.96 7 8 C6.34 7.01 5.68 6.02 5 5 C4.34 5.66 3.68 6.32 3 7 C2.01 7 1.02 7 0 7 C0 4.69 0 2.38 0 0 Z " fill="#E6F2FE" transform="translate(320,102)"/>
<path d="M0 0 C0 1.65 0 3.3 0 5 C-1.32 5.33 -2.64 5.66 -4 6 C-4.33 4.68 -4.66 3.36 -5 2 C-5.66 2 -6.32 2 -7 2 C-7 2.66 -7 3.32 -7 4 C-8.32 3.67 -9.64 3.34 -11 3 C-10.34 3 -9.68 3 -9 3 C-9 2.34 -9 1.68 -9 1 C-5.94152152 0.45627049 -3.11227195 0 0 0 Z " fill="#F4C4FD" transform="translate(80,137)"/>
<path d="M0 0 C3.3 0 6.6 0 10 0 C10 0.66 10 1.32 10 2 C6.38026598 3.31626692 3.90432869 4 0 4 C0 2.68 0 1.36 0 0 Z " fill="#F4C4FD" transform="translate(68,155)"/>
<path d="M0 0 C2.475 0.99 2.475 0.99 5 2 C5.33 1.34 5.66 0.68 6 0 C6 0.66 6 1.32 6 2 C6.99 2 7.98 2 9 2 C9 3.65 9 5.3 9 7 C8.67 5.68 8.34 4.36 8 3 C7.34 3 6.68 3 6 3 C5.67 3.99 5.34 4.98 5 6 C4.67 5.67 4.34 5.34 4 5 C4 5.66 4 6.32 4 7 C2.68 6.67 1.36 6.34 0 6 C0 4.02 0 2.04 0 0 Z " fill="#EEF7FE" transform="translate(282,102)"/>
<path d="M0 0 C2.64 0 5.28 0 8 0 C8 1.32 8 2.64 8 4 C5.69 4 3.38 4 1 4 C0.67 2.68 0.34 1.36 0 0 Z " fill="#F3BDFD" transform="translate(96,163)"/>
<path d="M0 0 C1.1446875 0.2475 1.1446875 0.2475 2.3125 0.5 C5.03596236 1.09145396 5.03596236 1.09145396 8 1 C8 2.32 8 3.64 8 5 C5.36 5 2.72 5 0 5 C0 3.35 0 1.7 0 0 Z " fill="#F3C0FD" transform="translate(108,137)"/>
<path d="M0 0 C1.2065625 0.0309375 1.2065625 0.0309375 2.4375 0.0625 C2.7675 1.7125 3.0975 3.3625 3.4375 5.0625 C1.4575 5.0625 -0.5225 5.0625 -2.5625 5.0625 C-3.125 3.125 -3.125 3.125 -3.5625 1.0625 C-2.5625 0.0625 -2.5625 0.0625 0 0 Z " fill="#F1B9FD" transform="translate(120.5625,136.9375)"/>
<path d="M0 0 C0 1.65 0 3.3 0 5 C-2.31 5 -4.62 5 -7 5 C-7 3.68 -7 2.36 -7 1 C-2.25 0 -2.25 0 0 0 Z " fill="#CFE8FD" transform="translate(333,145)"/>
<path d="M0 0 C3 2 3 2 3.6875 4.125 C3.8421875 5.053125 3.8421875 5.053125 4 6 C0.535 7.485 0.535 7.485 -3 9 C-3.66 8.34 -4.32 7.68 -5 7 C-3.68 7 -2.36 7 -1 7 C-0.67 4.69 -0.34 2.38 0 0 Z " fill="#9590FF" transform="translate(203,223)"/>
<path d="M0 0 C1.67542976 0.28604898 3.34385343 0.61781233 5 1 C5 2.32 5 3.64 5 5 C2.03 4.505 2.03 4.505 -1 4 C-1 1 -1 1 0 0 Z " fill="#F7D3FE" transform="translate(101,114)"/>
<path d="M0 0 C0.33 0 0.66 0 1 0 C1 2.31 1 4.62 1 7 C-0.99954746 7.04254356 -3.00041636 7.04080783 -5 7 C-6 6 -6 6 -6.0625 3.4375 C-6.041875 2.633125 -6.02125 1.82875 -6 1 C-5.34 1 -4.68 1 -4 1 C-4 2.32 -4 3.64 -4 5 C-2.68 5 -1.36 5 0 5 C0 3.35 0 1.7 0 0 Z " fill="#F8DBFE" transform="translate(97,102)"/>
<path d="M0 0 C0.99 1.32 1.98 2.64 3 4 C2.67 4.66 2.34 5.32 2 6 C1.92934383 8.04055005 1.91578024 10.08334257 1.9375 12.125 C1.94652344 13.22070312 1.95554687 14.31640625 1.96484375 15.4453125 C1.97644531 16.28835937 1.98804688 17.13140625 2 18 C1.34 18 0.68 18 0 18 C0 12.06 0 6.12 0 0 Z " fill="#C6BBE4" transform="translate(339,190)"/>
<path d="M0 0 C0.66 0.33 1.32 0.66 2 1 C-0.98232523 4.32643967 -3.86370087 6.29152862 -8 8 C-8.66 7.67 -9.32 7.34 -10 7 C-6.7 4.69 -3.4 2.38 0 0 Z " fill="#D7CAF5" transform="translate(344,267)"/>
<path d="M0 0 C-2 3 -2 3 -3 4 C-4.99958364 4.04080783 -7.00045254 4.04254356 -9 4 C-8.67 3.01 -8.34 2.02 -8 1 C-5.29120665 -0.35439668 -2.99066732 -0.06501451 0 0 Z " fill="#BEE1FC" transform="translate(300,172)"/>
<path d="M0 0 C0.33 0.66 0.66 1.32 1 2 C2.65 2 4.3 2 6 2 C5.625 4.4375 5.625 4.4375 5 7 C4.01 7.495 4.01 7.495 3 8 C3 6.35 3 4.7 3 3 C2.34 3 1.68 3 1 3 C1.33 3.99 1.66 4.98 2 6 C1.34 6 0.68 6 0 6 C0 5.01 0 4.02 0 3 C-0.66 2.67 -1.32 2.34 -2 2 C-1.34 2 -0.68 2 0 2 C0 1.34 0 0.68 0 0 Z " fill="#E8E7FE" transform="translate(222,161)"/>
<path d="M0 0 C0.33 0.66 0.66 1.32 1 2 C2.98 2 4.96 2 7 2 C7 3.32 7 4.64 7 6 C4.69 6 2.38 6 0 6 C0 4.02 0 2.04 0 0 Z " fill="#D4EBFD" transform="translate(263,144)"/>
<path d="M0 0 C0 0.66 0 1.32 0 2 C0.66 2 1.32 2 2 2 C2.33 1.34 2.66 0.68 3 0 C3.33 0.99 3.66 1.98 4 3 C0.7 3 -2.6 3 -6 3 C-6 2.01 -6 1.02 -6 0 C-2.25 -1.125 -2.25 -1.125 0 0 Z " fill="#D1CEFE" transform="translate(184,231)"/>
<path d="M0 0 C1.32 0 2.64 0 4 0 C4 1.65 4 3.3 4 5 C2.35 5 0.7 5 -1 5 C-0.67 3.35 -0.34 1.7 0 0 Z " fill="#BDBAFE" transform="translate(205,204)"/>
<path d="M0 0 C1.65 0 3.3 0 5 0 C4.67 0.99 4.34 1.98 4 3 C4.66 3 5.32 3 6 3 C6.33 2.34 6.66 1.68 7 1 C7 1.66 7 2.32 7 3 C7.66 3.33 8.32 3.66 9 4 C5.7 4 2.4 4 -1 4 C-0.67 2.68 -0.34 1.36 0 0 Z " fill="#D7ECFD" transform="translate(299,146)"/>
<path d="M0 0 C0.99 0.33 1.98 0.66 3 1 C3 2.32 3 3.64 3 5 C1.68 5.33 0.36 5.66 -1 6 C-1.33 4.68 -1.66 3.36 -2 2 C-1.34 2 -0.68 2 0 2 C0 1.34 0 0.68 0 0 Z " fill="#C4C1FE" transform="translate(163,203)"/>
<path d="M0 0 C1.98 0 3.96 0 6 0 C6 1.32 6 2.64 6 4 C4.02 4 2.04 4 0 4 C0 2.68 0 1.36 0 0 Z " fill="#CDE7FD" transform="translate(295,163)"/>
<path d="M0 0 C0.66 0 1.32 0 2 0 C2 0.66 2 1.32 2 2 C3.32 2 4.64 2 6 2 C5.67 2.99 5.34 3.98 5 5 C3.35 5.33 1.7 5.66 0 6 C0 4.02 0 2.04 0 0 Z " fill="#CBE6FD" transform="translate(278,153)"/>
<path d="M0 0 C0.66 0 1.32 0 2 0 C2 0.99 2 1.98 2 3 C2.66 3 3.32 3 4 3 C4.33 2.34 4.66 1.68 5 1 C5 2.98 5 4.96 5 7 C4.67 6.01 4.34 5.02 4 4 C3.34 4 2.68 4 2 4 C2 4.99 2 5.98 2 7 C1.34 7 0.68 7 0 7 C0 4.69 0 2.38 0 0 Z " fill="#E6F3FE" transform="translate(267,102)"/>
<path d="M0 0 C1.98 0.99 1.98 0.99 4 2 C3.67 2.99 3.34 3.98 3 5 C3.66 5 4.32 5 5 5 C5 3.35 5 1.7 5 0 C5.33 0 5.66 0 6 0 C6 1.98 6 3.96 6 6 C4.02 6 2.04 6 0 6 C0 4.02 0 2.04 0 0 Z " fill="#EDECFF" transform="translate(174,161)"/>
<path d="M0 0 C1.98 0 3.96 0 6 0 C6 1.32 6 2.64 6 4 C4.02 4 2.04 4 0 4 C0 2.68 0 1.36 0 0 Z " fill="#F4C4FD" transform="translate(68,163)"/>
<path d="M0 0 C-1.485 1.98 -1.485 1.98 -3 4 C-3.33 3.67 -3.66 3.34 -4 3 C-6.05396726 3.40929986 -6.05396726 3.40929986 -8 4 C-8 3.01 -8 2.02 -8 1 C-5.29120665 -0.35439668 -2.99066732 -0.06501451 0 0 Z " fill="#F5C9FD" transform="translate(126,146)"/>
<path d="M0 0 C2.475 0.495 2.475 0.495 5 1 C4.67 2.32 4.34 3.64 4 5 C2.68 5.33 1.36 5.66 0 6 C0 4.02 0 2.04 0 0 Z " fill="#CAE6FD" transform="translate(313,136)"/>
<path d="M0 0 C1.65 0 3.3 0 5 0 C5 1.65 5 3.3 5 5 C3.68 5 2.36 5 1 5 C0.67 3.35 0.34 1.7 0 0 Z " fill="#EEA4FD" transform="translate(92,102)"/>
<path d="M0 0 C0 1.65 0 3.3 0 5 C-0.99 5 -1.98 5 -3 5 C-3 4.01 -3 3.02 -3 2 C-3.66 2 -4.32 2 -5 2 C-5.33 2.66 -5.66 3.32 -6 4 C-6.33 3.01 -6.66 2.02 -7 1 C-2.25 0 -2.25 0 0 0 Z " fill="#C8C5FE" transform="translate(215,221)"/>
<path d="M0 0 C0.33 0 0.66 0 1 0 C1 1.98 1 3.96 1 6 C-1.97 5.505 -1.97 5.505 -5 5 C-4.67 4.01 -4.34 3.02 -4 2 C-4 2.66 -4 3.32 -4 4 C-3.34 4 -2.68 4 -2 4 C-2 3.34 -2 2.68 -2 2 C-1.34 2 -0.68 2 0 2 C0 1.34 0 0.68 0 0 Z " fill="#CBC8FE" transform="translate(201,203)"/>
<path d="M0 0 C2.475 0.495 2.475 0.495 5 1 C5 2.32 5 3.64 5 5 C3.35 4.67 1.7 4.34 0 4 C0 2.68 0 1.36 0 0 Z " fill="#C2BFFE" transform="translate(217,195)"/>
<path d="M0 0 C1.65 0 3.3 0 5 0 C4.67 1.98 4.34 3.96 4 6 C3.01 6 2.02 6 1 6 C0.67 4.02 0.34 2.04 0 0 Z " fill="#EFAEFD" transform="translate(98,170)"/>
<path d="M0 0 C0.66 0 1.32 0 2 0 C2.66 2.31 3.32 4.62 4 7 C2.68 7 1.36 7 0 7 C0 4.69 0 2.38 0 0 Z " fill="#D6EBFD" transform="translate(293,102)"/>
<path d="M0 0 C0 1.65 0 3.3 0 5 C-1.65 5 -3.3 5 -5 5 C-5 4.01 -5 3.02 -5 2 C-1.125 0 -1.125 0 0 0 Z " fill="#C9C6FE" transform="translate(174,212)"/>
<path d="M0 0 C1.98 0 3.96 0 6 0 C5.34 1.32 4.68 2.64 4 4 C2.68 4 1.36 4 0 4 C0 2.68 0 1.36 0 0 Z " fill="#C5C3FE" transform="translate(163,213)"/>
<path d="M0 0 C1.98 0 3.96 0 6 0 C6 1.32 6 2.64 6 4 C4.35 3.67 2.7 3.34 1 3 C0.67 2.01 0.34 1.02 0 0 Z " fill="#C8E5FD" transform="translate(307,172)"/>
<path d="M0 0 C0.66 0 1.32 0 2 0 C2 0.66 2 1.32 2 2 C2.99 2 3.98 2 5 2 C5 3.32 5 4.64 5 6 C3.68 6 2.36 6 1 6 C0.67 4.02 0.34 2.04 0 0 Z " fill="#F0B0FD" transform="translate(116,170)"/>
<path d="M0 0 C0.33 0.66 0.66 1.32 1 2 C2.32 2 3.64 2 5 2 C4.67 3.32 4.34 4.64 4 6 C2.68 6 1.36 6 0 6 C0 4.02 0 2.04 0 0 Z " fill="#CFE8FD" transform="translate(303,161)"/>
<path d="M0 0 C2.97 0 5.94 0 9 0 C9 1.32 9 2.64 9 4 C8.01 4 7.02 4 6 4 C5.67 3.34 5.34 2.68 5 2 C2.47266765 1.34444881 2.47266765 1.34444881 0 1 C0 0.67 0 0.34 0 0 Z " fill="#F0B3FD" transform="translate(98,137)"/>
<path d="M0 0 C2 1.3125 2 1.3125 4 3 C4 3.99 4 4.98 4 6 C2.35 6 0.7 6 -1 6 C-0.67 4.02 -0.34 2.04 0 0 Z " fill="#C2BFFE" transform="translate(223,211)"/>
<path d="M0 0 C1.98 0 3.96 0 6 0 C6 1.32 6 2.64 6 4 C3.525 3.01 3.525 3.01 1 2 C0.67 2.66 0.34 3.32 0 4 C0 2.68 0 1.36 0 0 Z " fill="#CAC8FE" transform="translate(198,213)"/>
<path d="M0 0 C0.33 0.99 0.66 1.98 1 3 C1.99 3 2.98 3 4 3 C4 3.66 4 4.32 4 5 C4.66 5 5.32 5 6 5 C5.67 5.66 5.34 6.32 5 7 C3.35 6.67 1.7 6.34 0 6 C0 4.02 0 2.04 0 0 Z " fill="#BEBAFE" transform="translate(190,220)"/>
<path d="M0 0 C1.65 0 3.3 0 5 0 C5 0.66 5 1.32 5 2 C3.68 2 2.36 2 1 2 C0.67 2.99 0.34 3.98 0 5 C-0.66 4.67 -1.32 4.34 -2 4 C-2 3.34 -2 2.68 -2 2 C-1.34 2 -0.68 2 0 2 C0 1.34 0 0.68 0 0 Z " fill="#80B1D6" transform="translate(298,216)"/>
<path d="M0 0 C0.66 0.66 1.32 1.32 2 2 C2.99 2 3.98 2 5 2 C5 2.99 5 3.98 5 5 C3.35 5.33 1.7 5.66 0 6 C0 4.02 0 2.04 0 0 Z " fill="#CECBFE" transform="translate(214,203)"/>
<path d="M0 0 C0.33 0 0.66 0 1 0 C1 1.98 1 3.96 1 6 C-0.98 6 -2.96 6 -5 6 C-4.67 5.01 -4.34 4.02 -4 3 C-4 3.66 -4 4.32 -4 5 C-3.34 5 -2.68 5 -2 5 C-2 4.34 -2 3.68 -2 3 C-1.34 3 -0.68 3 0 3 C0 2.01 0 1.02 0 0 Z " fill="#EAE9FE" transform="translate(172,161)"/>
<path d="M0 0 C0.33 0.66 0.66 1.32 1 2 C1.99 2.33 2.98 2.66 4 3 C3.67 3.66 3.34 4.32 3 5 C-1 5 -1 5 -3 4 C-1 1 -1 1 0 0 Z " fill="#D6EBFD" transform="translate(283,136)"/>
<path d="M0 0 C2.475 0.495 2.475 0.495 5 1 C4.67 2.32 4.34 3.64 4 5 C2.68 4.67 1.36 4.34 0 4 C0 2.68 0 1.36 0 0 Z " fill="#EBF5FE" transform="translate(296,104)"/>
</svg>
