<?xml version="1.0" encoding="UTF-8"?>
<svg version="1.1" xmlns="http://www.w3.org/2000/svg" width="400" height="400">
<path d="M0 0 C132 0 264 0 400 0 C400 132 400 264 400 400 C268 400 136 400 0 400 C0 268 0 136 0 0 Z " fill="#FEF9F0" transform="translate(0,0)"/>
<path d="M0 0 C4.2825892 1.50160912 7.85671932 3.7366003 11.578125 6.28125 C12.49618927 6.90247742 12.49618927 6.90247742 13.43280029 7.53625488 C14.71850531 8.40806546 16.00259938 9.28225604 17.28515625 10.15869141 C19.25314018 11.50214365 21.22770025 12.83548884 23.203125 14.16796875 C24.45352965 15.01763398 25.70354369 15.86787438 26.953125 16.71875 C27.54474426 17.11775513 28.13636353 17.51676025 28.74591064 17.92785645 C32.88496074 20.76992148 32.88496074 20.76992148 34 23 C29.32055269 26.13605996 24.63912789 29.26913644 19.95581055 32.39941406 C18.36150704 33.46564418 16.76775575 34.53270047 15.17456055 35.60058594 C12.88994273 37.13171308 10.60338236 38.65989832 8.31640625 40.1875 C7.2413961 40.90933472 7.2413961 40.90933472 6.14466858 41.64575195 C1.11387171 45 1.11387171 45 0 45 C0 42.36 0 39.72 0 37 C-3.73051229 37.02285908 -7.45798188 37.10024673 -11.1875 37.1875 C-12.77014648 37.19620117 -12.77014648 37.19620117 -14.38476562 37.20507812 C-20.72842414 37.34595127 -20.72842414 37.34595127 -26.17578125 40.36328125 C-28.59183285 43.85543293 -29.13162538 46.52359785 -29.31640625 50.66796875 C-29.35451416 51.47258545 -29.39262207 52.27720215 -29.43188477 53.10620117 C-29.47498779 54.12302979 -29.51809082 55.1398584 -29.5625 56.1875 C-29.706875 59.425625 -29.85125 62.66375 -30 66 C-20.1 66 -10.2 66 0 66 C0 63.36 0 60.72 0 58 C7.74536525 62.02237875 14.88648004 66.87171815 22.0625 71.8125 C23.22566501 72.60908393 24.38907489 73.40531045 25.55273438 74.20117188 C28.37090838 76.13062711 31.18657208 78.0636339 34 80 C30.80855444 83.46294263 27.23099676 86.00450175 23.30078125 88.546875 C22.66512741 88.96294006 22.02947357 89.37900513 21.3745575 89.80767822 C20.03887831 90.68055417 18.70167494 91.55110181 17.36303711 92.41943359 C15.30543492 93.75458444 13.25298354 95.09737774 11.20117188 96.44140625 C9.90133515 97.28951248 8.60121492 98.13718438 7.30078125 98.984375 C6.68415115 99.38742859 6.06752106 99.79048218 5.4322052 100.20574951 C1.11620237 103 1.11620237 103 0 103 C0 100.36 0 97.72 0 95 C-9.9 95 -19.8 95 -30 95 C-30 104.57 -30 114.14 -30 124 C-20.1 124 -10.2 124 0 124 C0 121.36 0 118.72 0 116 C6.77026045 119.5588057 13.01794475 123.63717764 19.25 128.0625 C20.12140625 128.67416016 20.9928125 129.28582031 21.890625 129.91601562 C26.02598507 132.83157055 30.10112415 135.76973303 34 139 C26.815212 144.41803685 19.40758643 149.48611908 11.9375 154.5 C10.99688721 155.13566895 10.05627441 155.77133789 9.0871582 156.42626953 C7.75817505 157.31354736 7.75817505 157.31354736 6.40234375 158.21875 C5.60304443 158.75435547 4.80374512 159.28996094 3.98022461 159.84179688 C2 161 2 161 0 161 C0 158.36 0 155.72 0 153 C-21.12 153 -42.24 153 -64 153 C-64 177.09 -64 201.18 -64 226 C-73.57 226 -83.14 226 -93 226 C-93 202.57 -93 179.14 -93 155 C-98.37090454 160.13089453 -98.37090454 160.13089453 -98.65942383 166.6262207 C-98.67514938 167.59291939 -98.67514938 167.59291939 -98.69119263 168.57914734 C-98.7198414 170.6951879 -98.7136644 172.80958232 -98.70703125 174.92578125 C-98.72015272 176.39839213 -98.73545834 177.87098503 -98.75285339 179.34355164 C-98.79266502 183.20860305 -98.80289124 187.07318326 -98.80688477 190.93841553 C-98.81786719 195.58171368 -98.86572239 200.22476162 -98.90737152 204.86786652 C-98.96644355 211.91212215 -98.97877452 218.95507088 -99 226 C-108.57 226 -118.14 226 -128 226 C-128.06803153 217.30661735 -128.12296266 208.61341424 -128.15543652 199.9198246 C-128.17102972 195.88215799 -128.19215048 191.84468444 -128.22631836 187.80712891 C-128.25914022 183.90378319 -128.27690061 180.00062207 -128.28463173 176.0971489 C-128.2901346 174.61494419 -128.30087933 173.1327485 -128.31719017 171.65062332 C-128.46257176 157.8807232 -126.46570835 145.66290039 -116.75 135.25 C-110.23941242 129.13657245 -102.01422685 124.83363004 -93 125 C-93.02094727 124.31075439 -93.04189453 123.62150879 -93.06347656 122.91137695 C-93.92078074 90.42877274 -93.92078074 90.42877274 -83 78 C-76.10333847 71.34161085 -68.33788807 67.80439473 -59 66 C-58.9906543 65.31075439 -58.98130859 64.62150879 -58.97167969 63.91137695 C-58.40241079 30.50031584 -58.40241079 30.50031584 -46.33984375 18.32421875 C-36.14931493 8.96935972 -24.81025812 7.66542091 -11.4375 7.875 C-9.78137695 7.88853516 -9.78137695 7.88853516 -8.09179688 7.90234375 C-5.3942983 7.92569872 -2.69726923 7.95844946 0 8 C0 5.36 0 2.72 0 0 Z " fill="#4A2566" transform="translate(152,88)"/>
<path d="M0 0 C4.2825892 1.50160912 7.85671932 3.7366003 11.578125 6.28125 C12.49618927 6.90247742 12.49618927 6.90247742 13.43280029 7.53625488 C14.71850531 8.40806546 16.00259938 9.28225604 17.28515625 10.15869141 C19.25314018 11.50214365 21.22770025 12.83548884 23.203125 14.16796875 C24.45352965 15.01763398 25.70354369 15.86787438 26.953125 16.71875 C27.54474426 17.11775513 28.13636353 17.51676025 28.74591064 17.92785645 C32.88496074 20.76992148 32.88496074 20.76992148 34 23 C29.32055269 26.13605996 24.63912789 29.26913644 19.95581055 32.39941406 C18.36150704 33.46564418 16.76775575 34.53270047 15.17456055 35.60058594 C12.88994273 37.13171308 10.60338236 38.65989832 8.31640625 40.1875 C7.2413961 40.90933472 7.2413961 40.90933472 6.14466858 41.64575195 C1.11387171 45 1.11387171 45 0 45 C0 42.36 0 39.72 0 37 C-3.73051229 37.02285908 -7.45798188 37.10024673 -11.1875 37.1875 C-12.77014648 37.19620117 -12.77014648 37.19620117 -14.38476562 37.20507812 C-20.72842414 37.34595127 -20.72842414 37.34595127 -26.17578125 40.36328125 C-28.59183285 43.85543293 -29.13162538 46.52359785 -29.31640625 50.66796875 C-29.37356812 51.8748938 -29.37356812 51.8748938 -29.43188477 53.10620117 C-29.47498779 54.12302979 -29.51809082 55.1398584 -29.5625 56.1875 C-29.706875 59.425625 -29.85125 62.66375 -30 66 C-20.1 66 -10.2 66 0 66 C0 63.36 0 60.72 0 58 C7.74536525 62.02237875 14.88648004 66.87171815 22.0625 71.8125 C23.22566501 72.60908393 24.38907489 73.40531045 25.55273438 74.20117188 C28.37090838 76.13062711 31.18657208 78.0636339 34 80 C30.80855444 83.46294263 27.23099676 86.00450175 23.30078125 88.546875 C22.66512741 88.96294006 22.02947357 89.37900513 21.3745575 89.80767822 C20.03887831 90.68055417 18.70167494 91.55110181 17.36303711 92.41943359 C15.30543492 93.75458444 13.25298354 95.09737774 11.20117188 96.44140625 C9.90133515 97.28951248 8.60121492 98.13718438 7.30078125 98.984375 C6.68415115 99.38742859 6.06752106 99.79048218 5.4322052 100.20574951 C1.11620237 103 1.11620237 103 0 103 C0 100.36 0 97.72 0 95 C-9.9 95 -19.8 95 -30 95 C-30 104.57 -30 114.14 -30 124 C-50.79 124 -71.58 124 -93 124 C-93 89.38084633 -93 89.38084633 -83 78 C-76.10333847 71.34161085 -68.33788807 67.80439473 -59 66 C-58.9906543 65.31075439 -58.98130859 64.62150879 -58.97167969 63.91137695 C-58.40241079 30.50031584 -58.40241079 30.50031584 -46.33984375 18.32421875 C-36.14931493 8.96935972 -24.81025812 7.66542091 -11.4375 7.875 C-9.78137695 7.88853516 -9.78137695 7.88853516 -8.09179688 7.90234375 C-5.3942983 7.92569872 -2.69726923 7.95844946 0 8 C0 5.36 0 2.72 0 0 Z " fill="#EF3D66" transform="translate(152,88)"/>
<path d="M0 0 C4.37681616 1.98946189 6.57912039 4.75035776 9.54296875 8.46875 C11.51667036 10.90472076 11.51667036 10.90472076 15.4375 12.5625 C15.4375 26.0925 15.4375 39.6225 15.4375 53.5625 C-32.4125 53.5625 -80.2625 53.5625 -129.5625 53.5625 C-128.5625 43.5625 -128.5625 43.5625 -127.0625 40.5 C-124.16632007 38.25546056 -122.00585469 37.9499764 -118.39453125 37.734375 C-114.88287162 37.52125359 -111.42585416 37.08045277 -107.9375 36.625 C-106.70773437 36.47160156 -105.47796875 36.31820312 -104.2109375 36.16015625 C-100.51393501 35.55454449 -97.13735757 34.6606889 -93.5625 33.5625 C-92 34.75 -92 34.75 -90.5625 36.5625 C-90.875 39.25 -90.875 39.25 -91.5625 41.5625 C-90.2321875 41.2840625 -90.2321875 41.2840625 -88.875 41 C-85.5625 40.5625 -85.5625 40.5625 -83.22387695 41.03125 C-80.29716948 41.61546388 -77.65083579 41.65919031 -74.66796875 41.625 C-73.54712891 41.61726563 -72.42628906 41.60953125 -71.27148438 41.6015625 C-68.93554543 41.57565081 -66.59960791 41.54961045 -64.26367188 41.5234375 C-49.97447887 41.42517371 -49.97447887 41.42517371 -43.5625 43.5625 C-42.77875 42.593125 -41.995 41.62375 -41.1875 40.625 C-39.64961295 38.72287654 -38.76990087 37.66620043 -36.5625 36.5625 C-36.8925 36.2325 -37.2225 35.9025 -37.5625 35.5625 C-38.10740794 30.31887766 -38.26615204 25.91954323 -35.8125 21.1875 C-35.07 20.32125 -34.3275 19.455 -33.5625 18.5625 C-33.005625 17.758125 -32.44875 16.95375 -31.875 16.125 C-29.11083973 13.0620116 -26.03341372 10.7471665 -22.74609375 8.26953125 C-20.92016383 6.84210482 -19.29774207 5.4091856 -17.6875 3.75 C-12.27363898 -1.82309223 -7.22512911 -0.88729656 0 0 Z " fill="#FFFE9E" transform="translate(384.5625,346.4375)"/>
<path d="M0 0 C4.2825892 1.50160912 7.85671932 3.7366003 11.578125 6.28125 C12.49618927 6.90247742 12.49618927 6.90247742 13.43280029 7.53625488 C14.71850531 8.40806546 16.00259938 9.28225604 17.28515625 10.15869141 C19.25314018 11.50214365 21.22770025 12.83548884 23.203125 14.16796875 C24.45352965 15.01763398 25.70354369 15.86787438 26.953125 16.71875 C27.54474426 17.11775513 28.13636353 17.51676025 28.74591064 17.92785645 C32.88496074 20.76992148 32.88496074 20.76992148 34 23 C29.32055269 26.13605996 24.63912789 29.26913644 19.95581055 32.39941406 C18.36150704 33.46564418 16.76775575 34.53270047 15.17456055 35.60058594 C12.88994273 37.13171308 10.60338236 38.65989832 8.31640625 40.1875 C7.2413961 40.90933472 7.2413961 40.90933472 6.14466858 41.64575195 C1.11387171 45 1.11387171 45 0 45 C0 42.36 0 39.72 0 37 C-3.73051229 37.02285908 -7.45798188 37.10024673 -11.1875 37.1875 C-12.77014648 37.19620117 -12.77014648 37.19620117 -14.38476562 37.20507812 C-20.72842414 37.34595127 -20.72842414 37.34595127 -26.17578125 40.36328125 C-28.59183285 43.85543293 -29.13162538 46.52359785 -29.31640625 50.66796875 C-29.37356812 51.8748938 -29.37356812 51.8748938 -29.43188477 53.10620117 C-29.49653931 54.63144409 -29.49653931 54.63144409 -29.5625 56.1875 C-29.706875 59.425625 -29.85125 62.66375 -30 66 C-39.24 66 -48.48 66 -58 66 C-58.74313595 31.25839427 -58.74313595 31.25839427 -48 20 C-39.54091022 11.46129525 -29.80091037 7.94512524 -17.87109375 7.8046875 C-15.72647454 7.81780444 -13.58189599 7.84139283 -11.4375 7.875 C-9.78137695 7.88853516 -9.78137695 7.88853516 -8.09179688 7.90234375 C-5.3942983 7.92569872 -2.69726923 7.95844946 0 8 C0 5.36 0 2.72 0 0 Z " fill="#FECE48" transform="translate(152,88)"/>
<path d="M0 0 C0 24.09 0 48.18 0 73 C-9.57 73 -19.14 73 -29 73 C-29 49.24 -29 25.48 -29 1 C-19.8239442 -2.05868527 -9.67241209 0 0 0 Z " fill="#EE3D67" transform="translate(88,241)"/>
<path d="M0 0 C9.57 0 19.14 0 29 0 C28.67 24.09 28.34 48.18 28 73 C18.76 73 9.52 73 0 73 C0 48.91 0 24.82 0 0 Z " fill="#FECD47" transform="translate(94,241)"/>
<path d="M0 0 C4.64408275 2.94439997 7.99723574 7.28802338 10.11328125 12.33984375 C11.1923781 18.81442487 10.04420119 24.37368295 6.84765625 30.06640625 C3.09136127 34.99019832 -1.63707077 37.72150795 -7.69921875 38.875 C-14.32765362 39.23404022 -18.88700237 37.66914361 -23.88671875 33.33984375 C-28.56691391 28.88649478 -30.5391038 24.41044249 -31.26171875 18.02734375 C-30.59893912 11.51001071 -28.37526536 6.31212346 -23.44921875 1.90234375 C-15.88682104 -3.88160873 -8.44162509 -4.09688541 0 0 Z " fill="#4E2A6A" transform="translate(226.88671875,208.66015625)"/>
<path d="M0 0 C5.54460255 3.15281321 10.14977175 7.69931525 12.1875 13.8125 C12.92799988 20.64694968 12.31382112 26.19008585 8.1875 31.8125 C3.75214178 36.54214739 -0.47773535 39.42017475 -7 40.1875 C-13.31649538 39.56620537 -19.55746705 37.77250882 -23.8125 32.8125 C-28.43316482 25.88150278 -28.57673136 20.112633 -27.8125 11.8125 C-25.53311978 6.7066883 -21.34661507 3.04213649 -16.8125 -0.1875 C-11.18257653 -2.06414116 -5.626553 -1.7525329 0 0 Z " fill="#FFD04F" transform="translate(224.8125,91.1875)"/>
<path d="M0 0 C4.8564885 2.93715771 8.83062349 7.93778593 10.95703125 13.18359375 C11.94321859 19.926363 11.0021981 25.65559447 6.95703125 31.18359375 C2.02048849 36.56239337 -2.60588708 38.85097294 -9.91796875 39.55859375 C-15.23721258 39.39586354 -19.72509736 37.37823654 -23.5859375 33.72265625 C-28.80064657 27.69744987 -29.50531708 23.20939426 -29.34765625 15.37890625 C-28.83471786 9.99962934 -27.23104377 7.11631997 -23.1015625 3.46875 C-15.88285358 -2.18125238 -8.60591912 -3.54760768 0 0 Z " fill="#EF4169" transform="translate(226.04296875,149.81640625)"/>
<path d="M0 0 C4.16625 0.061875 8.3325 0.12375 12.625 0.1875 C12.625 9.7575 12.625 19.3275 12.625 29.1875 C1.405 29.1875 -9.815 29.1875 -21.375 29.1875 C-21.41625 25.64 -21.4575 22.0925 -21.5 18.4375 C-21.51820801 17.32536133 -21.53641602 16.21322266 -21.55517578 15.06738281 C-21.5601709 14.18405273 -21.56516602 13.30072266 -21.5703125 12.390625 C-21.58078613 11.48989258 -21.59125977 10.58916016 -21.60205078 9.66113281 C-21.35772814 6.9993296 -20.79978728 5.43449289 -19.375 3.1875 C-13.69334897 -1.12706435 -6.77730264 -0.14208445 0 0 Z " fill="#FECD47" transform="translate(109.375,182.8125)"/>
<path d="M0 0 C3.96 0 7.92 0 12 0 C13 3 13 3 12.0625 5.1875 C11.711875 5.785625 11.36125 6.38375 11 7 C9.02 7 7.04 7 5 7 C4.67 7.66 4.34 8.32 4 9 C11.33763707 10.17402193 18.58165418 10.09377123 26 10 C24.85331791 13.44004627 24.12056696 14.26635169 21 16 C18.75 15.75 18.75 15.75 16 15 C13.31171495 14.5079247 10.73605431 14.22426675 8 14 C7.34 14.66 6.68 15.32 6 16 C5.67 14.35 5.34 12.7 5 11 C4.34 11 3.68 11 3 11 C2.34 10.01 1.68 9.02 1 8 C-1.56282742 7.27034634 -1.56282742 7.27034634 -4 7 C-4 6.34 -4 5.68 -4 5 C-3.01 5 -2.02 5 -1 5 C-0.67 3.35 -0.34 1.7 0 0 Z " fill="#FFDEEC" transform="translate(43,0)"/>
<path d="M0 0 C0.66 0 1.32 0 2 0 C2 4.95 2 9.9 2 15 C2.66 15 3.32 15 4 15 C4 12.03 4 9.06 4 6 C5.32 6 6.64 6 8 6 C8 8.97 8 11.94 8 15 C8.66 15 9.32 15 10 15 C10 11.04 10 7.08 10 3 C11.32 3 12.64 3 14 3 C14 6.96 14 10.92 14 15 C14.66 15 15.32 15 16 15 C16 13.68 16 12.36 16 11 C16.99 11 17.98 11 19 11 C19 12.98 19 14.96 19 17 C12.73 17 6.46 17 0 17 C0 11.39 0 5.78 0 0 Z " fill="#FDECF0" transform="translate(207,160)"/>
<path d="M0 0 C0.66 0 1.32 0 2 0 C2 0.66 2 1.32 2 2 C2.66 2 3.32 2 4 2 C4 1.34 4 0.68 4 0 C4.66 0 5.32 0 6 0 C8.35345906 2.35345906 8.98195082 3.57584424 9.125 6.9375 C9.08375 7.948125 9.0425 8.95875 9 10 C9.291224 11.67453799 9.61070799 13.34550895 10 15 C8.02 15.99 8.02 15.99 6 17 C6 17.66 6 18.32 6 19 C4.02 19 2.04 19 0 19 C0 18.34 0 17.68 0 17 C-0.66 16.67 -1.32 16.34 -2 16 C-1.34 16 -0.68 16 0 16 C0 12.04 0 8.08 0 4 C-0.66 4 -1.32 4 -2 4 C-2 3.34 -2 2.68 -2 2 C-1.34 2 -0.68 2 0 2 C0 1.34 0 0.68 0 0 Z " fill="#E5DFE7" transform="translate(213,217)"/>
<path d="M0 0 C0 8.91 0 17.82 0 27 C-1.98 27 -3.96 27 -6 27 C-6.05814085 23.41673499 -6.09364357 19.83359162 -6.125 16.25 C-6.14175781 15.23421875 -6.15851563 14.2184375 -6.17578125 13.171875 C-6.18222656 12.1921875 -6.18867187 11.2125 -6.1953125 10.203125 C-6.20578613 9.30239258 -6.21625977 8.40166016 -6.22705078 7.47363281 C-5.98381993 4.82372419 -5.42939958 3.23159444 -4 1 C-2 0 -2 0 0 0 Z " fill="#FEF8EE" transform="translate(94,185)"/>
<path d="M0 0 C1.98 0 3.96 0 6 0 C4.68 1.32 3.36 2.64 2 4 C4.97 4.495 4.97 4.495 8 5 C7.34 6.65 6.68 8.3 6 10 C6.99 10.66 7.98 11.32 9 12 C8.01 13.485 8.01 13.485 7 15 C6.835 15.845625 6.67 16.69125 6.5 17.5625 C6 20 6 20 4 22 C4 23.32 4 24.64 4 26 C2.68 27.32 1.36 28.64 0 30 C0 20.1 0 10.2 0 0 Z " fill="#FFB5D2" transform="translate(0,0)"/>
<path d="M0 0 C0.99 0.33 1.98 0.66 3 1 C2.67 1.33 2.34 1.66 2 2 C1.95614094 4.67540249 1.95536376 7.3267852 2 10 C2 11.32 2 12.64 2 14 C2.93283296 16.20067421 2.93283296 16.20067421 4 18 C3.01 18.66 2.02 19.32 1 20 C0.74969023 22.58380177 0.74969023 22.58380177 1 25 C-0.98 24.67 -2.96 24.34 -5 24 C-5.33 24.99 -5.66 25.98 -6 27 C-7.24546405 24.50907189 -6.7767578 23.58919267 -6 21 C-5.34 21 -4.68 21 -4 21 C-4.33 19.68 -4.66 18.36 -5 17 C-3.68 16.67 -2.36 16.34 -1 16 C-1 15.34 -1 14.68 -1 14 C-2.32 14 -3.64 14 -5 14 C-5 14.66 -5 15.32 -5 16 C-6.32 15.34 -7.64 14.68 -9 14 C-8.67 13.01 -8.34 12.02 -8 11 C-5.525 11.99 -5.525 11.99 -3 13 C-3 12.01 -3 11.02 -3 10 C-2.34 9.67 -1.68 9.34 -1 9 C-1.99 8.67 -2.98 8.34 -4 8 C-4 7.01 -4 6.02 -4 5 C-4.66 4.67 -5.32 4.34 -6 4 C-3.1875 1.9375 -3.1875 1.9375 0 0 Z " fill="#FFE2EE" transform="translate(68,31)"/>
<path d="M0 0 C0.69287109 0.01804687 1.38574219 0.03609375 2.09960938 0.0546875 C3.79617664 0.10148936 5.49202476 0.17322376 7.1875 0.25 C5.24024383 2.24957052 3.30187835 3.97295645 1.125 5.75 C-1.913519 8.10455699 -1.913519 8.10455699 -3.8125 11.25 C-5.4625 10.92 -7.1125 10.59 -8.8125 10.25 C-8.1525 8.93 -7.4925 7.61 -6.8125 6.25 C-8.7925 5.59 -10.7725 4.93 -12.8125 4.25 C-8.72456123 0.21762544 -5.52520739 -0.27493855 0 0 Z " fill="#FFDEEB" transform="translate(13.8125,-0.25)"/>
<path d="M0 0 C0.66 0.33 1.32 0.66 2 1 C1.67 2.65 1.34 4.3 1 6 C-1.31 6.33 -3.62 6.66 -6 7 C-3.36 7 -0.72 7 2 7 C1.67 7.66 1.34 8.32 1 9 C-1.64 9 -4.28 9 -7 9 C-7 9.66 -7 10.32 -7 11 C-2.545 10.505 -2.545 10.505 2 10 C1.67 10.99 1.34 11.98 1 13 C-5.0546875 13.1953125 -5.0546875 13.1953125 -7 13 C-9.42522207 10.57477793 -9.29629254 9.8279321 -9.3125 6.5 C-9.32925781 5.7059375 -9.34601563 4.911875 -9.36328125 4.09375 C-9.18345703 3.05734375 -9.18345703 3.05734375 -9 2 C-5.54337669 -0.30441554 -4.05142119 -0.25860135 0 0 Z " fill="#FEFCF5" transform="translate(220,106)"/>
<path d="M0 0 C0.66 0 1.32 0 2 0 C2 2.64 2 5.28 2 8 C0.68 8 -0.64 8 -2 8 C-2 7.34 -2 6.68 -2 6 C-2.66 6 -3.32 6 -4 6 C-4 6.66 -4 7.32 -4 8 C-5.32 8 -6.64 8 -8 8 C-8 6.68 -8 5.36 -8 4 C-8.66 4 -9.32 4 -10 4 C-10 5.65 -10 7.3 -10 9 C-11.32 8.67 -12.64 8.34 -14 8 C-14 7.34 -14 6.68 -14 6 C-14.99 6 -15.98 6 -17 6 C-17.33 6.99 -17.66 7.98 -18 9 C-19.2077558 5.37673261 -18.54311128 4.35853631 -17 1 C-14 2 -14 2 -13 4 C-12.67 3.34 -12.34 2.68 -12 2 C-9.625 1.875 -9.625 1.875 -7 2 C-6.34 2.66 -5.68 3.32 -5 4 C-5 3.34 -5 2.68 -5 2 C-3.68 2 -2.36 2 -1 2 C-0.67 1.34 -0.34 0.68 0 0 Z " fill="#D36388" transform="translate(289,153)"/>
<path d="M0 0 C0.804375 0.185625 1.60875 0.37125 2.4375 0.5625 C3.283125 0.706875 4.12875 0.85125 5 1 C5.33 0.67 5.66 0.34 6 0 C7.99954746 -0.04254356 10.00041636 -0.04080783 12 0 C12.66 0 13.32 0 14 0 C15.66666667 0 17.33333333 0 19 0 C19.33 1.65 19.66 3.3 20 5 C19.05125 4.938125 18.1025 4.87625 17.125 4.8125 C15.578125 4.9053125 15.578125 4.9053125 14 5 C13.01 6.485 13.01 6.485 12 8 C11.34 7.67 10.68 7.34 10 7 C10 6.34 10 5.68 10 5 C7.03 5 4.06 5 1 5 C0.67 5.66 0.34 6.32 0 7 C0 4.69 0 2.38 0 0 Z " fill="#A09D9B" transform="translate(292,241)"/>
<path d="M0 0 C1.35421764 0.01720422 2.70840241 0.03757796 4.0625 0.0625 C4.7225 0.0625 5.3825 0.0625 6.0625 0.0625 C8.0625 0.0625 10.0625 0.0625 12.0625 0.0625 C12.3925 1.3825 12.7225 2.7025 13.0625 4.0625 C12.423125 4.18625 11.78375 4.31 11.125 4.4375 C10.444375 4.64375 9.76375 4.85 9.0625 5.0625 C8.7325 5.7225 8.4025 6.3825 8.0625 7.0625 C7.7325 6.0725 7.4025 5.0825 7.0625 4.0625 C6.4025 5.3825 5.7425 6.7025 5.0625 8.0625 C4.4025 8.0625 3.7425 8.0625 3.0625 8.0625 C3.0625 6.0825 3.0625 4.1025 3.0625 2.0625 C2.4025 1.7325 1.7425 1.4025 1.0625 1.0625 C1.0625 2.3825 1.0625 3.7025 1.0625 5.0625 C-0.5875 5.0625 -2.2375 5.0625 -3.9375 5.0625 C-4.5 3.125 -4.5 3.125 -4.9375 1.0625 C-3.9375 0.0625 -3.9375 0.0625 0 0 Z " fill="#9F9C99" transform="translate(304.9375,228.9375)"/>
<path d="M0 0 C5.61 0 11.22 0 17 0 C17 1.65 17 3.3 17 5 C11 5 5 5 -1 5 C-1 4.01 -1 3.02 -1 2 C1 3 1 3 2 4 C2 3.01 2 2.02 2 1 C1.34 0.67 0.68 0.34 0 0 Z " fill="#C6B8A1" transform="translate(320,125)"/>
<path d="M0 0 C1.65 0 3.3 0 5 0 C5.66 1.65 6.32 3.3 7 5 C7.66 4.67 8.32 4.34 9 4 C8.67 3.34 8.34 2.68 8 2 C9.32 2.33 10.64 2.66 12 3 C12 4.65 12 6.3 12 8 C8 8 4 8 0 8 C0 5.36 0 2.72 0 0 Z " fill="#D1AC2D" transform="translate(263,95)"/>
<path d="M0 0 C0.66 0 1.32 0 2 0 C2.33 0.66 2.66 1.32 3 2 C4.32 2 5.64 2 7 2 C7 1.34 7 0.68 7 0 C7.66 0 8.32 0 9 0 C9 0.66 9 1.32 9 2 C9.99 2.33 10.98 2.66 12 3 C12 4.32 12 5.64 12 7 C10.68 7 9.36 7 8 7 C8 6.34 8 5.68 8 5 C7.34 5 6.68 5 6 5 C6.33 6.32 6.66 7.64 7 9 C5.68 9.33 4.36 9.66 3 10 C2.67 9.01 2.34 8.02 2 7 C1.34 7 0.68 7 0 7 C0 4.69 0 2.38 0 0 Z " fill="#ABA7A6" transform="translate(269,239)"/>
<path d="M0 0 C0.94875 0.04125 1.8975 0.0825 2.875 0.125 C3.535 1.445 4.195 2.765 4.875 4.125 C4.070625 4.351875 3.26625 4.57875 2.4375 4.8125 C1.591875 5.245625 0.74625 5.67875 -0.125 6.125 C-1.01886164 8.67275306 -1.01886164 8.67275306 -1.125 11.125 C-2.445 10.795 -3.765 10.465 -5.125 10.125 C-5.3203125 4.0703125 -5.3203125 4.0703125 -5.125 2.125 C-3.125 0.125 -3.125 0.125 0 0 Z " fill="#FEF9EA" transform="translate(211.125,100.875)"/>
<path d="M0 0 C0 0.66 0 1.32 0 2 C1.65 2 3.3 2 5 2 C5 3.65 5 5.3 5 7 C4.67 5.68 4.34 4.36 4 3 C3.34 3 2.68 3 2 3 C2 4.32 2 5.64 2 7 C0.68 7 -0.64 7 -2 7 C-2 5.68 -2 4.36 -2 3 C-2.66 3 -3.32 3 -4 3 C-4 4.32 -4 5.64 -4 7 C-4.66 7 -5.32 7 -6 7 C-6.33 6.67 -6.66 6.34 -7 6 C-7.99 6.33 -8.98 6.66 -10 7 C-10.33 5.68 -10.66 4.36 -11 3 C-9.54293274 2.49632243 -8.08429904 1.99717444 -6.625 1.5 C-5.81289063 1.2215625 -5.00078125 0.943125 -4.1640625 0.65625 C-2 0 -2 0 0 0 Z " fill="#BC9C9D" transform="translate(324,169)"/>
<path d="M0 0 C2.875 -0.125 2.875 -0.125 6 0 C8 2 8 2 8.1953125 3.9453125 C8.13020833 5.96354167 8.06510417 7.98177083 8 10 C6.68 10.33 5.36 10.66 4 11 C3.731875 10.030625 3.46375 9.06125 3.1875 8.0625 C2.795625 7.051875 2.40375 6.04125 2 5 C1.01 4.67 0.02 4.34 -1 4 C-0.67 2.68 -0.34 1.36 0 0 Z " fill="#FEFAEF" transform="translate(219,101)"/>
<path d="M0 0 C2.64 0 5.28 0 8 0 C8 2.64 8 5.28 8 8 C5.36 8 2.72 8 0 8 C0 5.36 0 2.72 0 0 Z " fill="#D9B850" transform="translate(245,95)"/>
<path d="M0 0 C0.66 0 1.32 0 2 0 C0.9545437 3.13636891 0.23811043 3.76188957 -2 6 C-2.7734375 7.3303125 -2.7734375 7.3303125 -3.5625 8.6875 C-4.036875 9.450625 -4.51125 10.21375 -5 11 C-5.66 11 -6.32 11 -7 11 C-7.93423645 7.98968256 -8.04449911 7.13349732 -7 4 C-8.32 5.32 -9.64 6.64 -11 8 C-11.33 7.01 -11.66 6.02 -12 5 C-10 2 -10 2 -6.5625 1.25 C-3 1 -3 1 0 2 C0 1.34 0 0.68 0 0 Z " fill="#FFE3EE" transform="translate(34,53)"/>
<path d="M0 0 C3 5.75 3 5.75 3 8 C1.35 7.67 -0.3 7.34 -2 7 C-2 8.65 -2 10.3 -2 12 C-2.61875 11.649375 -3.2375 11.29875 -3.875 10.9375 C-4.57625 10.628125 -5.2775 10.31875 -6 10 C-6.99 10.495 -6.99 10.495 -8 11 C-8 10.01 -8 9.02 -8 8 C-7.34 8 -6.68 8 -6 8 C-5.67 5.69 -5.34 3.38 -5 1 C-2 0 -2 0 0 0 Z " fill="#FFE2EE" transform="translate(45,46)"/>
<path d="M0 0 C2.05078125 0.03255208 4.1015625 0.06510417 6.15234375 0.09765625 C6.19488731 2.09720371 6.19315158 4.09807261 6.15234375 6.09765625 C5.15234375 7.09765625 5.15234375 7.09765625 1.65234375 7.22265625 C-1.84765625 7.09765625 -1.84765625 7.09765625 -2.84765625 6.09765625 C-2.97265625 3.59765625 -2.97265625 3.59765625 -2.84765625 1.09765625 C-1.84765625 0.09765625 -1.84765625 0.09765625 0 0 Z " fill="#E59EB5" transform="translate(306.84765625,154.90234375)"/>
<path d="M0 0 C7.875 0.875 7.875 0.875 9 2 C9.04063832 3.66617115 9.042721 5.33388095 9 7 C5.625 7.625 5.625 7.625 2 8 C0 6 0 6 -0.125 2.875 C-0.08375 1.92625 -0.0425 0.9775 0 0 Z " fill="#DEC066" transform="translate(276,96)"/>
<path d="M0 0 C2.31 0 4.62 0 7 0 C7 2.97 7 5.94 7 9 C6.34 9 5.68 9 5 9 C5 8.01 5 7.02 5 6 C4.01 6 3.02 6 2 6 C2 6.99 2 7.98 2 9 C1.34 9 0.68 9 0 9 C0 6.03 0 3.06 0 0 Z " fill="#9682A3" transform="translate(245,211)"/>
<path d="M0 0 C2.69082872 0.17635452 5.32851446 0.61835921 8 1 C8 2.65 8 4.3 8 6 C6.68 6 5.36 6 4 6 C4 6.66 4 7.32 4 8 C3.34 8 2.68 8 2 8 C2 7.34 2 6.68 2 6 C1.34 6 0.68 6 0 6 C-0.33 6.66 -0.66 7.32 -1 8 C-1.04241723 5.66705225 -1.04092937 3.33297433 -1 1 C-0.67 0.67 -0.34 0.34 0 0 Z " fill="#C3A6A7" transform="translate(269,182)"/>
<path d="M0 0 C0.66 1.32 1.32 2.64 2 4 C2.66 4 3.32 4 4 4 C3.34 5.32 2.68 6.64 2 8 C1.05125 7.979375 0.1025 7.95875 -0.875 7.9375 C-3.90666283 7.77448174 -3.90666283 7.77448174 -6 9 C-6 6.69 -6 4.38 -6 2 C-2.25 0 -2.25 0 0 0 Z " fill="#FFDEEB" transform="translate(39,21)"/>
<path d="M0 0 C0.66 0.33 1.32 0.66 2 1 C2 2.32 2 3.64 2 5 C2.66 3.68 3.32 2.36 4 1 C5.32 1.33 6.64 1.66 8 2 C8 3.98 8 5.96 8 8 C1.84765625 8.09765625 1.84765625 8.09765625 0 8 C-1 7 -1 7 -1.125 4 C-1 1 -1 1 0 0 Z " fill="#D46489" transform="translate(259,154)"/>
<path d="M0 0 C0.66 0 1.32 0 2 0 C2 0.66 2 1.32 2 2 C4.97 2 7.94 2 11 2 C11.33 3.32 11.66 4.64 12 6 C11 7 11 7 8.4375 7.0625 C7.2309375 7.0315625 7.2309375 7.0315625 6 7 C6 5.68 6 4.36 6 3 C5.34 3 4.68 3 4 3 C4 4.32 4 5.64 4 7 C2.68 7 1.36 7 0 7 C0 4.69 0 2.38 0 0 Z " fill="#A4A09F" transform="translate(283,227)"/>
<path d="M0 0 C0.66 0 1.32 0 2 0 C2 0.99 2 1.98 2 3 C3.32 3.33 4.64 3.66 6 4 C6 5.32 6 6.64 6 8 C3.03 8 0.06 8 -3 8 C-3 6.35 -3 4.7 -3 3 C-2.01 3 -1.02 3 0 3 C0 2.01 0 1.02 0 0 Z " fill="#D1BABC" transform="translate(359,180)"/>
<path d="M0 0 C2.31 0 4.62 0 7 0 C7 2.31 7 4.62 7 7 C4.69 7 2.38 7 0 7 C0 4.69 0 2.38 0 0 Z " fill="#C4BFC0" transform="translate(245,227)"/>
<path d="M0 0 C0.33 0 0.66 0 1 0 C1 2.31 1 4.62 1 7 C-2.63 7 -6.26 7 -10 7 C-10 5.35 -10 3.7 -10 2 C-9.67 3.32 -9.34 4.64 -9 6 C-8.34 6 -7.68 6 -7 6 C-7 4.68 -7 3.36 -7 2 C-4.69 2 -2.38 2 0 2 C0 1.34 0 0.68 0 0 Z " fill="#C6A9AB" transform="translate(356,169)"/>
<path d="M0 0 C0.99 0.495 0.99 0.495 2 1 C2.66 0.67 3.32 0.34 4 0 C6.6723621 -0.13415472 9.32250488 -0.04318541 12 0 C11.01 0.495 11.01 0.495 10 1 C10 1.99 10 2.98 10 4 C10.66 4.33 11.32 4.66 12 5 C10.18818595 5.19401633 8.37551468 5.38004375 6.5625 5.5625 C5.04849609 5.71912109 5.04849609 5.71912109 3.50390625 5.87890625 C2.67761719 5.91886719 1.85132813 5.95882812 1 6 C0 5 0 5 -0.0625 2.4375 C-0.041875 1.633125 -0.02125 0.82875 0 0 Z " fill="#979490" transform="translate(319,229)"/>
<path d="M0 0 C1.32 0 2.64 0 4 0 C4.66 0.99 5.32 1.98 6 3 C6.99 2.67 7.98 2.34 9 2 C9 1.34 9 0.68 9 0 C10.32 0.33 11.64 0.66 13 1 C12.67 2.32 12.34 3.64 12 5 C8.37 5 4.74 5 1 5 C0.67 3.35 0.34 1.7 0 0 Z " fill="#C2A5A6" transform="translate(364,171)"/>
<path d="M0 0 C0.66 0.33 1.32 0.66 2 1 C1.67 2.65 1.34 4.3 1 6 C1.66 6 2.32 6 3 6 C3 4.68 3 3.36 3 2 C3.66 2 4.32 2 5 2 C5 3.98 5 5.96 5 8 C3.35 7.67 1.7 7.34 0 7 C-0.33 6.01 -0.66 5.02 -1 4 C-1.99 5.98 -2.98 7.96 -4 10 C-4.66 9.67 -5.32 9.34 -6 9 C-5.67 8.01 -5.34 7.02 -5 6 C-5.38932856 3.85744207 -5.38932856 3.85744207 -6 2 C-5.01 2 -4.02 2 -3 2 C-2.01 1.34 -1.02 0.68 0 0 Z " fill="#CC4C77" transform="translate(298,154)"/>
<path d="M0 0 C4.875 0.875 4.875 0.875 6 2 C6.125 4.5 6.125 4.5 6 7 C5 8 5 8 2.4375 8.0625 C1.633125 8.041875 0.82875 8.02125 0 8 C0 5.36 0 2.72 0 0 Z " fill="#C43364" transform="translate(245,153)"/>
<path d="M0 0 C2.05078125 0.03255208 4.1015625 0.06510417 6.15234375 0.09765625 C6.48234375 1.74765625 6.81234375 3.39765625 7.15234375 5.09765625 C4.18234375 5.09765625 1.21234375 5.09765625 -1.84765625 5.09765625 C-2.17765625 3.77765625 -2.50765625 2.45765625 -2.84765625 1.09765625 C-1.84765625 0.09765625 -1.84765625 0.09765625 0 0 Z " fill="#A8A49C" transform="translate(347.84765625,228.90234375)"/>
<path d="M0 0 C2.97 0.495 2.97 0.495 6 1 C6.38218767 2.65614657 6.71395102 4.32457024 7 6 C6 7 6 7 2.9375 7.0625 C1.4834375 7.0315625 1.4834375 7.0315625 0 7 C0 4.69 0 2.38 0 0 Z " fill="#C7BAA4" transform="translate(264,123)"/>
<path d="M0 0 C0.66 0 1.32 0 2 0 C2.33 1.98 2.66 3.96 3 6 C2.06027344 5.87431641 2.06027344 5.87431641 1.1015625 5.74609375 C-0.12433594 5.59333984 -0.12433594 5.59333984 -1.375 5.4375 C-2.59316406 5.28087891 -2.59316406 5.28087891 -3.8359375 5.12109375 C-6.04899186 4.81762672 -6.04899186 4.81762672 -8 6 C-8.33 4.35 -8.66 2.7 -9 1 C-6.66705225 0.95758277 -4.33297433 0.95907063 -2 1 C-1.67 1.33 -1.34 1.66 -1 2 C-0.67 1.34 -0.34 0.68 0 0 Z " fill="#BAAB8E" transform="translate(276,112)"/>
<path d="M0 0 C2.33944736 0.28730055 4.6739143 0.61936779 7 1 C8 5.75 8 5.75 8 8 C6.68 8 5.36 8 4 8 C3.67 6.35 3.34 4.7 3 3 C2.34 3 1.68 3 1 3 C0.67 4.32 0.34 5.64 0 7 C-0.38133299 5.0085944 -0.71325582 3.00720923 -1 1 C-0.67 0.67 -0.34 0.34 0 0 Z " fill="#6F5583" transform="translate(260,212)"/>
<path d="M0 0 C1.98 0.66 3.96 1.32 6 2 C6 4.64 6 7.28 6 10 C5.38125 9.649375 4.7625 9.29875 4.125 8.9375 C3.42375 8.628125 2.7225 8.31875 2 8 C1.01 8.495 1.01 8.495 0 9 C0 6.03 0 3.06 0 0 Z " fill="#FFE2EE" transform="translate(39,72)"/>
<path d="M0 0 C2.97 0 5.94 0 9 0 C9 1.65 9 3.3 9 5 C6.36 5 3.72 5 1 5 C0.67 3.35 0.34 1.7 0 0 Z " fill="#C7ACAD" transform="translate(300,171)"/>
<path d="M0 0 C2.475 0.495 2.475 0.495 5 1 C5.625 2.8125 5.625 2.8125 6 5 C5.01 6.485 5.01 6.485 4 8 C2.68 8 1.36 8 0 8 C0 5.36 0 2.72 0 0 Z " fill="#C9BBA5" transform="translate(245,110)"/>
<path d="M0 0 C1.32 0 2.64 0 4 0 C3.814375 0.5775 3.62875 1.155 3.4375 1.75 C2.95976454 4.20692525 3.24270636 5.64397534 4 8 C2.35 8.33 0.7 8.66 -1 9 C-1.09765625 2.84765625 -1.09765625 2.84765625 -1 1 C-0.67 0.67 -0.34 0.34 0 0 Z " fill="#D7B547" transform="translate(255,97)"/>
<path d="M0 0 C1.33333333 0.33333333 2.66666667 0.66666667 4 1 C4.33 0.67 4.66 0.34 5 0 C6.32 0 7.64 0 9 0 C8.125 3.875 8.125 3.875 7 5 C4.66702567 5.04092937 2.33294775 5.04241723 0 5 C-0.5625 3.0625 -0.5625 3.0625 -1 1 C-0.67 0.67 -0.34 0.34 0 0 Z " fill="#C0A2A3" transform="translate(342,183)"/>
<path d="M0 0 C2.31 0.66 4.62 1.32 7 2 C6.67 3.32 6.34 4.64 6 6 C3.69 6 1.38 6 -1 6 C-1.625 4.125 -1.625 4.125 -2 2 C-1.34 1.34 -0.68 0.68 0 0 Z " fill="#D5C0C1" transform="translate(286,182)"/>
<path d="M0 0 C1.65 0 3.3 0 5 0 C5.125 2.875 5.125 2.875 5 6 C4.34 6.66 3.68 7.32 3 8 C1.68 7.01 0.36 6.02 -1 5 C-0.67 3.35 -0.34 1.7 0 0 Z " fill="#C8BDA8" transform="translate(346,111)"/>
<path d="M0 0 C1.32 0.33 2.64 0.66 4 1 C3.01 1.495 3.01 1.495 2 2 C2.66 2.33 3.32 2.66 4 3 C3.67 4.32 3.34 5.64 3 7 C1.35 6.67 -0.3 6.34 -2 6 C-2 5.01 -2 4.02 -2 3 C-2.66 3 -3.32 3 -4 3 C-4.33 3.99 -4.66 4.98 -5 6 C-5 4.68 -5 3.36 -5 2 C-3.68 2 -2.36 2 -1 2 C-0.67 1.34 -0.34 0.68 0 0 Z " fill="#BFB197" transform="translate(340,111)"/>
<path d="M0 0 C1.4540625 0.0309375 1.4540625 0.0309375 2.9375 0.0625 C2.9375 1.0525 2.9375 2.0425 2.9375 3.0625 C3.5975 3.0625 4.2575 3.0625 4.9375 3.0625 C5.2675 2.0725 5.5975 1.0825 5.9375 0.0625 C5.9375 1.7125 5.9375 3.3625 5.9375 5.0625 C5.195 4.876875 4.4525 4.69125 3.6875 4.5 C0.98759037 4.07046892 -0.50881077 4.21127026 -3.0625 5.0625 C-3.625 3.125 -3.625 3.125 -4.0625 1.0625 C-3.0625 0.0625 -3.0625 0.0625 0 0 Z " fill="#C1B299" transform="translate(298.0625,112.9375)"/>
<path d="M0 0 C1.32 0.33 2.64 0.66 4 1 C3.01 2.32 2.02 3.64 1 5 C1.33 5.66 1.66 6.32 2 7 C-1 8 -1 8 -4 7 C-4 5.35 -4 3.7 -4 2 C-2.68 2 -1.36 2 0 2 C0 1.34 0 0.68 0 0 Z " fill="#FFDBEA" transform="translate(31,0)"/>
<path d="M0 0 C1.32 0 2.64 0 4 0 C6 3 6 3 5.625 5.6875 C5.41875 6.450625 5.2125 7.21375 5 8 C4.34 8 3.68 8 3 8 C3 7.01 3 6.02 3 5 C2.01 5.33 1.02 5.66 0 6 C-0.38218767 4.34385343 -0.71395102 2.67542976 -1 1 C-0.67 0.67 -0.34 0.34 0 0 Z " fill="#B3AFA3" transform="translate(357,229)"/>
<path d="M0 0 C0.99 0 1.98 0 3 0 C3 0.99 3 1.98 3 3 C3.99 3 4.98 3 6 3 C5.67 3.99 5.34 4.98 5 6 C2.4375 7.1875 2.4375 7.1875 0 8 C-0.79953138 4.71303767 -1.09658936 3.28976808 0 0 Z " fill="#C3A5A7" transform="translate(331,171)"/>
<path d="M0 0 C0.66 0 1.32 0 2 0 C2 0.66 2 1.32 2 2 C3.32 2.66 4.64 3.32 6 4 C6 5.65 6 7.3 6 9 C5.34 9 4.68 9 4 9 C4 7.35 4 5.7 4 4 C3.34 4 2.68 4 2 4 C2 5.65 2 7.3 2 9 C1.34 9 0.68 9 0 9 C0 6.03 0 3.06 0 0 Z " fill="#7D658F" transform="translate(274,211)"/>
<path d="M0 0 C1.98 0 3.96 0 6 0 C6.5625 1.9375 6.5625 1.9375 7 4 C6 5 6 5 2.9375 5.0625 C1.4834375 5.0315625 1.4834375 5.0315625 0 5 C0 3.35 0 1.7 0 0 Z " fill="#CAB0B1" transform="translate(275,171)"/>
<path d="M0 0 C0.66 0 1.32 0 2 0 C4.29648649 2.5614657 5 3.47967572 5 7 C4.34 7 3.68 7 3 7 C2.67 7.99 2.34 8.98 2 10 C1.34 9.67 0.68 9.34 0 9 C0 6.03 0 3.06 0 0 Z " fill="#FFE2EE" transform="translate(48,77)"/>
<path d="M0 0 C1.32 0 2.64 0 4 0 C4 2.64 4 5.28 4 8 C2.68 8 1.36 8 0 8 C0 5.36 0 2.72 0 0 Z " fill="#CCB3B4" transform="translate(261,180)"/>
<path d="M0 0 C3.37462715 0.54723683 5.08235 1.0549 8 3 C7.67 4.32 7.34 5.64 7 7 C6.34 7 5.68 7 5 7 C4.67 6.01 4.34 5.02 4 4 C3.01 4 2.02 4 1 4 C0.67 4.99 0.34 5.98 0 7 C0 4.69 0 2.38 0 0 Z " fill="#BA999A" transform="translate(245,169)"/>
<path d="M0 0 C0.66 0.33 1.32 0.66 2 1 C2.625 4.0625 2.625 4.0625 3 7 C2.01 7.66 1.02 8.32 0 9 C0 8.34 0 7.68 0 7 C-2.31 7 -4.62 7 -7 7 C-6.67 6.01 -6.34 5.02 -6 4 C-5.34 4 -4.68 4 -4 4 C-4 4.66 -4 5.32 -4 6 C-3.34 6 -2.68 6 -2 6 C-1.855625 5.38125 -1.71125 4.7625 -1.5625 4.125 C-1 2 -1 2 0 0 Z " fill="#EFBDCC" transform="translate(291,155)"/>
<path d="M0 0 C0.99 0 1.98 0 3 0 C2.67 1.32 2.34 2.64 2 4 C2.99 4.33 3.98 4.66 5 5 C5 5.66 5 6.32 5 7 C3.02 7.33 1.04 7.66 -1 8 C-2 6 -2 6 -1.0625 2.875 C-0.5365625 1.451875 -0.5365625 1.451875 0 0 Z " fill="#BAAB8E" transform="translate(319,112)"/>
<path d="M0 0 C2 2 2 2 2 6 C1.34 6 0.68 6 0 6 C0 4.68 0 3.36 0 2 C-1.32 2 -2.64 2 -4 2 C-3.01 3.32 -2.02 4.64 -1 6 C-2.98 6 -4.96 6 -7 6 C-7 4.35 -7 2.7 -7 1 C-3.625 0.375 -3.625 0.375 0 0 Z " fill="#BB9B9D" transform="translate(272,170)"/>
<path d="M0 0 C0.66 0 1.32 0 2 0 C2 2.64 2 5.28 2 8 C0.35 7.67 -1.3 7.34 -3 7 C-2.67 5.35 -2.34 3.7 -2 2 C-1.34 2 -0.68 2 0 2 C0 1.34 0 0.68 0 0 Z " fill="#C5B7A0" transform="translate(289,122)"/>
<path d="M0 0 C2.475 0.99 2.475 0.99 5 2 C5 4.64 5 7.28 5 10 C1.32769295 6.92000054 0.43197635 4.7517398 0 0 Z " fill="#FFE3EE" transform="translate(60,68)"/>
<path d="M0 0 C0.33 0 0.66 0 1 0 C1 2.31 1 4.62 1 7 C-0.65 7 -2.3 7 -4 7 C-4.33 5.68 -4.66 4.36 -5 3 C-3.35 2.67 -1.7 2.34 0 2 C0 1.34 0 0.68 0 0 Z " fill="#CBB1B2" transform="translate(298,169)"/>
<path d="M0 0 C2.31 0.33 4.62 0.66 7 1 C6 3 6 3 5 4 C5.66 4.66 6.32 5.32 7 6 C5.00045254 6.04254356 2.99958364 6.04080783 1 6 C0 5 0 5 -0.0625 2.4375 C-0.041875 1.633125 -0.02125 0.82875 0 0 Z " fill="#C1B29A" transform="translate(278,124)"/>
<path d="M0 0 C1.485 0.99 1.485 0.99 3 2 C5.15274948 1.69159401 5.15274948 1.69159401 7 1 C7 2.65 7 4.3 7 6 C4.69 6 2.38 6 0 6 C0 4.02 0 2.04 0 0 Z " fill="#B9979A" transform="translate(253,182)"/>
<path d="M0 0 C0 0.66 0 1.32 0 2 C1.65 2 3.3 2 5 2 C5 3.65 5 5.3 5 7 C4.67 5.68 4.34 4.36 4 3 C3.34 3 2.68 3 2 3 C2 4.32 2 5.64 2 7 C1.01 7 0.02 7 -1 7 C-1 5.35 -1 3.7 -1 2 C-1.99 1.67 -2.98 1.34 -4 1 C-2 0 -2 0 0 0 Z " fill="#CCB2B3" transform="translate(324,169)"/>
<path d="M0 0 C1.98 0 3.96 0 6 0 C6 1.65 6 3.3 6 5 C4.02 5 2.04 5 0 5 C0 3.35 0 1.7 0 0 Z " fill="#C9BCA6" transform="translate(250,125)"/>
<path d="M0 0 C0.33 0.99 0.66 1.98 1 3 C-1 6 -1 6 -4.125 6.6875 C-5.07375 6.790625 -6.0225 6.89375 -7 7 C-5.54744301 3.17053157 -3.57104439 1.87949705 0 0 Z " fill="#FFE2EE" transform="translate(9,77)"/>
<path d="M0 0 C0.66 0 1.32 0 2 0 C2.33 1.98 2.66 3.96 3 6 C0.69 6 -1.62 6 -4 6 C-4.33 5.01 -4.66 4.02 -5 3 C-4.34 3 -3.68 3 -3 3 C-2.505 2.505 -2.01 2.01 -1.5 1.5 C-1.005 1.005 -0.51 0.51 0 0 Z " fill="#BAAB8E" transform="translate(256,112)"/>
<path d="M0 0 C1.32 0.33 2.64 0.66 4 1 C4 2.65 4 4.3 4 6 C2.35 6 0.7 6 -1 6 C-1.33 4.35 -1.66 2.7 -2 1 C-1.67 1.66 -1.34 2.32 -1 3 C-0.34 2.67 0.32 2.34 1 2 C0.67 1.34 0.34 0.68 0 0 Z " fill="#D7B548" transform="translate(271,97)"/>
<path d="M0 0 C1.98 0 3.96 0 6 0 C6.33 1.65 6.66 3.3 7 5 C6.401875 4.814375 5.80375 4.62875 5.1875 4.4375 C2.83591238 3.77906313 2.83591238 3.77906313 0 5 C0 3.35 0 1.7 0 0 Z " fill="#9C988F" transform="translate(327,241)"/>
<path d="M0 0 C0.33 0 0.66 0 1 0 C1 2.31 1 4.62 1 7 C-0.65 6.67 -2.3 6.34 -4 6 C-3.67 4.68 -3.34 3.36 -3 2 C-2.01 2 -1.02 2 0 2 C0 1.34 0 0.68 0 0 Z " fill="#A3A09F" transform="translate(267,239)"/>
<path d="M0 0 C0.33 0.66 0.66 1.32 1 2 C3.02463255 2.65213292 3.02463255 2.65213292 5 3 C4.67 4.32 4.34 5.64 4 7 C2.68 7 1.36 7 0 7 C0 4.69 0 2.38 0 0 Z " fill="#C1A3A5" transform="translate(340,169)"/>
<path d="M0 0 C0.33 0 0.66 0 1 0 C1 2.31 1 4.62 1 7 C-0.65 6.67 -2.3 6.34 -4 6 C-3.67 4.68 -3.34 3.36 -3 2 C-2.01 2 -1.02 2 0 2 C0 1.34 0 0.68 0 0 Z " fill="#C0A2A3" transform="translate(263,169)"/>
<path d="M0 0 C0.99 0.33 1.98 0.66 3 1 C3.33 2.98 3.66 4.96 4 7 C3.67 6.34 3.34 5.68 3 5 C2.01 5 1.02 5 0 5 C-0.33 5.99 -0.66 6.98 -1 8 C-2.2077558 4.37673261 -1.54311128 3.35853631 0 0 Z " fill="#CB4773" transform="translate(272,154)"/>
<path d="M0 0 C0.33 0 0.66 0 1 0 C1 2.31 1 4.62 1 7 C-0.65 6.67 -2.3 6.34 -4 6 C-3.67 4.68 -3.34 3.36 -3 2 C-2.01 2 -1.02 2 0 2 C0 1.34 0 0.68 0 0 Z " fill="#BEAF95" transform="translate(298,123)"/>
<path d="M0 0 C1.98 0 3.96 0 6 0 C5.01 0.8971875 5.01 0.8971875 4 1.8125 C1.6626154 3.87501834 1.6626154 3.87501834 2 7 C2 7.99 2 8.98 2 10 C1.34 10 0.68 10 0 10 C0 6.7 0 3.4 0 0 Z " fill="#FFA3C7" transform="translate(0,0)"/>
<path d="M0 0 C0.33 0 0.66 0 1 0 C1 2.31 1 4.62 1 7 C-0.65 6.67 -2.3 6.34 -4 6 C-3.67 4.68 -3.34 3.36 -3 2 C-2.01 2 -1.02 2 0 2 C0 1.34 0 0.68 0 0 Z " fill="#A09D9C" transform="translate(259,239)"/>
<path d="M0 0 C0.66 0 1.32 0 2 0 C2 0.66 2 1.32 2 2 C2.99 2.33 3.98 2.66 5 3 C5 4.32 5 5.64 5 7 C3.35 7 1.7 7 0 7 C0 4.69 0 2.38 0 0 Z " fill="#A29F9D" transform="translate(272,227)"/>
<path d="M0 0 C1.65 0 3.3 0 5 0 C4.67 1.65 4.34 3.3 4 5 C2.68 5 1.36 5 0 5 C0 3.35 0 1.7 0 0 Z " fill="#502E6C" transform="translate(215,221)"/>
<path d="M0 0 C0.33 0 0.66 0 1 0 C1 2.31 1 4.62 1 7 C-0.32 7 -1.64 7 -3 7 C-3.33 5.68 -3.66 4.36 -4 3 C-2.68 2.67 -1.36 2.34 0 2 C0 1.34 0 0.68 0 0 Z " fill="#BFAF95" transform="translate(248,123)"/>
<path d="M0 0 C0.66 0 1.32 0 2 0 C2 2.31 2 4.62 2 7 C1.01 7 0.02 7 -1 7 C-1.625 4.625 -1.625 4.625 -2 2 C-1.34 1.34 -0.68 0.68 0 0 Z " fill="#FFE2EE" transform="translate(39,101)"/>
<path d="M0 0 C0.66 0 1.32 0 2 0 C4 3 4 3 4 7 C1.525 6.01 1.525 6.01 -1 5 C-0.67 3.35 -0.34 1.7 0 0 Z " fill="#FFE2EE" transform="translate(60,94)"/>
<path d="M0 0 C1.32 0 2.64 0 4 0 C4 1.65 4 3.3 4 5 C2.35 4.67 0.7 4.34 -1 4 C-0.67 2.68 -0.34 1.36 0 0 Z " fill="#BFBCBB" transform="translate(301,229)"/>
<path d="M0 0 C2.64 0 5.28 0 8 0 C7.01 0.495 7.01 0.495 6 1 C6 1.99 6 2.98 6 4 C6.66 4.33 7.32 4.66 8 5 C5.36 5 2.72 5 0 5 C0.66 4.01 1.32 3.02 2 2 C1.34 1.34 0.68 0.68 0 0 Z " fill="#93908F" transform="translate(254,229)"/>
<path d="M0 0 C2.475 0.495 2.475 0.495 5 1 C4.67 1.99 4.34 2.98 4 4 C3.01 4 2.02 4 1 4 C1 4.66 1 5.32 1 6 C1.99 6.33 2.98 6.66 4 7 C2.68 7 1.36 7 0 7 C0 4.69 0 2.38 0 0 Z " fill="#8C8987" transform="translate(245,227)"/>
<path d="M0 0 C1.65 0 3.3 0 5 0 C5.33 1.32 5.66 2.64 6 4 C4.02 4 2.04 4 0 4 C0 2.68 0 1.36 0 0 Z " fill="#482566" transform="translate(215,228)"/>
<path d="M0 0 C0.99 0.495 0.99 0.495 2 1 C2.33 1 2.66 1 3 1 C3.99 1 4.98 1 6 1 C6 1.99 6 2.98 6 4 C4.35 4.66 2.7 5.32 1 6 C0 5 0 5 -0.0625 2.4375 C-0.041875 1.633125 -0.02125 0.82875 0 0 Z " fill="#B8B4B0" transform="translate(319,229)"/>
<path d="M0 0 C0.33 0 0.66 0 1 0 C1 2.31 1 4.62 1 7 C-0.32 7 -1.64 7 -3 7 C-3 5.35 -3 3.7 -3 2 C-2.01 2 -1.02 2 0 2 C0 1.34 0 0.68 0 0 Z " fill="#C0A2A3" transform="translate(359,181)"/>
<path d="M0 0 C0.33 0.66 0.66 1.32 1 2 C1.99 2 2.98 2 4 2 C4 3.65 4 5.3 4 7 C2.68 7 1.36 7 0 7 C0 4.69 0 2.38 0 0 Z " fill="#C0A2A3" transform="translate(336,181)"/>
<path d="M0 0 C0.33 0 0.66 0 1 0 C1 2.31 1 4.62 1 7 C-0.32 7 -1.64 7 -3 7 C-3 5.35 -3 3.7 -3 2 C-2.01 2 -1.02 2 0 2 C0 1.34 0 0.68 0 0 Z " fill="#BE9FA0" transform="translate(310,181)"/>
<path d="M0 0 C1.98 0.495 1.98 0.495 4 1 C4 2.65 4 4.3 4 6 C2.35 6 0.7 6 -1 6 C0 3 0 3 1 2 C0.67 1.34 0.34 0.68 0 0 Z " fill="#CC4B76" transform="translate(253,155)"/>
<path d="M0 0 C0.33 0.99 0.66 1.98 1 3 C1.99 3 2.98 3 4 3 C3.67 4.65 3.34 6.3 3 8 C2.01 8 1.02 8 0 8 C0 5.36 0 2.72 0 0 Z " fill="#C0B197" transform="translate(314,122)"/>
<path d="M0 0 C0.66 0 1.32 0 2 0 C2 2.64 2 5.28 2 8 C1.01 7.67 0.02 7.34 -1 7 C-1.04254356 5.00045254 -1.04080783 2.99958364 -1 1 C-0.67 0.67 -0.34 0.34 0 0 Z " fill="#E1C572" transform="translate(251,95)"/>
<path d="M0 0 C0.66 0 1.32 0 2 0 C2 0.66 2 1.32 2 2 C2.66 2.33 3.32 2.66 4 3 C3.01 3.495 3.01 3.495 2 4 C1.34444881 6.52733235 1.34444881 6.52733235 1 9 C0.67 9 0.34 9 0 9 C0 7.35 0 5.7 0 4 C-0.66 4 -1.32 4 -2 4 C-2 3.34 -2 2.68 -2 2 C-1.34 2 -0.68 2 0 2 C0 1.34 0 0.68 0 0 Z " fill="#F7F5F7" transform="translate(213,217)"/>
<path d="M0 0 C0.99 0.33 1.98 0.66 3 1 C3 2.65 3 4.3 3 6 C1.68 6 0.36 6 -1 6 C-1.042721 4.33388095 -1.04063832 2.66617115 -1 1 C-0.67 0.67 -0.34 0.34 0 0 Z " fill="#BFB196" transform="translate(301,124)"/>
<path d="M0 0 C0.99 0.33 1.98 0.66 3 1 C3 2.65 3 4.3 3 6 C1.68 6 0.36 6 -1 6 C-1.042721 4.33388095 -1.04063832 2.66617115 -1 1 C-0.67 0.67 -0.34 0.34 0 0 Z " fill="#BFB197" transform="translate(261,112)"/>
<path d="M0 0 C2 2 2 2 2.1953125 4.1640625 C2.16050781 5.38222656 2.16050781 5.38222656 2.125 6.625 C2.10695313 7.44226563 2.08890625 8.25953125 2.0703125 9.1015625 C2.04710937 9.72804688 2.02390625 10.35453125 2 11 C-0.31309135 8.49415104 -0.97826344 7.27714111 -1.25 3.8125 C-1 1 -1 1 0 0 Z " fill="#FFE2EE" transform="translate(27,73)"/>
<path d="M0 0 C2.64 0 5.28 0 8 0 C5.87219421 2.34058637 3.88437779 3.70700306 1 5 C0.67 3.35 0.34 1.7 0 0 Z " fill="#FFABCC" transform="translate(13,0)"/>
<path d="M0 0 C0.99 0 1.98 0 3 0 C3 1.98 3 3.96 3 6 C1.35 6 -0.3 6 -2 6 C-1.34 5.67 -0.68 5.34 0 5 C0 3.35 0 1.7 0 0 Z " fill="#FFFFFF" transform="translate(223,171)"/>
<path d="M0 0 C0.99 0.99 1.98 1.98 3 3 C2.67 3.99 2.34 4.98 2 6 C0.68 5.67 -0.64 5.34 -2 5 C-1.125 1.125 -1.125 1.125 0 0 Z " fill="#BFB095" transform="translate(285,112)"/>
<path d="M0 0 C2.475 0.99 2.475 0.99 5 2 C5 3.32 5 4.64 5 6 C2.525 5.01 2.525 5.01 0 4 C0 2.68 0 1.36 0 0 Z " fill="#FFE2EE" transform="translate(74,48)"/>
<path d="M0 0 C0.66 0 1.32 0 2 0 C2.33 2.31 2.66 4.62 3 7 C2.01 7 1.02 7 0 7 C0 4.69 0 2.38 0 0 Z " fill="#C3BEBF" transform="translate(283,227)"/>
<path d="M0 0 C0.99 0 1.98 0 3 0 C3 1.98 3 3.96 3 6 C1.68 6 0.36 6 -1 6 C-1 3 -1 3 0 0 Z " fill="#CC4A75" transform="translate(310,155)"/>
<path d="M0 0 C1.65 0.33 3.3 0.66 5 1 C5 1.99 5 2.98 5 4 C1 4 1 4 -1 3 C-0.67 2.01 -0.34 1.02 0 0 Z " fill="#FFE4EF" transform="translate(67,65)"/>
<path d="M0 0 C1.32 0.33 2.64 0.66 4 1 C3.67 2.32 3.34 3.64 3 5 C2.01 5 1.02 5 0 5 C0 3.35 0 1.7 0 0 Z " fill="#F7E0E7" transform="translate(246,155)"/>
<path d="M0 0 C0.99 0 1.98 0 3 0 C3 1.65 3 3.3 3 5 C2.01 5.33 1.02 5.66 0 6 C-0.38218767 4.34385343 -0.71395102 2.67542976 -1 1 C-0.67 0.67 -0.34 0.34 0 0 Z " fill="#C5B8A0" transform="translate(306,112)"/>
<path d="M0 0 C1.32 0.33 2.64 0.66 4 1 C3.67 2.32 3.34 3.64 3 5 C2.01 5 1.02 5 0 5 C0 3.35 0 1.7 0 0 Z " fill="#F6E8D3" transform="translate(264,97)"/>
<path d="M0 0 C0.99 0.33 1.98 0.66 3 1 C3 2.32 3 3.64 3 5 C1.35 4.67 -0.3 4.34 -2 4 C-1.34 2.68 -0.68 1.36 0 0 Z " fill="#9C9997" transform="translate(246,241)"/>
<path d="M0 0 C1.98 0.495 1.98 0.495 4 1 C3.67 2.32 3.34 3.64 3 5 C1.68 4.67 0.36 4.34 -1 4 C-0.67 2.68 -0.34 1.36 0 0 Z " fill="#B28E8F" transform="translate(289,183)"/>
</svg>
