<?xml version="1.0" encoding="UTF-8"?>
<svg version="1.1" xmlns="http://www.w3.org/2000/svg" width="400" height="400">
<path d="M0 0 C132 0 264 0 400 0 C400 132 400 264 400 400 C268 400 136 400 0 400 C0 268 0 136 0 0 Z " fill="#DBEDEC" transform="translate(0,0)"/>
<path d="M0 0 C7.23480334 4.46960667 7.23480334 4.46960667 9 8 C6.50629873 6.84906095 4.39124515 5.57651836 2.125 4 C-3.68318029 0.28276461 -8.67827568 -0.28242752 -15.375 -0.125 C-16.11105469 -0.11597656 -16.84710938 -0.10695312 -17.60546875 -0.09765625 C-19.4037888 -0.07430144 -21.20193911 -0.03843836 -23 0 C-16.7134649 12.5730702 -6.4541346 21.48818085 6.72265625 26.3828125 C9.7906665 27.33760133 12.89309082 28.18059538 16 29 C15.505 23.06 15.505 23.06 15 17 C18.58330868 20.58330868 19.12997672 25.41044608 19.3125 30.3125 C19.02676402 40.21241114 15.06150837 48.55007852 8.37109375 55.75390625 C6.65944089 57.33847584 4.92334389 58.68170804 3 60 C2.401875 60.41378906 1.80375 60.82757813 1.1875 61.25390625 C-6.27372727 65.43627388 -15.7310093 65.18610268 -24 64 C-32.59634256 61.49391554 -39.06393237 56.4338368 -44 49 C-48.14265989 40.77506885 -50.58548597 32.37818355 -48.31640625 23.25 C-45.0772897 13.57297131 -39.89623094 6.19330925 -31 1 C-20.61782969 -4.01208222 -10.6543144 -4.69482797 0 0 Z " fill="#0887D5" transform="translate(181,232)"/>
<path d="M0 0 C7.95124803 5.63674826 14.93458266 13.23620893 17 23 C18.082549 34.30847341 15.56370889 43.45604616 8.46484375 52.34375 C7.03342962 53.96220225 5.54803761 55.49330464 4 57 C3.01 56.505 3.01 56.505 2 56 C3.98 53.69 5.96 51.38 8 49 C-8.3700872 43.87863194 -24.81634901 42.384785 -41 49 C-39.79618552 51.49361571 -38.54571278 53.68143083 -37 56 C-40.24790781 54.61806082 -41.97508798 53.14581391 -44.0625 50.3125 C-44.54847656 49.66925781 -45.03445312 49.02601563 -45.53515625 48.36328125 C-51.04803691 39.46916712 -51.37591271 30.22361026 -50 20 C-48.63188449 15.73070338 -46.77256056 12.5041231 -44 9 C-43.47019531 8.32710937 -42.94039062 7.65421875 -42.39453125 6.9609375 C-31.39431843 -5.31958512 -14.38466594 -7.15397386 0 0 Z " fill="#04F261" transform="translate(226,101)"/>
<path d="M0 0 C8.45489619 1.91884169 14.5883368 6.1605848 19.60546875 13.27734375 C24.44981586 21.58802722 25.98997295 29.42015248 24.3125 38.875 C21.60935833 48.31748117 17.21610405 55.4371464 9 61 C-0.07878588 65.95206503 -10.86870878 66.71412582 -20.8125 63.9375 C-30.36442924 60.12027921 -36.71916606 52.95934472 -41.03125 43.8125 C-44.08104635 35.90562058 -44.12329653 28.18187346 -41 20.3125 C-40.35227582 18.86636581 -39.69251774 17.42522625 -39 16 C-37.92137019 19.63566133 -38.32332231 20.64664461 -40 24 C-40.04238449 25.99955084 -40.04630911 28.00053621 -40 30 C-21.59847575 24.61115956 -9.91164819 16.66000441 0 0 Z " fill="#05B0DF" transform="translate(261,231)"/>
<path d="M0 0 C7.43715156 5.30148304 13.50168705 12.08294454 16 21 C17.11817418 31.51820991 16.11725032 41.04560918 9.875 49.75 C3.50932909 57.31926415 -4.77833685 62.12953167 -14.625 63.31640625 C-24.50179 63.75132172 -32.66632824 60.51100043 -40.44140625 54.5625 C-42.15537273 52.84423787 -43.0401695 51.21572813 -44 49 C-43.5153125 49.38671875 -43.030625 49.7734375 -42.53125 50.171875 C-37.88787584 53.77941954 -33.33286677 56.52402614 -28 59 C-28.37923331 43.33766414 -29.92812621 26.02598826 -41.71484375 14.29296875 C-43 13 -43 13 -43 11 C-43.66 11 -44.32 11 -45 11 C-42.04817648 4.23602248 -35.4287497 -0.64565426 -28.67578125 -3.33984375 C-19.04517711 -5.71586141 -8.7147413 -4.7763486 0 0 Z " fill="#07D6B5" transform="translate(296,152)"/>
<path d="M0 0 C3.61744099 2.56560046 6.68845293 5.40815436 9.5390625 8.80078125 C8.21215344 11.65583676 6.69950045 13.97912997 4.7265625 16.42578125 C-5.20747379 29.50963392 -6.95831563 42.89019923 -7.4609375 58.80078125 C-6.1409375 59.13078125 -4.8209375 59.46078125 -3.4609375 59.80078125 C-14.02532558 63.50603636 -22.89920869 64.07431314 -33.4609375 59.80078125 C-41.56962611 55.15248841 -47.1471055 48.03205359 -50.8984375 39.55078125 C-52.52746097 28.69062478 -52.48672416 18.66062275 -45.8125 9.55078125 C-33.95145078 -4.53745189 -16.55957628 -9.55711083 0 0 Z " fill="#4C589E" transform="translate(157.4609375,152.19921875)"/>
<path d="M0 0 C0.33 0 0.66 0 1 0 C1 25.74 1 51.48 1 78 C-0.65 76.35 -2.3 74.7 -4 73 C-4.5775 72.484375 -5.155 71.96875 -5.75 71.4375 C-7 70 -7 70 -7.5 67.9375 C-7.87267251 65.60312807 -7.87267251 65.60312807 -11 64 C-11.37147598 62.6767863 -11.70212265 61.34169966 -12 60 C-13.09999987 58.19185775 -13.09999987 58.19185775 -14.4375 56.5 C-19 50.32875723 -19 50.32875723 -19 46 C-19.66 45.01 -20.32 44.02 -21 43 C-21 34.72628244 -17.23081843 24.35742647 -11.43359375 18.38671875 C-10.96050781 17.92910156 -10.48742187 17.47148437 -10 17 C-8.9063313 15.13625584 -8.9063313 15.13625584 -8 13.125 C-3.78701456 4.39350728 -3.78701456 4.39350728 -1 3 C-0.67 2.01 -0.34 1.02 0 0 Z " fill="#B6F3EE" transform="translate(399,273)"/>
<path d="M0 0 C5.10469964 5.59086152 6.55515978 13.09570596 6.28125 20.45703125 C5.06742683 31.43201576 -0.05369338 38.638984 -8.09375 45.87109375 C-10.6486933 47.38416468 -13.07894474 47.6430733 -16 48 C-16.86053597 31.30560211 -14.53752486 17.69642493 -4 4 C-2.69227832 2.6415378 -1.36580289 1.30005308 0 0 Z " fill="#FBFBFC" transform="translate(166,163)"/>
<path d="M0 0 C0.66 0 1.32 0 2 0 C3.5516192 1.86255272 4.94012375 3.69766711 6.3125 5.6875 C6.71404297 6.26822266 7.11558594 6.84894531 7.52929688 7.44726562 C14.23985304 17.51852035 17.19286953 27.84858873 17.0625 39.8125 C17.05798828 40.60076172 17.05347656 41.38902344 17.04882812 42.20117188 C17.03711312 44.13414761 17.01917998 46.06708393 17 48 C10.42933551 47.04011162 6.05490836 43.27706062 1.6875 38.4375 C-4.16162104 29.98876961 -6.26169392 22.00962992 -4.65234375 11.79296875 C-3.68319761 7.53361218 -2.09869782 3.81581423 0 0 Z " fill="#F9FDFD" transform="translate(251,163)"/>
<path d="M0 0 C0.87527344 0.00273926 1.75054687 0.00547852 2.65234375 0.00830078 C11.01525406 0.14263852 18.79730552 1.34463025 26.25 5.3125 C24.36670625 10.39739312 20.51151244 13.18357053 15.83203125 15.51953125 C6.82914034 19.19603649 -2.46184401 19.89251077 -11.64453125 16.36328125 C-16.89541297 13.74271134 -21.38674566 10.81092593 -23.75 5.3125 C-15.95442467 1.02493357 -8.73736198 -0.05536347 0 0 Z " fill="#FAFEFC" transform="translate(207.75,144.6875)"/>
<path d="M0 0 C17.436706 -0.77021033 17.436706 -0.77021033 25 4 C25.62132812 4.350625 26.24265625 4.70125 26.8828125 5.0625 C32.97617868 8.86096203 36.52789063 14.65429688 39.375 21.125 C40.10483114 24.48222324 40.13700805 27.57479882 40 31 C24.10377924 28.0405972 11.21093254 19.68367283 1.875 6.4375 C0.90355905 4.96690852 -0.06001921 3.49089668 -1 2 C-0.67 1.34 -0.34 0.68 0 0 Z " fill="#FAFDFE" transform="translate(158,231)"/>
<path d="M0 0 C1.175625 0.01353516 1.175625 0.01353516 2.375 0.02734375 C4.29180055 0.05071937 6.20844191 0.08658347 8.125 0.125 C3.63473401 12.51119265 -7.17936185 21.3945383 -18.7890625 26.87109375 C-23.38050867 28.73673201 -28.04439325 30.0409662 -32.875 31.125 C-33.56152279 23.05835718 -30.70662269 17.02709268 -25.5625 10.875 C-18.04525755 2.8116331 -11.01927098 -0.2427975 0 0 Z " fill="#FBFDFE" transform="translate(252.875,230.875)"/>
<path d="M0 0 C11.59023376 -1.1989897 11.59023376 -1.1989897 16.25 2.5 C20.33277376 7.2980042 19.70942755 13.59224452 19.44140625 19.55078125 C19 23 19 23 17 25 C14.29077199 25.19852102 11.70696821 25.27839477 9 25.25 C8.26265625 25.25773437 7.5253125 25.26546875 6.765625 25.2734375 C1.2533196 25.2533196 1.2533196 25.2533196 -1 23 C-1.24291992 20.87695312 -1.24291992 20.87695312 -1.23046875 18.28125 C-1.22853516 17.34925781 -1.22660156 16.41726562 -1.22460938 15.45703125 C-1.21236328 14.48121094 -1.20011719 13.50539063 -1.1875 12.5 C-1.18685547 11.52417969 -1.18621094 10.54835938 -1.18554688 9.54296875 C-1.14034598 2.28069196 -1.14034598 2.28069196 0 0 Z " fill="#E9FDF1" transform="translate(200,111)"/>
<path d="M0 0 C5.94 0 11.88 0 18 0 C18 2.31 18 4.62 18 7 C15.36 7 12.72 7 10 7 C10 7.99 10 8.98 10 10 C13.3 10 16.6 10 20 10 C20 11.65 20 13.3 20 15 C20.99 15 21.98 15 23 15 C23 17.31 23 19.62 23 22 C20.69 22 18.38 22 16 22 C16 19.69 16 17.38 16 15 C16.99 15 17.98 15 19 15 C19 14.01 19 13.02 19 12 C15.7 12 12.4 12 9 12 C9 12.99 9 13.98 9 15 C9.99 15 10.98 15 12 15 C12 17.31 12 19.62 12 22 C9.69 22 7.38 22 5 22 C5 19.69 5 17.38 5 15 C5.99 15 6.98 15 8 15 C8 14.01 8 13.02 8 12 C4.7 12 1.4 12 -2 12 C-2 12.99 -2 13.98 -2 15 C-1.01 15 -0.02 15 1 15 C1 17.31 1 19.62 1 22 C-1.31 22 -3.62 22 -6 22 C-6 19.69 -6 17.38 -6 15 C-5.01 15 -4.02 15 -3 15 C-3 13.68 -3 12.36 -3 11 C0.63 11 4.26 11 8 11 C8 9.68 8 8.36 8 7 C5.36 7 2.72 7 0 7 C0 4.69 0 2.38 0 0 Z " fill="#F5FDFC" transform="translate(277,168)"/>
<path d="M0 0 C0.66 0 1.32 0 2 0 C2.33 0.99 2.66 1.98 3 3 C3.66 2.34 4.32 1.68 5 1 C9.94576735 0.67568739 13.49016424 0.74508212 18 3 C18 2.01 18 1.02 18 0 C18.66 0 19.32 0 20 0 C19.46274105 3.37705625 18.88935377 6.696686 18 10 C19.32 10.33 20.64 10.66 22 11 C20.68 11 19.36 11 18 11 C18.66 14.3 19.32 17.6 20 21 C19.34 21 18.68 21 18 21 C17.67 20.34 17.34 19.68 17 19 C15.02 19.33 13.04 19.66 11 20 C11 14.72 11 9.44 11 4 C10.34 4 9.68 4 9 4 C9 9.28 9 14.56 9 20 C6.69 19.67 4.38 19.34 2 19 C1.34 19.66 0.68 20.32 0 21 C0.58803797 17.97580475 1.22678118 14.98241547 2 12 C0.35 12 -1.3 12 -3 12 C-3 11.34 -3 10.68 -3 10 C-1.35 10 0.3 10 2 10 C1.505 8.9171875 1.505 8.9171875 1 7.8125 C-0.00603529 4.98302573 -0.16977402 2.97104534 0 0 Z " fill="#F0F7FC" transform="translate(152,260)"/>
<path d="M0 0 C2.81256281 -0.02684312 5.62487241 -0.04676188 8.4375 -0.0625 C9.23994141 -0.07087891 10.04238281 -0.07925781 10.86914062 -0.08789062 C12.91295221 -0.0965143 14.95683902 -0.0522815 17 0 C18 1 18 1 18.1328125 3.46875 C18.13023437 4.4690625 18.12765625 5.469375 18.125 6.5 C18.12886719 8.00046875 18.12886719 8.00046875 18.1328125 9.53125 C18 12 18 12 17 13 C14.3226862 13.09981214 11.67695825 13.13879875 9 13.125 C7.87464844 13.13080078 7.87464844 13.13080078 6.7265625 13.13671875 C1.12661053 13.12661053 1.12661053 13.12661053 0 12 C-0.07244053 9.98035801 -0.08377188 7.95832876 -0.0625 5.9375 C-0.05347656 4.83277344 -0.04445312 3.72804688 -0.03515625 2.58984375 C-0.02355469 1.73519531 -0.01195312 0.88054687 0 0 Z " fill="#F2FEF7" transform="translate(200,123)"/>
<path d="M0 0 C2.3125 0.125 2.3125 0.125 5 1 C5.61875 2.299375 5.61875 2.299375 6.25 3.625 C8.4384313 7.84554608 11.28259611 10.61396529 14.6875 13.875 C15.29400391 14.46796875 15.90050781 15.0609375 16.52539062 15.671875 C18.01014785 17.12155922 19.50414991 18.56176468 21 20 C20.34 21.32 19.68 22.64 19 24 C15.39313465 22.43982103 12.78799396 20.24234682 9.875 17.625 C9.00617188 16.85414063 8.13734375 16.08328125 7.2421875 15.2890625 C5.21663312 13.22116203 4.07807367 11.65278801 3 9 C1.35 9 -0.3 9 -2 9 C-2.33 7.35 -2.66 5.7 -3 4 C-2.01 4.33 -1.02 4.66 0 5 C0 3.68 0 2.36 0 1 C0 0.67 0 0.34 0 0 Z " fill="#EBECF4" transform="translate(124,167)"/>
<path d="M0 0 C1.12588014 0.95729916 2.2506715 1.91587895 3.375 2.875 C4.00148438 3.40867187 4.62796875 3.94234375 5.2734375 4.4921875 C6.55836651 5.61432007 7.79371975 6.79371975 9 8 C10.32 7.34 11.64 6.68 13 6 C13.66 6.66 14.32 7.32 15 8 C15.33 7.34 15.66 6.68 16 6 C17.98 6 19.96 6 22 6 C22 7.66666667 22 9.33333333 22 11 C12.43 11 2.86 11 -7 11 C-5.11656068 5.34968203 -4.19098872 3.74983202 0 0 Z " fill="#E1F1F8" transform="translate(263,389)"/>
<path d="M0 0 C3.96 0 7.92 0 12 0 C10.515 2.475 10.515 2.475 9 5 C9.58800462 8.59972085 9.58800462 8.59972085 11 12 C11.268125 12.763125 11.53625 13.52625 11.8125 14.3125 C13.46487828 16.66061651 15.31774929 17.15297346 18 18 C18 21 18 21 16 24 C12.2038649 22.73462163 11.84505245 21.44944589 10 18 C9 16 9 16 8 14 C6.64599355 11.27018168 6.64599355 11.27018168 5 9 C4.01 9 3.02 9 2 9 C0.9986012 5.99580359 0.48578543 3.12290635 0 0 Z " fill="#E1F5F0" transform="translate(258,0)"/>
<path d="M0 0 C2.86724686 0.57344937 3.8614515 0.8614515 6 3 C8.32275177 3.40047444 10.65739357 3.7397104 13 4 C13 7 13 7 11 9.1875 C10.01 10.0846875 10.01 10.0846875 9 11 C9.33 11.66 9.66 12.32 10 13 C9.67 13.66 9.34 14.32 9 15 C9.66 15 10.32 15 11 15 C10.67 15.66 10.34 16.32 10 17 C9.34 16.67 8.68 16.34 8 16 C8.33 16.99 8.66 17.98 9 19 C7.35 19.33 5.7 19.66 4 20 C4 17.33333333 4 14.66666667 4 12 C3.175 11.54625 2.35 11.0925 1.5 10.625 C0.2625 9.820625 0.2625 9.820625 -1 9 C-1.49308788 5.7949288 -0.91459364 3.08675352 0 0 Z " fill="#B3E4DC" transform="translate(372,102)"/>
<path d="M0 0 C0.66 0.33 1.32 0.66 2 1 C2.33 1.99 2.66 2.98 3 4 C2.34 4 1.68 4 1 4 C1 4.99 1 5.98 1 7 C3.31 6.34 5.62 5.68 8 5 C8.78375 5.804375 9.5675 6.60875 10.375 7.4375 C12.71982856 9.98690417 12.71982856 9.98690417 15 11 C15 19.91 15 28.82 15 38 C14.67 38 14.34 38 14 38 C13.98541748 37.28344238 13.97083496 36.56688477 13.95581055 35.82861328 C13.88151 32.59352017 13.78479139 29.35947981 13.6875 26.125 C13.66494141 24.99707031 13.64238281 23.86914062 13.61914062 22.70703125 C13.5659668 21.09248047 13.5659668 21.09248047 13.51171875 19.4453125 C13.48553467 18.45031738 13.45935059 17.45532227 13.43237305 16.43017578 C13.28968994 15.62821777 13.14700684 14.82625977 13 14 C9.46476044 11.64317363 6.63889343 11.24583401 2.5 10.625 C-0.4013841 9.89965397 -2.51237161 8.63472723 -5 7 C-4.60196439 4.11424181 -4.20990931 3.17810487 -1.9375 1.25 C-1.298125 0.8375 -0.65875 0.425 0 0 Z " fill="#BEE5E6" transform="translate(385,172)"/>
<path d="M0 0 C0.66 0 1.32 0 2 0 C4 3 4 3 4 6 C4.66 6 5.32 6 6 6 C6 5.01 6 4.02 6 3 C6.66 3 7.32 3 8 3 C8 5.31 8 7.62 8 10 C6.35 10.33 4.7 10.66 3 11 C3 10.34 3 9.68 3 9 C2.2575 9 1.515 9 0.75 9 C-6 9 -6 9 -9 8 C-9.33 7.34 -9.66 6.68 -10 6 C-10.33 6.66 -10.66 7.32 -11 8 C-11.66 8 -12.32 8 -13 8 C-13 6.35 -13 4.7 -13 3 C-11.35 3 -9.7 3 -8 3 C-7.67 3.99 -7.34 4.98 -7 6 C-6.34 5.01 -5.68 4.02 -5 3 C-3.68 3.33 -2.36 3.66 -1 4 C-0.67 2.68 -0.34 1.36 0 0 Z " fill="#8CADA6" transform="translate(326,86)"/>
<path d="M0 0 C0.99 0.33 1.98 0.66 3 1 C3.33 2.98 3.66 4.96 4 7 C5.65 6.34 7.3 5.68 9 5 C9.20496094 5.62648438 9.40992188 6.25296875 9.62109375 6.8984375 C9.89050781 7.71570313 10.15992188 8.53296875 10.4375 9.375 C10.83775391 10.59316406 10.83775391 10.59316406 11.24609375 11.8359375 C11.95179729 14.01031799 11.95179729 14.01031799 13 16 C8.375 18.125 8.375 18.125 5 17 C5.33 16.01 5.66 15.02 6 14 C5.360625 13.484375 4.72125 12.96875 4.0625 12.4375 C1.42335363 9.31850884 1.36456075 7.01016825 1 3 C0.67 2.01 0.34 1.02 0 0 Z " fill="#C7DEC7" transform="translate(11,259)"/>
<path d="M0 0 C2.8992226 0.46761655 3.86675182 0.86675182 6 3 C9.27275026 3 11.846632 2.70074844 15 2 C15 3.98 15 5.96 15 8 C13.54207116 8.05399736 12.08357288 8.09279177 10.625 8.125 C9.81289063 8.14820313 9.00078125 8.17140625 8.1640625 8.1953125 C6 8 6 8 4 6 C3.34 6.66 2.68 7.32 2 8 C1.01 8 0.02 8 -1 8 C-1.04241723 5.66705225 -1.04092937 3.33297433 -1 1 C-0.67 0.67 -0.34 0.34 0 0 Z " fill="#758884" transform="translate(320,162)"/>
<path d="M0 0 C0.33 0.66 0.66 1.32 1 2 C1.66 2.33 2.32 2.66 3 3 C2.34 3 1.68 3 1 3 C1.34786708 4.97536745 1.34786708 4.97536745 2 7 C2.66 7.33 3.32 7.66 4 8 C3.79375 8.53625 3.5875 9.0725 3.375 9.625 C2.79019703 12.13148816 2.79019703 12.13148816 4 14.9375 C5.06565385 18.20106491 4.95231147 19.76214101 4 23 C3.71125 22.360625 3.4225 21.72125 3.125 21.0625 C2.17176549 18.84793921 2.17176549 18.84793921 0 18 C-0.75752832 15.32637065 -1.40418535 12.70684758 -2 10 C-2.268125 9.113125 -2.53625 8.22625 -2.8125 7.3125 C-3.07160476 4.1168746 -1.8214815 2.5500741 0 0 Z M2 17 C3 19 3 19 3 19 Z " fill="#CBEFF0" transform="translate(366,184)"/>
<path d="M0 0 C3.81684226 1.55500981 6.19195732 4.03595495 9 7 C7.44499019 10.81684226 4.96404505 13.19195732 2 16 C1.01 15.67 0.02 15.34 -1 15 C0.33333333 12.33333333 1.66666667 9.66666667 3 7 C1.68 5.68 0.36 4.36 -1 3 C-0.67 2.01 -0.34 1.02 0 0 Z " fill="#E4F6FB" transform="translate(262,261)"/>
<path d="M0 0 C0.99 0.33 1.98 0.66 3 1 C1.66666667 3.66666667 0.33333333 6.33333333 -1 9 C0.32 10.32 1.64 11.64 3 13 C2.67 13.99 2.34 14.98 2 16 C-1.81684226 14.44499019 -4.19195732 11.96404505 -7 9 C-5.44499019 5.18315774 -2.96404505 2.80804268 0 0 Z " fill="#EBF8FB" transform="translate(249,261)"/>
<path d="M0 0 C0.66 0 1.32 0 2 0 C1.38955672 7.63054095 -0.79621821 14.70189474 -3 22 C-3.99 22 -4.98 22 -6 22 C-5.37987481 19.26964299 -4.75409113 16.54079236 -4.125 13.8125 C-3.95097656 13.04357422 -3.77695313 12.27464844 -3.59765625 11.48242188 C-2.67454956 7.49938746 -1.66927814 3.75211617 0 0 Z " fill="#DBF3F9" transform="translate(258,258)"/>
<path d="M0 0 C1.98 0.99 1.98 0.99 4 2 C4 2.66 4 3.32 4 4 C5.98 4 7.96 4 10 4 C10.28875 4.639375 10.5775 5.27875 10.875 5.9375 C11.82823451 8.15206079 11.82823451 8.15206079 14 9 C15.35432675 10.31200404 16.68733482 11.64631404 18 13 C18.66 13.66 19.32 14.32 20 15 C18.68 15 17.36 15 16 15 C16 14.34 16 13.68 16 13 C15.071875 12.731875 14.14375 12.46375 13.1875 12.1875 C10.1688359 11.06289965 9.0844857 10.29293427 7 8 C6.34 8 5.68 8 5 8 C3.97895449 7.02149805 2.9793879 6.02019573 2 5 C1.34 4.67 0.68 4.34 0 4 C0 2.68 0 1.36 0 0 Z " fill="#DDE7DA" transform="translate(0,186)"/>
<path d="M0 0 C2.8203125 0.2421875 2.8203125 0.2421875 6.125 0.875 C7.22070312 1.07867187 8.31640625 1.28234375 9.4453125 1.4921875 C10.28835937 1.65976563 11.13140625 1.82734375 12 2 C12 2.66 12 3.32 12 4 C12.66 4 13.32 4 14 4 C14 4.66 14 5.32 14 6 C13.34 6 12.68 6 12 6 C12 6.66 12 7.32 12 8 C11.34 8 10.68 8 10 8 C9.67 8.66 9.34 9.32 9 10 C8.67 9.01 8.34 8.02 8 7 C6.68 7 5.36 7 4 7 C3.67 5.68 3.34 4.36 3 3 C1.35 2.67 -0.3 2.34 -2 2 C-1.34 1.34 -0.68 0.68 0 0 Z " fill="#E4E9E2" transform="translate(7,179)"/>
<path d="M0 0 C0.7425 0.185625 1.485 0.37125 2.25 0.5625 C4.94990963 0.99203108 6.44631077 0.85122974 9 0 C9.66 2.31 10.32 4.62 11 7 C10.01 7.33 9.02 7.66 8 8 C8 7.34 8 6.68 8 6 C5.03 5.67 2.06 5.34 -1 5 C-0.67 3.35 -0.34 1.7 0 0 Z " fill="#768582" transform="translate(247,89)"/>
<path d="M0 0 C4 0 8 0 12 0 C12.33 1.65 12.66 3.3 13 5 C8.33333333 5 3.66666667 5 -1 5 C-0.67 3.35 -0.34 1.7 0 0 Z " fill="#809793" transform="translate(272,89)"/>
<path d="M0 0 C1.98 0 3.96 0 6 0 C6 0.66 6 1.32 6 2 C7.32 2.33 8.64 2.66 10 3 C10 4.65 10 6.3 10 8 C9.236875 7.814375 8.47375 7.62875 7.6875 7.4375 C4.91032625 6.77180827 4.91032625 6.77180827 2 8 C2 6.02 2 4.04 2 2 C1.34 2 0.68 2 0 2 C0 1.34 0 0.68 0 0 Z " fill="#727D7A" transform="translate(21,285)"/>
<path d="M0 0 C0.33 0.66 0.66 1.32 1 2 C1.66 2.33 2.32 2.66 3 3 C2.34 3.99 1.68 4.98 1 6 C2.98 4.68 4.96 3.36 7 2 C7.66 2.66 8.32 3.32 9 4 C9.33 2.68 9.66 1.36 10 0 C10.66 0 11.32 0 12 0 C13 3 13 3 12 6 C12.66 6 13.32 6 14 6 C14 6.66 14 7.32 14 8 C11.125 8.1875 11.125 8.1875 8 8 C7.34 7.01 6.68 6.02 6 5 C5.01 5.99 4.02 6.98 3 8 C2.01 7.67 1.02 7.34 0 7 C0 4.69 0 2.38 0 0 Z " fill="#657270" transform="translate(332,285)"/>
<path d="M0 0 C1.32 0.66 2.64 1.32 4 2 C2.55746343 5.36591866 0.66735273 7.51047079 -2 10 C-3.32 9.34 -4.64 8.68 -6 8 C-4.55746343 4.63408134 -2.66735273 2.48952921 0 0 Z " fill="#F1F2F7" transform="translate(126,181)"/>
<path d="M0 0 C-0.1875 2.3125 -0.1875 2.3125 -1 5 C-3.375 6.875 -3.375 6.875 -6 8 C-6.99 7.67 -7.98 7.34 -9 7 C-7.53913043 1.4 -7.53913043 1.4 -5.0625 -0.4375 C-3 -1 -3 -1 0 0 Z " fill="#F2F3F8" transform="translate(144,168)"/>
<path d="M0 0 C2.97 0 5.94 0 9 0 C9.33 1.65 9.66 3.3 10 5 C9.01 5 8.02 5 7 5 C6.67 5.66 6.34 6.32 6 7 C6 6.01 6 5.02 6 4 C4.02 4.33 2.04 4.66 0 5 C0 3.35 0 1.7 0 0 Z " fill="#7A8381" transform="translate(24,158)"/>
<path d="M0 0 C4.95 0 9.9 0 15 0 C15 0.99 15 1.98 15 3 C10.05 3 5.1 3 0 3 C0 2.01 0 1.02 0 0 Z " fill="#3AF484" transform="translate(202,123)"/>
<path d="M0 0 C1.65 0 3.3 0 5 0 C5.33 0.99 5.66 1.98 6 3 C6.66 2.01 7.32 1.02 8 0 C8.99 0.33 9.98 0.66 11 1 C11.6875 3.0625 11.6875 3.0625 12 5 C8.71303767 5.79953138 7.28976808 6.09658936 4 5 C3.67 4.34 3.34 3.68 3 3 C2.67 3.66 2.34 4.32 2 5 C1.34 5 0.68 5 0 5 C0 3.35 0 1.7 0 0 Z " fill="#667975" transform="translate(313,89)"/>
<path d="M0 0 C0.99 0.33 1.98 0.66 3 1 C3 1.66 3 2.32 3 3 C4.32 3 5.64 3 7 3 C7.33 4.65 7.66 6.3 8 8 C3.25 9.125 3.25 9.125 1 8 C0.40644386 5.35139573 0.25790731 2.70802678 0 0 Z " fill="#7D9A94" transform="translate(339,86)"/>
<path d="M0 0 C5.48076923 -0.36538462 5.48076923 -0.36538462 7.6875 1.1875 C9.29402287 3.40603158 10.74837723 5.55933559 12 8 C11.67 8.66 11.34 9.32 11 10 C6.10327576 7.82367811 2.01052629 5.11770328 0 0 Z " fill="#D1D8D6" transform="translate(9,0)"/>
<path d="M0 0 C0.66 0 1.32 0 2 0 C2 0.66 2 1.32 2 2 C2.804375 1.979375 3.60875 1.95875 4.4375 1.9375 C7 2 7 2 8 3 C8.04063832 4.66617115 8.042721 6.33388095 8 8 C7.01 7.34 6.02 6.68 5 6 C2.32854463 6.80161791 2.32854463 6.80161791 0 8 C0 5.36 0 2.72 0 0 Z " fill="#9CA5A5" transform="translate(121,285)"/>
<path d="M0 0 C2.66666667 1.33333333 5.33333333 2.66666667 8 4 C7.67 5.32 7.34 6.64 7 8 C4.69 8 2.38 8 0 8 C0 5.36 0 2.72 0 0 Z " fill="#809793" transform="translate(347,285)"/>
<path d="M0 0 C0.763125 0.66 1.52625 1.32 2.3125 2 C4.84277939 4.29850538 4.84277939 4.29850538 8 4 C8 4.66 8 5.32 8 6 C7.34 6 6.68 6 6 6 C5.67 6.66 5.34 7.32 5 8 C0.25 7.125 0.25 7.125 -2 6 C-1.125 1.125 -1.125 1.125 0 0 Z " fill="#E5E9E4" transform="translate(2,97)"/>
<path d="M0 0 C1.67542976 0.28604898 3.34385343 0.61781233 5 1 C5.125 3.375 5.125 3.375 5 6 C4.34 6.66 3.68 7.32 3 8 C2.01 8 1.02 8 0 8 C-0.38063221 5.6739143 -0.71269945 3.33944736 -1 1 C-0.67 0.67 -0.34 0.34 0 0 Z " fill="#838D8D" transform="translate(84,285)"/>
<path d="M0 0 C0.66 0 1.32 0 2 0 C2.33 0.66 2.66 1.32 3 2 C3.33 1.34 3.66 0.68 4 0 C4.99 0.33 5.98 0.66 7 1 C7 2.98 7 4.96 7 7 C6.34 6.34 5.68 5.68 5 5 C4.67 5.66 4.34 6.32 4 7 C2.33333333 7 0.66666667 7 -1 7 C-1.04254356 5.00045254 -1.04080783 2.99958364 -1 1 C-0.67 0.67 -0.34 0.34 0 0 Z " fill="#5E6866" transform="translate(35,170)"/>
<path d="M0 0 C1.65 0 3.3 0 5 0 C5.625 1.8125 5.625 1.8125 6 4 C5.01 5.485 5.01 5.485 4 7 C2.68 7 1.36 7 0 7 C0 4.69 0 2.38 0 0 Z " fill="#8A9190" transform="translate(17,156)"/>
<path d="M0 0 C1.98 0.66 3.96 1.32 6 2 C5.67 3.32 5.34 4.64 5 6 C4.01 5.67 3.02 5.34 2 5 C-0.14255793 5.38932856 -0.14255793 5.38932856 -2 6 C-2.33 5.01 -2.66 4.02 -3 3 C-2.01 2.01 -1.02 1.02 0 0 Z " fill="#D7F6F8" transform="translate(394,378)"/>
<path d="M0 0 C0.66 0 1.32 0 2 0 C2 2.64 2 5.28 2 8 C0.35 8 -1.3 8 -3 8 C-3.33 6.35 -3.66 4.7 -4 3 C-2.68 2.67 -1.36 2.34 0 2 C0 1.34 0 0.68 0 0 Z " fill="#7B8583" transform="translate(77,285)"/>
<path d="M0 0 C0.66 0.33 1.32 0.66 2 1 C1.67 3.31 1.34 5.62 1 8 C0.01 8.33 -0.98 8.66 -2 9 C-2.33 9.66 -2.66 10.32 -3 11 C-3.99 11 -4.98 11 -6 11 C-6 10.34 -6 9.68 -6 9 C-5.34 9 -4.68 9 -4 9 C-3.71125 8.071875 -3.4225 7.14375 -3.125 6.1875 C-2 3 -2 3 0 0 Z " fill="#D8DAE6" transform="translate(37,342)"/>
<path d="M0 0 C0.99 0.33 1.98 0.66 3 1 C2.01 3.97 1.02 6.94 0 10 C-0.66 10 -1.32 10 -2 10 C-2.66 11.32 -3.32 12.64 -4 14 C-4.66 14 -5.32 14 -6 14 C-6 12.68 -6 11.36 -6 10 C-5.01 9.34 -4.02 8.68 -3 8 C-1.78943339 5.37710567 -0.9135378 2.74061339 0 0 Z " fill="#BFDAC1" transform="translate(6,284)"/>
<path d="M0 0 C0.86625 0.2784375 0.86625 0.2784375 1.75 0.5625 C4.20692525 1.04023546 5.64397534 0.75729364 8 0 C8 1.98 8 3.96 8 6 C5.125 6.125 5.125 6.125 2 6 C1.34 5.34 0.68 4.68 0 4 C0 2.68 0 1.36 0 0 Z " fill="#849996" transform="translate(327,164)"/>
<path d="M0 0 C0.66 0.66 1.32 1.32 2 2 C1 3 1 3 -1.13305664 3.11352539 C-2.04949951 3.10828857 -2.96594238 3.10305176 -3.91015625 3.09765625 C-4.89951172 3.09443359 -5.88886719 3.09121094 -6.90820312 3.08789062 C-7.94912109 3.07951172 -8.99003906 3.07113281 -10.0625 3.0625 C-11.10728516 3.05798828 -12.15207031 3.05347656 -13.22851562 3.04882812 C-15.8190666 3.03699913 -18.40950559 3.02051689 -21 3 C-16.93869306 0.7142818 -13.36987952 0.80381687 -8.8125 0.9375 C-6.20374412 0.99912415 -3.61048428 1.0206479 -1 1 C-0.67 0.67 -0.34 0.34 0 0 Z " fill="#D5D2E1" transform="translate(52,397)"/>
<path d="M0 0 C0.66 0 1.32 0 2 0 C2 2.64 2 5.28 2 8 C0.35 8 -1.3 8 -3 8 C-3.33 6.68 -3.66 5.36 -4 4 C-2.68 3.67 -1.36 3.34 0 3 C0 2.01 0 1.02 0 0 Z " fill="#7C8784" transform="translate(96,155)"/>
<path d="M0 0 C3.63 0 7.26 0 11 0 C11 0.99 11 1.98 11 3 C7.37 3 3.74 3 0 3 C0 2.01 0 1.02 0 0 Z " fill="#37F481" transform="translate(202,128)"/>
<path d="M0 0 C-0.50603992 2.16874252 -0.99983813 3.99967627 -2 6 C-1.34 6.33 -0.68 6.66 0 7 C-1.98 7 -3.96 7 -6 7 C-6 5.02 -6 3.04 -6 1 C-4 0 -4 0 0 0 Z " fill="#6D7875" transform="translate(245,87)"/>
<path d="M0 0 C1.98 0.495 1.98 0.495 4 1 C4.33 2.98 4.66 4.96 5 7 C3.35 7.33 1.7 7.66 0 8 C0.33 7.34 0.66 6.68 1 6 C1.66 6.33 2.32 6.66 3 7 C2.67 6.34 2.34 5.68 2 5 C1.01 4.67 0.02 4.34 -1 4 C-0.67 2.68 -0.34 1.36 0 0 Z " fill="#6C7775" transform="translate(109,287)"/>
<path d="M0 0 C1.98 0.495 1.98 0.495 4 1 C4 3.31 4 5.62 4 8 C2.68 8 1.36 8 0 8 C-0.33 7.34 -0.66 6.68 -1 6 C0.32 6.33 1.64 6.66 3 7 C2.67 6.34 2.34 5.68 2 5 C1.01 5 0.02 5 -1 5 C-0.67 3.35 -0.34 1.7 0 0 Z " fill="#6B7674" transform="translate(131,287)"/>
<path d="M0 0 C2.3125 -0.25 2.3125 -0.25 5 0 C5.99 1.32 6.98 2.64 8 4 C4.7 4 1.4 4 -2 4 C-1.34 2.68 -0.68 1.36 0 0 Z " fill="#DDF0F9" transform="translate(159,256)"/>
<path d="M0 0 C2.31 0 4.62 0 7 0 C7.33 1.65 7.66 3.3 8 5 C7.01 4.67 6.02 4.34 5 4 C2.36195411 4.39397335 2.36195411 4.39397335 0 5 C0 3.35 0 1.7 0 0 Z " fill="#788180" transform="translate(50,172)"/>
<path d="M0 0 C0.99 0.33 1.98 0.66 3 1 C3.33 3.31 3.66 5.62 4 8 C2.35 8 0.7 8 -1 8 C-0.67 7.34 -0.34 6.68 0 6 C0.99 6.33 1.98 6.66 3 7 C3 6.34 3 5.68 3 5 C1.35 4.67 -0.3 4.34 -2 4 C-1.34 2.68 -0.68 1.36 0 0 Z " fill="#64706D" transform="translate(52,287)"/>
<path d="M0 0 C0.99 0.66 1.98 1.32 3 2 C2.67 3.32 2.34 4.64 2 6 C1.34 6 0.68 6 0 6 C-0.99 6.33 -1.98 6.66 -3 7 C-1.125 2.25 -1.125 2.25 0 0 Z M-4 7 C-3.34 7.99 -2.68 8.98 -2 10 C-2.99 10.66 -3.98 11.32 -5 12 C-5 8 -5 8 -4 7 Z " fill="#DADDDA" transform="translate(25,22)"/>
<path d="M0 0 C1.32 0.66 2.64 1.32 4 2 C3.67 3.32 3.34 4.64 3 6 C2.34 6 1.68 6 1 6 C1 6.66 1 7.32 1 8 C0.34 8 -0.32 8 -1 8 C-1.04241723 5.66705225 -1.04092937 3.33297433 -1 1 C-0.67 0.67 -0.34 0.34 0 0 Z " fill="#7B8988" transform="translate(297,287)"/>
<path d="M0 0 C0.66 0 1.32 0 2 0 C2 0.66 2 1.32 2 2 C2.66 2 3.32 2 4 2 C4 1.34 4 0.68 4 0 C4.66 0 5.32 0 6 0 C6 2.31 6 4.62 6 7 C5.34 6.01 4.68 5.02 4 4 C3.01 4 2.02 4 1 4 C1.66 5.32 2.32 6.64 3 8 C2.01 7.67 1.02 7.34 0 7 C0 4.69 0 2.38 0 0 Z " fill="#6C7775" transform="translate(37,285)"/>
<path d="M0 0 C3.36720387 1.39332574 4.9859524 2.9789286 7 6 C4.69 6 2.38 6 0 6 C0 4.02 0 2.04 0 0 Z " fill="#32F47E" transform="translate(210,114)"/>
<path d="M0 0 C1.98 0.495 1.98 0.495 4 1 C4.33 2.32 4.66 3.64 5 5 C3.02 5 1.04 5 -1 5 C-0.67 3.35 -0.34 1.7 0 0 Z " fill="#82908D" transform="translate(247,89)"/>
<path d="M0 0 C0.99 0 1.98 0 3 0 C3.33 2.31 3.66 4.62 4 7 C1.525 6.01 1.525 6.01 -1 5 C-1.33 5.66 -1.66 6.32 -2 7 C-1.125 1.125 -1.125 1.125 0 0 Z " fill="#586965" transform="translate(308,87)"/>
<path d="M0 0 C0.99 0.33 1.98 0.66 3 1 C3.33 2.65 3.66 4.3 4 6 C2.35 6 0.7 6 -1 6 C-1.625 4.125 -1.625 4.125 -2 2 C-1.34 1.34 -0.68 0.68 0 0 Z " fill="#707B79" transform="translate(62,287)"/>
<path d="M0 0 C-0.33 1.32 -0.66 2.64 -1 4 C-0.34 4.33 0.32 4.66 1 5 C0.01 6.485 0.01 6.485 -1 8 C-1.99 7.67 -2.98 7.34 -4 7 C-4.33 5.35 -4.66 3.7 -5 2 C-2 0 -2 0 0 0 Z " fill="#D0E2D0" transform="translate(30,254)"/>
<path d="M0 0 C0.99 0.33 1.98 0.66 3 1 C3.33 2.65 3.66 4.3 4 6 C2.35 6 0.7 6 -1 6 C-1.33 5.01 -1.66 4.02 -2 3 C-1.34 2.01 -0.68 1.02 0 0 Z " fill="#6D807C" transform="translate(369,164)"/>
<path d="M0 0 C0.33 0.99 0.66 1.98 1 3 C1.66 3 2.32 3 3 3 C3 2.01 3 1.02 3 0 C3.66 0 4.32 0 5 0 C5 2.31 5 4.62 5 7 C3.68 7.33 2.36 7.66 1 8 C1.66 7.67 2.32 7.34 3 7 C3 6.34 3 5.68 3 5 C2.01 4.67 1.02 4.34 0 4 C0 2.68 0 1.36 0 0 Z " fill="#5A6966" transform="translate(329,89)"/>
<path d="M0 0 C2 0 4 0 6 0 C6.33 1.65 6.66 3.3 7 5 C4.33333333 5 1.66666667 5 -1 5 C-0.67 3.35 -0.34 1.7 0 0 Z " fill="#54625F" transform="translate(278,89)"/>
<path d="M0 0 C1.32 0.33 2.64 0.66 4 1 C3.67 2.32 3.34 3.64 3 5 C0.36 5 -2.28 5 -5 5 C-4.360625 4.731875 -3.72125 4.46375 -3.0625 4.1875 C-0.66868314 3.11332248 -0.66868314 3.11332248 0 0 Z " fill="#727D7B" transform="translate(94,172)"/>
<path d="M0 0 C0.99 0.33 1.98 0.66 3 1 C3 2.65 3 4.3 3 6 C1.35 5.67 -0.3 5.34 -2 5 C-1.125 1.125 -1.125 1.125 0 0 Z " fill="#6D807C" transform="translate(381,164)"/>
<path d="M0 0 C0.66 0 1.32 0 2 0 C3 3 3 3 2 6 C2.66 6 3.32 6 4 6 C4 6.66 4 7.32 4 8 C2.02 8 0.04 8 -2 8 C-1.34 5.36 -0.68 2.72 0 0 Z " fill="#7F918E" transform="translate(342,285)"/>
<path d="M0 0 C0.99 0.33 1.98 0.66 3 1 C2.67 2.65 2.34 4.3 2 6 C0.68 5.67 -0.64 5.34 -2 5 C-1.125 1.125 -1.125 1.125 0 0 Z " fill="#717C7A" transform="translate(92,287)"/>
<path d="M0 0 C1.32 0 2.64 0 4 0 C4 1.65 4 3.3 4 5 C2.35 4.67 0.7 4.34 -1 4 C-0.67 2.68 -0.34 1.36 0 0 Z " fill="#838C8A" transform="translate(39,158)"/>
<path d="M0 0 C0.99 0 1.98 0 3 0 C3 1.65 3 3.3 3 5 C1.68 5 0.36 5 -1 5 C-1 1 -1 1 0 0 Z " fill="#6C7F7B" transform="translate(287,89)"/>
<path d="M0 0 C0.66 0 1.32 0 2 0 C2 0.66 2 1.32 2 2 C2.99 1.67 3.98 1.34 5 1 C5 1.99 5 2.98 5 4 C2.5 5.6875 2.5 5.6875 0 7 C0 4.69 0 2.38 0 0 Z " fill="#DEDCDC" transform="translate(0,20)"/>
<path d="M0 0 C1.98 0.495 1.98 0.495 4 1 C4 3.31 4 5.62 4 8 C2.35 8 0.7 8 -1 8 C-0.34 7.67 0.32 7.34 1 7 C0.67 4.69 0.34 2.38 0 0 Z " fill="#6D7977" transform="translate(282,285)"/>
<path d="M0 0 C0.99 0.33 1.98 0.66 3 1 C3.6875 3.0625 3.6875 3.0625 4 5 C2.35 5 0.7 5 -1 5 C-1 1 -1 1 0 0 Z " fill="#757F7D" transform="translate(45,172)"/>
<path d="M0 0 C2.1875 1.4375 2.1875 1.4375 4 3 C2.68 3.99 1.36 4.98 0 6 C-1.65 5.01 -3.3 4.02 -5 3 C-3 1 -3 1 0 0 Z " fill="#DDDBDB" transform="translate(10,23)"/>
<path d="M0 0 C0.99 0.33 1.98 0.66 3 1 C3 2.65 3 4.3 3 6 C1.68 6 0.36 6 -1 6 C-1.042721 4.33388095 -1.04063832 2.66617115 -1 1 C-0.67 0.67 -0.34 0.34 0 0 Z " fill="#74817F" transform="translate(321,287)"/>
<path d="M0 0 C2.31 0 4.62 0 7 0 C6.67 1.32 6.34 2.64 6 4 C5.67 3.67 5.34 3.34 5 3 C4.34 3.66 3.68 4.32 3 5 C2.01 4.67 1.02 4.34 0 4 C0 2.68 0 1.36 0 0 Z " fill="#56615F" transform="translate(311,288)"/>
<path d="M0 0 C0.99 0.33 1.98 0.66 3 1 C3.6875 3.0625 3.6875 3.0625 4 5 C2.35 5 0.7 5 -1 5 C-1 1 -1 1 0 0 Z " fill="#767F7D" transform="translate(77,172)"/>
<path d="M0 0 C1.65 0 3.3 0 5 0 C5.33 1.98 5.66 3.96 6 6 C5.01 5.01 4.02 4.02 3 3 C2.67 3.66 2.34 4.32 2 5 C1.34 5 0.68 5 0 5 C0 3.35 0 1.7 0 0 Z " fill="#60706D" transform="translate(291,89)"/>
<path d="M0 0 C2.4375 0.375 2.4375 0.375 5 1 C5.33 1.66 5.66 2.32 6 3 C5.34 3 4.68 3 4 3 C3.67 3.66 3.34 4.32 3 5 C2.01 5 1.02 5 0 5 C0 3.35 0 1.7 0 0 Z " fill="#E0DBEA" transform="translate(0,359)"/>
<path d="M0 0 C0.33 0.99 0.66 1.98 1 3 C1.99 3 2.98 3 4 3 C3.67 4.32 3.34 5.64 3 7 C2.67 6.34 2.34 5.68 2 5 C1.67 5.99 1.34 6.98 1 8 C0.34 8 -0.32 8 -1 8 C-0.67 5.36 -0.34 2.72 0 0 Z " fill="#54625F" transform="translate(362,162)"/>
<path d="M0 0 C0.99 0.33 1.98 0.66 3 1 C3 2.65 3 4.3 3 6 C2.01 5.34 1.02 4.68 0 4 C-0.99 4.495 -0.99 4.495 -2 5 C-2 3.68 -2 2.36 -2 1 C-1.34 0.67 -0.68 0.34 0 0 Z " fill="#65706D" transform="translate(126,287)"/>
<path d="M0 0 C0 1.65 0 3.3 0 5 C-0.66 4.34 -1.32 3.68 -2 3 C-2.33 3.99 -2.66 4.98 -3 6 C-3.66 6 -4.32 6 -5 6 C-5 4.35 -5 2.7 -5 1 C-2 0 -2 0 0 0 Z " fill="#5C6865" transform="translate(49,287)"/>
<path d="M0 0 C1.65 0 3.3 0 5 0 C5 1.65 5 3.3 5 5 C4.01 4.67 3.02 4.34 2 4 C1.01 4.495 1.01 4.495 0 5 C0 3.35 0 1.7 0 0 Z " fill="#66716F" transform="translate(82,172)"/>
<path d="M0 0 C1.65 0 3.3 0 5 0 C5.33 1.65 5.66 3.3 6 5 C5.34 5 4.68 5 4 5 C3.67 4.01 3.34 3.02 3 2 C2.67 2.99 2.34 3.98 2 5 C1.34 5 0.68 5 0 5 C0 3.35 0 1.7 0 0 Z " fill="#636D6B" transform="translate(65,158)"/>
<path d="M0 0 C0.33 0.66 0.66 1.32 1 2 C1.99 2.33 2.98 2.66 4 3 C3.67 3.66 3.34 4.32 3 5 C-0.0625 5.625 -0.0625 5.625 -3 6 C-2.67 4.68 -2.34 3.36 -2 2 C-1.34 2 -0.68 2 0 2 C0 1.34 0 0.68 0 0 Z " fill="#B2E0DA" transform="translate(396,110)"/>
<path d="M0 0 C1.65 0 3.3 0 5 0 C4.67 1.32 4.34 2.64 4 4 C3.67 3.67 3.34 3.34 3 3 C2.67 3.66 2.34 4.32 2 5 C1.34 5 0.68 5 0 5 C0 3.35 0 1.7 0 0 Z " fill="#5E6E6A" transform="translate(313,89)"/>
<path d="M0 0 C0.66 0.33 1.32 0.66 2 1 C2 2.65 2 4.3 2 6 C1.01 5.34 0.02 4.68 -1 4 C-1.99 4.495 -1.99 4.495 -3 5 C-2.625 3.0625 -2.625 3.0625 -2 1 C-1.34 0.67 -0.68 0.34 0 0 Z " fill="#62726E" transform="translate(359,287)"/>
<path d="M0 0 C1.65 0 3.3 0 5 0 C5 1.65 5 3.3 5 5 C4.34 4.01 3.68 3.02 3 2 C2.67 2.99 2.34 3.98 2 5 C1.34 5 0.68 5 0 5 C0 3.35 0 1.7 0 0 Z " fill="#5F6A68" transform="translate(69,172)"/>
<path d="M0 0 C1.65 0 3.3 0 5 0 C5 1.65 5 3.3 5 5 C4.34 4.01 3.68 3.02 3 2 C2.67 2.99 2.34 3.98 2 5 C1.34 5 0.68 5 0 5 C0 3.35 0 1.7 0 0 Z " fill="#5E6967" transform="translate(86,158)"/>
<path d="M0 0 C-0.99 0.495 -0.99 0.495 -2 1 C-2.33 1.99 -2.66 2.98 -3 4 C-4.32 2.68 -5.64 1.36 -7 0 C-4.3333581 -1.33332095 -2.83319697 -0.67102033 0 0 Z " fill="#E9F1EB" transform="translate(74,120)"/>
<path d="M0 0 C0.66 0.33 1.32 0.66 2 1 C2 1.66 2 2.32 2 3 C3.32 3.33 4.64 3.66 6 4 C6 4.66 6 5.32 6 6 C3.69 5.67 1.38 5.34 -1 5 C-0.67 3.35 -0.34 1.7 0 0 Z " fill="#BFC8C6" transform="translate(49,288)"/>
<path d="M0 0 C0.66 0 1.32 0 2 0 C1.814375 0.61875 1.62875 1.2375 1.4375 1.875 C0.76313824 4.04160178 0.76313824 4.04160178 2 6 C0.68 5.67 -0.64 5.34 -2 5 C-1.125 1.125 -1.125 1.125 0 0 Z " fill="#6C7876" transform="translate(307,287)"/>
<path d="M0 0 C0.66 0.33 1.32 0.66 2 1 C1.67 1.66 1.34 2.32 1 3 C1.66 3 2.32 3 3 3 C3 3.99 3 4.98 3 6 C1.68 6 0.36 6 -1 6 C-1.042721 4.33388095 -1.04063832 2.66617115 -1 1 C-0.67 0.67 -0.34 0.34 0 0 Z " fill="#697472" transform="translate(33,287)"/>
</svg>
