<?xml version="1.0" encoding="UTF-8"?>
<svg version="1.1" xmlns="http://www.w3.org/2000/svg" width="400" height="400">
<path d="M0 0 C132 0 264 0 400 0 C400 132 400 264 400 400 C268 400 136 400 0 400 C0 268 0 136 0 0 Z " fill="#F3F2E2" transform="translate(0,0)"/>
<path d="M0 0 C68.31 0 136.62 0 207 0 C205.42920351 3.92699122 203.76213909 7.51774861 201.8125 11.25390625 C201.50932861 11.83663803 201.20615723 12.41936981 200.89379883 13.01976013 C199.93141055 14.86850245 198.96581075 16.71554372 198 18.5625 C197.03490393 20.41339228 196.07046687 22.26462654 195.10620117 24.11595154 C194.23203737 25.79344062 193.35629527 27.47010695 192.48046875 29.14672852 C191.30044756 31.4209547 190.14582326 33.70835347 189 36 C174.81 36.33 160.62 36.66 146 37 C154.95419172 38.91875537 163.9090559 40.82568852 172.875 42.6875 C173.95652344 42.91244141 175.03804687 43.13738281 176.15234375 43.36914062 C178.76815134 43.91313601 181.3840367 44.45675399 184 45 C183.53851563 45.92296875 183.07703125 46.8459375 182.6015625 47.796875 C182.13665405 48.72681274 182.13665405 48.72681274 181.66235352 49.67553711 C180.96258059 51.07491827 180.262542 52.47416661 179.56225586 53.87329102 C177.46100607 58.07258676 175.36576414 62.27477625 173.27734375 66.48046875 C172.82601074 67.38764648 172.37467773 68.29482422 171.90966797 69.22949219 C171.01777877 71.02232201 170.12745624 72.81593214 169.23876953 74.61035156 C168.83126465 75.42858398 168.42375977 76.24681641 168.00390625 77.08984375 C167.64111572 77.82066162 167.2783252 78.55147949 166.90454102 79.30444336 C166 81 166 81 165 82 C162.78312006 82.15873955 160.56144702 82.25133837 158.33984375 82.31640625 C157.67537735 82.33718735 157.01091095 82.35796844 156.3263092 82.37937927 C154.19681457 82.44493658 152.06719332 82.50378785 149.9375 82.5625 C148.49673153 82.60567939 147.05597601 82.64929349 145.61523438 82.69335938 C142.0769596 82.80062393 138.53854131 82.90187371 135 83 C135.72179443 83.19634033 136.44358887 83.39268066 137.18725586 83.5949707 C140.4410566 84.48785708 143.68918011 85.39988554 146.9375 86.3125 C148.07380859 86.62123047 149.21011719 86.92996094 150.38085938 87.24804688 C151.46044922 87.55419922 152.54003906 87.86035156 153.65234375 88.17578125 C154.65257568 88.45333252 155.65280762 88.73088379 156.68334961 89.0168457 C157.44784424 89.34128662 158.21233887 89.66572754 159 90 C160 93 160 93 158.99951172 95.6003418 C158.22244873 97.13428589 158.22244873 97.13428589 157.4296875 98.69921875 C156.8625 99.82650391 156.2953125 100.95378906 155.7109375 102.11523438 C155.40897461 102.70264404 155.10701172 103.29005371 154.79589844 103.89526367 C153.88988091 105.65853904 152.9994852 107.42981319 152.109375 109.20117188 C150.96220541 111.46335945 149.79393486 113.71498912 148.60327148 115.95458984 C147.63078393 117.8018275 146.7004428 119.67325529 145.85180664 121.58056641 C144.74648229 123.8324042 143.89173869 125.34925643 142 127 C138.21240953 128.08589176 134.60616224 128.07521425 130.6875 128 C129.66076172 128.01160156 128.63402344 128.02320313 127.57617188 128.03515625 C125.05086332 128.05864749 122.52518842 128.03403792 120 128 C125.61 130.64 131.22 133.28 137 136 C135.6291344 140.1125968 134.4427521 143.32621338 132.4609375 147.0546875 C131.72012939 148.45883911 131.72012939 148.45883911 130.96435547 149.89135742 C130.43986816 150.87595947 129.91538086 151.86056152 129.375 152.875 C128.28022872 154.95128474 127.18648096 157.02810948 126.09375 159.10546875 C125.29517578 160.62213135 125.29517578 160.62213135 124.48046875 162.16943359 C121.59320598 167.68970479 118.82931895 173.27030912 116.06542969 178.85302734 C113.88798431 183.24084922 111.69201417 187.61944371 109.5 192 C108.63535422 193.72913544 107.77076534 195.45829934 106.90625 197.1875 C106.27083333 198.45833333 105.63541667 199.72916667 105 201 C104.01 201 103.02 201 102 201 C101.56171875 200.11183594 101.1234375 199.22367188 100.671875 198.30859375 C92.68442808 182.19379582 84.30788478 166.27668837 75.85375977 150.40258789 C70 139.39560258 70 139.39560258 70 137 C73.96 136.67 77.92 136.34 82 136 C80.88882813 135.64292969 79.77765625 135.28585938 78.6328125 134.91796875 C68.09321475 131.05736235 63.02836604 126.69903459 58.27832031 116.51464844 C57.53427683 114.84396215 56.80354847 113.16728072 56.08642578 111.48486328 C54.36320119 107.54351949 52.35297433 103.75533793 50.375 99.9375 C47 93.3346864 47 93.3346864 47 91 C59.375 90.505 59.375 90.505 72 90 C70.02515625 89.54109375 68.0503125 89.0821875 66.015625 88.609375 C64.09578186 88.15028208 62.1759619 87.69108564 60.25683594 87.22900391 C58.92732797 86.91166879 57.59659386 86.59942411 56.26464844 86.29248047 C54.34512281 85.84918195 52.43028557 85.38573607 50.515625 84.921875 C49.36352539 84.64956055 48.21142578 84.37724609 47.02441406 84.09667969 C40.99658647 81.9109353 38.91766885 77.33505511 36.3125 71.8125 C35.62308113 70.38966033 34.9315965 68.96782014 34.23828125 67.546875 C33.6980835 66.43795898 33.6980835 66.43795898 33.14697266 65.30664062 C30.80165791 60.59005192 28.28991564 55.95977387 25.79418945 51.3215332 C23 46.10115145 23 46.10115145 23 45 C33.89 45 44.78 45 56 45 C56 44.34 56 43.68 56 43 C55.38898438 42.90203125 54.77796875 42.8040625 54.1484375 42.703125 C46.91866613 41.52192292 39.70834483 40.24253018 32.5 38.9375 C31.53239746 38.7631543 30.56479492 38.58880859 29.56787109 38.40917969 C28.64828613 38.24192383 27.72870117 38.07466797 26.78125 37.90234375 C25.95689453 37.75273193 25.13253906 37.60312012 24.28320312 37.44897461 C23.52974609 37.30081299 22.77628906 37.15265137 22 37 C20.9174292 36.81630859 20.9174292 36.81630859 19.81298828 36.62890625 C18 36 18 36 16.2109375 33.03515625 C15.58620104 31.71690811 14.97513402 30.39212888 14.375 29.0625 C13.68890622 27.61137834 12.99861966 26.16223344 12.3046875 24.71484375 C11.75506348 23.56798096 11.75506348 23.56798096 11.19433594 22.39794922 C8.71195929 17.41391336 5.91478692 12.59716745 3.14990234 7.76586914 C2.73949707 7.04133545 2.3290918 6.31680176 1.90625 5.5703125 C1.53822266 4.92852051 1.17019531 4.28672852 0.79101562 3.62548828 C0 2 0 2 0 0 Z " fill="#F75CE6" transform="translate(22,99)"/>
<path d="M0 0 C57.75 0 115.5 0 175 0 C174 2 174 2 172 5 C171.34 5 170.68 5 170 5 C170 6.32 170 7.64 170 9 C168 10.75 168 10.75 166 12 C166.33 13.32 166.66 14.64 167 16 C166.34 16 165.68 16 165 16 C164.67 16.66 164.34 17.32 164 18 C163.484375 18.474375 162.96875 18.94875 162.4375 19.4375 C160.66147173 21.01410534 160.66147173 21.01410534 161 24 C160 27 160 27 157 29 C157 29.99 157 30.98 157 32 C156.0625 34.0625 156.0625 34.0625 155 36 C154.67 36.66 154.34 37.32 154 38 C154.66 38.33 155.32 38.66 156 39 C156 39.66 156 40.32 156 41 C155.34 41 154.68 41 154 41 C153.67 42.65 153.34 44.3 153 46 C152.34 46 151.68 46 151 46 C151.33 46.99 151.66 47.98 152 49 C151.525625 49.45375 151.05125 49.9075 150.5625 50.375 C148.90972192 51.93258204 148.90972192 51.93258204 148 54 C147.34 54 146.68 54 146 54 C146 54.66 146 55.32 146 56 C144.5 57.625 144.5 57.625 143 59 C143.66 59.99 144.32 60.98 145 62 C145 62.66 145 63.32 145 64 C146.65 64.66 148.3 65.32 150 66 C150.33 65.34 150.66 64.68 151 64 C151.66 64.33 152.32 64.66 153 65 C152.75 66.875 152.75 66.875 152 69 C150.0625 70.3125 150.0625 70.3125 148 71 C147.34 70.67 146.68 70.34 146 70 C145.54625 70.495 145.0925 70.99 144.625 71.5 C143 73 143 73 141 73 C140.67 73.66 140.34 74.32 140 75 C136.42307692 78 136.42307692 78 134 78 C133.67 78.99 133.34 79.98 133 81 C130.69 80.67 128.38 80.34 126 80 C125.67 78.35 125.34 76.7 125 75 C122.23792697 75 119.69885731 75.42577504 117 76 C116.67 76.66 116.34 77.32 116 78 C115.01 78 114.02 78 113 78 C108.33116165 78.68765836 104.19436615 79.68338031 100.125 82.125 C97 84 97 84 94 84 C91.78882074 84.46903802 90.02678158 84.98660921 88 86 C87.67 85.67 87.34 85.34 87 85 C86.5875 85.474375 86.175 85.94875 85.75 86.4375 C83.77984625 88.19656585 82.55915312 88.52015879 80 89 C76.88214887 89.64644661 76.88214887 89.64644661 76 92 C75.01 92 74.02 92 73 92 C72.67 92.66 72.34 93.32 72 94 C71.01 94 70.02 94 69 94 C68.48018555 94.8149292 67.96037109 95.6298584 67.42480469 96.46948242 C64.71671009 99.29564035 64.29696991 99.38057233 60.59863281 99.56762695 C58.79993592 99.56683763 57.00111474 99.53871968 55.203125 99.48828125 C53.77996979 99.47766914 53.77996979 99.47766914 52.32806396 99.46684265 C49.30123657 99.43887994 46.27626709 99.37613758 43.25 99.3125 C41.19664132 99.28741957 39.14325361 99.26460596 37.08984375 99.24414062 C32.05918126 99.18904694 27.02990548 99.10276083 22 99 C22.33037262 99.59490234 22.66074524 100.18980469 23.00112915 100.80273438 C40 131.42522527 40 131.42522527 40 135 C41.55267578 135.17015625 41.55267578 135.17015625 43.13671875 135.34375 C49.40704289 136.12840391 55.60303336 137.33966187 61.8125 138.5 C63.03904297 138.72558594 64.26558594 138.95117188 65.52929688 139.18359375 C74.61635287 140.87211762 74.61635287 140.87211762 78 142 C78 142.66 78 143.32 78 144 C62.16 144.495 62.16 144.495 46 145 C48.31 149.29 50.62 153.58 53 158 C51 163 51 163 48.625 164.0625 C47.75875 164.371875 46.8925 164.68125 46 165 C45.29875 165.70125 44.5975 166.4025 43.875 167.125 C43.25625 167.74375 42.6375 168.3625 42 169 C41.01 169 40.02 169 39 169 C36.15946701 169.46062697 33.60545547 170.13414514 30.875 171.0625 C28 172 28 172 25 172 C25 171.01 25 170.02 25 169 C21.18586998 170.1678266 21.18586998 170.1678266 18.6875 173.125 C18.460625 173.74375 18.23375 174.3625 18 175 C17.34 174.34 16.68 173.68 16 173 C16.66 172.01 17.32 171.02 18 170 C17.360625 170.185625 16.72125 170.37125 16.0625 170.5625 C15.0415625 170.7790625 15.0415625 170.7790625 14 171 C13.67 170.67 13.34 170.34 13 170 C12.01 170.99 12.01 170.99 11 172 C10.195625 171.814375 9.39125 171.62875 8.5625 171.4375 C7.716875 171.293125 6.87125 171.14875 6 171 C4.35405861 172.39588754 4.35405861 172.39588754 3 174 C2.01 174 1.02 174 0 174 C0 116.58 0 59.16 0 0 Z M140 63 C140.33 63.66 140.66 64.32 141 65 C141.66 64.67 142.32 64.34 143 64 C142.01 63.67 141.02 63.34 140 63 Z " fill="#C4FAF7" transform="translate(0,0)"/>
<path d="M0 0 C54.78 0 109.56 0 166 0 C166 33.99 166 67.98 166 103 C163.525 103.495 163.525 103.495 161 104 C161 103.34 161 102.68 161 102 C160.01 102.33 159.02 102.66 158 103 C155.99568551 102.34641919 153.9959722 101.67863055 152 101 C149.29113059 100.83201738 149.29113059 100.83201738 147 101 C145.66666667 101 144.33333333 101 143 101 C143 100.34 143 99.68 143 99 C140.23556199 98.21849209 140.23556199 98.21849209 137 98 C135.32983484 98.99414593 133.66279327 99.9935725 132 101 C129.9375 100.0625 129.9375 100.0625 128 99 C125.76529595 99.78309467 125.76529595 99.78309467 124 101 C124.99 101.99 125.98 102.98 127 104 C126.67 104.99 126.34 105.98 126 107 C123.525 107.495 123.525 107.495 121 108 C121 108.66 121 109.32 121 110 C118 109 118 109 116 107 C115.67 107.99 115.34 108.98 115 110 C114.34 109.34 113.68 108.68 113 108 C111.515 107.01 111.515 107.01 110 106 C111.44077046 102.63820226 113.24750021 100.40843732 116 98 C116.66 98 117.32 98 118 98 C119.32 95.69 120.64 93.38 122 91 C121.54625 90.54625 121.0925 90.0925 120.625 89.625 C119.41666667 88.41666667 118.20833333 87.20833333 117 86 C117.375 84 117.375 84 118 82 C118 81.34 118 80.68 118 80 C117.4225 79.7525 116.845 79.505 116.25 79.25 C113.62776908 77.79320504 111.90746919 76.31621258 110 74 C110 72.68 110 71.36 110 70 C109.01 70 108.02 70 107 70 C106 69 105 68 104 67 C103.175 66.21625 102.35 65.4325 101.5 64.625 C99 62 99 62 98 59.8125 C96.57003561 57.22068954 94.73886163 56.86490367 92 56 C92 55.34 92 54.68 92 54 C90.576875 54.2784375 90.576875 54.2784375 89.125 54.5625 C86 55 86 55 84 54 C81.88316159 54.89163577 81.88316159 54.89163577 80 56 C80 55.34 80 54.68 80 54 C78.35 55.32 76.7 56.64 75 58 C74.34 57.67 73.68 57.34 73 57 C73.57344937 59.86724686 73.8614515 60.8614515 76 63 C72.50872818 65.11970075 72.50872818 65.11970075 69.875 64.5 C69.25625 64.335 68.6375 64.17 68 64 C67.34 64.66 66.68 65.32 66 66 C65.5875 65.4225 65.175 64.845 64.75 64.25 C62.93856492 61.92101204 61.28795558 59.87196366 59 58 C56.78141747 58.13641377 56.78141747 58.13641377 55 59 C55.33 57.35 55.66 55.7 56 54 C58.76264289 53.40267181 61.16032769 53 64 53 C65.33981486 52.6937566 66.67511887 52.36548445 68 52 C67.835 51.071875 67.67 50.14375 67.5 49.1875 C67 46 67 46 67 43 C66.3711811 40.98777953 65.70381157 38.98723268 65 37 C64.67 36.01 64.34 35.02 64 34 C62.515 34.495 62.515 34.495 61 35 C58 34 58 34 55.5 31.4375 C53.2239365 28.65094993 53.2239365 28.65094993 50 29 C50 28.01 50 27.02 50 26 C49.34 26 48.68 26 48 26 C47.67 26.66 47.34 27.32 47 28 C45.68 26.02 44.36 24.04 43 22 C42.01 22.33 41.02 22.66 40 23 C39.01 22.01 38.02 21.02 37 20 C33.83884224 21.36983503 33.0072908 21.9890638 31 25 C30.34 25 29.68 25 29 25 C29 25.66 29 26.32 29 27 C28.01 27.33 27.02 27.66 26 28 C25.525625 27.195625 25.05125 26.39125 24.5625 25.5625 C22.19254442 21.67577285 20.38540651 21.31562195 16 20 C15.01 20 14.02 20 13 20 C12.67 20.99 12.34 21.98 12 23 C11.05125 23.28875 10.1025 23.5775 9.125 23.875 C5.31685734 25.24593136 4.95772226 26.61847974 3 30 C1.68 30 0.36 30 -1 30 C-0.62875 29.4225 -0.2575 28.845 0.125 28.25 C1.28112691 26.02243325 1.28112691 26.02243325 0.1875 23.875 C-0.204375 23.25625 -0.59625 22.6375 -1 22 C-1.33 21.34 -1.66 20.68 -2 20 C-5.05270463 19.84188612 -5.05270463 19.84188612 -8 21 C-11 22 -11 22 -14 22 C-14 20.02 -14 18.04 -14 16 C-13.319375 15.95875 -12.63875 15.9175 -11.9375 15.875 C-6.48867721 14.2519464 -2.97307049 10.55083109 0 5.8125 C1.3338883 2.97537738 1.3338883 2.97537738 0 0 Z M99 57 C100 59 100 59 100 59 Z " fill="#CFFCC2" transform="translate(234,0)"/>
<path d="M0 0 C68.31 0 136.62 0 207 0 C205.42920351 3.92699122 203.76213909 7.51774861 201.8125 11.25390625 C201.50932861 11.83663803 201.20615723 12.41936981 200.89379883 13.01976013 C199.93141055 14.86850245 198.96581075 16.71554372 198 18.5625 C197.03490393 20.41339228 196.07046687 22.26462654 195.10620117 24.11595154 C194.23203737 25.79344062 193.35629527 27.47010695 192.48046875 29.14672852 C191.30044756 31.4209547 190.14582326 33.70835347 189 36 C174.81 36.33 160.62 36.66 146 37 C154.12286824 38.74061462 162.24513394 40.48049381 170.375 42.1875 C171.63957031 42.45336914 171.63957031 42.45336914 172.9296875 42.72460938 C174.95307437 43.14998048 176.97652927 43.575028 179 44 C179 44.33 179 44.66 179 45 C164.87916176 45.19006046 150.75853175 45.32892265 136.63666058 45.41449738 C130.07396255 45.45564062 123.51214339 45.51110357 116.94995117 45.60351562 C84.36634378 46.05042613 53.74564975 44.71971272 22 37 C20.8271772 36.78760681 20.8271772 36.78760681 19.63066101 36.57092285 C18 36 18 36 16.2109375 33.03515625 C15.58620104 31.71690811 14.97513402 30.39212888 14.375 29.0625 C13.68890622 27.61137834 12.99861966 26.16223344 12.3046875 24.71484375 C11.75506348 23.56798096 11.75506348 23.56798096 11.19433594 22.39794922 C8.71195929 17.41391336 5.91478692 12.59716745 3.14990234 7.76586914 C2.73949707 7.04133545 2.3290918 6.31680176 1.90625 5.5703125 C1.53822266 4.92852051 1.17019531 4.28672852 0.79101562 3.62548828 C0 2 0 2 0 0 Z " fill="#7224A6" transform="translate(22,99)"/>
<path d="M0 0 C0.2165625 1.2065625 0.2165625 1.2065625 0.4375 2.4375 C0.74135249 4.92103706 0.74135249 4.92103706 2 6 C2.495 6.99 2.495 6.99 3 8 C3.66 7.67 4.32 7.34 5 7 C5.495 8.485 5.495 8.485 6 10 C10.455 9.505 10.455 9.505 15 9 C15 8.34 15 7.68 15 7 C21.43013467 5.26044666 27.34949576 4.75008544 34 5 C34.28875 5.639375 34.5775 6.27875 34.875 6.9375 C35.82823451 9.15206079 35.82823451 9.15206079 38 10 C38 10.66 38 11.32 38 12 C38.66 12 39.32 12 40 12 C40.4021875 12.8971875 40.4021875 12.8971875 40.8125 13.8125 C41.87296728 16.0299713 41.87296728 16.0299713 43.5625 17.5 C45.28685466 19.29932661 45.4048426 20.61937042 46 23 C47.47890069 24.73026102 47.47890069 24.73026102 49 26 C48.34 26.66 47.68 27.32 47 28 C47.495 29.485 47.495 29.485 48 31 C48.66 31.33 49.32 31.66 50 32 C50 32.99 50 33.98 50 35 C50.66 35.33 51.32 35.66 52 36 C52 36.99 52 37.98 52 39 C52.66 39.33 53.32 39.66 54 40 C56.15550181 43.23325272 56 44.31199218 56 48 C56.66 48.33 57.32 48.66 58 49 C58 49.99 58 50.98 58 52 C58.00469206 54.10231241 58.00469206 54.10231241 59 56 C61.99615946 57.3045656 61.99615946 57.3045656 65 58 C64.67 58.66 64.34 59.32 64 60 C17.8 60 -28.4 60 -76 60 C-76 44.49 -76 28.98 -76 13 C-67 11.875 -67 11.875 -63 11.9375 C-62.236875 11.94652344 -61.47375 11.95554687 -60.6875 11.96484375 C-60.130625 11.97644531 -59.57375 11.98804688 -59 12 C-59 11.34 -59 10.68 -59 10 C-59.99 9.67 -60.98 9.34 -62 9 C-60.35 8.34 -58.7 7.68 -57 7 C-57.33 5.68 -57.66 4.36 -58 3 C-55.04335481 1.5216774 -52.25770263 1.93967217 -49 2 C-49.66 3.32 -50.32 4.64 -51 6 C-50.67 5.67 -50.34 5.34 -50 5 C-47.15021954 4.27369976 -44.30432666 3.58915618 -41.4375 2.9375 C-40.63119141 2.75123047 -39.82488281 2.56496094 -38.99414062 2.37304688 C-36.99683727 1.91213072 -34.99851086 1.455652 -33 1 C-33.33 2.32 -33.66 3.64 -34 5 C-35.98 5.33 -37.96 5.66 -40 6 C-40 6.99 -40 7.98 -40 9 C-40.61488281 9.18175781 -41.22976562 9.36351562 -41.86328125 9.55078125 C-42.67152344 9.80214844 -43.47976562 10.05351562 -44.3125 10.3125 C-45.11300781 10.55613281 -45.91351563 10.79976563 -46.73828125 11.05078125 C-49.11406211 12.04787062 -50.24597301 13.16367262 -52 15 C-52.66 15 -53.32 15 -54 15 C-54 14.34 -54 13.68 -54 13 C-54.99 13.495 -54.99 13.495 -56 14 C-56.33 14.99 -56.66 15.98 -57 17 C-57.99 17.33 -58.98 17.66 -60 18 C-43.19406502 16.5656081 -26.62174533 13.79129204 -10 11 C-10.99 10.34 -11.98 9.68 -13 9 C-12.8125 6.1875 -12.8125 6.1875 -12 3 C-9.5625 1.1875 -9.5625 1.1875 -7 0 C-4.3333581 -1.33332095 -2.83319697 -0.67102033 0 0 Z M-4 6 C-3.67 6.99 -3.34 7.98 -3 9 C-2.34 9 -1.68 9 -1 9 C-1.33 8.01 -1.66 7.02 -2 6 C-2.66 6 -3.32 6 -4 6 Z M-8 8 C-8.33 8.99 -8.66 9.98 -9 11 C-7.02 11 -5.04 11 -3 11 C-3.33 10.01 -3.66 9.02 -4 8 C-5.32 8 -6.64 8 -8 8 Z M0 8 C0 8.66 0 9.32 0 10 C0.66 9.67 1.32 9.34 2 9 C1.34 8.67 0.68 8.34 0 8 Z " fill="#FCD7EF" transform="translate(76,340)"/>
<path d="M0 0 C1.86792709 0.24496971 1.86792709 0.24496971 3.77359009 0.49488831 C9.39860798 1.11586963 14.96898334 1.11814608 20.62255859 1.08178711 C21.75046814 1.07872055 22.87837769 1.07565399 24.04046631 1.07249451 C26.47451881 1.06537334 28.90856556 1.05600139 31.34260178 1.04459953 C35.19191622 1.02714662 39.04118884 1.01689144 42.89053345 1.00868225 C53.8295692 0.98427346 64.76854748 0.94851745 75.70751953 0.90405273 C82.4092438 0.87689838 89.11092938 0.86025101 95.81270218 0.84918404 C98.36687027 0.84296446 100.92103198 0.83294705 103.47517014 0.81910515 C107.03475823 0.79997169 110.59417615 0.79300507 114.15380859 0.78881836 C115.21356903 0.78005676 116.27332947 0.77129517 117.36520386 0.76226807 C118.81594299 0.76422432 118.81594299 0.76422432 120.29598999 0.76622009 C121.13695913 0.76307769 121.97792828 0.75993528 122.84438133 0.75669765 C125 1 125 1 128 3 C125.45727214 7.96748043 122.91205985 12.93367655 120.36450195 17.89868164 C119.49760037 19.58908284 118.63138753 21.27983743 117.76586914 22.97094727 C116.52409428 25.39692185 115.27987524 27.82162871 114.03515625 30.24609375 C113.64658951 31.00651474 113.25802277 31.76693573 112.85768127 32.55039978 C110.11387171 37.88612829 110.11387171 37.88612829 109 39 C106.78312006 39.15873955 104.56144702 39.25133837 102.33984375 39.31640625 C101.67537735 39.33718735 101.01091095 39.35796844 100.3263092 39.37937927 C98.19681457 39.44493658 96.06719332 39.50378785 93.9375 39.5625 C92.49673153 39.60567939 91.05597601 39.64929349 89.61523438 39.69335938 C86.07695097 39.80144527 82.53857603 39.90047093 79 40 C90.88 43.465 90.88 43.465 103 47 C103 47.33 103 47.66 103 48 C92.58346865 48.18814937 82.16736286 48.32888158 71.74945736 48.41449738 C66.90811181 48.45565894 62.06795581 48.51115208 57.22729492 48.60351562 C38.11638053 48.95837513 19.58974423 49.19497347 1.00390625 44.21875 C0.35376997 44.04541641 -0.29636631 43.87208282 -0.96620369 43.6934967 C-12.05174757 40.64457655 -12.05174757 40.64457655 -16 36 C-17.32061097 33.61611339 -18.52776305 31.27096298 -19.6875 28.8125 C-20.37691887 27.38966033 -21.0684035 25.96782014 -21.76171875 24.546875 C-22.12185059 23.80759766 -22.48198242 23.06832031 -22.85302734 22.30664062 C-25.19834209 17.59005192 -27.71008436 12.95977387 -30.20581055 8.3215332 C-33 3.10115145 -33 3.10115145 -33 2 C-22.11 2 -11.22 2 0 2 C0 1.34 0 0.68 0 0 Z " fill="#B65AE3" transform="translate(78,142)"/>
<path d="M0 0 C0.99 0 1.98 0 3 0 C6.6959107 0 9.50462849 0.83487616 13 2 C13 23.45 13 44.9 13 67 C11.35 67.33 9.7 67.66 8 68 C8 67.34 8 66.68 8 66 C6.515 66.495 6.515 66.495 5 67 C2.99568551 66.34641919 0.9959722 65.67863055 -1 65 C-3.70886941 64.83201738 -3.70886941 64.83201738 -6 65 C-7.33333333 65 -8.66666667 65 -10 65 C-10 64.34 -10 63.68 -10 63 C-12.76443801 62.21849209 -12.76443801 62.21849209 -16 62 C-17.67016516 62.99414593 -19.33720673 63.9935725 -21 65 C-23.0625 64.0625 -23.0625 64.0625 -25 63 C-27.23470405 63.78309467 -27.23470405 63.78309467 -29 65 C-28.01 65.99 -27.02 66.98 -26 68 C-26.495 69.485 -26.495 69.485 -27 71 C-29.475 71.495 -29.475 71.495 -32 72 C-32 72.66 -32 73.32 -32 74 C-35 73 -35 73 -37 71 C-37.33 71.99 -37.66 72.98 -38 74 C-38.66 73.34 -39.32 72.68 -40 72 C-41.485 71.01 -41.485 71.01 -43 70 C-41.55922954 66.63820226 -39.75249979 64.40843732 -37 62 C-36.34 62 -35.68 62 -35 62 C-33.68 59.69 -32.36 57.38 -31 55 C-31.45375 54.54625 -31.9075 54.0925 -32.375 53.625 C-33.58333333 52.41666667 -34.79166667 51.20833333 -36 50 C-35.625 48 -35.625 48 -35 46 C-35 45.34 -35 44.68 -35 44 C-35.5775 43.7525 -36.155 43.505 -36.75 43.25 C-39.37223092 41.79320504 -41.09253081 40.31621258 -43 38 C-43 36.68 -43 35.36 -43 34 C-43.99 34 -44.98 34 -46 34 C-47 33 -48 32 -49 31 C-49.825 30.21625 -50.65 29.4325 -51.5 28.625 C-54 26 -54 26 -55 23.8125 C-56.42996439 21.22068954 -58.26113837 20.86490367 -61 20 C-60.505 18.515 -60.505 18.515 -60 17 C-54.25 16.875 -54.25 16.875 -52 18 C-52 18.66 -52 19.32 -52 20 C-49.83125748 19.49396008 -48.00032373 19.00016187 -46 18 C-45.67 17.34 -45.34 16.68 -45 16 C-44.67 16.33 -44.34 16.66 -44 17 C-43.01 16.67 -42.02 16.34 -41 16 C-40.34 16.33 -39.68 16.66 -39 17 C-39 16.34 -39 15.68 -39 15 C-37.68 14.34 -36.36 13.68 -35 13 C-35.66 12.67 -36.32 12.34 -37 12 C-37 11.01 -37 10.02 -37 9 C-37.53625 9.2475 -38.0725 9.495 -38.625 9.75 C-42.23501351 10.13000142 -44.08530606 7.98447247 -47 6 C-47.99 6.33 -48.98 6.66 -50 7 C-50 6.01 -50 5.02 -50 4 C-49.34 4 -48.68 4 -48 4 C-47.896875 3.360625 -47.79375 2.72125 -47.6875 2.0625 C-47.460625 1.381875 -47.23375 0.70125 -47 0 C-42.72044499 -1.42651834 -39.2974641 -0.96692942 -35 0 C-34.278125 0.12375 -33.55625 0.2475 -32.8125 0.375 C-31 1 -31 1 -29 4 C-27.88625 3.690625 -27.88625 3.690625 -26.75 3.375 C-23.60314245 2.94588306 -22.71187889 3.55366459 -20 5 C-16.9254644 4.2236068 -16.9254644 4.2236068 -15 2 C-14.01 1.67 -13.02 1.34 -12 1 C-11.34 0.34 -10.68 -0.32 -10 -1 C-6.23754137 -2.61248227 -3.70815759 -1.34124849 0 0 Z M-54 21 C-53 23 -53 23 -53 23 Z " fill="#DDFEBA" transform="translate(387,36)"/>
<path d="M0 0 C29.04 0 58.08 0 88 0 C88 12.54 88 25.08 88 38 C86.515 38.495 86.515 38.495 85 39 C84.34 38.34 83.68 37.68 83 37 C78.85490567 36.71397838 78.85490567 36.71397838 75 38 C74.34 37.34 73.68 36.68 73 36 C70.67724823 35.59952556 68.34260643 35.2602896 66 35 C65.505 35.99 65.505 35.99 65 37 C63.03696582 38.07074592 61.0302589 39.06295743 59 40 C58.175 40.433125 57.35 40.86625 56.5 41.3125 C53.11955958 42.24212112 51.20845303 41.25548162 48 40 C47.01 40 46.02 40 45 40 C44.34 39.01 43.68 38.02 43 37 C42.01 37 41.02 37 40 37 C34.30232558 36.30232558 34.30232558 36.30232558 32 34 C30.34738161 32.97695052 28.68208635 31.97383946 27 31 C26.01 31.99 25.02 32.98 24 34 C23.443125 33.46375 22.88625 32.9275 22.3125 32.375 C21.1678125 31.694375 21.1678125 31.694375 20 31 C17.26601865 31.70957237 17.26601865 31.70957237 15 33 C14.87625 32.360625 14.7525 31.72125 14.625 31.0625 C14.41875 30.381875 14.2125 29.70125 14 29 C13.34 28.67 12.68 28.34 12 28 C11.67 28.66 11.34 29.32 11 30 C10.05125 29.67 9.1025 29.34 8.125 29 C5.22937548 27.89840809 5.22937548 27.89840809 3 28 C3 27.34 3 26.68 3 26 C2.01 25.67 1.02 25.34 0 25 C-0.33 24.67 -0.66 24.34 -1 24 C-1.99 23.67 -2.98 23.34 -4 23 C-3.67 22.34 -3.34 21.68 -3 21 C-4.98 20.67 -6.96 20.34 -9 20 C-7.90621639 16.90094643 -6.71381455 14.59116364 -4.8125 11.875 C-4.214375 10.92625 -3.61625 9.9775 -3 9 C-3.88214887 6.11785113 -3.88214887 6.11785113 -5 4 C-4.360625 3.896875 -3.72125 3.79375 -3.0625 3.6875 C-2.381875 3.460625 -1.70125 3.23375 -1 3 C-0.67 2.01 -0.34 1.02 0 0 Z " fill="#C5FDB3" transform="translate(312,0)"/>
<path d="M0 0 C7.05704361 -0.23148843 14.11308267 -0.38714768 21.1730957 -0.49438477 C23.56572028 -0.53916522 25.95810569 -0.60021509 28.34985352 -0.67895508 C44.81561317 -1.20677013 56.80184547 0.35373654 71 9 C69.77851688 12.89697778 68.37690548 16.45009348 66.4609375 20.0546875 C65.96706543 20.99078857 65.47319336 21.92688965 64.96435547 22.89135742 C64.43986816 23.87595947 63.91538086 24.86056152 63.375 25.875 C62.28022872 27.95128474 61.18648096 30.02810948 60.09375 32.10546875 C59.56136719 33.11657715 59.02898437 34.12768555 58.48046875 35.16943359 C55.59320598 40.68970479 52.82931895 46.27030912 50.06542969 51.85302734 C47.88798431 56.24084922 45.69201417 60.61944371 43.5 65 C42.63535422 66.72913544 41.77076534 68.45829934 40.90625 70.1875 C40.27083333 71.45833333 39.63541667 72.72916667 39 74 C38.01 74 37.02 74 36 74 C35.56171875 73.11183594 35.1234375 72.22367187 34.671875 71.30859375 C26.68442808 55.19379582 18.30788478 39.27668837 9.85375977 23.40258789 C4 12.39560258 4 12.39560258 4 10 C9.94 9.505 9.94 9.505 16 9 C10.72 6.36 5.44 3.72 0 1 C0 0.67 0 0.34 0 0 Z " fill="#E8309C" transform="translate(88,226)"/>
<path d="M0 0 C3.17401868 0.6418702 4.07000294 1.88241093 6.10546875 4.42578125 C7.99538931 7.56434006 9.68254146 10.79246356 11.35546875 14.05078125 C12.04382812 15.35789062 12.04382812 15.35789062 12.74609375 16.69140625 C16.10546875 23.15020461 16.10546875 23.15020461 16.10546875 25.42578125 C17.14058594 25.53921875 18.17570312 25.65265625 19.2421875 25.76953125 C25.51251164 26.55418516 31.70850211 27.76544312 37.91796875 28.92578125 C39.14451172 29.15136719 40.37105469 29.37695312 41.63476562 29.609375 C50.72182162 31.29789887 50.72182162 31.29789887 54.10546875 32.42578125 C54.10546875 33.08578125 54.10546875 33.74578125 54.10546875 34.42578125 C38.26546875 34.92078125 38.26546875 34.92078125 22.10546875 35.42578125 C24.41546875 39.71578125 26.72546875 44.00578125 29.10546875 48.42578125 C27.10546875 53.42578125 27.10546875 53.42578125 24.73046875 54.48828125 C23.86421875 54.79765625 22.99796875 55.10703125 22.10546875 55.42578125 C21.40421875 56.12703125 20.70296875 56.82828125 19.98046875 57.55078125 C19.36171875 58.16953125 18.74296875 58.78828125 18.10546875 59.42578125 C17.11546875 59.42578125 16.12546875 59.42578125 15.10546875 59.42578125 C12.26493576 59.88640822 9.71092422 60.55992639 6.98046875 61.48828125 C4.10546875 62.42578125 4.10546875 62.42578125 1.10546875 62.42578125 C1.10546875 61.43578125 1.10546875 60.44578125 1.10546875 59.42578125 C-2.70866127 60.59360785 -2.70866127 60.59360785 -5.20703125 63.55078125 C-5.54734375 64.47890625 -5.54734375 64.47890625 -5.89453125 65.42578125 C-6.55453125 64.76578125 -7.21453125 64.10578125 -7.89453125 63.42578125 C-7.23453125 62.43578125 -6.57453125 61.44578125 -5.89453125 60.42578125 C-6.85359375 60.70421875 -6.85359375 60.70421875 -7.83203125 60.98828125 C-8.51265625 61.13265625 -9.19328125 61.27703125 -9.89453125 61.42578125 C-10.22453125 61.09578125 -10.55453125 60.76578125 -10.89453125 60.42578125 C-11.55453125 61.08578125 -12.21453125 61.74578125 -12.89453125 62.42578125 C-14.10109375 62.14734375 -14.10109375 62.14734375 -15.33203125 61.86328125 C-16.17765625 61.71890625 -17.02328125 61.57453125 -17.89453125 61.42578125 C-19.54047264 62.82166879 -19.54047264 62.82166879 -20.89453125 64.42578125 C-21.88453125 64.42578125 -22.87453125 64.42578125 -23.89453125 64.42578125 C-23.89453125 45.28578125 -23.89453125 26.14578125 -23.89453125 6.42578125 C-22.24453125 5.76578125 -20.59453125 5.10578125 -18.89453125 4.42578125 C-18.29640625 4.07515625 -17.69828125 3.72453125 -17.08203125 3.36328125 C-14.85206242 2.40758032 -13.1047622 2.13633246 -10.70703125 1.86328125 C-6.84804092 1.42044629 -4.04415236 0.22003831 0 0 Z " fill="#E1EFF8" transform="translate(23.89453125,109.57421875)"/>
<path d="M0 0 C34.65 0 69.3 0 105 0 C104 2 104 2 101 4 C101 3.34 101 2.68 101 2 C97.99615946 2.6954344 97.99615946 2.6954344 95 4 C94.03122943 6.03243548 94.03122943 6.03243548 94 8 C93.34 8 92.68 8 92 8 C91.67 8.66 91.34 9.32 91 10 C89.68 9.34 88.36 8.68 87 8 C82.90892301 10.60013426 82.90892301 10.60013426 79.25 13.75 C78.8375 14.1625 78.425 14.575 78 15 C77.34 15 76.68 15 76 15 C75.34 15.66 74.68 16.32 74 17 C72.68 17 71.36 17 70 17 C68.64631404 18.31266518 67.31200404 19.64567325 66 21 C65.01 21 64.02 21 63 21 C62.01 21.66 61.02 22.32 60 23 C59.34 23 58.68 23 58 23 C57.01 23.66 56.02 24.32 55 25 C54.34 25 53.68 25 53 25 C52.38125 25.350625 51.7625 25.70125 51.125 26.0625 C49 27 49 27 47.0625 26.5 C44.16865522 25.79846187 42.5965209 26.66665143 40 28 C39.67 28.66 39.34 29.32 39 30 C37.66666667 30.66666667 36.33333333 31.33333333 35 32 C34.505 32.99 34.505 32.99 34 34 C31.44078795 36.69390742 29.09824599 38.93450267 26 41 C26 38 26 38 28 35.625 C31.40740453 30.7276193 30.80329915 24.66359656 30 19 C28.51601467 15.0627843 26.89757813 10.94878907 23 9 C23 8.01 23 7.02 23 6 C21.948125 6.10828125 21.948125 6.10828125 20.875 6.21875 C16.4261135 6.65396716 12.03573053 7.0676481 7.5625 7 C4.7336686 7 2.64943257 7.11685581 0 8 C0 5.36 0 2.72 0 0 Z " fill="#B1FAFA" transform="translate(0,0)"/>
<path d="M0 0 C17.49 0 34.98 0 53 0 C53 0.66 53 1.32 53 2 C52.34 2 51.68 2 51 2 C49.89155081 5.32534757 50.15545644 7.62182575 51 11 C50.34 11 49.68 11 49 11 C48.855625 11.5775 48.71125 12.155 48.5625 12.75 C48 15 48 15 47.25 16.9375 C46.88069509 19.98426551 48.30168654 21.55442862 50 24 C49.01 25.32 48.02 26.64 47 28 C45.68 26.02 44.36 24.04 43 22 C42.01 22.33 41.02 22.66 40 23 C39.01 22.01 38.02 21.02 37 20 C33.83884224 21.36983503 33.0072908 21.9890638 31 25 C30.34 25 29.68 25 29 25 C29 25.66 29 26.32 29 27 C28.01 27.33 27.02 27.66 26 28 C25.525625 27.195625 25.05125 26.39125 24.5625 25.5625 C22.19254442 21.67577285 20.38540651 21.31562195 16 20 C15.01 20 14.02 20 13 20 C12.67 20.99 12.34 21.98 12 23 C11.05125 23.28875 10.1025 23.5775 9.125 23.875 C5.31685734 25.24593136 4.95772226 26.61847974 3 30 C1.68 30 0.36 30 -1 30 C-0.62875 29.4225 -0.2575 28.845 0.125 28.25 C1.28112691 26.02243325 1.28112691 26.02243325 0.1875 23.875 C-0.204375 23.25625 -0.59625 22.6375 -1 22 C-1.33 21.34 -1.66 20.68 -2 20 C-5.05270463 19.84188612 -5.05270463 19.84188612 -8 21 C-11 22 -11 22 -14 22 C-14 20.02 -14 18.04 -14 16 C-13.319375 15.95875 -12.63875 15.9175 -11.9375 15.875 C-6.48867721 14.2519464 -2.97307049 10.55083109 0 5.8125 C1.3338883 2.97537738 1.3338883 2.97537738 0 0 Z " fill="#C7FED2" transform="translate(234,0)"/>
<path d="M0 0 C3.17401868 0.6418702 4.07000294 1.88241093 6.10546875 4.42578125 C7.99538931 7.56434006 9.68254146 10.79246356 11.35546875 14.05078125 C12.04382812 15.35789062 12.04382812 15.35789062 12.74609375 16.69140625 C16.10546875 23.15020461 16.10546875 23.15020461 16.10546875 25.42578125 C17.38421875 25.54953125 18.66296875 25.67328125 19.98046875 25.80078125 C23.85546875 26.17578125 23.85546875 26.17578125 26.10546875 28.42578125 C20.34772033 31.74755919 15.49298503 31.36820169 9.10546875 30.42578125 C2.23416386 30.14035782 -5.14606289 29.95389309 -11.89453125 31.42578125 C-12.22453125 32.08578125 -12.55453125 32.74578125 -12.89453125 33.42578125 C-14.9609375 33.83984375 -14.9609375 33.83984375 -17.45703125 34.05078125 C-18.28332031 34.12554687 -19.10960937 34.2003125 -19.9609375 34.27734375 C-20.59902344 34.32632813 -21.23710937 34.3753125 -21.89453125 34.42578125 C-21.89453125 35.08578125 -21.89453125 35.74578125 -21.89453125 36.42578125 C-22.55453125 36.42578125 -23.21453125 36.42578125 -23.89453125 36.42578125 C-23.89453125 26.52578125 -23.89453125 16.62578125 -23.89453125 6.42578125 C-22.24453125 5.76578125 -20.59453125 5.10578125 -18.89453125 4.42578125 C-18.29640625 4.07515625 -17.69828125 3.72453125 -17.08203125 3.36328125 C-14.85206242 2.40758032 -13.1047622 2.13633246 -10.70703125 1.86328125 C-6.84804092 1.42044629 -4.04415236 0.22003831 0 0 Z " fill="#DBFAFB" transform="translate(23.89453125,109.57421875)"/>
<path d="M0 0 C14.97853481 -0.07041593 29.95705668 -0.12314645 44.93572235 -0.15543652 C51.89226348 -0.17083503 58.84870113 -0.19178831 65.80517578 -0.22631836 C72.52902127 -0.25967748 79.25273752 -0.27689537 85.97666931 -0.28463173 C88.53126203 -0.29013916 91.08584945 -0.30089296 93.64039612 -0.31719017 C107.13184895 -0.39977314 119.85546006 -0.24219491 133 3 C135.12438129 3.46507482 137.24928457 3.92778048 139.375 4.38671875 C141.25073756 4.81711059 143.12576342 5.25061809 145 5.6875 C146.46566406 6.02491211 146.46566406 6.02491211 147.9609375 6.36914062 C150.30797451 6.90987954 152.65430579 7.45347141 155 8 C155 8.33 155 8.66 155 9 C140.81001245 9.16600014 126.62018228 9.28766928 112.42941189 9.3626852 C105.83534882 9.39874457 99.24190384 9.44739535 92.64819336 9.52807617 C29.48964309 10.28062354 29.48964309 10.28062354 2 2 C1.34 1.34 0.68 0.68 0 0 Z " fill="#46027C" transform="translate(46,135)"/>
<path d="M0 0 C10.71037447 -0.09315298 21.42065073 -0.16399308 32.13134956 -0.20724869 C37.10610507 -0.2280213 42.08058107 -0.2561476 47.05517578 -0.30175781 C51.86628802 -0.34558727 56.67713336 -0.36921451 61.48843002 -0.37950897 C63.31343658 -0.38683437 65.13843044 -0.40113679 66.96332169 -0.42292023 C78.11735873 -0.5506293 87.38601825 0.26803779 98 4 C99.47315872 4.43361126 100.94928108 4.85744347 102.4296875 5.265625 C107.21484375 6.6328125 107.21484375 6.6328125 112 8 C112 8.33 112 8.66 112 9 C101.5143089 9.16424045 91.02893756 9.28758507 80.54220867 9.3626852 C75.6695135 9.39878134 70.79771584 9.44750058 65.92553711 9.52807617 C19.22467349 10.28024113 19.22467349 10.28024113 1 2 C0.67 1.34 0.34 0.68 0 0 Z " fill="#8C30B8" transform="translate(69,181)"/>
<path d="M0 0 C3.63 0 7.26 0 11 0 C11 0.66 11 1.32 11 2 C10.34 2 9.68 2 9 2 C8.896875 2.598125 8.79375 3.19625 8.6875 3.8125 C7.88342605 6.37091711 6.91521673 7.15638016 5 9 C3.84531214 10.30471691 2.69991268 11.61769597 1.5625 12.9375 C-3.96293375 19.25394322 -3.96293375 19.25394322 -6 21 C-6.99 21 -7.98 21 -9 21 C-9.226875 21.61875 -9.45375 22.2375 -9.6875 22.875 C-11.39608617 25.64128237 -12.99992221 25.90241056 -16 27 C-17.60411246 28.35405861 -17.60411246 28.35405861 -19 30 C-19.70125 30.66 -20.4025 31.32 -21.125 32 C-23.21598078 33.95103635 -23.21598078 33.95103635 -24 37 C-19.37239521 36.39973957 -19.37239521 36.39973957 -14.8125 35.4375 C-13 35 -13 35 -9 35 C-8.34 35.66 -7.68 36.32 -7 37 C-9.64 37.66 -12.28 38.32 -15 39 C-15 39.66 -15 40.32 -15 41 C-15.9590625 41.185625 -15.9590625 41.185625 -16.9375 41.375 C-17.618125 41.58125 -18.29875 41.7875 -19 42 C-19.33 42.66 -19.66 43.32 -20 44 C-20.66 43.67 -21.32 43.34 -22 43 C-22.33 43.99 -22.66 44.98 -23 46 C-24.62890625 47.31640625 -24.62890625 47.31640625 -26.5625 48.5625 C-28.46890121 49.74992017 -28.46890121 49.74992017 -30 51 C-30 51.66 -30 52.32 -30 53 C-31.32 52.67 -32.64 52.34 -34 52 C-34.99 54.475 -34.99 54.475 -36 57 C-37.64826111 54.03312999 -38.44271087 51.34373475 -39 48 C-38.34 48 -37.68 48 -37 48 C-37.495 46.515 -37.495 46.515 -38 45 C-37.1875 42.625 -37.1875 42.625 -36 40 C-35.690625 39.13375 -35.38125 38.2675 -35.0625 37.375 C-34 35 -34 35 -32.3125 33.5625 C-31.879375 33.046875 -31.44625 32.53125 -31 32 C-31.20625 31.05125 -31.4125 30.1025 -31.625 29.125 C-32 26 -32 26 -29.8125 23.0625 C-27 21 -27 21 -24.6875 21.1875 C-24.130625 21.455625 -23.57375 21.72375 -23 22 C-22.67 21.34 -22.34 20.68 -22 20 C-20.68 20 -19.36 20 -18 20 C-15.89864489 19.15291504 -15.89864489 19.15291504 -13.875 18 C-10.19444444 16 -10.19444444 16 -8 16 C-3.68614244 12.24111959 -3.68614244 12.24111959 -2 7 C-1.07692308 2.15384615 -1.07692308 2.15384615 0 0 Z M-26 38 C-25.67 38.66 -25.34 39.32 -25 40 C-24.67 39.34 -24.34 38.68 -24 38 C-24.66 38 -25.32 38 -26 38 Z M-37 51 C-36 53 -36 53 -36 53 Z " fill="#C9FCE4" transform="translate(210,0)"/>
<path d="M0 0 C7.05704361 -0.23148843 14.11308267 -0.38714768 21.1730957 -0.49438477 C23.56572028 -0.53916522 25.95810569 -0.60021509 28.34985352 -0.67895508 C44.81561317 -1.20677013 56.80184547 0.35373654 71 9 C71 9.33 71 9.66 71 10 C63.76376655 10.20527497 56.52830082 10.34393942 49.28979492 10.43945312 C46.83508251 10.47932793 44.3805556 10.53364966 41.92651367 10.60351562 C26.66792192 11.02658769 13.96660421 10.7785567 1 2 C0.67 1.34 0.34 0.68 0 0 Z " fill="#CC2ABB" transform="translate(88,226)"/>
<path d="M0 0 C0.99 0 1.98 0 3 0 C3 0.99 3 1.98 3 3 C3.99 3.33 4.98 3.66 6 4 C6.33 4.33 6.66 4.66 7 5 C8.4540625 5.433125 8.4540625 5.433125 9.9375 5.875 C13 7 13 7 15 10 C14.01 11.485 14.01 11.485 13 13 C14.4749761 15.52853046 15.84151718 17.82512241 17.8125 20 C18.204375 20.66 18.59625 21.32 19 22 C18.1875 24.75 18.1875 24.75 17 27 C17.66 27.66 18.32 28.32 19 29 C19 29.66 19 30.32 19 31 C22.3171411 32.4216319 25.44219804 33.39009109 29 34 C28 36 28 36 25.0625 37.0625 C24.051875 37.371875 23.04125 37.68125 22 38 C21.01 38.495 21.01 38.495 20 39 C19.34 38.34 18.68 37.68 18 37 C17.01 37.495 17.01 37.495 16 38 C14.515 38.495 14.515 38.495 13 39 C13.99 39.99 14.98 40.98 16 42 C15.67 42.99 15.34 43.98 15 45 C12.525 45.495 12.525 45.495 10 46 C10 46.66 10 47.32 10 48 C7 47 7 47 5 45 C4.67 45.99 4.34 46.98 4 48 C3.34 47.34 2.68 46.68 2 46 C1.01 45.34 0.02 44.68 -1 44 C0.44077046 40.63820226 2.24750021 38.40843732 5 36 C5.66 36 6.32 36 7 36 C8.32 33.69 9.64 31.38 11 29 C10.54625 28.54625 10.0925 28.0925 9.625 27.625 C8.41666667 26.41666667 7.20833333 25.20833333 6 24 C6.375 22 6.375 22 7 20 C7 19.34 7 18.68 7 18 C6.4225 17.7525 5.845 17.505 5.25 17.25 C2.62776908 15.79320504 0.90746919 14.31621258 -1 12 C-1 10.68 -1 9.36 -1 8 C-1.99 8 -2.98 8 -4 8 C-5 7 -6 6 -7 5 C-7 3.68 -7 2.36 -7 1 C-4.03 1.495 -4.03 1.495 -1 2 C-0.67 1.34 -0.34 0.68 0 0 Z " fill="#E8FEC2" transform="translate(345,62)"/>
<path d="M0 0 C1.32 0 2.64 0 4 0 C4 0.66 4 1.32 4 2 C4.66 2 5.32 2 6 2 C6 2.66 6 3.32 6 4 C6.66 4.33 7.32 4.66 8 5 C8 5.66 8 6.32 8 7 C7.34 7 6.68 7 6 7 C5.67 8.65 5.34 10.3 5 12 C4.34 12 3.68 12 3 12 C3.33 12.99 3.66 13.98 4 15 C3.525625 15.45375 3.05125 15.9075 2.5625 16.375 C0.90972192 17.93258204 0.90972192 17.93258204 0 20 C-0.66 20 -1.32 20 -2 20 C-2 20.66 -2 21.32 -2 22 C-3.5 23.625 -3.5 23.625 -5 25 C-4.34 25.99 -3.68 26.98 -3 28 C-3 28.66 -3 29.32 -3 30 C-1.35 30.66 0.3 31.32 2 32 C2.33 31.34 2.66 30.68 3 30 C3.66 30.33 4.32 30.66 5 31 C4.75 32.875 4.75 32.875 4 35 C2.0625 36.3125 2.0625 36.3125 0 37 C-0.66 36.67 -1.32 36.34 -2 36 C-2.45375 36.495 -2.9075 36.99 -3.375 37.5 C-5 39 -5 39 -7 39 C-7.33 39.66 -7.66 40.32 -8 41 C-11.57692308 44 -11.57692308 44 -14 44 C-14.33 44.99 -14.66 45.98 -15 47 C-17.31 46.67 -19.62 46.34 -22 46 C-22.144375 45.2575 -22.28875 44.515 -22.4375 43.75 C-22.90187492 41.47972261 -23.41863569 39.24240521 -24 37 C-23.41476563 36.74605469 -22.82953125 36.49210937 -22.2265625 36.23046875 C-17.15234103 33.42629373 -13.56651981 28.7591931 -11.8125 23.3125 C-11.544375 22.219375 -11.27625 21.12625 -11 20 C-8.91851344 17.04563198 -6.61726289 14.48639974 -4 12 C-4.66 12 -5.32 12 -6 12 C-6 11.34 -6 10.68 -6 10 C-5.01 9.34 -4.02 8.68 -3 8 C-1.78943339 5.37710567 -0.9135378 2.74061339 0 0 Z M-8 29 C-7.67 29.66 -7.34 30.32 -7 31 C-6.34 30.67 -5.68 30.34 -5 30 C-5.99 29.67 -6.98 29.34 -8 29 Z " fill="#D1FAEC" transform="translate(148,34)"/>
<path d="M0 0 C0.66 0.33 1.32 0.66 2 1 C1.67 1.78375 1.34 2.5675 1 3.375 C-0.11866511 5.84332497 -0.11866511 5.84332497 0 8 C0.99 8.33 1.98 8.66 3 9 C3 18.57 3 28.14 3 38 C0.69 38 -1.62 38 -4 38 C-4.66 38.66 -5.32 39.32 -6 40 C-6.433125 39.34 -6.86625 38.68 -7.3125 38 C-7.869375 37.34 -8.42625 36.68 -9 36 C-9.99 36 -10.98 36 -12 36 C-12.33 36 -12.66 36 -13 36 C-14.66666667 34.33333333 -16.33333333 32.66666667 -18 31 C-18.33 31.66 -18.66 32.32 -19 33 C-19 31.68 -19 30.36 -19 29 C-19.66 28.01 -20.32 27.02 -21 26 C-21.66 26.66 -22.32 27.32 -23 28 C-23.33 25.69 -23.66 23.38 -24 21 C-23.21625 21.165 -22.4325 21.33 -21.625 21.5 C-19.11791961 22.0623707 -19.11791961 22.0623707 -17 22 C-16.01 22 -15.02 22 -14 22 C-14 22.99 -14 23.98 -14 25 C-11.18490007 27.2773501 -11.18490007 27.2773501 -8 27 C-7.01 27 -6.02 27 -5 27 C-5.66 26.67 -6.32 26.34 -7 26 C-7 25.34 -7 24.68 -7 24 C-7.66 24 -8.32 24 -9 24 C-9.22786458 22.01432292 -9.45572917 20.02864583 -9.68359375 18.04296875 C-9.97170735 15.80603607 -9.97170735 15.80603607 -11 13 C-9.63817703 9.82241307 -8.45140787 7.45140787 -6 5 C-5.67 4.34 -5.34 3.68 -5 3 C-3.68352881 2.30062468 -2.34977849 1.63270867 -1 1 C-0.67 0.67 -0.34 0.34 0 0 Z M-7 35 C-7 35.66 -7 36.32 -7 37 C-6.34 36.67 -5.68 36.34 -5 36 C-5.66 35.67 -6.32 35.34 -7 35 Z " fill="#F9FFC8" transform="translate(397,120)"/>
<path d="M0 0 C-2.31 1.98 -4.62 3.96 -7 6 C-6.67 7.32 -6.34 8.64 -6 10 C-6.66 10.66 -7.32 11.32 -8 12 C-3.72866497 14.68483916 -1.23952513 16.23990809 3.875 15.25 C4.90625 14.8375 5.9375 14.425 7 14 C7.66 14 8.32 14 9 14 C9.969375 13.154375 10.93875 12.30875 11.9375 11.4375 C12.948125 10.633125 13.95875 9.82875 15 9 C15.99 9.33 16.98 9.66 18 10 C20.63804589 9.60602665 20.63804589 9.60602665 23 9 C23.99 10.32 24.98 11.64 26 13 C25.195625 13.28875 24.39125 13.5775 23.5625 13.875 C20.8673532 14.73262568 20.8673532 14.73262568 20 17 C19.34 17 18.68 17 18 17 C16.29319053 18.62553283 14.62339805 20.29115995 13 22 C12.34 21.01 11.68 20.02 11 19 C10.67 19.66 10.34 20.32 10 21 C8.25 22.1875 8.25 22.1875 6 23 C5.154375 22.814375 4.30875 22.62875 3.4375 22.4375 C2.633125 22.293125 1.82875 22.14875 1 22 C-0.8354799 23.33378575 -0.8354799 23.33378575 -2 25 C-2.598125 24.505 -3.19625 24.01 -3.8125 23.5 C-5.97029994 21.71723582 -5.97029994 21.71723582 -9 22 C-9.99 22 -10.98 22 -12 22 C-12.33 22.66 -12.66 23.32 -13 24 C-13.433125 23.505 -13.86625 23.01 -14.3125 22.5 C-15.99740483 20.66781808 -15.99740483 20.66781808 -19 21 C-19.68707555 18.50935112 -20 16.62113708 -20 14 C-19.01 14 -18.02 14 -17 14 C-16.87625 12.7625 -16.7525 11.525 -16.625 10.25 C-16.04580144 5.62456925 -14.58047011 2.87070517 -12 -1 C-7.79559124 -2.73975535 -4.1421519 -1.3807173 0 0 Z M14 11 C14.66 11.66 15.32 12.32 16 13 C16 12.34 16 11.68 16 11 C15.34 11 14.68 11 14 11 Z M-10 15 C-9.34 15.66 -8.68 16.32 -8 17 C-8 16.34 -8 15.68 -8 15 C-8.66 15 -9.32 15 -10 15 Z M-3 20 C-2 22 -2 22 -2 22 Z " fill="#E0FDDB" transform="translate(223,60)"/>
<path d="M0 0 C1.32 1.32 2.64 2.64 4 4 C3.34 4.66 2.68 5.32 2 6 C7.46633337 10.29497622 11.08291935 11.51555881 18 11 C18.721875 10.814375 19.44375 10.62875 20.1875 10.4375 C22.65387704 9.84216761 24.57005121 10.3925128 27 11 C25.68 11.99 24.36 12.98 23 14 C22.34 13.67 21.68 13.34 21 13 C19.99983813 15.00032373 19.50603992 16.83125748 19 19 C20.32 19.66 21.64 20.32 23 21 C22.505 22.485 22.505 22.485 22 24 C22.495 24.99 22.495 24.99 23 26 C22.01 26.99 21.02 27.98 20 29 C19.01 28.67 18.02 28.34 17 28 C16.505 26.515 16.505 26.515 16 25 C14.68799596 23.64567325 13.35368596 22.31266518 12 21 C11.34 20.01 10.68 19.02 10 18 C9.01 18 8.02 18 7 18 C6.34 16.35 5.68 14.7 5 13 C4.01 13 3.02 13 2 13 C1.67 13.66 1.34 14.32 1 15 C-1.83967231 15 -4.23735711 14.59732819 -7 14 C-7 13.34 -7 12.68 -7 12 C-8.98 12.66 -10.96 13.32 -13 14 C-14.32 12.68 -15.64 11.36 -17 10 C-15.68 9.34 -14.36 8.68 -13 8 C-13 7.34 -13 6.68 -13 6 C-12.4225 5.731875 -11.845 5.46375 -11.25 5.1875 C-8.94925609 4.06691791 -8.94925609 4.06691791 -7 2.375 C-5 1 -5 1 -1 1 C-0.67 0.67 -0.34 0.34 0 0 Z " fill="#E6FECE" transform="translate(282,68)"/>
<path d="M0 0 C0.99 0.33 1.98 0.66 3 1 C3.99 0.67 4.98 0.34 6 0 C7.66666667 0.33333333 9.33333333 0.66666667 11 1 C11.99 0.67 12.98 0.34 14 0 C21.05061082 -0.47469459 21.05061082 -0.47469459 24 1 C25.32 1 26.64 1 28 1 C28 2.32 28 3.64 28 5 C27.34 5 26.68 5 26 5 C25.690625 5.78375 25.38125 6.5675 25.0625 7.375 C24 10 24 10 23 12 C23.99 11.67 24.98 11.34 26 11 C25.34 12.98 24.68 14.96 24 17 C23.34 16.67 22.68 16.34 22 16 C20.18738027 16 18.37452416 16.01603784 16.5625 16.0625 C14.19236993 16.00469195 12.26252909 15.67037899 10 15 C10 15.66 10 16.32 10 17 C9.34 17 8.68 17 8 17 C7.67 15.35 7.34 13.7 7 12 C6.34 12 5.68 12 5 12 C4.67 12.99 4.34 13.98 4 15 C0.37 15 -3.26 15 -7 15 C-7 13.68 -7 12.36 -7 11 C-5.39125 11.061875 -5.39125 11.061875 -3.75 11.125 C0.51844769 11.04138532 0.51844769 11.04138532 4 9 C6.24407254 5.96798075 6.24407254 5.96798075 8 3 C7.34 3.66 6.68 4.32 6 5 C3.31160615 5.26991906 0.70858064 5.08737357 -2 5 C-2 3.68 -2 2.36 -2 1 C-1.34 0.67 -0.68 0.34 0 0 Z " fill="#F0F9D0" transform="translate(267,117)"/>
<path d="M0 0 C3.5542299 0.64622362 5.59136218 1.42940796 8.4375 3.625 C10.89415197 7.30997796 11.13836491 10.34471786 10.4375 14.625 C8.64386089 17.4350346 7.41869065 19.13440468 4.4375 20.625 C-2.69480769 21.32653846 -2.69480769 21.32653846 -6.5 18.25 C-8.63708299 15.5300762 -9.45093415 14.3103331 -10 10.9375 C-9.45956568 6.84564013 -8.1280928 4.9525895 -5.34375 1.984375 C-3.5625 0.625 -3.5625 0.625 0 0 Z " fill="#FEF6FB" transform="translate(124.5625,197.375)"/>
<path d="M0 0 C2.99264813 1.29786424 3.81373741 2.32182832 6 5 C7.04963592 9.46498973 6.53102537 12.89177315 4.5625 17 C0.89167528 19.86503393 -2.38358968 20.51914649 -7 20 C-10.01120406 18.74429042 -10.81844474 17.67240519 -13 15 C-14.43436311 10.97243804 -14.45565287 8.04800159 -12.75 4.125 C-9.15553827 -0.23970353 -5.38919517 -0.95401948 0 0 Z " fill="#FCECF5" transform="translate(129,249)"/>
<path d="M0 0 C-0.33 0.66 -0.66 1.32 -1 2 C-3.56634394 2.64158599 -6.13823206 3.02199146 -8.75 3.4375 C-9.86375 3.7159375 -9.86375 3.7159375 -11 4 C-11.33 4.66 -11.66 5.32 -12 6 C-11.38125 5.79375 -10.7625 5.5875 -10.125 5.375 C-9.42375 5.25125 -8.7225 5.1275 -8 5 C-7.34 5.66 -6.68 6.32 -6 7 C-9.91190133 7.88425428 -13.82623218 8.75670245 -17.74316406 9.6184082 C-19.07460913 9.91304307 -20.40535314 10.21086512 -21.73535156 10.51196289 C-23.64980647 10.94478995 -25.56707131 11.36512838 -27.484375 11.78515625 C-28.63647461 12.04176025 -29.78857422 12.29836426 -30.97558594 12.56274414 C-33.78107868 12.96834936 -35.37195618 12.95026906 -38 12 C-37.67 11.34 -37.34 10.68 -37 10 C-36.34 10 -35.68 10 -35 10 C-35 9.34 -35 8.68 -35 8 C-37.95800528 8.70768358 -37.95800528 8.70768358 -41 10 C-41.66 11.32 -42.32 12.64 -43 14 C-46.63 14 -50.26 14 -54 14 C-54 12.35 -54 10.7 -54 9 C-51.96185767 8.32263519 -49.91929445 7.65856466 -47.875 7 C-46.73804688 6.62875 -45.60109375 6.2575 -44.4296875 5.875 C-41.09410758 5.02400922 -38.41666235 4.95838977 -35 5 C-32.4488623 4.4072951 -32.4488623 4.4072951 -29.9375 3.5625 C-24.56788293 1.99574872 -19.4207631 1.49534879 -13.84765625 1.2109375 C-9.0896254 0.85849077 -4.86196164 -0.09349926 0 0 Z " fill="#FBD4F0" transform="translate(54,322)"/>
<path d="M0 0 C2.77266034 1.38633017 3.89892015 3.65301718 5.625 6.14453125 C7.5262893 8.71019153 9.6791858 10.81180376 12 13 C11.34 13 10.68 13 10 13 C9.67 13.99 9.34 14.98 9 16 C10.64508566 17.80959422 11.86654689 18.94112363 14.125 19.9375 C16 21 16 21 16.75 23.125 C16.87375 24.053125 16.87375 24.053125 17 25 C18.32 24.34 19.64 23.68 21 23 C21.33 23.66 21.66 24.32 22 25 C21.34 25 20.68 25 20 25 C20 26.65 20 28.3 20 30 C19.01 30 18.02 30 17 30 C16.67 30.66 16.34 31.32 16 32 C12.37861734 33.02273507 8.93265244 33.10762232 5.1875 33.0625 C4.21167969 33.05347656 3.23585938 33.04445312 2.23046875 33.03515625 C1.12638672 33.01775391 1.12638672 33.01775391 0 33 C0 32.34 0 31.68 0 31 C-0.66 31 -1.32 31 -2 31 C-2 29.35 -2 27.7 -2 26 C1.05847848 25.45627049 3.88772805 25 7 25 C7.99 24.34 8.98 23.68 10 23 C9.236875 22.236875 8.47375 21.47375 7.6875 20.6875 C6.20818663 19.20818663 4.73807188 17.71866979 3.3125 16.1875 C2.04781729 14.77636223 2.04781729 14.77636223 0 15 C-0.33 13.68 -0.66 12.36 -1 11 C-1.66 11 -2.32 11 -3 11 C-3 9.68 -3 8.36 -3 7 C-3.33 6.34 -3.66 5.68 -4 5 C-3.525625 4.54625 -3.05125 4.0925 -2.5625 3.625 C-0.90972192 2.06741796 -0.90972192 2.06741796 0 0 Z " fill="#F0FECC" transform="translate(306,92)"/>
<path d="M0 0 C0.7425 0.350625 1.485 0.70125 2.25 1.0625 C5.82314131 2.28061636 7.59292353 1.42621806 11 0 C11.66 0.66 12.32 1.32 13 2 C14.671549 1.69208308 16.33805547 1.35613097 18 1 C19.34371874 1.28863272 20.68054333 1.61539242 22 2 C20.57315404 5.10917296 19.13171297 8.21136053 17.6875 11.3125 C17.08131836 12.63411133 17.08131836 12.63411133 16.46289062 13.98242188 C16.06650391 14.82998047 15.67011719 15.67753906 15.26171875 16.55078125 C14.71970825 17.72120972 14.71970825 17.72120972 14.16674805 18.9152832 C12.99872537 21.00227748 11.76994399 22.40816358 10 24 C5.30278647 16.621044 1.5341843 8.99577866 -2 1 C-1.34 0.67 -0.68 0.34 0 0 Z " fill="#EE3AA2" transform="translate(115,277)"/>
<path d="M0 0 C3 1 3 1 4.8125 1.9375 C8.50259013 3.72982949 11.8795457 5 16 5 C16.33 5.99 16.66 6.98 17 8 C14.17105446 10.9337213 11.41072847 13.75391052 8 16 C5.25 15.75 5.25 15.75 3 15 C2.67 15 2.34 15 2 15 C0 13 0 13 -1 10 C-4.71599191 9.79913557 -5.77208445 9.8480563 -9 12 C-9.66 11.34 -10.32 10.68 -11 10 C-11 7 -11 7 -9.6875 5.375 C-8 4 -8 4 -5 3 C-4.67 2.34 -4.34 1.68 -4 1 C-2.68 1.33 -1.36 1.66 0 2 C0 1.34 0 0.68 0 0 Z " fill="#D5FED4" transform="translate(248,36)"/>
<path d="M0 0 C0.04254356 1.99954746 0.04080783 4.00041636 0 6 C-1.93270447 7.93270447 -5.40306881 7.65374251 -8 8 C-9.175625 8.2784375 -9.175625 8.2784375 -10.375 8.5625 C-14.24529718 9.20754953 -18.08563531 9.07675225 -22 9 C-22 8.34 -22 7.68 -22 7 C-24.31 6.67 -26.62 6.34 -29 6 C-28.67 4.35 -28.34 2.7 -28 1 C-18.92410711 -2.30032469 -9.41402118 -1.25520282 0 0 Z M-24 9 C-22 10 -22 10 -22 10 Z " fill="#ECE4D0" transform="translate(334,208)"/>
<path d="M0 0 C1.11375 0.495 1.11375 0.495 2.25 1 C5.13883312 2.22782871 5.13883312 2.22782871 9 2 C9 3.32 9 4.64 9 6 C6.525 5.505 6.525 5.505 4 5 C2.49069817 8.3863251 2.49069817 8.3863251 2 12 C2.99 12.66 3.98 13.32 5 14 C4 16 4 16 0.8125 17.375 C-3 18 -3 18 -6.4375 16.375 C-7.283125 15.59125 -8.12875 14.8075 -9 14 C-9 12.68 -9 11.36 -9 10 C-9.99 9.34 -10.98 8.68 -12 8 C-11.67 7.34 -11.34 6.68 -11 6 C-13.31 6 -15.62 6 -18 6 C-17.67 4.35 -17.34 2.7 -17 1 C-16.0925 1.185625 -15.185 1.37125 -14.25 1.5625 C-11.31685676 1.95734621 -9.7355343 1.94691572 -7 1 C-7 1.99 -7 2.98 -7 4 C-5.68 4 -4.36 4 -3 4 C-2.67 3.34 -2.34 2.68 -2 2 C-1.34 2 -0.68 2 0 2 C0 1.34 0 0.68 0 0 Z " fill="#F7FEC8" transform="translate(359,116)"/>
<path d="M0 0 C2.35953094 2.35953094 2.49141413 3.77895617 3 7 C2.01 7 1.02 7 0 7 C0 6.34 0 5.68 0 5 C-0.763125 5.61875 -1.52625 6.2375 -2.3125 6.875 C-5 9 -5 9 -8 11 C-8.66 10.34 -9.32 9.68 -10 9 C-10.78375 9.825 -11.5675 10.65 -12.375 11.5 C-15 14 -15 14 -17 14 C-19.2783298 15.67405765 -21.43281341 17.47427388 -23.61328125 19.2734375 C-26.00970753 21.00702247 -28.21938535 22.02555451 -31 23 C-31.33 22.34 -31.66 21.68 -32 21 C-29.83201268 15.5229794 -29.83201268 15.5229794 -26.8125 13.625 C-26.214375 13.41875 -25.61625 13.2125 -25 13 C-25.33 12.01 -25.66 11.02 -26 10 C-24.68 10 -23.36 10 -22 10 C-20.64499081 8.68870078 -19.31328657 7.35308313 -18 6 C-15.375 4.6875 -15.375 4.6875 -13 4 C-12.34 4.33 -11.68 4.66 -11 5 C-10.67 4.34 -10.34 3.68 -10 3 C-7.51587793 2.17195931 -5.64779693 2 -3 2 C-2.01 1.34 -1.02 0.68 0 0 Z " fill="#E9FED7" transform="translate(256,87)"/>
<path d="M0 0 C3 1 3 1 4.4375 2.5625 C6.13676051 4.45137102 6.13676051 4.45137102 10 4 C8.84826645 6.46800047 7.95216435 8.04783565 6 10 C3.67038557 10.35840222 1.33634657 10.68848712 -1 11 C-5.12898673 12.15611628 -8.35044919 13.79106135 -12 16 C-13.875 16.5625 -13.875 16.5625 -16 17 C-17.19625 17.350625 -18.3925 17.70125 -19.625 18.0625 C-23 19 -23 19 -25 19 C-25.33 19.66 -25.66 20.32 -26 21 C-29.0625 21.625 -29.0625 21.625 -32 22 C-32.33 20.35 -32.66 18.7 -33 17 C-31.9275 17.04125 -30.855 17.0825 -29.75 17.125 C-25.12843777 16.97094793 -23.21561653 16.21561653 -20 13 C-20 13.66 -20 14.32 -20 15 C-16.43072369 13.33433772 -13.71046962 11.8459931 -11 9 C-10.34 9 -9.68 9 -9 9 C-7.28891311 7.37897032 -5.62746694 5.70496537 -4 4 C-2.66666667 2.66666667 -1.33333333 1.33333333 0 0 Z " fill="#D8FCE1" transform="translate(198,53)"/>
<path d="M0 0 C3.3 0 6.6 0 10 0 C10 0.99 10 1.98 10 3 C11.32 3 12.64 3 14 3 C14.99 3.185625 15.98 3.37125 17 3.5625 C19.80747914 3.97192404 21.36394509 3.91248055 24 3 C24.495 5.475 24.495 5.475 25 8 C19.33333333 8 13.66666667 8 8 8 C8 7.01 8 6.02 8 5 C7.34 5 6.68 5 6 5 C6 5.99 6 6.98 6 8 C1.05 8 -3.9 8 -9 8 C-9 7.01 -9 6.02 -9 5 C-9.66 5 -10.32 5 -11 5 C-11.33 5.99 -11.66 6.98 -12 8 C-12 6.68 -12 5.36 -12 4 C-6.25 2.875 -6.25 2.875 -4 4 C-4 3.34 -4 2.68 -4 2 C-2.68 2 -1.36 2 0 2 C0 1.34 0 0.68 0 0 Z " fill="#E1D8C9" transform="translate(231,206)"/>
<path d="M0 0 C5.4679803 -0.36453202 5.4679803 -0.36453202 7.6875 1.15625 C10.2957814 4.82026435 9.15177967 9.69957597 9 14 C4.38 14 -0.24 14 -5 14 C-3.42548518 9.27645553 -1.76405007 4.65067745 0 0 Z " fill="#F9F5FA" transform="translate(123,115)"/>
<path d="M0 0 C2.4375 0.375 2.4375 0.375 5 1 C5.33 1.66 5.66 2.32 6 3 C9.27555608 3.47001033 9.27555608 3.47001033 13.0625 3.625 C14.99802734 3.73714844 14.99802734 3.73714844 16.97265625 3.8515625 C18.47119141 3.92503906 18.47119141 3.92503906 20 4 C19.69201674 5.48011371 19.378482 6.95907325 19.0625 8.4375 C18.80146484 9.67306641 18.80146484 9.67306641 18.53515625 10.93359375 C18 13 18 13 17 14 C15.48071962 14.07179964 13.95832518 14.08392007 12.4375 14.0625 C11.61121094 14.05347656 10.78492187 14.04445312 9.93359375 14.03515625 C9.29550781 14.02355469 8.65742187 14.01195312 8 14 C7.35165346 12.730447 6.70642185 11.45930294 6.0625 10.1875 C5.70285156 9.47980469 5.34320313 8.77210938 4.97265625 8.04296875 C4 6 4 6 3 3 C2.01 2.67 1.02 2.34 0 2 C0 1.34 0 0.68 0 0 Z " fill="#FCFAFD" transform="translate(115,154)"/>
<path d="M0 0 C0.66 0.66 1.32 1.32 2 2 C1.34 2 0.68 2 0 2 C0 3.65 0 5.3 0 7 C-0.99 7 -1.98 7 -3 7 C-3.33 7.66 -3.66 8.32 -4 9 C-7.62138266 10.02273507 -11.06734756 10.10762232 -14.8125 10.0625 C-15.78832031 10.05347656 -16.76414062 10.04445313 -17.76953125 10.03515625 C-18.50558594 10.02355469 -19.24164063 10.01195313 -20 10 C-20 9.34 -20 8.68 -20 8 C-20.66 8 -21.32 8 -22 8 C-22 6.35 -22 4.7 -22 3 C-18.94152152 2.45627049 -16.11227195 2 -13 2 C-12.1028125 1.7215625 -12.1028125 1.7215625 -11.1875 1.4375 C-9 1 -9 1 -5.9375 1.5625 C-2.81748195 2.36309053 -2.81748195 2.36309053 0 0 Z " fill="#F1FACC" transform="translate(326,115)"/>
<path d="M0 0 C2.25 -0.0625 2.25 -0.0625 5 1 C7.68653475 5.24008999 9 8.97897213 9 14 C5.23375329 15.25541557 3.62811066 14.37061958 0 13 C0 12.34 0 11.68 0 11 C-3.04913228 9.98888907 -3.04913228 9.98888907 -6 11 C-6.66 9.35 -7.32 7.7 -8 6 C-4.125 5 -4.125 5 -3 5 C-1.96986723 3.35178756 -0.96885372 1.68496298 0 0 Z " fill="#D4FDCD" transform="translate(273,35)"/>
<path d="M0 0 C0.66 0 1.32 0 2 0 C2 0.66 2 1.32 2 2 C4.03518999 2 6.07056242 1.99882178 8.10546875 1.96484375 C10.07017802 1.93904081 12.03538528 1.9677932 14 2 C14.33 2.33 14.66 2.66 15 3 C16.32 3 17.64 3 19 3 C19 4.65 19 6.3 19 8 C11.74 8 4.48 8 -3 8 C-3.33 6.35 -3.66 4.7 -4 3 C-3.01 2.67 -2.02 2.34 -1 2 C-1 2.66 -1 3.32 -1 4 C-1.66 4 -2.32 4 -3 4 C-3 4.66 -3 5.32 -3 6 C-2.01 6 -1.02 6 0 6 C0 4.02 0 2.04 0 0 Z " fill="#8B7170" transform="translate(215,194)"/>
<path d="M0 0 C0.8971875 0.5259375 0.8971875 0.5259375 1.8125 1.0625 C0.8225 1.5575 0.8225 1.5575 -0.1875 2.0625 C-0.56883299 4.0539056 -0.90075582 6.05529077 -1.1875 8.0625 C-1.5175 8.7225 -1.8475 9.3825 -2.1875 10.0625 C-2.8475 10.0625 -3.5075 10.0625 -4.1875 10.0625 C-3.8575 11.0525 -3.5275 12.0425 -3.1875 13.0625 C-7.9375 15.0625 -7.9375 15.0625 -10.1875 15.0625 C-10.5175 15.7225 -10.8475 16.3825 -11.1875 17.0625 C-11.1875 16.4025 -11.1875 15.7425 -11.1875 15.0625 C-12.5075 14.7325 -13.8275 14.4025 -15.1875 14.0625 C-14.465625 13.423125 -13.74375 12.78375 -13 12.125 C-9.97938423 9.15572614 -8.25907432 5.72434862 -6.3984375 1.953125 C-4.59446217 -0.86340422 -3.05869614 -1.31086978 0 0 Z " fill="#EEF0F5" transform="translate(37.1875,192.9375)"/>
<path d="M0 0 C3 0 3 0 5 1 C5.8125 3.375 5.8125 3.375 6 6 C4.6875 7.8125 4.6875 7.8125 3 9 C2.34 9 1.68 9 1 9 C1 9.66 1 10.32 1 11 C1.66 11.33 2.32 11.66 3 12 C0.64031256 14.09749995 -0.54616994 14.96905704 -3.75 15.1875 C-4.4925 15.125625 -5.235 15.06375 -6 15 C-6.66 13.68 -7.32 12.36 -8 11 C-7.236875 10.29875 -6.47375 9.5975 -5.6875 8.875 C-3.03409522 6.03647396 -1.55999257 3.53050949 0 0 Z " fill="#DFFCE8" transform="translate(144,84)"/>
<path d="M0 0 C4.75 -0.125 4.75 -0.125 7 1 C8.32 1 9.64 1 11 1 C11 2.32 11 3.64 11 5 C10.34 5 9.68 5 9 5 C8.690625 5.78375 8.38125 6.5675 8.0625 7.375 C7 10 7 10 6 12 C6.99 11.67 7.98 11.34 9 11 C8.34 12.98 7.68 14.96 7 17 C6.34 16.67 5.68 16.34 5 16 C3.67139075 15.64830932 2.33841672 15.31229724 1 15 C1.33 13.35 1.66 11.7 2 10 C2.66 10 3.32 10 4 10 C4.33 8.68 4.66 7.36 5 6 C2.69 5.34 0.38 4.68 -2 4 C-1.34 2.68 -0.68 1.36 0 0 Z " fill="#C0C4A7" transform="translate(284,117)"/>
<path d="M0 0 C0.68146088 0.00045822 1.36292175 0.00091644 2.06503296 0.00138855 C3.50235744 0.00440507 4.93967883 0.01227345 6.37695312 0.0246582 C8.58475221 0.04295892 10.79213285 0.04516752 13 0.04492188 C23.8134569 0.08298815 23.8134569 0.08298815 24.9609375 1.23046875 C27.17781744 1.3892083 29.39949048 1.48180712 31.62109375 1.546875 C32.61779335 1.57804665 32.61779335 1.57804665 33.6346283 1.60984802 C35.76412293 1.67540533 37.89374418 1.7342566 40.0234375 1.79296875 C41.46420597 1.83614814 42.90496149 1.87976224 44.34570312 1.92382812 C47.8839779 2.03109268 51.42239619 2.13234246 54.9609375 2.23046875 C54.9609375 2.56046875 54.9609375 2.89046875 54.9609375 3.23046875 C50.15563878 3.39793649 45.35017847 3.55851089 40.54443359 3.71264648 C38.90895357 3.76607974 37.27353439 3.82141015 35.63818359 3.87866211 C33.29017256 3.96053636 30.9420286 4.03562858 28.59375 4.109375 C27.86036407 4.13641006 27.12697815 4.16344513 26.37136841 4.19129944 C21.18868091 4.34434046 21.18868091 4.34434046 18.9609375 3.23046875 C16.78418967 3.07577508 14.6031027 2.98044769 12.421875 2.9140625 C11.11992187 2.87216797 9.81796875 2.83027344 8.4765625 2.78710938 C7.09635705 2.74729576 5.71614867 2.70758353 4.3359375 2.66796875 C2.94790335 2.62477468 1.55988222 2.5811601 0.171875 2.53710938 C-3.23166506 2.43074875 -6.63528028 2.32872161 -10.0390625 2.23046875 C-6.32780747 -0.24370127 -4.42677455 -0.01424748 0 0 Z " fill="#C67BEA" transform="translate(132.0390625,177.76953125)"/>
<path d="M0 0 C1.32 0.66 2.64 1.32 4 2 C4.66 1.34 5.32 0.68 6 0 C7.34262065 0.29369827 8.67696283 0.6278958 10 1 C10.66 0.67 11.32 0.34 12 0 C12 0.66 12 1.32 12 2 C13.32 2.33 14.64 2.66 16 3 C14.453125 3.433125 14.453125 3.433125 12.875 3.875 C8.46519198 5.13494515 4.13704307 6.59869068 -0.1875 8.125 C-3 9 -3 9 -6 9 C-6 8.34 -6 7.68 -6 7 C-5.34 7 -4.68 7 -4 7 C-3.71125 6.21625 -3.4225 5.4325 -3.125 4.625 C-2 2 -2 2 0 0 Z " fill="#F1FCD9" transform="translate(229,120)"/>
<path d="M0 0 C-0.33 1.32 -0.66 2.64 -1 4 C-7.27 4 -13.54 4 -20 4 C-19.67 2.35 -19.34 0.7 -19 -1 C-17.35 -1 -15.7 -1 -14 -1 C-14 -0.34 -14 0.32 -14 1 C-13.34 1 -12.68 1 -12 1 C-12 0.34 -12 -0.32 -12 -1 C-7.31034294 -2.11658501 -4.46236469 -1.80619523 0 0 Z " fill="#BBAAA4" transform="translate(279,210)"/>
<path d="M0 0 C3.06255961 -0.0270491 6.1248786 -0.04686298 9.1875 -0.0625 C10.05181641 -0.07087891 10.91613281 -0.07925781 11.80664062 -0.08789062 C16.00286769 -0.10396812 19.90936886 -0.07559038 24 1 C24 1.99 24 2.98 24 4 C21.69 4 19.38 4 17 4 C17 4.66 17 5.32 17 6 C16.34 6 15.68 6 15 6 C14.67 4.35 14.34 2.7 14 1 C13.34 1 12.68 1 12 1 C11.67 1.99 11.34 2.98 11 4 C7.37 4 3.74 4 0 4 C0 2.68 0 1.36 0 0 Z " fill="#A7AA94" transform="translate(260,128)"/>
<path d="M0 0 C5.94 0 11.88 0 18 0 C18.33 1.65 18.66 3.3 19 5 C12.73 5 6.46 5 0 5 C0 3.35 0 1.7 0 0 Z " fill="#C2B3AB" transform="translate(226,254)"/>
<path d="M0 0 C0.99 0 1.98 0 3 0 C2.41892368 3.7602985 1.34800504 6.53035032 -0.5625 9.8125 C-1.01753906 10.60269531 -1.47257812 11.39289063 -1.94140625 12.20703125 C-2.29074219 12.79871094 -2.64007813 13.39039063 -3 14 C-3.99 13.67 -4.98 13.34 -6 13 C-6 9.7 -6 6.4 -6 3 C-4.68 2.34 -3.36 1.68 -2 1 C-1.67 1.33 -1.34 1.66 -1 2 C-0.67 1.34 -0.34 0.68 0 0 Z " fill="#F1E9F5" transform="translate(119,115)"/>
<path d="M0 0 C0.66 0.33 1.32 0.66 2 1 C2 1.66 2 2.32 2 3 C0.02 3.99 0.02 3.99 -2 5 C1.3 5 4.6 5 8 5 C4.27121789 7.79658658 3.21668343 8.39770981 -1.0625 9.0625 C-4.52808886 9.60969824 -5.99440907 9.99627272 -9 12 C-9 9.36 -9 6.72 -9 4 C-7.88625 3.71125 -6.7725 3.4225 -5.625 3.125 C-1.99708908 2.30758671 -1.99708908 2.30758671 0 0 Z " fill="#FBCDF1" transform="translate(9,339)"/>
<path d="M0 0 C0.33 0.66 0.66 1.32 1 2 C1.99 1.67 2.98 1.34 4 1 C2.61876579 3.974966 1.26740952 6.61325313 -1 9 C-3.69921875 9.390625 -3.69921875 9.390625 -6.6875 9.25 C-7.68136719 9.21390625 -8.67523438 9.1778125 -9.69921875 9.140625 C-10.83810547 9.07101563 -10.83810547 9.07101563 -12 9 C-10.8125 6.5625 -10.8125 6.5625 -9 4 C-6.5 3.25 -6.5 3.25 -4 3 C-3.01 2.67 -2.02 2.34 -1 2 C-0.67 1.34 -0.34 0.68 0 0 Z " fill="#D6FBF8" transform="translate(66,90)"/>
<path d="M0 0 C0 1.98 0 3.96 0 6 C-0.99 6 -1.98 6 -3 6 C-3 5.01 -3 4.02 -3 3 C-3.66 3 -4.32 3 -5 3 C-5.33 3.99 -5.66 4.98 -6 6 C-9.3 6 -12.6 6 -16 6 C-16.33 4.68 -16.66 3.36 -17 2 C-11.49516295 0.71553802 -5.65817139 0 0 0 Z " fill="#BEAEA7" transform="translate(287,253)"/>
<path d="M0 0 C3.06511457 1.76476293 4.96404666 3.58135396 6 7 C5.3125 9.1875 5.3125 9.1875 4 11 C3.01 11.33 2.02 11.66 1 12 C-0.65 9.03 -2.3 6.06 -4 3 C-4.33 3.66 -4.66 4.32 -5 5 C-5.66 4.01 -6.32 3.02 -7 2 C-6.401875 1.855625 -5.80375 1.71125 -5.1875 1.5625 C-3.43849596 1.1127561 -1.71322977 0.57107659 0 0 Z " fill="#F9FFC9" transform="translate(367,134)"/>
<path d="M0 0 C0.33 0.66 0.66 1.32 1 2 C3.52733235 2.65555119 3.52733235 2.65555119 6 3 C5.67 3.99 5.34 4.98 5 6 C4.67 5.34 4.34 4.68 4 4 C3.649375 4.495 3.29875 4.99 2.9375 5.5 C0.0618333 7.72632261 -2.45510707 7.12660332 -6 7 C-6.99 7.33 -7.98 7.66 -9 8 C-9 6.02 -9 4.04 -9 2 C-8.13375 2.2784375 -8.13375 2.2784375 -7.25 2.5625 C-4.75807903 3.04704019 -3.36040848 2.89532735 -1 2 C-0.67 1.34 -0.34 0.68 0 0 Z " fill="#ABAD97" transform="translate(297,162)"/>
<path d="M0 0 C0.66 0 1.32 0 2 0 C2 0.66 2 1.32 2 2 C2.99 2 3.98 2 5 2 C5.33 4.31 5.66 6.62 6 9 C4.68 9.33 3.36 9.66 2 10 C2 10.66 2 11.32 2 12 C1.34 12 0.68 12 0 12 C0 11.34 0 10.68 0 10 C-0.66 10 -1.32 10 -2 10 C-2.33 7.69 -2.66 5.38 -3 3 C-2.01 2.67 -1.02 2.34 0 2 C0 1.34 0 0.68 0 0 Z " fill="#F76CE7" transform="translate(124,202)"/>
<path d="M0 0 C0.9075 0.185625 1.815 0.37125 2.75 0.5625 C5.68314324 0.95734621 7.2644657 0.94691572 10 0 C10.59732819 2.76264289 11 5.16032769 11 8 C10.01 8.33 9.02 8.66 8 9 C7.01 8.34 6.02 7.68 5 7 C5.33 6.34 5.66 5.68 6 5 C3.69 5 1.38 5 -1 5 C-0.67 3.35 -0.34 1.7 0 0 Z " fill="#D1D8B1" transform="translate(342,117)"/>
<path d="M0 0 C0.556875 0.350625 1.11375 0.70125 1.6875 1.0625 C4.57197167 2.23188041 6.03169666 1.76110342 9 1 C9.99 1 10.98 1 12 1 C12 1.66 12 2.32 12 3 C12.99 3.33 13.98 3.66 15 4 C12.703463 5.1482685 11.41686833 5.11561175 8.8671875 5.09765625 C8.06152344 5.09443359 7.25585938 5.09121094 6.42578125 5.08789062 C5.58402344 5.07951172 4.74226562 5.07113281 3.875 5.0625 C3.02550781 5.05798828 2.17601562 5.05347656 1.30078125 5.04882812 C-0.79950909 5.03702874 -2.8997633 5.01909306 -5 5 C-3.768606 2.53721199 -2.21935077 1.57502313 0 0 Z " fill="#E3FCE1" transform="translate(174,94)"/>
<path d="M0 0 C0.33 0 0.66 0 1 0 C1 2.31 1 4.62 1 7 C-3.29 7 -7.58 7 -12 7 C-11.67 5.35 -11.34 3.7 -11 2 C-7.37 2 -3.74 2 0 2 C0 1.34 0 0.68 0 0 Z " fill="#B6A49F" transform="translate(223,263)"/>
<path d="M0 0 C0.8971875 0.5259375 0.8971875 0.5259375 1.8125 1.0625 C4.10813214 2.33304698 4.10813214 2.33304698 7 1 C7.639375 1.165 8.27875 1.33 8.9375 1.5 C11.31772734 2.07702481 12.69706679 1.74022853 15 1 C15.33 2.65 15.66 4.3 16 6 C10.66666667 6 5.33333333 6 0 6 C0 4.02 0 2.04 0 0 Z " fill="#AC9894" transform="translate(240,208)"/>
<path d="M0 0 C4.55555556 0.55555556 4.55555556 0.55555556 6 2 C6.125 4.5 6.125 4.5 6 7 C5 8 5 8 2 8.125 C-1 8 -1 8 -2 7 C-2.1875 4.5625 -2.1875 4.5625 -2 2 C-1.34 1.34 -0.68 0.68 0 0 Z " fill="#FAF7FC" transform="translate(120,105)"/>
<path d="M0 0 C2.16874252 0.50603992 3.99967627 0.99983813 6 2 C6 2.99 6 3.98 6 5 C6.66 5 7.32 5 8 5 C8 3.68 8 2.36 8 1 C9.65 1 11.3 1 13 1 C12.67 2.98 12.34 4.96 12 7 C9.69 7 7.38 7 5 7 C4.67 6.34 4.34 5.68 4 5 C3.01 4.67 2.02 4.34 1 4 C0.67 4.66 0.34 5.32 0 6 C0 4.02 0 2.04 0 0 Z " fill="#826969" transform="translate(197,195)"/>
<path d="M0 0 C1.75 1.1875 1.75 1.1875 2.75 4.1875 C1.76 5.6725 1.76 5.6725 0.75 7.1875 C0.21890625 6.88714844 -0.3121875 6.58679688 -0.859375 6.27734375 C-1.56578125 5.89707031 -2.2721875 5.51679688 -3 5.125 C-3.69609375 4.74214844 -4.3921875 4.35929687 -5.109375 3.96484375 C-7.61140628 3.0562594 -8.7832355 3.30413163 -11.25 4.1875 C-11.25 3.1975 -11.25 2.2075 -11.25 1.1875 C-7.35865929 -1.11847968 -4.29063635 -1.54939646 0 0 Z " fill="#F6E2EA" transform="translate(147.25,304.8125)"/>
<path d="M0 0 C2.97 0.33 5.94 0.66 9 1 C9 1.66 9 2.32 9 3 C-4.86 3 -18.72 3 -33 3 C-33 2.67 -33 2.34 -33 2 C-22.11 2 -11.22 2 0 2 C0 1.34 0 0.68 0 0 Z " fill="#C389E5" transform="translate(78,142)"/>
<path d="M0 0 C0.33 0.33 0.66 0.66 1 1 C2.32 1 3.64 1 5 1 C5 2.65 5 4.3 5 6 C1.7 6 -1.6 6 -5 6 C-5 4.35 -5 2.7 -5 1 C-3 0 -3 0 0 0 Z " fill="#9B8482" transform="translate(229,196)"/>
<path d="M0 0 C1.11375 0.495 1.11375 0.495 2.25 1 C5.13883312 2.22782871 5.13883312 2.22782871 9 2 C9 3.32 9 4.64 9 6 C4.71 6 0.42 6 -4 6 C-3.34 4.68 -2.68 3.36 -2 2 C-1.34 2 -0.68 2 0 2 C0 1.34 0 0.68 0 0 Z " fill="#A6AB90" transform="translate(359,116)"/>
<path d="M0 0 C2.39122422 0.56237204 4.59572395 0.63342155 7.04296875 0.48046875 C6.66796875 2.91796875 6.66796875 2.91796875 6.04296875 5.48046875 C5.05296875 5.97546875 5.05296875 5.97546875 4.04296875 6.48046875 C3.71296875 5.49046875 3.38296875 4.50046875 3.04296875 3.48046875 C2.46546875 3.66609375 1.88796875 3.85171875 1.29296875 4.04296875 C-1.1639565 4.52070421 -2.60100659 4.23776239 -4.95703125 3.48046875 C-4.95703125 2.82046875 -4.95703125 2.16046875 -4.95703125 1.48046875 C-5.61703125 1.48046875 -6.27703125 1.48046875 -6.95703125 1.48046875 C-7.28703125 2.14046875 -7.61703125 2.80046875 -7.95703125 3.48046875 C-7.95703125 2.16046875 -7.95703125 0.84046875 -7.95703125 -0.51953125 C-5.04068253 -1.97770561 -3.0073496 -0.81620235 0 0 Z " fill="#A6A595" transform="translate(226.95703125,174.51953125)"/>
<path d="M0 0 C0.99 0.33 1.98 0.66 3 1 C3.99 0.67 4.98 0.34 6 0 C8.3406065 0.27769908 10.67624308 0.60539977 13 1 C12.67 2.32 12.34 3.64 12 5 C10.68 5 9.36 5 8 5 C8 4.34 8 3.68 8 3 C7.34 3.66 6.68 4.32 6 5 C3.31160615 5.26991906 0.70858064 5.08737357 -2 5 C-2 3.68 -2 2.36 -2 1 C-1.34 0.67 -0.68 0.34 0 0 Z " fill="#A1A48E" transform="translate(267,117)"/>
<path d="M0 0 C1.0725 0.33 2.145 0.66 3.25 1 C6.99731601 2.1717751 6.99731601 2.1717751 11 2 C10.67 3.32 10.34 4.64 10 6 C6.66666667 6 3.33333333 6 0 6 C0 4.02 0 2.04 0 0 Z " fill="#BFC1A8" transform="translate(245,173)"/>
<path d="M0 0 C2.05078125 0.03255208 4.1015625 0.06510417 6.15234375 0.09765625 C6.48234375 1.74765625 6.81234375 3.39765625 7.15234375 5.09765625 C2.69734375 5.59265625 2.69734375 5.59265625 -1.84765625 6.09765625 C-2.22984392 4.44150968 -2.56160727 2.77308601 -2.84765625 1.09765625 C-1.84765625 0.09765625 -1.84765625 0.09765625 0 0 Z " fill="#848579" transform="translate(268.84765625,150.90234375)"/>
<path d="M0 0 C3.4375 0.1875 3.4375 0.1875 4.4375 1.1875 C4.47813832 2.85367115 4.480221 4.52138095 4.4375 6.1875 C4.1075 4.8675 3.7775 3.5475 3.4375 2.1875 C2.7775 2.1875 2.1175 2.1875 1.4375 2.1875 C1.4375 3.5075 1.4375 4.8275 1.4375 6.1875 C-0.5425 6.1875 -2.5225 6.1875 -4.5625 6.1875 C-5.1875 4.3125 -5.1875 4.3125 -5.5625 2.1875 C-3.5625 0.1875 -3.5625 0.1875 0 0 Z " fill="#848578" transform="translate(267.5625,103.8125)"/>
<path d="M0 0 C0.66 0 1.32 0 2 0 C2 0.66 2 1.32 2 2 C2.99 2.33 3.98 2.66 5 3 C5.144375 3.928125 5.28875 4.85625 5.4375 5.8125 C5.92100111 9.00725111 5.92100111 9.00725111 7 12 C9.31 12.33 11.62 12.66 14 13 C14 13.33 14 13.66 14 14 C11.3125 14.3125 11.3125 14.3125 8 14 C5.42714276 11.827365 3.51003081 10.02006162 2 7 C1.34 7 0.68 7 0 7 C0 4.69 0 2.38 0 0 Z " fill="#AFFAFA" transform="translate(0,36)"/>
<path d="M0 0 C2.33944736 0.28730055 4.6739143 0.61936779 7 1 C7.33 2.65 7.66 4.3 8 6 C5.36 6 2.72 6 0 6 C-0.38218767 4.34385343 -0.71395102 2.67542976 -1 1 C-0.67 0.67 -0.34 0.34 0 0 Z " fill="#CFC2B9" transform="translate(197,208)"/>
<path d="M0 0 C0 1.98 0 3.96 0 6 C-3.63 6 -7.26 6 -11 6 C-11 4.68 -11 3.36 -11 2 C-8.23735711 1.40267181 -5.83967231 1 -3 1 C-1 0 -1 0 0 0 Z " fill="#ABAF95" transform="translate(338,116)"/>
<path d="M0 0 C2.0625 0.4375 2.0625 0.4375 4 1 C3 4 3 4 0.125 5.6875 C-3.25103782 7.10543588 -5.38943714 7 -9 7 C-9.33 6.01 -9.66 5.02 -10 4 C-4.375 1 -4.375 1 -1 1 C-0.67 0.67 -0.34 0.34 0 0 Z " fill="#D5FBF5" transform="translate(100,77)"/>
<path d="M0 0 C1.23556641 0.01740234 1.23556641 0.01740234 2.49609375 0.03515625 C3.32238281 0.04417969 4.14867187 0.05320313 5 0.0625 C5.63808594 0.07410156 6.27617187 0.08570313 6.93359375 0.09765625 C7.26359375 1.41765625 7.59359375 2.73765625 7.93359375 4.09765625 C4.52796523 4.87608563 1.42593619 5.19743746 -2.06640625 5.09765625 C-2.62890625 3.16015625 -2.62890625 3.16015625 -3.06640625 1.09765625 C-2.06640625 0.09765625 -2.06640625 0.09765625 0 0 Z " fill="#A7A895" transform="translate(252.06640625,163.90234375)"/>
<path d="M0 0 C0.99 0.495 0.99 0.495 2 1 C2.99 0.67 3.98 0.34 5 0 C7.6875 0.9375 7.6875 0.9375 10 2 C9.67 3.32 9.34 4.64 9 6 C9 5.01 9 4.02 9 3 C8.34 3 7.68 3 7 3 C7 3.99 7 4.98 7 6 C4.69 6 2.38 6 0 6 C0 4.02 0 2.04 0 0 Z " fill="#B4B5A0" transform="translate(257,173)"/>
<path d="M0 0 C0.66 0 1.32 0 2 0 C2 0.66 2 1.32 2 2 C4.31 2 6.62 2 9 2 C9 2.66 9 3.32 9 4 C8.34 4 7.68 4 7 4 C6.67 4.99 6.34 5.98 6 7 C5.21625 6.814375 4.4325 6.62875 3.625 6.4375 C1.02910225 5.74037734 1.02910225 5.74037734 -1 7 C-1.04254356 5.00045254 -1.04080783 2.99958364 -1 1 C-0.67 0.67 -0.34 0.34 0 0 Z " fill="#AFB19C" transform="translate(275,172)"/>
<path d="M0 0 C0.66 0.66 1.32 1.32 2 2 C1.34 2 0.68 2 0 2 C0 3.65 0 5.3 0 7 C-2.31 7 -4.62 7 -7 7 C-7 6.34 -7 5.68 -7 5 C-7.66 4.67 -8.32 4.34 -9 4 C-9.33 4.99 -9.66 5.98 -10 7 C-9.67 5.35 -9.34 3.7 -9 2 C-7.6078125 2.061875 -7.6078125 2.061875 -6.1875 2.125 C-2.84190281 2.27136339 -2.84190281 2.27136339 0 0 Z " fill="#C6CCAA" transform="translate(326,115)"/>
<path d="M0 0 C2.64 0 5.28 0 8 0 C8 2.31 8 4.62 8 7 C6.68 7 5.36 7 4 7 C4 6.34 4 5.68 4 5 C2.68 4.67 1.36 4.34 0 4 C0 2.68 0 1.36 0 0 Z " fill="#BCACA5" transform="translate(288,254)"/>
<path d="M0 0 C0 1.65 0 3.3 0 5 C-2.64 5 -5.28 5 -8 5 C-7.625 2.5625 -7.625 2.5625 -7 0 C-4.3333581 -1.33332095 -2.83319697 -0.67102033 0 0 Z " fill="#CEC2B7" transform="translate(313,209)"/>
<path d="M0 0 C3.3 0 6.6 0 10 0 C10 0.99 10 1.98 10 3 C10.66 3 11.32 3 12 3 C12.33 2.01 12.66 1.02 13 0 C13 1.32 13 2.64 13 4 C6.84765625 4.09765625 6.84765625 4.09765625 5 4 C4.67 3.67 4.34 3.34 4 3 C3.01 4.485 3.01 4.485 2 6 C1.34 5.67 0.68 5.34 0 5 C0 3.35 0 1.7 0 0 Z " fill="#B09D98" transform="translate(231,220)"/>
<path d="M0 0 C1.66967972 0.6590841 3.33607955 1.32650839 5 2 C6.32 2 7.64 2 9 2 C8.67 3.32 8.34 4.64 8 6 C4.66666667 6 1.33333333 6 -2 6 C-2 4.35 -2 2.7 -2 1 C-1.34 0.67 -0.68 0.34 0 0 Z " fill="#B2A09A" transform="translate(284,208)"/>
<path d="M0 0 C7.75 -0.125 7.75 -0.125 10 1 C9.67 1.99 9.34 2.98 9 4 C6.93359375 4.73046875 6.93359375 4.73046875 4.4375 5.1875 C3.61121094 5.34605469 2.78492188 5.50460938 1.93359375 5.66796875 C0.97646484 5.83232422 0.97646484 5.83232422 0 6 C0 4.02 0 2.04 0 0 Z " fill="#AFB19B" transform="translate(306,164)"/>
<path d="M0 0 C1.4375 2.0625 1.4375 2.0625 2 4 C0.35 4.33 -1.3 4.66 -3 5 C-3 4.34 -3 3.68 -3 3 C-3.99 3.33 -4.98 3.66 -6 4 C-8.1875 3.0625 -8.1875 3.0625 -10 2 C-7.81485506 -2.37028988 -4.1466624 -0.96261806 0 0 Z " fill="#EDFFC0" transform="translate(398,99)"/>
<path d="M0 0 C1.98 0 3.96 0 6 0 C6.33 1.65 6.66 3.3 7 5 C6.34 5 5.68 5 5 5 C5 5.66 5 6.32 5 7 C4.34 7 3.68 7 3 7 C3 6.34 3 5.68 3 5 C1.68 4.67 0.36 4.34 -1 4 C-0.67 2.68 -0.34 1.36 0 0 Z " fill="#B8A7A1" transform="translate(184,254)"/>
<path d="M0 0 C2.63804589 -0.39397335 2.63804589 -0.39397335 5 -1 C5.33 0.32 5.66 1.64 6 3 C5.67 2.34 5.34 1.68 5 1 C4.34 1 3.68 1 3 1 C3 1.66 3 2.32 3 3 C-3.625 4 -3.625 4 -7 4 C-6.6875 2.0625 -6.6875 2.0625 -6 0 C-3 -1 -3 -1 0 0 Z " fill="#A8AA96" transform="translate(304,175)"/>
<path d="M0 0 C0.99 0.495 0.99 0.495 2 1 C3.99021521 0.90276549 3.99021521 0.90276549 6.125 0.5625 C7.40375 0.376875 8.6825 0.19125 10 0 C10.33 1.32 10.66 2.64 11 4 C9.0625 4.5625 9.0625 4.5625 7 5 C6.67 4.67 6.34 4.34 6 4 C3.99279077 4.28674418 1.9914056 4.61866701 0 5 C0 3.35 0 1.7 0 0 Z " fill="#B7A6A0" transform="translate(193,265)"/>
<path d="M0 0 C3.63 0 7.26 0 11 0 C11 1.32 11 2.64 11 4 C7.37 4 3.74 4 0 4 C0 2.68 0 1.36 0 0 Z " fill="#B6A49E" transform="translate(218,220)"/>
<path d="M0 0 C0.721875 0.185625 1.44375 0.37125 2.1875 0.5625 C5.12826973 1.01995307 7.14103058 0.73516357 10 0 C10.33 0.99 10.66 1.98 11 3 C10.67 3.66 10.34 4.32 10 5 C9.401875 4.835 8.80375 4.67 8.1875 4.5 C5.88655664 3.8885876 5.88655664 3.8885876 3 4 C1.68 4 0.36 4 -1 4 C-0.67 2.68 -0.34 1.36 0 0 Z " fill="#A6A894" transform="translate(268,164)"/>
<path d="M0 0 C0.99 0 1.98 0 3 0 C3 1.32 3 2.64 3 4 C-0.63 4 -4.26 4 -8 4 C-8 2.68 -8 1.36 -8 0 C-5.13411489 -1.43294255 -3.09628564 -0.56870553 0 0 Z " fill="#A3A790" transform="translate(312,118)"/>
<path d="M0 0 C0.33 1.65 0.66 3.3 1 5 C-1.64 5 -4.28 5 -7 5 C-7 4.01 -7 3.02 -7 2 C-7.66 2 -8.32 2 -9 2 C-9.33 2.66 -9.66 3.32 -10 4 C-10 3.01 -10 2.02 -10 1 C-6.78548731 -0.60725635 -3.56387464 -0.05748185 0 0 Z " fill="#B2A09A" transform="translate(244,254)"/>
<path d="M0 0 C3.37462715 0.54723683 5.08235 1.0549 8 3 C7.67 3.99 7.34 4.98 7 6 C4.69 6 2.38 6 0 6 C0 4.02 0 2.04 0 0 Z " fill="#A7AB94" transform="translate(241,116)"/>
<path d="M0 0 C0.33 0.66 0.66 1.32 1 2 C2.32 2 3.64 2 5 2 C5.99 2 6.98 2 8 2 C7.67 3.65 7.34 5.3 7 7 C4.69 7 2.38 7 0 7 C0 4.69 0 2.38 0 0 Z " fill="#B5A29D" transform="translate(174,263)"/>
<path d="M0 0 C0.33 1.65 0.66 3.3 1 5 C-1.64 5 -4.28 5 -7 5 C-7 4.01 -7 3.02 -7 2 C-7.66 2 -8.32 2 -9 2 C-9.33 2.99 -9.66 3.98 -10 5 C-10 3.68 -10 2.36 -10 1 C-6.61981469 -0.04005702 -3.5219721 -0.08004482 0 0 Z " fill="#B4A19C" transform="translate(229,209)"/>
<path d="M0 0 C0.86625 0.5259375 0.86625 0.5259375 1.75 1.0625 C4.35801776 2.14917407 5.39417629 1.93065133 8 1 C8 2.65 8 4.3 8 6 C5.36 6 2.72 6 0 6 C0 4.02 0 2.04 0 0 Z " fill="#B4A19C" transform="translate(251,253)"/>
<path d="M0 0 C6.0546875 -0.1953125 6.0546875 -0.1953125 8 0 C8.66 0.66 9.32 1.32 10 2 C9.34 2.66 8.68 3.32 8 4 C5.375 3.625 5.375 3.625 3 3 C2.67 3.99 2.34 4.98 2 6 C1.34 6 0.68 6 0 6 C0 4.02 0 2.04 0 0 Z " fill="#F3E4F3" transform="translate(0,247)"/>
<path d="M0 0 C0 0.66 0 1.32 0 2 C-0.99 2 -1.98 2 -3 2 C-3 2.99 -3 3.98 -3 5 C-2.01 5 -1.02 5 0 5 C0 4.34 0 3.68 0 3 C1.32 2.67 2.64 2.34 4 2 C4.33 3.32 4.66 4.64 5 6 C1.62182575 6.84454356 -0.67465243 7.10844919 -4 6 C-4 4.35 -4 2.7 -4 1 C-2 0 -2 0 0 0 Z " fill="#B0B09D" transform="translate(223,162)"/>
<path d="M0 0 C0.66 0 1.32 0 2 0 C2 1.98 2 3.96 2 6 C0.02 6 -1.96 6 -4 6 C-4 5.01 -4 4.02 -4 3 C-4.66 3 -5.32 3 -6 3 C-6.33 3.99 -6.66 4.98 -7 6 C-6.67 4.35 -6.34 2.7 -6 1 C-5.38125 1.20625 -4.7625 1.4125 -4.125 1.625 C-3.073125 1.810625 -3.073125 1.810625 -2 2 C-1.34 1.34 -0.68 0.68 0 0 Z " fill="#A4A891" transform="translate(261,116)"/>
<path d="M0 0 C-1.26422764 2.52845528 -2.52845528 2.76422764 -5 4 C-5.33 4.66 -5.66 5.32 -6 6 C-7.65 6 -9.3 6 -11 6 C-11 5.34 -11 4.68 -11 4 C-10.34 4 -9.68 4 -9 4 C-9.33 3.01 -9.66 2.02 -10 1 C-6.52674819 -0.1577506 -3.63932552 -0.06866652 0 0 Z " fill="#FBD6EF" transform="translate(58,339)"/>
<path d="M0 0 C3.11257569 0 5.10765685 0.17361624 8 1 C8 2.32 8 3.64 8 5 C5.36 5 2.72 5 0 5 C-0.5625 3.0625 -0.5625 3.0625 -1 1 C-0.67 0.67 -0.34 0.34 0 0 Z " fill="#BBAAA4" transform="translate(317,209)"/>
<path d="M0 0 C0.94875 0.350625 1.8975 0.70125 2.875 1.0625 C2.545 2.3825 2.215 3.7025 1.875 5.0625 C-0.435 5.0625 -2.745 5.0625 -5.125 5.0625 C-4.795 4.4025 -4.465 3.7425 -4.125 3.0625 C-4.455 2.7325 -4.785 2.4025 -5.125 2.0625 C-5.125 1.4025 -5.125 0.7425 -5.125 0.0625 C-3.125 -0.9375 -3.125 -0.9375 0 0 Z " fill="#B29F9A" transform="translate(301.125,208.9375)"/>
<path d="M0 0 C1.2065625 0.0309375 1.2065625 0.0309375 2.4375 0.0625 C2.7675 1.7125 3.0975 3.3625 3.4375 5.0625 C1.1275 5.0625 -1.1825 5.0625 -3.5625 5.0625 C-3.5625 0.08689024 -3.5625 0.08689024 0 0 Z " fill="#B4B99D" transform="translate(286.5625,116.9375)"/>
<path d="M0 0 C0.66 0 1.32 0 2 0 C3.0625 1.8125 3.0625 1.8125 4 4 C3.67 4.99 3.34 5.98 3 7 C1.35 7 -0.3 7 -2 7 C-2.33 5.68 -2.66 4.36 -3 3 C-2.01 2.67 -1.02 2.34 0 2 C0 1.34 0 0.68 0 0 Z " fill="#BDACA6" transform="translate(186,263)"/>
<path d="M0 0 C0.66 0 1.32 0 2 0 C2 2.31 2 4.62 2 7 C0.35 7.33 -1.3 7.66 -3 8 C-3.33 6.35 -3.66 4.7 -4 3 C-2.68 2.67 -1.36 2.34 0 2 C0 1.34 0 0.68 0 0 Z " fill="#85877A" transform="translate(239,149)"/>
<path d="M0 0 C0 1.65 0 3.3 0 5 C-0.598125 4.814375 -1.19625 4.62875 -1.8125 4.4375 C-4.16408762 3.77906313 -4.16408762 3.77906313 -7 5 C-7.33 3.68 -7.66 2.36 -8 1 C-3.375 -1.125 -3.375 -1.125 0 0 Z " fill="#755659" transform="translate(187,242)"/>
<path d="M0 0 C2.31 0 4.62 0 7 0 C6.67 1.65 6.34 3.3 6 5 C5.34 5 4.68 5 4 5 C3.67 5.33 3.34 5.66 3 6 C1.68 5.34 0.36 4.68 -1 4 C-0.67 2.68 -0.34 1.36 0 0 Z " fill="#6C6964" transform="translate(248,151)"/>
<path d="M0 0 C0.66 0 1.32 0 2 0 C1.67 0.66 1.34 1.32 1 2 C0.67 1.34 0.34 0.68 0 0 Z M-5 1 C-3.35 1 -1.7 1 0 1 C-0.33 1.99 -0.66 2.98 -1 4 C-1.66 4 -2.32 4 -3 4 C-3.33 4.66 -3.66 5.32 -4 6 C-4.99 6 -5.98 6 -7 6 C-7.33 6.66 -7.66 7.32 -8 8 C-8.33 6.68 -8.66 5.36 -9 4 C-8.01 4 -7.02 4 -6 4 C-5.67 3.01 -5.34 2.02 -5 1 Z " fill="#D5FBF7" transform="translate(80,86)"/>
<path d="M0 0 C3.11257569 0 5.10765685 0.17361624 8 1 C7.67 2.32 7.34 3.64 7 5 C7 4.01 7 3.02 7 2 C6.34 2 5.68 2 5 2 C4.67 2.99 4.34 3.98 4 5 C2.35 4.67 0.7 4.34 -1 4 C-0.67 2.68 -0.34 1.36 0 0 Z " fill="#B5A29D" transform="translate(217,254)"/>
<path d="M0 0 C0.66 0 1.32 0 2 0 C2.66 0.99 3.32 1.98 4 3 C4.98095748 4.01868662 5.97702078 5.02351983 7 6 C6.01 6.66 5.02 7.32 4 8 C3.34 7.34 2.68 6.68 2 6 C1.01 6 0.02 6 -1 6 C-0.67 4.02 -0.34 2.04 0 0 Z " fill="#EEF0F3" transform="translate(60,182)"/>
<path d="M0 0 C0.99 0 1.98 0 3 0 C3.33 0.99 3.66 1.98 4 3 C4.99 2.34 5.98 1.68 7 1 C7.33 2.65 7.66 4.3 8 6 C5.33333333 6 2.66666667 6 0 6 C0 4.02 0 2.04 0 0 Z " fill="#A7918E" transform="translate(174,253)"/>
<path d="M0 0 C2.31 0.33 4.62 0.66 7 1 C7 2.32 7 3.64 7 5 C4.36 5 1.72 5 -1 5 C-0.67 3.35 -0.34 1.7 0 0 Z " fill="#A8AD93" transform="translate(342,117)"/>
<path d="M0 0 C0.66 0.66 1.32 1.32 2 2 C1.67 2.99 1.34 3.98 1 5 C1.66 5 2.32 5 3 5 C3.33 4.01 3.66 3.02 4 2 C4 3.32 4 4.64 4 6 C2.02 6 0.04 6 -2 6 C-2 4.68 -2 3.36 -2 2 C-2.66 2 -3.32 2 -4 2 C-4.33 3.32 -4.66 4.64 -5 6 C-5 4.35 -5 2.7 -5 1 C-2.625 0.375 -2.625 0.375 0 0 Z " fill="#715356" transform="translate(198,241)"/>
<path d="M0 0 C0.33 0.66 0.66 1.32 1 2 C3.52733235 2.65555119 3.52733235 2.65555119 6 3 C5.67 3.99 5.34 4.98 5 6 C4.67 5.34 4.34 4.68 4 4 C3.5875 4.495 3.175 4.99 2.75 5.5 C1 7 1 7 -3 7 C-2.690625 6.401875 -2.38125 5.80375 -2.0625 5.1875 C-0.89790296 2.91043228 -0.89790296 2.91043228 0 0 Z " fill="#BDC0A6" transform="translate(297,162)"/>
<path d="M0 0 C0.66 0 1.32 0 2 0 C2 1.98 2 3.96 2 6 C-1 7 -1 7 -4 6 C-4 5.01 -4 4.02 -4 3 C-2.68 2.67 -1.36 2.34 0 2 C0 1.34 0 0.68 0 0 Z " fill="#B2B49E" transform="translate(338,162)"/>
<path d="M0 0 C2.64 0 5.28 0 8 0 C8 1.32 8 2.64 8 4 C6.68 3.67 5.36 3.34 4 3 C3.01 4.485 3.01 4.485 2 6 C1.34 5.67 0.68 5.34 0 5 C0 3.35 0 1.7 0 0 Z " fill="#A3A78F" transform="translate(241,128)"/>
<path d="M0 0 C1.2065625 0.0309375 1.2065625 0.0309375 2.4375 0.0625 C2.1075 1.7125 1.7775 3.3625 1.4375 5.0625 C-0.5425 5.0625 -2.5225 5.0625 -4.5625 5.0625 C-3.43829114 0.08386076 -3.43829114 0.08386076 0 0 Z " fill="#BEADA7" transform="translate(207.5625,253.9375)"/>
<path d="M0 0 C2.64 0.33 5.28 0.66 8 1 C8 2.32 8 3.64 8 5 C7.01 5 6.02 5 5 5 C5 4.34 5 3.68 5 3 C4.34 3 3.68 3 3 3 C2.67 3.99 2.34 4.98 2 6 C2 4.68 2 3.36 2 2 C1.34 2 0.68 2 0 2 C0 1.34 0 0.68 0 0 Z " fill="#A8A997" transform="translate(234,173)"/>
<path d="M0 0 C2.31 0 4.62 0 7 0 C7 1.65 7 3.3 7 5 C2.25 5.125 2.25 5.125 0 4 C0 2.68 0 1.36 0 0 Z " fill="#B2B29F" transform="translate(229,164)"/>
<path d="M0 0 C2.31 0 4.62 0 7 0 C6.67 1.32 6.34 2.64 6 4 C2.25 5.125 2.25 5.125 0 4 C0 2.68 0 1.36 0 0 Z " fill="#B4B7A0" transform="translate(317,164)"/>
<path d="M0 0 C0.66 0.99 1.32 1.98 2 3 C1.01 3.33 0.02 3.66 -1 4 C-0.67 5.32 -0.34 6.64 0 8 C-1.65 8.33 -3.3 8.66 -5 9 C-3.90931332 5.22454612 -3.0916909 2.52956528 0 0 Z " fill="#E6F4D5" transform="translate(229,101)"/>
<path d="M0 0 C2 2 2 2 2.125 4.625 C2.08375 5.40875 2.0425 6.1925 2 7 C0.35 7 -1.3 7 -3 7 C-3.33 5.35 -3.66 3.7 -4 2 C-3.01 1.67 -2.02 1.34 -1 1 C-1 1.66 -1 2.32 -1 3 C-1.66 3 -2.32 3 -3 3 C-3 3.66 -3 4.32 -3 5 C-2.01 5 -1.02 5 0 5 C0 3.35 0 1.7 0 0 Z " fill="#8B7070" transform="translate(215,195)"/>
<path d="M0 0 C2.31 0 4.62 0 7 0 C7 1.32 7 2.64 7 4 C4.69 4 2.38 4 0 4 C0 2.68 0 1.36 0 0 Z " fill="#AFB49B" transform="translate(260,128)"/>
<path d="M0 0 C4.67692308 1.47692308 4.67692308 1.47692308 6.3125 4.125 C6.539375 4.74375 6.76625 5.3625 7 6 C6.01 6 5.02 6 4 6 C3.67 5.34 3.34 4.68 3 4 C1.68 4.33 0.36 4.66 -1 5 C-1.33 4.34 -1.66 3.68 -2 3 C-1.34 2.01 -0.68 1.02 0 0 Z " fill="#D8FDCB" transform="translate(282,49)"/>
<path d="M0 0 C1.32 0 2.64 0 4 0 C4.33 1.65 4.66 3.3 5 5 C3.02 5 1.04 5 -1 5 C-0.67 3.35 -0.34 1.7 0 0 Z " fill="#BEAEA6" transform="translate(212,265)"/>
<path d="M0 0 C1.32 0 2.64 0 4 0 C4.33 2.31 4.66 4.62 5 7 C4.34 7 3.68 7 3 7 C3 6.34 3 5.68 3 5 C2.34 5 1.68 5 1 5 C0.67 5.66 0.34 6.32 0 7 C0 4.69 0 2.38 0 0 Z " fill="#775A5C" transform="translate(174,240)"/>
<path d="M0 0 C0.598125 0.33 1.19625 0.66 1.8125 1 C4.05386471 2.20787988 4.05386471 2.20787988 7 2 C7 2.99 7 3.98 7 5 C4.69 5.33 2.38 5.66 0 6 C0 4.02 0 2.04 0 0 Z " fill="#BBAAA4" transform="translate(240,208)"/>
<path d="M0 0 C1.65 0.33 3.3 0.66 5 1 C5 1.66 5 2.32 5 3 C4.34 3 3.68 3 3 3 C2.67 3.66 2.34 4.32 2 5 C-1 5 -1 5 -4 4 C-3.01 3.67 -2.02 3.34 -1 3 C-0.67 2.01 -0.34 1.02 0 0 Z " fill="#D5FBF1" transform="translate(114,73)"/>
<path d="M0 0 C1.65 0.99 3.3 1.98 5 3 C2.42786866 4.61949011 1.32330841 5.04408751 -1.75 4.625 C-2.4925 4.41875 -3.235 4.2125 -4 4 C-2.68 2.68 -1.36 1.36 0 0 Z " fill="#D1FDDD" transform="translate(217,37)"/>
<path d="M0 0 C2.97 0 5.94 0 9 0 C9 0.66 9 1.32 9 2 C6.29120665 3.35439668 3.99066732 3.06501451 1 3 C0.67 2.01 0.34 1.02 0 0 Z " fill="#EB38A0" transform="translate(121,261)"/>
<path d="M0 0 C1.98 0.495 1.98 0.495 4 1 C3.67 2.65 3.34 4.3 3 6 C1.68 5.34 0.36 4.68 -1 4 C-0.67 2.68 -0.34 1.36 0 0 Z " fill="#838378" transform="translate(225,151)"/>
<path d="M0 0 C0.66 0 1.32 0 2 0 C2.66 0.66 3.32 1.32 4 2 C4.99 2.33 5.98 2.66 7 3 C5.68 3.33 4.36 3.66 3 4 C3 4.66 3 5.32 3 6 C1.68 5.34 0.36 4.68 -1 4 C-1 1 -1 1 0 0 Z " fill="#DDFED0" transform="translate(265,57)"/>
<path d="M0 0 C2 0 4 0 6 0 C6 0.99 6 1.98 6 3 C4.1875 4.0625 4.1875 4.0625 2 5 C1.01 4.67 0.02 4.34 -1 4 C-0.67 2.68 -0.34 1.36 0 0 Z " fill="#B09D98" transform="translate(261,254)"/>
<path d="M0 0 C2.125 0.375 2.125 0.375 4 1 C4 1.66 4 2.32 4 3 C4.66 3.33 5.32 3.66 6 4 C6 4.66 6 5.32 6 6 C2.31245243 5.50168276 0.39509338 4.89932357 -2 2 C-1.34 1.34 -0.68 0.68 0 0 Z " fill="#F3FCC8" transform="translate(344,121)"/>
<path d="M0 0 C0.33 1.65 0.66 3.3 1 5 C-1.31 5 -3.62 5 -6 5 C-5.6875 3.0625 -5.6875 3.0625 -5 1 C-2 0 -2 0 0 0 Z " fill="#9BA088" transform="translate(375,117)"/>
<path d="M0 0 C0.33 0.66 0.66 1.32 1 2 C3.52733235 2.65555119 3.52733235 2.65555119 6 3 C6 3.99 6 4.98 6 6 C4.02 6 2.04 6 0 6 C0 4.02 0 2.04 0 0 Z " fill="#B6A49E" transform="translate(240,263)"/>
<path d="M0 0 C0.99 0 1.98 0 3 0 C3 1.98 3 3.96 3 6 C1.68 6 0.36 6 -1 6 C-1.042721 4.33388095 -1.04063832 2.66617115 -1 1 C-0.67 0.67 -0.34 0.34 0 0 Z " fill="#AE9A96" transform="translate(232,265)"/>
<path d="M0 0 C1.65 0 3.3 0 5 0 C5 1.65 5 3.3 5 5 C3.02 5 1.04 5 -1 5 C-0.67 3.35 -0.34 1.7 0 0 Z " fill="#B4A29C" transform="translate(260,209)"/>
<path d="M0 0 C1.98 0.495 1.98 0.495 4 1 C3.67 2.32 3.34 3.64 3 5 C1.68 4.67 0.36 4.34 -1 4 C-0.67 2.68 -0.34 1.36 0 0 Z " fill="#8A7070" transform="translate(204,242)"/>
<path d="M0 0 C1.98 0.99 1.98 0.99 4 2 C4 3.32 4 4.64 4 6 C2.68 6 1.36 6 0 6 C0 4.02 0 2.04 0 0 Z " fill="#BBAAA4" transform="translate(196,218)"/>
<path d="M0 0 C1.65 0 3.3 0 5 0 C4.67 1.98 4.34 3.96 4 6 C3.01 6 2.02 6 1 6 C0.67 4.02 0.34 2.04 0 0 Z " fill="#AA9894" transform="translate(205,196)"/>
<path d="M0 0 C4 0 4 0 7 1 C6.67 1.99 6.34 2.98 6 4 C6 3.34 6 2.68 6 2 C5.34 2 4.68 2 4 2 C4 2.66 4 3.32 4 4 C2.68 4.33 1.36 4.66 0 5 C-0.5625 3.0625 -0.5625 3.0625 -1 1 C-0.67 0.67 -0.34 0.34 0 0 Z " fill="#A3A493" transform="translate(287,174)"/>
<path d="M0 0 C0.66 0.33 1.32 0.66 2 1 C2.33 1.99 2.66 2.98 3 4 C-1.75 5.125 -1.75 5.125 -4 4 C-2.68 2.68 -1.36 1.36 0 0 Z " fill="#C4C5AD" transform="translate(257,164)"/>
<path d="M0 0 C0.33 0 0.66 0 1 0 C1 2.31 1 4.62 1 7 C-0.32 7 -1.64 7 -3 7 C-2.67 5.35 -2.34 3.7 -2 2 C-1.34 2 -0.68 2 0 2 C0 1.34 0 0.68 0 0 Z " fill="#6F6F68" transform="translate(245,149)"/>
<path d="M0 0 C2.0625 0.4375 2.0625 0.4375 4 1 C3.25 2.9375 3.25 2.9375 2 5 C-0.125 5.75 -0.125 5.75 -2 6 C-1.125 1.125 -1.125 1.125 0 0 Z " fill="#F6FED1" transform="translate(286,122)"/>
<path d="M0 0 C1.98 0.99 3.96 1.98 6 3 C5.67 3.66 5.34 4.32 5 5 C3 5 1 5 -1 5 C-1.33 4.01 -1.66 3.02 -2 2 C-1.34 1.34 -0.68 0.68 0 0 Z " fill="#EDFFC0" transform="translate(381,96)"/>
<path d="M0 0 C2.475 0.99 2.475 0.99 5 2 C3.68 3.32 2.36 4.64 1 6 C0.01 4.68 -0.98 3.36 -2 2 C-1.34 1.34 -0.68 0.68 0 0 Z " fill="#F6CDF1" transform="translate(8,313)"/>
<path d="M0 0 C0.99 0 1.98 0 3 0 C3 2.31 3 4.62 3 7 C2.01 6.67 1.02 6.34 0 6 C-0.38218767 4.34385343 -0.71395102 2.67542976 -1 1 C-0.67 0.67 -0.34 0.34 0 0 Z " fill="#AA9692" transform="translate(293,254)"/>
<path d="M0 0 C1 3 1 3 0.0625 5.1875 C-0.4634375 6.0846875 -0.4634375 6.0846875 -1 7 C-1.99 6.67 -2.98 6.34 -4 6 C-4 4.35 -4 2.7 -4 1 C-2 0 -2 0 0 0 Z " fill="#C2B3AC" transform="translate(203,240)"/>
<path d="M0 0 C0.66 0 1.32 0 2 0 C2.66 1.98 3.32 3.96 4 6 C2.35 6.33 0.7 6.66 -1 7 C-1.04254356 5.00045254 -1.04080783 2.99958364 -1 1 C-0.67 0.67 -0.34 0.34 0 0 Z " fill="#B9BAA4" transform="translate(275,172)"/>
<path d="M0 0 C0.99 0.33 1.98 0.66 3 1 C2.67 2.32 2.34 3.64 2 5 C0.35 4.67 -1.3 4.34 -3 4 C-2.67 3.01 -2.34 2.02 -2 1 C-1.34 0.67 -0.68 0.34 0 0 Z " fill="#AEAF9C" transform="translate(253,174)"/>
<path d="M0 0 C-0.33 0.99 -0.66 1.98 -1 3 C-2.98 3 -4.96 3 -7 3 C-6.67 3.99 -6.34 4.98 -6 6 C-6.66 6 -7.32 6 -8 6 C-7.67 4.35 -7.34 2.7 -7 1 C-2.25 0 -2.25 0 0 0 Z " fill="#B692D0" transform="translate(129,123)"/>
<path d="M0 0 C0.33 0.99 0.66 1.98 1 3 C1.66 3 2.32 3 3 3 C2 5 2 5 1 6 C-0.66617115 6.04063832 -2.33388095 6.042721 -4 6 C-3.34 4.68 -2.68 3.36 -2 2 C-1.34 2 -0.68 2 0 2 C0 1.34 0 0.68 0 0 Z " fill="#AFB498" transform="translate(359,116)"/>
<path d="M0 0 C1.65 0 3.3 0 5 0 C5 1.65 5 3.3 5 5 C2 4 2 4 0 2 C-0.33 2.99 -0.66 3.98 -1 5 C-0.67 3.35 -0.34 1.7 0 0 Z " fill="#A4A791" transform="translate(317,117)"/>
<path d="M0 0 C0.99 0 1.98 0 3 0 C3.33 1.98 3.66 3.96 4 6 C2.68 6.33 1.36 6.66 0 7 C0 4.69 0 2.38 0 0 Z " fill="#A0A190" transform="translate(268,174)"/>
<path d="M0 0 C0.66 0 1.32 0 2 0 C3 3 3 3 2 6 C0.68 5.67 -0.64 5.34 -2 5 C-1.125 1.125 -1.125 1.125 0 0 Z " fill="#5C5C57" transform="translate(264,104)"/>
<path d="M0 0 C0.66 0 1.32 0 2 0 C2.33 1.98 2.66 3.96 3 6 C1.35 6.33 -0.3 6.66 -2 7 C-1.34 4.69 -0.68 2.38 0 0 Z " fill="#51504E" transform="translate(243,103)"/>
<path d="M0 0 C0.99 0.33 1.98 0.66 3 1 C3 2.65 3 4.3 3 6 C1.68 5.67 0.36 5.34 -1 5 C-0.67 3.35 -0.34 1.7 0 0 Z " fill="#5E5E59" transform="translate(274,104)"/>
<path d="M0 0 C0.66 0 1.32 0 2 0 C2 0.66 2 1.32 2 2 C2.99 2.33 3.98 2.66 5 3 C5.33 3.99 5.66 4.98 6 6 C5.67 6.66 5.34 7.32 5 8 C4.34 8 3.68 8 3 8 C2.01 5.36 1.02 2.72 0 0 Z " fill="#A18A87" transform="translate(215,194)"/>
<path d="M0 0 C0 1.65 0 3.3 0 5 C-1.65 4.67 -3.3 4.34 -5 4 C-5 3.01 -5 2.02 -5 1 C-2 0 -2 0 0 0 Z " fill="#B8A6A0" transform="translate(313,209)"/>
<path d="M0 0 C0.99 0.33 1.98 0.66 3 1 C3 2.32 3 3.64 3 5 C1.68 4.67 0.36 4.34 -1 4 C-0.67 2.68 -0.34 1.36 0 0 Z " fill="#BAA8A2" transform="translate(331,209)"/>
<path d="M0 0 C0.99 0.33 1.98 0.66 3 1 C3 2.32 3 3.64 3 5 C1.68 4.67 0.36 4.34 -1 4 C-0.67 2.68 -0.34 1.36 0 0 Z " fill="#BBAAA4" transform="translate(202,209)"/>
<path d="M0 0 C0 1.65 0 3.3 0 5 C-1.32 4.34 -2.64 3.68 -4 3 C-4.33 3.66 -4.66 4.32 -5 5 C-5 3.68 -5 2.36 -5 1 C-3 0 -3 0 0 0 Z " fill="#957C7B" transform="translate(229,196)"/>
<path d="M0 0 C1.98 0 3.96 0 6 0 C5.01 0.495 5.01 0.495 4 1 C3.67 1.99 3.34 2.98 3 4 C1.68 3.67 0.36 3.34 -1 3 C-0.67 2.01 -0.34 1.02 0 0 Z " fill="#9DA08B" transform="translate(268,128)"/>
<path d="M0 0 C0.99 0 1.98 0 3 0 C3 1.65 3 3.3 3 5 C1.68 5 0.36 5 -1 5 C-0.67 3.35 -0.34 1.7 0 0 Z " fill="#5C5C57" transform="translate(255,105)"/>
</svg>
