<?xml version="1.0" encoding="UTF-8"?>
<svg version="1.1" xmlns="http://www.w3.org/2000/svg" width="400" height="400">
<path d="M0 0 C132 0 264 0 400 0 C400 132 400 264 400 400 C268 400 136 400 0 400 C0 268 0 136 0 0 Z " fill="#FCEDC8" transform="translate(0,0)"/>
<path d="M0 0 C1.03471436 0.47211914 2.06942871 0.94423828 3.13549805 1.43066406 C4.23418213 1.94338867 5.33286621 2.45611328 6.46484375 2.984375 C8.84632351 4.07078672 11.22880238 5.15460058 13.61328125 6.234375 C14.23339584 6.51613586 14.85351044 6.79789673 15.49241638 7.0881958 C23.12593415 10.54129934 30.85667211 13.76234187 38.58984375 16.984375 C39.28417511 17.27413208 39.97850647 17.56388916 40.69387817 17.86242676 C44.59507004 19.49038145 48.49833687 21.11315312 52.40234375 22.734375 C52.40234375 29.004375 52.40234375 35.274375 52.40234375 41.734375 C48.44576934 43.40532649 44.48723218 45.07131175 40.52734375 46.734375 C39.39941406 47.21132812 38.27148438 47.68828125 37.109375 48.1796875 C36.03300781 48.63085938 34.95664063 49.08203125 33.84765625 49.546875 C32.85266113 49.96582031 31.85766602 50.38476562 30.83251953 50.81640625 C28.40234375 51.734375 28.40234375 51.734375 26.40234375 51.734375 C26.40234375 53.714375 26.40234375 55.694375 26.40234375 57.734375 C25.08234375 57.734375 23.76234375 57.734375 22.40234375 57.734375 C22.40234375 57.074375 22.40234375 56.414375 22.40234375 55.734375 C18.43053807 56.37099325 15.13028445 57.61445632 11.47265625 59.2734375 C10.34730469 59.77101562 9.22195312 60.26859375 8.0625 60.78125 C5.70931657 61.83173188 3.36030757 62.89161619 1.015625 63.9609375 C-0.11230469 64.4559375 -1.24023438 64.9509375 -2.40234375 65.4609375 C-3.42312012 65.92064941 -4.44389648 66.38036133 -5.49560547 66.85400391 C-11.8270678 68.65089145 -17.13015314 66.35657509 -22.875 63.70703125 C-23.55568039 63.40216797 -24.23636078 63.09730469 -24.93766785 62.78320312 C-26.39025796 62.13171261 -27.84111615 61.47634874 -29.29034424 60.81741333 C-33.07890418 59.09505502 -36.87998746 57.40072836 -40.6796875 55.703125 C-41.81461639 55.19471825 -41.81461639 55.19471825 -42.97247314 54.67604065 C-49.84390984 51.60506466 -56.76663233 48.67165962 -63.72265625 45.796875 C-64.73448975 45.37865479 -65.74632324 44.96043457 -66.78881836 44.52954102 C-69.05716295 43.59473612 -71.32718389 42.664 -73.59765625 41.734375 C-73.59765625 35.464375 -73.59765625 29.194375 -73.59765625 22.734375 C-72.34855469 22.19546631 -71.09945312 21.65655762 -69.8125 21.10131836 C-65.10073554 19.06835999 -60.38920309 17.03486438 -55.67773438 15.0012207 C-53.65305633 14.12738019 -51.62831851 13.25367816 -49.60351562 12.38012695 C-47.63669494 11.53157041 -45.67005962 10.68258409 -43.70361328 9.8331604 C-41.76028516 8.99486239 -39.81594879 8.15889776 -37.87060547 7.32528687 C-33.50594911 5.45032032 -29.1640633 3.55048706 -24.87109375 1.51611328 C-24.15284424 1.18180801 -23.43459473 0.84750275 -22.69458008 0.50306702 C-20.81313844 -0.37760989 -18.94125372 -1.27862663 -17.0703125 -2.18139648 C-10.93938717 -4.09558654 -5.77476995 -2.6852602 0 0 Z " fill="#FB5049" transform="translate(149.59765625,144.265625)"/>
<path d="M0 0 C4.83954735 2.28442481 9.73123582 4.36194388 14.6875 6.375 C20.26049729 8.64599791 25.75999545 11.01515607 31.21875 13.55078125 C35.90865777 15.64272695 40.6728778 17.55490637 45.43945312 19.46484375 C48.58322284 20.73739083 51.35545072 21.98696715 54.1875 23.875 C54.52807617 25.75439453 54.52807617 25.75439453 54.48046875 28.0078125 C54.47080078 28.81347656 54.46113281 29.61914062 54.45117188 30.44921875 C54.42603516 31.29097656 54.40089844 32.13273437 54.375 33 C54.35469727 34.27423828 54.35469727 34.27423828 54.33398438 35.57421875 C54.29858219 37.67474837 54.24477401 39.77495293 54.1875 41.875 C48.51803562 44.31193938 42.84783444 46.74715413 37.17700195 49.1809082 C35.25590988 50.00565263 33.33500514 50.83083356 31.41430664 51.65649414 C19.37901828 56.82974979 7.32348614 61.94203032 -4.8125 66.875 C-5.59250366 67.27354187 -6.37250732 67.67208374 -7.17614746 68.08270264 C-10.66923089 69.13247149 -12.11091737 68.39422603 -15.42553711 66.9465332 C-16.52695541 66.47556717 -17.62837372 66.00460114 -18.76316833 65.5193634 C-19.94347122 64.99348129 -21.12377411 64.46759918 -22.33984375 63.92578125 C-23.57321737 63.39054592 -24.8072429 62.85681056 -26.04188538 62.32450867 C-29.29004469 60.91906674 -32.52852963 59.49254857 -35.76556396 58.06170654 C-39.04551012 56.61678701 -42.33481621 55.19351488 -45.62304688 53.76757812 C-50.44332089 51.67230252 -55.2603391 49.56983734 -60.07006836 47.45043945 C-61.03649765 47.02471146 -62.00292694 46.59898346 -62.99864197 46.16035461 C-65.97011257 44.80300346 -68.89057738 43.33596131 -71.8125 41.875 C-71.8125 35.605 -71.8125 29.335 -71.8125 22.875 C-70.50925781 22.33875 -69.20601562 21.8025 -67.86328125 21.25 C-65.95033762 20.45877615 -64.03759668 19.66706215 -62.125 18.875 C-61.08875488 18.44727295 -60.05250977 18.0195459 -58.98486328 17.57885742 C-52.0116358 14.68095137 -45.09083593 11.68279709 -38.19140625 8.61328125 C-35.68776875 7.50619251 -33.18368897 6.40010921 -30.67953491 5.29418945 C-29.02135014 4.55780507 -27.36558123 3.81595587 -25.71231079 3.06860352 C-23.36350969 2.00731983 -21.00706392 0.96500685 -18.6484375 -0.07421875 C-17.94614517 -0.39766769 -17.24385284 -0.72111664 -16.52027893 -1.05436707 C-10.18848957 -3.80653564 -6.00838105 -2.93139108 0 0 Z " fill="#FE8531" transform="translate(210.8125,86.125)"/>
<path d="M0 0 C4.02266545 1.29473466 7.90761198 2.74707392 11.79003906 4.41430664 C12.9042926 4.89142593 14.01854614 5.36854523 15.16656494 5.86012268 C16.35425476 6.37163376 17.54194458 6.88314484 18.765625 7.41015625 C20.00770891 7.94318211 21.24987744 8.47601082 22.49212646 9.00865173 C25.08489848 10.12092719 27.67699662 11.2347526 30.26855469 12.34985352 C33.59218625 13.7799424 36.91694105 15.20739588 40.24213028 16.63385868 C43.41699503 17.99593798 46.59134555 19.3592136 49.765625 20.72265625 C50.96141174 21.23619156 52.15719849 21.74972687 53.38922119 22.27882385 C54.49086609 22.75279099 55.59251099 23.22675812 56.72753906 23.71508789 C57.69983459 24.13319229 58.67213013 24.55129669 59.67388916 24.98207092 C61.13162039 25.61998851 62.57678696 26.28839348 64 27 C64 32.94 64 38.88 64 45 C57.22648343 48.46149423 50.41155945 51.61675501 43.390625 54.5390625 C42.4201825 54.9465976 41.44973999 55.35413269 40.44989014 55.77401733 C37.38459328 57.06088665 34.31746385 58.34330563 31.25 59.625 C28.16846178 60.91431829 25.08736146 62.20465134 22.00726318 63.49740601 C20.10047419 64.29755333 18.19284125 65.09569343 16.28424072 65.89151001 C15.41603699 66.25553925 14.54783325 66.61956848 13.65332031 66.99462891 C12.84076782 67.33455872 12.02821533 67.67448853 11.19104004 68.02471924 C8.77991152 69.05720424 8.77991152 69.05720424 5.74511719 70.82958984 C1.62699987 72.58539333 -1.57124313 71.51629975 -5.6932373 70.02676392 C-6.60335571 69.62944061 -7.51347412 69.23211731 -8.45117188 68.82275391 C-10.01309265 68.14667587 -10.01309265 68.14667587 -11.60656738 67.4569397 C-12.71608765 66.96841522 -13.82560791 66.47989075 -14.96875 65.9765625 C-16.69925598 65.2235939 -16.69925598 65.2235939 -18.46472168 64.45541382 C-20.90027416 63.39428176 -23.33459164 62.33076618 -25.76708984 61.26269531 C-28.87125389 59.89972548 -31.9785101 58.54399997 -35.08705902 57.19106483 C-38.06948164 55.89274482 -41.05041094 54.59101335 -44.03125 53.2890625 C-45.6955304 52.56234848 -45.6955304 52.56234848 -47.39343262 51.82095337 C-48.43471313 51.36393036 -49.47599365 50.90690735 -50.54882812 50.43603516 C-51.45894653 50.03712067 -52.36906494 49.63820618 -53.3067627 49.22720337 C-56.23888799 47.89114804 -59.11800034 46.44099983 -62 45 C-62 39.06 -62 33.12 -62 27 C-33.93148341 14.34471761 -33.93148341 14.34471761 -20.8125 8.6875 C-19.94149658 8.30924072 -19.07049316 7.93098145 -18.1730957 7.54125977 C-16.9833313 7.03163696 -16.9833313 7.03163696 -15.76953125 6.51171875 C-15.08479736 6.21740967 -14.40006348 5.92310059 -13.69458008 5.61987305 C-12 5 -12 5 -10 5 C-10.33 5.70125 -10.66 6.4025 -11 7.125 C-12.13882669 10.39912675 -12.43036734 12.55706125 -12 16 C-10.72675163 19.02928108 -10.72675163 19.02928108 -8 21 C-3.76631715 21.67249836 -0.05347364 21.35115788 4 20 C4.5775 20.94875 5.155 21.8975 5.75 22.875 C7.82816551 25.76134098 8.75468075 26.84095741 12 28 C11.95231597 26.12119128 11.95231597 26.12119128 11 24 C8.02236957 21.73674754 8.02236957 21.73674754 5 20 C5.17789063 19.00419922 5.17789063 19.00419922 5.359375 17.98828125 C6.25841638 12.29420615 6.25841638 12.29420615 4.375 7 C1.96802914 4.97307717 -0.00363671 3.91555545 -3 3 C-2.01 2.01 -1.02 1.02 0 0 Z " fill="#A033CD" transform="translate(75,198)"/>
<path d="M0 0 C5.1548715 1.77111317 10.06542652 3.86128825 15.00390625 6.1640625 C18.87328016 7.91091577 22.7908835 9.5170173 26.72265625 11.1171875 C33.2974337 13.79985815 39.7816533 16.62567781 46.22265625 19.6171875 C48.28444691 20.55624648 50.3469386 21.49376793 52.41015625 22.4296875 C54.01432292 23.15885417 55.61848958 23.88802083 57.22265625 24.6171875 C57.22265625 25.2771875 57.22265625 25.9371875 57.22265625 26.6171875 C49.3577329 30.03252631 41.49064611 33.4428071 33.62077332 36.84672546 C29.43996116 38.65557285 25.26160377 40.46993103 21.08529663 42.28915405 C18.5166131 43.40687498 15.94599128 44.52008361 13.37487793 45.63220215 C11.55592224 46.42068583 9.7393701 47.21470675 7.92285156 48.00878906 C6.2710791 48.72180176 6.2710791 48.72180176 4.5859375 49.44921875 C3.61954346 49.86921143 2.65314941 50.2892041 1.6574707 50.72192383 C-0.77734375 51.6171875 -0.77734375 51.6171875 -3.77734375 51.6171875 C-4.10734375 52.9371875 -4.43734375 54.2571875 -4.77734375 55.6171875 C-4.77734375 54.2971875 -4.77734375 52.9771875 -4.77734375 51.6171875 C-5.74220703 51.47990234 -5.74220703 51.47990234 -6.7265625 51.33984375 C-10.88025744 50.35593394 -14.66621188 48.71557107 -18.58984375 47.0546875 C-19.37810547 46.72533203 -20.16636719 46.39597656 -20.97851562 46.05664062 C-22.91318171 45.24759844 -24.84550128 44.43294898 -26.77734375 43.6171875 C-25.77734375 41.6171875 -25.77734375 41.6171875 -24.21484375 40.2421875 C-22.33562783 38.47945135 -22.33562783 38.47945135 -22.77734375 34.6171875 C-21.40234375 32.8671875 -21.40234375 32.8671875 -19.77734375 31.6171875 C-19.11734375 31.6171875 -18.45734375 31.6171875 -17.77734375 31.6171875 C-17.77734375 30.9571875 -17.77734375 30.2971875 -17.77734375 29.6171875 C-17.11734375 29.6171875 -16.45734375 29.6171875 -15.77734375 29.6171875 C-15.68582031 28.9365625 -15.59429687 28.2559375 -15.5 27.5546875 C-14.44868281 23.28122518 -12.31070176 19.62447341 -10.21679688 15.7890625 C-8.35226067 12.23756496 -7.35798182 9.64306199 -7.77734375 5.6171875 C-6.45734375 5.2871875 -5.13734375 4.9571875 -3.77734375 4.6171875 C-3.77734375 3.2971875 -3.77734375 1.9771875 -3.77734375 0.6171875 C-1.77734375 -0.3828125 -1.77734375 -0.3828125 0 0 Z " fill="#FE8531" transform="translate(205.77734375,84.3828125)"/>
<path d="M0 0 C-0.33 0.33 -0.66 0.66 -1 1 C-1.10448396 2.45697071 -1.18388668 3.9157846 -1.25 5.375 C-1.48046875 7.83203125 -1.48046875 7.83203125 -2 10 C-4.5625 12.0625 -4.5625 12.0625 -7 13 C-6.67 13 -6.34 13 -6 13 C-4.33333333 13 -2.66666667 13 -1 13 C-0.319375 14.4540625 -0.319375 14.4540625 0.375 15.9375 C1.65786221 19.07079582 1.65786221 19.07079582 4 20 C3.67 21.32 3.34 22.64 3 24 C1.68 24.33 0.36 24.66 -1 25 C-1 25.66 -1 26.32 -1 27 C-0.34 27.33 0.32 27.66 1 28 C0.67 29.32 0.34 30.64 0 32 C-0.66 32 -1.32 32 -2 32 C-2.33 34.64 -2.66 37.28 -3 40 C-3.99 40.33 -4.98 40.66 -6 41 C-5.67 41.99 -5.34 42.98 -5 44 C-11.33067557 41.99272128 -17.44983683 39.65964797 -23.55859375 37.05859375 C-24.42895767 36.69024918 -25.29932159 36.3219046 -26.19606018 35.94239807 C-28.01776511 35.17014436 -29.83871627 34.39611028 -31.65893555 33.62036133 C-34.45167962 32.4314636 -37.24812848 31.25160097 -40.04492188 30.07226562 C-41.82054231 29.31824928 -43.59594111 28.56371075 -45.37109375 27.80859375 C-46.20748886 27.45647324 -47.04388397 27.10435272 -47.90562439 26.74156189 C-48.67725418 26.41104324 -49.44888397 26.0805246 -50.24389648 25.73999023 C-50.92290512 25.4514769 -51.60191376 25.16296356 -52.30149841 24.8657074 C-54 24 -54 24 -56 22 C-42.89807742 15.67186052 -29.50846981 10.01133714 -16.11035156 4.34619141 C-12.65290281 2.84977285 -9.25508245 1.24728927 -5.88037109 -0.42700195 C-3.57373416 -1.1298943 -2.25168234 -0.76714949 0 0 Z " fill="#F14240" transform="translate(133,145)"/>
<path d="M0 0 C0 5.94 0 11.88 0 18 C-3.95657441 19.67095149 -7.91511157 21.33693675 -11.875 23 C-13.00292969 23.47695312 -14.13085938 23.95390625 -15.29296875 24.4453125 C-16.36933594 24.89648438 -17.44570312 25.34765625 -18.5546875 25.8125 C-19.54968262 26.23144531 -20.54467773 26.65039062 -21.56982422 27.08203125 C-24 28 -24 28 -26 28 C-26 29.98 -26 31.96 -26 34 C-27.32 34 -28.64 34 -30 34 C-30 33.34 -30 32.68 -30 32 C-33.81625385 32.63459643 -37.0837962 33.75602395 -40.6328125 35.28515625 C-41.68597656 35.73310547 -42.73914063 36.18105469 -43.82421875 36.64257812 C-46.03275015 37.59263867 -48.24108214 38.54316287 -50.44921875 39.49414062 C-51.49980469 39.94080078 -52.55039063 40.38746094 -53.6328125 40.84765625 C-55.06971436 41.4665271 -55.06971436 41.4665271 -56.53564453 42.09790039 C-59 43 -59 43 -62 43 C-63.53190797 39.93618406 -63.10243613 36.73034134 -63.0625 33.375 C-63.0514624 32.07256348 -63.0404248 30.77012695 -63.02905273 29.42822266 C-63.01946533 28.29690918 -63.00987793 27.1655957 -63 26 C-51.36402218 20.88411944 -39.69666434 15.84338151 -28.01342773 10.83642578 C-25.14575718 9.60710558 -22.27892629 8.37584066 -19.41210938 7.14453125 C-17.58077957 6.35925745 -15.74940122 5.57409683 -13.91796875 4.7890625 C-12.63843575 4.23915146 -12.63843575 4.23915146 -11.33305359 3.6781311 C-10.54405167 3.34042694 -9.75504974 3.00272278 -8.94213867 2.65478516 C-8.2509343 2.35835114 -7.55972992 2.06191711 -6.84757996 1.75650024 C-4.52676162 0.80623033 -2.53006411 0 0 0 Z " fill="#D8212B" transform="translate(202,168)"/>
<path d="M0 0 C0 5.94 0 11.88 0 18 C-5.66946438 20.43693938 -11.33966556 22.87215413 -17.01049805 25.3059082 C-18.93159012 26.13065263 -20.85249486 26.95583356 -22.77319336 27.78149414 C-32.37305548 31.90790469 -41.97715448 36.0234673 -51.62890625 40.02734375 C-52.32112778 40.31646133 -53.0133493 40.60557892 -53.72654724 40.90345764 C-56.82019493 42.17845781 -59.74172234 43.18543058 -63 44 C-63 38.06 -63 32.12 -63 26 C-61.11023438 25.21238281 -59.22046875 24.42476562 -57.2734375 23.61328125 C-54.64020615 22.51402208 -52.00756782 21.41334719 -49.375 20.3125 C-48.68870514 20.02565338 -48.00241028 19.73880676 -47.2953186 19.44326782 C-39.2856074 16.09283914 -31.29144917 12.71059935 -23.33203125 9.2421875 C-22.64234253 8.94179062 -21.95265381 8.64139374 -21.24206543 8.33189392 C-17.91641239 6.88184931 -14.59332152 5.4262056 -11.27294922 3.96411133 C-10.08330566 3.44357178 -8.89366211 2.92303223 -7.66796875 2.38671875 C-6.61891357 1.92483154 -5.5698584 1.46294434 -4.48901367 0.98706055 C-2 0 -2 0 0 0 Z " fill="#F26911" transform="translate(265,110)"/>
<path d="M0 0 C0 5.61 0 11.22 0 17 C-6.78629899 20.46634444 -13.61589118 23.63466753 -20.64453125 26.57421875 C-21.61734543 26.98412552 -22.59015961 27.39403229 -23.592453 27.81636047 C-26.66449785 29.10986684 -29.73847615 30.39870493 -32.8125 31.6875 C-34.89270291 32.56285457 -36.97278214 33.4385031 -39.05273438 34.31445312 C-42.85449953 35.91408413 -46.65651239 37.51311144 -50.46020508 39.1081543 C-51.59743767 39.58517036 -51.59743767 39.58517036 -52.75764465 40.07182312 C-53.49762192 40.37812149 -54.23759918 40.68441986 -55 41 C-55.85675827 41.36901932 -56.71351654 41.73803864 -57.59623718 42.11824036 C-60 43 -60 43 -63 43 C-63 37.39 -63 31.78 -63 26 C-56.64135462 22.67831958 -50.30537463 19.86636884 -43.56640625 17.40625 C-39.66396362 15.86749935 -35.8777912 14.14034111 -32.06616211 12.39111328 C-26.58154823 9.90275196 -21.04149407 7.54578356 -15.5 5.1875 C-14.3346875 4.68541016 -13.169375 4.18332031 -11.96875 3.66601562 C-10.855 3.19228516 -9.74125 2.71855469 -8.59375 2.23046875 C-7.59021484 1.80145264 -6.58667969 1.37243652 -5.55273438 0.93041992 C-3 0 -3 0 0 0 Z " fill="#8414B2" transform="translate(139,226)"/>
<path d="M0 0 C0.66 0.66 1.32 1.32 2 2 C1.625 4.125 1.625 4.125 1 6 C3.475 6.99 3.475 6.99 6 8 C4 10 4 10 1 11 C1 11.66 1 12.32 1 13 C0.360625 13.2475 -0.27875 13.495 -0.9375 13.75 C-3.18729876 14.7925291 -3.18729876 14.7925291 -3.5625 17 C-3.706875 17.66 -3.85125 18.32 -4 19 C-4.99 19.66 -5.98 20.32 -7 21 C-7.66 21.66 -8.32 22.32 -9 23 C-9.99 23.33 -10.98 23.66 -12 24 C-11.0022242 26.99332739 -10.2477975 27.94766315 -8 30 C-8.66 30 -9.32 30 -10 30 C-10.268125 30.804375 -10.53625 31.60875 -10.8125 32.4375 C-11.204375 33.283125 -11.59625 34.12875 -12 35 C-13.485 35.495 -13.485 35.495 -15 36 C-15 36.66 -15 37.32 -15 38 C-15.66 38 -16.32 38 -17 38 C-15.515 40.475 -15.515 40.475 -14 43 C-15.28965176 44.37562854 -16.62689293 45.70766393 -18 47 C-18.66 47 -19.32 47 -20 47 C-20 47.66 -20 48.32 -20 49 C-21.33333333 50 -22.66666667 51 -24 52 C-24 52.66 -24 53.32 -24 54 C-25.97746603 54.73080266 -27.98072489 55.39421747 -30 56 C-30.66 55.67 -31.32 55.34 -32 55 C-32 55.66 -32 56.32 -32 57 C-31.34 57.33 -30.68 57.66 -30 58 C-29.67 58.99 -29.34 59.98 -29 61 C-33.29 61 -37.58 61 -42 61 C-40.84370308 59.84370308 -39.68063178 58.69393879 -38.5 57.5625 C-36.78408374 55.86686553 -36.78408374 55.86686553 -35 53 C-34.319375 52.21625 -33.63875 51.4325 -32.9375 50.625 C-30.84572943 48.18360085 -30.84572943 48.18360085 -30.5 45.4375 C-29.85029767 42.27020113 -28.28370178 41.2123361 -26 39 C-25.7525 38.01 -25.7525 38.01 -25.5 37 C-25 35 -25 35 -22.875 33 C-22.25625 32.34 -21.6375 31.68 -21 31 C-21.18691406 30.3709375 -21.37382812 29.741875 -21.56640625 29.09375 C-21.70949219 28.4028125 -21.85257813 27.711875 -22 27 C-20.78515625 25.21875 -20.78515625 25.21875 -19.0625 23.5 C-16.17180645 20.60272172 -16 20.42074306 -16 16 C-15.34 15.34 -14.68 14.68 -14 14 C-13.67 13.34 -13.34 12.68 -13 12 C-10.67843403 11.59270772 -8.3431213 11.25561323 -6 11 C-6.66 9.68 -7.32 8.36 -8 7 C-8.66 7 -9.32 7 -10 7 C-10 6.34 -10 5.68 -10 5 C-8.68 5 -7.36 5 -6 5 C-5.34 4.34 -4.68 3.68 -4 3 C-2.67607028 1.98758315 -1.34400833 0.98560611 0 0 Z M-20 27 C-19.67 27.66 -19.34 28.32 -19 29 C-18.67 28.34 -18.34 27.68 -18 27 C-18.66 27 -19.32 27 -20 27 Z M-12 28 C-11 30 -11 30 -11 30 Z " fill="#FFEDA9" transform="translate(204,339)"/>
<path d="M0 0 C0.33 0 0.66 0 1 0 C1 5.28 1 10.56 1 16 C-2.95657441 17.67095149 -6.91511157 19.33693675 -10.875 21 C-12.00292969 21.47695312 -13.13085938 21.95390625 -14.29296875 22.4453125 C-15.36933594 22.89648438 -16.44570312 23.34765625 -17.5546875 23.8125 C-18.54968262 24.23144531 -19.54467773 24.65039062 -20.56982422 25.08203125 C-23 26 -23 26 -25 26 C-25 27.98 -25 29.96 -25 32 C-26.32 32 -27.64 32 -29 32 C-29 31.34 -29 30.68 -29 30 C-32.81625385 30.63459643 -36.0837962 31.75602395 -39.6328125 33.28515625 C-40.68597656 33.73310547 -41.73914063 34.18105469 -42.82421875 34.64257812 C-45.03275015 35.59263867 -47.24108214 36.54316287 -49.44921875 37.49414062 C-50.49980469 37.94080078 -51.55039063 38.38746094 -52.6328125 38.84765625 C-54.06971436 39.4665271 -54.06971436 39.4665271 -55.53564453 40.09790039 C-58 41 -58 41 -61 41 C-62.53266582 37.93466836 -62.10276471 34.73245728 -62.0625 31.375 C-62.05798828 30.66859375 -62.05347656 29.9621875 -62.04882812 29.234375 C-62.03703875 27.48954725 -62.01910324 25.744763 -62 24 C-61.34 25.32 -60.68 26.64 -60 28 C-59.01 27.5359375 -59.01 27.5359375 -58 27.0625 C-55.4041494 26.14313625 -53.44915851 25.76700309 -50.75 25.5 C-48.89375 25.2525 -48.89375 25.2525 -47 25 C-46.67 24.34 -46.34 23.68 -46 23 C-45.13375 23.309375 -45.13375 23.309375 -44.25 23.625 C-41.45056721 24.09157213 -40.46296498 23.27120773 -38 22 C-37.01 22.33 -36.02 22.66 -35 23 C-34.67 22.34 -34.34 21.68 -34 21 C-32.00822259 20.62061383 -30.00569659 20.29714023 -28 20 C-26.906875 19.67 -25.81375 19.34 -24.6875 19 C-21.83204974 18.22564061 -19.52452033 17.80958956 -16.625 17.5625 C-12.43747646 17.1824679 -8.85094959 16.04929572 -4.9453125 14.5234375 C-3 14 -3 14 0 15 C0 10.05 0 5.1 0 0 Z " fill="#DE2930" transform="translate(201,170)"/>
<path d="M0 0 C2.9375 2.625 2.9375 2.625 5 6 C4.87449952 9.7022643 4.16539496 12.50381513 3 16 C3.763125 16.268125 4.52625 16.53625 5.3125 16.8125 C7.91245703 17.96131822 9.38885423 18.67278944 11 21 C10.6875 23.1875 10.6875 23.1875 10 25 C6.20620942 23.50958227 4.31656242 21.30937488 2 18 C2 17.34 2 16.68 2 16 C1.01 16.66 0.02 17.32 -1 18 C-4.72089754 18.72466918 -8.44986436 19.03342376 -11.69921875 16.8671875 C-13.96276077 14.38961428 -14.96072995 12.21380363 -15.5625 8.9375 C-14.85491998 5.24235989 -13.68699599 3.61437448 -11 1 C-7.09659241 -1.25986755 -4.27674674 -1.42558225 0 0 Z " fill="#FCF8FD" transform="translate(77,202)"/>
<path d="M0 0 C-0.35010941 9.17286652 -0.35010941 9.17286652 -3.0625 12.625 C-3.701875 13.07875 -4.34125 13.5325 -5 14 C-5.495 13.01 -5.495 13.01 -6 12 C-10.30765024 12.37786406 -13.88178402 12.78562649 -17.8125 14.625 C-21 16 -21 16 -24 15 C-24.33 15.66 -24.66 16.32 -25 17 C-25.99 16.67 -26.98 16.34 -28 16 C-28.33 16.66 -28.66 17.32 -29 18 C-30.98 18 -32.96 18 -35 18 C-35.33 18.66 -35.66 19.32 -36 20 C-36 19.34 -36 18.68 -36 18 C-38.97 19.32 -41.94 20.64 -45 22 C-45.33 21.01 -45.66 20.02 -46 19 C-43.85811785 16.63918985 -41.95678748 15.33744617 -39.03515625 14.08300781 C-38.24423584 13.73965393 -37.45331543 13.39630005 -36.63842773 13.0425415 C-35.78837158 12.68303406 -34.93831543 12.32352661 -34.0625 11.953125 C-33.18601807 11.57766541 -32.30953613 11.20220581 -31.40649414 10.81536865 C-29.55543943 10.0250904 -27.7027739 9.23857604 -25.84863281 8.45556641 C-23.00557463 7.25235923 -20.1706666 6.03127347 -17.3359375 4.80859375 C-15.53692372 4.04317609 -13.73745925 3.27881666 -11.9375 2.515625 C-11.08744385 2.14802063 -10.2373877 1.78041626 -9.36157227 1.40167236 C-8.57065186 1.07092712 -7.77973145 0.74018188 -6.96484375 0.39941406 C-6.2699585 0.10423889 -5.57507324 -0.19093628 -4.85913086 -0.49505615 C-3 -1 -3 -1 0 0 Z " fill="#7D0BAC" transform="translate(139,227)"/>
<path d="M0 0 C3.28720657 0.71602519 5.37803824 1.83373699 8.15625 3.6875 C10.24158633 4.56572312 10.24158633 4.56572312 12.15625 4.6875 C12.81625 4.0275 13.47625 3.3675 14.15625 2.6875 C15.14625 3.0175 16.13625 3.3475 17.15625 3.6875 C16.82625 4.3475 16.49625 5.0075 16.15625 5.6875 C16.81625 6.0175 17.47625 6.3475 18.15625 6.6875 C18.15625 7.3475 18.15625 8.0075 18.15625 8.6875 C20.13625 9.6775 22.11625 10.6675 24.15625 11.6875 C23.82625 12.6775 23.49625 13.6675 23.15625 14.6875 C22.5375 14.48125 21.91875 14.275 21.28125 14.0625 C20.58 13.93875 19.87875 13.815 19.15625 13.6875 C18.49625 14.3475 17.83625 15.0075 17.15625 15.6875 C13.15625 15.6875 13.15625 15.6875 11.40625 14.1875 C10.99375 13.6925 10.58125 13.1975 10.15625 12.6875 C10.795625 12.378125 11.435 12.06875 12.09375 11.75 C14.09235821 10.8529837 14.09235821 10.8529837 15.15625 9.6875 C13.6985147 9.351561 12.24003894 9.01883376 10.78125 8.6875 C9.96914063 8.501875 9.15703125 8.31625 8.3203125 8.125 C6.19750049 7.62144761 6.19750049 7.62144761 4.15625 7.6875 C3.62 8.368125 3.08375 9.04875 2.53125 9.75 C0.15625 11.6875 0.15625 11.6875 -3.71875 11.5625 C-7.21312581 10.93012229 -10.49948578 9.88188008 -13.84375 8.6875 C-14.50375 8.6875 -15.16375 8.6875 -15.84375 8.6875 C-15.53468779 5.90594013 -14.58523657 4.27203199 -13.09375 1.875 C-8.58204499 -1.16172453 -5.27881337 -0.49334704 0 0 Z M2.15625 2.6875 C2.81625 3.3475 3.47625 4.0075 4.15625 4.6875 C4.15625 4.0275 4.15625 3.3675 4.15625 2.6875 C3.49625 2.6875 2.83625 2.6875 2.15625 2.6875 Z M1.15625 4.6875 C1.81625 5.3475 2.47625 6.0075 3.15625 6.6875 C3.15625 6.0275 3.15625 5.3675 3.15625 4.6875 C2.49625 4.6875 1.83625 4.6875 1.15625 4.6875 Z M-4.84375 7.6875 C-4.18375 8.3475 -3.52375 9.0075 -2.84375 9.6875 C-2.84375 9.0275 -2.84375 8.3675 -2.84375 7.6875 C-3.50375 7.6875 -4.16375 7.6875 -4.84375 7.6875 Z " fill="#FFE1B6" transform="translate(323.84375,299.3125)"/>
<path d="M0 0 C5.70334164 0.55193629 11.15902587 1.38360351 16.73828125 2.6953125 C19.1609119 3.02167725 20.67185206 2.64643774 23 2 C23.86625 2.185625 24.7325 2.37125 25.625 2.5625 C26.40875 2.706875 27.1925 2.85125 28 3 C28.66 2.34 29.32 1.68 30 1 C32.475 1.99 32.475 1.99 35 3 C35 3.66 35 4.32 35 5 C35.66 5.33 36.32 5.66 37 6 C34 7 34 7 31.8125 6.0625 C31.214375 5.711875 30.61625 5.36125 30 5 C29.34 5.66 28.68 6.32 28 7 C27.34 6.67 26.68 6.34 26 6 C26.33 6.99 26.66 7.98 27 9 C25.18274325 11.82684384 23.96062054 13.65310925 20.75 14.8125 C20.1725 14.874375 19.595 14.93625 19 15 C19 15.99 19 16.98 19 18 C17.35 17.67 15.7 17.34 14 17 C13.77825067 15.54364629 13.57301302 14.08477044 13.375 12.625 C13.25898438 11.81289063 13.14296875 11.00078125 13.0234375 10.1640625 C13.01570312 9.44992187 13.00796875 8.73578125 13 8 C13.66 7.34 14.32 6.68 15 6 C14.34 5.67 13.68 5.34 13 5 C13 5.66 13 6.32 13 7 C8.71 7 4.42 7 0 7 C0 4.69 0 2.38 0 0 Z " fill="#FFE9B4" transform="translate(226,298)"/>
<path d="M0 0 C2 3.75 2 3.75 2 6 C4.64 5.67 7.28 5.34 10 5 C8.68 5.99 7.36 6.98 6 8 C8.97 8.495 8.97 8.495 12 9 C12 8.34 12 7.68 12 7 C12.66 7 13.32 7 14 7 C14.33 4.69 14.66 2.38 15 0 C15.33 0 15.66 0 16 0 C15.87625 1.0725 15.7525 2.145 15.625 3.25 C15.74875 4.4875 15.8725 5.725 16 7 C18.92321965 9.28239171 18.92321965 9.28239171 22 11 C22 11.99 22 12.98 22 14 C21.34 13.34 20.68 12.68 20 12 C17.42938689 11.35232207 17.42938689 11.35232207 15 11 C14.9175 11.78375 14.835 12.5675 14.75 13.375 C14 16 14 16 11.9375 17.3125 C11.298125 17.539375 10.65875 17.76625 10 18 C11.15173355 20.46800047 12.04783565 22.04783565 14 24 C13.4225 23.835 12.845 23.67 12.25 23.5 C8.60994097 22.69109799 5.52708708 22.99226083 2 24 C2.474375 23.566875 2.94875 23.13375 3.4375 22.6875 C5.23686957 20.97690387 5.23686957 20.97690387 6 18 C5.360625 17.773125 4.72125 17.54625 4.0625 17.3125 C2 16 2 16 1.25 13.375 C1.1675 12.59125 1.085 11.8075 1 11 C-3.07964281 12.30155006 -3.07964281 12.30155006 -7 14 C-5.84826645 11.53199953 -4.95216435 9.95216435 -3 8 C-2.01 8 -1.02 8 0 8 C0 5.36 0 2.72 0 0 Z " fill="#FABDB7" transform="translate(131,147)"/>
<path d="M0 0 C0.33 0 0.66 0 1 0 C1.33 3.3 1.66 6.6 2 10 C2.66 9.34 3.32 8.68 4 8 C6.625 8.375 6.625 8.375 9 9 C9.33 8.34 9.66 7.68 10 7 C11.36125 7.061875 11.36125 7.061875 12.75 7.125 C15.97484476 7.00096751 17.24626059 6.46866102 20 5 C21.32 5 22.64 5 24 5 C25.3921875 4.505 25.3921875 4.505 26.8125 4 C30.35818653 2.88762776 33.30611626 2.85224465 37 3 C37 4.65 37 6.3 37 8 C35.68 8 34.36 8 33 8 C33 7.34 33 6.68 33 6 C29.18374615 6.63459643 25.9162038 7.75602395 22.3671875 9.28515625 C21.31402344 9.73310547 20.26085937 10.18105469 19.17578125 10.64257812 C16.96724985 11.59263867 14.75891786 12.54316287 12.55078125 13.49414062 C10.97490234 14.16413086 10.97490234 14.16413086 9.3671875 14.84765625 C8.40925293 15.26023682 7.45131836 15.67281738 6.46435547 16.09790039 C4 17 4 17 1 17 C-0.53266582 13.93466836 -0.10276471 10.73245728 -0.0625 7.375 C-0.05798828 6.66859375 -0.05347656 5.9621875 -0.04882812 5.234375 C-0.03703875 3.48954725 -0.01910324 1.744763 0 0 Z " fill="#DF3C3B" transform="translate(139,194)"/>
<path d="M0 0 C2.96981874 3.22806385 2.13752467 7.87425976 2 12 C1.34 12 0.68 12 0 12 C0 12.66 0 13.32 0 14 C-1.98 14 -3.96 14 -6 14 C-6.33 13.01 -6.66 12.02 -7 11 C-7.99 11 -8.98 11 -10 11 C-12.125 4.375 -12.125 4.375 -11 1 C-7.43233044 -1.7443612 -4.17970422 -1.08362702 0 0 Z " fill="#F5504B" transform="translate(143,142)"/>
<path d="M0 0 C3.3 0.66 6.6 1.32 10 2 C10 1.34 10 0.68 10 0 C12.31 0.33 14.62 0.66 17 1 C17 1.99 17 2.98 17 4 C18.32 3.67 19.64 3.34 21 3 C21 5.33333333 21 7.66666667 21 10 C19.7625 9.566875 19.7625 9.566875 18.5 9.125 C14.69204819 7.90101549 10.88729173 6.9383118 7 6 C7 6.66 7 7.32 7 8 C6.34 8 5.68 8 5 8 C5 8.99 5 9.98 5 11 C2.69 10.67 0.38 10.34 -2 10 C-1.67 9.01 -1.34 8.02 -1 7 C-1.33 6.34 -1.66 5.68 -2 5 C-1.01 4.67 -0.02 4.34 1 4 C0.34 3.67 -0.32 3.34 -1 3 C-0.67 2.01 -0.34 1.02 0 0 Z " fill="#FFE5B5" transform="translate(275,300)"/>
<path d="M0 0 C0 1.32 0 2.64 0 4 C-6.24730898 4.65707942 -11.79388442 5.10330944 -18 4 C-21.02094103 4.19538425 -24.00458456 4.56732888 -27 5 C-27.66 3.68 -28.32 2.36 -29 1 C-25.5233662 -1.14336161 -22.78770805 -1.21277626 -18.75 -1.125 C-17.67234375 -1.10695313 -16.5946875 -1.08890625 -15.484375 -1.0703125 C-14.25460938 -1.03550781 -14.25460938 -1.03550781 -13 -1 C-12.67 -0.01 -12.34 0.98 -12 2 C-11.67 1.01 -11.34 0.02 -11 -1 C-7.21072879 -2.89463561 -3.80605364 -1.24428677 0 0 Z " fill="#B09F8A" transform="translate(215,279)"/>
<path d="M0 0 C1.03125 0.37125 2.0625 0.7425 3.125 1.125 C7.33375955 2.07536506 9.12163756 1.70269571 13 0 C13.33 0.66 13.66 1.32 14 2 C14.99 1.67 15.98 1.34 17 1 C17 1.66 17 2.32 17 3 C16.34 3 15.68 3 15 3 C15 3.66 15 4.32 15 5 C15.99 4.34 16.98 3.68 18 3 C18 2.34 18 1.68 18 1 C19.98 0.67 21.96 0.34 24 0 C24 1.98 24 3.96 24 6 C22.54182203 6.16802051 21.0834516 6.33437143 19.625 6.5 C18.40683594 6.63921875 18.40683594 6.63921875 17.1640625 6.78125 C15 7 15 7 13 7 C12.01 7.66 11.02 8.32 10 9 C9.01 9 8.02 9 7 9 C6.67 8.01 6.34 7.02 6 6 C5.38125 6.165 4.7625 6.33 4.125 6.5 C2 7 2 7 0 7 C0 4.69 0 2.38 0 0 Z " fill="#B9A78F" transform="translate(230,277)"/>
<path d="M0 0 C1.50046875 0.01740234 1.50046875 0.01740234 3.03125 0.03515625 C4.53171875 0.04869141 4.53171875 0.04869141 6.0625 0.0625 C6.8771875 0.07410156 7.691875 0.08570313 8.53125 0.09765625 C8.86125 0.09765625 9.19125 0.09765625 9.53125 0.09765625 C14.86458333 0.09765625 20.19791667 0.09765625 25.53125 0.09765625 C25.53125 1.74765625 25.53125 3.39765625 25.53125 5.09765625 C21.39731718 6.29783029 17.93937965 5.90356984 13.75390625 5.3515625 C11.32453796 5.03144947 11.32453796 5.03144947 8.03125 5.09765625 C7.20625 5.09765625 6.38125 5.09765625 5.53125 5.09765625 C5.20125 4.76765625 4.87125 4.43765625 4.53125 4.09765625 C4.20125 4.42765625 3.87125 4.75765625 3.53125 5.09765625 C1.53166636 5.13846408 -0.46920254 5.14019981 -2.46875 5.09765625 C-3.03125 3.16015625 -3.03125 3.16015625 -3.46875 1.09765625 C-2.46875 0.09765625 -2.46875 0.09765625 0 0 Z " fill="#796F64" transform="translate(326.46875,153.90234375)"/>
<path d="M0 0 C9.33333333 0 18.66666667 0 28 0 C28 1.66666667 28 3.33333333 28 5 C25 4 25 4 23 2 C23 2.99 23 3.98 23 5 C22.34 5 21.68 5 21 5 C20.67 4.67 20.34 4.34 20 4 C19.4225 4.144375 18.845 4.28875 18.25 4.4375 C15.76197755 5.05950561 13.5545541 5.07095984 11 5 C11 4.01 11 3.02 11 2 C10.34 2 9.68 2 9 2 C9 2.99 9 3.98 9 5 C5.7 5 2.4 5 -1 5 C-0.67 3.35 -0.34 1.7 0 0 Z " fill="#C39E83" transform="translate(210,253)"/>
<path d="M0 0 C0.33 0.99 0.66 1.98 1 3 C1.99 3.33 2.98 3.66 4 4 C4.3125 6.3125 4.3125 6.3125 4 9 C2.86498047 9.60521484 2.86498047 9.60521484 1.70703125 10.22265625 C-1.81075218 12.53231203 -2.99658483 15.39321523 -4.625 19.125 C-5.67210899 21.48807029 -6.76898966 23.71883866 -8 26 C-8.99 26.33 -9.98 26.66 -11 27 C-10.31373025 21.17105056 -8.06138498 16.99222618 -5.27734375 11.90234375 C-3.98507012 8.96607675 -3.72747632 7.16011496 -4 4 C-2.68 3.67 -1.36 3.34 0 3 C0 2.01 0 1.02 0 0 Z " fill="#FEF1E8" transform="translate(202,86)"/>
<path d="M0 0 C0.66 0 1.32 0 2 0 C2 0.66 2 1.32 2 2 C2.81984375 2 3.6396875 2 4.484375 2 C10.65625 2 16.828125 2 23 2 C23 3.66666667 23 5.33333333 23 7 C17.39 7 11.78 7 6 7 C6 5.68 6 4.36 6 3 C5.34 3 4.68 3 4 3 C4 4.32 4 5.64 4 7 C1.69 7 -0.62 7 -3 7 C-3.33 5.68 -3.66 4.36 -4 3 C-3.01 3.33 -2.02 3.66 -1 4 C-0.67 2.68 -0.34 1.36 0 0 Z " fill="#B09D8A" transform="translate(234,287)"/>
<path d="M0 0 C0.99 0.66 1.98 1.32 3 2 C3.66 1.67 4.32 1.34 5 1 C5 4.96 5 8.92 5 13 C-1.625 15 -1.625 15 -5 15 C-5 14.01 -5 13.02 -5 12 C-4.34 12 -3.68 12 -3 12 C-3.2165625 10.9171875 -3.2165625 10.9171875 -3.4375 9.8125 C-3.95833333 7.20833333 -4.47916667 4.60416667 -5 2 C-3.68 2 -2.36 2 -1 2 C-0.67 1.34 -0.34 0.68 0 0 Z " fill="#FED5AA" transform="translate(395,364)"/>
<path d="M0 0 C0 1.98 0 3.96 0 6 C-4.084979 6.54466387 -7.8725485 7 -12 7 C-12 5.68 -12 4.36 -12 3 C-12.99 3 -13.98 3 -15 3 C-15 3.66 -15 4.32 -15 5 C-14.34 5 -13.68 5 -13 5 C-13 5.66 -13 6.32 -13 7 C-15.66666667 7 -18.33333333 7 -21 7 C-21 6.01 -21 5.02 -21 4 C-21.66 3.67 -22.32 3.34 -23 3 C-23.33 3.99 -23.66 4.98 -24 6 C-24 4.35 -24 2.7 -24 1 C-15 1 -15 1 -12.15234375 1.03515625 C-11.09144531 1.04417969 -10.03054688 1.05320313 -8.9375 1.0625 C-7.87402344 1.07410156 -6.81054688 1.08570313 -5.71484375 1.09765625 C-3.4764858 1.01713978 -2.03859174 0 0 0 Z " fill="#A69882" transform="translate(277,210)"/>
<path d="M0 0 C1.11375 0.556875 1.11375 0.556875 2.25 1.125 C1.92 2.445 1.59 3.765 1.25 5.125 C1.25 4.135 1.25 3.145 1.25 2.125 C0.59 2.125 -0.07 2.125 -0.75 2.125 C-0.75 3.445 -0.75 4.765 -0.75 6.125 C-4.71 6.125 -8.67 6.125 -12.75 6.125 C-12.75 4.805 -12.75 3.485 -12.75 2.125 C-13.41 2.125 -14.07 2.125 -14.75 2.125 C-15.08 3.115 -15.41 4.105 -15.75 5.125 C-15.75 4.135 -15.75 3.145 -15.75 2.125 C-16.41 2.125 -17.07 2.125 -17.75 2.125 C-18.08 3.115 -18.41 4.105 -18.75 5.125 C-20.8125 5.8125 -20.8125 5.8125 -22.75 6.125 C-23.08 4.475 -23.41 2.825 -23.75 1.125 C-18.08333333 1.125 -12.41666667 1.125 -6.75 1.125 C-6.110625 0.75375 -5.47125 0.3825 -4.8125 0 C-2.75 -0.875 -2.75 -0.875 0 0 Z " fill="#C59F84" transform="translate(269.75,241.875)"/>
<path d="M0 0 C0.33 0.66 0.66 1.32 1 2 C1.66 1.67 2.32 1.34 3 1 C5.3400417 1.28241883 7.67504723 1.61250787 10 2 C9.67 3.32 9.34 4.64 9 6 C9 5.01 9 4.02 9 3 C8.34 3 7.68 3 7 3 C7 3.99 7 4.98 7 6 C0.34362157 7.23839599 -6.2471936 7.09139136 -13 7 C-12.67 5.35 -12.34 3.7 -12 2 C-11.34 2 -10.68 2 -10 2 C-9.67 2.99 -9.34 3.98 -9 5 C-8.67 3.68 -8.34 2.36 -8 1 C-2.25 0 -2.25 0 0 0 Z " fill="#867B6D" transform="translate(291,210)"/>
<path d="M0 0 C0.33 0.66 0.66 1.32 1 2 C1.7425 1.814375 2.485 1.62875 3.25 1.4375 C5.94990963 1.00796892 7.44631077 1.14877026 10 2 C9.67 3.32 9.34 4.64 9 6 C9 5.01 9 4.02 9 3 C8.34 3 7.68 3 7 3 C7 3.99 7 4.98 7 6 C0.4 6 -6.2 6 -13 6 C-12.67 4.35 -12.34 2.7 -12 1 C-10.906875 1.020625 -9.81375 1.04125 -8.6875 1.0625 C-5.54198634 1.00918621 -3.04656609 0 0 0 Z " fill="#8D8270" transform="translate(216,268)"/>
<path d="M0 0 C1.6396875 0.2475 1.6396875 0.2475 3.3125 0.5 C6.87525873 1.06718184 6.87525873 1.06718184 10 1 C11.68236471 1.62599617 13.3523962 2.28752268 15 3 C15 2.34 15 1.68 15 1 C16.32 0.67 17.64 0.34 19 0 C19 2.31 19 4.62 19 7 C6 7 6 7 2 5 C2 5.66 2 6.32 2 7 C1.34 7 0.68 7 0 7 C0 4.69 0 2.38 0 0 Z " fill="#BEAD92" transform="translate(146,277)"/>
<path d="M0 0 C0 1.32 0 2.64 0 4 C-0.94875 3.979375 -1.8975 3.95875 -2.875 3.9375 C-5.90666283 3.77448174 -5.90666283 3.77448174 -8 5 C-9.70702735 5.06996014 -11.41668003 5.08440154 -13.125 5.0625 C-14.03507813 5.05347656 -14.94515625 5.04445312 -15.8828125 5.03515625 C-16.58148438 5.02355469 -17.28015625 5.01195312 -18 5 C-18.33 3.35 -18.66 1.7 -19 0 C-17.68 0 -16.36 0 -15 0 C-14.67 -0.33 -14.34 -0.66 -14 -1 C-9.08410697 -2.70165528 -4.34801858 -2.89867905 0 0 Z " fill="#C29C81" transform="translate(269,232)"/>
<path d="M0 0 C2 4 2 4 2 6 C4.64 5.67 7.28 5.34 10 5 C8.68 5.99 7.36 6.98 6 8 C8.97 8.495 8.97 8.495 12 9 C12 8.34 12 7.68 12 7 C12.66 7 13.32 7 14 7 C14.33 4.69 14.66 2.38 15 0 C15.33 0 15.66 0 16 0 C15.87625 1.0725 15.7525 2.145 15.625 3.25 C15.74875 4.4875 15.8725 5.725 16 7 C18.92321965 9.28239171 18.92321965 9.28239171 22 11 C22 11.99 22 12.98 22 14 C21.46375 13.484375 20.9275 12.96875 20.375 12.4375 C18.01422228 10.69255197 18.01422228 10.69255197 14.875 11.25 C12.08231308 11.87261072 12.08231308 11.87261072 10 13 C10 12.01 10 11.02 10 10 C8.68 10 7.36 10 6 10 C5.67 10.99 5.34 11.98 5 13 C2.69 12.01 0.38 11.02 -2 10 C-1.34 6.7 -0.68 3.4 0 0 Z " fill="#FEF1F0" transform="translate(131,147)"/>
<path d="M0 0 C0.66 0 1.32 0 2 0 C2 0.66 2 1.32 2 2 C2.99 2.33 3.98 2.66 5 3 C5.33 3.99 5.66 4.98 6 6 C3.00229918 6.77360021 1.52833885 7.11887624 -1.5 6.4375 C-2.7375 6.2209375 -2.7375 6.2209375 -4 6 C-4.33 6.33 -4.66 6.66 -5 7 C-6.68608966 7.07205511 -8.37500659 7.08386068 -10.0625 7.0625 C-10.98160156 7.05347656 -11.90070313 7.04445313 -12.84765625 7.03515625 C-13.55792969 7.02355469 -14.26820313 7.01195312 -15 7 C-15 5.35 -15 3.7 -15 2 C-10.05 2 -5.1 2 0 2 C0 1.34 0 0.68 0 0 Z " fill="#B5A48C" transform="translate(218,298)"/>
<path d="M0 0 C0.66 0 1.32 0 2 0 C2 0.66 2 1.32 2 2 C5.44288812 2.86072203 7.61345839 2.9831895 11 2 C12.32 2 13.64 2 15 2 C15 1.34 15 0.68 15 0 C15.66 0 16.32 0 17 0 C17 1.65 17 3.3 17 5 C17.66 5 18.32 5 19 5 C19 5.66 19 6.32 19 7 C12.33333333 7 5.66666667 7 -1 7 C-1.04254356 5.00045254 -1.04080783 2.99958364 -1 1 C-0.67 0.67 -0.34 0.34 0 0 Z " fill="#C89F8D" transform="translate(322,183)"/>
<path d="M0 0 C0 2.31 0 4.62 0 7 C-5.61 7 -11.22 7 -17 7 C-17.33 7.66 -17.66 8.32 -18 9 C-18 6.69 -18 4.38 -18 2 C-17.35933594 2.02320313 -16.71867188 2.04640625 -16.05859375 2.0703125 C-10.46794946 2.18695784 -5.23551271 0 0 0 Z " fill="#B2A18A" transform="translate(164,309)"/>
<path d="M0 0 C1.86459241 0.23731176 3.72876536 0.47873176 5.58984375 0.7421875 C9.72013124 1.18400107 13.85174773 1.07650465 18 1 C18.33 2.65 18.66 4.3 19 6 C18.67 5.01 18.34 4.02 18 3 C17.34 3 16.68 3 16 3 C16 3.99 16 4.98 16 6 C15.34 6 14.68 6 14 6 C13.67 6.33 13.34 6.66 13 7 C12.401875 6.649375 11.80375 6.29875 11.1875 5.9375 C8.89186786 4.66695302 8.89186786 4.66695302 6 6 C5.67 6.33 5.34 6.66 5 7 C3 7 1 7 -1 7 C-1.04254356 5.00045254 -1.04080783 2.99958364 -1 1 C-0.67 0.67 -0.34 0.34 0 0 Z " fill="#C29B81" transform="translate(220,230)"/>
<path d="M0 0 C0.99 0 1.98 0 3 0 C3.33 0.66 3.66 1.32 4 2 C3.06553465 4.03144641 2.06775224 6.03533587 1 8 C2.32 8 3.64 8 5 8 C5.66 8.66 6.32 9.32 7 10 C9.57061311 10.64767793 9.57061311 10.64767793 12 11 C11.67 12.32 11.34 13.64 11 15 C7.04 15 3.08 15 -1 15 C-1.10662326 9.88208358 -0.71167986 5.07071901 0 0 Z " fill="#BDAB91" transform="translate(180,279)"/>
<path d="M0 0 C1.41750563 0.11509661 2.83401169 0.24253658 4.25 0.375 C5.03890625 0.44460938 5.8278125 0.51421875 6.640625 0.5859375 C9.085877 1.01507113 10.84836903 1.78600638 13 3 C13 4.32 13 5.64 13 7 C8.71 7 4.42 7 0 7 C0 4.69 0 2.38 0 0 Z " fill="#BAA98F" transform="translate(226,298)"/>
<path d="M0 0 C5.61 0 11.22 0 17 0 C17 0.66 17 1.32 17 2 C17.66 1.34 18.32 0.68 19 0 C19 1.32 19 2.64 19 4 C17.68 4.33 16.36 4.66 15 5 C14.67 4.01 14.34 3.02 14 2 C13.67 2.99 13.34 3.98 13 5 C12.34 4.67 11.68 4.34 11 4 C10.01 4.495 10.01 4.495 9 5 C6.3276379 5.13415472 3.67749512 5.04318541 1 5 C0.67 5.66 0.34 6.32 0 7 C0 4.69 0 2.38 0 0 Z " fill="#C29885" transform="translate(317,174)"/>
<path d="M0 0 C0.66 0.165 1.32 0.33 2 0.5 C5.73099794 1.12183299 9.21873378 1.06408926 13 1 C13 1.99 13 2.98 13 4 C13.33 3.01 13.66 2.02 14 1 C14.99 1 15.98 1 17 1 C17 2.65 17 4.3 17 6 C12.38 6 7.76 6 3 6 C2.67 5.01 2.34 4.02 2 3 C1.34 3.99 0.68 4.98 0 6 C0 4.02 0 2.04 0 0 Z " fill="#BBA990" transform="translate(146,288)"/>
<path d="M0 0 C0.66 0 1.32 0 2 0 C2 0.66 2 1.32 2 2 C2.99 2 3.98 2 5 2 C6 2 6 2 8 2.5625 C8.66 2.706875 9.32 2.85125 10 3 C10.33 2.67 10.66 2.34 11 2 C11.61875 2.165 12.2375 2.33 12.875 2.5 C15.16786836 3.23577017 15.16786836 3.23577017 18 2 C18 3.65 18 5.3 18 7 C13.38 7 8.76 7 4 7 C4 5.68 4 4.36 4 3 C3.34 3 2.68 3 2 3 C2 4.32 2 5.64 2 7 C1.34 7 0.68 7 0 7 C0 4.69 0 2.38 0 0 Z " fill="#BE967C" transform="translate(230,219)"/>
<path d="M0 0 C3.75561867 0.32657554 6.73602552 1.1169378 10 3 C9.67 4.65 9.34 6.3 9 8 C5.77018017 8 3.96174371 7.18469748 1 6 C0.01 6 -0.98 6 -2 6 C-2 2 -2 2 0 0 Z " fill="#FED8B1" transform="translate(390,337)"/>
<path d="M0 0 C0.66 0 1.32 0 2 0 C2 2.31 2 4.62 2 7 C-3 7 -8 7 -13 7 C-13 5.68 -13 4.36 -13 3 C-13.66 3 -14.32 3 -15 3 C-15.33 3.99 -15.66 4.98 -16 6 C-16 4.68 -16 3.36 -16 2 C-11 2 -6 2 -1 2 C-0.67 1.34 -0.34 0.68 0 0 Z " fill="#B98F78" transform="translate(235,241)"/>
<path d="M0 0 C0.66 0 1.32 0 2 0 C2 1.98 2 3.96 2 6 C-1.15506142 6.93619813 -3.96586502 7.1057123 -7.25 7.0625 C-8.14203125 7.05347656 -9.0340625 7.04445312 -9.953125 7.03515625 C-10.62859375 7.02355469 -11.3040625 7.01195312 -12 7 C-12.33 5.68 -12.66 4.36 -13 3 C-10.00519083 2.1276588 -7.36424089 1.89170234 -4.25 1.9375 C-3.45078125 1.94652344 -2.6515625 1.95554688 -1.828125 1.96484375 C-1.22484375 1.97644531 -0.6215625 1.98804688 0 2 C0 1.34 0 0.68 0 0 Z " fill="#CBA78B" transform="translate(226,219)"/>
<path d="M0 0 C1.79244141 0.01740234 1.79244141 0.01740234 3.62109375 0.03515625 C5.41740234 0.04869141 5.41740234 0.04869141 7.25 0.0625 C8.17683594 0.07410156 9.10367187 0.08570313 10.05859375 0.09765625 C10.38859375 1.41765625 10.71859375 2.73765625 11.05859375 4.09765625 C10.06859375 4.42765625 9.07859375 4.75765625 8.05859375 5.09765625 C8.05859375 5.75765625 8.05859375 6.41765625 8.05859375 7.09765625 C7.39859375 7.09765625 6.73859375 7.09765625 6.05859375 7.09765625 C6.05859375 6.43765625 6.05859375 5.77765625 6.05859375 5.09765625 C3.08859375 5.09765625 0.11859375 5.09765625 -2.94140625 5.09765625 C-3.27140625 3.77765625 -3.60140625 2.45765625 -3.94140625 1.09765625 C-2.94140625 0.09765625 -2.94140625 0.09765625 0 0 Z " fill="#C59C89" transform="translate(344.94140625,162.90234375)"/>
<path d="M0 0 C0.66 0 1.32 0 2 0 C2 0.66 2 1.32 2 2 C3.423125 1.9690625 3.423125 1.9690625 4.875 1.9375 C8 2 8 2 10 3 C12.00800456 2.71887936 14.01014051 2.38932033 16 2 C16.33 3.65 16.66 5.3 17 7 C16.67 6.01 16.34 5.02 16 4 C15.34 4 14.68 4 14 4 C13.67 4.99 13.34 5.98 13 7 C13 6.01 13 5.02 13 4 C12.34 4 11.68 4 11 4 C10.67 4.99 10.34 5.98 10 7 C7.9375 7.6875 7.9375 7.6875 6 8 C5.67 6.68 5.34 5.36 5 4 C4.34 4 3.68 4 3 4 C3 4.99 3 5.98 3 7 C1.68 7 0.36 7 -1 7 C-1.04254356 5.00045254 -1.04080783 2.99958364 -1 1 C-0.67 0.67 -0.34 0.34 0 0 Z " fill="#BF957F" transform="translate(301,229)"/>
<path d="M0 0 C0.9590625 0.2784375 0.9590625 0.2784375 1.9375 0.5625 C2.9584375 0.7790625 2.9584375 0.7790625 4 1 C4.33 0.67 4.66 0.34 5 0 C6.51928038 -0.07179964 8.04167482 -0.08392007 9.5625 -0.0625 C10.38878906 -0.05347656 11.21507812 -0.04445312 12.06640625 -0.03515625 C12.70449219 -0.02355469 13.34257812 -0.01195312 14 0 C14 1.65 14 3.3 14 5 C13.01 5.33 12.02 5.66 11 6 C10.67 5.01 10.34 4.02 10 3 C9.34 3.66 8.68 4.32 8 5 C8 4.01 8 3.02 8 2 C7.01 2 6.02 2 5 2 C5 2.66 5 3.32 5 4 C5.66 4 6.32 4 7 4 C7 4.66 7 5.32 7 6 C3.88742431 6 1.89234315 5.82638376 -1 5 C-0.67 3.35 -0.34 1.7 0 0 Z " fill="#C19A82" transform="translate(283,231)"/>
<path d="M0 0 C4.62 0 9.24 0 14 0 C14 2.31 14 4.62 14 7 C12.68 7 11.36 7 10 7 C10.33 5.35 10.66 3.7 11 2 C10.34 2.66 9.68 3.32 9 4 C5.97380078 5.04351697 3.18208557 5.08839127 0 5 C0 3.35 0 1.7 0 0 Z " fill="#BD8F7F" transform="translate(351,174)"/>
<path d="M0 0 C3.875 1.875 3.875 1.875 5 3 C5.33 2.34 5.66 1.68 6 1 C6.99 1.33 7.98 1.66 9 2 C9 3.65 9 5.3 9 7 C5.04 7 1.08 7 -3 7 C-3.33 5.35 -3.66 3.7 -4 2 C-3.01 2.33 -2.02 2.66 -1 3 C-1.66 3 -2.32 3 -3 3 C-3 3.66 -3 4.32 -3 5 C-2.01 5 -1.02 5 0 5 C0 3.35 0 1.7 0 0 Z " fill="#958A76" transform="translate(243,210)"/>
<path d="M0 0 C0.66 0 1.32 0 2 0 C2 0.66 2 1.32 2 2 C4.64 2 7.28 2 10 2 C10.33 1.34 10.66 0.68 11 0 C11 2.31 11 4.62 11 7 C7.37 7 3.74 7 0 7 C0 4.69 0 2.38 0 0 Z " fill="#CBA492" transform="translate(309,161)"/>
<path d="M0 0 C4.29 0 8.58 0 13 0 C13 1.65 13 3.3 13 5 C9.04 5 5.08 5 1 5 C0.67 3.35 0.34 1.7 0 0 Z " fill="#A99886" transform="translate(166,300)"/>
<path d="M0 0 C1.65322266 0.01740234 1.65322266 0.01740234 3.33984375 0.03515625 C4.99693359 0.04869141 4.99693359 0.04869141 6.6875 0.0625 C7.54214844 0.07410156 8.39679688 0.08570313 9.27734375 0.09765625 C9.27734375 1.76432292 9.27734375 3.43098958 9.27734375 5.09765625 C8.69984375 4.91203125 8.12234375 4.72640625 7.52734375 4.53515625 C4.99629268 4.04300743 3.74285936 4.44501977 1.27734375 5.09765625 C-0.72228653 5.13611068 -2.72317258 5.14309906 -4.72265625 5.09765625 C-3.60073576 0.12915121 -3.60073576 0.12915121 0 0 Z " fill="#C09780" transform="translate(287.72265625,220.90234375)"/>
<path d="M0 0 C0.98871094 -0.01417969 1.97742188 -0.02835938 2.99609375 -0.04296875 C5.5625 0.1875 5.5625 0.1875 7.5625 2.1875 C7.5625 3.1775 7.5625 4.1675 7.5625 5.1875 C5.89638095 5.230221 4.22867115 5.22813832 2.5625 5.1875 C2.2325 4.8575 1.9025 4.5275 1.5625 4.1875 C1.2325 4.5175 0.9025 4.8475 0.5625 5.1875 C-1.43708364 5.22830783 -3.43795254 5.23004356 -5.4375 5.1875 C-6 3.25 -6 3.25 -6.4375 1.1875 C-4.69900372 -0.55099628 -2.3588363 0.01533704 0 0 Z " fill="#83796C" transform="translate(329.4375,153.8125)"/>
<path d="M0 0 C0 1.66666667 0 3.33333333 0 5 C-4 5 -8 5 -12 5 C-12 3.35 -12 1.7 -12 0 C-7.6835078 -0.76173392 -4.25566547 -1.16063604 0 0 Z " fill="#BAA990" transform="translate(176,289)"/>
<path d="M0 0 C4.33333333 0 8.66666667 0 13 0 C13 1.65 13 3.3 13 5 C12.67 4.01 12.34 3.02 12 2 C11.01 2 10.02 2 9 2 C9 2.66 9 3.32 9 4 C9.66 4 10.32 4 11 4 C11 4.66 11 5.32 11 6 C8.33333333 6 5.66666667 6 3 6 C3 5.01 3 4.02 3 3 C2.34 2.67 1.68 2.34 1 2 C0.67 2.99 0.34 3.98 0 5 C0 3.35 0 1.7 0 0 Z " fill="#786E63" transform="translate(253,211)"/>
<path d="M0 0 C0.66 -0.33 1.32 -0.66 2 -1 C2 0.98 2 2.96 2 5 C0.68 4.67 -0.64 4.34 -2 4 C-2.33 4.66 -2.66 5.32 -3 6 C-3.99 5.34 -4.98 4.68 -6 4 C-7.32 4 -8.64 4 -10 4 C-10.33 3.01 -10.66 2.02 -11 1 C-6.80323746 -0.65918519 -4.36209734 -1.09052433 0 0 Z " fill="#FDE6D2" transform="translate(398,191)"/>
<path d="M0 0 C0.66 0 1.32 0 2 0 C2 0.66 2 1.32 2 2 C3.32 1.67 4.64 1.34 6 1 C6 2.98 6 4.96 6 7 C2.7 7 -0.6 7 -4 7 C-4 5.33333333 -4 3.66666667 -4 2 C-2.68 2 -1.36 2 0 2 C0 1.34 0 0.68 0 0 Z " fill="#BDAC90" transform="translate(195,309)"/>
<path d="M0 0 C0.99 0.33 1.98 0.66 3 1 C3.33 1 3.66 1 4 1 C4 0.67 4 0.34 4 0 C6.31 0 8.62 0 11 0 C11 1.65 11 3.3 11 5 C7.04 5 3.08 5 -1 5 C-0.67 3.35 -0.34 1.7 0 0 Z " fill="#6B6559" transform="translate(153,269)"/>
<path d="M0 0 C1.32 0 2.64 0 4 0 C4 0.66 4 1.32 4 2 C4.99 2 5.98 2 7 2 C7 1.34 7 0.68 7 0 C7.66 0 8.32 0 9 0 C9.33 0.66 9.66 1.32 10 2 C12.02463255 2.65213292 12.02463255 2.65213292 14 3 C13.67 4.32 13.34 5.64 13 7 C9.7 7 6.4 7 3 7 C3.33 6.34 3.66 5.68 4 5 C4.11602431 3.64082319 4.11602431 3.64082319 2 1.9375 C1.34 1.298125 0.68 0.65875 0 0 Z " fill="#C19785" transform="translate(335,172)"/>
<path d="M0 0 C1 3 1 3 -0.109375 5.8828125 C-0.65078125 6.95273438 -1.1921875 8.02265625 -1.75 9.125 C-2.28109375 10.20007813 -2.8121875 11.27515625 -3.359375 12.3828125 C-5 15 -5 15 -8 16 C-7.55862804 10.26216456 -5.17947381 5.70482884 -2 1 C-1.34 0.67 -0.68 0.34 0 0 Z " fill="#FEF6EF" transform="translate(199,97)"/>
<path d="M0 0 C3.3 0.33 6.6 0.66 10 1 C10 1.99 10 2.98 10 4 C8.25 5.75 8.25 5.75 6 7 C3.75 6.6875 3.75 6.6875 2 6 C1.67 6.66 1.34 7.32 1 8 C1 7.34 1 6.68 1 6 C0.34 5.67 -0.32 5.34 -1 5 C0.32 5 1.64 5 3 5 C2.34 4.34 1.68 3.68 1 3 C0.67 2.01 0.34 1.02 0 0 Z " fill="#FFDDB5" transform="translate(351,310)"/>
<path d="M0 0 C3.49234244 -0.09978121 6.59437148 0.22157062 10 1 C10 2.32 10 3.64 10 5 C5.58937864 6.0257259 3.07369424 6.03684712 -1 4 C-0.67 2.68 -0.34 1.36 0 0 Z " fill="#B3A18B" transform="translate(205,289)"/>
<path d="M0 0 C1.32 0 2.64 0 4 0 C4.33 0.66 4.66 1.32 5 2 C5.99 1.34 6.98 0.68 8 0 C10.1875 0.375 10.1875 0.375 12 1 C11.01 1 10.02 1 9 1 C8.8453125 2.175625 8.8453125 2.175625 8.6875 3.375 C8 6 8 6 5 8 C4.34 7.67 3.68 7.34 3 7 C3 6.01 3 5.02 3 4 C2.01 3.67 1.02 3.34 0 3 C0 2.01 0 1.02 0 0 Z " fill="#F89590" transform="translate(137,157)"/>
<path d="M0 0 C0.66 0 1.32 0 2 0 C3.03572896 1.74122549 4.0531252 3.49336595 5.0625 5.25 C5.63097656 6.22453125 6.19945312 7.1990625 6.78515625 8.203125 C8 11 8 11 7.68359375 13.359375 C7.45800781 13.90078125 7.23242188 14.4421875 7 15 C4.53282476 12.7360039 2.89865861 10.40939756 1.25 7.5 C0.80140625 6.7265625 0.3528125 5.953125 -0.109375 5.15625 C-1 3 -1 3 0 0 Z " fill="#FEF0E5" transform="translate(205,98)"/>
<path d="M0 0 C2.31 0.33 4.62 0.66 7 1 C7 1.99 7 2.98 7 4 C6.01 4.33 5.02 4.66 4 5 C3.34 5.66 2.68 6.32 2 7 C-0.625 6.625 -0.625 6.625 -3 6 C-2.67 4.68 -2.34 3.36 -2 2 C-1.34 2 -0.68 2 0 2 C0 1.34 0 0.68 0 0 Z " fill="#FFDDB5" transform="translate(357,317)"/>
<path d="M0 0 C0.33 0.66 0.66 1.32 1 2 C2.175625 2.4640625 2.175625 2.4640625 3.375 2.9375 C5.99812099 3.99923945 7.39430522 4.68066309 9 7 C8.6875 9.1875 8.6875 9.1875 8 11 C4.19986075 9.50708815 2.25081784 7.37622677 0 4 C0 2.68 0 1.36 0 0 Z " fill="#F7ECF8" transform="translate(79,216)"/>
<path d="M0 0 C0.7425 0.350625 1.485 0.70125 2.25 1.0625 C5.1322726 2.04509293 6.21176345 2.0326802 9 1 C9 2.65 9 4.3 9 6 C6.03 6 3.06 6 0 6 C0 4.02 0 2.04 0 0 Z " fill="#B19F8A" transform="translate(194,288)"/>
<path d="M0 0 C0.66 0 1.32 0 2 0 C2 0.66 2 1.32 2 2 C2.99 2.33 3.98 2.66 5 3 C5 4.32 5 5.64 5 7 C2.69 7 0.38 7 -2 7 C-2.33 5.68 -2.66 4.36 -3 3 C-2.01 2.67 -1.02 2.34 0 2 C0 1.34 0 0.68 0 0 Z " fill="#D0AF91" transform="translate(255,219)"/>
<path d="M0 0 C0.33 0 0.66 0 1 0 C1 2.31 1 4.62 1 7 C-1.64 7 -4.28 7 -7 7 C-7.33 5.68 -7.66 4.36 -8 3 C-5.23735711 2.40267181 -2.83967231 2 0 2 C0 1.34 0 0.68 0 0 Z " fill="#C49A87" transform="translate(303,172)"/>
<path d="M0 0 C0.66 0 1.32 0 2 0 C2 0.66 2 1.32 2 2 C3.98 2 5.96 2 8 2 C7.67 3.32 7.34 4.64 7 6 C7 5.01 7 4.02 7 3 C6.01 3 5.02 3 4 3 C4 4.32 4 5.64 4 7 C1.69 7 -0.62 7 -3 7 C-3.33 5.68 -3.66 4.36 -4 3 C-3.01 3.33 -2.02 3.66 -1 4 C-0.67 2.68 -0.34 1.36 0 0 Z " fill="#C8B697" transform="translate(234,287)"/>
<path d="M0 0 C0.598125 0.185625 1.19625 0.37125 1.8125 0.5625 C4.16408762 1.22093687 4.16408762 1.22093687 7 0 C7 1.98 7 3.96 7 6 C4.69 6.33 2.38 6.66 0 7 C0 4.69 0 2.38 0 0 Z " fill="#C0AF93" transform="translate(217,277)"/>
<path d="M0 0 C-0.33 1.32 -0.66 2.64 -1 4 C-1 3.01 -1 2.02 -1 1 C-1.66 1 -2.32 1 -3 1 C-3 1.99 -3 2.98 -3 4 C-6.3 4 -9.6 4 -13 4 C-12.34 3.67 -11.68 3.34 -11 3 C-10.67 2.01 -10.34 1.02 -10 0 C-6.58920093 -1.70539953 -3.5034716 -1.00099189 0 0 Z " fill="#827969" transform="translate(226,270)"/>
<path d="M0 0 C4.29 0 8.58 0 13 0 C8.3 4.7 8.3 4.7 5 5 C2.25 4.5625 2.25 4.5625 0 4 C0 2.68 0 1.36 0 0 Z " fill="#A89685" transform="translate(202,311)"/>
<path d="M0 0 C0.66 0 1.32 0 2 0 C2 2.31 2 4.62 2 7 C-0.97 7 -3.94 7 -7 7 C-7.33 5.68 -7.66 4.36 -8 3 C-7.01 3 -6.02 3 -5 3 C-5.33 3.99 -5.66 4.98 -6 6 C-5.34 6 -4.68 6 -4 6 C-3.67 4.68 -3.34 3.36 -3 2 C-2.01 2 -1.02 2 0 2 C0 1.34 0 0.68 0 0 Z " fill="#B09F89" transform="translate(188,298)"/>
<path d="M0 0 C0.66 0 1.32 0 2 0 C1.67 0.66 1.34 1.32 1 2 C0.67 1.34 0.34 0.68 0 0 Z M-1 1 C-0.67 1.66 -0.34 2.32 0 3 C0.66 3.33 1.32 3.66 2 4 C-2.95 5.98 -7.9 7.96 -13 10 C-11.12244138 6.24488276 -10.37972575 5.11232859 -7 3 C-5 3 -3 3 -1 3 C-1 2.34 -1 1.68 -1 1 Z " fill="#F3E6CA" transform="translate(27,215)"/>
<path d="M0 0 C1.11375 0.2475 1.11375 0.2475 2.25 0.5 C5.19006578 1.11925696 5.19006578 1.11925696 9 1 C9 2.32 9 3.64 9 5 C6.36 5 3.72 5 1 5 C0.67 5.66 0.34 6.32 0 7 C0 4.69 0 2.38 0 0 Z " fill="#C29886" transform="translate(289,163)"/>
<path d="M0 0 C0.9075 0.33 1.815 0.66 2.75 1 C6.07045807 2.19605723 6.07045807 2.19605723 10 2 C9.67 3.32 9.34 4.64 9 6 C6.03 6 3.06 6 0 6 C0 4.02 0 2.04 0 0 Z " fill="#C19685" transform="translate(377,162)"/>
<path d="M0 0 C2.31 0.66 4.62 1.32 7 2 C7 3.32 7 4.64 7 6 C2.545 6.495 2.545 6.495 -2 7 C-1.34 4.69 -0.68 2.38 0 0 Z " fill="#D2C09D" transform="translate(208,277)"/>
<path d="M0 0 C-0.33 1.32 -0.66 2.64 -1 4 C-1 3.01 -1 2.02 -1 1 C-1.66 1 -2.32 1 -3 1 C-3 1.99 -3 2.98 -3 4 C-8.75 5.125 -8.75 5.125 -11 4 C-10.625 2.0625 -10.625 2.0625 -10 0 C-6.7169902 -1.6415049 -3.57454967 -0.51888624 0 0 Z " fill="#8A7E70" transform="translate(301,212)"/>
<path d="M0 0 C0.99 0.33 1.98 0.66 3 1 C3.33 0.67 3.66 0.34 4 0 C4.99 0.33 5.98 0.66 7 1 C7 2.65 7 4.3 7 6 C5.6078125 5.7215625 5.6078125 5.7215625 4.1875 5.4375 C0.98656229 4.75876119 0.98656229 4.75876119 -2 6 C-2 4.35 -2 2.7 -2 1 C-1.34 0.67 -0.68 0.34 0 0 Z " fill="#B8A78F" transform="translate(172,278)"/>
<path d="M0 0 C3.3 0 6.6 0 10 0 C10 1.66666667 10 3.33333333 10 5 C7 4 7 4 5 2 C5 2.99 5 3.98 5 5 C4.34 5 3.68 5 3 5 C2.67 4.67 2.34 4.34 2 4 C1.01 4.33 0.02 4.66 -1 5 C-0.67 3.35 -0.34 1.7 0 0 Z " fill="#BC937A" transform="translate(228,253)"/>
<path d="M0 0 C2.31 0.33 4.62 0.66 7 1 C7 2.32 7 3.64 7 5 C6 6 6 6 3.5 6.125 C1 6 1 6 0 5 C-0.04063832 3.33382885 -0.042721 1.66611905 0 0 Z " fill="#CAA58A" transform="translate(298,242)"/>
<path d="M0 0 C2.64 0 5.28 0 8 0 C8.33 1.65 8.66 3.3 9 5 C6.03 5 3.06 5 0 5 C0 3.33333333 0 1.66666667 0 0 Z " fill="#BF967F" transform="translate(268,221)"/>
<path d="M0 0 C1.32 0.33 2.64 0.66 4 1 C2.64696511 5.05910468 0.65563269 5.9213069 -3 8 C-4.32 8 -5.64 8 -7 8 C-7 7.01 -7 6.02 -7 5 C-6.34 5 -5.68 5 -5 5 C-4.67 4.34 -4.34 3.68 -4 3 C-3.34 3 -2.68 3 -2 3 C-1.34 2.01 -0.68 1.02 0 0 Z " fill="#FFF5AC" transform="translate(130,354)"/>
<path d="M0 0 C0.125 6.75 0.125 6.75 -1 9 C-1.66 9 -2.32 9 -3 9 C-3 8.34 -3 7.68 -3 7 C-4.32 7.33 -5.64 7.66 -7 8 C-6.8125 5.6875 -6.8125 5.6875 -6 3 C-1.86206897 0 -1.86206897 0 0 0 Z M-3 5 C-2 7 -2 7 -2 7 Z " fill="#FDD6AE" transform="translate(400,352)"/>
<path d="M0 0 C1.98 0 3.96 0 6 0 C6 2.31 6 4.62 6 7 C4.02 7 2.04 7 0 7 C0 4.69 0 2.38 0 0 Z " fill="#C6B597" transform="translate(226,298)"/>
<path d="M0 0 C0.66 0 1.32 0 2 0 C2.33 0.66 2.66 1.32 3 2 C3.99 2 4.98 2 6 2 C6 3.65 6 5.3 6 7 C4.02 7 2.04 7 0 7 C-0.33 6.01 -0.66 5.02 -1 4 C-1.66 4.99 -2.32 5.98 -3 7 C-3 5.35 -3 3.7 -3 2 C-2.01 2 -1.02 2 0 2 C0 1.34 0 0.68 0 0 Z " fill="#B09F8A" transform="translate(219,287)"/>
<path d="M0 0 C0 1.98 0 3.96 0 6 C-0.763125 5.814375 -1.52625 5.62875 -2.3125 5.4375 C-5.08967375 4.77180827 -5.08967375 4.77180827 -8 6 C-8 4.35 -8 2.7 -8 1 C-1.125 0 -1.125 0 0 0 Z " fill="#7C7465" transform="translate(173,268)"/>
<path d="M0 0 C0.33 0.99 0.66 1.98 1 3 C1.66 3.33 2.32 3.66 3 4 C3.34342449 5.33076989 3.67619874 6.66431979 4 8 C4.66 8.66 5.32 9.32 6 10 C5.4225 9.835 4.845 9.67 4.25 9.5 C0.60994097 8.69109799 -2.47291292 8.99226083 -6 10 C-5.505 9.5875 -5.01 9.175 -4.5 8.75 C-2.56613908 6.87797662 -2.56613908 6.87797662 -3 3 C-2.34 3 -1.68 3 -1 3 C-0.67 2.01 -0.34 1.02 0 0 Z " fill="#FDE6E1" transform="translate(139,161)"/>
<path d="M0 0 C1.134375 0.020625 2.26875 0.04125 3.4375 0.0625 C0.6875 5.9375 0.6875 5.9375 -1.5625 7.0625 C-1.5625 6.4025 -1.5625 5.7425 -1.5625 5.0625 C-2.2225 5.0625 -2.8825 5.0625 -3.5625 5.0625 C-3.8925 5.7225 -4.2225 6.3825 -4.5625 7.0625 C-4.60504356 5.06295254 -4.60330783 3.06208364 -4.5625 1.0625 C-3.5625 0.0625 -3.5625 0.0625 0 0 Z " fill="#C39886" transform="translate(337.5625,162.9375)"/>
<path d="M0 0 C1.79240663 0.11389875 3.58394835 0.24147687 5.375 0.375 C6.87160156 0.47941406 6.87160156 0.47941406 8.3984375 0.5859375 C11 1 11 1 13 3 C10.65887549 4.44977894 9.4203071 5.04314411 6.640625 4.7578125 C5.45726562 4.44457031 5.45726562 4.44457031 4.25 4.125 C3.45078125 3.92132813 2.6515625 3.71765625 1.828125 3.5078125 C1.22484375 3.34023437 0.6215625 3.17265625 0 3 C0 2.01 0 1.02 0 0 Z " fill="#FDE6D1" transform="translate(375,188)"/>
<path d="M0 0 C2.64 0 5.28 0 8 0 C8 1.65 8 3.3 8 5 C5.69 5 3.38 5 1 5 C0.67 3.35 0.34 1.7 0 0 Z " fill="#8E8476" transform="translate(286,154)"/>
<path d="M0 0 C0.66 0.66 1.32 1.32 2 2 C3.34061543 1.69728039 4.67405895 1.36162029 6 1 C6.99 1.33 7.98 1.66 9 2 C8.67 3.32 8.34 4.64 8 6 C5.36 6 2.72 6 0 6 C0 4.02 0 2.04 0 0 Z " fill="#A99885" transform="translate(183,288)"/>
<path d="M0 0 C0.66 0 1.32 0 2 0 C2 0.66 2 1.32 2 2 C3.32 1.67 4.64 1.34 6 1 C6 2.98 6 4.96 6 7 C4.02 7 2.04 7 0 7 C0 4.69 0 2.38 0 0 Z " fill="#908671" transform="translate(176,267)"/>
<path d="M0 0 C0.33 0.66 0.66 1.32 1 2 C2.97080157 2.74276031 2.97080157 2.74276031 5 3 C5.33 2.67 5.66 2.34 6 2 C6.99 2 7.98 2 9 2 C9 3.65 9 5.3 9 7 C7.02 7 5.04 7 3 7 C2.67 6.01 2.34 5.02 2 4 C1.34 4.99 0.68 5.98 0 7 C0 4.69 0 2.38 0 0 Z " fill="#A59383" transform="translate(193,298)"/>
<path d="M0 0 C0.66 0 1.32 0 2 0 C2 0.66 2 1.32 2 2 C2.66 2.33 3.32 2.66 4 3 C3.34 3 2.68 3 2 3 C2 4.32 2 5.64 2 7 C0.35 7 -1.3 7 -3 7 C-3.33 5.68 -3.66 4.36 -4 3 C-2.68 2.67 -1.36 2.34 0 2 C0 1.34 0 0.68 0 0 Z " fill="#BCAC91" transform="translate(160,298)"/>
<path d="M0 0 C0.99 0 1.98 0 3 0 C3 1.65 3 3.3 3 5 C-0.96 5 -4.92 5 -9 5 C-8.67 4.01 -8.34 3.02 -8 2 C-7.01 1.67 -6.02 1.34 -5 1 C-4.34 1.66 -3.68 2.32 -3 3 C-2.34 3 -1.68 3 -1 3 C-0.67 2.01 -0.34 1.02 0 0 Z " fill="#A79684" transform="translate(160,289)"/>
<path d="M0 0 C2.625 0.9375 2.625 0.9375 5 2 C4.67 3.32 4.34 4.64 4 6 C4 5.01 4 4.02 4 3 C3.34 3 2.68 3 2 3 C2 4.32 2 5.64 2 7 C0.68 6.67 -0.64 6.34 -2 6 C-2 4.35 -2 2.7 -2 1 C-1.34 0.67 -0.68 0.34 0 0 Z " fill="#CBA78A" transform="translate(267,241)"/>
<path d="M0 0 C0 1.98 0 3.96 0 6 C-0.66 5.67 -1.32 5.34 -2 5 C-1.67 4.34 -1.34 3.68 -1 3 C-1.66 3 -2.32 3 -3 3 C-3 3.99 -3 4.98 -3 6 C-4.65 6.33 -6.3 6.66 -8 7 C-8 5.35 -8 3.7 -8 2 C-2.25 0 -2.25 0 0 0 Z " fill="#817769" transform="translate(236,210)"/>
<path d="M0 0 C2.46278801 1.231394 3.42497687 2.78064923 5 5 C4.67 5.66 4.34 6.32 4 7 C2 7 0 7 -2 7 C-2 5.02 -2 3.04 -2 1 C-1.34 0.67 -0.68 0.34 0 0 Z " fill="#CAA38F" transform="translate(373,172)"/>
<path d="M0 0 C0.66 0.33 1.32 0.66 2 1 C1.01 2.485 1.01 2.485 0 4 C2.31 4.33 4.62 4.66 7 5 C5 7 5 7 2.625 7.3125 C-0.42714016 6.94914998 -1.73262056 6.01544839 -4 4 C-3 2 -3 2 0 0 Z " fill="#FFE3B4" transform="translate(302,298)"/>
<path d="M0 0 C0.99 0 1.98 0 3 0 C3 1.98 3 3.96 3 6 C0.69 6 -1.62 6 -4 6 C-3.67 4.35 -3.34 2.7 -3 1 C-2.34 1.33 -1.68 1.66 -1 2 C-0.67 1.34 -0.34 0.68 0 0 Z " fill="#84796B" transform="translate(224,211)"/>
<path d="M0 0 C1.65 0 3.3 0 5 0 C4.67 2.31 4.34 4.62 4 7 C1.36 7 -1.28 7 -4 7 C-2.68 6.67 -1.36 6.34 0 6 C0 4.02 0 2.04 0 0 Z " fill="#C39886" transform="translate(277,183)"/>
<path d="M0 0 C0.66 0 1.32 0 2 0 C2.33 0.66 2.66 1.32 3 2 C4.65 1.67 6.3 1.34 8 1 C8 2.65 8 4.3 8 6 C7.34 5.01 6.68 4.02 6 3 C5.67 3.99 5.34 4.98 5 6 C4.01 6 3.02 6 2 6 C2 5.34 2 4.68 2 4 C1.34 4 0.68 4 0 4 C0 4.66 0 5.32 0 6 C-0.66 5.67 -1.32 5.34 -2 5 C-1.34 3.35 -0.68 1.7 0 0 Z " fill="#B98D7A" transform="translate(273,162)"/>
<path d="M0 0 C2.625 0.9375 2.625 0.9375 5 2 C5 3.32 5 4.64 5 6 C2.69 6 0.38 6 -2 6 C-2 4.35 -2 2.7 -2 1 C-1.34 0.67 -0.68 0.34 0 0 Z " fill="#C0987F" transform="translate(264,230)"/>
<path d="M0 0 C2.97 0.495 2.97 0.495 6 1 C6 2.65 6 4.3 6 6 C4.02 6 2.04 6 0 6 C0 4.02 0 2.04 0 0 Z " fill="#C9A38E" transform="translate(291,184)"/>
<path d="M0 0 C2.31 0 4.62 0 7 0 C7 1.65 7 3.3 7 5 C4.69 5 2.38 5 0 5 C0 3.33333333 0 1.66666667 0 0 Z " fill="#877D70" transform="translate(315,154)"/>
<path d="M0 0 C2 0 2 0 3.625 1.3125 C5 3 5 3 5 6 C3.02 6.33 1.04 6.66 -1 7 C-1.04254356 5.00045254 -1.04080783 2.99958364 -1 1 C-0.67 0.67 -0.34 0.34 0 0 Z " fill="#D2AD98" transform="translate(322,183)"/>
<path d="M0 0 C1.32 0 2.64 0 4 0 C4 1.65 4 3.3 4 5 C2.35 5.33 0.7 5.66 -1 6 C-1 5.34 -1 4.68 -1 4 C-1.66 3.67 -2.32 3.34 -3 3 C-2.34 3 -1.68 3 -1 3 C-0.67 2.01 -0.34 1.02 0 0 Z " fill="#AEA091" transform="translate(348,154)"/>
<path d="M0 0 C0.66 0 1.32 0 2 0 C2 0.66 2 1.32 2 2 C2.99 2.33 3.98 2.66 5 3 C5.33 3.99 5.66 4.98 6 6 C1.49090909 7.16363636 1.49090909 7.16363636 -2 6 C-1.34 6 -0.68 6 0 6 C0 5.01 0 4.02 0 3 C-0.66 2.67 -1.32 2.34 -2 2 C-1.34 2 -0.68 2 0 2 C0 1.34 0 0.68 0 0 Z " fill="#A99685" transform="translate(218,298)"/>
<path d="M0 0 C5.75 -0.125 5.75 -0.125 8 1 C8 1.99 8 2.98 8 4 C5.36 4.33 2.72 4.66 0 5 C0 3.35 0 1.7 0 0 Z " fill="#CAB898" transform="translate(210,300)"/>
<path d="M0 0 C1.98 0.66 3.96 1.32 6 2 C6 2.66 6 3.32 6 4 C4.02 4.66 2.04 5.32 0 6 C-0.66 4.68 -1.32 3.36 -2 2 C-1.34 1.34 -0.68 0.68 0 0 Z " fill="#C9B899" transform="translate(188,278)"/>
<path d="M0 0 C0.66 0 1.32 0 2 0 C2.33 1.32 2.66 2.64 3 4 C2.360625 4.28875 1.72125 4.5775 1.0625 4.875 C-1.15206079 5.82823451 -1.15206079 5.82823451 -2 8 C-3.5 6.625 -3.5 6.625 -5 5 C-5 4.34 -5 3.68 -5 3 C-3.35 3 -1.7 3 0 3 C0 2.01 0 1.02 0 0 Z " fill="#F4E3B3" transform="translate(223,271)"/>
<path d="M0 0 C-0.33 1.32 -0.66 2.64 -1 4 C-1 3.01 -1 2.02 -1 1 C-1.66 1 -2.32 1 -3 1 C-3 1.99 -3 2.98 -3 4 C-3.66 4 -4.32 4 -5 4 C-5.33 4.33 -5.66 4.66 -6 5 C-6.99 4.67 -7.98 4.34 -9 4 C-9 3.01 -9 2.02 -9 1 C-3.375 -1.125 -3.375 -1.125 0 0 Z " fill="#B88D76" transform="translate(239,232)"/>
<path d="M0 0 C0.66 0.33 1.32 0.66 2 1 C0.68 1.99 -0.64 2.98 -2 4 C-2.66 3.67 -3.32 3.34 -4 3 C-4.33 3.66 -4.66 4.32 -5 5 C-6.97522846 6.04808041 -8.97481509 7.0520411 -11 8 C-11.33 7.01 -11.66 6.02 -12 5 C-10.04578965 4.13644222 -8.08648653 3.28440066 -6.125 2.4375 C-5.03445312 1.96183594 -3.94390625 1.48617187 -2.8203125 0.99609375 C-1.88960937 0.66738281 -0.95890625 0.33867188 0 0 Z " fill="#FE8B3B" transform="translate(189,88)"/>
<path d="M0 0 C1.65 0 3.3 0 5 0 C5.33 1.65 5.66 3.3 6 5 C4.35 5 2.7 5 1 5 C0.67 3.35 0.34 1.7 0 0 Z " fill="#B7A68E" transform="translate(166,300)"/>
<path d="M0 0 C1.134375 0.020625 2.26875 0.04125 3.4375 0.0625 C2.4475 0.5575 2.4475 0.5575 1.4375 1.0625 C1.4375 2.0525 1.4375 3.0425 1.4375 4.0625 C2.0975 4.3925 2.7575 4.7225 3.4375 5.0625 C2.4475 5.0625 1.4575 5.0625 0.4375 5.0625 C0.1075 4.7325 -0.2225 4.4025 -0.5625 4.0625 C-1.5525 4.3925 -2.5425 4.7225 -3.5625 5.0625 C-4.125 3.125 -4.125 3.125 -4.5625 1.0625 C-3.5625 0.0625 -3.5625 0.0625 0 0 Z " fill="#B88978" transform="translate(286.5625,184.9375)"/>
<path d="M0 0 C0.33 0 0.66 0 1 0 C1 2.31 1 4.62 1 7 C-0.65 7 -2.3 7 -4 7 C-3.67 5.35 -3.34 3.7 -3 2 C-2.01 2 -1.02 2 0 2 C0 1.34 0 0.68 0 0 Z " fill="#C0AF92" transform="translate(169,309)"/>
<path d="M0 0 C1.32 0 2.64 0 4 0 C4 1.65 4 3.3 4 5 C2.02 5 0.04 5 -2 5 C-2 4.01 -2 3.02 -2 2 C-1.34 2 -0.68 2 0 2 C0 1.34 0 0.68 0 0 Z " fill="#C19B81" transform="translate(282,243)"/>
<path d="M0 0 C0.66 0.66 1.32 1.32 2 2 C1.625 4.125 1.625 4.125 1 6 C-0.32 6 -1.64 6 -3 6 C-3 4.68 -3 3.36 -3 2 C-3.66 2 -4.32 2 -5 2 C-5.33 2.99 -5.66 3.98 -6 5 C-6 3.68 -6 2.36 -6 1 C-4.68 1 -3.36 1 -2 1 C-2 1.99 -2 2.98 -2 4 C-1.34 2.68 -0.68 1.36 0 0 Z " fill="#B68A75" transform="translate(293,242)"/>
<path d="M0 0 C0.66 0 1.32 0 2 0 C2 2.31 2 4.62 2 7 C-0.97 7 -3.94 7 -7 7 C-4 5 -4 5 -2 5 C-1.34 3.35 -0.68 1.7 0 0 Z " fill="#D8B999" transform="translate(235,241)"/>
<path d="M0 0 C2.64 0 5.28 0 8 0 C8 1.65 8 3.3 8 5 C6.35 4.67 4.7 4.34 3 4 C3 3.01 3 2.02 3 1 C2.34 1 1.68 1 1 1 C0.67 1.99 0.34 2.98 0 4 C0 2.68 0 1.36 0 0 Z " fill="#C09482" transform="translate(286,174)"/>
<path d="M0 0 C2.31 0.33 4.62 0.66 7 1 C6.67 2.32 6.34 3.64 6 5 C6 4.01 6 3.02 6 2 C5.34 2 4.68 2 4 2 C3.67 3.32 3.34 4.64 3 6 C2.01 5.67 1.02 5.34 0 5 C0 3.35 0 1.7 0 0 Z " fill="#C39987" transform="translate(307,173)"/>
<path d="M0 0 C1.98 0 3.96 0 6 0 C6.33 1.32 6.66 2.64 7 4 C5.02 4 3.04 4 1 4 C0.67 2.68 0.34 1.36 0 0 Z " fill="#CDA694" transform="translate(349,163)"/>
<path d="M0 0 C0 1.66666667 0 3.33333333 0 5 C-1.65 5 -3.3 5 -5 5 C-5.66 3.35 -6.32 1.7 -7 0 C-4.3333581 -1.33332095 -2.83319697 -0.67102033 0 0 Z " fill="#AC9B87" transform="translate(176,289)"/>
<path d="M0 0 C1.32 0 2.64 0 4 0 C4.33 0.99 4.66 1.98 5 3 C4.67 3.66 4.34 4.32 4 5 C3.34 5 2.68 5 2 5 C2 5.66 2 6.32 2 7 C1.34 7 0.68 7 0 7 C0 4.69 0 2.38 0 0 Z " fill="#C1B094" transform="translate(146,277)"/>
<path d="M0 0 C-0.33 1.65 -0.66 3.3 -1 5 C-1.66 4.34 -2.32 3.68 -3 3 C-3.33 3.99 -3.66 4.98 -4 6 C-4.99 5.67 -5.98 5.34 -7 5 C-6.67 3.35 -6.34 1.7 -6 0 C-2.25 -1.125 -2.25 -1.125 0 0 Z " fill="#B38771" transform="translate(279,231)"/>
<path d="M0 0 C0.99 0.33 1.98 0.66 3 1 C3 2.65 3 4.3 3 6 C1.35 6.33 -0.3 6.66 -2 7 C-1.34 4.69 -0.68 2.38 0 0 Z " fill="#D2B193" transform="translate(259,230)"/>
<path d="M0 0 C0 1.98 0 3.96 0 6 C-1.65 6 -3.3 6 -5 6 C-5 5.34 -5 4.68 -5 4 C-5.66 4 -6.32 4 -7 4 C-7 3.34 -7 2.68 -7 2 C-1.125 0 -1.125 0 0 0 Z " fill="#877C6D" transform="translate(277,210)"/>
<path d="M0 0 C0.598125 0.185625 1.19625 0.37125 1.8125 0.5625 C4.16408762 1.22093687 4.16408762 1.22093687 7 0 C7 1.65 7 3.3 7 5 C5.02 5 3.04 5 1 5 C0.67 3.35 0.34 1.7 0 0 Z " fill="#BE9480" transform="translate(363,163)"/>
<path d="M0 0 C0.33 1.98 0.66 3.96 1 6 C-0.98 6.33 -2.96 6.66 -5 7 C-4.625 4.0625 -4.625 4.0625 -4 1 C-2 0 -2 0 0 0 Z " fill="#FEDABF" transform="translate(203,91)"/>
<path d="M0 0 C0.33 0 0.66 0 1 0 C1 2.31 1 4.62 1 7 C-0.65 7 -2.3 7 -4 7 C-4 5.33333333 -4 3.66666667 -4 2 C-2.68 2 -1.36 2 0 2 C0 1.34 0 0.68 0 0 Z " fill="#B5A38C" transform="translate(195,309)"/>
<path d="M0 0 C0.99 0 1.98 0 3 0 C2.67 1.65 2.34 3.3 2 5 C1.34 5 0.68 5 0 5 C0 5.66 0 6.32 0 7 C0.66 7.33 1.32 7.66 2 8 C1.01 8 0.02 8 -1 8 C-1.625 5.125 -1.625 5.125 -2 2 C-1.34 1.34 -0.68 0.68 0 0 Z " fill="#AB9A88" transform="translate(238,278)"/>
<path d="M0 0 C0.99 0 1.98 0 3 0 C3 2.31 3 4.62 3 7 C1.68 7 0.36 7 -1 7 C-1.04254356 5.00045254 -1.04080783 2.99958364 -1 1 C-0.67 0.67 -0.34 0.34 0 0 Z " fill="#877B6D" transform="translate(199,267)"/>
<path d="M0 0 C1.65 0.33 3.3 0.66 5 1 C4.34 2.32 3.68 3.64 3 5 C1.68 5 0.36 5 -1 5 C-0.67 3.35 -0.34 1.7 0 0 Z " fill="#A99C83" transform="translate(204,269)"/>
<path d="M0 0 C1.98 0 3.96 0 6 0 C6.33 1.98 6.66 3.96 7 6 C5.68 6 4.36 6 3 6 C3 5.01 3 4.02 3 3 C2.34 2.67 1.68 2.34 1 2 C0.67 2.99 0.34 3.98 0 5 C0 3.35 0 1.7 0 0 Z " fill="#8F8372" transform="translate(253,211)"/>
<path d="M0 0 C2.97 0.495 2.97 0.495 6 1 C5.67 2.32 5.34 3.64 5 5 C3.35 5 1.7 5 0 5 C0 3.35 0 1.7 0 0 Z " fill="#C89F8D" transform="translate(351,174)"/>
<path d="M0 0 C1.98 0 3.96 0 6 0 C6.66 1.65 7.32 3.3 8 5 C7.13375 4.4740625 7.13375 4.4740625 6.25 3.9375 C3.64198224 2.85082593 2.60582371 3.06934867 0 4 C0 2.68 0 1.36 0 0 Z " fill="#BB8E7D" transform="translate(272,174)"/>
<path d="M0 0 C0.99 0 1.98 0 3 0 C2.50168276 3.68754757 1.89932357 5.60490662 -1 8 C-1.93065133 5.39417629 -2.14917407 4.35801776 -1.0625 1.75 C-0.711875 1.1725 -0.36125 0.595 0 0 Z " fill="#FEEFE3" transform="translate(193,105)"/>
<path d="M0 0 C0 2.31 0 4.62 0 7 C-1.32 7 -2.64 7 -4 7 C-4 6.34 -4 5.68 -4 5 C-3.34 5 -2.68 5 -2 5 C-2 4.34 -2 3.68 -2 3 C-2.66 3 -3.32 3 -4 3 C-4 2.34 -4 1.68 -4 1 C-2 0 -2 0 0 0 Z " fill="#B2A18C" transform="translate(165,277)"/>
<path d="M0 0 C1.65 0.33 3.3 0.66 5 1 C4.34 2.32 3.68 3.64 3 5 C1.68 5 0.36 5 -1 5 C-0.67 3.35 -0.34 1.7 0 0 Z " fill="#D7B997" transform="translate(210,253)"/>
<path d="M0 0 C1.67542976 0.28604898 3.34385343 0.61781233 5 1 C4.67 1.66 4.34 2.32 4 3 C3.34 3 2.68 3 2 3 C1.67 4.32 1.34 5.64 1 7 C0.34 7 -0.32 7 -1 7 C-1.04254356 5.00045254 -1.04080783 2.99958364 -1 1 C-0.67 0.67 -0.34 0.34 0 0 Z " fill="#CBA88B" transform="translate(220,230)"/>
<path d="M0 0 C-0.66 0 -1.32 0 -2 0 C-2 0.66 -2 1.32 -2 2 C-3.98 2 -5.96 2 -8 2 C-8 1.01 -8 0.02 -8 -1 C-4.59745511 -2.2151946 -3.06748874 -1.86240388 0 0 Z " fill="#F7928C" transform="translate(145,154)"/>
<path d="M0 0 C1.32 0.66 2.64 1.32 4 2 C0.93882432 4.62386487 0.26826873 5 -4 5 C-3 2 -3 2 0 0 Z " fill="#FEF6E1" transform="translate(130,37)"/>
<path d="M0 0 C1.32 0 2.64 0 4 0 C4 1.98 4 3.96 4 6 C2.68 6 1.36 6 0 6 C0 4.02 0 2.04 0 0 Z " fill="#C1997F" transform="translate(214,230)"/>
<path d="M0 0 C0.66 0 1.32 0 2 0 C2 0.66 2 1.32 2 2 C2.99 2.33 3.98 2.66 5 3 C5 4.32 5 5.64 5 7 C3 6 3 6 1 4 C0.01 3.34 -0.98 2.68 -2 2 C-1.34 2 -0.68 2 0 2 C0 1.34 0 0.68 0 0 Z " fill="#BC927B" transform="translate(255,219)"/>
<path d="M0 0 C1.32 0 2.64 0 4 0 C3.67 1.65 3.34 3.3 3 5 C2.34 5 1.68 5 1 5 C0.67 5.66 0.34 6.32 0 7 C0 4.69 0 2.38 0 0 Z " fill="#BE9380" transform="translate(281,174)"/>
<path d="M0 0 C1.32 0.33 2.64 0.66 4 1 C4 2.32 4 3.64 4 5 C3.01 5 2.02 5 1 5 C0.67 5.66 0.34 6.32 0 7 C0 4.69 0 2.38 0 0 Z " fill="#BE9381" transform="translate(299,163)"/>
<path d="M0 0 C1.32 0 2.64 0 4 0 C4 0.66 4 1.32 4 2 C4.66 2.33 5.32 2.66 6 3 C5.01 4.485 5.01 4.485 4 6 C3.01 6 2.02 6 1 6 C0.67 4.02 0.34 2.04 0 0 Z " fill="#C5B6A0" transform="translate(272,152)"/>
<path d="M0 0 C1.32 0 2.64 0 4 0 C3.67 1.65 3.34 3.3 3 5 C2.34 5 1.68 5 1 5 C0.67 5.66 0.34 6.32 0 7 C0 4.69 0 2.38 0 0 Z " fill="#7E766A" transform="translate(281,154)"/>
<path d="M0 0 C1.32 0 2.64 0 4 0 C4.33 0.66 4.66 1.32 5 2 C5.99 2.33 6.98 2.66 8 3 C7.67 3.66 7.34 4.32 7 5 C5.68 5 4.36 5 3 5 C2.67 4.34 2.34 3.68 2 3 C1.34 3 0.68 3 0 3 C0 2.01 0 1.02 0 0 Z " fill="#FFE6B6" transform="translate(264,300)"/>
<path d="M0 0 C0.66 0 1.32 0 2 0 C2 1.98 2 3.96 2 6 C0.68 6 -0.64 6 -2 6 C-2 4.68 -2 3.36 -2 2 C-1.34 2 -0.68 2 0 2 C0 1.34 0 0.68 0 0 Z " fill="#AF9E8A" transform="translate(252,277)"/>
<path d="M0 0 C0.99 0.33 1.98 0.66 3 1 C2.67 2.65 2.34 4.3 2 6 C1.01 5.67 0.02 5.34 -1 5 C-0.67 3.35 -0.34 1.7 0 0 Z " fill="#B5A48D" transform="translate(226,278)"/>
<path d="M0 0 C0.99 0.33 1.98 0.66 3 1 C3 2.65 3 4.3 3 6 C1.68 5.67 0.36 5.34 -1 5 C-0.67 3.35 -0.34 1.7 0 0 Z " fill="#887C6E" transform="translate(249,211)"/>
<path d="M0 0 C0.99 0.33 1.98 0.66 3 1 C2.67 2.65 2.34 4.3 2 6 C1.01 6 0.02 6 -1 6 C-1.042721 4.33388095 -1.04063832 2.66617115 -1 1 C-0.67 0.67 -0.34 0.34 0 0 Z " fill="#867B6D" transform="translate(216,211)"/>
<path d="M0 0 C1.98 0 3.96 0 6 0 C5.67 1.65 5.34 3.3 5 5 C2.525 4.01 2.525 4.01 0 3 C0 2.01 0 1.02 0 0 Z " fill="#BB8F7D" transform="translate(378,174)"/>
<path d="M0 0 C0.99 0.33 1.98 0.66 3 1 C3 2.32 3 3.64 3 5 C1.35 4.67 -0.3 4.34 -2 4 C-1.34 2.68 -0.68 1.36 0 0 Z " fill="#C9A28F" transform="translate(295,163)"/>
<path d="M0 0 C0.66 0.33 1.32 0.66 2 1 C2 1.99 2 2.98 2 4 C0.35 4 -1.3 4 -3 4 C-3 3.34 -3 2.68 -3 2 C-3.99 1.34 -4.98 0.68 -6 0 C-3 -1 -3 -1 0 0 Z " fill="#8B7F73" transform="translate(335,155)"/>
<path d="M0 0 C0.99 0.33 1.98 0.66 3 1 C3 2.32 3 3.64 3 5 C1.35 5 -0.3 5 -2 5 C-2 3.68 -2 2.36 -2 1 C-1.34 0.67 -0.68 0.34 0 0 Z " fill="#B0A08B" transform="translate(212,278)"/>
<path d="M0 0 C1.65 0 3.3 0 5 0 C5 1.65 5 3.3 5 5 C2.69 4.67 0.38 4.34 -2 4 C-2 3.34 -2 2.68 -2 2 C-1.34 2 -0.68 2 0 2 C0 1.34 0 0.68 0 0 Z " fill="#B68C74" transform="translate(261,243)"/>
<path d="M0 0 C3.34373475 0.55728913 6.03312999 1.35173889 9 3 C8.67 3.66 8.34 4.32 8 5 C5.36 4.01 2.72 3.02 0 2 C0 1.34 0 0.68 0 0 Z " fill="#B49F64" transform="translate(235,142)"/>
<path d="M0 0 C0 2.31 0 4.62 0 7 C-0.99 6.67 -1.98 6.34 -3 6 C-3.33 4.35 -3.66 2.7 -4 1 C-1 0 -1 0 0 0 Z " fill="#CDBC99" transform="translate(164,309)"/>
<path d="M0 0 C1.98 0 3.96 0 6 0 C6 1.32 6 2.64 6 4 C4.35 4 2.7 4 1 4 C0.67 2.68 0.34 1.36 0 0 Z " fill="#AA9887" transform="translate(230,290)"/>
<path d="M0 0 C0.66 0 1.32 0 2 0 C2 2.31 2 4.62 2 7 C0.35 7.33 -1.3 7.66 -3 8 C-3 7.34 -3 6.68 -3 6 C-2.34 6 -1.68 6 -1 6 C-0.67 4.02 -0.34 2.04 0 0 Z " fill="#D1BE9D" transform="translate(241,277)"/>
<path d="M0 0 C1.65 0 3.3 0 5 0 C5.33 1.32 5.66 2.64 6 4 C4.35 4 2.7 4 1 4 C0.67 2.68 0.34 1.36 0 0 Z " fill="#A99D83" transform="translate(157,269)"/>
<path d="M0 0 C0 1.98 0 3.96 0 6 C-1.32 6 -2.64 6 -4 6 C-4 4.35 -4 2.7 -4 1 C-1 0 -1 0 0 0 Z " fill="#7D7565" transform="translate(197,268)"/>
<path d="M0 0 C0.99 0 1.98 0 3 0 C3 1.65 3 3.3 3 5 C1.35 5 -0.3 5 -2 5 C-1.125 1.125 -1.125 1.125 0 0 Z " fill="#B58974" transform="translate(285,221)"/>
<path d="M0 0 C0.99 0.33 1.98 0.66 3 1 C3 2.32 3 3.64 3 5 C1.68 5 0.36 5 -1 5 C-0.67 3.35 -0.34 1.7 0 0 Z " fill="#C79E8D" transform="translate(322,163)"/>
<path d="M0 0 C0.99 0 1.98 0 3 0 C2.67 1.65 2.34 3.3 2 5 C1.01 4.67 0.02 4.34 -1 4 C-0.67 2.68 -0.34 1.36 0 0 Z " fill="#B4A48C" transform="translate(147,300)"/>
<path d="M0 0 C0.99 0.33 1.98 0.66 3 1 C3 2.65 3 4.3 3 6 C1.68 5.67 0.36 5.34 -1 5 C-0.67 3.35 -0.34 1.7 0 0 Z " fill="#AC9B88" transform="translate(176,278)"/>
<path d="M0 0 C1.65 0 3.3 0 5 0 C4.1875 1.9375 4.1875 1.9375 3 4 C2.01 4.33 1.02 4.66 0 5 C0 3.35 0 1.7 0 0 Z " fill="#938675" transform="translate(165,269)"/>
<path d="M0 0 C0.66 0 1.32 0 2 0 C2 1.98 2 3.96 2 6 C0.68 6.33 -0.64 6.66 -2 7 C-1.34 6.67 -0.68 6.34 0 6 C0 5.01 0 4.02 0 3 C-0.66 2.67 -1.32 2.34 -2 2 C-1.34 2 -0.68 2 0 2 C0 1.34 0 0.68 0 0 Z " fill="#BA9079" transform="translate(226,219)"/>
<path d="M0 0 C0.66 0 1.32 0 2 0 C2 2.31 2 4.62 2 7 C0.68 6.67 -0.64 6.34 -2 6 C-1.34 4.02 -0.68 2.04 0 0 Z " fill="#B5A58E" transform="translate(289,210)"/>
<path d="M0 0 C1.65 0.33 3.3 0.66 5 1 C4.67 1.99 4.34 2.98 4 4 C2.35 4.33 0.7 4.66 -1 5 C-0.67 3.35 -0.34 1.7 0 0 Z " fill="#E0C3AD" transform="translate(336,174)"/>
</svg>
