<?xml version="1.0" encoding="UTF-8"?>
<svg version="1.1" xmlns="http://www.w3.org/2000/svg" width="400" height="400">
<path d="M0 0 C132 0 264 0 400 0 C400 132 400 264 400 400 C268 400 136 400 0 400 C0 268 0 136 0 0 Z " fill="#E7EFF4" transform="translate(0,0)"/>
<path d="M0 0 C0.99 0 1.98 0 3 0 C2.67 9.24 2.34 18.48 2 28 C5.3 27.01 8.6 26.02 12 25 C14.97689844 24.70337906 17.66537952 24.52065016 20.625 24.5625 C21.39134766 24.56934814 22.15769531 24.57619629 22.94726562 24.58325195 C34.73457275 24.90703909 45.80184415 28.01838936 56 34 C54.63017895 37.1870711 53.15774857 38.93286908 50.4375 41.0625 C47.80562347 43.12532214 47.09567461 43.71297618 46 47 C45.77674186 49.05893621 45.59294241 51.12233653 45.4375 53.1875 C45.35371094 54.27417969 45.26992188 55.36085937 45.18359375 56.48046875 C45.12300781 57.31191406 45.06242188 58.14335937 45 59 C42.50382938 58.01044665 40.02128501 57.0093463 37.5625 55.9296875 C28.4924372 52.19658238 19.75873824 51.54633823 10.3125 54.4375 C-5.21075363 60.96889778 -16.16155647 79.01769293 -26 92 C-25.01 92.9590625 -25.01 92.9590625 -24 93.9375 C-18.60715979 99.34553131 -13.6525686 105.12151149 -8.9375 111.125 C-2.17719271 119.59179262 4.83388809 126.94085009 16 129 C24.17954463 129.50900205 31.6159171 128.74500407 39.3984375 126.22265625 C44.10522406 125.81982317 47.01420715 128.85736087 50.59375 131.609375 C54.12966823 135.12233272 54.86530971 138.12421161 55 143 C55.04125 144.175625 55.0825 145.35125 55.125 146.5625 C55.08375 147.366875 55.0425 148.17125 55 149 C51.535 150.98 51.535 150.98 48 153 C48 162.57 48 172.14 48 182 C47.01 182 46.02 182 45 182 C45.33 172.43 45.66 162.86 46 153 C43.69 153.99 41.38 154.98 39 156 C22.66858403 159.91226121 4.6636112 157.36778778 -9.7734375 149.1328125 C-20.245653 142.21050056 -28.18507258 132.68610723 -36 123 C-37.12728516 121.65421875 -37.12728516 121.65421875 -38.27734375 120.28125 C-38.92832031 119.4871875 -39.57929688 118.693125 -40.25 117.875 C-41.09304687 116.85019531 -41.09304687 116.85019531 -41.953125 115.8046875 C-42.29859375 115.20914063 -42.6440625 114.61359375 -43 114 C-42.505 112.515 -42.505 112.515 -42 111 C-42.52207031 111.64324219 -43.04414063 112.28648437 -43.58203125 112.94921875 C-48.81982348 119.37950308 -54.12348897 125.74676872 -59.5078125 132.0546875 C-60.92286828 133.72702614 -62.32428723 135.41176936 -63.6796875 137.1328125 C-71.63636966 147.15733296 -83.52153575 153.21736225 -96 155 C-96 164.9 -96 174.8 -96 185 C-96.66 185 -97.32 185 -98 185 C-97.67 175.43 -97.34 165.86 -97 156 C-98.32 156.33 -99.64 156.66 -101 157 C-114.29724301 157.69773626 -126.8317418 156.94263773 -139 151 C-139.04471587 148.80892213 -139.05811425 146.62513715 -139.02734375 144.43359375 C-139.00511895 142.45558617 -139.05439743 140.47687208 -139.125 138.5 C-137.24923318 132.66428101 -133.34857833 128.91143623 -128 126 C-125.00510173 126.11327149 -122.83625277 126.92850071 -120.0390625 127.98828125 C-112.19987606 130.59798471 -103.83669577 130.19992162 -96.31689453 126.84692383 C-90.24879142 123.80961073 -85.2572742 120.312174 -81 115 C-80.59716797 114.50048828 -80.19433594 114.00097656 -79.77929688 113.48632812 C-76.92573148 109.93476831 -74.12824273 106.34218519 -71.34570312 102.73486328 C-69.36139966 100.1767246 -67.33843013 97.65022851 -65.3125 95.125 C-64.66925781 94.32320313 -64.02601563 93.52140625 -63.36328125 92.6953125 C-62.91339844 92.13585937 -62.46351563 91.57640625 -62 91 C-66.91800889 84.22112289 -72.25640169 77.85869043 -77.70751953 71.50830078 C-78.84054562 70.18608031 -79.96583866 68.85724136 -81.08984375 67.52734375 C-81.97349609 66.49287109 -81.97349609 66.49287109 -82.875 65.4375 C-83.36742187 64.85871094 -83.85984375 64.27992188 -84.3671875 63.68359375 C-91.4470191 56.383576 -100.11577628 52.7177062 -110.25 52.5 C-115.85301824 52.70980465 -119.9398407 53.65064032 -125 56 C-126.99640639 56.67735217 -128.99504414 57.34838935 -131 58 C-132 57 -132 57 -132.1484375 54.55859375 C-132.51951591 49.4466688 -132.85257281 46.14568866 -136.578125 42.42578125 C-139.32128853 40.46688114 -142.07053651 38.66558125 -145 37 C-144.67 36.01 -144.34 35.02 -144 34 C-142.68 33.34 -141.36 32.68 -140 32 C-140 22.43 -140 12.86 -140 3 C-139.01 3 -138.02 3 -137 3 C-137.33 12.24 -137.66 21.48 -138 31 C-133.71 29.35 -129.42 27.7 -125 26 C-107.46197108 22.49239422 -90.30045569 25.34917726 -75.14453125 34.8828125 C-66.64793471 40.60350234 -60.73723111 47.57595433 -54.59375 55.64453125 C-51.97775332 59.07083482 -49.17239636 62.28767761 -46.2421875 65.44921875 C-45 67 -45 67 -44 70 C-43.34515625 69.15179688 -42.6903125 68.30359375 -42.015625 67.4296875 C-39.04095605 63.59533867 -36.02829712 59.79209168 -33 56 C-32.50322754 55.37561035 -32.00645508 54.7512207 -31.49462891 54.10791016 C-22.93043747 43.43456333 -13.8287053 34.46407818 -1 29 C-0.34 29 0.32 29 1 29 C0.67 19.43 0.34 9.86 0 0 Z " fill="#FECE4A" transform="translate(244,111)"/>
<path d="M0 0 C0.33 -1.32 0.66 -2.64 1 -4 C1.061875 -3.113125 1.12375 -2.22625 1.1875 -1.3125 C2.20994572 2.85593256 3.88166882 4.08955756 7 7 C14.97875226 16.07858027 16.84978602 24.83814452 16.40234375 36.7734375 C15.68325697 46.76896782 10.91532263 53.82100461 4.28125 61.0390625 C1.92669778 63.06300978 -0.06699375 64.03954373 -3 65 C-3 65.66 -3 66.32 -3 67 C-4.39449109 67.483059 -5.79066707 67.96125517 -7.1875 68.4375 C-7.96480469 68.70433594 -8.74210937 68.97117187 -9.54296875 69.24609375 C-18.8003615 72.08659741 -28.32447049 72.13710487 -37.33984375 68.453125 C-49.61495201 61.74777952 -59.55580043 48.05450826 -67.54296875 36.83203125 C-69.04943963 34.74608772 -69.04943963 34.74608772 -72 33 C-71.50113281 32.3915625 -71.00226563 31.783125 -70.48828125 31.15625 C-69.41126953 29.84140625 -69.41126953 29.84140625 -68.3125 28.5 C-67.08853516 27.00726563 -67.08853516 27.00726563 -65.83984375 25.484375 C-63.7968096 22.98531294 -61.77187537 20.47246399 -59.75390625 17.953125 C-58.91508911 16.90995117 -58.91508911 16.90995117 -58.05932617 15.84570312 C-56.9637064 14.48249105 -55.87124404 13.11673327 -54.7824707 11.74804688 C-40.00606413 -6.59792816 -21.34976878 -13.3054809 0 0 Z " fill="#F0F3FD" transform="translate(289,170)"/>
<path d="M0 0 C2.05076694 1.71163233 3.90876508 3.49855001 5.7578125 5.42578125 C6.68787109 6.39451172 6.68787109 6.39451172 7.63671875 7.3828125 C14.86499755 15.25360497 21.38728249 23.85413789 27.7578125 32.42578125 C2.79201736 63.78608523 2.79201736 63.78608523 -6.2421875 68.42578125 C-7.2528125 69.02390625 -8.2634375 69.62203125 -9.3046875 70.23828125 C-18.23660103 73.79469533 -28.80918739 71.88677693 -37.36328125 68.30078125 C-37.98332031 68.01203125 -38.60335937 67.72328125 -39.2421875 67.42578125 C-39.2421875 66.76578125 -39.2421875 66.10578125 -39.2421875 65.42578125 C-39.98597656 65.32910156 -40.72976562 65.23242188 -41.49609375 65.1328125 C-46.39219227 63.87222383 -49.18236015 60.29837524 -52.2421875 56.42578125 C-57.11622746 48.10629925 -59.4225337 41.57964035 -59.4296875 32.05078125 C-59.44193359 31.2 -59.45417969 30.34921875 -59.46679688 29.47265625 C-59.47722458 25.00960013 -59.35288102 21.48031504 -57.2421875 17.42578125 C-55.9221875 17.42578125 -54.6021875 17.42578125 -53.2421875 17.42578125 C-53.2421875 16.43578125 -53.2421875 15.44578125 -53.2421875 14.42578125 C-52.2521875 14.75578125 -51.2621875 15.08578125 -50.2421875 15.42578125 C-49.9121875 14.43578125 -49.5821875 13.44578125 -49.2421875 12.42578125 C-49.9021875 12.09578125 -50.5621875 11.76578125 -51.2421875 11.42578125 C-50.6234375 11.17828125 -50.0046875 10.93078125 -49.3671875 10.67578125 C-47.10472256 9.60434396 -47.10472256 9.60434396 -46.2421875 7.42578125 C-45.2421875 5.42578125 -45.2421875 5.42578125 -43.4609375 4.5859375 C-39.7659605 2.65388086 -37.28266749 -0.55829411 -34.4609375 -3.578125 C-25.4786499 -11.65902106 -8.65711144 -6.0780765 0 0 Z " fill="#EBFAFD" transform="translate(155.2421875,169.57421875)"/>
<path d="M0 0 C0.33 0 0.66 0 1 0 C1 28.38 1 56.76 1 86 C-31.34 86 -63.68 86 -97 86 C-96 84 -95 82 -94 80 C-93.01 80 -92.02 80 -91 80 C-90.938125 79.278125 -90.87625 78.55625 -90.8125 77.8125 C-89.7462512 74.12163877 -87.78771208 72.58858979 -85 70 C-84.2265625 68.9171875 -84.2265625 68.9171875 -83.4375 67.8125 C-81.8091292 65.75933682 -80.34370787 65.09373034 -78 64 C-77.67 63.34 -77.34 62.68 -77 62 C-76.34 62 -75.68 62 -75 62 C-74.773125 61.236875 -74.54625 60.47375 -74.3125 59.6875 C-72.71278599 56.41189512 -71.10080608 55.7829635 -68 54 C-66.67206394 51.93299345 -66.67206394 51.93299345 -66 50 C-65.01 50.33 -64.02 50.66 -63 51 C-59.14096436 48.78310719 -56.02268223 46.25519625 -53 43 C-52.01 43.495 -52.01 43.495 -51 44 C-51.66 44.66 -52.32 45.32 -53 46 C-52.67 46.66 -52.34 47.32 -52 48 C-52.66 48 -53.32 48 -54 48 C-54.495 48.99 -54.495 48.99 -55 50 C-55.495 50.45375 -55.99 50.9075 -56.5 51.375 C-58.25093237 53.2718434 -58.400757 54.52812261 -59 57 C-60.4375 59.25 -60.4375 59.25 -62 61 C-62.66 61 -63.32 61 -64 61 C-63.67 61.99 -63.34 62.98 -63 64 C-63.66 64.66 -64.32 65.32 -65 66 C-64.01 66 -63.02 66 -62 66 C-60.68 66 -59.36 66 -58 66 C-56.14697958 64.30723357 -56.14697958 64.30723357 -55 62 C-55 60.68 -55 59.36 -55 58 C-52.125 55.375 -52.125 55.375 -49 53 C-48.34 52.34 -47.68 51.68 -47 51 C-47 51.66 -47 52.32 -47 53 C-46.01 52.67 -45.02 52.34 -44 52 C-43.7525 51.4225 -43.505 50.845 -43.25 50.25 C-42 48 -42 48 -38.6875 45.875 C-33.41084224 42.32785219 -30.67674629 36.42818923 -29.46484375 30.2890625 C-28.91526181 27.5827178 -27.94635749 26.86173325 -26 25 C-26 24.01 -26 23.02 -26 22 C-24.50401882 20.73166813 -23.00282539 19.46772904 -21.453125 18.265625 C-19.69021763 16.73018955 -19.00611503 15.08409541 -18 13 C-16.1875 12 -16.1875 12 -14 11 C-13.195625 10.34 -12.39125 9.68 -11.5625 9 C-9.05947751 7.04642147 -6.92172386 6.15331205 -4 5 C-2.1108127 3.3806966 -1.11300018 2.22600037 0 0 Z " fill="#D6ABE7" transform="translate(399,314)"/>
<path d="M0 0 C0.66 0 1.32 0 2 0 C2.36609375 0.89203125 2.7321875 1.7840625 3.109375 2.703125 C6.27135088 9.83656974 6.27135088 9.83656974 12.13671875 14.75390625 C15.08609556 15.69980106 17.95086953 16.46427429 21 17 C19.29980348 20.92870268 16.70958317 24.11603869 14.0625 27.4375 C13.57668457 28.05149658 13.09086914 28.66549316 12.59033203 29.2980957 C8.8134648 34.04381148 4.93798038 38.70021502 0.98876953 43.30322266 C-1.95611745 46.73804799 -4.7709089 50.25064563 -7.5625 53.8125 C-16.62662219 64.84987357 -27.75538452 71.96505493 -42 74 C-42 83.9 -42 93.8 -42 104 C-42.66 104 -43.32 104 -44 104 C-43.67 94.43 -43.34 84.86 -43 75 C-44.98 75.495 -44.98 75.495 -47 76 C-60.29724301 76.69773626 -72.8317418 75.94263773 -85 70 C-85.04471587 67.80892213 -85.05811425 65.62513715 -85.02734375 63.43359375 C-85.00511895 61.45558617 -85.05439743 59.47687208 -85.125 57.5 C-83.24923318 51.66428101 -79.34857833 47.91143623 -74 45 C-71.00510173 45.11327149 -68.83625277 45.92850071 -66.0390625 46.98828125 C-58.19987606 49.59798471 -49.83669577 49.19992162 -42.31689453 45.84692383 C-36.24879142 42.80961073 -31.2572742 39.312174 -27 34 C-26.59716797 33.50048828 -26.19433594 33.00097656 -25.77929688 32.48632812 C-22.91859199 28.92588248 -20.11346421 25.32467254 -17.32373047 21.70849609 C-13.33549459 16.56100906 -9.26176202 11.47690314 -5.0625 6.5 C-3.00440194 4.19566189 -3.00440194 4.19566189 -2 2 C-1.34 2 -0.68 2 0 2 C0 1.34 0 0.68 0 0 Z " fill="#912A76" transform="translate(190,192)"/>
<path d="M0 0 C0.99 0 1.98 0 3 0 C2.67 9.24 2.34 18.48 2 28 C5.3 27.01 8.6 26.02 12 25 C14.97689844 24.70337906 17.66537952 24.52065016 20.625 24.5625 C21.39134766 24.56934814 22.15769531 24.57619629 22.94726562 24.58325195 C34.73457275 24.90703909 45.80184415 28.01838936 56 34 C54.63017895 37.1870711 53.15774857 38.93286908 50.4375 41.0625 C47.80562347 43.12532214 47.09567461 43.71297618 46 47 C45.77674186 49.05893621 45.59294241 51.12233653 45.4375 53.1875 C45.31181641 54.81751953 45.31181641 54.81751953 45.18359375 56.48046875 C45.12300781 57.31191406 45.06242187 58.14335937 45 59 C42.50382938 58.01044665 40.02128501 57.0093463 37.5625 55.9296875 C28.4924372 52.19658238 19.75873824 51.54633823 10.3125 54.4375 C-2.4182174 59.79394017 -10.64940819 72.53975853 -19 83 C-20.70367459 85.12887011 -22.412388 87.25327969 -24.125 89.375 C-24.78757813 90.20773438 -25.45015625 91.04046875 -26.1328125 91.8984375 C-29.47431208 95.65937217 -29.47431208 95.65937217 -32 97 C-36.79383299 96.74606311 -40.82997835 95.34821763 -45 93 C-48.15932195 89.00078788 -51.08333621 84.26934375 -50.94921875 79.0078125 C-49.47037222 75.87971738 -47.21220195 73.44282196 -44.9375 70.875 C-43.92731944 69.70925621 -42.91821242 68.54258131 -41.91015625 67.375 C-41.41273926 66.80136719 -40.91532227 66.22773438 -40.40283203 65.63671875 C-38.50670298 63.4244582 -36.68565495 61.15752261 -34.875 58.875 C-34.23691406 58.07835937 -33.59882813 57.28171875 -32.94140625 56.4609375 C-31.59452119 54.75361841 -30.27042656 53.02816897 -28.96484375 51.2890625 C-21.55233009 41.68373627 -12.30315821 33.69187699 -1 29 C-0.34 29 0.32 29 1 29 C0.67 19.43 0.34 9.86 0 0 Z " fill="#D33070" transform="translate(244,111)"/>
<path d="M0 0 C39.93 0 79.86 0 121 0 C116.52068474 5.59914408 116.52068474 5.59914408 113.8125 7.8125 C110.84688451 10.28169725 107.94316607 12.80685902 105.0625 15.375 C104.29035156 16.06335938 103.51820313 16.75171875 102.72265625 17.4609375 C102.15417969 17.96882813 101.58570313 18.47671875 101 19 C101.495 19.99 101.495 19.99 102 21 C100.6696875 21.9590625 100.6696875 21.9590625 99.3125 22.9375 C95.82774094 25.78270328 94.15595777 29.07731032 92.2734375 33.109375 C91 35 91 35 88.9765625 35.890625 C87.99816406 35.94476563 87.99816406 35.94476563 87 36 C86.34 35.34 85.68 34.68 85 34 C83.515 33.505 83.515 33.505 82 33 C82 31.02 82 29.04 82 27 C81.21625 27.804375 80.4325 28.60875 79.625 29.4375 C77 32 77 32 75 33 C74.505 33.99 74.505 33.99 74 35 C73.34 34.67 72.68 34.34 72 34 C71.505 34.99 71.505 34.99 71 36 C68.69 35.67 66.38 35.34 64 35 C64 36.65 64 38.3 64 40 C63.4225 39.62875 62.845 39.2575 62.25 38.875 C60 37.70833333 60 37.70833333 57.75 38.875 C57.1725 39.24625 56.595 39.6175 56 40 C56 39.34 56 38.68 56 38 C54.02 38 52.04 38 50 38 C50.53625 37.2575 51.0725 36.515 51.625 35.75 C53.29359365 33.18358362 53.29359365 33.18358362 52.4375 31 C51.963125 30.34 51.48875 29.68 51 29 C50.360625 28.0925 49.72125 27.185 49.0625 26.25 C48.381875 25.5075 47.70125 24.765 47 24 C46.01 24 45.02 24 44 24 C43.01 24 42.02 24 41 24 C40.505 25.485 40.505 25.485 40 27 C36.24850048 25.6178686 33.85836556 24.71673111 32 21 C30.56138706 21.08746284 29.12402492 21.19565348 27.6875 21.3125 C26.88699219 21.37050781 26.08648437 21.42851562 25.26171875 21.48828125 C22.59401524 22.09185493 21.79438456 23.0017081 20 25 C17.3125 26.1875 17.3125 26.1875 15 27 C14.505 24.525 14.505 24.525 14 22 C12.02 22.99 12.02 22.99 10 24 C9.01 22.02 8.02 20.04 7 18 C6.4225 18.185625 5.845 18.37125 5.25 18.5625 C2.75630228 19.04738567 1.40788787 18.69906422 -1 18 C-3.62113708 18 -5.50935112 18.31292445 -8 19 C-8.3125 16.75 -8.3125 16.75 -8 14 C-6.36739286 12.62517293 -4.69774938 11.29352333 -3 10 C-1.26701152 6.62067247 -0.76092422 3.80462111 0 0 Z M83 25 C84 27 84 27 84 27 Z " fill="#EBFDD3" transform="translate(157,0)"/>
<path d="M0 0 C12.14061972 5.98715493 12.14061972 5.98715493 14.02734375 10.40625 C14.55340027 12.95589619 14.83482665 15.40381373 15 18 C15.2475 19.6396875 15.2475 19.6396875 15.5 21.3125 C14.87171808 24.6895153 13.41577094 25.49038519 10.7265625 27.453125 C5.17200759 32.42960406 1.07877572 40.81996551 0.62890625 48.22265625 C0.29718819 61.11969459 1.76286679 70.4951365 10.5625 80.5 C12.02273201 82.01843884 13.50102446 83.51979517 15 85 C15.75152344 85.7528125 16.50304687 86.505625 17.27734375 87.28125 C18.13005859 88.13203125 18.13005859 88.13203125 19 89 C17.54712339 90.33927721 16.08752741 91.67126847 14.625 93 C13.81289062 93.7425 13.00078125 94.485 12.1640625 95.25 C10 97 10 97 8 97 C8.020625 98.175625 8.04125 99.35125 8.0625 100.5625 C8.06947261 104.47413467 7.64250343 108.14497944 7 112 C2.76188742 110.56674738 -0.19174028 108.47186275 -3.625 105.625 C-4.56601563 104.85414063 -5.50703125 104.08328125 -6.4765625 103.2890625 C-9 101 -9 101 -12 97 C-12.33 105.58 -12.66 114.16 -13 123 C-13.66 123 -14.32 123 -15 123 C-14.95810547 122.19481934 -14.91621094 121.38963867 -14.87304688 120.56005859 C-13.50314339 100.88871057 -13.50314339 100.88871057 -20.88671875 83.2265625 C-28.71150543 71.27966083 -29.85962212 54.98378131 -27.30078125 41.24609375 C-23.12105967 25.17973781 -14.07253457 9.38168971 0 0 Z " fill="#4C2869" transform="translate(96,148)"/>
<path d="M0 0 C0.99 0 1.98 0 3 0 C2.9685791 1.32390747 2.9685791 1.32390747 2.93652344 2.67456055 C2.86815905 5.96405569 2.81811051 9.25279094 2.78027344 12.54272461 C2.76021579 13.96374457 2.73296222 15.38468259 2.69824219 16.80541992 C2.64945989 18.85355895 2.62697461 20.90060275 2.609375 22.94921875 C2.5779541 24.79519653 2.5779541 24.79519653 2.54589844 26.6784668 C3.08428421 30.61649824 4.3322429 32.12826194 7 35 C15.71617041 50.25862596 19.89251849 66.66877652 15.8125 84.1875 C11.24695663 99.92494902 3.52494042 114.21457125 -10 124 C-12.796875 125.23828125 -12.796875 125.23828125 -15 126 C-15.17273438 125.07058594 -15.34546875 124.14117187 -15.5234375 123.18359375 C-17.05615371 116.44104861 -18.23771392 111.73822121 -24.25 107.625 C-25.8103024 106.70956247 -27.38691479 105.81885624 -29 105 C-27.86911577 101.60734731 -27.05702289 101.0651587 -24.3125 98.9375 C-17.12713303 92.84864325 -12.47195793 84.50434658 -11.6640625 75.08203125 C-11.38257648 61.87833739 -13.64391321 51.90915597 -23 42 C-23.66 41.67 -24.32 41.34 -25 41 C-25.02698422 38.56242587 -25.04683099 36.12515085 -25.0625 33.6875 C-25.07087891 32.99720703 -25.07925781 32.30691406 -25.08789062 31.59570312 C-25.10307906 28.4516975 -25.00193327 26.00579981 -24 23 C-22.36735356 21.54038617 -20.67087977 20.15093248 -18.9375 18.8125 C-18.01839844 18.09707031 -17.09929687 17.38164062 -16.15234375 16.64453125 C-15.44207031 16.10183594 -14.73179687 15.55914062 -14 15 C-10.82096506 16.42557621 -8.46341568 18.1773152 -5.875 20.5 C-5.19179688 21.1084375 -4.50859375 21.716875 -3.8046875 22.34375 C-2.50880012 23.53304924 -1.24373566 24.75626434 0 26 C0 17.42 0 8.84 0 0 Z " fill="#FC5B5B" transform="translate(316,132)"/>
<path d="M0 0 C3.59926032 0.55812706 4.96536177 1.71253145 7.20703125 4.53515625 C7.79419922 5.26283203 8.38136719 5.99050781 8.98632812 6.74023438 C9.58896484 7.50658203 10.19160156 8.27292969 10.8125 9.0625 C12.00524071 10.55440141 13.19924929 12.04529007 14.39453125 13.53515625 C14.9860498 14.27427246 15.57756836 15.01338867 16.18701172 15.77490234 C24.53616535 26.02189753 32.11058082 34.88741566 46.05859375 36.3125 C53.14303997 36.45689636 59.6740206 35.40206824 66.3984375 33.22265625 C71.10522406 32.81982317 74.01420715 35.85736087 77.59375 38.609375 C81.12966823 42.12233272 81.86530971 45.12421161 82 50 C82.04125 51.175625 82.0825 52.35125 82.125 53.5625 C82.08375 54.366875 82.0425 55.17125 82 56 C79.69 57.32 77.38 58.64 75 60 C75 69.57 75 79.14 75 89 C74.01 89 73.02 89 72 89 C72.33 79.43 72.66 69.86 73 60 C70.69 60.99 68.38 61.98 66 63 C49.66858403 66.91226121 31.6636112 64.36778778 17.2265625 56.1328125 C3.71320106 47.20025155 -6.33504194 33.76566133 -16 21 C-13.9052405 16.03418778 -12.02058868 12.6495314 -7.59375 9.36328125 C-4.51576215 6.73039458 -2.31046179 3.30183014 0 0 Z " fill="#FE9646" transform="translate(217,204)"/>
<path d="M0 0 C20.79 0 41.58 0 63 0 C63.495 1.485 63.495 1.485 64 3 C63.34 3 62.68 3 62 3 C62.495 4.485 62.495 4.485 63 6 C62.328125 7.7890625 62.328125 7.7890625 61.25 9.625 C60.90453125 10.23601563 60.5590625 10.84703125 60.203125 11.4765625 C59 13 59 13 56 14 C56 14.66 56 15.32 56 16 C54.35546875 17.54296875 54.35546875 17.54296875 52.1875 19.1875 C51.12595703 20.01314453 51.12595703 20.01314453 50.04296875 20.85546875 C49.36878906 21.23316406 48.69460937 21.61085938 48 22 C47.01 21.67 46.02 21.34 45 21 C44.67 21.66 44.34 22.32 44 23 C43.67 23 43.34 23 43 23 C42.4121875 24.36125 42.4121875 24.36125 41.8125 25.75 C39.9212628 29.14118394 38.1445327 30.79032837 35 33 C35 32.01 35 31.02 35 30 C34.505 29.01 34.505 29.01 34 28 C32.67203709 27.64587656 31.33783393 27.31478446 30 27 C29.01 26.34 28.02 25.68 27 25 C24.34754398 25.66096786 24.34754398 25.66096786 22 27 C21.67 27.66 21.34 28.32 21 29 C18.67843403 29.40729228 16.3431213 29.74438677 14 30 C13.855625 29.401875 13.71125 28.80375 13.5625 28.1875 C13.1127561 26.43849596 12.57107659 24.71322977 12 23 C11.45730469 23.2165625 10.91460937 23.433125 10.35546875 23.65625 C9.64003906 23.9346875 8.92460938 24.213125 8.1875 24.5 C7.47980469 24.7784375 6.77210937 25.056875 6.04296875 25.34375 C4 26 4 26 1 26 C-0.68798827 27.43750191 -0.68798827 27.43750191 -2 29 C-2.33 27.68 -2.66 26.36 -3 25 C-2.360625 24.7525 -1.72125 24.505 -1.0625 24.25 C-0.381875 23.8375 0.29875 23.425 1 23 C1.2165625 22.1028125 1.2165625 22.1028125 1.4375 21.1875 C2.28708366 17.88356353 4.54812874 16.26326578 7 14 C5.71711243 11.44496043 5.71711243 11.44496043 4 9 C3.01 9 2.02 9 1 9 C0 2.25 0 2.25 0 0 Z " fill="#E1ECDA" transform="translate(94,0)"/>
<path d="M0 0 C0.66 0.33 1.32 0.66 2 1 C1.34 1.66 0.68 2.32 0 3 C0.495 3.99 0.495 3.99 1 5 C0.34 5 -0.32 5 -1 5 C-1.33 5.66 -1.66 6.32 -2 7 C-2.495 7.45375 -2.99 7.9075 -3.5 8.375 C-5.25093237 10.2718434 -5.400757 11.52812261 -6 14 C-7.4375 16.25 -7.4375 16.25 -9 18 C-9.66 18 -10.32 18 -11 18 C-10.505 19.485 -10.505 19.485 -10 21 C-10.66 21.66 -11.32 22.32 -12 23 C-11.01 23 -10.02 23 -9 23 C-7.31763529 23.62599617 -5.6476038 24.28752268 -4 25 C-4 25.99 -4 26.98 -4 28 C-3.34561559 30.00405227 -2.67939174 32.00428677 -2 34 C-2 34.66 -2 35.32 -2 36 C-1.360625 36.2475 -0.72125 36.495 -0.0625 36.75 C2 38 2 38 2.75 40.125 C2.8325 40.74375 2.915 41.3625 3 42 C0.6479994 43.1760003 -0.73734401 43.12084541 -3.35791016 43.11352539 C-4.70908432 43.11341209 -4.70908432 43.11341209 -6.08755493 43.11329651 C-7.06155243 43.10813522 -8.03554993 43.10297394 -9.0390625 43.09765625 C-10.03505463 43.0962413 -11.03104675 43.09482635 -12.05722046 43.09336853 C-15.24651053 43.08775936 -18.43573106 43.0752053 -21.625 43.0625 C-23.78385315 43.05748618 -25.94270741 43.05292307 -28.1015625 43.04882812 C-33.4010655 43.03778695 -38.70052778 43.02103988 -44 43 C-43 41 -42 39 -41 37 C-40.01 37 -39.02 37 -38 37 C-37.938125 36.278125 -37.87625 35.55625 -37.8125 34.8125 C-36.7462512 31.12163877 -34.78771208 29.58858979 -32 27 C-31.484375 26.278125 -30.96875 25.55625 -30.4375 24.8125 C-28.8091292 22.75933682 -27.34370787 22.09373034 -25 21 C-24.67 20.34 -24.34 19.68 -24 19 C-23.34 19 -22.68 19 -22 19 C-21.6596875 17.8553125 -21.6596875 17.8553125 -21.3125 16.6875 C-19.71278599 13.41189512 -18.10080608 12.7829635 -15 11 C-13.67206394 8.93299345 -13.67206394 8.93299345 -13 7 C-11.515 7.495 -11.515 7.495 -10 8 C-6.14096436 5.78310719 -3.02268223 3.25519625 0 0 Z " fill="#E4AFF6" transform="translate(346,357)"/>
<path d="M0 0 C0 11.88 0 23.76 0 36 C-10.23 36 -20.46 36 -31 36 C-31 32.24517355 -30.88186002 31.0318856 -29 28 C-28.34 27.67 -27.68 27.34 -27 27 C-27.33 25.68 -27.66 24.36 -28 23 C-26.515 22.1028125 -26.515 22.1028125 -25 21.1875 C-24.01 20.465625 -23.02 19.74375 -22 19 C-22 18.01 -22 17.02 -22 16 C-18.38065219 11.98445139 -13.60639959 8.78526487 -9 6 C-8.34 6 -7.68 6 -7 6 C-7 5.34 -7 4.68 -7 4 C-1.47058824 0 -1.47058824 0 0 0 Z " fill="#CF9EDD" transform="translate(400,364)"/>
<path d="M0 0 C0.66 0.33 1.32 0.66 2 1 C0.08277831 8.81636537 0.08277831 8.81636537 -3 11 C-3.66 11 -4.32 11 -5 11 C-5.33 11.99 -5.66 12.98 -6 14 C-9 15 -9 15 -10 15 C-12.51083114 16.25541557 -12.87125446 17.50063488 -14 20 C-14.66 20 -15.32 20 -16 20 C-16.2475 20.7425 -16.495 21.485 -16.75 22.25 C-18.10465039 25.23023087 -19.5101541 26.89919252 -22 29 C-22.66 29 -23.32 29 -24 29 C-24 29.66 -24 30.32 -24 31 C-24.66 31 -25.32 31 -26 31 C-26 25.06 -26 19.12 -26 13 C-24.246875 12.46375 -22.49375 11.9275 -20.6875 11.375 C-13.31053136 8.91892395 -5.32934114 5.88848513 0 0 Z " fill="#EFF2FB" transform="translate(174,253)"/>
<path d="M0 0 C1.29422379 0.00212242 1.29422379 0.00212242 2.61459351 0.00428772 C5.3759098 0.00989437 8.13714562 0.02244798 10.8984375 0.03515625 C12.768228 0.04017039 14.63801976 0.04473345 16.5078125 0.04882812 C21.09638527 0.05986596 25.68489773 0.07713505 30.2734375 0.09765625 C25.15458195 5.32728225 19.42071984 8.55608555 12.2734375 10.09765625 C11.2834375 10.09765625 10.2934375 10.09765625 9.2734375 10.09765625 C8.2834375 10.42765625 7.2934375 10.75765625 6.2734375 11.09765625 C4.2734375 11.09765625 2.2734375 11.09765625 0.2734375 11.09765625 C-0.0565625 10.43765625 -0.3865625 9.77765625 -0.7265625 9.09765625 C-1.3865625 8.76765625 -2.0465625 8.43765625 -2.7265625 8.09765625 C-4.7265625 7.09765625 -4.7265625 7.09765625 -5.7265625 5.09765625 C-7.36951445 3.73520829 -9.03480587 2.3990075 -10.7265625 1.09765625 C-7.39500999 -0.56812 -3.66120191 -0.02242231 0 0 Z " fill="#E7FEC6" transform="translate(195.7265625,-0.09765625)"/>
<path d="M0 0 C0 2.31 0 4.62 0 7 C-0.66 7 -1.32 7 -2 7 C-2 7.66 -2 8.32 -2 9 C-2.66 9 -3.32 9 -4 9 C-4 9.66 -4 10.32 -4 11 C-4.66 11 -5.32 11 -6 11 C-5.773125 11.598125 -5.54625 12.19625 -5.3125 12.8125 C-5.209375 13.534375 -5.10625 14.25625 -5 15 C-6 16 -7 17 -8 18 C-8.74386068 20.30988315 -9.42190703 22.64315944 -10 25 C-10.66 25 -11.32 25 -12 25 C-12.65417994 26.30835987 -13.30036548 27.62075532 -13.9375 28.9375 C-15 31 -15 31 -17 34 C-17.66 34 -18.32 34 -19 34 C-19.33 34.99 -19.66 35.98 -20 37 C-20.99 36.34 -21.98 35.68 -23 35 C-22.30767294 30.53833674 -20.04714409 29.16669882 -16.59375 26.5625 C-14.71894974 24.72446053 -14.41401751 23.55566364 -14 21 C-13.66666667 19.66666667 -13.33333333 18.33333333 -13 17 C-13.66 16.67 -14.32 16.34 -15 16 C-14.54625 15.62875 -14.0925 15.2575 -13.625 14.875 C-11.52970606 12.45735315 -10.87986715 10.04569398 -10 7 C-10.99 7.33 -11.98 7.66 -13 8 C-13.66 6.02 -14.32 4.04 -15 2 C-14.05125 1.690625 -13.1025 1.38125 -12.125 1.0625 C-7.28399264 -0.5834425 -5.21266806 -0.86877801 0 0 Z " fill="#EDE3FF" transform="translate(325,250)"/>
<path d="M0 0 C1.32 0 2.64 0 4 0 C4 0.99 4 1.98 4 3 C5.32 3.33 6.64 3.66 8 4 C7.34 5.65 6.68 7.3 6 9 C7.32 9.33 8.64 9.66 10 10 C10 10.99 10 11.98 10 13 C2.25 14.125 2.25 14.125 0 13 C-0.763125 13.165 -1.52625 13.33 -2.3125 13.5 C-5.25653382 14.04772722 -7.10986915 13.66695327 -10 13 C-11.32 13 -12.64 13 -14 13 C-13.6875 11.0625 -13.6875 11.0625 -13 9 C-10 8 -10 8 -7 8 C-7 7.01 -7 6.02 -7 5 C-7.99 4.67 -8.98 4.34 -10 4 C-10 3.01 -10 2.02 -10 1 C-9.36191406 1.01160156 -8.72382813 1.02320313 -8.06640625 1.03515625 C-7.24011719 1.04417969 -6.41382813 1.05320312 -5.5625 1.0625 C-4.32693359 1.07990234 -4.32693359 1.07990234 -3.06640625 1.09765625 C-1.00836062 1.23267348 -1.00836062 1.23267348 0 0 Z " fill="#E2C8F3" transform="translate(318,298)"/>
<path d="M0 0 C2.97 0 5.94 0 9 0 C9.12375 0.969375 9.2475 1.93875 9.375 2.9375 C9.58125 3.948125 9.7875 4.95875 10 6 C10.66 6.33 11.32 6.66 12 7 C11.01 7.495 11.01 7.495 10 8 C10.28875 8.845625 10.5775 9.69125 10.875 10.5625 C12.00772704 14.02361041 13.01824316 17.49372557 14 21 C13.01 20.67 12.02 20.34 11 20 C10.95875 20.61875 10.9175 21.2375 10.875 21.875 C10 24 10 24 7.125 25.25 C4 26 4 26 1 26 C-0.68798827 27.43750191 -0.68798827 27.43750191 -2 29 C-2.33 27.68 -2.66 26.36 -3 25 C-2.360625 24.7525 -1.72125 24.505 -1.0625 24.25 C-0.381875 23.8375 0.29875 23.425 1 23 C1.2165625 22.1028125 1.2165625 22.1028125 1.4375 21.1875 C2.28708366 17.88356353 4.54812874 16.26326578 7 14 C5.71711243 11.44496043 5.71711243 11.44496043 4 9 C3.01 9 2.02 9 1 9 C0 2.25 0 2.25 0 0 Z " fill="#DBE3E0" transform="translate(94,0)"/>
<path d="M0 0 C0.33 0 0.66 0 1 0 C1 5.61 1 11.22 1 17 C-4.61 17 -10.22 17 -16 17 C-14.68 15.35 -13.36 13.7 -12 12 C-11.34 11.01 -10.68 10.02 -10 9 C-9.34 9 -8.68 9 -8 9 C-7.67 8.01 -7.34 7.02 -7 6 C-6.01 6.33 -5.02 6.66 -4 7 C-4 6.34 -4 5.68 -4 5 C-3.34 4.67 -2.68 4.34 -2 4 C-0.86649466 1.98330173 -0.86649466 1.98330173 0 0 Z " fill="#C592D2" transform="translate(399,383)"/>
<path d="M0 0 C1.46022163 0.95545366 2.91811468 1.91446678 4.375 2.875 C5.18710938 3.40867188 5.99921875 3.94234375 6.8359375 4.4921875 C9.70520344 6.49135114 10.85302626 7.3449689 11.6328125 10.8203125 C11.79523438 11.91085938 11.95765625 13.00140625 12.125 14.125 C12.29257813 15.22070312 12.46015625 16.31640625 12.6328125 17.4453125 C12.75398438 18.28835937 12.87515625 19.13140625 13 20 C13.928125 19.67 14.85625 19.34 15.8125 19 C19 18 19 18 22 18 C20.40207236 19.65189143 18.79644124 21.2963339 17.1875 22.9375 C16.29417969 23.85402344 15.40085937 24.77054688 14.48046875 25.71484375 C12 28 12 28 9 29 C6.66666667 30.66666667 6.66666667 30.66666667 5 33 C5.14025199 35.70705512 5.14025199 35.70705512 6 38 C4.68 37.34 3.36 36.68 2 36 C2 36.99 2 37.98 2 39 C1.01 39 0.02 39 -1 39 C0.55542514 34.02263955 3.48488028 29.80944793 7 26 C8.32 25.34 9.64 24.68 11 24 C10.34 18.72 9.68 13.44 9 8 C6.525 7.01 6.525 7.01 4 6 C1.6875 4.5625 1.6875 4.5625 0 3 C0 2.01 0 1.02 0 0 Z " fill="#DAF1F2" transform="translate(100,148)"/>
<path d="M0 0 C1.8125 1.0625 1.8125 1.0625 3 3 C3.36841966 6.43858351 3.58367385 8.90131981 1.9375 12 C-1.22796524 13.63378851 -3.65020286 12.85267564 -7 12 C-9.31361802 8.52957297 -9.51020728 7.08165827 -9 3 C-6.30254095 0.00282328 -3.95012118 -0.60771095 0 0 Z " fill="#F2EAF0" transform="translate(150,247)"/>
<path d="M0 0 C2.475 0.99 2.475 0.99 5 2 C4.67 2.99 4.34 3.98 4 5 C4 5.99 4 6.98 4 8 C4 9.32 4 10.64 4 12 C3.01 12.33 2.02 12.66 1 13 C0.67 13.66 0.34 14.32 0 15 C0.99 15.33 1.98 15.66 3 16 C3 17.65 3 19.3 3 21 C1.35 21.33 -0.3 21.66 -2 22 C-2.33 20.68 -2.66 19.36 -3 18 C-4.98 18.99 -4.98 18.99 -7 20 C-7 17 -7 17 -5 14 C-5 13.01 -5 12.02 -5 11 C-4.154375 10.21625 -3.30875 9.4325 -2.4375 8.625 C-1.633125 7.75875 -0.82875 6.8925 0 6 C-0.14025199 3.29294488 -0.14025199 3.29294488 -1 1 C-0.67 0.67 -0.34 0.34 0 0 Z " fill="#DFBCF2" transform="translate(351,320)"/>
<path d="M0 0 C0.226875 0.639375 0.45375 1.27875 0.6875 1.9375 C1.85250896 4.27193661 1.85250896 4.27193661 4.625 4.75 C5.40875 4.8325 6.1925 4.915 7 5 C8.32 3.35 9.64 1.7 11 0 C10.46845241 4.51815455 8.82159609 7.45285063 6 11 C3.75 11.875 3.75 11.875 2 12 C1.896875 12.61875 1.79375 13.2375 1.6875 13.875 C1 16 1 16 -2 18 C-2.66 17.01 -3.32 16.02 -4 15 C-3.34 14.01 -2.68 13.02 -2 12 C-2.185625 11.071875 -2.37125 10.14375 -2.5625 9.1875 C-3.10974029 5.2004636 -2.02112178 3.39548459 0 0 Z " fill="#E8C2FC" transform="translate(322,336)"/>
<path d="M0 0 C12.87 0 25.74 0 39 0 C38.67 1.32 38.34 2.64 38 4 C36.33388095 4.042721 34.66617115 4.04063832 33 4 C32.505 3.505 32.505 3.505 32 3 C31.01 3.495 31.01 3.495 30 4 C29.13375 3.835 28.2675 3.67 27.375 3.5 C24.47677934 3.07063398 22.74953121 3.07474008 19.9375 3.5 C16.41696611 3.94705192 14.36748026 3.76970977 11 3 C10.01 3.33 9.02 3.66 8 4 C5.5 3.5 5.5 3.5 3 3 C2.01 3.33 1.02 3.66 0 4 C0 2.68 0 1.36 0 0 Z " fill="#A5AAB1" transform="translate(87,286)"/>
<path d="M0 0 C1.65 0 3.3 0 5 0 C4.78515625 1.828125 4.78515625 1.828125 4 4 C1.93359375 5.484375 1.93359375 5.484375 -0.5625 6.75 C-1.80193359 7.39195312 -1.80193359 7.39195312 -3.06640625 8.046875 C-3.70449219 8.36140625 -4.34257812 8.6759375 -5 9 C-5 9.66 -5 10.32 -5 11 C-5.66 11 -6.32 11 -7 11 C-7.33 11.66 -7.66 12.32 -8 13 C-10.0625 13.625 -10.0625 13.625 -12 14 C-11.62875 13.4225 -11.2575 12.845 -10.875 12.25 C-9.70833333 10 -9.70833333 10 -10.875 7.75 C-11.24625 7.1725 -11.6175 6.595 -12 6 C-7.60546875 1.99609375 -7.60546875 1.99609375 -6 1 C-5.01 1.33 -4.02 1.66 -3 2 C-2.01 2 -1.02 2 0 2 C0 1.34 0 0.68 0 0 Z M-7 3 C-6.34 3.66 -5.68 4.32 -5 5 C-5 4.34 -5 3.68 -5 3 C-5.66 3 -6.32 3 -7 3 Z " fill="#E9F6EE" transform="translate(308,124)"/>
<path d="M0 0 C0.53625 0.37125 1.0725 0.7425 1.625 1.125 C4.94612897 2.34857383 6.81090417 1.30463011 10 0 C10.66 0.66 11.32 1.32 12 2 C12.99 1.67 13.98 1.34 15 1 C19.33333333 1 23.66666667 1 28 1 C27.34 2.32 26.68 3.64 26 5 C23.02077407 5.02683987 20.04178705 5.04676037 17.0625 5.0625 C15.78729492 5.07506836 15.78729492 5.07506836 14.48632812 5.08789062 C13.67744141 5.09111328 12.86855469 5.09433594 12.03515625 5.09765625 C11.2862915 5.10289307 10.53742676 5.10812988 9.76586914 5.11352539 C8 5 8 5 7 4 C6.01 4.33 5.02 4.66 4 5 C2.68 5 1.36 5 0 5 C0 3.35 0 1.7 0 0 Z " fill="#B8B7A4" transform="translate(104,101)"/>
<path d="M0 0 C1.485 0.99 1.485 0.99 3 2 C4.95379499 2.27785432 4.95379499 2.27785432 7 2.1875 C8.0209375 2.17783203 8.0209375 2.17783203 9.0625 2.16796875 C11.21758209 2.05697746 11.21758209 2.05697746 14 1 C15.67422986 1.29299023 17.34178227 1.62690101 19 2 C19.99 2 20.98 2 22 2 C22 3.98 22 5.96 22 8 C21.443125 7.855625 20.88625 7.71125 20.3125 7.5625 C12.43302015 5.54608991 12.43302015 5.54608991 4.625 7 C4.08875 7.33 3.5525 7.66 3 8 C1.68 7.01 0.36 6.02 -1 5 C-0.67 3.35 -0.34 1.7 0 0 Z " fill="#B2B9C0" transform="translate(55,275)"/>
<path d="M0 0 C-0.33 0.99 -0.66 1.98 -1 3 C-1.66 3 -2.32 3 -3 3 C-3 5.31 -3 7.62 -3 10 C-3.66 10 -4.32 10 -5 10 C-6.231394 13.69418201 -5.64432764 16.2056261 -5 20 C-6.65 20.33 -8.3 20.66 -10 21 C-10.144375 20.0925 -10.28875 19.185 -10.4375 18.25 C-10.88022821 15.17708362 -10.88022821 15.17708362 -11.6796875 13.02734375 C-12 11 -12 11 -11.07421875 9.11328125 C-10.61660156 8.51902344 -10.15898437 7.92476563 -9.6875 7.3125 C-9.23761719 6.71050781 -8.78773438 6.10851562 -8.32421875 5.48828125 C-7 4 -7 4 -5 3 C-4.505 2.484375 -4.01 1.96875 -3.5 1.4375 C-2 0 -2 0 0 0 Z M-10 13 C-10 13.66 -10 14.32 -10 15 C-9.34 14.67 -8.68 14.34 -8 14 C-8.66 13.67 -9.32 13.34 -10 13 Z " fill="#DEC8F2" transform="translate(374,266)"/>
<path d="M0 0 C0.80308594 -0.02578125 1.60617188 -0.0515625 2.43359375 -0.078125 C3.48740234 0.08429688 3.48740234 0.08429688 4.5625 0.25 C6.5625 3.25 6.5625 3.25 6.1875 5.9375 C5.98125 6.700625 5.775 7.46375 5.5625 8.25 C0.8125 7.375 0.8125 7.375 -1.4375 6.25 C-1.4375 5.59 -1.4375 4.93 -1.4375 4.25 C-2.0975 4.25 -2.7575 4.25 -3.4375 4.25 C-3.1075 5.24 -2.7775 6.23 -2.4375 7.25 C-0.42241642 7.98323796 -0.42241642 7.98323796 1.5625 8.25 C1.5625 8.91 1.5625 9.57 1.5625 10.25 C-0.7475 10.25 -3.0575 10.25 -5.4375 10.25 C-5.46439216 8.77093108 -5.48384621 7.29172517 -5.5 5.8125 C-5.51160156 4.98878906 -5.52320313 4.16507813 -5.53515625 3.31640625 C-5.35483791 -0.49912979 -3.3434593 0.06419442 0 0 Z " fill="#FCFDF6" transform="translate(144.4375,148.75)"/>
<path d="M0 0 C3.3 0 6.6 0 10 0 C8.125 6.875 8.125 6.875 7 8 C5.14712498 8.07226502 3.29166122 8.0838122 1.4375 8.0625 C0.42558594 8.05347656 -0.58632812 8.04445312 -1.62890625 8.03515625 C-2.80259766 8.01775391 -2.80259766 8.01775391 -4 8 C-4 7.34 -4 6.68 -4 6 C-5.65 5.67 -7.3 5.34 -9 5 C-9 4.01 -9 3.02 -9 2 C-8.34 2 -7.68 2 -7 2 C-7 2.66 -7 3.32 -7 4 C-4.69 4.66 -2.38 5.32 0 6 C0 4.02 0 2.04 0 0 Z " fill="#FED153" transform="translate(150,151)"/>
<path d="M0 0 C1.76227952 2.64341928 3.19871008 5.23077235 4.625 8.0625 C5.07101563 8.94035156 5.51703125 9.81820312 5.9765625 10.72265625 C7 13 7 13 7 15 C7.67546875 15.13277344 8.3509375 15.26554688 9.046875 15.40234375 C9.93890625 15.57894531 10.8309375 15.75554687 11.75 15.9375 C13.07257813 16.19853516 13.07257813 16.19853516 14.421875 16.46484375 C17 17 17 17 19.1875 17.65625 C21.17810442 18.24845608 21.17810442 18.24845608 23.25 16.5625 C23.8275 16.046875 24.405 15.53125 25 15 C23.63629701 17.99220268 22.05091917 20.29026529 19.875 22.75 C19.33617187 23.36359375 18.79734375 23.9771875 18.2421875 24.609375 C17.83226562 25.06828125 17.42234375 25.5271875 17 26 C17 23 17 23 19 20 C18.40832031 19.89042969 17.81664062 19.78085938 17.20703125 19.66796875 C16.02173828 19.43013672 16.02173828 19.43013672 14.8125 19.1875 C14.03519531 19.03667969 13.25789062 18.88585937 12.45703125 18.73046875 C8.13690938 17.44610819 5.65630712 16.00540665 3.1640625 12.1875 C2.65617188 11.135625 2.14828125 10.08375 1.625 9 C1.10164062 7.948125 0.57828125 6.89625 0.0390625 5.8125 C-1 3 -1 3 0 0 Z " fill="#E8DEE8" transform="translate(192,189)"/>
<path d="M0 0 C0.33 0.66 0.66 1.32 1 2 C3.51223656 2.06978435 5.68588986 2.0831468 8.125 1.4375 C10 1 10 1 13 2 C13.99 2 14.98 2 16 2 C15.67 2.99 15.34 3.98 15 5 C13.02 5.33 11.04 5.66 9 6 C9 5.01 9 4.02 9 3 C8.34 3 7.68 3 7 3 C7.33 3.99 7.66 4.98 8 6 C5.72923158 6.02699725 3.45837179 6.04639453 1.1875 6.0625 C-0.70935547 6.07990234 -0.70935547 6.07990234 -2.64453125 6.09765625 C-6 6 -6 6 -9 5 C-9 4.01 -9 3.02 -9 2 C-7.329375 2.061875 -7.329375 2.061875 -5.625 2.125 C-1.95633975 2.41121859 -1.95633975 2.41121859 0 0 Z " fill="#A9AEB6" transform="translate(64,284)"/>
<path d="M0 0 C0.66 0 1.32 0 2 0 C2 0.66 2 1.32 2 2 C2.66 2 3.32 2 4 2 C4 1.34 4 0.68 4 0 C4.66 0 5.32 0 6 0 C6 0.66 6 1.32 6 2 C7.22976562 1.87431641 7.22976562 1.87431641 8.484375 1.74609375 C10.10085937 1.59333984 10.10085937 1.59333984 11.75 1.4375 C13.35101563 1.28087891 13.35101563 1.28087891 14.984375 1.12109375 C17.64141204 1.01439926 19.49960572 1.18069605 22 2 C21.67 3.32 21.34 4.64 21 6 C20.34 6 19.68 6 19 6 C18.67 5.34 18.34 4.68 18 4 C17.29875 4.144375 16.5975 4.28875 15.875 4.4375 C14.451875 4.7159375 14.451875 4.7159375 13 5 C12.05125 5.20625 11.1025 5.4125 10.125 5.625 C6.55784271 6.05305888 3.52291591 5.63412486 0 5 C0 3.35 0 1.7 0 0 Z " fill="#BBBCA9" transform="translate(60,92)"/>
<path d="M0 0 C6.27 0 12.54 0 19 0 C19 0.99 19 1.98 19 3 C14.90996141 4.14982602 10.96822949 4.11094256 6.75 4.0625 C6.00492188 4.05798828 5.25984375 4.05347656 4.4921875 4.04882812 C2.6614236 4.03709246 0.83070127 4.0191585 -1 4 C-0.67 2.68 -0.34 1.36 0 0 Z " fill="#BCBBA7" transform="translate(210,99)"/>
<path d="M0 0 C0.66 0.33 1.32 0.66 2 1 C2 2.65 2 4.3 2 6 C0.39125 6.86625 0.39125 6.86625 -1.25 7.75 C-3.71837718 9.13566848 -5.20630741 10.2180964 -7.1875 12.3125 C-7.785625 12.869375 -8.38375 13.42625 -9 14 C-11.25 13.75 -11.25 13.75 -13 13 C-13 12.34 -13 11.68 -13 11 C-12.34 11 -11.68 11 -11 11 C-10.67 10.01 -10.34 9.02 -10 8 C-9.01 7.67 -8.02 7.34 -7 7 C-6.835 6.34 -6.67 5.68 -6.5 5 C-6.335 4.34 -6.17 3.68 -6 3 C-5.01 2.67 -4.02 2.34 -3 2 C-3 3.32 -3 4.64 -3 6 C-2.34 5.34 -1.68 4.68 -1 4 C-1 3.01 -1 2.02 -1 1 C-0.67 0.67 -0.34 0.34 0 0 Z " fill="#F0D9FF" transform="translate(283,346)"/>
<path d="M0 0 C1.32 0.33 2.64 0.66 4 1 C3 4 3 4 1 5 C1 5.99 1 6.98 1 8 C3.64 8 6.28 8 9 8 C9.66 6.68 10.32 5.36 11 4 C12 7 12 7 11 10 C6.05 10 1.1 10 -4 10 C-4 4.55671096 -3.47311819 3.79872302 0 0 Z " fill="#F4DCE6" transform="translate(269,146)"/>
<path d="M0 0 C0.66 0.66 1.32 1.32 2 2 C4.66949409 2.24315656 4.66949409 2.24315656 7.625 2.125 C8.62789063 2.10695313 9.63078125 2.08890625 10.6640625 2.0703125 C11.82035156 2.03550781 11.82035156 2.03550781 13 2 C13.33 1.34 13.66 0.68 14 0 C14 0.66 14 1.32 14 2 C16.64 2 19.28 2 22 2 C22 3.65 22 5.3 22 7 C21.01 7 20.02 7 19 7 C18.34 6.34 17.68 5.68 17 5 C14.46735493 4.71816675 14.46735493 4.71816675 11.625 4.8125 C10.19027344 4.82216797 10.19027344 4.82216797 8.7265625 4.83203125 C6.05835308 4.90986798 6.05835308 4.90986798 3.7734375 5.57421875 C2 6 2 6 0 5 C0 3.35 0 1.7 0 0 Z " fill="#C6A9B8" transform="translate(261,297)"/>
<path d="M0 0 C4.1781363 -0.08192424 7.92489892 0.09442198 12 1 C12.99 1 13.98 1 15 1 C15 2.98 15 4.96 15 7 C13.68 7 12.36 7 11 7 C10.34 6.34 9.68 5.68 9 5 C6.66117862 5.29235267 4.32716 5.62599214 2 6 C1.34 5.67 0.68 5.34 0 5 C0 3.35 0 1.7 0 0 Z " fill="#B8B5A2" transform="translate(221,89)"/>
<path d="M0 0 C0.66 0.99 1.32 1.98 2 3 C0.625 4.5 0.625 4.5 -1 6 C-1.66 6 -2.32 6 -3 6 C-3 6.66 -3 7.32 -3 8 C-3.66 8 -4.32 8 -5 8 C-5.33 8.66 -5.66 9.32 -6 10 C-6.99 10.66 -7.98 11.32 -9 12 C-10.19232613 14.05003955 -10.19232613 14.05003955 -11 16 C-11.66 16 -12.32 16 -13 16 C-12.73079965 12.14146168 -12.26710588 10.31904314 -9.75 7.3125 C-7.25570711 5.21502644 -4.82525603 3.60352369 -2 2 C-1.34 1.34 -0.68 0.68 0 0 Z M-15 15 C-14.34 15.66 -13.68 16.32 -13 17 C-13.99 17.66 -14.98 18.32 -16 19 C-16.33 18.01 -16.66 17.02 -17 16 C-16.34 15.67 -15.68 15.34 -15 15 Z " fill="#E1D0F4" transform="translate(386,238)"/>
<path d="M0 0 C0.66 0 1.32 0 2 0 C1.01 3.96 0.02 7.92 -1 12 C-5.29425875 10.92643531 -5.74740471 10.4915227 -8 7 C-7.3125 5.0625 -7.3125 5.0625 -6 3 C-3.4375 2.375 -3.4375 2.375 -1 2 C-0.67 1.34 -0.34 0.68 0 0 Z " fill="#FAA0A0" transform="translate(319,194)"/>
<path d="M0 0 C3.125 0.52083333 6.25 1.04166667 9.375 1.5625 C10.674375 1.7790625 10.674375 1.7790625 12 2 C11.67 3.65 11.34 5.3 11 7 C9.02 7 7.04 7 5 7 C5 6.34 5 5.68 5 5 C2.03 5 -0.94 5 -4 5 C-3.67 4.01 -3.34 3.02 -3 2 C-2.34 2 -1.68 2 -1 2 C-0.67 1.34 -0.34 0.68 0 0 Z " fill="#C4A3B6" transform="translate(268,306)"/>
<path d="M0 0 C0.33 0.66 0.66 1.32 1 2 C6.28 2 11.56 2 17 2 C17.33 1.34 17.66 0.68 18 0 C18 1.65 18 3.3 18 5 C11.96445452 5.69260358 6.07593562 6.11251733 0 6 C0 4.02 0 2.04 0 0 Z " fill="#BEBEAB" transform="translate(132,92)"/>
<path d="M0 0 C0.66 0.66 1.32 1.32 2 2 C4.68839385 2.26991906 7.29141936 2.08737357 10 2 C9 5 9 5 6 7 C5.67 6.34 5.34 5.68 5 5 C1.97580475 5.58803797 -1.01758453 6.22678118 -4 7 C-4 6.01 -4 5.02 -4 4 C-4.33 4.66 -4.66 5.32 -5 6 C-6.32 5.34 -7.64 4.68 -9 4 C-8.67 3.34 -8.34 2.68 -8 2 C-5.69 2 -3.38 2 -1 2 C-0.67 1.34 -0.34 0.68 0 0 Z " fill="#AAA6AD" transform="translate(117,300)"/>
<path d="M0 0 C4.95 0 9.9 0 15 0 C15 1.32 15 2.64 15 4 C10.05 4 5.1 4 0 4 C0 2.68 0 1.36 0 0 Z " fill="#BEB5C5" transform="translate(75,198)"/>
<path d="M0 0 C4.95 0 9.9 0 15 0 C14.67 1.32 14.34 2.64 14 4 C9.38 4 4.76 4 0 4 C0 2.68 0 1.36 0 0 Z " fill="#F2F0F3" transform="translate(75,203)"/>
<path d="M0 0 C4.62 0 9.24 0 14 0 C14.33 1.32 14.66 2.64 15 4 C10.05 4 5.1 4 0 4 C0 2.68 0 1.36 0 0 Z " fill="#B0AABE" transform="translate(75,193)"/>
<path d="M0 0 C0.66 1.32 1.32 2.64 2 4 C2.66 4 3.32 4 4 4 C4 3.34 4 2.68 4 2 C5.98 1.67 7.96 1.34 10 1 C10 2.65 10 4.3 10 6 C9.01 5.34 8.02 4.68 7 4 C6.01 4.66 5.02 5.32 4 6 C1.51953125 6.1953125 1.51953125 6.1953125 -1.1875 6.125 C-2.08855469 6.10695313 -2.98960938 6.08890625 -3.91796875 6.0703125 C-4.60503906 6.04710937 -5.29210937 6.02390625 -6 6 C-6.33 4.68 -6.66 3.36 -7 2 C-4.69 1.34 -2.38 0.68 0 0 Z " fill="#B4B2B9" transform="translate(123,309)"/>
<path d="M0 0 C0.66 0.99 1.32 1.98 2 3 C0.71372289 4.17260611 -0.57919783 5.3379283 -1.875 6.5 C-2.95394531 7.47453125 -2.95394531 7.47453125 -4.0546875 8.46875 C-6 10 -6 10 -8 10 C-8.33 15.61 -8.66 21.22 -9 27 C-9.33 27 -9.66 27 -10 27 C-11.11017891 21.44910547 -12.11459599 15.75370774 -9.9375 10.375 C-7.71359872 7.64892746 -5.26539879 5.52444334 -2.5234375 3.33203125 C-0.87027626 2.05635999 -0.87027626 2.05635999 0 0 Z " fill="#EBD0DA" transform="translate(300,145)"/>
<path d="M0 0 C0.33 0.66 0.66 1.32 1 2 C1.53625 2.268125 2.0725 2.53625 2.625 2.8125 C3.800625 3.4003125 3.800625 3.4003125 5 4 C6.155 4.556875 7.31 5.11375 8.5 5.6875 C14.09900256 9.61282223 14.72194582 17.68911134 16 24 C15.01 24.33 14.02 24.66 13 25 C11.73694665 19.92523206 10.72963916 15.27203646 11 10 C10.484375 9.773125 9.96875 9.54625 9.4375 9.3125 C7.28179673 8.1517367 5.27889028 6.92881151 3.25 5.5625 C2.63640625 5.15128906 2.0228125 4.74007812 1.390625 4.31640625 C0.93171875 3.88199219 0.4728125 3.44757813 0 3 C0 2.01 0 1.02 0 0 Z " fill="#F0DEEA" transform="translate(286,235)"/>
<path d="M0 0 C0.66 0.33 1.32 0.66 2 1 C2.99 1 3.98 1 5 1 C7.66666667 1 10.33333333 1 13 1 C13 2.32 13 3.64 13 5 C11.58566794 5.2236337 10.16832382 5.42826476 8.75 5.625 C7.96109375 5.74101563 7.1721875 5.85703125 6.359375 5.9765625 C3.67847541 6.00319395 2.27305911 5.36592084 0 4 C0 2.68 0 1.36 0 0 Z " fill="#BFB6AB" transform="translate(280,110)"/>
<path d="M0 0 C1.22589844 0.15275391 1.22589844 0.15275391 2.4765625 0.30859375 C3.41628906 0.43427734 3.41628906 0.43427734 4.375 0.5625 C4.375 1.2225 4.375 1.8825 4.375 2.5625 C5.035 2.5625 5.695 2.5625 6.375 2.5625 C6.705 1.9025 7.035 1.2425 7.375 0.5625 C7.705 1.8825 8.035 3.2025 8.375 4.5625 C3.425 4.5625 -1.525 4.5625 -6.625 4.5625 C-6.625 3.2425 -6.625 1.9225 -6.625 0.5625 C-4.10446405 -0.69776798 -2.7707902 -0.35624445 0 0 Z " fill="#B3AB9A" transform="translate(264.625,98.4375)"/>
<path d="M0 0 C1.70884005 1.62339805 3.37446717 3.29319053 5 5 C5 5.66 5 6.32 5 7 C2.69 7.33 0.38 7.66 -2 8 C-2 8.66 -2 9.32 -2 10 C-2.66 10 -3.32 10 -4 10 C-5.1875 7.75 -5.1875 7.75 -6 5 C-4.625 2.6875 -4.625 2.6875 -3 1 C-3 1.66 -3 2.32 -3 3 C-2.01 3 -1.02 3 0 3 C0 2.01 0 1.02 0 0 Z " fill="#F0F3FB" transform="translate(129,303)"/>
<path d="M0 0 C1.32 0 2.64 0 4 0 C4 1.32 4 2.64 4 4 C4.66 4.33 5.32 4.66 6 5 C4.02 5 2.04 5 0 5 C0 4.34 0 3.68 0 3 C-0.66 3 -1.32 3 -2 3 C-2.33 3.66 -2.66 4.32 -3 5 C-3.33 4.67 -3.66 4.34 -4 4 C-4.66 4.66 -5.32 5.32 -6 6 C-7.32 5.34 -8.64 4.68 -10 4 C-10 3.01 -10 2.02 -10 1 C-9.36191406 1.01160156 -8.72382813 1.02320313 -8.06640625 1.03515625 C-7.24011719 1.04417969 -6.41382813 1.05320312 -5.5625 1.0625 C-4.32693359 1.07990234 -4.32693359 1.07990234 -3.06640625 1.09765625 C-1.00836062 1.23267348 -1.00836062 1.23267348 0 0 Z " fill="#C09CB2" transform="translate(318,298)"/>
<path d="M0 0 C0.99 0 1.98 0 3 0 C3.33 1.32 3.66 2.64 4 4 C2.68 4 1.36 4 0 4 C0 4.66 0 5.32 0 6 C-1.32 6 -2.64 6 -4 6 C-4.66 5.34 -5.32 4.68 -6 4 C-6.99 4 -7.98 4 -9 4 C-9 3.01 -9 2.02 -9 1 C-6.03609162 -0.48195419 -3.27556022 -0.05746597 0 0 Z " fill="#C1B7AD" transform="translate(317,111)"/>
<path d="M0 0 C-1 3 -1 3 -3.1875 4.8125 C-6 6 -6 6 -9.3125 5.1875 C-10.199375 4.795625 -11.08625 4.40375 -12 4 C-11.67 2.68 -11.34 1.36 -11 0 C-6.98195309 -0.84098656 -3.98196457 -1.05404945 0 0 Z " fill="#B0B6BD" transform="translate(119,277)"/>
<path d="M0 0 C0.99 0.33 1.98 0.66 3 1 C3.99 0.67 4.98 0.34 6 0 C7.73324119 0.08461492 9.46392812 0.23604355 11.1875 0.4375 C12.53908203 0.59025391 12.53908203 0.59025391 13.91796875 0.74609375 C14.60503906 0.82988281 15.29210937 0.91367187 16 1 C15.67 1.99 15.34 2.98 15 4 C9.66666667 4 4.33333333 4 -1 4 C-0.67 2.68 -0.34 1.36 0 0 Z " fill="#B5B2BA" transform="translate(162,310)"/>
<path d="M0 0 C0.99 0.33 1.98 0.66 3 1 C2.67 2.65 2.34 4.3 2 6 C-5.42857143 6.28571429 -5.42857143 6.28571429 -9 4 C-9 3.01 -9 2.02 -9 1 C-7.88625 1.020625 -6.7725 1.04125 -5.625 1.0625 C-2.16784079 1.26380718 -2.16784079 1.26380718 0 0 Z " fill="#D1BACC" transform="translate(255,306)"/>
<path d="M0 0 C0 0.66 0 1.32 0 2 C1.32 2 2.64 2 4 2 C3.67 3.32 3.34 4.64 3 6 C-0.3 6 -3.6 6 -7 6 C-7.33 4.68 -7.66 3.36 -8 2 C-2.25 0 -2.25 0 0 0 Z " fill="#C1B6AD" transform="translate(330,110)"/>
<path d="M0 0 C0.33 0.66 0.66 1.32 1 2 C1.66 2 2.32 2 3 2 C3 3.32 3 4.64 3 6 C-3.75 5.125 -3.75 5.125 -6 4 C-6.66 4.66 -7.32 5.32 -8 6 C-8.33 4.68 -8.66 3.36 -9 2 C-6.01758453 1.22678118 -3.02419525 0.58803797 0 0 Z " fill="#B5B09D" transform="translate(263,89)"/>
<path d="M0 0 C0.33 0.99 0.66 1.98 1 3 C1.62648437 2.91621094 2.25296875 2.83242187 2.8984375 2.74609375 C3.71570313 2.64425781 4.53296875 2.54242188 5.375 2.4375 C6.18710938 2.33308594 6.99921875 2.22867188 7.8359375 2.12109375 C10 2 10 2 12 3 C12 3.99 12 4.98 12 6 C7.71 6 3.42 6 -1 6 C-1 1 -1 1 0 0 Z " fill="#BCB8A6" transform="translate(245,97)"/>
<path d="M0 0 C1.32 0 2.64 0 4 0 C3.67 1.32 3.34 2.64 3 4 C2.34 3.34 1.68 2.68 1 2 C-2.72614153 3.11854586 -2.72614153 3.11854586 -5 6 C-5.66 5.67 -6.32 5.34 -7 5 C-7.99 4.67 -8.98 4.34 -10 4 C-9.6875 2.0625 -9.6875 2.0625 -9 0 C-5.47815362 -1.17394879 -3.60609634 -0.66234423 0 0 Z " fill="#BAA7A2" transform="translate(324,120)"/>
<path d="M0 0 C0.66 0 1.32 0 2 0 C2 1.65 2 3.3 2 5 C-1.96 5 -5.92 5 -10 5 C-9.67 3.68 -9.34 2.36 -9 1 C-7.700625 1.020625 -6.40125 1.04125 -5.0625 1.0625 C-3.70834367 1.08399454 -2.35243917 1.07148199 -1 1 C-0.67 0.67 -0.34 0.34 0 0 Z " fill="#A5ABB1" transform="translate(89,276)"/>
<path d="M0 0 C0 1.65 0 3.3 0 5 C-1.32 5 -2.64 5 -4 5 C-6.33634657 5.31151288 -8.67038557 5.64159778 -11 6 C-10.67 4.35 -10.34 2.7 -10 1 C-7.66666667 1 -5.33333333 1 -3 1 C-1 0 -1 0 0 0 Z " fill="#B7B4A0" transform="translate(249,89)"/>
<path d="M0 0 C0.99 0.33 1.98 0.66 3 1 C3.33 1.99 3.66 2.98 4 4 C3.34 4 2.68 4 2 4 C2.33 4.99 2.66 5.98 3 7 C2.34 7 1.68 7 1 7 C0.87625 7.639375 0.7525 8.27875 0.625 8.9375 C0.41875 9.618125 0.2125 10.29875 0 11 C-0.99 11.495 -0.99 11.495 -2 12 C-1.979375 11.05125 -1.95875 10.1025 -1.9375 9.125 C-1.77448174 6.09333717 -1.77448174 6.09333717 -3 4 C-2.01 2.68 -1.02 1.36 0 0 Z " fill="#E9BDFC" transform="translate(323,352)"/>
<path d="M0 0 C1.46022163 0.95545366 2.91811468 1.91446678 4.375 2.875 C5.18710938 3.40867188 5.99921875 3.94234375 6.8359375 4.4921875 C10.86610526 7.30021053 10.86610526 7.30021053 11.4140625 10.1640625 C11.48367187 10.97617188 11.55328125 11.78828125 11.625 12.625 C11.69976562 13.44226563 11.77453125 14.25953125 11.8515625 15.1015625 C11.92503906 16.04128906 11.92503906 16.04128906 12 17 C11.34 17.33 10.68 17.66 10 18 C9.67 14.7 9.34 11.4 9 8 C8.2575 7.731875 7.515 7.46375 6.75 7.1875 C4.09090121 6.0392528 2.12218515 4.96498625 0 3 C0 2.01 0 1.02 0 0 Z " fill="#DEEFE3" transform="translate(100,148)"/>
<path d="M0 0 C0 0.66 0 1.32 0 2 C2.31 2 4.62 2 7 2 C7 3.65 7 5.3 7 7 C6.01 7 5.02 7 4 7 C3.34 6.34 2.68 5.68 2 5 C0.65737935 5.29369827 -0.67696283 5.6278958 -2 6 C-2.66 5.67 -3.32 5.34 -4 5 C-4 3.68 -4 2.36 -4 1 C-2 0 -2 0 0 0 Z " fill="#AEA893" transform="translate(87,92)"/>
<path d="M0 0 C0.66 0.33 1.32 0.66 2 1 C1.34 2.32 0.68 3.64 0 5 C-0.66 5 -1.32 5 -2 5 C-1.34 6.32 -0.68 7.64 0 9 C-1.6875 10.625 -1.6875 10.625 -4 12 C-6.75 11.1875 -6.75 11.1875 -9 10 C-9 9.01 -9 8.02 -9 7 C-8.34 7 -7.68 7 -7 7 C-7 7.66 -7 8.32 -7 9 C-4.08511023 6.3765992 -2.11496102 3.28183606 0 0 Z " fill="#F0F7FF" transform="translate(139,289)"/>
<path d="M0 0 C0 1.32 0 2.64 0 4 C-3.33333333 4 -6.66666667 4 -10 4 C-9.625 2.0625 -9.625 2.0625 -9 0 C-5.93109813 -1.53445094 -3.29905734 -0.54984289 0 0 Z " fill="#C4A0B8" transform="translate(314,307)"/>
<path d="M0 0 C0 0.66 0 1.32 0 2 C1.98 2 3.96 2 6 2 C5.67 3.32 5.34 4.64 5 6 C2.36 6 -0.28 6 -3 6 C-3.33 4.35 -3.66 2.7 -4 1 C-2 0 -2 0 0 0 Z " fill="#A8A4AB" transform="translate(141,300)"/>
<path d="M0 0 C0.33 0.66 0.66 1.32 1 2 C2.98 2 4.96 2 7 2 C7 3.32 7 4.64 7 6 C6.2575 5.814375 5.515 5.62875 4.75 5.4375 C2.05009037 5.00796892 0.55368923 5.14877026 -2 6 C-2.33 4.35 -2.66 2.7 -3 1 C-2.01 0.67 -1.02 0.34 0 0 Z " fill="#B9B9A8" transform="translate(99,92)"/>
<path d="M0 0 C1.8125 2.375 1.8125 2.375 3 5 C3.33 5.66 3.66 6.32 4 7 C3.01 7.33 2.02 7.66 1 8 C0.34 7.01 -0.32 6.02 -1 5 C-1.99 5 -2.98 5 -4 5 C-4.66 4.34 -5.32 3.68 -6 3 C-6.99 3 -7.98 3 -9 3 C-9 2.34 -9 1.68 -9 1 C-5.67339034 -0.10886989 -3.48117973 -0.43514747 0 0 Z " fill="#E8FDF1" transform="translate(192,130)"/>
<path d="M0 0 C0.33 1.32 0.66 2.64 1 4 C-0.32 4.33 -1.64 4.66 -3 5 C-3 4.34 -3 3.68 -3 3 C-3.4125 3.515625 -3.825 4.03125 -4.25 4.5625 C-4.8275 5.036875 -5.405 5.51125 -6 6 C-8.1875 5.6875 -8.1875 5.6875 -10 5 C-10 3.68 -10 2.36 -10 1 C-9.36191406 1.01160156 -8.72382812 1.02320312 -8.06640625 1.03515625 C-7.24011719 1.04417969 -6.41382812 1.05320312 -5.5625 1.0625 C-4.32693359 1.07990234 -4.32693359 1.07990234 -3.06640625 1.09765625 C-1.00836062 1.23267348 -1.00836062 1.23267348 0 0 Z " fill="#B7B6A3" transform="translate(118,93)"/>
<path d="M0 0 C5.46875 4.39453125 5.46875 4.39453125 7 6 C7 6.99 7 7.98 7 9 C4 10 4 10 0 9 C0 6.03 0 3.06 0 0 Z " fill="#D6E2E6" transform="translate(43,4)"/>
<path d="M0 0 C0 0.66 0 1.32 0 2 C1.98 2 3.96 2 6 2 C6 2.66 6 3.32 6 4 C-0.28571429 6.42857143 -0.28571429 6.42857143 -4 5 C-4 3.68 -4 2.36 -4 1 C-2 0 -2 0 0 0 Z " fill="#A59EA3" transform="translate(184,300)"/>
<path d="M0 0 C0 3.77910478 -0.99703962 4.46106101 -3.5 7.1875 C-4.1496875 7.90292969 -4.799375 8.61835938 -5.46875 9.35546875 C-5.9740625 9.89816406 -6.479375 10.44085938 -7 11 C-7 8 -7 8 -5 5 C-6.4540625 4.814375 -6.4540625 4.814375 -7.9375 4.625 C-8.948125 4.41875 -9.95875 4.2125 -11 4 C-11.33 3.34 -11.66 2.68 -12 2 C-11.38511719 2.10699219 -10.77023438 2.21398437 -10.13671875 2.32421875 C-8.92435547 2.50404297 -8.92435547 2.50404297 -7.6875 2.6875 C-6.88699219 2.81511719 -6.08648437 2.94273437 -5.26171875 3.07421875 C-2.90350321 3.22742807 -2.90350321 3.22742807 -1.20703125 1.51953125 C-0.80871094 1.01808594 -0.41039062 0.51664063 0 0 Z " fill="#E8C8D1" transform="translate(216,204)"/>
<path d="M0 0 C3.375 -0.125 3.375 -0.125 7 0 C7.66 0.66 8.32 1.32 9 2 C8.67 2.99 8.34 3.98 8 5 C5 6 5 6 2.3125 4.75 C1.549375 4.1725 0.78625 3.595 0 3 C0 2.01 0 1.02 0 0 Z " fill="#EAFEED" transform="translate(226,126)"/>
<path d="M0 0 C1.9375 0.3125 1.9375 0.3125 4 1 C4.33 1.99 4.66 2.98 5 4 C5.66 4 6.32 4 7 4 C7 3.34 7 2.68 7 2 C7.66 2 8.32 2 9 2 C9 2.99 9 3.98 9 5 C5.94152152 5.54372951 3.11227195 6 0 6 C0 4.02 0 2.04 0 0 Z " fill="#B5B09C" transform="translate(211,89)"/>
<path d="M0 0 C4.62 0 9.24 0 14 0 C13.67 0.99 13.34 1.98 13 3 C10.66666667 3 8.33333333 3 6 3 C6 2.34 6 1.68 6 1 C5.34 1 4.68 1 4 1 C3.67 1.66 3.34 2.32 3 3 C1.68 3 0.36 3 -1 3 C-0.67 2.01 -0.34 1.02 0 0 Z " fill="#ACA7AE" transform="translate(146,311)"/>
<path d="M0 0 C0.3125 2.8125 0.3125 2.8125 0 6 C-2.5 7.875 -2.5 7.875 -5 9 C-5.99 8.34 -6.98 7.68 -8 7 C-2.65789474 0 -2.65789474 0 0 0 Z " fill="#D6B9E7" transform="translate(400,296)"/>
<path d="M0 0 C0.66 0.66 1.32 1.32 2 2 C1.34 3.65 0.68 5.3 0 7 C-0.66 7 -1.32 7 -2 7 C-2 8.32 -2 9.64 -2 11 C-2.66 11 -3.32 11 -4 11 C-4.8125 8.3125 -4.8125 8.3125 -5 5 C-2.5625 2.125 -2.5625 2.125 0 0 Z " fill="#F1F7FF" transform="translate(142,277)"/>
<path d="M0 0 C0.33 0 0.66 0 1 0 C1.33 9.9 1.66 19.8 2 30 C1.01 30 0.02 30 -1 30 C-0.67 20.1 -0.34 10.2 0 0 Z " fill="#C4865B" transform="translate(290,263)"/>
<path d="M0 0 C0.99 0 1.98 0 3 0 C2.67 9.9 2.34 19.8 2 30 C1.67 30 1.34 30 1 30 C0.67 20.1 0.34 10.2 0 0 Z " fill="#BF556A" transform="translate(316,132)"/>
<path d="M0 0 C0.99 0 1.98 0 3 0 C2.67 9.9 2.34 19.8 2 30 C1.67 30 1.34 30 1 30 C0.67 20.1 0.34 10.2 0 0 Z " fill="#C1B262" transform="translate(104,114)"/>
<path d="M0 0 C0.33 0 0.66 0 1 0 C1 1.65 1 3.3 1 5 C-2.3 5.33 -5.6 5.66 -9 6 C-9.33 5.01 -9.66 4.02 -10 3 C-8 1 -8 1 -5.5 0.8125 C-3 1 -3 1 -1 2 C-0.67 1.34 -0.34 0.68 0 0 Z " fill="#BF9BAD" transform="translate(294,306)"/>
<path d="M0 0 C2 1 2 1 2.875 2.8125 C3 5 3 5 1.25 7.25 C-1 9 -1 9 -4 9 C-4 7.35 -4 5.7 -4 4 C-3.01 3.67 -2.02 3.34 -1 3 C-0.67 2.01 -0.34 1.02 0 0 Z " fill="#DBBDED" transform="translate(365,302)"/>
<path d="M0 0 C0.99 0 1.98 0 3 0 C2.67 9.57 2.34 19.14 2 29 C1.67 29 1.34 29 1 29 C0.67 19.43 0.34 9.86 0 0 Z " fill="#A85C74" transform="translate(244,111)"/>
<path d="M0 0 C0.66 0.33 1.32 0.66 2 1 C1.67 1.66 1.34 2.32 1 3 C1.66 3 2.32 3 3 3 C3 4.65 3 6.3 3 8 C-1.75 7.125 -1.75 7.125 -4 6 C-4 5.01 -4 4.02 -4 3 C-3.01 3 -2.02 3 -1 3 C-0.67 2.01 -0.34 1.02 0 0 Z " fill="#B6B6BC" transform="translate(132,299)"/>
<path d="M0 0 C-0.66 1.32 -1.32 2.64 -2 4 C-5.63 4 -9.26 4 -13 4 C-12.67 3.01 -12.34 2.02 -12 1 C-12 1.66 -12 2.32 -12 3 C-11.34 3 -10.68 3 -10 3 C-10 2.34 -10 1.68 -10 1 C-6.87524604 -0.56237698 -3.44998644 0 0 0 Z " fill="#B5B39E" transform="translate(102,102)"/>
<path d="M0 0 C2 3.75 2 3.75 2 6 C1.34 6 0.68 6 0 6 C-0.33 6.66 -0.66 7.32 -1 8 C-2.32 8 -3.64 8 -5 8 C-4.67 6.02 -4.34 4.04 -4 2 C-3.01 2 -2.02 2 -1 2 C-0.67 1.34 -0.34 0.68 0 0 Z " fill="#E8F5E0" transform="translate(139,28)"/>
<path d="M0 0 C2.31 0 4.62 0 7 0 C6.67 1.65 6.34 3.3 6 5 C2.25 6.125 2.25 6.125 0 5 C0 3.35 0 1.7 0 0 Z " fill="#C1C1AC" transform="translate(221,89)"/>
<path d="M0 0 C1.52519276 0.08937803 3.04681929 0.24537146 4.5625 0.4375 C5.80193359 0.59025391 5.80193359 0.59025391 7.06640625 0.74609375 C7.70449219 0.82988281 8.34257812 0.91367188 9 1 C8.34 2.32 7.68 3.64 7 5 C4.69 5 2.38 5 0 5 C-0.5625 3.0625 -0.5625 3.0625 -1 1 C-0.67 0.67 -0.34 0.34 0 0 Z " fill="#C1C4B3" transform="translate(123,101)"/>
<path d="M0 0 C2.31 0 4.62 0 7 0 C7 1.98 7 3.96 7 6 C4.03824877 5.38722388 2.61941217 4.74627478 0 3 C0 2.01 0 1.02 0 0 Z " fill="#A4A9AE" transform="translate(70,277)"/>
<path d="M0 0 C0.33 0.99 0.66 1.98 1 3 C-0.4375 5.6875 -0.4375 5.6875 -2 8 C-2.99 7.01 -3.98 6.02 -5 5 C-3.35 3.35 -1.7 1.7 0 0 Z M-8 10 C-7.67 10.99 -7.34 11.98 -7 13 C-7.66 13 -8.32 13 -9 13 C-8.67 12.01 -8.34 11.02 -8 10 Z " fill="#F0D9FF" transform="translate(257,375)"/>
<path d="M0 0 C1.485 0.99 1.485 0.99 3 2 C3.99 2.33 4.98 2.66 6 3 C5.67 4.65 5.34 6.3 5 8 C3 7 1 6 -1 5 C-0.67 3.35 -0.34 1.7 0 0 Z " fill="#A1A5AD" transform="translate(55,275)"/>
<path d="M0 0 C3.63 0 7.26 0 11 0 C11 0.66 11 1.32 11 2 C7.37 2.33 3.74 2.66 0 3 C0 2.01 0 1.02 0 0 Z " fill="#FCCDAE" transform="translate(270,258)"/>
<path d="M0 0 C1.32 0 2.64 0 4 0 C4 0.66 4 1.32 4 2 C5.98 2 7.96 2 10 2 C10 1.34 10 0.68 10 0 C11.32 0 12.64 0 14 0 C14 0.99 14 1.98 14 3 C9.38 3 4.76 3 0 3 C0 2.01 0 1.02 0 0 Z " fill="#EBE8EE" transform="translate(75,199)"/>
<path d="M0 0 C0.66 0 1.32 0 2 0 C2 0.66 2 1.32 2 2 C6.62 2.99 11.24 3.98 16 5 C16 5.33 16 5.66 16 6 C12.37 6 8.74 6 5 6 C5 5.34 5 4.68 5 4 C3.35 3.67 1.7 3.34 0 3 C0 2.01 0 1.02 0 0 Z " fill="#F6E9B3" transform="translate(141,153)"/>
<path d="M0 0 C0.33 1.32 0.66 2.64 1 4 C2.98 4 4.96 4 7 4 C6.67 4.66 6.34 5.32 6 6 C4.35 6 2.7 6 1 6 C0.67 6.99 0.34 7.98 0 9 C-0.99 7.68 -1.98 6.36 -3 5 C-2.01 3.35 -1.02 1.7 0 0 Z " fill="#FF923D" transform="translate(269,252)"/>
<path d="M0 0 C7.75 -0.125 7.75 -0.125 10 1 C9.67 1.99 9.34 2.98 9 4 C7.88625 3.814375 6.7725 3.62875 5.625 3.4375 C2.17431139 2.68319343 2.17431139 2.68319343 0 4 C0 2.68 0 1.36 0 0 Z " fill="#A1A5AE" transform="translate(87,286)"/>
<path d="M0 0 C1.41569064 -0.08167446 2.83276805 -0.13949698 4.25 -0.1875 C5.43335937 -0.23970703 5.43335937 -0.23970703 6.640625 -0.29296875 C9 0 9 0 13 3 C8.38 3 3.76 3 -1 3 C-0.67 2.01 -0.34 1.02 0 0 Z " fill="#B0A7BA" transform="translate(76,204)"/>
<path d="M0 0 C0.33 0 0.66 0 1 0 C1 1.65 1 3.3 1 5 C-4.41538462 6.23076923 -4.41538462 6.23076923 -7.375 5.0625 C-7.91125 4.711875 -8.4475 4.36125 -9 4 C-9 3.34 -9 2.68 -9 2 C-6.03 2 -3.06 2 0 2 C0 1.34 0 0.68 0 0 Z " fill="#AFAA95" transform="translate(149,92)"/>
<path d="M0 0 C2.97 0 5.94 0 9 0 C8.67 0.99 8.34 1.98 8 3 C5 3 2 3 -1 3 C-0.67 2.01 -0.34 1.02 0 0 Z " fill="#B5B39E" transform="translate(121,94)"/>
<path d="M0 0 C2.64 0 5.28 0 8 0 C8.33 0.99 8.66 1.98 9 3 C4.545 3.495 4.545 3.495 0 4 C0 2.68 0 1.36 0 0 Z " fill="#A9A5AA" transform="translate(162,302)"/>
<path d="M0 0 C3.3 0 6.6 0 10 0 C10 0.66 10 1.32 10 2 C6.7 2.33 3.4 2.66 0 3 C0 2.01 0 1.02 0 0 Z " fill="#FACEB1" transform="translate(271,252)"/>
<path d="M0 0 C1.57554035 2.88628401 2.46276373 5.53342384 3.125 8.75 C3.29257812 9.54921875 3.46015625 10.3484375 3.6328125 11.171875 C3.81457031 12.07679688 3.81457031 12.07679688 4 13 C3.01 13.33 2.02 13.66 1 14 C0.63794536 12.04310963 0.28558579 10.08442332 -0.0625 8.125 C-0.25972656 7.03445312 -0.45695312 5.94390625 -0.66015625 4.8203125 C-1 2 -1 2 0 0 Z " fill="#F0D2DD" transform="translate(298,246)"/>
<path d="M0 0 C1.65 0 3.3 0 5 0 C5 0.99 5 1.98 5 3 C0.05 3 -4.9 3 -10 3 C-10 2.67 -10 2.34 -10 2 C-6.7 2 -3.4 2 0 2 C0 1.34 0 0.68 0 0 Z " fill="#F7F6F7" transform="translate(85,194)"/>
<path d="M0 0 C3.3 0 6.6 0 10 0 C9.34 2.31 8.68 4.62 8 7 C7.67 6.01 7.34 5.02 7 4 C7.33 3.34 7.66 2.68 8 2 C5.69 2 3.38 2 1 2 C0.67 1.34 0.34 0.68 0 0 Z " fill="#F8E4A0" transform="translate(150,151)"/>
<path d="M0 0 C1.32 0.66 2.64 1.32 4 2 C4 3.32 4 4.64 4 6 C2 7.75 2 7.75 0 9 C0 6 0 3 0 0 Z " fill="#FAEAE9" transform="translate(322,196)"/>
<path d="M0 0 C1.98 0 3.96 0 6 0 C6.33 1.32 6.66 2.64 7 4 C6.67 3.34 6.34 2.68 6 2 C5.34 2 4.68 2 4 2 C4 2.66 4 3.32 4 4 C2.35 4 0.7 4 -1 4 C-0.67 2.68 -0.34 1.36 0 0 Z " fill="#B9B9A7" transform="translate(80,102)"/>
<path d="M0 0 C1.98 0 3.96 0 6 0 C5.67 1.32 5.34 2.64 5 4 C3.02 4 1.04 4 -1 4 C-0.67 2.68 -0.34 1.36 0 0 Z " fill="#B6B19E" transform="translate(210,99)"/>
<path d="M0 0 C0.33 1.32 0.66 2.64 1 4 C-1.97 4 -4.94 4 -8 4 C-7.67 3.01 -7.34 2.02 -7 1 C-4.53721199 -0.231394 -2.7204945 -0.07159196 0 0 Z " fill="#ABA9AF" transform="translate(142,310)"/>
<path d="M0 0 C1.98 0 3.96 0 6 0 C6 0.99 6 1.98 6 3 C4.02 3.66 2.04 4.32 0 5 C0 3.35 0 1.7 0 0 Z " fill="#B4B0B9" transform="translate(109,311)"/>
<path d="M0 0 C2.64 0 5.28 0 8 0 C8 0.99 8 1.98 8 3 C6.0625 3.5625 6.0625 3.5625 4 4 C3.67 3.67 3.34 3.34 3 3 C2.34 3.66 1.68 4.32 1 5 C0.67 3.35 0.34 1.7 0 0 Z " fill="#ABA6AC" transform="translate(152,302)"/>
<path d="M0 0 C2.31 0 4.62 0 7 0 C7 1.65 7 3.3 7 5 C6.01 5 5.02 5 4 5 C3.34 4.34 2.68 3.68 2 3 C1.34 3 0.68 3 0 3 C0 2.01 0 1.02 0 0 Z " fill="#BC98A8" transform="translate(276,299)"/>
<path d="M0 0 C2.31 0 4.62 0 7 0 C6.67 1.32 6.34 2.64 6 4 C4.02 4 2.04 4 0 4 C0 2.68 0 1.36 0 0 Z " fill="#A6AAB0" transform="translate(46,277)"/>
<path d="M0 0 C3.63 0 7.26 0 11 0 C11 0.33 11 0.66 11 1 C9.35 1 7.7 1 6 1 C6 1.66 6 2.32 6 3 C4.02 3 2.04 3 0 3 C0 2.01 0 1.02 0 0 Z " fill="#FBD3B9" transform="translate(270,247)"/>
<path d="M0 0 C0 1.32 0 2.64 0 4 C-0.99 4 -1.98 4 -3 4 C-3 3.34 -3 2.68 -3 2 C-3.66 2 -4.32 2 -5 2 C-5.33 2.66 -5.66 3.32 -6 4 C-6.33 2.68 -6.66 1.36 -7 0 C-3.98968256 -0.93423645 -3.13349732 -1.04449911 0 0 Z " fill="#BFB8AB" transform="translate(307,111)"/>
<path d="M0 0 C2.31 0 4.62 0 7 0 C6.67 0.99 6.34 1.98 6 3 C2.9375 4.1875 2.9375 4.1875 0 5 C0 3.35 0 1.7 0 0 Z " fill="#CFDEE1" transform="translate(0,0)"/>
<path d="M0 0 C2.97 0 5.94 0 9 0 C8.67 0.99 8.34 1.98 8 3 C5.36 3 2.72 3 0 3 C0 2.01 0 1.02 0 0 Z " fill="#ACA6AE" transform="translate(169,311)"/>
<path d="M0 0 C2.64 0 5.28 0 8 0 C7.01 0.495 7.01 0.495 6 1 C6.66 1.33 7.32 1.66 8 2 C8 2.66 8 3.32 8 4 C7.01 4.33 6.02 4.66 5 5 C5 4.01 5 3.02 5 2 C4.67 2.66 4.34 3.32 4 4 C2.68 3.34 1.36 2.68 0 2 C0 1.34 0 0.68 0 0 Z " fill="#9E9CA1" transform="translate(108,302)"/>
<path d="M0 0 C1.32 0 2.64 0 4 0 C3.67 1.65 3.34 3.3 3 5 C1.68 4.67 0.36 4.34 -1 4 C-0.67 2.68 -0.34 1.36 0 0 Z " fill="#FCFDF4" transform="translate(144,143)"/>
<path d="M0 0 C1.98 0 3.96 0 6 0 C5.67 1.32 5.34 2.64 5 4 C3.68 4 2.36 4 1 4 C0.67 4.66 0.34 5.32 0 6 C0 4.02 0 2.04 0 0 Z " fill="#BDAFA7" transform="translate(307,120)"/>
<path d="M0 0 C-2 3 -2 3 -4.625 3.6875 C-5.800625 3.8421875 -5.800625 3.8421875 -7 4 C-7 2.68 -7 1.36 -7 0 C-4.3333581 -1.33332095 -2.83319697 -0.67102033 0 0 Z " fill="#C5C6B3" transform="translate(265,99)"/>
<path d="M0 0 C0 1.98 0 3.96 0 6 C-1.65 5.67 -3.3 5.34 -5 5 C-4.625 3.0625 -4.625 3.0625 -4 1 C-2 0 -2 0 0 0 Z " fill="#B3AF9B" transform="translate(272,90)"/>
<path d="M0 0 C1.32 0.66 2.64 1.32 4 2 C3.01 2.495 3.01 2.495 2 3 C1.67 3.66 1.34 4.32 1 5 C-1.5625 5.625 -1.5625 5.625 -4 6 C-3.67 4.68 -3.34 3.36 -3 2 C-2.34 2 -1.68 2 -1 2 C-0.67 1.34 -0.34 0.68 0 0 Z " fill="#DEF3F7" transform="translate(60,82)"/>
<path d="M0 0 C0.625 1.875 0.625 1.875 1 4 C0.34 4.66 -0.32 5.32 -1 6 C-1.625 4.125 -1.625 4.125 -2 2 C-1.34 1.34 -0.68 0.68 0 0 Z M-2 6 C-2 6.99 -2 7.98 -2 9 C-2.66 9.66 -3.32 10.32 -4 11 C-4.33 10.01 -4.66 9.02 -5 8 C-4.01 7.34 -3.02 6.68 -2 6 Z " fill="#E0B6F2" transform="translate(352,345)"/>
<path d="M0 0 C2.97 0 5.94 0 9 0 C7.515 1.485 7.515 1.485 6 3 C5.34 2.67 4.68 2.34 4 2 C3.67 2.66 3.34 3.32 3 4 C2.01 3.67 1.02 3.34 0 3 C0 2.01 0 1.02 0 0 Z " fill="#C1A3AD" transform="translate(246,307)"/>
<path d="M0 0 C2.97 0.495 2.97 0.495 6 1 C6 1.99 6 2.98 6 4 C4.02 4 2.04 4 0 4 C0 2.68 0 1.36 0 0 Z " fill="#C099B3" transform="translate(322,307)"/>
<path d="M0 0 C1.98 0 3.96 0 6 0 C5.67 0.99 5.34 1.98 5 3 C2.4375 4.1875 2.4375 4.1875 0 5 C0 3.35 0 1.7 0 0 Z " fill="#C29FB4" transform="translate(301,299)"/>
<path d="M0 0 C-0.33 0.99 -0.66 1.98 -1 3 C-1.99 3 -2.98 3 -4 3 C-4.33 3.66 -4.66 4.32 -5 5 C-5.66 4.67 -6.32 4.34 -7 4 C-6.67 2.68 -6.34 1.36 -6 0 C-2.25 -1.125 -2.25 -1.125 0 0 Z " fill="#BE99AC" transform="translate(292,299)"/>
<path d="M0 0 C0.33 0.66 0.66 1.32 1 2 C1.66 2 2.32 2 3 2 C3 3.32 3 4.64 3 6 C1.35 6 -0.3 6 -2 6 C-1.34 4.02 -0.68 2.04 0 0 Z " fill="#CCCDBC" transform="translate(263,89)"/>
<path d="M0 0 C0.99 0.99 1.98 1.98 3 3 C1.1875 4.5625 1.1875 4.5625 -1 6 C-1.99 5.67 -2.98 5.34 -4 5 C-2.93453047 2.86906094 -1.70840281 1.63412443 0 0 Z " fill="#F0D9FF" transform="translate(246,387)"/>
<path d="M0 0 C1.65 0 3.3 0 5 0 C5.33 0.66 5.66 1.32 6 2 C5.67 2.99 5.34 3.98 5 5 C4.34 5 3.68 5 3 5 C2.67 4.34 2.34 3.68 2 3 C1.01 3.495 1.01 3.495 0 4 C0 2.68 0 1.36 0 0 Z " fill="#BB8EAB" transform="translate(329,307)"/>
<path d="M0 0 C0.33 0.99 0.66 1.98 1 3 C1.99 3 2.98 3 4 3 C4 3.99 4 4.98 4 6 C1.69 5.67 -0.62 5.34 -3 5 C-3 4.34 -3 3.68 -3 3 C-2.01 3 -1.02 3 0 3 C0 2.01 0 1.02 0 0 Z " fill="#BBBAC2" transform="translate(117,300)"/>
<path d="M0 0 C4.455 2.97 4.455 2.97 9 6 C8.34 6.66 7.68 7.32 7 8 C5.82512964 7.24172908 4.66027408 6.46792245 3.5 5.6875 C2.52546875 5.04361328 2.52546875 5.04361328 1.53125 4.38671875 C1.0259375 3.92910156 0.520625 3.47148437 0 3 C0 2.01 0 1.02 0 0 Z " fill="#D5E8E5" transform="translate(100,148)"/>
<path d="M0 0 C1.98 0.66 3.96 1.32 6 2 C5.67 3.65 5.34 5.3 5 7 C4.34 6.34 3.68 5.68 3 5 C2.01 4.34 1.02 3.68 0 3 C0 2.01 0 1.02 0 0 Z " fill="#EBFEED" transform="translate(209,117)"/>
<path d="M0 0 C0.99 0.33 1.98 0.66 3 1 C2.67 2.32 2.34 3.64 2 5 C0.68 5 -0.64 5 -2 5 C-2 3.68 -2 2.36 -2 1 C-1.34 0.67 -0.68 0.34 0 0 Z " fill="#B8B5A1" transform="translate(234,98)"/>
<path d="M0 0 C0.33 1.98 0.66 3.96 1 6 C-0.65 5.67 -2.3 5.34 -4 5 C-4 3.68 -4 2.36 -4 1 C-2 0 -2 0 0 0 Z " fill="#C5CAC0" transform="translate(87,92)"/>
<path d="M0 0 C0.66 0 1.32 0 2 0 C2 0.66 2 1.32 2 2 C2.99 1.67 3.98 1.34 5 1 C4.67 2.32 4.34 3.64 4 5 C2.68 5 1.36 5 0 5 C0 3.35 0 1.7 0 0 Z " fill="#B4B09F" transform="translate(60,92)"/>
<path d="M0 0 C1.65 0 3.3 0 5 0 C5 1.32 5 2.64 5 4 C3.35 4 1.7 4 0 4 C0 2.68 0 1.36 0 0 Z " fill="#BC93AA" transform="translate(316,307)"/>
<path d="M0 0 C0 1.98 0 3.96 0 6 C-1.32 5.67 -2.64 5.34 -4 5 C-4 3.68 -4 2.36 -4 1 C-2 0 -2 0 0 0 Z " fill="#C1BDC4" transform="translate(141,300)"/>
<path d="M0 0 C1.65 0 3.3 0 5 0 C5 1.32 5 2.64 5 4 C3.02 4 1.04 4 -1 4 C-0.67 2.68 -0.34 1.36 0 0 Z " fill="#9C9FA8" transform="translate(108,277)"/>
<path d="M0 0 C0.66 0 1.32 0 2 0 C1.67 0.99 1.34 1.98 1 3 C0.34 3 -0.32 3 -1 3 C-0.01 4.65 0.98 6.3 2 8 C0.68 7.34 -0.64 6.68 -2 6 C-2 2 -2 2 0 0 Z " fill="#FCF7F8" transform="translate(314,196)"/>
<path d="M0 0 C1.65 0.33 3.3 0.66 5 1 C4.67 1.99 4.34 2.98 4 4 C2.35 4 0.7 4 -1 4 C-0.67 2.68 -0.34 1.36 0 0 Z " fill="#C19DB2" transform="translate(298,307)"/>
<path d="M0 0 C0.66 0.33 1.32 0.66 2 1 C2 2.65 2 4.3 2 6 C0.68 5.67 -0.64 5.34 -2 5 C-2 3.68 -2 2.36 -2 1 C-1.34 0.67 -0.68 0.34 0 0 Z " fill="#C0BFC7" transform="translate(182,300)"/>
<path d="M0 0 C0.99 0.33 1.98 0.66 3 1 C2.67 1.99 2.34 2.98 2 4 C0.35 4 -1.3 4 -3 4 C-2.67 3.01 -2.34 2.02 -2 1 C-1.34 0.67 -0.68 0.34 0 0 Z " fill="#BAC0C7" transform="translate(123,286)"/>
<path d="M0 0 C1.32 0 2.64 0 4 0 C3.6875 1.9375 3.6875 1.9375 3 4 C2.01 4.33 1.02 4.66 0 5 C0 3.35 0 1.7 0 0 Z " fill="#AAAFB5" transform="translate(50,286)"/>
<path d="M0 0 C0.99 0 1.98 0 3 0 C3 1.98 3 3.96 3 6 C2.01 6 1.02 6 0 6 C0 4.02 0 2.04 0 0 Z " fill="#A0A3A9" transform="translate(120,277)"/>
<path d="M0 0 C0.66 0 1.32 0 2 0 C2 1.65 2 3.3 2 5 C0.02 5 -1.96 5 -4 5 C-3.01 4.67 -2.02 4.34 -1 4 C-0.26676204 1.98491642 -0.26676204 1.98491642 0 0 Z " fill="#B4BBC1" transform="translate(89,276)"/>
<path d="M0 0 C0.66 0 1.32 0 2 0 C1.67 1.32 1.34 2.64 1 4 C0.67 2.68 0.34 1.36 0 0 Z M-1 4 C-0.01 4.33 0.98 4.66 2 5 C2 5.99 2 6.98 2 8 C1.01 8 0.02 8 -1 8 C-1 6.68 -1 5.36 -1 4 Z " fill="#FDCEAB" transform="translate(266,253)"/>
<path d="M0 0 C0.99 0.33 1.98 0.66 3 1 C3.6875 3.0625 3.6875 3.0625 4 5 C2.35 5 0.7 5 -1 5 C-0.67 3.35 -0.34 1.7 0 0 Z " fill="#C1C1AE" transform="translate(239,90)"/>
</svg>
