<?xml version="1.0" encoding="UTF-8"?>
<svg version="1.1" xmlns="http://www.w3.org/2000/svg" width="400" height="400">
<path d="M0 0 C132 0 264 0 400 0 C400 132 400 264 400 400 C268 400 136 400 0 400 C0 268 0 136 0 0 Z " fill="#DAF2CB" transform="translate(0,0)"/>
<path d="M0 0 C1.38177916 -0.00514082 2.76355175 -0.01242333 4.14530945 -0.02168274 C7.89134478 -0.04018496 11.63666766 -0.02726635 15.38267326 -0.00759244 C19.30545746 0.00880549 23.22819693 -0.00002042 27.15100098 -0.00511169 C33.7383155 -0.0096314 40.32534595 0.00622932 46.91259766 0.03417969 C54.52502809 0.06623124 62.13694621 0.06621558 69.74941301 0.04896492 C77.07667486 0.03309314 84.40374915 0.03983751 91.73100281 0.05690193 C94.84735618 0.06376898 97.96355905 0.06274361 101.07991028 0.05535698 C104.7507287 0.04768752 108.42096513 0.05984089 112.09168434 0.08720589 C114.07901828 0.09736139 116.06642215 0.08791403 118.05375671 0.07788086 C119.23979996 0.09060532 120.4258432 0.10332977 121.64782715 0.11643982 C122.67650658 0.11924674 123.705186 0.12205366 124.76503754 0.12494564 C128.3188012 0.76660064 130.01847543 2.11841827 132.56835938 4.63110352 C133.05664062 7.20922852 133.05664062 7.20922852 132.88085938 9.88110352 C132.83574219 10.77313477 132.790625 11.66516602 132.74414062 12.58422852 C132.68613281 13.25969727 132.628125 13.93516602 132.56835938 14.63110352 C129.92097021 16.09173202 128.67387603 16.63110352 125.56835938 16.63110352 C125.16617188 15.45547852 125.16617188 15.45547852 124.75585938 14.25610352 C123.72021505 11.34995429 123.72021505 11.34995429 120.56835938 9.63110352 C118.13362272 9.32394628 118.13362272 9.32394628 115.3684082 9.36367798 C114.29160797 9.35514801 113.21480774 9.34661804 112.1053772 9.33782959 C110.92398163 9.33873596 109.74258606 9.33964233 108.52539062 9.34057617 C107.28131439 9.33385895 106.03723816 9.32714172 104.75546265 9.32022095 C101.34225004 9.30446123 97.92928071 9.29786504 94.51604843 9.29658937 C91.6679837 9.2946908 88.81994236 9.28733399 85.97188663 9.28024518 C79.25435769 9.26395893 72.53688236 9.25907655 65.81933594 9.26049805 C58.88517274 9.26170049 51.95132028 9.24057899 45.01723576 9.20901072 C39.06641961 9.18288238 33.1157052 9.17212925 27.16483212 9.17340887 C23.60942093 9.1739194 20.05428603 9.16818621 16.49893188 9.14705276 C12.53627297 9.12414095 8.5740426 9.1331702 4.61132812 9.14526367 C3.42993256 9.13402466 2.24853699 9.12278564 1.03134155 9.11120605 C-0.04545868 9.11959503 -1.12225891 9.12798401 -2.23168945 9.1366272 C-3.16894363 9.13553766 -4.10619781 9.13444813 -5.07185364 9.13332558 C-7.54299857 9.44048347 -7.54299857 9.44048347 -9.23282814 11.329916 C-10.66372988 14.07661181 -10.8088525 15.85359855 -10.81259155 18.94458008 C-10.82105103 20.02130981 -10.8295105 21.09803955 -10.83822632 22.20739746 C-10.82911728 23.97174133 -10.82911728 23.97174133 -10.81982422 25.77172852 C-10.82770966 27.63565247 -10.82770966 27.63565247 -10.83575439 29.53723145 C-10.84669669 32.94230571 -10.84413088 36.34683319 -10.83461714 39.75187683 C-10.82701901 43.3161187 -10.83406657 46.88033729 -10.83877563 50.44458008 C-10.84423275 56.42997429 -10.83704278 62.41525742 -10.82275391 68.40063477 C-10.80642739 75.31942267 -10.81171593 82.23794536 -10.82823312 89.15672684 C-10.84184929 95.09824518 -10.84376704 101.03968371 -10.83591712 106.98121262 C-10.83124129 110.52930803 -10.83061317 114.07727881 -10.84052658 117.62536621 C-10.8508055 121.58050843 -10.8365566 125.53535384 -10.81982422 129.49047852 C-10.82589691 130.66670776 -10.8319696 131.84293701 -10.83822632 133.05480957 C-10.82976685 134.13153931 -10.82130737 135.20826904 -10.81259155 136.31762695 C-10.81146048 137.25266052 -10.8103294 138.18769409 -10.80916405 139.15106201 C-10.3474769 142.18399511 -9.66396721 143.52574575 -7.43164062 145.63110352 C-4.98750732 146.24819323 -4.98750732 146.24819323 -2.1759491 146.17700195 C-1.08665604 146.1966954 0.00263702 146.21638885 1.12493896 146.23667908 C2.32032288 146.23793289 3.51570679 146.23918671 4.74731445 146.24047852 C6.6354612 146.26562279 6.6354612 146.26562279 8.56175232 146.29127502 C12.01642238 146.33629407 15.4708161 146.35609439 18.9257338 146.37033463 C22.54252823 146.38834852 26.15913254 146.42570564 29.77580261 146.45996094 C35.85285801 146.51426345 41.92985107 146.55173262 48.00708008 146.57983398 C55.02660749 146.61254941 62.04544306 146.67411028 69.06461793 146.75073433 C75.09352272 146.81577256 81.12240763 146.86498646 87.15155524 146.90110588 C90.7512501 146.922695 94.35067787 146.94973267 97.95020485 146.99108887 C101.96731397 147.03621119 105.9838677 147.04816277 110.0012207 147.05688477 C111.19053192 147.07433243 112.37984314 147.09178009 113.60519409 147.10975647 C119.93854842 147.09322636 123.74143234 146.86474165 128.56835938 142.63110352 C131.2157916 140.94637392 132.04573779 140.55644329 135.19335938 141.00610352 C135.97710937 141.21235352 136.76085937 141.41860352 137.56835938 141.63110352 C138.22835937 141.63110352 138.88835937 141.63110352 139.56835938 141.63110352 C139.48585937 140.55860352 139.40335938 139.48610352 139.31835938 138.38110352 C139.56835938 134.63110352 139.56835938 134.63110352 141.13085938 132.50610352 C143.70310782 130.52745087 146.30580972 128.61459826 148.98242188 126.77954102 C150.71940693 125.58538296 150.71940693 125.58538296 152.56835938 123.63110352 C153.89103664 122.61705094 155.22560769 121.61842093 156.56835938 120.63110352 C157.17679688 120.16961914 157.78523437 119.70813477 158.41210938 119.23266602 C160.63797716 117.57939466 162.89766418 115.99838036 165.19335938 114.44360352 C165.969375 113.91379883 166.74539062 113.38399414 167.54492188 112.83813477 C169.56835938 111.63110352 169.56835938 111.63110352 171.56835938 111.63110352 C171.57246826 112.61916992 171.57657715 113.60723633 171.58081055 114.62524414 C171.60273373 118.32335167 171.65715645 122.02041499 171.72094727 125.71801758 C171.7440133 127.3123161 171.75849605 128.90676454 171.76391602 130.5012207 C171.57861208 141.98183531 171.57861208 141.98183531 176.01489258 152.30102539 C179.66356692 155.42502002 183.63432037 155.88338844 188.29234314 155.90525818 C189.43487045 155.91523331 190.57739777 155.92520844 191.75454712 155.93548584 C192.99884491 155.93615051 194.2431427 155.93681519 195.52514648 155.9375 C196.84272446 155.94582352 198.16030243 155.95414703 199.51780701 155.96272278 C203.12524533 155.98462724 206.73259893 155.99346085 210.34009624 155.99854922 C212.59536345 156.00219672 214.8506086 156.00843872 217.10586739 156.01555061 C224.97773333 156.04002822 232.8495335 156.05309395 240.72143555 156.05664062 C248.05325904 156.0602776 255.38466438 156.09018853 262.71636003 156.13204521 C269.01715397 156.16675253 275.3178093 156.18218911 281.61869818 156.18288666 C285.37936056 156.18367915 289.13959644 156.19240449 292.90015984 156.22088432 C297.09446576 156.25194078 301.28777559 156.2430034 305.48217773 156.23046875 C307.34558807 156.25272018 307.34558807 156.25272018 309.24664307 156.27542114 C316.19189885 156.34545882 316.19189885 156.34545882 322.26124573 153.40614319 C326.2605705 148.59568016 326.81872283 145.10260035 326.79541016 138.91308594 C326.79584824 137.9317569 326.79584824 137.9317569 326.79629517 136.93060303 C326.79490919 134.78245473 326.77938308 132.63465948 326.76367188 130.48657227 C326.75993913 128.99156382 326.75709339 127.49655291 326.75509644 126.00154114 C326.74748055 122.07733337 326.72784979 118.15327496 326.70568848 114.22912598 C326.68518586 110.22056091 326.6760853 106.21197159 326.66601562 102.20336914 C326.64460183 94.34587893 326.61049075 86.48850983 326.56835938 78.63110352 C325.24835938 78.96110352 323.92835938 79.29110352 322.56835938 79.63110352 C322.55434082 80.69022949 322.55434082 80.69022949 322.54003906 81.77075195 C322.48630279 84.97490897 322.40266181 88.17761109 322.31835938 91.38110352 C322.30417969 92.49227539 322.29 93.60344727 322.27539062 94.74829102 C322.24316406 95.81821289 322.2109375 96.88813477 322.17773438 97.99047852 C322.15678711 98.975 322.13583984 99.95952148 322.11425781 100.97387695 C321.4287747 104.31054879 320.21083159 105.5450714 317.56835938 107.63110352 C316.90835937 107.63110352 316.24835938 107.63110352 315.56835938 107.63110352 C315.46955008 101.98947275 315.39691942 96.34834452 315.34863281 90.70605469 C315.3285059 88.7863691 315.30120148 86.8667449 315.26660156 84.94726562 C315.21813008 82.18938055 315.19540195 79.43230525 315.17773438 76.67407227 C315.15708923 75.81460495 315.13644409 74.95513763 315.11517334 74.06962585 C315.11291896 68.09571645 315.11291896 68.09571645 317.59277344 65.56591797 C318.2447168 65.2574292 318.89666016 64.94894043 319.56835938 64.63110352 C320.22835938 64.96110352 320.88835937 65.29110352 321.56835938 65.63110352 C322.19335937 68.19360352 322.19335937 68.19360352 322.56835938 70.63110352 C325.33100226 71.22843171 327.72868706 71.63110352 330.56835938 71.63110352 C335.84325937 71.63110352 339.59080201 71.97191773 344.56835938 73.63110352 C345.88835937 73.63110352 347.20835937 73.63110352 348.56835938 73.63110352 C349.55835938 73.96110352 350.54835938 74.29110352 351.56835938 74.63110352 C351.56835938 141.62110352 351.56835938 208.61110352 351.56835938 277.63110352 C219.56835938 277.63110352 87.56835938 277.63110352 -48.43164062 277.63110352 C-48.43164062 197.77110352 -48.43164062 117.91110352 -48.43164062 35.63110352 C-44.8176966 34.72761751 -41.20352991 33.96138147 -37.55273438 33.22875977 C-35.15883381 32.6718589 -35.15883381 32.6718589 -32.43164062 30.63110352 C-31.77164062 30.96110352 -31.11164062 31.29110352 -30.43164062 31.63110352 C-29.77164062 31.30110352 -29.11164062 30.97110352 -28.43164062 30.63110352 C-27.77164062 30.30110352 -27.11164062 29.97110352 -26.43164062 29.63110352 C-25.77164062 29.96110352 -25.11164062 30.29110352 -24.43164062 30.63110352 C-24.10164063 45.81110352 -23.77164062 60.99110352 -23.43164062 76.63110352 C-21.45164062 76.13610352 -21.45164062 76.13610352 -19.43164062 75.63110352 C-19.43021561 74.76524124 -19.42879059 73.89937897 -19.42732239 73.00727844 C-19.40948143 64.84110671 -19.36783574 56.67547629 -19.29955006 48.5095644 C-19.26528144 44.3114796 -19.24017035 40.11375863 -19.23608398 35.91552734 C-19.23180063 31.86273599 -19.20333616 27.81076537 -19.15820885 23.75823021 C-19.1452348 22.21335826 -19.14092589 20.66838809 -19.14548683 19.1234684 C-19.15039412 16.9562519 -19.12430224 14.79143311 -19.09106445 12.62451172 C-19.08440262 11.3920723 -19.07774078 10.15963287 -19.07087708 8.8898468 C-18.43164062 5.63110352 -18.43164062 5.63110352 -16.72990417 2.73345947 C-11.43982445 -0.63850594 -6.14424396 -0.05557673 0 0 Z M326.56835938 68.63110352 C327.55835938 68.96110352 328.54835938 69.29110352 329.56835938 69.63110352 C328.57835937 69.96110352 327.58835937 70.29110352 326.56835938 70.63110352 C326.56835938 69.97110352 326.56835938 69.31110352 326.56835938 68.63110352 Z " fill="#F1FEB4" transform="translate(48.431640625,122.368896484375)"/>
<path d="M0 0 C1.174487 -0.0071553 2.348974 -0.01431061 3.55905151 -0.02168274 C6.77209933 -0.03567695 9.9841018 -0.02727969 13.19709134 -0.00759244 C16.56246962 0.00881706 19.92779616 -0.00002183 23.29319763 -0.00511169 C28.94315858 -0.00962951 34.59278812 0.0062189 40.24267578 0.03417969 C46.77247338 0.06624612 53.30167386 0.06620912 59.83151394 0.04896492 C66.11761489 0.03309678 72.40349715 0.03983408 78.68958855 0.05690193 C81.36299405 0.06377006 84.03622413 0.06274263 86.70962715 0.05535698 C90.44221373 0.04991926 94.17377965 0.07023542 97.90625 0.09765625 C99.01545303 0.09113037 100.12465607 0.08460449 101.26747131 0.07788086 C102.28385681 0.09060532 103.30024231 0.10332977 104.34742737 0.11643982 C105.22954171 0.11924674 106.11165606 0.12205366 107.02050114 0.12494564 C110.21231131 0.80721335 111.40985794 2.07785316 113.38842773 4.63110352 C113.89623642 6.56009293 113.89623642 6.56009293 113.90740967 8.60479736 C113.92132248 9.38439819 113.93523529 10.16399902 113.9495697 10.96722412 C113.94453934 11.81311096 113.93950897 12.6589978 113.93432617 13.53051758 C113.94466385 14.42843018 113.95500153 15.32634277 113.96565247 16.25146484 C113.99512922 19.21673473 113.99658067 22.18132349 113.99780273 25.14672852 C114.01278108 27.2036876 114.02950749 29.26063464 114.0479126 31.31756592 C114.09163704 36.72953843 114.11159657 42.1413487 114.12664795 47.5534668 C114.14620061 53.07683933 114.1881727 58.60003618 114.22827148 64.12329102 C114.30362884 74.95917439 114.35388691 85.79501855 114.38842773 96.63110352 C117.51040251 95.32214632 117.51040251 95.32214632 119.38842773 92.63110352 C119.51789463 90.84223882 119.5908433 89.04911517 119.63452148 87.25610352 C119.68382812 85.65508789 119.68382812 85.65508789 119.73413086 84.02172852 C119.79532601 81.76141416 119.85261819 79.50099076 119.90600586 77.24047852 C119.94016602 76.17313477 119.97432617 75.10579102 120.00952148 74.00610352 C120.04710571 72.53270508 120.04710571 72.53270508 120.08544922 71.02954102 C120.38842773 68.63110352 120.38842773 68.63110352 122.38842773 66.63110352 C124.51342773 67.00610352 124.51342773 67.00610352 126.38842773 67.63110352 C126.45804189 76.26315351 126.51129676 84.89510636 126.54386425 93.52737617 C126.5594977 97.5360114 126.58069322 101.54445409 126.61474609 105.55297852 C126.64742285 109.42388671 126.6652982 113.29461009 126.67305946 117.1656456 C126.6785881 118.63999209 126.68938425 120.11432886 126.7056179 121.58859634 C126.72750361 123.65913738 126.73039014 125.72892183 126.72900391 127.79956055 C126.73899666 129.56494675 126.73899666 129.56494675 126.74919128 131.36599731 C126.17995205 136.51792174 124.30932781 139.52920058 121.01782227 143.46765137 C116.21473035 147.13603002 110.07252725 146.30785318 104.31811523 146.24633789 C102.34152924 146.25466141 102.34152924 146.25466141 100.32501221 146.26315308 C96.72149398 146.27736844 93.11874184 146.26037243 89.51529694 146.2368679 C85.73847279 146.21671743 81.96167915 146.22264064 78.18481445 146.22497559 C71.84305229 146.22492206 65.50158851 146.20519239 59.15991211 146.1730957 C51.83553092 146.13620473 44.51154045 146.12742061 37.18707848 146.13439322 C30.13160316 146.1407058 23.07626135 146.12992999 16.02081299 146.11042786 C13.02254326 146.10226847 10.02434191 146.09954161 7.02606201 146.10112 C2.83675535 146.10216484 -1.35203958 146.0779512 -5.54125977 146.05102539 C-6.78196228 146.05395599 -8.02266479 146.0568866 -9.30096436 146.05990601 C-19.83673038 145.95537016 -19.83673038 145.95537016 -24.61157227 142.63110352 C-28.4985612 138.34201228 -28.73537048 134.59632123 -28.72509766 128.95654297 C-28.72524368 128.28310852 -28.72538971 127.60967407 -28.72554016 126.91583252 C-28.72484402 124.69198373 -28.71706559 122.46821891 -28.70922852 120.24438477 C-28.70736328 118.70167588 -28.70593987 117.1589664 -28.7049408 115.61625671 C-28.70112396 111.55726484 -28.69130078 107.49830878 -28.68023682 103.43933105 C-28.67000479 99.29687993 -28.66543933 95.15442301 -28.66040039 91.01196289 C-28.64967777 82.88499333 -28.63261134 74.75805288 -28.61157227 66.63110352 C-26.67407227 66.06860352 -26.67407227 66.06860352 -24.61157227 65.63110352 C-23.61157227 66.63110352 -23.61157227 66.63110352 -23.49804688 69.49853516 C-23.5059021 71.37593384 -23.5059021 71.37593384 -23.51391602 73.29125977 C-23.51533096 73.95572617 -23.51674591 74.62019257 -23.51820374 75.30479431 C-23.52381708 77.43444251 -23.53637173 79.56398691 -23.54907227 81.69360352 C-23.55408555 83.13435721 -23.55864876 84.57511255 -23.56274414 86.01586914 C-23.57379082 89.55431454 -23.59106435 93.0926989 -23.61157227 96.63110352 C-19.98363228 94.76543864 -19.98363228 94.76543864 -17.61157227 91.63110352 C-17.51508354 88.94202988 -17.47843975 86.2781667 -17.4855957 83.58886719 C-17.48372757 82.75779953 -17.48185944 81.92673187 -17.47993469 81.07048035 C-17.47592568 79.26219684 -17.4738554 77.45390826 -17.4734726 75.64562035 C-17.47006352 71.80292017 -17.44870896 67.96039018 -17.42824173 64.11774921 C-17.39018391 56.95901089 -17.3589578 49.80045252 -17.36108398 42.64160156 C-17.36187061 37.66589549 -17.33852715 32.69080949 -17.29920197 27.71526527 C-17.28873137 25.81869608 -17.28722572 23.9220554 -17.29485321 22.02547264 C-17.3044659 19.37013976 -17.28331095 16.71668656 -17.25512695 14.06152344 C-17.26532364 13.27847839 -17.27552032 12.49543335 -17.286026 11.68865967 C-17.21666837 8.0429812 -16.69713341 5.77197451 -14.79707336 2.64364624 C-9.97745476 -0.40130275 -5.59376958 -0.05907219 0 0 Z " fill="#424D94" transform="translate(249.611572265625,133.368896484375)"/>
<path d="M0 0 C1.86151451 -0.01073296 1.86151451 -0.01073296 3.76063538 -0.02168274 C7.16199996 -0.0356973 10.56184506 -0.02725828 13.96308589 -0.00759244 C17.52419234 0.00879785 21.08524928 -0.00001951 24.64637756 -0.00511169 C30.62766024 -0.00963286 36.60863022 0.00623676 42.58984375 0.03417969 C49.50074349 0.0662174 56.41107882 0.06622182 63.32201856 0.04896492 C69.97385593 0.03308805 76.62548678 0.03984169 83.27731514 0.05690193 C86.10619175 0.0637669 88.93490254 0.06274574 91.76377678 0.05535698 C95.71643374 0.04625713 99.6685133 0.0702546 103.62109375 0.09765625 C104.79372772 0.09113037 105.96636169 0.08460449 107.17453003 0.07788086 C111.53366723 0.1293301 115.0264741 0.29695675 119.10069275 1.90090942 C122.1127123 6.5349809 121.56837897 11.44743974 121.5222168 16.84765625 C121.53097839 18.09841949 121.53973999 19.34918274 121.54876709 20.6378479 C121.56700747 24.06605429 121.56272767 27.4927524 121.54687166 30.92087436 C121.53420646 34.51001933 121.54595473 38.09910016 121.55380249 41.68824768 C121.5628985 47.71659913 121.55091396 53.74464428 121.52709961 59.77294922 C121.49990033 66.73845567 121.50869326 73.70323011 121.53623164 80.66871876 C121.55893813 86.65190654 121.56211503 92.63487421 121.54903829 98.61809117 C121.54125048 102.19032952 121.54018296 105.76222409 121.55672073 109.33444023 C121.57387581 113.31830048 121.55008436 117.30134434 121.5222168 121.28515625 C121.53233795 122.46714096 121.54245911 123.64912567 121.55288696 124.8669281 C121.49226923 129.53830341 121.37050253 132.72931396 119.10069275 136.86228943 C114.05796298 139.62768815 109.28445856 139.3269574 103.62109375 139.27807617 C102.37833176 139.28683777 101.13556976 139.29559937 99.85514832 139.30462646 C96.45392142 139.32284611 93.05421797 139.31860164 89.65307689 139.30273104 C86.09149707 139.29005469 82.52998147 139.30181668 78.96839905 139.30966187 C72.98890519 139.31875228 67.00972036 139.30678558 61.03027344 139.28295898 C54.11868803 139.25573599 47.20783983 139.26457209 40.29627222 139.29209101 C34.35893888 139.3147839 28.4218274 139.31798181 22.4844647 139.30489767 C18.93965892 139.29710556 15.39519966 139.29605465 11.85041618 139.31258011 C7.89998602 139.32971123 3.95038134 139.30596608 0 139.27807617 C-1.1746582 139.28819733 -2.34931641 139.29831848 -3.55957031 139.30874634 C-11.23914349 139.20805185 -11.23914349 139.20805185 -14.85020447 136.8555603 C-16.86744814 131.75218424 -16.67994244 126.83215602 -16.64233398 121.39282227 C-16.64934326 120.15166656 -16.65635254 118.91051086 -16.66357422 117.63174438 C-16.67814977 114.23477514 -16.67475281 110.8387821 -16.66205788 107.44186783 C-16.65191514 103.88343261 -16.66132708 100.32503846 -16.66760254 96.76660156 C-16.67487528 90.79134654 -16.66530122 84.81628942 -16.64624023 78.84106445 C-16.62447199 71.9375418 -16.63152364 65.0344917 -16.65354586 58.13098049 C-16.67171067 52.1987501 -16.67425296 46.26666179 -16.66379118 40.33441257 C-16.65756211 36.79353148 -16.65670422 33.25287236 -16.66993713 29.71200562 C-16.6836606 25.76427916 -16.66462812 21.81708 -16.64233398 17.86938477 C-16.65447937 16.11279037 -16.65447937 16.11279037 -16.66687012 14.32070923 C-16.62119452 9.96076964 -16.45977446 6.47891968 -14.85020447 2.40565491 C-10.2395033 -0.59639259 -5.37555252 -0.05350666 0 0 Z " fill="#049EF0" transform="translate(53.124755859375,130.368896484375)"/>
<path d="M0 0 C0.33 0 0.66 0 1 0 C1.33 23.43 1.66 46.86 2 71 C8.6 71.33 15.2 71.66 22 72 C22 73.32 22 74.64 22 76 C25.15473719 75.64947365 26.8233534 75.13480924 29.375 73.1875 C31.17802005 71.19458113 31.17802005 71.19458113 31.0625 69.0625 C29.5277132 66.08320798 27.5313427 64.16972231 25 62 C24.01 62 23.02 62 22 62 C21.67 63.32 21.34 64.64 21 66 C16.38 66 11.76 66 7 66 C7 44.88 7 23.76 7 2 C13 4 13 4 15.6875 5.25 C16.8321875 5.62125 16.8321875 5.62125 18 6 C18.99 5.34 19.98 4.68 21 4 C21.66 4.99 22.32 5.98 23 7 C23.86625 6.690625 23.86625 6.690625 24.75 6.375 C27.56503702 5.90582716 28.52908735 6.68732766 31 8 C32.32 8 33.64 8 35 8 C37.1875 8.5625 37.1875 8.5625 39 10 C39.75 13.625 39.75 13.625 40 17 C41.32 17.33 42.64 17.66 44 18 C44.66 16.35 45.32 14.7 46 13 C47.66611905 12.957279 49.33382885 12.95936168 51 13 C52.97631161 14.97631161 52.17762065 18.85754374 52.19287109 21.56152344 C52.20513733 22.74938446 52.20513733 22.74938446 52.21765137 23.96124268 C52.242556 26.59394565 52.25903569 29.22659447 52.2734375 31.859375 C52.27876118 32.75688728 52.28408485 33.65439957 52.28956985 34.57910919 C52.31632559 39.3310511 52.33569124 44.08296653 52.35009766 48.83496094 C52.36673652 53.74586211 52.4115007 58.656091 52.4624691 63.56673813 C52.49611865 67.33970922 52.50767268 71.1125205 52.51332474 74.88562775 C52.5200454 76.69575376 52.53528864 78.50586896 52.55921555 80.3158493 C52.5908171 82.8514225 52.59091178 85.38518021 52.58349609 87.92089844 C52.59990143 88.66811157 52.61630676 89.41532471 52.63320923 90.18518066 C52.5854779 94.17531197 52.12008639 95.85035971 49.58853149 99.00494385 C47 101 47 101 45 101 C44.67 91.1 44.34 81.2 44 71 C43.01 71 42.02 71 41 71 C40.67 93.44 40.34 115.88 40 139 C39.67 139 39.34 139 39 139 C39 127.78 39 116.56 39 105 C28.89863186 111.72024921 28.89863186 111.72024921 19.3984375 119.0625 C17.78106535 120.36904167 16.11665885 121.61913942 14.4140625 122.8125 C10.01218384 125.71537325 10.01218384 125.71537325 7.21875 129.9921875 C6.85776488 132.11524788 6.85776488 132.11524788 7 135 C1.25 136.125 1.25 136.125 -1 135 C-2.0828125 135.928125 -2.0828125 135.928125 -3.1875 136.875 C-5.78381938 138.83666353 -7.94671666 139.95316 -11 141 C-11.33 140.34 -11.66 139.68 -12 139 C-11.350704 138.44779659 -10.701408 137.89559319 -10.03243637 137.32665634 C-7.60069455 134.54289022 -7.49562455 133.41051276 -7.48101807 129.77349854 C-7.46710526 128.71623062 -7.45319244 127.65896271 -7.43885803 126.56965637 C-7.44640358 124.83796455 -7.44640358 124.83796455 -7.45410156 123.07128906 C-7.44376389 121.85150864 -7.43342621 120.63172821 -7.42277527 119.37498474 C-7.39833869 116.03415162 -7.39151059 112.69415176 -7.39249516 109.3532877 C-7.38936627 105.86050181 -7.36374867 102.3678827 -7.34051514 98.87518311 C-7.29994949 92.26315744 -7.27961318 85.6512304 -7.26654124 79.03909945 C-7.25067304 71.5106455 -7.21225826 63.98235944 -7.17194796 56.45400286 C-7.08954137 40.96938514 -7.0354541 25.4848007 -7 10 C-5.35 9.67 -3.7 9.34 -2 9 C-1.34 6.03 -0.68 3.06 0 0 Z " fill="#F0FDCA" transform="translate(181,129)"/>
<path d="M0 0 C1.98 0.495 1.98 0.495 4 1 C4 10.9 4 20.8 4 31 C8.71704177 28.44464865 8.71704177 28.44464865 11 26 C11.01401855 27.60439941 11.01401855 27.60439941 11.02832031 29.24121094 C11.06823512 33.2149397 11.13399721 37.18789544 11.20751953 41.16113281 C11.23572067 42.87978169 11.25693954 44.59856005 11.27099609 46.31738281 C11.29243833 48.79038747 11.33909156 51.26183675 11.390625 53.734375 C11.39185364 54.50118591 11.39308228 55.26799683 11.39434814 56.05804443 C11.48603979 59.40811422 11.6260614 61.52024324 13.71821499 64.20444012 C16.42993249 66.33831826 17.64482622 66.49695178 21.05445862 66.48774719 C22.58337234 66.49816292 22.58337234 66.49816292 24.14317322 66.50878906 C25.25551834 66.495979 26.36786346 66.48316895 27.51391602 66.4699707 C29.27783691 66.4732563 29.27783691 66.4732563 31.07739258 66.47660828 C34.29859362 66.47852334 37.51910822 66.4626271 40.74020123 66.43850732 C44.11136409 66.41720249 47.48252503 66.41780574 50.85374451 66.41581726 C56.51384384 66.40937134 62.17372694 66.38812998 67.83374023 66.35668945 C75.09968492 66.31638147 82.36548878 66.2989986 89.63153172 66.28938007 C95.87824228 66.28107881 102.12492301 66.26384308 108.37160754 66.24434257 C109.71244556 66.24029372 111.05328454 66.23655414 112.39412427 66.2331202 C116.80129967 66.22183043 121.20835935 66.2016657 125.61547852 66.17700195 C126.72984787 66.17431305 127.84421722 66.17162415 128.99235535 66.16885376 C130.00881134 66.16169846 131.02526733 66.15454315 132.07252502 66.14717102 C133.39902746 66.1407608 133.39902746 66.1407608 134.75232792 66.13422108 C137.17008783 66.08725683 137.17008783 66.08725683 140 65 C141.16402727 61.50791819 141.21118508 58.60852228 141.31640625 54.92578125 C141.3475779 53.90003242 141.3475779 53.90003242 141.37937927 52.8535614 C141.44466154 50.6733079 141.50366017 48.49293595 141.5625 46.3125 C141.60570553 44.83267014 141.64932047 43.35285217 141.69335938 41.87304688 C141.80032083 38.24882378 141.90164823 34.62446811 142 31 C142.639375 30.71125 143.27875 30.4225 143.9375 30.125 C146.15206079 29.17176549 146.15206079 29.17176549 147 27 C147.1294669 25.21113531 147.20241556 23.41801165 147.24609375 21.625 C147.29540039 20.02398437 147.29540039 20.02398437 147.34570312 18.390625 C147.40689827 16.13031064 147.46419045 13.86988724 147.51757812 11.609375 C147.55173828 10.54203125 147.58589844 9.4746875 147.62109375 8.375 C147.65867798 6.90160156 147.65867798 6.90160156 147.69702148 5.3984375 C148 3 148 3 150 1 C152.125 1.375 152.125 1.375 154 2 C154.06961416 10.63205 154.12286902 19.26400285 154.15543652 27.89627266 C154.17106997 31.90490789 154.19226548 35.91335057 154.22631836 39.921875 C154.25899512 43.79278319 154.27687047 47.66350657 154.28463173 51.53454208 C154.29016037 53.00888858 154.30095651 54.48322534 154.31719017 55.95749283 C154.33907587 58.02803386 154.34196241 60.09781831 154.34057617 62.16845703 C154.35056892 63.93384323 154.35056892 63.93384323 154.36076355 65.7348938 C153.79152432 70.88681822 151.92090008 73.89809706 148.62939453 77.83654785 C143.82630261 81.50492651 137.68409952 80.67674966 131.9296875 80.61523438 C129.9531015 80.62355789 129.9531015 80.62355789 127.93658447 80.63204956 C124.33306625 80.64626493 120.7303141 80.62926891 117.1268692 80.60576439 C113.35004505 80.58561391 109.57325142 80.59153712 105.79638672 80.59387207 C99.45462456 80.59381854 93.11316078 80.57408888 86.77148438 80.54199219 C79.44710318 80.50510121 72.12311272 80.4963171 64.79865074 80.5032897 C57.74317542 80.50960228 50.68783362 80.49882647 43.63238525 80.47932434 C40.63411552 80.47116495 37.63591417 80.46843809 34.63763428 80.47001648 C30.44832761 80.47106133 26.25953269 80.44684768 22.0703125 80.41992188 C20.82960999 80.42285248 19.58890747 80.42578308 18.31060791 80.42880249 C7.77484188 80.32426665 7.77484188 80.32426665 3 77 C-0.87958902 72.71907419 -1.1257116 68.97083927 -1.12939453 63.34130859 C-1.13114685 62.66948044 -1.13289917 61.99765228 -1.13470459 61.3054657 C-1.13910351 59.08642998 -1.13619268 56.86747402 -1.1328125 54.6484375 C-1.13348594 53.10812362 -1.13445631 51.56780985 -1.13571167 50.02749634 C-1.13718585 46.80119819 -1.13504246 43.57492774 -1.13037109 40.34863281 C-1.12466439 36.20444735 -1.12796051 32.06032652 -1.13394356 27.91614342 C-1.13754855 24.73696399 -1.13641104 21.55780002 -1.13381577 18.37862015 C-1.13314682 16.849931 -1.1339738 15.32124048 -1.13629532 13.79255295 C-1.13882187 11.66163129 -1.13498171 9.53081603 -1.12939453 7.39990234 C-1.12859894 6.18539398 -1.12780334 4.97088562 -1.12698364 3.71957397 C-1 1 -1 1 0 0 Z " fill="#E6F5A8" transform="translate(222,199)"/>
<path d="M0 0 C6.50847458 3.25423729 6.50847458 3.25423729 9 8 C10.37485532 9.54166642 10.37485532 9.54166642 12 11 C15.39729043 14.30547177 18.51906898 17.73590721 21.57421875 21.3515625 C23.28919762 23.33435999 25.11075741 25.18342059 27 27 C26.67 27.33 26.34 27.66 26 28 C27.32 29.32 28.64 30.64 30 32 C29.34 32.66 28.68 33.32 28 34 C28.928125 34.0928125 28.928125 34.0928125 29.875 34.1875 C32 35 32 35 33.0625 37.25 C33.371875 38.1575 33.68125 39.065 34 40 C34.97236487 41.6829392 35.96564444 43.35443434 37 45 C36.67 45.33 36.34 45.66 36 46 C36.598125 46.556875 37.19625 47.11375 37.8125 47.6875 C40.01160802 50.01227134 41.43908837 52.21750535 43 55 C44.87012492 58.64943538 44.87012492 58.64943538 48 61 C48 62.32 48 63.64 48 65 C48.7763932 68.0745356 48.7763932 68.0745356 51 70 C49.79667664 71.97161865 49.79667664 71.97161865 48 74 C45.81697083 74.48101807 45.81697083 74.48101807 43.25317383 74.45410156 C41.79192078 74.45337646 41.79192078 74.45337646 40.30114746 74.45263672 C38.76955994 74.42194092 38.76955994 74.42194092 37.20703125 74.390625 C35.79617249 74.38458252 35.79617249 74.38458252 34.35681152 74.37841797 C30.8418427 74.35748291 27.32715185 74.30163734 23.8125 74.25 C15.954375 74.1675 8.09625 74.085 0 74 C0 49.58 0 25.16 0 0 Z " fill="#FAFEF4" transform="translate(0,326)"/>
<path d="M0 0 C1.38044789 -0.00378744 2.76089198 -0.00929099 4.1413269 -0.01637268 C7.87483016 -0.03028808 11.60787057 -0.01918606 15.34134793 -0.00266147 C19.2556397 0.01122968 23.16990571 0.00472444 27.08421326 0.00120544 C33.65533879 -0.00149316 40.2262813 0.01194978 46.79736328 0.03515625 C54.38702709 0.06177494 61.97638517 0.06350831 69.56607968 0.05176789 C76.87836643 0.0409779 84.19054295 0.04718602 91.50282097 0.06132317 C94.60995029 0.06707129 97.71699863 0.06700958 100.8241291 0.06225777 C104.48421232 0.05747507 108.14396197 0.06764269 111.80398178 0.08921242 C113.78276223 0.09740378 115.76158643 0.09094226 117.7403717 0.08401489 C119.51716309 0.09887184 119.51716309 0.09887184 121.32984924 0.11402893 C122.86758924 0.11767377 122.86758924 0.11767377 124.43639469 0.12139225 C129.22748599 0.74524283 132.4511088 2.49768666 135.66967773 6.06420898 C138.40118305 10.00971666 138.47957368 12.16310779 138.47070312 16.97094727 C138.47084915 17.63448212 138.47099518 18.29801697 138.47114563 18.98165894 C138.47044805 21.17847952 138.46266288 23.37521568 138.45483398 25.57202148 C138.45296926 27.09373936 138.45154561 28.61545783 138.45054626 30.13717651 C138.4467254 34.14521945 138.43689878 38.15322624 138.42584229 42.16125488 C138.41561892 46.24999502 138.41104666 50.338741 138.40600586 54.42749023 C138.39527613 62.45224827 138.37768281 70.47696997 138.35717773 78.50170898 C143.30717773 78.50170898 148.25717773 78.50170898 153.35717773 78.50170898 C153.68717773 76.85170898 154.01717773 75.20170898 154.35717773 73.50170898 C157.58258703 74.08495293 159.33293884 75.02385696 161.66967773 77.31420898 C162.20206055 77.8156543 162.73444336 78.31709961 163.28295898 78.83374023 C164.35717773 80.50170898 164.35717773 80.50170898 164.20092773 82.52514648 C162.7672327 85.88370986 160.303954 87.47941155 157.35717773 89.50170898 C154.98217773 89.31420898 154.98217773 89.31420898 153.35717773 88.50170898 C153.35717773 87.51170898 153.35717773 86.52170898 153.35717773 85.50170898 C152.78684814 85.47665283 152.21651855 85.45159668 151.62890625 85.42578125 C149.05891617 85.3101435 146.48932246 85.18727274 143.91967773 85.06420898 C143.0218457 85.02489258 142.12401367 84.98557617 141.19897461 84.94506836 C140.3449707 84.90317383 139.4909668 84.8612793 138.61108398 84.81811523 C137.82032471 84.78145752 137.02956543 84.7447998 136.21484375 84.70703125 C134.35717773 84.50170898 134.35717773 84.50170898 133.35717773 83.50170898 C133.25946727 81.31957256 133.23201459 79.13427396 133.23120117 76.94995117 C133.22839897 75.92302406 133.22839897 75.92302406 133.22554016 74.87535095 C133.22152696 73.38353605 133.21946048 71.89171497 133.21907806 70.39989471 C133.21567209 67.2286224 133.19431871 64.05755688 133.1738472 60.88635635 C133.1357844 54.97702672 133.10456043 49.06791332 133.10668945 43.15844727 C133.10747686 39.05267595 133.08409731 34.94765465 133.04480743 30.84207916 C133.03434603 29.27765526 133.03282452 27.71314479 133.04045868 26.14870453 C133.05009088 23.95532838 133.02888297 21.76421669 133.00073242 19.57104492 C132.99526398 17.70026276 132.99526398 17.70026276 132.98968506 15.79168701 C132.53351826 12.43303453 132.53351826 12.43303453 130.65742493 9.59931946 C125.36100219 6.23295592 120.05667525 6.81507124 113.90966797 6.87060547 C112.52626631 6.86546471 111.14287119 6.85818224 109.75949097 6.84892273 C106.00939093 6.83042151 102.26000261 6.84333778 98.50993228 6.86301303 C94.58401088 6.8794085 90.65813423 6.87058555 86.73219299 6.86549377 C80.14068237 6.86097433 73.54945566 6.8768345 66.95800781 6.90478516 C59.33760518 6.93684988 51.71771422 6.93681584 44.0972752 6.91957039 C36.76467056 6.90370774 29.43225349 6.91043623 22.09965706 6.9275074 C18.97968617 6.93437955 15.85986556 6.93334389 12.73989677 6.92596245 C9.06661892 6.91830202 5.39392359 6.93041681 1.72074509 6.95781136 C-0.27035964 6.96798405 -2.26153429 6.95851066 -4.25263977 6.94848633 C-6.02964264 6.96757301 -6.02964264 6.96757301 -7.84254456 6.98704529 C-8.87214578 6.98985221 -9.901747 6.99265913 -10.96254826 6.99555111 C-14.36302895 7.63771683 -15.55124452 8.7909954 -17.64282227 11.50170898 C-18.24621306 14.71168945 -18.24621306 14.71168945 -18.15698242 18.34985352 C-18.16767006 19.37003571 -18.16767006 19.37003571 -18.17857361 20.41082764 C-18.19782823 22.65235587 -18.1895822 24.89293824 -18.18188477 27.13452148 C-18.19179033 28.69344462 -18.20373104 30.25235605 -18.21762085 31.81124878 C-18.2499801 35.91059351 -18.26037545 40.00967097 -18.26446533 44.10913086 C-18.27322408 50.67787698 -18.30861169 57.24640377 -18.35663986 63.81496811 C-18.36925972 66.11176416 -18.36846433 68.40828482 -18.36636353 70.70510864 C-18.37294136 72.10752579 -18.37994712 73.50994102 -18.38745117 74.91235352 C-18.38871002 76.13938995 -18.38996887 77.36642639 -18.39126587 78.63064575 C-18.64282227 81.50170898 -18.64282227 81.50170898 -20.64282227 83.50170898 C-22.76782227 83.12670898 -22.76782227 83.12670898 -24.64282227 82.50170898 C-24.73567959 73.3654223 -24.80666666 64.22929915 -24.85007095 55.09264278 C-24.87090747 50.84967771 -24.89915243 46.60703652 -24.94458008 42.36425781 C-24.98817935 38.26639708 -25.01198896 34.16884703 -25.02233124 30.07077217 C-25.02969746 28.51070836 -25.04408206 26.95066073 -25.06574249 25.3907299 C-25.09496541 23.19810696 -25.09877065 21.00675253 -25.09692383 18.81396484 C-25.1102475 16.94532021 -25.1102475 16.94532021 -25.12384033 15.03892517 C-24.32628678 9.17403252 -22.28480506 5.86532805 -17.74549866 2.0955658 C-12.24060307 -0.63334277 -5.99364687 -0.04513448 0 0 Z " fill="#0CA0EE" transform="translate(48.642822265625,116.498291015625)"/>
<path d="M0 0 C2.0625 0.4375 2.0625 0.4375 4 1 C4.00364563 1.84080612 4.00729126 2.68161224 4.01104736 3.54789734 C4.04894179 11.47857716 4.10581077 19.40884635 4.18390274 27.33923626 C4.22338246 31.41619647 4.2555683 35.49294055 4.27099609 39.57006836 C4.28615976 43.50607763 4.32059918 47.44149272 4.36830902 51.37723732 C4.38312599 52.87744795 4.3910412 54.3777434 4.39188385 55.87802696 C4.39425452 57.98272128 4.4213371 60.0857748 4.45410156 62.19018555 C4.46298401 63.38709518 4.47186646 64.58400482 4.48101807 65.81718445 C5.15659662 69.96037673 5.62740214 71.41319031 9 74 C13.19520285 74.74478106 17.34925941 74.65092026 21.59960938 74.59936523 C23.5366851 74.60527931 23.5366851 74.60527931 25.51289368 74.61131287 C29.05237428 74.6212896 32.59105436 74.60011487 36.13041878 74.57283282 C39.83477356 74.54900152 43.53911249 74.55194775 47.24353027 74.55152893 C53.46441193 74.54690058 59.68498757 74.52325768 65.90576172 74.48706055 C73.09717076 74.44532681 80.28830421 74.4277457 87.4798274 74.4244408 C95.13672013 74.42084024 102.79351373 74.40196327 110.45036507 74.37732053 C112.65633815 74.3710935 114.86230368 74.36745616 117.06828308 74.36428642 C121.17910632 74.35728587 125.28964688 74.33289197 129.40039062 74.30639648 C130.62337357 74.30573181 131.84635651 74.30506714 133.10639954 74.30438232 C134.7846003 74.28941963 134.7846003 74.28941963 136.4967041 74.27415466 C137.95456203 74.2671789 137.95456203 74.2671789 139.44187164 74.26006222 C142.11605459 73.98820176 143.73675665 73.4238788 146 72 C148.37944183 68.67679811 148.27306325 65.48580981 148.31884766 61.48730469 C148.32889328 60.84298492 148.3389389 60.19866516 148.34928894 59.53482056 C148.38007823 57.41384744 148.39714378 55.2930003 148.4140625 53.171875 C148.43277762 51.69784464 148.4523513 50.22382495 148.4727478 48.74981689 C148.52403885 44.87669166 148.56368062 41.00353171 148.60089111 37.13024902 C148.64094983 33.17528719 148.69203363 29.22046942 148.7421875 25.265625 C148.8389109 17.51051556 148.92332699 9.75533633 149 2 C150.9375 1.4375 150.9375 1.4375 153 1 C154.82691417 2.82691417 154.14681197 5.71492572 154.16113281 8.16870117 C154.16609772 8.81269867 154.17106262 9.45669617 154.17617798 10.12020874 C154.19083916 12.26113947 154.1976101 14.40199596 154.203125 16.54296875 C154.20887571 18.02932233 154.21463346 19.51567589 154.22039795 21.00202942 C154.2309209 24.12513577 154.23675425 27.24821629 154.24023438 30.37133789 C154.24570459 34.3650016 154.26969516 38.35832185 154.29820633 42.35187817 C154.3168775 45.42575558 154.32204081 48.49955128 154.32357025 51.57348061 C154.3265901 53.04502542 154.33459607 54.51656902 154.34775543 55.98805809 C154.3649011 58.0537414 154.36291495 60.11859965 154.35644531 62.18432617 C154.36191376 63.94518806 154.36191376 63.94518806 154.36749268 65.74162292 C153.78729609 70.88594108 151.91746968 73.9022017 148.62939453 77.83654785 C143.82630261 81.50492651 137.68409952 80.67674966 131.9296875 80.61523438 C129.9531015 80.62355789 129.9531015 80.62355789 127.93658447 80.63204956 C124.33306625 80.64626493 120.7303141 80.62926891 117.1268692 80.60576439 C113.35004505 80.58561391 109.57325142 80.59153712 105.79638672 80.59387207 C99.45462456 80.59381854 93.11316078 80.57408888 86.77148438 80.54199219 C79.44710318 80.50510121 72.12311272 80.4963171 64.79865074 80.5032897 C57.74317542 80.50960228 50.68783362 80.49882647 43.63238525 80.47932434 C40.63411552 80.47116495 37.63591417 80.46843809 34.63763428 80.47001648 C30.44832761 80.47106133 26.25953269 80.44684768 22.0703125 80.41992188 C20.82960999 80.42285248 19.58890747 80.42578308 18.31060791 80.42880249 C7.77484188 80.32426665 7.77484188 80.32426665 3 77 C-0.87958902 72.71907419 -1.1257116 68.97083927 -1.12939453 63.34130859 C-1.13114685 62.66948044 -1.13289917 61.99765228 -1.13470459 61.3054657 C-1.13910351 59.08642998 -1.13619268 56.86747402 -1.1328125 54.6484375 C-1.13348594 53.10812362 -1.13445631 51.56780985 -1.13571167 50.02749634 C-1.13718585 46.80119819 -1.13504246 43.57492774 -1.13037109 40.34863281 C-1.12466439 36.20444735 -1.12796051 32.06032652 -1.13394356 27.91614342 C-1.13754855 24.73696399 -1.13641104 21.55780002 -1.13381577 18.37862015 C-1.13314682 16.849931 -1.1339738 15.32124048 -1.13629532 13.79255295 C-1.13882187 11.66163129 -1.13498171 9.53081603 -1.12939453 7.39990234 C-1.12859894 6.18539398 -1.12780334 4.97088562 -1.12698364 3.71957397 C-1 1 -1 1 0 0 Z " fill="#444F94" transform="translate(222,199)"/>
<path d="M0 0 C1.38177916 -0.00514082 2.76355175 -0.01242333 4.14530945 -0.02168274 C7.89134478 -0.04018496 11.63666766 -0.02726635 15.38267326 -0.00759244 C19.30545746 0.00880549 23.22819693 -0.00002042 27.15100098 -0.00511169 C33.7383155 -0.0096314 40.32534595 0.00622932 46.91259766 0.03417969 C54.52502809 0.06623124 62.13694621 0.06621558 69.74941301 0.04896492 C77.07667486 0.03309314 84.40374915 0.03983751 91.73100281 0.05690193 C94.84735618 0.06376898 97.96355905 0.06274361 101.07991028 0.05535698 C104.7507287 0.04768752 108.42096513 0.05984089 112.09168434 0.08720589 C114.07901828 0.09736139 116.06642215 0.08791403 118.05375671 0.07788086 C119.23979996 0.09060532 120.4258432 0.10332977 121.64782715 0.11643982 C122.67650658 0.11924674 123.705186 0.12205366 124.76503754 0.12494564 C128.3188012 0.76660064 130.01847543 2.11841827 132.56835938 4.63110352 C133.05664062 7.20922852 133.05664062 7.20922852 132.88085938 9.88110352 C132.83574219 10.77313477 132.790625 11.66516602 132.74414062 12.58422852 C132.68613281 13.25969727 132.628125 13.93516602 132.56835938 14.63110352 C129.92097021 16.09173202 128.67387603 16.63110352 125.56835938 16.63110352 C125.16617188 15.45547852 125.16617188 15.45547852 124.75585938 14.25610352 C123.72021505 11.34995429 123.72021505 11.34995429 120.56835938 9.63110352 C118.13362272 9.32394628 118.13362272 9.32394628 115.3684082 9.36367798 C114.29160797 9.35514801 113.21480774 9.34661804 112.1053772 9.33782959 C110.92398163 9.33873596 109.74258606 9.33964233 108.52539062 9.34057617 C107.28131439 9.33385895 106.03723816 9.32714172 104.75546265 9.32022095 C101.34225004 9.30446123 97.92928071 9.29786504 94.51604843 9.29658937 C91.6679837 9.2946908 88.81994236 9.28733399 85.97188663 9.28024518 C79.25435769 9.26395893 72.53688236 9.25907655 65.81933594 9.26049805 C58.88517274 9.26170049 51.95132028 9.24057899 45.01723576 9.20901072 C39.06641961 9.18288238 33.1157052 9.17212925 27.16483212 9.17340887 C23.60942093 9.1739194 20.05428603 9.16818621 16.49893188 9.14705276 C12.53627297 9.12414095 8.5740426 9.1331702 4.61132812 9.14526367 C3.42993256 9.13402466 2.24853699 9.12278564 1.03134155 9.11120605 C-0.04545868 9.11959503 -1.12225891 9.12798401 -2.23168945 9.1366272 C-3.16894363 9.13553766 -4.10619781 9.13444813 -5.07185364 9.13332558 C-7.58292633 9.42889812 -7.58292633 9.42889812 -9.22961426 11.53609276 C-10.52669883 13.79678038 -10.84550521 15.15712862 -10.94335938 17.74047852 C-10.97880859 18.49458008 -11.01425781 19.24868164 -11.05078125 20.02563477 C-11.07333984 20.80293945 -11.09589844 21.58024414 -11.11914062 22.38110352 C-11.15330078 23.17387695 -11.18746094 23.96665039 -11.22265625 24.78344727 C-11.30483167 26.73217856 -11.36992108 28.68161713 -11.43164062 30.63110352 C-13.74164063 30.96110352 -16.05164062 31.29110352 -18.43164062 31.63110352 C-18.5770603 27.4022994 -18.66575589 23.17413939 -18.74414062 18.94360352 C-18.78603516 17.74541992 -18.82792969 16.54723633 -18.87109375 15.31274414 C-18.88720703 14.15581055 -18.90332031 12.99887695 -18.91992188 11.80688477 C-18.94610596 10.74381104 -18.97229004 9.6807373 -18.99926758 8.58544922 C-18.40964484 5.51662136 -17.63333193 3.82893629 -15.34767437 1.68243885 C-10.79568992 -0.81525312 -5.04320159 -0.04561743 0 0 Z " fill="#F5FCC1" transform="translate(48.431640625,122.368896484375)"/>
<path d="M0 0 C0.99 0.33 1.98 0.66 3 1 C3.02529705 7.51447727 3.04284444 14.02894193 3.05493164 20.54345703 C3.05996909 22.76090976 3.06679922 24.97835916 3.07543945 27.19580078 C3.08753072 30.37793805 3.0932341 33.56003151 3.09765625 36.7421875 C3.10281754 37.73805878 3.10797882 38.73393005 3.11329651 39.75997925 C3.11340981 41.14118454 3.11340981 41.14118454 3.11352539 42.55029297 C3.115746 43.3630368 3.11796661 44.17578064 3.12025452 45.01315308 C3 47 3 47 2 49 C1.01 49 0.02 49 -1 49 C-1.33 49.66 -1.66 50.32 -2 51 C-3.32 50.34 -4.64 49.68 -6 49 C-6.33 49.66 -6.66 50.32 -7 51 C-7.928125 50.7215625 -7.928125 50.7215625 -8.875 50.4375 C-11.04160178 49.76313824 -11.04160178 49.76313824 -13 51 C-13.66 50.67 -14.32 50.34 -15 50 C-15.33 50.66 -15.66 51.32 -16 52 C-17.65 51.67 -19.3 51.34 -21 51 C-21 36.15 -21 21.3 -21 6 C-17.38605597 5.09651399 -13.77188929 4.33027795 -10.12109375 3.59765625 C-7.72719318 3.04075539 -7.72719318 3.04075539 -5 1 C-4.34 1.33 -3.68 1.66 -3 2 C-2.01 1.34 -1.02 0.68 0 0 Z " fill="#F9F9D8" transform="translate(21,152)"/>
<path d="M0 0 C0.33 0 0.66 0 1 0 C1.33 23.43 1.66 46.86 2 71 C8.6 71.33 15.2 71.66 22 72 C21.34 72.99 20.68 73.98 20 75 C20 74.34 20 73.68 20 73 C15.58477891 74.26974972 15.58477891 74.26974972 12 77 C11.01 77 10.02 77 9 77 C9 77.66 9 78.32 9 79 C8.34 79 7.68 79 7 79 C7 81.64 7 84.28 7 87 C6.67 87 6.34 87 6 87 C5.67 84.69 5.34 82.38 5 80 C3.35 80 1.7 80 0 80 C0.12375 80.721875 0.2475 81.44375 0.375 82.1875 C-0.05684539 85.42634043 -0.52778646 85.7996128 -2.9375 87.8125 C-6 90 -6 90 -7 90 C-7 63.6 -7 37.2 -7 10 C-5.35 9.67 -3.7 9.34 -2 9 C-1.34 6.03 -0.68 3.06 0 0 Z " fill="#ECFBD2" transform="translate(181,129)"/>
<path d="M0 0 C0 0.66 0 1.32 0 2 C2.31 2 4.62 2 7 2 C7 1.34 7 0.68 7 0 C9.90566174 -0.24213848 11.66729453 -0.16185671 14.3125 1.125 C16 3 16 3 16 9 C7.42 9 -1.16 9 -10 9 C-10 4 -10 4 -8.6875 2.25 C-5.73408199 0.06228296 -3.67800506 0 0 0 Z " fill="#FBFEFA" transform="translate(295,171)"/>
<path d="M0 0 C4.214558 1.24296535 7.76115973 1.27359722 12 0.0625 C12.495 2.5375 12.495 2.5375 13 5.0625 C11.67935547 5.02769531 11.67935547 5.02769531 10.33203125 4.9921875 C9.17058594 4.97414062 8.00914062 4.95609375 6.8125 4.9375 C5.66394531 4.91429687 4.51539063 4.89109375 3.33203125 4.8671875 C0.04415093 5.05991202 -2.01019045 5.78617794 -5 7.0625 C-6.32 7.0625 -7.64 7.0625 -9 7.0625 C-10 5.0625 -10 5.0625 -11 2.0625 C-11.66 2.0625 -12.32 2.0625 -13 2.0625 C-13 3.0525 -13 4.0425 -13 5.0625 C-18 5.0625 -23 5.0625 -28 5.0625 C-28 3.4125 -28 1.7625 -28 0.0625 C-21.33333333 0.0625 -14.66666667 0.0625 -8 0.0625 C-7.360625 -0.12183594 -6.72125 -0.30617187 -6.0625 -0.49609375 C-3.66409572 -1.00938861 -2.33252997 -0.69702556 0 0 Z " fill="#A9AED0" transform="translate(277,226.9375)"/>
<path d="M0 0 C-1.98 2.97 -1.98 2.97 -4 6 C-3.01 7.485 -3.01 7.485 -2 9 C-2.78375 9.61875 -3.5675 10.2375 -4.375 10.875 C-6.96837647 12.89858661 -6.96837647 12.89858661 -9 15 C-10.32 13.02 -11.64 11.04 -13 9 C-12 7 -12 7 -10 6 C-9.566875 5.01 -9.13375 4.02 -8.6875 3 C-7 0 -7 0 -4.4375 -0.9375 C-2 -1 -2 -1 0 0 Z M-15 15 C-14.01 15.495 -14.01 15.495 -13 16 C-13.99 16.495 -13.99 16.495 -15 17 C-15 16.34 -15 15.68 -15 15 Z M-11 15 C-10.34 15.66 -9.68 16.32 -9 17 C-9.639375 17.28875 -10.27875 17.5775 -10.9375 17.875 C-13.15206079 18.82823451 -13.15206079 18.82823451 -14 21 C-14.99 21.33 -15.98 21.66 -17 22 C-17.33 22.66 -17.66 23.32 -18 24 C-20.35302007 26.35302007 -21.27435295 26.39392208 -24.5 26.75 C-25.2940625 26.84796875 -26.088125 26.9459375 -26.90625 27.046875 C-29 27 -29 27 -31 25 C-28.11290199 23.52288009 -25.30034782 22.10921739 -22.25 21 C-19.67849941 20.09738887 -19.67849941 20.09738887 -18 17 C-16.33385392 16.95834635 -14.66614608 16.95834635 -13 17 C-12.34 16.34 -11.68 15.68 -11 15 Z " fill="#D0F1D5" transform="translate(322,95)"/>
<path d="M0 0 C1.216875 0.09023437 2.43375 0.18046875 3.6875 0.2734375 C6.24950447 0.54534835 8.54003701 0.89931092 11 1.625 C10.67 2.945 10.34 4.265 10 5.625 C7.36 5.625 4.72 5.625 2 5.625 C2 4.965 2 4.305 2 3.625 C1.67 4.285 1.34 4.945 1 5.625 C-7.66666667 5.625 -16.33333333 5.625 -25 5.625 C-25.33 6.285 -25.66 6.945 -26 7.625 C-26 5.315 -26 3.005 -26 0.625 C-21 0.625 -16 0.625 -11 0.625 C-10.13375 0.36589844 -10.13375 0.36589844 -9.25 0.1015625 C-6.090881 -0.56755645 -3.21278715 -0.25184984 0 0 Z " fill="#A1A7CB" transform="translate(322,226.375)"/>
<path d="M0 0 C1.6396875 0.2475 1.6396875 0.2475 3.3125 0.5 C8.53905159 1.16622112 13.7404008 1.08701543 19 1 C19.33 1.99 19.66 2.98 20 4 C20.33 3.01 20.66 2.02 21 1 C23.64 1 26.28 1 29 1 C29.33 2.65 29.66 4.3 30 6 C29.195625 5.814375 28.39125 5.62875 27.5625 5.4375 C26.2940625 5.2209375 26.2940625 5.2209375 25 5 C24.67 5.33 24.34 5.66 24 6 C22.07332493 6.08748207 20.14348139 6.10697334 18.21484375 6.09765625 C17.04501953 6.09443359 15.87519531 6.09121094 14.66992188 6.08789062 C12.82237305 6.07532227 12.82237305 6.07532227 10.9375 6.0625 C9.08415039 6.05573242 9.08415039 6.05573242 7.19335938 6.04882812 C4.12885883 6.03699608 1.06445279 6.02051173 -2 6 C-1.34 4.02 -0.68 2.04 0 0 Z " fill="#84CCF8" transform="translate(62,214)"/>
<path d="M0 0 C1.65 0 3.3 0 5 0 C5 1.65 5 3.3 5 5 C5.66 5 6.32 5 7 5 C7.33 4.01 7.66 3.02 8 2 C8 3.32 8 4.64 8 6 C8.66 6 9.32 6 10 6 C10 6.66 10 7.32 10 8 C9.34 8 8.68 8 8 8 C7.87625 8.78375 7.7525 9.5675 7.625 10.375 C7 13 7 13 5 15 C1.375 14.625 1.375 14.625 -2 14 C-2.33 12.02 -2.66 10.04 -3 8 C-3.66 8 -4.32 8 -5 8 C-5 7.34 -5 6.68 -5 6 C-4.34 6 -3.68 6 -3 6 C-2.67 4.68 -2.34 3.36 -2 2 C-2 2.99 -2 3.98 -2 5 C-1.34 5 -0.68 5 0 5 C0 3.35 0 1.7 0 0 Z " fill="#EDF0F3" transform="translate(296,155)"/>
<path d="M0 0 C0.99 0 1.98 0 3 0 C3 0.66 3 1.32 3 2 C3.66 1.67 4.32 1.34 5 1 C7.34765625 1.05078125 7.34765625 1.05078125 10.0625 1.3125 C10.96097656 1.39113281 11.85945313 1.46976563 12.78515625 1.55078125 C13.88150391 1.77314453 13.88150391 1.77314453 15 2 C15.33 2.66 15.66 3.32 16 4 C17.98 3.67 19.96 3.34 22 3 C21.10364828 5.2408793 20.41833601 6.69879807 18.4375 8.125 C14.90506609 9.3930532 11.44979239 9.20997756 7.75 9.125 C7.00492187 9.11597656 6.25984375 9.10695312 5.4921875 9.09765625 C3.66131941 9.07418358 1.83061762 9.03831525 0 9 C0 6.03 0 3.06 0 0 Z " fill="#EDF8FB" transform="translate(93,171)"/>
<path d="M0 0 C2.97 0.495 2.97 0.495 6 1 C6 1.66 6 2.32 6 3 C8.475 3.495 8.475 3.495 11 4 C11 4.66 11 5.32 11 6 C11.66 6.66 12.32 7.32 13 8 C11.35 9.32 9.7 10.64 8 12 C6.68 10.68 5.36 9.36 4 8 C3.67 8.66 3.34 9.32 3 10 C2.01 10 1.02 10 0 10 C-1.68798827 11.43750191 -1.68798827 11.43750191 -3 13 C-3.433125 12.505 -3.86625 12.01 -4.3125 11.5 C-5.99740483 9.66781808 -5.99740483 9.66781808 -9 10 C-9 8.35 -9 6.7 -9 5 C-6 5 -6 5 -3 6 C-0.8614515 3.8614515 -0.57344937 2.86724686 0 0 Z " fill="#DFFBBE" transform="translate(196,105)"/>
<path d="M0 0 C0 1.32 0 2.64 0 4 C0.66 4 1.32 4 2 4 C2.33 3.01 2.66 2.02 3 1 C3.66 1 4.32 1 5 1 C5 1.99 5 2.98 5 4 C5.66 3.34 6.32 2.68 7 2 C7.66 1.34 8.32 0.68 9 0 C9.78375 0.165 10.5675 0.33 11.375 0.5 C14.41320245 1.07870523 15.43957492 0.61211949 18 -1 C18 0.98 18 2.96 18 5 C7 5 -4 5 -15 5 C-15 3.35 -15 1.7 -15 0 C-14.06027344 0.01740234 -14.06027344 0.01740234 -13.1015625 0.03515625 C-11.87566406 0.04869141 -11.87566406 0.04869141 -10.625 0.0625 C-9.40683594 0.07990234 -9.40683594 0.07990234 -8.1640625 0.09765625 C-0.78451883 -0.23535565 -0.78451883 -0.23535565 0 0 Z " fill="#8DCFF9" transform="translate(104,251)"/>
<path d="M0 0 C1.67542976 -0.28604898 3.34385343 -0.61781233 5 -1 C7.8125 -0.5625 7.8125 -0.5625 10 0 C10 1.32 10 2.64 10 4 C9.34 4 8.68 4 8 4 C8 3.01 8 2.02 8 1 C7.34 1 6.68 1 6 1 C5.67 1.99 5.34 2.98 5 4 C-2.92 4 -10.84 4 -19 4 C-19 2.68 -19 1.36 -19 0 C-17.68 0 -16.36 0 -15 0 C-13.53460205 -0.34636679 -12.07606068 -0.72277616 -10.625 -1.125 C-6.41198223 -2.12645504 -4.06596777 -1.57094209 0 0 Z " fill="#949BC4" transform="translate(295,240)"/>
<path d="M0 0 C3.42800405 0.39416074 6.79447361 0.31937882 10.2421875 0.2578125 C10.5721875 1.9078125 10.9021875 3.5578125 11.2421875 5.2578125 C8.7671875 4.7628125 8.7671875 4.7628125 6.2421875 4.2578125 C6.2421875 3.5978125 6.2421875 2.9378125 6.2421875 2.2578125 C5.5821875 2.2578125 4.9221875 2.2578125 4.2421875 2.2578125 C3.9121875 2.9178125 3.5821875 3.5778125 3.2421875 4.2578125 C3.9021875 4.5878125 4.5621875 4.9178125 5.2421875 5.2578125 C-2.42447917 5.2578125 -10.09114583 5.2578125 -17.7578125 5.2578125 C-17.4278125 3.6078125 -17.0978125 1.9578125 -16.7578125 0.2578125 C-13.7578125 0.2578125 -10.7578125 0.2578125 -7.7578125 0.2578125 C-5.02734082 -1.10742334 -2.93320909 -0.41902987 0 0 Z " fill="#A9AFD0" transform="translate(261.7578125,238.7421875)"/>
<path d="M0 0 C0.66 0 1.32 0 2 0 C2.33 0.66 2.66 1.32 3 2 C6.3 2 9.6 2 13 2 C13.33 3.32 13.66 4.64 14 6 C10.06099718 6.93680404 6.41824316 7.10432665 2.375 7.0625 C1.24835938 7.05347656 0.12171875 7.04445312 -1.0390625 7.03515625 C-2.01617187 7.02355469 -2.99328125 7.01195312 -4 7 C-4.99 7 -5.98 7 -7 7 C-7.33 7 -7.66 7 -8 7 C-8 5.35 -8 3.7 -8 2 C-8.66 1.67 -9.32 1.34 -10 1 C-8.68 1 -7.36 1 -6 1 C-6 1.66 -6 2.32 -6 3 C-4.02 2.67 -2.04 2.34 0 2 C0 1.34 0 0.68 0 0 Z " fill="#B1B6D4" transform="translate(275,213)"/>
<path d="M0 0 C1.98 0 3.96 0 6 0 C5.67 0.99 5.34 1.98 5 3 C3.0625 2.625 3.0625 2.625 1 2 C0.67 1.34 0.34 0.68 0 0 Z M-6.8359375 0.8046875 C-5.61777344 0.83949219 -5.61777344 0.83949219 -4.375 0.875 C-3.14910156 0.90207031 -3.14910156 0.90207031 -1.8984375 0.9296875 C-0.95871094 0.96449219 -0.95871094 0.96449219 0 1 C0 2.65 0 4.3 0 6 C-0.66 6 -1.32 6 -2 6 C-2.33 6.66 -2.66 7.32 -3 8 C-4.6875 9.3125 -4.6875 9.3125 -7 10 C-10.25 8.625 -10.25 8.625 -13 7 C-10.25276382 1.11306533 -10.25276382 1.11306533 -6.8359375 0.8046875 Z " fill="#C6EFC6" transform="translate(258,88)"/>
<path d="M0 0 C4.32667075 0.60289674 8.44675038 0.70437727 12.8125 0.625 C12.8125 1.945 12.8125 3.265 12.8125 4.625 C8.28920325 6.13276558 3.56161971 5.625 -1.1875 5.625 C-1.5175 4.635 -1.8475 3.645 -2.1875 2.625 C-3.1775 4.11 -3.1775 4.11 -4.1875 5.625 C-7.3125 5.8125 -7.3125 5.8125 -10.1875 5.625 C-10.5175 3.975 -10.8475 2.325 -11.1875 0.625 C-10.589375 0.83125 -9.99125 1.0375 -9.375 1.25 C-5.76299263 1.86920126 -4.01554818 -0.63964484 0 0 Z " fill="#91D1F9" transform="translate(67.1875,238.375)"/>
<path d="M0 0 C4.214558 1.24296535 7.76115973 1.27359722 12 0.0625 C12.33 1.7125 12.66 3.3625 13 5.0625 C12.11957031 5.05089844 11.23914063 5.03929687 10.33203125 5.02734375 C9.17058594 5.01832031 8.00914062 5.00929687 6.8125 5 C5.66394531 4.98839844 4.51539063 4.97679687 3.33203125 4.96484375 C0.40699414 5.05057168 -2.16316291 5.38400977 -5 6.0625 C-5.33 5.4025 -5.66 4.7425 -6 4.0625 C-6.66 4.0625 -7.32 4.0625 -8 4.0625 C-8 2.7425 -8 1.4225 -8 0.0625 C-4.93389538 -0.91618964 -3.07167396 -0.91790257 0 0 Z " fill="#AAAFD0" transform="translate(277,226.9375)"/>
<path d="M0 0 C1.8253125 0.2784375 1.8253125 0.2784375 3.6875 0.5625 C6.33780614 0.90778636 8.03973698 0.99168296 10.6875 0.4375 C13.67308287 -0.12734 15.31394264 0.69534357 18 2 C18 3.32 18 4.64 18 6 C13.38 6 8.76 6 4 6 C4 6.66 4 7.32 4 8 C3.34 8 2.68 8 2 8 C2 7.34 2 6.68 2 6 C1.34 6 0.68 6 0 6 C0 4.02 0 2.04 0 0 Z " fill="#A6ACCE" transform="translate(321,238)"/>
<path d="M0 0 C-0.75 7.625 -0.75 7.625 -3 11 C-4.32 11 -5.64 11 -7 11 C-6.67 9.35 -6.34 7.7 -6 6 C-7.32 6.99 -8.64 7.98 -10 9 C-10.33 7.35 -10.66 5.7 -11 4 C-9.73308493 3.32591692 -8.46129251 2.66099503 -7.1875 2 C-6.47980469 1.62875 -5.77210937 1.2575 -5.04296875 0.875 C-3 0 -3 0 0 0 Z " fill="#E6F5FB" transform="translate(118,155)"/>
<path d="M0 0 C3.82440169 0.88298686 7.18713227 1.21875876 11.125 1.125 C13.5 1.625 13.5 1.625 15.125 2.125 C14.795 3.445 14.465 4.765 14.125 6.125 C12.475 5.465 10.825 4.805 9.125 4.125 C8.795 4.785 8.465 5.445 8.125 6.125 C6.145 5.135 4.165 4.145 2.125 3.125 C1.795 3.785 1.465 4.445 1.125 5.125 C0.135 4.465 -0.855 3.805 -1.875 3.125 C-2.205 3.785 -2.535 4.445 -2.875 5.125 C-3.65875 4.774375 -4.4425 4.42375 -5.25 4.0625 C-6.11625 3.753125 -6.9825 3.44375 -7.875 3.125 C-8.865 3.62 -8.865 3.62 -9.875 4.125 C-8.875 1.125 -8.875 1.125 -7.1171875 -0.1171875 C-4.32887237 -1.05957972 -2.83566105 -0.71554064 0 0 Z " fill="#E5F9D5" transform="translate(384.875,190.875)"/>
<path d="M0 0 C1.52519276 0.08937803 3.04681929 0.24537146 4.5625 0.4375 C5.38878906 0.53933594 6.21507813 0.64117187 7.06640625 0.74609375 C7.70449219 0.82988281 8.34257813 0.91367188 9 1 C9.33 2.65 9.66 4.3 10 6 C6.04 6 2.08 6 -2 6 C-2.33 5.01 -2.66 4.02 -3 3 C-3.99 4.485 -3.99 4.485 -5 6 C-5 5.01 -5 4.02 -5 3 C-5.66 3 -6.32 3 -7 3 C-7.33 3.99 -7.66 4.98 -8 6 C-8 4.35 -8 2.7 -8 1 C-6.865625 1.020625 -5.73125 1.04125 -4.5625 1.0625 C-1.18424326 1.41577477 -1.18424326 1.41577477 0 0 Z " fill="#77C7F8" transform="translate(97,238)"/>
<path d="M0 0 C2 1 2 1 4.3125 3.875 C6.55532514 6.65183112 8.79715168 8.35282086 12 10 C11.649375 10.556875 11.29875 11.11375 10.9375 11.6875 C9.78154007 14.53886783 10.19032562 16.08517222 11 19 C10.01 18.67 9.02 18.34 8 18 C7.67 17.34 7.34 16.68 7 16 C6.525625 15.566875 6.05125 15.13375 5.5625 14.6875 C2.86410358 11.77323187 2 8.92584632 2 5 C1.01 4.34 0.02 3.68 -1 3 C-0.67 2.01 -0.34 1.02 0 0 Z " fill="#D3F6C0" transform="translate(209,92)"/>
<path d="M0 0 C0.33 0.66 0.66 1.32 1 2 C2.32 2 3.64 2 5 2 C5 3.32 5 4.64 5 6 C0.38 6 -4.24 6 -9 6 C-9.33 6.66 -9.66 7.32 -10 8 C-10 5.69 -10 3.38 -10 1 C-2.25 0 -2.25 0 0 0 Z " fill="#74C6F7" transform="translate(105,226)"/>
<path d="M0 0 C0.804375 0.185625 1.60875 0.37125 2.4375 0.5625 C3.283125 0.706875 4.12875 0.85125 5 1 C5.33 0.67 5.66 0.34 6 0 C7.66617115 -0.04063832 9.33388095 -0.042721 11 0 C11 2.64 11 5.28 11 8 C9.35 8.33 7.7 8.66 6 9 C6.33 8.34 6.66 7.68 7 7 C6.67 6.67 6.34 6.34 6 6 C5.34 6 4.68 6 4 6 C2.33034549 5.68197057 0.66321482 5.35015049 -1 5 C-0.67 3.35 -0.34 1.7 0 0 Z " fill="#93D4F9" transform="translate(128,198)"/>
<path d="M0 0 C0.66 0 1.32 0 2 0 C2 0.66 2 1.32 2 2 C6.62 2 11.24 2 16 2 C16 3.65 16 5.3 16 7 C13.5625 6.625 13.5625 6.625 11 6 C10.67 5.34 10.34 4.68 10 4 C9.67 4.99 9.34 5.98 9 7 C6.03 7 3.06 7 0 7 C0 4.69 0 2.38 0 0 Z " fill="#8FD0F9" transform="translate(119,213)"/>
<path d="M0 0 C1.31872662 0.39651917 2.62997101 0.81798691 3.9375 1.25 C4.66839844 1.48203125 5.39929688 1.7140625 6.15234375 1.953125 C8 3 8 3 8.71875 4.90625 C8.8115625 5.5971875 8.904375 6.288125 9 7 C9.185625 8.0725 9.37125 9.145 9.5625 10.25 C9.706875 11.1575 9.85125 12.065 10 13 C9.34 13 8.68 13 8 13 C7.67 12.34 7.34 11.68 7 11 C6.195625 10.71125 5.39125 10.4225 4.5625 10.125 C2 9 2 9 0.6875 7.1875 C-0.09802451 4.68810383 -0.14472595 2.60506718 0 0 Z " fill="#E4F4FA" transform="translate(95,157)"/>
<path d="M0 0 C2.97 0 5.94 0 9 0 C9 0.66 9 1.32 9 2 C9.99 1.34 10.98 0.68 12 0 C14.1875 0.375 14.1875 0.375 16 1 C16 2.65 16 4.3 16 6 C13.36 6 10.72 6 8 6 C8 4.68 8 3.36 8 2 C7.01 2 6.02 2 5 2 C4.67 3.32 4.34 4.64 4 6 C3.34 4.68 2.68 3.36 2 2 C1.34 3.32 0.68 4.64 0 6 C0 4.02 0 2.04 0 0 Z " fill="#C5C9DF" transform="translate(300,198)"/>
<path d="M0 0 C0 1.98 0 3.96 0 6 C-6.27 6 -12.54 6 -19 6 C-18.01 5.67 -17.02 5.34 -16 5 C-15.67 4.01 -15.34 3.02 -15 2 C-14.34 2 -13.68 2 -13 2 C-13 2.99 -13 3.98 -13 5 C-12.34 4.34 -11.68 3.68 -11 3 C-10.34 2.34 -9.68 1.68 -9 1 C-7.7934375 1.2475 -7.7934375 1.2475 -6.5625 1.5 C-3.15506739 2.1648649 -3.0396188 0 0 0 Z " fill="#8ED0F9" transform="translate(122,250)"/>
<path d="M0 0 C4.29 0 8.58 0 13 0 C13.33 1.65 13.66 3.3 14 5 C13.34 4.01 12.68 3.02 12 2 C11.67 2.99 11.34 3.98 11 5 C7.04 5 3.08 5 -1 5 C-0.67 3.35 -0.34 1.7 0 0 Z " fill="#7FCBF8" transform="translate(128,239)"/>
<path d="M0 0 C0.66 0.66 1.32 1.32 2 2 C3.67381019 1.70462173 5.33911955 1.36106097 7 1 C9.67360424 0.90575421 12.32348026 0.95463526 15 1 C15.33 2.65 15.66 4.3 16 6 C14.02 6 12.04 6 10 6 C9.67 5.01 9.34 4.02 9 3 C8.01 4.485 8.01 4.485 7 6 C3.375 6.1875 3.375 6.1875 0 6 C0 4.02 0 2.04 0 0 Z " fill="#84CCF8" transform="translate(108,238)"/>
<path d="M0 0 C2.97 0 5.94 0 9 0 C9.38218767 1.65614657 9.71395102 3.32457024 10 5 C9 6 9 6 6.93359375 6.09765625 C6.10988281 6.08605469 5.28617188 6.07445312 4.4375 6.0625 C3.61121094 6.05347656 2.78492188 6.04445313 1.93359375 6.03515625 C1.29550781 6.02355469 0.65742187 6.01195312 0 6 C-1.125 2.25 -1.125 2.25 0 0 Z " fill="#1AA6EE" transform="translate(54,277)"/>
<path d="M0 0 C1.67542976 0.28604898 3.34385343 0.61781233 5 1 C5.125 8.75 5.125 8.75 4 11 C2.35 10.67 0.7 10.34 -1 10 C-1.02689216 8.52093108 -1.04634621 7.04172517 -1.0625 5.5625 C-1.07410156 4.73878906 -1.08570312 3.91507813 -1.09765625 3.06640625 C-1 1 -1 1 0 0 Z " fill="#19A5EF" transform="translate(25,239)"/>
<path d="M0 0 C1.67542976 0.28604898 3.34385343 0.61781233 5 1 C5.125 8.75 5.125 8.75 4 11 C2.35 10.67 0.7 10.34 -1 10 C-1.02689216 8.52093108 -1.04634621 7.04172517 -1.0625 5.5625 C-1.07410156 4.73878906 -1.08570312 3.91507813 -1.09765625 3.06640625 C-1 1 -1 1 0 0 Z " fill="#19A5EE" transform="translate(25,208)"/>
<path d="M0 0 C1.91015625 0.23046875 1.91015625 0.23046875 3.91015625 2.23046875 C3.58015625 3.55046875 3.25015625 4.87046875 2.91015625 6.23046875 C-0.05984375 6.23046875 -3.02984375 6.23046875 -6.08984375 6.23046875 C-6.47203142 4.57432218 -6.80379477 2.90589851 -7.08984375 1.23046875 C-5.19495423 -0.66442077 -2.51845229 0.05027763 0 0 Z " fill="#18A5EB" transform="translate(154.08984375,276.76953125)"/>
<path d="M0 0 C2.01822917 0.06510417 4.03645833 0.13020833 6.0546875 0.1953125 C6.43687517 1.85145907 6.76863852 3.51988274 7.0546875 5.1953125 C6.0546875 6.1953125 6.0546875 6.1953125 3.98828125 6.29296875 C3.16457031 6.28136719 2.34085937 6.26976562 1.4921875 6.2578125 C0.66589844 6.24878906 -0.16039063 6.23976563 -1.01171875 6.23046875 C-1.64980469 6.21886719 -2.28789063 6.20726562 -2.9453125 6.1953125 C-3.5703125 4.3203125 -3.5703125 4.3203125 -3.9453125 2.1953125 C-1.9453125 0.1953125 -1.9453125 0.1953125 0 0 Z " fill="#19A6ED" transform="translate(87.9453125,276.8046875)"/>
<path d="M0 0 C1.91015625 0.23046875 1.91015625 0.23046875 3.91015625 2.23046875 C3.58015625 3.55046875 3.25015625 4.87046875 2.91015625 6.23046875 C-0.05984375 6.23046875 -3.02984375 6.23046875 -6.08984375 6.23046875 C-6.47203142 4.57432218 -6.80379477 2.90589851 -7.08984375 1.23046875 C-5.19495423 -0.66442077 -2.51845229 0.05027763 0 0 Z " fill="#18A5EE" transform="translate(76.08984375,276.76953125)"/>
<path d="M0 0 C1.67542976 0.28604898 3.34385343 0.61781233 5 1 C5.1953125 7.0546875 5.1953125 7.0546875 5 9 C4.34 9.66 3.68 10.32 3 11 C0.875 10.625 0.875 10.625 -1 10 C-1.02689216 8.52093108 -1.04634621 7.04172517 -1.0625 5.5625 C-1.07410156 4.73878906 -1.08570312 3.91507812 -1.09765625 3.06640625 C-1 1 -1 1 0 0 Z " fill="#1CA6EF" transform="translate(25,255)"/>
<path d="M0 0 C2.05078125 0.03255208 4.1015625 0.06510417 6.15234375 0.09765625 C6.53453142 1.75380282 6.86629477 3.42222649 7.15234375 5.09765625 C5.25349279 6.99650721 2.57986472 6.22133131 0.0625 6.23046875 C-1.84765625 6.09765625 -1.84765625 6.09765625 -3.84765625 5.09765625 C-2.72914438 0.14424653 -2.72914438 0.14424653 0 0 Z " fill="#16A5EC" transform="translate(134.84765625,276.90234375)"/>
<path d="M0 0 C3.5 0.1875 3.5 0.1875 5.5 1.1875 C5.17 2.8375 4.84 4.4875 4.5 6.1875 C1.53 6.1875 -1.44 6.1875 -4.5 6.1875 C-4.83 4.8675 -5.16 3.5475 -5.5 2.1875 C-3.5 0.1875 -3.5 0.1875 0 0 Z " fill="#16A4ED" transform="translate(105.5,276.8125)"/>
<path d="M0 0 C0.80824219 0.10183594 1.61648437 0.20367187 2.44921875 0.30859375 C3.06410156 0.39238281 3.67898437 0.47617188 4.3125 0.5625 C4.3125 1.5525 4.3125 2.5425 4.3125 3.5625 C4.9725 3.5625 5.6325 3.5625 6.3125 3.5625 C6.6425 2.5725 6.9725 1.5825 7.3125 0.5625 C7.3125 1.8825 7.3125 3.2025 7.3125 4.5625 C1.3125 4.5625 -4.6875 4.5625 -10.6875 4.5625 C-10.3575 3.2425 -10.0275 1.9225 -9.6875 0.5625 C-9.6875 1.5525 -9.6875 2.5425 -9.6875 3.5625 C-9.0275 3.5625 -8.3675 3.5625 -7.6875 3.5625 C-7.6875 2.5725 -7.6875 1.5825 -7.6875 0.5625 C-4.59271121 -0.46909626 -3.16118607 -0.41232862 0 0 Z " fill="#8ACEF8" transform="translate(136.6875,227.4375)"/>
<path d="M0 0 C0 0.66 0 1.32 0 2 C2.31 2 4.62 2 7 2 C7 2.33 7 2.66 7 3 C3.37 3 -0.26 3 -4 3 C-4 4.98 -4 6.96 -4 9 C-5.98 9 -7.96 9 -10 9 C-10.36585366 4.48780488 -10.36585366 4.48780488 -8.6875 2.25 C-5.73408199 0.06228296 -3.67800506 0 0 0 Z " fill="#BCC1DA" transform="translate(295,171)"/>
<path d="M0 0 C2.05078125 0.03255208 4.1015625 0.06510417 6.15234375 0.09765625 C6.81234375 1.41765625 7.47234375 2.73765625 8.15234375 4.09765625 C6.15234375 6.09765625 6.15234375 6.09765625 4.20703125 6.29296875 C2.18880208 6.22786458 0.17057292 6.16276042 -1.84765625 6.09765625 C-2.22984392 4.44150968 -2.56160727 2.77308601 -2.84765625 1.09765625 C-1.84765625 0.09765625 -1.84765625 0.09765625 0 0 Z " fill="#14A4EC" transform="translate(118.84765625,276.90234375)"/>
<path d="M0 0 C1.32 0.33 2.64 0.66 4 1 C4 3.97 4 6.94 4 10 C2.68 10.33 1.36 10.66 0 11 C-2 9 -2 9 -2.25 5.5 C-2 2 -2 2 0 0 Z " fill="#15A4EC" transform="translate(183,239)"/>
<path d="M0 0 C3.09998746 0.33214151 4.0545012 1.0545012 6.3125 3.3125 C8 6 8 6 7.75 8.3125 C7.5025 8.869375 7.255 9.42625 7 10 C4.6875 9.8125 4.6875 9.8125 2 9 C0.125 6.6875 0.125 6.6875 -1 4 C-0.6875 1.6875 -0.6875 1.6875 0 0 Z " fill="#1CA6EF" transform="translate(26,270)"/>
<path d="M0 0 C0 2.64 0 5.28 0 8 C-1.98 8.99 -1.98 8.99 -4 10 C-6 8 -6 8 -6.1953125 6.0546875 C-6.13020833 4.03645833 -6.06510417 2.01822917 -6 0 C-3.50907189 -1.24546405 -2.58919267 -0.7767578 0 0 Z " fill="#13A3EC" transform="translate(187,209)"/>
<path d="M0 0 C0.99 0 1.98 0 3 0 C4.60725635 3.21451269 4.05748185 6.43612536 4 10 C2.125 10.625 2.125 10.625 0 11 C-2 9 -2 9 -2.25 5.5 C-2 2 -2 2 0 0 Z " fill="#55629D" transform="translate(372,152)"/>
<path d="M0 0 C1.32 1.32 2.64 2.64 4 4 C2.8125 6.9375 2.8125 6.9375 1 10 C-1.6875 10.875 -1.6875 10.875 -4 11 C-4.66 9.02 -5.32 7.04 -6 5 C-4.02 3.35 -2.04 1.7 0 0 Z " fill="#F1F2BE" transform="translate(9,37)"/>
<path d="M0 0 C2.05078125 0.03255208 4.1015625 0.06510417 6.15234375 0.09765625 C6.53453142 1.75380282 6.86629477 3.42222649 7.15234375 5.09765625 C6.15234375 6.09765625 6.15234375 6.09765625 4.3046875 6.1953125 C2.25390625 6.16276042 0.203125 6.13020833 -1.84765625 6.09765625 C-2.22984392 4.44150968 -2.56160727 2.77308601 -2.84765625 1.09765625 C-1.84765625 0.09765625 -1.84765625 0.09765625 0 0 Z " fill="#11A3EC" transform="translate(165.84765625,276.90234375)"/>
<path d="M0 0 C2.05078125 0.03255208 4.1015625 0.06510417 6.15234375 0.09765625 C6.53453142 1.75380282 6.86629477 3.42222649 7.15234375 5.09765625 C6.15234375 6.09765625 6.15234375 6.09765625 4.3046875 6.1953125 C2.25390625 6.16276042 0.203125 6.13020833 -1.84765625 6.09765625 C-2.22984392 4.44150968 -2.56160727 2.77308601 -2.84765625 1.09765625 C-1.84765625 0.09765625 -1.84765625 0.09765625 0 0 Z " fill="#12A3EF" transform="translate(40.84765625,276.90234375)"/>
<path d="M0 0 C1.67542976 0.28604898 3.34385343 0.61781233 5 1 C5 3.64 5 6.28 5 9 C3.34385343 9.38218767 1.67542976 9.71395102 0 10 C-1 9 -1 9 -1.1328125 7.1875 C-1.13023437 6.465625 -1.12765625 5.74375 -1.125 5 C-1.12757813 4.278125 -1.13015625 3.55625 -1.1328125 2.8125 C-1 1 -1 1 0 0 Z " fill="#13A4EC" transform="translate(182,255)"/>
<path d="M0 0 C1.67542976 0.28604898 3.34385343 0.61781233 5 1 C5 3.64 5 6.28 5 9 C3.34385343 9.38218767 1.67542976 9.71395102 0 10 C-1 9 -1 9 -1.1328125 7.1875 C-1.13023437 6.465625 -1.12765625 5.74375 -1.125 5 C-1.12757813 4.278125 -1.13015625 3.55625 -1.1328125 2.8125 C-1 1 -1 1 0 0 Z " fill="#13A3EC" transform="translate(182,224)"/>
<path d="M0 0 C1.67542976 0.28604898 3.34385343 0.61781233 5 1 C5 3.64 5 6.28 5 9 C3.34385343 9.38218767 1.67542976 9.71395102 0 10 C-1 9 -1 9 -1.1328125 7.1875 C-1.13023438 6.465625 -1.12765625 5.74375 -1.125 5 C-1.12757812 4.278125 -1.13015625 3.55625 -1.1328125 2.8125 C-1 1 -1 1 0 0 Z " fill="#11A2EE" transform="translate(25,224)"/>
<path d="M0 0 C1.32 0.33 2.64 0.66 4 1 C3.46930939 4.82097239 2.50298434 7.06171403 0 10 C-1.32 9.67 -2.64 9.34 -4 9 C-3.46930939 5.17902761 -2.50298434 2.93828597 0 0 Z " fill="#13A3EC" transform="translate(182,270)"/>
<path d="M0 0 C1.670625 0.2475 1.670625 0.2475 3.375 0.5 C6.72032033 1.0455458 6.72032033 1.0455458 9 1 C9.99 1 10.98 1 12 1 C12 2.65 12 4.3 12 6 C10.02 6 8.04 6 6 6 C6 4.68 6 3.36 6 2 C5.34 2 4.68 2 4 2 C4 3.32 4 4.64 4 6 C2.68 6 1.36 6 0 6 C0 4.02 0 2.04 0 0 Z " fill="#B4B9D6" transform="translate(296,250)"/>
<path d="M0 0 C1.43791516 0.14168137 2.8753237 0.28851043 4.3125 0.4375 C5.11300781 0.51871094 5.91351563 0.59992188 6.73828125 0.68359375 C9 1 9 1 12 2 C12 3.32 12 4.64 12 6 C8.04 6 4.08 6 0 6 C0 4.02 0 2.04 0 0 Z " fill="#9FA5CA" transform="translate(308,238)"/>
<path d="M0 0 C4.875 1.875 4.875 1.875 6 3 C6 4.98 6 6.96 6 9 C-0.27 9 -6.54 9 -13 9 C-13 8.67 -13 8.34 -13 8 C-8.71 8 -4.42 8 0 8 C0 5.36 0 2.72 0 0 Z " fill="#F4F6F7" transform="translate(305,171)"/>
<path d="M0 0 C2.05078125 0.03255208 4.1015625 0.06510417 6.15234375 0.09765625 C6.15234375 1.41765625 6.15234375 2.73765625 6.15234375 4.09765625 C3.18547374 5.74591736 0.4960785 6.54036712 -2.84765625 7.09765625 C-2.89019981 5.09810879 -2.88846408 3.09723989 -2.84765625 1.09765625 C-1.84765625 0.09765625 -1.84765625 0.09765625 0 0 Z " fill="#A6ACCE" transform="translate(325.84765625,250.90234375)"/>
<path d="M0 0 C1.98 0.495 1.98 0.495 4 1 C4 3.97 4 6.94 4 10 C2.68 10.33 1.36 10.66 0 11 C-1 10 -1 10 -1.1328125 7.96875 C-1.13023437 7.1540625 -1.12765625 6.339375 -1.125 5.5 C-1.12757813 4.6853125 -1.13015625 3.870625 -1.1328125 3.03125 C-1 1 -1 1 0 0 Z " fill="#4E5A98" transform="translate(222,167)"/>
<path d="M0 0 C0.66 0.33 1.32 0.66 2 1 C1.67 2.65 1.34 4.3 1 6 C1.66 6 2.32 6 3 6 C3.33 5.34 3.66 4.68 4 4 C4 4.99 4 5.98 4 7 C0 7 -4 7 -8 7 C-8 5.35 -8 3.7 -8 2 C-8.66 1.67 -9.32 1.34 -10 1 C-8.68 1 -7.36 1 -6 1 C-6 1.66 -6 2.32 -6 3 C-4.02 2.67 -2.04 2.34 0 2 C0 1.34 0 0.68 0 0 Z " fill="#979DC5" transform="translate(275,213)"/>
<path d="M0 0 C1.91015625 0.1328125 1.91015625 0.1328125 3.91015625 1.1328125 C3.58015625 2.4528125 3.25015625 3.7728125 2.91015625 5.1328125 C-0.05984375 5.1328125 -3.02984375 5.1328125 -6.08984375 5.1328125 C-6.41984375 3.8128125 -6.74984375 2.4928125 -7.08984375 1.1328125 C-5.19099279 -0.76603846 -2.51736472 0.00913744 0 0 Z " fill="#4B5798" transform="translate(285.08984375,120.8671875)"/>
<path d="M0 0 C2.0625 0.4375 2.0625 0.4375 4 1 C4 3.64 4 6.28 4 9 C2.02 9.99 2.02 9.99 0 11 C-1 10 -1 10 -1.1328125 7.96875 C-1.13023437 7.1540625 -1.12765625 6.339375 -1.125 5.5 C-1.12757813 4.6853125 -1.13015625 3.870625 -1.1328125 3.03125 C-1 1 -1 1 0 0 Z " fill="#4C5899" transform="translate(372,167)"/>
<path d="M0 0 C1.65 0.33 3.3 0.66 5 1 C4.40072174 4.35595828 3.15377564 6.37801226 1 9 C-0.32 8.67 -1.64 8.34 -3 8 C-2.45276317 4.62537285 -1.9451 2.91765 0 0 Z " fill="#4C5898" transform="translate(225,124)"/>
<path d="M0 0 C1.98 0.495 1.98 0.495 4 1 C4 3.97 4 6.94 4 10 C2.35 10 0.7 10 -1 10 C-1.02689216 8.52093108 -1.04634621 7.04172517 -1.0625 5.5625 C-1.07410156 4.73878906 -1.08570313 3.91507813 -1.09765625 3.06640625 C-1 1 -1 1 0 0 Z " fill="#475396" transform="translate(222,182)"/>
<path d="M0 0 C1.65 0 3.3 0 5 0 C5 2.97 5 5.94 5 9 C3.68 9.33 2.36 9.66 1 10 C0 9 0 9 -0.09765625 6.93359375 C-0.08605469 6.10988281 -0.07445312 5.28617188 -0.0625 4.4375 C-0.05347656 3.61121094 -0.04445312 2.78492188 -0.03515625 1.93359375 C-0.02355469 1.29550781 -0.01195312 0.65742188 0 0 Z " fill="#485496" transform="translate(221,153)"/>
<path d="M0 0 C1.65 0 3.3 0 5 0 C5 2.97 5 5.94 5 9 C3.68 9.33 2.36 9.66 1 10 C0 9 0 9 -0.09765625 6.93359375 C-0.08605469 6.10988281 -0.07445312 5.28617188 -0.0625 4.4375 C-0.05347656 3.61121094 -0.04445312 2.78492188 -0.03515625 1.93359375 C-0.02355469 1.29550781 -0.01195312 0.65742188 0 0 Z " fill="#485396" transform="translate(221,138)"/>
<path d="M0 0 C2.97 0 5.94 0 9 0 C9.33 1.32 9.66 2.64 10 4 C9 5 9 5 6.93359375 5.09765625 C6.10988281 5.08605469 5.28617187 5.07445313 4.4375 5.0625 C3.61121094 5.05347656 2.78492188 5.04445313 1.93359375 5.03515625 C1.29550781 5.02355469 0.65742188 5.01195313 0 5 C0 3.35 0 1.7 0 0 Z " fill="#485496" transform="translate(264,121)"/>
<path d="M0 0 C3.63 0 7.26 0 11 0 C11 1.32 11 2.64 11 4 C7.86567988 5.00746004 6.13816549 4.78454137 3 4 C0.81296615 4.37907282 0.81296615 4.37907282 -1 5 C-0.67 3.35 -0.34 1.7 0 0 Z " fill="#A6ACCE" transform="translate(321,227)"/>
<path d="M0 0 C2.0625 0.4375 2.0625 0.4375 4 1 C4 3.64 4 6.28 4 9 C2.35 9.33 0.7 9.66 -1 10 C-1.02689216 8.52093108 -1.04634621 7.04172517 -1.0625 5.5625 C-1.07410156 4.73878906 -1.08570313 3.91507813 -1.09765625 3.06640625 C-1 1 -1 1 0 0 Z " fill="#485396" transform="translate(372,182)"/>
<path d="M0 0 C2.64 0 5.28 0 8 0 C8.5625 1.9375 8.5625 1.9375 9 4 C8 5 8 5 5.93359375 5.09765625 C5.10988281 5.08605469 4.28617187 5.07445313 3.4375 5.0625 C2.61121094 5.05347656 1.78492188 5.04445313 0.93359375 5.03515625 C0.29550781 5.02355469 -0.34257812 5.01195313 -1 5 C-0.67 3.35 -0.34 1.7 0 0 Z " fill="#445095" transform="translate(354,121)"/>
<path d="M0 0 C2.05078125 0.03255208 4.1015625 0.06510417 6.15234375 0.09765625 C6.48234375 1.74765625 6.81234375 3.39765625 7.15234375 5.09765625 C4.18234375 5.09765625 1.21234375 5.09765625 -1.84765625 5.09765625 C-2.17765625 3.77765625 -2.50765625 2.45765625 -2.84765625 1.09765625 C-1.84765625 0.09765625 -1.84765625 0.09765625 0 0 Z " fill="#445095" transform="translate(325.84765625,120.90234375)"/>
<path d="M0 0 C2.05078125 0.03255208 4.1015625 0.06510417 6.15234375 0.09765625 C6.48234375 1.74765625 6.81234375 3.39765625 7.15234375 5.09765625 C4.18234375 5.09765625 1.21234375 5.09765625 -1.84765625 5.09765625 C-2.17765625 3.77765625 -2.50765625 2.45765625 -2.84765625 1.09765625 C-1.84765625 0.09765625 -1.84765625 0.09765625 0 0 Z " fill="#455195" transform="translate(310.84765625,120.90234375)"/>
<path d="M0 0 C2.05078125 0.03255208 4.1015625 0.06510417 6.15234375 0.09765625 C6.48234375 1.74765625 6.81234375 3.39765625 7.15234375 5.09765625 C4.18234375 5.09765625 1.21234375 5.09765625 -1.84765625 5.09765625 C-2.17765625 3.77765625 -2.50765625 2.45765625 -2.84765625 1.09765625 C-1.84765625 0.09765625 -1.84765625 0.09765625 0 0 Z " fill="#465296" transform="translate(295.84765625,120.90234375)"/>
<path d="M0 0 C2.64 0 5.28 0 8 0 C8.5625 1.9375 8.5625 1.9375 9 4 C8 5 8 5 5.93359375 5.09765625 C5.10988281 5.08605469 4.28617188 5.07445313 3.4375 5.0625 C2.61121094 5.05347656 1.78492188 5.04445313 0.93359375 5.03515625 C0.29550781 5.02355469 -0.34257812 5.01195313 -1 5 C-0.67 3.35 -0.34 1.7 0 0 Z " fill="#455195" transform="translate(250,121)"/>
<path d="M0 0 C2.475 0.495 2.475 0.495 5 1 C5.125 7.75 5.125 7.75 4 10 C2.68 9.67 1.36 9.34 0 9 C0 6.03 0 3.06 0 0 Z " fill="#495498" transform="translate(371,138)"/>
<path d="M0 0 C2.71928517 0.37507382 3.84218661 0.84218661 5.8125 2.8125 C7 5 7 5 6.6875 7.25 C6.460625 7.8275 6.23375 8.405 6 9 C3.28071483 8.62492618 2.15781339 8.15781339 0.1875 6.1875 C-1 4 -1 4 -0.6875 1.75 C-0.460625 1.1725 -0.23375 0.595 0 0 Z " fill="#465297" transform="translate(368,124)"/>
<path d="M0 0 C2.05078125 0.03255208 4.1015625 0.06510417 6.15234375 0.09765625 C6.71484375 2.03515625 6.71484375 2.03515625 7.15234375 4.09765625 C6.15234375 5.09765625 6.15234375 5.09765625 4.3046875 5.1953125 C2.25390625 5.16276042 0.203125 5.13020833 -1.84765625 5.09765625 C-2.41015625 3.16015625 -2.41015625 3.16015625 -2.84765625 1.09765625 C-1.84765625 0.09765625 -1.84765625 0.09765625 0 0 Z " fill="#434E95" transform="translate(340.84765625,120.90234375)"/>
<path d="M0 0 C2.05078125 0.03255208 4.1015625 0.06510417 6.15234375 0.09765625 C6.71484375 2.03515625 6.71484375 2.03515625 7.15234375 4.09765625 C6.15234375 5.09765625 6.15234375 5.09765625 4.3046875 5.1953125 C2.25390625 5.16276042 0.203125 5.13020833 -1.84765625 5.09765625 C-2.41015625 3.16015625 -2.41015625 3.16015625 -2.84765625 1.09765625 C-1.84765625 0.09765625 -1.84765625 0.09765625 0 0 Z " fill="#434E94" transform="translate(236.84765625,120.90234375)"/>
<path d="M0 0 C2.31 0 4.62 0 7 0 C7.38218767 1.65614657 7.71395102 3.32457024 8 5 C7 6 7 6 3.4375 6.0625 C2.303125 6.041875 1.16875 6.02125 0 6 C0 4.02 0 2.04 0 0 Z " fill="#7B84B6" transform="translate(345,238)"/>
<path d="M0 0 C-0.33 0.99 -0.66 1.98 -1 3 C-0.34 3.33 0.32 3.66 1 4 C-6.42857143 5.28571429 -6.42857143 5.28571429 -10 4 C-10 2.68 -10 1.36 -10 0 C-6.42355152 -1.2380014 -3.66305234 -0.74926071 0 0 Z " fill="#969CC5" transform="translate(321,227)"/>
<path d="M0 0 C0 1.98 0 3.96 0 6 C-3.3 6 -6.6 6 -10 6 C-10 4.35 -10 2.7 -10 1 C-8.8553125 1.309375 -8.8553125 1.309375 -7.6875 1.625 C-4.17504101 2.11511056 -3.32502623 0 0 0 Z " fill="#7CCAF8" transform="translate(154,214)"/>
<path d="M0 0 C3.63 0 7.26 0 11 0 C11.33 1.32 11.66 2.64 12 4 C11.34 3.34 10.68 2.68 10 2 C9.67 2.99 9.34 3.98 9 5 C8.34 5 7.68 5 7 5 C6.67 4.01 6.34 3.02 6 2 C5.01 3.485 5.01 3.485 4 5 C2.35 4.67 0.7 4.34 -1 4 C-0.67 2.68 -0.34 1.36 0 0 Z " fill="#90D1F9" transform="translate(96,215)"/>
<path d="M0 0 C4.875 0.875 4.875 0.875 6 2 C6.125 4.5 6.125 4.5 6 7 C5 8 5 8 2.4375 8.0625 C1.633125 8.041875 0.82875 8.02125 0 8 C0 5.36 0 2.72 0 0 Z " fill="#BAE2FB" transform="translate(66,196)"/>
<path d="M0 0 C3.34252724 -0.07427838 5.8035914 -0.06546953 9 1 C9 1.99 9 2.98 9 4 C9.99 3.67 10.98 3.34 12 3 C12 3.66 12 4.32 12 5 C7.66666667 5 3.33333333 5 -1 5 C-0.67 3.35 -0.34 1.7 0 0 Z " fill="#ADB2D2" transform="translate(245,239)"/>
<path d="M0 0 C2.97 0.33 5.94 0.66 9 1 C9 2.32 9 3.64 9 5 C5.8035914 6.06546953 3.34252724 6.07427838 0 6 C0 4.02 0 2.04 0 0 Z " fill="#8ED1F9" transform="translate(145,238)"/>
<path d="M0 0 C2.05078125 0.03255208 4.1015625 0.06510417 6.15234375 0.09765625 C6.48234375 1.74765625 6.81234375 3.39765625 7.15234375 5.09765625 C4.18234375 5.09765625 1.21234375 5.09765625 -1.84765625 5.09765625 C-2.17765625 3.77765625 -2.50765625 2.45765625 -2.84765625 1.09765625 C-1.84765625 0.09765625 -1.84765625 0.09765625 0 0 Z " fill="#7FCAF8" transform="translate(72.84765625,226.90234375)"/>
<path d="M0 0 C0 1.65 0 3.3 0 5 C-2.64 5 -5.28 5 -8 5 C-8 3.35 -8 1.7 -8 0 C-4.94736336 -0.98120464 -3.05263664 -0.98120464 0 0 Z " fill="#A2D8FA" transform="translate(98,199)"/>
<path d="M0 0 C0.66 0 1.32 0 2 0 C2 2.64 2 5.28 2 8 C-0.31 8 -2.62 8 -5 8 C-5.33 8.99 -5.66 9.98 -6 11 C-6 8.36 -6 5.72 -6 3 C-4.68 4.32 -3.36 5.64 -2 7 C-2 5.68 -2 4.36 -2 3 C-2.66 2.67 -3.32 2.34 -4 2 C-3.01 2 -2.02 2 -1 2 C-0.67 1.34 -0.34 0.68 0 0 Z " fill="#BDC2DB" transform="translate(290,196)"/>
<path d="M0 0 C2.64 0.33 5.28 0.66 8 1 C8 2.65 8 4.3 8 6 C5.66705225 6.04241723 3.33297433 6.04092937 1 6 C0 5 0 5 -0.0625 2.4375 C-0.041875 1.633125 -0.02125 0.82875 0 0 Z " fill="#9EA4CA" transform="translate(311,250)"/>
<path d="M0 0 C3.63 0 7.26 0 11 0 C11 1.32 11 2.64 11 4 C7.15783941 5.2807202 4.90779056 4.82269275 1 4 C0.67 2.68 0.34 1.36 0 0 Z " fill="#82CBF8" transform="translate(69,239)"/>
<path d="M0 0 C2.05078125 0.03255208 4.1015625 0.06510417 6.15234375 0.09765625 C6.48234375 0.75765625 6.81234375 1.41765625 7.15234375 2.09765625 C6.49234375 2.09765625 5.83234375 2.09765625 5.15234375 2.09765625 C4.82234375 2.75765625 4.49234375 3.41765625 4.15234375 4.09765625 C4.81234375 4.42765625 5.47234375 4.75765625 6.15234375 5.09765625 C3.51234375 5.09765625 0.87234375 5.09765625 -1.84765625 5.09765625 C-2.41015625 3.16015625 -2.41015625 3.16015625 -2.84765625 1.09765625 C-1.84765625 0.09765625 -1.84765625 0.09765625 0 0 Z " fill="#A7ADCF" transform="translate(263.84765625,250.90234375)"/>
<path d="M0 0 C1.32 0 2.64 0 4 0 C4 0.66 4 1.32 4 2 C4.99 1.67 5.98 1.34 7 1 C6.34 3.31 5.68 5.62 5 8 C4.34 8 3.68 8 3 8 C3 7.34 3 6.68 3 6 C2.01 5.67 1.02 5.34 0 5 C0 3.35 0 1.7 0 0 Z " fill="#71C6F7" transform="translate(116,227)"/>
<path d="M0 0 C2.97 0 5.94 0 9 0 C9 1.65 9 3.3 9 5 C7.02 5 5.04 5 3 5 C2.67 4.01 2.34 3.02 2 2 C1.01 3.485 1.01 3.485 0 5 C0 3.35 0 1.7 0 0 Z " fill="#A6ABCE" transform="translate(312,215)"/>
<path d="M0 0 C1.98 0 3.96 0 6 0 C6.66 1.32 7.32 2.64 8 4 C7 5 7 5 3.4375 5.0625 C2.303125 5.041875 1.16875 5.02125 0 5 C0 3.35 0 1.7 0 0 Z " fill="#9DA3C9" transform="translate(340,227)"/>
<path d="M0 0 C1.2065625 0.0309375 1.2065625 0.0309375 2.4375 0.0625 C2.4375 2.0425 2.4375 4.0225 2.4375 6.0625 C0.7875 6.0625 -0.8625 6.0625 -2.5625 6.0625 C-2.94468767 4.40635343 -3.27645102 2.73792976 -3.5625 1.0625 C-2.5625 0.0625 -2.5625 0.0625 0 0 Z " fill="#88D0F8" transform="translate(119.5625,197.9375)"/>
<path d="M0 0 C0.66 0 1.32 0 2 0 C2.33 0.66 2.66 1.32 3 2 C4.32 1.34 5.64 0.68 7 0 C7 1.98 7 3.96 7 6 C4.69 6 2.38 6 0 6 C0 4.02 0 2.04 0 0 Z " fill="#7FCBF8" transform="translate(62,226)"/>
<path d="M0 0 C0 1.98 0 3.96 0 6 C-1.98 6 -3.96 6 -6 6 C-6 4.35 -6 2.7 -6 1 C-4 0 -4 0 0 0 Z " fill="#7FCAF8" transform="translate(87,226)"/>
<path d="M0 0 C0.66 0.33 1.32 0.66 2 1 C2 4 2 4 0.9375 6.5625 C0.628125 7.366875 0.31875 8.17125 0 9 C0.33 9.66 0.66 10.32 1 11 C-0.32 11.33 -1.64 11.66 -3 12 C-3 3 -3 3 0 0 Z " fill="#F0FFC9" transform="translate(109,313)"/>
<path d="M0 0 C1.67542976 0.28604898 3.34385343 0.61781233 5 1 C5 1.99 5 2.98 5 4 C5.66 4 6.32 4 7 4 C7.33 3.01 7.66 2.02 8 1 C8 2.32 8 3.64 8 5 C5.03 5 2.06 5 -1 5 C-1 1 -1 1 0 0 Z " fill="#A5ABCD" transform="translate(277,239)"/>
<path d="M0 0 C1.65 0 3.3 0 5 0 C5.33 1.65 5.66 3.3 6 5 C5.236875 4.814375 4.47375 4.62875 3.6875 4.4375 C0.91032625 3.77180827 0.91032625 3.77180827 -2 5 C-1.34 3.35 -0.68 1.7 0 0 Z " fill="#A9AFD0" transform="translate(287,251)"/>
<path d="M0 0 C2.97 0.495 2.97 0.495 6 1 C6 2.65 6 4.3 6 6 C3.36 6 0.72 6 -2 6 C-1.34 4.02 -0.68 2.04 0 0 Z " fill="#9CD5F9" transform="translate(62,214)"/>
<path d="M0 0 C0 1.65 0 3.3 0 5 C-2.33294775 5.04241723 -4.66702567 5.04092937 -7 5 C-8 4 -8 4 -9 1 C-6.04335481 -0.4783226 -3.25770263 -0.06032783 0 0 Z " fill="#8FD0F9" transform="translate(118,215)"/>
<path d="M0 0 C1.32 0 2.64 0 4 0 C4.33 1.65 4.66 3.3 5 5 C3.35 5.33 1.7 5.66 0 6 C-0.38218767 4.34385343 -0.71395102 2.67542976 -1 1 C-0.67 0.67 -0.34 0.34 0 0 Z " fill="#90D2F9" transform="translate(74,198)"/>
<path d="M0 0 C0.66 0.66 1.32 1.32 2 2 C2.66 1.67 3.32 1.34 4 1 C4.99 1 5.98 1 7 1 C7 2.65 7 4.3 7 6 C4.69 6 2.38 6 0 6 C0 4.02 0 2.04 0 0 Z " fill="#A4AACD" transform="translate(324,214)"/>
<path d="M0 0 C2 2 2 2 2 6 C0.02 6 -1.96 6 -4 6 C-4.33 4.68 -4.66 3.36 -5 2 C-3.35 1.34 -1.7 0.68 0 0 Z " fill="#9CA3C8" transform="translate(302,214)"/>
<path d="M0 0 C2.31 0.33 4.62 0.66 7 1 C6.34 2.98 5.68 4.96 5 7 C3.68 7 2.36 7 1 7 C0.67 4.69 0.34 2.38 0 0 Z " fill="#8AD1F9" transform="translate(108,197)"/>
<path d="M0 0 C1.1446875 0.2475 1.1446875 0.2475 2.3125 0.5 C5.03596236 1.09145396 5.03596236 1.09145396 8 1 C8 1.99 8 2.98 8 4 C5.69 4.33 3.38 4.66 1 5 C0.34 4.01 -0.32 3.02 -1 2 C-0.67 1.34 -0.34 0.68 0 0 Z " fill="#EFFF99" transform="translate(231,383)"/>
<path d="M0 0 C2.31 0.33 4.62 0.66 7 1 C6.67 2.32 6.34 3.64 6 5 C5.34 5 4.68 5 4 5 C3.01 6.485 3.01 6.485 2 8 C2 7.34 2 6.68 2 6 C1.34 6 0.68 6 0 6 C0 4.02 0 2.04 0 0 Z " fill="#888FBD" transform="translate(321,238)"/>
<path d="M0 0 C-0.33 1.65 -0.66 3.3 -1 5 C-1.99 5.33 -2.98 5.66 -4 6 C-4.33 5.34 -4.66 4.68 -5 4 C-5.66 4 -6.32 4 -7 4 C-7 2.68 -7 1.36 -7 0 C-3.98968256 -0.93423645 -3.13349732 -1.04449911 0 0 Z " fill="#7F87B8" transform="translate(276,227)"/>
<path d="M0 0 C6.15234375 -0.09765625 6.15234375 -0.09765625 8 0 C9 1 9 1 9.0625 3.5625 C9.041875 4.366875 9.02125 5.17125 9 6 C8.67 4.68 8.34 3.36 8 2 C7.01 2 6.02 2 5 2 C4.67 3.32 4.34 4.64 4 6 C3.34 4.68 2.68 3.36 2 2 C1.34 3.32 0.68 4.64 0 6 C0 4.02 0 2.04 0 0 Z " fill="#CED1E4" transform="translate(273,198)"/>
<path d="M0 0 C2.64 0 5.28 0 8 0 C7.67 1.32 7.34 2.64 7 4 C5.35 4 3.7 4 2 4 C1.34 2.68 0.68 1.36 0 0 Z " fill="#4C579A" transform="translate(294,164)"/>
<path d="M0 0 C1.32 0 2.64 0 4 0 C4.33 1.98 4.66 3.96 5 6 C4.34 6 3.68 6 3 6 C2.34 7.32 1.68 8.64 1 10 C-0.04005702 6.61981469 -0.08004482 3.5219721 0 0 Z " fill="#E1EDBF" transform="translate(35,0)"/>
<path d="M0 0 C1.67542976 0.28604898 3.34385343 0.61781233 5 1 C5 2.32 5 3.64 5 5 C4.01 4.67 3.02 4.34 2 4 C1.67 5.65 1.34 7.3 1 9 C-1.14809171 5.77786243 -1.29386153 4.72224599 -1 1 C-0.67 0.67 -0.34 0.34 0 0 Z " fill="#6F78AF" transform="translate(283,198)"/>
<path d="M0 0 C0 1.32 0 2.64 0 4 C-3 5 -3 5 -6 4 C-6 2.68 -6 1.36 -6 0 C-3.50907189 -1.24546405 -2.58919267 -0.7767578 0 0 Z " fill="#6DC4F7" transform="translate(104,251)"/>
<path d="M0 0 C1.67542976 0.28604898 3.34385343 0.61781233 5 1 C5 2.32 5 3.64 5 5 C4.34 5 3.68 5 3 5 C3 4.01 3 3.02 3 2 C2.34 2 1.68 2 1 2 C0.67 2.99 0.34 3.98 0 5 C-1.32 4.67 -2.64 4.34 -4 4 C-3.34 4 -2.68 4 -2 4 C-1.67 3.01 -1.34 2.02 -1 1 C-0.67 0.67 -0.34 0.34 0 0 Z " fill="#AEB3D3" transform="translate(300,239)"/>
<path d="M0 0 C0 1.32 0 2.64 0 4 C-3 5 -3 5 -6 4 C-6 2.68 -6 1.36 -6 0 C-3.50907189 -1.24546405 -2.58919267 -0.7767578 0 0 Z " fill="#9198C2" transform="translate(260,239)"/>
<path d="M0 0 C0.99 1.485 0.99 1.485 2 3 C3.32 2.67 4.64 2.34 6 2 C6 3.65 6 5.3 6 7 C5.38125 6.814375 4.7625 6.62875 4.125 6.4375 C1.95839822 5.76313824 1.95839822 5.76313824 0 7 C0 4.69 0 2.38 0 0 Z " fill="#9FA5CA" transform="translate(305,213)"/>
<path d="M0 0 C0.66 0 1.32 0 2 0 C3.38232443 1.62626404 4.71937515 3.2925002 6 5 C3 7 3 7 0 7 C0 4.69 0 2.38 0 0 Z " fill="#57BBF6" transform="translate(119,213)"/>
<path d="M0 0 C0.99 0.33 1.98 0.66 3 1 C2.34 3.64 1.68 6.28 1 9 C-3.62 9 -8.24 9 -13 9 C-13 8.67 -13 8.34 -13 8 C-8.71 8 -4.42 8 0 8 C0 5.36 0 2.72 0 0 Z " fill="#CFD2E5" transform="translate(305,171)"/>
<path d="M0 0 C1.65 0 3.3 0 5 0 C5 0.99 5 1.98 5 3 C4.34 3 3.68 3 3 3 C3 3.66 3 4.32 3 5 C1.68 5 0.36 5 -1 5 C-0.67 3.35 -0.34 1.7 0 0 Z " fill="#A7ADCF" transform="translate(280,251)"/>
<path d="M0 0 C1.98 0 3.96 0 6 0 C6 1.98 6 3.96 6 6 C5.01 6 4.02 6 3 6 C3 4.68 3 3.36 3 2 C2.34 2 1.68 2 1 2 C0.67 3.32 0.34 4.64 0 6 C0 4.02 0 2.04 0 0 Z " fill="#ADB2D2" transform="translate(272,250)"/>
<path d="M0 0 C2.31 0 4.62 0 7 0 C7.33 1.65 7.66 3.3 8 5 C7.34 5 6.68 5 6 5 C5.67 4.01 5.34 3.02 5 2 C4.01 3.485 4.01 3.485 3 5 C3 4.01 3 3.02 3 2 C2.34 2 1.68 2 1 2 C0.67 2.99 0.34 3.98 0 5 C0 3.35 0 1.7 0 0 Z " fill="#8ED0F9" transform="translate(89,239)"/>
<path d="M0 0 C1.65 0 3.3 0 5 0 C4.67 0.66 4.34 1.32 4 2 C3.34 2 2.68 2 2 2 C2.99 2.66 3.98 3.32 5 4 C4.67 4.99 4.34 5.98 4 7 C2.68 7 1.36 7 0 7 C0 4.69 0 2.38 0 0 Z " fill="#9ED8F9" transform="translate(102,197)"/>
<path d="M0 0 C2.31 0 4.62 0 7 0 C6.3125 1.9375 6.3125 1.9375 5 4 C2.375 4.75 2.375 4.75 0 5 C0 3.35 0 1.7 0 0 Z " fill="#F5F3BD" transform="translate(0,119)"/>
<path d="M0 0 C-2.98917112 1.90974821 -5.51288896 3.32507528 -9 4 C-10.11375 4.2784375 -10.11375 4.2784375 -11.25 4.5625 C-11.8275 4.706875 -12.405 4.85125 -13 5 C-11.25 1.125 -11.25 1.125 -9 0 C-2.36842105 -1.18421053 -2.36842105 -1.18421053 0 0 Z " fill="#E8F4B7" transform="translate(102,61)"/>
<path d="M0 0 C0.99 0.33 1.98 0.66 3 1 C3 2.32 3 3.64 3 5 C1.02 5 -0.96 5 -3 5 C-2.625 3.0625 -2.625 3.0625 -2 1 C-1.34 0.67 -0.68 0.34 0 0 Z " fill="#81CCF8" transform="translate(107,227)"/>
<path d="M0 0 C2.3125 0.1875 2.3125 0.1875 4 1 C3.67 2.32 3.34 3.64 3 5 C0.36 5 -2.28 5 -5 5 C-2.75 2.4375 -2.75 2.4375 0 0 Z " fill="#B1B6D4" transform="translate(329,227)"/>
<path d="M0 0 C1.32 0 2.64 0 4 0 C4 1.65 4 3.3 4 5 C2.35 4.67 0.7 4.34 -1 4 C-0.67 2.68 -0.34 1.36 0 0 Z " fill="#A6ABCE" transform="translate(292,215)"/>
<path d="M0 0 C1.32 0 2.64 0 4 0 C4 1.65 4 3.3 4 5 C2.35 4.67 0.7 4.34 -1 4 C-0.67 2.68 -0.34 1.36 0 0 Z " fill="#83CDF8" transform="translate(139,215)"/>
<path d="M0 0 C1.65 0 3.3 0 5 0 C5.33 1.32 5.66 2.64 6 4 C3.6875 4.625 3.6875 4.625 1 5 C0.01 4.34 -0.98 3.68 -2 3 C-1.01 3 -0.02 3 1 3 C0.67 2.01 0.34 1.02 0 0 Z " fill="#999FC7" transform="translate(283,215)"/>
<path d="M0 0 C2 2 2 2 2.1953125 3.9453125 C2.13020833 5.96354167 2.06510417 7.98177083 2 10 C0.68 9.34 -0.64 8.68 -2 8 C-1.125 1.125 -1.125 1.125 0 0 Z " fill="#F0FFC9" transform="translate(106,329)"/>
<path d="M0 0 C0.33 0 0.66 0 1 0 C1 2.31 1 4.62 1 7 C-0.32 7 -1.64 7 -3 7 C-2.25 2.25 -2.25 2.25 0 0 Z " fill="#FAFCFA" transform="translate(289,173)"/>
<path d="M0 0 C2.31 0.66 4.62 1.32 7 2 C7 2.66 7 3.32 7 4 C7.99 4.33 8.98 4.66 10 5 C8.375 5.75 8.375 5.75 6 6 C2.75 4.1875 2.75 4.1875 0 2 C0 1.34 0 0.68 0 0 Z " fill="#D0F4BF" transform="translate(198,85)"/>
<path d="M0 0 C1.98 0.495 1.98 0.495 4 1 C3.67 2.32 3.34 3.64 3 5 C1.68 5 0.36 5 -1 5 C-0.67 3.35 -0.34 1.7 0 0 Z " fill="#6BC4F7" transform="translate(128,239)"/>
<path d="M0 0 C2.475 0.495 2.475 0.495 5 1 C5 2.98 5 4.96 5 7 C4.34 6.01 3.68 5.02 3 4 C2.01 4.33 1.02 4.66 0 5 C0 3.35 0 1.7 0 0 Z " fill="#6F78AE" transform="translate(291,227)"/>
<path d="M0 0 C2.475 0.495 2.475 0.495 5 1 C5 1.99 5 2.98 5 4 C5.66 4.33 6.32 4.66 7 5 C6.401875 4.814375 5.80375 4.62875 5.1875 4.4375 C2.83591238 3.77906313 2.83591238 3.77906313 0 5 C0 3.35 0 1.7 0 0 Z " fill="#ABB1D1" transform="translate(249,227)"/>
<path d="M0 0 C2.97 0.495 2.97 0.495 6 1 C5.67 1.99 5.34 2.98 5 4 C5.66 4.33 6.32 4.66 7 5 C4 6 4 6 1 5 C0.67 3.35 0.34 1.7 0 0 Z " fill="#6E77AF" transform="translate(315,226)"/>
<path d="M0 0 C0.66 0 1.32 0 2 0 C2.12375 0.61875 2.2475 1.2375 2.375 1.875 C2.87197356 4.19120832 2.87197356 4.19120832 5 6 C2.69 6.33 0.38 6.66 -2 7 C-1.125 2.25 -1.125 2.25 0 0 Z " fill="#49B4F5" transform="translate(108,213)"/>
<path d="M0 0 C1.32 0.66 2.64 1.32 4 2 C3.67 2.99 3.34 3.98 3 5 C1.68 5 0.36 5 -1 5 C-0.67 3.35 -0.34 1.7 0 0 Z " fill="#9DA4C9" transform="translate(349,239)"/>
<path d="M0 0 C1.98 0.495 1.98 0.495 4 1 C4 2.32 4 3.64 4 5 C2.35 5 0.7 5 -1 5 C-0.67 3.35 -0.34 1.7 0 0 Z " fill="#A2A8CC" transform="translate(276,227)"/>
<path d="M0 0 C1.32 0.33 2.64 0.66 4 1 C4 2.65 4 4.3 4 6 C2.68 5.67 1.36 5.34 0 5 C0 3.35 0 1.7 0 0 Z " fill="#9DA3C9" transform="translate(312,198)"/>
<path d="M0 0 C1.32 0.33 2.64 0.66 4 1 C4 2.65 4 4.3 4 6 C2.68 5.67 1.36 5.34 0 5 C0 3.35 0 1.7 0 0 Z " fill="#78C9F7" transform="translate(94,198)"/>
<path d="M0 0 C1.875 0.625 1.875 0.625 4 2 C5.25 5.125 5.25 5.125 6 8 C5.34 8 4.68 8 4 8 C3.67 7.34 3.34 6.68 3 6 C0.98330173 4.86649466 0.98330173 4.86649466 -1 4 C-0.34 3.67 0.32 3.34 1 3 C0.67 2.01 0.34 1.02 0 0 Z " fill="#79C9F7" transform="translate(99,162)"/>
<path d="M0 0 C0 3 0 3 -1 6 C-1.66 6 -2.32 6 -3 6 C-3.33 7.32 -3.66 8.64 -4 10 C-4.66 10 -5.32 10 -6 10 C-4.79157144 5.56909529 -3.48331435 3.01887244 0 0 Z " fill="#71C6F7" transform="translate(112,160)"/>
<path d="M0 0 C2.31 0 4.62 0 7 0 C7 0.99 7 1.98 7 3 C4 4 4 4 1.8125 3.0625 C1.214375 2.711875 0.61625 2.36125 0 2 C0 1.34 0 0.68 0 0 Z " fill="#57BBF5" transform="translate(66,216)"/>
<path d="M0 0 C1.65 0.33 3.3 0.66 5 1 C4.67 2.65 4.34 4.3 4 6 C2.35 5.01 0.7 4.02 -1 3 C-0.67 2.01 -0.34 1.02 0 0 Z " fill="#E3F7E1" transform="translate(386,163)"/>
<path d="M0 0 C1.32 0.66 2.64 1.32 4 2 C2.7934375 2.433125 2.7934375 2.433125 1.5625 2.875 C-1.1326468 3.73262568 -1.1326468 3.73262568 -2 6 C-2 5.34 -2 4.68 -2 4 C-2.66 3.67 -3.32 3.34 -4 3 C-2.68 2.01 -1.36 1.02 0 0 Z " fill="#C4EEC8" transform="translate(271,83)"/>
<path d="M0 0 C0.99 0 1.98 0 3 0 C3 1.98 3 3.96 3 6 C2.01 6 1.02 6 0 6 C0 4.02 0 2.04 0 0 Z " fill="#9097C1" transform="translate(296,250)"/>
<path d="M0 0 C0.99 0.33 1.98 0.66 3 1 C3 2.32 3 3.64 3 5 C1.68 5 0.36 5 -1 5 C-0.67 3.35 -0.34 1.7 0 0 Z " fill="#90D1F9" transform="translate(85,239)"/>
<path d="M0 0 C1.98 0.66 3.96 1.32 6 2 C6 2.99 6 3.98 6 5 C4.35 5 2.7 5 1 5 C0.67 3.35 0.34 1.7 0 0 Z " fill="#A2D8FA" transform="translate(56,239)"/>
<path d="M0 0 C1.32 0.33 2.64 0.66 4 1 C3.67 2.32 3.34 3.64 3 5 C2.01 5 1.02 5 0 5 C0 3.35 0 1.7 0 0 Z " fill="#0DA3F1" transform="translate(67,198)"/>
<path d="M0 0 C3.465 1.485 3.465 1.485 7 3 C6.67 3.66 6.34 4.32 6 5 C3.36 4.34 0.72 3.68 -2 3 C-1 1 -1 1 0 0 Z " fill="#F4FFB4" transform="translate(117,89)"/>
<path d="M0 0 C1.32 0 2.64 0 4 0 C4 0.99 4 1.98 4 3 C4.66 3 5.32 3 6 3 C6.33 2.01 6.66 1.02 7 0 C7 1.32 7 2.64 7 4 C2.25 3.125 2.25 3.125 0 2 C0 1.34 0 0.68 0 0 Z " fill="#A9DBFA" transform="translate(137,228)"/>
<path d="M0 0 C1.66611905 -0.042721 3.33382885 -0.04063832 5 0 C6 1 6 1 6.0625 3.5625 C6.041875 4.366875 6.02125 5.17125 6 6 C3.97945196 4.35830472 1.97956942 2.69088222 0 1 C0 0.67 0 0.34 0 0 Z " fill="#34B0F3" transform="translate(103,198)"/>
</svg>
