<?xml version="1.0" encoding="UTF-8"?>
<svg version="1.1" xmlns="http://www.w3.org/2000/svg" width="400" height="400">
<path d="M0 0 C132 0 264 0 400 0 C400 132 400 264 400 400 C268 400 136 400 0 400 C0 268 0 136 0 0 Z " fill="#FBFDF7" transform="translate(0,0)"/>
<path d="M0 0 C0.80373047 -0.01224609 1.60746094 -0.02449219 2.43554688 -0.03710938 C18.20337384 -0.07516527 32.43313559 6.32876827 43.7890625 17.19921875 C50.56890515 24.54164409 54.06540092 32.18670037 53.97265625 42.203125 C52.98988248 52.48859296 46.89247756 60.81965149 39.234375 67.3515625 C32.51200627 72.1974418 24.96285971 74.02829756 16.73046875 73.6875 C5.15298426 71.78516622 -3.22172324 63.8894237 -10.08984375 54.84765625 C-14.64175603 47.88658937 -16.97360521 40.10806005 -19.3125 32.1875 C-19.51875 31.49398437 -19.725 30.80046875 -19.9375 30.0859375 C-21.55067486 21.91923977 -20.63651642 12.12892509 -18.3125 4.1875 C-16.65099485 1.72500865 -15.59671551 1.26121707 -12.70703125 0.51171875 C-8.45945786 0.10602417 -4.26486432 0.00337143 0 0 Z " fill="#FFC638" transform="translate(221.3125,201.8125)"/>
<path d="M0 0 C12.91333347 7.3509419 20.00524455 19.96816221 24.8203125 33.60546875 C27.29469184 44.71036398 26.69101334 56.93800156 22.8203125 67.60546875 C16.70801677 69.38616069 11.23323187 69.91350762 4.8828125 69.85546875 C3.61920898 69.86707031 3.61920898 69.86707031 2.33007812 69.87890625 C-12.99480433 69.83171647 -27.2865903 63.42089681 -38.1796875 52.60546875 C-45.42678804 43.90085079 -47.72519987 36.70030991 -47.55859375 25.37109375 C-47.00980578 19.91715965 -45.25876973 16.08116387 -42.1796875 11.60546875 C-41.74527344 10.9609375 -41.31085938 10.31640625 -40.86328125 9.65234375 C-30.85197283 -3.46788951 -14.60407175 -6.80633631 0 0 Z " fill="#93D003" transform="translate(172.1796875,128.39453125)"/>
<path d="M0 0 C0.88107422 -0.00322266 1.76214844 -0.00644531 2.66992188 -0.00976562 C15.06521073 0.09086034 15.06521073 0.09086034 19.4375 2.3125 C22.93821305 6.97776192 22.95277871 13.25888358 22.875 18.875 C22.86742676 19.65439941 22.85985352 20.43379883 22.85205078 21.23681641 C22.40273496 37.35643156 16.36587166 52.20581079 5.23828125 63.890625 C-2.289927 70.40037272 -11.19741285 73.87733094 -21.09375 73.78125 C-30.08112975 72.56673922 -38.71247899 67.54453491 -44.234375 60.36328125 C-50.15550292 51.22036313 -51.54745691 43.24196167 -50.5625 32.3125 C-47.74066184 21.67401925 -38.41736001 13.40981461 -29.28100586 7.84619141 C-19.77894701 2.3312199 -11.01821908 -0.20239197 0 0 Z " fill="#37AFE1" transform="translate(175.5625,201.6875)"/>
<path d="M0 0 C8.0049535 6.43876695 13.69084388 13.64367941 15.28515625 23.96875 C15.83835803 33.84127415 12.03978029 42.1721185 5.75 49.625 C-4.7086264 60.35840148 -18.92126118 67.49111874 -33.98852539 67.76782227 C-52.15797788 67.64499885 -52.15797788 67.64499885 -56.0625 65 C-61.15612281 56.91012848 -59.29576035 40.10849321 -57.40625 31.15625 C-52.6267851 14.96773984 -43.254168 3.70146681 -28.75 -4.625 C-18.0459133 -7.76240472 -9.47726056 -5.1177207 0 0 Z " fill="#FF4F88" transform="translate(260.125,130.6875)"/>
<path d="M0 0 C3.00218125 1.29824054 3.80616325 2.31254998 6 5 C7.23684556 9.07128329 7.29458718 12.67435767 6.375 16.8125 C4.513863 19.77339977 3.05898964 21.24270808 0 23 C-3.83158388 23.76348904 -7.25921559 23.75277164 -10.87890625 22.1875 C-13.32324876 20.4911852 -14.79171718 18.68559762 -15.65625 15.83984375 C-16.29567634 11.4873849 -16.4053012 7.82661554 -14 4 C-9.95851194 -0.5313654 -5.7602665 -1.13383102 0 0 Z " fill="#FEF3F7" transform="translate(247,143)"/>
<path d="M0 0 C5.68914138 -0.87976413 10.16152311 -1.25382715 15.05859375 2.0859375 C17.6843178 4.62599963 20.0138233 6.93003133 22 10 C21.99297531 13.70201262 19.73934329 15.75296846 17.25 18.3125 C16.57453125 19.03050781 15.8990625 19.74851563 15.203125 20.48828125 C13 22 13 22 10.50390625 21.93359375 C5.79064232 20.17623013 2.62729791 17.27015817 0 13 C-0.66085461 8.58085007 -0.48634242 4.4311198 0 0 Z " fill="#FEFDFA" transform="translate(231,231)"/>
<path d="M0 0 C4.44958458 1.57044162 6.84635064 4.05413547 9.1875 8.125 C9.73671735 11.78644898 9.9514166 13.87860975 8 17.0625 C5.34078668 18.62134919 4.23179255 18.83297501 1.1875 18.125 C-2.47066262 14.74009772 -5.63085538 11.25932434 -6.0625 6.1875 C-5.8125 3.125 -5.8125 3.125 -4.6875 1.1875 C-2.8125 0.125 -2.8125 0.125 0 0 Z " fill="#F5FAE8" transform="translate(160.8125,142.875)"/>
<path d="M0 0 C2.86724686 0.57344937 3.8614515 0.8614515 6 3 C6 3.99 6 4.98 6 6 C5.34 6 4.68 6 4 6 C3.9071875 7.0828125 3.9071875 7.0828125 3.8125 8.1875 C2.71043314 12.00234681 1.0803752 13.52230691 -2 16 C-4.34041052 16.94004066 -6.51859435 17.46479486 -9 18 C-9.33 20.97 -9.66 23.94 -10 27 C-11.32 27.33 -12.64 27.66 -14 28 C-15 27 -15 27 -15.4375 23.375 C-15.37330378 18.91336246 -13.8114845 16.57404779 -10.79296875 13.390625 C-8.15402323 11.34386115 -5.18896258 10.85856685 -2 10 C-0.48207356 7.50358872 -0.48207356 7.50358872 0 5 C-0.99 4.67 -1.98 4.34 -3 4 C-2.01 2.68 -1.02 1.36 0 0 Z " fill="#E8F5FB" transform="translate(161,229)"/>
<path d="M0 0 C7.875 0.875 7.875 0.875 9 2 C9.99 1.34 10.98 0.68 12 0 C12.99 0.33 13.98 0.66 15 1 C17.33299825 1.03954234 19.66708189 1.04401732 22 1 C22 1.66 22 2.32 22 3 C22.66 3 23.32 3 24 3 C24 2.01 24 1.02 24 0 C27.16227399 0 30.11640488 0.17014788 33.25 0.5 C34.14203125 0.5928125 35.0340625 0.685625 35.953125 0.78125 C36.62859375 0.8534375 37.3040625 0.925625 38 1 C37.67 2.32 37.34 3.64 37 5 C36.505 4.505 36.505 4.505 36 4 C36 4.66 36 5.32 36 6 C34.53626953 5.85691406 34.53626953 5.85691406 33.04296875 5.7109375 C31.77066406 5.60007813 30.49835938 5.48921875 29.1875 5.375 C27.92292969 5.25898438 26.65835937 5.14296875 25.35546875 5.0234375 C21.86442059 4.68558196 21.86442059 4.68558196 19 7 C19 5.35 19 3.7 19 2 C18.34 2 17.68 2 17 2 C17.33 2.99 17.66 3.98 18 5 C15.39761763 5.41626139 12.79534235 5.80854441 10.1875 6.1875 C9.44951172 6.30802734 8.71152344 6.42855469 7.95117188 6.55273438 C2.49275388 7.31839482 2.49275388 7.31839482 -0.03125 5.6875 C-1 4 -1 4 -0.6875 1.8125 C-0.460625 1.214375 -0.23375 0.61625 0 0 Z " fill="#AA9A9D" transform="translate(318,138)"/>
<path d="M0 0 C0.66 0 1.32 0 2 0 C2.33 0.66 2.66 1.32 3 2 C5.35448675 2.05454409 7.70767875 2.0939279 10.0625 2.125 C11.37347656 2.14820313 12.68445313 2.17140625 14.03515625 2.1953125 C18.00450814 1.99977792 21.22169276 1.17465121 25 0 C28 0 28 0 29.9375 1 C32.21785272 2.290849 32.21785272 2.290849 36 2 C36 3.32 36 4.64 36 6 C30.66666667 6 25.33333333 6 20 6 C18.906875 6.185625 17.81375 6.37125 16.6875 6.5625 C13.21915439 6.97399863 11.33331895 6.71428263 8 6 C4.99810678 5.90857178 2.00238549 5.9411297 -1 6 C-1.625 4.125 -1.625 4.125 -2 2 C-1.34 1.34 -0.68 0.68 0 0 Z " fill="#967F8D" transform="translate(292,218)"/>
<path d="M0 0 C0.2475 0.53625 0.495 1.0725 0.75 1.625 C2.0367419 4.17354264 2.0367419 4.17354264 4.0625 7.0625 C6 10 6 10 7 13 C5.2984375 13.2165625 5.2984375 13.2165625 3.5625 13.4375 C0.19222799 13.61171478 0.19222799 13.61171478 -1 15 C-3.9375 15.1875 -3.9375 15.1875 -7 15 C-7.66 14.34 -8.32 13.68 -9 13 C-8.90216464 9.38009161 -8.07816412 8.08639192 -5.625 5.375 C-4.75875 4.59125 -3.8925 3.8075 -3 3 C-2.401875 2.401875 -1.80375 1.80375 -1.1875 1.1875 C-0.795625 0.795625 -0.40375 0.40375 0 0 Z " fill="#FAFDF3" transform="translate(153,149)"/>
<path d="M0 0 C0.66 0 1.32 0 2 0 C2 0.66 2 1.32 2 2 C5.3 2 8.6 2 12 2 C12 1.34 12 0.68 12 0 C12.66 0 13.32 0 14 0 C14 1.98 14 3.96 14 6 C7.73 6 1.46 6 -5 6 C-5 6.66 -5 7.32 -5 8 C-5.66 8 -6.32 8 -7 8 C-7.33 7.34 -7.66 6.68 -8 6 C-10.02463255 5.34786708 -10.02463255 5.34786708 -12 5 C-12 3.68 -12 2.36 -12 1 C-11.21753906 1.01160156 -10.43507812 1.02320313 -9.62890625 1.03515625 C-8.61699219 1.04417969 -7.60507812 1.05320313 -6.5625 1.0625 C-5.04849609 1.07990234 -5.04849609 1.07990234 -3.50390625 1.09765625 C-1.05978933 1.28612676 -1.05978933 1.28612676 0 0 Z " fill="#B1A0AB" transform="translate(56,218)"/>
<path d="M0 0 C0.66 0 1.32 0 2 0 C2.33 0.66 2.66 1.32 3 2 C3.53625 1.814375 4.0725 1.62875 4.625 1.4375 C7.61990614 0.88580676 10.03745829 1.39402556 13 2 C13 1.34 13 0.68 13 0 C13.66 0 14.32 0 15 0 C15 0.66 15 1.32 15 2 C16.670625 1.7215625 16.670625 1.7215625 18.375 1.4375 C22 1 22 1 24 2 C24 3.32 24 4.64 24 6 C16.08 6 8.16 6 0 6 C0 4.02 0 2.04 0 0 Z " fill="#A4909D" transform="translate(77,133)"/>
<path d="M0 0 C0.66 0.66 1.32 1.32 2 2 C4.21072977 2.24253813 4.21072977 2.24253813 6.625 2.125 C7.44226563 2.10695312 8.25953125 2.08890625 9.1015625 2.0703125 C9.72804688 2.04710937 10.35453125 2.02390625 11 2 C11.495 3.485 11.495 3.485 12 5 C9 6 9 6 6 5 C3.66585471 5.32759934 1.33247761 5.66073053 -1 6 C-1.66 5.67 -2.32 5.34 -3 5 C-5.67911399 4.87586002 -8.32083099 4.81484193 -11 4.8125 C-11.73734375 4.80025391 -12.4746875 4.78800781 -13.234375 4.77539062 C-15.15770058 4.77012605 -17.08054263 4.87796553 -19 5 C-19.66 5.66 -20.32 6.32 -21 7 C-21 5.35 -21 3.7 -21 2 C-19.10314453 2.03480469 -19.10314453 2.03480469 -17.16796875 2.0703125 C-15.5078184 2.08907126 -13.84766167 2.10727135 -12.1875 2.125 C-11.35412109 2.14175781 -10.52074219 2.15851563 -9.66210938 2.17578125 C-8.45844727 2.18544922 -8.45844727 2.18544922 -7.23046875 2.1953125 C-6.12288208 2.21102295 -6.12288208 2.21102295 -4.99291992 2.22705078 C-2.68109324 2.11741479 -2.68109324 2.11741479 0 0 Z " fill="#BEB2BA" transform="translate(98,155)"/>
<path d="M0 0 C3.625 0.375 3.625 0.375 7 1 C7.625 4.375 7.625 4.375 8 8 C6 10 6 10 3 10.25 C0 10 0 10 -2 8 C-2.25 5 -2.25 5 -2 2 C-1.34 1.34 -0.68 0.68 0 0 Z " fill="#DAF0F9" transform="translate(161,246)"/>
<path d="M0 0 C1.41702513 0.14230808 2.8336096 0.28900746 4.25 0.4375 C5.43335938 0.55931641 5.43335938 0.55931641 6.640625 0.68359375 C8.82512084 0.97654766 10.86543847 1.46635962 13 2 C14.66623639 2.03786901 16.33397597 2.04627845 18 2 C17.67 3.32 17.34 4.64 17 6 C16.236875 5.814375 15.47375 5.62875 14.6875 5.4375 C11.91032625 4.77180827 11.91032625 4.77180827 9 6 C7.329375 5.7525 7.329375 5.7525 5.625 5.5 C2.29777145 5.04107192 0.19404456 5.12889694 -3 6 C-3 4.68 -3 3.36 -3 2 C-2.34 2 -1.68 2 -1 2 C-0.67 1.34 -0.34 0.68 0 0 Z " fill="#D9D3D7" transform="translate(57,240)"/>
<path d="M0 0 C0.99 0.33 1.98 0.66 3 1 C3 1.66 3 2.32 3 3 C3.66 3 4.32 3 5 3 C5.33 2.34 5.66 1.68 6 1 C6.77085938 1.01160156 7.54171875 1.02320313 8.3359375 1.03515625 C9.84027344 1.04869141 9.84027344 1.04869141 11.375 1.0625 C12.87160156 1.07990234 12.87160156 1.07990234 14.3984375 1.09765625 C16.98432453 1.18006602 16.98432453 1.18006602 19 0 C19.99 0.66 20.98 1.32 22 2 C22 2.99 22 3.98 22 5 C17.15032365 5.09509169 12.76487164 4.95297433 8 4 C5.90178785 4.39938767 5.90178785 4.39938767 4 5 C1.37886292 5 -0.50935112 4.68707555 -3 4 C-2.67 3.01 -2.34 2.02 -2 1 C-1.34 0.67 -0.68 0.34 0 0 Z " fill="#C2B7BE" transform="translate(80,241)"/>
<path d="M0 0 C5.28 0 10.56 0 16 0 C15 5 15 5 14 6 C12.33382885 6.04063832 10.66611905 6.042721 9 6 C9 5.34 9 4.68 9 4 C5.7 4 2.4 4 -1 4 C-0.67 2.68 -0.34 1.36 0 0 Z " fill="#A5929E" transform="translate(300,229)"/>
<path d="M0 0 C2.30078125 0.1328125 2.30078125 0.1328125 5.140625 0.63671875 C8.53907319 1.17022051 11.73812244 1.23039065 15.17578125 1.1953125 C16.32820313 1.18628906 17.480625 1.17726562 18.66796875 1.16796875 C19.97121094 1.15056641 19.97121094 1.15056641 21.30078125 1.1328125 C20.31078125 2.6178125 20.31078125 2.6178125 19.30078125 4.1328125 C16.33546894 4.32950658 13.56936059 4.36599042 10.61328125 4.2578125 C5.02785489 4.10304111 -0.18413367 4.17302527 -5.69921875 5.1328125 C-6.26171875 3.1953125 -6.26171875 3.1953125 -6.69921875 1.1328125 C-4.87388654 -0.69251971 -2.42112761 0.00940244 0 0 Z " fill="#C9BFBB" transform="translate(312.69921875,163.8671875)"/>
<path d="M0 0 C0.66 0.66 1.32 1.32 2 2 C5.58343976 2.16677282 5.58343976 2.16677282 9 2 C8.67 3.32 8.34 4.64 8 6 C1.73 6 -4.54 6 -11 6 C-11 4.35 -11 2.7 -11 1 C-8.5625 1.375 -8.5625 1.375 -6 2 C-5.67 2.66 -5.34 3.32 -5 4 C-4.34 3.01 -3.68 2.02 -3 1 C-2.01 0.67 -1.02 0.34 0 0 Z " fill="#A3909C" transform="translate(100,218)"/>
<path d="M0 0 C0.33 0 0.66 0 1 0 C1.125 2.375 1.125 2.375 1 5 C0.34 5.66 -0.32 6.32 -1 7 C-2.98828796 6.73924092 -4.97643215 6.47402168 -6.95703125 6.16015625 C-9.70268213 5.94491402 -11.59659006 6.72318847 -14 8 C-16 6 -16 6 -16.125 3.375 C-16.08375 2.59125 -16.0425 1.8075 -16 1 C-15.01 1.33 -14.02 1.66 -13 2 C-11.1485555 2.11829437 -9.29267862 2.17514861 -7.4375 2.1875 C-5.98150391 2.20876953 -5.98150391 2.20876953 -4.49609375 2.23046875 C-1.82601084 2.25207746 -1.82601084 2.25207746 0 0 Z " fill="#FFE0E9" transform="translate(250,164)"/>
<path d="M0 0 C1.9375 0.8125 1.9375 0.8125 4.9375 2.8125 C4.2775 4.7925 3.6175 6.7725 2.9375 8.8125 C0.6275 8.8125 -1.6825 8.8125 -4.0625 8.8125 C-4.7225 6.8325 -5.3825 4.8525 -6.0625 2.8125 C-2.64335809 -0.24030528 -2.64335809 -0.24030528 0 0 Z " fill="#FF528A" transform="translate(243.0625,150.1875)"/>
<path d="M0 0 C0.928125 0.2784375 0.928125 0.2784375 1.875 0.5625 C4.04160178 1.23686176 4.04160178 1.23686176 6 0 C6 0.66 6 1.32 6 2 C7.0828125 1.7215625 7.0828125 1.7215625 8.1875 1.4375 C11.12826973 0.98004693 13.14103058 1.26483643 16 2 C15.67 3.32 15.34 4.64 15 6 C10.05 6 5.1 6 0 6 C0 4.02 0 2.04 0 0 Z " fill="#AF9EA9" transform="translate(72,218)"/>
<path d="M0 0 C1.32 0 2.64 0 4 0 C4 0.66 4 1.32 4 2 C6.31 2 8.62 2 11 2 C11 3.65 11 5.3 11 7 C10.01 7 9.02 7 8 7 C8 6.34 8 5.68 8 5 C7.22914062 5.08378906 6.45828125 5.16757813 5.6640625 5.25390625 C4.66117188 5.35574219 3.65828125 5.45757812 2.625 5.5625 C1.12839844 5.71912109 1.12839844 5.71912109 -0.3984375 5.87890625 C-3 6 -3 6 -5 5 C-5.66 5.66 -6.32 6.32 -7 7 C-7 5.35 -7 3.7 -7 2 C-4.69 2 -2.38 2 0 2 C0 1.34 0 0.68 0 0 Z " fill="#C5BBC2" transform="translate(64,155)"/>
<path d="M0 0 C0.66 -0.33 1.32 -0.66 2 -1 C2.99 -0.01 3.98 0.98 5 2 C4.34 2.66 3.68 3.32 3 4 C0 4 0 4 -2 3 C-2.33 2.67 -2.66 2.34 -3 2 C-3 2.99 -3 3.98 -3 5 C-4.2375 4.7525 -4.2375 4.7525 -5.5 4.5 C-9.41272317 3.94103955 -13.05183173 3.93192813 -17 4 C-16.67 2.68 -16.34 1.36 -16 0 C-13.66666667 0 -11.33333333 0 -9 0 C-5.95751583 -1.52124209 -3.29979168 -0.47139881 0 0 Z " fill="#C3B8BF" transform="translate(307,258)"/>
<path d="M0 0 C11.52164009 -0.18451025 11.52164009 -0.18451025 17 1 C17 2.32 17 3.64 17 5 C11.66666667 5 6.33333333 5 1 5 C0.67 3.35 0.34 1.7 0 0 Z " fill="#D6CFD4" transform="translate(34,241)"/>
<path d="M0 0 C0.33 0.66 0.66 1.32 1 2 C3.64 2 6.28 2 9 2 C9 3.65 9 5.3 9 7 C5 7 5 7 3 6 C0.6599583 6.28241883 -1.67504723 6.61250787 -4 7 C-4 5.35 -4 3.7 -4 2 C-2.68 1.34 -1.36 0.68 0 0 Z " fill="#A6939F" transform="translate(66,133)"/>
<path d="M0 0 C3.16227399 0 6.11640488 0.17014788 9.25 0.5 C10.14203125 0.5928125 11.0340625 0.685625 11.953125 0.78125 C12.62859375 0.8534375 13.3040625 0.925625 14 1 C13.67 2.32 13.34 3.64 13 5 C12.67 4.67 12.34 4.34 12 4 C12 4.66 12 5.32 12 6 C8.04 5.67 4.08 5.34 0 5 C0 3.35 0 1.7 0 0 Z " fill="#AE9EA1" transform="translate(342,138)"/>
<path d="M0 0 C0 1.33333333 0 2.66666667 0 4 C-2.26877104 4.24875561 -4.54019735 4.47339246 -6.8125 4.6875 C-8.07707031 4.81511719 -9.34164063 4.94273437 -10.64453125 5.07421875 C-14 5 -14 5 -15.94921875 3.51953125 C-16.29597656 3.01808594 -16.64273437 2.51664063 -17 2 C-16.38511719 1.86722656 -15.77023437 1.73445312 -15.13671875 1.59765625 C-14.32847656 1.42105469 -13.52023437 1.24445313 -12.6875 1.0625 C-11.88699219 0.88847656 -11.08648437 0.71445313 -10.26171875 0.53515625 C-3.94474708 -0.95953307 -3.94474708 -0.95953307 0 0 Z " fill="#CCC2BD" transform="translate(336,156)"/>
<path d="M0 0 C1.66627298 0.03622333 3.33405374 0.04899842 5 0 C5 1.32 5 2.64 5 4 C4.34 4 3.68 4 3 4 C3 3.01 3 2.02 3 1 C2.34 1 1.68 1 1 1 C1.33 1.99 1.66 2.98 2 4 C-2.95 4 -7.9 4 -13 4 C-12.67 2.68 -12.34 1.36 -12 0 C-7.62736375 -0.93699348 -4.37013994 -0.83683531 0 0 Z " fill="#99848D" transform="translate(310,139)"/>
<path d="M0 0 C0.5775 0.165 1.155 0.33 1.75 0.5 C4.26664369 1.14462031 4.26664369 1.14462031 8 1 C8 1.66 8 2.32 8 3 C7.34 3 6.68 3 6 3 C6.66 4.32 7.32 5.64 8 7 C4.25 8.125 4.25 8.125 2 7 C2 7.66 2 8.32 2 9 C1.01 8.67 0.02 8.34 -1 8 C-0.7525 7.13375 -0.7525 7.13375 -0.5 6.25 C0.14462031 3.73335631 0.14462031 3.73335631 0 0 Z " fill="#EEF8FC" transform="translate(146,230)"/>
<path d="M0 0 C5.61 0 11.22 0 17 0 C17 1.65 17 3.3 17 5 C15.68 5 14.36 5 13 5 C12.34 4.34 11.68 3.68 11 3 C10.01 3 9.02 3 8 3 C8 2.34 8 1.68 8 1 C7.34 1 6.68 1 6 1 C6.33 1.99 6.66 2.98 7 4 C5.68 4 4.36 4 3 4 C3 3.01 3 2.02 3 1 C2.34 1 1.68 1 1 1 C0.67 1.99 0.34 2.98 0 4 C0 2.68 0 1.36 0 0 Z " fill="#A08B99" transform="translate(335,220)"/>
<path d="M0 0 C0.33 0.66 0.66 1.32 1 2 C2.98 2 4.96 2 7 2 C7 2.99 7 3.98 7 5 C1.06 5 -4.88 5 -11 5 C-11.33 5.66 -11.66 6.32 -12 7 C-12 5.35 -12 3.7 -12 2 C-8.04 2 -4.08 2 0 2 C0 1.34 0 0.68 0 0 Z " fill="#BCB0AE" transform="translate(353,155)"/>
<path d="M0 0 C0.33 0.66 0.66 1.32 1 2 C4.63 2 8.26 2 12 2 C12 3.32 12 4.64 12 6 C9.69 6 7.38 6 5 6 C5 6.66 5 7.32 5 8 C1.125 7.125 1.125 7.125 0 6 C-0.04080783 4.00041636 -0.04254356 1.99954746 0 0 Z " fill="#A895A1" transform="translate(97,142)"/>
<path d="M0 0 C0.92232422 0.10828125 0.92232422 0.10828125 1.86328125 0.21875 C3.07564453 0.35796875 3.07564453 0.35796875 4.3125 0.5 C5.51326172 0.63921875 5.51326172 0.63921875 6.73828125 0.78125 C10.37429868 1.13292008 13.44934178 0.76770989 17 0 C16.67 1.65 16.34 3.3 16 5 C14.083412 5.02712153 12.1667127 5.04645097 10.25 5.0625 C8.64898437 5.07990234 8.64898437 5.07990234 7.015625 5.09765625 C4.46631499 5.01510087 2.42066409 4.74617558 0 4 C0 2.68 0 1.36 0 0 Z " fill="#C4BAC1" transform="translate(319,241)"/>
<path d="M0 0 C5.61 0 11.22 0 17 0 C14.59563974 3.60654039 13.05320393 3.85452932 9 5 C8.34 4.34 7.68 3.68 7 3 C3.90073181 3.32198966 3.90073181 3.32198966 1 4 C0.67 2.68 0.34 1.36 0 0 Z " fill="#BCB0B8" transform="translate(71,250)"/>
<path d="M0 0 C1.175625 0.165 2.35125 0.33 3.5625 0.5 C7.41273873 0.98728512 11.12258073 1.08077957 15 1 C14.67 2.32 14.34 3.64 14 5 C9.38 5 4.76 5 0 5 C0.99 4.67 1.98 4.34 3 4 C3 3.01 3 2.02 3 1 C2.01 0.67 1.02 0.34 0 0 Z " fill="#9F8B98" transform="translate(81,228)"/>
<path d="M0 0 C0.99 0 1.98 0 3 0 C3.33 1.32 3.66 2.64 4 4 C3.34 4 2.68 4 2 4 C2 3.34 2 2.68 2 2 C1.071875 2.37125 0.14375 2.7425 -0.8125 3.125 C-2.3903125 3.558125 -2.3903125 3.558125 -4 4 C-4.99 3.34 -5.98 2.68 -7 2 C-7.61875 2.495 -8.2375 2.99 -8.875 3.5 C-11 5 -11 5 -13 5 C-12.67 3.35 -12.34 1.7 -12 0 C-7.64309328 -0.93362287 -4.35526336 -0.87105267 0 0 Z " fill="#C5BBC2" transform="translate(313,242)"/>
<path d="M0 0 C-0.66 1.32 -1.32 2.64 -2 4 C-3.11375 3.814375 -4.2275 3.62875 -5.375 3.4375 C-8.82568861 2.68319343 -8.82568861 2.68319343 -11 4 C-13.125 3.5625 -13.125 3.5625 -15 3 C-15 2.01 -15 1.02 -15 0 C-13.88625 0.020625 -12.7725 0.04125 -11.625 0.0625 C-0.64788732 -0.12676056 -0.64788732 -0.12676056 0 0 Z " fill="#C4BAC1" transform="translate(43,157)"/>
<path d="M0 0 C0.38133299 1.9914056 0.71325582 3.99279077 1 6 C0 7 0 7 -2.375 7.375 C-3.674375 7.189375 -3.674375 7.189375 -5 7 C-6.8125 4.5 -6.8125 4.5 -8 2 C-5.09399739 0.74335022 -3.20395416 0 0 0 Z " fill="#F9FCF1" transform="translate(156,164)"/>
<path d="M0 0 C1.32 0.66 2.64 1.32 4 2 C4 2.99 4 3.98 4 5 C0.04 5 -3.92 5 -8 5 C-8 3.68 -8 2.36 -8 1 C-6.865625 1.020625 -5.73125 1.04125 -4.5625 1.0625 C-1.18424326 1.41577477 -1.18424326 1.41577477 0 0 Z " fill="#A38F9C" transform="translate(105,228)"/>
<path d="M0 0 C0.66 0.66 1.32 1.32 2 2 C4.21072977 2.24253813 4.21072977 2.24253813 6.625 2.125 C7.44226563 2.10695312 8.25953125 2.08890625 9.1015625 2.0703125 C9.72804688 2.04710937 10.35453125 2.02390625 11 2 C11.33 2.99 11.66 3.98 12 5 C9 6 9 6 6 5 C3.6593935 5.27769908 1.32375692 5.60539977 -1 6 C-1.33 4.35 -1.66 2.7 -2 1 C-1.34 0.67 -0.68 0.34 0 0 Z " fill="#CBC2C9" transform="translate(98,155)"/>
<path d="M0 0 C-0.33 1.32 -0.66 2.64 -1 4 C-4.3 4 -7.6 4 -11 4 C-11 2.68 -11 1.36 -11 0 C-10.01 0 -9.02 0 -8 0 C-7.175 -0.185625 -6.35 -0.37125 -5.5 -0.5625 C-3 -1 -3 -1 0 0 Z " fill="#C5BBC2" transform="translate(54,250)"/>
<path d="M0 0 C4.62 0 9.24 0 14 0 C14 0.99 14 1.98 14 3 C9.38 3 4.76 3 0 3 C0 2.01 0 1.02 0 0 Z " fill="#C5BBC2" transform="translate(92,165)"/>
<path d="M0 0 C0.66 0.66 1.32 1.32 2 2 C2.33 1.67 2.66 1.34 3 1 C5.33297433 0.95907063 7.66705225 0.95758277 10 1 C9.67 1.99 9.34 2.98 9 4 C4 4 -1 4 -6 4 C-6 3.01 -6 2.02 -6 1 C-3.125 0.375 -3.125 0.375 0 0 Z " fill="#B9ADB5" transform="translate(68,164)"/>
<path d="M0 0 C1.98 0.99 1.98 0.99 4 2 C4.33 1.34 4.66 0.68 5 0 C7.97 0 10.94 0 14 0 C13.67 1.32 13.34 2.64 13 4 C9.04 4 5.08 4 1 4 C0.67 2.68 0.34 1.36 0 0 Z " fill="#9E8997" transform="translate(74,144)"/>
<path d="M0 0 C0.66 0 1.32 0 2 0 C2.33 0.66 2.66 1.32 3 2 C4.32 2 5.64 2 7 2 C7 3.32 7 4.64 7 6 C4.36 6 1.72 6 -1 6 C-1.625 4.125 -1.625 4.125 -2 2 C-1.34 1.34 -0.68 0.68 0 0 Z " fill="#C0B2BB" transform="translate(292,218)"/>
<path d="M0 0 C0.33 0.66 0.66 1.32 1 2 C2.670625 1.7215625 2.670625 1.7215625 4.375 1.4375 C8 1 8 1 10 2 C10 3.32 10 4.64 10 6 C7.03 6 4.06 6 1 6 C0.67 4.02 0.34 2.04 0 0 Z " fill="#AF9EA9" transform="translate(91,133)"/>
<path d="M0 0 C0.8353125 0.2475 0.8353125 0.2475 1.6875 0.5 C4.66761388 1.14434895 7.03868223 0.60572409 10 0 C10 1.32 10 2.64 10 4 C6.7 4.33 3.4 4.66 0 5 C-0.33 3.68 -0.66 2.36 -1 1 C-0.67 0.67 -0.34 0.34 0 0 Z " fill="#C8BFC5" transform="translate(81,164)"/>
<path d="M0 0 C2.64 0 5.28 0 8 0 C8.33 0.66 8.66 1.32 9 2 C9.66 1.34 10.32 0.68 11 0 C11 1.32 11 2.64 11 4 C9.02 4.66 7.04 5.32 5 6 C4.34 5.34 3.68 4.68 3 4 C3 3.01 3 2.02 3 1 C2.34 1 1.68 1 1 1 C0.67 1.66 0.34 2.32 0 3 C0 2.01 0 1.02 0 0 Z " fill="#9B8593" transform="translate(50,135)"/>
<path d="M0 0 C-0.33 1.32 -0.66 2.64 -1 4 C-5.29 4 -9.58 4 -14 4 C-14 3.01 -14 2.02 -14 1 C-12.04175306 0.83232136 -10.08339945 0.66588795 -8.125 0.5 C-6.48917969 0.36078125 -6.48917969 0.36078125 -4.8203125 0.21875 C-3.21670436 0.09437042 -1.60842449 0 0 0 Z " fill="#BAAEAC" transform="translate(304,164)"/>
<path d="M0 0 C0.33 0.66 0.66 1.32 1 2 C1.99 2 2.98 2 4 2 C4.33 3.32 4.66 4.64 5 6 C3.68 6.33 2.36 6.66 1 7 C1 6.34 1 5.68 1 5 C-0.65 5 -2.3 5 -4 5 C-4 3.68 -4 2.36 -4 1 C-2.68 1.33 -1.36 1.66 0 2 C0 1.34 0 0.68 0 0 Z " fill="#C6BCB8" transform="translate(310,155)"/>
<path d="M0 0 C2.64 0 5.28 0 8 0 C8.33 1.32 8.66 2.64 9 4 C7.68 4 6.36 4 5 4 C5 3.34 5 2.68 5 2 C4.01 2.99 3.02 3.98 2 5 C1.01 4.67 0.02 4.34 -1 4 C-0.67 2.68 -0.34 1.36 0 0 Z " fill="#A69499" transform="translate(358,139)"/>
<path d="M0 0 C-0.33 1.32 -0.66 2.64 -1 4 C-3.31 4 -5.62 4 -8 4 C-8.66 2.68 -9.32 1.36 -10 0 C-6.7169902 -1.6415049 -3.57454967 -0.51888624 0 0 Z " fill="#C4BABF" transform="translate(366,242)"/>
<path d="M0 0 C2.97 0.33 5.94 0.66 9 1 C8.67 2.32 8.34 3.64 8 5 C5.36 5 2.72 5 0 5 C0 3.33333333 0 1.66666667 0 0 Z " fill="#A997A3" transform="translate(290,228)"/>
<path d="M0 0 C3.63 0 7.26 0 11 0 C10.67 0.99 10.34 1.98 10 3 C6.7 3.33 3.4 3.66 0 4 C0 2.68 0 1.36 0 0 Z " fill="#C3B9C0" transform="translate(329,250)"/>
<path d="M0 0 C2.31 0 4.62 0 7 0 C7 1.32 7 2.64 7 4 C4.36 4 1.72 4 -1 4 C-0.67 2.68 -0.34 1.36 0 0 Z " fill="#CCC3C9" transform="translate(347,242)"/>
<path d="M0 0 C0 1.98 0 3.96 0 6 C-5.75 5.125 -5.75 5.125 -8 4 C-8 3.01 -8 2.02 -8 1 C-5.23735711 0.40267181 -2.83967231 0 0 0 Z " fill="#A3909D" transform="translate(110,134)"/>
<path d="M0 0 C6.625 -0.125 6.625 -0.125 10 1 C10.99 0.67 11.98 0.34 13 0 C12.67 0.99 12.34 1.98 12 3 C9.66347317 3.96683869 8.38717089 4.10559206 5.9375 3.4375 C4.9784375 3.2209375 4.9784375 3.2209375 4 3 C3.01 3.66 2.02 4.32 1 5 C0.67 3.35 0.34 1.7 0 0 Z " fill="#C2B8BF" transform="translate(56,250)"/>
<path d="M0 0 C0.8971875 0.5259375 0.8971875 0.5259375 1.8125 1.0625 C1.8125 2.0525 1.8125 3.0425 1.8125 4.0625 C-1.1575 4.0625 -4.1275 4.0625 -7.1875 4.0625 C-4.24632353 -1.81985294 -4.24632353 -1.81985294 0 0 Z " fill="#C8BFC5" transform="translate(100.1875,241.9375)"/>
<path d="M0 0 C0.86625 0.495 0.86625 0.495 1.75 1 C4.19883862 2.27075898 4.19883862 2.27075898 8 2 C8 3.32 8 4.64 8 6 C4.7 6 1.4 6 -2 6 C-1.34 5.67 -0.68 5.34 0 5 C0 4.34 0 3.68 0 3 C-0.99 2.67 -1.98 2.34 -3 2 C-2.01 2 -1.02 2 0 2 C0 1.34 0 0.68 0 0 Z " fill="#9A8492" transform="translate(320,218)"/>
<path d="M0 0 C0.33 0 0.66 0 1 0 C1.125 2.375 1.125 2.375 1 5 C0.34 5.66 -0.32 6.32 -1 7 C-6.45454545 6.54545455 -6.45454545 6.54545455 -9 4 C-7.88625 3.71125 -6.7725 3.4225 -5.625 3.125 C-1.99708908 2.30758671 -1.99708908 2.30758671 0 0 Z " fill="#FEEFF4" transform="translate(250,164)"/>
<path d="M0 0 C-0.33 0.99 -0.66 1.98 -1 3 C-1.66 3 -2.32 3 -3 3 C-3 2.34 -3 1.68 -3 1 C-3.66 1 -4.32 1 -5 1 C-5.33 1.66 -5.66 2.32 -6 3 C-8.5625 3.625 -8.5625 3.625 -11 4 C-11.33 3.34 -11.66 2.68 -12 2 C-11.67 1.34 -11.34 0.68 -11 0 C-3.82105263 -1.27368421 -3.82105263 -1.27368421 0 0 Z " fill="#BFB4BC" transform="translate(314,250)"/>
<path d="M0 0 C1.65 0 3.3 0 5 0 C5.66 2.31 6.32 4.62 7 7 C6.34 7 5.68 7 5 7 C4.67 6.34 4.34 5.68 4 5 C1.97536745 4.34786708 1.97536745 4.34786708 0 4 C0 2.68 0 1.36 0 0 Z " fill="#B8A9B3" transform="translate(44,219)"/>
<path d="M0 0 C0 0.66 0 1.32 0 2 C0.99 2 1.98 2 3 2 C3 2.66 3 3.32 3 4 C-1.455 4.495 -1.455 4.495 -6 5 C-6 3.68 -6 2.36 -6 1 C-3 0 -3 0 0 0 Z " fill="#C1B6BD" transform="translate(60,241)"/>
<path d="M0 0 C0.99 0 1.98 0 3 0 C3 1.32 3 2.64 3 4 C4.65 4.33 6.3 4.66 8 5 C6.25 6.125 6.25 6.125 4 7 C1.8125 6.375 1.8125 6.375 0 5 C-0.8125 2.9375 -0.8125 2.9375 -1 1 C-0.67 0.67 -0.34 0.34 0 0 Z " fill="#C1B4B3" transform="translate(318,138)"/>
<path d="M0 0 C0 1.32 0 2.64 0 4 C-3.05263664 4.98120464 -4.94736336 4.98120464 -8 4 C-7.67 3.01 -7.34 2.02 -7 1 C-4 0 -4 0 0 0 Z " fill="#C9BFC5" transform="translate(48,164)"/>
<path d="M0 0 C0.33 0.66 0.66 1.32 1 2 C2.65 2 4.3 2 6 2 C6 2.99 6 3.98 6 5 C5.236875 4.979375 4.47375 4.95875 3.6875 4.9375 C0.89814214 4.87057159 0.89814214 4.87057159 -2 6 C-2 4.35 -2 2.7 -2 1 C-1.34 0.67 -0.68 0.34 0 0 Z " fill="#C3B8B5" transform="translate(370,155)"/>
<path d="M0 0 C3.63 0 7.26 0 11 0 C10.67 0.99 10.34 1.98 10 3 C6.33333333 3 2.66666667 3 -1 3 C-0.67 2.01 -0.34 1.02 0 0 Z " fill="#BFB3BB" transform="translate(45,157)"/>
<path d="M0 0 C2.31 0 4.62 0 7 0 C7 1.32 7 2.64 7 4 C4.69 4.33 2.38 4.66 0 5 C0 3.35 0 1.7 0 0 Z " fill="#9D8896" transform="translate(89,144)"/>
<path d="M0 0 C2.64 0 5.28 0 8 0 C7.67 0.99 7.34 1.98 7 3 C1.25 4.125 1.25 4.125 -1 3 C-0.67 2.01 -0.34 1.02 0 0 Z " fill="#C4BAC0" transform="translate(351,250)"/>
<path d="M0 0 C0.33 0 0.66 0 1 0 C1 1.65 1 3.3 1 5 C-2.3 5 -5.6 5 -9 5 C-8.67 4.01 -8.34 3.02 -8 2 C-5.69 2 -3.38 2 -1 2 C-0.67 1.34 -0.34 0.68 0 0 Z " fill="#BAAFB7" transform="translate(59,163)"/>
<path d="M0 0 C2.64 0 5.28 0 8 0 C7.67 0.99 7.34 1.98 7 3 C3.4375 4.1875 3.4375 4.1875 0 5 C0 3.35 0 1.7 0 0 Z " fill="#BBAFB7" transform="translate(341,250)"/>
<path d="M0 0 C2.64 0 5.28 0 8 0 C8.33 0.66 8.66 1.32 9 2 C2.71428571 4.42857143 2.71428571 4.42857143 -1 3 C-0.67 2.01 -0.34 1.02 0 0 Z " fill="#BCB0B8" transform="translate(293,250)"/>
<path d="M0 0 C0.66 1.32 1.32 2.64 2 4 C-2.455 4.495 -2.455 4.495 -7 5 C-6.67 4.01 -6.34 3.02 -6 2 C-2.9375 0.8125 -2.9375 0.8125 0 0 Z " fill="#BDB2B9" transform="translate(101,249)"/>
<path d="M0 0 C2.0625 0.75 2.0625 0.75 4 2 C4.33 2.99 4.66 3.98 5 5 C3.02 5.33 1.04 5.66 -1 6 C-1.33 4.35 -1.66 2.7 -2 1 C-1.34 0.67 -0.68 0.34 0 0 Z " fill="#C3B7BF" transform="translate(315,218)"/>
<path d="M0 0 C2.0625 0.4375 2.0625 0.4375 4 1 C3.34 2.32 2.68 3.64 2 5 C-0.31 5 -2.62 5 -5 5 C-4.67 4.01 -4.34 3.02 -4 2 C-4 2.66 -4 3.32 -4 4 C-3.34 4 -2.68 4 -2 4 C-1.67 3.01 -1.34 2.02 -1 1 C-0.67 0.67 -0.34 0.34 0 0 Z " fill="#BAADAC" transform="translate(295,155)"/>
<path d="M0 0 C-0.33 0.99 -0.66 1.98 -1 3 C-4.0625 4.1875 -4.0625 4.1875 -7 5 C-7 3.35 -7 1.7 -7 0 C-3.98968256 -0.93423645 -3.13349732 -1.04449911 0 0 Z " fill="#A08B99" transform="translate(57,220)"/>
<path d="M0 0 C3.63 0 7.26 0 11 0 C10.01 1.485 10.01 1.485 9 3 C6.8359375 3.29296875 6.8359375 3.29296875 4.375 3.1875 C3.55773437 3.16042969 2.74046875 3.13335937 1.8984375 3.10546875 C1.27195312 3.07066406 0.64546875 3.03585938 0 3 C0 2.01 0 1.02 0 0 Z " fill="#B9ACAA" transform="translate(323,165)"/>
<path d="M0 0 C-0.33 0.99 -0.66 1.98 -1 3 C-3.64 3 -6.28 3 -9 3 C-8.67 2.01 -8.34 1.02 -8 0 C-5.13822943 -1.43088528 -3.06624227 -0.59991697 0 0 Z " fill="#BEB2BA" transform="translate(39,165)"/>
<path d="M0 0 C3.3 0 6.6 0 10 0 C9.67 0.99 9.34 1.98 9 3 C6.03 3 3.06 3 0 3 C0 2.01 0 1.02 0 0 Z " fill="#B8ACAA" transform="translate(336,165)"/>
<path d="M0 0 C2.64 0 5.28 0 8 0 C7.67 1.32 7.34 2.64 7 4 C6.21625 3.814375 5.4325 3.62875 4.625 3.4375 C2.02910225 2.74037734 2.02910225 2.74037734 0 4 C0 2.68 0 1.36 0 0 Z " fill="#BAAEB6" transform="translate(67,242)"/>
<path d="M0 0 C1.65 0 3.3 0 5 0 C5 0.66 5 1.32 5 2 C6.32 1.67 7.64 1.34 9 1 C9 1.99 9 2.98 9 4 C2.25 4.125 2.25 4.125 0 3 C0 2.01 0 1.02 0 0 Z " fill="#97818B" transform="translate(321,139)"/>
<path d="M0 0 C0.33 1.32 0.66 2.64 1 4 C0.34 4 -0.32 4 -1 4 C-1.33 3.67 -1.66 3.34 -2 3 C-2 3.33 -2 3.66 -2 4 C-3.98 4 -5.96 4 -8 4 C-7.67 3.01 -7.34 2.02 -7 1 C-4 0 -4 0 0 0 Z " fill="#BCB0B8" transform="translate(298,242)"/>
<path d="M0 0 C2.97 0.495 2.97 0.495 6 1 C5.67 2.32 5.34 3.64 5 5 C3.35 4.67 1.7 4.34 0 4 C0 2.68 0 1.36 0 0 Z " fill="#C5BBC2" transform="translate(34,241)"/>
<path d="M0 0 C2.31 0.33 4.62 0.66 7 1 C6.01 2.32 5.02 3.64 4 5 C4 4.34 4 3.68 4 3 C2.02 3.99 2.02 3.99 0 5 C0 3.35 0 1.7 0 0 Z " fill="#A18D95" transform="translate(290,138)"/>
<path d="M0 0 C2.475 0.495 2.475 0.495 5 1 C5 1.99 5 2.98 5 4 C5.66 4.33 6.32 4.66 7 5 C4.69 5 2.38 5 0 5 C0 3.35 0 1.7 0 0 Z " fill="#9C8794" transform="translate(89,219)"/>
<path d="M0 0 C-2 3 -2 3 -5 4 C-7.1875 3.5625 -7.1875 3.5625 -9 3 C-9 2.34 -9 1.68 -9 1 C-5.92677456 0.08941469 -3.19902639 -0.08886184 0 0 Z " fill="#A28E9B" transform="translate(315,220)"/>
<path d="M0 0 C0 0.99 0 1.98 0 3 C-2.3125 3.6875 -2.3125 3.6875 -5 4 C-6.8125 2.5625 -6.8125 2.5625 -8 1 C-5.29120665 -0.35439668 -2.99066732 -0.06501451 0 0 Z " fill="#C1B6B2" transform="translate(327,157)"/>
<path d="M0 0 C2.97 0.495 2.97 0.495 6 1 C6 1.66 6 2.32 6 3 C3.69 3.33 1.38 3.66 -1 4 C-0.67 2.68 -0.34 1.36 0 0 Z " fill="#B2A2A4" transform="translate(298,139)"/>
<path d="M0 0 C1.65 0 3.3 0 5 0 C5 0.99 5 1.98 5 3 C3.02 3.33 1.04 3.66 -1 4 C-0.67 2.68 -0.34 1.36 0 0 Z " fill="#C8BFC5" transform="translate(291,258)"/>
<path d="M0 0 C1.65 0 3.3 0 5 0 C5 1.32 5 2.64 5 4 C3.35 4 1.7 4 0 4 C0 2.68 0 1.36 0 0 Z " fill="#C7BCC3" transform="translate(104,242)"/>
<path d="M0 0 C2.31 0 4.62 0 7 0 C6.67 0.99 6.34 1.98 6 3 C4.02 3 2.04 3 0 3 C0 2.01 0 1.02 0 0 Z " fill="#C1B6BD" transform="translate(71,165)"/>
<path d="M0 0 C0.33 0.99 0.66 1.98 1 3 C0.67 3.66 0.34 4.32 0 5 C-2.0625 5.625 -2.0625 5.625 -4 6 C-4.33 5.34 -4.66 4.68 -5 4 C-3 1 -3 1 0 0 Z " fill="#B4A5AF" transform="translate(100,218)"/>
<path d="M0 0 C1.98 0.66 3.96 1.32 6 2 C6 2.66 6 3.32 6 4 C4.02 4 2.04 4 0 4 C0 2.68 0 1.36 0 0 Z " fill="#C6BDC3" transform="translate(22,164)"/>
<path d="M0 0 C1.67542976 0.28604898 3.34385343 0.61781233 5 1 C4.67 2.65 4.34 4.3 4 6 C3.34 6 2.68 6 2 6 C2.33 4.68 2.66 3.36 3 2 C1.68 1.67 0.36 1.34 -1 1 C-0.67 0.67 -0.34 0.34 0 0 Z " fill="#95D111" transform="translate(160,149)"/>
<path d="M0 0 C1.32 0 2.64 0 4 0 C4.33 1.32 4.66 2.64 5 4 C3.35 4.33 1.7 4.66 0 5 C0 3.35 0 1.7 0 0 Z " fill="#8F7783" transform="translate(342,138)"/>
<path d="M0 0 C1.65 0 3.3 0 5 0 C4.67 1.32 4.34 2.64 4 4 C2.68 3.67 1.36 3.34 0 3 C0 2.01 0 1.02 0 0 Z " fill="#FFCD4D" transform="translate(234,235)"/>
<path d="M0 0 C1.32 0 2.64 0 4 0 C4 1.32 4 2.64 4 4 C2.35 3.67 0.7 3.34 -1 3 C-0.67 2.01 -0.34 1.02 0 0 Z " fill="#AF9EA9" transform="translate(295,220)"/>
<path d="M0 0 C1.9375 0.3125 1.9375 0.3125 4 1 C4.33 1.99 4.66 2.98 5 4 C3.68 4.33 2.36 4.66 1 5 C0.67 3.35 0.34 1.7 0 0 Z " fill="#CAC0BB" transform="translate(361,156)"/>
<path d="M0 0 C1.65 0.33 3.3 0.66 5 1 C4.01 1.495 4.01 1.495 3 2 C2.67 2.99 2.34 3.98 2 5 C1.01 4.67 0.02 4.34 -1 4 C-0.67 2.68 -0.34 1.36 0 0 Z " fill="#DCD5DA" transform="translate(76,142)"/>
<path d="M0 0 C0.99 0 1.98 0 3 0 C3 0.66 3 1.32 3 2 C3.66 2 4.32 2 5 2 C3.74458443 4.51083114 2.49936512 4.87125446 0 6 C0 4.02 0 2.04 0 0 Z " fill="#BCAEAE" transform="translate(337,139)"/>
<path d="M0 0 C-0.33 1.65 -0.66 3.3 -1 5 C-2.32 4.67 -3.64 4.34 -5 4 C-5 3.34 -5 2.68 -5 2 C-2 0 -2 0 0 0 Z " fill="#C4BAC1" transform="translate(327,249)"/>
<path d="M0 0 C2.97 0.495 2.97 0.495 6 1 C6 2.32 6 3.64 6 5 C3.03 4.505 3.03 4.505 0 4 C0 2.68 0 1.36 0 0 Z " fill="#B9ACB5" transform="translate(319,241)"/>
<path d="M0 0 C1.65 0 3.3 0 5 0 C5 1.32 5 2.64 5 4 C1 4 1 4 -1 3 C-0.67 2.01 -0.34 1.02 0 0 Z " fill="#BEB1BA" transform="translate(46,242)"/>
<path d="M0 0 C1.98 0 3.96 0 6 0 C6 0.99 6 1.98 6 3 C4.02 3 2.04 3 0 3 C0 2.01 0 1.02 0 0 Z " fill="#C9BFBB" transform="translate(354,157)"/>
</svg>
