<?xml version="1.0" encoding="UTF-8"?>
<svg version="1.1" xmlns="http://www.w3.org/2000/svg" width="400" height="400">
<path d="M0 0 C132 0 264 0 400 0 C400 132 400 264 400 400 C268 400 136 400 0 400 C0 268 0 136 0 0 Z " fill="#F6F7F9" transform="translate(0,0)"/>
<path d="M0 0 C4.97506908 3.69941034 8.55265587 8.02986625 12.41015625 12.86328125 C16.97956539 18.49509157 22.03661782 23.71748326 27 29 C25.33921769 33.1469231 22.34016061 36.06709844 19.3125 39.25 C18.22321618 40.41206519 17.13467131 41.5748235 16.046875 42.73828125 C15.52158203 43.29854004 14.99628906 43.85879883 14.45507812 44.43603516 C10.52513884 48.6600605 6.77989131 53.03751232 3.125 57.5 C2.42375 58.325 1.7225 59.15 1 60 C0.67 60 0.34 60 0 60 C0 57.36 0 54.72 0 52 C-8.18936499 52.06144806 -16.37836818 52.13872212 -24.56738186 52.23571491 C-28.37066429 52.28027507 -32.17384314 52.31956183 -35.97729492 52.34643555 C-39.65389949 52.37261308 -43.33010235 52.41311483 -47.00645638 52.46318626 C-48.40288322 52.47975805 -49.79937939 52.49133225 -51.19589043 52.49761391 C-64.66329986 52.56427051 -74.75528398 54.97700993 -84.75 64.3125 C-91.53827632 71.42550024 -94.16572648 80.26790901 -94.4375 89.9375 C-95.49171593 112.59699914 -103.45021593 133.06837425 -120 149 C-132.17813466 159.73355593 -145.82271692 167.42101284 -162 170 C-163.65128906 170.27263672 -163.65128906 170.27263672 -165.3359375 170.55078125 C-186.42231057 173.13599756 -207.55111043 168.79266177 -224.703125 155.87109375 C-243.39131206 140.64721348 -256.11622761 121.39823223 -259 97 C-259 94.36 -259 91.72 -259 89 C-244.15 89 -229.3 89 -214 89 C-213.34 92.63 -212.68 96.26 -212 100 C-207.50915521 112.02904854 -201.44585643 118.66928728 -189.7421875 124.03515625 C-179.33081606 128.04670618 -169.07726654 126.22384781 -159 122 C-150.30172427 117.01354886 -144.52906981 109.296049 -141 100 C-140.14119083 95.45785374 -139.81754136 90.92027414 -139.5 86.3125 C-137.29433706 61.55345126 -127.88785754 41.93729114 -109.01171875 25.3515625 C-92.24197142 12.25767418 -73.84497769 7.65354271 -52.9296875 7.8046875 C-51.39698472 7.80842542 -49.86427953 7.8112687 -48.33157349 7.81326294 C-44.33017179 7.82083817 -40.32891916 7.84043286 -36.32757568 7.8626709 C-32.23142512 7.88326225 -28.13525008 7.89229286 -24.0390625 7.90234375 C-16.02597385 7.92368559 -8.01300556 7.95774611 0 8 C0 5.36 0 2.72 0 0 Z " fill="#FEC638" transform="translate(346,116)"/>
<path d="M0 0 C4.97506908 3.69941034 8.55265587 8.02986625 12.41015625 12.86328125 C16.97956539 18.49509157 22.03661782 23.71748326 27 29 C25.33921769 33.1469231 22.34016061 36.06709844 19.3125 39.25 C18.22321618 40.41206519 17.13467131 41.5748235 16.046875 42.73828125 C15.52158203 43.29854004 14.99628906 43.85879883 14.45507812 44.43603516 C10.52513884 48.6600605 6.77989131 53.03751232 3.125 57.5 C2.42375 58.325 1.7225 59.15 1 60 C0.67 60 0.34 60 0 60 C0 57.36 0 54.72 0 52 C-8.18936499 52.06144806 -16.37836818 52.13872212 -24.56738186 52.23571491 C-28.37066429 52.28027507 -32.17384314 52.31956183 -35.97729492 52.34643555 C-39.65389949 52.37261308 -43.33010235 52.41311483 -47.00645638 52.46318626 C-48.40288322 52.47975805 -49.79937939 52.49133225 -51.19589043 52.49761391 C-64.66329986 52.56427051 -74.75528398 54.97700993 -84.75 64.3125 C-91.3542518 71.23267273 -93.67254806 79.7078364 -95 89 C-109.52 89 -124.04 89 -139 89 C-137.50187832 63.53193141 -130.06362448 45.39361257 -111.8125 27.8125 C-94.8869006 12.94063442 -75.01932971 7.64505623 -52.9296875 7.8046875 C-51.39698472 7.80842542 -49.86427953 7.8112687 -48.33157349 7.81326294 C-44.33017179 7.82083817 -40.32891916 7.84043286 -36.32757568 7.8626709 C-32.23142512 7.88326225 -28.13525008 7.89229286 -24.0390625 7.90234375 C-16.02597385 7.92368559 -8.01300556 7.95774611 0 8 C0 5.36 0 2.72 0 0 Z " fill="#37AEE1" transform="translate(346,116)"/>
<path d="M0 0 C14.85 0 29.7 0 45 0 C45.66 3.63 46.32 7.26 47 11 C51.08138979 21.93229409 56.36014788 28.86462643 67 34 C72.01651484 36.06136083 76.61346296 37.10224383 82 38 C82 52.52 82 67.04 82 82 C58.02695127 82 38.86791446 72.78468462 22 56 C7.87791017 40.91740039 0 20.56783882 0 0 Z " fill="#FF5088" transform="translate(87,205)"/>
<path d="M0 0 C4.97506908 3.69941034 8.55265587 8.02986625 12.41015625 12.86328125 C16.97956539 18.49509157 22.03661782 23.71748326 27 29 C25.33921769 33.1469231 22.34016061 36.06709844 19.3125 39.25 C18.22321618 40.41206519 17.13467131 41.5748235 16.046875 42.73828125 C15.52158203 43.29854004 14.99628906 43.85879883 14.45507812 44.43603516 C10.52513884 48.6600605 6.77989131 53.03751232 3.125 57.5 C2.42375 58.325 1.7225 59.15 1 60 C0.67 60 0.34 60 0 60 C0 57.36 0 54.72 0 52 C-18.81 52 -37.62 52 -57 52 C-57 37.48 -57 22.96 -57 8 C-38.19 8 -19.38 8 0 8 C0 5.36 0 2.72 0 0 Z " fill="#AB7B99" transform="translate(346,116)"/>
<path d="M0 0 C0.33 0 0.66 0 1 0 C1.38039269 7.79805013 -1.02203015 13.50264924 -5 20 C-5.66 20 -6.32 20 -7 20 C-7.33 20.66 -7.66 21.32 -8 22 C-8.66 21.67 -9.32 21.34 -10 21 C-10.33 21.66 -10.66 22.32 -11 23 C-12.32467746 23.6837045 -13.65863633 24.34964186 -15 25 C-15.66 25.66 -16.32 26.32 -17 27 C-17 25.68 -17 24.36 -17 23 C-17.226875 21.824375 -17.45375 20.64875 -17.6875 19.4375 C-18 16 -18 16 -16.5625 14.0625 C-16.046875 13.711875 -15.53125 13.36125 -15 13 C-14.34 13.33 -13.68 13.66 -13 14 C-12.8453125 12.824375 -12.8453125 12.824375 -12.6875 11.625 C-12 9 -12 9 -9 7 C-8.34 7.33 -7.68 7.66 -7 8 C-7 7.01 -7 6.02 -7 5 C-4.625 3.4375 -4.625 3.4375 -2 2 C-1.34 1.34 -0.68 0.68 0 0 Z M-16 20 C-16 20.66 -16 21.32 -16 22 C-15.34 21.67 -14.68 21.34 -14 21 C-14.66 20.67 -15.32 20.34 -16 20 Z " fill="#E0E5FF" transform="translate(399,272)"/>
<path d="M0 0 C1.32 0.66 2.64 1.32 4 2 C4.33 1.67 4.66 1.34 5 1 C7.00259002 0.92445195 9.00780989 0.91691924 11.01171875 0.9375 C12.24470703 0.94523438 13.47769531 0.95296875 14.74804688 0.9609375 C17.35481964 0.98678552 19.96159051 1.01282426 22.56835938 1.0390625 C24.42750977 1.05066406 24.42750977 1.05066406 26.32421875 1.0625 C27.45947998 1.07410156 28.59474121 1.08570313 29.7644043 1.09765625 C32.93341415 1.00200968 35.89002089 0.59736058 39 0 C39.5534764 2.07553648 40 3.84365964 40 6 C26.47 6 12.94 6 -1 6 C-0.67 4.02 -0.34 2.04 0 0 Z " fill="#E1CCDB" transform="translate(313,143)"/>
<path d="M0 0 C0.66 0 1.32 0 2 0 C3.17176518 2.12232979 4.33754785 4.24757791 5.5 6.375 C5.83386719 6.97828125 6.16773438 7.5815625 6.51171875 8.203125 C9 12.7734375 9 12.7734375 9 15 C3.72 15 -1.56 15 -7 15 C-5.60854034 10.82562101 -4.49553763 7.80803904 -2.375 4.125 C-1.92898437 3.34382812 -1.48296875 2.56265625 -1.0234375 1.7578125 C-0.68570313 1.17773438 -0.34796875 0.59765625 0 0 Z " fill="#FEE0E9" transform="translate(126,240)"/>
<path d="M0 0 C1.32 0.33 2.64 0.66 4 1 C4.33 4.3 4.66 7.6 5 11 C-0.61 11 -6.22 11 -12 11 C-11.67 9.02 -11.34 7.04 -11 5 C-9.68 5 -8.36 5 -7 5 C-6.34 4.01 -5.68 3.02 -5 2 C-2.9375 1.375 -2.9375 1.375 -1 1 C-0.67 0.67 -0.34 0.34 0 0 Z " fill="#FEF5DF" transform="translate(215,245)"/>
<path d="M0 0 C0.66 0 1.32 0 2 0 C2 0.66 2 1.32 2 2 C3.3921875 1.7525 3.3921875 1.7525 4.8125 1.5 C9.00192286 0.88566508 13.12642685 0.96564875 17.3515625 1.0625 C20.01592081 1.08120028 20.01592081 1.08120028 22.62890625 0.44140625 C25.85038127 -0.15830821 28.00232201 0.81487149 31 2 C30.67 3.32 30.34 4.64 30 6 C29.28972656 5.91621094 28.57945312 5.83242188 27.84765625 5.74609375 C26.46900391 5.59333984 26.46900391 5.59333984 25.0625 5.4375 C24.14597656 5.33308594 23.22945313 5.22867187 22.28515625 5.12109375 C21.15400391 5.06115234 21.15400391 5.06115234 20 5 C19.67 5.33 19.34 5.66 19 6 C17.08548183 6.09983684 15.16711381 6.12967589 13.25 6.125 C12.20328125 6.12757813 11.1565625 6.13015625 10.078125 6.1328125 C5.89883313 5.95248772 2.03485824 5.04607436 -2 4 C-1.34 2.68 -0.68 1.36 0 0 Z " fill="#C8AD6C" transform="translate(250,251)"/>
<path d="M0 0 C0.33 1.32 0.66 2.64 1 4 C1.33 3.34 1.66 2.68 2 2 C4.85234101 1.12845136 6.69305448 0.93422596 9.625 1.5625 C12.25608714 2.33212819 12.25608714 2.33212819 15 0 C15 1.98 15 3.96 15 6 C4.44 6 -6.12 6 -17 6 C-17 4.68 -17 3.36 -17 2 C-11.39 2 -5.78 2 0 2 C0 1.34 0 0.68 0 0 Z " fill="#D987A7" transform="translate(54,259)"/>
<path d="M0 0 C0.845625 0.185625 1.69125 0.37125 2.5625 0.5625 C6.28319321 1.03604277 9.307342 0.54706044 13 0 C13.85464844 0.23009766 13.85464844 0.23009766 14.7265625 0.46484375 C18.05049966 1.24728257 21.35668342 1.10419482 24.75 1.0625 C25.44738281 1.05798828 26.14476562 1.05347656 26.86328125 1.04882812 C28.57555803 1.0371002 30.28779033 1.01916653 32 1 C32 2.65 32 4.3 32 6 C31.01 5.67 30.02 5.34 29 5 C29 4.34 29 3.68 29 3 C28.34 3 27.68 3 27 3 C27 3.66 27 4.32 27 5 C24 6 24 6 21.0625 5.5 C18.03301563 5.00539031 16.84238128 5.13867234 14 6 C10.375 6.6875 10.375 6.6875 7 7 C6.34 6.34 5.68 5.68 5 5 C2.39719432 5.32041397 2.39719432 5.32041397 0 6 C0 4.02 0 2.04 0 0 Z " fill="#7AB0C5" transform="translate(176,145)"/>
<path d="M0 0 C0.66 0 1.32 0 2 0 C2 0.66 2 1.32 2 2 C4.31 2 6.62 2 9 2 C9 3.32 9 4.64 9 6 C1.46818582 6.75667376 -5.50280391 7.14364008 -13 6 C-13 5.01 -13 4.02 -13 3 C-13.66 3 -14.32 3 -15 3 C-15.33 3.66 -15.66 4.32 -16 5 C-16.99 5.495 -16.99 5.495 -18 6 C-18 5.01 -18 4.02 -18 3 C-18.33 3.99 -18.66 4.98 -19 6 C-19.99 5.67 -20.98 5.34 -22 5 C-22 4.01 -22 3.02 -22 2 C-14.72491206 0.12255795 -7.3394308 0.93244643 0 2 C0 1.34 0 0.68 0 0 Z " fill="#6AA6C0" transform="translate(165,153)"/>
<path d="M0 0 C0.86625 0.5259375 0.86625 0.5259375 1.75 1.0625 C4.48169599 2.20070666 5.20387644 1.71785578 8 1 C9.68696119 0.95735959 11.37549118 0.95928787 13.0625 1 C16.15945057 1.0745131 18.02075995 0.99308002 21 0 C21.99 0.33 22.98 0.66 24 1 C24 2.32 24 3.64 24 5 C22.865625 4.979375 21.73125 4.95875 20.5625 4.9375 C17.18424326 4.58422523 17.18424326 4.58422523 16 6 C13.81360547 6.07258946 11.62499611 6.08373783 9.4375 6.0625 C7.64119141 6.04896484 7.64119141 6.04896484 5.80859375 6.03515625 C4.88175781 6.02355469 3.95492187 6.01195312 3 6 C3 5.01 3 4.02 3 3 C2.34 3 1.68 3 1 3 C0.67 3.66 0.34 4.32 0 5 C0 3.35 0 1.7 0 0 Z " fill="#D786A7" transform="translate(65,251)"/>
<path d="M0 0 C2.93716678 0 5.4419048 0.1596989 8.3125 0.5625 C11.50330263 0.95213596 13.67429352 0.90367235 16.9375 0.4375 C18.4534375 0.2209375 18.4534375 0.2209375 20 0 C20.66 0.66 21.32 1.32 22 2 C22.66 1.67 23.32 1.34 24 1 C23.625 3.4375 23.625 3.4375 23 6 C22.01 6.495 22.01 6.495 21 7 C20.67 6.34 20.34 5.68 20 5 C18.58344207 4.9727585 17.16672955 4.95349533 15.75 4.9375 C14.96109375 4.92589844 14.1721875 4.91429687 13.359375 4.90234375 C11.02645962 4.9165111 11.02645962 4.9165111 8.9375 5.53125 C5.87518129 6.27213356 3.06420298 5.53034282 0 5 C0 3.35 0 1.7 0 0 Z " fill="#D1739A" transform="translate(28,251)"/>
<path d="M0 0 C7.59 0 15.18 0 23 0 C22.67 1.65 22.34 3.3 22 5 C19.54159395 5.02691685 17.08348118 5.04679802 14.625 5.0625 C13.92632812 5.07087891 13.22765625 5.07925781 12.5078125 5.08789062 C7.2265625 5.11328125 7.2265625 5.11328125 5 4 C3.32345271 4.27942455 1.65391846 4.60828247 0 5 C0 3.35 0 1.7 0 0 Z " fill="#D784A5" transform="translate(66,269)"/>
<path d="M0 0 C2.64 0.66 5.28 1.32 8 2 C7.67 3.65 7.34 5.3 7 7 C5.845 6.835 4.69 6.67 3.5 6.5 C-0.69907803 5.96761689 -4.77063041 5.92447554 -9 6 C-9 5.34 -9 4.68 -9 4 C-9.5775 4.350625 -10.155 4.70125 -10.75 5.0625 C-13.35801776 6.14917407 -14.39417629 5.93065133 -17 5 C-17 4.01 -17 3.02 -17 2 C-11.39 2 -5.78 2 0 2 C0 1.34 0 0.68 0 0 Z " fill="#C6AA65" transform="translate(278,259)"/>
<path d="M0 0 C0.99 0.33 1.98 0.66 3 1 C2.84966425 5.96107961 0.19367507 8.20250132 -3.2109375 11.41796875 C-5.0685517 13.06061886 -6.94824832 14.60480885 -9 16 C-9.66 15.01 -10.32 14.02 -11 13 C-10.2884375 11.824375 -10.2884375 11.824375 -9.5625 10.625 C-8.66101977 9.11051322 -7.78820515 7.5764103 -7 6 C-6.34 6 -5.68 6 -5 6 C-4.67 5.34 -4.34 4.68 -4 4 C-1.9375 2.875 -1.9375 2.875 0 2 C0 1.34 0 0.68 0 0 Z " fill="#D8E1FF" transform="translate(397,340)"/>
<path d="M0 0 C0.83265381 0.00523682 1.66530762 0.01047363 2.52319336 0.01586914 C3.42231445 0.0190918 4.32143555 0.02231445 5.24780273 0.02563477 C6.66609375 0.03820312 6.66609375 0.03820312 8.11303711 0.05102539 C9.06243164 0.05553711 10.01182617 0.06004883 10.98999023 0.06469727 C13.34356776 0.07652429 15.69702188 0.09300514 18.05053711 0.11352539 C18.38053711 1.43352539 18.71053711 2.75352539 19.05053711 4.11352539 C16.94705637 4.30856997 14.84271125 4.49431036 12.73803711 4.67602539 C11.5662793 4.78043945 10.39452148 4.88485352 9.18725586 4.99243164 C6.05053711 5.11352539 6.05053711 5.11352539 3.05053711 4.11352539 C2.39053711 4.77352539 1.73053711 5.43352539 1.05053711 6.11352539 C0.72053711 5.45352539 0.39053711 4.79352539 0.05053711 4.11352539 C-0.60946289 4.11352539 -1.26946289 4.11352539 -1.94946289 4.11352539 C-2.27946289 3.12352539 -2.60946289 2.13352539 -2.94946289 1.11352539 C-1.94946289 0.11352539 -1.94946289 0.11352539 0 0 Z " fill="#D4799D" transform="translate(36.949462890625,268.886474609375)"/>
<path d="M0 0 C1.485 0.99 1.485 0.99 3 2 C4.34386088 1.71202981 5.6757713 1.36784131 7 1 C9.33333333 1 11.66666667 1 14 1 C16.0064731 0.70814937 18.00994193 0.38830401 20 0 C20 1.65 20 3.3 20 5 C19.195625 4.690625 19.195625 4.690625 18.375 4.375 C15.90099244 3.79517003 15.90099244 3.79517003 13.25 4.9375 C8.97442789 6.33528319 4.17574819 7.0878741 0 5 C0 3.35 0 1.7 0 0 Z " fill="#CCB47C" transform="translate(249,268)"/>
<path d="M0 0 C2.475 0.99 2.475 0.99 5 2 C5 1.34 5 0.68 5 0 C5.66 0 6.32 0 7 0 C8.0625 1.8125 8.0625 1.8125 9 4 C8.67 4.99 8.34 5.98 8 7 C3.71 7 -0.58 7 -5 7 C-5 5.02 -5 3.04 -5 1 C-3.68 1 -2.36 1 -1 1 C-1 2.32 -1 3.64 -1 5 C-0.67 3.35 -0.34 1.7 0 0 Z " fill="#DDC6D6" transform="translate(301,142)"/>
<path d="M0 0 C1.32 0 2.64 0 4 0 C4 0.66 4 1.32 4 2 C4.99 1.67 5.98 1.34 7 1 C9.26171875 1.12109375 9.26171875 1.12109375 11.6875 1.4375 C12.49574219 1.53933594 13.30398437 1.64117187 14.13671875 1.74609375 C14.75160156 1.82988281 15.36648437 1.91367188 16 2 C16.33 1.34 16.66 0.68 17 0 C19 2 19 2 19 5 C15.26589925 5.76379333 12.64539462 6.09361839 9 5 C5.72724974 5 3.153368 5.29925156 0 6 C0 4.02 0 2.04 0 0 Z " fill="#77AEC5" transform="translate(136,145)"/>
<path d="M0 0 C0.99 -0.33 1.98 -0.66 3 -1 C5.6875 -0.0625 5.6875 -0.0625 8 1 C7.67 2.32 7.34 3.64 7 5 C5.22925083 5.02705729 3.45838289 5.04642195 1.6875 5.0625 C0.70136719 5.07410156 -0.28476563 5.08570313 -1.30078125 5.09765625 C-4 5 -4 5 -7 4 C-7 2.68 -7 1.36 -7 0 C-3.75370153 -1.08209949 -3.12563502 -0.78140875 0 0 Z " fill="#74ACC3" transform="translate(201,163)"/>
<path d="M0 0 C2.65375483 -0.07582157 4.96090609 -0.00858159 7.5625 0.5625 C10.10269391 1.01843224 11.57892488 0.80702504 14 0 C14 1.65 14 3.3 14 5 C9.20699867 6.39151652 4.84864218 5.68662689 0 5 C0 3.35 0 1.7 0 0 Z " fill="#C7AC69" transform="translate(282,251)"/>
<path d="M0 0 C0.99 0.33 1.98 0.66 3 1 C1.25 7.75 1.25 7.75 -1 10 C-1.845625 10.268125 -2.69125 10.53625 -3.5625 10.8125 C-4.366875 11.204375 -5.17125 11.59625 -6 12 C-6.89386164 14.54775306 -6.89386164 14.54775306 -7 17 C-7.66 17 -8.32 17 -9 17 C-9.125 13.625 -9.125 13.625 -9 10 C-6.64046906 7.64046906 -5.22104383 7.50858587 -2 7 C-2.04125 6.21625 -2.0825 5.4325 -2.125 4.625 C-2 2 -2 2 0 0 Z " fill="#F0F8FC" transform="translate(249,155)"/>
<path d="M0 0 C5.28 0 10.56 0 16 0 C16 1.32 16 2.64 16 4 C10.72 4 5.44 4 0 4 C0 2.68 0 1.36 0 0 Z " fill="#D17399" transform="translate(37,261)"/>
<path d="M0 0 C0.66 0 1.32 0 2 0 C2 0.66 2 1.32 2 2 C3.546875 1.7525 3.546875 1.7525 5.125 1.5 C8.48244326 1.06678152 11.62336157 0.91764297 15 1 C15.33 2.32 15.66 3.64 16 5 C6.6394756 6.32556446 6.6394756 6.32556446 2 5 C0.8553125 4.7215625 0.8553125 4.7215625 -0.3125 4.4375 C-0.869375 4.293125 -1.42625 4.14875 -2 4 C-1.34 2.68 -0.68 1.36 0 0 Z " fill="#C9AE6F" transform="translate(250,251)"/>
<path d="M0 0 C1.175625 0.185625 2.35125 0.37125 3.5625 0.5625 C7.61268594 1.08230996 10.99874453 0.7502354 15 0 C15 1.65 15 3.3 15 5 C10.05 5 5.1 5 0 5 C0 3.35 0 1.7 0 0 Z " fill="#C4A75E" transform="translate(297,251)"/>
<path d="M0 0 C10.55808656 -0.3690205 10.55808656 -0.3690205 15 2 C9.94142473 4.72384822 5.71021045 6.67947366 0 5 C0 3.35 0 1.7 0 0 Z " fill="#68A5BF" transform="translate(194,154)"/>
<path d="M0 0 C1.98 0 3.96 0 6 0 C6 0.66 6 1.32 6 2 C6.66 2 7.32 2 8 2 C7.67 3.32 7.34 4.64 7 6 C5.56260487 6.02712066 4.12506137 6.04645067 2.6875 6.0625 C1.48673828 6.07990234 1.48673828 6.07990234 0.26171875 6.09765625 C-2 6 -2 6 -5 5 C-5.33 4.01 -5.66 3.02 -6 2 C-4.35 2 -2.7 2 -1 2 C-0.67 1.34 -0.34 0.68 0 0 Z " fill="#D2769C" transform="translate(76,259)"/>
<path d="M0 0 C0.33 0.66 0.66 1.32 1 2 C1.99 2.33 2.98 2.66 4 3 C4 3.99 4 4.98 4 6 C2.18757948 6.02687279 0.37504767 6.04633715 -1.4375 6.0625 C-2.44683594 6.07410156 -3.45617187 6.08570313 -4.49609375 6.09765625 C-7 6 -7 6 -8 5 C-8.99 5 -9.98 5 -11 5 C-10.67 4.01 -10.34 3.02 -10 2 C-6.7 2 -3.4 2 0 2 C0 1.34 0 0.68 0 0 Z " fill="#C4A65C" transform="translate(306,259)"/>
<path d="M0 0 C4.95 0 9.9 0 15 0 C15 1.65 15 3.3 15 5 C14.01 4.67 13.02 4.34 12 4 C12 3.34 12 2.68 12 2 C11.34 2 10.68 2 10 2 C10 2.66 10 3.32 10 4 C6.30581799 5.231394 3.7943739 4.64432764 0 4 C0 2.68 0 1.36 0 0 Z " fill="#71AAC2" transform="translate(193,146)"/>
<path d="M0 0 C0.66 0 1.32 0 2 0 C2 1.98 2 3.96 2 6 C-1.63 6 -5.26 6 -9 6 C-9 4.68 -9 3.36 -9 2 C-6.03 2 -3.06 2 0 2 C0 1.34 0 0.68 0 0 Z " fill="#C2A455" transform="translate(258,259)"/>
<path d="M0 0 C0.33 0 0.66 0 1 0 C1.66 3.3 2.32 6.6 3 10 C0.36 10 -2.28 10 -5 10 C-3.85017555 6.10828647 -2.70784225 3.06103907 0 0 Z " fill="#FEFAFB" transform="translate(124,245)"/>
<path d="M0 0 C1.08667969 0.29197266 1.08667969 0.29197266 2.1953125 0.58984375 C2.74960938 0.74582031 3.30390625 0.90179688 3.875 1.0625 C3.875 2.3825 3.875 3.7025 3.875 5.0625 C3.153125 4.876875 2.43125 4.69125 1.6875 4.5 C-1.25326973 4.04254693 -3.26603058 4.32733643 -6.125 5.0625 C-6.125 3.4125 -6.125 1.7625 -6.125 0.0625 C-3.57797384 -1.21101308 -2.6967055 -0.73941925 0 0 Z " fill="#79AFC5" transform="translate(189.125,162.9375)"/>
<path d="M0 0 C0.66 0 1.32 0 2 0 C2 0.66 2 1.32 2 2 C4.31 2 6.62 2 9 2 C9 3.32 9 4.64 9 6 C6.03 6 3.06 6 0 6 C-1.24546405 3.50907189 -0.7767578 2.58919267 0 0 Z " fill="#82B4C8" transform="translate(165,153)"/>
<path d="M0 0 C0 1.65 0 3.3 0 5 C-3.63 5 -7.26 5 -11 5 C-11 3.68 -11 2.36 -11 1 C-8.98177083 1.03255208 -6.96354167 1.06510417 -4.9453125 1.09765625 C-3.0426929 1.00214322 -1.80150594 0 0 0 Z " fill="#6AA6C0" transform="translate(174,145)"/>
<path d="M0 0 C0.33 1.32 0.66 2.64 1 4 C0.01 4.33 -0.98 4.66 -2 5 C-2.66 4.67 -3.32 4.34 -4 4 C-4 3.34 -4 2.68 -4 2 C-4.66 2 -5.32 2 -6 2 C-6 2.66 -6 3.32 -6 4 C-6.99 4 -7.98 4 -9 4 C-9 2.68 -9 1.36 -9 0 C-5.93109813 -1.53445094 -3.29905734 -0.54984289 0 0 Z " fill="#D2769B" transform="translate(63,252)"/>
<path d="M0 0 C1.65 0 3.3 0 5 0 C5.33 1.65 5.66 3.3 6 5 C3.625 5.625 3.625 5.625 1 6 C0.34 5.34 -0.32 4.68 -1 4 C-0.625 1.875 -0.625 1.875 0 0 Z " fill="#CAE9F6" transform="translate(248,166)"/>
<path d="M0 0 C1.32 0 2.64 0 4 0 C4 1.32 4 2.64 4 4 C3.4225 4.12117187 2.845 4.24234375 2.25 4.3671875 C-0.77323658 5.21747279 -3.27864282 6.71641879 -6 8.2578125 C-8.4145692 9.15384404 -9.60996728 8.84291332 -12 8 C-10.37750059 7.16180842 -8.75191503 6.3295884 -7.125 5.5 C-5.76761719 4.80390625 -5.76761719 4.80390625 -4.3828125 4.09375 C-2 3 -2 3 0 3 C0 2.01 0 1.02 0 0 Z " fill="#FEF3D5" transform="translate(215,239)"/>
<path d="M0 0 C2.64 0.66 5.28 1.32 8 2 C7.67 3.65 7.34 5.3 7 7 C4.69 6.67 2.38 6.34 0 6 C0 4.02 0 2.04 0 0 Z " fill="#CAAF73" transform="translate(278,259)"/>
<path d="M0 0 C1.32 0.66 2.64 1.32 4 2 C4 3.32 4 4.64 4 6 C0.7 6 -2.6 6 -6 6 C-6 4.68 -6 3.36 -6 2 C-4.35 2 -2.7 2 -1 2 C-0.67 1.34 -0.34 0.68 0 0 Z " fill="#6AA7C0" transform="translate(189,153)"/>
<path d="M0 0 C0.598125 0.33 1.19625 0.66 1.8125 1 C4.05386471 2.20787988 4.05386471 2.20787988 7 2 C7.33 2.99 7.66 3.98 8 5 C4.846632 5.70074844 2.27275026 6 -1 6 C-0.67 4.02 -0.34 2.04 0 0 Z " fill="#E5D3E0" transform="translate(313,143)"/>
<path d="M0 0 C0.99 0.66 1.98 1.32 3 2 C3 2.99 3 3.98 3 5 C-0.66305234 5.74926071 -3.42355152 6.2380014 -7 5 C-7 4.34 -7 3.68 -7 3 C-7.66 2.67 -8.32 2.34 -9 2 C-6.03 2 -3.06 2 0 2 C0 1.34 0 0.68 0 0 Z " fill="#61A1BC" transform="translate(152,145)"/>
<path d="M0 0 C0.33 0 0.66 0 1 0 C1 2.31 1 4.62 1 7 C-0.98 7 -2.96 7 -5 7 C-5 5.02 -5 3.04 -5 1 C-3.68 1 -2.36 1 -1 1 C-1 2.32 -1 3.64 -1 5 C-0.67 3.35 -0.34 1.7 0 0 Z " fill="#E8D7E2" transform="translate(301,142)"/>
<path d="M0 0 C1.98 0 3.96 0 6 0 C5.125 3.875 5.125 3.875 4 5 C2.48071962 5.07179964 0.95832518 5.08392007 -0.5625 5.0625 C-1.38878906 5.05347656 -2.21507812 5.04445313 -3.06640625 5.03515625 C-3.70449219 5.02355469 -4.34257812 5.01195312 -5 5 C-5 4.67 -5 4.34 -5 4 C-3.02 4 -1.04 4 1 4 C0.67 2.68 0.34 1.36 0 0 Z " fill="#D9CAAC" transform="translate(265,252)"/>
<path d="M0 0 C0.99 0 1.98 0 3 0 C3.33 2.97 3.66 5.94 4 9 C2.35 9 0.7 9 -1 9 C-0.67 6.03 -0.34 3.06 0 0 Z " fill="#FEFDF8" transform="translate(210,247)"/>
<path d="M0 0 C4.455 0.99 4.455 0.99 9 2 C8.01 2.495 8.01 2.495 7 3 C6.67 3.66 6.34 4.32 6 5 C2.9375 5.625 2.9375 5.625 0 6 C0 4.02 0 2.04 0 0 Z " fill="#71AAC2" transform="translate(176,145)"/>
<path d="M0 0 C1.485 0.99 1.485 0.99 3 2 C4.32 2 5.64 2 7 2 C7.99 2.33 8.98 2.66 10 3 C9.67 3.66 9.34 4.32 9 5 C6.03 5 3.06 5 0 5 C0 3.35 0 1.7 0 0 Z " fill="#C2A253" transform="translate(249,268)"/>
<path d="M0 0 C1.98 0.66 3.96 1.32 6 2 C5.67 2.99 5.34 3.98 5 5 C3.35 5 1.7 5 0 5 C-0.5625 3.0625 -0.5625 3.0625 -1 1 C-0.67 0.67 -0.34 0.34 0 0 Z " fill="#78AEC6" transform="translate(176,154)"/>
<path d="M0 0 C1.98 0.66 3.96 1.32 6 2 C5.67 3.32 5.34 4.64 5 6 C3.02 6 1.04 6 -1 6 C-0.34 5.01 0.32 4.02 1 3 C0.67 2.01 0.34 1.02 0 0 Z " fill="#A2C8D5" transform="translate(203,162)"/>
<path d="M0 0 C1.98 0 3.96 0 6 0 C5.67 1.32 5.34 2.64 5 4 C3.35 4.33 1.7 4.66 0 5 C0 3.35 0 1.7 0 0 Z " fill="#D2779C" transform="translate(66,269)"/>
<path d="M0 0 C0.33 0 0.66 0 1 0 C1 1.98 1 3.96 1 6 C-1.31 5.67 -3.62 5.34 -6 5 C-6 4.01 -6 3.02 -6 2 C-4.7934375 1.7834375 -4.7934375 1.7834375 -3.5625 1.5625 C-1.07896294 1.25864751 -1.07896294 1.25864751 0 0 Z " fill="#CD658E" transform="translate(68,259)"/>
<path d="M0 0 C1.98 0 3.96 0 6 0 C5.67 1.32 5.34 2.64 5 4 C3.02 4 1.04 4 -1 4 C-0.67 2.68 -0.34 1.36 0 0 Z " fill="#D47B9F" transform="translate(58,269)"/>
<path d="M0 0 C0 1.65 0 3.3 0 5 C-2.97 4.505 -2.97 4.505 -6 4 C-6.33 3.01 -6.66 2.02 -7 1 C-1.125 0 -1.125 0 0 0 Z " fill="#C7AC6B" transform="translate(312,251)"/>
<path d="M0 0 C-0.33 1.98 -0.66 3.96 -1 6 C-2.65 6 -4.3 6 -6 6 C-5.67 5.34 -5.34 4.68 -5 4 C-5.33 3.67 -5.66 3.34 -6 3 C-2.25 0 -2.25 0 0 0 Z " fill="#C5A861" transform="translate(294,259)"/>
<path d="M0 0 C0.66 0 1.32 0 2 0 C2 1.98 2 3.96 2 6 C-0.31 6 -2.62 6 -5 6 C-5 5.01 -5 4.02 -5 3 C-4.34 3 -3.68 3 -3 3 C-3 3.66 -3 4.32 -3 5 C-2.34 5 -1.68 5 -1 5 C-0.67 3.35 -0.34 1.7 0 0 Z " fill="#D3BF95" transform="translate(258,259)"/>
<path d="M0 0 C0.8971875 0.5259375 0.8971875 0.5259375 1.8125 1.0625 C4.10813214 2.33304698 4.10813214 2.33304698 7 1 C7 2.32 7 3.64 7 5 C5.68 5 4.36 5 3 5 C3 4.34 3 3.68 3 3 C2.34 3 1.68 3 1 3 C0.67 3.66 0.34 4.32 0 5 C0 3.35 0 1.7 0 0 Z " fill="#CD6690" transform="translate(65,251)"/>
<path d="M0 0 C0.33 0.66 0.66 1.32 1 2 C1.99 2.33 2.98 2.66 4 3 C4 3.99 4 4.98 4 6 C1.69 5.34 -0.62 4.68 -3 4 C-3 3.34 -3 2.68 -3 2 C-2.01 2 -1.02 2 0 2 C0 1.34 0 0.68 0 0 Z " fill="#CAB276" transform="translate(306,259)"/>
<path d="M0 0 C0.66 0 1.32 0 2 0 C2 0.66 2 1.32 2 2 C3.32 2.33 4.64 2.66 6 3 C6 3.66 6 4.32 6 5 C3.36 5 0.72 5 -2 5 C-1.34 3.35 -0.68 1.7 0 0 Z " fill="#C1A251" transform="translate(250,251)"/>
<path d="M0 0 C1.65 0 3.3 0 5 0 C5 1.65 5 3.3 5 5 C3.35 5 1.7 5 0 5 C0 3.35 0 1.7 0 0 Z " fill="#EBF6FB" transform="translate(239,156)"/>
<path d="M0 0 C0.99 0.33 1.98 0.66 3 1 C2.67 2.98 2.34 4.96 2 7 C1.01 6.67 0.02 6.34 -1 6 C-1.8125 4.0625 -1.8125 4.0625 -2 2 C-1.34 1.34 -0.68 0.68 0 0 Z " fill="#DCF0F8" transform="translate(249,155)"/>
<path d="M0 0 C-0.99 0.99 -1.98 1.98 -3 3 C-3.33 2.01 -3.66 1.02 -4 0 C-4.33 0.99 -4.66 1.98 -5 3 C-5.99 2.67 -6.98 2.34 -8 2 C-8 1.01 -8 0.02 -8 -1 C-4.59745511 -2.2151946 -3.06748874 -1.86240388 0 0 Z " fill="#5B9DBA" transform="translate(151,156)"/>
<path d="M0 0 C2.31 0.33 4.62 0.66 7 1 C7 1.99 7 2.98 7 4 C4.69 4 2.38 4 0 4 C0 2.68 0 1.36 0 0 Z " fill="#5A9DB9" transform="translate(193,146)"/>
<path d="M0 0 C1.32 0 2.64 0 4 0 C4 1.65 4 3.3 4 5 C2.68 5 1.36 5 0 5 C0 3.35 0 1.7 0 0 Z " fill="#CDB681" transform="translate(282,251)"/>
<path d="M0 0 C-0.33 1.65 -0.66 3.3 -1 5 C-2.32 4.67 -3.64 4.34 -5 4 C-5 3.01 -5 2.02 -5 1 C-3 0 -3 0 0 0 Z " fill="#6CA8C0" transform="translate(161,146)"/>
<path d="M0 0 C2.475 0.495 2.475 0.495 5 1 C5 2.32 5 3.64 5 5 C3.35 5 1.7 5 0 5 C0 3.35 0 1.7 0 0 Z " fill="#D07096" transform="translate(28,251)"/>
<path d="M0 0 C0.66 0 1.32 0 2 0 C2.33 0.99 2.66 1.98 3 3 C3.99 3 4.98 3 6 3 C5.67 3.99 5.34 4.98 5 6 C3.02 5.34 1.04 4.68 -1 4 C-0.34 3.67 0.32 3.34 1 3 C0.67 2.01 0.34 1.02 0 0 Z " fill="#DB92AF" transform="translate(32,251)"/>
<path d="M0 0 C1.32 0 2.64 0 4 0 C3.67 1.65 3.34 3.3 3 5 C2.34 5 1.68 5 1 5 C0.34 3.68 -0.32 2.36 -1 1 C-0.67 0.67 -0.34 0.34 0 0 Z " fill="#D8BFD0" transform="translate(320,144)"/>
</svg>
