<?xml version="1.0" encoding="UTF-8"?>
<svg version="1.1" xmlns="http://www.w3.org/2000/svg" width="400" height="400">
<path d="M0 0 C132 0 264 0 400 0 C400 132 400 264 400 400 C268 400 136 400 0 400 C0 268 0 136 0 0 Z " fill="#F1F5FD" transform="translate(0,0)"/>
<path d="M0 0 C3.7614221 2.8763816 6.68109928 5.24055285 8.5625 9.6875 C8.85923631 13.38135549 8.79922829 16.99190842 8.5625 20.6875 C28.28971456 23.21715316 47.28264473 22.34153747 66.125 15.8125 C90.69647997 7.3749862 117.90805449 3.63968471 143.50390625 10.03125 C148.27889302 11.05576823 152.76164087 11.13240068 157.4375 9.6875 C171.50022111 6.39979899 183.48392323 8.82397673 196.0625 15.5625 C200.52285924 19.35380535 203.13757873 22.00059181 204.08203125 27.97265625 C204.34899894 33.77765142 204.3681854 38.48900824 200.875 43.3125 C199.80693573 44.47183073 198.70568051 45.60216718 197.5625 46.6875 C196.86125 47.43 196.16 48.1725 195.4375 48.9375 C184.21951971 55.76583583 171.11649572 56.22275271 158.40234375 54.1796875 C149.87138198 51.88542576 142.99607701 47.51231814 138.46875 39.83203125 C137.42485234 37.36177341 137.35902771 35.60555793 137.4375 32.9375 C137.45554687 32.13828125 137.47359375 31.3390625 137.4921875 30.515625 C137.51539063 29.91234375 137.53859375 29.3090625 137.5625 28.6875 C129.97034895 27.49127798 122.42441381 27.4676105 114.75 27.4375 C113.44740234 27.416875 112.14480469 27.39625 110.80273438 27.375 C102.84622324 27.34299794 96.10017979 28.1797211 88.5625 30.6875 C87.11878395 31.10837993 85.67355037 31.52410374 84.2265625 31.93359375 C82.87988132 32.32961886 81.5335279 32.72676017 80.1875 33.125 C79.46344971 33.33745361 78.73939941 33.54990723 77.9934082 33.76879883 C72.62501648 35.35086866 67.29320551 37.03204754 61.98046875 38.79296875 C51.96849391 41.41324559 42.19615549 42.04214329 31.875 42 C30.55806152 41.99871094 29.24112305 41.99742187 27.88427734 41.99609375 C19.33916237 41.91193652 11.33054525 41.25214732 3.0078125 39.34375 C-1.68999135 38.44893022 -6.14138789 38.22077124 -10.87207031 39.18237305 C-21.85173089 41.34424188 -36.66077272 41.51765847 -46.4375 35.6875 C-50.86644333 32.67713814 -54.09180003 29.56408677 -56.4375 24.6875 C-56.8359375 21.09375 -56.8359375 21.09375 -56.8125 17.1875 C-56.82023437 15.8984375 -56.82796875 14.609375 -56.8359375 13.28125 C-56.16148625 7.1979642 -53.09080665 3.86222501 -48.53515625 0.109375 C-34.6033218 -9.33417759 -13.8751304 -9.1422142 0 0 Z " fill="#FECEEC" transform="translate(180.4375,232.3125)"/>
<path d="M0 0 C4.46035924 3.79130535 7.07507873 6.43809181 8.01953125 12.41015625 C8.28649894 18.21515142 8.3056854 22.92650824 4.8125 27.75 C3.74443573 28.90933073 2.64318051 30.03966718 1.5 31.125 C0.448125 32.23875 0.448125 32.23875 -0.625 33.375 C-11.84298029 40.20333583 -24.94600428 40.66025271 -37.66015625 38.6171875 C-46.19174973 36.32275587 -52.9521821 31.96465648 -57.5703125 24.36328125 C-59.79014615 19.01889183 -59.6956239 12.03874485 -57.5078125 6.70703125 C-53.08525753 0.2481021 -45.92353576 -4.16087374 -38.4375 -6.25 C-24.19160797 -8.64532698 -12.74202502 -6.82608483 0 0 Z " fill="#38AFE1" transform="translate(376.5,247.875)"/>
<path d="M0 0 C4.61896971 3.53215331 7.80661687 6.36774302 9.140625 12.2265625 C9.47200761 15.39213848 9.44634466 17.62003914 8.5625 20.6875 C5.15932736 24.53137126 1.14887783 27.39431108 -3.4375 29.6875 C-3.84479228 32.00906597 -4.18188677 34.3443787 -4.4375 36.6875 C-11.14299062 39.39632008 -17.10749407 40.20363411 -24.3125 40.125 C-25.28195557 40.11742676 -26.25141113 40.10985352 -27.25024414 40.10205078 C-37.0436916 39.87630799 -44.59638308 37.99240244 -52 31.34765625 C-56.01195291 26.71428672 -56.84933605 23.32684211 -56.8125 17.1875 C-56.82023437 15.8984375 -56.82796875 14.609375 -56.8359375 13.28125 C-56.16148625 7.1979642 -53.09080665 3.86222501 -48.53515625 0.109375 C-34.6033218 -9.33417759 -13.8751304 -9.1422142 0 0 Z " fill="#FEC638" transform="translate(180.4375,232.3125)"/>
<path d="M0 0 C3.99398585 2.58277751 6.61507365 5.0210665 8.34375 9.515625 C8.97335017 14.58946165 9.12081589 19.43758978 8.34375 24.515625 C6.80859375 26.46484375 6.80859375 26.46484375 5.34375 27.515625 C4.35375 26.855625 3.36375 26.195625 2.34375 25.515625 C1.3846875 26.44375 1.3846875 26.44375 0.40625 27.390625 C-3.47188076 30.08157288 -7.06060579 30.75469045 -11.65625 31.515625 C-11.65625 34.155625 -11.65625 36.795625 -11.65625 39.515625 C-23.86960927 41.78145183 -36.08977243 41.37952614 -47.10546875 35.125 C-51.33450478 32.15451258 -54.12180248 29.08308097 -56.65625 24.515625 C-57.1875 20.859375 -57.1875 20.859375 -57.15625 17.015625 C-57.17171875 15.11296875 -57.17171875 15.11296875 -57.1875 13.171875 C-56.41089806 7.82702633 -54.17445196 4.89004861 -50.22265625 1.3125 C-35.71209602 -8.84710077 -15.36615445 -8.25219406 0 0 Z " fill="#FE548B" transform="translate(147.65625,115.484375)"/>
<path d="M0 0 C3.65372153 2.46626204 4.91068549 5.66216194 6.5 9.6875 C6.85707031 10.54601562 7.21414062 11.40453125 7.58203125 12.2890625 C10.1718259 21.87681291 10.45003396 35.12193785 6.1875 44.1875 C2.66248738 49.99786769 -1.68919706 55.32305663 -6.01171875 60.55859375 C-10.3961338 66.0718064 -12.95155507 70.5339171 -12.5 77.6875 C-11.66184571 79.98263277 -10.65962635 81.96202528 -9.41015625 84.05859375 C-8.5 85.6875 -8.5 85.6875 -8.5 87.6875 C-9.14066406 87.90664062 -9.78132813 88.12578125 -10.44140625 88.3515625 C-15.92470583 90.36183329 -19.91211113 92.43738181 -24.02734375 96.61328125 C-24.51332031 96.96777344 -24.99929687 97.32226562 -25.5 97.6875 C-28.5 96.6875 -28.5 96.6875 -29.88671875 94.66796875 C-34.80520659 84.10725161 -35.92985158 70.50250175 -32.1875 59.3125 C-29.42232822 53.69231331 -25.14331615 48.87205303 -21.15625 44.08203125 C-16.85458052 38.78553819 -12.85873273 32.66997634 -12.5 25.6875 C-13.60036449 20.25740208 -13.60036449 20.25740208 -16.5 15.6875 C-16.57179964 14.16821962 -16.58392007 12.64582518 -16.5625 11.125 C-16.55347656 10.29871094 -16.54445312 9.47242188 -16.53515625 8.62109375 C-16.52355469 7.98300781 -16.51195312 7.34492188 -16.5 6.6875 C-15.48679688 6.30658203 -15.48679688 6.30658203 -14.453125 5.91796875 C-13.56109375 5.57378906 -12.6690625 5.22960937 -11.75 4.875 C-10.86828125 4.53855469 -9.9865625 4.20210937 -9.078125 3.85546875 C-6.46044501 2.78569654 -6.46044501 2.78569654 -4.328125 1.03125 C-2.5 -0.3125 -2.5 -0.3125 0 0 Z " fill="#FECEEC" transform="translate(152.5,140.3125)"/>
<path d="M0 0 C-0.53625 0.391875 -1.0725 0.78375 -1.625 1.1875 C-2.40875 1.785625 -3.1925 2.38375 -4 3 C-5.010625 3.721875 -6.02125 4.44375 -7.0625 5.1875 C-10.6943995 8.18496643 -11.64831232 11.56946815 -13 16 C-14.82144531 15.76216797 -14.82144531 15.76216797 -16.6796875 15.51953125 C-32.55410471 13.77328332 -48.86430366 13.55114932 -64 19 C-77.89470752 23.51814299 -77.89470752 23.51814299 -83.8125 20.625 C-86 19 -86 19 -88 17 C-88.43971741 11.63544759 -88.60478321 8.28454233 -85 4 C-82.06580034 2.55592171 -79.01773158 1.69217563 -75.875 0.8125 C-74.64910156 0.4422168 -74.64910156 0.4422168 -73.3984375 0.06445312 C-50.32562539 -6.78072452 -22.94835383 -8.36469316 0 0 Z " fill="#FECEEC" transform="translate(104,113)"/>
<path d="M0 0 C0.73629639 0.00080566 1.47259277 0.00161133 2.23120117 0.00244141 C10.1562117 0.08987797 18.83571057 0.20804422 25.875 4.1875 C25.215 6.1675 24.555 8.1475 23.875 10.1875 C22.35326172 9.94773437 22.35326172 9.94773437 20.80078125 9.703125 C14.24511512 8.88997442 7.65888381 8.96338086 1.0625 8.9375 C-0.24009766 8.916875 -1.54269531 8.89625 -2.88476562 8.875 C-10.84127676 8.84299794 -17.58732021 9.6797211 -25.125 12.1875 C-26.56871605 12.60837993 -28.01394963 13.02410374 -29.4609375 13.43359375 C-30.80761868 13.82961886 -32.1539721 14.22676017 -33.5 14.625 C-34.22405029 14.83745361 -34.94810059 15.04990723 -35.6940918 15.26879883 C-41.06248352 16.85086866 -46.39429449 18.53204754 -51.70703125 20.29296875 C-61.57667961 22.87599672 -71.26166581 23.57308742 -81.4375 23.5625 C-82.73316895 23.56378906 -84.02883789 23.56507813 -85.36376953 23.56640625 C-97.22674852 23.43820508 -108.56868357 21.78240892 -120.125 19.1875 C-119.465 18.8575 -118.805 18.5275 -118.125 18.1875 C-118.125 15.8775 -118.125 13.5675 -118.125 11.1875 C-117.0628125 11.39246094 -116.000625 11.59742188 -114.90625 11.80859375 C-113.47919189 12.08086142 -112.05210712 12.35298933 -110.625 12.625 C-109.92890625 12.75970703 -109.2328125 12.89441406 -108.515625 13.03320312 C-82.14133223 18.03943462 -56.89145466 14.70271178 -31.76171875 5.80078125 C-21.37473123 2.12227584 -11.04341076 -0.01269503 0 0 Z " fill="#D897BE" transform="translate(294.125,250.8125)"/>
<path d="M0 0 C1.72065674 0.00580078 1.72065674 0.00580078 3.47607422 0.01171875 C11.22991408 0.09100812 18.66507791 0.53034155 26.25 2.25 C25.59 4.56 24.93 6.87 24.25 9.25 C23.03570312 9.09144531 21.82140625 8.93289062 20.5703125 8.76953125 C4.69589529 7.02328332 -11.61430366 6.80114932 -26.75 12.25 C-40.64470752 16.76814299 -40.64470752 16.76814299 -46.5625 13.875 C-48.75 12.25 -48.75 12.25 -50.75 10.25 C-50.875 6.625 -50.875 6.625 -50.75 3.25 C-49.780625 3.930625 -48.81125 4.61125 -47.8125 5.3125 C-43.20237157 7.89822073 -39.77434282 7.45675303 -34.75 6.25 C-31.52727034 5.32636408 -28.33789336 4.34168681 -25.15625 3.28515625 C-16.63385871 0.69520936 -8.92201479 -0.07237909 0 0 Z " fill="#D796BE" transform="translate(66.75,119.75)"/>
<path d="M0 0 C0.474375 0.70125 0.94875 1.4025 1.4375 2.125 C8.4182389 9.95704853 17.07788283 13.71122761 27.4375 14.31640625 C38.11912939 14.69116269 48.15141348 14.21098229 57.125 7.75 C58.053125 6.88375 58.053125 6.88375 59 6 C59.66 6 60.32 6 61 6 C61.66 4.35 62.32 2.7 63 1 C63.33 1 63.66 1 64 1 C64.5403486 4.70524754 64.69389489 6.85624053 62.72265625 10.10546875 C56.83217881 17.22479862 49.11608094 21.32485605 39.81787109 22.20703125 C37.43712242 22.30381375 35.07014391 22.3288927 32.6875 22.3125 C31.84662842 22.30758545 31.00575684 22.3026709 30.1394043 22.29760742 C20.56944366 22.11697221 12.62197933 20.00252876 5 14 C0.57115215 9.11691134 -0.12162736 6.56787744 0 0 Z " fill="#0681B0" transform="translate(319,265)"/>
<path d="M0 0 C0.29132813 0.59941406 0.58265625 1.19882813 0.8828125 1.81640625 C4.9864227 9.83709891 10.66462051 12.2423526 19 15 C30.59950348 18.21191416 40.49387614 16.5169646 52 14 C52 16.31 52 18.62 52 21 C45.29450938 23.70882008 39.33000593 24.51613411 32.125 24.4375 C31.15554443 24.42992676 30.18608887 24.42235352 29.18725586 24.41455078 C19.45936307 24.19031905 11.54610987 22.40910951 4.37109375 15.4921875 C0.22000772 10.97448134 -0.31029749 7.77201716 -0.10546875 1.79296875 C-0.07066406 1.20128906 -0.03585938 0.60960937 0 0 Z " fill="#CA9809" transform="translate(124,248)"/>
<path d="M0 0 C1.03165259 1.54747888 2.06279362 3.09531981 3.0859375 4.6484375 C7.90350813 11.10106241 14.67419997 13.51651591 22.2578125 15.62890625 C26.44059008 16.19495165 30.5975629 16.10336069 34.8125 16.0625 C35.69615234 16.05798828 36.57980469 16.05347656 37.49023438 16.04882812 C39.66018559 16.03709866 41.83010172 16.01916495 44 16 C44 17.98 44 19.96 44 22 C34.81535169 26.28388447 24.18841051 24.4724526 14.91796875 21.265625 C8.41944198 18.44698688 3.11971198 14.49939995 0 8 C-0.30020588 5.2381059 -0.19256067 2.79212973 0 0 Z " fill="#C9085D" transform="translate(91,132)"/>
<path d="M0 0 C0.99 0 1.98 0 3 0 C3 3.96 3 7.92 3 12 C5.97 12 8.94 12 12 12 C11.67 11.34 11.34 10.68 11 10 C10.21625 10.20625 9.4325 10.4125 8.625 10.625 C7.75875 10.74875 6.8925 10.8725 6 11 C5.34 10.34 4.68 9.68 4 9 C4 7.68 4 6.36 4 5 C9.75 4 9.75 4 12 4 C13.12728516 3.94779297 13.12728516 3.94779297 14.27734375 3.89453125 C15.15519531 3.86746094 16.03304687 3.84039062 16.9375 3.8125 C18.25041016 3.76029297 18.25041016 3.76029297 19.58984375 3.70703125 C22 4 22 4 23.8046875 5.09375 C25.59805569 7.95376201 25.28651728 10.35391822 25.1875 13.6875 C25.16042969 14.86699219 25.13335937 16.04648438 25.10546875 17.26171875 C25.07066406 18.16535156 25.03585938 19.06898438 25 20 C24.01 20 23.02 20 22 20 C22 18.68 22 17.36 22 16 C15.73 16 9.46 16 3 16 C3 17.32 3 18.64 3 20 C2.01 20 1.02 20 0 20 C0 13.4 0 6.8 0 0 Z " fill="#FEF9EC" transform="translate(144,236)"/>
<path d="M0 0 C0.99 0.33 1.98 0.66 3 1 C3 1.66 3 2.32 3 3 C3.680625 2.649375 4.36125 2.29875 5.0625 1.9375 C8.76844267 0.75475234 11.23014568 1.1622546 15 2 C15.99 2.66 16.98 3.32 18 4 C17.67 4.99 17.34 5.98 17 7 C15.68 6.34 14.36 5.68 13 5 C13.474375 5.7425 13.94875 6.485 14.4375 7.25 C15.77869327 9.61050015 16.512312 11.36648477 17 14 C18.65 14 20.3 14 22 14 C19.74259377 16.33524782 17.7194239 18.18705073 15 20 C17.97 20.33 20.94 20.66 24 21 C24 21.66 24 22.32 24 23 C20.08334892 23.02904864 16.1667256 23.04681517 12.25 23.0625 C11.13882812 23.07087891 10.02765625 23.07925781 8.8828125 23.08789062 C7.27792969 23.09272461 7.27792969 23.09272461 5.640625 23.09765625 C4.65610352 23.10289307 3.67158203 23.10812988 2.65722656 23.11352539 C0.27130486 23.01159103 -1.72164581 22.68303357 -4 22 C-4 21.34 -4 20.68 -4 20 C-3.01 20 -2.02 20 -1 20 C-1 19.01 -1 18.02 -1 17 C0.98 17 2.96 17 5 17 C5.66 13.04 6.32 9.08 7 5 C5.35 5 3.7 5 2 5 C1.34 4.34 0.68 3.68 0 3 C0 2.01 0 1.02 0 0 Z " fill="#EBF7FC" transform="translate(341,252)"/>
<path d="M0 0 C0.33 0 0.66 0 1 0 C2.32638455 11.10232998 -2.51160071 18.98782862 -9.16088867 27.48730469 C-10.11092115 28.67163732 -11.07024096 29.84860176 -12.0402832 31.01660156 C-15.1877793 34.8179848 -17.65312617 38.65332522 -20 43 C-20.33 43 -20.66 43 -21 43 C-22.16671913 35.49966277 -18.25878223 30.89856882 -14 25 C-12.44283502 22.95426144 -10.88028973 20.91260752 -9.3125 18.875 C-4.80115069 12.95721641 -1.6835382 7.25216455 0 0 Z " fill="#D897BF" transform="translate(160,168)"/>
<path d="M0 0 C2.05078125 0.03255208 4.1015625 0.06510417 6.15234375 0.09765625 C6.15234375 0.75765625 6.15234375 1.41765625 6.15234375 2.09765625 C9.58000939 2.95457266 11.7798605 3.10940122 15.15234375 2.09765625 C18.15234375 2.09765625 18.15234375 2.09765625 21.15234375 3.09765625 C20.16234375 4.08765625 19.17234375 5.07765625 18.15234375 6.09765625 C19.47234375 6.09765625 20.79234375 6.09765625 22.15234375 6.09765625 C22.15234375 4.11765625 22.15234375 2.13765625 22.15234375 0.09765625 C22.81234375 0.09765625 23.47234375 0.09765625 24.15234375 0.09765625 C24.48234375 1.08765625 24.81234375 2.07765625 25.15234375 3.09765625 C25.81234375 2.76765625 26.47234375 2.43765625 27.15234375 2.09765625 C27.15234375 4.07765625 27.15234375 6.05765625 27.15234375 8.09765625 C16.15234375 8.09765625 16.15234375 8.09765625 13.71484375 7.53515625 C11.04384461 6.87194637 11.04384461 6.87194637 8.15234375 8.09765625 C8.15234375 6.44765625 8.15234375 4.79765625 8.15234375 3.09765625 C7.49234375 3.09765625 6.83234375 3.09765625 6.15234375 3.09765625 C6.15234375 4.74765625 6.15234375 6.39765625 6.15234375 8.09765625 C0.09765625 8.29296875 0.09765625 8.29296875 -1.84765625 8.09765625 C-2.50765625 7.43765625 -3.16765625 6.77765625 -3.84765625 6.09765625 C-3.12417691 0.16512563 -3.12417691 0.16512563 0 0 Z " fill="#C2AD7B" transform="translate(51.84765625,269.90234375)"/>
<path d="M0 0 C0.95397704 2.86193113 1.06755163 4.31450995 0.921875 7.24609375 C0.55437332 17.76213908 0.72866633 25.63258083 6 35 C6.33 35.66 6.66 36.32 7 37 C6.67 37.99 6.34 38.98 6 40 C3 39 3 39 1.4296875 36.41796875 C0.91664062 35.35191406 0.40359375 34.28585938 -0.125 33.1875 C-0.90230469 31.60001953 -0.90230469 31.60001953 -1.6953125 29.98046875 C-5.50148513 21.28552949 -5.0808736 11.41699872 -1.75390625 2.609375 C-1 1 -1 1 0 0 Z " fill="#EEEEEE" transform="translate(119,202)"/>
<path d="M0 0 C0.99 0.33 1.98 0.66 3 1 C3.94921875 3.50390625 3.94921875 3.50390625 4.6875 6.5625 C5.06455078 8.08037109 5.06455078 8.08037109 5.44921875 9.62890625 C5.63097656 10.41136719 5.81273438 11.19382813 6 12 C8.64 12.66 11.28 13.32 14 14 C13.67 14.99 13.34 15.98 13 17 C5.59225491 15.60695059 -1.70170537 13.88100377 -9 12 C-9 9.69 -9 7.38 -9 5 C-8.34 5 -7.68 5 -7 5 C-6.67 6.32 -6.34 7.64 -6 9 C-3.03 9.495 -3.03 9.495 0 10 C0 6.7 0 3.4 0 0 Z " fill="#FEEBF2" transform="translate(121,117)"/>
<path d="M0 0 C0.33 0.66 0.66 1.32 1 2 C1.66 2 2.32 2 3 2 C3 1.34 3 0.68 3 0 C3.66 0 4.32 0 5 0 C5 0.66 5 1.32 5 2 C8.37817425 2.84454356 10.67465243 3.10844919 14 2 C14.33 2.99 14.66 3.98 15 5 C13.68 5 12.36 5 11 5 C11 5.66 11 6.32 11 7 C11.99 7.33 12.98 7.66 14 8 C11.69 8 9.38 8 7 8 C7 6.68 7 5.36 7 4 C6.34 4 5.68 4 5 4 C5 5.32 5 6.64 5 8 C3.35 8 1.7 8 0 8 C-1.125 2.25 -1.125 2.25 0 0 Z " fill="#6FA2BA" transform="translate(296,218)"/>
<path d="M0 0 C1.32 0 2.64 0 4 0 C4 0.66 4 1.32 4 2 C4.99 2 5.98 2 7 2 C7 3.65 7 5.3 7 7 C7.66 7 8.32 7 9 7 C9 5.68 9 4.36 9 3 C10.98 3 12.96 3 15 3 C14.01 3.495 14.01 3.495 13 4 C13 5.65 13 7.3 13 9 C2.625 9 2.625 9 -1 8 C0.32 7.67 1.64 7.34 3 7 C3 6.34 3 5.68 3 5 C1.68 4.67 0.36 4.34 -1 4 C-0.67 2.68 -0.34 1.36 0 0 Z " fill="#8EB8CB" transform="translate(296,204)"/>
<path d="M0 0 C0.33 0 0.66 0 1 0 C1.14695312 0.68964844 1.29390625 1.37929687 1.4453125 2.08984375 C3.1176059 9.09617645 5.63704132 14.28155901 10 20 C9.34 20.99 8.68 21.98 8 23 C5 22 5 22 3.61328125 19.62890625 C0.73406385 12.84156192 -0.73432206 7.37585713 0 0 Z " fill="#D999C0" transform="translate(119,215)"/>
<path d="M0 0 C0.66 -0.33 1.32 -0.66 2 -1 C2 1.97 2 4.94 2 8 C-1.3 8 -4.6 8 -8 8 C-8 7.67 -8 7.34 -8 7 C-5.03 7 -2.06 7 1 7 C0.67 6.34 0.34 5.68 0 5 C-0.78375 5.20625 -1.5675 5.4125 -2.375 5.625 C-3.24125 5.74875 -4.1075 5.8725 -5 6 C-5.66 5.34 -6.32 4.68 -7 4 C-7 2.68 -7 1.36 -7 0 C-4.33059475 -1.33470263 -2.86667247 -0.57333449 0 0 Z " fill="#FEF2D3" transform="translate(155,241)"/>
<path d="M0 0 C1.4540625 0.0309375 1.4540625 0.0309375 2.9375 0.0625 C2.97991723 2.39544775 2.97842937 4.72952567 2.9375 7.0625 C1.9375 8.0625 1.9375 8.0625 -0.5 8.25 C-3.0625 8.0625 -3.0625 8.0625 -5.0625 6.0625 C-4.33395709 0.0884481 -4.33395709 0.0884481 0 0 Z " fill="#D6CBB7" transform="translate(53.0625,269.9375)"/>
<path d="M0 0 C1 1 1 1 1.0625 3.5625 C1.041875 4.366875 1.02125 5.17125 1 6 C-0.98 6.66 -2.96 7.32 -5 8 C-5 6.02 -5 4.04 -5 2 C-5.99 2 -6.98 2 -8 2 C-8.33 3.32 -8.66 4.64 -9 6 C-9 4.35 -9 2.7 -9 1 C-6.01787087 -0.49106457 -3.28390342 -0.11941467 0 0 Z " fill="#CA8DA5" transform="translate(193,132)"/>
<path d="M0 0 C2.31 0.33 4.62 0.66 7 1 C7 2.65 7 4.3 7 6 C3.25 7.125 3.25 7.125 1 6 C0.01 6.33 -0.98 6.66 -2 7 C-2.66 5.02 -3.32 3.04 -4 1 C-2.515 1.99 -2.515 1.99 -1 3 C-0.67 2.01 -0.34 1.02 0 0 Z " fill="#D4A6B9" transform="translate(199,118)"/>
<path d="M0 0 C0.33 0.99 0.66 1.98 1 3 C1.9075 3 2.815 3 3.75 3 C6.16666667 3 8.58333333 3 11 3 C11 5 11 7 11 9 C10.401875 8.814375 9.80375 8.62875 9.1875 8.4375 C6.83591238 7.77906313 6.83591238 7.77906313 4 9 C4 7.35 4 5.7 4 4 C3.01 4 2.02 4 1 4 C0.67 5.32 0.34 6.64 0 8 C0 5.36 0 2.72 0 0 Z " fill="#C27B96" transform="translate(229,116)"/>
<path d="M0 0 C0.66 0 1.32 0 2 0 C2 0.66 2 1.32 2 2 C5.37817425 2.84454356 7.67465243 3.10844919 11 2 C11.33 2.99 11.66 3.98 12 5 C10.68 5 9.36 5 8 5 C7.67 5.66 7.34 6.32 7 7 C6.01 7.33 5.02 7.66 4 8 C4 6.35 4 4.7 4 3 C3.34 3 2.68 3 2 3 C2 4.65 2 6.3 2 8 C1.34 8 0.68 8 0 8 C0 5.36 0 2.72 0 0 Z " fill="#BBA36A" transform="translate(113,270)"/>
<path d="M0 0 C0.66 0 1.32 0 2 0 C2 0.66 2 1.32 2 2 C5.37817425 2.84454356 7.67465243 3.10844919 11 2 C11.33 2.99 11.66 3.98 12 5 C10.68 5 9.36 5 8 5 C7.67 5.66 7.34 6.32 7 7 C6.01 7.33 5.02 7.66 4 8 C4 6.35 4 4.7 4 3 C3.34 3 2.68 3 2 3 C2 4.65 2 6.3 2 8 C1.34 8 0.68 8 0 8 C0 5.36 0 2.72 0 0 Z " fill="#B89F62" transform="translate(56,270)"/>
<path d="M0 0 C2.31 0 4.62 0 7 0 C7.33 0.66 7.66 1.32 8 2 C8.66 1.34 9.32 0.68 10 0 C9.25 4.75 9.25 4.75 7 7 C6.34 6.01 5.68 5.02 5 4 C4.34 4.66 3.68 5.32 3 6 C0.875 5.625 0.875 5.625 -1 5 C-0.67 3.35 -0.34 1.7 0 0 Z " fill="#7DACC2" transform="translate(356,207)"/>
<path d="M0 0 C3.88805114 3.24004262 4.98255954 6.08237111 6 11 C6.125 14.4375 6.125 14.4375 6 17 C5.34 17 4.68 17 4 17 C3.79503906 16.36191406 3.59007812 15.72382813 3.37890625 15.06640625 C3.10949219 14.24011719 2.84007812 13.41382813 2.5625 12.5625 C2.29566406 11.73878906 2.02882812 10.91507813 1.75390625 10.06640625 C1.17844506 8.03780412 1.17844506 8.03780412 0 7 C-0.04092937 4.66702567 -0.04241723 2.33294775 0 0 Z " fill="#DC9DC4" transform="translate(136,149)"/>
<path d="M0 0 C0.33 0.66 0.66 1.32 1 2 C0.34 2 -0.32 2 -1 2 C-1 3.65 -1 5.3 -1 7 C-4.11257569 7 -6.10765685 6.82638376 -9 6 C-9 4.35 -9 2.7 -9 1 C-4.545 0.505 -4.545 0.505 0 0 Z " fill="#CB91A8" transform="translate(204,132)"/>
<path d="M0 0 C4 0 4 0 6 1 C6 1.66 6 2.32 6 3 C6.66 3 7.32 3 8 3 C8 2.01 8 1.02 8 0 C8.66 0 9.32 0 10 0 C8.125 5.75 8.125 5.75 7 8 C6.34 7.67 5.68 7.34 5 7 C5 6.01 5 5.02 5 4 C4.67 4.66 4.34 5.32 4 6 C2.35 6 0.7 6 -1 6 C-1.042721 4.33388095 -1.04063832 2.66617115 -1 1 C-0.67 0.67 -0.34 0.34 0 0 Z " fill="#78A9BF" transform="translate(322,220)"/>
<path d="M0 0 C0.66 0 1.32 0 2 0 C2 2.64 2 5.28 2 8 C1.34 8 0.68 8 0 8 C0 6.68 0 5.36 0 4 C-0.99 4 -1.98 4 -3 4 C-3 5.32 -3 6.64 -3 8 C-3.66 8 -4.32 8 -5 8 C-5 6.68 -5 5.36 -5 4 C-5.99 4 -6.98 4 -8 4 C-8.33 5.32 -8.66 6.64 -9 8 C-9 6.35 -9 4.7 -9 3 C-2.25 2 -2.25 2 0 2 C0 1.34 0 0.68 0 0 Z " fill="#C7859F" transform="translate(192,116)"/>
<path d="M0 0 C0.66 0 1.32 0 2 0 C2 1.32 2 2.64 2 4 C2.66 4 3.32 4 4 4 C4 2.68 4 1.36 4 0 C5.98 0 7.96 0 10 0 C9.01 0.495 9.01 0.495 8 1 C8 2.65 8 4.3 8 6 C5.66705225 6.04241723 3.33297433 6.04092937 1 6 C0 5 0 5 -0.0625 2.4375 C-0.041875 1.633125 -0.02125 0.82875 0 0 Z " fill="#78A9BF" transform="translate(301,207)"/>
<path d="M0 0 C3.35914922 2.23943282 3.81681636 3.26842083 5 7 C5 7.99 5 8.98 5 10 C4.34 10 3.68 10 3 10 C3 13.96 3 17.92 3 22 C2.67 22 2.34 22 2 22 C1.93941406 20.74703125 1.87882813 19.4940625 1.81640625 18.203125 C1.73197744 16.55207276 1.64733061 14.90103165 1.5625 13.25 C1.52318359 12.425 1.48386719 11.6 1.44335938 10.75 C1.40146484 9.95078125 1.35957031 9.1515625 1.31640625 8.328125 C1.27974854 7.5949707 1.24309082 6.86181641 1.20532227 6.10644531 C0.99885215 3.98822395 0.56867914 2.0480544 0 0 Z " fill="#EEEAED" transform="translate(159,152)"/>
<path d="M0 0 C1.65 0.33 3.3 0.66 5 1 C4.67 2.65 4.34 4.3 4 6 C2.35 5.67 0.7 5.34 -1 5 C-0.67 3.35 -0.34 1.7 0 0 Z " fill="#C7B587" transform="translate(101,272)"/>
<path d="M0 0 C0.33 0.66 0.66 1.32 1 2 C1.66 2 2.32 2 3 2 C3.33 1.34 3.66 0.68 4 0 C4 2.64 4 5.28 4 8 C2.68 8 1.36 8 0 8 C-1.125 2.25 -1.125 2.25 0 0 Z " fill="#93BDCE" transform="translate(296,218)"/>
<path d="M0 0 C0.33 0 0.66 0 1 0 C1 2.64 1 5.28 1 8 C-0.65 7.67 -2.3 7.34 -4 7 C-3.67 5.35 -3.34 3.7 -3 2 C-2.01 2 -1.02 2 0 2 C0 1.34 0 0.68 0 0 Z " fill="#7EAEC3" transform="translate(318,218)"/>
<path d="M0 0 C0.33 0 0.66 0 1 0 C1 2.64 1 5.28 1 8 C-0.65 7.67 -2.3 7.34 -4 7 C-3.67 5.35 -3.34 3.7 -3 2 C-2.01 2 -1.02 2 0 2 C0 1.34 0 0.68 0 0 Z " fill="#80AEC3" transform="translate(335,205)"/>
<path d="M0 0 C0.66 0.33 1.32 0.66 2 1 C2.73075648 3.3140622 3.40138258 5.64828869 4 8 C1.69 8 -0.62 8 -3 8 C-1.125 1.125 -1.125 1.125 0 0 Z " fill="#BC6D8A" transform="translate(178,116)"/>
<path d="M0 0 C1.9375 0.3125 1.9375 0.3125 4 1 C4.33 1.99 4.66 2.98 5 4 C4.67 4.66 4.34 5.32 4 6 C2.35 5.67 0.7 5.34 -1 5 C-0.67 3.35 -0.34 1.7 0 0 Z " fill="#C6B485" transform="translate(107,286)"/>
<path d="M0 0 C0.33 0 0.66 0 1 0 C1.05395478 1.62463842 1.09277195 3.24978541 1.125 4.875 C1.14820313 5.77992188 1.17140625 6.68484375 1.1953125 7.6171875 C1 10 1 10 -1 12 C-1.99 12.33 -2.98 12.66 -4 13 C-3.79503906 12.39671875 -3.59007812 11.7934375 -3.37890625 11.171875 C-2.97478516 9.97304687 -2.97478516 9.97304687 -2.5625 8.75 C-2.29566406 7.96109375 -2.02882812 7.1721875 -1.75390625 6.359375 C-1.08045292 4.25178012 -0.50849405 2.15246027 0 0 Z " fill="#DFA1C7" transform="translate(160,168)"/>
<path d="M0 0 C1.67542976 0.28604898 3.34385343 0.61781233 5 1 C4.67 2.65 4.34 4.3 4 6 C2.68 5.67 1.36 5.34 0 5 C-0.5625 3.0625 -0.5625 3.0625 -1 1 C-0.67 0.67 -0.34 0.34 0 0 Z " fill="#74A6BD" transform="translate(340,207)"/>
<path d="M0 0 C0.33 0 0.66 0 1 0 C1.36923077 5.53846154 1.36923077 5.53846154 -0.5 7.875 C-1.2425 8.431875 -1.2425 8.431875 -2 9 C-2.66 7.68 -3.32 6.36 -4 5 C-2.69254251 3.31295807 -1.35827971 1.64639965 0 0 Z " fill="#CE1767" transform="translate(155,134)"/>
<path d="M0 0 C6.625 0.75 6.625 0.75 10 3 C9.67 3.99 9.34 4.98 9 6 C7.35 5.67 5.7 5.34 4 5 C4 3.68 4 2.36 4 1 C2.68 0.67 1.36 0.34 0 0 Z " fill="#D4EEF8" transform="translate(349,253)"/>
<path d="M0 0 C1.98 0.495 1.98 0.495 4 1 C4 2.32 4 3.64 4 5 C2.35 5 0.7 5 -1 5 C-0.67 3.35 -0.34 1.7 0 0 Z " fill="#F6FBFE" transform="translate(348,247)"/>
<path d="M0 0 C0 0.66 0 1.32 0 2 C-1.32 2 -2.64 2 -4 2 C-4.33 2.66 -4.66 3.32 -5 4 C-5.99 4.495 -5.99 4.495 -7 5 C-7 3.35 -7 1.7 -7 0 C-3.86650268 -1.04449911 -3.01031744 -0.93423645 0 0 Z " fill="#BDA66E" transform="translate(68,273)"/>
<path d="M0 0 C1.32 0 2.64 0 4 0 C4 1.65 4 3.3 4 5 C2.68 5.33 1.36 5.66 0 6 C0 4 0 2 0 0 Z " fill="#BF728E" transform="translate(213,119)"/>
<path d="M0 0 C1.32 0 2.64 0 4 0 C4 1.65 4 3.3 4 5 C2.68 5.33 1.36 5.66 0 6 C0 4 0 2 0 0 Z " fill="#C0748F" transform="translate(202,119)"/>
<path d="M0 0 C1.32 0 2.64 0 4 0 C4 1.98 4 3.96 4 6 C2.68 6 1.36 6 0 6 C0.185625 5.38125 0.37125 4.7625 0.5625 4.125 C1.23686176 1.95839822 1.23686176 1.95839822 0 0 Z " fill="#6EA1BA" transform="translate(319,207)"/>
<path d="M0 0 C1.98 0.495 1.98 0.495 4 1 C4 1.99 4 2.98 4 4 C2.35 4.33 0.7 4.66 -1 5 C-0.67 3.35 -0.34 1.7 0 0 Z " fill="#48B6E4" transform="translate(351,263)"/>
<path d="M0 0 C0.99 0.33 1.98 0.66 3 1 C3 2.65 3 4.3 3 6 C1.68 6 0.36 6 -1 6 C-1.042721 4.33388095 -1.04063832 2.66617115 -1 1 C-0.67 0.67 -0.34 0.34 0 0 Z " fill="#6B9FB8" transform="translate(322,220)"/>
<path d="M0 0 C0.99 0.66 1.98 1.32 3 2 C3 3.32 3 4.64 3 6 C1.68 6.33 0.36 6.66 -1 7 C-1 3 -1 3 0 0 Z " fill="#BC6A88" transform="translate(177,132)"/>
<path d="M0 0 C0.99 0.33 1.98 0.66 3 1 C3 3.31 3 5.62 3 8 C2.01 7.67 1.02 7.34 0 7 C0 4.69 0 2.38 0 0 Z " fill="#C6819B" transform="translate(225,117)"/>
<path d="M0 0 C0.33 1.32 0.66 2.64 1 4 C1.66 4 2.32 4 3 4 C3.33 5.32 3.66 6.64 4 8 C2.68 8 1.36 8 0 8 C0 5.36 0 2.72 0 0 Z " fill="#EDEAE0" transform="translate(189,245)"/>
<path d="M0 0 C0.66 0.33 1.32 0.66 2 1 C2 3.31 2 5.62 2 8 C1.01 7.67 0.02 7.34 -1 7 C-1.04254356 5.00045254 -1.04080783 2.99958364 -1 1 C-0.67 0.67 -0.34 0.34 0 0 Z " fill="#C27994" transform="translate(207,131)"/>
<path d="M0 0 C0.99 0.33 1.98 0.66 3 1 C3 1.66 3 2.32 3 3 C4.32 3.66 5.64 4.32 7 5 C4.625 5.125 4.625 5.125 2 5 C1.34 4.34 0.68 3.68 0 3 C0 2.01 0 1.02 0 0 Z " fill="#DEF2FA" transform="translate(341,252)"/>
</svg>
