<?xml version="1.0" encoding="UTF-8"?>
<svg version="1.1" xmlns="http://www.w3.org/2000/svg" width="400" height="400">
<path d="M0 0 C132 0 264 0 400 0 C400 132 400 264 400 400 C268 400 136 400 0 400 C0 268 0 136 0 0 Z " fill="#FAF7D8" transform="translate(0,0)"/>
<path d="M0 0 C-0.01118614 0.94174324 -0.01118614 0.94174324 -0.02259827 1.9025116 C-0.09144017 8.44057136 -0.09748 14.97655637 -0.06713867 21.51489258 C-0.06405749 23.95437851 -0.07696144 26.39393932 -0.10620117 28.83325195 C-0.14548178 32.34208133 -0.12716845 35.84662662 -0.09765625 39.35546875 C-0.13452293 40.99010323 -0.13452293 40.99010323 -0.1721344 42.65776062 C-0.11456224 45.69601456 0.0105305 48.12456789 1 51 C3.73563312 53.4438227 6.61026564 54.68186425 10 56 C11.62118753 57.03634354 13.23028814 58.09257417 14.8125 59.1875 C16.88989155 60.62161912 18.86105237 61.93192841 21.12890625 63.04296875 C23.54537499 64.27894963 25.09193543 66.09193543 27 68 C27.66 68 28.32 68 29 68 C30.70884005 69.62339805 32.37446717 71.29319053 34 73 C34.66 73.66 35.32 74.32 36 75 C36 75.99 36 76.98 36 78 C36.5775 78.28875 37.155 78.5775 37.75 78.875 C39.83333333 79.91666667 41.91666667 80.95833333 44 82 C44 82.99 44 83.98 44 85 C44.99 85.33 45.98 85.66 47 86 C47 86.66 47 87.32 47 88 C47.66 88 48.32 88 49 88 C49 88.99 49 89.98 49 91 C49.99 91.33 50.98 91.66 52 92 C52 92.66 52 93.32 52 94 C52.66 94 53.32 94 54 94 C54 94.66 54 95.32 54 96 C54.66 96 55.32 96 56 96 C56.33 96.99 56.66 97.98 57 99 C57.66 99.33 58.32 99.66 59 100 C61 103 61 103 61 107 C61.598125 107.20625 62.19625 107.4125 62.8125 107.625 C65.84272593 109.52971344 66.5439573 111.77138357 68 115 C68.77581153 116.05794533 68.77581153 116.05794533 69.56729603 117.1372633 C71.56966497 121.13826781 71.40640006 124.57656551 71.36076355 128.99128723 C71.36332682 129.89802443 71.3658901 130.80476162 71.36853105 131.7389757 C71.37347305 134.77774338 71.35696896 137.8160144 71.34057617 140.85473633 C71.33972999 143.03278593 71.34020487 145.21083639 71.34190369 147.3888855 C71.34276541 153.30376483 71.32511081 159.21846213 71.30418181 165.13329911 C71.28544464 171.31392895 71.2836669 177.49456282 71.28010559 183.67521667 C71.27077644 195.38006766 71.24615082 207.08483471 71.21605712 218.78964871 C71.19235861 228.14418494 71.1759852 237.49871216 71.16479492 246.85327148 C71.16399093 247.51879967 71.16318694 248.18432785 71.16235858 248.87002355 C71.15541988 254.65932129 71.14896156 260.44861955 71.14255047 266.2379179 C71.11433041 291.15867482 71.05456655 316.07925461 71 341 C28.1 341 -14.8 341 -59 341 C-59 336 -59 336 -58 335 C-58.185625 334.2575 -58.37125 333.515 -58.5625 332.75 C-59.08432753 329.46994121 -58.33423366 327.98240466 -57 325 C-57 324.01 -57 323.02 -57 322 C-56.484375 321.54625 -55.96875 321.0925 -55.4375 320.625 C-54.963125 320.08875 -54.48875 319.5525 -54 319 C-54.26102415 315.51967799 -55.03397532 313.94903702 -57 311 C-56.2575 310.13375 -56.2575 310.13375 -55.5 309.25 C-53.63019987 306.89599371 -53.63019987 306.89599371 -54 303 C-54.99 303 -55.98 303 -57 303 C-56.67 302.2575 -56.34 301.515 -56 300.75 C-54.42537619 296.41978453 -54.94585512 292.40824224 -56 288 C-56.99 287.34 -57.98 286.68 -59 286 C-58.649375 285.443125 -58.29875 284.88625 -57.9375 284.3125 C-56.763831 281.41744981 -57.33995082 280.0068907 -58 277 C-57.72057545 275.32345271 -57.39171753 273.65391846 -57 272 C-57 271.01 -57 270.02 -57 269 C-57.928125 268.71125 -58.85625 268.4225 -59.8125 268.125 C-63 267 -63 267 -66 265 C-68.81009132 264.79844353 -71.52213692 264.71479914 -74.33317566 264.7215271 C-75.19328493 264.7157347 -76.0533942 264.7099423 -76.93956739 264.70397437 C-79.83238914 264.6869186 -82.72505189 264.68409308 -85.61791992 264.68115234 C-87.68730564 264.67185801 -89.7566876 264.66169009 -91.82606506 264.65071106 C-97.4537991 264.62334116 -103.08150802 264.60824097 -108.70929122 264.59528303 C-114.58701072 264.57968302 -120.46467867 264.55288288 -126.34236145 264.5272522 C-137.47702232 264.48040887 -148.61169284 264.44369167 -159.74640208 264.41057932 C-172.42099026 264.37239713 -185.09552674 264.32297678 -197.77007139 264.27259517 C-223.84667597 264.16919273 -249.92331375 264.0799594 -276 264 C-275.34 265.65 -274.68 267.3 -274 269 C-274.99 269 -275.98 269 -277 269 C-277 269.99 -277 270.98 -277 272 C-276.01 272.33 -275.02 272.66 -274 273 C-275.32 273 -276.64 273 -278 273 C-278 270.69 -278 268.38 -278 266 C-278.66 266 -279.32 266 -280 266 C-280.33 268.64 -280.66 271.28 -281 274 C-283.64 273.67 -286.28 273.34 -289 273 C-289 271.68 -289 270.36 -289 269 C-289.66 269 -290.32 269 -291 269 C-291.495 270.98 -291.495 270.98 -292 273 C-292 271.35 -292 269.7 -292 268 C-289.03 268 -286.06 268 -283 268 C-282.67 266.68 -282.34 265.36 -282 264 C-283.25296875 264.0721875 -284.5059375 264.144375 -285.796875 264.21875 C-287.44791332 264.312559 -289.09895517 264.40630574 -290.75 264.5 C-291.575 264.54769531 -292.4 264.59539062 -293.25 264.64453125 C-294.04921875 264.68964844 -294.8484375 264.73476563 -295.671875 264.78125 C-296.4050293 264.82314453 -297.13818359 264.86503906 -297.89355469 264.90820312 C-299.92733614 264.99683338 -301.96428825 265 -304 265 C-304 263.68 -304 262.36 -304 261 C-299.05 261 -294.1 261 -289 261 C-288.67 259.02 -288.34 257.04 -288 255 C-285.66705225 254.95758277 -283.33297433 254.95907063 -281 255 C-280.67 255.33 -280.34 255.66 -280 256 C-279.01 255.67 -278.02 255.34 -277 255 C-277 256.98 -277 258.96 -277 261 C-275.68 261.33 -274.36 261.66 -273 262 C-273 259.69 -273 257.38 -273 255 C-271.35 255.33 -269.7 255.66 -268 256 C-268.33 257.65 -268.66 259.3 -269 261 C-251.18 261 -233.36 261 -215 261 C-215.33 259.35 -215.66 257.7 -216 256 C-212.60169639 255.22324489 -209.48880949 254.80617725 -206 255 C-205 256 -205 256 -205 261 C-198.73 261 -192.46 261 -186 261 C-186 259.68 -186 258.36 -186 257 C-186.66 257 -187.32 257 -188 257 C-188.33 258.32 -188.66 259.64 -189 261 C-189 259.02 -189 257.04 -189 255 C-185.7 255 -182.4 255 -179 255 C-179 257.31 -179 259.62 -179 262 C-144.02 261.67 -109.04 261.34 -73 261 C-77.62 257.37 -82.24 253.74 -87 250 C-89.49068088 247.77643562 -91.86232004 245.61989496 -94.1875 243.25 C-94.75500977 242.67854248 -95.32251953 242.10708496 -95.90722656 241.51831055 C-102.83335854 234.36059693 -108.48724705 226.26912943 -114 218 C-114.7425 218.309375 -115.485 218.61875 -116.25 218.9375 C-118.5123958 219.81160747 -120.64974079 220.44256673 -123 221 C-125.36741487 216.31688563 -127.71654148 211.62548796 -130.04296875 206.921875 C-130.77523446 205.4513659 -131.52452774 203.98932459 -132.28125 202.53125 C-135.63682981 195.71184587 -136.97974415 188.25224121 -138.57714844 180.87060547 C-138.90621292 179.41489412 -139.29012026 177.97153998 -139.6953125 176.53515625 C-142.02011132 168.26738582 -141 161.09631579 -141 152 C-194.79 152.33 -248.58 152.66 -304 153 C-304 151.68 -304 150.36 -304 149 C-301.66666667 149 -299.33333333 149 -297 149 C-297 146.36 -297 143.72 -297 141 C-294.69 141 -292.38 141 -290 141 C-289.67 141.99 -289.34 142.98 -289 144 C-288.38125 143.835 -287.7625 143.67 -287.125 143.5 C-284.33175494 142.84276587 -281.9136096 143 -279 143 C-279 142.34 -279 141.68 -279 141 C-278.34 141 -277.68 141 -277 141 C-276.505 141.99 -276.505 141.99 -276 143 C-274.02 143 -272.04 143 -270 143 C-270.66 143.33 -271.32 143.66 -272 144 C-272 144.99 -272 145.98 -272 147 C-271.34 147 -270.68 147 -270 147 C-270 147.66 -270 148.32 -270 149 C-227.43 149.33 -184.86 149.66 -141 150 C-141 144.39 -141 138.78 -141 133 C-140.65945523 129.69116074 -140.30000585 126.61122492 -139.6875 123.375 C-139.56955078 122.65183594 -139.45160156 121.92867188 -139.33007812 121.18359375 C-138.48792974 116.40710086 -137.01498086 112.40743834 -135 108 C-134.51867209 106.61192811 -134.05666411 105.21680988 -133.625 103.8125 C-131.44322133 97.11788439 -128.99934845 90.30081112 -125.34375 84.265625 C-123.82995749 82.1523246 -123.82995749 82.1523246 -124 80 C-126.31 78.68 -128.62 77.36 -131 76 C-129.49196809 71.60775406 -127.14146547 68.04235468 -124.4375 64.3125 C-123.99132324 63.69455566 -123.54514648 63.07661133 -123.08544922 62.43994141 C-119.06630646 56.95437391 -114.71231475 51.90481127 -110 47 C-109.10796875 46.04480469 -108.2159375 45.08960938 -107.296875 44.10546875 C-99.63052379 36.12139442 -92.20002872 30.74668773 -83 24 C-154.61 23.67 -226.22 23.34 -300 23 C-300 23.66 -300 24.32 -300 25 C-301.65 24.67 -303.3 24.34 -305 24 C-304.67 22.68 -304.34 21.36 -304 20 C-302.68 20 -301.36 20 -300 20 C-300 20.66 -300 21.32 -300 22 C-271.38286751 22.10323467 -242.7661366 22.14888812 -214.1488142 22.12697029 C-200.85960195 22.11811825 -187.57111585 22.12773813 -174.28198242 22.18164062 C-162.69214745 22.2286028 -151.10289747 22.24009525 -139.51299745 22.2099179 C-133.38236642 22.19516943 -127.2528741 22.19755532 -121.12236595 22.24249649 C-115.33765614 22.28434025 -109.55486444 22.27832577 -103.7701664 22.23747826 C-101.6608435 22.23067769 -99.55138145 22.24053741 -97.44224548 22.26943016 C-82.97475806 22.45443344 -73.18810216 19.75189206 -60.87165129 12.10994792 C-57.07646259 9.85928199 -53.00588521 8.43529193 -48.8125 7.125 C-47.53910767 6.71495728 -47.53910767 6.71495728 -46.23999023 6.29663086 C-39.44085968 4.21639646 -32.56458236 2.77368887 -25.5625 1.5625 C-24.61673096 1.39830566 -23.67096191 1.23411133 -22.6965332 1.06494141 C-15.11723525 -0.10797482 -7.65778299 -0.15837864 0 0 Z M-54 296 C-53 298 -53 298 -53 298 Z M-54 312 C-53.67 312.66 -53.34 313.32 -53 314 C-52.67 313.34 -52.34 312.68 -52 312 C-52.66 312 -53.32 312 -54 312 Z " fill="#FBF8D5" transform="translate(329,59)"/>
<path d="M0 0 C132 0 264 0 400 0 C400 59.07 400 118.14 400 179 C395.55555556 174.55555556 395.55555556 174.55555556 394 171 C392.69371277 167.85474188 392.69371277 167.85474188 390 166 C388 163 388 163 388 159 C387.01 158.67 386.02 158.34 385 158 C385 157.01 385 156.02 385 155 C384.34 155 383.68 155 383 155 C383 154.34 383 153.68 383 153 C382.34 153 381.68 153 381 153 C379.375 151.6875 379.375 151.6875 378 150 C378 149.01 378 148.02 378 147 C377.34 147 376.68 147 376 147 C374.375 145.6875 374.375 145.6875 373 144 C373 143.01 373 142.02 373 141 C372.443125 140.938125 371.88625 140.87625 371.3125 140.8125 C367.51666774 139.47882921 364.78829587 136.57659173 363 133 C362.401875 132.71125 361.80375 132.4225 361.1875 132.125 C359 131 359 131 357.30859375 129.234375 C354.408411 126.42742994 351.24549222 124.32660383 347.875 122.125 C347.2135498 121.68881348 346.55209961 121.25262695 345.87060547 120.80322266 C337.85047541 114.47607863 337.85047541 114.47607863 329 111 C329 93.84 329 76.68 329 59 C302.62033935 61.39044186 302.62033935 61.39044186 277.3125 68.1875 C276.62583252 68.43008545 275.93916504 68.6726709 275.23168945 68.92260742 C271.45174892 70.36409909 267.97462736 71.97286061 264.56620121 74.15446377 C252.63215397 81.56775669 242.49431449 82.24898354 228.69116211 82.02172852 C226.50149135 82.01918399 224.31181294 82.02062626 222.12214661 82.02571106 C216.23009054 82.02827317 210.33971342 81.97569283 204.44804454 81.91254544 C198.27156844 81.85594272 192.09504568 81.85097017 185.91835022 81.84031677 C174.2454459 81.81244313 162.57330827 81.73872349 150.90074021 81.64817137 C137.60199682 81.54726303 124.30334504 81.49801265 111.00430667 81.45291245 C83.6691142 81.35906475 56.33460023 81.20095703 29 81 C29.99 80.01 29.99 80.01 31 79 C31 70.70423449 27.68120757 64.29831451 24 57 C23.25363281 55.47439453 23.25363281 55.47439453 22.4921875 53.91796875 C21.08358518 51.07171755 21.08358518 51.07171755 19.61328125 48.734375 C12.71733698 37.04633386 7.41130076 24.32888829 3.15625 11.46875 C2.45379276 9.36137827 1.69648436 7.26992184 0.84375 5.21875 C-0 3 -0 3 0 0 Z " fill="#FDF9D2" transform="translate(0,0)"/>
<path d="M0 0 C0 27.06 0 54.12 0 82 C-9.405 83.485 -9.405 83.485 -19 85 C-38.05173736 91.59483216 -51.86941595 103.12387971 -61.3125 120.9375 C-68.19982747 135.70678262 -69.95775045 154.28463958 -65.4375 170.125 C-64.68009658 172.10529436 -63.86587207 174.06467283 -63 176 C-62.525625 177.14339844 -62.05125 178.28679687 -61.5625 179.46484375 C-53.54872499 197.20687928 -39.04219902 209.03634424 -21 216 C-14.07 217.32 -7.14 218.64 0 220 C0 240.46 0 260.92 0 282 C-22.15353977 282 -46.22982343 277.51345105 -65 265 C-67.81009132 264.79844353 -70.52213692 264.71479914 -73.33317566 264.7215271 C-74.19328493 264.7157347 -75.0533942 264.7099423 -75.93956739 264.70397437 C-78.83238914 264.6869186 -81.72505189 264.68409308 -84.61791992 264.68115234 C-86.68730564 264.67185801 -88.7566876 264.66169009 -90.82606506 264.65071106 C-96.4537991 264.62334116 -102.08150802 264.60824097 -107.70929122 264.59528303 C-113.58701072 264.57968302 -119.46467867 264.55288288 -125.34236145 264.5272522 C-136.47702232 264.48040887 -147.61169284 264.44369167 -158.74640208 264.41057932 C-171.42099026 264.37239713 -184.09552674 264.32297678 -196.77007139 264.27259517 C-222.84667597 264.16919273 -248.92331375 264.0799594 -275 264 C-274.34 265.65 -273.68 267.3 -273 269 C-273.99 269 -274.98 269 -276 269 C-276 269.99 -276 270.98 -276 272 C-275.01 272.33 -274.02 272.66 -273 273 C-274.32 273 -275.64 273 -277 273 C-277 270.69 -277 268.38 -277 266 C-277.66 266 -278.32 266 -279 266 C-279.33 268.64 -279.66 271.28 -280 274 C-282.64 273.67 -285.28 273.34 -288 273 C-288 271.68 -288 270.36 -288 269 C-288.66 269 -289.32 269 -290 269 C-290.495 270.98 -290.495 270.98 -291 273 C-291 271.35 -291 269.7 -291 268 C-288.03 268 -285.06 268 -282 268 C-281.67 266.68 -281.34 265.36 -281 264 C-282.25296875 264.0721875 -283.5059375 264.144375 -284.796875 264.21875 C-286.44791332 264.312559 -288.09895517 264.40630574 -289.75 264.5 C-290.575 264.54769531 -291.4 264.59539062 -292.25 264.64453125 C-293.04921875 264.68964844 -293.8484375 264.73476563 -294.671875 264.78125 C-295.4050293 264.82314453 -296.13818359 264.86503906 -296.89355469 264.90820312 C-298.92733614 264.99683338 -300.96428825 265 -303 265 C-303 263.68 -303 262.36 -303 261 C-298.05 261 -293.1 261 -288 261 C-287.67 259.02 -287.34 257.04 -287 255 C-284.66705225 254.95758277 -282.33297433 254.95907063 -280 255 C-279.67 255.33 -279.34 255.66 -279 256 C-278.01 255.67 -277.02 255.34 -276 255 C-276 256.98 -276 258.96 -276 261 C-274.68 261.33 -273.36 261.66 -272 262 C-272 259.69 -272 257.38 -272 255 C-270.35 255.33 -268.7 255.66 -267 256 C-267.33 257.65 -267.66 259.3 -268 261 C-250.18 261 -232.36 261 -214 261 C-214.33 259.35 -214.66 257.7 -215 256 C-211.60169639 255.22324489 -208.48880949 254.80617725 -205 255 C-204 256 -204 256 -204 261 C-197.73 261 -191.46 261 -185 261 C-185 259.68 -185 258.36 -185 257 C-185.66 257 -186.32 257 -187 257 C-187.33 258.32 -187.66 259.64 -188 261 C-188 259.02 -188 257.04 -188 255 C-184.7 255 -181.4 255 -178 255 C-178 257.31 -178 259.62 -178 262 C-143.02 261.67 -108.04 261.34 -72 261 C-76.62 257.37 -81.24 253.74 -86 250 C-88.49068088 247.77643562 -90.86232004 245.61989496 -93.1875 243.25 C-93.75500977 242.67854248 -94.32251953 242.10708496 -94.90722656 241.51831055 C-101.83335854 234.36059693 -107.48724705 226.26912943 -113 218 C-113.7425 218.309375 -114.485 218.61875 -115.25 218.9375 C-117.5123958 219.81160747 -119.64974079 220.44256673 -122 221 C-124.36741487 216.31688563 -126.71654148 211.62548796 -129.04296875 206.921875 C-129.77523446 205.4513659 -130.52452774 203.98932459 -131.28125 202.53125 C-134.63682981 195.71184587 -135.97974415 188.25224121 -137.57714844 180.87060547 C-137.90621292 179.41489412 -138.29012026 177.97153998 -138.6953125 176.53515625 C-141.02011132 168.26738582 -140 161.09631579 -140 152 C-193.79 152.33 -247.58 152.66 -303 153 C-303 151.68 -303 150.36 -303 149 C-300.66666667 149 -298.33333333 149 -296 149 C-296 146.36 -296 143.72 -296 141 C-293.69 141 -291.38 141 -289 141 C-288.67 141.99 -288.34 142.98 -288 144 C-287.38125 143.835 -286.7625 143.67 -286.125 143.5 C-283.33175494 142.84276587 -280.9136096 143 -278 143 C-278 142.34 -278 141.68 -278 141 C-277.34 141 -276.68 141 -276 141 C-275.505 141.99 -275.505 141.99 -275 143 C-273.02 143 -271.04 143 -269 143 C-269.66 143.33 -270.32 143.66 -271 144 C-271 144.99 -271 145.98 -271 147 C-270.34 147 -269.68 147 -269 147 C-269 147.66 -269 148.32 -269 149 C-226.43 149.33 -183.86 149.66 -140 150 C-140 144.39 -140 138.78 -140 133 C-139.65945523 129.69116074 -139.30000585 126.61122492 -138.6875 123.375 C-138.56955078 122.65183594 -138.45160156 121.92867188 -138.33007812 121.18359375 C-137.48792974 116.40710086 -136.01498086 112.40743834 -134 108 C-133.51867209 106.61192811 -133.05666411 105.21680988 -132.625 103.8125 C-130.44322133 97.11788439 -127.99934845 90.30081112 -124.34375 84.265625 C-122.82995749 82.1523246 -122.82995749 82.1523246 -123 80 C-125.31 78.68 -127.62 77.36 -130 76 C-128.49196809 71.60775406 -126.14146547 68.04235468 -123.4375 64.3125 C-122.99132324 63.69455566 -122.54514648 63.07661133 -122.08544922 62.43994141 C-118.06630646 56.95437391 -113.71231475 51.90481127 -109 47 C-108.10796875 46.04480469 -107.2159375 45.08960938 -106.296875 44.10546875 C-98.63052379 36.12139442 -91.20002872 30.74668773 -82 24 C-153.61 23.67 -225.22 23.34 -299 23 C-299 23.66 -299 24.32 -299 25 C-300.65 24.67 -302.3 24.34 -304 24 C-303.67 22.68 -303.34 21.36 -303 20 C-301.68 20 -300.36 20 -299 20 C-299 20.66 -299 21.32 -299 22 C-270.38286751 22.10323467 -241.7661366 22.14888812 -213.1488142 22.12697029 C-199.85960195 22.11811825 -186.57111585 22.12773813 -173.28198242 22.18164062 C-161.69214745 22.2286028 -150.10289747 22.24009525 -138.51299745 22.2099179 C-132.38236642 22.19516943 -126.2528741 22.19755532 -120.12236595 22.24249649 C-114.33765614 22.28434025 -108.55486444 22.27832577 -102.7701664 22.23747826 C-100.6608435 22.23067769 -98.55138145 22.24053741 -96.44224548 22.26943016 C-81.97475649 22.45443346 -72.18810349 19.7518899 -59.87165034 12.10994792 C-56.07642589 9.85925964 -52.00587248 8.4354289 -47.8125 7.125 C-46.54019531 6.71495728 -46.54019531 6.71495728 -45.2421875 6.29663086 C-30.33866467 1.7339141 -15.57613415 0 0 0 Z " fill="#01B9E6" transform="translate(328,59)"/>
<path d="M0 0 C72.27 0 144.54 0 219 0 C216.36245488 2.11003609 213.71685084 4.21171414 211.01171875 6.234375 C193.78025257 19.17489886 179.88535425 34.37555667 169 53 C169.763125 53.28875 170.52625 53.5775 171.3125 53.875 C174 55 174 55 177 57 C175.60232672 61.82832589 173.49966433 66.09615073 171.23046875 70.5546875 C162.22407353 88.45311102 160.16924295 107.12286991 159 127 C117.75 127 76.5 127 34 127 C34 125.02 34 123.04 34 121 C33.34 121 32.68 121 32 121 C31.67 122.32 31.34 123.64 31 125 C30.70703125 118.9453125 30.70703125 118.9453125 31 117 C32.485 116.01 32.485 116.01 34 115 C34.99 113.515 34.99 113.515 36 112 C35.01 111.01 35.01 111.01 34 110 C34.66 109.34 35.32 108.68 36 108 C36.495 106.515 36.495 106.515 37 105 C36.01 104.01 36.01 104.01 35 103 C35.33 102.34 35.66 101.68 36 101 C36.66 101 37.32 101 38 101 C38.33 100.34 38.66 99.68 39 99 C39.66 98.34 40.32 97.68 41 97 C41.33 96.34 41.66 95.68 42 95 C42.845625 94.195625 43.69125 93.39125 44.5625 92.5625 C47.34460688 90.22716073 47.34460688 90.22716073 47 87 C45.95723351 81.11143629 44.32612538 75.33252885 42.71875 69.578125 C42.28718447 68.03011822 41.86677213 66.47884391 41.46875 64.921875 C40.48350196 61.14509085 39.04835198 58.29985104 37 55 C31.83801139 46.46638339 27.24728014 37.75327819 22.88476562 28.79003906 C22.04071126 27.08236617 21.15413624 25.39590701 20.265625 23.7109375 C19 21 19 21 19 18 C18.34 18 17.68 18 17 18 C15.68 15.36 14.36 12.72 13 10 C11.68 10 10.36 10 9 10 C9 8.35 9 6.7 9 5 C8.34 5 7.68 5 7 5 C6.67 6.32 6.34 7.64 6 9 C6 7.68 6 6.36 6 5 C5.34 5 4.68 5 4 5 C3.67 6.32 3.34 7.64 3 9 C3 7.35 3 5.7 3 4 C3.804375 3.87625 4.60875 3.7525 5.4375 3.625 C6.283125 3.41875 7.12875 3.2125 8 3 C8.33 2.34 8.66 1.68 9 1 C6.03 1 3.06 1 0 1 C0 0.67 0 0.34 0 0 Z " fill="#F0EDD4" transform="translate(29,82)"/>
<path d="M0 0 C64.02 0 128.04 0 194 0 C194 59.07 194 118.14 194 179 C189.55555556 174.55555556 189.55555556 174.55555556 188 171 C186.69371277 167.85474188 186.69371277 167.85474188 184 166 C182 163 182 163 182 159 C181.01 158.67 180.02 158.34 179 158 C179 157.01 179 156.02 179 155 C178.34 155 177.68 155 177 155 C177 154.34 177 153.68 177 153 C176.34 153 175.68 153 175 153 C173.375 151.6875 173.375 151.6875 172 150 C172 149.01 172 148.02 172 147 C171.34 147 170.68 147 170 147 C168.375 145.6875 168.375 145.6875 167 144 C167 143.01 167 142.02 167 141 C166.443125 140.938125 165.88625 140.87625 165.3125 140.8125 C161.51666774 139.47882921 158.78829587 136.57659173 157 133 C156.401875 132.71125 155.80375 132.4225 155.1875 132.125 C153 131 153 131 151.30859375 129.234375 C148.408411 126.42742994 145.24549222 124.32660383 141.875 122.125 C141.2135498 121.68881348 140.55209961 121.25262695 139.87060547 120.80322266 C131.85047541 114.47607863 131.85047541 114.47607863 123 111 C123 93.84 123 76.68 123 59 C95.67200733 61.39587669 95.67200733 61.39587669 69.75 69.14453125 C66.85274526 70.04580794 65.75477125 70.14193509 63 69 C59.75 67.0625 59.75 67.0625 57 65 C57 64.34 57 63.68 57 63 C56.21625 62.71125 55.4325 62.4225 54.625 62.125 C51.69633158 60.86985639 50.40799482 59.93255959 49.125 57 C47.7636296 54.57978596 46.53453445 54.01381378 44 53 C44 52.34 44 51.68 44 51 C43.278125 50.79375 42.55625 50.5875 41.8125 50.375 C38.02781616 48.52471012 36.47741347 46.39759562 34 43 C34 42.34 34 41.68 34 41 C33.28070313 40.75121094 32.56140625 40.50242188 31.8203125 40.24609375 C28.72034799 38.87644184 26.49042389 37.21002696 23.875 35.0625 C23.02679688 34.37285156 22.17859375 33.68320312 21.3046875 32.97265625 C15.98744698 28.42145886 12.78792121 23.34209436 10.125 16.875 C8.74781064 14.57968441 7.44801496 13.97920598 5 13 C5 11.68 5 10.36 5 9 C4.34 9 3.68 9 3 9 C1.74231289 5.98155093 0.79802815 3.1921126 0 0 Z " fill="#FEFEFC" transform="translate(206,0)"/>
<path d="M0 0 C1.96886046 2.95329069 3.06928341 5.56245546 4.3125 8.875 C4.75464844 10.03902344 5.19679688 11.20304688 5.65234375 12.40234375 C6.50673714 14.68320262 7.35397734 16.96676435 8.19140625 19.25390625 C11.92631951 29.29996006 16.44016792 38.82627707 22 48 C23.40946441 50.63026035 24.69856586 53.31493589 26 56 C26.43957031 56.86109375 26.87914063 57.7221875 27.33203125 58.609375 C30.36316042 64.79392673 31.83548673 70.10539838 32 77 C29.69 77 27.38 77 25 77 C25 77.99 25 78.98 25 80 C29.29 80 33.58 80 38 80 C37.505 81.485 37.505 81.485 37 83 C35.35 83 33.7 83 32 83 C34.07553648 83.5534764 35.84365964 84 38 84 C38 85.65 38 87.3 38 89 C38.928125 88.690625 38.928125 88.690625 39.875 88.375 C40.57625 88.25125 41.2775 88.1275 42 88 C44.8670615 90.8670615 46 92.91591468 46 97 C46.66 97 47.32 97 48 97 C48.21914063 97.51046875 48.43828125 98.0209375 48.6640625 98.546875 C53.88881228 110.52556962 59.81062951 122.1813364 66.88671875 133.17578125 C69.21834646 136.99637824 70.25240499 139.45671019 70 144 C70.66 144.33 71.32 144.66 72 145 C72.78627037 147.54573575 73.45569927 150.03629116 74.0625 152.625 C74.23587891 153.32496094 74.40925781 154.02492187 74.58789062 154.74609375 C75.88749462 160.11380679 77 165.45459801 77 171 C76.34 171 75.68 171 75 171 C74.67 171.66 74.34 172.32 74 173 C73 174 72 175 71 176 C69.16860536 177.93787107 67.61111137 179.8518515 66 182 C66.33 182.99 66.66 183.98 67 185 C66.36971413 186.68076231 65.70211894 188.34795544 65 190 C65 190.99 65 191.98 65 193 C64.34 193.99 63.68 194.98 63 196 C62.01 196 61.02 196 60 196 C60.33 197.32 60.66 198.64 61 200 C61.66 200 62.32 200 63 200 C63 201.98 63 203.96 63 206 C60.36 206 57.72 206 55 206 C56.32 205.67 57.64 205.34 59 205 C59 204.34 59 203.68 59 203 C58.34 203 57.68 203 57 203 C56.67 202.01 56.34 201.02 56 200 C54.68 200 53.36 200 52 200 C52 199.01 52 198.02 52 197 C51.34 197 50.68 197 50 197 C50 197.66 50 198.32 50 199 C48.68 199 47.36 199 46 199 C45.67 199.66 45.34 200.32 45 201 C44.38125 200.814375 43.7625 200.62875 43.125 200.4375 C40.95839822 199.76313824 40.95839822 199.76313824 39 201 C39 199.68 39 198.36 39 197 C38.01 197.33 37.02 197.66 36 198 C33.8125 197.5625 33.8125 197.5625 32 197 C32 199.64 32 202.28 32 205 C32.99 205.33 33.98 205.66 35 206 C31.66666667 206 28.33333333 206 25 206 C25 206.66 25 207.32 25 208 C28.63 208 32.26 208 36 208 C35.01 208.66 34.02 209.32 33 210 C33 210.99 33 211.98 33 213 C33.66 213 34.32 213 35 213 C35.66 212.34 36.32 211.68 37 211 C37.33 211.66 37.66 212.32 38 213 C38.99 213 39.98 213 41 213 C41.66 213.99 42.32 214.98 43 216 C46.56769552 216.73606499 46.56769552 216.73606499 50 217 C50 215.68 50 214.36 50 213 C50.66 213 51.32 213 52 213 C52.33 213.99 52.66 214.98 53 216 C54.11375 215.95875 55.2275 215.9175 56.375 215.875 C60 216 60 216 62 218 C61.34 218.66 60.68 219.32 60 220 C59.566875 221.2065625 59.566875 221.2065625 59.125 222.4375 C57.83975145 225.36501059 56.74695108 226.4184221 54 228 C53.01 228 52.02 228 51 228 C49.97980427 228.9793879 48.97850195 229.97895449 48 231 C47.34 231 46.68 231 46 231 C45.67 231.66 45.34 232.32 45 233 C44.46375 232.814375 43.9275 232.62875 43.375 232.4375 C40.25427684 231.86262994 38.06219198 232.17065634 35 233 C32.77022004 234.97901574 32.77022004 234.97901574 31 237 C30.34 237 29.68 237 29 237 C28.67 237.99 28.34 238.98 28 240 C27.34 240 26.68 240 26 240 C25.67 240.66 25.34 241.32 25 242 C24.34 242 23.68 242 23 242 C22.9175 242.5775 22.835 243.155 22.75 243.75 C21.58302087 247.25093738 19.26813575 249.36593212 16 251 C15.33280556 254.06909445 15 256.85786017 15 260 C14.690625 261.010625 14.38125 262.02125 14.0625 263.0625 C12.72577906 267.56311438 11.89682738 272.29704788 12 277 C12.66 277.66 13.32 278.32 14 279 C13.34 279 12.68 279 12 279 C12.33 279.680625 12.66 280.36125 13 281.0625 C14.5320775 285.56297767 14.49937498 289.50187505 13 294 C13.98357352 296.00812926 14.98308736 298.00854609 16 300 C15.67 300.66 15.34 301.32 15 302 C15.66 302.33 16.32 302.66 17 303 C16.01 304.98 16.01 304.98 15 307 C15.66 307.33 16.32 307.66 17 308 C17.02911321 311.0833134 17.04683682 314.16659125 17.0625 317.25 C17.07087891 318.12269531 17.07925781 318.99539063 17.08789062 319.89453125 C17.09272461 321.16103516 17.09272461 321.16103516 17.09765625 322.453125 C17.10289307 323.22817383 17.10812988 324.00322266 17.11352539 324.80175781 C17 327 17 327 16.43139648 329.15917969 C15.77404269 331.08099942 15.77404269 331.08099942 17 333 C16.0625 335.125 16.0625 335.125 15 337 C15.66 337.33 16.32 337.66 17 338 C17 339.32 17 340.64 17 342 C16.34 342 15.68 342 15 342 C15.13277344 342.61746094 15.26554688 343.23492187 15.40234375 343.87109375 C16.29230456 348.13900799 17.08819632 352.34484303 17.5 356.6875 C18.25563146 363.90378042 20.78009594 369.94815379 23.87890625 376.44921875 C25 379 25 379 25.52734375 381.14453125 C25.97132416 383.31680382 25.97132416 383.31680382 28 386 C27.67 386.66 27.34 387.32 27 388 C27.66 388.33 28.32 388.66 29 389 C28.67 389.99 28.34 390.98 28 392 C29.32 392.66 30.64 393.32 32 394 C32 394.99 32 395.98 32 397 C21.44 397 10.88 397 0 397 C0 265.99 0 134.98 0 0 Z " fill="#FEFEFC" transform="translate(0,3)"/>
<path d="M0 0 C0 27.06 0 54.12 0 82 C-9.405 83.485 -9.405 83.485 -19 85 C-36.49298302 91.05526335 -48.43663958 101.10859607 -59 116 C-64.2049165 114.54746516 -68.21586363 112.17025232 -72.6875 109.25 C-78.04795823 105.77294601 -83.49368859 102.58796198 -89.11987305 99.55761719 C-93.96950861 96.93485929 -98.76340185 94.21379492 -103.5625 91.5 C-104.52607422 90.95730469 -105.48964844 90.41460937 -106.48242188 89.85546875 C-112.71534147 86.33342787 -118.87643407 82.70846256 -125 79 C-126.66629309 77.99937764 -128.33286282 76.9992154 -130 76 C-128.49196809 71.60775406 -126.14146547 68.04235468 -123.4375 64.3125 C-122.99132324 63.69455566 -122.54514648 63.07661133 -122.08544922 62.43994141 C-118.06630646 56.95437391 -113.71231475 51.90481127 -109 47 C-108.10796875 46.04480469 -107.2159375 45.08960938 -106.296875 44.10546875 C-98.63052379 36.12139442 -91.20002872 30.74668773 -82 24 C-153.61 23.67 -225.22 23.34 -299 23 C-299 23.66 -299 24.32 -299 25 C-300.65 24.67 -302.3 24.34 -304 24 C-303.67 22.68 -303.34 21.36 -303 20 C-301.68 20 -300.36 20 -299 20 C-299 20.66 -299 21.32 -299 22 C-270.38286751 22.10323467 -241.7661366 22.14888812 -213.1488142 22.12697029 C-199.85960195 22.11811825 -186.57111585 22.12773813 -173.28198242 22.18164062 C-161.69214745 22.2286028 -150.10289747 22.24009525 -138.51299745 22.2099179 C-132.38236642 22.19516943 -126.2528741 22.19755532 -120.12236595 22.24249649 C-114.33765614 22.28434025 -108.55486444 22.27832577 -102.7701664 22.23747826 C-100.6608435 22.23067769 -98.55138145 22.24053741 -96.44224548 22.26943016 C-81.97475649 22.45443346 -72.18810349 19.7518899 -59.87165034 12.10994792 C-56.07642589 9.85925964 -52.00587248 8.4354289 -47.8125 7.125 C-46.54019531 6.71495728 -46.54019531 6.71495728 -45.2421875 6.29663086 C-30.33866467 1.7339141 -15.57613415 0 0 0 Z " fill="#01F96A" transform="translate(328,59)"/>
<path d="M0 0 C2.32868576 2.28324799 4.29458844 4.63669296 6.25 7.25 C12.54169961 15.35056324 19.06026974 20.89333217 28 26 C28.79664063 26.46535156 29.59328125 26.93070312 30.4140625 27.41015625 C40.03210676 32.40237922 48.69225214 32.84614327 60 35 C60 55.46 60 75.92 60 97 C37.84646023 97 13.77017657 92.51345105 -5 80 C-7.81009132 79.79844353 -10.52213692 79.71479914 -13.33317566 79.7215271 C-14.62333956 79.7128385 -14.62333956 79.7128385 -15.93956739 79.70397437 C-18.83238914 79.6869186 -21.72505189 79.68409308 -24.61791992 79.68115234 C-26.68730564 79.67185801 -28.7566876 79.66169009 -30.82606506 79.65071106 C-36.4537991 79.62334116 -42.08150802 79.60824097 -47.70929122 79.59528303 C-53.58701072 79.57968302 -59.46467867 79.55288288 -65.34236145 79.5272522 C-76.47702232 79.48040887 -87.61169284 79.44369167 -98.74640208 79.41057932 C-111.42099026 79.37239713 -124.09552674 79.32297678 -136.77007139 79.27259517 C-162.84667597 79.16919273 -188.92331375 79.0799594 -215 79 C-214.34 80.65 -213.68 82.3 -213 84 C-213.99 84 -214.98 84 -216 84 C-216 84.99 -216 85.98 -216 87 C-214.515 87.495 -214.515 87.495 -213 88 C-214.32 88 -215.64 88 -217 88 C-217 85.69 -217 83.38 -217 81 C-217.66 81 -218.32 81 -219 81 C-219.33 83.64 -219.66 86.28 -220 89 C-222.64 88.67 -225.28 88.34 -228 88 C-228 86.68 -228 85.36 -228 84 C-228.66 84 -229.32 84 -230 84 C-230.33 85.32 -230.66 86.64 -231 88 C-231 86.35 -231 84.7 -231 83 C-228.03 83 -225.06 83 -222 83 C-221.67 81.68 -221.34 80.36 -221 79 C-222.25296875 79.0721875 -223.5059375 79.144375 -224.796875 79.21875 C-226.44791332 79.312559 -228.09895517 79.40630574 -229.75 79.5 C-230.575 79.54769531 -231.4 79.59539062 -232.25 79.64453125 C-233.44882813 79.71220703 -233.44882813 79.71220703 -234.671875 79.78125 C-235.4050293 79.82314453 -236.13818359 79.86503906 -236.89355469 79.90820312 C-238.92733614 79.99683338 -240.96428825 80 -243 80 C-243 78.68 -243 77.36 -243 76 C-238.05 76 -233.1 76 -228 76 C-227.67 74.02 -227.34 72.04 -227 70 C-224.66705225 69.95758277 -222.33297433 69.95907063 -220 70 C-219.505 70.495 -219.505 70.495 -219 71 C-217.515 70.505 -217.515 70.505 -216 70 C-216 71.98 -216 73.96 -216 76 C-214.68 76.33 -213.36 76.66 -212 77 C-212 74.69 -212 72.38 -212 70 C-210.35 70.33 -208.7 70.66 -207 71 C-207.33 72.65 -207.66 74.3 -208 76 C-190.18 76 -172.36 76 -154 76 C-154.33 74.35 -154.66 72.7 -155 71 C-151.60169639 70.22324489 -148.48880949 69.80617725 -145 70 C-144 71 -144 71 -144 76 C-137.73 76 -131.46 76 -125 76 C-125 74.68 -125 73.36 -125 72 C-125.66 72 -126.32 72 -127 72 C-127.495 73.98 -127.495 73.98 -128 76 C-128 74.02 -128 72.04 -128 70 C-124.7 70 -121.4 70 -118 70 C-118 72.31 -118 74.62 -118 77 C-83.02 76.67 -48.04 76.34 -12 76 C-16.62 72.37 -21.24 68.74 -26 65 C-28.49068061 62.77643586 -30.8626806 60.62026644 -33.1875 58.25 C-33.75500977 57.67709229 -34.32251953 57.10418457 -34.90722656 56.51391602 C-42.03958278 49.1291135 -49.3410516 40.67316476 -53 31 C-35.41394996 20.52360219 -17.75727309 10.18369981 0 0 Z " fill="#5560A7" transform="translate(268,244)"/>
<path d="M0 0 C0.83917969 0.37511719 1.67835938 0.75023437 2.54296875 1.13671875 C16.49597717 7.07385095 31.74227543 11.60694386 47 12 C46.67 12.99 46.34 13.98 46 15 C46.99 15.99 47.98 16.98 49 18 C48.34 18.66 47.68 19.32 47 20 C47.66 20.66 48.32 21.32 49 22 C49 23.32 49 24.64 49 26 C48.34 26.66 47.68 27.32 47 28 C47.99 29.32 48.98 30.64 50 32 C49.01 32.99 48.02 33.98 47 35 C47.33 35.99 47.66 36.98 48 38 C47.40206327 40.35188447 46.74118205 42.68925595 46 45 C46.99 45.495 46.99 45.495 48 46 C47.34 46 46.68 46 46 46 C46 47.093125 46 48.18625 46 49.3125 C46 59.22222222 46 59.22222222 45 64 C44.66055205 65.99897128 44.32578384 67.99875639 44 70 C44.99 70.495 44.99 70.495 46 71 C43.62609164 72.18695418 42.19755049 72.12075833 39.55029297 72.11352539 C38.62948944 72.11344986 37.70868591 72.11337433 36.75997925 72.11329651 C35.26617233 72.10555458 35.26617233 72.10555458 33.7421875 72.09765625 C32.72399933 72.0962413 31.70581116 72.09482635 30.6567688 72.09336853 C27.39614965 72.087759 24.13559849 72.07520488 20.875 72.0625 C18.66796974 72.05748623 16.46093841 72.05292311 14.25390625 72.04882812 C8.83591419 72.03778648 3.41796195 72.02103905 -2 72 C-2.042721 70.33388095 -2.04063832 68.66617115 -2 67 C-1.505 66.505 -1.505 66.505 -1 66 C-1.185625 65.2575 -1.37125 64.515 -1.5625 63.75 C-2.08432753 60.46994121 -1.33423366 58.98240466 0 56 C0 55.01 0 54.02 0 53 C0.7734375 52.319375 0.7734375 52.319375 1.5625 51.625 C2.036875 51.08875 2.51125 50.5525 3 50 C2.73897585 46.51967799 1.96602468 44.94903702 0 42 C0.495 41.4225 0.99 40.845 1.5 40.25 C3.36980013 37.89599371 3.36980013 37.89599371 3 34 C2.01 34 1.02 34 0 34 C0.33 33.2575 0.66 32.515 1 31.75 C2.57462381 27.41978453 2.05414488 23.40824224 1 19 C0.01 18.34 -0.98 17.68 -2 17 C-1.649375 16.443125 -1.29875 15.88625 -0.9375 15.3125 C0.236169 12.41744981 -0.33995082 11.0068907 -1 8 C-0.72057545 6.32345271 -0.39171753 4.65391846 0 3 C0 2.01 0 1.02 0 0 Z M3 27 C4 29 4 29 4 29 Z M3 43 C3.33 43.66 3.66 44.32 4 45 C4.33 44.34 4.66 43.68 5 43 C4.34 43 3.68 43 3 43 Z " fill="#FEF4B2" transform="translate(272,328)"/>
<path d="M0 0 C1.32 0 2.64 0 4 0 C4 0.99 4 1.98 4 3 C7.19902639 3.08886184 9.92677456 2.91058531 13 2 C13 2.99 13 3.98 13 5 C13.66 5 14.32 5 15 5 C15.33 3.68 15.66 2.36 16 1 C16.66 1 17.32 1 18 1 C18 1.66 18 2.32 18 3 C20.64 3 23.28 3 26 3 C26.5625 4.9375 26.5625 4.9375 27 7 C26.67 7.33 26.34 7.66 26 8 C27.65 8 29.3 8 31 8 C31 6.68 31 5.36 31 4 C30.34 4 29.68 4 29 4 C28.67 5.32 28.34 6.64 28 8 C28 6.35 28 4.7 28 3 C32.33333333 3 36.66666667 3 41 3 C41 4.98 41 6.96 41 9 C42.32 9 43.64 9 45 9 C44.505 6.03 44.505 6.03 44 3 C46.64 3 49.28 3 52 3 C52 2.34 52 1.68 52 1 C54.31 1 56.62 1 59 1 C59 1.66 59 2.32 59 3 C60.32 3.33 61.64 3.66 63 4 C63 5.32 63 6.64 63 8 C63.99 8.66 64.98 9.32 66 10 C23.76 10 -18.48 10 -62 10 C-61.01 9.67 -60.02 9.34 -59 9 C-59 6.36 -59 3.72 -59 1 C-58.67 1 -58.34 1 -58 1 C-58 2.98 -58 4.96 -58 7 C-57.01 7 -56.02 7 -55 7 C-54.67 5.68 -54.34 4.36 -54 3 C-50.37 3 -46.74 3 -43 3 C-43 3.66 -43 4.32 -43 5 C-42.34 5 -41.68 5 -41 5 C-41 4.34 -41 3.68 -41 3 C-39.02 3 -37.04 3 -35 3 C-35 5 -35 7 -35 9 C-33.35 9 -31.7 9 -30 9 C-30.66 7.02 -31.32 5.04 -32 3 C-27.66666667 3 -23.33333333 3 -19 3 C-19 4.32 -19 5.64 -19 7 C-18.34 7 -17.68 7 -17 7 C-16.67 5.68 -16.34 4.36 -16 3 C-16 4.65 -16 6.3 -16 8 C-13.36 8 -10.72 8 -8 8 C-9.32 8 -10.64 8 -12 8 C-12.495 5.525 -12.495 5.525 -13 3 C-9 3 -5 3 -1 3 C-0.67 2.01 -0.34 1.02 0 0 Z " fill="#CEEBB9" transform="translate(91,71)"/>
<path d="M0 0 C2.33294775 -0.04241723 4.66702567 -0.04092937 7 0 C7.33 0.33 7.66 0.66 8 1 C8.99 0.67 9.98 0.34 11 0 C11 1.98 11 3.96 11 6 C12.32 6.33 13.64 6.66 15 7 C15 4.69 15 2.38 15 0 C17.475 0.495 17.475 0.495 20 1 C19.67 2.65 19.34 4.3 19 6 C36.82 6 54.64 6 73 6 C72.505 3.525 72.505 3.525 72 1 C75.39830361 0.22324489 78.51119051 -0.19382275 82 0 C83 1 83 1 83 6 C89.27 6 95.54 6 102 6 C102 4.68 102 3.36 102 2 C101.34 2 100.68 2 100 2 C99.67 3.32 99.34 4.64 99 6 C99 4.02 99 2.04 99 0 C102.3 0 105.6 0 109 0 C109 2.31 109 4.62 109 7 C144.97 6.67 180.94 6.34 218 6 C218 6.66 218 7.32 218 8 C201.85425825 8.17586676 185.70842449 8.34179365 169.5625 8.5 C168.35091343 8.51187725 167.13932686 8.5237545 165.89102554 8.53599167 C128.48935619 8.89985414 91.0909475 9.09274028 53.6875 9.0625 C52.08759657 9.06121597 52.08759657 9.06121597 50.45537186 9.05990601 C37.63689608 9.04882627 24.81844696 9.02924936 12 9 C12.66 10.65 13.32 12.3 14 14 C13.01 14 12.02 14 11 14 C11 14.99 11 15.98 11 17 C11.99 17.33 12.98 17.66 14 18 C12.68 18 11.36 18 10 18 C10 15.69 10 13.38 10 11 C9.34 11 8.68 11 8 11 C7.67 13.64 7.34 16.28 7 19 C4.36 18.67 1.72 18.34 -1 18 C-1 16.68 -1 15.36 -1 14 C-1.66 14 -2.32 14 -3 14 C-3.33 15.32 -3.66 16.64 -4 18 C-4 16.35 -4 14.7 -4 13 C-1.03 13 1.94 13 5 13 C5.33 11.68 5.66 10.36 6 9 C4.74703125 9.0721875 3.4940625 9.144375 2.203125 9.21875 C0.55208668 9.312559 -1.09895517 9.40630574 -2.75 9.5 C-3.9875 9.57154297 -3.9875 9.57154297 -5.25 9.64453125 C-6.04921875 9.68964844 -6.8484375 9.73476563 -7.671875 9.78125 C-8.4050293 9.82314453 -9.13818359 9.86503906 -9.89355469 9.90820312 C-11.92733614 9.99683338 -13.96428825 10 -16 10 C-16 8.68 -16 7.36 -16 6 C-11.05 6 -6.1 6 -1 6 C-0.67 4.02 -0.34 2.04 0 0 Z " fill="#878DAF" transform="translate(41,314)"/>
<path d="M0 0 C72.27 0 144.54 0 219 0 C219 0.33 219 0.66 219 1 C218.40308885 1.00423194 217.80617769 1.00846388 217.19117832 1.01282406 C202.68682264 1.11599581 188.18251536 1.22461307 173.6782465 1.33933926 C166.66417695 1.39468709 159.65010232 1.44817159 152.63598633 1.49731445 C145.87328066 1.54470105 139.11063303 1.59722072 132.34799004 1.65294075 C129.76149229 1.67339935 127.17498011 1.69210648 124.58845711 1.70907402 C120.97957232 1.73304069 117.37078799 1.76310547 113.76196289 1.79467773 C112.1403273 1.80331093 112.1403273 1.80331093 110.4859314 1.81211853 C109.50851486 1.82190735 108.53109833 1.83169617 107.52406311 1.84178162 C106.66956101 1.84823417 105.81505892 1.85468672 104.93466282 1.8613348 C102.99348793 1.78826343 102.99348793 1.78826343 102 3 C103.65 3.66 105.3 4.32 107 5 C106.67 6.65 106.34 8.3 106 10 C105.01604248 9.99214478 105.01604248 9.99214478 104.01220703 9.98413086 C101.04981437 9.96338728 98.08743697 9.95034824 95.125 9.9375 C94.09246094 9.92912109 93.05992188 9.92074219 91.99609375 9.91210938 C91.00996094 9.90888672 90.02382812 9.90566406 89.0078125 9.90234375 C88.09660645 9.89710693 87.18540039 9.89187012 86.24658203 9.88647461 C83.96312491 9.85114435 83.96312491 9.85114435 82 11 C81.01 8.03 81.01 8.03 80 5 C79.34 6.65 78.68 8.3 78 10 C76.35 10 74.7 10 73 10 C70.875 4.375 70.875 4.375 72 1 C54.51 1.33 37.02 1.66 19 2 C18.67 2.66 18.34 3.32 18 4 C19.32 4.33 20.64 4.66 22 5 C21.67 6.65 21.34 8.3 21 10 C20.278125 9.814375 19.55625 9.62875 18.8125 9.4375 C15.8527768 8.97709861 13.88369435 9.29856083 11 10 C10.34 10 9.68 10 9 10 C9 8.35 9 6.7 9 5 C8.34 5 7.68 5 7 5 C6.67 6.32 6.34 7.64 6 9 C6 7.68 6 6.36 6 5 C5.34 5 4.68 5 4 5 C3.67 6.32 3.34 7.64 3 9 C3 7.35 3 5.7 3 4 C3.804375 3.87625 4.60875 3.7525 5.4375 3.625 C6.283125 3.41875 7.12875 3.2125 8 3 C8.33 2.34 8.66 1.68 9 1 C6.03 1 3.06 1 0 1 C0 0.67 0 0.34 0 0 Z " fill="#C2F8BA" transform="translate(29,82)"/>
<path d="M0 0 C2.31 0 4.62 0 7 0 C7.33 0.99 7.66 1.98 8 3 C8.61875 2.835 9.2375 2.67 9.875 2.5 C12.66824506 1.84276587 15.0863904 2 18 2 C18 1.34 18 0.68 18 0 C18.66 0 19.32 0 20 0 C20.33 0.66 20.66 1.32 21 2 C22.98 2 24.96 2 27 2 C26.34 2.33 25.68 2.66 25 3 C25 3.99 25 4.98 25 6 C25.66 6 26.32 6 27 6 C27 6.66 27 7.32 27 8 C69.24 8.33 111.48 8.66 155 9 C155 9.66 155 10.32 155 11 C74.81 11.495 74.81 11.495 -7 12 C-7 10.68 -7 9.36 -7 8 C-4.66666667 8 -2.33333333 8 0 8 C0 5.36 0 2.72 0 0 Z " fill="#4ECCE9" transform="translate(32,200)"/>
<path d="M0 0 C1.12535156 0.00580078 1.12535156 0.00580078 2.2734375 0.01171875 C3.02367187 0.00785156 3.77390625 0.00398438 4.546875 0 C10.14682697 0.01010822 10.14682697 0.01010822 11.2734375 1.13671875 C11.37326808 3.12428903 11.40424503 5.11539395 11.40625 7.10546875 C11.40818359 8.92111328 11.40818359 8.92111328 11.41015625 10.7734375 C11.40628906 12.04832031 11.40242188 13.32320312 11.3984375 14.63671875 C11.40423828 16.54904297 11.40423828 16.54904297 11.41015625 18.5 C11.40886719 19.71042969 11.40757812 20.92085937 11.40625 22.16796875 C11.40512207 23.28751953 11.40399414 24.40707031 11.40283203 25.56054688 C11.2734375 28.13671875 11.2734375 28.13671875 10.2734375 29.13671875 C7.57688896 29.20991496 4.90652292 29.22914412 2.2109375 29.19921875 C1.45232422 29.19470703 0.69371094 29.19019531 -0.08789062 29.18554688 C-1.96748121 29.17372555 -3.84703149 29.15578953 -5.7265625 29.13671875 C-7.07704289 26.43575798 -6.85619827 24.30945358 -6.859375 21.2890625 C-6.86066406 20.12697266 -6.86195313 18.96488281 -6.86328125 17.76757812 C-6.85941406 16.54876953 -6.85554688 15.32996094 -6.8515625 14.07421875 C-6.85542969 12.85154297 -6.85929687 11.62886719 -6.86328125 10.36914062 C-6.86199219 9.20833984 -6.86070312 8.04753906 -6.859375 6.8515625 C-6.85824707 5.780271 -6.85711914 4.70897949 -6.85595703 3.60522461 C-6.61093679 -1.0691144 -4.09058666 0.00738373 0 0 Z " fill="#F1FEF7" transform="translate(272.7265625,102.86328125)"/>
<path d="M0 0 C2.84823003 0.40689 3.8941375 0.89072258 5.9375 3 C8.30854261 5.29919283 9.77231982 5.64136887 13 6 C13 6.99 13 7.98 13 9 C12.34 9 11.68 9 11 9 C11.33 12.63 11.66 16.26 12 20 C9.94921875 20.42317708 7.8984375 20.84635417 5.84765625 21.26953125 C4.93306641 21.63111328 4.93306641 21.63111328 4 22 C3.67 22.99 3.34 23.98 3 25 C1.68 24.67 0.36 24.34 -1 24 C-1 23.34 -1 22.68 -1 22 C-3.97 21.01 -6.94 20.02 -10 19 C-9.34 15.7 -8.68 12.4 -8 9 C-8.66 9 -9.32 9 -10 9 C-10 8.01 -10 7.02 -10 6 C-8.3603125 5.62875 -8.3603125 5.62875 -6.6875 5.25 C-2.94091591 3.97997149 -1.89404734 3.34243648 0 0 Z " fill="#C9F1FB" transform="translate(225,197)"/>
<path d="M0 0 C4.29 0 8.58 0 13 0 C13 6.27 13 12.54 13 19 C8.71 19 4.42 19 0 19 C0 12.73 0 6.46 0 0 Z " fill="#0CFA6F" transform="translate(269,108)"/>
<path d="M0 0 C2.31 0 4.62 0 7 0 C7 0.66 7 1.32 7 2 C8.32 2.33 9.64 2.66 11 3 C11 4.32 11 5.64 11 7 C11.99 7.66 12.98 8.32 14 9 C8.05520371 9.07401579 2.11067407 9.12853813 -3.83447266 9.16479492 C-5.85795766 9.17990526 -7.8814098 9.20039437 -9.90478516 9.22631836 C-12.80900165 9.26260328 -15.71278615 9.27970355 -18.6171875 9.29296875 C-19.52556366 9.30845261 -20.43393982 9.32393646 -21.36984253 9.33988953 C-22.63092331 9.34022942 -22.63092331 9.34022942 -23.91748047 9.34057617 C-25.03000687 9.35056892 -25.03000687 9.35056892 -26.16500854 9.36076355 C-26.77055573 9.24171158 -27.37610291 9.12265961 -28 9 C-30 6 -30 6 -29.625 3.8125 C-29.41875 3.214375 -29.2125 2.61625 -29 2 C-27.02 2.495 -27.02 2.495 -25 3 C-25.33 4.32 -25.66 5.64 -26 7 C-24.35 7 -22.7 7 -21 7 C-21 5.68 -21 4.36 -21 3 C-21.66 3 -22.32 3 -23 3 C-23.33 4.32 -23.66 5.64 -24 7 C-24 5.35 -24 3.7 -24 2 C-19.66666667 2 -15.33333333 2 -11 2 C-11 3.98 -11 5.96 -11 8 C-9.68 8 -8.36 8 -7 8 C-7.33 6.02 -7.66 4.04 -8 2 C-5.36 2 -2.72 2 0 2 C0 1.34 0 0.68 0 0 Z " fill="#DBE5AD" transform="translate(143,72)"/>
<path d="M0 0 C1.32 0 2.64 0 4 0 C4 0.99 4 1.98 4 3 C7.19902639 3.08886184 9.92677456 2.91058531 13 2 C13 2.99 13 3.98 13 5 C13.66 5 14.32 5 15 5 C15.33 3.68 15.66 2.36 16 1 C16.66 1 17.32 1 18 1 C18 1.66 18 2.32 18 3 C18.61875 3.04125 19.2375 3.0825 19.875 3.125 C20.57625 3.41375 21.2775 3.7025 22 4 C22.73302614 5.97664289 23.40456033 7.97765086 24 10 C19.62512669 10.08738991 15.25047922 10.140524 10.875 10.1875 C9.6375 10.21263672 8.4 10.23777344 7.125 10.26367188 C5.92617187 10.27333984 4.72734375 10.28300781 3.4921875 10.29296875 C2.39245605 10.3086792 1.29272461 10.32438965 0.15966797 10.34057617 C-3.44378859 9.95216465 -5.79893184 8.6331235 -9 7 C-9.99 7.33 -10.98 7.66 -12 8 C-12.33 6.35 -12.66 4.7 -13 3 C-9 3 -5 3 -1 3 C-0.67 2.01 -0.34 1.02 0 0 Z " fill="#E6F0B3" transform="translate(91,71)"/>
<path d="M0 0 C1.74023438 0.00966797 1.74023438 0.00966797 3.515625 0.01953125 C4.7221875 0.03628906 5.92875 0.05304688 7.171875 0.0703125 C9.00492188 0.08384766 9.00492188 0.08384766 10.875 0.09765625 C13.89082282 0.12121737 16.90624992 0.15411544 19.921875 0.1953125 C20.251875 2.1753125 20.581875 4.1553125 20.921875 6.1953125 C19.931875 5.8653125 18.941875 5.5353125 17.921875 5.1953125 C17.921875 6.1853125 17.921875 7.1753125 17.921875 8.1953125 C15.611875 8.5253125 13.301875 8.8553125 10.921875 9.1953125 C10.591875 7.8753125 10.261875 6.5553125 9.921875 5.1953125 C9.261875 5.1953125 8.601875 5.1953125 7.921875 5.1953125 C7.921875 6.5153125 7.921875 7.8353125 7.921875 9.1953125 C4.951875 9.1953125 1.981875 9.1953125 -1.078125 9.1953125 C-1.078125 7.8753125 -1.078125 6.5553125 -1.078125 5.1953125 C-2.068125 5.1953125 -3.058125 5.1953125 -4.078125 5.1953125 C-4.408125 6.5153125 -4.738125 7.8353125 -5.078125 9.1953125 C-5.738125 9.1953125 -6.398125 9.1953125 -7.078125 9.1953125 C-7.078125 7.8753125 -7.078125 6.5553125 -7.078125 5.1953125 C-7.738125 5.1953125 -8.398125 5.1953125 -9.078125 5.1953125 C-9.408125 6.5153125 -9.738125 7.8353125 -10.078125 9.1953125 C-10.078125 6.8853125 -10.078125 4.5753125 -10.078125 2.1953125 C-6.64444644 0.10178274 -3.98448907 -0.03906362 0 0 Z " fill="#D7E1E3" transform="translate(42.078125,210.8046875)"/>
<path d="M0 0 C2.31 0 4.62 0 7 0 C7.33 0.99 7.66 1.98 8 3 C8.61875 2.835 9.2375 2.67 9.875 2.5 C12.66824506 1.84276587 15.0863904 2 18 2 C18 1.34 18 0.68 18 0 C18.66 0 19.32 0 20 0 C20.33 0.66 20.66 1.32 21 2 C22.98 2 24.96 2 27 2 C26.01 2.495 26.01 2.495 25 3 C25 3.99 25 4.98 25 6 C25.66 6 26.32 6 27 6 C27 6.66 27 7.32 27 8 C24.04502142 8.85031102 21.41081128 9.12847103 18.33984375 9.1328125 C17.0259668 9.13474609 17.0259668 9.13474609 15.68554688 9.13671875 C14.77869141 9.13285156 13.87183594 9.12898437 12.9375 9.125 C12.02677734 9.12886719 11.11605469 9.13273438 10.17773438 9.13671875 C9.30310547 9.13542969 8.42847656 9.13414062 7.52734375 9.1328125 C6.73062256 9.13168457 5.93390137 9.13055664 5.11303711 9.12939453 C3 9 3 9 0 8 C0 5.36 0 2.72 0 0 Z " fill="#EEF2F2" transform="translate(32,200)"/>
<path d="M0 0 C3.64090465 0.5182764 6.4446689 2.26184657 9.5859375 4.09765625 C10.67551758 4.73082764 11.76509766 5.36399902 12.88769531 6.01635742 C14.05019235 6.69829903 15.21262615 7.38034843 16.375 8.0625 C17.55797934 8.75220473 18.74124831 9.44141292 19.92480469 10.13012695 C22.24286108 11.47926507 24.55975019 12.83033131 26.87597656 14.18261719 C31.64897745 16.95928323 36.45495302 19.67604218 41.265625 22.38671875 C44.2604725 24.15367878 47.12367461 26.04699208 50 28 C49.01 28.495 49.01 28.495 48 29 C46.28271484 28.41430664 46.28271484 28.41430664 44.2109375 27.41015625 C43.44233398 27.04196777 42.67373047 26.6737793 41.88183594 26.29443359 C41.05458008 25.88789551 40.22732422 25.48135742 39.375 25.0625 C38.52196289 24.65080566 37.66892578 24.23911133 36.79003906 23.81494141 C30.77063901 20.89925953 24.78660854 17.91266695 18.81591797 14.89868164 C11.94998597 11.44307879 4.98310384 8.21062245 -2 5 C-1.125 1.125 -1.125 1.125 0 0 Z " fill="#04A4CF" transform="translate(206,140)"/>
<path d="M0 0 C4.95 0 9.9 0 15 0 C14.67 0.66 14.34 1.32 14 2 C15.65 2.66 17.3 3.32 19 4 C18.67 5.65 18.34 7.3 18 9 C17.01604248 8.99214478 17.01604248 8.99214478 16.01220703 8.98413086 C13.04981437 8.96338728 10.08743697 8.95034824 7.125 8.9375 C6.09246094 8.92912109 5.05992188 8.92074219 3.99609375 8.91210938 C3.00996094 8.90888672 2.02382812 8.90566406 1.0078125 8.90234375 C0.09660645 8.89710693 -0.81459961 8.89187012 -1.75341797 8.88647461 C-4.03687509 8.85114435 -4.03687509 8.85114435 -6 10 C-6 7.69 -6 5.38 -6 3 C-4.35 3 -2.7 3 -1 3 C-0.67 2.01 -0.34 1.02 0 0 Z " fill="#EAE6B3" transform="translate(117,83)"/>
<path d="M0 0 C1.19109375 -0.00386719 1.19109375 -0.00386719 2.40625 -0.0078125 C4.5 0.125 4.5 0.125 6.5 1.125 C6.542721 2.79111905 6.54063832 4.45882885 6.5 6.125 C5.5 7.125 5.5 7.125 3.21484375 7.22265625 C1.84005859 7.20525391 1.84005859 7.20525391 0.4375 7.1875 C-0.48160156 7.17847656 -1.40070313 7.16945313 -2.34765625 7.16015625 C-3.05792969 7.14855469 -3.76820313 7.13695312 -4.5 7.125 C-4.5 7.785 -4.5 8.445 -4.5 9.125 C0.945 8.63 0.945 8.63 6.5 8.125 C6.17 9.115 5.84 10.105 5.5 11.125 C1.045 11.62 1.045 11.62 -3.5 12.125 C-0.2 12.125 3.1 12.125 6.5 12.125 C5.84 13.445 5.18 14.765 4.5 16.125 C3.04207116 16.17899736 1.58357288 16.21779177 0.125 16.25 C-1.09316406 16.28480469 -1.09316406 16.28480469 -2.3359375 16.3203125 C-4.5 16.125 -4.5 16.125 -6.5 14.125 C-6.6953125 11.0859375 -6.6953125 11.0859375 -6.625 7.5 C-6.60695313 6.31148438 -6.58890625 5.12296875 -6.5703125 3.8984375 C-6.54710937 2.98320312 -6.52390625 2.06796875 -6.5 1.125 C-4.13386544 -0.05806728 -2.63219264 -0.00854608 0 0 Z " fill="#FBFBFD" transform="translate(278.5,289.875)"/>
<path d="M0 0 C0.8146875 0.00257813 1.629375 0.00515625 2.46875 0.0078125 C3.2834375 0.00523437 4.098125 0.00265625 4.9375 0 C6.96875 0.1328125 6.96875 0.1328125 7.96875 1.1328125 C7.96875 2.7828125 7.96875 4.4328125 7.96875 6.1328125 C14.89875 6.4628125 21.82875 6.7928125 28.96875 7.1328125 C28.96875 7.4628125 28.96875 7.7928125 28.96875 8.1328125 C-0.07125 8.1328125 -29.11125 8.1328125 -59.03125 8.1328125 C-59.03125 7.8028125 -59.03125 7.4728125 -59.03125 7.1328125 C-30.81625 6.6378125 -30.81625 6.6378125 -2.03125 6.1328125 C-2.52625 3.6578125 -2.52625 3.6578125 -3.03125 1.1328125 C-2.03125 0.1328125 -2.03125 0.1328125 0 0 Z " fill="#B0B3C4" transform="translate(116.03125,313.8671875)"/>
<path d="M0 0 C2.14576637 -0.02685938 4.29162645 -0.04633088 6.4375 -0.0625 C7.63246094 -0.07410156 8.82742187 -0.08570313 10.05859375 -0.09765625 C13 0 13 0 14 1 C14 0.67 14 0.34 14 0 C16.64 0 19.28 0 22 0 C22 2 22 4 22 6 C18.03075579 7.29883646 14.00370441 7.18380706 9.875 7.1875 C9.14667969 7.19974609 8.41835937 7.21199219 7.66796875 7.22460938 C5.77717022 7.22985188 3.88684419 7.12233385 2 7 C0 5 0 5 -0.125 2.375 C-0.08375 1.59125 -0.0425 0.8075 0 0 Z " fill="#E3E5DE" transform="translate(133,202)"/>
<path d="M0 0 C0.66 0.33 1.32 0.66 2 1 C-3.19382345 4.52716593 -8.39020556 8.05053702 -13.58837891 11.57128906 C-15.35622263 12.76931048 -17.12348008 13.9681975 -18.89013672 15.16796875 C-21.4304261 16.89290949 -23.97281161 18.61472041 -26.515625 20.3359375 C-27.30430969 20.87245941 -28.09299438 21.40898132 -28.90557861 21.96176147 C-29.64604431 22.46212921 -30.38651001 22.96249695 -31.14941406 23.47802734 C-32.12204193 24.13754898 -32.12204193 24.13754898 -33.11431885 24.81039429 C-35.02310429 26.01457563 -36.96555611 27.02590191 -39 28 C-39.66 26.68 -40.32 25.36 -41 24 C-33.10793569 19.306775 -25.20992102 14.62379444 -17.30419922 9.95361328 C-15.32785444 8.78509614 -13.35255056 7.61481161 -11.37939453 6.44091797 C-9.40307056 5.26555962 -7.42173357 4.0994336 -5.4375 2.9375 C-4.40496094 2.32777344 -3.37242187 1.71804687 -2.30859375 1.08984375 C-1.54675781 0.73019531 -0.78492188 0.37054688 0 0 Z " fill="#394E93" transform="translate(256,251)"/>
<path d="M0 0 C11.22 0 22.44 0 34 0 C33.34 0.33 32.68 0.66 32 1 C32 1.66 32 2.32 32 3 C28.98968256 3.93423645 28.13349732 4.04449911 25 3 C24.67 4.32 24.34 5.64 24 7 C23 6 22 5 21 4 C20.01 3.67 19.02 3.34 18 3 C18 4.65 18 6.3 18 8 C17.34 8 16.68 8 16 8 C16 6.68 16 5.36 16 4 C15.34 4 14.68 4 14 4 C14 3.01 14 2.02 14 1 C13.34 1 12.68 1 12 1 C12 1.66 12 2.32 12 3 C9.42786866 4.61949011 8.32330841 5.04408751 5.25 4.625 C4.5075 4.41875 3.765 4.2125 3 4 C2.67 5.32 2.34 6.64 2 8 C2 5.69 2 3.38 2 1 C1.34 0.67 0.68 0.34 0 0 Z " fill="#FBFBEE" transform="translate(66,211)"/>
<path d="M0 0 C3.3 0 6.6 0 10 0 C9.67 0.99 9.34 1.98 9 3 C10.32 3.33 11.64 3.66 13 4 C12.67 5.65 12.34 7.3 12 9 C11.278125 8.814375 10.55625 8.62875 9.8125 8.4375 C6.8527768 7.97709861 4.88369435 8.29856083 2 9 C1.34 9 0.68 9 0 9 C0 7.35 0 5.7 0 4 C-0.66 4 -1.32 4 -2 4 C-2.33 5.32 -2.66 6.64 -3 8 C-3 6.68 -3 5.36 -3 4 C-3.66 4 -4.32 4 -5 4 C-5.33 5.32 -5.66 6.64 -6 8 C-6 6.35 -6 4.7 -6 3 C-5.195625 2.87625 -4.39125 2.7525 -3.5625 2.625 C-2.716875 2.41875 -1.87125 2.2125 -1 2 C-0.67 1.34 -0.34 0.68 0 0 Z " fill="#CAE2BD" transform="translate(38,83)"/>
<path d="M0 0 C5.69347866 2.84673933 6.36648481 6.29405042 9 12 C4.05 12 -0.9 12 -6 12 C-4.02 8.04 -2.04 4.08 0 0 Z " fill="#07B9E7" transform="translate(225,202)"/>
<path d="M0 0 C0.99 0.33 1.98 0.66 3 1 C3.125 3.375 3.125 3.375 3 6 C0.51711164 8.48288836 -1.01186156 8.28583167 -4.41015625 8.32226562 C-5.44462891 8.31743164 -5.44462891 8.31743164 -6.5 8.3125 C-7.18964844 8.32861328 -7.87929687 8.34472656 -8.58984375 8.36132812 C-10.59375 8.36328125 -10.59375 8.36328125 -14 8 C-16 5 -16 5 -15.625 2.8125 C-15.41875 2.214375 -15.2125 1.61625 -15 1 C-13.02 1.495 -13.02 1.495 -11 2 C-11.33 3.32 -11.66 4.64 -12 6 C-10.35 6 -8.7 6 -7 6 C-7 4.68 -7 3.36 -7 2 C-7.66 2 -8.32 2 -9 2 C-9.33 3.32 -9.66 4.64 -10 6 C-10 4.35 -10 2.7 -10 1 C-9.36191406 1.01160156 -8.72382812 1.02320312 -8.06640625 1.03515625 C-7.24011719 1.04417969 -6.41382812 1.05320312 -5.5625 1.0625 C-4.32693359 1.07990234 -4.32693359 1.07990234 -3.06640625 1.09765625 C-1.00836062 1.23267348 -1.00836062 1.23267348 0 0 Z " fill="#ABCE88" transform="translate(129,73)"/>
<path d="M0 0 C6.625 -0.25 6.625 -0.25 10 2 C10.29296875 4.6015625 10.29296875 4.6015625 10.1875 7.625 C10.16042969 8.62789063 10.13335937 9.63078125 10.10546875 10.6640625 C10.07066406 11.43492187 10.03585937 12.20578125 10 13 C8.35 13.33 6.7 13.66 5 14 C4.95875 12.906875 4.9175 11.81375 4.875 10.6875 C4.39434602 6.75003667 4.39434602 6.75003667 0.9375 5.0625 C-0.031875 4.711875 -1.00125 4.36125 -2 4 C-1.34 2.68 -0.68 1.36 0 0 Z " fill="#F1F2F7" transform="translate(281,284)"/>
<path d="M0 0 C2.375 -0.125 2.375 -0.125 5 0 C5.66 0.66 6.32 1.32 7 2 C7 1.34 7 0.68 7 0 C12.66666667 0 18.33333333 0 24 0 C24 1.65 24 3.3 24 5 C23.67 3.68 23.34 2.36 23 1 C22.34 1 21.68 1 21 1 C20.67 2.32 20.34 3.64 20 5 C20 3.68 20 2.36 20 1 C19.34 1 18.68 1 18 1 C18 2.32 18 3.64 18 5 C17.01 4.67 16.02 4.34 15 4 C14.34 5.32 13.68 6.64 13 8 C12.34 7.67 11.68 7.34 11 7 C11 6.34 11 5.68 11 5 C10.401875 5.165 9.80375 5.33 9.1875 5.5 C7 6 7 6 4 6 C2.66018514 6.3062434 1.32488113 6.63451555 0 7 C0 4.69 0 2.38 0 0 Z " fill="#7AB663" transform="translate(64,86)"/>
<path d="M0 0 C2.33294775 -0.04241723 4.66702567 -0.04092937 7 0 C7.33 0.33 7.66 0.66 8 1 C8.99 0.67 9.98 0.34 11 0 C11 1.98 11 3.96 11 6 C12.32 6.66 13.64 7.32 15 8 C6.42 8 -2.16 8 -11 8 C-11 7.67 -11 7.34 -11 7 C-7.7 6.67 -4.4 6.34 -1 6 C-0.67 4.02 -0.34 2.04 0 0 Z " fill="#C0BFBD" transform="translate(41,314)"/>
<path d="M0 0 C2.37034229 1.34319397 3.38275379 2.79169056 4.875 5.0625 C5.7103125 6.0525 5.7103125 6.0525 6.5625 7.0625 C7.875 9.0625 7.875 9.0625 7.875 13.0625 C4.52162411 12.06555041 3.14786429 11.47684947 1.1875 8.5 C0.754375 7.695625 0.32125 6.89125 -0.125 6.0625 C-0.785 5.7325 -1.445 5.4025 -2.125 5.0625 C-2.125 5.7225 -2.125 6.3825 -2.125 7.0625 C-3.43554623 8.41823748 -4.77248503 9.74862831 -6.125 11.0625 C-7.14823436 12.37808703 -8.15626968 13.70627755 -9.125 15.0625 C-9.39435885 9.13660534 -8.54473171 6.74376124 -4.75 2.25 C-2.125 0.0625 -2.125 0.0625 0 0 Z " fill="#BFEFFA" transform="translate(227.125,196.9375)"/>
<path d="M0 0 C5.28 0 10.56 0 16 0 C15.67 0.99 15.34 1.98 15 3 C13.35 3 11.7 3 10 3 C9.67 4.32 9.34 5.64 9 7 C8.67 6.01 8.34 5.02 8 4 C7.34 5.65 6.68 7.3 6 9 C4.35 9 2.7 9 1 9 C-1.125 3.375 -1.125 3.375 0 0 Z " fill="#F9F1B5" transform="translate(101,83)"/>
<path d="M0 0 C3.5 0.1875 3.5 0.1875 5.5 1.1875 C5.5 2.1775 5.5 3.1675 5.5 4.1875 C4.0459375 5.0846875 4.0459375 5.0846875 2.5625 6 C-0.79339848 7.90786301 -0.79339848 7.90786301 -1.375 11.4375 C-1.41625 12.345 -1.4575 13.2525 -1.5 14.1875 C-2.82 13.8575 -4.14 13.5275 -5.5 13.1875 C-5.55391993 11.39616022 -5.59275571 9.60436101 -5.625 7.8125 C-5.64820313 6.81476563 -5.67140625 5.81703125 -5.6953125 4.7890625 C-5.37728787 0.55297441 -4.11774602 0.22059354 0 0 Z " fill="#F6F7FA" transform="translate(271.5,283.8125)"/>
<path d="M0 0 C4.49262976 0 8.56041003 0.2278974 13 1 C13 3.31 13 5.62 13 8 C10.6875 8.6875 10.6875 8.6875 8 9 C6.4375 7.625 6.4375 7.625 5 6 C2.89667109 5.28552357 2.89667109 5.28552357 1 5 C0.67 6.32 0.34 7.64 0 9 C0 6.03 0 3.06 0 0 Z " fill="#A6AF9A" transform="translate(303,213)"/>
<path d="M0 0 C0.66 0 1.32 0 2 0 C2 0.66 2 1.32 2 2 C2.928125 2.0928125 2.928125 2.0928125 3.875 2.1875 C4.57625 2.455625 5.2775 2.72375 6 3 C7.1328125 5.55078125 7.1328125 5.55078125 8 8 C6.25034642 8.05429959 4.50020213 8.09292823 2.75 8.125 C1.77546875 8.14820312 0.8009375 8.17140625 -0.203125 8.1953125 C-3.0599167 7.99581587 -4.50022764 7.27125176 -7 6 C-7.99 6.33 -8.98 6.66 -10 7 C-10.33 5.68 -10.66 4.36 -11 3 C-8.09399739 1.74335022 -6.20395416 1 -3 1 C-3 1.99 -3 2.98 -3 4 C-2.34 4 -1.68 4 -1 4 C-0.67 2.68 -0.34 1.36 0 0 Z " fill="#F4EEB0" transform="translate(107,72)"/>
<path d="M0 0 C4.29 0 8.58 0 13 0 C13 6.27 13 12.54 13 19 C8.71 19 4.42 19 0 19 C0 18.67 0 18.34 0 18 C3.96 18 7.92 18 12 18 C11.67 13.05 11.34 8.1 11 3 C10.67 3.66 10.34 4.32 10 5 C7.36 5 4.72 5 2 5 C2 4.34 2 3.68 2 3 C1.34 3 0.68 3 0 3 C0 2.01 0 1.02 0 0 Z " fill="#6AFCA4" transform="translate(269,108)"/>
<path d="M0 0 C1.98 0 3.96 0 6 0 C6.66 1.65 7.32 3.3 8 5 C7.01 5 6.02 5 5 5 C5 5.99 5 6.98 5 8 C5.99 8.33 6.98 8.66 8 9 C6.68 9 5.36 9 4 9 C4 6.69 4 4.38 4 2 C3.34 2 2.68 2 2 2 C1.67 4.64 1.34 7.28 1 10 C-1.64 9.67 -4.28 9.34 -7 9 C-7 7.68 -7 6.36 -7 5 C-7.66 5 -8.32 5 -9 5 C-9.33 6.32 -9.66 7.64 -10 9 C-10 7.35 -10 5.7 -10 4 C-7.03 4 -4.06 4 -1 4 C-0.67 2.68 -0.34 1.36 0 0 Z " fill="#A19F9F" transform="translate(47,323)"/>
<path d="M0 0 C0.33 0 0.66 0 1 0 C1 1.98 1 3.96 1 6 C1.99 6 2.98 6 4 6 C4.33 4.68 4.66 3.36 5 2 C7.97 2 10.94 2 14 2 C14 3.65 14 5.3 14 7 C8.25 8.125 8.25 8.125 6 7 C6 7.66 6 8.32 6 9 C3.03 9 0.06 9 -3 9 C-2.01 8.67 -1.02 8.34 0 8 C0 5.36 0 2.72 0 0 Z " fill="#B3D5A5" transform="translate(32,72)"/>
<path d="M0 0 C1.34061543 0.30271961 2.67405895 0.63837971 4 1 C6.15634036 1 7.92446352 0.5534764 10 0 C11.125 3.75 11.125 3.75 10 6 C9.34 6 8.68 6 8 6 C8 6.66 8 7.32 8 8 C8.99 8.33 9.98 8.66 11 9 C7 9 3 9 -1 9 C0.20381448 6.50638429 1.45428722 4.31856917 3 2 C1.68 1.67 0.36 1.34 -1 1 C-0.67 0.67 -0.34 0.34 0 0 Z " fill="#C4C6B4" transform="translate(343,213)"/>
<path d="M0 0 C1.47906892 -0.02689216 2.95827483 -0.04634621 4.4375 -0.0625 C5.26121094 -0.07410156 6.08492188 -0.08570313 6.93359375 -0.09765625 C9 0 9 0 10 1 C10.04063832 2.66617115 10.042721 4.33388095 10 6 C5.70700357 7.26264601 3.12168689 6.62950412 -1 5 C-0.67 3.35 -0.34 1.7 0 0 Z " fill="#C8C5B6" transform="translate(114,314)"/>
<path d="M0 0 C1.65 0 3.3 0 5 0 C5.125 6.75 5.125 6.75 4 9 C2.52031676 8.85950482 1.04125484 8.71245174 -0.4375 8.5625 C-1.26121094 8.48128906 -2.08492188 8.40007812 -2.93359375 8.31640625 C-5 8 -5 8 -6 7 C-6.04063832 5.33382885 -6.042721 3.66611905 -6 2 C-5.67 3.32 -5.34 4.64 -5 6 C-4.01 6 -3.02 6 -2 6 C-1.855625 5.38125 -1.71125 4.7625 -1.5625 4.125 C-1 2 -1 2 0 0 Z " fill="#BAC9CB" transform="translate(127,200)"/>
<path d="M0 0 C0.33 0.66 0.66 1.32 1 2 C2.32 2 3.64 2 5 2 C5 2.99 5 3.98 5 5 C2.69 5.66 0.38 6.32 -2 7 C-2 5.68 -2 4.36 -2 3 C-2.66 3 -3.32 3 -4 3 C-4 4.32 -4 5.64 -4 7 C-5.65 6.67 -7.3 6.34 -9 6 C-9 4.35 -9 2.7 -9 1 C-2.25 0 -2.25 0 0 0 Z " fill="#A5BCC3" transform="translate(100,213)"/>
<path d="M0 0 C0.66 0 1.32 0 2 0 C2.33 0.33 2.66 0.66 3 1 C3 0.67 3 0.34 3 0 C5.64 0 8.28 0 11 0 C11 2 11 4 11 6 C6.70700357 7.26264601 4.12168689 6.62950412 0 5 C0 3.35 0 1.7 0 0 Z " fill="#A3BAC2" transform="translate(144,202)"/>
<path d="M0 0 C0.66 0 1.32 0 2 0 C2.33 0.66 2.66 1.32 3 2 C4.98 2 6.96 2 9 2 C8.01 2.495 8.01 2.495 7 3 C7 3.99 7 4.98 7 6 C7.66 6.33 8.32 6.66 9 7 C4.71 7 0.42 7 -4 7 C-4 5.35 -4 3.7 -4 2 C-2.68 2 -1.36 2 0 2 C0 1.34 0 0.68 0 0 Z " fill="#A3BCC5" transform="translate(50,200)"/>
<path d="M0 0 C0.33 0 0.66 0 1 0 C1 5.61 1 11.22 1 17 C-2.96 17 -6.92 17 -11 17 C-11 12.05 -11 7.1 -11 2 C-10.34 2 -9.68 2 -9 2 C-9 2.99 -9 3.98 -9 5 C-6.36 5 -3.72 5 -1 5 C-1 5.33 -1 5.66 -1 6 C-3.64 6 -6.28 6 -9 6 C-9.33 9.3 -9.66 12.6 -10 16 C-6.7 16 -3.4 16 0 16 C0 10.72 0 5.44 0 0 Z " fill="#00FA62" transform="translate(280,109)"/>
<path d="M0 0 C0 1.65 0 3.3 0 5 C-7 5 -7 5 -9 4.4375 C-11.32645375 3.92858824 -12.75714248 4.27908151 -15 5 C-14.34 4.67 -13.68 4.34 -13 4 C-13 3.34 -13 2.68 -13 2 C-8.82841821 -1.87361166 -5.26899724 -1.17088827 0 0 Z " fill="#A2A09E" transform="translate(86,315)"/>
<path d="M0 0 C3.63 0 7.26 0 11 0 C10.67 1.32 10.34 2.64 10 4 C9.34 4 8.68 4 8 4 C7.67 4.99 7.34 5.98 7 7 C5.68 6.67 4.36 6.34 3 6 C3 5.34 3 4.68 3 4 C2.01 3.67 1.02 3.34 0 3 C0 2.01 0 1.02 0 0 Z " fill="#5ED2F0" transform="translate(221,215)"/>
<path d="M0 0 C2.97 0.495 2.97 0.495 6 1 C6.625 3.875 6.625 3.875 7 7 C5 9 5 9 2.375 9.125 C1.59125 9.08375 0.8075 9.0425 0 9 C0 6.03 0 3.06 0 0 Z " fill="#A2A89B" transform="translate(362,197)"/>
<path d="M0 0 C2.625 0.375 2.625 0.375 5 1 C6.125 5.75 6.125 5.75 5 8 C3.02 8 1.04 8 -1 8 C-1.625 5.125 -1.625 5.125 -2 2 C-1.34 1.34 -0.68 0.68 0 0 Z " fill="#C7CCB9" transform="translate(336,182)"/>
<path d="M0 0 C1.81242052 -0.02687279 3.62495233 -0.04633715 5.4375 -0.0625 C6.44683594 -0.07410156 7.45617187 -0.08570312 8.49609375 -0.09765625 C11 0 11 0 12 1 C14.05396726 0.59070014 14.05396726 0.59070014 16 0 C16 3 16 3 15 6 C13.35 5.67 11.7 5.34 10 5 C9.67 4.01 9.34 3.02 9 2 C8.01 3.485 8.01 3.485 7 5 C7 3.68 7 2.36 7 1 C6.34 1 5.68 1 5 1 C5 2.65 5 4.3 5 6 C4.34 6 3.68 6 3 6 C3 4.68 3 3.36 3 2 C2.34 2 1.68 2 1 2 C0.67 2.99 0.34 3.98 0 5 C0 3.35 0 1.7 0 0 Z " fill="#7EB761" transform="translate(137,86)"/>
<path d="M0 0 C0.66 0 1.32 0 2 0 C2 0.66 2 1.32 2 2 C3.65 2.33 5.3 2.66 7 3 C6.67 4.32 6.34 5.64 6 7 C6 6.34 6 5.68 6 5 C5.34 5 4.68 5 4 5 C4 5.66 4 6.32 4 7 C2.02 7.33 0.04 7.66 -2 8 C-2.33 6.35 -2.66 4.7 -3 3 C-2.01 2.67 -1.02 2.34 0 2 C0 1.34 0 0.68 0 0 Z " fill="#AFADA7" transform="translate(70,325)"/>
<path d="M0 0 C1.32 0 2.64 0 4 0 C4 2.31 4 4.62 4 7 C0.7 7 -2.6 7 -6 7 C-6.66 5.35 -7.32 3.7 -8 2 C-7.05125 2.04125 -6.1025 2.0825 -5.125 2.125 C-1.89755144 2.34973818 -1.89755144 2.34973818 0 0 Z " fill="#88A7B6" transform="translate(89,200)"/>
<path d="M0 0 C2.5 0.125 2.5 0.125 3.5 1.125 C3.625 4.125 3.625 4.125 3.5 7.125 C2.5 8.125 2.5 8.125 0 8.25 C-2.5 8.125 -2.5 8.125 -3.5 7.125 C-3.625 4.125 -3.625 4.125 -3.5 1.125 C-2.5 0.125 -2.5 0.125 0 0 Z " fill="#9BA197" transform="translate(303.5,181.875)"/>
<path d="M0 0 C3.3 0 6.6 0 10 0 C9.67 2.31 9.34 4.62 9 7 C6.03 6.505 6.03 6.505 3 6 C3 4.68 3 3.36 3 2 C2.34 2 1.68 2 1 2 C0.67 3.32 0.34 4.64 0 6 C0 4.02 0 2.04 0 0 Z " fill="#A6A5A1" transform="translate(140,314)"/>
<path d="M0 0 C0.33 1.32 0.66 2.64 1 4 C1.66 4 2.32 4 3 4 C3 2.68 3 1.36 3 0 C3.66 0 4.32 0 5 0 C5 1.32 5 2.64 5 4 C5.33 2.68 5.66 1.36 6 0 C6.99 0.33 7.98 0.66 9 1 C8.67 1.33 8.34 1.66 8 2 C8.66 2.33 9.32 2.66 10 3 C10 2.34 10 1.68 10 1 C10.66 1 11.32 1 12 1 C12 2.65 12 4.3 12 6 C10.18757948 6.02687279 8.37504767 6.04633715 6.5625 6.0625 C5.55316406 6.07410156 4.54382813 6.08570313 3.50390625 6.09765625 C1 6 1 6 0 5 C-0.04063832 3.33382885 -0.042721 1.66611905 0 0 Z " fill="#A2A09E" transform="translate(127,314)"/>
<path d="M0 0 C0.66 0 1.32 0 2 0 C2 0.99 2 1.98 2 3 C2.66 3 3.32 3 4 3 C4 4.32 4 5.64 4 7 C4.66 7 5.32 7 6 7 C6.33 5.68 6.66 4.36 7 3 C7 4.65 7 6.3 7 8 C3.7 8 0.4 8 -3 8 C-3 6.35 -3 4.7 -3 3 C-2.01 2.67 -1.02 2.34 0 2 C0 1.34 0 0.68 0 0 Z " fill="#9EB7C0" transform="translate(78,212)"/>
<path d="M0 0 C4 0 8 0 12 0 C12 1.65 12 3.3 12 5 C8.33333333 5 4.66666667 5 1 5 C0.67 3.35 0.34 1.7 0 0 Z " fill="#A7CB7F" transform="translate(78,74)"/>
<path d="M0 0 C1.98 0.66 3.96 1.32 6 2 C6.33 4.31 6.66 6.62 7 9 C5.1875 9.625 5.1875 9.625 3 10 C2.01 9.34 1.02 8.68 0 8 C-0.40843923 5.28796348 -0.13336867 2.7562858 0 0 Z " fill="#999799" transform="translate(57,325)"/>
<path d="M0 0 C2.71631546 0.90543849 5.34771188 1.92474806 8 3 C7.67 4.65 7.34 6.3 7 8 C4.69 8 2.38 8 0 8 C0 5.36 0 2.72 0 0 Z " fill="#98C275" transform="translate(128,84)"/>
<path d="M0 0 C3.69230769 0.69230769 3.69230769 0.69230769 5 2 C5.1875 4.4375 5.1875 4.4375 5 7 C4.34 7.66 3.68 8.32 3 9 C0.875 8.625 0.875 8.625 -1 8 C-1.04241723 5.66705225 -1.04092937 3.33297433 -1 1 C-0.67 0.67 -0.34 0.34 0 0 Z " fill="#C1C8AF" transform="translate(336,213)"/>
<path d="M0 0 C1.65 0 3.3 0 5 0 C4.67 2.31 4.34 4.62 4 7 C5.32 5.02 6.64 3.04 8 1 C8.33 1.66 8.66 2.32 9 3 C8.00350509 4.76797483 7.00068408 6.53451957 5.91015625 8.24609375 C4.76969717 10.1144693 4.76969717 10.1144693 5 13 C3.35 13 1.7 13 0 13 C0.66 9.7 1.32 6.4 2 3 C1.34 3 0.68 3 0 3 C0 2.01 0 1.02 0 0 Z " fill="#DAF6FB" transform="translate(215,203)"/>
<path d="M0 0 C2.97 0 5.94 0 9 0 C9 1.65 9 3.3 9 5 C8.67 3.68 8.34 2.36 8 1 C7.34 1 6.68 1 6 1 C6 2.65 6 4.3 6 6 C3.625 6.125 3.625 6.125 1 6 C0.34 5.34 -0.32 4.68 -1 4 C-0.67 2.68 -0.34 1.36 0 0 Z " fill="#AACC83" transform="translate(90,86)"/>
<path d="M0 0 C0.33 0.66 0.66 1.32 1 2 C2.97080157 2.74276031 2.97080157 2.74276031 5 3 C5.33 2.67 5.66 2.34 6 2 C7.32 2 8.64 2 10 2 C10 3.98 10 5.96 10 8 C7.69 8.33 5.38 8.66 3 9 C3 7.02 3 5.04 3 3 C2.34 3 1.68 3 1 3 C0.67 4.32 0.34 5.64 0 7 C0 4.69 0 2.38 0 0 Z " fill="#99B4BF" transform="translate(60,200)"/>
<path d="M0 0 C2.31 0 4.62 0 7 0 C7 2.31 7 4.62 7 7 C4.66666667 7 2.33333333 7 0 7 C0 4.69 0 2.38 0 0 Z " fill="#99B4C1" transform="translate(32,200)"/>
<path d="M0 0 C2.31 0.33 4.62 0.66 7 1 C7.33 2.65 7.66 4.3 8 6 C5.6739143 6.38063221 3.33944736 6.71269945 1 7 C0 6 0 6 -0.0625 2.9375 C-0.041875 1.968125 -0.02125 0.99875 0 0 Z " fill="#BBB8AE" transform="translate(78,326)"/>
<path d="M0 0 C2.375 -0.125 2.375 -0.125 5 0 C5.66 0.66 6.32 1.32 7 2 C7.66 2 8.32 2 9 2 C9 3.32 9 4.64 9 6 C8.443125 5.79375 7.88625 5.5875 7.3125 5.375 C4.340462 4.89304789 2.68020059 5.73434972 0 7 C0 4.69 0 2.38 0 0 Z " fill="#9ECA88" transform="translate(64,86)"/>
<path d="M0 0 C0.66 0 1.32 0 2 0 C2 2.31 2 4.62 2 7 C0.02 7.99 0.02 7.99 -2 9 C-2.99 8.34 -3.98 7.68 -5 7 C-4.67 5.35 -4.34 3.7 -4 2 C-3.01 2 -2.02 2 -1 2 C-0.67 1.34 -0.34 0.68 0 0 Z " fill="#A3BAC1" transform="translate(118,200)"/>
<path d="M0 0 C1.65 0 3.3 0 5 0 C5.38063221 2.3260857 5.71269945 4.66055264 6 7 C5 8 5 8 2.4375 8.0625 C1.633125 8.041875 0.82875 8.02125 0 8 C0 5.36 0 2.72 0 0 Z " fill="#B8BCAE" transform="translate(344,182)"/>
<path d="M0 0 C0.66 0 1.32 0 2 0 C2 2.31 2 4.62 2 7 C-0.31 7.66 -2.62 8.32 -5 9 C-5 6.69 -5 4.38 -5 2 C-3.35 2 -1.7 2 0 2 C0 1.34 0 0.68 0 0 Z " fill="#90BF6E" transform="translate(116,84)"/>
<path d="M0 0 C0 0.66 0 1.32 0 2 C1.32 2.33 2.64 2.66 4 3 C4 4.32 4 5.64 4 7 C3.34 7 2.68 7 2 7 C2 5.68 2 4.36 2 3 C1.34 3 0.68 3 0 3 C0 4.32 0 5.64 0 7 C-1.65 6.67 -3.3 6.34 -5 6 C-5 4.35 -5 2.7 -5 1 C-2 0 -2 0 0 0 Z " fill="#92C070" transform="translate(150,72)"/>
<path d="M0 0 C0.33 0.66 0.66 1.32 1 2 C1.66 2 2.32 2 3 2 C3 1.34 3 0.68 3 0 C4.98 0 6.96 0 9 0 C9.33 0.99 9.66 1.98 10 3 C8.68 3 7.36 3 6 3 C6.33 3.99 6.66 4.98 7 6 C5.02 6 3.04 6 1 6 C0.67 4.02 0.34 2.04 0 0 Z " fill="#A6CF95" transform="translate(47,74)"/>
<path d="M0 0 C0.99 0.33 1.98 0.66 3 1 C4.72795352 1.06802967 6.45835365 1.08495645 8.1875 1.0625 C9.08855469 1.05347656 9.98960937 1.04445313 10.91796875 1.03515625 C11.94857422 1.01775391 11.94857422 1.01775391 13 1 C12.34 2.32 11.68 3.64 11 5 C9.54207116 5.05399736 8.08357288 5.09279177 6.625 5.125 C5.81289063 5.14820313 5.00078125 5.17140625 4.1640625 5.1953125 C2 5 2 5 0 3 C0 2.01 0 1.02 0 0 Z " fill="#F0F2F7" transform="translate(272,301)"/>
<path d="M0 0 C3.3 0 6.6 0 10 0 C10 1.65 10 3.3 10 5 C9.67 3.68 9.34 2.36 9 1 C8.34 1 7.68 1 7 1 C7 2.32 7 3.64 7 5 C4.69 5 2.38 5 0 5 C0 3.35 0 1.7 0 0 Z " fill="#8CA9B6" transform="translate(133,202)"/>
<path d="M0 0 C0.66 0 1.32 0 2 0 C2 2.64 2 5.28 2 8 C0.02 8 -1.96 8 -4 8 C-4 6 -4 4 -4 2 C-3.01 2 -2.02 2 -1 2 C-0.67 1.34 -0.34 0.68 0 0 Z " fill="#A6A4A2" transform="translate(92,312)"/>
<path d="M0 0 C3.33333333 0 6.66666667 0 10 0 C10 1.65 10 3.3 10 5 C7.03 4.505 7.03 4.505 4 4 C3.67 4.99 3.34 5.98 3 7 C2.34 6.67 1.68 6.34 1 6 C0.375 2.9375 0.375 2.9375 0 0 Z " fill="#8EC379" transform="translate(59,74)"/>
<path d="M0 0 C2.97 0 5.94 0 9 0 C9 1.65 9 3.3 9 5 C8.67 3.68 8.34 2.36 8 1 C7.34 1 6.68 1 6 1 C6 2.32 6 3.64 6 5 C4.02 5.33 2.04 5.66 0 6 C0 4 0 2 0 0 Z " fill="#969496" transform="translate(90,327)"/>
<path d="M0 0 C2.475 0.495 2.475 0.495 5 1 C5 2.32 5 3.64 5 5 C5.2981424 6.34164079 5.62243192 7.67851173 6 9 C4 9 4 9 2.375 7.5 C1.92125 7.005 1.4675 6.51 1 6 C0.67 6.99 0.34 7.98 0 9 C0 6.03 0 3.06 0 0 Z " fill="#999E95" transform="translate(339,197)"/>
<path d="M0 0 C2.97 0 5.94 0 9 0 C9 1.65 9 3.3 9 5 C7.68 5.33 6.36 5.66 5 6 C4.67 5.34 4.34 4.68 4 4 C3.01 4.33 2.02 4.66 1 5 C0.67 3.35 0.34 1.7 0 0 Z " fill="#86BA66" transform="translate(135,74)"/>
<path d="M0 0 C1.98 0 3.96 0 6 0 C5.01 0.495 5.01 0.495 4 1 C4 1.99 4 2.98 4 4 C5.98 3.34 7.96 2.68 10 2 C10 3.32 10 4.64 10 6 C6.4780279 6.08004482 3.38018531 6.04005702 0 5 C0 3.35 0 1.7 0 0 Z " fill="#9D9B9B" transform="translate(116,327)"/>
<path d="M0 0 C1.98 0 3.96 0 6 0 C6.66 1.65 7.32 3.3 8 5 C7.01 5 6.02 5 5 5 C5 5.99 5 6.98 5 8 C5.99 8.33 6.98 8.66 8 9 C6.68 9 5.36 9 4 9 C4 6.69 4 4.38 4 2 C3.34 2 2.68 2 2 2 C1.67 4.64 1.34 7.28 1 10 C-0.32 9.67 -1.64 9.34 -3 9 C-2.01 9 -1.02 9 0 9 C0 6.03 0 3.06 0 0 Z " fill="#BCBAB1" transform="translate(47,323)"/>
<path d="M0 0 C1.65 0 3.3 0 5 0 C5 0.66 5 1.32 5 2 C5.66 2 6.32 2 7 2 C7.33 1.34 7.66 0.68 8 0 C7.67 1.65 7.34 3.3 7 5 C4.36 5 1.72 5 -1 5 C-0.67 3.35 -0.34 1.7 0 0 Z " fill="#94B0BA" transform="translate(104,202)"/>
<path d="M0 0 C0.66 0 1.32 0 2 0 C2 2.31 2 4.62 2 7 C0.02 7.33 -1.96 7.66 -4 8 C-4 6 -4 4 -4 2 C-3.01 2 -2.02 2 -1 2 C-0.67 1.34 -0.34 0.68 0 0 Z " fill="#ABA9A4" transform="translate(105,325)"/>
<path d="M0 0 C0.99 0.99 1.98 1.98 3 3 C3.33 2.01 3.66 1.02 4 0 C4.66 0 5.32 0 6 0 C6 2.31 6 4.62 6 7 C4.68 7 3.36 7 2 7 C2 6.34 2 5.68 2 5 C0.68 5.33 -0.64 5.66 -2 6 C-1.34 4.02 -0.68 2.04 0 0 Z " fill="#83818A" transform="translate(155,313)"/>
<path d="M0 0 C0.66 0.99 1.32 1.98 2 3 C2.66 3 3.32 3 4 3 C4 4.98 4 6.96 4 9 C1.36 9 -1.28 9 -4 9 C-2.68 8.67 -1.36 8.34 0 8 C0 7.34 0 6.68 0 6 C-0.66 6 -1.32 6 -2 6 C-2 4.35 -2 2.7 -2 1 C-1.34 0.67 -0.68 0.34 0 0 Z " fill="#F6F8F2" transform="translate(59,200)"/>
<path d="M0 0 C0.66 0.66 1.32 1.32 2 2 C1.625 4.125 1.625 4.125 1 6 C-0.98 6.33 -2.96 6.66 -5 7 C-5 5 -5 3 -5 1 C-2.625 0.375 -2.625 0.375 0 0 Z " fill="#8CBD6A" transform="translate(125,85)"/>
<path d="M0 0 C0.99 0.33 1.98 0.66 3 1 C2.67 1.66 2.34 2.32 2 3 C1.34 2.67 0.68 2.34 0 2 C0 2.99 0 3.98 0 5 C-1.65 5.33 -3.3 5.66 -5 6 C-5.33 4.35 -5.66 2.7 -6 1 C-4 0 -4 0 0 0 Z " fill="#A4BCC5" transform="translate(60,214)"/>
<path d="M0 0 C3 1 3 1 4 3 C4.33 2.01 4.66 1.02 5 0 C5.66 0 6.32 0 7 0 C7 2.64 7 5.28 7 8 C4 7 4 7 2 4 C1.34 5.32 0.68 6.64 0 8 C0 5.36 0 2.72 0 0 Z " fill="#A4AB9B" transform="translate(291,198)"/>
<path d="M0 0 C0.66 0.66 1.32 1.32 2 2 C3.32 2 4.64 2 6 2 C5.34 3.65 4.68 5.3 4 7 C4.66 7.33 5.32 7.66 6 8 C4.02 8 2.04 8 0 8 C0 5.36 0 2.72 0 0 Z " fill="#AAA7A3" transform="translate(95,312)"/>
<path d="M0 0 C0.33 0 0.66 0 1 0 C1.09765625 6.15234375 1.09765625 6.15234375 1 8 C0 9 0 9 -2.28515625 9.09765625 C-3.65994141 9.08025391 -3.65994141 9.08025391 -5.0625 9.0625 C-5.98160156 9.05347656 -6.90070313 9.04445312 -7.84765625 9.03515625 C-8.55792969 9.02355469 -9.26820312 9.01195312 -10 9 C-9.67 8.01 -9.34 7.02 -9 6 C-7.02 6.495 -7.02 6.495 -5 7 C-4.67 6.01 -4.34 5.02 -4 4 C-4 4.99 -4 5.98 -4 7 C-2.68 7 -1.36 7 0 7 C0 4.69 0 2.38 0 0 Z " fill="#FAFAEF" transform="translate(93,200)"/>
<path d="M0 0 C0.33 1.32 0.66 2.64 1 4 C2.32 4 3.64 4 5 4 C5 2.68 5 1.36 5 0 C5.66 0 6.32 0 7 0 C7.33 1.98 7.66 3.96 8 6 C3.71 6 -0.58 6 -5 6 C-5 5.67 -5 5.34 -5 5 C-3.35 5 -1.7 5 0 5 C0 3.35 0 1.7 0 0 Z " fill="#FCFCF1" transform="translate(70,203)"/>
<path d="M0 0 C1.32 0 2.64 0 4 0 C4 2.64 4 5.28 4 8 C2.68 8 1.36 8 0 8 C0 5.36 0 2.72 0 0 Z " fill="#A4C87C" transform="translate(91,71)"/>
<path d="M0 0 C1.65 0 3.3 0 5 0 C5.33 0.99 5.66 1.98 6 3 C5.67 3.66 5.34 4.32 5 5 C3.68 5 2.36 5 1 5 C0.67 6.32 0.34 7.64 0 9 C0 6.03 0 3.06 0 0 Z " fill="#C2C4AA" transform="translate(303,213)"/>
<path d="M0 0 C2.46800047 1.15173355 4.04783565 2.04783565 6 4 C6 5.32 6 6.64 6 8 C3.5625 7.375 3.5625 7.375 1 6 C0.1875 2.875 0.1875 2.875 0 0 Z " fill="#4ACBEC" transform="translate(229,202)"/>
<path d="M0 0 C1.65 0 3.3 0 5 0 C5 0.66 5 1.32 5 2 C4.01 2 3.02 2 2 2 C2 2.66 2 3.32 2 4 C2.99 4 3.98 4 5 4 C5 4.66 5 5.32 5 6 C4.01 6 3.02 6 2 6 C2 6.99 2 7.98 2 9 C1.34 9 0.68 9 0 9 C0 6.03 0 3.06 0 0 Z " fill="#B3B7A6" transform="translate(281,197)"/>
<path d="M0 0 C0.33 1.98 0.66 3.96 1 6 C0.401875 5.814375 -0.19625 5.62875 -0.8125 5.4375 C-3.16408762 4.77906313 -3.16408762 4.77906313 -6 6 C-6.33 4.68 -6.66 3.36 -7 2 C-2.25 0 -2.25 0 0 0 Z " fill="#81B963" transform="translate(103,73)"/>
<path d="M0 0 C1.32 0 2.64 0 4 0 C4 0.66 4 1.32 4 2 C3.01 2 2.02 2 1 2 C1 2.66 1 3.32 1 4 C1.99 4.33 2.98 4.66 4 5 C3.01 5 2.02 5 1 5 C1 5.99 1 6.98 1 8 C1.99 8.33 2.98 8.66 4 9 C2.35 9 0.7 9 -1 9 C-1.09765625 2.84765625 -1.09765625 2.84765625 -1 1 C-0.67 0.67 -0.34 0.34 0 0 Z " fill="#A8AD9F" transform="translate(307,197)"/>
<path d="M0 0 C1.32 0 2.64 0 4 0 C4 0.66 4 1.32 4 2 C3.01 2 2.02 2 1 2 C1 2.66 1 3.32 1 4 C1.99 4.33 2.98 4.66 4 5 C3.01 5 2.02 5 1 5 C1 5.99 1 6.98 1 8 C1.99 8.33 2.98 8.66 4 9 C2.35 9 0.7 9 -1 9 C-1.09765625 2.84765625 -1.09765625 2.84765625 -1 1 C-0.67 0.67 -0.34 0.34 0 0 Z " fill="#A6AB9E" transform="translate(347,197)"/>
<path d="M0 0 C0.66 0 1.32 0 2 0 C2.99 2.64 3.98 5.28 5 8 C4.34 8 3.68 8 3 8 C3 7.34 3 6.68 3 6 C1.68 6 0.36 6 -1 6 C-1.33 6.66 -1.66 7.32 -2 8 C-1.125 2.25 -1.125 2.25 0 0 Z " fill="#A9AEA1" transform="translate(353,182)"/>
<path d="M0 0 C0.66 0.66 1.32 1.32 2 2 C1.67 2.99 1.34 3.98 1 5 C1.66 4.67 2.32 4.34 3 4 C3 3.01 3 2.02 3 1 C3.99 1.33 4.98 1.66 6 2 C6.75 4 6.75 4 7 6 C6 7 6 7 3.4375 7.0625 C2.2309375 7.0315625 2.2309375 7.0315625 1 7 C0.34 5.02 -0.32 3.04 -1 1 C-0.67 0.67 -0.34 0.34 0 0 Z " fill="#88BC68" transform="translate(101,85)"/>
<path d="M0 0 C0.33 0.66 0.66 1.32 1 2 C3.02463255 2.65213292 3.02463255 2.65213292 5 3 C4.67 4.65 4.34 6.3 4 8 C2.68 7.67 1.36 7.34 0 7 C0 4.69 0 2.38 0 0 Z " fill="#95C586" transform="translate(46,84)"/>
<path d="M0 0 C1.32 0 2.64 0 4 0 C4 2.31 4 4.62 4 7 C2.68 7 1.36 7 0 7 C0 4.69 0 2.38 0 0 Z " fill="#A6CF95" transform="translate(52,84)"/>
<path d="M0 0 C1.65 0.33 3.3 0.66 5 1 C5 2.65 5 4.3 5 6 C3.33333333 6 1.66666667 6 0 6 C-1.125 2.25 -1.125 2.25 0 0 Z " fill="#AEACA6" transform="translate(81,314)"/>
<path d="M0 0 C0 0.99 0 1.98 0 3 C-2.31 3.66 -4.62 4.32 -7 5 C-7 3.35 -7 1.7 -7 0 C-3.98968256 -0.93423645 -3.13349732 -1.04449911 0 0 Z " fill="#97B2BD" transform="translate(105,215)"/>
<path d="M0 0 C2.31 0 4.62 0 7 0 C7 1.65 7 3.3 7 5 C6.67 3.68 6.34 2.36 6 1 C5.34 1 4.68 1 4 1 C4 2.32 4 3.64 4 5 C2.68 5 1.36 5 0 5 C0 3.35 0 1.7 0 0 Z " fill="#99B3BD" transform="translate(71,202)"/>
<path d="M0 0 C1.65 0 3.3 0 5 0 C5 2.31 5 4.62 5 7 C4.34 7 3.68 7 3 7 C3 5.68 3 4.36 3 3 C2.34 3 1.68 3 1 3 C1.33 4.32 1.66 5.64 2 7 C1.34 7 0.68 7 0 7 C0 4.69 0 2.38 0 0 Z " fill="#96B1BC" transform="translate(127,200)"/>
<path d="M0 0 C2 2 2 2 2 6 C1.34 6 0.68 6 0 6 C-0.33 5.34 -0.66 4.68 -1 4 C-2.485 6.475 -2.485 6.475 -4 9 C-5.35439668 6.29120665 -5.06501451 3.99066732 -5 1 C-4.67 1.66 -4.34 2.32 -4 3 C-3.34 3 -2.68 3 -2 3 C-2 2.34 -2 1.68 -2 1 C-1.34 0.67 -0.68 0.34 0 0 Z " fill="#84838B" transform="translate(113,326)"/>
<path d="M0 0 C1.98 0 3.96 0 6 0 C6 0.66 6 1.32 6 2 C5.34 2 4.68 2 4 2 C4 4.31 4 6.62 4 9 C3.34 9 2.68 9 2 9 C2 6.69 2 4.38 2 2 C1.34 2 0.68 2 0 2 C0 1.34 0 0.68 0 0 Z " fill="#B4B8A7" transform="translate(299,197)"/>
<path d="M0 0 C1.98 0.495 1.98 0.495 4 1 C3.67 2.65 3.34 4.3 3 6 C1.68 5.67 0.36 5.34 -1 5 C-0.67 3.35 -0.34 1.7 0 0 Z " fill="#FDFADE" transform="translate(302,183)"/>
<path d="M0 0 C0.33 0 0.66 0 1 0 C1 1.98 1 3.96 1 6 C2.65 6.33 4.3 6.66 6 7 C6 7.66 6 8.32 6 9 C3.03 9 0.06 9 -3 9 C-2.01 8.67 -1.02 8.34 0 8 C0 5.36 0 2.72 0 0 Z " fill="#B1DDAA" transform="translate(32,72)"/>
<path d="M0 0 C0.99 0 1.98 0 3 0 C4.125 3.75 4.125 3.75 3 6 C1.68 5.67 0.36 5.34 -1 5 C-0.67 3.35 -0.34 1.7 0 0 Z " fill="#A6A3A0" transform="translate(114,314)"/>
<path d="M0 0 C2.475 0.495 2.475 0.495 5 1 C5 2.32 5 3.64 5 5 C3.35 5 1.7 5 0 5 C0 3.35 0 1.7 0 0 Z " fill="#FBF8CC" transform="translate(310,215)"/>
<path d="M0 0 C0 4.24645065 -1.81750806 6.38524772 -4 10 C-4.33 10 -4.66 10 -5 10 C-5.36768802 4.48467967 -5.36768802 4.48467967 -3.625 2.1875 C-2 1 -2 1 0 0 Z " fill="#23C0E8" transform="translate(223,202)"/>
<path d="M0 0 C1.98 0.495 1.98 0.495 4 1 C3.67 2.65 3.34 4.3 3 6 C1.68 5.34 0.36 4.68 -1 4 C-0.67 2.68 -0.34 1.36 0 0 Z " fill="#9FCC91" transform="translate(41,86)"/>
<path d="M0 0 C2.31 0 4.62 0 7 0 C5.68 0.33 4.36 0.66 3 1 C3 3.64 3 6.28 3 9 C2.01 8.67 1.02 8.34 0 8 C0.185625 7.236875 0.37125 6.47375 0.5625 5.6875 C1.22819173 2.91032625 1.22819173 2.91032625 0 0 Z " fill="#DFE2AB" transform="translate(125,83)"/>
<path d="M0 0 C1.32 0 2.64 0 4 0 C4.33 0.99 4.66 1.98 5 3 C4.67 3.66 4.34 4.32 4 5 C2.35 4.67 0.7 4.34 -1 4 C-0.67 2.68 -0.34 1.36 0 0 Z " fill="#23FA7D" transform="translate(25,79)"/>
<path d="M0 0 C1.32 0.33 2.64 0.66 4 1 C4 2.65 4 4.3 4 6 C2.68 6 1.36 6 0 6 C0 4.02 0 2.04 0 0 Z " fill="#9F9D9C" transform="translate(102,314)"/>
<path d="M0 0 C1.32 0 2.64 0 4 0 C4 1.65 4 3.3 4 5 C2.68 5.33 1.36 5.66 0 6 C0 4.02 0 2.04 0 0 Z " fill="#F6F6E0" transform="translate(363,199)"/>
<path d="M0 0 C2.64 0 5.28 0 8 0 C6.68 0.33 5.36 0.66 4 1 C4 2.98 4 4.96 4 7 C3.34 6.01 2.68 5.02 2 4 C1.01 3.67 0.02 3.34 -1 3 C-0.67 2.01 -0.34 1.02 0 0 Z " fill="#F7F9E2" transform="translate(48,83)"/>
<path d="M0 0 C2.33333333 0 4.66666667 0 7 0 C6.67 1.65 6.34 3.3 6 5 C4.33333333 5 2.66666667 5 1 5 C0.67 3.35 0.34 1.7 0 0 Z " fill="#78B55F" transform="translate(78,74)"/>
<path d="M0 0 C1.65 0.33 3.3 0.66 5 1 C4.34 2.32 3.68 3.64 3 5 C1.68 4.34 0.36 3.68 -1 3 C-0.67 2.01 -0.34 1.02 0 0 Z " fill="#626DAE" transform="translate(25,320)"/>
<path d="M0 0 C2.31 0 4.62 0 7 0 C6.67 0.99 6.34 1.98 6 3 C4.68 2.67 3.36 2.34 2 2 C2 3.32 2 4.64 2 6 C1.34 6 0.68 6 0 6 C0 4.02 0 2.04 0 0 Z " fill="#A3A19F" transform="translate(67,314)"/>
<path d="M0 0 C2.475 0.495 2.475 0.495 5 1 C4.67 2.65 4.34 4.3 4 6 C3.01 5.67 2.02 5.34 1 5 C0.67 3.35 0.34 1.7 0 0 Z " fill="#B0AEA8" transform="translate(56,314)"/>
<path d="M0 0 C0.99 0.33 1.98 0.66 3 1 C3 3.31 3 5.62 3 8 C2.67 6.68 2.34 5.36 2 4 C1.34 4 0.68 4 0 4 C-0.33 5.32 -0.66 6.64 -1 8 C-1.04241723 5.66705225 -1.04092937 3.33297433 -1 1 C-0.67 0.67 -0.34 0.34 0 0 Z " fill="#8EACBA" transform="translate(33,212)"/>
<path d="M0 0 C1.32 0.66 2.64 1.32 4 2 C3.67 2.99 3.34 3.98 3 5 C1.35 4.67 -0.3 4.34 -2 4 C-1.34 2.68 -0.68 1.36 0 0 Z " fill="#18BEE7" transform="translate(26,207)"/>
<path d="M0 0 C2.8125 -0.1875 2.8125 -0.1875 6 0 C6.99 0.99 7.98 1.98 9 3 C5.37 3 1.74 3 -2 3 C-1.34 2.67 -0.68 2.34 0 2 C0 1.34 0 0.68 0 0 Z " fill="#F6F5E6" transform="translate(107,206)"/>
<path d="M0 0 C1.98 0.495 1.98 0.495 4 1 C4 2.32 4 3.64 4 5 C2.68 5.33 1.36 5.66 0 6 C0 4 0 2 0 0 Z " fill="#999799" transform="translate(32,327)"/>
<path d="M0 0 C1.98 0.495 1.98 0.495 4 1 C3.67 2.32 3.34 3.64 3 5 C1.68 5 0.36 5 -1 5 C-0.67 3.35 -0.34 1.7 0 0 Z " fill="#A3A1A0" transform="translate(68,327)"/>
<path d="M0 0 C1.98 0.495 1.98 0.495 4 1 C3.67 2.32 3.34 3.64 3 5 C1.68 4.67 0.36 4.34 -1 4 C-0.67 2.68 -0.34 1.36 0 0 Z " fill="#9FB9C5" transform="translate(41,202)"/>
<path d="M0 0 C0.66 0 1.32 0 2 0 C2 2.64 2 5.28 2 8 C1.01 7.67 0.02 7.34 -1 7 C-1.8125 5.125 -1.8125 5.125 -2 3 C-1.34 2.01 -0.68 1.02 0 0 Z " fill="#ABAFA3" transform="translate(358,198)"/>
<path d="M0 0 C1.32 0 2.64 0 4 0 C4 2.31 4 4.62 4 7 C3.01 7 2.02 7 1 7 C1.020625 6.21625 1.04125 5.4325 1.0625 4.625 C1.18684063 2.01885039 1.18684063 2.01885039 0 0 Z " fill="#AEC2C8" transform="translate(89,200)"/>
<path d="M0 0 C2.31 0 4.62 0 7 0 C7 0.66 7 1.32 7 2 C6.01 2 5.02 2 4 2 C4 4.31 4 6.62 4 9 C3.67 9 3.34 9 3 9 C3 6.69 3 4.38 3 2 C2.01 2 1.02 2 0 2 C0 1.34 0 0.68 0 0 Z " fill="#A9ADA0" transform="translate(331,197)"/>
<path d="M0 0 C1.98 0.495 1.98 0.495 4 1 C3.67 2.32 3.34 3.64 3 5 C1.68 4.67 0.36 4.34 -1 4 C-0.67 2.68 -0.34 1.36 0 0 Z " fill="#92BF6E" transform="translate(114,74)"/>
<path d="M0 0 C0.66 0 1.32 0 2 0 C2 0.66 2 1.32 2 2 C2.99 2 3.98 2 5 2 C5 3.65 5 5.3 5 7 C4.67 5.68 4.34 4.36 4 3 C3.34 3 2.68 3 2 3 C2 4.32 2 5.64 2 7 C1.34 7 0.68 7 0 7 C0 4.69 0 2.38 0 0 Z " fill="#81B962" transform="translate(107,72)"/>
<path d="M0 0 C1.98 0.495 1.98 0.495 4 1 C3.67 2.65 3.34 4.3 3 6 C1.68 5.34 0.36 4.68 -1 4 C-0.67 2.68 -0.34 1.36 0 0 Z " fill="#84BA65" transform="translate(90,86)"/>
<path d="M0 0 C1.32 0 2.64 0 4 0 C4 1.65 4 3.3 4 5 C2.35 4.67 0.7 4.34 -1 4 C-0.67 2.68 -0.34 1.36 0 0 Z " fill="#89C07A" transform="translate(37,74)"/>
<path d="M0 0 C1.98 0.495 1.98 0.495 4 1 C4 2.32 4 3.64 4 5 C2.35 5 0.7 5 -1 5 C-0.67 3.35 -0.34 1.7 0 0 Z " fill="#929093" transform="translate(82,327)"/>
<path d="M0 0 C2.97 0.495 2.97 0.495 6 1 C5.67 2.32 5.34 3.64 5 5 C4.34 5 3.68 5 3 5 C3 3.68 3 2.36 3 1 C2.34 1 1.68 1 1 1 C0.67 2.32 0.34 3.64 0 5 C0 3.35 0 1.7 0 0 Z " fill="#969497" transform="translate(37,327)"/>
<path d="M0 0 C1.98 0 3.96 0 6 0 C5.67 1.32 5.34 2.64 5 4 C3.0625 3.6875 3.0625 3.6875 1 3 C0.67 2.01 0.34 1.02 0 0 Z " fill="#D7F6FD" transform="translate(223,218)"/>
<path d="M0 0 C1.98 0.495 1.98 0.495 4 1 C3.67 2.32 3.34 3.64 3 5 C1.68 4.67 0.36 4.34 -1 4 C-0.67 2.68 -0.34 1.36 0 0 Z " fill="#7C9EAF" transform="translate(152,202)"/>
<path d="M0 0 C0.99 0.33 1.98 0.66 3 1 C3 2.65 3 4.3 3 6 C1.68 6 0.36 6 -1 6 C-1.042721 4.33388095 -1.04063832 2.66617115 -1 1 C-0.67 0.67 -0.34 0.34 0 0 Z " fill="#7DB65F" transform="translate(129,73)"/>
<path d="M0 0 C-0.99 0.33 -1.98 0.66 -3 1 C-2.67 1.99 -2.34 2.98 -2 4 C-3.65 4 -5.3 4 -7 4 C-7 3.01 -7 2.02 -7 1 C-4.53721199 -0.231394 -2.7204945 -0.07159196 0 0 Z " fill="#D8D5C0" transform="translate(127,327)"/>
<path d="M0 0 C0.99 0 1.98 0 3 0 C3 1.98 3 3.96 3 6 C1.68 5.67 0.36 5.34 -1 5 C-0.67 3.35 -0.34 1.7 0 0 Z " fill="#929095" transform="translate(49,314)"/>
<path d="M0 0 C0.99 0 1.98 0 3 0 C2.67 2.31 2.34 4.62 2 7 C1.01 7 0.02 7 -1 7 C-1 5.68 -1 4.36 -1 3 C-0.34 3 0.32 3 1 3 C0.67 2.01 0.34 1.02 0 0 Z " fill="#9C9A99" transform="translate(147,314)"/>
<path d="M0 0 C0.99 0.33 1.98 0.66 3 1 C3 2.65 3 4.3 3 6 C1.68 5.67 0.36 5.34 -1 5 C-0.67 3.35 -0.34 1.7 0 0 Z " fill="#8D8B91" transform="translate(63,314)"/>
<path d="M0 0 C0.33 0 0.66 0 1 0 C1.103125 0.94875 1.20625 1.8975 1.3125 2.875 C1.68539295 6.29107501 1.68539295 6.29107501 5 8 C2.36 8 -0.28 8 -3 8 C-2.67 7.34 -2.34 6.68 -2 6 C-1.34 6 -0.68 6 0 6 C0 4.02 0 2.04 0 0 Z " fill="#F2F1E4" transform="translate(120,201)"/>
<path d="M0 0 C2.475 0.495 2.475 0.495 5 1 C5.33 1.99 5.66 2.98 6 4 C4.35 4 2.7 4 1 4 C0.67 2.68 0.34 1.36 0 0 Z " fill="#C7C9B6" transform="translate(339,197)"/>
<path d="M0 0 C2.33944736 0.28730055 4.6739143 0.61936779 7 1 C5.6875 3 5.6875 3 4 5 C3.01 5 2.02 5 1 5 C0.34 3.68 -0.32 2.36 -1 1 C-0.67 0.67 -0.34 0.34 0 0 Z " fill="#E6E4D3" transform="translate(157,176)"/>
<path d="M0 0 C1.98 0 3.96 0 6 0 C6 0.99 6 1.98 6 3 C4.02 3 2.04 3 0 3 C0 2.01 0 1.02 0 0 Z " fill="#C3FDDA" transform="translate(271,116)"/>
<path d="M0 0 C1.5625 1.125 1.5625 1.125 3 3 C2.6875 6.1875 2.6875 6.1875 2 9 C1.34 8.67 0.68 8.34 0 8 C0 5.36 0 2.72 0 0 Z " fill="#C1BFB5" transform="translate(57,325)"/>
<path d="M0 0 C0.99 0 1.98 0 3 0 C3 1.65 3 3.3 3 5 C1.68 5 0.36 5 -1 5 C-0.67 3.35 -0.34 1.7 0 0 Z " fill="#929094" transform="translate(101,327)"/>
<path d="M0 0 C0.66 0 1.32 0 2 0 C2 2.31 2 4.62 2 7 C0.68 6.67 -0.64 6.34 -2 6 C-1.34 4.02 -0.68 2.04 0 0 Z " fill="#A19E9D" transform="translate(159,313)"/>
</svg>
