<?xml version="1.0" encoding="UTF-8"?>
<svg version="1.1" xmlns="http://www.w3.org/2000/svg" width="400" height="400">
<path d="M0 0 C132 0 264 0 400 0 C400 132 400 264 400 400 C268 400 136 400 0 400 C0 268 0 136 0 0 Z " fill="#E7EDF5" transform="translate(0,0)"/>
<path d="M0 0 C0 47.52 0 95.04 0 144 C-112.2 144 -224.4 144 -340 144 C-340 116.61 -340 89.22 -340 61 C-332.90120216 55.83723793 -326.44157779 51.26939675 -318.75 47.3125 C-317.84467529 46.84336182 -316.93935059 46.37422363 -316.0065918 45.89086914 C-298.03372802 36.78442742 -275.3847424 30.44102804 -255.3359375 36.1328125 C-251.40440485 37.46820553 -247.72153684 39.16251765 -244 41 C-243.02160156 41.45632812 -242.04320312 41.91265625 -241.03515625 42.3828125 C-231.840257 47.00005029 -223.98810196 53.68555094 -216.109375 60.21875 C-198.5221826 74.77837646 -183.63408821 84.96155819 -160 84 C-157.14855203 83.66621847 -154.68737766 82.99532506 -152 82 C-150.65228516 81.53980469 -150.65228516 81.53980469 -149.27734375 81.0703125 C-133.65929829 75.22614065 -121.8483176 62.95511849 -110.32470703 51.30810547 C-106.98610097 47.94578312 -103.57102117 44.7494548 -99.95703125 41.6875 C-98.57053789 40.49196081 -97.2164087 39.25841267 -95.88671875 38 C-69.72464907 13.37687559 -35.852368 0 0 0 Z " fill="#58508D" transform="translate(370,128)"/>
<path d="M0 0 C0 47.52 0 95.04 0 144 C-44.88 144 -89.76 144 -136 144 C-136.268125 132.65625 -136.53625 121.3125 -136.8125 109.625 C-136.93085205 106.06154785 -137.0492041 102.4980957 -137.17114258 98.82666016 C-137.2298584 94.4284668 -137.2298584 94.4284668 -137.24076843 92.36044312 C-137.26055711 90.93534355 -137.30592937 89.5104437 -137.3724823 88.08676147 C-137.89119588 76.39182159 -137.89119588 76.39182159 -134.73782921 72.40371513 C-132.13241168 69.9206769 -129.30837266 67.94674294 -126.25878906 66.04933167 C-121.56915826 63.10019666 -117.99733044 59.29198407 -114.1875 55.3125 C-109.53360396 50.50974933 -104.84233185 45.88381968 -99.76635742 41.52563477 C-97.63575564 39.68539558 -95.60634446 37.74816366 -93.5625 35.8125 C-67.56608074 12.58165726 -34.81421481 0 0 0 Z " fill="#FEA601" transform="translate(370,128)"/>
<path d="M0 0 C0 35.97 0 71.94 0 109 C-22.44 109 -44.88 109 -68 109 C-68.4411969 88.60689872 -68.4411969 88.60689872 -68.53710938 79.88671875 C-68.60277218 73.94502171 -68.68027729 68.00519613 -68.82983398 62.06494141 C-68.94971598 57.27312825 -69.01519644 52.48332189 -69.04364967 47.69012451 C-69.06391333 45.86546226 -69.10348957 44.04090517 -69.16303062 42.21710205 C-69.6099564 27.95480616 -69.6099564 27.95480616 -65.65866089 23.15715027 C-62.85021404 21.07583074 -60.14609298 19.51067518 -57 18 C-55.28253623 17.00281848 -53.56831731 15.99999711 -51.859375 14.98828125 C-50.16286479 14.08383568 -48.45958233 13.19198675 -46.75 12.3125 C-45.84467529 11.84336182 -44.93935059 11.37422363 -44.0065918 10.89086914 C-29.68662832 3.635269 -16.18421177 0 0 0 Z " fill="#013F5C" transform="translate(98,163)"/>
<path d="M0 0 C0 41.58 0 83.16 0 126 C-22.44 126 -44.88 126 -68 126 C-68.52141452 108.93147336 -68.52141452 108.93147336 -68.63476562 101.60546875 C-68.7122347 96.62233572 -68.80342708 91.64233267 -68.98071289 86.66162109 C-69.12290605 82.64124021 -69.19987213 78.62421546 -69.23340416 74.60151291 C-69.25726605 73.0741426 -69.30387486 71.54693877 -69.37449074 70.02101517 C-69.89083771 58.39136862 -69.89083771 58.39136862 -66.73782921 54.40371513 C-64.13241168 51.9206769 -61.30837266 49.94674294 -58.25878906 48.04933167 C-53.56915826 45.10019666 -49.99733044 41.29198407 -46.1875 37.3125 C-41.53360396 32.50974933 -36.84233185 27.88381968 -31.76635742 23.52563477 C-29.63575564 21.68539558 -27.60634446 19.74816366 -25.5625 17.8125 C-5.90414508 0 -5.90414508 0 0 0 Z " fill="#FE6361" transform="translate(302,146)"/>
<path d="M0 0 C3.78386482 1.51354593 6.03394085 2.59118418 9.1875 4.875 C20.54743934 12.63161968 32.83190718 14.30730183 46.3359375 12.7265625 C53.85842416 11.04431865 61.14368936 7.42815532 68 4 C68 26.77 68 49.54 68 73 C45.56 73 23.12 73 0 73 C0 48.91 0 24.82 0 0 Z " fill="#BC5090" transform="translate(166,199)"/>
<path d="M0 0 C4.0743356 0.84881992 5.54405875 2.30225596 8 5.625 C8.70960213 9.40954468 8.27801176 11.09214413 6.5 14.5 C3.47084317 17.07478331 1.79349229 17.37045844 -2.09375 17.109375 C-4 16.625 -4 16.625 -6.5 14.5 C-8.27801176 11.09214413 -8.70960213 9.40954468 -8 5.625 C-5.54405875 2.30225596 -4.0743356 0.84881992 0 0 Z " fill="#FEEFD3" transform="translate(336,220.375)"/>
<path d="M0 0 C2.66589042 0.54323805 3.75768995 0.96351964 5.875 2.75 C7.2001184 5.8143363 7.34822484 7.7499261 6.875 11.0625 C5.375 13.9375 5.375 13.9375 2.875 16.0625 C0.0520404 16.77980941 -2.3020404 16.77980941 -5.125 16.0625 C-8.11597304 13.52017292 -8.96702557 11.9050303 -9.6875 8.0625 C-8.65672577 2.56503742 -5.64140818 -0.43715709 0 0 Z " fill="#BD5392" transform="translate(201.125,220.9375)"/>
<path d="M0 0 C2.66589042 0.54323805 3.75768995 0.96351964 5.875 2.75 C7.2001184 5.8143363 7.34822484 7.7499261 6.875 11.0625 C5.375 13.9375 5.375 13.9375 2.875 16.0625 C0.0520404 16.77980941 -2.3020404 16.77980941 -5.125 16.0625 C-8.11597304 13.52017292 -8.96702557 11.9050303 -9.6875 8.0625 C-8.65672577 2.56503742 -5.64140818 -0.43715709 0 0 Z " fill="#0A425F" transform="translate(65.125,220.9375)"/>
<path d="M0 0 C2.66589042 0.54323805 3.75768995 0.96351964 5.875 2.75 C7.21538506 5.84964046 7.42167869 7.71409302 6.875 11.0625 C4.24288535 14.73150829 2.78645674 15.90259531 -1.6875 16.6875 C-5.125 16.0625 -5.125 16.0625 -7.5625 13.9375 C-9.41555839 10.52787255 -9.84088388 8.88054737 -9.125 5.0625 C-6.50620524 1.2161452 -4.62486834 -0.35838463 0 0 Z " fill="#E4E1ED" transform="translate(133.125,220.9375)"/>
<path d="M0 0 C2.66589042 0.54323805 3.75768995 0.96351964 5.875 2.75 C7.2001184 5.8143363 7.34822484 7.7499261 6.875 11.0625 C5.1875 13.9375 5.1875 13.9375 2.875 16.0625 C0.125 16.375 0.125 16.375 -2.125 16.0625 C-1.795 15.4025 -1.465 14.7425 -1.125 14.0625 C-0.465 14.0625 0.195 14.0625 0.875 14.0625 C0.875 13.4025 0.875 12.7425 0.875 12.0625 C-0.115 11.7325 -1.105 11.4025 -2.125 11.0625 C-1.465 9.4125 -0.805 7.7625 -0.125 6.0625 C-1.115 6.5575 -1.115 6.5575 -2.125 7.0625 C-2.53229228 9.38406597 -2.86938677 11.7193787 -3.125 14.0625 C-4.445 14.0625 -5.765 14.0625 -7.125 14.0625 C-7.125 13.4025 -7.125 12.7425 -7.125 12.0625 C-7.785 12.0625 -8.445 12.0625 -9.125 12.0625 C-9.54379914 7.79074881 -9.54100723 5.68651085 -7.125 2.0625 C-4.05807963 0.01788642 -3.45606293 -0.26143649 0 0 Z " fill="#FE8482" transform="translate(269.125,220.9375)"/>
<path d="M0 0 C1.670625 0.2475 1.670625 0.2475 3.375 0.5 C9.51521206 1.26073424 15.56550857 1.3713631 21.6875 0.4375 C25.34635858 -0.04574547 28.38488899 0.33600002 32 1 C31.67 2.32 31.34 3.64 31 5 C25 5 19 5 13 5 C11.33034549 5.31802943 9.66321482 5.64984951 8 6 C8 5.01 8 4.02 8 3 C7.67 3.66 7.34 4.32 7 5 C4.69 5 2.38 5 0 5 C0 3.35 0 1.7 0 0 Z " fill="#FEAEAD" transform="translate(252,245)"/>
<path d="M0 0 C1.875 1.125 1.875 1.125 3 3 C3.3125 6.0625 3.3125 6.0625 3 9 C2.34 9.66 1.68 10.32 1 11 C1 10.01 1 9.02 1 8 C-1.31 8 -3.62 8 -6 8 C-6 8.66 -6 9.32 -6 10 C-5.01 10.33 -4.02 10.66 -3 11 C-4.32 11.33 -5.64 11.66 -7 12 C-9.31282587 8.53076119 -9.42478586 7.07794425 -9 3 C-6.79086995 -0.68188342 -4.01844539 -0.50230567 0 0 Z " fill="#58518E" transform="translate(135,223)"/>
<path d="M0 0 C2.66589042 0.54323805 3.75768995 0.96351964 5.875 2.75 C7.2001184 5.8143363 7.34822484 7.7499261 6.875 11.0625 C5.375 13.9375 5.375 13.9375 2.875 16.0625 C0.0520404 16.77980941 -2.3020404 16.77980941 -5.125 16.0625 C-8.11597304 13.52017292 -8.96702557 11.9050303 -9.6875 8.0625 C-8.65672577 2.56503742 -5.64140818 -0.43715709 0 0 Z M-6 3.1875 C-7.63651479 5.91502465 -7.45002803 7.94223093 -7.125 11.0625 C-5.53558594 14.203414 -5.53558594 14.203414 -3.25 14.4609375 C-2.54875 14.45320312 -1.8475 14.44546875 -1.125 14.4375 C-0.073125 14.44910156 -0.073125 14.44910156 1 14.4609375 C3.28558594 14.203414 3.28558594 14.203414 4.875 11.0625 C5.20002803 7.94223093 5.38651479 5.91502465 3.75 3.1875 C0.48052691 1.22581614 -2.73052691 1.22581614 -6 3.1875 Z " fill="#F0DCE9" transform="translate(201.125,220.9375)"/>
<path d="M0 0 C2.66589042 0.54323805 3.75768995 0.96351964 5.875 2.75 C7.2001184 5.8143363 7.34822484 7.7499261 6.875 11.0625 C5.375 13.9375 5.375 13.9375 2.875 16.0625 C0.0520404 16.77980941 -2.3020404 16.77980941 -5.125 16.0625 C-8.11597304 13.52017292 -8.96702557 11.9050303 -9.6875 8.0625 C-8.65672577 2.56503742 -5.64140818 -0.43715709 0 0 Z M-6 3.125 C-7.74473477 6.12982099 -7.43335443 8.67060131 -7.125 12.0625 C-4.79971713 14.38778287 -4.27834102 14.35761025 -1.125 14.375 C-0.073125 14.40013672 -0.073125 14.40013672 1 14.42578125 C1.61875 14.30589844 2.2375 14.18601563 2.875 14.0625 C5.18782587 10.59326119 5.29978586 9.14044425 4.875 5.0625 C3.875 3.0625 3.875 3.0625 1.875 2.0625 C-1.24311483 1.67273565 -3.23519567 1.55827755 -6 3.125 Z " fill="#CDDAE1" transform="translate(65.125,220.9375)"/>
<path d="M0 0 C0.639375 0.165 1.27875 0.33 1.9375 0.5 C4.04582216 1.24598544 4.04582216 1.24598544 6 0 C8.3400417 0.28241883 10.67504723 0.61250787 13 1 C13 2.98 13 4.96 13 7 C12.00419922 6.49339844 12.00419922 6.49339844 10.98828125 5.9765625 C7.26524855 4.75988515 4.01637862 5.00860013 0.1875 5.375 C-0.50537109 5.43171875 -1.19824219 5.4884375 -1.91210938 5.546875 C-3.60898446 5.68730604 -5.30465248 5.84219407 -7 6 C-7 4.35 -7 2.7 -7 1 C-5.5459375 1.0309375 -5.5459375 1.0309375 -4.0625 1.0625 C-1.12534105 1.35618499 -1.12534105 1.35618499 0 0 Z " fill="#D798BE" transform="translate(202,245)"/>
<path d="M0 0 C2.66589042 0.54323805 3.75768995 0.96351964 5.875 2.75 C7.2001184 5.8143363 7.34822484 7.7499261 6.875 11.0625 C5.1875 13.9375 5.1875 13.9375 2.875 16.0625 C0.125 16.375 0.125 16.375 -2.125 16.0625 C-1.795 15.4025 -1.465 14.7425 -1.125 14.0625 C0.20833333 13.72916667 1.54166667 13.39583333 2.875 13.0625 C4.25625018 10.29999964 4.06579306 8.11518901 3.875 5.0625 C1.98999729 2.74686913 1.98999729 2.74686913 -1.125 2.8125 C-4.23999729 2.74686913 -4.23999729 2.74686913 -6.125 5.0625 C-6.52264263 7.05071313 -6.86275349 9.05194339 -7.125 11.0625 C-7.785 11.0625 -8.445 11.0625 -9.125 11.0625 C-9.58484455 7.10783686 -9.39992364 5.46629409 -7.125 2.125 C-4.04858511 0.00996476 -3.49178532 -0.27058115 0 0 Z " fill="#FDE0DF" transform="translate(269.125,220.9375)"/>
<path d="M0 0 C1.13888672 0.10828125 1.13888672 0.10828125 2.30078125 0.21875 C3.29464844 0.3115625 4.28851563 0.404375 5.3125 0.5 C6.79169922 0.63921875 6.79169922 0.63921875 8.30078125 0.78125 C11.8071274 1.06541119 14.62387699 0.93134428 18 0 C18 1.65 18 3.3 18 5 C12 5 6 5 0 5 C0 3.35 0 1.7 0 0 Z " fill="#7699A9" transform="translate(55,245)"/>
<path d="M0 0 C-0.33 1.32 -0.66 2.64 -1 4 C-6.28 4 -11.56 4 -17 4 C-17 3.34 -17 2.68 -17 2 C-10.81546992 -0.81115003 -6.65941972 -1.27947184 0 0 Z " fill="#FEA7A6" transform="translate(284,246)"/>
<path d="M0 0 C2.375 2 2.375 2 4 4 C3 5 3 5 0.27734375 5.09765625 C-1.37587891 5.08025391 -1.37587891 5.08025391 -3.0625 5.0625 C-4.71958984 5.04896484 -4.71958984 5.04896484 -6.41015625 5.03515625 C-7.26480469 5.02355469 -8.11945313 5.01195312 -9 5 C-9 4.01 -9 3.02 -9 2 C-5.50875983 -0.32749345 -4.10777749 -0.50299316 0 0 Z " fill="#FDE9C5" transform="translate(339,221)"/>
<path d="M0 0 C3.875 0.875 3.875 0.875 5 2 C5.26293056 6.03160191 5.29404844 7.55892734 3 11 C-0.625 11.1875 -0.625 11.1875 -4 11 C-3.34 10.34 -2.68 9.68 -2 9 C-0.68 9 0.64 9 2 9 C2 8.34 2 7.68 2 7 C0.02 7 -1.96 7 -4 7 C-4.33 6.34 -4.66 5.68 -5 5 C-2.36 5 0.28 5 3 5 C3 4.01 3 3.02 3 2 C2.01 2 1.02 2 0 2 C0 1.34 0 0.68 0 0 Z " fill="#BC5191" transform="translate(201,224)"/>
<path d="M0 0 C2.64 0 5.28 0 8 0 C8.33 0.66 8.66 1.32 9 2 C9.33 1.34 9.66 0.68 10 0 C11.65 0 13.3 0 15 0 C14.34 1.32 13.68 2.64 13 4 C11.906875 3.979375 10.81375 3.95875 9.6875 3.9375 C6.05615809 3.81455548 6.05615809 3.81455548 3 5 C3 4.01 3 3.02 3 2 C2.67 2.66 2.34 3.32 2 4 C1.34 4 0.68 4 0 4 C0 2.68 0 1.36 0 0 Z " fill="#FDCF79" transform="translate(330,246)"/>
<path d="M0 0 C3.66666667 0 7.33333333 0 11 0 C11.625 1.8125 11.625 1.8125 12 4 C11.01 5.485 11.01 5.485 10 7 C7.375 7.1875 7.375 7.1875 5 7 C6.32 5.68 7.64 4.36 9 3 C8.1028125 3.2784375 8.1028125 3.2784375 7.1875 3.5625 C5 4 5 4 2 3 C1.67 3.99 1.34 4.98 1 6 C0.67 4.02 0.34 2.04 0 0 Z " fill="#FEAA18" transform="translate(330,228)"/>
<path d="M0 0 C1.22589844 0.01353516 1.22589844 0.01353516 2.4765625 0.02734375 C3.41628906 0.04474609 3.41628906 0.04474609 4.375 0.0625 C3.6015625 1.984375 3.6015625 1.984375 2.375 4.0625 C-1.25 5.3125 -1.25 5.3125 -4.625 6.0625 C-5.285 5.4025 -5.945 4.7425 -6.625 4.0625 C-6.625 3.0725 -6.625 2.0825 -6.625 1.0625 C-4.21954362 -0.14022819 -2.67503047 -0.03821472 0 0 Z " fill="#9E9ABD" transform="translate(136.625,245.9375)"/>
<path d="M0 0 C1.98 0 3.96 0 6 0 C5.67 0.99 5.34 1.98 5 3 C5.66 3 6.32 3 7 3 C7 3.99 7 4.98 7 6 C4.36 6 1.72 6 -1 6 C-1 5.01 -1 4.02 -1 3 C-0.34 3 0.32 3 1 3 C0.67 2.01 0.34 1.02 0 0 Z " fill="#7B74A5" transform="translate(129,223)"/>
<path d="M0 0 C0.99 0 1.98 0 3 0 C3 0.99 3 1.98 3 3 C3.66 3 4.32 3 5 3 C5 2.34 5 1.68 5 1 C6.32 1 7.64 1 9 1 C8.67 2.32 8.34 3.64 8 5 C5.36 5 2.72 5 0 5 C0 3.35 0 1.7 0 0 Z " fill="#DBA4C5" transform="translate(185,245)"/>
<path d="M0 0 C0.66 0.66 1.32 1.32 2 2 C3.34262065 1.70630173 4.67696283 1.3721042 6 1 C6.66 1.33 7.32 1.66 8 2 C8 2.99 8 3.98 8 5 C1.25 5.125 1.25 5.125 -1 4 C-0.67 2.68 -0.34 1.36 0 0 Z " fill="#FDCF78" transform="translate(321,245)"/>
<path d="M0 0 C2.31 0 4.62 0 7 0 C7 1.32 7 2.64 7 4 C5.02 4.33 3.04 4.66 1 5 C1.33 4.34 1.66 3.68 2 3 C1.34 2.67 0.68 2.34 0 2 C0 1.34 0 0.68 0 0 Z " fill="#9E9ABD" transform="translate(129,231)"/>
<path d="M0 0 C-2.87164566 2.70272533 -4.30991841 3.94791837 -8.3125 4.25 C-9.199375 4.1675 -10.08625 4.085 -11 4 C-11 3.34 -11 2.68 -11 2 C-9.73392393 1.46770674 -8.46189588 0.94955456 -7.1875 0.4375 C-6.47980469 0.14746094 -5.77210938 -0.14257812 -5.04296875 -0.44140625 C-3 -1 -3 -1 0 0 Z " fill="#FE9190" transform="translate(278,246)"/>
<path d="M0 0 C4.62 0 9.24 0 14 0 C14 0.66 14 1.32 14 2 C9.73383684 3.13764351 6.43513689 4 2 4 C2 3.34 2 2.68 2 2 C1.34 2 0.68 2 0 2 C0 1.34 0 0.68 0 0 Z " fill="#FEFAF4" transform="translate(329,225)"/>
<path d="M0 0 C1.875 0.3125 1.875 0.3125 4 1 C6.30163882 4.45245824 6.34490322 5.94738713 6 10 C5.34 10.66 4.68 11.32 4 12 C3 10 3 10 3.125 7.125 C2.98576901 3.64422534 2.31585666 2.50884471 0 0 Z " fill="#DEDBE8" transform="translate(134,222)"/>
<path d="M0 0 C2.31 0 4.62 0 7 0 C6.67 1.65 6.34 3.3 6 5 C3.03 4.505 3.03 4.505 0 4 C0 2.68 0 1.36 0 0 Z " fill="#FECF7B" transform="translate(332,231)"/>
<path d="M0 0 C2.64 0.66 5.28 1.32 8 2 C8 2.66 8 3.32 8 4 C5.69 4.66 3.38 5.32 1 6 C-0.0625 4.125 -0.0625 4.125 -1 2 C-0.67 1.34 -0.34 0.68 0 0 Z " fill="#D697BC" transform="translate(195,229)"/>
<path d="M0 0 C3 -0.375 3 -0.375 6 0 C6.66 0.99 7.32 1.98 8 3 C4.7 3 1.4 3 -2 3 C-1.34 2.01 -0.68 1.02 0 0 Z " fill="#FEAA13" transform="translate(333,223)"/>
<path d="M0 0 C0.66 0 1.32 0 2 0 C2.33 1.32 2.66 2.64 3 4 C2.01 3.67 1.02 3.34 0 3 C0 2.01 0 1.02 0 0 Z M1 4 C1.66 5.32 2.32 6.64 3 8 C2.01 8.33 1.02 8.66 0 9 C0 8.34 0 7.68 0 7 C-0.99 6.67 -1.98 6.34 -3 6 C-1.68 5.34 -0.36 4.68 1 4 Z " fill="#FEA9A7" transform="translate(270,226)"/>
<path d="M0 0 C0.66 0 1.32 0 2 0 C2 1.98 2 3.96 2 6 C-0.31 6.33 -2.62 6.66 -5 7 C-5 6.34 -5 5.68 -5 5 C-3.35 4.67 -1.7 4.34 0 4 C0 2.68 0 1.36 0 0 Z " fill="#B1C4CF" transform="translate(66,226)"/>
<path d="M0 0 C0 1.32 0 2.64 0 4 C-2.31 3.67 -4.62 3.34 -7 3 C-7 2.34 -7 1.68 -7 1 C-4.53721199 -0.231394 -2.7204945 -0.07159196 0 0 Z " fill="#FECD73" transform="translate(352,246)"/>
<path d="M0 0 C0.66 0 1.32 0 2 0 C2.33 1.65 2.66 3.3 3 5 C2.34 5 1.68 5 1 5 C0.67 5.99 0.34 6.98 0 8 C-0.66 7.67 -1.32 7.34 -2 7 C-1.34 4.69 -0.68 2.38 0 0 Z " fill="#406C83" transform="translate(60,226)"/>
<path d="M0 0 C0.99 0 1.98 0 3 0 C3 0.99 3 1.98 3 3 C4.32 3.33 5.64 3.66 7 4 C4.50935112 4.68707555 2.62113708 5 0 5 C0 3.35 0 1.7 0 0 Z " fill="#FEA3A2" transform="translate(252,245)"/>
<path d="M0 0 C0 1.98 0 3.96 0 6 C-1.32 5.34 -2.64 4.68 -4 4 C-4 3.01 -4 2.02 -4 1 C-2 0 -2 0 0 0 Z " fill="#DAA1C3" transform="translate(215,246)"/>
<path d="M0 0 C1.32 0 2.64 0 4 0 C3.67 1.65 3.34 3.3 3 5 C2.01 5 1.02 5 0 5 C0 3.35 0 1.7 0 0 Z " fill="#698FA0" transform="translate(55,245)"/>
<path d="M0 0 C0.66 0 1.32 0 2 0 C2 0.66 2 1.32 2 2 C2.99 2 3.98 2 5 2 C5 1.34 5 0.68 5 0 C5.99 0 6.98 0 8 0 C8 0.99 8 1.98 8 3 C5.36 3 2.72 3 0 3 C0 2.01 0 1.02 0 0 Z " fill="#DBA5C5" transform="translate(196,226)"/>
<path d="M0 0 C0 1.65 0 3.3 0 5 C-0.33 4.01 -0.66 3.02 -1 2 C-2.65 2.66 -4.3 3.32 -6 4 C-6.33 3.01 -6.66 2.02 -7 1 C-1.125 0 -1.125 0 0 0 Z " fill="#FEF3E1" transform="translate(344,226)"/>
</svg>
