<?xml version="1.0" encoding="UTF-8"?>
<svg version="1.1" xmlns="http://www.w3.org/2000/svg" width="400" height="400">
<path d="M0 0 C132 0 264 0 400 0 C400 132 400 264 400 400 C268 400 136 400 0 400 C0 268 0 136 0 0 Z " fill="#EAECF1" transform="translate(0,0)"/>
<path d="M0 0 C2.625 0.375 2.625 0.375 5 1 C5.625 2.875 5.625 2.875 6 5 C5.34 5.66 4.68 6.32 4 7 C3.66670956 10.11709939 3.66670956 10.11709939 3.68115234 13.83642578 C3.67110672 14.53897491 3.6610611 15.24152405 3.65071106 15.96536255 C3.61977269 18.29200406 3.60281473 20.61852996 3.5859375 22.9453125 C3.56723438 24.55672203 3.54766161 26.16812168 3.5272522 27.7795105 C3.47583438 32.0242125 3.43626052 36.2689463 3.39910889 40.51379395 C3.35912953 44.843912 3.3080096 49.17389673 3.2578125 53.50390625 C3.16093904 62.00251323 3.07657105 70.50118597 3 79 C4.6237278 78.96669083 4.6237278 78.96669083 6.28025818 78.93270874 C16.50479362 78.72958399 26.72891744 78.5798963 36.95501614 78.48187828 C42.21199871 78.42978914 47.46734681 78.35919762 52.72338867 78.24560547 C57.80045059 78.13657392 62.87594553 78.07708161 67.95408821 78.05122757 C69.8867058 78.03281568 71.81924196 77.99685794 73.75118828 77.94269943 C88.86663257 77.53599906 88.86663257 77.53599906 94.09133911 81.12139893 C96.37516541 83.6358415 98.16802793 86.14707938 100 89 C101.43204797 90.64821106 102.88771907 92.27645174 104.375 93.875 C105.10847656 94.69097656 105.84195313 95.50695312 106.59765625 96.34765625 C108.34773537 98.27985742 110.10445749 100.20415543 111.87109375 102.12109375 C112.35980957 102.6517041 112.84852539 103.18231445 113.35205078 103.72900391 C114.7396626 105.23352585 116.12953494 106.73596201 117.51953125 108.23828125 C119.77170982 110.74582495 121.89448263 113.36810329 124 116 C124.33 103.79 124.66 91.58 125 79 C136.36219359 78.65969961 147.72094975 78.38515314 159.0871067 78.22281742 C164.36632719 78.14486074 169.64185213 78.03934574 174.91894531 77.8684082 C180.02216583 77.70415712 185.12185851 77.61548976 190.22751999 77.57684135 C192.16469228 77.54934261 194.10169326 77.49563565 196.03734207 77.41404915 C211.94512717 76.77085321 211.94512717 76.77085321 218.27752686 82.29415894 C221.38046231 85.41236872 224.1200274 88.74648537 226.73000717 92.28382683 C228.24946342 94.33710617 229.90908734 96.23432697 231.625 98.125 C232.37330078 98.99511719 232.37330078 98.99511719 233.13671875 99.8828125 C237.65313185 105.01466973 242.3529385 109.98743928 247 115 C247.33 103.45 247.66 91.9 248 80 C248.66 80 249.32 80 250 80 C251.47167969 81.47753906 251.47167969 81.47753906 253.171875 83.515625 C256.74452101 87.71634736 260.46223612 91.7435201 264.25 95.75 C270.55708879 102.44952987 276.79767568 109.20344102 283 116 C284.37186543 117.49819549 285.74463266 118.99555958 287.11767578 120.49267578 C288.03300814 121.49077928 288.9480513 122.48914809 289.86279297 123.48779297 C292.22461764 126.0660971 294.59000605 128.64100328 296.9609375 131.2109375 C297.44884766 131.74074219 297.93675781 132.27054688 298.43945312 132.81640625 C299.78943793 134.28210404 301.14076745 135.74656294 302.4921875 137.2109375 C305.07500442 140.08341613 307.54558472 143.01775348 310 146 C308.63497218 148.9994145 307.06199477 151.27451643 304.8671875 153.7265625 C303.93277832 154.77118652 303.93277832 154.77118652 302.97949219 155.83691406 C299.73206726 159.38553084 296.43747004 162.88714045 293.125 166.375 C288.12262754 171.66472096 283.1721448 176.98621919 278.328125 182.421875 C274.7082823 186.43042565 271.01073606 190.36593843 267.31445312 194.30395508 C264.44597618 197.36358596 261.59517816 200.43452059 258.796875 203.55859375 C258.30171387 204.10918457 257.80655273 204.65977539 257.29638672 205.22705078 C255.9612509 206.71629365 254.63273511 208.21146396 253.3046875 209.70703125 C251.1877013 211.81325311 249.65439759 212.77475912 247 214 C244.4767373 211.33562335 241.95685345 208.66807299 239.4375 206 C238.73302734 205.25621094 238.02855469 204.51242187 237.30273438 203.74609375 C232.75219801 198.92294461 228.35281489 194.00212982 224 189 C221.03 185.7 218.06 182.4 215 179 C214.67 190.88 214.34 202.76 214 215 C184.96 215 155.92 215 126 215 C125.06807943 227.07926371 125.06807943 227.07926371 129 237 C128.625 239.125 128.625 239.125 128 241 C126.34385343 241.38218767 124.67542976 241.71395102 123 242 C122 241 122 241 121.9375 238.4375 C121.958125 237.633125 121.97875 236.82875 122 236 C122.99 235.67 123.98 235.34 125 235 C125.85696877 221.28266273 125.85696877 221.28266273 120.125 209.5 C118.43651937 207.97768731 116.72681789 206.47868277 115 205 C113.14009209 203.01751936 111.31117978 201.02525143 109.5 199 C108.57419058 197.98971655 107.64711556 196.98059133 106.71875 195.97265625 C103.4079302 192.3611744 100.13890238 188.71248446 96.875 185.05859375 C95.0673236 183.02204492 95.0673236 183.02204492 93.25 181.34765625 C92 180 92 180 92 178 C91.34 178 90.68 178 90 178 C90 190.21 90 202.42 90 215 C60.63 215 31.26 215 1 215 C1 146.36 1 77.72 1 7 C0.34 7 -0.32 7 -1 7 C-1.625 4.625 -1.625 4.625 -2 2 C-1.34 1.34 -0.68 0.68 0 0 Z " fill="#8435B7" transform="translate(50,63)"/>
<path d="M0 0 C2.625 0.375 2.625 0.375 5 1 C5.625 2.875 5.625 2.875 6 5 C5.34 5.66 4.68 6.32 4 7 C3.66670956 10.11709939 3.66670956 10.11709939 3.68115234 13.83642578 C3.67110672 14.53897491 3.6610611 15.24152405 3.65071106 15.96536255 C3.61977269 18.29200406 3.60281473 20.61852996 3.5859375 22.9453125 C3.56723438 24.55672203 3.54766161 26.16812168 3.5272522 27.7795105 C3.47583438 32.0242125 3.43626052 36.2689463 3.39910889 40.51379395 C3.35912953 44.843912 3.3080096 49.17389673 3.2578125 53.50390625 C3.16093904 62.00251323 3.07657105 70.50118597 3 79 C4.6237278 78.96669083 4.6237278 78.96669083 6.28025818 78.93270874 C16.50479362 78.72958399 26.72891744 78.5798963 36.95501614 78.48187828 C42.21199871 78.42978914 47.46734681 78.35919762 52.72338867 78.24560547 C57.80045059 78.13657392 62.87594553 78.07708161 67.95408821 78.05122757 C69.8867058 78.03281568 71.81924196 77.99685794 73.75118828 77.94269943 C88.86663257 77.53599906 88.86663257 77.53599906 94.09133911 81.12139893 C96.37516541 83.6358415 98.16802793 86.14707938 100 89 C101.43203645 90.64822107 102.88771264 92.27645772 104.375 93.875 C105.10976562 94.69226563 105.84453125 95.50953125 106.6015625 96.3515625 C108.33911264 98.27022536 110.08277222 100.18165764 111.8359375 102.0859375 C112.3201416 102.61203613 112.8043457 103.13813477 113.30322266 103.68017578 C114.67469707 105.16829263 116.04822686 106.65451444 117.421875 108.140625 C118.27265625 109.08421875 119.1234375 110.0278125 120 111 C120.86646652 111.84938141 121.73293304 112.69876282 122.62565613 113.57388306 C125.95550784 117.62006225 125.66908111 121.62721615 125.56762695 126.67724609 C125.56835709 127.63397217 125.56908722 128.59069824 125.56983948 129.57641602 C125.56636725 132.72600801 125.52752234 135.87410515 125.48828125 139.0234375 C125.47895185 141.21203809 125.47183634 143.40064914 125.46684265 145.58926392 C125.44778304 151.3401591 125.39869032 157.09041949 125.34332275 162.84106445 C125.29210841 168.71296604 125.26932389 174.58497053 125.24414062 180.45703125 C125.19057127 191.97163255 125.10527035 203.48576342 125 215 C124.21157715 214.21085205 123.4231543 213.4217041 122.61083984 212.60864258 C121.15501385 211.1540418 119.69627069 209.70229175 118.2265625 208.26171875 C114.67481681 204.77061262 111.34554276 201.16004979 108.1015625 197.3828125 C106.41544168 195.47103982 104.70431091 193.60100194 102.9609375 191.7421875 C102.42235107 191.16678223 101.88376465 190.59137695 101.32885742 189.99853516 C100.25206301 188.85142798 99.17160848 187.70774331 98.0871582 186.56787109 C95.5671732 183.87831473 93.38084263 181.44792219 92 178 C91.34 178 90.68 178 90 178 C90 190.21 90 202.42 90 215 C60.63 215 31.26 215 1 215 C1 146.36 1 77.72 1 7 C0.34 7 -0.32 7 -1 7 C-1.625 4.625 -1.625 4.625 -2 2 C-1.34 1.34 -0.68 0.68 0 0 Z " fill="#F84CB0" transform="translate(50,63)"/>
<path d="M0 0 C0.66 0 1.32 0 2 0 C3.47167969 1.47753906 3.47167969 1.47753906 5.171875 3.515625 C8.74452101 7.71634736 12.46223612 11.7435201 16.25 15.75 C22.55708879 22.44952987 28.79767568 29.20344102 35 36 C36.37186543 37.49819549 37.74463266 38.99555958 39.11767578 40.49267578 C40.03300814 41.49077928 40.9480513 42.48914809 41.86279297 43.48779297 C44.22461764 46.0660971 46.59000605 48.64100328 48.9609375 51.2109375 C49.44884766 51.74074219 49.93675781 52.27054688 50.43945312 52.81640625 C51.78943793 54.28210404 53.14076745 55.74656294 54.4921875 57.2109375 C57.07500442 60.08341613 59.54558472 63.01775348 62 66 C60.63497218 68.9994145 59.06199477 71.27451643 56.8671875 73.7265625 C56.24424805 74.42297852 55.62130859 75.11939453 54.97949219 75.83691406 C51.73206726 79.38553084 48.43747004 82.88714045 45.125 86.375 C40.12262754 91.66472096 35.1721448 96.98621919 30.328125 102.421875 C26.7082823 106.43042565 23.01073606 110.36593843 19.31445312 114.30395508 C16.44597618 117.36358596 13.59517816 120.43452059 10.796875 123.55859375 C10.30171387 124.10918457 9.80655273 124.65977539 9.29638672 125.22705078 C7.9612509 126.71629365 6.63273511 128.21146396 5.3046875 129.70703125 C3.1877013 131.81325311 1.65439759 132.77475912 -1 134 C-3.5232627 131.33562335 -6.04314655 128.66807299 -8.5625 126 C-9.26697266 125.25621094 -9.97144531 124.51242187 -10.69726562 123.74609375 C-14.5593742 119.65261462 -18.39323414 115.55271373 -21.98246765 111.21565247 C-23.97309136 108.91711972 -23.97309136 108.91711972 -26.50450134 106.97465515 C-32.234201 101.93476425 -34.5405792 98.16220789 -35.06266117 90.62907124 C-35.19261441 85.6485581 -35.10355388 80.68666844 -34.9765625 75.70703125 C-34.95788481 73.54802238 -34.9436627 71.38897079 -34.9336853 69.22990417 C-34.89571029 63.57844672 -34.79766577 57.92960625 -34.68664551 52.2791748 C-34.58389493 46.50092972 -34.5385803 40.72225694 -34.48828125 34.94335938 C-34.38140026 23.62776357 -34.21098667 12.31410035 -34 1 C-30.42309728 2.66788422 -28.41539355 4.50359067 -25.8125 7.5 C-25.02230469 8.39976562 -24.23210937 9.29953125 -23.41796875 10.2265625 C-22.62003906 11.14179688 -21.82210938 12.05703125 -21 13 C-14.39518891 20.39081881 -7.69820476 27.69286754 -1 35 C-0.67 23.45 -0.34 11.9 0 0 Z " fill="#8436B8" transform="translate(298,143)"/>
<path d="M0 0 C2 0 2 0 3.33984375 1.328125 C3.86707031 1.96234375 4.39429688 2.5965625 4.9375 3.25 C8.00852257 6.86371886 11.15982718 10.38957436 14.375 13.875 C19.28750994 19.21611254 24.1900415 24.56604689 29 30 C29.49508875 30.47065415 29.9901775 30.94130831 30.50026894 31.42622471 C34.51054249 35.49257651 35.6903063 38.40453714 35.746521 44.09014893 C35.72494934 44.98135437 35.70337769 45.87255981 35.68115234 46.79077148 C35.68246658 48.22607964 35.68246658 48.22607964 35.68380737 49.69038391 C35.67964663 52.83480125 35.63306515 55.97705182 35.5859375 59.12109375 C35.57474001 61.30826146 35.56620244 63.49544428 35.56021118 65.68263245 C35.53735672 71.42542431 35.47846148 77.16729848 35.4119873 82.909729 C35.35049244 88.77497953 35.32318071 94.64037905 35.29296875 100.50585938 C35.22871592 112.00430835 35.12637651 123.50207771 35 135 C34.21157715 134.21085205 33.4231543 133.4217041 32.61083984 132.60864258 C31.15501385 131.1540418 29.69627069 129.70229175 28.2265625 128.26171875 C24.67294874 124.76877645 21.34418111 121.15383874 18.09375 117.37890625 C14.8892025 113.73791851 11.57601083 110.19798676 8.26293945 106.65576172 C7.77011475 106.12611816 7.27729004 105.59647461 6.76953125 105.05078125 C6.33229736 104.58325439 5.89506348 104.11572754 5.44458008 103.6340332 C4.96786865 103.09480225 4.49115723 102.55557129 4 102 C3.31957138 101.33665649 2.63914276 100.67331299 1.93809509 99.98986816 C-0.78008386 95.79657716 -0.53328283 92.42309206 -0.45410156 87.52807617 C-0.45468567 86.58124969 -0.45526978 85.63442322 -0.45587158 84.65890503 C-0.45309002 81.53655034 -0.42199399 78.41515619 -0.390625 75.29296875 C-0.38316289 73.12535626 -0.37746981 70.95773701 -0.37347412 68.79011536 C-0.35821559 63.09027417 -0.31893143 57.39084193 -0.2746582 51.69116211 C-0.23371051 45.87294039 -0.21546415 40.05465247 -0.1953125 34.23632812 C-0.15243776 22.82403927 -0.08418341 11.41205366 0 0 Z " fill="#D11289" transform="translate(140,143)"/>
<path d="M0 0 C3.57690272 1.66788422 5.58460645 3.50359067 8.1875 6.5 C8.97769531 7.39976562 9.76789063 8.29953125 10.58203125 9.2265625 C11.37996094 10.14179688 12.17789062 11.05703125 13 12 C14.4549168 13.62805965 15.91320358 15.25311457 17.375 16.875 C18.46941406 18.09316406 18.46941406 18.09316406 19.5859375 19.3359375 C21.37361651 21.30874831 23.16957218 23.27159088 24.9765625 25.2265625 C25.47881348 25.77070801 25.98106445 26.31485352 26.49853516 26.87548828 C27.48317952 27.94082545 28.46976909 29.00436876 29.45849609 30.06591797 C34.15212486 35.14546357 34.14050045 38.37998922 34.11352539 45.13134766 C34.11367142 46.07773605 34.11381744 47.02412445 34.1139679 47.99919128 C34.11326942 51.13750475 34.10548002 54.27575937 34.09765625 57.4140625 C34.09579184 59.58596769 34.09436805 61.75787329 34.09336853 63.92977905 C34.08954516 69.65414587 34.07971639 75.37848742 34.06866455 81.10284424 C34.05844657 86.94095518 34.05387008 92.7790702 34.04882812 98.6171875 C34.03809398 110.07813611 34.0210197 121.53906596 34 133 C32.86963846 132.04037743 31.74057229 131.07922887 30.61206055 130.11743164 C29.98317429 129.58235489 29.35428802 129.04727814 28.7063446 128.49598694 C26.90747736 126.91888353 25.33818674 125.27943553 23.8125 123.4375 C20.19440147 119.18378956 16.41940349 115.09345908 12.61450195 111.00756836 C11.64410167 109.96255949 10.68859288 108.9035245 9.74847412 107.83119202 C8.04467638 105.94729543 8.04467638 105.94729543 5.96885681 104.4720459 C1.89050419 100.99365414 -0.13648745 97.76579923 -0.70274353 92.44358826 C-1.03257794 86.5961864 -0.900038 80.75449437 -0.78125 74.90234375 C-0.76631382 72.74046427 -0.75493331 70.57855756 -0.74694824 68.41664124 C-0.71652297 62.74915724 -0.63804174 57.08333502 -0.54931641 51.41650391 C-0.46721792 45.62490312 -0.4308855 39.83303162 -0.390625 34.04101562 C-0.30503905 22.69328358 -0.16864788 11.34678042 0 0 Z " fill="#5A098F" transform="translate(264,144)"/>
<path d="M0 0 C0.98871094 -0.01417969 1.97742188 -0.02835938 2.99609375 -0.04296875 C5.5625 0.1875 5.5625 0.1875 7.5625 2.1875 C7.7578125 5.2265625 7.7578125 5.2265625 7.6875 8.8125 C7.66945312 10.00101563 7.65140625 11.18953125 7.6328125 12.4140625 C7.60960937 13.32929688 7.58640625 14.24453125 7.5625 15.1875 C6.5725 15.1875 5.5825 15.1875 4.5625 15.1875 C4.5625 20.1375 4.5625 25.0875 4.5625 30.1875 C1.9225 30.1875 -0.7175 30.1875 -3.4375 30.1875 C-3.4375 25.2375 -3.4375 20.2875 -3.4375 15.1875 C-4.4275 15.1875 -5.4175 15.1875 -6.4375 15.1875 C-6.46435412 12.87506208 -6.48382841 10.5625373 -6.5 8.25 C-6.51160156 6.96222656 -6.52320313 5.67445313 -6.53515625 4.34765625 C-6.37601014 -0.80231174 -4.66491574 0.03033105 0 0 Z " fill="#FCFCFD" transform="translate(209.4375,199.8125)"/>
<path d="M0 0 C1.2065625 0.0309375 1.2065625 0.0309375 2.4375 0.0625 C5.73949356 6.0060884 7.39268663 11.35369838 8.4375 18.0625 C6.4575 18.0625 4.4775 18.0625 2.4375 18.0625 C2.4375 22.0225 2.4375 25.9825 2.4375 30.0625 C0.4575 30.0625 -1.5225 30.0625 -3.5625 30.0625 C-3.5625 26.1025 -3.5625 22.1425 -3.5625 18.0625 C-5.2125 18.0625 -6.8625 18.0625 -8.5625 18.0625 C-8.16042191 12.53392629 -7.02723924 0.17139608 0 0 Z " fill="#F8F6FB" transform="translate(228.5625,199.9375)"/>
<path d="M0 0 C0.928125 0.165 1.85625 0.33 2.8125 0.5 C5.95621353 1.07748388 5.95621353 1.07748388 9 1 C9 2.65 9 4.3 9 6 C6.525 5.01 6.525 5.01 4 4 C3.67 4.99 3.34 5.98 3 7 C3.66 7.33 4.32 7.66 5 8 C5 8.99 5 9.98 5 11 C7.97 11 10.94 11 14 11 C14 12.98 14 14.96 14 17 C10 17 10 17 7 16 C4.13686209 15.92906001 1.29935409 15.90662523 -1.5625 15.9375 C-2.34302734 15.94201172 -3.12355469 15.94652344 -3.92773438 15.95117188 C-5.95185144 15.96339691 -7.97593225 15.9813163 -10 16 C-10.66 16 -11.32 16 -12 16 C-12.639375 16.185625 -13.27875 16.37125 -13.9375 16.5625 C-16 17 -16 17 -19 16 C-19 15.01 -19 14.02 -19 13 C-19.99 13.495 -19.99 13.495 -21 14 C-21 14.66 -21 15.32 -21 16 C-22.32 15.34 -23.64 14.68 -25 14 C-25.33 14.66 -25.66 15.32 -26 16 C-26.66 16 -27.32 16 -28 16 C-28 14.35 -28 12.7 -28 11 C-21.6 9.76923077 -21.6 9.76923077 -18.5625 10.9375 C-18.046875 11.288125 -17.53125 11.63875 -17 12 C-16.67 11.67 -16.34 11.34 -16 11 C-13.46950598 10.92686433 -10.96695163 10.90752473 -8.4375 10.9375 C-7.72658203 10.94201172 -7.01566406 10.94652344 -6.28320312 10.95117188 C-4.52209987 10.96299136 -2.76103964 10.98092737 -1 11 C0.04702186 7.2735915 0.07442057 3.86986958 0 0 Z " fill="#D480B5" transform="translate(89,94)"/>
<path d="M0 0 C0 1.98 0 3.96 0 6 C-1.7325 6.0928125 -1.7325 6.0928125 -3.5 6.1875 C-8.32592759 6.78966565 -12.41547916 8.68364781 -16 12 C-16.94442508 13.97762068 -16.94442508 13.97762068 -17 16 C-16.34 16.66 -15.68 17.32 -15 18 C-15.66 18 -16.32 18 -17 18 C-17.28875 18.721875 -17.5775 19.44375 -17.875 20.1875 C-19 23 -19 23 -20.3125 25.5 C-21.33147069 28.09340917 -21.33147069 28.09340917 -19.625 30.625 C-19.08875 31.40875 -18.5525 32.1925 -18 33 C-18 33.99 -18 34.98 -18 36 C-19.093125 36.12375 -20.18625 36.2475 -21.3125 36.375 C-25.07381802 36.75464801 -25.07381802 36.75464801 -28 39 C-28.99 39.66 -29.98 40.32 -31 41 C-31.495 39.515 -31.495 39.515 -32 38 C-31.05988318 36.29883624 -30.05104383 34.63495707 -29 33 C-28.30177383 31.34630643 -27.62501395 29.68272986 -27 28 C-26.34 28 -25.68 28 -25 28 C-25 27.34 -25 26.68 -25 26 C-24.525625 25.566875 -24.05125 25.13375 -23.5625 24.6875 C-21.50467725 22.46505143 -21.21466562 21.00531874 -21 18 C-21.84979475 15.24743756 -21.84979475 15.24743756 -23 13 C-23.66 13 -24.32 13 -25 13 C-24.875 11.125 -24.875 11.125 -24 9 C-21.14239961 7.7660362 -18.42674769 7.08128527 -15.375 6.5 C-11.94518535 5.77793376 -9.41527817 4.2532184 -6.4375 2.4375 C-2.30434783 0 -2.30434783 0 0 0 Z " fill="#C8DDE7" transform="translate(400,344)"/>
<path d="M0 0 C1.54300781 -0.02513672 1.54300781 -0.02513672 3.1171875 -0.05078125 C7.61779129 0.49279817 10.19903874 2.4365907 13.4375 5.5 C15.63622612 9.16454353 15.89310816 12.19763487 15.125 16.3125 C13.5835705 20.51246239 11.56897092 22.95913539 8.0625 25.75 C4.78887142 28.60571855 4.00481368 30.48159827 2.86328125 34.54296875 C2.125 36.3125 2.125 36.3125 -0.875 38.3125 C-7.8023743 39.09462291 -7.8023743 39.09462291 -11.875 36.125 C-14.01357753 33.11762535 -14.38764032 31.90098221 -13.875 28.3125 C-12.885 28.3125 -11.895 28.3125 -10.875 28.3125 C-10.545 30.6225 -10.215 32.9325 -9.875 35.3125 C-8.41757537 35.39346803 -6.95887193 35.45167774 -5.5 35.5 C-4.28183594 35.55220703 -4.28183594 35.55220703 -3.0390625 35.60546875 C-2.32492188 35.50878906 -1.61078125 35.41210938 -0.875 35.3125 C1.24397208 32.51517136 1.24397208 32.51517136 1.75 29.625 C3.21640027 26.09230843 4.42892225 25.02100966 7.25 22.5625 C10.51752924 19.47319963 11.72829609 17.59698463 11.875 13.0625 C11.59744575 9.71642928 11.27405567 8.51620941 9.25 5.75 C6.15621606 3.65714616 4.45004825 3.17520748 0.75 3.1875 C-0.02085938 3.18492187 -0.79171875 3.18234375 -1.5859375 3.1796875 C-4.81904567 3.35340731 -4.81904567 3.35340731 -7.875 4.3125 C-9.0125213 6.39284294 -9.0125213 6.39284294 -9.625 8.875 C-9.86734375 9.70128906 -10.1096875 10.52757812 -10.359375 11.37890625 C-10.52953125 12.01699219 -10.6996875 12.65507812 -10.875 13.3125 C-11.865 13.3125 -12.855 13.3125 -13.875 13.3125 C-13.42117044 8.43383225 -12.2389156 5.87429299 -8.875 2.3125 C-5.45170149 0.03030099 -4.03362332 0.01508837 0 0 Z " fill="#FDEBF6" transform="translate(94.875,190.6875)"/>
<path d="M0 0 C0 0.66 0 1.32 0 2 C2.64 2 5.28 2 8 2 C8.33 1.34 8.66 0.68 9 0 C9.66 0 10.32 0 11 0 C11 0.66 11 1.32 11 2 C12.65 2 14.3 2 16 2 C15.34 4.31 14.68 6.62 14 9 C13.34 9 12.68 9 12 9 C11.67 8.34 11.34 7.68 11 7 C10.236875 7 9.47375 7 8.6875 7 C-0.875 7 -10.4375 7 -20 7 C-20 5.02 -20 3.04 -20 1 C-19.03578125 1.09539062 -18.0715625 1.19078125 -17.078125 1.2890625 C-15.81484375 1.39992188 -14.5515625 1.51078125 -13.25 1.625 C-11.99703125 1.74101563 -10.7440625 1.85703125 -9.453125 1.9765625 C-5.6947368 2.00207192 -3.45344489 0 0 0 Z " fill="#D589BA" transform="translate(111,82)"/>
<path d="M0 0 C0.33 0 0.66 0 1 0 C1.00331015 0.61145056 1.00662029 1.22290112 1.01003075 1.85288048 C1.09117716 16.71646684 1.18324192 31.57995524 1.28752708 46.44339561 C1.33769365 53.63118731 1.38413598 60.81896736 1.421875 68.00683594 C1.45476968 74.27025363 1.4945867 80.53358206 1.54279006 86.79690135 C1.5680804 90.11467742 1.58882171 93.4323818 1.60334396 96.75022507 C1.62012481 100.4499886 1.64913991 104.14946253 1.68115234 107.84912109 C1.68331253 108.95466843 1.68547272 110.06021576 1.68769836 111.19926453 C1.69886185 112.20329819 1.71002533 113.20733185 1.7215271 114.24179077 C1.72705786 115.11749411 1.73258862 115.99319744 1.73828697 116.89543724 C1.80823797 119.21786582 1.80823797 119.21786582 4 121 C3.625 123.125 3.625 123.125 3 125 C1.34385343 125.38218767 -0.32457024 125.71395102 -2 126 C-3 125 -3 125 -3.0625 122.4375 C-3.0315625 121.2309375 -3.0315625 121.2309375 -3 120 C-1.515 119.505 -1.515 119.505 0 119 C0 79.73 0 40.46 0 0 Z " fill="#7333B7" transform="translate(175,179)"/>
<path d="M0 0 C0.66 0 1.32 0 2 0 C2 0.66 2 1.32 2 2 C6.29 2 10.58 2 15 2 C15 1.34 15 0.68 15 0 C15.66 0 16.32 0 17 0 C17 0.66 17 1.32 17 2 C17.66 2 18.32 2 19 2 C19.33 1.34 19.66 0.68 20 0 C20.66 0 21.32 0 22 0 C22 0.66 22 1.32 22 2 C24.64 2 27.28 2 30 2 C30 2.66 30 3.32 30 4 C30.99 4.33 31.98 4.66 33 5 C33 5.66 33 6.32 33 7 C31.33388095 7.042721 29.66617115 7.04063832 28 7 C27.67 6.67 27.34 6.34 27 6 C25.9171875 6.5259375 25.9171875 6.5259375 24.8125 7.0625 C22 8 22 8 19.875 7.5625 C15.9610121 6.79671976 12.16422133 6.89416607 8.1875 6.9375 C7.39923828 6.94201172 6.61097656 6.94652344 5.79882812 6.95117188 C3.86585239 6.96288688 1.93291607 6.98082002 0 7 C0 4.69 0 2.38 0 0 Z " fill="#DD9EC3" transform="translate(148,113)"/>
<path d="M0 0 C3.5625 0.3125 3.5625 0.3125 5.5 1.625 C6.5625 3.3125 6.5625 3.3125 6.5625 6.3125 C5.5725 5.9825 4.5825 5.6525 3.5625 5.3125 C3.2325 4.6525 2.9025 3.9925 2.5625 3.3125 C0.9125 3.3125 -0.7375 3.3125 -2.4375 3.3125 C-2.7675 3.9725 -3.0975 4.6325 -3.4375 5.3125 C-2.014375 5.4671875 -2.014375 5.4671875 -0.5625 5.625 C2.5625 6.3125 2.5625 6.3125 4.5625 9.3125 C4.11805556 14.75694444 4.11805556 14.75694444 1.5625 17.3125 C0.9025 17.456875 0.2425 17.60125 -0.4375 17.75 C-2.82390738 18.18708708 -2.82390738 18.18708708 -4.4375 21.3125 C-7.0625 21.5 -7.0625 21.5 -9.4375 21.3125 C-9.7675 19.9925 -10.0975 18.6725 -10.4375 17.3125 C-7.9625 18.3025 -7.9625 18.3025 -5.4375 19.3125 C-5.21575067 17.85614629 -5.01051302 16.39727044 -4.8125 14.9375 C-4.69648437 14.12539062 -4.58046875 13.31328125 -4.4609375 12.4765625 C-4.45320313 11.76242188 -4.44546875 11.04828125 -4.4375 10.3125 C-5.0975 9.6525 -5.7575 8.9925 -6.4375 8.3125 C-6.00221932 3.08913185 -5.65998169 0.51454379 0 0 Z " fill="#FDEFF8" transform="translate(94.4375,197.6875)"/>
<path d="M0 0 C1.29349365 0.00523682 2.5869873 0.01047363 3.91967773 0.01586914 C4.9496714 0.01799156 4.9496714 0.01799156 6.00047302 0.02015686 C8.20144949 0.0257706 10.40232557 0.03832532 12.60327148 0.05102539 C14.09220231 0.05603863 15.58113473 0.06060184 17.07006836 0.06469727 C20.72700223 0.07574446 24.38387707 0.09301826 28.04077148 0.11352539 C28.04077148 1.76352539 28.04077148 3.41352539 28.04077148 5.11352539 C24.74077148 5.11352539 21.44077148 5.11352539 18.04077148 5.11352539 C18.04077148 4.12352539 18.04077148 3.13352539 18.04077148 2.11352539 C17.38077148 2.11352539 16.72077148 2.11352539 16.04077148 2.11352539 C15.71077148 3.10352539 15.38077148 4.09352539 15.04077148 5.11352539 C9.10077148 5.11352539 3.16077148 5.11352539 -2.95922852 5.11352539 C-3.28922852 3.79352539 -3.61922852 2.47352539 -3.95922852 1.11352539 C-2.95922852 0.11352539 -2.95922852 0.11352539 0 0 Z " fill="#D378B1" transform="translate(64.959228515625,114.886474609375)"/>
<path d="M0 0 C0.928125 0.165 1.85625 0.33 2.8125 0.5 C5.95621353 1.07748388 5.95621353 1.07748388 9 1 C9 2.65 9 4.3 9 6 C6.525 5.01 6.525 5.01 4 4 C3.67 4.99 3.34 5.98 3 7 C3.66 7.33 4.32 7.66 5 8 C5 8.99 5 9.98 5 11 C7.97 11 10.94 11 14 11 C14 12.98 14 14.96 14 17 C10 17 10 17 7 16 C5.60560336 15.93334624 4.20830125 15.91461801 2.8125 15.9375 C1.554375 15.958125 0.29625 15.97875 -1 16 C-0.34 14.68 0.32 13.36 1 12 C1 12.99 1 13.98 1 15 C1.66 15 2.32 15 3 15 C3 13.02 3 11.04 3 9 C2.34 9 1.68 9 1 9 C-0.4783226 6.04335481 -0.06032783 3.25770263 0 0 Z " fill="#D16FAC" transform="translate(89,94)"/>
<path d="M0 0 C2.625 0.375 2.625 0.375 5 1 C5.33 2.32 5.66 3.64 6 5 C4.02 5.99 4.02 5.99 2 7 C2 30.76 2 54.52 2 79 C1.67 79 1.34 79 1 79 C1 55.24 1 31.48 1 7 C0.34 7 -0.32 7 -1 7 C-1.625 4.625 -1.625 4.625 -2 2 C-1.34 1.34 -0.68 0.68 0 0 Z " fill="#F345A9" transform="translate(50,63)"/>
<path d="M0 0 C0.66 0.99 1.32 1.98 2 3 C2.78375 2.814375 3.5675 2.62875 4.375 2.4375 C7 2 7 2 9 3 C8.67 4.32 8.34 5.64 8 7 C1.4 7 -5.2 7 -12 7 C-12.33 5.35 -12.66 3.7 -13 2 C-8.71 2 -4.42 2 0 2 C0 1.34 0 0.68 0 0 Z " fill="#D586B9" transform="translate(151,82)"/>
<path d="M0 0 C0.66 0 1.32 0 2 0 C2 0.66 2 1.32 2 2 C3.7634375 1.7215625 3.7634375 1.7215625 5.5625 1.4375 C9.61268594 0.91769004 12.99874453 1.2497646 17 2 C16.67 3.65 16.34 5.3 16 7 C10.42289352 8.06795656 5.60563042 7.82622671 0 7 C0 4.69 0 2.38 0 0 Z " fill="#D582B6" transform="translate(115,103)"/>
<path d="M0 0 C5.94 0.99 5.94 0.99 12 2 C11.67 3.32 11.34 4.64 11 6 C5.06 6 -0.88 6 -7 6 C-7.33 4.68 -7.66 3.36 -8 2 C-5.26823737 1.42489208 -2.78733683 1 0 1 C0 0.67 0 0.34 0 0 Z " fill="#D27CB4" transform="translate(69,93)"/>
<path d="M0 0 C6.33333333 0 12.66666667 0 19 0 C18.67 1.32 18.34 2.64 18 4 C18.66 4.33 19.32 4.66 20 5 C17 5 17 5 15 4 C15 4.66 15 5.32 15 6 C14.4225 5.79375 13.845 5.5875 13.25 5.375 C10.48032433 4.91338739 9.35438733 5.57055055 7 7 C7 6.34 7 5.68 7 5 C6.01 4.67 5.02 4.34 4 4 C3.01 3.34 2.02 2.68 1 2 C0.67 2.99 0.34 3.98 0 5 C0 3.35 0 1.7 0 0 Z " fill="#D279B3" transform="translate(99,94)"/>
<path d="M0 0 C1.32 0 2.64 0 4 0 C4 2.64 4 5.28 4 8 C0.7 8.33 -2.6 8.66 -6 9 C-6 7.35 -6 5.7 -6 4 C-6.99 4 -7.98 4 -9 4 C-9.33 5.32 -9.66 6.64 -10 8 C-10 6.02 -10 4.04 -10 2 C-9.0925 2.185625 -8.185 2.37125 -7.25 2.5625 C-4.31685676 2.95734621 -2.7355343 2.94691572 0 2 C0 1.34 0 0.68 0 0 Z " fill="#8F66B4" transform="translate(306,297)"/>
<path d="M0 0 C0.66 0 1.32 0 2 0 C2 0.66 2 1.32 2 2 C3.65 2 5.3 2 7 2 C7.33 2.99 7.66 3.98 8 5 C8.66 5 9.32 5 10 5 C10 4.01 10 3.02 10 2 C10.66 2 11.32 2 12 2 C10.125 7.75 10.125 7.75 9 10 C8.34 9.67 7.68 9.34 7 9 C7 8.01 7 7.02 7 6 C6.67 6.66 6.34 7.32 6 8 C5.34 8 4.68 8 4 8 C4 6.68 4 5.36 4 4 C3.34 4 2.68 4 2 4 C2 5.32 2 6.64 2 8 C0.68 8.33 -0.64 8.66 -2 9 C-2.66 6.69 -3.32 4.38 -4 2 C-3.34 1.67 -2.68 1.34 -2 1 C-1.34 1.33 -0.68 1.66 0 2 C0 1.34 0 0.68 0 0 Z " fill="#692D98" transform="translate(216,297)"/>
<path d="M0 0 C0.33 0.66 0.66 1.32 1 2 C6.28 2 11.56 2 17 2 C17.33 3.32 17.66 4.64 18 6 C16.33333333 6 14.66666667 6 13 6 C12.01 6.33 11.02 6.66 10 7 C7.66700175 7.03954234 5.33291811 7.04401732 3 7 C2.67 6.01 2.34 5.02 2 4 C1.01 5.485 1.01 5.485 0 7 C-0.99 6.67 -1.98 6.34 -3 6 C-3.33 5.01 -3.66 4.02 -4 3 C-3.01 3 -2.02 3 -1 3 C-0.67 2.01 -0.34 1.02 0 0 Z " fill="#A88CC4" transform="translate(273,317)"/>
<path d="M0 0 C0.66 0.66 1.32 1.32 2 2 C1.01 2 0.02 2 -1 2 C-0.67 1.34 -0.34 0.68 0 0 Z M-2 2 C-1.34 2.99 -0.68 3.98 0 5 C-0.99 6.1446875 -0.99 6.1446875 -2 7.3125 C-4.29850538 9.84277939 -4.29850538 9.84277939 -4 13 C-6 15.1875 -6 15.1875 -8 17 C-8.99 16.01 -9.98 15.02 -11 14 C-10.01 12.35 -9.02 10.7 -8 9 C-8.66 9 -9.32 9 -10 9 C-10 8.34 -10 7.68 -10 7 C-8.25 5.7109375 -8.25 5.7109375 -6 4.375 C-5.2575 3.92898438 -4.515 3.48296875 -3.75 3.0234375 C-3.1725 2.68570312 -2.595 2.34796875 -2 2 Z " fill="#D5EEFC" transform="translate(385,299)"/>
<path d="M0 0 C0.969375 0.185625 1.93875 0.37125 2.9375 0.5625 C3.948125 0.706875 4.95875 0.85125 6 1 C6.33 0.67 6.66 0.34 7 0 C8.66617115 -0.04063832 10.33388095 -0.042721 12 0 C11.67 2.64 11.34 5.28 11 8 C9.1875 8.625 9.1875 8.625 7 9 C6.01 8.34 5.02 7.68 4 7 C3.8125 4.375 3.8125 4.375 4 2 C3.34 2 2.68 2 2 2 C2 3.32 2 4.64 2 6 C1.34 6 0.68 6 0 6 C0 4.02 0 2.04 0 0 Z " fill="#7645A1" transform="translate(311,299)"/>
<path d="M0 0 C0.66 0 1.32 0 2 0 C2 0.66 2 1.32 2 2 C4.64 2 7.28 2 10 2 C10 2.66 10 3.32 10 4 C10.99 4.33 11.98 4.66 13 5 C13 5.66 13 6.32 13 7 C11.33388095 7.042721 9.66617115 7.04063832 8 7 C7.67 6.67 7.34 6.34 7 6 C6.29875 6.350625 5.5975 6.70125 4.875 7.0625 C1.49731414 8.1639193 -0.58080593 7.79516141 -4 7 C-4 5.02 -4 3.04 -4 1 C-3.01 1.33 -2.02 1.66 -1 2 C-0.67 1.34 -0.34 0.68 0 0 Z " fill="#D888B8" transform="translate(168,113)"/>
<path d="M0 0 C0.66 0 1.32 0 2 0 C2.33 1.65 2.66 3.3 3 5 C3.66 5 4.32 5 5 5 C5.33 4.01 5.66 3.02 6 2 C7.98 1.67 9.96 1.34 12 1 C13 4 13 4 13 8 C12.34 8 11.68 8 11 8 C11 6.68 11 5.36 11 4 C9.35 4 7.7 4 6 4 C6 4.99 6 5.98 6 7 C6.99 7 7.98 7 9 7 C9 7.66 9 8.32 9 9 C7.02 9 5.04 9 3 9 C3 8.34 3 7.68 3 7 C1.02 7.33 -0.96 7.66 -3 8 C-2.01 5.36 -1.02 2.72 0 0 Z " fill="#C33292" transform="translate(64,62)"/>
<path d="M0 0 C0.33 -0.33 0.66 -0.66 1 -1 C2.66617115 -1.04063832 4.33388095 -1.042721 6 -1 C5.67 1.64 5.34 4.28 5 7 C3.1875 7.625 3.1875 7.625 1 8 C0.01 7.34 -0.98 6.68 -2 6 C-2.1875 3.375 -2.1875 3.375 -2 1 C-2.66 1 -3.32 1 -4 1 C-4 2.32 -4 3.64 -4 5 C-4.66 5 -5.32 5 -6 5 C-6 3.35 -6 1.7 -6 0 C-3.49046058 -1.25476971 -2.62766637 -0.67810745 0 0 Z " fill="#C7489C" transform="translate(133,65)"/>
<path d="M0 0 C0.33 0.66 0.66 1.32 1 2 C3.2542509 2.85506068 4.58688371 3.10661066 6.9375 2.5 C9.5379494 1.86958802 11.40899205 2.45452464 14 3 C14.66 2.67 15.32 2.34 16 2 C15.67 3.65 15.34 5.3 15 7 C12.30517531 7.07699499 9.96005512 6.99163944 7.3125 6.4375 C4.98465993 5.75530115 4.98465993 5.75530115 3 7 C3 5.68 3 4.36 3 3 C2.34 3 1.68 3 1 3 C0.67 4.32 0.34 5.64 0 7 C-0.99 6.67 -1.98 6.34 -3 6 C-3.33 5.01 -3.66 4.02 -4 3 C-3.01 3 -2.02 3 -1 3 C-0.67 2.01 -0.34 1.02 0 0 Z " fill="#A082BF" transform="translate(306,317)"/>
<path d="M0 0 C0.33 0.66 0.66 1.32 1 2 C2.32 2 3.64 2 5 2 C8 2 11 2 14 2 C14 3.65 14 5.3 14 7 C13.01 7.33 12.02 7.66 11 8 C11 7.34 11 6.68 11 6 C10.4225 6.165 9.845 6.33 9.25 6.5 C7 7 7 7 3 7 C2.67 6.34 2.34 5.68 2 5 C1.34 5.66 0.68 6.32 0 7 C0 6.01 0 5.02 0 4 C-0.66 4 -1.32 4 -2 4 C-1.67 4.99 -1.34 5.98 -1 7 C-1.66 7 -2.32 7 -3 7 C-3 5.35 -3 3.7 -3 2 C-2.01 2 -1.02 2 0 2 C0 1.34 0 0.68 0 0 Z " fill="#D37AB2" transform="translate(123,92)"/>
<path d="M0 0 C0.33 0 0.66 0 1 0 C1.01981934 0.59538574 1.03963867 1.19077148 1.06005859 1.80419922 C1.15516126 4.49492153 1.26489842 7.18485148 1.375 9.875 C1.4059375 10.81214844 1.436875 11.74929688 1.46875 12.71484375 C1.50742188 13.61074219 1.54609375 14.50664062 1.5859375 15.4296875 C1.6173584 16.25710449 1.6487793 17.08452148 1.68115234 17.93701172 C1.82599137 20.21986085 1.82599137 20.21986085 4 22 C3.625 24.125 3.625 24.125 3 26 C1.34385343 26.38218767 -0.32457024 26.71395102 -2 27 C-3 26 -3 26 -3.0625 23.4375 C-3.041875 22.633125 -3.02125 21.82875 -3 21 C-2.01 20.67 -1.02 20.34 0 20 C0 13.4 0 6.8 0 0 Z " fill="#7C2FAF" transform="translate(175,278)"/>
<path d="M0 0 C0.33 0.66 0.66 1.32 1 2 C3.01669827 3.13350534 3.01669827 3.13350534 5 4 C5.33 3.34 5.66 2.68 6 2 C7.98 2 9.96 2 12 2 C13.125 6.75 13.125 6.75 12 9 C11.443125 8.855625 10.88625 8.71125 10.3125 8.5625 C7.95054589 7.95647335 7.95054589 7.95647335 5.3125 7.5625 C4.549375 7.376875 3.78625 7.19125 3 7 C2.67 6.34 2.34 5.68 2 5 C1.34 5.99 0.68 6.98 0 8 C0 5.36 0 2.72 0 0 Z " fill="#C94C9D" transform="translate(79,62)"/>
<path d="M0 0 C0.66 0 1.32 0 2 0 C2 0.66 2 1.32 2 2 C2.99 1.67 3.98 1.34 5 1 C5.66 1.33 6.32 1.66 7 2 C7.99 1.67 8.98 1.34 10 1 C10.33 2.32 10.66 3.64 11 5 C11.66 3.68 12.32 2.36 13 1 C13.66 1.99 14.32 2.98 15 4 C14.67 4.99 14.34 5.98 14 7 C12.68 6.67 11.36 6.34 10 6 C10 5.01 10 4.02 10 3 C9.34 3 8.68 3 8 3 C7.67 3.99 7.34 4.98 7 6 C4.05610218 7.17755913 3.10046087 7.03348696 0 6 C0 4.02 0 2.04 0 0 Z " fill="#A081BE" transform="translate(278,338)"/>
<path d="M0 0 C0.33 0 0.66 0 1 0 C1 2.31 1 4.62 1 7 C-3.29 7 -7.58 7 -12 7 C-11.67 5.35 -11.34 3.7 -11 2 C-7.37 2 -3.74 2 0 2 C0 1.34 0 0.68 0 0 Z " fill="#D57FB5" transform="translate(180,82)"/>
<path d="M0 0 C2.625 0.375 2.625 0.375 5 1 C6.125 5.75 6.125 5.75 5 8 C3.00045254 8.04254356 0.99958364 8.04080783 -1 8 C-2 7 -2 7 -2.1875 4.5625 C-2 2 -2 2 0 0 Z " fill="#F2ECF7" transform="translate(208,189)"/>
<path d="M0 0 C0.66 0 1.32 0 2 0 C2.33 0.66 2.66 1.32 3 2 C5.97 1.34 8.94 0.68 12 0 C11.67 1.98 11.34 3.96 11 6 C6.25 7.125 6.25 7.125 4 6 C2.68 6 1.36 6 0 6 C0 4.02 0 2.04 0 0 Z " fill="#D580B4" transform="translate(139,93)"/>
<path d="M0 0 C0 0.99 0 1.98 0 3 C0.66 1.68 1.32 0.36 2 -1 C2.66 -0.34 3.32 0.32 4 1 C3.625 3.125 3.625 3.125 3 5 C1.1128125 4.7525 1.1128125 4.7525 -0.8125 4.5 C-3.26456585 4.17841759 -5.51650694 4 -8 4 C-8.99 4 -9.98 4 -11 4 C-11 2.68 -11 1.36 -11 0 C-7.18243176 -1.37432457 -3.92744671 -0.67975039 0 0 Z " fill="#AE95C8" transform="translate(226,340)"/>
<path d="M0 0 C0 1.98 0 3.96 0 6 C-4.29 6 -8.58 6 -13 6 C-12.67 4.35 -12.34 2.7 -12 1 C-9 1 -6 1 -3 1 C-1 0 -1 0 0 0 Z " fill="#AE94C9" transform="translate(244,328)"/>
<path d="M0 0 C3.53571429 0.53571429 3.53571429 0.53571429 5 2 C5.125 4.5 5.125 4.5 5 7 C4 8 4 8 1.5625 8.1875 C-1 8 -1 8 -3 6 C-2.63318342 3.06546739 -2.13562754 2.13562754 0 0 Z " fill="#F5F2F9" transform="translate(227,189)"/>
<path d="M0 0 C0.66 0 1.32 0 2 0 C2 0.66 2 1.32 2 2 C4.97 2 7.94 2 11 2 C11 3.65 11 5.3 11 7 C10.67 6.01 10.34 5.02 10 4 C9.34 4 8.68 4 8 4 C7.67 4.99 7.34 5.98 7 7 C4.69 7 2.38 7 0 7 C0 4.69 0 2.38 0 0 Z " fill="#D373AE" transform="translate(108,113)"/>
<path d="M0 0 C2.33944736 0.28730055 4.6739143 0.61936779 7 1 C8.125 5.75 8.125 5.75 7 8 C4.69 8 2.38 8 0 8 C-0.38063221 5.6739143 -0.71269945 3.33944736 -1 1 C-0.67 0.67 -0.34 0.34 0 0 Z " fill="#CC66AB" transform="translate(109,63)"/>
<path d="M0 0 C0.66 0.66 1.32 1.32 2 2 C2.99 1.67 3.98 1.34 5 1 C7.6875 1.4375 7.6875 1.4375 10 2 C10 3.32 10 4.64 10 6 C9.2575 5.814375 8.515 5.62875 7.75 5.4375 C4.97817108 4.99652722 3.63418715 5.23523599 1 6 C-0.32 6 -1.64 6 -3 6 C-2.625 3.5625 -2.625 3.5625 -2 1 C-1.34 0.67 -0.68 0.34 0 0 Z " fill="#9E7EBD" transform="translate(274,328)"/>
<path d="M0 0 C-0.33 1.65 -0.66 3.3 -1 5 C-3.475 4.01 -3.475 4.01 -6 3 C-6.33 3.66 -6.66 4.32 -7 5 C-10.10551666 5 -11.35261084 4.4606285 -14 3 C-13.67 2.01 -13.34 1.02 -13 0 C-11.906875 0.020625 -10.81375 0.04125 -9.6875 0.0625 C-0.29032258 -0.09677419 -0.29032258 -0.09677419 0 0 Z " fill="#D680B4" transform="translate(146,105)"/>
<path d="M0 0 C0.80824219 0.11085937 1.61648437 0.22171875 2.44921875 0.3359375 C3.37154297 0.47902344 3.37154297 0.47902344 4.3125 0.625 C4.3125 0.955 4.3125 1.285 4.3125 1.625 C0.6825 2.285 -2.9475 2.945 -6.6875 3.625 C-7.6775 6.595 -8.6675 9.565 -9.6875 12.625 C-10.6775 12.625 -11.6675 12.625 -12.6875 12.625 C-12.23367044 7.74633225 -11.0514156 5.18679299 -7.6875 1.625 C-4.33422361 -0.61051759 -3.78006343 -0.54783528 0 0 Z " fill="#FCD4EC" transform="translate(93.6875,191.375)"/>
<path d="M0 0 C1.23556641 0.01740234 1.23556641 0.01740234 2.49609375 0.03515625 C3.32238281 0.04417969 4.14867188 0.05320312 5 0.0625 C5.63808594 0.07410156 6.27617188 0.08570312 6.93359375 0.09765625 C7.26359375 1.74765625 7.59359375 3.39765625 7.93359375 5.09765625 C4.63359375 5.09765625 1.33359375 5.09765625 -2.06640625 5.09765625 C-2.39640625 3.77765625 -2.72640625 2.45765625 -3.06640625 1.09765625 C-2.06640625 0.09765625 -2.06640625 0.09765625 0 0 Z " fill="#D689BA" transform="translate(64.06640625,114.90234375)"/>
<path d="M0 0 C0.66 0 1.32 0 2 0 C2.33 0.66 2.66 1.32 3 2 C3.99 2.33 4.98 2.66 6 3 C6 4.32 6 5.64 6 7 C2.04094116 7 -1.1903931 6.98312436 -5 6 C-4.67 4.68 -4.34 3.36 -4 2 C-3.01 2 -2.02 2 -1 2 C-0.67 1.34 -0.34 0.68 0 0 Z " fill="#D579B0" transform="translate(138,113)"/>
<path d="M0 0 C0.66 0 1.32 0 2 0 C2 2.97 2 5.94 2 9 C0.68 9 -0.64 9 -2 9 C-2 7.35 -2 5.7 -2 4 C-2.66 4 -3.32 4 -4 4 C-4 5.32 -4 6.64 -4 8 C-4.66 8 -5.32 8 -6 8 C-6 6.02 -6 4.04 -6 2 C-3.525 2.495 -3.525 2.495 -1 3 C-0.67 2.01 -0.34 1.02 0 0 Z " fill="#CD69AD" transform="translate(124,62)"/>
<path d="M0 0 C2.0625 0.4375 2.0625 0.4375 4 1 C4 1.99 4 2.98 4 4 C4.66 4 5.32 4 6 4 C6.33 3.01 6.66 2.02 7 1 C6.67 2.65 6.34 4.3 6 6 C5.38125 5.814375 4.7625 5.62875 4.125 5.4375 C1.95839822 4.76313824 1.95839822 4.76313824 0 6 C-0.99 6 -1.98 6 -3 6 C-3.99 6.495 -3.99 6.495 -5 7 C-5.33 5.02 -5.66 3.04 -6 1 C-4.7934375 1.0309375 -4.7934375 1.0309375 -3.5625 1.0625 C-1.06645115 1.29633621 -1.06645115 1.29633621 0 0 Z " fill="#A689C3" transform="translate(247,339)"/>
<path d="M0 0 C0.66 0.33 1.32 0.66 2 1 C2 2.98 2 4.96 2 7 C1.34 7 0.68 7 0 7 C0 5.68 0 4.36 0 3 C-0.99 3.495 -0.99 3.495 -2 4 C-2.65213292 6.02463255 -2.65213292 6.02463255 -3 8 C-3.99 7.67 -4.98 7.34 -6 7 C-6 6.01 -6 5.02 -6 4 C-6.99 3.67 -7.98 3.34 -9 3 C-9.33 4.32 -9.66 5.64 -10 7 C-10 5.02 -10 3.04 -10 1 C-9.36191406 1.01160156 -8.72382813 1.02320313 -8.06640625 1.03515625 C-7.24011719 1.04417969 -6.41382813 1.05320312 -5.5625 1.0625 C-4.32693359 1.07990234 -4.32693359 1.07990234 -3.06640625 1.09765625 C-1.00836062 1.23267348 -1.00836062 1.23267348 0 0 Z " fill="#693098" transform="translate(287,298)"/>
<path d="M0 0 C0.33 1.65 0.66 3.3 1 5 C-2.63 5 -6.26 5 -10 5 C-9.67 3.68 -9.34 2.36 -9 1 C-6.04335481 -0.4783226 -3.25770263 -0.06032783 0 0 Z " fill="#AD92C8" transform="translate(228,329)"/>
<path d="M0 0 C0.66 0 1.32 0 2 0 C1.67 1.32 1.34 2.64 1 4 C0.01 4 -0.98 4 -2 4 C-2 4.99 -2 5.98 -2 7 C-1.01 7.33 -0.02 7.66 1 8 C-1.31 8 -3.62 8 -6 8 C-6 6.68 -6 5.36 -6 4 C-6.66 4 -7.32 4 -8 4 C-8.33 5.32 -8.66 6.64 -9 8 C-9 6.02 -9 4.04 -9 2 C-7.6078125 2.2784375 -7.6078125 2.2784375 -6.1875 2.5625 C-2.98656229 3.24123881 -2.98656229 3.24123881 0 2 C0 1.34 0 0.68 0 0 Z " fill="#74439E" transform="translate(268,297)"/>
<path d="M0 0 C0.66 0 1.32 0 2 0 C2 2.31 2 4.62 2 7 C-0.97 7 -3.94 7 -7 7 C-7.33 5.68 -7.66 4.36 -8 3 C-3.25 2 -3.25 2 -1 2 C-0.67 1.34 -0.34 0.68 0 0 Z " fill="#AF96C9" transform="translate(225,317)"/>
<path d="M0 0 C0.928125 0.165 1.85625 0.33 2.8125 0.5 C5.95621353 1.07748388 5.95621353 1.07748388 9 1 C9 2.65 9 4.3 9 6 C6.69 5.67 4.38 5.34 2 5 C2 5.66 2 6.32 2 7 C1.34 7 0.68 7 0 7 C0 4.69 0 2.38 0 0 Z " fill="#D691BF" transform="translate(89,94)"/>
<path d="M0 0 C3 0 6 0 9 0 C9.33 1.65 9.66 3.3 10 5 C6.7 5 3.4 5 0 5 C-0.33 3.68 -0.66 2.36 -1 1 C-0.67 0.67 -0.34 0.34 0 0 Z " fill="#AC92C7" transform="translate(190,329)"/>
<path d="M0 0 C0.66 0.33 1.32 0.66 2 1 C1.67 2.98 1.34 4.96 1 7 C-1.64 7 -4.28 7 -7 7 C-7 5.68 -7 4.36 -7 3 C-3.535 2.505 -3.535 2.505 0 2 C0 1.34 0 0.68 0 0 Z " fill="#DB90BA" transform="translate(163,113)"/>
<path d="M0 0 C0.66 0 1.32 0 2 0 C2 2.31 2 4.62 2 7 C2.99 7 3.98 7 5 7 C5 4.69 5 2.38 5 0 C5.66 0 6.32 0 7 0 C7 2.97 7 5.94 7 9 C4.69 9 2.38 9 0 9 C0 6.03 0 3.06 0 0 Z " fill="#C64199" transform="translate(95,62)"/>
<path d="M0 0 C9.66666667 -0.56862745 9.66666667 -0.56862745 14 3 C16.29518219 5.3743264 16.96098229 6.42774033 17.1875 9.75 C17.0946875 10.86375 17.0946875 10.86375 17 12 C16.5875 11.4225 16.175 10.845 15.75 10.25 C11.1171211 4.29344141 7.47626495 2.01949067 0 1 C0 0.67 0 0.34 0 0 Z " fill="#FDEEF7" transform="translate(92,191)"/>
<path d="M0 0 C-0.33 1.65 -0.66 3.3 -1 5 C-4.3 5 -7.6 5 -11 5 C-10.67 3.68 -10.34 2.36 -10 1 C-6.61981469 -0.04005702 -3.5219721 -0.08004482 0 0 Z " fill="#D589BA" transform="translate(160,84)"/>
<path d="M0 0 C2.00720923 0.28674418 4.0085944 0.61866701 6 1 C5.01 1.495 5.01 1.495 4 2 C4 2.66 4 3.32 4 4 C4.66 4 5.32 4 6 4 C6 4.66 6 5.32 6 6 C5.01 5.67 4.02 5.34 3 5 C2.67 5.33 2.34 5.66 2 6 C-0.69082872 5.82364548 -3.32851446 5.38164079 -6 5 C-6 3.68 -6 2.36 -6 1 C-4.7934375 1.0309375 -4.7934375 1.0309375 -3.5625 1.0625 C-1.06645115 1.29633621 -1.06645115 1.29633621 0 0 Z " fill="#A487C1" transform="translate(205,339)"/>
<path d="M0 0 C0 1.32 0 2.64 0 4 C-4.75 5 -4.75 5 -7 5 C-7.99 5.495 -7.99 5.495 -9 6 C-9.33 4.35 -9.66 2.7 -10 1 C-6.52674819 -0.1577506 -3.63932552 -0.06866652 0 0 Z " fill="#AA8FC5" transform="translate(210,319)"/>
<path d="M0 0 C1.32 0 2.64 0 4 0 C4 2.64 4 5.28 4 8 C2.35 8 0.7 8 -1 8 C-0.67 6.68 -0.34 5.36 0 4 C-0.99 4 -1.98 4 -3 4 C-3.33 4.99 -3.66 5.98 -4 7 C-3.67 5.35 -3.34 3.7 -3 2 C-2.01 2 -1.02 2 0 2 C0 1.34 0 0.68 0 0 Z " fill="#581B8C" transform="translate(306,297)"/>
<path d="M0 0 C-0.33 1.32 -0.66 2.64 -1 4 C-0.34 4.33 0.32 4.66 1 5 C-2 5 -2 5 -4 4 C-4 4.66 -4 5.32 -4 6 C-6.31 5.67 -8.62 5.34 -11 5 C-10.34 4.67 -9.68 4.34 -9 4 C-9 3.01 -9 2.02 -9 1 C-5.8035914 -0.06546953 -3.34252724 -0.07427838 0 0 Z " fill="#D275AF" transform="translate(118,94)"/>
<path d="M0 0 C1.134375 0.020625 2.26875 0.04125 3.4375 0.0625 C3.7675 1.7125 4.0975 3.3625 4.4375 5.0625 C1.7975 5.0625 -0.8425 5.0625 -3.5625 5.0625 C-4.125 3.125 -4.125 3.125 -4.5625 1.0625 C-3.5625 0.0625 -3.5625 0.0625 0 0 Z " fill="#D074B1" transform="translate(79.5625,83.9375)"/>
<path d="M0 0 C0.99 0.495 0.99 0.495 2 1 C1.01 1.495 1.01 1.495 0 2 C0 1.34 0 0.68 0 0 Z M-1 2 C0.32 2.33 1.64 2.66 3 3 C3.66 5.64 4.32 8.28 5 11 C2.36 11 -0.28 11 -3 11 C-2.34 9.68 -1.68 8.36 -1 7 C-1 7.99 -1 8.98 -1 10 C-0.34 10 0.32 10 1 10 C1 8.02 1 6.04 1 4 C0.34 4 -0.32 4 -1 4 C-1 3.34 -1 2.68 -1 2 Z " fill="#DDADCC" transform="translate(91,99)"/>
<path d="M0 0 C0.33 0.66 0.66 1.32 1 2 C4.28405874 3.29016593 6.62589679 2.71033752 10 2 C10.66 2.33 11.32 2.66 12 3 C11.67 3.99 11.34 4.98 11 6 C10.01 5.67 9.02 5.34 8 5 C5.3430809 5.87914688 5.3430809 5.87914688 3 7 C2.67 6.01 2.34 5.02 2 4 C1.34 4.66 0.68 5.32 0 6 C0 4.02 0 2.04 0 0 Z " fill="#A386C0" transform="translate(249,317)"/>
<path d="M0 0 C0.66 0 1.32 0 2 0 C2 0.66 2 1.32 2 2 C3.65 2.33 5.3 2.66 7 3 C7 4.32 7 5.64 7 7 C4.69 7 2.38 7 0 7 C0 4.69 0 2.38 0 0 Z " fill="#D686B8" transform="translate(121,113)"/>
<path d="M0 0 C0.66 0.66 1.32 1.32 2 2 C0.02 2.66 -1.96 3.32 -4 4 C-2.68 2.68 -1.36 1.36 0 0 Z M-10 3 C-7 3 -7 3 -4 4 C-4 4.66 -4 5.32 -4 6 C-4.66 6 -5.32 6 -6 6 C-6.33 6.66 -6.66 7.32 -7 8 C-8.32 7.67 -9.64 7.34 -11 7 C-10.67 5.68 -10.34 4.36 -10 3 Z " fill="#F9F1F4" transform="translate(308,135)"/>
<path d="M0 0 C2.31 0.33 4.62 0.66 7 1 C6.34 2.65 5.68 4.3 5 6 C3.35 6 1.7 6 0 6 C0 4.02 0 2.04 0 0 Z " fill="#D693C0" transform="translate(91,83)"/>
<path d="M0 0 C2.475 0.495 2.475 0.495 5 1 C4.75 3.375 4.75 3.375 4 6 C1.9375 7.3125 1.9375 7.3125 0 8 C0 5.36 0 2.72 0 0 Z " fill="#8456AA" transform="translate(201,299)"/>
<path d="M0 0 C2.31 0.33 4.62 0.66 7 1 C6.67 2.65 6.34 4.3 6 6 C4 6 2 6 0 6 C0 4.02 0 2.04 0 0 Z " fill="#D581B6" transform="translate(106,104)"/>
<path d="M0 0 C0.33 0.66 0.66 1.32 1 2 C3.52733235 2.65555119 3.52733235 2.65555119 6 3 C6 3.99 6 4.98 6 6 C5.01 6.33 4.02 6.66 3 7 C2.67 6.01 2.34 5.02 2 4 C1.01 5.485 1.01 5.485 0 7 C-0.99 6.67 -1.98 6.34 -3 6 C-3.33 5.01 -3.66 4.02 -4 3 C-3.01 3 -2.02 3 -1 3 C-0.67 2.01 -0.34 1.02 0 0 Z " fill="#9C7CBB" transform="translate(273,317)"/>
<path d="M0 0 C0.33 0 0.66 0 1 0 C1 2.64 1 5.28 1 8 C-0.32 8 -1.64 8 -3 8 C-3.33 6.02 -3.66 4.04 -4 2 C-3.34 1.67 -2.68 1.34 -2 1 C-1.34 1.33 -0.68 1.66 0 2 C0 1.34 0 0.68 0 0 Z " fill="#936CB5" transform="translate(216,297)"/>
<path d="M0 0 C2.31 0 4.62 0 7 0 C6.67 1.65 6.34 3.3 6 5 C4.02 5.33 2.04 5.66 0 6 C0 4.02 0 2.04 0 0 Z " fill="#D682B5" transform="translate(125,105)"/>
<path d="M0 0 C1.4540625 0.0309375 1.4540625 0.0309375 2.9375 0.0625 C2.6075 1.7125 2.2775 3.3625 1.9375 5.0625 C-0.0425 5.0625 -2.0225 5.0625 -4.0625 5.0625 C-4.0625 0.08290816 -4.0625 0.08290816 0 0 Z " fill="#D585B8" transform="translate(156.0625,93.9375)"/>
<path d="M0 0 C0.33 0 0.66 0 1 0 C1 2.64 1 5.28 1 8 C-0.65 7.67 -2.3 7.34 -4 7 C-3.67 5.35 -3.34 3.7 -3 2 C-2.01 2 -1.02 2 0 2 C0 1.34 0 0.68 0 0 Z " fill="#7D4EA5" transform="translate(246,297)"/>
<path d="M0 0 C6.02908277 -0.65771812 6.02908277 -0.65771812 8.9375 1.3125 C10 3 10 3 10 6 C9.01 5.67 8.02 5.34 7 5 C6.67 4.34 6.34 3.68 6 3 C3.36 3 0.72 3 -2 3 C-1.34 2.01 -0.68 1.02 0 0 Z " fill="#FCE1F1" transform="translate(91,198)"/>
<path d="M0 0 C0.66 0.33 1.32 0.66 2 1 C2.33 0.67 2.66 0.34 3 0 C3.99 0.33 4.98 0.66 6 1 C6 2.32 6 3.64 6 5 C3.69 5 1.38 5 -1 5 C-1.33 5.66 -1.66 6.32 -2 7 C-2 5.02 -2 3.04 -2 1 C-1.67 1.99 -1.34 2.98 -1 4 C-0.34 4 0.32 4 1 4 C0.67 2.68 0.34 1.36 0 0 Z " fill="#A385C1" transform="translate(203,329)"/>
<path d="M0 0 C0.99 0 1.98 0 3 0 C3.33 2.31 3.66 4.62 4 7 C4.66 7 5.32 7 6 7 C5.67 7.99 5.34 8.98 5 10 C0.07692308 5.69230769 0.07692308 5.69230769 -0.3125 2.1875 C-0.209375 1.465625 -0.10625 0.74375 0 0 Z " fill="#FCD4EC" transform="translate(81,219)"/>
<path d="M0 0 C1.32 0 2.64 0 4 0 C2.55746343 3.36591866 0.66735273 5.51047079 -2 8 C-2.66 7.34 -3.32 6.68 -4 6 C-4 5.01 -4 4.02 -4 3 C-3.01 2.67 -2.02 2.34 -1 2 C-0.67 1.34 -0.34 0.68 0 0 Z " fill="#CBE5F2" transform="translate(392,332)"/>
<path d="M0 0 C1.65 0 3.3 0 5 0 C4.01 0.33 3.02 0.66 2 1 C2 1.66 2 2.32 2 3 C2.99 3 3.98 3 5 3 C5 3.66 5 4.32 5 5 C4.01 5 3.02 5 2 5 C2 5.66 2 6.32 2 7 C2.99 7.33 3.98 7.66 5 8 C3.35 8 1.7 8 0 8 C0 5.36 0 2.72 0 0 Z " fill="#642993" transform="translate(185,297)"/>
<path d="M0 0 C0.66 0 1.32 0 2 0 C2 0.66 2 1.32 2 2 C2.99 2.33 3.98 2.66 5 3 C5 4.32 5 5.64 5 7 C3.35 7 1.7 7 0 7 C0 4.69 0 2.38 0 0 Z " fill="#D48BBC" transform="translate(66,82)"/>
<path d="M0 0 C0.33 0.66 0.66 1.32 1 2 C1.99 2 2.98 2 4 2 C4 1.34 4 0.68 4 0 C4.66 0 5.32 0 6 0 C6 1.98 6 3.96 6 6 C4.02 6 2.04 6 0 6 C0 4.02 0 2.04 0 0 Z " fill="#AA91C6" transform="translate(294,338)"/>
<path d="M0 0 C0.66 0 1.32 0 2 0 C2 1.32 2 2.64 2 4 C2.33 3.34 2.66 2.68 3 2 C3.99 2 4.98 2 6 2 C5.67 3.65 5.34 5.3 5 7 C3.35 6.67 1.7 6.34 0 6 C0 4.02 0 2.04 0 0 Z " fill="#A689C2" transform="translate(268,338)"/>
<path d="M0 0 C1.2065625 0.0309375 1.2065625 0.0309375 2.4375 0.0625 C2.4375 1.7125 2.4375 3.3625 2.4375 5.0625 C0.7875 5.0625 -0.8625 5.0625 -2.5625 5.0625 C-3.125 3.125 -3.125 3.125 -3.5625 1.0625 C-2.5625 0.0625 -2.5625 0.0625 0 0 Z " fill="#D58BBC" transform="translate(64.5625,93.9375)"/>
<path d="M0 0 C1.65 0 3.3 0 5 0 C5.5625 1.9375 5.5625 1.9375 6 4 C5 5 5 5 1.9375 5.0625 C0.4834375 5.0315625 0.4834375 5.0315625 -1 5 C-0.67 3.35 -0.34 1.7 0 0 Z " fill="#B49DCD" transform="translate(211,329)"/>
<path d="M0 0 C0 1.98 0 3.96 0 6 C-1.98 6 -3.96 6 -6 6 C-6 4.33333333 -6 2.66666667 -6 1 C-3 0 -3 0 0 0 Z " fill="#D376AF" transform="translate(107,114)"/>
<path d="M0 0 C2.97 0.495 2.97 0.495 6 1 C5.67 2.32 5.34 3.64 5 5 C3.35 5 1.7 5 0 5 C-0.33 4.01 -0.66 3.02 -1 2 C-0.67 1.34 -0.34 0.68 0 0 Z " fill="#AD94C8" transform="translate(262,329)"/>
<path d="M0 0 C1.98 0 3.96 0 6 0 C5 3 5 3 2 5 C-0.1875 4.625 -0.1875 4.625 -2 4 C-1.34 2.68 -0.68 1.36 0 0 Z " fill="#AD92C8" transform="translate(251,329)"/>
<path d="M0 0 C1.98 0.495 1.98 0.495 4 1 C4 5 4 5 3 7 C1.68 6.34 0.36 5.68 -1 5 C-0.67 3.35 -0.34 1.7 0 0 Z " fill="#733F9E" transform="translate(272,299)"/>
<path d="M0 0 C0 1.98 0 3.96 0 6 C-1.98 6 -3.96 6 -6 6 C-5.67 4.35 -5.34 2.7 -5 1 C-2 0 -2 0 0 0 Z " fill="#D684B6" transform="translate(167,83)"/>
<path d="M0 0 C1.98 0.495 1.98 0.495 4 1 C4 2.65 4 4.3 4 6 C2.68 6 1.36 6 0 6 C-1.125 2.25 -1.125 2.25 0 0 Z " fill="#C53391" transform="translate(113,64)"/>
<path d="M0 0 C0.33 0.66 0.66 1.32 1 2 C2.9001177 3.24174796 2.9001177 3.24174796 5 4 C5.66 3.67 6.32 3.34 7 3 C6.67 4.65 6.34 6.3 6 8 C5.01 7.67 4.02 7.34 3 7 C2.67 6.34 2.34 5.68 2 5 C1.34 5.99 0.68 6.98 0 8 C0 5.36 0 2.72 0 0 Z " fill="#C12E92" transform="translate(79,62)"/>
<path d="M0 0 C1.98 0 3.96 0 6 0 C5.67 1.32 5.34 2.64 5 4 C3.68 4.33 2.36 4.66 1 5 C0.67 3.35 0.34 1.7 0 0 Z " fill="#AE95C8" transform="translate(189,340)"/>
<path d="M0 0 C2 0 2 0 3.625 1.25 C5 3 5 3 5 7 C3.35 6.67 1.7 6.34 0 6 C0 4.02 0 2.04 0 0 Z " fill="#B8A4D0" transform="translate(278,338)"/>
<path d="M0 0 C0 1.65 0 3.3 0 5 C-2.31 5 -4.62 5 -7 5 C-7.33 5.66 -7.66 6.32 -8 7 C-8 5.02 -8 3.04 -8 1 C-7.67 1.99 -7.34 2.98 -7 4 C-6.21625 3.34 -5.4325 2.68 -4.625 2 C-2 0 -2 0 0 0 Z " fill="#9874B8" transform="translate(293,329)"/>
<path d="M0 0 C0.66 0 1.32 0 2 0 C2.33 1.32 2.66 2.64 3 4 C3.66 3.67 4.32 3.34 5 3 C5.33 4.32 5.66 5.64 6 7 C4.02 7 2.04 7 0 7 C0 4.69 0 2.38 0 0 Z " fill="#DB9BC2" transform="translate(108,113)"/>
<path d="M0 0 C-0.66 1.98 -1.32 3.96 -2 6 C-3.32 6 -4.64 6 -6 6 C-5.67 4.35 -5.34 2.7 -5 1 C-2 0 -2 0 0 0 Z " fill="#D793C0" transform="translate(88,93)"/>
<path d="M0 0 C0 1.98 0 3.96 0 6 C-0.66 6 -1.32 6 -2 6 C-2 4.68 -2 3.36 -2 2 C-3.65 2 -5.3 2 -7 2 C-7.33 2.99 -7.66 3.98 -8 5 C-7.67 3.35 -7.34 1.7 -7 0 C-2.25 -1.125 -2.25 -1.125 0 0 Z " fill="#C1288D" transform="translate(77,64)"/>
<path d="M0 0 C0.66 0 1.32 0 2 0 C2.33 0.66 2.66 1.32 3 2 C3.66 2.33 4.32 2.66 5 3 C5 3.99 5 4.98 5 6 C2 7 2 7 0 7 C0 4.69 0 2.38 0 0 Z " fill="#D482B7" transform="translate(94,113)"/>
<path d="M0 0 C0.66 0.99 1.32 1.98 2 3 C1.67 3.99 1.34 4.98 1 6 C-0.32 6 -1.64 6 -3 6 C-2.625 3.5625 -2.625 3.5625 -2 1 C-1.34 0.67 -0.68 0.34 0 0 Z " fill="#AC92C7" transform="translate(274,328)"/>
<path d="M0 0 C1.98 0 3.96 0 6 0 C6 1.65 6 3.3 6 5 C4.35 5 2.7 5 1 5 C0.67 3.35 0.34 1.7 0 0 Z " fill="#D687B9" transform="translate(87,115)"/>
<path d="M0 0 C0.33 0 0.66 0 1 0 C1.33 2.97 1.66 5.94 2 9 C0.35 9 -1.3 9 -3 9 C-2.01 6.03 -1.02 3.06 0 0 Z " fill="#D79AC2" transform="translate(78,62)"/>
<path d="M0 0 C2.475 0.495 2.475 0.495 5 1 C5 2.65 5 4.3 5 6 C4.67 4.68 4.34 3.36 4 2 C3.34 2 2.68 2 2 2 C2 3.32 2 4.64 2 6 C1.34 6 0.68 6 0 6 C0 4.02 0 2.04 0 0 Z " fill="#683096" transform="translate(311,299)"/>
<path d="M0 0 C2.475 0.495 2.475 0.495 5 1 C5 2.65 5 4.3 5 6 C4.67 4.68 4.34 3.36 4 2 C3.34 2 2.68 2 2 2 C2 3.32 2 4.64 2 6 C1.34 6 0.68 6 0 6 C0 4.02 0 2.04 0 0 Z " fill="#6B319A" transform="translate(236,299)"/>
<path d="M0 0 C2.475 0.99 2.475 0.99 5 2 C5 1.34 5 0.68 5 0 C5.66 0 6.32 0 7 0 C6.67 1.32 6.34 2.64 6 4 C4.35 4 2.7 4 1 4 C0.67 2.68 0.34 1.36 0 0 Z " fill="#FCDAEE" transform="translate(84,215)"/>
<path d="M0 0 C0 2.31 0 4.62 0 7 C-1.65 6.67 -3.3 6.34 -5 6 C-4.6875 4.125 -4.6875 4.125 -4 2 C-1 0 -1 0 0 0 Z " fill="#DDA9C9" transform="translate(125,104)"/>
<path d="M0 0 C0.33 1.32 0.66 2.64 1 4 C0.34 4 -0.32 4 -1 4 C-2.62514468 5.45833358 -2.62514468 5.45833358 -4 7 C-5.5 5.625 -5.5 5.625 -7 4 C-7 3.34 -7 2.68 -7 2 C-4.69 2 -2.38 2 0 2 C0 1.34 0 0.68 0 0 Z " fill="#D06DAC" transform="translate(151,82)"/>
<path d="M0 0 C1.2065625 0.0309375 1.2065625 0.0309375 2.4375 0.0625 C2.7675 0.7225 3.0975 1.3825 3.4375 2.0625 C2.4475 2.0625 1.4575 2.0625 0.4375 2.0625 C0.1075 2.7225 -0.2225 3.3825 -0.5625 4.0625 C-2.625 4.6875 -2.625 4.6875 -4.5625 5.0625 C-3.43829114 0.08386076 -3.43829114 0.08386076 0 0 Z " fill="#D270AE" transform="translate(116.5625,83.9375)"/>
<path d="M0 0 C2.475 0.495 2.475 0.495 5 1 C5 2.65 5 4.3 5 6 C4.67 4.68 4.34 3.36 4 2 C3.34 2 2.68 2 2 2 C2 3.32 2 4.64 2 6 C1.34 6 0.68 6 0 6 C0 4.02 0 2.04 0 0 Z " fill="#C42C8B" transform="translate(118,64)"/>
<path d="M0 0 C1.98 0.495 1.98 0.495 4 1 C4 2.65 4 4.3 4 6 C3.34 5.67 2.68 5.34 2 5 C1.67 5.33 1.34 5.66 1 6 C0.34 6 -0.32 6 -1 6 C-0.67 4.02 -0.34 2.04 0 0 Z " fill="#662995" transform="translate(291,299)"/>
<path d="M0 0 C1.98 0.495 1.98 0.495 4 1 C4 2.65 4 4.3 4 6 C3.34 5.67 2.68 5.34 2 5 C1.67 5.33 1.34 5.66 1 6 C0.34 6 -0.32 6 -1 6 C-0.67 4.02 -0.34 2.04 0 0 Z " fill="#662B95" transform="translate(231,299)"/>
<path d="M0 0 C2.31 0 4.62 0 7 0 C6.01 0.495 6.01 0.495 5 1 C4.34786708 3.02463255 4.34786708 3.02463255 4 5 C3.01 4.01 2.02 3.02 1 2 C0.34 2.66 -0.32 3.32 -1 4 C-0.67 2.68 -0.34 1.36 0 0 Z " fill="#D36FAC" transform="translate(151,115)"/>
<path d="M0 0 C1.98 0.66 3.96 1.32 6 2 C6 2.99 6 3.98 6 5 C4.02 5.33 2.04 5.66 0 6 C0 4.02 0 2.04 0 0 Z " fill="#D378B1" transform="translate(164,114)"/>
<path d="M0 0 C0.66 0.33 1.32 0.66 2 1 C2 1.99 2 2.98 2 4 C2.99 4.33 3.98 4.66 5 5 C5 5.66 5 6.32 5 7 C2.13275314 6.42655063 1.1385485 6.1385485 -1 4 C-0.625 1.875 -0.625 1.875 0 0 Z " fill="#A486C2" transform="translate(316,301)"/>
<path d="M0 0 C0.99 0.33 1.98 0.66 3 1 C3 2.65 3 4.3 3 6 C2.01 6.33 1.02 6.66 0 7 C-1.125 2.25 -1.125 2.25 0 0 Z " fill="#6C3599" transform="translate(208,299)"/>
<path d="M0 0 C0.66 0 1.32 0 2 0 C1.67 1.32 1.34 2.64 1 4 C0.01 4 -0.98 4 -2 4 C-2 4.99 -2 5.98 -2 7 C-1.01 7.33 -0.02 7.66 1 8 C-0.32 8 -1.64 8 -3 8 C-3 6.35 -3 4.7 -3 3 C-2.01 2.67 -1.02 2.34 0 2 C0 1.34 0 0.68 0 0 Z " fill="#602291" transform="translate(268,297)"/>
<path d="M0 0 C0.33 1.32 0.66 2.64 1 4 C-0.65 4.33 -2.3 4.66 -4 5 C-4 3.68 -4 2.36 -4 1 C-2 0 -2 0 0 0 Z " fill="#E2B0CC" transform="translate(160,115)"/>
<path d="M0 0 C0.66 0.33 1.32 0.66 2 1 C1.34 2.98 0.68 4.96 0 7 C-0.66 7 -1.32 7 -2 7 C-2.6875 5.1875 -2.6875 5.1875 -3 3 C-1.5625 1.25 -1.5625 1.25 0 0 Z " fill="#D78EBD" transform="translate(108,94)"/>
<path d="M0 0 C0 1.65 0 3.3 0 5 C-2.4375 4.1875 -2.4375 4.1875 -5 3 C-5.33 2.01 -5.66 1.02 -6 0 C-2.25 -1.125 -2.25 -1.125 0 0 Z " fill="#CF6EAE" transform="translate(98,95)"/>
<path d="M0 0 C0 0.66 0 1.32 0 2 C1.32 2 2.64 2 4 2 C4 2.66 4 3.32 4 4 C2.02 4 0.04 4 -2 4 C-2 3.34 -2 2.68 -2 2 C-3.32 1.67 -4.64 1.34 -6 1 C-3.92446352 0.4465236 -2.15634036 0 0 0 Z " fill="#CC5AA3" transform="translate(69,67)"/>
<path d="M0 0 C0.99 0 1.98 0 3 0 C3 1.98 3 3.96 3 6 C1.68 6 0.36 6 -1 6 C-1 3 -1 3 0 0 Z " fill="#C43792" transform="translate(104,64)"/>
<path d="M0 0 C0.66 0 1.32 0 2 0 C2 2.64 2 5.28 2 8 C1.34 8 0.68 8 0 8 C-0.38063221 5.6739143 -0.71269945 3.33944736 -1 1 C-0.67 0.67 -0.34 0.34 0 0 Z " fill="#8E65B2" transform="translate(308,297)"/>
<path d="M0 0 C0 2.64 0 5.28 0 8 C-0.99 8 -1.98 8 -3 8 C-3 5.69 -3 3.38 -3 1 C-1 0 -1 0 0 0 Z " fill="#FCC5E5" transform="translate(110,199)"/>
<path d="M0 0 C0.66 0.33 1.32 0.66 2 1 C1.67 2.65 1.34 4.3 1 6 C-1.475 5.01 -1.475 5.01 -4 4 C-3.34 3.67 -2.68 3.34 -2 3 C-1.67 2.34 -1.34 1.68 -1 1 C-0.67 0.67 -0.34 0.34 0 0 Z " fill="#D999C2" transform="translate(101,106)"/>
<path d="M0 0 C1.98 0.495 1.98 0.495 4 1 C4 1.99 4 2.98 4 4 C2.35 4 0.7 4 -1 4 C-0.67 2.68 -0.34 1.36 0 0 Z " fill="#D384B9" transform="translate(76,84)"/>
<path d="M0 0 C0.99 0.33 1.98 0.66 3 1 C3 2.32 3 3.64 3 5 C1.68 4.67 0.36 4.34 -1 4 C-0.67 2.68 -0.34 1.36 0 0 Z " fill="#D37EB5" transform="translate(133,84)"/>
<path d="M0 0 C1.65 0 3.3 0 5 0 C5 1.32 5 2.64 5 4 C3.35 3.67 1.7 3.34 0 3 C0 2.01 0 1.02 0 0 Z " fill="#D9BDD6" transform="translate(70,66)"/>
</svg>
