<?xml version="1.0" encoding="UTF-8"?>
<svg version="1.1" xmlns="http://www.w3.org/2000/svg" width="400" height="400">
<path d="M0 0 C132 0 264 0 400 0 C400 132 400 264 400 400 C268 400 136 400 0 400 C0 268 0 136 0 0 Z " fill="#E9F5F4" transform="translate(0,0)"/>
<path d="M0 0 C2.5 0.0625 2.5 0.0625 5 1 C6.86007925 4.27728249 7 6.1659754 7 10 C7.66 10 8.32 10 9 10 C9 10.66 9 11.32 9 12 C10.093125 12.103125 11.18625 12.20625 12.3125 12.3125 C15.85559629 12.97307727 16.93243723 13.2027092 19 16 C15.65252001 23.855644 6.72902992 26.728722 -0.6875 29.8125 C-1.41203369 30.11454346 -2.13656738 30.41658691 -2.88305664 30.7277832 C-6.91252689 32.34483979 -10.65716905 33.473389 -15 34 C-15.33 34.99 -15.66 35.98 -16 37 C-17.49389648 38.47485352 -17.49389648 38.47485352 -19.43359375 40.06640625 C-24.5754761 44.43133379 -29.30625315 49.15974789 -34.0625 53.9375 C-34.92166016 54.79279297 -35.78082031 55.64808594 -36.66601562 56.52929688 C-40.28994228 60.15876047 -43.86916511 63.77871907 -47.1875 67.69140625 C-53.03266235 74.49577473 -59.57869157 80.68193838 -65.9375 87 C-67.30296745 88.36044318 -68.66820386 89.72111831 -70.03320312 91.08203125 C-73.35280886 94.3907031 -76.67553273 97.69621322 -80 101 C-76.48311335 101 -73.71334324 100.19037361 -70.3203125 99.25 C-68.98571259 98.88528672 -67.65107601 98.52070758 -66.31640625 98.15625 C-64.22023146 97.57907801 -62.12464355 96.99990098 -60.02978516 96.41796875 C-58.00308594 95.85650861 -55.97437086 95.30286361 -53.9453125 94.75 C-52.12797607 94.24726563 -52.12797607 94.24726563 -50.27392578 93.734375 C-47.36957131 93.08289862 -44.95685877 92.84345631 -42 93 C-44.98646769 94.99097846 -47.59687262 95.94124926 -51 97 C-50.7834375 98.08667969 -50.7834375 98.08667969 -50.5625 99.1953125 C-50.376875 100.16210938 -50.19125 101.12890625 -50 102.125 C-49.814375 103.07632813 -49.62875 104.02765625 -49.4375 105.0078125 C-48.99274954 108.04958796 -48.92713529 110.93057393 -49 114 C-48.09765625 114.20753906 -47.1953125 114.41507812 -46.265625 114.62890625 C-36.74019798 116.83655824 -27.24092327 119.14870762 -17.75 121.5 C-16.59145508 121.78431885 -15.43291016 122.0686377 -14.23925781 122.36157227 C-7.34825253 124.07748145 -0.5931406 126.01500297 6.14526367 128.26025391 C10.64527964 129.42634032 14.49891401 128.89040175 19 128 C42.31315355 123.54210237 42.31315355 123.54210237 49 128 C48.51003752 132.40966229 47.12314463 133.97445364 44 137 C42.61987726 140.83004475 43.30875047 144.05018332 43.94140625 147.9765625 C43.96074219 148.64429688 43.98007813 149.31203125 44 150 C43.34 150.66 42.68 151.32 42 152 C36.96632517 151.76337426 33.92039528 149.94699864 29.875 147.0625 C28.86179688 146.35222656 27.84859375 145.64195312 26.8046875 144.91015625 C24.54054575 143.26784519 22.54438961 141.56634943 20.51293945 139.6328125 C12.20897673 131.95950343 4.33098876 129.36811792 -6.5625 126.875 C-8.12117178 126.48991829 -9.67912382 126.10191115 -11.23632812 125.7109375 C-18.53465642 123.75330217 -18.53465642 123.75330217 -26 123 C-25.95359375 123.66644531 -25.9071875 124.33289063 -25.859375 125.01953125 C-25.49684571 134.27697559 -27.98686762 141.37766502 -32.375 149.4375 C-34.35580427 152.69793246 -34.35580427 152.69793246 -33.32470703 154.96533203 C-25.26487679 167.34473218 -14.01330226 176.42303301 0.06542969 180.37841797 C3.50094925 181.48225855 6.66903714 183.10996263 9.875 184.75 C11.00679687 185.32234375 12.13859375 185.8946875 13.3046875 186.484375 C16 188 16 188 18 190 C18.125 192.625 18.125 192.625 18 195 C11.25 198 11.25 198 9 198 C9 198.66 9 199.32 9 200 C8.34 200 7.68 200 7 200 C6.01 203.96 6.01 203.96 5 208 C3.35 208.33 1.7 208.66 0 209 C-4.52421999 203.81795293 -6.95894626 198.86831076 -9.11865234 192.36889648 C-13.95407055 177.9764034 -22.08367889 165.53305916 -35 157 C-36.32 157 -37.64 157 -39 157 C-39.2371875 157.58910156 -39.474375 158.17820313 -39.71875 158.78515625 C-44.16357416 166.46873947 -56.0758681 171.26743507 -64.1640625 174.11328125 C-76.01779433 176.85340052 -90.02678546 176.36468267 -101 171 C-102.11375 170.46375 -103.2275 169.9275 -104.375 169.375 C-124.64688085 158.99450014 -139.16233541 140.20514868 -146.1394043 118.70849609 C-151.04372106 103.07231751 -152.5745407 85.72816841 -147 70 C-146.34 70 -145.68 70 -145 70 C-144.7834375 68.9171875 -144.7834375 68.9171875 -144.5625 67.8125 C-144.376875 66.884375 -144.19125 65.95625 -144 65 C-143.90074219 64.18917969 -143.80148438 63.37835938 -143.69921875 62.54296875 C-142.84307885 59.42929794 -141.75028089 58.49270507 -139.25 56.5 C-136.8835167 54.56340697 -134.76996571 52.75131428 -132.6875 50.5 C-120.88136474 39.51754859 -108.43430322 36.15629652 -92.74609375 36.6875 C-74.28243666 37.69861363 -59.31910013 48.94664887 -47 62 C-42.97547648 60.35800408 -40.09057336 57.5490349 -36.984375 54.6015625 C-36.41166367 54.05905853 -35.83895233 53.51655457 -35.24888611 52.95761108 C-33.40372203 51.19218106 -31.57384346 49.41244125 -29.75 47.625 C-29.13162262 47.01930176 -28.51324524 46.41360352 -27.87612915 45.78955078 C-18.41696434 36.41659365 -12.18232073 28.06333891 -8.62548828 15.04003906 C-6.97444992 9.65515361 -3.99959587 3.99959587 0 0 Z " fill="#D6E3DD" transform="translate(170,80)"/>
<path d="M0 0 C8.50201248 4.495056 15.44729823 9.40012439 21.92578125 16.546875 C18.16629659 21.19094428 14.11282752 25.39847349 9.8359375 29.55859375 C9.28432953 30.09759308 8.73272156 30.63659241 8.16439819 31.19192505 C5.85055445 33.45148653 3.53549387 35.70929917 1.2019043 37.94848633 C-0.51481798 39.59891675 -2.21543836 41.2645699 -3.9140625 42.93359375 C-4.44724594 43.43783371 -4.98042938 43.94207367 -5.5297699 44.46159363 C-7.17346593 46.03520472 -7.17346593 46.03520472 -9.07421875 48.546875 C-8.79186678 52.16316537 -7.07449452 53.91270373 -4.56420898 56.39746094 C-3.82351669 57.13792664 -3.0828244 57.87839233 -2.31968689 58.64129639 C-1.51551834 59.42998108 -0.71134979 60.21866577 0.1171875 61.03125 C0.93702621 61.84684387 1.75686493 62.66243774 2.60154724 63.50274658 C5.22350887 66.10790606 7.85570573 68.70244579 10.48828125 71.296875 C12.2669597 73.06050869 14.04496317 74.8248234 15.82226562 76.58984375 C20.18230065 80.91678903 24.55078652 85.23505898 28.92578125 89.546875 C26.29632723 96.54473055 21.19869274 99.65800205 14.61328125 102.921875 C5.12903911 106.39601007 -7.22158709 106.17170498 -16.57421875 102.484375 C-18.43529938 101.55903324 -20.27027669 100.57918867 -22.07421875 99.546875 C-23.028125 99.01578125 -23.98203125 98.4846875 -24.96484375 97.9375 C-39.32933456 89.3816011 -47.89421926 76.87256338 -54.07421875 61.546875 C-54.34564697 60.89654297 -54.6170752 60.24621094 -54.89672852 59.57617188 C-57.35773825 53.11483359 -57.55730553 47.0347582 -57.51171875 40.171875 C-57.53169922 39.11226562 -57.55167969 38.05265625 -57.57226562 36.9609375 C-57.56474815 24.69241112 -53.47228658 14.54480482 -45.07421875 5.546875 C-31.70427612 -4.88317828 -15.6714603 -7.08899602 0 0 Z " fill="#D6E3DD" transform="translate(94.07421875,134.453125)"/>
<path d="M0 0 C-1.36113013 3.04581486 -2.89330096 5.13839026 -5.25634766 7.48339844 C-5.91688141 8.14378113 -6.57741516 8.80416382 -7.25796509 9.48455811 C-7.96947723 10.18574768 -8.68098938 10.88693726 -9.4140625 11.609375 C-10.14370209 12.33618469 -10.87334167 13.06299438 -11.62509155 13.81182861 C-13.9537388 16.12929198 -16.28924826 18.4396995 -18.625 20.75 C-20.20618653 22.32115444 -21.78692125 23.89276371 -23.3671875 25.46484375 C-27.2395669 29.31518653 -31.11760171 33.15976117 -35 37 C-31.48311335 37 -28.71334324 36.19037361 -25.3203125 35.25 C-23.98571259 34.88528672 -22.65107601 34.52070758 -21.31640625 34.15625 C-19.22023146 33.57907801 -17.12464355 32.99990098 -15.02978516 32.41796875 C-13.00308594 31.85650861 -10.97437086 31.30286361 -8.9453125 30.75 C-7.73375488 30.41484375 -6.52219727 30.0796875 -5.27392578 29.734375 C-2.36957131 29.08289862 0.04314123 28.84345631 3 29 C0.01353231 30.99097846 -2.59687262 31.94124926 -6 33 C-5.855625 33.72445312 -5.71125 34.44890625 -5.5625 35.1953125 C-5.376875 36.16210938 -5.19125 37.12890625 -5 38.125 C-4.7215625 39.55199219 -4.7215625 39.55199219 -4.4375 41.0078125 C-3.99274954 44.04958796 -3.92713529 46.93057393 -4 50 C-3.09765625 50.20753906 -2.1953125 50.41507813 -1.265625 50.62890625 C8.25980202 52.83655824 17.75907673 55.14870762 27.25 57.5 C28.40854492 57.78431885 29.56708984 58.0686377 30.76074219 58.36157227 C37.65174747 60.07748145 44.4068594 62.01500297 51.14526367 64.26025391 C55.64527964 65.42634032 59.49891401 64.89040175 64 64 C87.31315355 59.54210237 87.31315355 59.54210237 94 64 C93.51003752 68.40966229 92.12314463 69.97445364 89 73 C87.61987726 76.83004475 88.30875047 80.05018332 88.94140625 83.9765625 C88.96074219 84.64429688 88.98007813 85.31203125 89 86 C88.34 86.66 87.68 87.32 87 88 C81.96632517 87.76337426 78.92039528 85.94699864 74.875 83.0625 C73.86179687 82.35222656 72.84859375 81.64195312 71.8046875 80.91015625 C69.54054575 79.26784519 67.54438961 77.56634943 65.51293945 75.6328125 C57.20897673 67.95950343 49.33098876 65.36811792 38.4375 62.875 C36.87882822 62.48991829 35.32087618 62.10191115 33.76367188 61.7109375 C26.46534358 59.75330217 26.46534358 59.75330217 19 59 C19.04640625 59.66644531 19.0928125 60.33289063 19.140625 61.01953125 C19.50315429 70.27697559 17.01313238 77.37766502 12.625 85.4375 C10.64419573 88.69793246 10.64419573 88.69793246 11.67529297 90.96533203 C19.73512321 103.34473218 30.98669774 112.42303301 45.06542969 116.37841797 C48.50094925 117.48225855 51.66903714 119.10996263 54.875 120.75 C56.00679688 121.32234375 57.13859375 121.8946875 58.3046875 122.484375 C61 124 61 124 63 126 C63.125 128.625 63.125 128.625 63 131 C56.25 134 56.25 134 54 134 C54 134.66 54 135.32 54 136 C53.34 136 52.68 136 52 136 C51.01 139.96 51.01 139.96 50 144 C48.35 144.33 46.7 144.66 45 145 C41.44911113 140.94450093 38.84352076 137.28984159 37.48120117 132.02661133 C31.21950406 108.74328567 12.68638504 94.14114748 -4.1942749 78.06719971 C-10.78446739 71.77708208 -17.30835097 65.41824698 -23.83152199 59.05878639 C-26.10688021 56.85314307 -28.40019654 54.66762056 -30.69718933 52.48454285 C-32.08065285 51.15114232 -33.46375552 49.81736725 -34.84643555 48.4831543 C-35.48887207 47.88225983 -36.13130859 47.28136536 -36.79321289 46.66226196 C-38.53007507 44.97026062 -38.53007507 44.97026062 -41 42 C-40.55750073 38.32645512 -39.01318717 36.63843431 -36.42993164 34.05761719 C-35.67567398 33.29713074 -34.92141632 32.53664429 -34.14430237 31.75311279 C-33.32453415 30.94255432 -32.50476593 30.13199585 -31.66015625 29.296875 C-30.82286484 28.45908508 -29.98557343 27.62129517 -29.12290955 26.75811768 C-27.3518892 24.98943784 -25.57717478 23.22445041 -23.79907227 21.46289062 C-21.06806427 18.75551612 -18.35065653 16.03503002 -15.63476562 13.3125 C-13.9148542 11.5981637 -12.19417695 9.88459528 -10.47265625 8.171875 C-9.65491226 7.3532196 -8.83716827 6.53456421 -7.99464417 5.69110107 C-7.23723434 4.94322327 -6.47982452 4.19534546 -5.69946289 3.42480469 C-5.0318544 2.76180359 -4.36424591 2.09880249 -3.67640686 1.41571045 C-2 0 -2 0 0 0 Z " fill="#D5E2DD" transform="translate(125,144)"/>
<path d="M0 0 C8.50201248 4.495056 15.44729823 9.40012439 21.92578125 16.546875 C20.99304016 17.67582376 20.05438003 18.79988376 19.11328125 19.921875 C18.59121094 20.54835937 18.06914063 21.17484375 17.53125 21.8203125 C15.92578125 23.546875 15.92578125 23.546875 12.92578125 25.546875 C12.37148437 24.79664063 11.8171875 24.04640625 11.24609375 23.2734375 C4.66202828 15.53660636 -4.86386279 11.58907984 -14.72265625 10.1640625 C-22.4672138 9.65367619 -28.7179836 12.19290115 -35.07421875 16.546875 C-37.27823342 18.94633211 -37.27823342 18.94633211 -39.07421875 21.546875 C-39.5640625 22.19785156 -40.05390625 22.84882813 -40.55859375 23.51953125 C-46.16602691 32.77871873 -45.37361224 44.83939131 -43.375 55.15625 C-41.32108827 61.84662912 -38.04437818 67.80664449 -34.07421875 73.546875 C-33.63464844 74.18367188 -33.19507812 74.82046875 -32.7421875 75.4765625 C-25.84737375 84.41796361 -15.3918817 89.34461693 -4.42578125 90.9296875 C3.41244179 91.44624661 9.37863826 88.69946106 15.92578125 84.546875 C17.70519636 82.96341528 17.70519636 82.96341528 18.92578125 81.546875 C23.21816748 83.19779278 25.80517275 86.28442066 28.92578125 89.546875 C27.59084878 95.22033799 23.6232047 97.63590801 18.92578125 100.546875 C10.23365192 105.84695386 -0.21762259 105.74594269 -10.07421875 104.546875 C-14.47522699 103.43927159 -18.1448427 101.79547748 -22.07421875 99.546875 C-23.028125 99.01578125 -23.98203125 98.4846875 -24.96484375 97.9375 C-39.32933456 89.3816011 -47.89421926 76.87256338 -54.07421875 61.546875 C-54.34564697 60.89654297 -54.6170752 60.24621094 -54.89672852 59.57617188 C-57.35773825 53.11483359 -57.55730553 47.0347582 -57.51171875 40.171875 C-57.53169922 39.11226562 -57.55167969 38.05265625 -57.57226562 36.9609375 C-57.56474815 24.69241112 -53.47228658 14.54480482 -45.07421875 5.546875 C-31.70427612 -4.88317828 -15.6714603 -7.08899602 0 0 Z " fill="#FEFEFE" transform="translate(94.07421875,134.453125)"/>
<path d="M0 0 C5.84349739 2.12889035 9.71127454 5.56210148 14 10 C13.54036865 10.43344727 13.0807373 10.86689453 12.60717773 11.31347656 C10.53769149 13.2792127 8.48763766 15.26410121 6.4375 17.25 C5.71369141 17.93191406 4.98988281 18.61382812 4.24414062 19.31640625 C3.56416016 19.98027344 2.88417969 20.64414063 2.18359375 21.328125 C1.54993896 21.9355957 0.91628418 22.54306641 0.26342773 23.16894531 C-1.19891776 24.90133927 -1.19891776 24.90133927 -0.93969727 26.98144531 C0.26016995 29.55886857 1.77321363 31.02889512 3.8515625 32.96875 C4.61984375 33.70480469 5.388125 34.44085938 6.1796875 35.19921875 C7.81404443 36.7369763 9.45209308 38.27081935 11.09375 39.80078125 C11.85945313 40.53683594 12.62515625 41.27289063 13.4140625 42.03125 C14.1251416 42.69705078 14.8362207 43.36285156 15.56884766 44.04882812 C17 46 17 46 16.90771484 48.10742188 C15.29809329 51.46346982 12.3573824 52.81396817 9 54 C1.61500588 55.09096504 -4.94515751 53.83378196 -11.0625 49.55859375 C-17.35877714 44.41901904 -22.51390079 37.81021122 -25 30 C-25.64726784 22.41771954 -26.17010368 14.61464722 -22 8 C-15.55062788 0.53230597 -9.65986315 -1.31334861 0 0 Z " fill="#FDFEFD" transform="translate(86,158)"/>
<path d="M0 0 C-1.36113013 3.04581486 -2.89330096 5.13839026 -5.25634766 7.48339844 C-5.91688141 8.14378113 -6.57741516 8.80416382 -7.25796509 9.48455811 C-7.96947723 10.18574768 -8.68098938 10.88693726 -9.4140625 11.609375 C-10.14370209 12.33618469 -10.87334167 13.06299438 -11.62509155 13.81182861 C-13.9537388 16.12929198 -16.28924826 18.4396995 -18.625 20.75 C-20.20618653 22.32115444 -21.78692125 23.89276371 -23.3671875 25.46484375 C-27.2395669 29.31518653 -31.11760171 33.15976117 -35 37 C-31.48311335 37 -28.71334324 36.19037361 -25.3203125 35.25 C-23.98571259 34.88528672 -22.65107601 34.52070758 -21.31640625 34.15625 C-19.22023146 33.57907801 -17.12464355 32.99990098 -15.02978516 32.41796875 C-13.00308594 31.85650861 -10.97437086 31.30286361 -8.9453125 30.75 C-7.73375488 30.41484375 -6.52219727 30.0796875 -5.27392578 29.734375 C-2.36957131 29.08289862 0.04314123 28.84345631 3 29 C-0.35349312 31.23566208 -3.56693589 32.11856481 -7.40625 33.12890625 C-8.48791443 33.4207505 -8.48791443 33.4207505 -9.59143066 33.7184906 C-11.89292661 34.33836478 -14.19635971 34.95064814 -16.5 35.5625 C-18.80318628 36.17951933 -21.1059544 36.79807329 -23.40856934 37.41722107 C-24.8405162 37.80167532 -26.27287606 38.18459535 -27.70568848 38.56581116 C-30.4997495 39.31139134 -33.25563093 40.08521031 -36 41 C-35.39003174 41.14099121 -34.78006348 41.28198242 -34.15161133 41.42724609 C-31.37094196 42.07241423 -28.59172688 42.72364729 -25.8125 43.375 C-24.85279297 43.59671875 -23.89308594 43.8184375 -22.90429688 44.046875 C-21.50727539 44.37558594 -21.50727539 44.37558594 -20.08203125 44.7109375 C-18.80162964 45.00943604 -18.80162964 45.00943604 -17.49536133 45.31396484 C-14.90086183 46.02725548 -12.47795561 46.9560375 -10 48 C-10 48.33 -10 48.66 -10 49 C-16.12451551 48.55458069 -21.89348233 47.39058831 -27.84765625 45.953125 C-28.63338013 45.76572754 -29.419104 45.57833008 -30.2286377 45.38525391 C-32.15300424 44.92592202 -34.0765835 44.463294 -36 44 C-27.5708367 52.66201603 -19.11399552 61.2959699 -10.62184906 69.89627266 C-6.67837629 73.89168505 -2.74464328 77.89574308 1.16748047 81.921875 C4.95125035 85.81519813 8.75973322 89.68276347 12.58576965 93.53454208 C14.03292315 95.00001344 15.4713275 96.47418402 16.90019226 97.95749283 C26.24052734 107.63893886 34.06451333 113.25676993 47 117 C49.71226544 118.1313703 52.25663947 119.40693507 54.875 120.75 C56.00679688 121.32234375 57.13859375 121.8946875 58.3046875 122.484375 C61 124 61 124 63 126 C63.125 128.625 63.125 128.625 63 131 C56.25 134 56.25 134 54 134 C54 134.66 54 135.32 54 136 C53.34 136 52.68 136 52 136 C51.01 139.96 51.01 139.96 50 144 C48.35 144.33 46.7 144.66 45 145 C41.44911113 140.94450093 38.84352076 137.28984159 37.48120117 132.02661133 C31.21950406 108.74328567 12.68638504 94.14114748 -4.1942749 78.06719971 C-10.78446739 71.77708208 -17.30835097 65.41824698 -23.83152199 59.05878639 C-26.10688021 56.85314307 -28.40019654 54.66762056 -30.69718933 52.48454285 C-32.08065285 51.15114232 -33.46375552 49.81736725 -34.84643555 48.4831543 C-35.48887207 47.88225983 -36.13130859 47.28136536 -36.79321289 46.66226196 C-38.53007507 44.97026062 -38.53007507 44.97026062 -41 42 C-40.55750073 38.32645512 -39.01318717 36.63843431 -36.42993164 34.05761719 C-35.67567398 33.29713074 -34.92141632 32.53664429 -34.14430237 31.75311279 C-33.32453415 30.94255432 -32.50476593 30.13199585 -31.66015625 29.296875 C-30.82286484 28.45908508 -29.98557343 27.62129517 -29.12290955 26.75811768 C-27.3518892 24.98943784 -25.57717478 23.22445041 -23.79907227 21.46289062 C-21.06806427 18.75551612 -18.35065653 16.03503002 -15.63476562 13.3125 C-13.9148542 11.5981637 -12.19417695 9.88459528 -10.47265625 8.171875 C-9.65491226 7.3532196 -8.83716827 6.53456421 -7.99464417 5.69110107 C-7.23723434 4.94322327 -6.47982452 4.19534546 -5.69946289 3.42480469 C-5.0318544 2.76180359 -4.36424591 2.09880249 -3.67640686 1.41571045 C-2 0 -2 0 0 0 Z " fill="#21324E" transform="translate(125,144)"/>
<path d="M0 0 C0.66 0.33 1.32 0.66 2 1 C1.20335937 1.8353125 1.20335937 1.8353125 0.390625 2.6875 C-4.07002761 7.5063072 -7.6635536 11.84596706 -10 18 C-10.37125 18.92554688 -10.7425 19.85109375 -11.125 20.8046875 C-17.57916153 39.49486361 -15.1525876 60.86072199 -6.9453125 78.60546875 C-2.90754549 86.80801568 1.81595365 94.23114443 8 101 C8.58910156 101.680625 9.17820312 102.36125 9.78515625 103.0625 C19.61045915 113.74308404 35.31069207 123.21307279 50 124 C57.09514766 124.19225561 63.98273481 124.10074748 71 123 C66.6619816 127.3380184 60.34969348 127.28091839 54.52758789 127.38085938 C45.3384259 127.36102843 37.41168041 127.11237709 29 123 C27.88625 122.46375 26.7725 121.9275 25.625 121.375 C5.35311915 110.99450014 -9.16233541 92.20514868 -16.1394043 70.70849609 C-21.04372106 55.07231751 -22.5745407 37.72816841 -17 22 C-16.34 22 -15.68 22 -15 22 C-14.855625 21.278125 -14.71125 20.55625 -14.5625 19.8125 C-14.376875 18.884375 -14.19125 17.95625 -14 17 C-13.90074219 16.18917969 -13.80148438 15.37835938 -13.69921875 14.54296875 C-12.84307885 11.42929794 -11.75028089 10.49270507 -9.25 8.5 C-5.97086049 5.80473605 -2.95344285 3.04573794 0 0 Z " fill="#BECCC6" transform="translate(40,128)"/>
<path d="M0 0 C7.63458832 1.27600432 15.0850719 2.94385396 22.5625 4.9375 C24.00786133 5.31551758 24.00786133 5.31551758 25.48242188 5.70117188 C28.32638565 6.45099645 31.16411991 7.22019479 34 8 C34.95890137 8.26055176 35.91780273 8.52110352 36.90576172 8.78955078 C37.81213379 9.04591309 38.71850586 9.30227539 39.65234375 9.56640625 C40.46566162 9.79400635 41.27897949 10.02160645 42.11694336 10.25610352 C44 11 44 11 45 13 C44.45502136 21.200631 42.09549358 27.93449199 38 35 C34 35 34 35 32.22821045 33.71595764 C31.63308655 33.1149675 31.03796265 32.51397736 30.42480469 31.89477539 C29.40419952 30.87855858 29.40419952 30.87855858 28.36297607 29.84181213 C27.63991272 29.10124069 26.91684937 28.36066925 26.171875 27.59765625 C25.42286926 26.8453624 24.67386353 26.09306854 23.90216064 25.31797791 C22.32073568 23.72612576 20.74408685 22.12951669 19.171875 20.52856445 C16.75454447 18.06712739 14.32407156 15.61932389 11.890625 13.17382812 C10.35859535 11.62837665 8.82731901 10.08217797 7.296875 8.53515625 C6.56571472 7.79660904 5.83455444 7.05806183 5.08123779 6.2971344 C4.41344299 5.61650436 3.74564819 4.93587433 3.05761719 4.23461914 C2.46567566 3.6328334 1.87373413 3.03104767 1.26385498 2.411026 C0 1 0 1 0 0 Z " fill="#D5E2DD" transform="translate(88,187)"/>
<path d="M0 0 C0.495 0.495 0.495 0.495 1 1 C0.85606216 2.42175335 0.65953361 3.83833369 0.4375 5.25 C-0.02972978 9.13538449 -0.02442691 11.52955386 2 15 C3.0828125 16.2684375 3.0828125 16.2684375 4.1875 17.5625 C6 20 6 20 5.8125 22.25 C5 24 5 24 4 25 C1.25851234 25.1299713 -1.44517396 25.18972276 -4.1875 25.1875 C-4.99815918 25.18814453 -5.80881836 25.18878906 -6.64404297 25.18945312 C-12.83076363 25.13596212 -18.69213545 24.52139814 -24.7890625 23.4375 C-31.86547429 22.47331737 -37.60554032 23.12256053 -44.375 25.1171875 C-45.14376465 25.3344046 -45.9125293 25.5516217 -46.70458984 25.77542114 C-49.13930385 26.46551426 -51.56963288 27.16976817 -54 27.875 C-56.43120507 28.56983725 -58.86322912 29.26174324 -61.29541016 29.95315552 C-62.80106224 30.38233027 -64.30600035 30.81402133 -65.81005859 31.24874878 C-79.92918334 35.31692604 -79.92918334 35.31692604 -85 35 C-82.4496005 32.4496005 -80.50329935 32.16878332 -77.015625 31.265625 C-75.78038086 30.94215088 -74.54513672 30.61867676 -73.27246094 30.28540039 C-72.61596558 30.11670441 -71.95947021 29.94800842 -71.28308105 29.77420044 C-69.23864739 29.2470729 -67.19767698 28.70809789 -65.15722656 28.16577148 C-58.94419075 26.51923696 -52.72831273 24.91909745 -46.46875 23.45703125 C-33.63138826 20.41864601 -33.63138826 20.41864601 -23.375 12.38671875 C-20.37785287 9.37478306 -17.08965959 7.24444281 -13.5 5 C-12.88705078 4.61416748 -12.27410156 4.22833496 -11.64257812 3.83081055 C-7.41639597 1.20014288 -5.01419377 -0.25713814 0 0 Z " fill="#13A7A6" transform="translate(213,138)"/>
<path d="M0 0 C4.45298252 -0.17998582 7.99622808 0.38773636 12.25 1.6875 C13.466875 2.04585937 14.68375 2.40421875 15.9375 2.7734375 C18.04224775 3.40465385 20.1436738 4.04461647 22.2421875 4.69628906 C34.91139645 8.76545897 34.91139645 8.76545897 48 8 C71.23756906 3.49171271 71.23756906 3.49171271 78 8 C77.51003752 12.40966229 76.12314463 13.97445364 73 17 C71.61987726 20.83004475 72.30875047 24.05018332 72.94140625 27.9765625 C72.96074219 28.64429688 72.98007813 29.31203125 73 30 C72.34 30.66 71.68 31.32 71 32 C65.96632517 31.76337426 62.92039528 29.94699864 58.875 27.0625 C57.86179688 26.35222656 56.84859375 25.64195312 55.8046875 24.91015625 C53.53864823 23.26641348 51.54029797 21.5628015 49.50634766 19.62841797 C41.24029488 11.99396696 33.47666945 9.43608906 22.625 7 C21.09169722 6.63202032 19.55913535 6.26093919 18.02734375 5.88671875 C15.87242025 5.36082123 13.71762143 4.83917615 11.55581665 4.34228516 C7.61714631 3.43510676 3.81338354 2.33921959 0 1 C0 0.67 0 0.34 0 0 Z " fill="#0993DD" transform="translate(141,200)"/>
<path d="M0 0 C2.5 0.0625 2.5 0.0625 5 1 C6.86007925 4.27728249 7 6.1659754 7 10 C7.66 10 8.32 10 9 10 C9 10.66 9 11.32 9 12 C10.093125 12.103125 11.18625 12.20625 12.3125 12.3125 C15.85559629 12.97307727 16.93243723 13.2027092 19 16 C15.65252001 23.855644 6.72902992 26.728722 -0.6875 29.8125 C-1.77430054 30.26556519 -1.77430054 30.26556519 -2.88305664 30.7277832 C-6.91252689 32.34483979 -10.65716905 33.473389 -15 34 C-15.33 34.99 -15.66 35.98 -16 37 C-17.47851562 38.45727539 -17.47851562 38.45727539 -19.40625 40.03515625 C-24.72777065 44.55013392 -29.59126981 49.48239372 -34.5 54.4375 C-35.87671875 55.82098633 -35.87671875 55.82098633 -37.28125 57.23242188 C-39.52315055 59.48599899 -41.762666 61.74189075 -44 64 C-44 61 -44 61 -41.55664062 58.40649414 C-40.42891969 57.35982662 -39.29496644 56.31985054 -38.15625 55.28515625 C-36.91805664 54.12382185 -35.68196749 52.96024079 -34.44775391 51.79467773 C-33.8010675 51.18550507 -33.1543811 50.5763324 -32.48809814 49.94869995 C-21.27501207 39.31033059 -12.68463773 30.30271906 -8.609375 15.02392578 C-6.98962604 9.64423072 -3.9884149 3.9884149 0 0 Z " fill="#05EE5C" transform="translate(170,80)"/>
<path d="M0 0 C2.5625 1.5 2.5625 1.5 4 3 C2.88408263 5.60380719 1.93328633 7.06099536 -0.1875 9 C-0.785625 9.66 -1.38375 10.32 -2 11 C-1.72472572 14.8538399 0.3580657 16.67434829 3.0625 19.25 C3.79597656 19.95640625 4.52945313 20.6628125 5.28515625 21.390625 C6.13400391 22.18726563 6.13400391 22.18726563 7 23 C5.3990475 24.89986452 4.42680626 25.89329844 1.984375 26.50390625 C-2.54764488 26.62275293 -5.35669607 26.22518748 -8.9375 23.3125 C-13.08221612 19.17737813 -14.09513422 15.78598172 -14.4375 10 C-14.3388217 6.32697433 -14.06421185 5.10356749 -12.0625 1.875 C-7.96336304 -0.63467569 -4.69527113 -0.84094408 0 0 Z " fill="#D6E2DC" transform="translate(87,172)"/>
<path d="M0 0 C0.66 0.33 1.32 0.66 2 1 C2.6328125 3.29296875 2.6328125 3.29296875 3.125 6.1875 C3.37636719 7.60095703 3.37636719 7.60095703 3.6328125 9.04296875 C4.00750497 12.06043894 4.06299697 14.9626459 4 18 C5.19238281 18.26554687 6.38476562 18.53109375 7.61328125 18.8046875 C9.17976175 19.16113217 10.74616398 19.51792097 12.3125 19.875 C13.49102539 20.13603516 13.49102539 20.13603516 14.69335938 20.40234375 C15.8293457 20.66337891 15.8293457 20.66337891 16.98828125 20.9296875 C17.68477783 21.08679199 18.38127441 21.24389648 19.09887695 21.40576172 C21 22 21 22 24 24 C14.94269693 23.50596529 6.60629066 20.67773223 -2 18 C-2 17.34 -2 16.68 -2 16 C-2.804375 15.85304687 -2.804375 15.85304687 -3.625 15.703125 C-9.30676509 14.61910403 -14.93991889 13.35414264 -20.5625 12 C-21.27728516 11.8340332 -21.99207031 11.66806641 -22.72851562 11.49707031 C-24.50251938 11.06169523 -26.25431053 10.53778159 -28 10 C-28.33 9.34 -28.66 8.68 -29 8 C-28.19256348 7.79318604 -27.38512695 7.58637207 -26.55322266 7.37329102 C-23.55975234 6.6054083 -20.56681255 5.83549996 -17.57421875 5.06420898 C-15.64102868 4.56662562 -13.70723512 4.07138881 -11.7734375 3.57617188 C-10.56171875 3.26357422 -9.35 2.95097656 -8.1015625 2.62890625 C-6.42054443 2.1968689 -6.42054443 2.1968689 -4.70556641 1.75610352 C-2.05984994 1.10908163 -2.05984994 1.10908163 0 0 Z " fill="#B5C6CB" transform="translate(117,176)"/>
<path d="M0 0 C1.41750563 0.11509661 2.83401169 0.24253658 4.25 0.375 C5.03890625 0.44460937 5.8278125 0.51421875 6.640625 0.5859375 C9.085877 1.01507113 10.84836903 1.78600638 13 3 C12.09577155 11.61041423 10.42455259 18.51879086 6 26 C2 26 2 26 0.078125 24.46875 C-0.52515625 23.8190625 -1.1284375 23.169375 -1.75 22.5 C-2.36359375 21.8503125 -2.9771875 21.200625 -3.609375 20.53125 C-4.06828125 20.0259375 -4.5271875 19.520625 -5 19 C-4.80664062 18.46632812 -4.61328125 17.93265625 -4.4140625 17.3828125 C-2.41302552 11.65707301 -1.05915756 5.96866438 0 0 Z " fill="#FCFDFD" transform="translate(120,196)"/>
<path d="M0 0 C4.34368793 1.51591793 5.78257906 4.40180974 8.0625 8.25 C8.73410156 9.36890625 9.40570313 10.4878125 10.09765625 11.640625 C15 20.29774127 15 20.29774127 15 23 C13.56656 23.53190541 12.12804633 24.05015258 10.6875 24.5625 C9.88699219 24.85253906 9.08648437 25.14257812 8.26171875 25.44140625 C6 26 6 26 3 25 C1.5 22.41796875 1.5 22.41796875 0 19.1875 C-1.74528876 15.45603627 -3.5209566 12.27587877 -6 9 C-6 5.68693287 -4.73243028 4.71285201 -2.4375 2.25 C-1.633125 1.5075 -0.82875 0.765 0 0 Z " fill="#D6E3DE" transform="translate(124,146)"/>
<path d="M0 0 C5.43733055 4.52991796 10.46458931 9.34294216 15.4375 14.375 C16.16904297 15.11105469 16.90058594 15.84710938 17.65429688 16.60546875 C19.43851416 18.40134759 21.21958636 20.2003502 23 22 C22.01 24.97 21.02 27.94 20 31 C18.35 31.33 16.7 31.66 15 32 C9.9525179 26.02811809 6.9497922 19.87914324 4.125 12.625 C3.52171875 11.13033203 3.52171875 11.13033203 2.90625 9.60546875 C0 2.32007334 0 2.32007334 0 0 Z " fill="#465399" transform="translate(155,257)"/>
<path d="M0 0 C2.16903373 2.89204498 3.25 4.4038269 3.25 8 C0.71452775 10.53547225 -0.95003148 10.28435936 -4.41455078 10.328125 C-5.18524902 10.32296875 -5.95594727 10.3178125 -6.75 10.3125 C-7.54003418 10.31121094 -8.33006836 10.30992187 -9.14404297 10.30859375 C-17.83891855 10.17126107 -26.24106714 8.68971716 -34.75 7 C-34.75 6.67 -34.75 6.34 -34.75 6 C-28.54485526 3.86380263 -23.32315478 2.63482473 -16.75 3 C-16.75 2.34 -16.75 1.68 -16.75 1 C-3.86239233 -3.07278996 -3.86239233 -3.07278996 0 0 Z " fill="#07C6C4" transform="translate(215.75,153)"/>
<path d="M0 0 C2.475 0.495 2.475 0.495 5 1 C5.99 4.3 6.98 7.6 8 11 C6.96875 11.86625 5.9375 12.7325 4.875 13.625 C-1.74690866 19.39825249 -7.83067279 25.75268972 -14 32 C-15 30 -15 30 -14.47436523 28.1875 C-14.17216064 27.465625 -13.86995605 26.74375 -13.55859375 26 C-13.22480713 25.19933105 -12.89102051 24.39866211 -12.54711914 23.57373047 C-12.18094482 22.72439941 -11.81477051 21.87506836 -11.4375 21 C-11.07197021 20.14164551 -10.70644043 19.28329102 -10.32983398 18.39892578 C-4.14474489 4.14474489 -4.14474489 4.14474489 0 0 Z " fill="#09F261" transform="translate(170,80)"/>
<path d="M0 0 C8.18452066 1.84274238 16.3624867 3.71871821 24.4375 6 C25.46746094 6.28875 26.49742187 6.5775 27.55859375 6.875 C30 8 30 8 31.33203125 9.9296875 C32.23609456 12.73175508 32.25413472 15.07745077 32 18 C31.34 18.66 30.68 19.32 30 20 C24.93224628 19.76866174 21.87827357 17.90917463 17.8125 15 C17.25731689 14.60425781 16.70213379 14.20851562 16.13012695 13.80078125 C10.56888716 9.78789062 5.10390041 5.58225928 0 1 C0 0.67 0 0.34 0 0 Z " fill="#0792DD" transform="translate(182,212)"/>
<path d="M0 0 C10.62586968 2.79112706 22.81509095 6.39972731 31 14 C31.4375 16.8125 31.4375 16.8125 31 19 C24.62587604 22.06448267 24.62587604 22.06448267 22.17773438 21.81225586 C19.14595696 20.68145727 17.50429359 18.8583861 15.234375 16.5625 C13.90019531 15.22058594 13.90019531 15.22058594 12.5390625 13.8515625 C11.61867187 12.91054688 10.69828125 11.96953125 9.75 11 C8.8053227 10.04884787 7.86001679 9.09831963 6.9140625 8.1484375 C0 1.15374453 0 1.15374453 0 0 Z " fill="#48549B" transform="translate(157,256)"/>
<path d="M0 0 C2.57611228 7.32328775 3.61422945 14.25798419 4 22 C2.3745692 21.85904936 0.74965949 21.71207913 -0.875 21.5625 C-1.77992187 21.48128906 -2.68484375 21.40007812 -3.6171875 21.31640625 C-6 21 -6 21 -8 20 C-8.63912692 17.13565596 -9.16944544 14.33120119 -9.625 11.4375 C-9.7590625 10.63119141 -9.893125 9.82488281 -10.03125 8.99414062 C-10.36207299 6.9973876 -10.68205038 4.9988433 -11 3 C-4.5 0 -4.5 0 0 0 Z " fill="#FCFCFD" transform="translate(129,174)"/>
<path d="M0 0 C5.15010613 5.94243015 9.45243868 12.2621934 11 20 C7.04 20.66 3.08 21.32 -1 22 C-2.00732399 20.06629769 -3.00563288 18.12789694 -4 16.1875 C-4.556875 15.10855469 -5.11375 14.02960938 -5.6875 12.91796875 C-7 10 -7 10 -7 7 C-5.46875 5.17578125 -5.46875 5.17578125 -3.5 3.3125 C-2.8503125 2.68988281 -2.200625 2.06726563 -1.53125 1.42578125 C-0.77328125 0.72001953 -0.77328125 0.72001953 0 0 Z " fill="#FBFCFC" transform="translate(117,153)"/>
<path d="M0 0 C6.91663627 1.09890483 13.42736799 2.56569185 20 5 C19.85831863 6.43791516 19.71148957 7.8753237 19.5625 9.3125 C19.48128906 10.11300781 19.40007812 10.91351563 19.31640625 11.73828125 C19 14 19 14 18 17 C14.97328771 15.64526876 12.87863194 14.1260408 10.546875 11.77734375 C9.928125 11.15666016 9.309375 10.53597656 8.671875 9.89648438 C8.03765625 9.25001953 7.4034375 8.60355469 6.75 7.9375 C6.1003125 7.28716797 5.450625 6.63683594 4.78125 5.96679688 C0 1.14034598 0 1.14034598 0 0 Z " fill="#FBFCFC" transform="translate(88,187)"/>
<path d="M0 0 C4.38843982 -0.17284079 7.85990054 0.35731944 12.046875 1.65234375 C18.07239422 3.45002559 24.11673484 5.11192222 30.203125 6.69140625 C31.09962769 6.92491791 31.99613037 7.15842957 32.9197998 7.39901733 C36.63605539 8.36615863 40.35316745 9.32998498 44.0703125 10.29370117 C46.82331679 11.00807319 49.5757335 11.72467744 52.328125 12.44140625 C53.15129211 12.65398575 53.97445923 12.86656525 54.8225708 13.08558655 C57.21903712 13.70990224 59.61049466 14.34956098 62 15 C62.92083374 15.24958466 63.84166748 15.49916931 64.79040527 15.75631714 C65.69842896 16.01325348 66.60645264 16.27018982 67.54199219 16.53491211 C68.37124207 16.76705917 69.20049194 16.99920624 70.05487061 17.23838806 C72 18 72 18 73 20 C66.21068908 19.3534714 59.87092767 17.77666426 53.30078125 15.98046875 C52.18873825 15.68062576 51.07669525 15.38078278 49.93095398 15.07185364 C47.5845482 14.43805573 45.23884104 13.80166642 42.89379883 13.1628418 C39.34287423 12.19577221 35.78983363 11.2368342 32.23632812 10.27929688 C29.94518244 9.65933462 27.65416271 9.03890665 25.36328125 8.41796875 C24.31803787 8.13551804 23.27279449 7.85306732 22.19587708 7.5620575 C14.74747161 5.52964553 7.36733984 3.30838618 0 1 C0 0.67 0 0.34 0 0 Z " fill="#214F84" transform="translate(141,200)"/>
<path d="M0 0 C1.11375 0.2475 1.11375 0.2475 2.25 0.5 C5.19006578 1.11925696 5.19006578 1.11925696 9 1 C9.99 1 10.98 1 12 1 C12 1.66 12 2.32 12 3 C12.66 3 13.32 3 14 3 C14 2.34 14 1.68 14 1 C15.66611905 0.957279 17.33382885 0.95936168 19 1 C19.33 1.33 19.66 1.66 20 2 C20.33 1.34 20.66 0.68 21 0 C21.66 0 22.32 0 23 0 C23 0.66 23 1.32 23 2 C24.65 2 26.3 2 28 2 C27.67 3.65 27.34 5.3 27 7 C25.39620659 7.05416188 23.79188594 7.09286638 22.1875 7.125 C21.29417969 7.14820312 20.40085938 7.17140625 19.48046875 7.1953125 C17 7 17 7 14 5 C14 5.66 14 6.32 14 7 C13.34 7 12.68 7 12 7 C12 6.34 12 5.68 12 5 C10.8553125 5.556875 10.8553125 5.556875 9.6875 6.125 C8.800625 6.41375 7.91375 6.7025 7 7 C6.01 6.34 5.02 5.68 4 5 C4 4.01 4 3.02 4 2 C3.01 2 2.02 2 1 2 C1 3.32 1 4.64 1 6 C1.66 6.33 2.32 6.66 3 7 C2.01 7 1.02 7 0 7 C0 4.69 0 2.38 0 0 Z " fill="#45F28A" transform="translate(201,62)"/>
<path d="M0 0 C0.66 0 1.32 0 2 0 C2.33 0.66 2.66 1.32 3 2 C3.99 2.33 4.98 2.66 6 3 C6.33 3.99 6.66 4.98 7 6 C2.14765291 7.15702916 -2.3982614 6.99265532 -7.35546875 6.83984375 C-10.1583104 6.71626465 -10.1583104 6.71626465 -12 9 C-14.625 8.625 -14.625 8.625 -17 8 C-17.042721 6.33388095 -17.04063832 4.66617115 -17 3 C-16 2 -16 2 -12.40234375 1.90234375 C-10.91403133 1.9090178 -9.42573568 1.92097817 -7.9375 1.9375 C-7.17888672 1.94201172 -6.42027344 1.94652344 -5.63867188 1.95117188 C-3.75908129 1.9629932 -1.87953101 1.98092922 0 2 C0 1.34 0 0.68 0 0 Z " fill="#818CBA" transform="translate(233,294)"/>
<path d="M0 0 C0.66 3.3 1.32 6.6 2 10 C-4.78473021 9.3476221 -11.52213664 8.16619751 -18 6 C-18.33 5.34 -18.66 4.68 -19 4 C-16.77332235 3.32506659 -14.54354023 2.66036956 -12.3125 2 C-10.45044922 1.443125 -10.45044922 1.443125 -8.55078125 0.875 C-5 0 -5 0 0 0 Z " fill="#F7F9FA" transform="translate(107,180)"/>
<path d="M0 0 C-1.35152396 3.01435342 -2.85868971 5.10744787 -5.19287109 7.43579102 C-6.16430557 8.41184044 -6.16430557 8.41184044 -7.15536499 9.40760803 C-7.85432892 10.09938644 -8.55329285 10.79116486 -9.2734375 11.50390625 C-9.99359039 12.22360092 -10.71374329 12.94329559 -11.45571899 13.68479919 C-12.97820551 15.20426748 -14.50311888 16.72130742 -16.03027344 18.23608398 C-18.36448885 20.55207094 -20.69063087 22.87593167 -23.015625 25.20117188 C-24.49692532 26.67755556 -25.97868113 28.15348241 -27.4609375 29.62890625 C-28.15585297 30.32270889 -28.85076843 31.01651154 -29.56674194 31.7313385 C-30.5476329 32.70265968 -30.5476329 32.70265968 -31.54833984 33.69360352 C-32.40532974 34.54487572 -32.40532974 34.54487572 -33.27963257 35.41334534 C-35.09593174 37.08847561 -37.00057759 38.5506949 -39 40 C-39.66 39.67 -40.32 39.34 -41 39 C-35.48939605 33.43884636 -29.97109214 27.88542222 -24.44726562 22.33740234 C-22.56695066 20.44813156 -20.68962782 18.55601811 -18.81347656 16.66259766 C-16.12249981 13.94746747 -13.42521238 11.23875101 -10.7265625 8.53125 C-9.88380768 7.67817261 -9.04105286 6.82509521 -8.17276001 5.94616699 C-7.39210175 5.16535767 -6.61144348 4.38454834 -5.80712891 3.58007812 C-5.11873932 2.88724731 -4.43034973 2.1944165 -3.72109985 1.48059082 C-2 0 -2 0 0 0 Z " fill="#519A55" transform="translate(125,144)"/>
<path d="M0 0 C0.66 0 1.32 0 2 0 C2 0.66 2 1.32 2 2 C4.97 2 7.94 2 11 2 C10.67 3.32 10.34 4.64 10 6 C10 5.01 10 4.02 10 3 C9.34 3 8.68 3 8 3 C8 4.65 8 6.3 8 8 C7.34 7.34 6.68 6.68 6 6 C5.01 6.33 4.02 6.66 3 7 C-0.79384644 7 -4.25278668 6.53531619 -8 6 C-11.50935186 6 -14.56484998 6.37542727 -18 7 C-18.33 5.68 -18.66 4.36 -19 3 C-15.16904304 1.13924948 -13.09644494 0.92198817 -9 2 C-8.01 2 -7.02 2 -6 2 C-4.33333333 2 -2.66666667 2 -1 2 C-0.67 1.34 -0.34 0.68 0 0 Z " fill="#9DA1A1" transform="translate(365,149)"/>
<path d="M0 0 C0.495 0.99 0.495 0.99 1 2 C0.57332031 2.35449219 0.14664063 2.70898438 -0.29296875 3.07421875 C-5.04544183 7.12117005 -9.5187777 11.40837097 -13.9375 15.8125 C-14.51717529 16.38766357 -15.09685059 16.96282715 -15.6940918 17.55541992 C-18.71636222 20.49716148 -18.71636222 20.49716148 -21 24 C-21.66 24 -22.32 24 -23 24 C-23.33 24.99 -23.66 25.98 -24 27 C-25.47851562 28.45727539 -25.47851562 28.45727539 -27.40625 30.03515625 C-32.72777065 34.55013392 -37.59126981 39.48239372 -42.5 44.4375 C-43.87671875 45.82098633 -43.87671875 45.82098633 -45.28125 47.23242188 C-47.52315055 49.48599899 -49.762666 51.74189075 -52 54 C-52 51 -52 51 -50.11526489 48.74777222 C-49.23305267 47.86920563 -48.35084045 46.99063904 -47.44189453 46.08544922 C-46.95742859 45.5989389 -46.47296265 45.11242859 -45.97381592 44.61117554 C-44.36731202 43.00165864 -42.75030756 41.40315247 -41.1328125 39.8046875 C-40.01600964 38.69094152 -38.89979594 37.57660448 -37.78414917 36.46170044 C-35.44314515 34.12530281 -33.09731089 31.79390727 -30.74755859 29.46630859 C-27.73211034 26.47914288 -24.72540676 23.48336796 -21.72183418 20.48426628 C-19.41640367 18.1829884 -17.10815514 15.88455606 -14.79885483 13.58716202 C-13.68918094 12.48319476 -12.57998034 11.37875156 -11.47125626 10.27383041 C-9.92239835 8.73183068 -8.37020831 7.19327115 -6.81689453 5.65576172 C-5.93309113 4.77878632 -5.04928772 3.90181091 -4.13870239 2.9982605 C-2 1 -2 1 0 0 Z " fill="#208B29" transform="translate(178,90)"/>
<path d="M0 0 C0.97582031 0.16242188 1.95164062 0.32484375 2.95703125 0.4921875 C7.20971284 1.09803139 11.39822583 1.14759495 15.6875 1.125 C16.80608398 1.13080078 16.80608398 1.13080078 17.94726562 1.13671875 C21.46939146 1.13043485 24.61281445 0.94707645 28 0 C28 1.65 28 3.3 28 5 C23.95083621 6.34972126 21.08742988 5.88376862 17 5 C17 4.01 17 3.02 17 2 C16.34 2 15.68 2 15 2 C14.67 2.99 14.34 3.98 14 5 C4.58997722 6.33257403 4.58997722 6.33257403 0 5 C0 3.35 0 1.7 0 0 Z " fill="#999C9C" transform="translate(295,246)"/>
<path d="M0 0 C2.58861078 1.22947005 4.04756012 1.03792774 6.85546875 0.625 C8.05429687 0.45871094 8.05429687 0.45871094 9.27734375 0.2890625 C9.880625 0.19367188 10.48390625 0.09828125 11.10546875 0 C11.10546875 1.65 11.10546875 3.3 11.10546875 5 C3.77213542 5 -3.56119792 5 -10.89453125 5 C-10.89453125 4.01 -10.89453125 3.02 -10.89453125 2 C-11.55453125 2 -12.21453125 2 -12.89453125 2 C-13.22453125 2.99 -13.55453125 3.98 -13.89453125 5 C-13.89453125 4.01 -13.89453125 3.02 -13.89453125 2 C-14.55453125 2 -15.21453125 2 -15.89453125 2 C-16.22453125 2.99 -16.55453125 3.98 -16.89453125 5 C-16.89453125 3.35 -16.89453125 1.7 -16.89453125 0 C-13.89453125 0 -10.89453125 0 -7.89453125 0 C-6.92515625 -0.20625 -5.95578125 -0.4125 -4.95703125 -0.625 C-1.89453125 -1 -1.89453125 -1 0 0 Z " fill="#A0A3A4" transform="translate(310.89453125,77)"/>
<path d="M0 0 C0.66 0 1.32 0 2 0 C2 0.66 2 1.32 2 2 C2.96421875 2 3.9284375 2 4.921875 2 C9.94791667 2 14.97395833 2 20 2 C21 5.875 21 5.875 21 7 C19.90300781 6.98839844 18.80601562 6.97679687 17.67578125 6.96484375 C16.22135588 6.95546036 14.76692865 6.94636075 13.3125 6.9375 C12.59126953 6.92912109 11.87003906 6.92074219 11.12695312 6.91210938 C7.28444618 6.89456368 3.73360474 7.06475779 0 8 C0 5.36 0 2.72 0 0 Z " fill="#62BAE7" transform="translate(274,220)"/>
<path d="M0 0 C0.66 0 1.32 0 2 0 C2 0.66 2 1.32 2 2 C6.62 2 11.24 2 16 2 C15.67 3.65 15.34 5.3 15 7 C12.69 7.33 10.38 7.66 8 8 C8 7.34 8 6.68 8 6 C5.03 6 2.06 6 -1 6 C-1 5.01 -1 4.02 -1 3 C-1.66 3 -2.32 3 -3 3 C-3 4.32 -3 5.64 -3 7 C-4.32 6.67 -5.64 6.34 -7 6 C-7 4.35 -7 2.7 -7 1 C-4.69 1.33 -2.38 1.66 0 2 C0 1.34 0 0.68 0 0 Z " fill="#9DA0A0" transform="translate(364,245)"/>
<path d="M0 0 C2.48040613 0.44096109 4.90967454 1.0382454 7.359375 1.625 C10.19371647 2.02751003 12.24587992 1.71329729 15 1 C15.33 2.65 15.66 4.3 16 6 C13.36 6 10.72 6 8 6 C7.67 6.66 7.34 7.32 7 8 C6.34 8 5.68 8 5 8 C5 7.34 5 6.68 5 6 C0.38 6 -4.24 6 -9 6 C-8.67 4.68 -8.34 3.36 -8 2 C-8 2.99 -8 3.98 -8 5 C-7.34 5 -6.68 5 -6 5 C-6 3.68 -6 2.36 -6 1 C-4.7934375 1.0309375 -4.7934375 1.0309375 -3.5625 1.0625 C-1.06645115 1.29633621 -1.06645115 1.29633621 0 0 Z " fill="#B0B4B6" transform="translate(258,76)"/>
<path d="M0 0 C2.33411133 2.86459118 3.68753462 5.55905814 5 9 C2.39898714 9.86500888 -0.20506411 10.71726928 -2.8125 11.5625 C-3.55048828 11.80935547 -4.28847656 12.05621094 -5.04882812 12.31054688 C-10.66015625 14.11328125 -10.66015625 14.11328125 -14 13 C-13.32453125 12.39671875 -12.6490625 11.7934375 -11.953125 11.171875 C-11.06109375 10.37265625 -10.1690625 9.5734375 -9.25 8.75 C-8.36828125 7.96109375 -7.4865625 7.1721875 -6.578125 6.359375 C-4.32133835 4.29407328 -2.14260074 2.18264936 0 0 Z " fill="#FCFDFD" transform="translate(101,169)"/>
<path d="M0 0 C0.66 0 1.32 0 2 0 C2 1.98 2 3.96 2 6 C-1.01031744 6.93423645 -1.86650268 7.04449911 -5 6 C-5 5.01 -5 4.02 -5 3 C-5.66 3 -6.32 3 -7 3 C-7.33 3.99 -7.66 4.98 -8 6 C-9.32 6 -10.64 6 -12 6 C-12.99 6.37125 -13.98 6.7425 -15 7.125 C-18 8 -18 8 -20.375 7.125 C-20.91125 6.75375 -21.4475 6.3825 -22 6 C-21.67 4.68 -21.34 3.36 -21 2 C-14.07 2 -7.14 2 0 2 C0 1.34 0 0.68 0 0 Z " fill="#A9ADAD" transform="translate(326,160)"/>
<path d="M0 0 C0 1.32 0 2.64 0 4 C-1.58941406 3.96519531 -1.58941406 3.96519531 -3.2109375 3.9296875 C-4.5989513 3.91093056 -5.9869727 3.89273028 -7.375 3.875 C-8.07367188 3.85824219 -8.77234375 3.84148437 -9.4921875 3.82421875 C-11.32897486 3.80655733 -13.16601963 3.89696739 -15 4 C-15.66 4.66 -16.32 5.32 -17 6 C-17.99 5.67 -18.98 5.34 -20 5 C-20.6875 2.9375 -20.6875 2.9375 -21 1 C-20.236875 0.855625 -19.47375 0.71125 -18.6875 0.5625 C-15.91827092 0.0367406 -15.91827092 0.0367406 -13 -1 C-12.01 -1 -11.02 -1 -10 -1 C-9.401875 -1.20625 -8.80375 -1.4125 -8.1875 -1.625 C-5.08410831 -2.15701 -2.88825819 -1.11591794 0 0 Z " fill="#B4B8B8" transform="translate(279,310)"/>
<path d="M0 0 C0.33 0.66 0.66 1.32 1 2 C3.97 1.34 6.94 0.68 10 0 C10 0.66 10 1.32 10 2 C12.97 2 15.94 2 19 2 C18.67 3.65 18.34 5.3 18 7 C16.8553125 6.690625 16.8553125 6.690625 15.6875 6.375 C10.57647011 5.85523425 5.99046689 6.92554005 1 8 C-0.35439668 5.29120665 -0.06501451 2.99066732 0 0 Z " fill="#ADB1B1" transform="translate(273,160)"/>
<path d="M0 0 C1.32 0 2.64 0 4 0 C4.33 0.66 4.66 1.32 5 2 C7.7696959 2.72886734 10.12862585 3 13 3 C12.01 4.485 12.01 4.485 11 6 C11.99 6.33 12.98 6.66 14 7 C7.66666667 7 1.33333333 7 -5 7 C-5.33 5.68 -5.66 4.36 -6 3 C-5.195625 2.87625 -4.39125 2.7525 -3.5625 2.625 C-2.716875 2.41875 -1.87125 2.2125 -1 2 C-0.67 1.34 -0.34 0.68 0 0 Z " fill="#56B4E5" transform="translate(254,220)"/>
<path d="M0 0 C0.66 0 1.32 0 2 0 C2 0.66 2 1.32 2 2 C3.093125 2 4.18625 2 5.3125 2 C12.375 2 12.375 2 16 3 C15.67 4.65 15.34 6.3 15 8 C12.03 7.505 12.03 7.505 9 7 C9 6.01 9 5.02 9 4 C8.34 4 7.68 4 7 4 C7 5.32 7 6.64 7 8 C4.69 7.67 2.38 7.34 0 7 C0 5.68 0 4.36 0 3 C-0.66 3 -1.32 3 -2 3 C-1.67 4.32 -1.34 5.64 -1 7 C-1.66 7 -2.32 7 -3 7 C-3 5.02 -3 3.04 -3 1 C-2.01 1.33 -1.02 1.66 0 2 C0 1.34 0 0.68 0 0 Z " fill="#57D8D7" transform="translate(276,135)"/>
<path d="M0 0 C4.62 0 9.24 0 14 0 C14 1.32 14 2.64 14 4 C13.01 4.33 12.02 4.66 11 5 C10.67 4.67 10.34 4.34 10 4 C9.01 5.485 9.01 5.485 8 7 C4.85262818 6.30058404 1.97411124 5.23921302 -1 4 C-0.67 2.68 -0.34 1.36 0 0 Z " fill="#9CA0A0" transform="translate(337,236)"/>
<path d="M0 0 C1.32 1.32 2.64 2.64 4 4 C4.66 3.34 5.32 2.68 6 2 C6 3.32 6 4.64 6 6 C2.33333333 6 -1.33333333 6 -5 6 C-5.66 6.66 -6.32 7.32 -7 8 C-7 6.35 -7 4.7 -7 3 C-7.66 3 -8.32 3 -9 3 C-9.33 3.99 -9.66 4.98 -10 6 C-14.75 5.125 -14.75 5.125 -17 4 C-17 3.01 -17 2.02 -17 1 C-5.71154909 0.8027261 -5.71154909 0.8027261 -2 2 C-1.67 2.66 -1.34 3.32 -1 4 C-0.67 2.68 -0.34 1.36 0 0 Z " fill="#949797" transform="translate(267,172)"/>
<path d="M0 0 C1.39439664 0.06665376 2.79169875 0.08538199 4.1875 0.0625 C5.445625 0.041875 6.70375 0.02125 8 0 C8.33 1.32 8.66 2.64 9 4 C8.10796875 4.06058594 7.2159375 4.12117187 6.296875 4.18359375 C4.54117187 4.30927734 4.54117187 4.30927734 2.75 4.4375 C1.58984375 4.51871094 0.4296875 4.59992188 -0.765625 4.68359375 C-3.30977376 4.93247787 -5.55953248 5.28114942 -8 6 C-8 4.02 -8 2.04 -8 0 C-4.71303767 -0.79953138 -3.28976808 -1.09658936 0 0 Z " fill="#A7ABAB" transform="translate(318,151)"/>
<path d="M0 0 C0.99 0.33 1.98 0.66 3 1 C4.39439664 1.06665376 5.79169875 1.08538199 7.1875 1.0625 C8.445625 1.041875 9.70375 1.02125 11 1 C11.33 2.65 11.66 4.3 12 6 C11.10796875 5.98839844 10.2159375 5.97679688 9.296875 5.96484375 C8.12640625 5.95582031 6.9559375 5.94679688 5.75 5.9375 C4.58984375 5.92589844 3.4296875 5.91429688 2.234375 5.90234375 C-0.40977128 5.98217908 -2.49826091 6.21356222 -5 7 C-5 5.35 -5 3.7 -5 2 C-3.33333333 2 -1.66666667 2 0 2 C0 1.34 0 0.68 0 0 Z " fill="#ABAEAF" transform="translate(330,87)"/>
<path d="M0 0 C3.00207428 0.09335419 5.99739404 0.06005212 9 0 C8.67 1.65 8.34 3.3 8 5 C6.7315625 4.7525 6.7315625 4.7525 5.4375 4.5 C0.73267229 3.81566142 -3.45665192 3.48555064 -8 5 C-8.66 3.68 -9.32 2.36 -10 1 C-6.33952679 -1.39338633 -4.1868148 -0.78996506 0 0 Z " fill="#A3A7A7" transform="translate(279,258)"/>
<path d="M0 0 C0.66 0.66 1.32 1.32 2 2 C4.58354218 2.16687448 4.58354218 2.16687448 7 2 C7 3.65 7 5.3 7 7 C3.04 7 -0.92 7 -5 7 C-5.33 7.66 -5.66 8.32 -6 9 C-6 6.36 -6 3.72 -6 1 C-3.525 1.495 -3.525 1.495 -1 2 C-0.67 1.34 -0.34 0.68 0 0 Z " fill="#46F28B" transform="translate(252,62)"/>
<path d="M0 0 C0.33 0.66 0.66 1.32 1 2 C5.29 2 9.58 2 14 2 C14.33 3.32 14.66 4.64 15 6 C10.375 8.125 10.375 8.125 7 7 C5.44146733 6.78196693 3.87817349 6.59633644 2.3125 6.4375 C1.10013672 6.31181641 1.10013672 6.31181641 -0.13671875 6.18359375 C-0.75160156 6.12300781 -1.36648437 6.06242188 -2 6 C-2 5.01 -2 4.02 -2 3 C-1.34 3 -0.68 3 0 3 C0 2.01 0 1.02 0 0 Z " fill="#A8ACAC" transform="translate(251,245)"/>
<path d="M0 0 C2.625 0.9375 2.625 0.9375 5 2 C4.67 2.99 4.34 3.98 4 5 C3.34 4.67 2.68 4.34 2 4 C2 3.34 2 2.68 2 2 C1.34 2 0.68 2 0 2 C-0.33 3.32 -0.66 4.64 -1 6 C-4.375 6.125 -4.375 6.125 -8 6 C-8.66 5.34 -9.32 4.68 -10 4 C-10.99 4.99 -11.98 5.98 -13 7 C-13.33 5.02 -13.66 3.04 -14 1 C-12.73542969 1.01740234 -12.73542969 1.01740234 -11.4453125 1.03515625 C-10.34960938 1.04417969 -9.25390625 1.05320313 -8.125 1.0625 C-6.48917969 1.07990234 -6.48917969 1.07990234 -4.8203125 1.09765625 C-2.04822454 1.19744303 -2.04822454 1.19744303 0 0 Z " fill="#A5A8A8" transform="translate(282,246)"/>
<path d="M0 0 C0.66 0.66 1.32 1.32 2 2 C2.928125 1.62875 3.85625 1.2575 4.8125 0.875 C6.3903125 0.441875 6.3903125 0.441875 8 0 C8.99 0.66 9.98 1.32 11 2 C10.67 3.32 10.34 4.64 10 6 C10 5.01 10 4.02 10 3 C9.34 3 8.68 3 8 3 C8 3.99 8 4.98 8 6 C5 8 5 8 2 8 C1.34 7.34 0.68 6.68 0 6 C0 5.01 0 4.02 0 3 C-0.66 3 -1.32 3 -2 3 C-2.33 3.99 -2.66 4.98 -3 6 C-3 4.35 -3 2.7 -3 1 C-2.01 0.67 -1.02 0.34 0 0 Z " fill="#999C9C" transform="translate(309,87)"/>
<path d="M0 0 C1.19625 0.020625 2.3925 0.04125 3.625 0.0625 C4.615 0.0625 5.605 0.0625 6.625 0.0625 C7.615 0.0625 8.605 0.0625 9.625 0.0625 C9.625 1.7125 9.625 3.3625 9.625 5.0625 C5.335 5.0625 1.045 5.0625 -3.375 5.0625 C-3.705 3.7425 -4.035 2.4225 -4.375 1.0625 C-3.375 0.0625 -3.375 0.0625 0 0 Z " fill="#ABAFAF" transform="translate(285.375,308.9375)"/>
<path d="M0 0 C1.32 0.33 2.64 0.66 4 1 C3.67 2.32 3.34 3.64 3 5 C-2.66666667 5 -8.33333333 5 -14 5 C-14 3.68 -14 2.36 -14 1 C-9.71 1 -5.42 1 -1 1 C-1.99 1.495 -1.99 1.495 -3 2 C-3 2.66 -3 3.32 -3 4 C-2.01 4 -1.02 4 0 4 C0 2.68 0 1.36 0 0 Z " fill="#919494" transform="translate(305,257)"/>
<path d="M0 0 C0.66 0 1.32 0 2 0 C2 0.66 2 1.32 2 2 C4.97 2 7.94 2 11 2 C10.34 3.98 9.68 5.96 9 8 C8.34 7.34 7.68 6.68 7 6 C4.6618385 6.29758419 2.32817964 6.63239269 0 7 C-0.99 6.67 -1.98 6.34 -3 6 C-3 4.68 -3 3.36 -3 2 C-2.01 2 -1.02 2 0 2 C0 1.34 0 0.68 0 0 Z " fill="#BABEBE" transform="translate(315,256)"/>
<path d="M0 0 C-0.99 0.495 -0.99 0.495 -2 1 C-2 2.32 -2 3.64 -2 5 C-5.74195471 5.66523639 -9.20436828 6 -13 6 C-13 6.66 -13 7.32 -13 8 C-13.66 8 -14.32 8 -15 8 C-15 5.69 -15 3.38 -15 1 C-14.34 1 -13.68 1 -13 1 C-13 1.99 -13 2.98 -13 4 C-12.34 4 -11.68 4 -11 4 C-10.67 3.01 -10.34 2.02 -10 1 C-6.78548731 -0.60725635 -3.56387464 -0.05748185 0 0 Z " fill="#4DD6D5" transform="translate(263,137)"/>
<path d="M0 0 C0.33 0 0.66 0 1 0 C1 1.98 1 3.96 1 6 C-2.87684087 7.19287411 -5.91621923 8 -10 8 C-10 6.02 -10 4.04 -10 2 C-6.62182575 1.15545644 -4.32534757 0.89155081 -1 2 C-0.67 1.34 -0.34 0.68 0 0 Z " fill="#ACB0B0" transform="translate(271,319)"/>
<path d="M0 0 C0 1.98 0 3.96 0 6 C-4.29 6 -8.58 6 -13 6 C-13.33 4.68 -13.66 3.36 -14 2 C-12.68 2 -11.36 2 -10 2 C-8.66431979 1.67619874 -7.33076989 1.34342449 -6 1 C-5.01 1 -4.02 1 -3 1 C-1 0 -1 0 0 0 Z " fill="#ABAEAE" transform="translate(322,308)"/>
<path d="M0 0 C4.29 0 8.58 0 13 0 C13.33 1.65 13.66 3.3 14 5 C9 5 4 5 -1 5 C-0.67 3.35 -0.34 1.7 0 0 Z " fill="#A8ACAC" transform="translate(218,88)"/>
<path d="M0 0 C0 0.66 0 1.32 0 2 C3.3 1.67 6.6 1.34 10 1 C10 2.65 10 4.3 10 6 C5.38 6 0.76 6 -4 6 C-4 4.35 -4 2.7 -4 1 C-2 0 -2 0 0 0 Z " fill="#AFB3B3" transform="translate(205,98)"/>
<path d="M0 0 C4.10057281 0.47840016 7.99860599 0.9996515 12 2 C13.32 2 14.64 2 16 2 C15.34 3.32 14.68 4.64 14 6 C13.443125 5.814375 12.88625 5.62875 12.3125 5.4375 C9.5708519 4.91880982 7.71196528 5.40469055 5 6 C3.3337447 6.0370279 1.66598681 6.04759962 0 6 C0 4.02 0 2.04 0 0 Z " fill="#B6BABA" transform="translate(212,319)"/>
<path d="M0 0 C1.34061543 0.30271961 2.67405895 0.63837971 4 1 C4.99 0.67 5.98 0.34 7 0 C9.00875442 0.27571139 11.01178687 0.60235737 13 1 C13 2.32 13 3.64 13 5 C11.68 4.67 10.36 4.34 9 4 C9 3.67 9 3.34 9 3 C7.68 2.67 6.36 2.34 5 2 C5 2.66 5 3.32 5 4 C5.66 4.33 6.32 4.66 7 5 C4.33333333 5.66666667 1.66666667 6.33333333 -1 7 C-1.625 4.625 -1.625 4.625 -2 2 C-1.34 1.34 -0.68 0.68 0 0 Z " fill="#939797" transform="translate(202,331)"/>
<path d="M0 0 C1.5778125 0.2475 1.5778125 0.2475 3.1875 0.5 C6.20468796 0.89569678 8.97093972 1.09178971 12 1 C12.33 2.32 12.66 3.64 13 5 C8.37078475 6.0161692 4.65537393 5.83796731 0 5 C0 3.35 0 1.7 0 0 Z " fill="#9A9D9D" transform="translate(295,246)"/>
<path d="M0 0 C1.22589844 0.15275391 1.22589844 0.15275391 2.4765625 0.30859375 C3.41628906 0.43427734 3.41628906 0.43427734 4.375 0.5625 C4.375 2.2125 4.375 3.8625 4.375 5.5625 C0.745 5.5625 -2.885 5.5625 -6.625 5.5625 C-6.625 3.9125 -6.625 2.2625 -6.625 0.5625 C-4.10446405 -0.69776798 -2.7707902 -0.35624445 0 0 Z " fill="#9FA3A3" transform="translate(298.625,87.4375)"/>
<path d="M0 0 C1.37478516 0.01740234 1.37478516 0.01740234 2.77734375 0.03515625 C3.69644531 0.04417969 4.61554688 0.05320312 5.5625 0.0625 C6.27277344 0.07410156 6.98304688 0.08570313 7.71484375 0.09765625 C8.04484375 1.74765625 8.37484375 3.39765625 8.71484375 5.09765625 C8.07546875 4.91203125 7.43609375 4.72640625 6.77734375 4.53515625 C5.75640625 4.31859375 5.75640625 4.31859375 4.71484375 4.09765625 C4.38484375 4.42765625 4.05484375 4.75765625 3.71484375 5.09765625 C1.71526011 5.13846408 -0.28560879 5.14019981 -2.28515625 5.09765625 C-2.84765625 3.16015625 -2.84765625 3.16015625 -3.28515625 1.09765625 C-2.28515625 0.09765625 -2.28515625 0.09765625 0 0 Z " fill="#A7AAAA" transform="translate(249.28515625,319.90234375)"/>
<path d="M0 0 C1.23556641 0.01740234 1.23556641 0.01740234 2.49609375 0.03515625 C3.32238281 0.04417969 4.14867187 0.05320312 5 0.0625 C5.63808594 0.07410156 6.27617187 0.08570313 6.93359375 0.09765625 C6.60359375 1.41765625 6.27359375 2.73765625 5.93359375 4.09765625 C5.27359375 3.76765625 4.61359375 3.43765625 3.93359375 3.09765625 C3.27359375 4.41765625 2.61359375 5.73765625 1.93359375 7.09765625 C0.28359375 6.76765625 -1.36640625 6.43765625 -3.06640625 6.09765625 C-3.10912725 4.4315372 -3.10704457 2.7638274 -3.06640625 1.09765625 C-2.06640625 0.09765625 -2.06640625 0.09765625 0 0 Z " fill="#8D97C0" transform="translate(219.06640625,295.90234375)"/>
<path d="M0 0 C0.886875 0.020625 1.77375 0.04125 2.6875 0.0625 C4.0075 0.0625 5.3275 0.0625 6.6875 0.0625 C8.6875 0.0625 10.6875 0.0625 12.6875 0.0625 C12.3575 1.3825 12.0275 2.7025 11.6875 4.0625 C8.6875 4.0625 5.6875 4.0625 2.6875 4.0625 C1.01524271 4.36654678 -0.65330104 4.69378912 -2.3125 5.0625 C-2.875 3.125 -2.875 3.125 -3.3125 1.0625 C-2.3125 0.0625 -2.3125 0.0625 0 0 Z " fill="#959898" transform="translate(279.3125,235.9375)"/>
<path d="M0 0 C2.69082872 0.17635452 5.32851446 0.61835921 8 1 C8 2.32 8 3.64 8 5 C6.54176788 5.0270043 5.08339325 5.04639787 3.625 5.0625 C2.81289062 5.07410156 2.00078125 5.08570313 1.1640625 5.09765625 C-1 5 -1 5 -3 4 C-3.33 4.99 -3.66 5.98 -4 7 C-4.33 7 -4.66 7 -5 7 C-5.33 5.02 -5.66 3.04 -6 1 C-4.7934375 1.0309375 -4.7934375 1.0309375 -3.5625 1.0625 C-1.06645115 1.29633621 -1.06645115 1.29633621 0 0 Z " fill="#A5A9A9" transform="translate(236,320)"/>
<path d="M0 0 C19.53191489 5.38297872 19.53191489 5.38297872 28 8 C28 8.33 28 8.66 28 9 C21.40474547 8.42100187 15.3108382 7.20265263 8.9375 5.4375 C8.07189453 5.20353516 7.20628906 4.96957031 6.31445312 4.72851562 C4.20802305 4.1582666 2.10377111 3.57998166 0 3 C0 2.01 0 1.02 0 0 Z " fill="#3B5A87" transform="translate(87,184)"/>
<path d="M0 0 C3.63 0 7.26 0 11 0 C11 0.99 11 1.98 11 3 C11.66 3 12.32 3 13 3 C13.33 2.01 13.66 1.02 14 0 C14 1.32 14 2.64 14 4 C10.22799206 5.25733598 7.74702285 5.03366148 4 4 C3.67 4.66 3.34 5.32 3 6 C2.34 5.67 1.68 5.34 1 5 C0.67 3.35 0.34 1.7 0 0 Z " fill="#A5A8A8" transform="translate(291,151)"/>
<path d="M0 0 C0.66 0 1.32 0 2 0 C2.66 1.98 3.32 3.96 4 6 C2.35 6 0.7 6 -1 6 C-1 5.01 -1 4.02 -1 3 C-1.66 3 -2.32 3 -3 3 C-3 4.32 -3 5.64 -3 7 C-4.32 6.67 -5.64 6.34 -7 6 C-7 4.35 -7 2.7 -7 1 C-4.69 1.33 -2.38 1.66 0 2 C0 1.34 0 0.68 0 0 Z " fill="#A5A9A9" transform="translate(364,245)"/>
<path d="M0 0 C4.66666667 0 9.33333333 0 14 0 C14 1.65 14 3.3 14 5 C11.33333333 5 8.66666667 5 6 5 C6 4.01 6 3.02 6 2 C5.34 2 4.68 2 4 2 C3.67 2.99 3.34 3.98 3 5 C3 4.01 3 3.02 3 2 C2.34 2 1.68 2 1 2 C0.67 2.99 0.34 3.98 0 5 C0 3.35 0 1.7 0 0 Z " fill="#969A9A" transform="translate(294,77)"/>
<path d="M0 0 C-0.99 0.33 -1.98 0.66 -3 1 C-3 1.66 -3 2.32 -3 3 C-6.31114834 4.12880057 -9.58978257 5.21302675 -13 6 C-13.33 4.35 -13.66 2.7 -14 1 C-12.824375 0.7834375 -12.824375 0.7834375 -11.625 0.5625 C-7.11042545 -0.40490883 -4.80464101 -0.8007735 0 0 Z " fill="#9EA1A2" transform="translate(272,310)"/>
<path d="M0 0 C1.6045556 0.14148989 3.20863767 0.28835686 4.8125 0.4375 C5.70582031 0.51871094 6.59914063 0.59992188 7.51953125 0.68359375 C10 1 10 1 13 2 C12.34 2 11.68 2 11 2 C11 2.66 11 3.32 11 4 C12.98 3.34 14.96 2.68 17 2 C17.33 3.32 17.66 4.64 18 6 C11.375 6.125 11.375 6.125 8 5 C8 4.01 8 3.02 8 2 C7.34 2 6.68 2 6 2 C5.67 2.99 5.34 3.98 5 5 C4.34 5 3.68 5 3 5 C3 4.01 3 3.02 3 2 C2.34 2 1.68 2 1 2 C0.67 2.99 0.34 3.98 0 5 C0 3.35 0 1.7 0 0 Z " fill="#909393" transform="translate(256,235)"/>
<path d="M0 0 C2.69082872 0.17635452 5.32851446 0.61835921 8 1 C8.33 2.32 8.66 3.64 9 5 C7.68 5 6.36 5 5 5 C3.32774271 5.30404678 1.65919896 5.63128912 0 6 C-0.38218767 4.34385343 -0.71395102 2.67542976 -1 1 C-0.67 0.67 -0.34 0.34 0 0 Z " fill="#AFB3B3" transform="translate(244,235)"/>
<path d="M0 0 C3.82825694 0.0274427 3.82825694 0.0274427 6.125 1.75 C6.62 2.4925 6.62 2.4925 7.125 3.25 C6.1659375 3.4665625 6.1659375 3.4665625 5.1875 3.6875 C3.14954854 4.06007181 3.14954854 4.06007181 2.125 5.25 C0.12541636 5.29080783 -1.87545254 5.29254356 -3.875 5.25 C-4.4375 3.3125 -4.4375 3.3125 -4.875 1.25 C-3.875 0.25 -3.875 0.25 0 0 Z " fill="#A7ABAB" transform="translate(300.875,235.75)"/>
<path d="M0 0 C3.63 0.33 7.26 0.66 11 1 C10.67 2.65 10.34 4.3 10 6 C8.6078125 5.7215625 8.6078125 5.7215625 7.1875 5.4375 C3.98656229 4.75876119 3.98656229 4.75876119 1 6 C0.67 5.67 0.34 5.34 0 5 C0 3.35 0 1.7 0 0 Z " fill="#9CA0A0" transform="translate(343,246)"/>
<path d="M0 0 C1.32 0 2.64 0 4 0 C4 1.32 4 2.64 4 4 C2.02 4 0.04 4 -2 4 C-2 3.01 -2 2.02 -2 1 C-2.66 1 -3.32 1 -4 1 C-4 1.99 -4 2.98 -4 4 C-5.32 3.67 -6.64 3.34 -8 3 C-8 1.68 -8 0.36 -8 -1 C-4.30558125 -2.23147292 -3.48015214 -1.44298991 0 0 Z " fill="#9FA2A2" transform="translate(326,321)"/>
<path d="M0 0 C0 0.66 0 1.32 0 2 C2.31 2 4.62 2 7 2 C6.67 3.32 6.34 4.64 6 6 C6 5.01 6 4.02 6 3 C5.34 3 4.68 3 4 3 C3.67 3.99 3.34 4.98 3 6 C2.67 5.34 2.34 4.68 2 4 C1.67 4.99 1.34 5.98 1 7 C-0.65 7 -2.3 7 -4 7 C-4 5.02 -4 3.04 -4 1 C-2 0 -2 0 0 0 Z " fill="#ACB0B0" transform="translate(265,149)"/>
<path d="M0 0 C3 0 6 0 9 0 C9.12375 0.639375 9.2475 1.27875 9.375 1.9375 C9.58125 2.618125 9.7875 3.29875 10 4 C10.66 4.33 11.32 4.66 12 5 C10.35 5 8.7 5 7 5 C7 4.01 7 3.02 7 2 C6.34 2 5.68 2 5 2 C4.67 2.99 4.34 3.98 4 5 C2.35 4.67 0.7 4.34 -1 4 C-0.67 2.68 -0.34 1.36 0 0 Z " fill="#A3A7A8" transform="translate(250,88)"/>
<path d="M0 0 C1.33599921 0.32248257 2.66893378 0.65772583 4 1 C5.32 1 6.64 1 8 1 C8 2.32 8 3.64 8 5 C5.33333333 5.66666667 2.66666667 6.33333333 0 7 C-0.38133299 5.0085944 -0.71325582 3.00720923 -1 1 C-0.67 0.67 -0.34 0.34 0 0 Z " fill="#9FA2A2" transform="translate(295,320)"/>
<path d="M0 0 C3.82825694 0.0274427 3.82825694 0.0274427 6.125 1.75 C6.62 2.4925 6.62 2.4925 7.125 3.25 C3.5041799 4.26382963 -0.15311418 4.74897691 -3.875 5.25 C-4.4375 3.3125 -4.4375 3.3125 -4.875 1.25 C-3.875 0.25 -3.875 0.25 0 0 Z " fill="#A0A4A4" transform="translate(333.875,150.75)"/>
<path d="M0 0 C0.86625 0.2784375 0.86625 0.2784375 1.75 0.5625 C4.20692525 1.04023546 5.64397534 0.75729364 8 0 C8.33 1.65 8.66 3.3 9 5 C5.98968256 5.93423645 5.13349732 6.04449911 2 5 C2 4.01 2 3.02 2 2 C1.34 2 0.68 2 0 2 C-0.33 2.99 -0.66 3.98 -1 5 C-0.67 3.35 -0.34 1.7 0 0 Z " fill="#45D4D3" transform="translate(283,137)"/>
<path d="M0 0 C0.66 0 1.32 0 2 0 C2 0.66 2 1.32 2 2 C4.97 2 7.94 2 11 2 C10.67 3.32 10.34 4.64 10 6 C10 5.01 10 4.02 10 3 C9.34 3 8.68 3 8 3 C8 4.65 8 6.3 8 8 C7.34 7.34 6.68 6.68 6 6 C5.01 6.33 4.02 6.66 3 7 C2.34 6.67 1.68 6.34 1 6 C0.375 2.9375 0.375 2.9375 0 0 Z " fill="#A5A9A9" transform="translate(365,149)"/>
<path d="M0 0 C3.33333333 0 6.66666667 0 10 0 C10 0.99 10 1.98 10 3 C10.66 3 11.32 3 12 3 C12.33 2.01 12.66 1.02 13 0 C13 1.32 13 2.64 13 4 C12.30132812 3.97679687 11.60265625 3.95359375 10.8828125 3.9296875 C9.51769531 3.90261719 9.51769531 3.90261719 8.125 3.875 C7.22007812 3.85179687 6.31515625 3.82859375 5.3828125 3.8046875 C2.81193006 3.75675164 2.81193006 3.75675164 1 6 C0.67 4.02 0.34 2.04 0 0 Z " fill="#9C9F9F" transform="translate(243,258)"/>
<path d="M0 0 C0.66 -0.33 1.32 -0.66 2 -1 C1.34 0.98 0.68 2.96 0 5 C-0.66 4.01 -1.32 3.02 -2 2 C-2.99 2.495 -2.99 2.495 -4 3 C-4 2.01 -4 1.02 -4 0 C-4.66 0 -5.32 0 -6 0 C-6.33 0.99 -6.66 1.98 -7 3 C-9.0625 3.6875 -9.0625 3.6875 -11 4 C-11.33 2.35 -11.66 0.7 -12 -1 C-11.67 -0.01 -11.34 0.98 -11 2 C-10.34 2 -9.68 2 -9 2 C-8.67 1.01 -8.34 0.02 -8 -1 C-4.63416145 -2.50882418 -3.10862654 -1.65793416 0 0 Z " fill="#929595" transform="translate(332,237)"/>
<path d="M0 0 C0 1.98 0 3.96 0 6 C-2.64 6 -5.28 6 -8 6 C-8.33 4.68 -8.66 3.36 -9 2 C-7.68 2 -6.36 2 -5 2 C-0.625 0 -0.625 0 0 0 Z " fill="#9C9F9F" transform="translate(332,76)"/>
<path d="M0 0 C0.928125 0.2784375 0.928125 0.2784375 1.875 0.5625 C4.04160178 1.23686176 4.04160178 1.23686176 6 0 C6.66 0.33 7.32 0.66 8 1 C8 2.65 8 4.3 8 6 C6.125 6.625 6.125 6.625 4 7 C3.34 6.34 2.68 5.68 2 5 C2 4.01 2 3.02 2 2 C1.34 2 0.68 2 0 2 C-0.33 2.99 -0.66 3.98 -1 5 C-0.67 3.35 -0.34 1.7 0 0 Z " fill="#9DA0A1" transform="translate(274,320)"/>
<path d="M0 0 C0.66 0.66 1.32 1.32 2 2 C3.32 2 4.64 2 6 2 C6 3.32 6 4.64 6 6 C2.37 6 -1.26 6 -5 6 C-4.67 4.68 -4.34 3.36 -4 2 C-4 2.99 -4 3.98 -4 5 C-3.34 5 -2.68 5 -2 5 C-1.67 4.01 -1.34 3.02 -1 2 C-0.67 1.34 -0.34 0.68 0 0 Z " fill="#9B9F9F" transform="translate(250,308)"/>
<path d="M0 0 C0.99 0.33 1.98 0.66 3 1 C3.66 1 4.32 1 5 1 C5.99 1.33 6.98 1.66 8 2 C7.67 3.32 7.34 4.64 7 6 C4.36 6 1.72 6 -1 6 C-1.042721 4.33388095 -1.04063832 2.66617115 -1 1 C-0.67 0.67 -0.34 0.34 0 0 Z " fill="#A4A8A9" transform="translate(265,87)"/>
<path d="M0 0 C4.75 -0.125 4.75 -0.125 7 1 C8.32 1 9.64 1 11 1 C11 2.32 11 3.64 11 5 C9.02 5 7.04 5 5 5 C5 4.01 5 3.02 5 2 C4.34 2 3.68 2 3 2 C2.67 2.99 2.34 3.98 2 5 C2 4.01 2 3.02 2 2 C1.34 2 0.68 2 0 2 C-0.33 2.99 -0.66 3.98 -1 5 C-0.67 3.35 -0.34 1.7 0 0 Z " fill="#999C9C" transform="translate(324,309)"/>
<path d="M0 0 C1.67542976 0.28604898 3.34385343 0.61781233 5 1 C5 2.32 5 3.64 5 5 C1.66666667 5 -1.66666667 5 -5 5 C-5.33 3.68 -5.66 2.36 -6 1 C-5.34 1 -4.68 1 -4 1 C-4 1.99 -4 2.98 -4 4 C-3.34 4 -2.68 4 -2 4 C-1.67 3.01 -1.34 2.02 -1 1 C-0.67 0.67 -0.34 0.34 0 0 Z " fill="#44D4D3" transform="translate(300,137)"/>
<path d="M0 0 C3.6875 -0.3125 3.6875 -0.3125 7 0 C7 0.99 7 1.98 7 3 C7.66 3 8.32 3 9 3 C9.33 2.01 9.66 1.02 10 0 C10 1.32 10 2.64 10 4 C6.66666667 4 3.33333333 4 0 4 C-0.33 4.66 -0.66 5.32 -1 6 C-1.66 5.67 -2.32 5.34 -3 5 C-1.9375 2.5 -1.9375 2.5 0 0 Z " fill="#8D9090" transform="translate(234,100)"/>
<path d="M0 0 C1.051875 0.185625 2.10375 0.37125 3.1875 0.5625 C6.57119882 0.95079331 8.76425888 0.88247485 12 0 C12.33 1.65 12.66 3.3 13 5 C10.36 5 7.72 5 5 5 C4.67 4.34 4.34 3.68 4 3 C1.97536745 2.34786708 1.97536745 2.34786708 0 2 C0 1.34 0 0.68 0 0 Z " fill="#9A9E9E" transform="translate(261,77)"/>
<path d="M0 0 C0.99 0.33 1.98 0.66 3 1 C3 1.66 3 2.32 3 3 C4.65 2.67 6.3 2.34 8 2 C8 3.65 8 5.3 8 7 C4.26512223 6.5020163 2.18762365 6.12508244 -1 4 C-0.67 2.68 -0.34 1.36 0 0 Z " fill="#808BB9" transform="translate(202,294)"/>
<path d="M0 0 C0.66 0 1.32 0 2 0 C2 0.66 2 1.32 2 2 C3.65 2.33 5.3 2.66 7 3 C6.01 3.495 6.01 3.495 5 4 C4.34786708 6.02463255 4.34786708 6.02463255 4 8 C2.68 8 1.36 8 0 8 C0 5.36 0 2.72 0 0 Z " fill="#75C2E9" transform="translate(274,220)"/>
<path d="M0 0 C1.11375 0.350625 2.2275 0.70125 3.375 1.0625 C6.80264476 2.37239331 6.80264476 2.37239331 9 1 C8.34 2.98 7.68 4.96 7 7 C6.34 6.34 5.68 5.68 5 5 C2.39719432 5.32041397 2.39719432 5.32041397 0 6 C0 4.02 0 2.04 0 0 Z " fill="#A0A3A4" transform="translate(335,76)"/>
<path d="M0 0 C3.3 0 6.6 0 10 0 C9.34 1.65 8.68 3.3 8 5 C4.28400809 5.20086443 3.22791555 5.1519437 0 3 C0 2.01 0 1.02 0 0 Z " fill="#A9ADAD" transform="translate(250,173)"/>
<path d="M0 0 C0 1.98 0 3.96 0 6 C-1.98 6 -3.96 6 -6 6 C-6 5.01 -6 4.02 -6 3 C-6.66 3 -7.32 3 -8 3 C-8.33 3.66 -8.66 4.32 -9 5 C-9 3.68 -9 2.36 -9 1 C-7.8553125 1.309375 -7.8553125 1.309375 -6.6875 1.625 C-3.31544103 2.09551986 -2.97505622 0 0 0 Z " fill="#9A9F9F" transform="translate(291,76)"/>
<path d="M0 0 C0.66 0.66 1.32 1.32 2 2 C2.99 1.67 3.98 1.34 5 1 C7.1875 2.3125 7.1875 2.3125 9 4 C9 4.66 9 5.32 9 6 C6.03 6 3.06 6 0 6 C0 4.02 0 2.04 0 0 Z " fill="#A3A7A7" transform="translate(229,308)"/>
<path d="M0 0 C2.475 0.495 2.475 0.495 5 1 C5.33 2.32 5.66 3.64 6 5 C5.195625 5.12375 4.39125 5.2475 3.5625 5.375 C2.2940625 5.684375 2.2940625 5.684375 1 6 C0.67 6.66 0.34 7.32 0 8 C0 5.36 0 2.72 0 0 Z " fill="#53F294" transform="translate(246,63)"/>
<path d="M0 0 C1.485 0.99 1.485 0.99 3 2 C3.33 1.67 3.66 1.34 4 1 C5.66617115 0.95936168 7.33388095 0.957279 9 1 C9.33 2.32 9.66 3.64 10 5 C7.33333333 5 4.66666667 5 2 5 C1.34 3.35 0.68 1.7 0 0 Z " fill="#A1A5A5" transform="translate(257,257)"/>
<path d="M0 0 C0 1.98 0 3.96 0 6 C-2.97 5.505 -2.97 5.505 -6 5 C-6 4.01 -6 3.02 -6 2 C-6.66 2 -7.32 2 -8 2 C-8.33 2.99 -8.66 3.98 -9 5 C-9 3.68 -9 2.36 -9 1 C-1.125 0 -1.125 0 0 0 Z " fill="#969A9A" transform="translate(340,246)"/>
<path d="M0 0 C3.63 0.66 7.26 1.32 11 2 C9.35 3.65 7.7 5.3 6 7 C4.02 4.69 2.04 2.38 0 0 Z " fill="#D6E1DE" transform="translate(88,187)"/>
<path d="M0 0 C0.99 0.33 1.98 0.66 3 1 C4.32 1 5.64 1 7 1 C7 2.32 7 3.64 7 5 C4.36 5 1.72 5 -1 5 C-0.67 3.35 -0.34 1.7 0 0 Z " fill="#9DA1A1" transform="translate(332,320)"/>
<path d="M0 0 C2.97 0 5.94 0 9 0 C8.67 1.65 8.34 3.3 8 5 C5.5625 4.625 5.5625 4.625 3 4 C2.67 3.34 2.34 2.68 2 2 C1.01 2.33 0.02 2.66 -1 3 C-0.67 2.01 -0.34 1.02 0 0 Z " fill="#9B9F9F" transform="translate(279,258)"/>
<path d="M0 0 C2.31 0.33 4.62 0.66 7 1 C7 1.99 7 2.98 7 4 C6.34 4 5.68 4 5 4 C5 3.34 5 2.68 5 2 C4.34 2 3.68 2 3 2 C3 2.99 3 3.98 3 5 C1.02 5 -0.96 5 -3 5 C-2.67 3.68 -2.34 2.36 -2 1 C-2 1.99 -2 2.98 -2 4 C-1.34 4 -0.68 4 0 4 C0 2.68 0 1.36 0 0 Z " fill="#A1A5A5" transform="translate(252,77)"/>
<path d="M0 0 C1.32 0 2.64 0 4 0 C4.33 0.66 4.66 1.32 5 2 C5.99 2.33 6.98 2.66 8 3 C7.34 3 6.68 3 6 3 C6 4.32 6 5.64 6 7 C5.01 7 4.02 7 3 7 C3 5.35 3 3.7 3 2 C2.34 2.66 1.68 3.32 1 4 C0.34 4.66 -0.32 5.32 -1 6 C-1.042721 4.33388095 -1.04063832 2.66617115 -1 1 C-0.67 0.67 -0.34 0.34 0 0 Z " fill="#A9ADAD" transform="translate(244,149)"/>
<path d="M0 0 C2.475 0.99 2.475 0.99 5 2 C5 3.98 5 5.96 5 8 C3.35 8 1.7 8 0 8 C0 5.36 0 2.72 0 0 Z " fill="#57D8D7" transform="translate(308,135)"/>
<path d="M0 0 C1.67542976 0.28604898 3.34385343 0.61781233 5 1 C5 2.65 5 4.3 5 6 C3.02 6 1.04 6 -1 6 C-1.042721 4.33388095 -1.04063832 2.66617115 -1 1 C-0.67 0.67 -0.34 0.34 0 0 Z " fill="#AAAEAF" transform="translate(219,98)"/>
<path d="M0 0 C1.65 0 3.3 0 5 0 C5 1.65 5 3.3 5 5 C2.69 5 0.38 5 -2 5 C-2.33 3.68 -2.66 2.36 -3 1 C-2.34 1.66 -1.68 2.32 -1 3 C-0.67 2.01 -0.34 1.02 0 0 Z " fill="#A3A7A8" transform="translate(233,77)"/>
<path d="M0 0 C0.33 0.66 0.66 1.32 1 2 C2.65 2 4.3 2 6 2 C5.67 3.65 5.34 5.3 5 7 C3.35 7 1.7 7 0 7 C0 4.69 0 2.38 0 0 Z " fill="#5BF29A" transform="translate(223,62)"/>
<path d="M0 0 C2.31 0.33 4.62 0.66 7 1 C6.67 2.32 6.34 3.64 6 5 C4.02 5 2.04 5 0 5 C0 3.35 0 1.7 0 0 Z " fill="#A6AAAA" transform="translate(309,320)"/>
<path d="M0 0 C0.66 0.66 1.32 1.32 2 2 C1.34 2 0.68 2 0 2 C0 2.66 0 3.32 0 4 C0.66 4.33 1.32 4.66 2 5 C-0.64 5 -3.28 5 -6 5 C-6 3.68 -6 2.36 -6 1 C-4.7934375 1.0309375 -4.7934375 1.0309375 -3.5625 1.0625 C-1.06645115 1.29633621 -1.06645115 1.29633621 0 0 Z " fill="#9EA2A2" transform="translate(221,309)"/>
<path d="M0 0 C2.31 0 4.62 0 7 0 C7.33 1.32 7.66 2.64 8 4 C3.375 6.125 3.375 6.125 0 5 C0.66 5 1.32 5 2 5 C2 3.68 2 2.36 2 1 C1.34 0.67 0.68 0.34 0 0 Z " fill="#9B9E9E" transform="translate(258,247)"/>
<path d="M0 0 C0.66 0 1.32 0 2 0 C2 1.98 2 3.96 2 6 C-1.75 7.125 -1.75 7.125 -4 6 C-3.67 4.68 -3.34 3.36 -3 2 C-2.01 2 -1.02 2 0 2 C0 1.34 0 0.68 0 0 Z " fill="#ABAFAF" transform="translate(326,160)"/>
<path d="M0 0 C2.31 0 4.62 0 7 0 C6.67 0.66 6.34 1.32 6 2 C5.34 1.67 4.68 1.34 4 1 C4 1.66 4 2.32 4 3 C4.99 3.33 5.98 3.66 7 4 C3.71303767 4.79953138 2.28976808 5.09658936 -1 4 C-0.67 2.68 -0.34 1.36 0 0 Z " fill="#A5A9A9" transform="translate(265,162)"/>
<path d="M0 0 C-0.33 1.32 -0.66 2.64 -1 4 C-1 3.01 -1 2.02 -1 1 C-1.66 1 -2.32 1 -3 1 C-3.33 1.99 -3.66 2.98 -4 4 C-8 4 -8 4 -10 3 C-10 2.34 -10 1.68 -10 1 C-6.78548731 -0.60725635 -3.56387464 -0.05748185 0 0 Z " fill="#979A9B" transform="translate(322,162)"/>
<path d="M0 0 C-0.33 1.32 -0.66 2.64 -1 4 C-1 3.01 -1 2.02 -1 1 C-1.66 1 -2.32 1 -3 1 C-3 1.99 -3 2.98 -3 4 C-3.66 4 -4.32 4 -5 4 C-5.33 3.34 -5.66 2.68 -6 2 C-6.99 2.495 -6.99 2.495 -8 3 C-8 1.68 -8 0.36 -8 -1 C-4.37673261 -2.2077558 -3.35853631 -1.54311128 0 0 Z " fill="#ADB1B1" transform="translate(320,89)"/>
<path d="M0 0 C0.66 0 1.32 0 2 0 C2 0.99 2 1.98 2 3 C2.66 3 3.32 3 4 3 C4.33 2.01 4.66 1.02 5 0 C5.66 0 6.32 0 7 0 C7 0.99 7 1.98 7 3 C5.35 3.66 3.7 4.32 2 5 C2 5.66 2 6.32 2 7 C1.34 7 0.68 7 0 7 C0 4.69 0 2.38 0 0 Z " fill="#3AD2D1" transform="translate(248,138)"/>
<path d="M0 0 C2.97 0.495 2.97 0.495 6 1 C6 2.65 6 4.3 6 6 C5.38125 5.814375 4.7625 5.62875 4.125 5.4375 C1.95839822 4.76313824 1.95839822 4.76313824 0 6 C0 4.02 0 2.04 0 0 Z " fill="#9DA1A1" transform="translate(210,87)"/>
<path d="M0 0 C2.475 0.495 2.475 0.495 5 1 C5 2.65 5 4.3 5 6 C3.35 6 1.7 6 0 6 C0 4.02 0 2.04 0 0 Z " fill="#ACB1B2" transform="translate(241,76)"/>
<path d="M0 0 C0 1.98 0 3.96 0 6 C-1.98 6 -3.96 6 -6 6 C-5.75 4.125 -5.75 4.125 -5 2 C-1.8 0 -1.8 0 0 0 Z " fill="#999D9D" transform="translate(322,308)"/>
<path d="M0 0 C2.1875 0.3125 2.1875 0.3125 4 1 C3.01 1 2.02 1 1 1 C1 1.99 1 2.98 1 4 C1.99 3.67 2.98 3.34 4 3 C4 3.66 4 4.32 4 5 C1.03 5 -1.94 5 -5 5 C-5.33 3.68 -5.66 2.36 -6 1 C-4.515 1.99 -4.515 1.99 -3 3 C-2.5875 2.484375 -2.175 1.96875 -1.75 1.4375 C-1.1725 0.963125 -0.595 0.48875 0 0 Z " fill="#717CB1" transform="translate(228,296)"/>
<path d="M0 0 C2.64 0.33 5.28 0.66 8 1 C8 1.66 8 2.32 8 3 C5.69 3.66 3.38 4.32 1 5 C0.67 3.35 0.34 1.7 0 0 Z " fill="#A8ACAC" transform="translate(291,258)"/>
<path d="M0 0 C2.64 0 5.28 0 8 0 C7.67 1.65 7.34 3.3 7 5 C5.35 4.67 3.7 4.34 2 4 C2 3.01 2 2.02 2 1 C1.34 0.67 0.68 0.34 0 0 Z " fill="#9C9F9F" transform="translate(284,162)"/>
<path d="M0 0 C0.33 1.65 0.66 3.3 1 5 C-0.65 5.33 -2.3 5.66 -4 6 C-4.33 4.68 -4.66 3.36 -5 2 C-2 0 -2 0 0 0 Z " fill="#A5A8A9" transform="translate(262,161)"/>
<path d="M0 0 C0 0.66 0 1.32 0 2 C-0.33 2.33 -0.66 2.66 -1 3 C-0.67 3.66 -0.34 4.32 0 5 C-2.64 5 -5.28 5 -8 5 C-8 4.01 -8 3.02 -8 2 C-7.34 2 -6.68 2 -6 2 C-3 0 -3 0 0 0 Z " fill="#9A9D9E" transform="translate(213,77)"/>
<path d="M0 0 C1.65 0 3.3 0 5 0 C4.67 1.65 4.34 3.3 4 5 C3.01 5 2.02 5 1 5 C0.67 5.66 0.34 6.32 0 7 C0 4.69 0 2.38 0 0 Z " fill="#46F28B" transform="translate(230,64)"/>
<path d="M0 0 C0.639375 0.165 1.27875 0.33 1.9375 0.5 C4.04582216 1.24598544 4.04582216 1.24598544 6 0 C5.67 1.65 5.34 3.3 5 5 C3.35 5 1.7 5 0 5 C-0.5625 3.0625 -0.5625 3.0625 -1 1 C-0.67 0.67 -0.34 0.34 0 0 Z " fill="#A7ABAB" transform="translate(204,320)"/>
<path d="M0 0 C2.97 0.495 2.97 0.495 6 1 C5.01 1.495 5.01 1.495 4 2 C4 3.32 4 4.64 4 6 C2.68 5.67 1.36 5.34 0 5 C0 3.35 0 1.7 0 0 Z " fill="#A8ACAC" transform="translate(243,246)"/>
<path d="M0 0 C2.97 0.495 2.97 0.495 6 1 C5.01 1.495 5.01 1.495 4 2 C4 3.32 4 4.64 4 6 C2.68 5.67 1.36 5.34 0 5 C0 3.35 0 1.7 0 0 Z " fill="#AAAEAE" transform="translate(243,161)"/>
<path d="M0 0 C2.64 0 5.28 0 8 0 C8.33 1.32 8.66 2.64 9 4 C6.69 4 4.38 4 2 4 C2 3.34 2 2.68 2 2 C1.34 1.34 0.68 0.68 0 0 Z " fill="#9A9D9D" transform="translate(318,151)"/>
<path d="M0 0 C0 1.32 0 2.64 0 4 C-2.64 4 -5.28 4 -8 4 C-7 1 -7 1 -5.125 -0.25 C-3 -1 -3 -1 0 0 Z " fill="#9C9FA0" transform="translate(209,310)"/>
<path d="M0 0 C1.4540625 0.0309375 1.4540625 0.0309375 2.9375 0.0625 C2.1875 2 2.1875 2 0.9375 4.0625 C-1.1875 4.8125 -1.1875 4.8125 -3.0625 5.0625 C-3.625 3.125 -3.625 3.125 -4.0625 1.0625 C-3.0625 0.0625 -3.0625 0.0625 0 0 Z " fill="#A3A7A7" transform="translate(286.0625,150.9375)"/>
<path d="M0 0 C1.65 0 3.3 0 5 0 C5 1.65 5 3.3 5 5 C3.35 4.67 1.7 4.34 0 4 C0 2.68 0 1.36 0 0 Z " fill="#4BF28E" transform="translate(238,64)"/>
<path d="M0 0 C1.65 0 3.3 0 5 0 C5.33 1.32 5.66 2.64 6 4 C4.02 4.33 2.04 4.66 0 5 C0 3.35 0 1.7 0 0 Z " fill="#B4B8B8" transform="translate(302,247)"/>
<path d="M0 0 C0.66 0 1.32 0 2 0 C2 1.98 2 3.96 2 6 C0.35 6 -1.3 6 -3 6 C-3.33 4.68 -3.66 3.36 -4 2 C-3.01 2 -2.02 2 -1 2 C-0.67 1.34 -0.34 0.68 0 0 Z " fill="#9EA1A2" transform="translate(317,235)"/>
<path d="M0 0 C1.2065625 0.0309375 1.2065625 0.0309375 2.4375 0.0625 C2.1075 1.3825 1.7775 2.7025 1.4375 4.0625 C0.1175 4.3925 -1.2025 4.7225 -2.5625 5.0625 C-3.125 3.125 -3.125 3.125 -3.5625 1.0625 C-2.5625 0.0625 -2.5625 0.0625 0 0 Z " fill="#A9ADAD" transform="translate(279.5625,235.9375)"/>
<path d="M0 0 C-1.44253657 3.36591866 -3.33264727 5.51047079 -6 8 C-6.99 7.67 -7.98 7.34 -9 7 C-7.88121617 5.82737096 -6.75476949 4.66204862 -5.625 3.5 C-4.68527344 2.52546875 -4.68527344 2.52546875 -3.7265625 1.53125 C-2 0 -2 0 0 0 Z " fill="#47934A" transform="translate(125,144)"/>
<path d="M0 0 C0.99 0 1.98 0 3 0 C3 1.65 3 3.3 3 5 C1.35 5 -0.3 5 -2 5 C-1.125 1.125 -1.125 1.125 0 0 Z " fill="#A4A8A8" transform="translate(292,309)"/>
<path d="M0 0 C2.64 0 5.28 0 8 0 C7.34 1.98 6.68 3.96 6 6 C4.68 5.34 3.36 4.68 2 4 C2 3.01 2 2.02 2 1 C1.34 0.67 0.68 0.34 0 0 Z " fill="#959899" transform="translate(318,258)"/>
<path d="M0 0 C0.66 0 1.32 0 2 0 C2.66 1.98 3.32 3.96 4 6 C2.35 6 0.7 6 -1 6 C-0.67 4.02 -0.34 2.04 0 0 Z " fill="#B1B5B5" transform="translate(364,245)"/>
<path d="M0 0 C1.65 0.33 3.3 0.66 5 1 C5.33 2.32 5.66 3.64 6 5 C5.01 4.67 4.02 4.34 3 4 C1.68 4 0.36 4 -1 4 C-0.67 2.68 -0.34 1.36 0 0 Z " fill="#999C9C" transform="translate(244,173)"/>
<path d="M0 0 C-0.33 1.32 -0.66 2.64 -1 4 C-2.65 3.67 -4.3 3.34 -6 3 C-6 2.01 -6 1.02 -6 0 C-3.50907189 -1.24546405 -2.58919267 -0.7767578 0 0 Z " fill="#A0A3A3" transform="translate(255,163)"/>
<path d="M0 0 C-0.33 1.32 -0.66 2.64 -1 4 C-2.65 3.67 -4.3 3.34 -6 3 C-6 2.01 -6 1.02 -6 0 C-3.50907189 -1.24546405 -2.58919267 -0.7767578 0 0 Z " fill="#9FA2A3" transform="translate(347,163)"/>
<path d="M0 0 C0.66 0 1.32 0 2 0 C2 0.66 2 1.32 2 2 C3.32 2.33 4.64 2.66 6 3 C5.67 3.99 5.34 4.98 5 6 C3.35 5.67 1.7 5.34 0 5 C0 3.35 0 1.7 0 0 Z " fill="#B5B9B9" transform="translate(315,150)"/>
<path d="M0 0 C0 1.65 0 3.3 0 5 C-1.98 5 -3.96 5 -6 5 C-5.34 4.67 -4.68 4.34 -4 4 C-4 3.34 -4 2.68 -4 2 C-4.66 1.67 -5.32 1.34 -6 1 C-3.92446352 0.4465236 -2.15634036 0 0 0 Z " fill="#9A9E9E" transform="translate(215,99)"/>
<path d="M0 0 C2.475 0.99 2.475 0.99 5 2 C5 2.66 5 3.32 5 4 C5.66 4.66 6.32 5.32 7 6 C5.35 6 3.7 6 2 6 C2 5.34 2 4.68 2 4 C1.34 4.66 0.68 5.32 0 6 C0 4.02 0 2.04 0 0 Z " fill="#A6AAAA" transform="translate(216,330)"/>
<path d="M0 0 C1.98 0.495 1.98 0.495 4 1 C4 2.32 4 3.64 4 5 C2.35 4.67 0.7 4.34 -1 4 C-0.67 2.68 -0.34 1.36 0 0 Z " fill="#A5A9A9" transform="translate(299,309)"/>
<path d="M0 0 C0.99 0.66 1.98 1.32 3 2 C2.67 2.99 2.34 3.98 2 5 C1.01 5 0.02 5 -1 5 C-1.33 5.66 -1.66 6.32 -2 7 C-2 5.02 -2 3.04 -2 1 C-1.34 0.67 -0.68 0.34 0 0 Z " fill="#9FA2A2" transform="translate(338,309)"/>
<path d="M0 0 C0.99 0.33 1.98 0.66 3 1 C3 2.32 3 3.64 3 5 C1.35 4.67 -0.3 4.34 -2 4 C-2 3.01 -2 2.02 -2 1 C-1.34 0.67 -0.68 0.34 0 0 Z " fill="#A2A6A5" transform="translate(241,309)"/>
<path d="M0 0 C2.31 0.33 4.62 0.66 7 1 C7 2.32 7 3.64 7 5 C4.625 4.75 4.625 4.75 2 4 C0.6875 1.9375 0.6875 1.9375 0 0 Z " fill="#A5A9A9" transform="translate(367,247)"/>
<path d="M0 0 C1.32 0 2.64 0 4 0 C4 1.98 4 3.96 4 6 C2.66666667 6 1.33333333 6 0 6 C0 4.02 0 2.04 0 0 Z " fill="#40ABE3" transform="translate(243,221)"/>
<path d="M0 0 C0 1.32 0 2.64 0 4 C-2.3431213 3.74438677 -4.67843403 3.40729228 -7 3 C-7.33 2.34 -7.66 1.68 -8 1 C-5.10765685 0.17361624 -3.11257569 0 0 0 Z " fill="#CBD9D9" transform="translate(96,183)"/>
<path d="M0 0 C1.32 0 2.64 0 4 0 C4 1.32 4 2.64 4 4 C2.02 4 0.04 4 -2 4 C-2 3.01 -2 2.02 -2 1 C-1.67 1.33 -1.34 1.66 -1 2 C-0.67 1.34 -0.34 0.68 0 0 Z " fill="#9FA3A3" transform="translate(335,89)"/>
<path d="M0 0 C0.33 0 0.66 0 1 0 C1 2.31 1 4.62 1 7 C-0.65 6.67 -2.3 6.34 -4 6 C-4 5.01 -4 4.02 -4 3 C-3.01 2.67 -2.02 2.34 -1 2 C-0.67 1.34 -0.34 0.68 0 0 Z " fill="#B2BBD4" transform="translate(233,294)"/>
<path d="M0 0 C0 0.66 0 1.32 0 2 C0.99 2.33 1.98 2.66 3 3 C-0.3 3.66 -3.6 4.32 -7 5 C-2.25 0 -2.25 0 0 0 Z " fill="#CBDBD6" transform="translate(94,178)"/>
<path d="M0 0 C-1.49097658 3.7952131 -3.75700849 5.61042731 -7 8 C-7.66 7.67 -8.32 7.34 -9 7 C-7.88121617 5.82737096 -6.75476949 4.66204862 -5.625 3.5 C-4.68527344 2.52546875 -4.68527344 2.52546875 -3.7265625 1.53125 C-2 0 -2 0 0 0 Z " fill="#3E8E41" transform="translate(93,176)"/>
<path d="M0 0 C0.99 0 1.98 0 3 0 C5 3 5 3 5 6 C3.68 6 2.36 6 1 6 C0.67 4.02 0.34 2.04 0 0 Z " fill="#BBBFBF" transform="translate(280,160)"/>
<path d="M0 0 C0 1.65 0 3.3 0 5 C-1.32 5 -2.64 5 -4 5 C-4 3.68 -4 2.36 -4 1 C-1 0 -1 0 0 0 Z " fill="#9EA2A2" transform="translate(316,257)"/>
<path d="M0 0 C1.32 0 2.64 0 4 0 C4 1.32 4 2.64 4 4 C3.01 4.33 2.02 4.66 1 5 C0.34 3.68 -0.32 2.36 -1 1 C-0.67 0.67 -0.34 0.34 0 0 Z " fill="#A0A4A4" transform="translate(326,247)"/>
<path d="M0 0 C0.99 0 1.98 0 3 0 C3 0.99 3 1.98 3 3 C3.99 2.67 4.98 2.34 6 2 C6.99 2.66 7.98 3.32 9 4 C6.21176345 5.0326802 5.1322726 5.04509293 2.25 4.0625 C1.5075 3.711875 0.765 3.36125 0 3 C0 2.01 0 1.02 0 0 Z " fill="#B9BDBD" transform="translate(336,237)"/>
<path d="M0 0 C0.99 0.33 1.98 0.66 3 1 C2.67 2.65 2.34 4.3 2 6 C1.01 6 0.02 6 -1 6 C-1.042721 4.33388095 -1.04063832 2.66617115 -1 1 C-0.67 0.67 -0.34 0.34 0 0 Z " fill="#C1C6C7" transform="translate(309,76)"/>
<path d="M0 0 C1.98 0 3.96 0 6 0 C5.34 1.32 4.68 2.64 4 4 C2.35 3.67 0.7 3.34 -1 3 C-0.67 2.01 -0.34 1.02 0 0 Z " fill="#999D9D" transform="translate(222,321)"/>
<path d="M0 0 C0.66 0.33 1.32 0.66 2 1 C2 2.32 2 3.64 2 5 C0.35 5 -1.3 5 -3 5 C-3 4.01 -3 3.02 -3 2 C-2.01 1.34 -1.02 0.68 0 0 Z " fill="#A8ACAC" transform="translate(219,320)"/>
<path d="M0 0 C0 1.32 0 2.64 0 4 C-1.32 4.33 -2.64 4.66 -4 5 C-4 3.68 -4 2.36 -4 1 C-4.66 0.67 -5.32 0.34 -6 0 C-3.50907189 -1.24546405 -2.58919267 -0.7767578 0 0 Z " fill="#CDD1D1" transform="translate(248,309)"/>
<path d="M0 0 C3 3.75 3 3.75 3 6 C1.35 6 -0.3 6 -2 6 C-2 5.01 -2 4.02 -2 3 C-1.34 3 -0.68 3 0 3 C0 2.01 0 1.02 0 0 Z " fill="#AFB2B2" transform="translate(251,245)"/>
<path d="M0 0 C0 0.99 0 1.98 0 3 C-1.98 3 -3.96 3 -6 3 C-6 2.01 -6 1.02 -6 0 C-3.50907189 -1.24546405 -2.58919267 -0.7767578 0 0 Z " fill="#9C9F9F" transform="translate(358,237)"/>
<path d="M0 0 C2.0625 0.4375 2.0625 0.4375 4 1 C4 1.99 4 2.98 4 4 C3.01 4.33 2.02 4.66 1 5 C0.34 3.68 -0.32 2.36 -1 1 C-0.67 0.67 -0.34 0.34 0 0 Z " fill="#A8ABAB" transform="translate(298,162)"/>
<path d="M0 0 C0.66 0.33 1.32 0.66 2 1 C2 2.65 2 4.3 2 6 C0.68 6 -0.64 6 -2 6 C-2 4.35 -2 2.7 -2 1 C-1.34 0.67 -0.68 0.34 0 0 Z " fill="#ACB1B2" transform="translate(294,87)"/>
<path d="M0 0 C0.99 0 1.98 0 3 0 C3 1.65 3 3.3 3 5 C1.68 4.67 0.36 4.34 -1 4 C-0.67 2.68 -0.34 1.36 0 0 Z " fill="#9EA2A2" transform="translate(278,77)"/>
<path d="M0 0 C1.65 0 3.3 0 5 0 C5 1.65 5 3.3 5 5 C3.35 4.67 1.7 4.34 0 4 C0 2.68 0 1.36 0 0 Z " fill="#A6A9AA" transform="translate(303,77)"/>
<path d="M0 0 C1.32 0 2.64 0 4 0 C4 1.65 4 3.3 4 5 C3.01 5 2.02 5 1 5 C0.67 3.35 0.34 1.7 0 0 Z " fill="#B1B5B4" transform="translate(200,333)"/>
<path d="M0 0 C0.99 0.66 1.98 1.32 3 2 C2.67 2.99 2.34 3.98 2 5 C0.68 4.67 -0.64 4.34 -2 4 C-1.34 2.68 -0.68 1.36 0 0 Z " fill="#A4A8A8" transform="translate(289,320)"/>
<path d="M0 0 C1.65 0 3.3 0 5 0 C4.67 1.32 4.34 2.64 4 4 C3.34 3.67 2.68 3.34 2 3 C1.34 3.99 0.68 4.98 0 6 C0 4.02 0 2.04 0 0 Z " fill="#B4BCD4" transform="translate(221,296)"/>
<path d="M0 0 C0.99 0 1.98 0 3 0 C2.67 1.65 2.34 3.3 2 5 C1.01 4.67 0.02 4.34 -1 4 C-0.67 2.68 -0.34 1.36 0 0 Z " fill="#9C9F9F" transform="translate(289,247)"/>
<path d="M0 0 C1.32 0.33 2.64 0.66 4 1 C3.67 2.32 3.34 3.64 3 5 C2.01 4.67 1.02 4.34 0 4 C0 2.68 0 1.36 0 0 Z " fill="#999C9D" transform="translate(368,236)"/>
<path d="M0 0 C1.32 0.33 2.64 0.66 4 1 C3.67 2.32 3.34 3.64 3 5 C2.01 4.67 1.02 4.34 0 4 C0 2.68 0 1.36 0 0 Z " fill="#A5A9A9" transform="translate(249,236)"/>
<path d="M0 0 C1.32 0.66 2.64 1.32 4 2 C3.67 2.99 3.34 3.98 3 5 C1.68 4.67 0.36 4.34 -1 4 C-0.67 2.68 -0.34 1.36 0 0 Z " fill="#40ABE3" transform="translate(249,222)"/>
<path d="M0 0 C0.99 0 1.98 0 3 0 C2.67 1.65 2.34 3.3 2 5 C1.01 4.67 0.02 4.34 -1 4 C-0.67 2.68 -0.34 1.36 0 0 Z " fill="#A5A8A9" transform="translate(350,162)"/>
<path d="M0 0 C1.32 0.33 2.64 0.66 4 1 C4 1.66 4 2.32 4 3 C3.360625 3.12375 2.72125 3.2475 2.0625 3.375 C1.381875 3.58125 0.70125 3.7875 0 4 C-0.33 4.66 -0.66 5.32 -1 6 C-1.66 5.67 -2.32 5.34 -3 5 C-2.01 3.35 -1.02 1.7 0 0 Z " fill="#AEB2B3" transform="translate(234,100)"/>
</svg>
