<?xml version="1.0" encoding="UTF-8"?>
<svg version="1.1" xmlns="http://www.w3.org/2000/svg" width="400" height="400">
<path d="M0 0 C132 0 264 0 400 0 C400 132 400 264 400 400 C268 400 136 400 0 400 C0 268 0 136 0 0 Z " fill="#ECF3F3" transform="translate(0,0)"/>
<path d="M0 0 C2.06296348 2.48978351 3.86276593 4.70875402 5.24609375 7.64453125 C6.79965006 10.28413149 6.79965006 10.28413149 9.765625 10.53125 C10.91546875 10.5209375 12.0653125 10.510625 13.25 10.5 C33.21002994 11.01609968 54.60849779 16.42399135 69 31 C73.39485182 36.37442722 76.01609404 41.44254351 75.5078125 48.4921875 C73.67370069 57.54987811 68.47181568 63.82140729 61 69 C43.78672023 79.04450335 26.7296231 82.37867963 6.9375 82.1875 C5.66583984 82.18685547 4.39417969 82.18621094 3.08398438 82.18554688 C-18.47220949 82.0860057 -39.7131045 78.92948646 -55.86328125 63.2734375 C-60.94089157 57.87093438 -63.2737822 54.14145796 -63.6875 46.5625 C-63.40145961 39.87533947 -61.46010329 35.89452893 -57 31 C-56.46632812 30.39800781 -55.93265625 29.79601562 -55.3828125 29.17578125 C-45.1835535 19.08984735 -30.67387222 14.75972108 -17 12 C-16.2059375 11.8040625 -15.411875 11.608125 -14.59375 11.40625 C-10.78959315 10.8104182 -7.03085872 10.89561931 -3.1875 10.9375 C-2.39923828 10.94201172 -1.61097656 10.94652344 -0.79882812 10.95117188 C1.13414761 10.96288688 3.06708393 10.98082002 5 11 C4.6390625 10.54109375 4.278125 10.0821875 3.90625 9.609375 C3.21015625 8.68898437 3.21015625 8.68898437 2.5 7.75 C1.80390625 6.84507812 1.80390625 6.84507812 1.09375 5.921875 C0 4 0 4 0 0 Z " fill="#6D56A3" transform="translate(200,228)"/>
<path d="M0 0 C4.94618815 4.74674508 9.08880532 9.01646457 9.484375 16.13671875 C9.4225 17.00296875 9.360625 17.86921875 9.296875 18.76171875 C11.1221875 18.69984375 11.1221875 18.69984375 12.984375 18.63671875 C16.51581627 18.62417367 19.09691066 19.16173658 22.296875 20.76171875 C18.91413234 21.88929964 17.52909277 21.57922137 14.109375 20.82421875 C12.75779297 20.53224609 12.75779297 20.53224609 11.37890625 20.234375 C10.34830078 20.00041016 10.34830078 20.00041016 9.296875 19.76171875 C9.255625 20.91671875 9.214375 22.07171875 9.171875 23.26171875 C8.26260239 30.40961176 2.96580419 35.86488465 -2.48046875 40.2578125 C-19.71035976 51.91599886 -39.90256308 55.19361363 -60.328125 55.13671875 C-61.03078491 55.13650726 -61.73344482 55.13629578 -62.45739746 55.13607788 C-83.4493742 55.07312224 -105.8250858 50.73244142 -121.703125 35.76171875 C-126.64321265 29.88272556 -129.35061461 23.98727045 -129.140625 16.19140625 C-127.86075188 9.08353945 -122.78866203 2.9196221 -117.2734375 -1.515625 C-85.48704014 -22.81927429 -30.31724971 -25.10373423 0 0 Z " fill="#BDD63B" transform="translate(156.703125,107.23828125)"/>
<path d="M0 0 C2.11055233 0.00316097 4.21969733 -0.02041402 6.33007812 -0.0456543 C27.1609986 -0.14304813 49.28207373 4.90871885 64.98242188 19.33520508 C68.98202969 23.83143825 71.93086325 29.29300474 72.30664062 35.37817383 C71.23688978 42.86642975 68.52122288 48.34469607 62.74414062 53.31567383 C62.04224609 54.01950195 62.04224609 54.01950195 61.32617188 54.73754883 C44.02674056 71.31083117 15.714063 72.02796169 -6.66992188 71.68676758 C-26.18482747 70.9994163 -46.05174927 65.48803723 -60.32617188 51.55004883 C-64.50672247 46.70941129 -66.25585938 42.85447911 -66.25585938 36.31567383 C-70.54585937 36.97567383 -74.83585938 37.63567383 -79.25585938 38.31567383 C-78.92585937 37.65567383 -78.59585938 36.99567383 -78.25585938 36.31567383 C-75.53320313 35.68286133 -75.53320313 35.68286133 -72.19335938 35.19067383 C-70.53626953 34.93930664 -70.53626953 34.93930664 -68.84570312 34.68286133 C-67.99105469 34.56168945 -67.13640625 34.44051758 -66.25585938 34.31567383 C-66.17335937 33.28442383 -66.09085938 32.25317383 -66.00585938 31.19067383 C-64.46230087 23.21562153 -58.49160018 17.50840327 -52.17773438 12.74926758 C-47.06132463 9.41664014 -41.65393181 7.1493994 -35.94335938 5.06567383 C-35.28094238 4.81938232 -34.61852539 4.57309082 -33.93603516 4.31933594 C-22.93972406 0.51595235 -11.53250578 -0.03593925 0 0 Z " fill="#24A5DC" transform="translate(300.255859375,90.684326171875)"/>
<path d="M0 0 C1.0526001 0.00161133 2.1052002 0.00322266 3.18969727 0.00488281 C11.4988702 0.13528294 18.4841685 1.27721302 26.25 4.375 C27.09433594 4.68695313 27.93867188 4.99890625 28.80859375 5.3203125 C36.09341974 8.24407065 43.03676074 12.72915234 47.40625 19.38671875 C49.55749817 24.45609523 48.87353109 29.63567644 47.0625 34.6875 C41.15911845 43.44078989 31.00560653 49.45314025 20.80566406 51.98071289 C13.92527105 53.28127498 7.30723104 53.69005162 0.3125 53.625 C-0.74074463 53.61823242 -1.79398926 53.61146484 -2.87915039 53.60449219 C-18.07116593 53.40210456 -31.9968836 50.74843303 -43.35546875 39.83203125 C-47.41619282 35.19970965 -49.39120384 30.79051321 -49.1796875 24.55078125 C-47.89127275 18.02671747 -43.21697948 13.40986267 -38.0625 9.5625 C-26.51823567 2.08555518 -13.52981236 -0.02168065 0 0 Z " fill="#02213D" transform="translate(199.75,155.625)"/>
<path d="M0 0 C0.99 0.33 1.98 0.66 3 1 C2.34 2.32 1.68 3.64 1 5 C0.34 5 -0.32 5 -1 5 C-0.65213292 6.97536745 -0.65213292 6.97536745 0 9 C0.99 9.495 0.99 9.495 2 10 C1.34 10.99 0.68 11.98 0 13 C0.99 13.99 1.98 14.98 3 16 C2.34 16.66 1.68 17.32 1 18 C0.72027344 18.63550781 0.44054687 19.27101563 0.15234375 19.92578125 C-1.30527695 22.54949852 -2.92048561 23.57975189 -5.4375 25.1875 C-6.21996094 25.69667969 -7.00242187 26.20585937 -7.80859375 26.73046875 C-10 28 -10 28 -13 29 C-13 29.66 -13 30.32 -13 31 C-14.63604196 32.37073786 -16.30678061 33.70055256 -18 35 C-20.38479195 37.11981507 -21.69385851 39.08629975 -23 42 C-29 42 -35 42 -41 42 C-43.13084226 42.56161734 -45.2554308 43.14723207 -47.375 43.75 C-53.38758782 45.21779859 -53.38758782 45.21779859 -56.04296875 44.2734375 C-57.40863786 43.24128655 -58.70966356 42.12490869 -60 41 C-62.46865248 41.20572104 -63.79873832 41.89936916 -66 43 C-65.67 40.36 -65.34 37.72 -65 35 C-64.4225 35.20625 -63.845 35.4125 -63.25 35.625 C-60.48032433 36.08661261 -59.35438733 35.42944945 -57 34 C-57.33 33.01 -57.66 32.02 -58 31 C-58.721875 30.855625 -59.44375 30.71125 -60.1875 30.5625 C-61.115625 30.376875 -62.04375 30.19125 -63 30 C-63.886875 29.896875 -64.77375 29.79375 -65.6875 29.6875 C-68 29 -68 29 -69.0625 27.0625 C-69.5265625 26.0415625 -69.5265625 26.0415625 -70 25 C-71.96672915 23.8499169 -71.96672915 23.8499169 -74 23 C-76 21 -76 21 -77 19 C-78.65 19 -80.3 19 -82 19 C-82 18.67 -82 18.34 -82 18 C-80.96818604 18.01571045 -79.93637207 18.0314209 -78.87329102 18.04760742 C-74.95752112 18.10288786 -71.04178367 18.13669736 -67.12573242 18.16479492 C-65.44728757 18.17966256 -63.76887995 18.19996277 -62.09057617 18.22631836 C-47.49057731 18.44945289 -32.6881373 17.82967724 -19.125 11.8125 C-18.42938965 11.51859375 -17.7337793 11.2246875 -17.01708984 10.921875 C-11.43202141 8.4516805 -6.80891786 5.3120433 -2.1015625 1.40625 C-1.06128906 0.71015625 -1.06128906 0.71015625 0 0 Z " fill="#C2D1D8" transform="translate(267,291)"/>
<path d="M0 0 C0.66 0 1.32 0 2 0 C2 0.66 2 1.32 2 2 C5.3 2 8.6 2 12 2 C12.33 1.34 12.66 0.68 13 0 C13.495 0.99 13.495 0.99 14 2 C19.94 1.67 25.88 1.34 32 1 C32.495 2.485 32.495 2.485 33 4 C33.33 3.34 33.66 2.68 34 2 C36.3140622 1.26924352 38.64828869 0.59861742 41 0 C41.495 0.99 41.495 0.99 42 2 C45.3 2 48.6 2 52 2 C52 2.99 52 3.98 52 5 C52.66 4.34 53.32 3.68 54 3 C54 2.67 54 2.34 54 2 C56.97 2 59.94 2 63 2 C62.979375 2.763125 62.95875 3.52625 62.9375 4.3125 C62.87057159 7.10185786 62.87057159 7.10185786 64 10 C64.66 10 65.32 10 66 10 C65.6875 11.9375 65.6875 11.9375 65 14 C64.01 14.33 63.02 14.66 62 15 C62 15.66 62 16.32 62 17 C64.31 17.33 66.62 17.66 69 18 C69.495 20.475 69.495 20.475 70 23 C68.68 23.33 67.36 23.66 66 24 C66 23.34 66 22.68 66 22 C61.25321896 21.89331976 61.25321896 21.89331976 56.5625 22.5 C54.21120785 22.95878871 52.25649884 23.03470308 49.875 23 C46.08564502 22.79576957 46.08564502 22.79576957 43 24 C42.67 23.67 42.34 23.34 42 23 C41.195625 23 40.39125 23 39.5625 23 C37 23 37 23 35 22 C33 22.33333333 31 22.66666667 29 23 C26.32623248 23.08945691 23.67676967 23.04461283 21 23 C20.34 23 19.68 23 19 23 C18.319375 22.814375 17.63875 22.62875 16.9375 22.4375 C16.298125 22.293125 15.65875 22.14875 15 22 C14.505 22.495 14.505 22.495 14 23 C11.66666667 23 9.33333333 23 7 23 C6.34 23.33 5.68 23.66 5 24 C4.67 23.34 4.34 22.68 4 22 C2.576875 22.2475 2.576875 22.2475 1.125 22.5 C-2 23 -2 23 -4 23 C-4 22.01 -4 21.02 -4 20 C-4.66 20 -5.32 20 -6 20 C-6.66 21.32 -7.32 22.64 -8 24 C-8 23.01 -8 22.02 -8 21 C-8.598125 21.33 -9.19625 21.66 -9.8125 22 C-13.36764716 23.62521013 -16.30798781 22.79827291 -20 22 C-20.33 20.35 -20.66 18.7 -21 17 C-20.01 16.34 -19.02 15.68 -18 15 C-18.66 14.34 -19.32 13.68 -20 13 C-20 12.01 -20 11.02 -20 10 C-17.96220589 10 -15.92423094 10.00126048 -13.88671875 10.03515625 C-10.17548662 10.08129946 -6.75216212 9.96459459 -3.0625 9.4375 C0 9 0 9 2 10 C2.33 9.34 2.66 8.68 3 8 C3.66 8 4.32 8 5 8 C5 8.66 5 9.32 5 10 C8.63 9.67 12.26 9.34 16 9 C16 8.01 16 7.02 16 6 C14.2675 6.2784375 14.2675 6.2784375 12.5 6.5625 C8.13610352 7.1235724 4.33266935 6.69632186 0 6 C0 4.02 0 2.04 0 0 Z " fill="#735DA6" transform="translate(175,263)"/>
<path d="M0 0 C0.99 0.33 1.98 0.66 3 1 C2.34 2.32 1.68 3.64 1 5 C0.34 5 -0.32 5 -1 5 C-0.65213292 6.97536745 -0.65213292 6.97536745 0 9 C0.99 9.495 0.99 9.495 2 10 C1.34 10.99 0.68 11.98 0 13 C0.99 13.99 1.98 14.98 3 16 C2.34 16.66 1.68 17.32 1 18 C0.71640625 18.63550781 0.4328125 19.27101563 0.140625 19.92578125 C-2.02675425 23.86714556 -6.13899043 25.89280495 -10 28 C-13.125 28.8125 -13.125 28.8125 -16 29 C-17.27875 29.185625 -18.5575 29.37125 -19.875 29.5625 C-20.90625 29.706875 -21.9375 29.85125 -23 30 C-22.505 28.515 -22.505 28.515 -22 27 C-22.639375 27.350625 -23.27875 27.70125 -23.9375 28.0625 C-28.17279268 29.35901817 -31.68686599 28.70578557 -36 28 C-36.94875 27.855625 -37.8975 27.71125 -38.875 27.5625 C-41 27 -41 27 -44 25 C-46.33010909 24.32215008 -48.66359824 23.65583207 -51 23 C-51.64420898 22.65791504 -52.28841797 22.31583008 -52.95214844 21.96337891 C-55.21545813 20.89864118 -56.84037524 20.69255535 -59.328125 20.5859375 C-60.12734375 20.54726563 -60.9265625 20.50859375 -61.75 20.46875 C-62.575 20.4378125 -63.4 20.406875 -64.25 20.375 C-65.09046875 20.33632813 -65.9309375 20.29765625 -66.796875 20.2578125 C-68.86423382 20.16384164 -70.93208627 20.08084436 -73 20 C-73 19.67 -73 19.34 -73 19 C-72.24082275 18.98541748 -71.48164551 18.97083496 -70.69946289 18.95581055 C-45.98638517 18.42665862 -21.98308051 17.90237021 -2.1015625 1.40625 C-1.06128906 0.71015625 -1.06128906 0.71015625 0 0 Z " fill="#BEC8CD" transform="translate(267,291)"/>
<path d="M0 0 C0.99 0.66 1.98 1.32 3 2 C3.53625 1.608125 4.0725 1.21625 4.625 0.8125 C7 0 7 0 10.125 1.3125 C11.07375 1.869375 12.0225 2.42625 13 3 C15.90339465 4.45169732 17.90874842 3.72348441 21 3 C21.33 2.34 21.66 1.68 22 1 C26.78180276 0.12333616 30.26137123 -0.09352972 35 1 C37.33301986 1.03824623 39.66711508 1.04574284 42 1 C42 1.66 42 2.32 42 3 C42.99 3.33 43.98 3.66 45 4 C43.71034824 5.37562854 42.37310707 6.70766393 41 8 C40.34 8 39.68 8 39 8 C38.92572162 11.34252724 38.93453047 13.8035914 40 17 C39.67 17.66 39.34 18.32 39 19 C37.02 19 35.04 19 33 19 C33 17.68 33 16.36 33 15 C32.34 14.01 31.68 13.02 31 12 C30.01 12 29.02 12 28 12 C28 11.34 28 10.68 28 10 C27.34 10 26.68 10 26 10 C25.67 10.66 25.34 11.32 25 12 C22.4375 12.625 22.4375 12.625 20 13 C19.67 13.99 19.34 14.98 19 16 C18.29875 16.103125 17.5975 16.20625 16.875 16.3125 C13.60862353 17.09359003 10.9528148 18.42058743 8 20 C7.34 18.68 6.68 17.36 6 16 C4.35 16.33 2.7 16.66 1 17 C1 13 1 13 3 11 C-0.68564084 8.54420303 -0.68564084 8.54420303 -5 8 C-5 5 -5 5 -2.5 2.3125 C-1.675 1.549375 -0.85 0.78625 0 0 Z " fill="#D6E5EB" transform="translate(199,331)"/>
<path d="M0 0 C0.99 0.33 1.98 0.66 3 1 C2.6875 2.9375 2.6875 2.9375 2 5 C1.01 5.33 0.02 5.66 -1 6 C-1 6.66 -1 7.32 -1 8 C1.31 8.33 3.62 8.66 6 9 C6.495 11.475 6.495 11.475 7 14 C5.68 14.33 4.36 14.66 3 15 C3 14.34 3 13.68 3 13 C-1.74678104 12.89331976 -1.74678104 12.89331976 -6.4375 13.5 C-8.78879215 13.95878871 -10.74350116 14.03470308 -13.125 14 C-16.91435498 13.79576957 -16.91435498 13.79576957 -20 15 C-20.33 14.67 -20.66 14.34 -21 14 C-21.804375 14 -22.60875 14 -23.4375 14 C-26 14 -26 14 -28 13 C-30.09821215 13.39938767 -30.09821215 13.39938767 -32 14 C-32.33 12.68 -32.66 11.36 -33 10 C-31.68 9.67 -30.36 9.34 -29 9 C-29 8.01 -29 7.02 -29 6 C-30.32 5.34 -31.64 4.68 -33 4 C-33.33 4.66 -33.66 5.32 -34 6 C-34.33 4.68 -34.66 3.36 -35 2 C-32.66062093 0.83031047 -31.22630632 0.86635779 -28.625 0.875 C-27.85414063 0.87242187 -27.08328125 0.86984375 -26.2890625 0.8671875 C-24.0671811 0.99610212 -22.13381492 1.38616283 -20 2 C-20.33 2.66 -20.66 3.32 -21 4 C-20.0925 3.484375 -19.185 2.96875 -18.25 2.4375 C-14.78057083 0.90294479 -14.35996197 0.9161413 -11 2 C-9.32706064 1.69972883 -7.66014616 1.36442233 -6 1 C-4.3337447 0.9629721 -2.66598681 0.95240038 -1 1 C-0.505 1.99 -0.505 1.99 0 3 C0 2.01 0 1.02 0 0 Z " fill="#7B65AB" transform="translate(238,272)"/>
<path d="M0 0 C0.66 0 1.32 0 2 0 C2 0.66 2 1.32 2 2 C4.31 2 6.62 2 9 2 C8.67 4.97 8.34 7.94 8 11 C7.34 11 6.68 11 6 11 C6 11.99 6 12.98 6 14 C7.65 14 9.3 14 11 14 C11 14.33 11 14.66 11 15 C9.88625 14.979375 8.7725 14.95875 7.625 14.9375 C4.16784079 14.73619282 4.16784079 14.73619282 2 16 C1.67 15.34 1.34 14.68 1 14 C0.05125 14.165 -0.8975 14.33 -1.875 14.5 C-5 15 -5 15 -7 15 C-7 14.01 -7 13.02 -7 12 C-7.66 12 -8.32 12 -9 12 C-9.66 13.32 -10.32 14.64 -11 16 C-11 15.01 -11 14.02 -11 13 C-11.598125 13.33 -12.19625 13.66 -12.8125 14 C-16.36764716 15.62521013 -19.30798781 14.79827291 -23 14 C-23.33 12.35 -23.66 10.7 -24 9 C-23.01 8.34 -22.02 7.68 -21 7 C-21.66 6.34 -22.32 5.68 -23 5 C-23 4.01 -23 3.02 -23 2 C-20.96220589 2 -18.92423094 2.00126048 -16.88671875 2.03515625 C-13.17548662 2.08129946 -9.75216212 1.96459459 -6.0625 1.4375 C-3 1 -3 1 -1 2 C-0.67 1.34 -0.34 0.68 0 0 Z " fill="#7863AA" transform="translate(178,271)"/>
<path d="M0 0 C3 1 3 1 4.875 2.0625 C7.42221546 3.18627153 9.24166613 3.2177632 12 3 C12.66 2.67 13.32 2.34 14 2 C14.66 2.66 15.32 3.32 16 4 C17.66614608 4.04165365 19.33385392 4.04165365 21 4 C21.66 4.33 22.32 4.66 23 5 C24.71233688 4.9129796 26.42175406 4.75902838 28.125 4.5625 C29.03507812 4.46066406 29.94515625 4.35882813 30.8828125 4.25390625 C31.58148438 4.17011719 32.28015625 4.08632813 33 4 C33.66 4.99 34.32 5.98 35 7 C33.75 9.5 33.75 9.5 32 12 C26 12 20 12 14 12 C11.86915774 12.56161734 9.7445692 13.14723207 7.625 13.75 C1.61241218 15.21779859 1.61241218 15.21779859 -1.04296875 14.2734375 C-2.40863786 13.24128655 -3.70966356 12.12490869 -5 11 C-7.46865248 11.20572104 -8.79873832 11.89936916 -11 13 C-10.67 10.36 -10.34 7.72 -10 5 C-9.4225 5.20625 -8.845 5.4125 -8.25 5.625 C-5.48032433 6.08661261 -4.35438733 5.42944945 -2 4 C-2 3.01 -2 2.02 -2 1 C-1.34 0.67 -0.68 0.34 0 0 Z " fill="#CBDAE0" transform="translate(212,321)"/>
<path d="M0 0 C0.66 0.33 1.32 0.66 2 1 C4.10528933 1.08543895 6.21331157 1.10714725 8.3203125 1.09765625 C10.20556641 1.09282227 10.20556641 1.09282227 12.12890625 1.08789062 C13.44761719 1.07951172 14.76632812 1.07113281 16.125 1.0625 C17.46484211 1.05748489 18.804686 1.05292201 20.14453125 1.04882812 C23.42973206 1.03701086 26.71484397 1.02053617 30 1 C30 2.32 30 3.64 30 5 C28.66195312 4.96519531 28.66195312 4.96519531 27.296875 4.9296875 C26.12640625 4.91164063 24.9559375 4.89359375 23.75 4.875 C22.58984375 4.85179688 21.4296875 4.82859375 20.234375 4.8046875 C17.17213954 4.9896051 15.55797249 5.39176977 13 7 C14.37485532 8.54166642 14.37485532 8.54166642 16 10 C16.66 10 17.32 10 18 10 C18 9.34 18 8.68 18 8 C22.95 8.99 22.95 8.99 28 10 C28.495 12.475 28.495 12.475 29 15 C27.97261719 14.9278125 26.94523437 14.855625 25.88671875 14.78125 C18.65322267 14.291318 11.48983856 13.88224004 4.234375 14.0625 C2 14 2 14 -0.109375 13.4375 C-2.20664425 12.77890093 -2.20664425 12.77890093 -5 14 C-6.89470816 14.0685495 -8.7916834 14.08480372 -10.6875 14.0625 C-11.68136719 14.05347656 -12.67523438 14.04445312 -13.69921875 14.03515625 C-14.83810547 14.01775391 -14.83810547 14.01775391 -16 14 C-15.67 12.68 -15.34 11.36 -15 10 C-12.03 10 -9.06 10 -6 10 C-5.67 9.34 -5.34 8.68 -5 8 C-4.67 8.66 -4.34 9.32 -4 10 C-2.35 9.34 -0.7 8.68 1 8 C0.67 7.34 0.34 6.68 0 6 C-0.039992 4.00039988 -0.04346799 1.99952758 0 0 Z " fill="#34ACDF" transform="translate(271,115)"/>
<path d="M0 0 C2.64 0.33 5.28 0.66 8 1 C8.33 2.32 8.66 3.64 9 5 C6.35261084 6.4606285 5.10551666 7 2 7 C2.66 7.66 3.32 8.32 4 9 C6.55690423 7.91744593 6.55690423 7.91744593 9 6 C9.89207179 2.9042893 9.89207179 2.9042893 10 0 C10.7425 0.515625 11.485 1.03125 12.25 1.5625 C14.83215454 3.24942772 14.83215454 3.24942772 17.3125 2.6875 C17.869375 2.460625 18.42625 2.23375 19 2 C19.495 3.98 19.495 3.98 20 6 C18.02 6.33 16.04 6.66 14 7 C14 7.66 14 8.32 14 9 C14.66 9.33 15.32 9.66 16 10 C16 10.66 16 11.32 16 12 C16.66 12 17.32 12 18 12 C18 11.34 18 10.68 18 10 C18.99 10 19.98 10 21 10 C21 11.32 21 12.64 21 14 C19.52093108 14.02689216 18.04172517 14.04634621 16.5625 14.0625 C15.32693359 14.07990234 15.32693359 14.07990234 14.06640625 14.09765625 C12 14 12 14 11 13 C10.67 13.66 10.34 14.32 10 15 C9.34 15 8.68 15 8 15 C8 13.68 8 12.36 8 11 C7.34 11 6.68 11 6 11 C6 11.99 6 12.98 6 14 C3.36 13.67 0.72 13.34 -2 13 C-2 12.01 -2 11.02 -2 10 C-2.63808594 10 -3.27617187 10 -3.93359375 10 C-6.62239583 10 -9.31119792 10 -12 10 C-12.99 10.33 -13.98 10.66 -15 11 C-16.5 9.625 -16.5 9.625 -18 8 C-18 7.34 -18 6.68 -18 6 C-16.35 5.67 -14.7 5.34 -13 5 C-12.67 4.01 -12.34 3.02 -12 2 C-12 2.99 -12 3.98 -12 5 C-9.36 5 -6.72 5 -4 5 C-3.67 4.34 -3.34 3.68 -3 3 C-3 3.66 -3 4.32 -3 5 C-2.01 5 -1.02 5 0 5 C0 3.35 0 1.7 0 0 Z " fill="#22A4DC" transform="translate(301,115)"/>
<path d="M0 0 C1.051875 0.2475 1.051875 0.2475 2.125 0.5 C5.13888194 1.02415338 7.94713625 1.07099683 11 1 C10.67 2.32 10.34 3.64 10 5 C9.06027344 5.09087891 9.06027344 5.09087891 8.1015625 5.18359375 C7.28429687 5.26738281 6.46703125 5.35117188 5.625 5.4375 C4.81289063 5.51871094 4.00078125 5.59992188 3.1640625 5.68359375 C0.95727195 5.89090114 0.95727195 5.89090114 -1 7 C1.475 7.99 1.475 7.99 4 9 C4 8.34 4 7.68 4 7 C6.94082123 7.63017598 9.32031473 8.66015736 12 10 C12.66 10 13.32 10 14 10 C14.33 10.99 14.66 11.98 15 13 C14 14 14 14 11.625 14.0625 C10.75875 14.041875 9.8925 14.02125 9 14 C8.01 14 7.02 14 6 14 C5.34 13.67 4.68 13.34 4 13 C4 12.34 4 11.68 4 11 C3.34 11 2.68 11 2 11 C2 11.66 2 12.32 2 13 C-7.41002278 14.33257403 -7.41002278 14.33257403 -12 13 C-12.042721 11.33388095 -12.04063832 9.66617115 -12 8 C-11.67 7.67 -11.34 7.34 -11 7 C-11.66 6.360625 -12.32 5.72125 -13 5.0625 C-15 3 -15 3 -15 2 C-13.35 2 -11.7 2 -10 2 C-9.67 2.66 -9.34 3.32 -9 4 C-8.67 3.01 -8.34 2.02 -8 1 C-7.38125 1.185625 -6.7625 1.37125 -6.125 1.5625 C-3.95839822 2.23686176 -3.95839822 2.23686176 -2 1 C-1.67 1.33 -1.34 1.66 -1 2 C-0.67 1.34 -0.34 0.68 0 0 Z " fill="#49B4E2" transform="translate(336,115)"/>
<path d="M0 0 C0.66 0 1.32 0 2 0 C2.495 0.99 2.495 0.99 3 2 C5.31 2 7.62 2 10 2 C10.495 4.475 10.495 4.475 11 7 C5.06 7 -0.88 7 -7 7 C-7 6.01 -7 5.02 -7 4 C-7.66 4 -8.32 4 -9 4 C-9 4.99 -9 5.98 -9 7 C-10.36125 6.9690625 -10.36125 6.9690625 -11.75 6.9375 C-14.84934697 6.85422971 -14.84934697 6.85422971 -17.125 7.625 C-19.65172384 8.13034477 -20.84954734 7.30563197 -23 6 C-23 5.34 -23 4.68 -23 4 C-23.66 4 -24.32 4 -25 4 C-25 4.99 -25 5.98 -25 7 C-26.98 7.33 -28.96 7.66 -31 8 C-31 6.02 -31 4.04 -31 2 C-30.410979 2.00523682 -29.82195801 2.01047363 -29.21508789 2.01586914 C-26.49756983 2.03689803 -23.78006899 2.04974146 -21.0625 2.0625 C-20.13630859 2.07087891 -19.21011719 2.07925781 -18.25585938 2.08789062 C-12.41908331 2.10837054 -6.78122477 1.83422315 -1 1 C-0.67 0.67 -0.34 0.34 0 0 Z " fill="#C6BDDB" transform="translate(240,251)"/>
<path d="M0 0 C0.66 0 1.32 0 2 0 C2 0.66 2 1.32 2 2 C5.3 2 8.6 2 12 2 C12.33 1.34 12.66 0.68 13 0 C13.33 0.66 13.66 1.32 14 2 C19.94 1.67 25.88 1.34 32 1 C32.495 2.485 32.495 2.485 33 4 C33.33 3.34 33.66 2.68 34 2 C36.3140622 1.26924352 38.64828869 0.59861742 41 0 C41.495 0.99 41.495 0.99 42 2 C45.3 2 48.6 2 52 2 C52 3.32 52 4.64 52 6 C43.75 6 35.5 6 27 6 C27 5.34 27 4.68 27 4 C22.43569038 4.5167143 17.99941034 5.19625142 13.5 6.125 C8.65741934 7.04353692 4.82795866 6.9109356 0 6 C0 4.02 0 2.04 0 0 Z " fill="#B4A9D0" transform="translate(175,263)"/>
<path d="M0 0 C2.31 0 4.62 0 7 0 C7.33 0.66 7.66 1.32 8 2 C11.96 2 15.92 2 20 2 C20 1.34 20 0.68 20 0 C20.66 0 21.32 0 22 0 C22 0.66 22 1.32 22 2 C24.97 2 27.94 2 31 2 C31 3.98 31 5.96 31 8 C30.21238281 7.9278125 29.42476562 7.855625 28.61328125 7.78125 C20.72042846 7.1087229 12.91941214 6.88334745 5 7 C4.67 6.34 4.34 5.68 4 5 C3.34 5 2.68 5 2 5 C2 5.66 2 6.32 2 7 C1.34 7 0.68 7 0 7 C0 4.69 0 2.38 0 0 Z " fill="#CCC5DF" transform="translate(162,251)"/>
<path d="M0 0 C0.33 0.66 0.66 1.32 1 2 C1.99 2 2.98 2 4 2 C4 1.34 4 0.68 4 0 C4.66 0 5.32 0 6 0 C6 0.66 6 1.32 6 2 C9.3 1.67 12.6 1.34 16 1 C16.33 1.66 16.66 2.32 17 3 C16.67 3.66 16.34 4.32 16 5 C16.66 5 17.32 5 18 5 C18 3.35 18 1.7 18 0 C18.33 0.66 18.66 1.32 19 2 C22.96 2 26.92 2 31 2 C30.67 3.65 30.34 5.3 30 7 C28.02 7 26.04 7 24 7 C24 6.34 24 5.68 24 5 C23.30132812 5.1546875 22.60265625 5.309375 21.8828125 5.46875 C17.85452646 6.21108998 13.8243542 6.43371093 9.7421875 6.71875 C6.91155658 6.90848979 6.91155658 6.90848979 4 8 C4 7.34 4 6.68 4 6 C1.03 6 -1.94 6 -5 6 C-5 4.68 -5 3.36 -5 2 C-3.68 2 -2.36 2 -1 2 C-0.67 1.34 -0.34 0.68 0 0 Z " fill="#D2ECF8" transform="translate(318,103)"/>
<path d="M0 0 C0.7425 0.515625 1.485 1.03125 2.25 1.5625 C4.83215454 3.24942772 4.83215454 3.24942772 7.3125 2.6875 C7.869375 2.460625 8.42625 2.23375 9 2 C9.33 3.32 9.66 4.64 10 6 C8.02 6.33 6.04 6.66 4 7 C4 7.66 4 8.32 4 9 C4.66 9.33 5.32 9.66 6 10 C6 10.66 6 11.32 6 12 C6.66 12 7.32 12 8 12 C8 11.34 8 10.68 8 10 C8.99 10 9.98 10 11 10 C11 11.32 11 12.64 11 14 C9.52093108 14.02689216 8.04172517 14.04634621 6.5625 14.0625 C5.32693359 14.07990234 5.32693359 14.07990234 4.06640625 14.09765625 C2 14 2 14 1 13 C0.67 13.66 0.34 14.32 0 15 C-0.66 15 -1.32 15 -2 15 C-2 13.68 -2 12.36 -2 11 C-2.66 11 -3.32 11 -4 11 C-4 11.99 -4 12.98 -4 14 C-5.65 14 -7.3 14 -9 14 C-9.33 12.68 -9.66 11.36 -10 10 C-9.44570313 9.86464844 -8.89140625 9.72929688 -8.3203125 9.58984375 C-6.01899667 8.90600079 -4.06968946 8.22491825 -2 7 C-0.38864654 3.45136841 -0.38864654 3.45136841 0 0 Z " fill="#58BAE5" transform="translate(311,115)"/>
<path d="M0 0 C0.99 0.66 1.98 1.32 3 2 C3.53625 1.608125 4.0725 1.21625 4.625 0.8125 C7 0 7 0 10.125 1.3125 C11.07375 1.869375 12.0225 2.42625 13 3 C15.6666419 4.33332095 17.16680303 3.67102033 20 3 C19.67 3.99 19.34 4.98 19 6 C18.01 6.33 17.02 6.66 16 7 C15.67 7.66 15.34 8.32 15 9 C15 8.34 15 7.68 15 7 C14.21625 7.33 13.4325 7.66 12.625 8 C6.54797047 9.67642194 0.11488404 9.63063574 -6 8 C-4.55746343 4.63408134 -2.66735273 2.48952921 0 0 Z " fill="#CEE4EE" transform="translate(199,331)"/>
<path d="M0 0 C0.66 0.66 1.32 1.32 2 2 C5.58343976 2.16677282 5.58343976 2.16677282 9 2 C9 2.99 9 3.98 9 5 C9.66 5.33 10.32 5.66 11 6 C5.39 6 -0.22 6 -6 6 C-6 5.34 -6 4.68 -6 4 C-6.66 3.67 -7.32 3.34 -8 3 C-8 3.99 -8 4.98 -8 6 C-9.41433206 6.2236337 -10.83167618 6.42826476 -12.25 6.625 C-13.03890625 6.74101562 -13.8278125 6.85703125 -14.640625 6.9765625 C-17.346617 7.00344322 -18.6272818 6.20580761 -21 5 C-24.20898563 5.7913437 -24.20898563 5.7913437 -27 7 C-27 5.35 -27 3.7 -27 2 C-26.32420898 2.01047363 -25.64841797 2.02094727 -24.95214844 2.03173828 C-21.88480358 2.07335976 -18.81751822 2.09934573 -15.75 2.125 C-14.68652344 2.14175781 -13.62304688 2.15851563 -12.52734375 2.17578125 C-11.50253906 2.18222656 -10.47773438 2.18867188 -9.421875 2.1953125 C-8.00793457 2.21102295 -8.00793457 2.21102295 -6.56542969 2.22705078 C-3.90048059 1.99119213 -2.28136908 1.35661659 0 0 Z " fill="#B1A5CD" transform="translate(214,288)"/>
<path d="M0 0 C1.98 0 3.96 0 6 0 C6.33 0.66 6.66 1.32 7 2 C10.63 2 14.26 2 18 2 C18 1.34 18 0.68 18 0 C18.66 0 19.32 0 20 0 C20 0.66 20 1.32 20 2 C21.32 2 22.64 2 24 2 C23.34 3.98 22.68 5.96 22 8 C20.68 7.34 19.36 6.68 18 6 C17.67 6.33 17.34 6.66 17 7 C14.34177343 7.12658222 11.72112576 7.18520214 9.0625 7.1875 C8.32064453 7.19974609 7.57878906 7.21199219 6.81445312 7.22460938 C4.87486371 7.22988478 2.9357629 7.12188902 1 7 C0.34 6.34 -0.32 5.68 -1 5 C-0.625 2.375 -0.625 2.375 0 0 Z " fill="#85CDEC" transform="translate(259,103)"/>
<path d="M0 0 C0 1.32 0 2.64 0 4 C-0.99 4 -1.98 4 -3 4 C-3 3.01 -3 2.02 -3 1 C-3.66 1 -4.32 1 -5 1 C-5 1.99 -5 2.98 -5 4 C-12.62854246 5.78540355 -19.24272966 6.11032496 -27 5 C-27.33 3.35 -27.66 1.7 -28 0 C-27.34926514 0.00523682 -26.69853027 0.01047363 -26.02807617 0.01586914 C-23.08122726 0.03664938 -20.13439377 0.0496635 -17.1875 0.0625 C-15.65125977 0.07506836 -15.65125977 0.07506836 -14.08398438 0.08789062 C-13.10107422 0.09111328 -12.11816406 0.09433594 -11.10546875 0.09765625 C-10.19949951 0.10289307 -9.29353027 0.10812988 -8.36010742 0.11352539 C-0.75664437 -0.25221479 -0.75664437 -0.25221479 0 0 Z " fill="#E3EEAC" transform="translate(130,105)"/>
<path d="M0 0 C0.66 0.66 1.32 1.32 2 2 C4.31 1.34 6.62 0.68 9 0 C9 0.33 9 0.66 9 1 C13.39436211 1.85743651 17.52572076 2.08948558 22 2 C22.33 1.34 22.66 0.68 23 0 C23 1.98 23 3.96 23 6 C19.26513121 6.5745952 15.78706732 7 12 7 C10.93652344 7.01740234 10.93652344 7.01740234 9.8515625 7.03515625 C5.44096175 7.08932152 1.34413503 6.89110462 -3 6 C-3 4.68 -3 3.36 -3 2 C-2.01 2 -1.02 2 0 2 C0 1.34 0 0.68 0 0 Z " fill="#B2E0F3" transform="translate(288,103)"/>
<path d="M0 0 C1.32 0.33 2.64 0.66 4 1 C3.01 1 2.02 1 1 1 C1 1.66 1 2.32 1 3 C2.32 3.66 3.64 4.32 5 5 C4.67 4.01 4.34 3.02 4 2 C8.29 2 12.58 2 17 2 C17 2.99 17 3.98 17 5 C17.66 5 18.32 5 19 5 C19 4.01 19 3.02 19 2 C19.99 1.67 20.98 1.34 22 1 C22.66 1.33 23.32 1.66 24 2 C24.33 1.34 24.66 0.68 25 0 C25 0.66 25 1.32 25 2 C27.64 2 30.28 2 33 2 C33 3.66666667 33 5.33333333 33 7 C31.4221875 6.75443359 31.4221875 6.75443359 29.8125 6.50390625 C23.88719143 5.76324268 17.96150311 5.89311309 12 5.9375 C10.84371094 5.94201172 9.68742187 5.94652344 8.49609375 5.95117188 C5.66400775 5.96287471 2.83203189 5.97927004 0 6 C0 4.02 0 2.04 0 0 Z " fill="#EBF3C5" transform="translate(67,103)"/>
<path d="M0 0 C0.99 0.495 0.99 0.495 2 1 C4.10528933 1.08543895 6.21331157 1.10714725 8.3203125 1.09765625 C10.20556641 1.09282227 10.20556641 1.09282227 12.12890625 1.08789062 C13.44761719 1.07951172 14.76632812 1.07113281 16.125 1.0625 C17.46484211 1.05748489 18.804686 1.05292201 20.14453125 1.04882812 C23.42973206 1.03701086 26.71484397 1.02053617 30 1 C30 2.32 30 3.64 30 5 C23.07 5 16.14 5 9 5 C9 5.66 9 6.32 9 7 C8.34 7 7.68 7 7 7 C6.34 6.34 5.68 5.68 5 5 C2.39719432 5.32041397 2.39719432 5.32041397 0 6 C0 4.02 0 2.04 0 0 Z " fill="#92D2EE" transform="translate(271,115)"/>
<path d="M0 0 C3.3 0.66 6.6 1.32 10 2 C10.33 3.65 10.66 5.3 11 7 C9.97261719 6.9278125 8.94523437 6.855625 7.88671875 6.78125 C-0.08786254 6.24042068 -8.00182208 5.84749237 -16 6 C-16 4.68 -16 3.36 -16 2 C-14.35 1.67 -12.7 1.34 -11 1 C-10.67 1.99 -10.34 2.98 -10 4 C-9.67 3.34 -9.34 2.68 -9 2 C-6.03 2 -3.06 2 0 2 C0 1.34 0 0.68 0 0 Z " fill="#92D2EE" transform="translate(289,123)"/>
<path d="M0 0 C0.66 0 1.32 0 2 0 C2 0.66 2 1.32 2 2 C11.9 1.505 11.9 1.505 22 1 C22.33 2.65 22.66 4.3 23 6 C21.68 6.33 20.36 6.66 19 7 C19 6.34 19 5.68 19 5 C14.25321896 4.89331976 14.25321896 4.89331976 9.5625 5.5 C7.21120785 5.95878871 5.25649884 6.03470308 2.875 6 C-0.91435498 5.79576957 -0.91435498 5.79576957 -4 7 C-4 5.35 -4 3.7 -4 2 C-2.68 2 -1.36 2 0 2 C0 1.34 0 0.68 0 0 Z " fill="#B8ADD2" transform="translate(222,280)"/>
<path d="M0 0 C0.99 0.33 1.98 0.66 3 1 C2.34 1.66 1.68 2.32 1 3 C2.32 3 3.64 3 5 3 C5 4.32 5 5.64 5 7 C5.66 7 6.32 7 7 7 C7 5.68 7 4.36 7 3 C12.05002222 1.96409801 16.87416389 1.89748328 22 2 C23 6.875 23 6.875 23 8 C20.36 8 17.72 8 15 8 C14.67 6.68 14.34 5.36 14 4 C13.01 4 12.02 4 11 4 C11 4.99 11 5.98 11 7 C11.66 7.33 12.32 7.66 13 8 C8.38 8 3.76 8 -1 8 C-0.01 7.67 0.98 7.34 2 7 C2 6.34 2 5.68 2 5 C1.01 5 0.02 5 -1 5 C-0.67 3.35 -0.34 1.7 0 0 Z " fill="#5E9CB3" transform="translate(195,178)"/>
<path d="M0 0 C0.66 0 1.32 0 2 0 C2 0.66 2 1.32 2 2 C9.92 2 17.84 2 26 2 C26.33 2.99 26.66 3.98 27 5 C26 6 26 6 23.625 6.0625 C22.75875 6.041875 21.8925 6.02125 21 6 C20.01 6 19.02 6 18 6 C17.34 5.67 16.68 5.34 16 5 C16 4.34 16 3.68 16 3 C15.34 3 14.68 3 14 3 C14 3.66 14 4.32 14 5 C4.58997722 6.33257403 4.58997722 6.33257403 0 5 C0 3.35 0 1.7 0 0 Z " fill="#96D4EE" transform="translate(324,123)"/>
<path d="M0 0 C0 1.65 0 3.3 0 5 C-3.63 5 -7.26 5 -11 5 C-11 4.34 -11 3.68 -11 3 C-11.66 3 -12.32 3 -13 3 C-13.33 3.66 -13.66 4.32 -14 5 C-14 4.34 -14 3.68 -14 3 C-14.66 3 -15.32 3 -16 3 C-16 3.66 -16 4.32 -16 5 C-18.31 5 -20.62 5 -23 5 C-23 4.34 -23 3.68 -23 3 C-23.99 3 -24.98 3 -26 3 C-26.33 3.66 -26.66 4.32 -27 5 C-27 3.68 -27 2.36 -27 1 C-19.66666667 1 -12.33333333 1 -5 1 C-2 0 -2 0 0 0 Z " fill="#DEEA9D" transform="translate(94,115)"/>
<path d="M0 0 C0.33 1.65 0.66 3.3 1 5 C-1.35425885 5 -3.70873127 4.9855361 -6.0625 4.9375 C-9.06236237 4.85635633 -9.06236237 4.85635633 -12 6 C-15.74161103 6 -19.28953557 5.48661829 -23 5 C-23 3.68 -23 2.36 -23 1 C-21.48019531 1.01740234 -21.48019531 1.01740234 -19.9296875 1.03515625 C-18.57812686 1.04454209 -17.2265642 1.05364143 -15.875 1.0625 C-15.20984375 1.07087891 -14.5446875 1.07925781 -13.859375 1.08789062 C-9.159266 1.11093037 -4.63462466 0 0 0 Z " fill="#DFEBA0" transform="translate(78,124)"/>
<path d="M0 0 C2.64 0.33 5.28 0.66 8 1 C8.33 2.32 8.66 3.64 9 5 C6.35261084 6.4606285 5.10551666 7 2 7 C2.33 7.99 2.66 8.98 3 10 C2.01 10 1.02 10 0 10 C0 10.99 0 11.98 0 13 C-0.66 13 -1.32 13 -2 13 C-2 12.01 -2 11.02 -2 10 C-2.66 10 -3.32 10 -4 10 C-4 9.34 -4 8.68 -4 8 C-3.525625 7.566875 -3.05125 7.13375 -2.5625 6.6875 C-0.58616914 4.55306267 -0.38336764 2.83692053 0 0 Z " fill="#28A7DD" transform="translate(301,115)"/>
<path d="M0 0 C0.33 0 0.66 0 1 0 C1 1.98 1 3.96 1 6 C-0.258125 6.020625 -1.51625 6.04125 -2.8125 6.0625 C-3.52019531 6.07410156 -4.22789063 6.08570313 -4.95703125 6.09765625 C-7 6 -7 6 -10 5 C-12.63804589 5.39397335 -12.63804589 5.39397335 -15 6 C-15.33 5.01 -15.66 4.02 -16 3 C-16.66 3 -17.32 3 -18 3 C-18.33 3.66 -18.66 4.32 -19 5 C-19 4.01 -19 3.02 -19 2 C-12.73 2 -6.46 2 0 2 C0 1.34 0 0.68 0 0 Z " fill="#DCEA99" transform="translate(112,123)"/>
<path d="M0 0 C0.33 0.66 0.66 1.32 1 2 C4.96 2 8.92 2 13 2 C12.67 3.65 12.34 5.3 12 7 C10.02 7 8.04 7 6 7 C6 6.34 6 5.68 6 5 C5.2575 5.165 4.515 5.33 3.75 5.5 C1 6 1 6 -3 6 C-3 5.01 -3 4.02 -3 3 C-4.32 2.67 -5.64 2.34 -7 2 C-5.35 1.67 -3.7 1.34 -2 1 C-1.67 1.66 -1.34 2.32 -1 3 C-1.33 3.66 -1.66 4.32 -2 5 C-1.34 5 -0.68 5 0 5 C0 3.35 0 1.7 0 0 Z " fill="#D4EDF8" transform="translate(336,103)"/>
<path d="M0 0 C4.7641112 4.27548441 4.7641112 4.27548441 5.875 7.6875 C6 10 6 10 5 12 C3.02 12 1.04 12 -1 12 C-1 10.68 -1 9.36 -1 8 C-1.61998741 5.98504093 -2.27954236 3.9812585 -3 2 C-2.01 1.34 -1.02 0.68 0 0 Z " fill="#E1EAEB" transform="translate(233,338)"/>
<path d="M0 0 C5.94 0 11.88 0 18 0 C18 1.65 18 3.3 18 5 C16.00045254 5.04254356 13.99958364 5.04080783 12 5 C11.67 4.67 11.34 4.34 11 4 C9.66158328 4.31229724 8.32860925 4.64830932 7 5 C4.66666667 5 2.33333333 5 0 5 C0 3.35 0 1.7 0 0 Z " fill="#DFEBA1" transform="translate(114,124)"/>
<path d="M0 0 C0.99 0 1.98 0 3 0 C3 1.32 3 2.64 3 4 C-0.00854974 4.62969646 -2.40210329 5.12264548 -5.4375 4.5 C-8.79921973 3.84405469 -11.65190207 4.40915919 -15 5 C-15.33 3.68 -15.66 2.36 -16 1 C-12.04 1 -8.08 1 -4 1 C-4 1.66 -4 2.32 -4 3 C-3.34 3 -2.68 3 -2 3 C-1.67 2.34 -1.34 1.68 -1 1 C-0.67 0.67 -0.34 0.34 0 0 Z " fill="#DEEB9C" transform="translate(82,133)"/>
<path d="M0 0 C0 1.32 0 2.64 0 4 C-0.99 4 -1.98 4 -3 4 C-3 3.01 -3 2.02 -3 1 C-3.66 1 -4.32 1 -5 1 C-5 1.99 -5 2.98 -5 4 C-8.3 4.66 -11.6 5.32 -15 6 C-15 4.02 -15 2.04 -15 0 C-14.07767578 0.01740234 -14.07767578 0.01740234 -13.13671875 0.03515625 C-11.92435547 0.04869141 -11.92435547 0.04869141 -10.6875 0.0625 C-9.88699219 0.07410156 -9.08648437 0.08570312 -8.26171875 0.09765625 C-0.68807339 -0.2293578 -0.68807339 -0.2293578 0 0 Z " fill="#E8F1BB" transform="translate(130,105)"/>
<path d="M0 0 C0.33 0 0.66 0 1 0 C1 2.31 1 4.62 1 7 C-2.96 7 -6.92 7 -11 7 C-11 5.35 -11 3.7 -11 2 C-7.37 2 -3.74 2 0 2 C0 1.34 0 0.68 0 0 Z " fill="#D2CCE3" transform="translate(206,251)"/>
<path d="M0 0 C0.66 0.66 1.32 1.32 2 2 C4.58354218 2.16687448 4.58354218 2.16687448 7 2 C7 2.99 7 3.98 7 5 C1.29014022 5.74016701 -4.24186425 6.10469338 -10 6 C-9.67 4.68 -9.34 3.36 -9 2 C-6.03 2 -3.06 2 0 2 C0 1.34 0 0.68 0 0 Z " fill="#96D3EE" transform="translate(265,123)"/>
<path d="M0 0 C2.01495907 0.61998741 4.0187415 1.27954236 6 2 C5.6875 3.9375 5.6875 3.9375 5 6 C4.01 6.33 3.02 6.66 2 7 C2 6.34 2 5.68 2 5 C-0.64 5.33 -3.28 5.66 -6 6 C-6.33 4.68 -6.66 3.36 -7 2 C-4 0 -4 0 0 0 Z " fill="#D9E88F" transform="translate(123,132)"/>
<path d="M0 0 C0.66 0.66 1.32 1.32 2 2 C4.31 1.34 6.62 0.68 9 0 C9.33 1.98 9.66 3.96 10 6 C9.67 5.01 9.34 4.02 9 3 C8.34 3 7.68 3 7 3 C7 3.99 7 4.98 7 6 C3.42355152 7.2380014 0.66305234 6.74926071 -3 6 C-3 4.68 -3 3.36 -3 2 C-2.01 2 -1.02 2 0 2 C0 1.34 0 0.68 0 0 Z " fill="#B6E1F4" transform="translate(288,103)"/>
<path d="M0 0 C7.625 1.75 7.625 1.75 11 4 C10 6 10 6 8 7 C7.67 6.34 7.34 5.68 7 5 C6.01 5.99 5.02 6.98 4 8 C2.68 7.34 1.36 6.68 0 6 C0 4.02 0 2.04 0 0 Z M0 8 C0.99 8.495 0.99 8.495 2 9 C1.01 9.495 1.01 9.495 0 10 C0 9.34 0 8.68 0 8 Z " fill="#F0F6DC" transform="translate(342,284)"/>
<path d="M0 0 C2.31 0.66 4.62 1.32 7 2 C6.67 2.99 6.34 3.98 6 5 C3.4375 6.1875 3.4375 6.1875 1 7 C1 7.99 1 8.98 1 10 C0.01 10 -0.98 10 -2 10 C-2.66 9.01 -3.32 8.02 -4 7 C-2.79618552 4.50638429 -1.54571278 2.31856917 0 0 Z " fill="#EAF0DC" transform="translate(329,280)"/>
<path d="M0 0 C1.77049689 -0.05410687 3.54146849 -0.09284119 5.3125 -0.125 C6.29863281 -0.14820313 7.28476563 -0.17140625 8.30078125 -0.1953125 C11 0 11 0 14 2 C13.01 2.99 12.02 3.98 11 5 C10.01 4.67 9.02 4.34 8 4 C8 3.34 8 2.68 8 2 C7.34 2 6.68 2 6 2 C6 2.99 6 3.98 6 5 C4.02 5.33 2.04 5.66 0 6 C0 4.02 0 2.04 0 0 Z " fill="#CEC8E0" transform="translate(209,253)"/>
<path d="M0 0 C1.65 0.99 3.3 1.98 5 3 C4.65518813 5.58608905 4.36805155 6.70010614 2.3125 8.375 C-0.93323695 9.2522262 -2.95320938 8.24641434 -6 7 C-4.19587357 3.73539027 -3.16605307 2.11070205 0 0 Z " fill="#F3F8DF" transform="translate(359,281)"/>
<path d="M0 0 C5 0 10 0 15 0 C15.33 1.32 15.66 2.64 16 4 C10.72 4 5.44 4 0 4 C0 2.68 0 1.36 0 0 Z " fill="#B9AED2" transform="translate(155,273)"/>
<path d="M0 0 C1.051875 0.2475 1.051875 0.2475 2.125 0.5 C5.13888194 1.02415338 7.94713625 1.07099683 11 1 C10.67 2.32 10.34 3.64 10 5 C4.97874074 5.77916092 1.02296004 6.13016601 -4 5 C-3.67 3.68 -3.34 2.36 -3 1 C-2.34 1.99 -1.68 2.98 -1 4 C-0.67 2.68 -0.34 1.36 0 0 Z " fill="#8CD0ED" transform="translate(336,115)"/>
<path d="M0 0 C1.98 0 3.96 0 6 0 C6 0.66 6 1.32 6 2 C8.97 2 11.94 2 15 2 C14.67 3.65 14.34 5.3 14 7 C13.67 6.01 13.34 5.02 13 4 C12.401875 4.33 11.80375 4.66 11.1875 5 C7.63235284 6.62521013 4.69201219 5.79827291 1 5 C0.67 3.35 0.34 1.7 0 0 Z " fill="#B8ADD2" transform="translate(154,280)"/>
<path d="M0 0 C1.65 0.33 3.3 0.66 5 1 C5 2.65 5 4.3 5 6 C3.68 6 2.36 6 1 6 C1 7.32 1 8.64 1 10 C0.01 10.33 -0.98 10.66 -2 11 C-2.66 9.68 -3.32 8.36 -4 7 C-3.67 6.67 -3.34 6.34 -3 6 C-2.95936168 4.33382885 -2.957279 2.66611905 -3 1 C-2.34 1.99 -1.68 2.98 -1 4 C-0.67 2.68 -0.34 1.36 0 0 Z " fill="#5DBCE5" transform="translate(264,115)"/>
<path d="M0 0 C3.96 0.33 7.92 0.66 12 1 C12 2.32 12 3.64 12 5 C8.04 5 4.08 5 0 5 C0 3.35 0 1.7 0 0 Z " fill="#ACA0CB" transform="translate(189,272)"/>
<path d="M0 0 C0.66 0 1.32 0 2 0 C2 0.66 2 1.32 2 2 C3.32 2 4.64 2 6 2 C6.33 3.32 6.66 4.64 7 6 C5.01432292 5.96744792 3.02864583 5.93489583 1.04296875 5.90234375 C-1.20305461 5.91736783 -1.20305461 5.91736783 -4 7 C-4 5.35 -4 3.7 -4 2 C-2.68 2 -1.36 2 0 2 C0 1.34 0 0.68 0 0 Z " fill="#A496C5" transform="translate(222,280)"/>
<path d="M0 0 C0 1.65 0 3.3 0 5 C-0.66 4.67 -1.32 4.34 -2 4 C-2.33 4.33 -2.66 4.66 -3 5 C-3.99 5 -4.98 5 -6 5 C-7.67099977 5.31088368 -9.33871537 5.64080332 -11 6 C-11.33 4.35 -11.66 2.7 -12 1 C-7.915021 0.45533613 -4.1274515 0 0 0 Z " fill="#8ACFEC" transform="translate(320,133)"/>
<path d="M0 0 C0.66 0 1.32 0 2 0 C2 0.66 2 1.32 2 2 C5.3 2 8.6 2 12 2 C12 2.66 12 3.32 12 4 C7.95807022 6.69461986 5.7948504 6.23200889 1 6 C0 5 0 5 -0.0625 2.4375 C-0.041875 1.633125 -0.02125 0.82875 0 0 Z " fill="#8ED0ED" transform="translate(324,123)"/>
<path d="M0 0 C2.64 0 5.28 0 8 0 C8 0.66 8 1.32 8 2 C8.66 2 9.32 2 10 2 C10 1.34 10 0.68 10 0 C10.99 0 11.98 0 13 0 C13 1.32 13 2.64 13 4 C11.52093108 4.02689216 10.04172517 4.04634621 8.5625 4.0625 C7.32693359 4.07990234 7.32693359 4.07990234 6.06640625 4.09765625 C4 4 4 4 3 3 C2.67 3.66 2.34 4.32 2 5 C1.34 5 0.68 5 0 5 C0 3.35 0 1.7 0 0 Z " fill="#8ED0ED" transform="translate(309,125)"/>
<path d="M0 0 C4.51347752 2.32121701 7.10087768 4.90712143 10 9 C9.67 9.99 9.34 10.98 9 12 C7.125 11.3125 7.125 11.3125 5 10 C4.31246699 8.34183216 3.64438717 6.67540664 3 5 C2.01 4.67 1.02 4.34 0 4 C0 2.68 0 1.36 0 0 Z " fill="#E6EDD2" transform="translate(279,333)"/>
<path d="M0 0 C2.4808995 0.94274181 4.79283825 1.9317206 7.125 3.1875 C6.135 4.5075 5.145 5.8275 4.125 7.1875 C3.733125 6.671875 3.34125 6.15625 2.9375 5.625 C2.0403125 4.9134375 2.0403125 4.9134375 1.125 4.1875 C-1.52966049 4.41793864 -1.52966049 4.41793864 -3.875 5.1875 C-4.205 3.5375 -4.535 1.8875 -4.875 0.1875 C-2.875 -0.8125 -2.875 -0.8125 0 0 Z " fill="#E5ECD9" transform="translate(318.875,286.8125)"/>
<path d="M0 0 C0.66 0.66 1.32 1.32 2 2 C2.66 2 3.32 2 4 2 C4.33 1.34 4.66 0.68 5 0 C5 1.65 5 3.3 5 5 C1.25 6.125 1.25 6.125 -1 5 C-3.09821215 5.39938767 -3.09821215 5.39938767 -5 6 C-5.33 4.68 -5.66 3.36 -6 2 C-2.25 0 -2.25 0 0 0 Z " fill="#BCB2D5" transform="translate(211,280)"/>
<path d="M0 0 C0.66 0 1.32 0 2 0 C2 0.66 2 1.32 2 2 C3.32 2 4.64 2 6 2 C5.34 3.98 4.68 5.96 4 8 C2.68 7.34 1.36 6.68 0 6 C0 5.01 0 4.02 0 3 C-0.66 3 -1.32 3 -2 3 C-2 3.99 -2 4.98 -2 6 C-2.99 6 -3.98 6 -5 6 C-5 5.01 -5 4.02 -5 3 C-5.66 2.67 -6.32 2.34 -7 2 C-4.69 2 -2.38 2 0 2 C0 1.34 0 0.68 0 0 Z " fill="#C9E9F7" transform="translate(277,103)"/>
<path d="M0 0 C0.66 0 1.32 0 2 0 C3.72264494 3.29549466 5.29445932 6.33118845 6 10 C6.66 9.67 7.32 9.34 8 9 C7.25 10.9375 7.25 10.9375 6 13 C3.875 13.75 3.875 13.75 2 14 C1.01 12.35 0.02 10.7 -1 9 C-0.34 9 0.32 9 1 9 C1.33 9.66 1.66 10.32 2 11 C2.19622241 6.78121808 1.80230168 3.82989106 0 0 Z " fill="#465C73" transform="translate(182,131)"/>
<path d="M0 0 C0.99 0.495 0.99 0.495 2 1 C3.37342831 1.0689472 4.75002102 1.08467708 6.125 1.0625 C7.40375 1.041875 8.6825 1.02125 10 1 C10 1.99 10 2.98 10 4 C9.34 4 8.68 4 8 4 C8.33 4.99 8.66 5.98 9 7 C8.34 7 7.68 7 7 7 C6.34 6.34 5.68 5.68 5 5 C2.39719432 5.32041397 2.39719432 5.32041397 0 6 C0 4.02 0 2.04 0 0 Z " fill="#83CCEB" transform="translate(271,115)"/>
<path d="M0 0 C1.65 0 3.3 0 5 0 C5.33 2.31 5.66 4.62 6 7 C3.625 7.125 3.625 7.125 1 7 C0.34 6.34 -0.32 5.68 -1 5 C-0.625 2.375 -0.625 2.375 0 0 Z " fill="#82CCEB" transform="translate(259,103)"/>
<path d="M0 0 C0.33 0.66 0.66 1.32 1 2 C0.67 2.66 0.34 3.32 0 4 C-0.039992 5.99960012 -0.04346799 8.00047242 0 10 C0.99 9.34 1.98 8.68 3 8 C2.02617818 10.51570636 1.53848865 11.73944098 -0.9375 12.9375 C-3 13 -3 13 -4.75 11.5625 C-5.1625 11.046875 -5.575 10.53125 -6 10 C-5.67 9.34 -5.34 8.68 -5 8 C-4.67 8.33 -4.34 8.66 -4 9 C-3.79503906 8.43410156 -3.59007812 7.86820313 -3.37890625 7.28515625 C-3.10949219 6.55167969 -2.84007812 5.81820312 -2.5625 5.0625 C-2.29566406 4.33160156 -2.02882812 3.60070312 -1.75390625 2.84765625 C-1 1 -1 1 0 0 Z " fill="#465D74" transform="translate(216,132)"/>
<path d="M0 0 C0.33 0.99 0.66 1.98 1 3 C1.66 3 2.32 3 3 3 C2.67 3.66 2.34 4.32 2 5 C-1.83225427 5.08912219 -5.26562152 4.87867729 -9 4 C-9.33 3.01 -9.66 2.02 -10 1 C-6.7 0.67 -3.4 0.34 0 0 Z " fill="#94D2EE" transform="translate(331,133)"/>
<path d="M0 0 C0 1.65 0 3.3 0 5 C-1.65 5 -3.3 5 -5 5 C-5 4.34 -5 3.68 -5 3 C-5.66 3 -6.32 3 -7 3 C-7 3.66 -7 4.32 -7 5 C-8.32 5 -9.64 5 -11 5 C-11 3.68 -11 2.36 -11 1 C-8.98177083 1.03255208 -6.96354167 1.06510417 -4.9453125 1.09765625 C-3.0426929 1.00214322 -1.80150594 0 0 0 Z " fill="#92D2EE" transform="translate(300,132)"/>
<path d="M0 0 C0.721875 0.515625 1.44375 1.03125 2.1875 1.5625 C5.51983276 3.2656923 6.4913084 2.96489019 10 2 C11.6662553 1.9629721 13.33401319 1.95240038 15 2 C14.67 3.32 14.34 4.64 14 6 C13.113125 5.649375 12.22625 5.29875 11.3125 4.9375 C7.93796874 3.98244398 6.30313848 4.02848868 3 5 C3 4.34 3 3.68 3 3 C2.34 3 1.68 3 1 3 C0.67 3.66 0.34 4.32 0 5 C0 3.35 0 1.7 0 0 Z " fill="#E2EDA9" transform="translate(103,115)"/>
<path d="M0 0 C0.99 0.33 1.98 0.66 3 1 C3 1.99 3 2.98 3 4 C3.66 4 4.32 4 5 4 C5.33 2.68 5.66 1.36 6 0 C7.32 0 8.64 0 10 0 C10 1.65 10 3.3 10 5 C6.7 5 3.4 5 0 5 C0 3.35 0 1.7 0 0 Z " fill="#DDEA9A" transform="translate(131,115)"/>
<path d="M0 0 C0 1.65 0 3.3 0 5 C-3.3 5 -6.6 5 -10 5 C-10 3.68 -10 2.36 -10 1 C-2.25 0 -2.25 0 0 0 Z " fill="#B3A8CF" transform="translate(250,264)"/>
<path d="M0 0 C1.22589844 0.01353516 1.22589844 0.01353516 2.4765625 0.02734375 C3.41628906 0.04474609 3.41628906 0.04474609 4.375 0.0625 C4.375 1.3825 4.375 2.7025 4.375 4.0625 C-2.375 4.1875 -2.375 4.1875 -4.625 3.0625 C-4.955 3.7225 -5.285 4.3825 -5.625 5.0625 C-5.955 3.7425 -6.285 2.4225 -6.625 1.0625 C-4.21954362 -0.14022819 -2.67503047 -0.03821472 0 0 Z " fill="#B6ACD1" transform="translate(209.625,272.9375)"/>
<path d="M0 0 C0.33 0.66 0.66 1.32 1 2 C1.66 2 2.32 2 3 2 C2.67 2.99 2.34 3.98 2 5 C1.34 5 0.68 5 0 5 C0 5.66 0 6.32 0 7 C-2.31 7 -4.62 7 -7 7 C-6.34 6.67 -5.68 6.34 -5 6 C-5 5.34 -5 4.68 -5 4 C-5.66 3.34 -6.32 2.68 -7 2 C-4.69 2 -2.38 2 0 2 C0 1.34 0 0.68 0 0 Z " fill="#2EA9DE" transform="translate(297,118)"/>
<path d="M0 0 C2.31 0.66 4.62 1.32 7 2 C6.6875 3.9375 6.6875 3.9375 6 6 C5.01 6.33 4.02 6.66 3 7 C2.01 6.34 1.02 5.68 0 5 C-0.1875 2.375 -0.1875 2.375 0 0 Z " fill="#71C4E8" transform="translate(303,115)"/>
<path d="M0 0 C2.475 0.495 2.475 0.495 5 1 C5 3.31 5 5.62 5 8 C3.33333333 8 1.66666667 8 0 8 C0 5.36 0 2.72 0 0 Z " fill="#5894AB" transform="translate(179,178)"/>
<path d="M0 0 C0.33 0 0.66 0 1 0 C1 1.65 1 3.3 1 5 C-0.2065625 4.9690625 -0.2065625 4.9690625 -1.4375 4.9375 C-3.93354885 4.70366379 -3.93354885 4.70366379 -5 6 C-6.66617115 6.04063832 -8.33388095 6.042721 -10 6 C-9.34 4.68 -8.68 3.36 -8 2 C-7.05125 2.04125 -6.1025 2.0825 -5.125 2.125 C-1.89755144 2.34973818 -1.89755144 2.34973818 0 0 Z " fill="#BEB5D6" transform="translate(256,280)"/>
<path d="M0 0 C0.66 0 1.32 0 2 0 C2 0.66 2 1.32 2 2 C3.65 2 5.3 2 7 2 C7.33 3.32 7.66 4.64 8 6 C5.36 6 2.72 6 0 6 C0 4.02 0 2.04 0 0 Z " fill="#A79AC7" transform="translate(175,263)"/>
<path d="M0 0 C2.6875 0.3125 2.6875 0.3125 5 1 C4.67 2.65 4.34 4.3 4 6 C3.34 5.67 2.68 5.34 2 5 C-0.3329866 4.95977609 -2.66706666 4.95679753 -5 5 C-4.67 4.01 -4.34 3.02 -4 2 C-3.67 2.33 -3.34 2.66 -3 3 C-2.608125 2.484375 -2.21625 1.96875 -1.8125 1.4375 C-1.214375 0.963125 -0.61625 0.48875 0 0 Z " fill="#90D1ED" transform="translate(282,132)"/>
<path d="M0 0 C0.33 0.66 0.66 1.32 1 2 C2.670625 1.7215625 2.670625 1.7215625 4.375 1.4375 C8 1 8 1 10 2 C10 2.99 10 3.98 10 5 C6.7 5 3.4 5 0 5 C0 3.35 0 1.7 0 0 Z " fill="#E1ECA5" transform="translate(97,132)"/>
<path d="M0 0 C0.33 1.32 0.66 2.64 1 4 C-0.2065625 3.9690625 -0.2065625 3.9690625 -1.4375 3.9375 C-3.93354885 3.70366379 -3.93354885 3.70366379 -5 5 C-6.66617115 5.04063832 -8.33388095 5.042721 -10 5 C-9.67 3.68 -9.34 2.36 -9 1 C-7.88625 1.020625 -6.7725 1.04125 -5.625 1.0625 C-2.16784079 1.26380718 -2.16784079 1.26380718 0 0 Z " fill="#E1ECA6" transform="translate(90,124)"/>
<path d="M0 0 C2.31 0 4.62 0 7 0 C7 1.98 7 3.96 7 6 C4.61435923 5.42415568 2.33317216 4.77772405 0 4 C0 2.68 0 1.36 0 0 Z " fill="#B8ADD2" transform="translate(180,273)"/>
<path d="M0 0 C0.99 0.33 1.98 0.66 3 1 C3 2.65 3 4.3 3 6 C0.36 6 -2.28 6 -5 6 C-5 4.35 -5 2.7 -5 1 C-4.67 1.66 -4.34 2.32 -4 3 C-3.34 3.33 -2.68 3.66 -2 4 C-1.67 4.33 -1.34 4.66 -1 5 C-0.67 3.35 -0.34 1.7 0 0 Z " fill="#B7ACD2" transform="translate(166,263)"/>
<path d="M0 0 C2.31 0 4.62 0 7 0 C5.625 2.5 5.625 2.5 4 5 C3.34 5 2.68 5 2 5 C2 5.66 2 6.32 2 7 C1.34 7 0.68 7 0 7 C0 4.69 0 2.38 0 0 Z " fill="#C6BEDB" transform="translate(162,251)"/>
<path d="M0 0 C0.33 1.65 0.66 3.3 1 5 C-2 5 -5 5 -8 5 C-8 3.68 -8 2.36 -8 1 C-2.25 0 -2.25 0 0 0 Z " fill="#DBE994" transform="translate(78,124)"/>
<path d="M0 0 C1.65 0.33 3.3 0.66 5 1 C4.67 2.32 4.34 3.64 4 5 C1.69 5 -0.62 5 -3 5 C-3.33 3.68 -3.66 2.36 -4 1 C-1 2 -1 2 0 3 C0 2.01 0 1.02 0 0 Z " fill="#B2A7CF" transform="translate(199,281)"/>
<path d="M0 0 C2.97 0 5.94 0 9 0 C9 1.32 9 2.64 9 4 C6 4 3 4 0 4 C0 2.68 0 1.36 0 0 Z " fill="#BAB0D4" transform="translate(229,265)"/>
<path d="M0 0 C0 1.65 0 3.3 0 5 C-2.31 4.67 -4.62 4.34 -7 4 C-7 3.01 -7 2.02 -7 1 C-3.375 -1.125 -3.375 -1.125 0 0 Z " fill="#42738C" transform="translate(218,181)"/>
<path d="M0 0 C2.31 0 4.62 0 7 0 C7 0.99 7 1.98 7 3 C7.66 3.33 8.32 3.66 9 4 C6.03 4 3.06 4 0 4 C0 2.68 0 1.36 0 0 Z " fill="#B3A7CF" transform="translate(216,290)"/>
<path d="M0 0 C2.97 0 5.94 0 9 0 C9 0.99 9 1.98 9 3 C8.34 3 7.68 3 7 3 C6.67 3.66 6.34 4.32 6 5 C5.67 4.34 5.34 3.68 5 3 C3.68 3.33 2.36 3.66 1 4 C0.67 2.68 0.34 1.36 0 0 Z " fill="#BCB2D5" transform="translate(174,282)"/>
<path d="M0 0 C2.31 0 4.62 0 7 0 C7.33 1.65 7.66 3.3 8 5 C5.03 4.505 5.03 4.505 2 4 C2 3.34 2 2.68 2 2 C1.34 2 0.68 2 0 2 C-0.33 2.66 -0.66 3.32 -1 4 C-0.67 2.68 -0.34 1.36 0 0 Z " fill="#D8D2E6" transform="translate(243,253)"/>
<path d="M0 0 C2.64 0 5.28 0 8 0 C8.33 1.65 8.66 3.3 9 5 C7.35 4.67 5.7 4.34 4 4 C4 3.01 4 2.02 4 1 C3.34 1 2.68 1 2 1 C2 1.66 2 2.32 2 3 C1.34 3 0.68 3 0 3 C0 2.01 0 1.02 0 0 Z " fill="#98D4EF" transform="translate(291,125)"/>
<path d="M0 0 C0.66 0.33 1.32 0.66 2 1 C1.67 1.66 1.34 2.32 1 3 C1.928125 2.505 2.85625 2.01 3.8125 1.5 C7 0 7 0 10 0 C9.67 1.32 9.34 2.64 9 4 C6.03 4 3.06 4 0 4 C0 2.68 0 1.36 0 0 Z " fill="#BDB3D5" transform="translate(216,273)"/>
<path d="M0 0 C3.3 0 6.6 0 10 0 C10 1.32 10 2.64 10 4 C7.36 3.67 4.72 3.34 2 3 C2 2.34 2 1.68 2 1 C1.34 0.67 0.68 0.34 0 0 Z " fill="#B7ADD2" transform="translate(217,265)"/>
<path d="M0 0 C0.66 0 1.32 0 2 0 C2.33 1.65 2.66 3.3 3 5 C3.33 3.68 3.66 2.36 4 1 C4.99 1.33 5.98 1.66 7 2 C7 3.32 7 4.64 7 6 C4.36 6 1.72 6 -1 6 C-1 3 -1 3 0 0 Z " fill="#5FA0B6" transform="translate(220,180)"/>
<path d="M0 0 C0.99 0.33 1.98 0.66 3 1 C2.67 2.32 2.34 3.64 2 5 C2.66 5 3.32 5 4 5 C4 4.34 4 3.68 4 3 C4.66 3 5.32 3 6 3 C6 3.99 6 4.98 6 6 C3.36 6 0.72 6 -2 6 C-2 4.68 -2 3.36 -2 2 C-1.34 2 -0.68 2 0 2 C0 1.34 0 0.68 0 0 Z " fill="#79C8EA" transform="translate(289,123)"/>
<path d="M0 0 C2.31 0 4.62 0 7 0 C6.67 1.65 6.34 3.3 6 5 C4.02 5 2.04 5 0 5 C0 3.35 0 1.7 0 0 Z " fill="#AADCF1" transform="translate(342,105)"/>
<path d="M0 0 C2.375 0.1875 2.375 0.1875 5 1 C6.3125 3.5625 6.3125 3.5625 7 6 C5.35 4.68 3.7 3.36 2 2 C2 3.98 2 5.96 2 8 C1.34 6.68 0.68 5.36 0 4 C-0.99 4 -1.98 4 -3 4 C-2.01 2.68 -1.02 1.36 0 0 Z " fill="#334D65" transform="translate(198,220)"/>
<path d="M0 0 C1.65 0 3.3 0 5 0 C5 0.66 5 1.32 5 2 C4.01 2 3.02 2 2 2 C2 2.66 2 3.32 2 4 C2.66 4.33 3.32 4.66 4 5 C3.34 5 2.68 5 2 5 C2 5.66 2 6.32 2 7 C2.99 7.33 3.98 7.66 5 8 C3.35 8 1.7 8 0 8 C0 5.36 0 2.72 0 0 Z " fill="#5997AE" transform="translate(173,178)"/>
<path d="M0 0 C0.86625 0.5259375 0.86625 0.5259375 1.75 1.0625 C4.35801776 2.14917407 5.39417629 1.93065133 8 1 C8.33 1.99 8.66 2.98 9 4 C2.25 5 2.25 5 0 5 C0 3.35 0 1.7 0 0 Z " fill="#DFEBA0" transform="translate(86,132)"/>
<path d="M0 0 C1.98 0.66 3.96 1.32 6 2 C6 2.66 6 3.32 6 4 C6.66 4.33 7.32 4.66 8 5 C5.36 5 2.72 5 0 5 C0 3.35 0 1.7 0 0 Z " fill="#AFA3CC" transform="translate(249,272)"/>
<path d="M0 0 C3.96 0 7.92 0 12 0 C11 3 11 3 9 4 C9 3.34 9 2.68 9 2 C6.69 2.33 4.38 2.66 2 3 C2 2.34 2 1.68 2 1 C1.34 0.67 0.68 0.34 0 0 Z " fill="#C3BAD9" transform="translate(193,265)"/>
<path d="M0 0 C0 1.65 0 3.3 0 5 C-1.65 5.33 -3.3 5.66 -5 6 C-5.33 4.68 -5.66 3.36 -6 2 C-2.25 0 -2.25 0 0 0 Z " fill="#85CCEC" transform="translate(307,132)"/>
<path d="M0 0 C2.31 0.33 4.62 0.66 7 1 C7 1.99 7 2.98 7 4 C4.36 4.33 1.72 4.66 -1 5 C-0.67 3.35 -0.34 1.7 0 0 Z " fill="#95D3EE" transform="translate(326,105)"/>
<path d="M0 0 C2.31 0.66 4.62 1.32 7 2 C7 3.32 7 4.64 7 6 C4.69 5.67 2.38 5.34 0 5 C0 3.35 0 1.7 0 0 Z " fill="#DFEBA0" transform="translate(122,115)"/>
<path d="M0 0 C0.99 0.33 1.98 0.66 3 1 C2.34 2.32 1.68 3.64 1 5 C0.34 5 -0.32 5 -1 5 C-1.33 5.99 -1.66 6.98 -2 8 C-2.66 7.01 -3.32 6.02 -4 5 C-2.68 3.35 -1.36 1.7 0 0 Z " fill="#C9D3D0" transform="translate(267,291)"/>
<path d="M0 0 C0.66 0.66 1.32 1.32 2 2 C4.58354218 2.16687448 4.58354218 2.16687448 7 2 C7 2.99 7 3.98 7 5 C3.98968256 5.93423645 3.13349732 6.04449911 0 5 C0 3.35 0 1.7 0 0 Z " fill="#DFECA2" transform="translate(108,132)"/>
<path d="M0 0 C2.0625 0.4375 2.0625 0.4375 4 1 C3.67 2.32 3.34 3.64 3 5 C1.68 5.33 0.36 5.66 -1 6 C-1.042721 4.33388095 -1.04063832 2.66617115 -1 1 C-0.67 0.67 -0.34 0.34 0 0 Z " fill="#93D2EE" transform="translate(272,133)"/>
<path d="M0 0 C2 1 2 1 4 4 C3.01 4 2.02 4 1 4 C1.66 4.33 2.32 4.66 3 5 C3 5.66 3 6.32 3 7 C3.99 6.67 4.98 6.34 6 6 C6 6.66 6 7.32 6 8 C4.02 8 2.04 8 0 8 C0 6.35 0 4.7 0 3 C-0.66 2.67 -1.32 2.34 -2 2 C-1.34 2 -0.68 2 0 2 C0 1.34 0 0.68 0 0 Z " fill="#3DAFE0" transform="translate(320,130)"/>
<path d="M0 0 C0 1.65 0 3.3 0 5 C-1.65 5 -3.3 5 -5 5 C-5.33 3.68 -5.66 2.36 -6 1 C-3.92446352 0.4465236 -2.15634036 0 0 0 Z " fill="#8CCFED" transform="translate(307,124)"/>
<path d="M0 0 C0 1.65 0 3.3 0 5 C-1.98 5 -3.96 5 -6 5 C-5.6875 3.0625 -5.6875 3.0625 -5 1 C-2 0 -2 0 0 0 Z " fill="#DAE893" transform="translate(94,115)"/>
<path d="M0 0 C1.65 0 3.3 0 5 0 C5 0.99 5 1.98 5 3 C5.99 3.33 6.98 3.66 8 4 C5.69 4.33 3.38 4.66 1 5 C0.67 3.35 0.34 1.7 0 0 Z " fill="#EAF2C3" transform="translate(102,105)"/>
<path d="M0 0 C1.65 0.33 3.3 0.66 5 1 C4 4 4 4 1 6 C0.01 5.34 -0.98 4.68 -2 4 C-1.34 2.68 -0.68 1.36 0 0 Z " fill="#C8E2F0" transform="translate(159,302)"/>
<path d="M0 0 C1.65 0.33 3.3 0.66 5 1 C4.67 2.32 4.34 3.64 4 5 C2.125 5.625 2.125 5.625 0 6 C-0.66 5.34 -1.32 4.68 -2 4 C-1.34 2.68 -0.68 1.36 0 0 Z " fill="#6E56A3" transform="translate(205,276)"/>
<path d="M0 0 C2.05078125 0.03255208 4.1015625 0.06510417 6.15234375 0.09765625 C5.82234375 0.75765625 5.49234375 1.41765625 5.15234375 2.09765625 C4.16234375 1.76765625 3.17234375 1.43765625 2.15234375 1.09765625 C2.15234375 2.08765625 2.15234375 3.07765625 2.15234375 4.09765625 C-0.81765625 3.60265625 -0.81765625 3.60265625 -3.84765625 3.09765625 C-2.36122845 0.12480066 -2.36122845 0.12480066 0 0 Z " fill="#BEB5D6" transform="translate(203.84765625,289.90234375)"/>
<path d="M0 0 C2.97 0 5.94 0 9 0 C8.67 0.66 8.34 1.32 8 2 C7.34 2 6.68 2 6 2 C6 2.66 6 3.32 6 4 C5.38125 3.814375 4.7625 3.62875 4.125 3.4375 C1.95839822 2.76313824 1.95839822 2.76313824 0 4 C0 2.68 0 1.36 0 0 Z " fill="#BBB1D4" transform="translate(228,273)"/>
<path d="M0 0 C1.2065625 0.0309375 1.2065625 0.0309375 2.4375 0.0625 C2.4375 1.3825 2.4375 2.7025 2.4375 4.0625 C0.1275 4.0625 -2.1825 4.0625 -4.5625 4.0625 C-3.23463115 0.07889344 -3.23463115 0.07889344 0 0 Z " fill="#BCB3D5" transform="translate(198.5625,272.9375)"/>
<path d="M0 0 C0.78375 0.185625 1.5675 0.37125 2.375 0.5625 C4.97089775 1.25962266 4.97089775 1.25962266 7 0 C7 1.65 7 3.3 7 5 C6.34 5 5.68 5 5 5 C5 4.34 5 3.68 5 3 C3.35 3.66 1.7 4.32 0 5 C0 3.35 0 1.7 0 0 Z " fill="#BFB5D6" transform="translate(172,272)"/>
<path d="M0 0 C1.32 0 2.64 0 4 0 C4 1.98 4 3.96 4 6 C2.68 6 1.36 6 0 6 C0 4.02 0 2.04 0 0 Z " fill="#D7D2E6" transform="translate(189,253)"/>
<path d="M0 0 C1.65 0 3.3 0 5 0 C4.67 1.32 4.34 2.64 4 4 C3.01 4 2.02 4 1 4 C0.67 4.99 0.34 5.98 0 7 C0 4.69 0 2.38 0 0 Z " fill="#629CB5" transform="translate(186,179)"/>
<path d="M0 0 C0.66 0.66 1.32 1.32 2 2 C4.58354218 2.16687448 4.58354218 2.16687448 7 2 C7 2.99 7 3.98 7 5 C2.25 6.125 2.25 6.125 0 5 C0 3.35 0 1.7 0 0 Z " fill="#A3D9F1" transform="translate(265,123)"/>
<path d="M0 0 C2.375 -0.1875 2.375 -0.1875 5 0 C5.66 0.99 6.32 1.98 7 3 C5.02 3.99 5.02 3.99 3 5 C2.34 4.34 1.68 3.68 1 3 C0.01 3.495 0.01 3.495 -1 4 C-0.67 2.68 -0.34 1.36 0 0 Z " fill="#CFD8D2" transform="translate(273,295)"/>
<path d="M0 0 C0.33 0 0.66 0 1 0 C1 1.65 1 3.3 1 5 C-0.65 5.66 -2.3 6.32 -4 7 C-4 5.35 -4 3.7 -4 2 C-2.68 2 -1.36 2 0 2 C0 1.34 0 0.68 0 0 Z " fill="#B9AFD3" transform="translate(222,280)"/>
<path d="M0 0 C0.66 0 1.32 0 2 0 C2 0.66 2 1.32 2 2 C2.99 2 3.98 2 5 2 C4.67 3.32 4.34 4.64 4 6 C2.68 6 1.36 6 0 6 C0 4.02 0 2.04 0 0 Z " fill="#AEA2CC" transform="translate(243,271)"/>
<path d="M0 0 C1.65 0 3.3 0 5 0 C4.6875 1.9375 4.6875 1.9375 4 4 C3.01 4.33 2.02 4.66 1 5 C1 4.34 1 3.68 1 3 C0.34 3 -0.32 3 -1 3 C-0.67 2.01 -0.34 1.02 0 0 Z " fill="#DDEA9B" transform="translate(124,134)"/>
<path d="M0 0 C0.33 0.99 0.66 1.98 1 3 C0.01 3.99 -0.98 4.98 -2 6 C-2.99 5.67 -3.98 5.34 -5 5 C-5 4.01 -5 3.02 -5 2 C-3.35 1.34 -1.7 0.68 0 0 Z " fill="#DDEA9B" transform="translate(139,123)"/>
<path d="M0 0 C6.625 -0.25 6.625 -0.25 10 2 C9.67 3.32 9.34 4.64 9 6 C7.29159719 4.36587557 6.06546953 3.13093906 5 1 C3.35 1 1.7 1 0 1 C0 0.67 0 0.34 0 0 Z " fill="#B3BDD4" transform="translate(185,309)"/>
<path d="M0 0 C1.5625 1.8125 1.5625 1.8125 3 4 C2.67 4.99 2.34 5.98 2 7 C0.68 7 -0.64 7 -2 7 C-2.125 4.625 -2.125 4.625 -2 2 C-1.34 1.34 -0.68 0.68 0 0 Z " fill="#DCE4D4" transform="translate(303,292)"/>
<path d="M0 0 C1.98 0 3.96 0 6 0 C5.25 1.9375 5.25 1.9375 4 4 C1.875 4.75 1.875 4.75 0 5 C0 3.35 0 1.7 0 0 Z " fill="#BFB5D6" transform="translate(187,290)"/>
<path d="M0 0 C1.98 0 3.96 0 6 0 C5.67 0.99 5.34 1.98 5 3 C4.34 3 3.68 3 3 3 C3 3.66 3 4.32 3 5 C2.34 5 1.68 5 1 5 C0.67 3.35 0.34 1.7 0 0 Z " fill="#9BD5EF" transform="translate(308,134)"/>
<path d="M0 0 C2.31 0 4.62 0 7 0 C7 0.66 7 1.32 7 2 C5.35 2.66 3.7 3.32 2 4 C1.34 2.68 0.68 1.36 0 0 Z " fill="#76C6E9" transform="translate(329,125)"/>
<path d="M0 0 C0.66 0.33 1.32 0.66 2 1 C2.625 3.5625 2.625 3.5625 3 6 C2.67 5.01 2.34 4.02 2 3 C1.34 3 0.68 3 0 3 C-0.33 3.99 -0.66 4.98 -1 6 C-1 5.34 -1 4.68 -1 4 C-2.32 3.34 -3.64 2.68 -5 2 C-2.625 0.9375 -2.625 0.9375 0 0 Z " fill="#D8EFF9" transform="translate(295,103)"/>
<path d="M0 0 C1.98 0.495 1.98 0.495 4 1 C3.01 1.495 3.01 1.495 2 2 C2 3.98 2 5.96 2 8 C1.34 8 0.68 8 0 8 C0.33 6.35 0.66 4.7 1 3 C0.34 3 -0.32 3 -1 3 C-0.67 2.01 -0.34 1.02 0 0 Z " fill="#19A1DA" transform="translate(322,121)"/>
<path d="M0 0 C2.31 0 4.62 0 7 0 C6.67 0.99 6.34 1.98 6 3 C3.69 3 1.38 3 -1 3 C-0.67 2.01 -0.34 1.02 0 0 Z " fill="#1FA3DB" transform="translate(275,121)"/>
<path d="M0 0 C2.475 0.495 2.475 0.495 5 1 C5 1.99 5 2.98 5 4 C3.35 4 1.7 4 0 4 C0 2.68 0 1.36 0 0 Z " fill="#B0DEF3" transform="translate(313,105)"/>
<path d="M0 0 C0.66 0.66 1.32 1.32 2 2 C4.06874034 2.6425235 4.06874034 2.6425235 6 3 C5.01 3.66 4.02 4.32 3 5 C3.66 5.33 4.32 5.66 5 6 C3.35 6 1.7 6 0 6 C0 4.02 0 2.04 0 0 Z " fill="#D7EEF9" transform="translate(264,103)"/>
<path d="M0 0 C0.99 0.33 1.98 0.66 3 1 C2.01 1.33 1.02 1.66 0 2 C0 1.34 0 0.68 0 0 Z M-5 1 C-2.525 1.495 -2.525 1.495 0 2 C-0.33 2.99 -0.66 3.98 -1 5 C-2.32 4.34 -3.64 3.68 -5 3 C-5 2.34 -5 1.68 -5 1 Z " fill="#F0F6DB" transform="translate(276,352)"/>
<path d="M0 0 C1.32 0.33 2.64 0.66 4 1 C4.33 2.32 4.66 3.64 5 5 C3.35 5 1.7 5 0 5 C0 3.35 0 1.7 0 0 Z " fill="#DAE892" transform="translate(60,115)"/>
<path d="M0 0 C0.33 0.99 0.66 1.98 1 3 C0.67 3.66 0.34 4.32 0 5 C-1.65 5 -3.3 5 -5 5 C-5 3 -5 3 -3.625 1.375 C-2 0 -2 0 0 0 Z " fill="#9FD7F0" transform="translate(324,103)"/>
<path d="M0 0 C0 1.32 0 2.64 0 4 C-0.99 4 -1.98 4 -3 4 C-3 3.01 -3 2.02 -3 1 C-3.66 1 -4.32 1 -5 1 C-5.33 1.99 -5.66 2.98 -6 4 C-6 2.68 -6 1.36 -6 0 C-3 -1 -3 -1 0 0 Z " fill="#F2F7D9" transform="translate(130,105)"/>
<path d="M0 0 C0.66 0.66 1.32 1.32 2 2 C1.67 2.66 1.34 3.32 1 4 C1.66 4 2.32 4 3 4 C3.33 3.34 3.66 2.68 4 2 C4 2.99 4 3.98 4 5 C1.36 5 -1.28 5 -4 5 C-3.34 4.67 -2.68 4.34 -2 4 C-2 3.01 -2 2.02 -2 1 C-1.34 0.67 -0.68 0.34 0 0 Z " fill="#F6F9E5" transform="translate(88,104)"/>
<path d="M0 0 C0.99 0.33 1.98 0.66 3 1 C1.625 2.5 1.625 2.5 0 4 C-0.66 4 -1.32 4 -2 4 C-2.33 4.66 -2.66 5.32 -3 6 C-3.33 5.01 -3.66 4.02 -4 3 C-2.1875 1.4375 -2.1875 1.4375 0 0 Z " fill="#E5ECD2" transform="translate(320,302)"/>
<path d="M0 0 C0.99 0 1.98 0 3 0 C2.67 1.65 2.34 3.3 2 5 C1.01 4.67 0.02 4.34 -1 4 C-0.67 2.68 -0.34 1.36 0 0 Z " fill="#AB9EC9" transform="translate(206,281)"/>
<path d="M0 0 C0.33 0.66 0.66 1.32 1 2 C1.66 2 2.32 2 3 2 C3 2.99 3 3.98 3 5 C1.35 5 -0.3 5 -2 5 C-2 4.01 -2 3.02 -2 2 C-1.34 2 -0.68 2 0 2 C0 1.34 0 0.68 0 0 Z " fill="#B7ACD1" transform="translate(186,280)"/>
<path d="M0 0 C1.65 0.33 3.3 0.66 5 1 C4.01 2.32 3.02 3.64 2 5 C1.01 4.67 0.02 4.34 -1 4 C-0.67 2.68 -0.34 1.36 0 0 Z " fill="#DEDAEA" transform="translate(218,253)"/>
<path d="M0 0 C0.66 0 1.32 0 2 0 C2 1.65 2 3.3 2 5 C0.68 5 -0.64 5 -2 5 C-1.125 1.125 -1.125 1.125 0 0 Z " fill="#D9E78F" transform="translate(130,124)"/>
<path d="M0 0 C0.99 0 1.98 0 3 0 C3 0.66 3 1.32 3 2 C3.66 2 4.32 2 5 2 C5.33 1.34 5.66 0.68 6 0 C6 0.66 6 1.32 6 2 C6.66 2.33 7.32 2.66 8 3 C5.03 3 2.06 3 -1 3 C-0.67 2.01 -0.34 1.02 0 0 Z " fill="#CBDF65" transform="translate(68,118)"/>
</svg>
