<?xml version="1.0" encoding="UTF-8"?>
<svg version="1.1" xmlns="http://www.w3.org/2000/svg" width="400" height="400">
<path d="M0 0 C132 0 264 0 400 0 C400 132 400 264 400 400 C268 400 136 400 0 400 C0 268 0 136 0 0 Z " fill="#F2DAFD" transform="translate(0,0)"/>
<path d="M0 0 C19.47 0 38.94 0 59 0 C65.6875 11.625 65.6875 11.625 67.89306641 15.47192383 C71.17514149 21.18026637 74.4957918 26.84906247 77.9609375 32.44921875 C78.56848877 33.44034668 79.17604004 34.43147461 79.80200195 35.45263672 C80.95737182 37.32949188 82.12737824 39.19743127 83.31323242 41.05517578 C83.82990479 41.89935059 84.34657715 42.74352539 84.87890625 43.61328125 C85.3385376 44.34329346 85.79816895 45.07330566 86.27172852 45.82543945 C87 48 87 48 86.29614258 50.4753418 C85.03144657 52.93874759 83.75336955 55.37493582 82.3828125 57.78125 C81.86364258 58.69624268 81.34447266 59.61123535 80.80957031 60.55395508 C80.25366211 61.5261499 79.69775391 62.49834473 79.125 63.5 C78.55362305 64.50506592 77.98224609 65.51013184 77.39355469 66.5456543 C75.59940283 69.69922879 73.80041746 72.84999895 72 76 C71.41637695 77.02174316 70.83275391 78.04348633 70.23144531 79.09619141 C65.79192694 86.86723503 65.79192694 86.86723503 63.69580078 90.5234375 C63.22384277 91.34714844 62.75188477 92.17085938 62.265625 93.01953125 C61.85086914 93.74245361 61.43611328 94.46537598 61.00878906 95.21020508 C60.30676331 96.45574011 59.63940561 97.72118878 59 99 C51.66575333 99.51350471 44.33544898 99.90230984 36.9867754 100.13986778 C33.57166292 100.25403268 30.16894572 100.40798996 26.76098633 100.65966797 C4.91403093 102.23031962 4.91403093 102.23031962 -1.42907715 96.99523926 C-5.67730987 91.79454041 -8.32238466 85.93308288 -10.83694458 79.74737549 C-12.40517029 76.04290465 -14.42333372 72.75385182 -16.5859375 69.375 C-17.84952581 67.25033739 -19.11257254 65.12535256 -20.375 63 C-21.04015625 61.90945312 -21.7053125 60.81890625 -22.390625 59.6953125 C-23.01195312 58.64085937 -23.63328125 57.58640625 -24.2734375 56.5 C-24.82435059 55.5821875 -25.37526367 54.664375 -25.94287109 53.71875 C-27.25830509 50.33568464 -26.94388895 48.46958931 -26 45 C-24.69867065 42.48988028 -23.36358582 40.14279855 -21.875 37.75 C-20.97629844 36.26526977 -20.07928143 34.7795191 -19.18359375 33.29296875 C-18.68456543 32.46845215 -18.18553711 31.64393555 -17.67138672 30.79443359 C-14.70921934 25.84191127 -11.83664 20.83735228 -8.95831299 15.83581543 C-7.94542671 14.07626996 -6.93067742 12.31781049 -5.91552734 10.55957031 C-2.85242913 5.33702412 -2.85242913 5.33702412 0 0 Z " fill="#F34573" transform="translate(52,125)"/>
<path d="M0 0 C3.42377174 0.19603813 6.8502252 0.28147388 10.27801514 0.37689209 C16.97833615 0.58551738 23.66674061 0.90257815 30.35809326 1.30462646 C31.38413493 3.10019938 32.4101766 4.8957723 33.43621826 6.69134521 C33.92093094 7.53894661 33.92093094 7.53894661 34.41543579 8.40367126 C36.21001604 11.54241044 38.00144904 14.68287976 39.78729248 17.82659912 C43.18440294 23.79976444 46.60325387 29.75023263 50.16278076 35.62884521 C50.72706787 36.57348633 51.29135498 37.51812744 51.8727417 38.49139404 C52.92460318 40.2473138 53.99236984 41.99382967 55.07781982 43.72918701 C55.54413818 44.51462891 56.01045654 45.3000708 56.49090576 46.10931396 C56.90227783 46.77946533 57.3136499 47.4496167 57.73748779 48.14007568 C58.87896992 52.12134262 56.8502454 55.34886592 55.03631592 58.871521 C54.53664307 59.71827393 54.03697021 60.56502686 53.52215576 61.43743896 C52.95110107 62.41068115 52.38004639 63.38392334 51.79168701 64.38665771 C50.89643311 65.89292725 50.89643311 65.89292725 49.98309326 67.42962646 C49.4249292 68.37966553 48.86676514 69.32970459 48.29168701 70.30853271 C47.06311306 72.39412514 45.80185851 74.46067289 44.51556396 76.51116943 C42.76948218 79.40330559 41.49118972 82.34805465 40.22210693 85.47698975 C34.42332375 98.63942023 34.42332375 98.63942023 27.45147705 101.49523926 C20.13674863 103.19801879 12.86266517 103.23995217 5.38665771 103.02191162 C1.41736721 102.9295514 -2.50154233 103.0614366 -6.46807861 103.21478271 C-24.08931155 103.38171814 -24.08931155 103.38171814 -30.03115845 98.23516846 C-34.2242491 93.01567936 -36.91024834 87.18446446 -39.46353149 81.03186035 C-41.05832222 77.34087368 -43.0926334 74.0519504 -45.26300049 70.67962646 C-46.53555649 68.55487831 -47.80771104 66.42988964 -49.07940674 64.30462646 C-50.08970947 62.66880615 -50.08970947 62.66880615 -51.12042236 60.99993896 C-51.74497314 59.94548584 -52.36952393 58.89103271 -53.01300049 57.80462646 C-53.56915039 56.88681396 -54.12530029 55.96900146 -54.69830322 55.02337646 C-55.96799188 51.36509629 -55.21572426 49.79051906 -53.64190674 46.30462646 C-52.66247756 44.40916754 -51.6291556 42.54087364 -50.55206299 40.69915771 C-49.93137939 39.63116943 -49.3106958 38.56318115 -48.67120361 37.46282959 C-48.02216064 36.35874756 -47.37311768 35.25466553 -46.70440674 34.11712646 C-46.09016846 33.06331787 -45.47593018 32.00950928 -44.84307861 30.92376709 C-43.87312262 29.25971414 -42.90166612 27.59590358 -41.88298035 25.96122742 C-39.74586746 22.47811947 -38.14100218 19.08586574 -36.72808838 15.24627686 C-29.58556902 -2.44454269 -17.26389952 -1.0937416 0 0 Z " fill="#BF4BBB" transform="translate(198.64190673828125,175.69537353515625)"/>
<path d="M0 0 C2.70023255 0.10588507 5.39620191 0.10689127 8.09818745 0.10560989 C11.34046928 0.11348598 14.58002086 0.19871512 17.82110596 0.28234863 C19.02430984 0.2955011 20.22751373 0.30865356 21.46717834 0.32220459 C29.56775869 0.75879429 29.56775869 0.75879429 32.7015686 3.70118713 C34.27081017 6.00976853 35.50960792 8.31060835 36.70782471 10.82922363 C37.38275441 11.9795791 38.06660025 13.12478839 38.76251221 14.26257324 C39.36321533 15.32484131 39.96391846 16.38710937 40.58282471 17.48156738 C40.9152417 18.06660538 41.24765869 18.65164337 41.59014893 19.25440979 C42.63253581 21.09007745 43.67045601 22.92821631 44.70782471 24.76672363 C45.74267237 26.59542371 46.77851266 28.42354717 47.815979 30.25076294 C48.48909731 31.43787131 49.1598698 32.62631314 49.82818604 33.81613159 C52.2948547 38.18602647 54.95772177 42.39810598 57.77423096 46.5501709 C59.06546479 49.70228068 58.5893742 51.57110687 57.70782471 54.82922363 C56.51544189 57.36437988 56.51544189 57.36437988 55.00469971 59.89172363 C54.15005127 61.33805176 54.15005127 61.33805176 53.27813721 62.81359863 C52.67743408 63.80875488 52.07673096 64.80391113 51.45782471 65.82922363 C50.90352783 66.76250488 50.34923096 67.69578613 49.77813721 68.65734863 C48.53704098 70.74588942 47.26265643 72.81484266 45.96392822 74.86804199 C44.08984014 77.96277871 42.71845574 81.1368335 41.34039307 84.4798584 C34.81505155 99.16085531 34.81505155 99.16085531 27.73828125 102.03546143 C20.41884661 103.58627463 13.14023318 103.40162653 5.70367432 102.98327637 C1.75020341 102.76561584 -2.1789359 102.71679718 -6.13787842 102.69445801 C-8.65701424 102.63323676 -11.17594276 102.56260353 -13.69451904 102.48156738 C-14.86957504 102.45900375 -16.04463104 102.43644012 -17.2552948 102.41319275 C-25.1826874 101.90578062 -25.1826874 101.90578062 -28.3228302 98.85884094 C-29.87123188 96.57243507 -31.10799926 94.32058385 -32.29217529 91.82922363 C-33.05701171 90.47741162 -33.82794815 89.12900652 -34.60858154 87.78625488 C-35.3609065 86.40671628 -36.10948242 85.02512783 -36.85467529 83.64172363 C-39.73896555 78.3228872 -42.71432359 73.09315726 -45.89764404 67.94641113 C-46.50213379 66.96052002 -47.10662354 65.97462891 -47.72943115 64.9588623 C-48.92237373 63.02268035 -50.12990077 61.0953964 -51.35296631 59.17810059 C-51.89493652 58.29340088 -52.43690674 57.40870117 -52.99530029 56.49719238 C-53.48675537 55.71626221 -53.97821045 54.93533203 -54.48455811 54.1307373 C-55.29217529 51.82922363 -55.29217529 51.82922363 -54.62884521 49.38171387 C-53.20352207 46.65993241 -51.74714637 43.97764765 -50.20233154 41.32141113 C-49.27130615 39.71459473 -49.27130615 39.71459473 -48.32147217 38.07531738 C-47.6724292 36.96285645 -47.02338623 35.85039551 -46.35467529 34.70422363 C-45.74043701 33.64590332 -45.12619873 32.58758301 -44.49334717 31.49719238 C-43.5229738 29.82549923 -42.55113813 28.15407934 -41.53407288 26.51037598 C-39.4085844 23.023113 -37.79092507 19.61809464 -36.36517334 15.78625488 C-29.24016327 -1.70882136 -17.31811585 -0.84806696 0 0 Z " fill="#2486C8" transform="translate(316.29217529296875,123.1707763671875)"/>
<path d="M0 0 C2 1 2 1 4 3 C4.66 3.33 5.32 3.66 6 4 C6.99 4.66 7.98 5.32 9 6 C9 6.66 9 7.32 9 8 C9.763125 8.268125 10.52625 8.53625 11.3125 8.8125 C13.90881123 9.95970729 15.1250348 10.94646668 17 13 C17.66 13.33 18.32 13.66 19 14 C19.8971875 14.7115625 19.8971875 14.7115625 20.8125 15.4375 C22.91696352 17.0719026 22.91696352 17.0719026 25.28125 17.91015625 C28.21361777 19.08563126 30.91497132 20.48702391 33.6875 22 C34.64011719 22.515625 35.59273437 23.03125 36.57421875 23.5625 C39 25 39 25 41 27 C42.5159375 27.4640625 42.5159375 27.4640625 44.0625 27.9375 C45.5165625 28.4634375 45.5165625 28.4634375 47 29 C47.495 30.485 47.495 30.485 48 32 C48.99 32.495 48.99 32.495 50 33 C50.3403125 32.071875 50.3403125 32.071875 50.6875 31.125 C52.40962687 28.33679458 53.87800152 27.83760935 57 27 C60.71866485 28.23955495 62.32283886 30.18554854 65 33 C65.66 33.66 66.32 34.32 67 35 C66.01 36.32 65.02 37.64 64 39 C68.69938369 42.78561464 73.38326806 46.29501406 78.5 49.5 C87.6 55.2 87.6 55.2 89 58 C89.7425 58.268125 90.485 58.53625 91.25 58.8125 C94.65460315 60.28266954 96.45328088 62.32594492 99 65 C101.99376147 67.57796126 105.14079336 69.7728283 108.4375 71.9375 C112.19478295 74.41303425 115.6507993 76.99430707 119 80 C119 80.33 119 80.66 119 81 C79.73 81 40.46 81 0 81 C0 54.27 0 27.54 0 0 Z M57 31 C57.33 31.66 57.66 32.32 58 33 C58.33 32.34 58.66 31.68 59 31 C58.34 31 57.68 31 57 31 Z M59 33 C59 33.66 59 34.32 59 35 C59.66 34.67 60.32 34.34 61 34 C60.34 33.67 59.68 33.34 59 33 Z " fill="#F78DF3" transform="translate(0,319)"/>
<path d="M0 0 C3.88638872 1.55455549 5.90884993 2.52707994 9 5 C15.1797102 9.12928569 15.1797102 9.12928569 22 12 C22.99 11.67 23.98 11.34 25 11 C26.32 12.32 27.64 13.64 29 15 C28.34 15 27.68 15 27 15 C27.33 15.66 27.66 16.32 28 17 C28.763125 17.12375 29.52625 17.2475 30.3125 17.375 C33.63768596 18.14829906 34.69669446 19.5480941 37 22 C38.32222671 22.68843209 39.65686601 23.35330586 41 24 C42.23846289 24.75580712 43.46747189 25.52728275 44.6875 26.3125 C48.3753717 28.65367698 52.15661148 30.75162871 56.01953125 32.7890625 C58 34 58 34 61 37 C40.87 37 20.74 37 0 37 C0 24.79 0 12.58 0 0 Z " fill="#F575F1" transform="translate(0,363)"/>
<path d="M0 0 C2.7587207 1.21141428 4.85877825 2.85877825 7 5 C7.58791508 12.17256396 7.58791508 12.17256396 5.3125 15.375 C1.05647105 18.36572305 -3.21834119 19.34128326 -8.3125 20.125 C-9.38113281 20.29257813 -10.44976562 20.46015625 -11.55078125 20.6328125 C-12.35902344 20.75398438 -13.16726562 20.87515625 -14 21 C-13.95746094 20.22527344 -13.91492188 19.45054687 -13.87109375 18.65234375 C-13.73995285 15.80631786 -13.73995285 15.80631786 -16.0625 13.5625 C-18 11 -18 11 -18.0625 7.9375 C-15.12895015 -0.17290251 -7.524231 -0.87571448 0 0 Z " fill="#FAF2FA" transform="translate(205,191)"/>
<path d="M0 0 C3.3 0.66 6.6 1.32 10 2 C10.33 1.34 10.66 0.68 11 0 C14.875 1.75 14.875 1.75 16 4 C16.66 3.01 17.32 2.02 18 1 C18.99 1.33 19.98 1.66 21 2 C21 3.32 21 4.64 21 6 C20.01 6.33 19.02 6.66 18 7 C18 7.66 18 8.32 18 9 C18.66 9 19.32 9 20 9 C20 9.66 20 10.32 20 11 C21.32 11 22.64 11 24 11 C23.67 12.98 23.34 14.96 23 17 C21.10388566 16.85786703 19.20811606 16.71113093 17.3125 16.5625 C16.25675781 16.48128906 15.20101562 16.40007812 14.11328125 16.31640625 C11 16 11 16 8.23046875 15.4375 C5.73555477 14.94812983 4.41705554 15.32020313 2 16 C-2.56521739 16.2173913 -2.56521739 16.2173913 -5 15 C-5 14.01 -5 13.02 -5 12 C-5.66 12 -6.32 12 -7 12 C-7.33 12.99 -7.66 13.98 -8 15 C-8.33 13.68 -8.66 12.36 -9 11 C-8.195625 10.79375 -7.39125 10.5875 -6.5625 10.375 C-5.716875 9.92125 -4.87125 9.4675 -4 9 C-3.10169161 5.94727535 -3.10169161 5.94727535 -3 3 C-3.33 3.99 -3.66 4.98 -4 6 C-6.31 6 -8.62 6 -11 6 C-11.33 4.68 -11.66 3.36 -12 2 C-8.59437148 1.22157062 -5.49234244 0.90021879 -2 1 C-2 1.99 -2 2.98 -2 4 C-1.34 4 -0.68 4 0 4 C0 2.68 0 1.36 0 0 Z " fill="#F4507C" transform="translate(84,174)"/>
<path d="M0 0 C3 2.4375 3 2.4375 5 5 C5.33 5.33 5.66 5.66 6 6 C6.38387346 10.99035504 6.08713243 13.99816167 3 18 C-1.02314866 20.68209911 -4.27219919 20.68843415 -9 20 C-12.49890004 17.88608123 -13.70578686 16.88263941 -15 13 C-15.38887761 8.80012182 -15.45908323 6.70392762 -13.125 3.125 C-9.28552361 -0.71447639 -5.23053381 -0.84013755 0 0 Z " fill="#F6FAFD" transform="translate(323,139)"/>
<path d="M0 0 C2.01667393 2.56667591 3.58208437 5.06553114 5 8 C-1.06723148 11.16487796 -7.24004916 14.05336474 -13.5 16.8125 C-14.20640625 17.12646729 -14.9128125 17.44043457 -15.640625 17.76391602 C-20.75875901 20 -20.75875901 20 -23 20 C-25.04169485 17.09451118 -26 15.59857954 -26 12 C-22.23306487 10.32442019 -18.46084826 8.66108133 -14.6875 7 C-13.61564453 6.52304688 -12.54378906 6.04609375 -11.43945312 5.5546875 C-9.89741211 4.87792969 -9.89741211 4.87792969 -8.32421875 4.1875 C-7.37635498 3.76855469 -6.42849121 3.34960938 -5.4519043 2.91796875 C-3 2 -3 2 0 2 C0 1.34 0 0.68 0 0 Z " fill="#94C8F1" transform="translate(270,190)"/>
<path d="M0 0 C3.93966937 1.61977572 7.87634307 3.24670944 11.8125 4.875 C12.93205078 5.33519531 14.05160156 5.79539063 15.20507812 6.26953125 C16.27822266 6.71425781 17.35136719 7.15898437 18.45703125 7.6171875 C19.44678955 8.02565918 20.43654785 8.43413086 21.45629883 8.85498047 C24 10 24 10 27 12 C25.125 16.75 25.125 16.75 24 19 C17.48529224 16.94661139 11.21269971 14.50465317 4.9375 11.8125 C4.07189453 11.44447266 3.20628906 11.07644531 2.31445312 10.69726562 C0.20829117 9.80127408 -1.89647192 8.90215345 -4 8 C-2.87548273 5.0280615 -1.77706209 2.66559313 0 0 Z " fill="#95C8F1" transform="translate(129,191)"/>
<path d="M0 0 C0.66 0.33 1.32 0.66 2 1 C4.07174038 1.70329019 6.14444379 2.40196884 8.22265625 3.0859375 C10 4 10 4 11 7 C11.66 7.33 12.32 7.66 13 8 C13.226875 7.38125 13.45375 6.7625 13.6875 6.125 C15.40962687 3.33679458 16.87800152 2.83760935 20 2 C23.71866485 3.23955495 25.32283886 5.18554854 28 8 C28.66 8.66 29.32 9.32 30 10 C29.01 11.32 28.02 12.64 27 14 C27.99 15.32 28.98 16.64 30 18 C29.01 18.66 28.02 19.32 27 20 C26.38125 19.360625 25.7625 18.72125 25.125 18.0625 C23.17402388 15.96116416 23.17402388 15.96116416 21 15 C20.67 15.33 20.34 15.66 20 16 C19.34 15.34 18.68 14.68 18 14 C17.01 14.495 17.01 14.495 16 15 C15.34 14.01 14.68 13.02 14 12 C12.34183216 11.31246699 10.67540664 10.64438717 9 10 C8.33333333 8.66666667 7.66666667 7.33333333 7 6 C6.01 6.33 5.02 6.66 4 7 C3.34 6.34 2.68 5.68 2 5 C1.01 4.34 0.02 3.68 -1 3 C-0.67 2.01 -0.34 1.02 0 0 Z M20 6 C20.33 6.66 20.66 7.32 21 8 C21.33 7.34 21.66 6.68 22 6 C21.34 6 20.68 6 20 6 Z M22 8 C22 8.66 22 9.32 22 10 C22.66 9.67 23.32 9.34 24 9 C23.34 8.67 22.68 8.34 22 8 Z " fill="#F99BF5" transform="translate(37,344)"/>
<path d="M0 0 C0.99 0 1.98 0 3 0 C3.14953125 0.54269531 3.2990625 1.08539063 3.453125 1.64453125 C4.38532551 4.180665 5.23897045 5.93181414 7 8 C10.10111371 9.22101071 13.04004215 9.86025182 16.3203125 10.4296875 C19 11 19 11 21 13 C21 13.99 21 14.98 21 16 C16.05 16 11.1 16 6 16 C6 14.35 6 12.7 6 11 C5.38125 10.7525 4.7625 10.505 4.125 10.25 C1.5621636 8.74244918 0.95685553 7.79082862 0 5 C-0.125 2.25 -0.125 2.25 0 0 Z " fill="#FEF9FB" transform="translate(71,141)"/>
<path d="M0 0 C0 1.98 0 3.96 0 6 C-3.66666667 6 -7.33333333 6 -11 6 C-11.969375 6.165 -12.93875 6.33 -13.9375 6.5 C-18.62399619 7.26514223 -21.56559 6.57667911 -26 5 C-25.67 3.68 -25.34 2.36 -25 1 C-24.11477661 1.00785522 -24.11477661 1.00785522 -23.21166992 1.01586914 C-20.53695745 1.03666047 -17.86226199 1.04966701 -15.1875 1.0625 C-13.7943457 1.07506836 -13.7943457 1.07506836 -12.37304688 1.08789062 C-11.48037109 1.09111328 -10.58769531 1.09433594 -9.66796875 1.09765625 C-8.84578857 1.10289307 -8.0236084 1.10812988 -7.17651367 1.11352539 C-4.63046874 0.98072551 -2.54679066 0 0 0 Z " fill="#ACCFEB" transform="translate(322,184)"/>
<path d="M0 0 C0.33 0.66 0.66 1.32 1 2 C13.66398934 2.39079874 13.66398934 2.39079874 26 0 C26 0.66 26 1.32 26 2 C27.32 2 28.64 2 30 2 C29.34 3.98 28.68 5.96 28 8 C27.34 7.67 26.68 7.34 26 7 C24.67139075 6.64830932 23.33841672 6.31229724 22 6 C22 5.01 22 4.02 22 3 C21.67 3.99 21.34 4.98 21 6 C14.07 6 7.14 6 0 6 C0 4.02 0 2.04 0 0 Z " fill="#ECC5EA" transform="translate(193,236)"/>
<path d="M0 0 C2.00720923 0.28674418 4.0085944 0.61866701 6 1 C5.34 2.98 4.68 4.96 4 7 C3.34 6.67 2.68 6.34 2 6 C-2.40797121 4.53067626 -7.10986683 4.22456075 -11.4375 6 C-11.953125 6.33 -12.46875 6.66 -13 7 C-13.33 6.34 -13.66 5.68 -14 5 C-14.99 5 -15.98 5 -17 5 C-17 3.68 -17 2.36 -17 1 C-15.85660156 1.01160156 -14.71320313 1.02320313 -13.53515625 1.03515625 C-12.04427246 1.04453288 -10.55338691 1.05363321 -9.0625 1.0625 C-8.30775391 1.07087891 -7.55300781 1.07925781 -6.77539062 1.08789062 C-4.85005687 1.09652441 -2.92464419 1.05224333 -1 1 C-0.67 0.67 -0.34 0.34 0 0 Z " fill="#EBC5EA" transform="translate(232,227)"/>
<path d="M0 0 C1.670625 0.2475 1.670625 0.2475 3.375 0.5 C6.72032033 1.0455458 6.72032033 1.0455458 9 1 C13 1 17 1 21 1 C21 2.65 21 4.3 21 6 C15.66666667 6 10.33333333 6 5 6 C5 5.01 5 4.02 5 3 C4.34 3 3.68 3 3 3 C3 3.99 3 4.98 3 6 C2.01 6 1.02 6 0 6 C0 4.02 0 2.04 0 0 Z " fill="#A9CEEA" transform="translate(281,174)"/>
<path d="M0 0 C0.33 0.66 0.66 1.32 1 2 C-0.231394 5.69418201 -2.20791354 7.35109746 -5 10 C-4.38125 10.268125 -3.7625 10.53625 -3.125 10.8125 C-1 12 -1 12 1 15 C0.01 15.99 -0.98 16.98 -2 18 C-2.598125 17.690625 -3.19625 17.38125 -3.8125 17.0625 C-6.08956772 15.89790296 -6.08956772 15.89790296 -9 15 C-9.74778098 12.30798849 -10.1508614 10.5280149 -9.375 7.8125 C-7.57672795 5.44205048 -5.74116617 5.06972338 -3 4 C-1.19651922 1.98682781 -1.19651922 1.98682781 0 0 Z " fill="#EDC7FB" transform="translate(227,360)"/>
<path d="M0 0 C3.60457056 0.60964045 3.60457056 0.60964045 5.9375 0.5625 C6.9275 0.5625 7.9175 0.5625 8.9375 0.5625 C8.9375 2.2125 8.9375 3.8625 8.9375 5.5625 C3.9875 5.5625 -0.9625 5.5625 -6.0625 5.5625 C-6.3925 3.9125 -6.7225 2.2625 -7.0625 0.5625 C-4.08472003 -0.43009332 -2.98334236 -0.45168361 0 0 Z " fill="#B4D5ED" transform="translate(311.0625,174.4375)"/>
<path d="M0 0 C-0.33 1.98 -0.66 3.96 -1 6 C-2.93784265 5.85879286 -4.87526955 5.71187127 -6.8125 5.5625 C-7.89144531 5.48128906 -8.97039062 5.40007812 -10.08203125 5.31640625 C-13 5 -13 5 -16 4 C-15.67 2.68 -15.34 1.36 -15 0 C-14.34 0.33 -13.68 0.66 -13 1 C-13.33 1.33 -13.66 1.66 -14 2 C-13.34 2.33 -12.68 2.66 -12 3 C-11.67 2.01 -11.34 1.02 -11 0 C-6.94952424 -1.35015859 -4.2079832 -0.62084998 0 0 Z " fill="#F9B2C7" transform="translate(108,185)"/>
<path d="M0 0 C2.475 0.99 2.475 0.99 5 2 C4.61479436 4.53910197 4.29902057 5.72751123 2.37109375 7.484375 C1.73300781 7.90203125 1.09492188 8.3196875 0.4375 8.75 C-0.20316406 9.17796875 -0.84382812 9.6059375 -1.50390625 10.046875 C-2.24447266 10.51867187 -2.24447266 10.51867187 -3 11 C-4.32 10.34 -5.64 9.68 -7 9 C-5.7260411 6.96166576 -4.38938077 4.96147874 -3 3 C-2.34 3 -1.68 3 -1 3 C-0.67 2.01 -0.34 1.02 0 0 Z " fill="#F2C1FA" transform="translate(197,372)"/>
<path d="M0 0 C1.16789062 0.17144531 2.33578125 0.34289062 3.5390625 0.51953125 C4.47492188 0.73996094 5.41078125 0.96039063 6.375 1.1875 C6.705 1.8475 7.035 2.5075 7.375 3.1875 C6.715 3.8475 6.055 4.5075 5.375 5.1875 C4.715 5.1875 4.055 5.1875 3.375 5.1875 C3.375 4.5275 3.375 3.8675 3.375 3.1875 C2.715 3.1875 2.055 3.1875 1.375 3.1875 C1.375 3.8475 1.375 4.5075 1.375 5.1875 C-2.585 5.1875 -6.545 5.1875 -10.625 5.1875 C-10.295 3.5375 -9.965 1.8875 -9.625 0.1875 C-5.98741652 -1.02502783 -3.77379102 -0.58154873 0 0 Z " fill="#B1D2EC" transform="translate(348.625,174.8125)"/>
<path d="M0 0 C0.639375 0.144375 1.27875 0.28875 1.9375 0.4375 C6.2920769 1.23732025 10.58495715 1.07715609 15 1 C14.67 2.32 14.34 3.64 14 5 C9.38 5 4.76 5 0 5 C-0.33 3.68 -0.66 2.36 -1 1 C-0.67 0.67 -0.34 0.34 0 0 Z " fill="#E8BBE6" transform="translate(163,227)"/>
<path d="M0 0 C1.93014613 0.26622705 3.86015542 0.53353299 5.7890625 0.80859375 C9.01035165 1.08746861 11.83029855 0.59431902 15 0 C15 1.65 15 3.3 15 5 C10.6835078 5.76173392 7.25566547 6.16063604 3 5 C3 4.01 3 3.02 3 2 C2.34 2 1.68 2 1 2 C0.67 2.99 0.34 3.98 0 5 C-0.5625 3.0625 -0.5625 3.0625 -1 1 C-0.67 0.67 -0.34 0.34 0 0 Z " fill="#FABBCE" transform="translate(76,184)"/>
<path d="M0 0 C2.475 0.99 2.475 0.99 5 2 C4.34 3.98 3.68 5.96 3 8 C2.34 8 1.68 8 1 8 C0.34 7.34 -0.32 6.68 -1 6 C-4.08347826 5.83318891 -4.08347826 5.83318891 -7 6 C-7.33 4.68 -7.66 3.36 -8 2 C-2.25 0.875 -2.25 0.875 0 2 C0 1.34 0 0.68 0 0 Z " fill="#FABFD1" transform="translate(94,174)"/>
<path d="M0 0 C2.5625 0.1875 2.5625 0.1875 4.5625 2.1875 C4.1875 4.8125 4.1875 4.8125 3.5625 7.1875 C1.1875 7.8125 1.1875 7.8125 -1.4375 8.1875 C-3.4375 6.1875 -3.4375 6.1875 -3.625 3.625 C-3.37291261 0.34786389 -3.27713611 0.25208739 0 0 Z " fill="#FEF3F6" transform="translate(83.4375,140.8125)"/>
<path d="M0 0 C0.33 0 0.66 0 1 0 C1 1.98 1 3.96 1 6 C-0.32 6 -1.64 6 -3 6 C-3 5.01 -3 4.02 -3 3 C-3.33 3.99 -3.66 4.98 -4 6 C-6.31 6 -8.62 6 -11 6 C-11.33 4.68 -11.66 3.36 -12 2 C-8.59437148 1.22157062 -5.49234244 0.90021879 -2 1 C-2 1.99 -2 2.98 -2 4 C-1.34 4 -0.68 4 0 4 C0 2.68 0 1.36 0 0 Z " fill="#FABED0" transform="translate(84,174)"/>
<path d="M0 0 C0.33 1.32 0.66 2.64 1 4 C0.01 4.33 -0.98 4.66 -2 5 C-2 5.66 -2 6.32 -2 7 C-5.20380017 9.13586678 -6.01939967 9.23132175 -9.6875 9.125 C-10.89986328 9.09792969 -10.89986328 9.09792969 -12.13671875 9.0703125 C-13.05904297 9.03550781 -13.05904297 9.03550781 -14 9 C-9.375 5 -9.375 5 -6 5 C-5.62875 4.0409375 -5.62875 4.0409375 -5.25 3.0625 C-4 1 -4 1 -1.875 0.25 C-1.25625 0.1675 -0.6375 0.085 0 0 Z " fill="#E5B9FB" transform="translate(233,391)"/>
<path d="M0 0 C0.66 0 1.32 0 2 0 C2.33 0.66 2.66 1.32 3 2 C3.99 2.33 4.98 2.66 6 3 C5.34 3 4.68 3 4 3 C4 3.66 4 4.32 4 5 C4.66 5 5.32 5 6 5 C6 5.66 6 6.32 6 7 C2.7 7 -0.6 7 -4 7 C-4 5.35 -4 3.7 -4 2 C-2.68 2 -1.36 2 0 2 C0 1.34 0 0.68 0 0 Z " fill="#E0A5DE" transform="translate(195,226)"/>
<path d="M0 0 C0 0.99 0 1.98 0 3 C-3.63 3 -7.26 3 -11 3 C-11 1.68 -11 0.36 -11 -1 C-6.99799622 -2.60080151 -3.95443764 -1.29279692 0 0 Z " fill="#E9BFE8" transform="translate(213,229)"/>
<path d="M0 0 C4.02992782 0.55312735 8.02022924 1.1558062 12 2 C12 2.99 12 3.98 12 5 C9.50935112 5.68707555 7.62113708 6 5 6 C5 5.01 5 4.02 5 3 C4.34 3 3.68 3 3 3 C3 3.99 3 4.98 3 6 C2.01 6 1.02 6 0 6 C0 4.02 0 2.04 0 0 Z " fill="#B4D4ED" transform="translate(281,174)"/>
<path d="M0 0 C1.23556641 0.01740234 1.23556641 0.01740234 2.49609375 0.03515625 C3.32238281 0.04417969 4.14867187 0.05320313 5 0.0625 C5.63808594 0.07410156 6.27617188 0.08570313 6.93359375 0.09765625 C7.26359375 1.41765625 7.59359375 2.73765625 7.93359375 4.09765625 C7.60359375 3.43765625 7.27359375 2.77765625 6.93359375 2.09765625 C6.27359375 2.09765625 5.61359375 2.09765625 4.93359375 2.09765625 C4.60359375 2.75765625 4.27359375 3.41765625 3.93359375 4.09765625 C2.93359375 5.09765625 2.93359375 5.09765625 0.37109375 5.16015625 C-0.83546875 5.12921875 -0.83546875 5.12921875 -2.06640625 5.09765625 C-2.62890625 3.16015625 -2.62890625 3.16015625 -3.06640625 1.09765625 C-2.06640625 0.09765625 -2.06640625 0.09765625 0 0 Z " fill="#FAACC3" transform="translate(58.06640625,184.90234375)"/>
<path d="M0 0 C4.455 2.97 4.455 2.97 9 6 C8.67 7.65 8.34 9.3 8 11 C7.01 11.495 7.01 11.495 6 12 C6 11.34 6 10.68 6 10 C5.01 10.33 4.02 10.66 3 11 C2.87625 9.9275 2.7525 8.855 2.625 7.75 C2.1608282 3.83151332 2.1608282 3.83151332 0 0 Z " fill="#F1A7F7" transform="translate(10,303)"/>
<path d="M0 0 C2.31 0 4.62 0 7 0 C7.33 1.65 7.66 3.3 8 5 C5.36 5.33 2.72 5.66 0 6 C0 4.02 0 2.04 0 0 Z " fill="#FAC0D1" transform="translate(67,185)"/>
<path d="M0 0 C0 1.98 0 3.96 0 6 C-2.64 6 -5.28 6 -8 6 C-8 4.35 -8 2.7 -8 1 C-1.125 0 -1.125 0 0 0 Z " fill="#FABED0" transform="translate(114,174)"/>
<path d="M0 0 C0 1.98 0 3.96 0 6 C-1.65 6 -3.3 6 -5 6 C-5 5.01 -5 4.02 -5 3 C-5.66 3 -6.32 3 -7 3 C-7.33 3.99 -7.66 4.98 -8 6 C-8 4.35 -8 2.7 -8 1 C-1.125 0 -1.125 0 0 0 Z " fill="#B8D6EE" transform="translate(335,174)"/>
<path d="M0 0 C3.63 0 7.26 0 11 0 C11 1.32 11 2.64 11 4 C8.36 4 5.72 4 3 4 C3 3.01 3 2.02 3 1 C2.34 1 1.68 1 1 1 C0.67 1.99 0.34 2.98 0 4 C0 2.68 0 1.36 0 0 Z " fill="#EFCFEE" transform="translate(179,228)"/>
<path d="M0 0 C2.31 0 4.62 0 7 0 C6.67 1.32 6.34 2.64 6 4 C2.98968256 4.93423645 2.13349732 5.04449911 -1 4 C-0.67 2.68 -0.34 1.36 0 0 Z " fill="#B1D1EC" transform="translate(333,185)"/>
<path d="M0 0 C0.66 1.98 1.32 3.96 2 6 C0.02 6 -1.96 6 -4 6 C-4.33 4.35 -4.66 2.7 -5 1 C-2 0 -2 0 0 0 Z " fill="#95C3E6" transform="translate(309,174)"/>
<path d="M0 0 C1.98 0 3.96 0 6 0 C6.33 1.65 6.66 3.3 7 5 C6.67 4.01 6.34 3.02 6 2 C5.34 2 4.68 2 4 2 C3.67 2.99 3.34 3.98 3 5 C1.68 4.67 0.36 4.34 -1 4 C-0.67 2.68 -0.34 1.36 0 0 Z " fill="#FBC4D4" transform="translate(63,175)"/>
<path d="M0 0 C0.33 0 0.66 0 1 0 C1 1.98 1 3.96 1 6 C-1.64 6 -4.28 6 -7 6 C-7 4.68 -7 3.36 -7 2 C-4.69 2 -2.38 2 0 2 C0 1.34 0 0.68 0 0 Z " fill="#EECEED" transform="translate(189,236)"/>
<path d="M0 0 C0.66 0.33 1.32 0.66 2 1 C1.67 1.33 1.34 1.66 1 2 C1.66 2.33 2.32 2.66 3 3 C3.33 2.01 3.66 1.02 4 0 C4.99 0.33 5.98 0.66 7 1 C7 2.32 7 3.64 7 5 C4.69 5 2.38 5 0 5 C-0.5625 3.0625 -0.5625 3.0625 -1 1 C-0.67 0.67 -0.34 0.34 0 0 Z " fill="#FBC3D3" transform="translate(93,185)"/>
<path d="M0 0 C2.64 0.33 5.28 0.66 8 1 C7.34 2.32 6.68 3.64 6 5 C5.34 5 4.68 5 4 5 C4 4.34 4 3.68 4 3 C3.34 3 2.68 3 2 3 C2 3.66 2 4.32 2 5 C1.01 5 0.02 5 -1 5 C-0.67 3.35 -0.34 1.7 0 0 Z " fill="#C3DDF1" transform="translate(348,175)"/>
<path d="M0 0 C0.66 0.33 1.32 0.66 2 1 C1.38722388 3.96175123 0.74627478 5.38058783 -1 8 C-1.66 8 -2.32 8 -3 8 C-3 5.69 -3 3.38 -3 1 C-2.01 0.67 -1.02 0.34 0 0 Z " fill="#EDB2F9" transform="translate(3,277)"/>
<path d="M0 0 C0.33 0.66 0.66 1.32 1 2 C4.02934491 2.65772428 4.02934491 2.65772428 7 3 C7 3.66 7 4.32 7 5 C4.69 5.33 2.38 5.66 0 6 C0 4.02 0 2.04 0 0 Z " fill="#E4B1E2" transform="translate(193,236)"/>
<path d="M0 0 C1.65 0 3.3 0 5 0 C5 1.65 5 3.3 5 5 C3.02 5 1.04 5 -1 5 C-0.67 3.35 -0.34 1.7 0 0 Z " fill="#FBC4D5" transform="translate(56,175)"/>
<path d="M0 0 C0.66 0.33 1.32 0.66 2 1 C2 1.66 2 2.32 2 3 C1.34 3 0.68 3 0 3 C-0.33 3.99 -0.66 4.98 -1 6 C-2.65 6.33 -4.3 6.66 -6 7 C-4.02 4.69 -2.04 2.38 0 0 Z " fill="#E1BEFC" transform="translate(258,375)"/>
<path d="M0 0 C5.75 2.75 5.75 2.75 8 5 C7.34 5.66 6.68 6.32 6 7 C3.69 5.35 1.38 3.7 -1 2 C-0.67 1.34 -0.34 0.68 0 0 Z " fill="#F499F5" transform="translate(24,336)"/>
<path d="M0 0 C0.66 0 1.32 0 2 0 C2.28875 0.969375 2.5775 1.93875 2.875 2.9375 C3.64214682 6.10664203 3.64214682 6.10664203 6 7 C6 7.66 6 8.32 6 9 C1.125 7.125 1.125 7.125 0 6 C-0.04080783 4.00041636 -0.04254356 1.99954746 0 0 Z " fill="#489AD2" transform="translate(317,144)"/>
<path d="M0 0 C2.64 1.65 5.28 3.3 8 5 C7.34 5.66 6.68 6.32 6 7 C4 6.8125 4 6.8125 2 6 C0 3 0 3 0 0 Z " fill="#FB99F4" transform="translate(73,365)"/>
<path d="M0 0 C0.66 0.99 1.32 1.98 2 3 C1.67 3.99 1.34 4.98 1 6 C0.01 6.33 -0.98 6.66 -2 7 C-3 4 -3 4 -2 1 C-1.34 0.67 -0.68 0.34 0 0 Z " fill="#F2C1FA" transform="translate(19,262)"/>
<path d="M0 0 C2.00720923 0.28674418 4.0085944 0.61866701 6 1 C5.67 2.32 5.34 3.64 5 5 C4.34 5 3.68 5 3 5 C3 4.01 3 3.02 3 2 C2.34 2 1.68 2 1 2 C0.67 2.99 0.34 3.98 0 5 C-0.5625 3.0625 -0.5625 3.0625 -1 1 C-0.67 0.67 -0.34 0.34 0 0 Z " fill="#FBD1DF" transform="translate(76,184)"/>
<path d="M0 0 C1.32 0.33 2.64 0.66 4 1 C3.34 2.98 2.68 4.96 2 7 C1.34 7 0.68 7 0 7 C0 4.69 0 2.38 0 0 Z " fill="#F9ACC3" transform="translate(95,175)"/>
<path d="M0 0 C2.88575819 0.39803561 3.82189513 0.79009069 5.75 3.0625 C6.1625 3.701875 6.575 4.34125 7 5 C3.47967572 5 2.5614657 4.29648649 0 2 C0 1.34 0 0.68 0 0 Z " fill="#FC99F5" transform="translate(109,393)"/>
<path d="M0 0 C2.78489278 1.39244639 4.12301529 3.55991988 6 6 C5.34 6.66 4.68 7.32 4 8 C2.5 6.625 2.5 6.625 1 5 C1 4.34 1 3.68 1 3 C0.34 2.67 -0.32 2.34 -1 2 C-0.67 1.34 -0.34 0.68 0 0 Z " fill="#EFA9F8" transform="translate(4,296)"/>
<path d="M0 0 C0.66 0 1.32 0 2 0 C3.25664978 2.90600261 4 4.79604584 4 8 C2.68 7.34 1.36 6.68 0 6 C0 4 0 2 0 0 Z " fill="#F55D86" transform="translate(78,143)"/>
<path d="M0 0 C0.66 0 1.32 0 2 0 C2 1.98 2 3.96 2 6 C1.34 6 0.68 6 0 6 C0 5.34 0 4.68 0 4 C-0.66 4 -1.32 4 -2 4 C-1.34 2.68 -0.68 1.36 0 0 Z " fill="#87BBE2" transform="translate(320,184)"/>
<path d="M0 0 C1.65 0 3.3 0 5 0 C5.33 1.32 5.66 2.64 6 4 C5.67 3.34 5.34 2.68 5 2 C4.34 2 3.68 2 3 2 C2.67 2.66 2.34 3.32 2 4 C1.34 4 0.68 4 0 4 C0 2.68 0 1.36 0 0 Z " fill="#FBD0DD" transform="translate(60,185)"/>
<path d="M0 0 C0.99 0.33 1.98 0.66 3 1 C3 2.32 3 3.64 3 5 C1.68 4.67 0.36 4.34 -1 4 C-0.67 2.68 -0.34 1.36 0 0 Z " fill="#FBC3D3" transform="translate(102,175)"/>
</svg>
