<?xml version="1.0" encoding="UTF-8"?>
<svg version="1.1" xmlns="http://www.w3.org/2000/svg" width="400" height="400">
<path d="M0 0 C132 0 264 0 400 0 C400 132 400 264 400 400 C268 400 136 400 0 400 C0 268 0 136 0 0 Z " fill="#EFDBE8" transform="translate(0,0)"/>
<path d="M0 0 C1.11418169 -0.0060911 2.22836337 -0.01218221 3.37630814 -0.01845789 C7.08774403 -0.03502827 10.7988346 -0.03032045 14.51029968 -0.0255127 C17.18031479 -0.03285648 19.85030456 -0.04135163 22.52030945 -0.05117798 C29.00708877 -0.07217067 35.49377859 -0.07677638 41.98058788 -0.07499009 C47.25675533 -0.07367935 52.53289501 -0.0775025 57.80905724 -0.08491516 C59.33235985 -0.08701449 60.85566246 -0.08911209 62.37896508 -0.09120798 C63.13730065 -0.09225151 63.89563623 -0.09329504 64.67695167 -0.09437019 C78.99993202 -0.11324772 93.32286108 -0.11223001 107.64584871 -0.10540086 C120.727994 -0.09982727 133.80994334 -0.12064737 146.89204285 -0.15376133 C160.34749671 -0.18755412 173.80285684 -0.20265972 187.25835389 -0.1980443 C194.80346598 -0.19580524 202.34839699 -0.20095985 209.89347267 -0.22593689 C216.31732624 -0.24702244 222.74089943 -0.25047063 229.1647648 -0.2316373 C232.43746638 -0.2225236 235.70954184 -0.22394833 238.9822216 -0.24199295 C269.64830072 -0.3993566 269.64830072 -0.3993566 280.02861023 9.59362793 C287.96654004 19.17317149 289.82319676 27.85231243 289.71611023 40.01159668 C289.71186539 41.83003586 289.71186539 41.83003586 289.70753479 43.68521118 C289.6963644 47.54671207 289.6712651 51.40797871 289.64579773 55.26940918 C289.63576389 57.89180166 289.62663875 60.51419778 289.61845398 63.13659668 C289.5964353 69.55594707 289.56298871 75.97516138 289.52079773 82.39440918 C281.05274162 87.43982542 272.68320099 91.90720169 263.45829773 95.45690918 C262.38104431 95.87682129 261.30379089 96.2967334 260.19389343 96.72937012 C256.97650343 97.97052933 253.75128961 99.18780927 250.52079773 100.39440918 C249.61909851 100.73391602 248.71739929 101.07342285 247.78837585 101.42321777 C233.68794349 106.65584204 219.29385837 109.87997753 204.55644226 112.78942871 C202.10931183 113.27712287 199.67192035 113.78963556 197.23564148 114.32800293 C174.67220112 119.06657093 151.33439612 119.89770525 128.3613739 119.78552246 C124.45517678 119.7693963 120.55001155 119.78552168 116.6438446 119.80456543 C93.0915603 119.82307935 69.65035058 117.9757595 46.52079773 113.39440918 C45.58252136 113.21603516 44.644245 113.03766113 43.67753601 112.85388184 C17.07880386 107.72241526 -10.82417143 99.97922668 -34.47920227 86.39440918 C-35.53639465 85.93671143 -36.59358704 85.47901367 -37.68281555 85.00744629 C-40.91138499 81.99056322 -40.94085919 81.31393528 -41.23970032 77.08190918 C-41.27261722 74.85298552 -41.27067733 72.62337727 -41.24092102 70.39440918 C-41.2442897 69.20774658 -41.24765839 68.02108398 -41.25112915 66.79846191 C-41.25083001 64.28336259 -41.23555391 61.76822739 -41.20649719 59.2532959 C-41.16713007 55.43589303 -41.18569372 51.62201861 -41.21162415 47.80456543 C-41.2040565 45.35533336 -41.19309449 42.90610898 -41.17842102 40.45690918 C-41.18540512 39.32833496 -41.19238922 38.19976074 -41.19958496 37.0369873 C-41.04068944 27.93826974 -38.76817136 19.4127466 -33.22920227 12.01940918 C-23.463029 2.69715287 -13.2861185 -0.06911265 0 0 Z " fill="#01405C" transform="translate(75.47920227050781,117.6055908203125)"/>
<path d="M0 0 C0.7425 0.2475 1.485 0.495 2.25 0.75 C7.31320596 2.42316794 11.49152648 2.92463708 16.8125 2.75 C22.22977157 2.57256634 24.89952633 2.96650878 30.25 4.75 C30.25 41.05 30.25 77.35 30.25 114.75 C-48.62 114.75 -127.49 114.75 -208.75 114.75 C-209.85084497 110.34662012 -209.5415332 109.48201586 -207.8125 105.5 C-207.43222656 104.60796875 -207.05195313 103.7159375 -206.66015625 102.796875 C-206.35980469 102.12140625 -206.05945313 101.4459375 -205.75 100.75 C-205.09 100.75 -204.43 100.75 -203.75 100.75 C-203.48832031 100.18023437 -203.22664062 99.61046875 -202.95703125 99.0234375 C-200.76311294 94.89120301 -197.66636216 91.39072857 -194.75 87.75 C-194.26660156 87.12867188 -193.78320312 86.50734375 -193.28515625 85.8671875 C-191.15567493 83.18753624 -190.06942633 81.85647544 -186.75 80.75 C-185.54117904 78.74983534 -185.54117904 78.74983534 -184.75 76.75 C-184.09 76.75 -183.43 76.75 -182.75 76.75 C-182.75 76.09 -182.75 75.43 -182.75 74.75 C-182.09 74.75 -181.43 74.75 -180.75 74.75 C-180.255 73.265 -180.255 73.265 -179.75 71.75 C-177.859375 70.43359375 -177.859375 70.43359375 -175.5 69.1875 C-174.69046875 68.754375 -173.8809375 68.32125 -173.046875 67.875 C-170.75 66.75 -170.75 66.75 -167.75 65.6875 C-167.09 65.378125 -166.43 65.06875 -165.75 64.75 C-165.09726511 62.72812623 -165.09726511 62.72812623 -164.75 60.75 C-161.85388456 60.89134727 -158.9581919 61.0379153 -156.0625 61.1875 C-154.83756836 61.24647461 -154.83756836 61.24647461 -153.58789062 61.30664062 C-150.26915013 61.48131118 -147.12306057 61.67276283 -143.86328125 62.34765625 C-140.82291814 62.92650542 -138.62673945 61.75060503 -135.75 60.75 C-134.265 61.245 -134.265 61.245 -132.75 61.75 C-132.13125 61.585 -131.5125 61.42 -130.875 61.25 C-128.75 60.75 -128.75 60.75 -126.4375 61.3125 C-122.7707125 61.90941889 -120.28122877 60.86822244 -116.75 59.75 C-115.20974893 59.45094782 -113.66800393 59.15950737 -112.125 58.875 C-108.08531552 58.01374747 -105.8917704 56.46720683 -102.75 53.75 C-101.76 53.440625 -100.77 53.13125 -99.75 52.8125 C-96.08187 51.51337062 -94.40447571 49.54418496 -91.75 46.75 C-89.5625 45.5625 -89.5625 45.5625 -87.75 44.75 C-86.76 43.76 -86.76 43.76 -85.75 42.75 C-84.76 42.75 -83.77 42.75 -82.75 42.75 C-82.75 42.09 -82.75 41.43 -82.75 40.75 C-82.1435817 40.74413376 -81.53716339 40.73826752 -80.91236877 40.73222351 C-74.56864022 40.66801055 -68.22540594 40.58352039 -61.88208008 40.48754883 C-59.51853984 40.4544098 -57.15492255 40.42634398 -54.79125977 40.40356445 C-51.38264306 40.36981577 -47.97472537 40.31748871 -44.56640625 40.26171875 C-43.51916885 40.25532883 -42.47193146 40.2489389 -41.39295959 40.24235535 C-31.19222614 40.04051263 -22.57219364 37.51155722 -14.75 30.75 C-7.91122673 22.83847798 -5.50324369 14.31484419 -5.15625 4.03515625 C-5.0221875 3.28105469 -4.888125 2.52695312 -4.75 1.75 C-1.75 -0.25 -1.75 -0.25 0 0 Z " fill="#FED890" transform="translate(369.75,285.25)"/>
<path d="M0 0 C0.116294 11.90106912 0.20491758 23.80200112 0.25906086 35.70352459 C0.28505837 41.23102197 0.32027535 46.75812811 0.37719727 52.28540039 C0.43186961 57.6281953 0.46149442 62.97061595 0.47438622 68.3136692 C0.48356321 70.3432688 0.50148246 72.37284993 0.52865028 74.40228844 C0.70813238 88.37636577 0.45051761 101.56108703 -9.90625 112.28125 C-17.13862465 118.21827397 -24.42611697 121.12890594 -33.72639465 121.12025452 C-35.44057083 121.12231651 -35.44057083 121.12231651 -37.18937683 121.12442017 C-38.43375015 121.12082489 -39.67812347 121.11722961 -40.96020508 121.11352539 C-42.27766724 121.11367142 -43.59512939 121.11381744 -44.95251465 121.1139679 C-48.55748919 121.11425444 -52.16243037 121.10838074 -55.76739717 121.10139394 C-59.537694 121.09513668 -63.30799162 121.09455472 -67.07829285 121.09336853 C-74.21445111 121.09026221 -81.35059403 121.08205825 -88.48674554 121.07201904 C-98.1322628 121.05874459 -107.77778427 121.05335235 -117.42330837 121.04751682 C-132.61555041 121.0381179 -147.80776006 121.0181943 -163 121 C-163 93.28 -163 65.56 -163 37 C-152.44 36.34 -141.88 35.68 -131 35 C-115.37232832 33.87757054 -100.44006097 31.65911815 -85.09765625 28.59960938 C-82.40306398 28.07802058 -79.70932554 27.60864843 -77 27.171875 C-52.1393136 23.00583296 -25.13868174 13.84555407 -3.53125 0.8125 C-2 0 -2 0 0 0 Z " fill="#BC5191" transform="translate(365,205)"/>
<path d="M0 0 C3.17461544 1.25646377 6.25590988 2.57194626 9.30859375 4.1015625 C26.24002072 12.46298761 43.34433518 18.89593562 61.5625 23.875 C62.60817139 24.16141357 63.65384277 24.44782715 64.73120117 24.74291992 C71.11898707 26.42365017 77.46192156 27.60554024 83.99902344 28.53955078 C86.52500276 28.92711969 88.96564352 29.40804494 91.44921875 30 C114.73467907 35.40564756 139.36999889 35.68722216 163 37 C163 64.72 163 92.44 163 121 C129.04693273 121.16121214 129.04693273 121.16121214 114.7890625 121.1953125 C104.95499298 121.21902178 95.12106083 121.24685274 85.28710938 121.30175781 C78.12420509 121.34173065 70.96141254 121.36745764 63.79839981 121.37635398 C60.00850642 121.38155115 56.21893258 121.39369413 52.429142 121.42292023 C48.85533493 121.45025503 45.28197626 121.45840903 41.70807457 121.45243073 C39.78479133 121.45404017 37.86155591 121.47546788 35.93840027 121.49768066 C25.08443573 121.44651653 16.98299366 118.87571207 9.046875 111.34765625 C1.45267318 102.63751256 -0.16135251 94.03051604 -0.11352539 82.87353516 C-0.11367142 81.97533051 -0.11381744 81.07712585 -0.1139679 80.15170288 C-0.11327398 77.19746443 -0.10550605 74.24328987 -0.09765625 71.2890625 C-0.09579022 69.23497553 -0.09436719 67.18088811 -0.09336853 65.12680054 C-0.08955794 59.73129031 -0.07974012 54.33580717 -0.06866455 48.94030762 C-0.05841906 43.43026089 -0.05386419 37.92020977 -0.04882812 32.41015625 C-0.03811653 21.60675896 -0.02105764 10.80338174 0 0 Z " fill="#5A528E" transform="translate(35,205)"/>
<path d="M0 0 C0.66 0 1.32 0 2 0 C2 9.57 2 19.14 2 29 C30.05 29 58.1 29 87 29 C87 29.66 87 30.32 87 31 C85.35666496 32.03789581 83.68756133 33.03567924 82 34 C81.01 34.99 81.01 34.99 80 36 C78.33333333 37 76.66666667 38 75 39 C74.01 39.99 74.01 39.99 73 41 C72.01 41 71.02 41 70 41 C69.67 41.66 69.34 42.32 69 43 C67 43.66666667 65 44.33333333 63 45 C62.67 45.66 62.34 46.32 62 47 C60 47.5 60 47.5 57 48 C54.69280676 48.52215426 52.38936154 49.05914244 50.0859375 49.59765625 C46.78915567 50.23355237 44.18786509 49.87941106 41 49 C40.67 49.66 40.34 50.32 40 51 C38 51 36 51 34 51 C34 50.34 34 49.68 34 49 C33.13375 49.53625 32.2675 50.0725 31.375 50.625 C26.3659525 52.8183711 21.6170976 51.45793694 16.40234375 50.55078125 C12.50335622 49.91960187 8.93437069 49.84262517 5 50 C4.67 51.65 4.34 53.3 4 55 C3.071875 55.144375 2.14375 55.28875 1.1875 55.4375 C-2.00725111 55.92100111 -2.00725111 55.92100111 -5 57 C-5.495 57.99 -5.495 57.99 -6 59 C-7.33333333 59.66666667 -8.66666667 60.33333333 -10 61 C-10.495 61.99 -10.495 61.99 -11 63 C-11.66 63 -12.32 63 -13 63 C-13 63.66 -13 64.32 -13 65 C-18.11111111 69.55555556 -18.11111111 69.55555556 -21 71 C-21.495 72.485 -21.495 72.485 -22 74 C-22.66 74.66 -23.32 75.32 -24 76 C-24.97314481 77.25952742 -25.9298196 78.53185401 -26.875 79.8125 C-32.87234043 87.87234043 -32.87234043 87.87234043 -36 91 C-36.89903574 93.35518587 -36.89903574 93.35518587 -37.625 96 C-37.88539063 96.886875 -38.14578125 97.77375 -38.4140625 98.6875 C-39.08187222 100.92552613 -39.08187222 100.92552613 -39 103 C-60.12 103 -81.24 103 -103 103 C-102.67 102.01 -102.34 101.02 -102 100 C-102.79950593 97.10007201 -102.79950593 97.10007201 -104 94 C-104.28875 93.01 -104.5775 92.02 -104.875 91 C-106.1464424 87.60948692 -107.90130435 84.93817391 -110 82 C-111.98 82.99 -111.98 82.99 -114 84 C-113.375 81.5625 -113.375 81.5625 -112 79 C-106.80413349 77.09907323 -102.17102377 78.66806963 -97 80 C-95.02 76.7 -93.04 73.4 -91 70 C-89.515 70.495 -89.515 70.495 -88 71 C-87.5359375 71.9590625 -87.5359375 71.9590625 -87.0625 72.9375 C-86.1341863 75.09084447 -86.1341863 75.09084447 -84.25 76.375 C-81.04292712 77.26585358 -79.01185702 76.23212333 -76 75 C-75.67 73.02 -75.34 71.04 -75 69 C-76.32 68.67 -77.64 68.34 -79 68 C-78.34 66.68 -77.68 65.36 -77 64 C-76.1646875 64.309375 -76.1646875 64.309375 -75.3125 64.625 C-70.14804432 65.4624793 -66.02833786 61.85340598 -62 59 C-61.154375 58.319375 -60.30875 57.63875 -59.4375 56.9375 C-57.05272833 55.04191226 -54.60836772 53.56502063 -52 52 C-49.71766116 50.21113983 -47.47001089 48.38323965 -45.22265625 46.55078125 C-40.42956319 42.78274572 -35.65619705 40.24297469 -30 38 C-29.071875 37.608125 -28.14375 37.21625 -27.1875 36.8125 C-25 36 -25 36 -23 35.75 C-20.62551013 35.09347393 -20.62551013 35.09347393 -19.125 31.9375 C-17.90234375 30.30078125 -17.90234375 30.30078125 -16 29 C-11.29581891 28.45947407 -6.71505291 28.65546298 -2 29 C-2.01047363 28.19256348 -2.02094727 27.38512695 -2.03173828 26.55322266 C-2.07319831 22.91051318 -2.09929438 19.26785325 -2.125 15.625 C-2.14175781 14.35398437 -2.15851563 13.08296875 -2.17578125 11.7734375 C-2.18222656 10.56171875 -2.18867188 9.35 -2.1953125 8.1015625 C-2.20578613 6.98088379 -2.21625977 5.86020508 -2.22705078 4.70556641 C-2 2 -2 2 0 0 Z " fill="#F4D8C4" transform="translate(200,297)"/>
<path d="M0 0 C1.20935715 -0.00761353 2.41871429 -0.01522705 3.66471863 -0.02307129 C6.21729473 -0.0338515 8.76991487 -0.03673389 11.32250977 -0.03222656 C15.20730012 -0.03125579 19.09010457 -0.07287475 22.97460938 -0.1171875 C25.46223549 -0.1223962 27.94986843 -0.12508267 30.4375 -0.125 C32.16453911 -0.1495929 32.16453911 -0.1495929 33.9264679 -0.17468262 C42.20484662 -0.10451238 49.07132442 1.50024554 55.32575989 7.21057129 C59.72205669 11.90423459 62.29610001 16.90950641 62.60546875 23.40625 C62.51265625 24.9221875 62.51265625 24.9221875 62.41796875 26.46875 C66.37796875 26.46875 70.33796875 26.46875 74.41796875 26.46875 C74.41796875 26.79875 74.41796875 27.12875 74.41796875 27.46875 C68.47796875 27.46875 62.53796875 27.46875 56.41796875 27.46875 C56.41796875 28.45875 56.41796875 29.44875 56.41796875 30.46875 C64.00796875 30.46875 71.59796875 30.46875 79.41796875 30.46875 C79.41796875 30.79875 79.41796875 31.12875 79.41796875 31.46875 C37.17796875 31.46875 -5.06203125 31.46875 -48.58203125 31.46875 C-48.58203125 31.13875 -48.58203125 30.80875 -48.58203125 30.46875 C-40.99203125 30.46875 -33.40203125 30.46875 -25.58203125 30.46875 C-25.58203125 29.47875 -25.58203125 28.48875 -25.58203125 27.46875 C-31.52203125 27.46875 -37.46203125 27.46875 -43.58203125 27.46875 C-43.58203125 27.13875 -43.58203125 26.80875 -43.58203125 26.46875 C-39.62203125 26.46875 -35.66203125 26.46875 -31.58203125 26.46875 C-31.68515625 25.52 -31.78828125 24.57125 -31.89453125 23.59375 C-31.87004088 17.55687264 -28.86473137 12.06050928 -24.9375 7.6015625 C-17.28115594 0.65381913 -10.00902055 0.00174177 0 0 Z " fill="#F3E7F2" transform="translate(184.58203125,86.53125)"/>
<path d="M0 0 C2.43401674 -0.01652927 4.86798555 -0.04377878 7.30175781 -0.08203125 C36.57876068 -0.53873979 36.57876068 -0.53873979 48.97949219 9.53759766 C55.08220062 15.49145954 61.2005216 23.66703051 61.65136719 32.49072266 C61.66502745 34.44414014 61.60931305 36.39779277 61.54199219 38.35009766 C57.58199219 38.35009766 53.62199219 38.35009766 49.54199219 38.35009766 C49.23261719 36.15353516 49.23261719 36.15353516 48.91699219 33.91259766 C47.47409341 26.74891006 44.19045898 21.45806102 38.47949219 16.91259766 C33.84866428 14.44939133 30.27223344 13.10261253 24.99243164 13.04370117 C23.9039241 13.02771378 22.81541656 13.01172638 21.69392395 12.99525452 C19.94229195 12.98721046 19.94229195 12.98721046 18.15527344 12.97900391 C16.9430864 12.96997543 15.73089935 12.96094696 14.48197937 12.9516449 C11.9174547 12.93714604 9.35289307 12.92825658 6.78833008 12.92456055 C2.8859123 12.91269321 -1.01490929 12.86352382 -4.91699219 12.81298828 C-7.4137293 12.8035202 -9.91047608 12.79628701 -12.40722656 12.79150391 C-13.56486008 12.77197159 -14.72249359 12.75243927 -15.91520691 12.73231506 C-23.41028428 12.77356685 -29.25551671 13.96221837 -35.45800781 18.35009766 C-41.17813283 24.36693814 -43.49135038 30.13350948 -44.45800781 38.35009766 C-48.41800781 38.35009766 -52.37800781 38.35009766 -56.45800781 38.35009766 C-56.1755134 27.61530987 -53.16369936 19.00978045 -45.83300781 10.97509766 C-32.53185323 -1.25379495 -16.84544193 0.08366193 0 0 Z " fill="#7D115B" transform="translate(197.4580078125,74.64990234375)"/>
<path d="M0 0 C0.680625 0.4125 1.36125 0.825 2.0625 1.25 C-11.66807304 12.22757594 -29.5748988 17.63201482 -45.9375 23.25 C-46.81776855 23.55566895 -47.69803711 23.86133789 -48.60498047 24.17626953 C-64.31089608 29.54243098 -80.63433861 32.35090463 -96.9375 35.25 C-97.94240479 35.4341748 -98.94730957 35.61834961 -99.98266602 35.80810547 C-107.54750438 37.14596528 -115.14123778 37.98620948 -122.78833008 38.68261719 C-124.84242654 38.87199685 -126.89467628 39.07626208 -128.94726562 39.28125 C-140.41809027 40.3412602 -151.27504408 40.25 -162.9375 40.25 C-162.9375 58.4 -162.9375 76.55 -162.9375 95.25 C-164.9175 96.24 -164.9175 96.24 -166.9375 97.25 C-166.9375 78.44 -166.9375 59.63 -166.9375 40.25 C-171.8875 40.25 -176.8375 40.25 -181.9375 40.25 C-195.62967196 40.12542275 -209.06706414 38.60407228 -222.625 36.8125 C-223.45532745 36.70322174 -224.28565491 36.59394348 -225.1411438 36.48135376 C-233.79264735 35.33342724 -242.42039566 34.18632975 -250.9375 32.25 C-251.80109131 32.05575439 -252.66468262 31.86150879 -253.55444336 31.66137695 C-270.6789897 27.71165151 -287.63806234 22.8735169 -303.9375 16.25 C-303.6075 14.93 -303.2775 13.61 -302.9375 12.25 C-298.86252104 12.88904965 -295.1297724 14.16861647 -291.25195312 15.5222168 C-256.43076977 27.65461609 -219.04327667 34.32195075 -182.16015625 34.453125 C-180.87354599 34.45882507 -179.58693573 34.46452515 -178.26133728 34.47039795 C-175.54604715 34.48081573 -172.83078572 34.48671504 -170.11547852 34.49023438 C-167.40212187 34.49456971 -164.68909208 34.50828496 -161.97583008 34.53125 C-134.1323524 34.74892331 -107.11328792 32.48587855 -79.76855469 26.83349609 C-77.38296909 26.34181365 -74.99470439 25.87858436 -72.6015625 25.42578125 C-50.43860489 20.8178641 -25.54732582 12.71165264 -6.15625 0.98046875 C-2.9375 -0.75 -2.9375 -0.75 0 0 Z " fill="#E9CADD" transform="translate(364.9375,201.75)"/>
<path d="M0 0 C4.07497896 0.63904965 7.8077276 1.91861647 11.68554688 3.2722168 C50.61289437 16.83528611 90.79764864 21.82444355 131.8125 22.5625 C134.06576178 22.60577897 136.3190171 22.64939594 138.57226562 22.69335938 C144.0481086 22.79947149 149.52401678 22.90140523 155 23 C155 23.33 155 23.66 155 24 C145.1 24 135.2 24 125 24 C125 24.66 125 25.32 125 26 C128.63 26.33 132.26 26.66 136 27 C136 27.33 136 27.66 136 28 C130.99851995 28.06914489 126.00134881 28.05521659 121 28 C120.2874707 27.99419922 119.57494141 27.98839844 118.84082031 27.98242188 C105.88736428 27.80808196 93.13781845 26.25726277 80.3125 24.5625 C79.48217255 24.45322174 78.65184509 24.34394348 77.7963562 24.23135376 C69.14485265 23.08342724 60.51710434 21.93632975 52 20 C51.13640869 19.80575439 50.27281738 19.61150879 49.38305664 19.41137695 C32.2585103 15.46165151 15.29943766 10.6235169 -1 4 C-0.67 2.68 -0.34 1.36 0 0 Z " fill="#C2C1D8" transform="translate(62,214)"/>
<path d="M0 0 C0.7425 0.2475 1.485 0.495 2.25 0.75 C7.31320596 2.42316794 11.49152648 2.92463708 16.8125 2.75 C21.82082116 2.58596082 25.57107636 2.90438451 30.25 4.75 C30.30384521 7.04141286 30.34272087 9.33318188 30.375 11.625 C30.39820313 12.90117187 30.42140625 14.17734375 30.4453125 15.4921875 C30.25 18.75 30.25 18.75 28.25 20.75 C26.93 20.75 25.61 20.75 24.25 20.75 C24.25 20.09 24.25 19.43 24.25 18.75 C23.59 18.75 22.93 18.75 22.25 18.75 C21.92 19.41 21.59 20.07 21.25 20.75 C21.25 20.09 21.25 19.43 21.25 18.75 C20.26 19.08 19.27 19.41 18.25 19.75 C16.58178677 19.42449498 14.91500443 19.09153937 13.25 18.75 C12.59 19.08 11.93 19.41 11.25 19.75 C11.25 19.09 11.25 18.43 11.25 17.75 C10.59 17.75 9.93 17.75 9.25 17.75 C8.92 18.41 8.59 19.07 8.25 19.75 C7.2290625 19.2859375 7.2290625 19.2859375 6.1875 18.8125 C2.82872758 17.59762487 -0.18841356 17.01382122 -3.75 16.75 C-4.74 17.41 -5.73 18.07 -6.75 18.75 C-6.49571916 15.95590234 -6.22243244 13.16599181 -5.9375 10.375 C-5.83211914 9.18390625 -5.83211914 9.18390625 -5.72460938 7.96875 C-5.5035771 5.88220534 -5.1349376 3.81260683 -4.75 1.75 C-1.75 -0.25 -1.75 -0.25 0 0 Z " fill="#FED8C0" transform="translate(369.75,285.25)"/>
<path d="M0 0 C0.99 0.66 1.98 1.32 3 2 C2.67 3.65 2.34 5.3 2 7 C0.6078125 7.2165625 0.6078125 7.2165625 -0.8125 7.4375 C-4.00725111 7.92100111 -4.00725111 7.92100111 -7 9 C-7.33 9.66 -7.66 10.32 -8 11 C-9.33333333 11.66666667 -10.66666667 12.33333333 -12 13 C-12.33 13.66 -12.66 14.32 -13 15 C-13.66 15 -14.32 15 -15 15 C-15 15.66 -15 16.32 -15 17 C-20.11111111 21.55555556 -20.11111111 21.55555556 -23 23 C-23.33 23.99 -23.66 24.98 -24 26 C-24.66 26.66 -25.32 27.32 -26 28 C-26.97314481 29.25952742 -27.9298196 30.53185401 -28.875 31.8125 C-34.87234043 39.87234043 -34.87234043 39.87234043 -38 43 C-38.89903574 45.35518587 -38.89903574 45.35518587 -39.625 48 C-39.88539063 48.886875 -40.14578125 49.77375 -40.4140625 50.6875 C-41.08187222 52.92552613 -41.08187222 52.92552613 -41 55 C-42.98 55 -44.96 55 -47 55 C-48.07010304 52.23556715 -48.16283213 50.46148633 -47.17578125 47.6640625 C-46.16488321 45.41525773 -45.11596524 43.19840363 -44 41 C-43.34 41 -42.68 41 -42 41 C-41.9175 40.46375 -41.835 39.9275 -41.75 39.375 C-40.12712963 34.2359105 -36.26203546 29.1750341 -32.375 25.4375 C-30.74053524 23.93365899 -30.74053524 23.93365899 -30 21 C-28.35360035 19.64172029 -26.68704193 18.30745749 -25 17 C-24.67 16.34 -24.34 15.68 -24 15 C-23.34 15 -22.68 15 -22 15 C-21.66742188 14.12214844 -21.66742188 14.12214844 -21.328125 13.2265625 C-19.59179592 10.31565786 -17.62042281 9.15528956 -14.75 7.375 C-13.81671875 6.78460938 -12.8834375 6.19421875 -11.921875 5.5859375 C-8.99687176 3.99830205 -6.15848952 3.02083777 -3 2 C-2.01 1.34 -1.02 0.68 0 0 Z " fill="#F9D8AE" transform="translate(202,345)"/>
<path d="M0 0 C3.44823817 1.46869403 5.36467279 2.57524493 6.91796875 6.05859375 C8.02970959 10.05412295 8.20367534 12.38897398 6.875 16.375 C4.53510237 19.65085668 2.65017712 21.70216315 -1.40234375 22.43359375 C-5.47887235 22.439875 -8.30792823 22.34603589 -12 20.5 C-14.66375274 17.17030907 -15.66463955 14.23699301 -16 10 C-15.36474912 5.87086927 -14.4780174 4.43249194 -11.375 1.625 C-7.30234586 -0.33590755 -4.42890149 -0.83813873 0 0 Z " fill="#F3F6F7" transform="translate(204,198)"/>
<path d="M0 0 C0.66 0 1.32 0 2 0 C2 9.57 2 19.14 2 29 C9.59 29 17.18 29 25 29 C23.73293765 31.53412471 22.59334288 31.97838008 20 33 C19.01 32.505 19.01 32.505 18 32 C17.505 32.99 17.505 32.99 17 34 C16.01 34.33 15.02 34.66 14 35 C13.505 35.99 13.505 35.99 13 37 C7.70036939 37.18274588 4.03495255 36.79020535 -1 35 C-4.65886385 34.65153678 -6.84012503 35.1274815 -10 37 C-10 36.34 -10 35.68 -10 35 C-10.9075 35.33 -11.815 35.66 -12.75 36 C-16 37 -16 37 -20 37 C-20.33 36.34 -20.66 35.68 -21 35 C-19.42720641 32.09638107 -18.70966275 30.77190183 -16 29 C-11.29556257 28.45656555 -6.71566753 28.65541807 -2 29 C-2.01047363 28.19256348 -2.02094727 27.38512695 -2.03173828 26.55322266 C-2.07319831 22.91051318 -2.09929438 19.26785325 -2.125 15.625 C-2.14175781 14.35398437 -2.15851563 13.08296875 -2.17578125 11.7734375 C-2.18222656 10.56171875 -2.18867188 9.35 -2.1953125 8.1015625 C-2.20578613 6.98088379 -2.21625977 5.86020508 -2.22705078 4.70556641 C-2 2 -2 2 0 0 Z " fill="#F0DED6" transform="translate(200,297)"/>
<path d="M0 0 C10.56 0 21.12 0 32 0 C32 0.66 32 1.32 32 2 C26.92281793 4.53859104 20.67646212 3 15 3 C15 21.48 15 39.96 15 59 C13.68 59.66 12.36 60.32 11 61 C11 41.86 11 22.72 11 3 C7.04 3 3.08 3 -1 3 C-0.67 2.01 -0.34 1.02 0 0 Z " fill="#E8D9E7" transform="translate(187,238)"/>
<path d="M0 0 C5.61 0 11.22 0 17 0 C17 2.31 17 4.62 17 7 C14.69 7 12.38 7 10 7 C10 7.99 10 8.98 10 10 C13.3 10 16.6 10 20 10 C20 11.32 20 12.64 20 14 C20.99 14.33 21.98 14.66 23 15 C23 16.98 23 18.96 23 21 C20.69 21 18.38 21 16 21 C16 18.69 16 16.38 16 14 C16.66 14 17.32 14 18 14 C18 13.34 18 12.68 18 12 C15.36 12 12.72 12 10 12 C10 12.66 10 13.32 10 14 C10.66 14 11.32 14 12 14 C12 16.31 12 18.62 12 21 C9.69 21 7.38 21 5 21 C5 19.02 5 17.04 5 15 C5.99 15 6.98 15 8 15 C8 14.01 8 13.02 8 12 C5.03 12 2.06 12 -1 12 C-1 12.99 -1 13.98 -1 15 C-0.01 15 0.98 15 2 15 C2 16.98 2 18.96 2 21 C-0.31 21 -2.62 21 -5 21 C-5 19.02 -5 17.04 -5 15 C-4.34 15 -3.68 15 -3 15 C-2.67 13.35 -2.34 11.7 -2 10 C1.3 10 4.6 10 8 10 C8 9.01 8 8.02 8 7 C5.36 7 2.72 7 0 7 C0 4.69 0 2.38 0 0 Z " fill="#EDD2E2" transform="translate(328,231)"/>
<path d="M0 0 C0.99 -0.33 1.98 -0.66 3 -1 C3.99 0.32 4.98 1.64 6 3 C5.67 3.66 5.34 4.32 5 5 C5.66 5.66 6.32 6.32 7 7 C8 8 9 9 10 10 C9.67 10.99 9.34 11.98 9 13 C-0.9 13 -10.8 13 -21 13 C-21 10 -21 10 -19 7 C-15.76650772 5.14246188 -13.75586417 4 -10 4 C-8.97803008 3.02246356 -7.98020375 2.0194119 -7 1 C-3.52173913 -1.17391304 -3.52173913 -1.17391304 0 0 Z " fill="#F9D7D0" transform="translate(127,387)"/>
<path d="M0 0 C0.66 0.66 1.32 1.32 2 2 C1.67 2.99 1.34 3.98 1 5 C0.01 4.01 -0.98 3.02 -2 2 C-1.34 1.34 -0.68 0.68 0 0 Z M-3 4 C-2.34 4 -1.68 4 -1 4 C-1 5.32 -1 6.64 -1 8 C-1.66 8 -2.32 8 -3 8 C-3.33 8.99 -3.66 9.98 -4 11 C-4.99 11.495 -4.99 11.495 -6 12 C-7.12224855 13.88013106 -7.12224855 13.88013106 -8.125 16.0625 C-8.65480469 17.16271484 -8.65480469 17.16271484 -9.1953125 18.28515625 C-9.46085937 18.85105469 -9.72640625 19.41695312 -10 20 C-10.66 20 -11.32 20 -12 20 C-11.65213292 21.97536745 -11.65213292 21.97536745 -11 24 C-10.34 24.33 -9.68 24.66 -9 25 C-9.33 25.99 -9.66 26.98 -10 28 C-10.99 28.33 -11.98 28.66 -13 29 C-13.515625 28.13375 -14.03125 27.2675 -14.5625 26.375 C-17.73906748 21.61014878 -22.00028022 18.14877519 -26.9375 15.3125 C-27.9584375 14.6628125 -27.9584375 14.6628125 -29 14 C-29 13.01 -29 12.02 -29 11 C-26.23735711 10.40267181 -23.83967231 10 -21 10 C-20.01 9.67 -19.02 9.34 -18 9 C-17.01 9.33 -16.02 9.66 -15 10 C-13.65737935 9.70630173 -12.32303717 9.3721042 -11 9 C-10.01 9 -9.02 9 -8 9 C-6.31288577 7.3540349 -4.6454378 5.68762851 -3 4 Z " fill="#F1E2F0" transform="translate(217,22)"/>
<path d="M0 0 C0.66 0.66 1.32 1.32 2 2 C1.175 2.5775 0.35 3.155 -0.5 3.75 C-1.325 4.4925 -2.15 5.235 -3 6 C-3 7.32 -3 8.64 -3 10 C-2.01 10.66 -1.02 11.32 0 12 C0 12.66 0 13.32 0 14 C-0.99 14.33 -1.98 14.66 -3 15 C-3.474375 15.474375 -3.94875 15.94875 -4.4375 16.4375 C-6 18 -6 18 -8.125 19 C-10.3530435 19.91202978 -10.3530435 19.91202978 -11 23 C-12.98 23.33 -14.96 23.66 -17 24 C-17.144375 23.236875 -17.28875 22.47375 -17.4375 21.6875 C-17.9632594 18.91827092 -17.9632594 18.91827092 -19 16 C-15.535 15.505 -15.535 15.505 -12 15 C-11.34 12.69 -10.68 10.38 -10 8 C-11.32 7.67 -12.64 7.34 -14 7 C-13.34 5.68 -12.68 4.36 -12 3 C-11.443125 3.20625 -10.88625 3.4125 -10.3125 3.625 C-6.17126735 4.29655124 -3.36738634 2.24492423 0 0 Z M1 9 C1 12 1 12 1 12 Z " fill="#EAD1D1" transform="translate(135,358)"/>
<path d="M0 0 C2.3381615 0.29758419 4.67182036 0.63239269 7 1 C9.14497714 1.0738737 9.14497714 1.0738737 11.75 0.375 C15.42166519 -0.04865368 17.60881645 0.62737809 21 2 C20.67 3.65 20.34 5.3 20 7 C15.25 7.125 15.25 7.125 13 6 C10.5 5.66666667 10.5 5.66666667 8 6 C7.01 7.485 7.01 7.485 6 9 C3.03824877 8.38722388 1.61941217 7.74627478 -1 6 C-1.99 6 -2.98 6 -4 6 C-6.66666667 6 -9.33333333 6 -12 6 C-12 5.01 -12 4.02 -12 3 C-12.66 3 -13.32 3 -14 3 C-14 3.99 -14 4.98 -14 6 C-14.66 6 -15.32 6 -16 6 C-16 4.35 -16 2.7 -16 1 C-15.030625 1.185625 -14.06125 1.37125 -13.0625 1.5625 C-12.051875 1.706875 -11.04125 1.85125 -10 2 C-9.67 1.67 -9.34 1.34 -9 1 C-7.00045254 0.95745644 -4.99958364 0.95919217 -3 1 C-2.34 1 -1.68 1 -1 1 C-0.67 0.67 -0.34 0.34 0 0 Z " fill="#E9C5DB" transform="translate(313,259)"/>
<path d="M0 0 C5.61 0 11.22 0 17 0 C17 0.66 17 1.32 17 2 C15.35666496 3.03789581 13.68756133 4.03567924 12 5 C11.34 5.66 10.68 6.32 10 7 C7.5 8.5 7.5 8.5 5 10 C4.34 10.66 3.68 11.32 3 12 C2.01 12 1.02 12 0 12 C-0.33 12.66 -0.66 13.32 -1 14 C-3 14.66666667 -5 15.33333333 -7 16 C-7.33 16.66 -7.66 17.32 -8 18 C-8.66 18 -9.32 18 -10 18 C-9.34 16.68 -8.68 15.36 -8 14 C-7.34 14 -6.68 14 -6 14 C-5.566875 12.989375 -5.13375 11.97875 -4.6875 10.9375 C-3.125 7.29166667 -1.5625 3.64583333 0 0 Z " fill="#FFD9B7" transform="translate(270,326)"/>
<path d="M0 0 C0 0.66 0 1.32 0 2 C0.85464844 1.98839844 1.70929688 1.97679687 2.58984375 1.96484375 C3.69457031 1.95582031 4.79929688 1.94679688 5.9375 1.9375 C7.03964844 1.92589844 8.14179688 1.91429687 9.27734375 1.90234375 C12 2 12 2 13 3 C13.33 2.34 13.66 1.68 14 1 C16.31 1.66 18.62 2.32 21 3 C20.67 4.65 20.34 6.3 20 8 C18.906875 7.814375 17.81375 7.62875 16.6875 7.4375 C13.06375867 6.7421932 13.06375867 6.7421932 10 8 C10 8.66 10 9.32 10 10 C9.34 10 8.68 10 8 10 C8 9.34 8 8.68 8 8 C6.35 8 4.7 8 3 8 C3 6.68 3 5.36 3 4 C2.34 4 1.68 4 1 4 C1 5.32 1 6.64 1 8 C-1.31 8 -3.62 8 -6 8 C-6.68707555 5.50935112 -7 3.62113708 -7 1 C-2.25 0 -2.25 0 0 0 Z " fill="#ACA8C7" transform="translate(125,258)"/>
<path d="M0 0 C0.98291016 0.00322266 1.96582031 0.00644531 2.97851562 0.00976562 C4.51475586 0.02233398 4.51475586 0.02233398 6.08203125 0.03515625 C7.63567383 0.04192383 7.63567383 0.04192383 9.22070312 0.04882812 C11.77870391 0.06061615 14.33658858 0.0770711 16.89453125 0.09765625 C15.6274689 2.63178096 14.48787413 3.07603633 11.89453125 4.09765625 C11.23453125 3.76765625 10.57453125 3.43765625 9.89453125 3.09765625 C9.56453125 3.75765625 9.23453125 4.41765625 8.89453125 5.09765625 C7.90453125 5.42765625 6.91453125 5.75765625 5.89453125 6.09765625 C5.56453125 6.75765625 5.23453125 7.41765625 4.89453125 8.09765625 C-1.09539922 8.41291575 -4.74107231 7.77985447 -10.10546875 5.09765625 C-9.29296875 3.16015625 -9.29296875 3.16015625 -8.10546875 1.09765625 C-5.10530963 0.09760321 -3.13123119 -0.0180996 0 0 Z " fill="#F8E0CE" transform="translate(208.10546875,325.90234375)"/>
<path d="M0 0 C5.61 0 11.22 0 17 0 C17 2.31 17 4.62 17 7 C14.36 7 11.72 7 9 7 C8.67 7.99 8.34 8.98 8 10 C8 9.01 8 8.02 8 7 C5.36 7 2.72 7 0 7 C0 4.69 0 2.38 0 0 Z " fill="#FBF7FA" transform="translate(328,231)"/>
<path d="M0 0 C0.99 0.495 0.99 0.495 2 1 C2 1.66 2 2.32 2 3 C2.66 3 3.32 3 4 3 C4.33 2.01 4.66 1.02 5 0 C5.66 0.66 6.32 1.32 7 2 C8.0725 1.649375 9.145 1.29875 10.25 0.9375 C13.72290919 0.0692727 14.82507259 -0.20428281 18 1 C18.7425 1.185625 19.485 1.37125 20.25 1.5625 C20.8275 1.706875 21.405 1.85125 22 2 C21.67 3.65 21.34 5.3 21 7 C18.91673869 7.02709444 16.83337559 7.04643873 14.75 7.0625 C13.00976562 7.07990234 13.00976562 7.07990234 11.234375 7.09765625 C8.55293906 7.01669502 6.5489458 6.6917011 4 6 C2.68 6 1.36 6 0 6 C0 4.02 0 2.04 0 0 Z " fill="#E3B7D2" transform="translate(233,259)"/>
<path d="M0 0 C0.61875 0.33 1.2375 0.66 1.875 1 C4.64410679 2.30310908 6.06915879 1.65943927 9 1 C10.33783393 1.31478446 11.67203709 1.64587656 13 2 C13.99 1.67 14.98 1.34 16 1 C17.39439664 0.93334624 18.79169875 0.91461801 20.1875 0.9375 C22.0746875 0.9684375 22.0746875 0.9684375 24 1 C24 2.65 24 4.3 24 6 C13 6 13 6 11.125 5.4375 C8.46937318 4.8907533 6.65724491 5.45647263 4 6 C1.32659425 6.08961137 -1.3238952 6.04535771 -4 6 C-3.67 4.35 -3.34 2.7 -3 1 C-2.01 0.67 -1.02 0.34 0 0 Z " fill="#A19CBF" transform="translate(111,286)"/>
<path d="M0 0 C1.65 0 3.3 0 5 0 C5 0.66 5 1.32 5 2 C5.54140625 1.83628906 6.0828125 1.67257812 6.640625 1.50390625 C9.40222593 0.91409413 11.92818139 0.90390692 14.75 0.9375 C15.73484375 0.94652344 16.7196875 0.95554687 17.734375 0.96484375 C18.85585937 0.98224609 18.85585937 0.98224609 20 1 C20.33 2.65 20.66 4.3 21 6 C19.68 6 18.36 6 17 6 C17 6.99 17 7.98 17 9 C16.34 9 15.68 9 15 9 C14.67 8.34 14.34 7.68 14 7 C13.24074219 7.01160156 12.48148438 7.02320313 11.69921875 7.03515625 C10.70535156 7.04417969 9.71148437 7.05320312 8.6875 7.0625 C7.70136719 7.07410156 6.71523437 7.08570313 5.69921875 7.09765625 C3 7 3 7 0 6 C0 4.02 0 2.04 0 0 Z " fill="#C9C5DA" transform="translate(87,259)"/>
<path d="M0 0 C1.33599921 0.32248257 2.66893378 0.65772583 4 1 C5.32 1 6.64 1 8 1 C8.639375 1.185625 9.27875 1.37125 9.9375 1.5625 C12.02328195 2.15590395 12.02328195 2.15590395 14.1875 1.5 C18.21835677 0.78340324 21.97273948 1.42969078 26 2 C25.67 3.32 25.34 4.64 25 6 C25 5.01 25 4.02 25 3 C24.34 3 23.68 3 23 3 C22.67 3.99 22.34 4.98 22 6 C22 5.01 22 4.02 22 3 C21.34 3 20.68 3 20 3 C19.67 3.99 19.34 4.98 19 6 C12.4 6 5.8 6 -1 6 C-1 1 -1 1 0 0 Z " fill="#809EAE" transform="translate(149,147)"/>
<path d="M0 0 C2.47266765 -0.34444881 2.47266765 -0.34444881 5 -1 C7.33301986 -1.03824623 9.66711508 -1.04574284 12 -1 C11.67 0.65 11.34 2.3 11 4 C9.33388095 4.042721 7.66617115 4.04063832 6 4 C5.67 3.67 5.34 3.34 5 3 C4.67 3.66 4.34 4.32 4 5 C2.02 5 0.04 5 -2 5 C-2 3.68 -2 2.36 -2 1 C-2.66 1 -3.32 1 -4 1 C-4 2.32 -4 3.64 -4 5 C-5.65 5 -7.3 5 -9 5 C-9.33 3.35 -9.66 1.7 -10 0 C-6.15969741 -2.65867103 -4.19478132 -1.4553323 0 0 Z " fill="#B7C6D0" transform="translate(210,133)"/>
<path d="M0 0 C4.18110168 0 7.91214308 0.16146525 12 1 C15.11227195 1 17.94152152 0.54372951 21 0 C21.33 1.65 21.66 3.3 22 5 C18.1496895 7.56687367 16.41430237 6.83288724 12 6 C12 5.01 12 4.02 12 3 C11.34 3 10.68 3 10 3 C10 4.32 10 5.64 10 7 C8.35 6.67 6.7 6.34 5 6 C5 5.34 5 4.68 5 4 C4.34 4 3.68 4 3 4 C3 4.66 3 5.32 3 6 C2.34 6 1.68 6 1 6 C0.67 4.02 0.34 2.04 0 0 Z " fill="#C8D4DC" transform="translate(165,131)"/>
<path d="M0 0 C0.66 0.66 1.32 1.32 2 2 C4.47682444 1.94347694 4.47682444 1.94347694 7.25 1.5 C11.72021846 0.98895006 14.82183508 1.08030261 19 3 C18.34 4.32 17.68 5.64 17 7 C15.52093108 7.02689216 14.04172517 7.04634621 12.5625 7.0625 C11.32693359 7.07990234 11.32693359 7.07990234 10.06640625 7.09765625 C8 7 8 7 7 6 C6.67 6.66 6.34 7.32 6 8 C2.59581686 7.17830062 -0.67757548 6.10747484 -4 5 C-3.67 4.01 -3.34 3.02 -3 2 C-2.01 2 -1.02 2 0 2 C0 1.34 0 0.68 0 0 Z " fill="#DDA8C8" transform="translate(301,296)"/>
<path d="M0 0 C1.03125 0.37125 2.0625 0.7425 3.125 1.125 C7.33375955 2.07536506 9.12163756 1.70269571 13 0 C13.33 1.32 13.66 2.64 14 4 C14.66 4 15.32 4 16 4 C16.33 3.01 16.66 2.02 17 1 C18.65 0.67 20.3 0.34 22 0 C22 1.98 22 3.96 22 6 C14.74 6 7.48 6 0 6 C0 4.02 0 2.04 0 0 Z " fill="#7494A5" transform="translate(157,158)"/>
<path d="M0 0 C0.721875 0.185625 1.44375 0.37125 2.1875 0.5625 C5.15710817 1.02443905 7.08924744 0.59707745 10 0 C12.0625 0.4375 12.0625 0.4375 14 1 C15.32 1 16.64 1 18 1 C18.99 1 19.98 1 21 1 C20.34 2.98 19.68 4.96 19 7 C18.34 6.34 17.68 5.68 17 5 C16.01 5.33 15.02 5.66 14 6 C12.35628509 6.09329934 10.70885323 6.12995144 9.0625 6.125 C7.78052734 6.12886719 7.78052734 6.12886719 6.47265625 6.1328125 C4.17319148 6.00930254 2.20359652 5.64420687 0 5 C0 3.35 0 1.7 0 0 Z " fill="#938EB5" transform="translate(103,275)"/>
<path d="M0 0 C7.59 0 15.18 0 23 0 C23 1.65 23 3.3 23 5 C16.25 5.125 16.25 5.125 14 4 C14 3.34 14 2.68 14 2 C13.34 2 12.68 2 12 2 C11.67 2.66 11.34 3.32 11 4 C11 3.34 11 2.68 11 2 C10.34 2 9.68 2 9 2 C8.67 2.66 8.34 3.32 8 4 C4.44307323 4.85056945 2.50729422 5.16909807 -1 4 C-0.67 2.68 -0.34 1.36 0 0 Z " fill="#ABA7C6" transform="translate(72,287)"/>
<path d="M0 0 C2.97 0.495 2.97 0.495 6 1 C5.67 1.99 5.34 2.98 5 4 C5.66 4 6.32 4 7 4 C7 3.01 7 2.02 7 1 C9.64 0.67 12.28 0.34 15 0 C15 0.66 15 1.32 15 2 C15.66 2 16.32 2 17 2 C17 1.34 17 0.68 17 0 C17.66 0 18.32 0 19 0 C18.39816251 2.02045442 17.72693904 4.02111039 17 6 C16.01 6.495 16.01 6.495 15 7 C14.67 5.68 14.34 4.36 14 3 C13.67 3.66 13.34 4.32 13 5 C2.79563183 6.64586583 2.79563183 6.64586583 -2 4 C-1.34 2.68 -0.68 1.36 0 0 Z " fill="#EDD2E3" transform="translate(266,260)"/>
<path d="M0 0 C1.32 0.99 2.64 1.98 4 3 C3.67 4.65 3.34 6.3 3 8 C3.66 8 4.32 8 5 8 C5.33 9.32 5.66 10.64 6 12 C4.68 11.34 3.36 10.68 2 10 C0.66695302 12.89186786 0.66695302 12.89186786 1.9375 15.1875 C2.288125 15.785625 2.63875 16.38375 3 17 C1.68 17 0.36 17 -1 17 C-1.103125 16.29875 -1.20625 15.5975 -1.3125 14.875 C-1.91491667 11.85897673 -1.91491667 11.85897673 -3.625 8.8125 C-4.07875 7.884375 -4.5325 6.95625 -5 6 C-4.67 5.34 -4.34 4.68 -4 4 C-3.34 4 -2.68 4 -2 4 C-1.34 2.68 -0.68 1.36 0 0 Z " fill="#FBD2D6" transform="translate(390,233)"/>
<path d="M0 0 C2.39591038 -0.02712351 4.79150957 -0.0468982 7.1875 -0.0625 C7.86103516 -0.07087891 8.53457031 -0.07925781 9.22851562 -0.08789062 C12.95434131 -0.10606538 16.3788042 0.10700608 20 1 C19.67 2.32 19.34 3.64 19 5 C17.35 5 15.7 5 14 5 C14 4.01 14 3.02 14 2 C13.34 2 12.68 2 12 2 C11.67 2.66 11.34 3.32 11 4 C7.43545584 5.37097852 3.76644005 5.07243154 0 5 C0 3.35 0 1.7 0 0 Z " fill="#E1B1CD" transform="translate(247,276)"/>
<path d="M0 0 C-1.74148994 2.32198659 -3.02511328 3.85164767 -5.9765625 4.30078125 C-8.89416368 4.31669544 -11.35747982 4.32126009 -14 3 C-15.67654729 3.27942455 -17.34608154 3.60828247 -19 4 C-19.33 2.68 -19.66 1.36 -20 0 C-18.33524314 -0.34274406 -16.66804677 -0.67364302 -15 -1 C-14.030625 -1.20625 -13.06125 -1.4125 -12.0625 -1.625 C-7.68643773 -2.16084436 -4.14944515 -1.38314838 0 0 Z " fill="#DBA1C3" transform="translate(327,277)"/>
<path d="M0 0 C3.58478706 0.51211244 7.16886123 1.02532918 10.75 1.5625 C13.94897785 2.06670601 13.94897785 2.06670601 17 2 C17 2.66 17 3.32 17 4 C17.66 4 18.32 4 19 4 C19.33 3.34 19.66 2.68 20 2 C23.0625 1.375 23.0625 1.375 26 1 C26 1.66 26 2.32 26 3 C24.04072937 4.7143618 22.04119788 6.38405168 20 8 C19.401875 7.67 18.80375 7.34 18.1875 7 C15.94613529 5.79212012 15.94613529 5.79212012 13 6 C12.01 5.67 11.02 5.34 10 5 C9.01 5 8.02 5 7 5 C6.154375 4.814375 5.30875 4.62875 4.4375 4.4375 C2.00235139 3.74957739 2.00235139 3.74957739 0 5 C0 3.35 0 1.7 0 0 Z " fill="#F8BAC3" transform="translate(0,351)"/>
<path d="M0 0 C2 1 4 2 6 3 C5.67 5.31 5.34 7.62 5 10 C2.36 10 -0.28 10 -3 10 C-3.33 7.69 -3.66 5.38 -4 3 C-2.68 2.01 -1.36 1.02 0 0 Z " fill="#164C67" transform="translate(199,204)"/>
<path d="M0 0 C-0.33 1.65 -0.66 3.3 -1 5 C-5.75 5.125 -5.75 5.125 -8 4 C-10.5 3.75 -10.5 3.75 -13 4 C-13.66 4.66 -14.32 5.32 -15 6 C-15 5.34 -15 4.68 -15 4 C-15.99 3.67 -16.98 3.34 -18 3 C-17.01 3 -16.02 3 -15 3 C-14.67 2.01 -14.34 1.02 -14 0 C-8.48489851 -2.31634263 -5.38657146 -1.97874054 0 0 Z " fill="#EBCEE0" transform="translate(334,261)"/>
<path d="M0 0 C0.99386719 0.10183594 1.98773438 0.20367187 3.01171875 0.30859375 C3.77097656 0.39238281 4.53023437 0.47617187 5.3125 0.5625 C5.3125 2.5425 5.3125 4.5225 5.3125 6.5625 C1.3125 6.5625 1.3125 6.5625 -1.6875 5.5625 C-4.02049825 5.52295766 -6.35458189 5.51848268 -8.6875 5.5625 C-8.6875 3.9125 -8.6875 2.2625 -8.6875 0.5625 C-5.3763987 -0.54120043 -3.44001051 -0.36423641 0 0 Z " fill="#A9A5C5" transform="translate(144.6875,286.4375)"/>
<path d="M0 0 C7.92 0 15.84 0 24 0 C24 0.99 24 1.98 24 3 C16.08 3 8.16 3 0 3 C0 2.01 0 1.02 0 0 Z " fill="#904579" transform="translate(241,114)"/>
<path d="M0 0 C7.92 0 15.84 0 24 0 C24 0.99 24 1.98 24 3 C16.08 3 8.16 3 0 3 C0 2.01 0 1.02 0 0 Z " fill="#904579" transform="translate(135,114)"/>
<path d="M0 0 C1.48831242 0.00667405 2.97660807 0.01863442 4.46484375 0.03515625 C5.22345703 0.03966797 5.98207031 0.04417969 6.76367188 0.04882812 C8.64326246 0.06064945 10.52281274 0.07858547 12.40234375 0.09765625 C11.74234375 2.07765625 11.08234375 4.05765625 10.40234375 6.09765625 C9.74234375 5.43765625 9.08234375 4.77765625 8.40234375 4.09765625 C8.07234375 4.42765625 7.74234375 4.75765625 7.40234375 5.09765625 C5.54946873 5.16992127 3.69400497 5.18146845 1.83984375 5.16015625 C0.82792969 5.15113281 -0.18398438 5.14210938 -1.2265625 5.1328125 C-2.00902344 5.12121094 -2.79148437 5.10960937 -3.59765625 5.09765625 C-4.16015625 3.16015625 -4.16015625 3.16015625 -4.59765625 1.09765625 C-3.59765625 0.09765625 -3.59765625 0.09765625 0 0 Z " fill="#E2B4CF" transform="translate(310.59765625,286.90234375)"/>
<path d="M0 0 C1.18851563 0.00902344 2.37703125 0.01804688 3.6015625 0.02734375 C4.51679688 0.03894531 5.43203125 0.05054688 6.375 0.0625 C6.375 1.7125 6.375 3.3625 6.375 5.0625 C5.199375 5.02125 4.02375 4.98 2.8125 4.9375 C-1.34909674 4.92266365 -4.68987667 5.75079222 -8.625 7.0625 C-8.625 5.0825 -8.625 3.1025 -8.625 1.0625 C-5.74084117 -0.37957941 -3.20778472 -0.03144887 0 0 Z " fill="#7C9BAB" transform="translate(203.625,158.9375)"/>
<path d="M0 0 C0 1.65 0 3.3 0 5 C-0.33 4.01 -0.66 3.02 -1 2 C-1.66 2 -2.32 2 -3 2 C-3.33 2.99 -3.66 3.98 -4 5 C-4.33 4.34 -4.66 3.68 -5 3 C-5.350625 3.495 -5.70125 3.99 -6.0625 4.5 C-8.94374289 6.73063966 -11.47009026 6.19980621 -15 6 C-15 6.66 -15 7.32 -15 8 C-15.66 8 -16.32 8 -17 8 C-17 5.69 -17 3.38 -17 1 C-16.02160156 1.01740234 -16.02160156 1.01740234 -15.0234375 1.03515625 C-9.95343756 1.08750138 -4.96553218 0 0 0 Z " fill="#DDA7C7" transform="translate(290,286)"/>
<path d="M0 0 C5.94 0.33 11.88 0.66 18 1 C17.67 1.99 17.34 2.98 17 4 C11.72 4 6.44 4 1 4 C1 5.65 1 7.3 1 9 C0.67 8.34 0.34 7.68 0 7 C-0.66 6.67 -1.32 6.34 -2 6 C-1.34 4.02 -0.68 2.04 0 0 Z " fill="#544C8A" transform="translate(56,236)"/>
<path d="M0 0 C1.37478516 0.01740234 1.37478516 0.01740234 2.77734375 0.03515625 C3.69644531 0.04417969 4.61554688 0.05320313 5.5625 0.0625 C6.27277344 0.07410156 6.98304688 0.08570313 7.71484375 0.09765625 C7.71484375 1.74765625 7.71484375 3.39765625 7.71484375 5.09765625 C2.04817708 5.09765625 -3.61848958 5.09765625 -9.28515625 5.09765625 C-9.61515625 3.77765625 -9.94515625 2.45765625 -10.28515625 1.09765625 C-9.15078125 1.11828125 -8.01640625 1.13890625 -6.84765625 1.16015625 C-3.1101122 1.0945853 -3.25103022 0.13893292 0 0 Z " fill="#7E9BAB" transform="translate(234.28515625,147.90234375)"/>
<path d="M0 0 C0.99 0.33 1.98 0.66 3 1 C3 2.65 3 4.3 3 6 C2.67 5.01 2.34 4.02 2 3 C1.34 3 0.68 3 0 3 C0 3.99 0 4.98 0 6 C-5.94 6.495 -5.94 6.495 -12 7 C-12 5.35 -12 3.7 -12 2 C-7.48571429 0.87142857 -7.48571429 0.87142857 -4.875 1.5625 C-4.25625 1.706875 -3.6375 1.85125 -3 2 C-2.01 1.34 -1.02 0.68 0 0 Z " fill="#BBB7D1" transform="translate(121,296)"/>
<path d="M0 0 C0.70125 0.350625 1.4025 0.70125 2.125 1.0625 C5.50268586 2.1639193 7.58080593 1.79516141 11 1 C11.33 2.65 11.66 4.3 12 6 C6 6 0 6 -6 6 C-6.33 4.68 -6.66 3.36 -7 2 C-6.21625 2.04125 -5.4325 2.0825 -4.625 2.125 C-1.83883881 2.28728734 -1.83883881 2.28728734 0 0 Z " fill="#93ACB9" transform="translate(195,147)"/>
<path d="M0 0 C0 1.65 0 3.3 0 5 C-5.33333333 5 -10.66666667 5 -16 5 C-15.67 3.35 -15.34 1.7 -15 0 C-13.14375 0.0309375 -13.14375 0.0309375 -11.25 0.0625 C-7.17095853 0.07688815 -3.86618566 -1.28872855 0 0 Z " fill="#DDA7C7" transform="translate(248,287)"/>
<path d="M0 0 C0.99 -0.33 1.98 -0.66 3 -1 C4.66621616 -1.03874921 6.33394172 -1.0450286 8 -1 C7.67 0.65 7.34 2.3 7 4 C5.37509046 4.02698189 3.75005367 4.04638757 2.125 4.0625 C1.22007812 4.07410156 0.31515625 4.08570313 -0.6171875 4.09765625 C-3 4 -3 4 -5 3 C-5.66 3.66 -6.32 4.32 -7 5 C-7.33 3.35 -7.66 1.7 -8 0 C-4.65367153 -1.11544282 -3.36086161 -0.67217232 0 0 Z " fill="#9994BA" transform="translate(161,288)"/>
<path d="M0 0 C3.3 0 6.6 0 10 0 C10 0.99 10 1.98 10 3 C10.66 3 11.32 3 12 3 C12 2.01 12 1.02 12 0 C13.32 0 14.64 0 16 0 C15.67 1.32 15.34 2.64 15 4 C8.46919431 5.13033175 8.46919431 5.13033175 5.75 4.375 C4.88375 4.189375 4.88375 4.189375 4 4 C2.22809091 5.35444301 2.22809091 5.35444301 1 7 C0.67 4.69 0.34 2.38 0 0 Z " fill="#DDA7C7" transform="translate(255,287)"/>
<path d="M0 0 C1.485 0.99 1.485 0.99 3 2 C5.41150258 2.31662439 5.41150258 2.31662439 8 2.25 C9.299375 2.25773438 9.299375 2.25773438 10.625 2.265625 C13.265795 2.15414552 13.265795 2.15414552 16 0 C16 1.65 16 3.3 16 5 C12.36201572 7.37868203 10.15070952 6.76237522 6 6 C3.23135047 6.36858988 3.23135047 6.36858988 1 7 C0.67 4.69 0.34 2.38 0 0 Z " fill="#EDF1F3" transform="translate(192,219)"/>
<path d="M0 0 C0.33 0.66 0.66 1.32 1 2 C2.78265886 3.3498008 2.78265886 3.3498008 5 4 C7.23470405 3.21690533 7.23470405 3.21690533 9 2 C9.66 2.66 10.32 3.32 11 4 C10.814375 4.639375 10.62875 5.27875 10.4375 5.9375 C10.293125 6.618125 10.14875 7.29875 10 8 C11.39588754 9.64594139 11.39588754 9.64594139 13 11 C13 11.66 13 12.32 13 13 C12.01 13.33 11.02 13.66 10 14 C9.5875 13.4225 9.175 12.845 8.75 12.25 C6.97717788 9.97065728 5.07316651 8.00629017 3 6 C1.66666667 4.66666667 0.33333333 3.33333333 -1 2 C-0.67 1.34 -0.34 0.68 0 0 Z " fill="#F8CDDA" transform="translate(377,207)"/>
<path d="M0 0 C0.33 1.32 0.66 2.64 1 4 C-3.0527516 4.98248524 -6.83861737 5.08159574 -11 5 C-11.33 3.68 -11.66 2.36 -12 1 C-7.67265609 -1.22923777 -4.71599818 -0.92470553 0 0 Z " fill="#7191A3" transform="translate(242,159)"/>
<path d="M0 0 C3.3 0 6.6 0 10 0 C10 0.33 10 0.66 10 1 C7.36 1 4.72 1 2 1 C2 1.99 2 2.98 2 4 C2.99 4 3.98 4 5 4 C5 5.98 5 7.96 5 10 C2.69 10 0.38 10 -2 10 C-2 8.02 -2 6.04 -2 4 C-1.34 4 -0.68 4 0 4 C0 2.68 0 1.36 0 0 Z " fill="#FBF5F9" transform="translate(325,242)"/>
<path d="M0 0 C0 1.65 0 3.3 0 5 C-10.44520548 6.36986301 -10.44520548 6.36986301 -14 4 C-13.67 3.01 -13.34 2.02 -13 1 C-12.07767578 1.01740234 -12.07767578 1.01740234 -11.13671875 1.03515625 C-9.92435547 1.04869141 -9.92435547 1.04869141 -8.6875 1.0625 C-7.88699219 1.07410156 -7.08648437 1.08570313 -6.26171875 1.09765625 C-4.03374946 1.00145723 -2.16405907 0 0 0 Z " fill="#DDA6C6" transform="translate(264,297)"/>
<path d="M0 0 C1.92578125 0.0859375 1.92578125 0.0859375 4.3125 0.375 C5.09238281 0.46523438 5.87226563 0.55546875 6.67578125 0.6484375 C8.83392672 0.97487967 10.89423359 1.43139488 13 2 C12.67 2.99 12.34 3.98 12 5 C12 4.34 12 3.68 12 3 C11.34 3 10.68 3 10 3 C10 3.66 10 4.32 10 5 C7.6875 5.6875 7.6875 5.6875 5 6 C3.1875 4.5625 3.1875 4.5625 2 3 C1.34 3.66 0.68 4.32 0 5 C-2 5 -4 5 -6 5 C-5.67 4.01 -5.34 3.02 -5 2 C-3 1.375 -3 1.375 -1 1 C-0.67 0.67 -0.34 0.34 0 0 Z " fill="#B8B4CF" transform="translate(154,275)"/>
<path d="M0 0 C11.5 0 11.5 0 15 1 C14.67 2.32 14.34 3.64 14 5 C12.14375 4.7215625 12.14375 4.7215625 10.25 4.4375 C7.20647507 4.05033782 4.9390148 3.98264872 2 5 C1.34 5 0.68 5 0 5 C0 3.35 0 1.7 0 0 Z " fill="#ABA6C6" transform="translate(126,276)"/>
<path d="M0 0 C2.31 0.66 4.62 1.32 7 2 C6.67 3.65 6.34 5.3 6 7 C4.9275 6.79375 3.855 6.5875 2.75 6.375 C-0.87619096 6.0123809 -2.08291076 6.01637931 -5 8 C-5 6.02 -5 4.04 -5 2 C-4.67 2.99 -4.34 3.98 -4 5 C-3.34 5 -2.68 5 -2 5 C-1.67 4.01 -1.34 3.02 -1 2 C-0.67 1.34 -0.34 0.68 0 0 Z " fill="#D2D0E1" transform="translate(139,259)"/>
<path d="M0 0 C2.31 0.33 4.62 0.66 7 1 C7.33 2.32 7.66 3.64 8 5 C4.30458414 5.95024979 1.69541586 5.95024979 -2 5 C-2 4.34 -2 3.68 -2 3 C-2.66 3 -3.32 3 -4 3 C-4.33 3.66 -4.66 4.32 -5 5 C-4.67 3.68 -4.34 2.36 -4 1 C-2.02 1.495 -2.02 1.495 0 2 C0 1.34 0 0.68 0 0 Z " fill="#D898BE" transform="translate(296,286)"/>
<path d="M0 0 C3 1 3 1 4.1875 2.875 C5 5 5 5 5 8 C-1.75 10.125 -1.75 10.125 -4 9 C-2.94124926 5.59687262 -1.99097846 2.98646769 0 0 Z " fill="#ECCCD3" transform="translate(109,367)"/>
<path d="M0 0 C1.51400391 0.01740234 1.51400391 0.01740234 3.05859375 0.03515625 C4.07050781 0.04417969 5.08242187 0.05320312 6.125 0.0625 C7.29869141 0.07990234 7.29869141 0.07990234 8.49609375 0.09765625 C8.16609375 1.74765625 7.83609375 3.39765625 7.49609375 5.09765625 C4.19609375 5.09765625 0.89609375 5.09765625 -2.50390625 5.09765625 C-2.83390625 3.77765625 -3.16390625 2.45765625 -3.50390625 1.09765625 C-2.50390625 0.09765625 -2.50390625 0.09765625 0 0 Z " fill="#AEAAC8" transform="translate(72.50390625,275.90234375)"/>
<path d="M0 0 C0.87011719 0.10828125 0.87011719 0.10828125 1.7578125 0.21875 C6.20087574 0.7466387 10.51631578 1.11496626 15 1 C15 2.32 15 3.64 15 5 C13.56359829 5.19573608 12.12580496 5.38127816 10.6875 5.5625 C9.88699219 5.66691406 9.08648437 5.77132812 8.26171875 5.87890625 C6 6 6 6 3 5 C3 4.01 3 3.02 3 2 C2.34 2 1.68 2 1 2 C0.67 2.99 0.34 3.98 0 5 C0 3.35 0 1.7 0 0 Z " fill="#8CA7B5" transform="translate(184,169)"/>
<path d="M0 0 C0.66 -0.33 1.32 -0.66 2 -1 C2 0.65 2 2.3 2 4 C-5.42857143 5.28571429 -5.42857143 5.28571429 -9 4 C-8.625 2.0625 -8.625 2.0625 -8 0 C-5.15247365 -1.42376318 -3.08125973 -0.51354329 0 0 Z " fill="#B3AFCC" transform="translate(100,276)"/>
<path d="M0 0 C0.721875 0.185625 1.44375 0.37125 2.1875 0.5625 C5.16662935 1.02592012 7.08993911 0.67155251 10 0 C11.32 0 12.64 0 14 0 C14 1.65 14 3.3 14 5 C11 5 11 5 8 4 C8 3.34 8 2.68 8 2 C7.34 2 6.68 2 6 2 C5.67 2.66 5.34 3.32 5 4 C3.35636866 4.72159424 1.68949614 5.39351421 0 6 C0 4.02 0 2.04 0 0 Z " fill="#8CA6B5" transform="translate(213,159)"/>
<path d="M0 0 C0.33 1.32 0.66 2.64 1 4 C0.01 4.66 -0.98 5.32 -2 6 C-2.66 5.67 -3.32 5.34 -4 5 C-4.33 5.66 -4.66 6.32 -5 7 C-7 7 -9 7 -11 7 C-9.54588235 2.39529412 -9.54588235 2.39529412 -7.1875 0.6875 C-4.68810383 -0.09802451 -2.60506718 -0.14472595 0 0 Z " fill="#FFDFBA" transform="translate(245,341)"/>
<path d="M0 0 C0.33 0.99 0.66 1.98 1 3 C1.99 3.33 2.98 3.66 4 4 C4 5.98 4 7.96 4 10 C1.69 10 -0.62 10 -3 10 C-3 8.02 -3 6.04 -3 4 C-2.01 4 -1.02 4 0 4 C0 2.68 0 1.36 0 0 Z " fill="#F9F0F6" transform="translate(347,242)"/>
<path d="M0 0 C0 0.66 0 1.32 0 2 C-0.66 2 -1.32 2 -2 2 C-2 2.66 -2 3.32 -2 4 C-2.66 4 -3.32 4 -4 4 C-4 4.66 -4 5.32 -4 6 C-6 6 -6 6 -8.125 4 C-8.74375 3.34 -9.3625 2.68 -10 2 C-10.99 2.66 -11.98 3.32 -13 4 C-12.3125 1.5625 -12.3125 1.5625 -11 -1 C-6.90775344 -2.70510273 -3.99439176 -1.57917814 0 0 Z " fill="#F3C5CD" transform="translate(99,377)"/>
<path d="M0 0 C-0.33 1.98 -0.66 3.96 -1 6 C-1.33 5.01 -1.66 4.02 -2 3 C-2.66 3 -3.32 3 -4 3 C-4.33 3.99 -4.66 4.98 -5 6 C-7.0625 6.6875 -7.0625 6.6875 -9 7 C-9.66 5.68 -10.32 4.36 -11 3 C-7.72430636 -0.27569364 -4.48909309 -0.12469703 0 0 Z " fill="#9CB1BF" transform="translate(235,131)"/>
<path d="M0 0 C1 1 2 2 3 3 C3.33 2.34 3.66 1.68 4 1 C6 2 6 2 8 5 C6.68 6.32 5.36 7.64 4 9 C3.236875 8.34 2.47375 7.68 1.6875 7 C-0.84277939 4.70149462 -0.84277939 4.70149462 -4 5 C-3 2 -3 2 0 0 Z " fill="#DDCDDC" transform="translate(7,301)"/>
<path d="M0 0 C3.96 0 7.92 0 12 0 C12.33 0.66 12.66 1.32 13 2 C10.3775285 4.6224715 8.64976873 4.64217954 5 5 C2.125 4.5625 2.125 4.5625 0 4 C0 2.68 0 1.36 0 0 Z " fill="#88A4B3" transform="translate(211,170)"/>
<path d="M0 0 C1.8125 0.375 1.8125 0.375 4 1 C4.7425 1.185625 5.485 1.37125 6.25 1.5625 C6.8275 1.706875 7.405 1.85125 8 2 C7.67 2.66 7.34 3.32 7 4 C7.99 4.33 8.98 4.66 10 5 C10 5.33 10 5.66 10 6 C6.37 6 2.74 6 -1 6 C-1 1 -1 1 0 0 Z " fill="#6E8FA1" transform="translate(149,147)"/>
<path d="M0 0 C1.84765625 0.33984375 1.84765625 0.33984375 4.0625 0.9375 C5.16271484 1.22947266 5.16271484 1.22947266 6.28515625 1.52734375 C7.13400391 1.76130859 7.13400391 1.76130859 8 2 C7.67 3.32 7.34 4.64 7 6 C3.98968256 6.93423645 3.13349732 7.04449911 0 6 C-0.38218767 4.34385343 -0.71395102 2.67542976 -1 1 C-0.67 0.67 -0.34 0.34 0 0 Z " fill="#9CB2BF" transform="translate(190,131)"/>
<path d="M0 0 C0 1.98 0 3.96 0 6 C-2.31 6 -4.62 6 -7 6 C-7 4.02 -7 2.04 -7 0 C-3.86650268 -1.04449911 -3.01031744 -0.93423645 0 0 Z " fill="#FDFAFC" transform="translate(340,246)"/>
<path d="M0 0 C0.99 0 1.98 0 3 0 C3.103125 0.598125 3.20625 1.19625 3.3125 1.8125 C4.08876455 4.28243264 5.07088921 5.32251235 7 7 C6.01 7 5.02 7 4 7 C4 8.65 4 10.3 4 12 C2.68 11.67 1.36 11.34 0 11 C-1.28571429 3.57142857 -1.28571429 3.57142857 0 0 Z " fill="#ABA7C6" transform="translate(52,239)"/>
<path d="M0 0 C3.46941546 0.45822468 6.67395049 0.89131683 10 2 C10 3.32 10 4.64 10 6 C6.7 6 3.4 6 0 6 C0 4.02 0 2.04 0 0 Z " fill="#7E9CAC" transform="translate(176,147)"/>
<path d="M0 0 C0.928125 0.165 1.85625 0.33 2.8125 0.5 C5.95621353 1.07748388 5.95621353 1.07748388 9 1 C9 2.65 9 4.3 9 6 C5.37 6 1.74 6 -2 6 C-1.34 4.02 -0.68 2.04 0 0 Z " fill="#DEA9C8" transform="translate(235,275)"/>
<path d="M0 0 C0.99 0.495 0.99 0.495 2 1 C2 1.66 2 2.32 2 3 C2.66 3 3.32 3 4 3 C4.33 2.01 4.66 1.02 5 0 C6.32 0.99 7.64 1.98 9 3 C8.67 3.66 8.34 4.32 8 5 C8.66 5 9.32 5 10 5 C10 4.01 10 3.02 10 2 C10.66 2 11.32 2 12 2 C12 3.32 12 4.64 12 6 C8.04 6 4.08 6 0 6 C0 4.02 0 2.04 0 0 Z " fill="#F4E4EE" transform="translate(233,259)"/>
<path d="M0 0 C2.31 0.33 4.62 0.66 7 1 C7.33 2.32 7.66 3.64 8 5 C5.69 5.66 3.38 6.32 1 7 C0 6 0 6 -0.0625 2.9375 C-0.041875 1.968125 -0.02125 0.99875 0 0 Z " fill="#E6BFD7" transform="translate(287,259)"/>
<path d="M0 0 C3.3 0 6.6 0 10 0 C10 0.99 10 1.98 10 3 C10.66 3 11.32 3 12 3 C12.33 2.01 12.66 1.02 13 0 C13 1.32 13 2.64 13 4 C9.66666667 4 6.33333333 4 3 4 C2.01 4.495 2.01 4.495 1 5 C0.67 3.35 0.34 1.7 0 0 Z " fill="#A4BAC5" transform="translate(209,149)"/>
<path d="M0 0 C2.125 0.9375 2.125 0.9375 4 2 C4.66 1.67 5.32 1.34 6 1 C5.34 2.98 4.68 4.96 4 7 C3.34 6.34 2.68 5.68 2 5 C-0.60280568 5.32041397 -0.60280568 5.32041397 -3 6 C-3.33 4.68 -3.66 3.36 -4 2 C-2.25 0.875 -2.25 0.875 0 0 Z " fill="#B1ADCA" transform="translate(118,275)"/>
<path d="M0 0 C0.66 0.66 1.32 1.32 2 2 C-0.35013847 5.7863342 -2.87660726 7.36782371 -7 9 C-7.99 8.67 -8.98 8.34 -10 8 C-7.32187053 4.23078075 -5.40524374 2.4287277 -1 1 C-0.67 0.67 -0.34 0.34 0 0 Z " fill="#E9D6D0" transform="translate(176,332)"/>
<path d="M0 0 C2.31 0.66 4.62 1.32 7 2 C6.34 3.32 5.68 4.64 5 6 C2.03 6 -0.94 6 -4 6 C-3.01 5.67 -2.02 5.34 -1 5 C-0.67 3.35 -0.34 1.7 0 0 Z " fill="#D28CB6" transform="translate(313,297)"/>
<path d="M0 0 C3.94779314 0 6.3962102 0.47839986 10 2 C10.33 2.99 10.66 3.98 11 5 C10.113125 4.814375 9.22625 4.62875 8.3125 4.4375 C5.14821189 4.01957516 3.05160358 4.19222258 0 5 C-0.5625 3.0625 -0.5625 3.0625 -1 1 C-0.67 0.67 -0.34 0.34 0 0 Z " fill="#DA9FC2" transform="translate(308,276)"/>
<path d="M0 0 C0.66 0.66 1.32 1.32 2 2 C3.67422986 1.70700977 5.34178227 1.37309899 7 1 C7.66 1.33 8.32 1.66 9 2 C8.67 3.32 8.34 4.64 8 6 C4.80097361 6.08886184 2.07322544 5.91058531 -1 5 C-0.67 3.35 -0.34 1.7 0 0 Z " fill="#DDA6C7" transform="translate(326,286)"/>
<path d="M0 0 C2.97 0 5.94 0 9 0 C9 1.65 9 3.3 9 5 C8.46375 4.835 7.9275 4.67 7.375 4.5 C4.54113991 3.90339788 1.8880194 3.9343632 -1 4 C-0.67 2.68 -0.34 1.36 0 0 Z " fill="#DFADCB" transform="translate(266,298)"/>
<path d="M0 0 C0 1.98 0 3.96 0 6 C-2.97 5.505 -2.97 5.505 -6 5 C-6 4.34 -6 3.68 -6 3 C-6.66 3 -7.32 3 -8 3 C-8.33 3.66 -8.66 4.32 -9 5 C-9 3.68 -9 2.36 -9 1 C-1.125 0 -1.125 0 0 0 Z " fill="#DFABCA" transform="translate(284,275)"/>
<path d="M0 0 C0 1.65 0 3.3 0 5 C-2.31 5.33 -4.62 5.66 -7 6 C-7 4.02 -7 2.04 -7 0 C-2.25 -1.125 -2.25 -1.125 0 0 Z " fill="#9CB2BF" transform="translate(187,132)"/>
<path d="M0 0 C3.37705625 0.53725895 6.696686 1.11064623 10 2 C10 2.99 10 3.98 10 5 C6.7 5 3.4 5 0 5 C0 3.35 0 1.7 0 0 Z " fill="#D898BE" transform="translate(247,276)"/>
<path d="M0 0 C0 1.98 0 3.96 0 6 C-2.64 6 -5.28 6 -8 6 C-8.33 4.68 -8.66 3.36 -9 2 C-8.67 2.66 -8.34 3.32 -8 4 C-7.34 4 -6.68 4 -6 4 C-5.67 3.01 -5.34 2.02 -5 1 C-3.28960011 0.41205004 -1.81522119 0 0 0 Z " fill="#87A2B2" transform="translate(179,158)"/>
<path d="M0 0 C0.33 0.99 0.66 1.98 1 3 C-0.28965176 4.37562854 -1.62689293 5.70766393 -3 7 C-3.66 7 -4.32 7 -5 7 C-5 6.34 -5 5.68 -5 5 C-4.34 5 -3.68 5 -3 5 C-3 4.34 -3 3.68 -3 3 C-2.34 3 -1.68 3 -1 3 C-0.67 2.01 -0.34 1.02 0 0 Z M-7 7 C-6.34 7 -5.68 7 -5 7 C-5 7.66 -5 8.32 -5 9 C-5.66 9 -6.32 9 -7 9 C-7 8.34 -7 7.68 -7 7 Z M-8 9 C-7.67 9.66 -7.34 10.32 -7 11 C-7.66 10.67 -8.32 10.34 -9 10 C-8.67 9.67 -8.34 9.34 -8 9 Z M-11 11 C-10.01 11.33 -9.02 11.66 -8 12 C-8.99 12.66 -9.98 13.32 -11 14 C-11 13.01 -11 12.02 -11 11 Z M-13 15 C-12.67 15.66 -12.34 16.32 -12 17 C-12.66 16.67 -13.32 16.34 -14 16 C-13.67 15.67 -13.34 15.34 -13 15 Z " fill="#EED5BB" transform="translate(171,353)"/>
<path d="M0 0 C2.475 0.99 2.475 0.99 5 2 C5 3.98 5 5.96 5 8 C3.35 8 1.7 8 0 8 C0 5.36 0 2.72 0 0 Z " fill="#E6BFD7" transform="translate(257,258)"/>
<path d="M0 0 C2.97 0 5.94 0 9 0 C9 1.32 9 2.64 9 4 C6.03 4 3.06 4 0 4 C0 2.68 0 1.36 0 0 Z " fill="#DEABC9" transform="translate(287,298)"/>
<path d="M0 0 C1.65 0 3.3 0 5 0 C5 0.66 5 1.32 5 2 C5.66 2 6.32 2 7 2 C7 3.32 7 4.64 7 6 C3.98968256 6.93423645 3.13349732 7.04449911 0 6 C0 4.02 0 2.04 0 0 Z " fill="#D5D3E3" transform="translate(87,259)"/>
<path d="M0 0 C1.98 0 3.96 0 6 0 C6.33 1.32 6.66 2.64 7 4 C2.25 5 2.25 5 0 5 C0 3.35 0 1.7 0 0 Z " fill="#A7A2C4" transform="translate(98,287)"/>
<path d="M0 0 C1.98 0 3.96 0 6 0 C6.33 1.32 6.66 2.64 7 4 C2.25 5 2.25 5 0 5 C0 3.35 0 1.7 0 0 Z " fill="#DAA1C3" transform="translate(329,276)"/>
<path d="M0 0 C1.134375 0.020625 2.26875 0.04125 3.4375 0.0625 C3.1075 1.7125 2.7775 3.3625 2.4375 5.0625 C0.4575 5.0625 -1.5225 5.0625 -3.5625 5.0625 C-4.125 3.125 -4.125 3.125 -4.5625 1.0625 C-3.5625 0.0625 -3.5625 0.0625 0 0 Z " fill="#9E99BD" transform="translate(75.5625,286.9375)"/>
<path d="M0 0 C0 1.65 0 3.3 0 5 C-1.98 5.33 -3.96 5.66 -6 6 C-6.33 4.68 -6.66 3.36 -7 2 C-1.125 0 -1.125 0 0 0 Z " fill="#DCA4C5" transform="translate(293,275)"/>
<path d="M0 0 C0.33 2.31 0.66 4.62 1 7 C-0.65 7 -2.3 7 -4 7 C-4.33 5.35 -4.66 3.7 -5 2 C-1.125 0 -1.125 0 0 0 Z " fill="#93ACBA" transform="translate(205,131)"/>
<path d="M0 0 C0.66 0 1.32 0 2 0 C2.33 0.99 2.66 1.98 3 3 C3.99 3.33 4.98 3.66 6 4 C6 6.31 6 8.62 6 11 C5.01 10.67 4.02 10.34 3 10 C2.64587656 8.67203709 2.31478446 7.33783393 2 6 C0.52109931 4.26973898 0.52109931 4.26973898 -1 3 C-0.67 2.01 -0.34 1.02 0 0 Z " fill="#FABCC5" transform="translate(75,378)"/>
<path d="M0 0 C0.66 0 1.32 0 2 0 C2 0.99 2 1.98 2 3 C3.32 2.34 4.64 1.68 6 1 C6 1.99 6 2.98 6 4 C6.66 4 7.32 4 8 4 C8.33 3.34 8.66 2.68 9 2 C9 2.99 9 3.98 9 5 C6.03 5 3.06 5 0 5 C-0.33 3.68 -0.66 2.36 -1 1 C-0.67 0.67 -0.34 0.34 0 0 Z " fill="#D899BE" transform="translate(307,287)"/>
<path d="M0 0 C0 1.65 0 3.3 0 5 C-2.875 5.1875 -2.875 5.1875 -6 5 C-6.66 4.01 -7.32 3.02 -8 2 C-5.09399739 0.74335022 -3.20395416 0 0 0 Z " fill="#9C97BC" transform="translate(135,287)"/>
<path d="M0 0 C2.31 0.33 4.62 0.66 7 1 C7 1.99 7 2.98 7 4 C8.32 4.33 9.64 4.66 11 5 C8.69 5 6.38 5 4 5 C4 4.01 4 3.02 4 2 C3.34 2 2.68 2 2 2 C2 2.99 2 3.98 2 5 C1.34 5 0.68 5 0 5 C0 3.35 0 1.7 0 0 Z " fill="#EFD8E7" transform="translate(297,260)"/>
<path d="M0 0 C0 1.65 0 3.3 0 5 C-1.65 5.33 -3.3 5.66 -5 6 C-5.66 4.68 -6.32 3.36 -7 2 C-2.25 0 -2.25 0 0 0 Z " fill="#7D9BAB" transform="translate(183,169)"/>
<path d="M0 0 C2.31 0.66 4.62 1.32 7 2 C6.67 2.99 6.34 3.98 6 5 C4.02 5.33 2.04 5.66 0 6 C0 4.02 0 2.04 0 0 Z " fill="#7B99A9" transform="translate(202,169)"/>
<path d="M0 0 C3 1 3 1 5 2 C5 2.99 5 3.98 5 5 C2.69 5.66 0.38 6.32 -2 7 C-2 5.02 -2 3.04 -2 1 C-1.34 0.67 -0.68 0.34 0 0 Z " fill="#63869A" transform="translate(197,159)"/>
<path d="M0 0 C0.99 0.33 1.98 0.66 3 1 C2.67 2.32 2.34 3.64 2 5 C-1.71599191 5.20086443 -2.77208445 5.1519437 -6 3 C-6 2.34 -6 1.68 -6 1 C-4 0 -4 0 0 0 Z " fill="#8EA8B6" transform="translate(162,148)"/>
<path d="M0 0 C2.31 0.66 4.62 1.32 7 2 C7 2.99 7 3.98 7 5 C4.69 5 2.38 5 0 5 C0 3.35 0 1.7 0 0 Z " fill="#DCA5C6" transform="translate(278,297)"/>
<path d="M0 0 C1.98 0 3.96 0 6 0 C6 1.32 6 2.64 6 4 C4.68 4 3.36 4 2 4 C1.67 4.66 1.34 5.32 1 6 C-0.32 5.67 -1.64 5.34 -3 5 C-2.01 5 -1.02 5 0 5 C0 3.35 0 1.7 0 0 Z " fill="#E2B4D0" transform="translate(306,298)"/>
<path d="M0 0 C0.66 -0.33 1.32 -0.66 2 -1 C1.67 0.32 1.34 1.64 1 3 C0.34 3 -0.32 3 -1 3 C-1 2.34 -1 1.68 -1 1 C-1.66 1 -2.32 1 -3 1 C-3.33 1.66 -3.66 2.32 -4 3 C-4.99 3.66 -5.98 4.32 -7 5 C-7.33 3.35 -7.66 1.7 -8 0 C-4.66991025 -1.11002992 -3.34016824 -0.68516272 0 0 Z " fill="#BCB8D2" transform="translate(161,288)"/>
<path d="M0 0 C-0.99 0.495 -0.99 0.495 -2 1 C-2 1.99 -2 2.98 -2 4 C-1.01 4.33 -0.02 4.66 1 5 C-1.31 5 -3.62 5 -6 5 C-6 3.35 -6 1.7 -6 0 C-3 -1 -3 -1 0 0 Z " fill="#9993B9" transform="translate(142,287)"/>
<path d="M0 0 C2.97 0.495 2.97 0.495 6 1 C6.33 1.99 6.66 2.98 7 4 C6 5 6 5 2.9375 5.0625 C1.4834375 5.0315625 1.4834375 5.0315625 0 5 C0 3.35 0 1.7 0 0 Z " fill="#908BB4" transform="translate(109,298)"/>
<path d="M0 0 C0 1.65 0 3.3 0 5 C-1.65 5.33 -3.3 5.66 -5 6 C-5.33 4.68 -5.66 3.36 -6 2 C-1.125 0 -1.125 0 0 0 Z " fill="#7C9AAA" transform="translate(236,158)"/>
<path d="M0 0 C-0.33 1.65 -0.66 3.3 -1 5 C-2.65 5 -4.3 5 -6 5 C-6 3.35 -6 1.7 -6 0 C-3 -1 -3 -1 0 0 Z " fill="#618598" transform="translate(171,159)"/>
<path d="M0 0 C2.97 0 5.94 0 9 0 C9 1.32 9 2.64 9 4 C5.53058454 3.54177532 2.32604951 3.10868317 -1 2 C-0.67 1.34 -0.34 0.68 0 0 Z " fill="#DFD4DE" transform="translate(122,338)"/>
<path d="M0 0 C-0.33 0.66 -0.66 1.32 -1 2 C-1 2.99 -1 3.98 -1 5 C-4.11257569 5 -6.10765685 4.82638376 -9 4 C-8.67 3.01 -8.34 2.02 -8 1 C-5.07175348 0.02391783 -3.04386724 -0.08226668 0 0 Z " fill="#B9B5D0" transform="translate(130,287)"/>
<path d="M0 0 C2.475 0.495 2.475 0.495 5 1 C5.33 2.32 5.66 3.64 6 5 C3 6 3 6 0 5 C0 3.35 0 1.7 0 0 Z " fill="#A6A1C2" transform="translate(83,275)"/>
<path d="M0 0 C0.99 0.33 1.98 0.66 3 1 C2.34 2.65 1.68 4.3 1 6 C-0.32 5.67 -1.64 5.34 -3 5 C-2.625 3.0625 -2.625 3.0625 -2 1 C-1.34 0.67 -0.68 0.34 0 0 Z " fill="#A49FC1" transform="translate(94,275)"/>
<path d="M0 0 C2.475 0.495 2.475 0.495 5 1 C5 2.65 5 4.3 5 6 C3.35 6.33 1.7 6.66 0 7 C0 4.69 0 2.38 0 0 Z " fill="#CFCCDF" transform="translate(110,259)"/>
<path d="M0 0 C1.32 0 2.64 0 4 0 C3.67 1.32 3.34 2.64 3 4 C2.34 4 1.68 4 1 4 C0.67 4.66 0.34 5.32 0 6 C-1.32 5.67 -2.64 5.34 -4 5 C-2.25 2.5 -2.25 2.5 0 0 Z " fill="#E5D9D9" transform="translate(168,326)"/>
<path d="M0 0 C1.98 0 3.96 0 6 0 C5.67 1.65 5.34 3.3 5 5 C3.35 5 1.7 5 0 5 C0 3.35 0 1.7 0 0 Z " fill="#9F9BBE" transform="translate(135,276)"/>
<path d="M0 0 C0.99 0.33 1.98 0.66 3 1 C2.67 1.99 2.34 2.98 2 4 C-0.64 4.33 -3.28 4.66 -6 5 C-6.33 4.01 -6.66 3.02 -7 2 C-6.030625 1.855625 -5.06125 1.71125 -4.0625 1.5625 C-1.13513227 1.32437659 -1.13513227 1.32437659 0 0 Z " fill="#E0D5DC" transform="translate(143,335)"/>
<path d="M0 0 C0.99 0.66 1.98 1.32 3 2 C2.34 2 1.68 2 1 2 C1 2.99 1 3.98 1 5 C-0.65 5.33 -2.3 5.66 -4 6 C-3.67 4.35 -3.34 2.7 -3 1 C-2.01 0.67 -1.02 0.34 0 0 Z " fill="#B5B0CD" transform="translate(111,286)"/>
<path d="M0 0 C1.32 0 2.64 0 4 0 C3.67 1.65 3.34 3.3 3 5 C1.68 4.67 0.36 4.34 -1 4 C-0.67 2.68 -0.34 1.36 0 0 Z " fill="#DBA1C3" transform="translate(296,276)"/>
<path d="M0 0 C2.31 0.66 4.62 1.32 7 2 C7 2.99 7 3.98 7 5 C6.34 5 5.68 5 5 5 C4.67 4.34 4.34 3.68 4 3 C3.67 3.66 3.34 4.32 3 5 C2.01 5 1.02 5 0 5 C0 3.35 0 1.7 0 0 Z " fill="#B2AECB" transform="translate(103,275)"/>
<path d="M0 0 C1.32 0.33 2.64 0.66 4 1 C4 2.65 4 4.3 4 6 C2.68 6 1.36 6 0 6 C0 4.02 0 2.04 0 0 Z " fill="#CCC9DD" transform="translate(118,259)"/>
<path d="M0 0 C0.66 0.66 1.32 1.32 2 2 C0.71034824 3.37562854 -0.62689293 4.70766393 -2 6 C-2.66 6 -3.32 6 -4 6 C-4.33 6.66 -4.66 7.32 -5 8 C-5 6.68 -5 5.36 -5 4 C-2.5 1.75 -2.5 1.75 0 0 Z " fill="#E4D2D1" transform="translate(143,352)"/>
<path d="M0 0 C0.99 0.33 1.98 0.66 3 1 C3.8125 2.875 3.8125 2.875 4 5 C3.01 6.485 3.01 6.485 2 8 C1.34 8 0.68 8 0 8 C0 5.36 0 2.72 0 0 Z " fill="#DDD1DD" transform="translate(0,298)"/>
<path d="M0 0 C1.32 0 2.64 0 4 0 C4 1.98 4 3.96 4 6 C2.68 5.67 1.36 5.34 0 5 C0 3.35 0 1.7 0 0 Z " fill="#A6A1C2" transform="translate(64,286)"/>
<path d="M0 0 C1.65 0 3.3 0 5 0 C4.67 1.65 4.34 3.3 4 5 C2.68 4.34 1.36 3.68 0 3 C0 2.01 0 1.02 0 0 Z " fill="#A29DBF" transform="translate(76,276)"/>
<path d="M0 0 C0.99 0.33 1.98 0.66 3 1 C2.67 2.32 2.34 3.64 2 5 C0.35 5 -1.3 5 -3 5 C-2.01 3.35 -1.02 1.7 0 0 Z " fill="#DCA4C5" transform="translate(264,276)"/>
<path d="M0 0 C1.65 0 3.3 0 5 0 C5 1.98 5 3.96 5 6 C4.34 6 3.68 6 3 6 C3 4.68 3 3.36 3 2 C2.34 2 1.68 2 1 2 C0.67 2.99 0.34 3.98 0 5 C0 3.35 0 1.7 0 0 Z " fill="#CFCCDF" transform="translate(125,260)"/>
<path d="M0 0 C1.98 0.66 3.96 1.32 6 2 C5.67 2.99 5.34 3.98 5 5 C5 4.34 5 3.68 5 3 C4.34 3 3.68 3 3 3 C3 3.66 3 4.32 3 5 C2.01 5 1.02 5 0 5 C0 3.35 0 1.7 0 0 Z " fill="#89A5B3" transform="translate(186,158)"/>
<path d="M0 0 C0.66 0 1.32 0 2 0 C2.66 1.65 3.32 3.3 4 5 C2.68 5.33 1.36 5.66 0 6 C-0.66 4.68 -1.32 3.36 -2 2 C-1.34 1.34 -0.68 0.68 0 0 Z " fill="#E4C5D4" transform="translate(19,323)"/>
<path d="M0 0 C2 3 2 3 2 6 C0.02 6 -1.96 6 -4 6 C-3.67 4.68 -3.34 3.36 -3 2 C-2.01 2 -1.02 2 0 2 C0 1.34 0 0.68 0 0 Z " fill="#6B639A" transform="translate(117,260)"/>
<path d="M0 0 C2.33944736 0.28730055 4.6739143 0.61936779 7 1 C6.67 2.32 6.34 3.64 6 5 C5.01 5 4.02 5 3 5 C3 4.34 3 3.68 3 3 C1.68 2.34 0.36 1.68 -1 1 C-0.67 0.67 -0.34 0.34 0 0 Z " fill="#DFADCB" transform="translate(313,259)"/>
<path d="M0 0 C1.65 0 3.3 0 5 0 C4.67 1.98 4.34 3.96 4 6 C3.67 5.01 3.34 4.02 3 3 C2.34 3 1.68 3 1 3 C0.67 3.99 0.34 4.98 0 6 C0 4.02 0 2.04 0 0 Z " fill="#DCE1E9" transform="translate(230,131)"/>
<path d="M0 0 C6.75 1.875 6.75 1.875 9 3 C9 3.66 9 4.32 9 5 C4.545 4.01 4.545 4.01 0 3 C0 2.01 0 1.02 0 0 Z " fill="#F9B5BF" transform="translate(37,364)"/>
<path d="M0 0 C0.33 0.66 0.66 1.32 1 2 C0.34 1.67 -0.32 1.34 -1 1 C-0.67 0.67 -0.34 0.34 0 0 Z M-8 4 C-6.68 4.33 -5.36 4.66 -4 5 C-5.485 6.485 -5.485 6.485 -7 8 C-7.99 7.67 -8.98 7.34 -10 7 C-9.34 6.67 -8.68 6.34 -8 6 C-8 5.34 -8 4.68 -8 4 Z " fill="#FFD483" transform="translate(268,364)"/>
<path d="M0 0 C0.66 0.66 1.32 1.32 2 2 C0.02 2.99 0.02 2.99 -2 4 C-1.34 2.68 -0.68 1.36 0 0 Z M-5 4 C-4.34 4.33 -3.68 4.66 -3 5 C-3 5.66 -3 6.32 -3 7 C-4.32 7.33 -5.64 7.66 -7 8 C-6.34 6.68 -5.68 5.36 -5 4 Z " fill="#E4D2D0" transform="translate(152,345)"/>
<path d="M0 0 C1.65 0 3.3 0 5 0 C5 1.65 5 3.3 5 5 C4.34 4.67 3.68 4.34 3 4 C2.01 4.33 1.02 4.66 0 5 C0 3.35 0 1.7 0 0 Z " fill="#E2B4CF" transform="translate(269,275)"/>
<path d="M0 0 C2.31 0.33 4.62 0.66 7 1 C7 1.66 7 2.32 7 3 C6.38125 3.144375 5.7625 3.28875 5.125 3.4375 C2.96741678 3.93152225 2.96741678 3.93152225 1 5 C0.67 3.35 0.34 1.7 0 0 Z " fill="#7F9BAC" transform="translate(209,149)"/>
<path d="M0 0 C2.64 0 5.28 0 8 0 C7.67 0.99 7.34 1.98 7 3 C6.401875 2.814375 5.80375 2.62875 5.1875 2.4375 C2.83591238 1.77906313 2.83591238 1.77906313 0 3 C0 2.01 0 1.02 0 0 Z " fill="#FFDDC2" transform="translate(252,326)"/>
<path d="M0 0 C0.33 0 0.66 0 1 0 C1 1.65 1 3.3 1 5 C0.01 5 -0.98 5 -2 5 C-2 4.34 -2 3.68 -2 3 C-2.66 3 -3.32 3 -4 3 C-4.33 3.66 -4.66 4.32 -5 5 C-4.67 3.68 -4.34 2.36 -4 1 C-2.02 1.495 -2.02 1.495 0 2 C0 1.34 0 0.68 0 0 Z " fill="#E2B4CF" transform="translate(296,286)"/>
<path d="M0 0 C1.2065625 0.0309375 1.2065625 0.0309375 2.4375 0.0625 C1.7775 1.3825 1.1175 2.7025 0.4375 4.0625 C0.4375 3.4025 0.4375 2.7425 0.4375 2.0625 C-0.2225 2.0625 -0.8825 2.0625 -1.5625 2.0625 C-1.8925 2.7225 -2.2225 3.3825 -2.5625 4.0625 C-3.2225 4.0625 -3.8825 4.0625 -4.5625 4.0625 C-3.23463115 0.07889344 -3.23463115 0.07889344 0 0 Z " fill="#BAB6D0" transform="translate(82.5625,286.9375)"/>
<path d="M0 0 C1.98 0 3.96 0 6 0 C5.01 0.495 5.01 0.495 4 1 C4 1.99 4 2.98 4 4 C2.68 4 1.36 4 0 4 C0 2.68 0 1.36 0 0 Z " fill="#E0AFCC" transform="translate(304,260)"/>
<path d="M0 0 C0.66 0 1.32 0 2 0 C2 1.98 2 3.96 2 6 C0.68 5.34 -0.64 4.68 -2 4 C-1.34 2.68 -0.68 1.36 0 0 Z " fill="#EAC8DC" transform="translate(266,260)"/>
<path d="M0 0 C2.475 0.495 2.475 0.495 5 1 C4.01 1.495 4.01 1.495 3 2 C3 2.66 3 3.32 3 4 C3.66 4.33 4.32 4.66 5 5 C3.35 5.33 1.7 5.66 0 6 C0 4.02 0 2.04 0 0 Z " fill="#BBB7D1" transform="translate(93,260)"/>
<path d="M0 0 C1.98 0 3.96 0 6 0 C6.33 0.66 6.66 1.32 7 2 C6.34 2 5.68 2 5 2 C4.67 2.66 4.34 3.32 4 4 C3.01 4 2.02 4 1 4 C0.67 2.68 0.34 1.36 0 0 Z " fill="#9CB3C0" transform="translate(224,149)"/>
<path d="M0 0 C0.33 1.65 0.66 3.3 1 5 C-1.97 4.505 -1.97 4.505 -5 4 C-5 3.34 -5 2.68 -5 2 C-2 0 -2 0 0 0 Z " fill="#7A97A7" transform="translate(206,148)"/>
<path d="M0 0 C0.66 0.33 1.32 0.66 2 1 C1.67 2.65 1.34 4.3 1 6 C0.01 6 -0.98 6 -2 6 C-2.33 4.35 -2.66 2.7 -3 1 C-2.01 0.67 -1.02 0.34 0 0 Z " fill="#FCC9CE" transform="translate(99,390)"/>
<path d="M0 0 C1.98 0.495 1.98 0.495 4 1 C3.34 2.32 2.68 3.64 2 5 C1.01 4.34 0.02 3.68 -1 3 C-0.67 2.01 -0.34 1.02 0 0 Z " fill="#DEABC9" transform="translate(316,298)"/>
<path d="M0 0 C1.65 0 3.3 0 5 0 C4.34 1.98 3.68 3.96 3 6 C2.67 5.01 2.34 4.02 2 3 C1.01 2.67 0.02 2.34 -1 2 C-0.67 1.34 -0.34 0.68 0 0 Z " fill="#DDA7C7" transform="translate(318,287)"/>
<path d="M0 0 C1.32 0.33 2.64 0.66 4 1 C4 2.32 4 3.64 4 5 C2.68 5 1.36 5 0 5 C0 3.35 0 1.7 0 0 Z " fill="#676097" transform="translate(68,287)"/>
<path d="M0 0 C0.33 0.66 0.66 1.32 1 2 C1.66 2 2.32 2 3 2 C3 2.99 3 3.98 3 5 C0.83125748 4.49396008 -0.99967627 4.00016187 -3 3 C-3 2.34 -3 1.68 -3 1 C-2.01 0.67 -1.02 0.34 0 0 Z " fill="#E4B9D2" transform="translate(318,275)"/>
<path d="M0 0 C0.99 0.33 1.98 0.66 3 1 C3 2.32 3 3.64 3 5 C1.68 4.67 0.36 4.34 -1 4 C-0.67 2.68 -0.34 1.36 0 0 Z " fill="#B2AECB" transform="translate(142,276)"/>
<path d="M0 0 C0.99 0.66 1.98 1.32 3 2 C2.67 2.99 2.34 3.98 2 5 C0.68 4.67 -0.64 4.34 -2 4 C-1.34 2.68 -0.68 1.36 0 0 Z " fill="#7E9BAB" transform="translate(249,148)"/>
</svg>
