<?xml version="1.0" encoding="UTF-8"?>
<svg version="1.1" xmlns="http://www.w3.org/2000/svg" width="400" height="400">
<path d="M0 0 C132 0 264 0 400 0 C400 132 400 264 400 400 C268 400 136 400 0 400 C0 268 0 136 0 0 Z " fill="#C3BEFA" transform="translate(0,0)"/>
<path d="M0 0 C2.09159347 3.1373902 2.2512002 3.84544831 2.26006222 7.41569328 C2.26712781 8.32426578 2.2741934 9.23283828 2.2814731 10.16894329 C2.27905802 11.16844072 2.27664293 12.16793815 2.27415466 13.19772339 C2.27939134 14.25848245 2.28462802 15.31924151 2.29002339 16.41214478 C2.30508484 19.98427345 2.30572989 23.55625966 2.30639648 27.12841797 C2.3140138 29.68229415 2.32244055 32.23616802 2.33161926 34.79003906 C2.35361251 41.74039525 2.36239102 48.69070177 2.36744571 55.64108801 C2.3707011 59.97981694 2.37722258 64.31853699 2.3844471 68.65726089 C2.40401395 80.66707257 2.42041787 92.67687599 2.42332363 104.68670464 C2.42360499 105.83977826 2.42360499 105.83977826 2.42389202 107.01614631 C2.42425828 108.57455579 2.42462198 110.13296528 2.42498314 111.69137476 C2.42525735 112.8517883 2.42525735 112.8517883 2.42553711 114.03564453 C2.42571766 114.81019632 2.42589821 115.5847481 2.42608423 116.38277115 C2.42962694 128.93727393 2.45665495 141.49160531 2.494035 154.04604863 C2.53209464 166.93170836 2.55148093 179.81728298 2.55178314 192.70300019 C2.55236822 199.93945434 2.56089219 207.17570397 2.58978081 214.41210556 C2.61681979 221.2165316 2.61821962 228.02048369 2.60212517 234.82496643 C2.60030315 237.32556667 2.6070687 239.82618975 2.62294388 242.32674026 C2.643263 245.73441634 2.63293458 249.14065335 2.61473083 252.54830933 C2.6279308 253.54334532 2.64113077 254.53838131 2.65473074 255.5635699 C2.59781194 260.21218779 2.54105426 262.30202868 -0.3816824 266.07242012 C-12.82113748 275.23022561 -31.23451476 275.0831542 -46 274 C-46.66 273.67 -47.32 273.34 -48 273 C-49.66607204 272.72292576 -51.33964964 272.49023037 -53.015625 272.28125 C-54.01980469 272.15363281 -55.02398437 272.02601563 -56.05859375 271.89453125 C-57.63833984 271.69923828 -57.63833984 271.69923828 -59.25 271.5 C-77.51663892 269.20816083 -77.51663892 269.20816083 -83 265 C-84.16665235 262.6666953 -84.12930981 261.30684633 -84.13701439 258.70735455 C-84.1446262 257.34748237 -84.1446262 257.34748237 -84.15239179 255.96013802 C-84.15313843 254.45652261 -84.15313843 254.45652261 -84.15390015 252.92253113 C-84.1582824 251.86262649 -84.16266465 250.80272186 -84.1671797 249.7106989 C-84.18060528 246.13550001 -84.18675496 242.56032578 -84.19287109 238.98510742 C-84.20076901 236.43138008 -84.20903776 233.87765386 -84.21765137 231.32392883 C-84.24163759 223.6435513 -84.25680339 215.96317497 -84.26971143 208.2827718 C-84.27342248 206.11424648 -84.27739578 203.9457218 -84.2814641 201.77719712 C-84.30669832 188.31661347 -84.32875569 174.85602883 -84.34119225 161.39542675 C-84.34412203 158.27688277 -84.34708369 155.15833882 -84.35009766 152.03979492 C-84.35084371 151.26467764 -84.35158976 150.48956035 -84.35235842 149.69095466 C-84.36501647 137.12992955 -84.39824506 124.56904586 -84.43989949 112.00808688 C-84.48229589 99.11794701 -84.50588456 86.22787958 -84.51111281 73.33767015 C-84.51452942 66.09783681 -84.52631375 58.8582245 -84.55921555 51.6184597 C-84.5901064 44.80995831 -84.59564588 38.00191004 -84.58383179 31.19332695 C-84.58361017 28.69110936 -84.59198735 26.1888744 -84.60948563 23.68671799 C-84.63203861 20.27681486 -84.62394546 16.8683282 -84.60800171 13.4584198 C-84.6218838 12.46270169 -84.63576588 11.46698358 -84.65006864 10.44109219 C-84.59666467 5.82199324 -84.54238309 3.70454571 -81.65340614 -0.04818249 C-74.98962607 -4.94998867 -68.05344415 -5.93779514 -60 -7 C-59.35853027 -7.08830078 -58.71706055 -7.17660156 -58.05615234 -7.26757812 C-39.75728198 -9.57831442 -15.89083115 -10.97303709 0 0 Z " fill="#E0DAF3" transform="translate(120,68)"/>
<path d="M0 0 C0.33 -0.33 0.66 -0.66 1 -1 C15.32331371 -2.22819112 35.6818687 -2.62269191 48 6 C51.34481855 9.37281205 52.45756852 11.73219061 52.49768066 16.50862122 C52.48329956 17.2106517 52.46891846 17.91268219 52.45410156 18.63598633 C52.45468567 19.38774139 52.45526978 20.13949646 52.45587158 20.91403198 C52.4530953 23.38717587 52.42202675 25.85909917 52.390625 28.33203125 C52.38316094 30.0512374 52.37746879 31.77045209 52.37347412 33.4896698 C52.35823066 38.00588637 52.31896023 42.52158512 52.2746582 47.03759766 C52.23367754 51.64934281 52.21545715 56.26117196 52.1953125 60.87304688 C52.15246451 69.91559159 52.08422897 78.95775267 52 88 C53.32 87.67 54.64 87.34 56 87 C56 87.99 56 88.98 56 90 C55.34 90.66 54.68 91.32 54 92 C54 91.34 54 90.68 54 90 C53.34 90 52.68 90 52 90 C52 91.98 52 93.96 52 96 C52.66 96.33 53.32 96.66 54 97 C54 98.32 54 99.64 54 101 C53.34 101 52.68 101 52 101 C51.99945523 101.87244732 51.99891047 102.74489464 51.99834919 103.64377975 C51.98339093 124.85879384 51.94098285 146.07359754 51.86790943 167.28849411 C51.83323583 177.54782241 51.8079008 187.80701602 51.80444336 198.06640625 C51.80140676 207.00706284 51.78095732 215.94747969 51.73947543 224.88804364 C51.71811604 229.6233842 51.70555985 234.35838369 51.71384621 239.09377289 C51.72136784 243.54922958 51.7056411 248.00399413 51.67193985 252.45932388 C51.66368368 254.09598119 51.66398354 255.73270703 51.67340279 257.36935806 C51.68498233 259.6021011 51.66597672 261.83255958 51.63923645 264.06512451 C51.63647107 265.3150758 51.63370569 266.56502708 51.63085651 267.85285568 C51 271 51 271 48.616786 273.35872269 C32.47874665 283.48068063 12.00733952 282.22482372 -5.96069336 279.06762695 C-9.96564466 278.37626921 -13.71883825 277.93429755 -17.7890625 278.01953125 C-21.24056749 278.08065322 -23.7234338 277.72865051 -26.875 276.1875 C-27.59429687 275.85105469 -28.31359375 275.51460938 -29.0546875 275.16796875 C-31.12023074 273.92781327 -32.468577 272.86160988 -34 271 C-34.3794995 268.95320618 -34.3794995 268.95320618 -34.38590336 266.55307198 C-34.3955767 265.63753268 -34.40525004 264.72199339 -34.41521651 263.77871048 C-34.4105707 262.77143115 -34.40592489 261.76415182 -34.40113831 260.72634888 C-34.40793498 259.65742271 -34.41473164 258.58849655 -34.42173427 257.48717868 C-34.44080108 253.88735108 -34.43826329 250.28786095 -34.43579102 246.68798828 C-34.4447626 244.11440591 -34.45496944 241.5408276 -34.46632385 238.96725464 C-34.49126215 232.69142568 -34.49948921 226.41568124 -34.50116099 220.13980688 C-34.50258561 215.03931736 -34.50874552 209.93885578 -34.51826286 204.83837509 C-34.54468791 190.38298123 -34.55852018 175.92765424 -34.55627144 161.47223605 C-34.55615157 160.69265304 -34.5560317 159.91307002 -34.5559082 159.10986328 C-34.55578556 158.32933027 -34.55566292 157.54879725 -34.55553656 156.74461173 C-34.55431704 144.09307291 -34.58302742 131.4418019 -34.6253233 118.79034056 C-34.66839267 105.80522981 -34.68913508 92.82024973 -34.68654197 79.83506572 C-34.68554528 72.54269092 -34.69382007 65.25059684 -34.72607613 57.95828629 C-34.75621189 51.10127835 -34.75540815 44.2448733 -34.73352623 37.38783646 C-34.73037948 34.86788571 -34.73753191 32.34789844 -34.7556076 29.82801056 C-34.77865047 26.39384026 -34.76491703 22.96174181 -34.74171448 19.52761841 C-34.75714517 18.52480052 -34.77257586 17.52198263 -34.78847414 16.48877633 C-34.69001511 9.91773524 -34.69001511 9.91773524 -32.70882785 7.2827127 C-26.41556184 1.85655454 -18.04227253 0.50159135 -9.97265625 1.08984375 C-5.77999835 0.89889101 -4.38336886 -1.36035585 0 0 Z " fill="#DEDCF4" transform="translate(192,61)"/>
<path d="M0 0 C1.73443359 0.02513672 1.73443359 0.02513672 3.50390625 0.05078125 C12.2897947 0.46915689 22.64285067 2.61040511 29.66954613 8.07674313 C32.648692 11.8137013 32.70074594 14.73637443 32.63491821 19.31898499 C32.64271817 20.15347953 32.65051812 20.98797407 32.65855443 21.84775633 C32.67848989 24.64252498 32.66270421 27.43593427 32.64697266 30.23071289 C32.65374804 32.23479508 32.66265072 34.23887103 32.67352295 36.24293518 C32.69633067 41.68503795 32.68747408 47.12666716 32.67162752 52.56877828 C32.65897801 58.2604191 32.67070584 63.9520191 32.67855835 69.6436615 C32.68765691 79.20107309 32.67566069 88.75829155 32.65185547 98.31567383 C32.62463615 109.37156456 32.63346358 120.42699439 32.6609875 131.48287398 C32.68366229 140.97004779 32.68688683 150.4570827 32.67379415 159.94427484 C32.66599171 165.61290605 32.66498009 171.28132047 32.68147659 176.94993782 C32.69589855 182.27789246 32.68594099 187.60525155 32.65700531 192.93314171 C32.65038269 194.89071284 32.65231215 196.84833392 32.66331863 198.80588531 C32.67693925 201.47393759 32.65990184 204.14006951 32.63491821 206.80799866 C32.64607182 207.58669015 32.65722543 208.36538163 32.66871703 209.16766983 C32.598595 213.01557674 32.35201217 214.64062207 29.61266136 217.43729305 C12.98001047 227.38575384 -12.09552218 227.4908199 -30.59765625 223.6328125 C-45.21854305 219.78145695 -45.21854305 219.78145695 -49 216 C-49.1111379 213.34120783 -49.15670546 210.70791532 -49.16062927 208.04814148 C-49.168261 206.78315023 -49.168261 206.78315023 -49.17604691 205.4926036 C-49.19184207 202.64440348 -49.20031495 199.79622885 -49.20874023 196.94799805 C-49.21827292 194.91495601 -49.22816381 192.88191563 -49.23838806 190.84887695 C-49.26983791 184.15317729 -49.29004561 177.45746494 -49.30859375 170.76171875 C-49.31189107 169.62420929 -49.31518839 168.48669983 -49.31858563 167.31472039 C-49.3493668 156.59541553 -49.3760865 145.87610798 -49.39300442 135.15677166 C-49.41492938 121.42366505 -49.45693095 107.69094856 -49.52644199 93.95799798 C-49.57360772 84.31383585 -49.59792799 74.66977925 -49.6052013 65.02550536 C-49.61016851 59.25945251 -49.62535084 53.49383882 -49.6649456 47.727911 C-49.70169439 42.30482238 -49.71026026 36.88242586 -49.69693947 31.45923615 C-49.69699361 29.46615397 -49.70736875 27.47304204 -49.7286911 25.48007393 C-49.75620718 22.76347379 -49.74693958 20.04942681 -49.72825623 17.33280945 C-49.74505115 16.53971664 -49.76184608 15.74662382 -49.77914995 14.9294979 C-49.74108028 12.72219372 -49.74108028 12.72219372 -49 9 C-45.22391315 5.76304033 -41.42127017 4.22858509 -36.6875 2.8125 C-35.63949219 2.48894531 -34.59148437 2.16539063 -33.51171875 1.83203125 C-22.52912206 -0.77007453 -11.2075843 -0.1923369 0 0 Z " fill="#6F488C" transform="translate(331,115)"/>
<path d="M0 0 C13.86 0 27.72 0 42 0 C42 59.07 42 118.14 42 179 C39.66682784 179.77772405 37.38564077 180.42415568 35 181 C34.97310551 183.95839355 34.95321259 186.91654427 34.9375 189.875 C34.92493164 191.13763672 34.92493164 191.13763672 34.91210938 192.42578125 C34.90888672 193.23144531 34.90566406 194.03710938 34.90234375 194.8671875 C34.89710693 195.61081543 34.89187012 196.35444336 34.88647461 197.12060547 C34.88213364 199.09132568 34.88213364 199.09132568 36 201 C33.22276075 201.78688445 30.77389923 202.11949924 27.890625 202.09765625 C27.13652344 202.09443359 26.38242187 202.09121094 25.60546875 202.08789062 C24.82816406 202.07951172 24.05085938 202.07113281 23.25 202.0625 C22.45722656 202.05798828 21.66445313 202.05347656 20.84765625 202.04882812 C18.89840492 202.03708565 16.94919262 202.01915146 15 202 C16.485 201.01 16.485 201.01 18 200 C18.39852423 198.01957063 18.39852423 198.01957063 18.2578125 195.75390625 C18.24363281 194.91666016 18.22945313 194.07941406 18.21484375 193.21679688 C18.18519531 192.34087891 18.15554688 191.46496094 18.125 190.5625 C18.08158251 188.83473936 18.04234516 187.1068673 18.0078125 185.37890625 C17.97131592 184.22757202 17.97131592 184.22757202 17.93408203 183.05297852 C18 181 18 181 19 178 C13.06 178.33 7.12 178.66 1 179 C0.86849654 159.79563255 0.7380208 140.59125843 0.60884857 121.38687515 C0.54882516 112.46673483 0.48846054 103.54659708 0.42724609 94.62646484 C0.37379269 86.83713266 0.32102685 79.04779615 0.26903296 71.25845408 C0.24156844 67.1473079 0.21379629 63.03616439 0.18519592 58.92502594 C0.04879611 39.28269466 -0.02282736 19.64294387 0 0 Z " fill="#522D6F" transform="translate(302,138)"/>
<path d="M0 0 C0.66058411 -0.00012085 1.32116821 -0.0002417 2.00177002 -0.00036621 C15.38133558 0.03446481 28.84040738 1.03806385 40.4375 8.375 C42.75040208 11.84435313 42.70352056 13.23046495 42.74389648 17.32763672 C42.75988388 18.55255829 42.77587128 19.77747986 42.79234314 21.03952026 C42.79871993 22.37790511 42.80411265 23.71629496 42.80859375 25.0546875 C42.81756191 26.42847797 42.82668379 27.80226744 42.83595276 29.17605591 C42.85244025 32.05603406 42.86014233 34.935896 42.86303711 37.81591797 C42.86841954 41.50054459 42.90609223 45.18407411 42.95178127 48.86839104 C42.98157336 51.70634923 42.98876111 54.54404397 42.98976326 57.38214493 C42.99396176 58.74011381 43.00638158 60.09808374 43.02728081 61.45589828 C43.19664343 73.41146216 43.19664343 73.41146216 40.11279297 76.63989258 C28.00978085 84.48950995 13.14959805 84.65855126 -0.8125 84.75 C-2.55116333 84.77066528 -2.55116333 84.77066528 -4.32495117 84.79174805 C-15.77637217 84.73080598 -27.48346817 83.01510354 -37.20849609 76.640625 C-41.46732178 72.20829973 -40.2704836 65.20511039 -40.2265625 59.5 C-40.22993364 58.12906464 -40.23478875 56.7581322 -40.24105835 55.38720703 C-40.24841594 52.51891526 -40.2377621 49.65140391 -40.21435547 46.78320312 C-40.18586599 43.11416507 -40.20227628 39.44695564 -40.23221779 35.77798462 C-40.25032233 32.94850998 -40.24451881 30.11946594 -40.23157883 27.28997803 C-40.22664122 25.28201097 -40.24177464 23.2740269 -40.25723267 21.26611328 C-40.12701919 11.14723619 -40.12701919 11.14723619 -37.16625977 8.08862305 C-34.74779957 6.49695197 -32.57981511 5.21130605 -29.875 4.1875 C-28.72451172 3.73310547 -28.72451172 3.73310547 -27.55078125 3.26953125 C-18.36862495 0.52088577 -9.56500817 -0.01204509 0 0 Z " fill="#FEE965" transform="translate(77.5625,255.625)"/>
<path d="M0 0 C0.99 0.66 1.98 1.32 3 2 C2.67 2.99 2.34 3.98 2 5 C4.64653131 4.69268013 7.292115 4.37940678 9.9375 4.0625 C10.69224609 3.97548828 11.44699219 3.88847656 12.22460938 3.79882812 C15.92187458 3.65675901 15.92187458 3.65675901 19 2 C33.93707652 1.19208265 49.26014095 2.12720274 62.6104641 9.42746067 C66.28201743 13.38020118 65.69307242 17.1395255 65.63491821 22.35594177 C65.64271817 23.42163881 65.65051812 24.48733585 65.65855443 25.58532673 C65.6785522 29.16847936 65.6626784 32.75057908 65.64697266 36.33374023 C65.6537453 38.89761985 65.66264644 41.46149461 65.67352295 44.02536011 C65.69399142 50.27376224 65.6909459 56.52177232 65.67645974 62.7701798 C65.66517374 67.84825166 65.66363381 72.92623935 65.66907883 78.00432014 C65.66984499 78.72670385 65.67061116 79.44908756 65.67140054 80.19336169 C65.67299915 81.66082392 65.67462022 83.12828613 65.6762635 84.59574831 C65.69052672 98.36149861 65.67411989 112.12708252 65.64726166 125.89280552 C65.62492704 137.70572 65.62879837 149.5183888 65.65185547 161.33129883 C65.67861161 175.04578624 65.68914837 188.7601277 65.67379415 202.47463757 C65.67220139 203.93704639 65.67062954 205.39945523 65.66907883 206.86186409 C65.66830745 207.58141336 65.66753607 208.30096263 65.66674132 209.04231642 C65.66242339 214.11407153 65.66971294 219.18573412 65.68147659 224.2574749 C65.69696239 231.08412188 65.68594089 237.91023284 65.65700531 244.73685837 C65.65038206 247.24550542 65.65231313 249.75419145 65.66331863 252.2628231 C65.67693582 255.68143878 65.65990216 259.09855505 65.63491821 262.51707458 C65.64607182 263.5153194 65.65722543 264.51356422 65.66871703 265.54205889 C65.60288971 270.16987865 65.51620634 272.31300838 62.66734886 276.10440159 C59.68994466 278.22034629 57.61496296 278.74779328 54 279 C57.71372716 275.15363973 57.71372716 275.15363973 60.10887909 273.868186 C62.54059218 271.46596395 62.4863791 269.61893282 62.53497362 266.29208905 C62.52605073 265.5098026 62.51712785 264.72751615 62.50793457 263.92152405 C62.51729451 262.67234551 62.51729451 262.67234551 62.52684355 261.39793104 C62.54284528 258.59711511 62.53014144 255.79716084 62.51757812 252.99633789 C62.5229961 250.99255361 62.53011693 248.98877332 62.53881836 246.98500061 C62.55709438 241.53457143 62.54996619 236.08444423 62.53730202 230.6340096 C62.5271951 224.93702313 62.53656139 219.24006301 62.54284668 213.54307556 C62.55013041 203.97373804 62.54051694 194.40452388 62.52148438 184.83520508 C62.49972052 173.76464384 62.50676065 162.6943773 62.52879 151.62382323 C62.5469307 142.12821173 62.54950862 132.63268905 62.53903532 123.13706583 C62.53279229 117.46172564 62.53198689 111.78652404 62.54518127 106.1111927 C62.55671954 100.77513623 62.5487509 95.43946033 62.52560425 90.10344505 C62.52030608 88.14264687 62.52184978 86.18181676 62.53065491 84.22103119 C62.54155047 81.54873871 62.52791971 78.87767341 62.50793457 76.20545959 C62.5213189 75.035376 62.5213189 75.035376 62.53497362 73.84165436 C62.48443513 70.36908919 62.29232169 68.38722111 60.17137909 65.57773495 C52.1347594 59.73828673 40.67575466 58.15152189 31 58 C29.82679199 57.97147949 29.82679199 57.97147949 28.62988281 57.94238281 C4.57354892 57.02902584 4.57354892 57.02902584 -17 66 C-17.51161643 68.91743344 -17.67602054 71.26232103 -17.63491821 74.18563843 C-17.64271817 75.02996921 -17.65051812 75.8743 -17.65855443 76.74421656 C-17.67855923 79.5843111 -17.66267698 82.42307821 -17.64697266 85.26318359 C-17.65374511 87.29490443 -17.66264614 89.32661913 -17.67352295 91.35832214 C-17.69636985 96.88531574 -17.68745683 102.41184409 -17.67162752 107.93884611 C-17.65899302 113.7167816 -17.67070213 119.49467652 -17.67855835 125.27261353 C-17.68766351 134.97901581 -17.67564573 144.6852281 -17.65185547 154.39160156 C-17.62465798 165.61783957 -17.63344508 176.84362338 -17.6609875 188.06985033 C-17.68367107 197.70052207 -17.68688182 207.33105699 -17.67379415 216.96174681 C-17.66599359 222.71707009 -17.6649745 228.47217986 -17.68147659 234.22748947 C-17.69591048 239.63995699 -17.68591892 245.05183876 -17.65700531 250.46424294 C-17.65038812 252.45203109 -17.65230293 254.43986845 -17.66331863 256.4276371 C-17.67696105 259.13922382 -17.6598746 261.84892791 -17.63491821 264.56039429 C-17.64607182 265.34921002 -17.65722543 266.13802575 -17.66871703 266.95074499 C-17.59448711 271.10192038 -17.17068951 272.79652642 -14.46031761 276.02747536 C-13.24246039 277.00387506 -13.24246039 277.00387506 -12 278 C-17.51541079 277.50974126 -17.51541079 277.50974126 -19.67527437 275.23777241 C-21.17000218 272.71282643 -21.37731452 271.35456268 -21.38311005 268.44564152 C-21.39216669 267.53159457 -21.40122333 266.61754763 -21.41055441 265.67580229 C-21.40522648 264.67532675 -21.39989856 263.67485121 -21.39440918 262.64405823 C-21.40050028 261.57836119 -21.40659139 260.51266415 -21.41286707 259.41467327 C-21.42956054 255.83176148 -21.42471211 252.24920261 -21.41992188 248.66625977 C-21.42725847 246.1023827 -21.4358435 243.53850894 -21.44558716 240.97463989 C-21.46553984 234.72633232 -21.47118144 228.47815534 -21.46939927 222.2298202 C-21.46809223 217.15176194 -21.47189284 212.07373266 -21.47932434 206.99567986 C-21.48142351 205.53358537 -21.48352111 204.07149089 -21.48561716 202.6093964 C-21.48666069 201.88169864 -21.48770422 201.15400089 -21.48877937 200.40425169 C-21.50768579 186.63855073 -21.50663025 172.87290304 -21.49981004 159.10719448 C-21.49423364 146.51071619 -21.51506331 133.91444122 -21.54817051 121.31801046 C-21.5818933 108.38711024 -21.59707766 95.45630746 -21.59245348 82.52536243 C-21.59020743 75.26434149 -21.59547163 68.00350851 -21.62034607 60.7425251 C-21.64353315 53.91590987 -21.6407938 47.0897879 -21.62041855 40.26314163 C-21.6169961 37.7544834 -21.62215026 35.24579698 -21.63640213 32.7371769 C-21.65448689 29.31859255 -21.64192404 25.90146438 -21.62145996 22.48292542 C-21.63397781 21.4846806 -21.64649566 20.48643578 -21.65939283 19.45794111 C-21.56312374 11.98288969 -21.56312374 11.98288969 -18.46115875 8.84481716 C-17.64897636 8.2360275 -16.83679398 7.62723783 -16 7 C-15.34 7.33 -14.68 7.66 -14 8 C-13.67 7.34 -13.34 6.68 -13 6 C-11.07421875 5.25390625 -11.07421875 5.25390625 -8.6875 4.5625 C-5.27396887 3.49713041 -2.68453435 2.45109658 0 0 Z " fill="#E3E2F0" transform="translate(300,58)"/>
<path d="M0 0 C1.31427979 0.00161133 2.62855957 0.00322266 3.98266602 0.00488281 C16.54991172 0.16346005 27.39156317 1.57904472 38.1875 8.375 C40.35615006 12.71230012 39.46178576 18.48595765 39.5 23.25 C39.54350586 25.04630859 39.54350586 25.04630859 39.58789062 26.87890625 C39.59626953 28.03003906 39.60464844 29.18117188 39.61328125 30.3671875 C39.62786377 31.42276855 39.64244629 32.47834961 39.6574707 33.56591797 C39.06713137 37.09446047 37.97478812 38.19888319 35.1875 40.375 C32.59859621 41.42470853 30.16520165 42.28712328 27.5 43.0625 C26.83033203 43.27455078 26.16066406 43.48660156 25.47070312 43.70507812 C9.91385885 48.41522104 -10.16850317 48.33550553 -25.8125 44.375 C-26.7096875 44.16875 -27.606875 43.9625 -28.53125 43.75 C-33.65151424 42.42475514 -38.78124872 41.03374018 -41.8125 36.375 C-42.66375079 32.00629497 -42.55862837 27.74822083 -42.4375 23.3125 C-42.44394531 22.12849609 -42.45039063 20.94449219 -42.45703125 19.72460938 C-42.34853861 11.02054079 -42.34853861 11.02054079 -39.9074707 8.08081055 C-29.32871198 -0.53284605 -12.87411889 -0.01648731 0 0 Z " fill="#FE8566" transform="translate(201.8125,293.625)"/>
<path d="M0 0 C1.38606112 0.01006627 2.77212946 0.01918558 4.15820312 0.02734375 C7.50149273 0.05064194 10.84439731 0.08335138 14.1875 0.125 C13.6925 0.558125 13.1975 0.99125 12.6875 1.4375 C10.85531808 3.12240483 10.85531808 3.12240483 11.1875 6.125 C10.5275 6.125 9.8675 6.125 9.1875 6.125 C9.1875 6.785 9.1875 7.445 9.1875 8.125 C8.56875 8.7128125 8.56875 8.7128125 7.9375 9.3125 C5.8488035 11.4757928 4.58667076 13.77953066 3.15234375 16.40625 C2.24302138 18.02609552 1.21792436 19.57936346 0.1875 21.125 C0.8475 21.455 1.5075 21.785 2.1875 22.125 C-2.49268949 23.55771107 -6.94981067 24.45757205 -11.8125 25.125 C-12.4725 25.455 -13.1325 25.785 -13.8125 26.125 C-13.4825 26.7025 -13.1525 27.28 -12.8125 27.875 C-11.8125 30.125 -11.8125 30.125 -11.8125 34.125 C-12.4725 34.125 -13.1325 34.125 -13.8125 34.125 C-13.4825 34.7025 -13.1525 35.28 -12.8125 35.875 C-11.56809823 38.67490399 -11.8125 41.10745173 -11.8125 44.125 C-11.1525 44.785 -10.4925 45.445 -9.8125 46.125 C-20.29655328 45.81063558 -33.33803467 45.3349494 -41.64355469 37.97607422 C-44.38421953 33.63611582 -43.57247438 28.00526193 -43.4375 23.0625 C-43.44394531 21.87849609 -43.45039063 20.69449219 -43.45703125 19.47460938 C-43.34853861 10.77054079 -43.34853861 10.77054079 -40.9074707 7.83081055 C-29.97585672 -1.07015518 -13.2381885 -0.17007005 0 0 Z " fill="#FE9070" transform="translate(202.8125,293.875)"/>
<path d="M0 0 C0.33 23.1 0.66 46.2 1 70 C-1.475 70.495 -1.475 70.495 -4 71 C-4.16677282 74.41656024 -4.16677282 74.41656024 -4 78 C-3.34 78.66 -2.68 79.32 -2 80 C-8.16721212 79.24790096 -14.53725443 77.54361687 -18.96331787 72.90625 C-21.49483204 68.25130442 -20.70369261 62.27273424 -20.6640625 57.125 C-20.66743364 55.75406464 -20.67228875 54.3831322 -20.67855835 53.01220703 C-20.68591594 50.14391526 -20.6752621 47.27640391 -20.65185547 44.40820312 C-20.62336599 40.73916507 -20.63977628 37.07195564 -20.66971779 33.40298462 C-20.68782233 30.57350998 -20.68201881 27.74446594 -20.66907883 24.91497803 C-20.66414122 22.90701097 -20.67927464 20.8990269 -20.69473267 18.89111328 C-20.56451746 8.77210178 -20.56451746 8.77210178 -17.61474609 5.71801758 C-15.10180048 4.06688795 -12.80975948 2.75433055 -10 1.6875 C-9.175 1.36136719 -8.35 1.03523438 -7.5 0.69921875 C-5 0 -5 0 0 0 Z " fill="#FEF988" transform="translate(58,258)"/>
<path d="M0 0 C0.96839168 4.05916711 1.12898441 7.85573795 1.1328125 12.0234375 C1.13424759 13.02003891 1.13424759 13.02003891 1.13571167 14.03677368 C1.13638946 15.43695165 1.13456323 16.83713283 1.13037109 18.23730469 C1.12503417 20.36140137 1.13032089 22.48528498 1.13671875 24.609375 C1.13605757 25.97656296 1.13477557 27.34375079 1.1328125 28.7109375 C1.13168457 29.94118652 1.13055664 31.17143555 1.12939453 32.43896484 C0.99907129 36.02555879 0.53181945 39.45358063 0 43 C-0.07066856 44.46610674 -0.10903427 45.93457893 -0.09765625 47.40234375 C-0.09282227 48.51899414 -0.09282227 48.51899414 -0.08789062 49.65820312 C-0.07951172 50.41037109 -0.07113281 51.16253906 -0.0625 51.9375 C-0.05798828 52.71673828 -0.05347656 53.49597656 -0.04882812 54.29882812 C-0.03716908 56.19925268 -0.01923877 58.09963706 0 60 C-4.77092956 61.23402862 -9.42469446 61.11265112 -14.3125 61.0625 C-15.56643555 61.05573242 -15.56643555 61.05573242 -16.84570312 61.04882812 C-18.89716649 61.03710548 -20.94859273 61.01917203 -23 61 C-23 57.5255076 -22.20638373 54.6011293 -21.33984375 51.25390625 C-20.97233714 48.81653482 -21.38639272 47.35296652 -22 45 C-21.67 44.01 -21.34 43.02 -21 42 C-21.66 41.67 -22.32 41.34 -23 41 C-22.67 40.01 -22.34 39.02 -22 38 C-22.66 37.34 -23.32 36.68 -24 36 C-24.17502995 33.41896694 -24.23162279 30.94691837 -24.1953125 28.3671875 C-24.1924826 27.61535187 -24.18965271 26.86351624 -24.18673706 26.08889771 C-24.17552874 23.68410422 -24.15042352 21.27968119 -24.125 18.875 C-24.11497102 17.24609912 -24.10584503 15.61719242 -24.09765625 13.98828125 C-24.07558735 9.99204444 -24.04105351 5.99608506 -24 2 C-21.12543208 1.66252452 -18.25043941 1.32989537 -15.375 1 C-14.16263672 0.85691406 -14.16263672 0.85691406 -12.92578125 0.7109375 C-8.59026261 0.21746383 -4.37262689 -0.11320717 0 0 Z " fill="#FFD854" transform="translate(96,279)"/>
<path d="M0 0 C0 12.87 0 25.74 0 39 C-2.475 39.495 -2.475 39.495 -5 40 C-5.721875 40.20625 -6.44375 40.4125 -7.1875 40.625 C-9 41 -9 41 -11 40 C-13.08333333 40.16666667 -13.08333333 40.16666667 -15 41 C-15.33 41.99 -15.66 42.98 -16 44 C-16.61875 44.144375 -17.2375 44.28875 -17.875 44.4375 C-20.1954088 44.81247375 -20.1954088 44.81247375 -21.5 47.0625 C-21.995 47.701875 -22.49 48.34125 -23 49 C-24.32 49 -25.64 49 -27 49 C-28.67225729 49.30404678 -30.34080104 49.63128912 -32 50 C-32.70074844 46.846632 -33 44.27275026 -33 41 C-33.66 41.66 -34.32 42.32 -35 43 C-35 33.43 -35 23.86 -35 14 C-34.34 13.67 -33.68 13.34 -33 13 C-32.67 12.01 -32.34 11.02 -32 10 C-31.34 10 -30.68 10 -30 10 C-30 10.99 -30 11.98 -30 13 C-28.68 13 -27.36 13 -26 13 C-26 12.34 -26 11.68 -26 11 C-22.32547562 8.1605948 -20.73113419 7 -16 7 C-11.09836502 6.08094344 -7.22004309 3.55423661 -3 1 C-1 0 -1 0 0 0 Z " fill="#C6CFFD" transform="translate(400,107)"/>
<path d="M0 0 C2.31 0 4.62 0 7 0 C8.17826281 3.7196185 8.12303615 7.24152972 8.12025452 11.12469482 C8.12110894 11.84273419 8.12196337 12.56077355 8.12284368 13.30057168 C8.1244908 15.7065914 8.11898967 18.11254139 8.11352539 20.51855469 C8.11324333 22.24326068 8.11340163 23.9679668 8.1139679 25.69267273 C8.11425512 30.37618129 8.10837041 35.05966431 8.10139394 39.74316692 C8.09514802 44.63722797 8.09455562 49.53128959 8.09336853 54.425354 C8.09025888 63.69358509 8.0820504 72.9618044 8.07201904 82.2300303 C8.06084657 92.78131128 8.05534459 103.33259281 8.05032361 113.88387823 C8.0398675 135.58925873 8.02227511 157.29462862 8 179 C5.69 179 3.38 179 1 179 C0.86845598 159.79563283 0.7380208 140.59125842 0.60884857 121.38687515 C0.54882516 112.46673483 0.48846054 103.54659708 0.42724609 94.62646484 C0.37379269 86.83713266 0.32102685 79.04779615 0.26903296 71.25845408 C0.24156844 67.1473079 0.21379629 63.03616439 0.18519592 58.92502594 C0.04879769 39.28292287 -0.03404688 19.64269185 0 0 Z " fill="#60397D" transform="translate(302,138)"/>
<path d="M0 0 C0.33 0 0.66 0 1 0 C1 49.83 1 99.66 1 151 C3.31 150.67 5.62 150.34 8 150 C9.97828849 149.93747508 11.95837451 149.91306635 13.9375 149.9375 C14.89527344 149.94652344 15.85304688 149.95554687 16.83984375 149.96484375 C17.90912109 149.98224609 17.90912109 149.98224609 19 150 C18.98839844 150.81984375 18.97679687 151.6396875 18.96484375 152.484375 C18.95582031 153.56203125 18.94679688 154.6396875 18.9375 155.75 C18.92589844 156.81734375 18.91429687 157.8846875 18.90234375 158.984375 C18.98539301 161.54893614 19.33423481 163.55152473 20 166 C19.55546698 168.44493162 18.78819225 170.63542325 18 173 C8.41607145 176.19464285 -5.57179359 172.97317362 -14.44921875 168.8671875 C-19.65830084 165.9762833 -19.65830084 165.9762833 -20.875 162.5 C-19.5539165 158.72547571 -17.20670683 157.33822373 -14 155 C-13.773125 155.61875 -13.54625 156.2375 -13.3125 156.875 C-11.55257273 159.72440605 -10.19537152 160.07689267 -7 161 C-4.69 161.33 -2.38 161.66 0 162 C0 108.54 0 55.08 0 0 Z " fill="#6A4287" transform="translate(302,166)"/>
<path d="M0 0 C1.23518925 6.73963613 1.16174927 13.42959949 1.16796875 20.265625 C1.17129715 21.53597595 1.17462555 22.8063269 1.17805481 24.11517334 C1.18310421 26.79133634 1.18589778 29.46739761 1.18530273 32.14355469 C1.18520059 35.57229031 1.19892064 39.00082128 1.21607494 42.42950821 C1.22984939 45.70820623 1.22928253 48.98690195 1.23046875 52.265625 C1.23765427 53.49686096 1.24483978 54.72809692 1.25224304 55.99664307 C1.24916641 57.13502625 1.24608978 58.27340942 1.24291992 59.44628906 C1.24434494 60.44887756 1.24576996 61.45146606 1.24723816 62.48443604 C1 65 1 65 -1 68 C-7.75 67.125 -7.75 67.125 -10 66 C-10.33 45.54 -10.66 25.08 -11 4 C-11.66 3.67 -12.32 3.34 -13 3 C-11.40084119 2.30093058 -9.79544955 1.61610532 -8.1875 0.9375 C-7.29417969 0.55464844 -6.40085937 0.17179687 -5.48046875 -0.22265625 C-3 -1 -3 -1 0 0 Z " fill="#FEF698" transform="translate(56,259)"/>
<path d="M0 0 C1.18613892 0.07069702 1.18613892 0.07069702 2.39624023 0.14282227 C3.67724609 0.21533203 3.67724609 0.21533203 4.98413086 0.28930664 C5.88196289 0.34538086 6.77979492 0.40145508 7.70483398 0.45922852 C8.6065332 0.51143555 9.50823242 0.56364258 10.43725586 0.61743164 C12.67259948 0.74753101 14.90754288 0.88250788 17.14233398 1.02172852 C17.14233398 1.35172852 17.14233398 1.68172852 17.14233398 2.02172852 C15.16233398 2.35172852 13.18233398 2.68172852 11.14233398 3.02172852 C11.06817331 7.66646833 11.01372784 12.31086351 10.97753906 16.95605469 C10.96245304 18.53619388 10.94198148 20.11629121 10.91601562 21.69628906 C10.87962272 23.96763437 10.86260636 26.2384261 10.84936523 28.51000977 C10.83388138 29.21636063 10.81839752 29.92271149 10.80244446 30.65046692 C10.73530273 34.55464708 10.73530273 34.55464708 12.68408203 37.78417969 C13.16530518 38.1925708 13.64652832 38.60096191 14.14233398 39.02172852 C13.87719483 41.36379102 13.53621186 43.69784905 13.14233398 46.02172852 C13.41804538 48.03048294 13.74469136 50.03351538 14.14233398 52.02172852 C14.14233398 56.39468089 14.12201605 57.86677104 11.14233398 61.02172852 C7.77290937 61.46121868 4.52125632 61.30700338 1.14233398 61.02172852 C0.81233398 60.36172852 0.48233398 59.70172852 0.14233398 59.02172852 C0.94670898 58.73297852 1.75108398 58.44422852 2.57983398 58.14672852 C5.27498078 57.28910284 5.27498078 57.28910284 6.14233398 55.02172852 C5.48233398 54.36172852 4.82233398 53.70172852 4.14233398 53.02172852 C4.80233398 52.36172852 5.46233398 51.70172852 6.14233398 51.02172852 C5.48233398 50.36172852 4.82233398 49.70172852 4.14233398 49.02172852 C4.80233398 48.36172852 5.46233398 47.70172852 6.14233398 47.02172852 C5.48233398 46.36172852 4.82233398 45.70172852 4.14233398 45.02172852 C4.80233398 44.36172852 5.46233398 43.70172852 6.14233398 43.02172852 C5.81233398 42.36172852 5.48233398 41.70172852 5.14233398 41.02172852 C5.47233398 40.03172852 5.80233398 39.04172852 6.14233398 38.02172852 C3.17233398 38.02172852 0.20233398 38.02172852 -2.85766602 38.02172852 C-2.88231529 32.77067409 -2.9005017 27.51965306 -2.91259766 22.26855469 C-2.9176382 20.48078831 -2.92447056 18.69302607 -2.93310547 16.90527344 C-2.94518332 14.34121683 -2.95089696 11.77721454 -2.95532227 9.21313477 C-2.96048355 8.40896622 -2.96564484 7.60479767 -2.97096252 6.77626038 C-2.97115817 4.85771137 -2.91968584 2.93927483 -2.85766602 1.02172852 C-1.85766602 0.02172852 -1.85766602 0.02172852 0 0 Z " fill="#FEE25E" transform="translate(61.857666015625,278.978271484375)"/>
<path d="M0 0 C-0.33 0.33 -0.66 0.66 -1 1 C-1.15888092 3.28988781 -1.25138073 5.58443441 -1.31640625 7.87890625 C-1.33718735 8.5655687 -1.35796844 9.25223114 -1.37937927 9.95970154 C-1.44494143 12.16052935 -1.50379015 14.36147975 -1.5625 16.5625 C-1.60567892 18.05144514 -1.649293 19.54037773 -1.69335938 21.02929688 C-1.8006293 24.68606553 -1.90187772 28.34297318 -2 32 C-5.63 32 -9.26 32 -13 32 C-12.67 32.99 -12.34 33.98 -12 35 C-12.9375 37.1875 -12.9375 37.1875 -14 39 C-17.37073297 37.81568841 -19.81682258 36.87652351 -22 34 C-22.6495064 29.71796716 -22.46312334 25.38818556 -22.4375 21.0625 C-22.45748047 19.86947266 -22.47746094 18.67644531 -22.49804688 17.44726562 C-22.49740234 16.30064453 -22.49675781 15.15402344 -22.49609375 13.97265625 C-22.49794678 12.92343994 -22.4997998 11.87422363 -22.50170898 10.79321289 C-21.87760366 7.31857105 -20.71348013 6.18367713 -18 4 C-5.25242718 -2.62621359 -5.25242718 -2.62621359 0 0 Z " fill="#FEA387" transform="translate(182,296)"/>
<path d="M0 0 C0.33 0 0.66 0 1 0 C1.11597526 7.99734891 1.20475511 15.99434509 1.25906086 23.99232769 C1.28512841 27.70636943 1.32047209 31.41983486 1.37719727 35.13354492 C1.43162214 38.71919713 1.46144192 42.30429591 1.47438622 45.89032936 C1.48360764 47.25670902 1.50161581 48.62305919 1.52865028 49.9892025 C1.73151118 60.66749952 1.73151118 60.66749952 -0.06948853 63.94815063 C-2.32347239 66.28898002 -4.73989703 67.77516531 -8 68 C-8.66 67.67 -9.32 67.34 -10 67 C-10 62.71 -10 58.42 -10 54 C-8.515 53.505 -8.515 53.505 -7 53 C-7.33 38.15 -7.66 23.3 -8 8 C-6.02 7.01 -4.04 6.02 -2 5 C-0.57442644 2.44278263 -0.57442644 2.44278263 0 0 Z " fill="#FEF572" transform="translate(119,267)"/>
<path d="M0 0 C0.33 0 0.66 0 1 0 C1.11622939 3.74973906 1.1872595 7.49901464 1.25 11.25 C1.30027344 12.84521484 1.30027344 12.84521484 1.3515625 14.47265625 C1.36445313 15.49746094 1.37734375 16.52226562 1.390625 17.578125 C1.41157227 18.52075195 1.43251953 19.46337891 1.45410156 20.43457031 C0.86305445 23.77366872 -0.39837685 24.89671676 -3 27 C-5.875 28.30078125 -5.875 28.30078125 -9 29.3125 C-10.03125 29.65925781 -11.0625 30.00601562 -12.125 30.36328125 C-14.9475609 30.98838645 -16.33357131 30.99350107 -19 30 C-20.03907986 23.76552084 -21.04370614 17.13111842 -19 11 C-17.02 11 -15.04 11 -13 11 C-13 10.01 -13 9.02 -13 8 C-12.14535156 7.59007812 -11.29070312 7.18015625 -10.41015625 6.7578125 C-9.30542969 6.21898437 -8.20070312 5.68015625 -7.0625 5.125 C-5.96035156 4.59132813 -4.85820312 4.05765625 -3.72265625 3.5078125 C-0.90595489 2.28340155 -0.90595489 2.28340155 0 0 Z " fill="#FE9373" transform="translate(240,307)"/>
<path d="M0 0 C1.05648755 7.71152724 1.11624053 15.28665821 1.0625 23.0625 C1.05798828 24.30966797 1.05347656 25.55683594 1.04882812 26.84179688 C1.03713163 29.89458221 1.02074086 32.94726498 1 36 C-3.45928351 36.88320989 -5.87649098 37.06175451 -10 35 C-10 27 -10 27 -9.9375 24.625 C-9.9093683 22.05928947 -9.9093683 22.05928947 -10.5 19.85546875 C-11.1530243 16.12608777 -11.1063112 12.45863299 -11.0625 8.6875 C-11.05798828 7.94693359 -11.05347656 7.20636719 -11.04882812 6.44335938 C-11.03712175 4.62887101 -11.01918898 2.81442466 -11 1 C-7.2735915 -0.04702186 -3.86986958 -0.07442057 0 0 Z " fill="#FFD14A" transform="translate(91,280)"/>
<path d="M0 0 C3.94727588 -0.17942163 6.5980513 -0.09350689 10 2 C10.66 1.34 11.32 0.68 12 0 C15.5 -0.25 15.5 -0.25 19 0 C21 2 21 2 21.1875 4.5 C21 7 21 7 20 9 C20.66 9.33 21.32 9.66 22 10 C21.6875 12.875 21.6875 12.875 21 16 C17.74610012 18.16926659 16.86604043 18.24080049 13.11328125 18.1953125 C12.17548828 18.18886719 11.23769531 18.18242188 10.27148438 18.17578125 C8.80678711 18.15064453 8.80678711 18.15064453 7.3125 18.125 C6.32443359 18.11597656 5.33636719 18.10695313 4.31835938 18.09765625 C1.87866235 18.0740843 -0.56054697 18.04118022 -3 18 C-2.28127522 14.69412027 -1.57081244 13.29342137 1 11.0625 C3.69423349 8.52940488 4.77577611 6.81180613 5 3 C2.69 3.33 0.38 3.66 -2 4 C-1.34 2.68 -0.68 1.36 0 0 Z " fill="#D2B7E0" transform="translate(60,29)"/>
<path d="M0 0 C0.33 0.99 0.66 1.98 1 3 C1.66 3.33 2.32 3.66 3 4 C2.67 4.99 2.34 5.98 2 7 C2.144375 7.5775 2.28875 8.155 2.4375 8.75 C3 11 3 11 2.9375 14.4375 C2.99922644 17.95590683 3.66214763 19.82260061 5 23 C5 24.66666667 5 26.33333333 5 28 C5.6599679 29.66933058 6.32558869 31.3364521 7 33 C6.67 33.66 6.34 34.32 6 35 C7.98 34.505 7.98 34.505 10 34 C10 37.63 10 41.26 10 45 C4.2237182 45.34657691 2.53485905 44.76742952 -3 42 C-2.67 28.47 -2.34 14.94 -2 1 C-1.34 0.67 -0.68 0.34 0 0 Z " fill="#8865A3" transform="translate(292,283)"/>
<path d="M0 0 C0.0580966 3.9166043 0.09362893 7.83309763 0.125 11.75 C0.14175781 12.86117188 0.15851563 13.97234375 0.17578125 15.1171875 C0.18222656 16.18710937 0.18867188 17.25703125 0.1953125 18.359375 C0.20578613 19.34389648 0.21625977 20.32841797 0.22705078 21.34277344 C-0.00896164 24.10488014 -0.48164782 25.69678654 -2 28 C-4.4375 29.3125 -4.4375 29.3125 -7 30 C-7.99 29.67 -8.98 29.34 -10 29 C-10 20.75 -10 12.5 -10 4 C-10.66 3.67 -11.32 3.34 -12 3 C-10.75336669 2.49166409 -9.50250613 1.99368855 -8.25 1.5 C-7.55390625 1.2215625 -6.8578125 0.943125 -6.140625 0.65625 C-4 0 -4 0 0 0 Z " fill="#FEB7A0" transform="translate(178,296)"/>
<path d="M0 0 C3.96 0 7.92 0 12 0 C12 6.6 12 13.2 12 20 C12.66 20.33 13.32 20.66 14 21 C10.13276369 22.26582219 6.26848738 22.1118765 2.25 22.0625 C1.55261719 22.05798828 0.85523438 22.05347656 0.13671875 22.04882812 C-1.57555803 22.0371002 -3.28779033 22.01916653 -5 22 C-3.68 21.34 -2.36 20.68 -1 20 C-1.33 19.34 -1.66 18.68 -2 18 C-1.34 18 -0.68 18 0 18 C-0.33 17.01 -0.66 16.02 -1 15 C-0.5625 12.8125 -0.5625 12.8125 0 11 C-0.66 10.67 -1.32 10.34 -2 10 C-1.34 10 -0.68 10 0 10 C-0.185625 8.906875 -0.37125 7.81375 -0.5625 6.6875 C-1 3 -1 3 0 0 Z " fill="#FF795E" transform="translate(202,318)"/>
<path d="M0 0 C0.99 0.33 1.98 0.66 3 1 C3.04934154 7.08722746 3.08569167 13.1743392 3.10986328 19.26171875 C3.11993712 21.33367947 3.13359666 23.40562593 3.15087891 25.47753906 C3.17506664 28.45120764 3.18646908 31.4246887 3.1953125 34.3984375 C3.20563507 35.32868744 3.21595764 36.25893738 3.22659302 37.21737671 C3.22674408 38.07811798 3.22689514 38.93885925 3.22705078 39.82568359 C3.231492 40.58513275 3.23593323 41.34458191 3.24050903 42.12704468 C3 44 3 44 1 46 C0.79494955 48.11037045 0.79494955 48.11037045 0.9375 50.4375 C1.05115028 53.43687912 0.96909818 55.09270547 0 58 C0.66 58.33 1.32 58.66 2 59 C1.01 59.66 0.02 60.32 -1 61 C-2.32 60.67 -3.64 60.34 -5 60 C-5 54.39 -5 48.78 -5 43 C-3.68 43 -2.36 43 -1 43 C-1.00523682 41.73293213 -1.01047363 40.46586426 -1.01586914 39.16040039 C-1.03391514 34.4771393 -1.04543053 29.79388129 -1.05493164 25.1105957 C-1.05997278 23.08031702 -1.06680557 21.05004198 -1.07543945 19.01977539 C-1.08751467 16.10822653 -1.09323034 13.1967255 -1.09765625 10.28515625 C-1.10281754 9.3716188 -1.10797882 8.45808136 -1.11329651 7.51686096 C-1.11349168 5.34424573 -1.06211805 3.17172704 -1 1 C-0.67 0.67 -0.34 0.34 0 0 Z " fill="#FFEF6B" transform="translate(109,276)"/>
<path d="M0 0 C0.33 0 0.66 0 1 0 C1.06948318 8.03195042 1.12280239 16.06377545 1.15543652 24.09595203 C1.17109859 27.82555055 1.19234629 31.55494358 1.22631836 35.28442383 C1.25889319 38.88299774 1.27684894 42.48137389 1.28463173 46.08008385 C1.29017868 47.45364178 1.30101052 48.82718878 1.31719017 50.20066261 C1.33893676 52.12300707 1.34022517 54.04555015 1.34057617 55.96801758 C1.34723801 57.06277908 1.35389984 58.15754059 1.36076355 59.28547668 C1 62 1 62 -0.52128601 63.8769989 C-1.25324944 64.43288445 -1.25324944 64.43288445 -2 65 C-4.60317625 62.39682375 -4.25763769 61.30518875 -4.2746582 57.67993164 C-4.28419022 56.56860367 -4.29372223 55.4572757 -4.30354309 54.31227112 C-4.30263168 53.10707321 -4.30172028 51.90187531 -4.30078125 50.66015625 C-4.30506638 49.42712265 -4.3093515 48.19408905 -4.31376648 46.9236908 C-4.32099425 43.64175289 -4.31787515 40.35999742 -4.31219482 37.07806396 C-4.31249947 35.06600694 -4.32253448 33.05424436 -4.33618164 31.04223633 C-4.36061045 27.18556806 -4.36483929 23.32939206 -4.36328125 19.47265625 C-4.372491 18.26948257 -4.38170074 17.0663089 -4.39118958 15.82667542 C-4.38496078 14.71219528 -4.37873199 13.59771515 -4.37231445 12.44946289 C-4.37294388 11.46732315 -4.3735733 10.48518341 -4.3742218 9.47328186 C-3.9361608 6.57807821 -3.17614761 5.85600187 -1 4 C-0.28552357 1.89667109 -0.28552357 1.89667109 0 0 Z " fill="#FCFA85" transform="translate(119,267)"/>
<path d="M0 0 C0.17687391 7.5274807 0.34283553 15.05513432 0.49477577 22.58315849 C0.56566892 26.078534 0.64035295 29.57374359 0.72363281 33.06884766 C0.81915787 37.08477753 0.89831525 41.10088358 0.9765625 45.1171875 C1.00875885 46.37554413 1.0409552 47.63390076 1.0741272 48.9303894 C1.10438492 50.67196823 1.10438492 50.67196823 1.13525391 52.44873047 C1.15746002 53.47465302 1.17966614 54.50057556 1.20254517 55.55758667 C1 58 1 58 -1 60 C-1.99 60 -2.98 60 -4 60 C-4.06949629 52.6199985 -4.12280914 45.2400675 -4.15543652 37.85980511 C-4.17109574 34.43286777 -4.19233804 31.00615423 -4.22631836 27.5793457 C-4.26513514 23.64016392 -4.27970716 19.70107291 -4.29296875 15.76171875 C-4.30845261 14.53039719 -4.32393646 13.29907562 -4.33988953 12.03044128 C-4.34011612 10.88948502 -4.34034271 9.74852875 -4.34057617 8.57299805 C-4.35056892 7.06409248 -4.35056892 7.06409248 -4.36076355 5.52470398 C-4 3 -4 3 -2.54121399 1.15168762 C-1 0 -1 0 0 0 Z " fill="#FFFC76" transform="translate(43,264)"/>
<path d="M0 0 C0.66 0 1.32 0 2 0 C2.33 23.1 2.66 46.2 3 70 C0.525 70.495 0.525 70.495 -2 71 C-2.16677282 74.41656024 -2.16677282 74.41656024 -2 78 C-1.34 78.66 -0.68 79.32 0 80 C-4.84659077 79.40895235 -8.60748167 78.02055843 -13 76 C-12.67 74.35 -12.34 72.7 -12 71 C-12.66 70.67 -13.32 70.34 -14 70 C-13.07316406 69.87882812 -12.14632812 69.75765625 -11.19140625 69.6328125 C-9.99386719 69.46523438 -8.79632813 69.29765625 -7.5625 69.125 C-6.36753906 68.96257812 -5.17257813 68.80015625 -3.94140625 68.6328125 C-2.48541016 68.31957031 -2.48541016 68.31957031 -1 68 C0.36768937 65.26462125 0.11967436 63.09908109 0.11352539 60.03735352 C0.11344986 58.78588028 0.11337433 57.53440704 0.11329651 56.24501038 C0.10818783 54.87297527 0.1029718 53.50094057 0.09765625 52.12890625 C0.09579087 50.72647655 0.09436753 49.32404619 0.09336853 47.9216156 C0.08954722 44.22543546 0.07972375 40.52929451 0.06866455 36.83312988 C0.05846322 33.07560757 0.05386806 29.31807903 0.04882812 25.56054688 C0.03924818 18.95335884 0.02473969 12.34619999 0.00672913 5.73902893 C0.00202934 3.82602375 0 1.91301096 0 0 Z " fill="#FEF27E" transform="translate(56,258)"/>
<path d="M0 0 C2.5 0.125 2.5 0.125 5 1 C6.3125 3.0625 6.3125 3.0625 7 5 C7.66 3.68 8.32 2.36 9 1 C9.99 1 10.98 1 12 1 C11.34 2.65 10.68 4.3 10 6 C12.475 6.99 12.475 6.99 15 8 C15.1953125 14.0546875 15.1953125 14.0546875 15 16 C14.34 16.66 13.68 17.32 13 18 C11.68 18 10.36 18 9 18 C8.34 16.35 7.68 14.7 7 13 C6.3503125 13.99 6.3503125 13.99 5.6875 15 C5.130625 15.66 4.57375 16.32 4 17 C3.01 17 2.02 17 1 17 C1.66 15.35 2.32 13.7 3 12 C2.360625 11.87625 1.72125 11.7525 1.0625 11.625 C0.381875 11.41875 -0.29875 11.2125 -1 11 C-2.50662097 7.98675805 -2.17770373 5.31713623 -2 2 C-1.34 1.34 -0.68 0.68 0 0 Z " fill="#E1B540" transform="translate(85,29)"/>
<path d="M0 0 C0.33 0 0.66 0 1 0 C1 51.81 1 103.62 1 157 C1.66 157 2.32 157 3 157 C7.65909091 161.31818182 7.65909091 161.31818182 9 164 C3.52495288 163.51332915 3.52495288 163.51332915 1.32332897 161.36045456 C-0.42142476 158.24829426 -0.36919391 156.04595956 -0.36076355 152.48272705 C-0.36332682 151.83002453 -0.3658901 151.177322 -0.36853105 150.50484061 C-0.373469 148.31970682 -0.35697677 146.13526535 -0.34057617 143.95019531 C-0.3397299 142.38312293 -0.34020505 140.81604935 -0.34190369 139.24897766 C-0.34276505 134.99511387 -0.32511644 130.74150343 -0.30418181 126.48769855 C-0.2854386 122.0420847 -0.28366643 117.59646515 -0.28010559 113.15081787 C-0.2707782 104.73251959 -0.24615502 96.31433807 -0.21605712 87.89609122 C-0.18253472 78.31215858 -0.16603254 68.72822039 -0.15097082 59.14424372 C-0.11960607 39.42943062 -0.06683207 19.71472266 0 0 Z " fill="#D5D7F4" transform="translate(279,172)"/>
<path d="M0 0 C2.00720923 0.28674418 4.0085944 0.61866701 6 1 C6.33 1.99 6.66 2.98 7 4 C7.66 2.68 8.32 1.36 9 0 C9.99 0 10.98 0 12 0 C11.34 1.98 10.68 3.96 10 6 C11.65 6.33 13.3 6.66 15 7 C15.1953125 13.0546875 15.1953125 13.0546875 15 15 C14.34 15.66 13.68 16.32 13 17 C11 17 11 17 9 16 C7.75 12.9375 7.75 12.9375 7 10 C5.68 12.31 4.36 14.62 3 17 C2.34 17 1.68 17 1 17 C2.875 12.25 2.875 12.25 4 10 C2.35 9.67 0.7 9.34 -1 9 C-1.09765625 2.84765625 -1.09765625 2.84765625 -1 1 C-0.67 0.67 -0.34 0.34 0 0 Z " fill="#DF6F67" transform="translate(200,30)"/>
<path d="M0 0 C2.4375 0.1875 2.4375 0.1875 5 1 C6.3125 3.0625 6.3125 3.0625 7 5 C7.45375 4.175 7.9075 3.35 8.375 2.5 C8.91125 1.675 9.4475 0.85 10 0 C10.66 0 11.32 0 12 0 C11.34 1.98 10.68 3.96 10 6 C10.9590625 6.2165625 10.9590625 6.2165625 11.9375 6.4375 C14 7 14 7 15 8 C15.26293056 12.03160191 15.29404844 13.55892734 13 17 C11.125 16.875 11.125 16.875 9 16 C7.75 12.9375 7.75 12.9375 7 10 C6.01 11.98 5.02 13.96 4 16 C3.34 16 2.68 16 2 16 C2.66 14.02 3.32 12.04 4 10 C2.35 9.67 0.7 9.34 -1 9 C-1.09765625 2.84765625 -1.09765625 2.84765625 -1 1 C-0.67 0.67 -0.34 0.34 0 0 Z " fill="#593675" transform="translate(328,30)"/>
<path d="M0 0 C6.15234375 -0.09765625 6.15234375 -0.09765625 8 0 C9.88537558 1.88537558 9 5.48379151 9 8 C9.29185063 10.0064731 9.61169599 12.00994193 10 14 C8.375 15.5625 8.375 15.5625 6 17 C0.57446809 16.57446809 0.57446809 16.57446809 -1 15 C-1.04346799 13.00047242 -1.039992 10.99960012 -1 9 C-1 8.01 -1 7.02 -1 6 C-0.68578929 3.99690671 -0.3548954 1.99628664 0 0 Z " fill="#E06253" transform="translate(187,30)"/>
<path d="M0 0 C0.33 0.66 0.66 1.32 1 2 C2.65 1.34 4.3 0.68 6 0 C6.66 1.32 7.32 2.64 8 4 C6.68 4.33 5.36 4.66 4 5 C4.391875 5.515625 4.78375 6.03125 5.1875 6.5625 C6 9 6 9 4.8125 12.625 C3 16 3 16 0 18 C-0.99 18 -1.98 18 -3 18 C-3 18.66 -3 19.32 -3 20 C-4.32 20.33 -5.64 20.66 -7 21 C-7 20.34 -7 19.68 -7 19 C-7.99 18.67 -8.98 18.34 -10 18 C-9.67 17.34 -9.34 16.68 -9 16 C-6.4375 15.375 -6.4375 15.375 -4 15 C-4.04125 14.05125 -4.0825 13.1025 -4.125 12.125 C-4 9 -4 9 -2 7 C-2.66 6.67 -3.32 6.34 -4 6 C-2.25 1.125 -2.25 1.125 0 0 Z " fill="#CDB4F9" transform="translate(52,2)"/>
<path d="M0 0 C3.0625 0.3125 3.0625 0.3125 4.9375 1.375 C6.69571377 4.40303482 6.35849229 6.87898943 6.0625 10.3125 C5.24779503 13.36764365 4.78751925 14.80498653 2.1875 16.625 C0.0625 17.3125 0.0625 17.3125 -3.9375 17.3125 C-3.9375 16.3225 -3.9375 15.3325 -3.9375 14.3125 C-2.968125 14.02375 -1.99875 13.735 -1 13.4375 C2.16914203 12.67035318 2.16914203 12.67035318 3.0625 10.3125 C2.11375 10.35375 1.165 10.395 0.1875 10.4375 C-2.9375 10.3125 -2.9375 10.3125 -4.9375 8.3125 C-5.1875 5.3125 -5.1875 5.3125 -4.9375 2.3125 C-2.9375 0.3125 -2.9375 0.3125 0 0 Z " fill="#533170" transform="translate(318.9375,29.6875)"/>
<path d="M0 0 C1.75763672 0.46986328 1.75763672 0.46986328 3.55078125 0.94921875 C4.73027344 1.25472656 5.90976562 1.56023437 7.125 1.875 C8.02863281 2.12636719 8.93226563 2.37773437 9.86328125 2.63671875 C8.86328125 4.63671875 7.86328125 6.63671875 6.86328125 8.63671875 C6.20328125 8.63671875 5.54328125 8.63671875 4.86328125 8.63671875 C4.53328125 9.29671875 4.20328125 9.95671875 3.86328125 10.63671875 C2.87328125 10.63671875 1.88328125 10.63671875 0.86328125 10.63671875 C-0.12671875 12.12171875 -0.12671875 12.12171875 -1.13671875 13.63671875 C-2.16991688 12.37591755 -3.18796254 11.10268617 -4.19921875 9.82421875 C-5.05193359 8.76267578 -5.05193359 8.76267578 -5.921875 7.6796875 C-6.32277344 7.00550781 -6.72367187 6.33132813 -7.13671875 5.63671875 C-5.67283468 1.24506654 -4.88911634 -0.56623639 0 0 Z " fill="#B0BFFA" transform="translate(292.13671875,338.36328125)"/>
<path d="M0 0 C1.65 0 3.3 0 5 0 C4.51678051 4.75165831 3.95134825 8.60946644 2 13 C1.25226111 15.7706914 0.65829767 18.56834984 0.0625 21.375 C-0.73641401 25.00915771 -1.74126719 28.49353002 -3 32 C-3.99 32 -4.98 32 -6 32 C-6.95225866 27.81006189 -7.17609291 25.71215849 -5 22 C-5 21.01 -5 20.02 -5 19 C-4.34 19 -3.68 19 -3 19 C-3.33 18.01 -3.66 17.02 -4 16 C-2.9451912 13.40354757 -1.56357592 11.34536388 0 9 C0.24107326 6.71351152 0.24107326 6.71351152 0.125 4.3125 C0.10695313 3.50425781 0.08890625 2.69601563 0.0703125 1.86328125 C0.04710937 1.24839844 0.02390625 0.63351563 0 0 Z " fill="#CCADF9" transform="translate(23,0)"/>
<path d="M0 0 C3.01305957 0.38878188 4.39685311 1.26456874 7 3 C7.1875 6.625 7.1875 6.625 7 10 C6.01 10.33 5.02 10.66 4 11 C4 10.34 4 9.68 4 9 C3.34 9 2.68 9 2 9 C1.67 9.66 1.34 10.32 1 11 C0.01 11.495 0.01 11.495 -1 12 C-1.61875 11.2884375 -1.61875 11.2884375 -2.25 10.5625 C-4.182185 8.83733482 -5.48192275 8.43415125 -8 8 C-8.33 6.68 -8.66 5.36 -9 4 C-6.35261084 2.5393715 -5.10551666 2 -2 2 C-1.34 1.34 -0.68 0.68 0 0 Z " fill="#DEDDFC" transform="translate(393,17)"/>
<path d="M0 0 C3.5625 0.1875 3.5625 0.1875 5.5625 2.1875 C5.77122719 4.97052919 5.81890898 6.67468205 4.5625 9.1875 C5.2225 9.5175 5.8825 9.8475 6.5625 10.1875 C6.25 13.0625 6.25 13.0625 5.5625 16.1875 C2.1272952 18.47763653 0.577169 18.36592973 -3.4375 18.1875 C-4.0975 16.8675 -4.7575 15.5475 -5.4375 14.1875 C-2.7975 14.5175 -0.1575 14.8475 2.5625 15.1875 C2.2325 13.8675 1.9025 12.5475 1.5625 11.1875 C0.2425 10.8575 -1.0775 10.5275 -2.4375 10.1875 C-2.4375 9.1975 -2.4375 8.2075 -2.4375 7.1875 C-0.7875 7.1875 0.8625 7.1875 2.5625 7.1875 C2.5625 5.8675 2.5625 4.5475 2.5625 3.1875 C0.2525 3.5175 -2.0575 3.8475 -4.4375 4.1875 C-4.4375 -0.08869962 -4.33823476 0.23663099 0 0 Z " fill="#E0B54D" transform="translate(75.4375,28.8125)"/>
<path d="M0 0 C1.60407328 -0.02708567 3.2082785 -0.04643483 4.8125 -0.0625 C5.70582031 -0.07410156 6.59914063 -0.08570313 7.51953125 -0.09765625 C10 0 10 0 13 1 C13 3.64 13 6.28 13 9 C12.34 9 11.68 9 11 9 C11 8.34 11 7.68 11 7 C10.01 7.66 9.02 8.32 8 9 C5.95703125 9.1953125 5.95703125 9.1953125 3.8125 9.125 C1.9253125 9.063125 1.9253125 9.063125 0 9 C0 6.03 0 3.06 0 0 Z " fill="#7674AF" transform="translate(316,360)"/>
<path d="M0 0 C1.5625 1.125 1.5625 1.125 3 3 C2.6875 5.9375 2.6875 5.9375 2 9 C1.85838024 12.83890752 1.85838024 12.83890752 2.625 15.875 C3.05752715 19.47939294 2.34842439 21.66859857 1 25 C-2.39417765 21.87378374 -4.6062718 19.43458973 -6 15 C-5.01 15 -4.02 15 -3 15 C-2.17361624 12.10765685 -2 10.11257569 -2 7 C-1.20454545 1.20454545 -1.20454545 1.20454545 0 0 Z " fill="#D3C4FC" transform="translate(154,8)"/>
<path d="M0 0 C0.33 0 0.66 0 1 0 C1 22.77 1 45.54 1 69 C2.98 68.505 2.98 68.505 5 68 C5 68.99 5 69.98 5 71 C4.01 71.99 4.01 71.99 3 73 C3 72.34 3 71.68 3 71 C2.34 71 1.68 71 1 71 C1 72.98 1 74.96 1 77 C1.66 77.33 2.32 77.66 3 78 C3 79.32 3 80.64 3 82 C2.34 82 1.68 82 1 82 C0.505 82.99 0.505 82.99 0 84 C0 56.28 0 28.56 0 0 Z " fill="#D3CFF9" transform="translate(243,80)"/>
<path d="M0 0 C0.66 0.33 1.32 0.66 2 1 C-2.07749338 5.86668565 -5.90157579 7.47061462 -12 9 C-12.80179688 9.20625 -13.60359375 9.4125 -14.4296875 9.625 C-20.26227166 10.90143179 -25.98911349 11.20262012 -31.9375 11.25 C-33.03868164 11.26389771 -33.03868164 11.26389771 -34.16210938 11.27807617 C-38.03122322 11.25530092 -40.6394753 10.86989826 -44 9 C-43.29617187 8.96559814 -42.59234375 8.93119629 -41.8671875 8.89575195 C-19.53870499 8.84881243 -19.53870499 8.84881243 0 0 Z " fill="#D9D2EA" transform="translate(239,331)"/>
<path d="M0 0 C0.66 0.33 1.32 0.66 2 1 C-0.63600927 4.95401391 -3.40883554 5.22957214 -7.8125 6.1875 C-8.59625 6.36039551 -9.38 6.53329102 -10.1875 6.71142578 C-16.62959831 7.99453602 -22.93981611 8.36876462 -29.5 8.375 C-30.41370361 8.37653076 -31.32740723 8.37806152 -32.26879883 8.37963867 C-38.7300189 8.2699811 -38.7300189 8.2699811 -41 6 C-39.23849609 5.94392578 -39.23849609 5.94392578 -37.44140625 5.88671875 C-29.0810877 5.56597477 -20.87082739 5.0292575 -12.625 3.5625 C-11.93092041 3.44028076 -11.23684082 3.31806152 -10.52172852 3.19213867 C-7.58829441 2.63622744 -4.91811076 1.96668342 -2.1484375 0.83984375 C-1.43945312 0.56269531 -0.73046875 0.28554688 0 0 Z " fill="#DDD7E8" transform="translate(113,334)"/>
<path d="M0 0 C2.875 -0.125 2.875 -0.125 6 0 C8 2 8 2 8.4375 4.75 C7.83839921 9.20046302 6.06348779 10.78333782 3 14 C5.97 14.495 5.97 14.495 9 15 C9 15.66 9 16.32 9 17 C5.37 17 1.74 17 -2 17 C-1 13 -1 13 1.5 10.5625 C4.11827631 7.87876678 4.68697176 6.6519961 5 3 C2.69 3.33 0.38 3.66 -2 4 C-1.34 2.68 -0.68 1.36 0 0 Z " fill="#E0B548" transform="translate(60,29)"/>
<path d="M0 0 C0.66 0 1.32 0 2 0 C2.43177893 6.26079448 1.92739438 9.09075703 -2 14 C-2.66 13.67 -3.32 13.34 -4 13 C-4 12.34 -4 11.68 -4 11 C-3.34 11 -2.68 11 -2 11 C-2 10.34 -2 9.68 -2 9 C-3.65 8.67 -5.3 8.34 -7 8 C-7.33 8.66 -7.66 9.32 -8 10 C-8.66 10 -9.32 10 -10 10 C-10.66 10.66 -11.32 11.32 -12 12 C-11.5256902 7.7312118 -9.19283436 5.68488344 -6 3 C-3.25 2.3125 -3.25 2.3125 -1 2 C-0.67 1.34 -0.34 0.68 0 0 Z " fill="#CBCAFD" transform="translate(277,140)"/>
<path d="M0 0 C0.33 0 0.66 0 1 0 C1 4.29 1 8.58 1 13 C1.66 13 2.32 13 3 13 C3.33 11.68 3.66 10.36 4 9 C4.33 10.32 4.66 11.64 5 13 C5.66 13 6.32 13 7 13 C7 14.32 7 15.64 7 17 C7.94875 16.95875 8.8975 16.9175 9.875 16.875 C13 17 13 17 15 19 C9.72 19.33 4.44 19.66 -1 20 C-0.67 13.4 -0.34 6.8 0 0 Z " fill="#CBBFF8" transform="translate(58,237)"/>
<path d="M0 0 C0.33 0 0.66 0 1 0 C1.00410889 0.73637695 1.00821777 1.47275391 1.01245117 2.23144531 C1.04536992 5.57177695 1.11601314 8.91028051 1.1875 12.25 C1.19330078 13.40886719 1.19910156 14.56773437 1.20507812 15.76171875 C1.20032277 22.23836002 1.20032277 22.23836002 4.21875 27.6875 C6.9125039 28.95870971 9.43480955 29.98261588 12.3125 30.75 C13.19550781 30.99234375 14.07851562 31.2346875 14.98828125 31.484375 C15.65214844 31.65453125 16.31601563 31.8246875 17 32 C16.34 32.66 15.68 33.32 15 34 C9.3245494 33.67257016 4.92625578 32.13095182 0.33276367 28.78588867 C-1.65581451 26.12121576 -1.24353718 24.07940167 -1.07421875 20.80078125 C-1.01943359 19.59228516 -0.96464844 18.38378906 -0.90820312 17.13867188 C-0.83537109 15.87603516 -0.76253906 14.61339844 -0.6875 13.3125 C-0.62626953 12.03826172 -0.56503906 10.76402344 -0.50195312 9.45117188 C-0.34851627 6.29981484 -0.1806358 3.14989608 0 0 Z " fill="#E3D9E5" transform="translate(159,305)"/>
<path d="M0 0 C-0.01160156 0.94101562 -0.02320313 1.88203125 -0.03515625 2.8515625 C-0.04417969 4.09679687 -0.05320313 5.34203125 -0.0625 6.625 C-0.07410156 7.85476563 -0.08570313 9.08453125 -0.09765625 10.3515625 C-0.00863924 13.67723791 0.36313913 16.74047588 1 20 C-0.32 20.99 -1.64 21.98 -3 23 C-3.25417629 19.5430244 -3.47407622 16.08471174 -3.6875 12.625 C-3.76033203 11.64015625 -3.83316406 10.6553125 -3.90820312 9.640625 C-3.96298828 8.69960938 -4.01777344 7.75859375 -4.07421875 6.7890625 C-4.13182373 5.91975098 -4.18942871 5.05043945 -4.2487793 4.15478516 C-4.16668213 3.44370605 -4.08458496 2.73262695 -4 2 C-1 0 -1 0 0 0 Z " fill="#FE9B7B" transform="translate(164,302)"/>
<path d="M0 0 C1.65 0 3.3 0 5 0 C7 2 7 2 7.0625 5.4375 C7.041875 6.613125 7.02125 7.78875 7 9 C7.33 9.99 7.66 10.98 8 12 C7.34 12 6.68 12 6 12 C5.71125 11.360625 5.4225 10.72125 5.125 10.0625 C4.17176549 7.84793921 4.17176549 7.84793921 2 7 C2 8.65 2 10.3 2 12 C1.34 12 0.68 12 0 12 C0 8.04 0 4.08 0 0 Z " fill="#736AA6" transform="translate(299,357)"/>
<path d="M0 0 C0.33 0 0.66 0 1 0 C1.14528105 3.74959217 1.23406281 7.49846105 1.3125 11.25 C1.35439453 12.31347656 1.39628906 13.37695312 1.43945312 14.47265625 C1.56390832 22.38800648 1.56390832 22.38800648 -1.51953125 25.734375 C-2.33808594 26.15203125 -3.15664062 26.5696875 -4 27 C-4.69289369 23.27569643 -5.11144596 19.78916254 -5 16 C-3.68 16.33 -2.36 16.66 -1 17 C-0.67 11.39 -0.34 5.78 0 0 Z " fill="#FEA082" transform="translate(240,307)"/>
<path d="M0 0 C1.98 0 3.96 0 6 0 C4.68 0.33 3.36 0.66 2 1 C2 1.99 2 2.98 2 4 C3.65 4.33 5.3 4.66 7 5 C7.625 6.875 7.625 6.875 8 9 C6 11 6 11 2.875 11.125 C1.451875 11.063125 1.451875 11.063125 0 11 C0 7.37 0 3.74 0 0 Z " fill="#C6A76A" transform="translate(54,358)"/>
<path d="M0 0 C1.43655854 -0.08131463 2.8744483 -0.13933559 4.3125 -0.1875 C5.51326172 -0.23970703 5.51326172 -0.23970703 6.73828125 -0.29296875 C9 -0 9 -0 10.79296875 1.3515625 C12 3 12 3 12 5.5625 C11 8 11 8 8.4375 9.3125 C7.2309375 9.6528125 7.2309375 9.6528125 6 10 C5.67 8.02 5.34 6.04 5 4 C4.360625 3.896875 3.72125 3.79375 3.0625 3.6875 C2.381875 3.460625 1.70125 3.23375 1 3 C0.67 2.01 0.34 1.02 0 0 Z " fill="#DDD5FE" transform="translate(283,0)"/>
<path d="M0 0 C0.66 0.33 1.32 0.66 2 1 C2.08692074 5.27070558 2.14036515 9.54118458 2.1875 13.8125 C2.21263672 15.02744141 2.23777344 16.24238281 2.26367188 17.49414062 C2.27333984 18.65751953 2.28300781 19.82089844 2.29296875 21.01953125 C2.3086792 22.09307861 2.32438965 23.16662598 2.34057617 24.27270508 C2 27 2 27 0.48168945 28.8737793 C-0.00726807 29.24543213 -0.49622559 29.61708496 -1 30 C-1.66 29.67 -2.32 29.34 -3 29 C-2.67854004 28.46084961 -2.35708008 27.92169922 -2.02587891 27.36621094 C-0.78523049 24.50462968 -0.68127467 22.25497256 -0.5859375 19.140625 C-0.54726562 18.02558594 -0.50859375 16.91054688 -0.46875 15.76171875 C-0.4378125 14.60285156 -0.406875 13.44398438 -0.375 12.25 C-0.33632812 11.07566406 -0.29765625 9.90132813 -0.2578125 8.69140625 C-0.1636018 5.79442732 -0.07798398 2.89745374 0 0 Z " fill="#E6DEE7" transform="translate(241,305)"/>
<path d="M0 0 C3.63 0 7.26 0 11 0 C10.16583712 4.17081442 9.21232487 7.03530861 7.4375 10.8125 C6.98246094 11.78832031 6.52742188 12.76414062 6.05859375 13.76953125 C5.70925781 14.50558594 5.35992187 15.24164063 5 16 C4.01 15.67 3.02 15.34 2 15 C3.98 10.71 5.96 6.42 8 2 C5.36 2 2.72 2 0 2 C0 1.34 0 0.68 0 0 Z " fill="#482465" transform="translate(301,30)"/>
<path d="M0 0 C3.69230769 0.69230769 3.69230769 0.69230769 5 2 C5.26293056 6.03160191 5.29404844 7.55892734 3 11 C1.68 10.67 0.36 10.34 -1 10 C-1.02689216 8.52093108 -1.04634621 7.04172517 -1.0625 5.5625 C-1.07410156 4.73878906 -1.08570313 3.91507813 -1.09765625 3.06640625 C-1 1 -1 1 0 0 Z " fill="#432061" transform="translate(338,36)"/>
<path d="M0 0 C0.33 1.32 0.66 2.64 1 4 C1.61875 3.79375 2.2375 3.5875 2.875 3.375 C3.926875 3.189375 3.926875 3.189375 5 3 C7 5 7 5 7.125 7.625 C7.08375 8.40875 7.0425 9.1925 7 10 C5.1875 11.0625 5.1875 11.0625 3 12 C2.01 11.67 1.02 11.34 0 11 C0 7.37 0 3.74 0 0 Z " fill="#C46061" transform="translate(203,357)"/>
<path d="M0 0 C0.66 1.65 1.32 3.3 2 5 C2.66 3.68 3.32 2.36 4 1 C5 4 5 4 4.22265625 6.04296875 C3.83980469 6.75066406 3.45695313 7.45835937 3.0625 8.1875 C2.68222656 8.90292969 2.30195313 9.61835938 1.91015625 10.35546875 C1.60980469 10.89816406 1.30945313 11.44085938 1 12 C0.01 11.67 -0.98 11.34 -2 11 C-1.34 10.67 -0.68 10.34 0 10 C-0.33 7.36 -0.66 4.72 -1 2 C-2.32 2 -3.64 2 -5 2 C-5 4.31 -5 6.62 -5 9 C-5.66 9 -6.32 9 -7 9 C-7 6.36 -7 3.72 -7 1 C-4 0 -4 0 0 0 Z " fill="#C3707A" transform="translate(233,360)"/>
<path d="M0 0 C4.875 0.875 4.875 0.875 6 2 C6.04092937 4.33297433 6.04241723 6.66705225 6 9 C4.02 9 2.04 9 0 9 C-0.33 7.68 -0.66 6.36 -1 5 C0.65 4.67 2.3 4.34 4 4 C4 3.34 4 2.68 4 2 C2.68 2 1.36 2 0 2 C0 1.34 0 0.68 0 0 Z " fill="#C5A76B" transform="translate(64,360)"/>
<path d="M0 0 C1.32 0.33 2.64 0.66 4 1 C4.33 1.99 4.66 2.98 5 4 C5.99 4.33 6.98 4.66 8 5 C8 5.66 8 6.32 8 7 C4.77208445 9.1519437 3.71599191 9.20086443 0 9 C0 6.03 0 3.06 0 0 Z " fill="#9196D0" transform="translate(316,360)"/>
<path d="M0 0 C3.69230769 0.69230769 3.69230769 0.69230769 5 2 C5.04092937 4.33297433 5.04241723 6.66705225 5 9 C3.02 9 1.04 9 -1 9 C-1.33 7.68 -1.66 6.36 -2 5 C-0.35 4.67 1.3 4.34 3 4 C3 3.34 3 2.68 3 2 C1.68 1.67 0.36 1.34 -1 1 C-0.67 0.67 -0.34 0.34 0 0 Z " fill="#7067A2" transform="translate(310,360)"/>
<path d="M0 0 C0.33 0 0.66 0 1 0 C1 3.63 1 7.26 1 11 C-2.375 11.125 -2.375 11.125 -6 11 C-6.66 10.34 -7.32 9.68 -8 9 C-7.01 8.67 -6.02 8.34 -5 8 C-3.98812105 6.34051852 -2.9873454 4.67419438 -2 3 C-1.34 3 -0.68 3 0 3 C0 2.01 0 1.02 0 0 Z " fill="#835E9E" transform="translate(301,317)"/>
<path d="M0 0 C1.65 0.33 3.3 0.66 5 1 C5 3.64 5 6.28 5 9 C3.02 9 1.04 9 -1 9 C-1 7.35 -1 5.7 -1 4 C0.32 4 1.64 4 3 4 C3 3.34 3 2.68 3 2 C2.01 2 1.02 2 0 2 C0 1.34 0 0.68 0 0 Z " fill="#C5A869" transform="translate(99,360)"/>
<path d="M0 0 C3 0.25 3 0.25 5 2.25 C4.625 4.375 4.625 4.375 4 6.25 C3.34 5.26 2.68 4.27 2 3.25 C0.68 3.25 -0.64 3.25 -2 3.25 C-1.42547254 7.18075644 -1.42547254 7.18075644 1 10.25 C-3.875 9.375 -3.875 9.375 -5 8.25 C-5.1875 5.3125 -5.1875 5.3125 -5 2.25 C-3 0.25 -3 0.25 0 0 Z " fill="#3F1B5D" transform="translate(319,29.75)"/>
<path d="M0 0 C2.875 -0.125 2.875 -0.125 6 0 C8 2 8 2 8.125 5.125 C8.08375 6.07375 8.0425 7.0225 8 8 C7.01 8 6.02 8 5 8 C5 6.35 5 4.7 5 3 C2.69 3.33 0.38 3.66 -2 4 C-1.34 2.68 -0.68 1.36 0 0 Z " fill="#DFB54F" transform="translate(60,29)"/>
<path d="M0 0 C0.598125 0.226875 1.19625 0.45375 1.8125 0.6875 C1.8125 2.0075 1.8125 3.3275 1.8125 4.6875 C0.1625 4.6875 -1.4875 4.6875 -3.1875 4.6875 C-3.1875 5.3475 -3.1875 6.0075 -3.1875 6.6875 C-1.5375 6.6875 0.1125 6.6875 1.8125 6.6875 C1.4825 7.3475 1.1525 8.0075 0.8125 8.6875 C-0.8375 8.3575 -2.4875 8.0275 -4.1875 7.6875 C-4.875 5.375 -4.875 5.375 -5.1875 2.6875 C-3.60587179 0.1901923 -2.97595617 -0.4251366 0 0 Z " fill="#C37683" transform="translate(216.1875,360.3125)"/>
<path d="M0 0 C2.875 -0.125 2.875 -0.125 6 0 C8 2 8 2 8.125 5.625 C8.08375 6.73875 8.0425 7.8525 8 9 C7.34 9 6.68 9 6 9 C6 6.69 6 4.38 6 2 C4.68 2 3.36 2 2 2 C2 4.31 2 6.62 2 9 C1.34 9 0.68 9 0 9 C0 6.03 0 3.06 0 0 Z " fill="#C6A664" transform="translate(71,360)"/>
<path d="M0 0 C0.99 1.485 0.99 1.485 2 3 C2.66 2.01 3.32 1.02 4 0 C4.66 0 5.32 0 6 0 C6.66 0.66 7.32 1.32 8 2 C8.66 1.34 9.32 0.68 10 0 C9.67 2.31 9.34 4.62 9 7 C8.01 7 7.02 7 6 7 C6 5.68 6 4.36 6 3 C5.34 3 4.68 3 4 3 C3.67 4.65 3.34 6.3 3 8 C2.34 7.67 1.68 7.34 1 7 C0.59270772 4.67843403 0.25561323 2.3431213 0 0 Z " fill="#C3666A" transform="translate(191,361)"/>
<path d="M0 0 C1.98 0 3.96 0 6 0 C6 0.66 6 1.32 6 2 C8.97 2.495 8.97 2.495 12 3 C12 3.66 12 4.32 12 5 C11.38125 5.12375 10.7625 5.2475 10.125 5.375 C7.80879168 5.87197356 7.80879168 5.87197356 6 8 C5.7525 7.360625 5.505 6.72125 5.25 6.0625 C4.18437567 3.81258459 4.18437567 3.81258459 1.875 3.25 C0.946875 3.12625 0.946875 3.12625 0 3 C0 2.01 0 1.02 0 0 Z " fill="#C3B1D1" transform="translate(56,359)"/>
<path d="M0 0 C2.0625 0.4375 2.0625 0.4375 4 1 C4 3.31 4 5.62 4 8 C2.35 8.33 0.7 8.66 -1 9 C-1.33 7.35 -1.66 5.7 -2 4 C-0.68 4 0.64 4 2 4 C2 3.34 2 2.68 2 2 C1.01 1.67 0.02 1.34 -1 1 C-0.67 0.67 -0.34 0.34 0 0 Z " fill="#C37785" transform="translate(185,360)"/>
<path d="M0 0 C0.99 0.66 1.98 1.32 3 2 C3.1875 5.125 3.1875 5.125 3 8 C1.68 7.01 0.36 6.02 -1 5 C-2.32 6.32 -3.64 7.64 -5 9 C-5.66 8.67 -6.32 8.34 -7 8 C-6.21366078 6.85050412 -5.42073742 5.70551011 -4.625 4.5625 C-4.18414062 3.92441406 -3.74328125 3.28632813 -3.2890625 2.62890625 C-2 1 -2 1 0 0 Z " fill="#C6B0FB" transform="translate(14,196)"/>
<path d="M0 0 C2.375 -0.125 2.375 -0.125 5 0 C7 2 7 2 7.125 5.625 C7.08375 6.73875 7.0425 7.8525 7 9 C6.34 9 5.68 9 5 9 C5 6.69 5 4.38 5 2 C4.01 2.33 3.02 2.66 2 3 C1.67 4.98 1.34 6.96 1 9 C0.67 9 0.34 9 0 9 C0 6.03 0 3.06 0 0 Z " fill="#C6A554" transform="translate(89,360)"/>
<path d="M0 0 C2.125 0.375 2.125 0.375 4 1 C3.67 1.33 3.34 1.66 3 2 C2.95907063 4.33297433 2.95758277 6.66705225 3 9 C2.34 9 1.68 9 1 9 C0.67 8.34 0.34 7.68 0 7 C-0.66 7.66 -1.32 8.32 -2 9 C-2.125 5.625 -2.125 5.625 -2 2 C-1.34 1.34 -0.68 0.68 0 0 Z " fill="#DAB68D" transform="translate(85,29)"/>
<path d="M0 0 C0.99 0.33 1.98 0.66 3 1 C2.34 1 1.68 1 1 1 C1 3.31 1 5.62 1 8 C1.66 8 2.32 8 3 8 C3.66 6.68 4.32 5.36 5 4 C4.67 5.98 4.34 7.96 4 10 C2.35 9.67 0.7 9.34 -1 9 C-1.09765625 2.84765625 -1.09765625 2.84765625 -1 1 C-0.67 0.67 -0.34 0.34 0 0 Z " fill="#E15C49" transform="translate(200,30)"/>
<path d="M0 0 C1.65 0.33 3.3 0.66 5 1 C4.67 2.65 4.34 4.3 4 6 C2.35 5.67 0.7 5.34 -1 5 C-0.67 3.35 -0.34 1.7 0 0 Z " fill="#C9BFE9" transform="translate(317,32)"/>
<path d="M0 0 C1.67542976 0.28604898 3.34385343 0.61781233 5 1 C4.34 3.31 3.68 5.62 3 8 C2.01 7.67 1.02 7.34 0 7 C-0.38133299 5.0085944 -0.71325582 3.00720923 -1 1 C-0.67 0.67 -0.34 0.34 0 0 Z " fill="#866EA4" transform="translate(328,30)"/>
<path d="M0 0 C1.32 0 2.64 0 4 0 C5.35439668 2.70879335 5.06501451 5.00933268 5 8 C4.34 8 3.68 8 3 8 C3 7.01 3 6.02 3 5 C2.01 5 1.02 5 0 5 C0 5.99 0 6.98 0 8 C-0.66 8 -1.32 8 -2 8 C-1.67 6.68 -1.34 5.36 -1 4 C0.32 4 1.64 4 3 4 C3 3.34 3 2.68 3 2 C1.68 1.67 0.36 1.34 -1 1 C-0.67 0.67 -0.34 0.34 0 0 Z " fill="#C6A44F" transform="translate(82,360)"/>
<path d="M0 0 C0.99 0.33 1.98 0.66 3 1 C3.33 2.98 3.66 4.96 4 7 C3.01 7.495 3.01 7.495 2 8 C1.67 7.34 1.34 6.68 1 6 C0.67 6.66 0.34 7.32 0 8 C-0.66 8 -1.32 8 -2 8 C-2 5.69 -2 3.38 -2 1 C-1.34 0.67 -0.68 0.34 0 0 Z " fill="#DB8F9C" transform="translate(203,30)"/>
<path d="M0 0 C0.33 0.66 0.66 1.32 1 2 C4.02934491 2.65772428 4.02934491 2.65772428 7 3 C7 3.66 7 4.32 7 5 C6.38125 5.103125 5.7625 5.20625 5.125 5.3125 C2.63473516 5.87525373 2.63473516 5.87525373 1 9 C0.34 8.34 -0.32 7.68 -1 7 C-0.625 3.375 -0.625 3.375 0 0 Z " fill="#A7B5EF" transform="translate(306,359)"/>
<path d="M0 0 C0.66 0.99 1.32 1.98 2 3 C-0.75 5.0625 -0.75 5.0625 -4 7 C-5.32 6.67 -6.64 6.34 -8 6 C-5.36 4.02 -2.72 2.04 0 0 Z " fill="#E0DFEE" transform="translate(362,330)"/>
<path d="M0 0 C2.0625 0.4375 2.0625 0.4375 4 1 C4 1.66 4 2.32 4 3 C3.34 3 2.68 3 2 3 C1.67 4.65 1.34 6.3 1 8 C0.34 8 -0.32 8 -1 8 C-1.04241723 5.66705225 -1.04092937 3.33297433 -1 1 C-0.67 0.67 -0.34 0.34 0 0 Z " fill="#DAB68A" transform="translate(96,36)"/>
<path d="M0 0 C3.63 0 7.26 0 11 0 C10.67 1.32 10.34 2.64 10 4 C9.34 4 8.68 4 8 4 C8 3.34 8 2.68 8 2 C5.36 2 2.72 2 0 2 C0 1.34 0 0.68 0 0 Z " fill="#391556" transform="translate(301,30)"/>
<path d="M0 0 C1.32 0.33 2.64 0.66 4 1 C4 1.66 4 2.32 4 3 C3.34 3 2.68 3 2 3 C2 4.65 2 6.3 2 8 C2.66 8 3.32 8 4 8 C4 8.66 4 9.32 4 10 C2.68 9.67 1.36 9.34 0 9 C0 6.03 0 3.06 0 0 Z " fill="#C37581" transform="translate(172,359)"/>
<path d="M0 0 C2 0 2 0 4.5625 2.375 C7 5 7 5 8 7 C2.25 6.25 2.25 6.25 0 4 C0 2.68 0 1.36 0 0 Z " fill="#DFDEF0" transform="translate(280,329)"/>
<path d="M0 0 C0.99 0.66 1.98 1.32 3 2 C2.67 2.99 2.34 3.98 2 5 C-0.97 5 -3.94 5 -7 5 C-5.68 4.34 -4.36 3.68 -3 3 C-1.29078411 1.4587688 -1.29078411 1.4587688 0 0 Z " fill="#B2C1FA" transform="translate(301,395)"/>
<path d="M0 0 C0.99 0 1.98 0 3 0 C2.01 3.3 1.02 6.6 0 10 C-0.66 9.34 -1.32 8.68 -2 8 C-1.69347955 5.0574037 -1.32728846 2.65457692 0 0 Z " fill="#DF6A60" transform="translate(209,30)"/>
<path d="M0 0 C5.445 1.485 5.445 1.485 11 3 C11 3.33 11 3.66 11 4 C6.28400182 4.92470553 3.32734391 5.22923777 -1 3 C-0.67 2.01 -0.34 1.02 0 0 Z " fill="#CBC6E5" transform="translate(287,334)"/>
<path d="M0 0 C-1.875 3.875 -1.875 3.875 -3 5 C-4.32594105 5.36162029 -5.65938457 5.69728039 -7 6 C-6.625 3.5625 -6.625 3.5625 -6 1 C-4 0 -4 0 0 0 Z " fill="#C5B1FC" transform="translate(36,218)"/>
<path d="M0 0 C1.65 0.33 3.3 0.66 5 1 C3.71034824 2.37562854 2.37310707 3.70766393 1 5 C0.34 5 -0.32 5 -1 5 C-1.33 5.66 -1.66 6.32 -2 7 C-2.33 6.34 -2.66 5.68 -3 5 C-1.5625 2.375 -1.5625 2.375 0 0 Z " fill="#C5B0FB" transform="translate(8,192)"/>
<path d="M0 0 C0.66 0.99 1.32 1.98 2 3 C4.05003955 4.19232613 4.05003955 4.19232613 6 5 C6 5.66 6 6.32 6 7 C3.03 6.505 3.03 6.505 0 6 C-0.38218767 4.34385343 -0.71395102 2.67542976 -1 1 C-0.67 0.67 -0.34 0.34 0 0 Z " fill="#E06659" transform="translate(187,40)"/>
<path d="M0 0 C1.65 1.65 3.3 3.3 5 5 C4.360625 5.12375 3.72125 5.2475 3.0625 5.375 C2.0415625 5.684375 2.0415625 5.684375 1 6 C0.67 6.66 0.34 7.32 0 8 C-1 7 -1 7 -1.125 4 C-1 1 -1 1 0 0 Z " fill="#A7BAF4" transform="translate(339,361)"/>
<path d="M0 0 C1 3 1 3 0.22265625 5.04296875 C-0.16019531 5.75066406 -0.54304687 6.45835937 -0.9375 7.1875 C-1.31777344 7.90292969 -1.69804687 8.61835938 -2.08984375 9.35546875 C-2.54037109 10.16951172 -2.54037109 10.16951172 -3 11 C-3.99 10.67 -4.98 10.34 -6 10 C-5.34 9.67 -4.68 9.34 -4 9 C-4 7.68 -4 6.36 -4 5 C-3.34 4.67 -2.68 4.34 -2 4 C-0.86649466 1.98330173 -0.86649466 1.98330173 0 0 Z " fill="#C3686E" transform="translate(237,361)"/>
<path d="M0 0 C2.16874252 0.50603992 3.99967627 0.99983813 6 2 C5.67 3.32 5.34 4.64 5 6 C4.01 6 3.02 6 2 6 C1.34 4.02 0.68 2.04 0 0 Z " fill="#B2BFFA" transform="translate(270,344)"/>
<path d="M0 0 C2.97 0.33 5.94 0.66 9 1 C8.67 1.66 8.34 2.32 8 3 C5.69 3 3.38 3 1 3 C0.67 2.01 0.34 1.02 0 0 Z " fill="#B5BBEE" transform="translate(304,339)"/>
<path d="M0 0 C2.97 0.33 5.94 0.66 9 1 C9 1.66 9 2.32 9 3 C5.37 3 1.74 3 -2 3 C-1.34 2.01 -0.68 1.02 0 0 Z " fill="#E3B52F" transform="translate(60,43)"/>
<path d="M0 0 C1.98 0.495 1.98 0.495 4 1 C4 2.32 4 3.64 4 5 C2.35 5 0.7 5 -1 5 C-0.67 3.35 -0.34 1.7 0 0 Z " fill="#D6BFEF" transform="translate(190,39)"/>
<path d="M0 0 C0.33 0 0.66 0 1 0 C1.33 1.65 1.66 3.3 2 5 C2.66 5 3.32 5 4 5 C4.33 3.35 4.66 1.7 5 0 C5.33 0 5.66 0 6 0 C6.125 2.875 6.125 2.875 6 6 C5.34 6.66 4.68 7.32 4 8 C1.875 7.625 1.875 7.625 0 7 C0 4.69 0 2.38 0 0 Z " fill="#3B1758" transform="translate(327,32)"/>
<path d="M0 0 C1.98 0.495 1.98 0.495 4 1 C3.67 2.32 3.34 3.64 3 5 C1.68 4.67 0.36 4.34 -1 4 C-0.67 2.68 -0.34 1.36 0 0 Z " fill="#C0B6E7" transform="translate(205,362)"/>
<path d="M0 0 C2.31 0 4.62 0 7 0 C6.34 1.32 5.68 2.64 5 4 C3.02 3.34 1.04 2.68 -1 2 C-0.67 1.34 -0.34 0.68 0 0 Z " fill="#B7B9FB" transform="translate(199,342)"/>
<path d="M0 0 C0.66 0 1.32 0 2 0 C2 0.66 2 1.32 2 2 C2.66 2 3.32 2 4 2 C3.34 3.32 2.68 4.64 2 6 C1.01 6 0.02 6 -1 6 C-1.042721 4.33388095 -1.04063832 2.66617115 -1 1 C-0.67 0.67 -0.34 0.34 0 0 Z " fill="#C5B1FC" transform="translate(30,207)"/>
<path d="M0 0 C0 3.52809907 -0.64276511 4.46815512 -3 7 C-3.99 7 -4.98 7 -6 7 C-4.52307692 2.32307692 -4.52307692 2.32307692 -1.875 0.6875 C-1.25625 0.460625 -0.6375 0.23375 0 0 Z " fill="#DFB555" transform="translate(92,39)"/>
<path d="M0 0 C0 0.66 0 1.32 0 2 C-4.3164922 2.76173392 -7.74433453 3.16063604 -12 2 C-12 1.67 -12 1.34 -12 1 C-10.56274129 0.83126522 -9.12518162 0.66509263 -7.6875 0.5 C-6.88699219 0.4071875 -6.08648437 0.314375 -5.26171875 0.21875 C-3 0 -3 0 0 0 Z " fill="#E0CEDB" transform="translate(224,338)"/>
<path d="M0 0 C0 0.66 0 1.32 0 2 C-6.0546875 2.9765625 -6.0546875 2.9765625 -8 3 C-8.66 2.34 -9.32 1.68 -10 1 C-6.61981469 -0.04005702 -3.5219721 -0.08004482 0 0 Z " fill="#D7D4EB" transform="translate(353,337)"/>
<path d="M0 0 C0.99 0.33 1.98 0.66 3 1 C3.33 2.98 3.66 4.96 4 7 C3.01 7.495 3.01 7.495 2 8 C0 6 0 6 -0.125 2.875 C-0.08375 1.92625 -0.0425 0.9775 0 0 Z " fill="#FEFA85" transform="translate(115,324)"/>
<path d="M0 0 C0.99 0.66 1.98 1.32 3 2 C2.67 2.66 2.34 3.32 2 4 C-0.32156597 4.40729228 -2.6568787 4.74438677 -5 5 C-3.35 3.35 -1.7 1.7 0 0 Z " fill="#D8D2FC" transform="translate(300,58)"/>
<path d="M0 0 C0 2.31 0 4.62 0 7 C-1.32 6.01 -2.64 5.02 -4 4 C-3.67 3.01 -3.34 2.02 -3 1 C-1 0 -1 0 0 0 Z " fill="#CDC4FD" transform="translate(157,130)"/>
<path d="M0 0 C0.99 0 1.98 0 3 0 C3 1.98 3 3.96 3 6 C2.01 6 1.02 6 0 6 C0 4.02 0 2.04 0 0 Z " fill="#B6A7D3" transform="translate(338,38)"/>
<path d="M0 0 C2.475 0.495 2.475 0.495 5 1 C4.67 1.99 4.34 2.98 4 4 C2.68 3.67 1.36 3.34 0 3 C0 2.01 0 1.02 0 0 Z " fill="#D6B8E2" transform="translate(189,32)"/>
</svg>
