<?xml version="1.0" encoding="UTF-8"?>
<svg version="1.1" xmlns="http://www.w3.org/2000/svg" width="400" height="400">
<path d="M0 0 C132 0 264 0 400 0 C400 132 400 264 400 400 C268 400 136 400 0 400 C0 268 0 136 0 0 Z " fill="#FEF9D9" transform="translate(0,0)"/>
<path d="M0 0 C35.31 0 70.62 0 107 0 C107 44.55 107 89.1 107 135 C104.36 134.34 101.72 133.68 99 133 C99 132.34 99 131.68 99 131 C97.35 131.33 95.7 131.66 94 132 C94 131.34 94 130.68 94 130 C90.95086772 128.98888907 90.95086772 128.98888907 88 130 C88 129.34 88 128.68 88 128 C86.02 127.67 84.04 127.34 82 127 C82 126.34 82 125.68 82 125 C78.7 124.01 75.4 123.02 72 122 C72 121.34 72 120.68 72 120 C70.68 120 69.36 120 68 120 C66.18359375 118.79296875 66.18359375 118.79296875 64.4375 117.1875 C63.85871094 116.66542969 63.27992188 116.14335938 62.68359375 115.60546875 C62.12800781 115.07566406 61.57242188 114.54585938 61 114 C60.43410156 113.48050781 59.86820312 112.96101563 59.28515625 112.42578125 C58 111 58 111 58 109 C57.0409375 108.62875 57.0409375 108.62875 56.0625 108.25 C54 107 54 107 53.25 104.875 C53.1675 104.25625 53.085 103.6375 53 103 C52.34 103 51.68 103 51 103 C50.32471777 101.42032193 49.66010306 99.83608097 49 98.25 C48.62875 97.36828125 48.2575 96.4865625 47.875 95.578125 C47 93 47 93 47 89 C46.34 89 45.68 89 45 89 C44.52006844 86.45847565 44.04103273 83.91678778 43.5625 81.375 C43.42779297 80.66214844 43.29308594 79.94929688 43.15429688 79.21484375 C42.55621411 76.03479391 41.97744319 72.85939039 41.46484375 69.6640625 C41.05193594 66.90838761 41.05193594 66.90838761 40 64 C39.67047802 62.44100104 39.35986205 60.87795147 39.0625 59.3125 C38.42908405 56.05016976 37.72484594 52.8375382 36.875 49.625 C36 46 36 46 36 42 C35.34 42 34.68 42 34 42 C33.814375 41.195625 33.814375 41.195625 33.625 40.375 C32.260048 34.68022225 32.260048 34.68022225 29 30 C28.34286376 28.7243826 27.72100459 27.43029932 27.125 26.125 C25.51065939 22.81198754 23.92419688 20.33935751 21 18 C20.34 18 19.68 18 19 18 C16 13.61538462 16 13.61538462 16 11 C14.68 11.33 13.36 11.66 12 12 C9 8.25 9 8.25 9 6 C6.09399739 4.74335022 4.20395416 4 1 4 C0.67 2.68 0.34 1.36 0 0 Z " fill="#FFFFB5" transform="translate(293,0)"/>
<path d="M0 0 C64.35 0 128.7 0 195 0 C193.73134318 2.53731364 192.50290879 2.78646846 190 4 C189.34 4.66 188.68 5.32 188 6 C187.67 5.67 187.34 5.34 187 5 C186.34 5.66 185.68 6.32 185 7 C184.030625 7.474375 183.06125 7.94875 182.0625 8.4375 C179.29686774 9.84853687 178.03882074 10.79127753 176 13 C172.3654959 16.30409464 169.66962197 18.1618756 165.05859375 19.91796875 C161.15228174 21.97119157 157.95857624 25.05333391 154.6484375 27.94140625 C152.12887632 29.89982622 150.00757189 30.99566643 147 32 C147 32.66 147 33.32 147 34 C141.0612385 39.07690042 135.80394377 41 128 41 C126.515 40.01 126.515 40.01 125 39 C123.35 40.65 121.7 42.3 120 44 C119.34 43.34 118.68 42.68 118 42 C115.53199953 43.15173355 113.95216435 44.04783565 112 46 C111.67 45.34 111.34 44.68 111 44 C109.35 44.99 107.7 45.98 106 47 C105.67 46.34 105.34 45.68 105 45 C104.01 45.99 104.01 45.99 103 47 C100.98872941 48.07267765 98.93725695 49.02952614 96.875 50 C94.83448849 50.97140377 94.83448849 50.97140377 93 53 C93 52.34 93 51.68 93 51 C91.68 51 90.36 51 89 51 C88.01 50.814375 87.02 50.62875 86 50.4375 C83.11064376 49.80646928 83.11064376 49.80646928 80.8125 50.625 C80.214375 50.74875 79.61625 50.8725 79 51 C77.25 49.5625 77.25 49.5625 76 48 C74.515 48.495 74.515 48.495 73 49 C69.48642673 48.62354572 66.35440482 48.11813494 63 47 C61.68 47 60.36 47 59 47 C58.34 47.66 57.68 48.32 57 49 C56.38125 48.2884375 56.38125 48.2884375 55.75 47.5625 C53.79201859 45.81430231 52.58175355 45.33312949 50 45 C49.01 45.495 49.01 45.495 48 46 C48 45.34 48 44.68 48 44 C46.35 44.66 44.7 45.32 43 46 C43 45.34 43 44.68 43 44 C42.01 43.67 41.02 43.34 40 43 C39.34 43.66 38.68 44.32 38 45 C38 44.34 38 43.68 38 43 C35.13275314 43.57344937 34.1385485 43.8614515 32 46 C32 45.34 32 44.68 32 44 C31.34 44 30.68 44 30 44 C29.67 44.66 29.34 45.32 29 46 C27.515 46.495 27.515 46.495 26 47 C23.94729537 48.84188612 23.94729537 48.84188612 23 51 C22.34 51 21.68 51 21 51 C20.67 51.66 20.34 52.32 20 53 C18.57120539 54.02178738 17.10723833 54.99491155 15.625 55.9375 C12.29913163 58.05429792 12.29913163 58.05429792 9.3984375 60.69140625 C8 62 8 62 5 62 C5 62.66 5 63.32 5 64 C3.35 65.32 1.7 66.64 0 68 C0 45.56 0 23.12 0 0 Z " fill="#FFFFB5" transform="translate(0,0)"/>
<path d="M0 0 C2.97 0.495 2.97 0.495 6 1 C6 2.32 6 3.64 6 5 C5.34 5 4.68 5 4 5 C4 5.66 4 6.32 4 7 C16.21 7 28.42 7 41 7 C41.66 8.65 42.32 10.3 43 12 C45.64 12 48.28 12 51 12 C51.66 10.35 52.32 8.7 53 7 C64.88 6.67 76.76 6.34 89 6 C88.01 5.505 88.01 5.505 87 5 C87 3.68 87 2.36 87 1 C92.75 -0.125 92.75 -0.125 95 1 C94.125 4.875 94.125 4.875 93 6 C99.27 6.33 105.54 6.66 112 7 C106.90729507 17.7122414 98.81882102 25.79903437 88.6796875 31.87890625 C86.84054545 32.9058482 86.84054545 32.9058482 86 35 C85.81778702 36.33771426 85.68073298 37.68179987 85.5703125 39.02734375 C85.49683594 39.81947266 85.42335938 40.61160156 85.34765625 41.42773438 C85.19962214 43.09636447 85.058954 44.76566499 84.92578125 46.43554688 C84.84972656 47.22896484 84.77367187 48.02238281 84.6953125 48.83984375 C84.63359863 49.56550537 84.57188477 50.29116699 84.50830078 51.03881836 C83.85963874 53.54155714 83.0875608 54.48392872 81 56 C78.87109375 56.38818359 78.87109375 56.38818359 76.4375 56.3984375 C75.55835938 56.40230469 74.67921875 56.40617187 73.7734375 56.41015625 C72.85820312 56.39855469 71.94296875 56.38695312 71 56.375 C69.62714844 56.39240234 69.62714844 56.39240234 68.2265625 56.41015625 C67.34742188 56.40628906 66.46828125 56.40242188 65.5625 56.3984375 C64.35787109 56.39336182 64.35787109 56.39336182 63.12890625 56.38818359 C60.48939846 55.9068972 59.59548164 55.1267824 58 53 C57.70703125 50.30078125 57.70703125 50.30078125 57.8125 47.3125 C57.85310547 45.82169922 57.85310547 45.82169922 57.89453125 44.30078125 C57.92933594 43.54152344 57.96414062 42.78226562 58 42 C57.33226562 42.16242188 56.66453125 42.32484375 55.9765625 42.4921875 C52.40274466 43.10189396 48.99973903 43.13214939 45.375 43.125 C44.06273437 43.12757813 42.75046875 43.13015625 41.3984375 43.1328125 C38 43 38 43 35 42 C35.05220703 43.01320313 35.05220703 43.01320313 35.10546875 44.046875 C35.13253906 44.93890625 35.15960938 45.8309375 35.1875 46.75 C35.23970703 48.07257813 35.23970703 48.07257813 35.29296875 49.421875 C34.93674388 52.55665383 34.15588674 53.72391201 32 56 C29.85522461 56.48583984 29.85522461 56.48583984 27.40234375 56.4609375 C26.51869141 56.45707031 25.63503906 56.45320313 24.72460938 56.44921875 C23.80486328 56.42472656 22.88511719 56.40023437 21.9375 56.375 C21.01388672 56.37371094 20.09027344 56.37242187 19.13867188 56.37109375 C12.28092617 56.28092617 12.28092617 56.28092617 10 54 C9.65625 52.06396484 9.65625 52.06396484 9.5 49.7109375 C8.89794561 39.85423395 8.89794561 39.85423395 4.86328125 31.14453125 C2.33030924 29.20116375 -0.23170172 27.58600423 -3 26 C-9.24888758 21.25754068 -14.02892734 15.78805233 -18 9 C-18 8.34 -18 7.68 -18 7 C-11.73 7 -5.46 7 1 7 C1 6.34 1 5.68 1 5 C0.01 4.67 -0.98 4.34 -2 4 C-1.34 2.68 -0.68 1.36 0 0 Z " fill="#93D002" transform="translate(151,239)"/>
<path d="M0 0 C2.97383013 1.54661911 5.45661945 3.57384674 7.98828125 5.7578125 C10.49866963 7.53924961 10.49866963 7.53924961 16.04296875 8.0625 C16.04296875 17.9625 16.04296875 27.8625 16.04296875 38.0625 C13.56796875 38.5575 13.56796875 38.5575 11.04296875 39.0625 C9.67344202 41.80155345 9.91675514 44.03337332 10.04296875 47.0625 C10.37296875 47.7225 10.70296875 48.3825 11.04296875 49.0625 C12.69296875 49.3925 14.34296875 49.7225 16.04296875 50.0625 C16.04296875 61.2825 16.04296875 72.5025 16.04296875 84.0625 C11.42296875 84.0625 6.80296875 84.0625 2.04296875 84.0625 C1.38296875 82.4125 0.72296875 80.7625 0.04296875 79.0625 C-2.71953161 77.68124982 -4.90434224 77.87170694 -7.95703125 78.0625 C-10.09557975 80.2010485 -10.38358188 81.19525314 -10.95703125 84.0625 C-21.39681135 84.55059362 -31.22437768 84.47282134 -40.95703125 80.0625 C-45.53245828 75.30011273 -44.50937376 69.34476968 -44.51953125 63.125 C-44.55626953 61.94486328 -44.59300781 60.76472656 -44.63085938 59.54882812 C-44.67338405 51.19981738 -44.67338405 51.19981738 -42.75512695 48.15429688 C-39.77417 45.47740231 -36.93504601 44.57711317 -33.01953125 44.4375 C-29.58073971 43.89697139 -28.31874916 43.47847559 -26.00390625 40.81640625 C-24.83289811 38.91483673 -23.70714115 36.98475896 -22.625 35.03125 C-20.54026768 31.32071941 -18.00491583 28.14429411 -15.33984375 24.83984375 C-11.92098763 20.44555127 -12.38025711 15.41614714 -12.95703125 10.0625 C-14.06054655 7.52163283 -15.46839437 5.41550668 -16.95703125 3.0625 C-16.89453125 0.6875 -16.89453125 0.6875 -15.95703125 -0.9375 C-10.31234195 -2.8190631 -5.40667803 -2.17522056 0 0 Z " fill="#FE538A" transform="translate(157.95703125,159.9375)"/>
<path d="M0 0 C0 10.23 0 20.46 0 31 C-1.65 31.66 -3.3 32.32 -5 33 C-6.33187793 34.11166864 -6.33187793 34.11166864 -6.1875 36.9375 C-6.33278733 40.10892859 -6.33278733 40.10892859 -4 42 C-2.68 42.33 -1.36 42.66 0 43 C0 54.22 0 65.44 0 77 C-6.6 77 -13.2 77 -20 77 C-20 77.66 -20 78.32 -20 79 C-19.34 79 -18.68 79 -18 79 C-18 80.32 -18 81.64 -18 83 C-20.875 83.625 -20.875 83.625 -24 84 C-24.66 83.34 -25.32 82.68 -26 82 C-26 81.01 -26 80.02 -26 79 C-25.01 78.505 -25.01 78.505 -24 78 C-30.6 77.67 -37.2 77.34 -44 77 C-44 64.46 -44 51.92 -44 39 C-44.99 39.66 -45.98 40.32 -47 41 C-49.1875 40.625 -49.1875 40.625 -51 40 C-51 38.02 -51 36.04 -51 34 C-49.02 33.505 -49.02 33.505 -47 33 C-46.67 33.99 -46.34 34.98 -46 36 C-45.34 36 -44.68 36 -44 36 C-44 24.12 -44 12.24 -44 0 C-31.17462415 -3.6643931 -12.45713298 -6.22856649 0 0 Z " fill="#FFC73A" transform="translate(220,167)"/>
<path d="M0 0 C11.67513701 3.5025411 22.28470247 8.28470247 31 17 C31 17.66 31 18.32 31 19 C31.66 19 32.32 19 33 19 C41.15272535 28.89973792 46.15192639 39.06687737 47 52 C47.66 51.67 48.32 51.34 49 51 C48.86980469 50.34773438 48.73960937 49.69546875 48.60546875 49.0234375 C47.33646392 40.98245362 47.33646392 40.98245362 50 37.3125 C53 35 53 35 56.625 34.875 C60 36 60 36 62 37.625 C63.45935975 41.09097942 62.90063398 43.39746408 62 47 C60.5625 49.4375 60.5625 49.4375 59 51 C58.34 51 57.68 51 57 51 C57.33 51.66 57.66 52.32 58 53 C62.71265779 52.54685983 65.31021 51.89912071 69 49 C70.485 49.495 70.485 49.495 72 50 C71.0195412 52.58484592 70.06077857 53.94843031 67.9375 55.75 C63.95332218 57.44539482 60.27722925 57.58917111 56 57 C54.65636119 56.35435538 53.32169124 55.68945956 52 55 C49.33290931 54.83249586 49.33290931 54.83249586 47 55 C47.0825 55.886875 47.165 56.77375 47.25 57.6875 C47.28697739 63.66551062 45.0068319 69.43889956 43 75 C42 76 42 76 38.40234375 76.09765625 C36.91403133 76.0909822 35.42573568 76.07902183 33.9375 76.0625 C33.17888672 76.05798828 32.42027344 76.05347656 31.63867188 76.04882812 C29.75908129 76.0370068 27.87953101 76.01907078 26 76 C25.34 74.35 24.68 72.7 24 71 C20.59679066 70.32326553 20.59679066 70.32326553 17 70 C14.62841973 72.0285831 14.62841973 72.0285831 14 76 C9.38 76 4.76 76 0 76 C-0.33 63.46 -0.66 50.92 -1 38 C-1.66 38.66 -2.32 39.32 -3 40 C-5.125 39.625 -5.125 39.625 -7 39 C-6.67 36.69 -6.34 34.38 -6 32 C-3.83125748 32.50603992 -2.00032373 32.99983813 0 34 C0 22.78 0 11.56 0 0 Z " fill="#37AFE1" transform="translate(222,168)"/>
<path d="M0 0 C12.54 0 25.08 0 38 0 C38 8.91 38 17.82 38 27 C35.525 26.01 35.525 26.01 33 25 C32.01 24.67 31.02 24.34 30 24 C29.54625 23.525625 29.0925 23.05125 28.625 22.5625 C27.01363515 20.80926216 27.01363515 20.80926216 24.375 20 C23.59125 19.67 22.8075 19.34 22 19 C21.67 18.01 21.34 17.02 21 16 C18.57616923 14.83046584 18.57616923 14.83046584 16 14 C15.34 13.67 14.68 13.34 14 13 C14 12.34 14 11.68 14 11 C11.66785852 9.79371992 9.50357861 8.8345262 7 8 C5.97803008 7.02246356 4.98020375 6.0194119 4 5 C3.278125 4.484375 2.55625 3.96875 1.8125 3.4375 C1.214375 2.963125 0.61625 2.48875 0 2 C0 1.34 0 0.68 0 0 Z " fill="#FFFFA3" transform="translate(362,0)"/>
<path d="M0 0 C4.19644858 0.57722234 7.94284161 0.43833457 12.140625 0.09765625 C16.73798431 -0.24211209 21.27895255 -0.46484375 25.890625 -0.46484375 C26.385625 1.51515625 26.385625 1.51515625 26.890625 3.53515625 C26.230625 3.53515625 25.570625 3.53515625 24.890625 3.53515625 C24.890625 2.87515625 24.890625 2.21515625 24.890625 1.53515625 C24.230625 2.19515625 23.570625 2.85515625 22.890625 3.53515625 C20.23525128 4.10035628 17.59917787 4.27303823 14.890625 4.53515625 C14.890625 5.52515625 14.890625 6.51515625 14.890625 7.53515625 C17.860625 7.86515625 20.830625 8.19515625 23.890625 8.53515625 C23.890625 9.52515625 23.890625 10.51515625 23.890625 11.53515625 C19.35200287 12.66981178 19.35200287 12.66981178 17.1640625 12.03125 C13.94721867 11.32929267 11.03542608 11.73479874 7.765625 12.03515625 C1.10855119 12.64411934 1.10855119 12.64411934 -1.109375 11.53515625 C-3.09959021 11.63239076 -3.09959021 11.63239076 -5.234375 11.97265625 C-6.513125 12.15828125 -7.791875 12.34390625 -9.109375 12.53515625 C-9.439375 11.87515625 -9.769375 11.21515625 -10.109375 10.53515625 C-10.439375 11.19515625 -10.769375 11.85515625 -11.109375 12.53515625 C-12.52593293 12.56239775 -13.94264545 12.58166092 -15.359375 12.59765625 C-16.54273437 12.61505859 -16.54273437 12.61505859 -17.75 12.6328125 C-20.02532519 12.53863513 -21.91872713 12.11932902 -24.109375 11.53515625 C-25.77561139 11.49728724 -27.44335097 11.4888778 -29.109375 11.53515625 C-29.439375 10.54515625 -29.769375 9.55515625 -30.109375 8.53515625 C-26.65119941 6.58993248 -24.54059897 6.45261406 -20.796875 7.41015625 C-19.58 7.78140625 -18.363125 8.15265625 -17.109375 8.53515625 C-16.779375 7.21515625 -16.449375 5.89515625 -16.109375 4.53515625 C-15.449375 4.53515625 -14.789375 4.53515625 -14.109375 4.53515625 C-14.439375 3.21515625 -14.769375 1.89515625 -15.109375 0.53515625 C-12.469375 0.53515625 -9.829375 0.53515625 -7.109375 0.53515625 C-7.109375 1.19515625 -7.109375 1.85515625 -7.109375 2.53515625 C-6.449375 2.53515625 -5.789375 2.53515625 -5.109375 2.53515625 C-5.109375 1.87515625 -5.109375 1.21515625 -5.109375 0.53515625 C-3.109375 -0.46484375 -3.109375 -0.46484375 0 0 Z " fill="#F6F4DB" transform="translate(92.109375,161.46484375)"/>
<path d="M0 0 C1.02673828 0.24556641 1.02673828 0.24556641 2.07421875 0.49609375 C5.3743278 1.06447034 8.46554069 1.09630767 11.8125 1.0625 C13.55466797 1.04896484 13.55466797 1.04896484 15.33203125 1.03515625 C16.21246094 1.02355469 17.09289062 1.01195312 18 1 C18 1.66 18 2.32 18 3 C18.55558594 2.67128906 19.11117188 2.34257812 19.68359375 2.00390625 C22.36039673 0.84380783 24.16296579 0.82816613 27.0625 0.9375 C30.18011416 1.04532726 31.9970523 1.00098257 35 0 C35 0.66 35 1.32 35 2 C35.86625 1.62875 36.7325 1.2575 37.625 0.875 C41.55697326 -0.14440048 43.32937509 0.42687504 47 2 C46.67 3.32 46.34 4.64 46 6 C45.34 5.67 44.68 5.34 44 5 C42.32345271 5.27942455 40.65391846 5.60828247 39 6 C39.495 6.598125 39.99 7.19625 40.5 7.8125 C42 10 42 10 42 13 C40.68 13 39.36 13 38 13 C37.505 12.01 37.505 12.01 37 11 C36.01 11.66 35.02 12.32 34 13 C33.505 12.505 33.505 12.505 33 12 C31.68 12.99 30.36 13.98 29 15 C28.01 14.34 27.02 13.68 26 13 C22.45828022 12.83330682 22.45828022 12.83330682 19 13 C15.33333333 13 11.66666667 13 8 13 C8 11.35 8 9.7 8 8 C8.99 7.67 9.98 7.34 11 7 C7.17679443 5.57741188 4.08718695 4.75957724 0 5 C0 3.35 0 1.7 0 0 Z " fill="#E5E7CF" transform="translate(291,166)"/>
<path d="M0 0 C0.33 0 0.66 0 1 0 C1 12.87 1 25.74 1 39 C5.62 39 10.24 39 15 39 C15.33 37.35 15.66 35.7 16 34 C16.66 33.34 17.32 32.68 18 32 C24.46153846 32.46153846 24.46153846 32.46153846 27 35 C27 36.32 27 37.64 27 39 C35.415 38.505 35.415 38.505 44 38 C44 38.66 44 39.32 44 40 C37.07 40 30.14 40 23 40 C23.66 38.35 24.32 36.7 25 35 C22.36 35 19.72 35 17 35 C17 36.32 17 37.64 17 39 C17.99 39.33 18.98 39.66 20 40 C20 40.33 20 40.66 20 41 C7.79 41 -4.42 41 -17 41 C-17.33 42.65 -17.66 44.3 -18 46 C-19.89488952 47.89488952 -22.57139146 47.18019112 -25.08984375 47.23046875 C-27 47 -27 47 -29 45 C-29 43.35 -29 41.7 -29 40 C-34.28 40 -39.56 40 -45 40 C-45 39.67 -45 39.34 -45 39 C-38.07 39 -31.14 39 -24 39 C-24.33 39.66 -24.66 40.32 -25 41 C-25.66 41 -26.32 41 -27 41 C-26.34 42.32 -25.68 43.64 -25 45 C-23.02 45 -21.04 45 -19 45 C-19 43.68 -19 42.36 -19 41 C-19.66 41 -20.32 41 -21 41 C-21 40.34 -21 39.68 -21 39 C-14.4 39 -7.8 39 -1 39 C-1 27.78 -1 16.56 -1 5 C-3.475 4.505 -3.475 4.505 -6 4 C-5.67 3.34 -5.34 2.68 -5 2 C-3.67696283 1.6278958 -2.34262065 1.29369827 -1 1 C-0.67 0.67 -0.34 0.34 0 0 Z " fill="#ECF7E1" transform="translate(221,205)"/>
<path d="M0 0 C3.1938477 0.94952229 4.45591429 1.90262143 6.3125 4.6875 C6.0625 8.4375 6.0625 8.4375 5.3125 11.6875 C4.3225 12.0175 3.3325 12.3475 2.3125 12.6875 C1.9825 13.6775 1.6525 14.6675 1.3125 15.6875 C-1.51633747 17.10191874 -3.56126745 17.00650332 -6.6875 16.6875 C-8.89716629 14.69880034 -9.542618 13.2235634 -10.3125 10.375 C-9.14366691 5.34901771 -4.98204927 1.27447772 0 0 Z " fill="#EFF7D6" transform="translate(199.6875,258.3125)"/>
<path d="M0 0 C0.33 0.66 0.66 1.32 1 2 C2.299375 1.443125 2.299375 1.443125 3.625 0.875 C7.55697326 -0.14440048 9.32937509 0.42687504 13 2 C12.67 3.32 12.34 4.64 12 6 C11.34 5.67 10.68 5.34 10 5 C8.32345271 5.27942455 6.65391846 5.60828247 5 6 C5.495 6.598125 5.99 7.19625 6.5 7.8125 C8 10 8 10 8 13 C6.68 13 5.36 13 4 13 C3.67 12.34 3.34 11.68 3 11 C2.01 11.495 2.01 11.495 1 12 C0.67 11.34 0.34 10.68 0 10 C-0.77085937 10.01160156 -1.54171875 10.02320313 -2.3359375 10.03515625 C-3.84027344 10.04869141 -3.84027344 10.04869141 -5.375 10.0625 C-6.37273437 10.07410156 -7.37046875 10.08570313 -8.3984375 10.09765625 C-11 10 -11 10 -13 9 C-12.67 6.36 -12.34 3.72 -12 1 C-10.95199219 1.01740234 -10.95199219 1.01740234 -9.8828125 1.03515625 C-8.97273438 1.04417969 -8.06265625 1.05320313 -7.125 1.0625 C-5.76761719 1.07990234 -5.76761719 1.07990234 -4.3828125 1.09765625 C-1.9831415 1.16249257 -1.9831415 1.16249257 0 0 Z " fill="#F9F9D8" transform="translate(325,166)"/>
<path d="M0 0 C1.16015625 0.11794922 1.16015625 0.11794922 2.34375 0.23828125 C4.5 0.6875 4.5 0.6875 7.5 2.6875 C5.625 8.4375 5.625 8.4375 4.5 10.6875 C3.84 10.6875 3.18 10.6875 2.5 10.6875 C2.17 11.3475 1.84 12.0075 1.5 12.6875 C-0.3125 13.6875 -0.3125 13.6875 -2.5 14.6875 C-3.139375 15.05875 -3.77875 15.43 -4.4375 15.8125 C-6.91109822 16.86190531 -8.83953538 16.83530359 -11.5 16.6875 C-11.83 15.6975 -12.16 14.7075 -12.5 13.6875 C-11.860625 13.213125 -11.22125 12.73875 -10.5625 12.25 C-7.65149728 8.63329965 -7.69350218 5.21545106 -7.5 0.6875 C-4.49032056 -0.31572648 -3.0759723 -0.34348357 0 0 Z " fill="#F9FDFB" transform="translate(291.5,205.3125)"/>
<path d="M0 0 C1.32 0.33 2.64 0.66 4 1 C4 1.66 4 2.32 4 3 C5.32 2.67 6.64 2.34 8 2 C8.5534764 4.07553648 9 5.84365964 9 8 C9.63474075 9.34882408 10.29848848 10.6846659 11 12 C6.6314993 15.27637552 3.23691453 15.464565 -2 15 C-5 14.5 -5 14.5 -7 14 C-7 11.03 -7 8.06 -7 5 C-4.03 5.495 -4.03 5.495 -1 6 C-1 5.34 -1 4.68 -1 4 C-0.68521554 2.66216607 -0.35412344 1.32796291 0 0 Z " fill="#F3FAFB" transform="translate(243,214)"/>
<path d="M0 0 C0 0.66 0 1.32 0 2 C1.65 1.67 3.3 1.34 5 1 C5 2.65 5 4.3 5 6 C-7.33333333 6 -19.66666667 6 -32 6 C-32 4.68 -32 3.36 -32 2 C-11 2 -11 2 -8.125 2.125 C-4.69175199 1.98767008 -3.23020041 0 0 0 Z " fill="#BCAF8E" transform="translate(238,117)"/>
<path d="M0 0 C0.33 0.66 0.66 1.32 1 2 C4.96 2 8.92 2 13 2 C12.67 3.65 12.34 5.3 12 7 C7.69211856 7.92311745 4.29105809 8.09771253 0 7 C-0.33 6.34 -0.66 5.68 -1 5 C-1.33 5.66 -1.66 6.32 -2 7 C-4.97 7 -7.94 7 -11 7 C-11.33 5.68 -11.66 4.36 -12 3 C-11 2 -11 2 -8.49609375 1.90234375 C-6.98208984 1.91974609 -6.98208984 1.91974609 -5.4375 1.9375 C-4.42558594 1.94652344 -3.41367187 1.95554688 -2.37109375 1.96484375 C-1.19740234 1.98224609 -1.19740234 1.98224609 0 2 C0 1.34 0 0.68 0 0 Z " fill="#7D8C66" transform="translate(302,253)"/>
<path d="M0 0 C0.3721042 1.32303717 0.70630173 2.65737935 1 4 C1.66 4.33 2.32 4.66 3 5 C0 6 0 6 -3 5 C-3 4.34 -3 3.68 -3 3 C-3.66 3 -4.32 3 -5 3 C-5.33 3.66 -5.66 4.32 -6 5 C-8.59531364 7.49549389 -9.98105249 7.99738655 -13.625 8.5 C-14.73875 8.665 -15.8525 8.83 -17 9 C-17.99 10.485 -17.99 10.485 -19 12 C-19.66 12 -20.32 12 -21 12 C-20.43061518 8.69756805 -19.63383789 7.08890591 -17 5 C-5.03478261 -1.67826087 -5.03478261 -1.67826087 0 0 Z M-25 12 C-23.35 12.33 -21.7 12.66 -20 13 C-20.99 14.485 -20.99 14.485 -22 16 C-23.32 15.34 -24.64 14.68 -26 14 C-25.67 13.34 -25.34 12.68 -25 12 Z " fill="#FFDBD7" transform="translate(84,276)"/>
<path d="M0 0 C1.69141656 0.08963062 3.37959602 0.24577676 5.0625 0.4375 C6.44115234 0.59025391 6.44115234 0.59025391 7.84765625 0.74609375 C8.55792969 0.82988281 9.26820312 0.91367188 10 1 C10 2.98 10 4.96 10 7 C9.01 7 8.02 7 7 7 C6.34 6.34 5.68 5.68 5 5 C2.99548879 5.30503431 0.99551782 5.64080679 -1 6 C-2.33981486 5.6937566 -3.67511887 5.36548445 -5 5 C-5.99 5.33 -6.98 5.66 -8 6 C-10.66666667 6 -13.33333333 6 -16 6 C-16 4.35 -16 2.7 -16 1 C-14.92878906 1.01160156 -13.85757813 1.02320313 -12.75390625 1.03515625 C-11.35677257 1.04453299 -9.95963701 1.05363331 -8.5625 1.0625 C-7.85544922 1.07087891 -7.14839844 1.07925781 -6.41992188 1.08789062 C-4.61306441 1.09653588 -2.80612397 1.05220011 -1 1 C-0.67 0.67 -0.34 0.34 0 0 Z " fill="#BEA894" transform="translate(74,176)"/>
<path d="M0 0 C0.91644287 0.00523682 1.83288574 0.01047363 2.77709961 0.01586914 C3.76645508 0.0190918 4.75581055 0.02231445 5.77514648 0.02563477 C6.81606445 0.03401367 7.85698242 0.04239258 8.92944336 0.05102539 C10.49662109 0.05779297 10.49662109 0.05779297 12.09545898 0.06469727 C14.68600996 0.07652627 17.27644895 0.0930085 19.86694336 0.11352539 C19.53694336 1.76352539 19.20694336 3.41352539 18.86694336 5.11352539 C18.3070874 5.10828857 17.74723145 5.10305176 17.17041016 5.09765625 C14.63176599 5.07685848 12.09313977 5.06385635 9.55444336 5.05102539 C8.67336914 5.04264648 7.79229492 5.03426758 6.88452148 5.02563477 C6.03696289 5.02241211 5.1894043 5.01918945 4.31616211 5.01586914 C3.14573364 5.00801392 3.14573364 5.00801392 1.95166016 5 C-0.32921214 5.03214676 -0.32921214 5.03214676 -3.13305664 6.11352539 C-3.17577764 4.44740634 -3.17369496 2.77969654 -3.13305664 1.11352539 C-2.13305664 0.11352539 -2.13305664 0.11352539 0 0 Z " fill="#A38273" transform="translate(99.133056640625,148.886474609375)"/>
<path d="M0 0 C0.33 0 0.66 0 1 0 C1 13.2 1 26.4 1 40 C0.34 40 -0.32 40 -1 40 C-1 28.45 -1 16.9 -1 5 C-2.65 4.67 -4.3 4.34 -6 4 C-5.67 3.34 -5.34 2.68 -5 2 C-3.67696283 1.6278958 -2.34262065 1.29369827 -1 1 C-0.67 0.67 -0.34 0.34 0 0 Z " fill="#E2F4F9" transform="translate(221,205)"/>
<path d="M0 0 C0.9590625 0.2475 0.9590625 0.2475 1.9375 0.5 C4.04582216 1.24598544 4.04582216 1.24598544 6 0 C8.1640625 0.33984375 8.1640625 0.33984375 10.625 0.9375 C11.44226563 1.13214844 12.25953125 1.32679688 13.1015625 1.52734375 C14.04128906 1.76130859 14.04128906 1.76130859 15 2 C15 2.99 15 3.98 15 5 C10.46218487 6.13445378 10.46218487 6.13445378 8.28125 5.5 C5.02942261 4.78727071 2.0582367 5.16181361 -1.25 5.4375 C-3.14492187 5.59025391 -3.14492187 5.59025391 -5.078125 5.74609375 C-6.52445312 5.87177734 -6.52445312 5.87177734 -8 6 C-8.33 4.68 -8.66 3.36 -9 2 C-6.94921875 1.77213542 -4.8984375 1.54427083 -2.84765625 1.31640625 C-0.98859771 1.18113386 -0.98859771 1.18113386 0 0 Z " fill="#C6B2A0" transform="translate(101,168)"/>
<path d="M0 0 C0.33 0 0.66 0 1 0 C1 1.98 1 3.96 1 6 C0.10796875 6.06058594 -0.7840625 6.12117188 -1.703125 6.18359375 C-3.45882812 6.30927734 -3.45882812 6.30927734 -5.25 6.4375 C-6.41015625 6.51871094 -7.5703125 6.59992188 -8.765625 6.68359375 C-11.87447306 6.89755338 -11.87447306 6.89755338 -14.3125 7.625 C-14.869375 7.74875 -15.42625 7.8725 -16 8 C-17.75 6.5625 -17.75 6.5625 -19 5 C-18.67 4.01 -18.34 3.02 -18 2 C-12.06 2 -6.12 2 0 2 C0 1.34 0 0.68 0 0 Z " fill="#958059" transform="translate(256,105)"/>
<path d="M0 0 C6.93 0 13.86 0 21 0 C20.67 0.66 20.34 1.32 20 2 C19.34 2 18.68 2 18 2 C18.66 3.32 19.32 4.64 20 6 C21.98 6 23.96 6 26 6 C26 4.68 26 3.36 26 2 C25.34 2 24.68 2 24 2 C24 1.34 24 0.68 24 0 C30.6 0 37.2 0 44 0 C44 0.33 44 0.66 44 1 C38.72 1 33.44 1 28 1 C28 2.65 28 4.3 28 6 C26 8 26 8 24.125 8.265625 C23.42375 8.26046875 22.7225 8.2553125 22 8.25 C21.29875 8.25515625 20.5975 8.2603125 19.875 8.265625 C18 8 18 8 16 6 C16 4.35 16 2.7 16 1 C10.72 1 5.44 1 0 1 C0 0.67 0 0.34 0 0 Z " fill="#FEFAEC" transform="translate(176,244)"/>
<path d="M0 0 C2.375 0.1875 2.375 0.1875 5 1 C5.44859375 2.12921875 5.44859375 2.12921875 5.90625 3.28125 C7.16610982 6.41290156 8.69290527 7.99808728 11.125 10.3125 C11.84945312 11.00988281 12.57390625 11.70726562 13.3203125 12.42578125 C13.87460938 12.94527344 14.42890625 13.46476563 15 14 C14.01 14.33 13.02 14.66 12 15 C11.38125 14.34 10.7625 13.68 10.125 13 C8.24362573 10.7715451 8.24362573 10.7715451 6 11 C5.01 12.485 5.01 12.485 4 14 C3.01 13.01 2.02 12.02 1 11 C1.33 12.32 1.66 13.64 2 15 C1.01 14.67 0.02 14.34 -1 14 C-0.67 12.68 -0.34 11.36 0 10 C1.32 9.67 2.64 9.34 4 9 C4 8.34 4 7.68 4 7 C1.525 6.01 1.525 6.01 -1 5 C-0.67 4.01 -0.34 3.02 0 2 C0 2.66 0 3.32 0 4 C0.99 4 1.98 4 3 4 C3 3.01 3 2.02 3 1 C2.01 0.67 1.02 0.34 0 0 Z " fill="#FFF9E6" transform="translate(191,214)"/>
<path d="M0 0 C2.48935591 0.78930797 4.669779 1.8348895 7 3 C6.67 4.32 6.34 5.64 6 7 C5.34 6.67 4.68 6.34 4 6 C1.32421248 5.95752718 -1.32680213 5.95235885 -4 6 C-7.11227195 6 -9.94152152 5.54372951 -13 5 C-13 4.01 -13 3.02 -13 2 C-12.01 1.67 -11.02 1.34 -10 1 C-9.67 1.33 -9.34 1.66 -9 2 C-4.96839809 2.26293056 -3.44107266 2.29404844 0 0 Z " fill="#CCC1A5" transform="translate(197,117)"/>
<path d="M0 0 C0.66 0.33 1.32 0.66 2 1 C1.67 2.98 1.34 4.96 1 7 C5.95 7 10.9 7 16 7 C15.34 8.32 14.68 9.64 14 11 C13.67 10.67 13.34 10.34 13 10 C11.68 10.99 10.36 11.98 9 13 C8.01 12.34 7.02 11.68 6 11 C3.66800612 10.92094936 1.33167378 10.91201231 -1 11 C-0.67 7.37 -0.34 3.74 0 0 Z " fill="#B7BDB2" transform="translate(311,168)"/>
<path d="M0 0 C0.33 0 0.66 0 1 0 C1 11.22 1 22.44 1 34 C-0.65 33.67 -2.3 33.34 -4 33 C-4.2502157 35.91634129 -4.2502157 35.91634129 -4 39 C-3.01 39.66 -2.02 40.32 -1 41 C-2.98 41.495 -2.98 41.495 -5 42 C-7.31332486 38.53001271 -7.33957563 37.07490752 -7 33 C-6.34 32.01 -5.68 31.02 -5 30 C-3.35 30 -1.7 30 0 30 C0 20.1 0 10.2 0 0 Z " fill="#FFFDEA" transform="translate(174,168)"/>
<path d="M0 0 C0.99 0 1.98 0 3 0 C3.99 0 4.98 0 6 0 C6.33 1.32 6.66 2.64 7 4 C6.34 4 5.68 4 5 4 C5 3.34 5 2.68 5 2 C4.34 2.66 3.68 3.32 3 4 C0.8359375 4.1953125 0.8359375 4.1953125 -1.625 4.125 C-2.44226563 4.10695312 -3.25953125 4.08890625 -4.1015625 4.0703125 C-4.72804688 4.04710937 -5.35453125 4.02390625 -6 4 C-6 3.34 -6 2.68 -6 2 C-6.66 2 -7.32 2 -8 2 C-8.33 2.66 -8.66 3.32 -9 4 C-12.69571901 5.56357343 -16.15558369 4.66537975 -20 4 C-20 3.01 -20 2.02 -20 1 C-19.11248047 1.01740234 -19.11248047 1.01740234 -18.20703125 1.03515625 C-12.02693472 1.10572831 -6.15610286 -0.13382832 0 0 Z " fill="#AE9281" transform="translate(112,161)"/>
<path d="M0 0 C1.33998047 0.31324219 1.33998047 0.31324219 2.70703125 0.6328125 C3.60808594 0.83648437 4.50914063 1.04015625 5.4375 1.25 C6.46810547 1.50136719 6.46810547 1.50136719 7.51953125 1.7578125 C7.84953125 1.0978125 8.17953125 0.4378125 8.51953125 -0.2421875 C9.17953125 -0.2421875 9.83953125 -0.2421875 10.51953125 -0.2421875 C10.51953125 0.4178125 10.51953125 1.0778125 10.51953125 1.7578125 C11.50953125 1.7578125 12.49953125 1.7578125 13.51953125 1.7578125 C13.51953125 3.0778125 13.51953125 4.3978125 13.51953125 5.7578125 C12.10297332 5.785054 10.6862608 5.80431717 9.26953125 5.8203125 C8.08617188 5.83771484 8.08617188 5.83771484 6.87890625 5.85546875 C4.60358106 5.76129138 2.71017912 5.34198527 0.51953125 4.7578125 C-1.14670514 4.71994349 -2.81444472 4.71153405 -4.48046875 4.7578125 C-4.81046875 3.7678125 -5.14046875 2.7778125 -5.48046875 1.7578125 C-2.48046875 -0.2421875 -2.48046875 -0.2421875 0 0 Z " fill="#BEA794" transform="translate(67.48046875,168.2421875)"/>
<path d="M0 0 C1.22976562 0.12568359 1.22976562 0.12568359 2.484375 0.25390625 C3.56203125 0.35574219 4.6396875 0.45757812 5.75 0.5625 C6.81734375 0.66691406 7.8846875 0.77132812 8.984375 0.87890625 C11.64141204 0.98560074 13.49960572 0.81930395 16 0 C16 0.66 16 1.32 16 2 C16.66 2.33 17.32 2.66 18 3 C17.67 3.99 17.34 4.98 17 6 C15.54257537 6.08096803 14.08387193 6.13917774 12.625 6.1875 C11.81289063 6.22230469 11.00078125 6.25710937 10.1640625 6.29296875 C9.44992188 6.19628906 8.73578125 6.09960938 8 6 C7.34 5.01 6.68 4.02 6 3 C6 3.99 6 4.98 6 6 C4.68 6 3.36 6 2 6 C2 4.35 2 2.7 2 1 C1.34 0.67 0.68 0.34 0 0 Z " fill="#977464" transform="translate(51,148)"/>
<path d="M0 0 C2.0625 0.4375 2.0625 0.4375 4 1 C4 1.66 4 2.32 4 3 C5.32 2.67 6.64 2.34 8 2 C8.68707555 4.49064888 9 6.37886292 9 9 C8.01 9 7.02 9 6 9 C6 9.99 6 10.98 6 12 C4.02 12 2.04 12 0 12 C0 11.67 0 11.34 0 11 C1.65 11 3.3 11 5 11 C4.67 10.34 4.34 9.68 4 9 C1.97536745 8.34786708 1.97536745 8.34786708 0 8 C-0.38063221 5.6739143 -0.71269945 3.33944736 -1 1 C-0.67 0.67 -0.34 0.34 0 0 Z " fill="#88CFED" transform="translate(243,214)"/>
<path d="M0 0 C1.4540625 0.0309375 1.4540625 0.0309375 2.9375 0.0625 C3.29608439 3.91728218 3.2129818 5.64009458 1.0625 8.9375 C0.36125 9.63875 -0.34 10.34 -1.0625 11.0625 C-1.7225 11.0625 -2.3825 11.0625 -3.0625 11.0625 C-4.83334117 8.35415469 -5.07302504 7.16985541 -4.75 3.875 C-3.82184366 0.07799681 -3.82184366 0.07799681 0 0 Z " fill="#F4FAFC" transform="translate(278.0625,206.9375)"/>
<path d="M0 0 C0.639375 -0.165 1.27875 -0.33 1.9375 -0.5 C4.31772734 -1.07702481 5.69706679 -0.74022853 8 0 C8 1.32 8 2.64 8 4 C7.2575 4.144375 6.515 4.28875 5.75 4.4375 C3.47972261 4.90187492 1.24240521 5.41863569 -1 6 C-1 5.34 -1 4.68 -1 4 C-3.31 4 -5.62 4 -8 4 C-7.67 2.68 -7.34 1.36 -7 0 C-3.98968256 -0.93423645 -3.13349732 -1.04449911 0 0 Z " fill="#B5BB99" transform="translate(286,275)"/>
<path d="M0 0 C1.9375 0.375 1.9375 0.375 4 1 C5.38125018 3.76250036 5.19079306 5.94731099 5 9 C4.34 9.66 3.68 10.32 3 11 C-0.53571429 10.46428571 -0.53571429 10.46428571 -2 9 C-2.26293056 4.96839809 -2.29404844 3.44107266 0 0 Z " fill="#FFEDEB" transform="translate(147,195)"/>
<path d="M0 0 C0 1.65 0 3.3 0 5 C-1.13888672 4.98259766 -1.13888672 4.98259766 -2.30078125 4.96484375 C-3.29464844 4.95582031 -4.28851563 4.94679687 -5.3125 4.9375 C-6.29863281 4.92589844 -7.28476563 4.91429687 -8.30078125 4.90234375 C-11.09963849 4.87670138 -11.09963849 4.87670138 -14 6 C-14.99 5.34 -15.98 4.68 -17 4 C-17 3.01 -17 2.02 -17 1 C-15.51886719 1.01740234 -15.51886719 1.01740234 -14.0078125 1.03515625 C-12.72648438 1.04417969 -11.44515625 1.05320312 -10.125 1.0625 C-8.21074219 1.07990234 -8.21074219 1.07990234 -6.2578125 1.09765625 C-3.7798312 1.02337624 -2.20833119 0 0 0 Z " fill="#BAAC8B" transform="translate(236,126)"/>
<path d="M0 0 C7.75 0.875 7.75 0.875 10 2 C9.67 2.66 9.34 3.32 9 4 C9.66 4 10.32 4 11 4 C11.33 3.01 11.66 2.02 12 1 C14.31 1 16.62 1 19 1 C18.34 2.32 17.68 3.64 17 5 C11.39 5 5.78 5 0 5 C0 3.35 0 1.7 0 0 Z " fill="#99A39B" transform="translate(334,174)"/>
<path d="M0 0 C1.02673828 0.24556641 1.02673828 0.24556641 2.07421875 0.49609375 C5.3743278 1.06447034 8.46554069 1.09630767 11.8125 1.0625 C13.55466797 1.04896484 13.55466797 1.04896484 15.33203125 1.03515625 C16.21246094 1.02355469 17.09289062 1.01195312 18 1 C17.34 2.32 16.68 3.64 16 5 C15.67 4.67 15.34 4.34 15 4 C14.01 4.66 13.02 5.32 12 6 C9.3359375 5.9765625 9.3359375 5.9765625 6.375 5.625 C5.39273437 5.51414063 4.41046875 5.40328125 3.3984375 5.2890625 C2.60695313 5.19367188 1.81546875 5.09828125 1 5 C0.67 5 0.34 5 0 5 C0 3.35 0 1.7 0 0 Z " fill="#A4ADA5" transform="translate(291,166)"/>
<path d="M0 0 C5.61 0 11.22 0 17 0 C16.67 1.32 16.34 2.64 16 4 C10.66666667 4 5.33333333 4 0 4 C0 2.68 0 1.36 0 0 Z " fill="#C2B690" transform="translate(245,119)"/>
<path d="M0 0 C0.86625 0.2784375 0.86625 0.2784375 1.75 0.5625 C3.93043656 1.16284789 3.93043656 1.16284789 5.75 0.5 C9.27037861 -0.28230636 12.44802439 0.46720366 16 1 C16 1.99 16 2.98 16 4 C10.61509359 4.91657981 5.45769811 5.11138159 0 5 C0 3.35 0 1.7 0 0 Z " fill="#C0AC95" transform="translate(43,169)"/>
<path d="M0 0 C5.33333333 0 10.66666667 0 16 0 C16 0.66 16 1.32 16 2 C15.34 2 14.68 2 14 2 C14 2.99 14 3.98 14 5 C10.33333333 5 6.66666667 5 3 5 C2.01 5.495 2.01 5.495 1 6 C0.67 4.02 0.34 2.04 0 0 Z " fill="#9E7A6D" transform="translate(71,149)"/>
<path d="M0 0 C2.95842052 0.39082813 5.61374127 0.5625 8.625 0.5625 C8.955 1.8825 9.285 3.2025 9.625 4.5625 C4.015 4.5625 -1.595 4.5625 -7.375 4.5625 C-7.045 3.2425 -6.715 1.9225 -6.375 0.5625 C-3.89803509 -0.67598245 -2.71829034 -0.36575003 0 0 Z " fill="#AFB693" transform="translate(335.375,266.4375)"/>
<path d="M0 0 C6.36 0.48 6.36 0.48 9 2.625 C10.41618658 5.98844312 9.74118118 8.49623443 9 12 C8.01 12 7.02 12 6 12 C4.56911472 9.13822943 5.40008303 7.06624227 6 4 C3.69 4.33 1.38 4.66 -1 5 C-0.67 3.35 -0.34 1.7 0 0 Z " fill="#52BAE5" transform="translate(275,203)"/>
<path d="M0 0 C3.63 0 7.26 0 11 0 C11 1.65 11 3.3 11 5 C7.37 5.33 3.74 5.66 0 6 C-1 4 -1 4 0 0 Z " fill="#919C78" transform="translate(317,255)"/>
<path d="M0 0 C1.03318359 -0.01224609 2.06636719 -0.02449219 3.13085938 -0.03710938 C8.37441783 -0.04719961 12.79128872 0.05541488 17.6875 2.1875 C17.6875 2.8475 17.6875 3.5075 17.6875 4.1875 C16.96046875 4.043125 16.2334375 3.89875 15.484375 3.75 C4.81536525 1.78033666 -4.78659537 1.3805921 -15.3125 4.1875 C-14.9825 3.1975 -14.6525 2.2075 -14.3125 1.1875 C-9.62737055 -0.37420982 -4.90670489 0.00302696 0 0 Z " fill="#FFFAD8" transform="translate(196.3125,173.8125)"/>
<path d="M0 0 C0.33 0.66 0.66 1.32 1 2 C1.86625 1.62875 2.7325 1.2575 3.625 0.875 C7.55697326 -0.14440048 9.32937509 0.42687504 13 2 C12.67 3.32 12.34 4.64 12 6 C11.34 5.67 10.68 5.34 10 5 C7.95944995 4.92934383 5.91665743 4.91578024 3.875 4.9375 C2.77929688 4.94652344 1.68359375 4.95554688 0.5546875 4.96484375 C-0.70988281 4.98224609 -0.70988281 4.98224609 -2 5 C-2 3.68 -2 2.36 -2 1 C-1.34 0.67 -0.68 0.34 0 0 Z " fill="#B1B8A7" transform="translate(325,166)"/>
<path d="M0 0 C0 0.66 0 1.32 0 2 C1.65 1.67 3.3 1.34 5 1 C5 2.65 5 4.3 5 6 C0.38 6 -4.24 6 -9 6 C-9.33 5.34 -9.66 4.68 -10 4 C-8.02 3.67 -6.04 3.34 -4 3 C-4 2.34 -4 1.68 -4 1 C-2 0 -2 0 0 0 Z " fill="#D7CEB0" transform="translate(238,117)"/>
<path d="M0 0 C5.61 0 11.22 0 17 0 C17 1.32 17 2.64 17 4 C16.38125 3.79375 15.7625 3.5875 15.125 3.375 C14.42375 3.25125 13.7225 3.1275 13 3 C12.34 3.66 11.68 4.32 11 5 C9.32345271 4.72057545 7.65740715 4.37668344 6 4 C4.0003559 3.96227087 1.99945939 3.95350094 0 4 C0 2.68 0 1.36 0 0 Z " fill="#907A55" transform="translate(198,107)"/>
<path d="M0 0 C0.66 1.32 1.32 2.64 2 4 C1.01 4.495 1.01 4.495 0 5 C0 6.98 0 8.96 0 11 C0.66 11.33 1.32 11.66 2 12 C2 12.66 2 13.32 2 14 C-0.375 13.6875 -0.375 13.6875 -3 13 C-5.18038095 9.72942857 -5.63246755 8.79480531 -5 5 C-2.5 2.1875 -2.5 2.1875 0 0 Z " fill="#F6FAE6" transform="translate(195,261)"/>
<path d="M0 0 C4.95 0 9.9 0 15 0 C15 1.32 15 2.64 15 4 C11.26172028 4.96127193 8.73662428 4.86229791 5 4 C3.68 4 2.36 4 1 4 C0.67 2.68 0.34 1.36 0 0 Z " fill="#C3B798" transform="translate(205,135)"/>
<path d="M0 0 C2.375 1.25 2.375 1.25 4 3 C4 4.32 4 5.64 4 7 C2.68 7.33 1.36 7.66 0 8 C0.33 6.35 0.66 4.7 1 3 C-0.98 3 -2.96 3 -5 3 C-5 4.32 -5 5.64 -5 7 C-6.32 7.33 -7.64 7.66 -9 8 C-9.22223194 5.25913944 -9.34781139 3.56036279 -7.875 1.1875 C-5.11646047 -0.55957504 -3.20161236 -0.39203417 0 0 Z " fill="#F8E5D8" transform="translate(156,237)"/>
<path d="M0 0 C0.598125 0.350625 1.19625 0.70125 1.8125 1.0625 C0.8225 2.5475 0.8225 2.5475 -0.1875 4.0625 C-0.41334687 7.6007677 -0.23086284 10.67157078 0.8125 14.0625 C-0.1775 14.3925 -1.1675 14.7225 -2.1875 15.0625 C-3.1775 10.1125 -4.1675 5.1625 -5.1875 0.0625 C-2.1875 -0.9375 -2.1875 -0.9375 0 0 Z " fill="#F3FAFC" transform="translate(271.1875,204.9375)"/>
<path d="M0 0 C0.99 0.33 1.98 0.66 3 1 C2.01 1.33 1.02 1.66 0 2 C3.27275026 2 5.846632 1.70074844 9 1 C10.125 4.75 10.125 4.75 9 7 C8.0925 6.835 7.185 6.67 6.25 6.5 C2.88912497 5.89862854 2.88912497 5.89862854 -1 6 C-1.625 4.125 -1.625 4.125 -2 2 C-1.34 1.34 -0.68 0.68 0 0 Z " fill="#6A797F" transform="translate(280,153)"/>
<path d="M0 0 C2.25 0.875 2.25 0.875 4 2 C3.67 2.99 3.34 3.98 3 5 C-2.03733166 6.5111995 -6.88171027 5.64599773 -12 5 C-12 4.01 -12 3.02 -12 2 C-10.7625 2.04125 -9.525 2.0825 -8.25 2.125 C-5.53659208 2.14410851 -4.21141196 2.10570598 -1.75 0.875 C-0.88375 0.441875 -0.88375 0.441875 0 0 Z " fill="#A2AB87" transform="translate(290,282)"/>
<path d="M0 0 C1.32 0.33 2.64 0.66 4 1 C4 1.33 4 1.66 4 2 C7.3 1.67 10.6 1.34 14 1 C14.33 2.32 14.66 3.64 15 5 C13.68 5.33 12.36 5.66 11 6 C11 5.01 11 4.02 11 3 C10.67 3.66 10.34 4.32 10 5 C6.7 5 3.4 5 0 5 C0 3.35 0 1.7 0 0 Z " fill="#B9A18C" transform="translate(29,160)"/>
<path d="M0 0 C0.99 0.33 1.98 0.66 3 1 C3 1.66 3 2.32 3 3 C4.98 2.34 6.96 1.68 9 1 C9.33 2.98 9.66 4.96 10 7 C6.7 7 3.4 7 0 7 C-1 3 -1 3 0 0 Z " fill="#72825C" transform="translate(279,253)"/>
<path d="M0 0 C0.33 0.66 0.66 1.32 1 2 C3.97 2 6.94 2 10 2 C10 3.65 10 5.3 10 7 C8.68 7.33 7.36 7.66 6 8 C6 7.34 6 6.68 6 6 C4.02 6.33 2.04 6.66 0 7 C0 4.69 0 2.38 0 0 Z " fill="#9A865F" transform="translate(258,105)"/>
<path d="M0 0 C0.66 -0.33 1.32 -0.66 2 -1 C3.67654729 -0.72057545 5.34608154 -0.39171753 7 0 C6.67 0.99 6.34 1.98 6 3 C6.99 3.33 7.98 3.66 9 4 C2.84765625 4.09765625 2.84765625 4.09765625 1 4 C0.67 3.67 0.34 3.34 0 3 C-0.99 3.33 -1.98 3.66 -3 4 C-3.99 4 -4.98 4 -6 4 C-6 2.68 -6 1.36 -6 0 C-3.4791665 -1.26041675 -2.64903564 -0.66225891 0 0 Z " fill="#A2ABA4" transform="translate(289,175)"/>
<path d="M0 0 C2 2 2 2 2 6 C-1.3 6 -4.6 6 -8 6 C-8.33 4.68 -8.66 3.36 -9 2 C-8.67 1.67 -8.34 1.34 -8 1 C-6 1 -4 1 -2 1 C-1.34 0.67 -0.68 0.34 0 0 Z " fill="#7D8989" transform="translate(301,154)"/>
<path d="M0 0 C0.33 0.66 0.66 1.32 1 2 C2.65 2 4.3 2 6 2 C6 3.65 6 5.3 6 7 C3.03 7 0.06 7 -3 7 C-3.33 5.35 -3.66 3.7 -4 2 C-3.01 2 -2.02 2 -1 2 C-0.67 1.34 -0.34 0.68 0 0 Z " fill="#6F7D80" transform="translate(322,153)"/>
<path d="M0 0 C1.52519276 0.08937803 3.04681929 0.24537146 4.5625 0.4375 C5.80193359 0.59025391 5.80193359 0.59025391 7.06640625 0.74609375 C7.70449219 0.82988281 8.34257812 0.91367188 9 1 C9 2.65 9 4.3 9 6 C8.06027344 5.87431641 8.06027344 5.87431641 7.1015625 5.74609375 C5.87566406 5.59333984 5.87566406 5.59333984 4.625 5.4375 C3.40683594 5.28087891 3.40683594 5.28087891 2.1640625 5.12109375 C-0.04899186 4.81762672 -0.04899186 4.81762672 -2 6 C-1.125 1.125 -1.125 1.125 0 0 Z " fill="#9FA89B" transform="translate(350,166)"/>
<path d="M0 0 C-1.26346142 2.52692284 -2.6495547 3.45542166 -5 5 C-7.25 5.6875 -7.25 5.6875 -9 6 C-9 3.69 -9 1.38 -9 -1 C-5.22102349 -2.0497157 -3.35080929 -2.10976881 0 0 Z " fill="#F7FCFB" transform="translate(278,224)"/>
<path d="M0 0 C2.97 0.495 2.97 0.495 6 1 C5.67 3.64 5.34 6.28 5 9 C3.35 9 1.7 9 0 9 C0 6.03 0 3.06 0 0 Z " fill="#C5E8F5" transform="translate(236,219)"/>
<path d="M0 0 C0 1.65 0 3.3 0 5 C-4.04916379 6.34972126 -6.91257012 5.88376862 -11 5 C-10.67 3.68 -10.34 2.36 -10 1 C-7.66666667 1 -5.33333333 1 -3 1 C-1 0 -1 0 0 0 Z " fill="#B1B896" transform="translate(355,274)"/>
<path d="M0 0 C1.33998047 0.31324219 1.33998047 0.31324219 2.70703125 0.6328125 C3.60808594 0.83648437 4.50914063 1.04015625 5.4375 1.25 C6.46810547 1.50136719 6.46810547 1.50136719 7.51953125 1.7578125 C7.51953125 2.7478125 7.51953125 3.7378125 7.51953125 4.7578125 C3.26386578 5.91844854 -0.16397655 5.51954642 -4.48046875 4.7578125 C-4.81046875 3.7678125 -5.14046875 2.7778125 -5.48046875 1.7578125 C-2.48046875 -0.2421875 -2.48046875 -0.2421875 0 0 Z " fill="#BEA795" transform="translate(108.48046875,168.2421875)"/>
<path d="M0 0 C0 1.65 0 3.3 0 5 C-0.99 4.67 -1.98 4.34 -3 4 C-3 3.34 -3 2.68 -3 2 C-3.66 2 -4.32 2 -5 2 C-5 2.66 -5 3.32 -5 4 C-7.97 4 -10.94 4 -14 4 C-14.33 3.01 -14.66 2.02 -15 1 C-9.91913204 0.15318867 -5.15171623 -0.09038099 0 0 Z " fill="#A9B18E" transform="translate(322,283)"/>
<path d="M0 0 C0.9075 0.185625 1.815 0.37125 2.75 0.5625 C5.74790974 0.96606477 7.19162994 0.80239145 10 0 C10.66 0.33 11.32 0.66 12 1 C11.67 2.32 11.34 3.64 11 5 C7.37 5 3.74 5 0 5 C0 3.35 0 1.7 0 0 Z " fill="#BBAD8E" transform="translate(182,134)"/>
<path d="M0 0 C0.99 0.33 1.98 0.66 3 1 C3.66 1 4.32 1 5 1 C5.33 1.66 5.66 2.32 6 3 C6.5775 2.67 7.155 2.34 7.75 2 C10 1 10 1 14 1 C13.67 2.32 13.34 3.64 13 5 C8.66666667 5 4.33333333 5 0 5 C0 3.33333333 0 1.66666667 0 0 Z " fill="#A4AD89" transform="translate(278,266)"/>
<path d="M0 0 C0.680625 0.185625 1.36125 0.37125 2.0625 0.5625 C5.57232191 1.08523943 8.52188063 0.61378577 12 0 C12 0.99 12 1.98 12 3 C11.01 3.33 10.02 3.66 9 4 C8.34 3.67 7.68 3.34 7 3 C6.67 3.33 6.34 3.66 6 4 C4.48071962 4.07179964 2.95832518 4.08392007 1.4375 4.0625 C0.61121094 4.05347656 -0.21507812 4.04445312 -1.06640625 4.03515625 C-1.70449219 4.02355469 -2.34257812 4.01195312 -3 4 C-2.505 3.525625 -2.01 3.05125 -1.5 2.5625 C0.11542197 1.24076302 0.11542197 1.24076302 0 0 Z " fill="#A2ABA5" transform="translate(289,183)"/>
<path d="M0 0 C3.63 0.66 7.26 1.32 11 2 C11 3.32 11 4.64 11 6 C7.37 5.67 3.74 5.34 0 5 C0 3.35 0 1.7 0 0 Z " fill="#BFA992" transform="translate(45,176)"/>
<path d="M0 0 C0.66 0 1.32 0 2 0 C2 1.65 2 3.3 2 5 C-1.63 5 -5.26 5 -9 5 C-8.67 3.68 -8.34 2.36 -8 1 C-6.865625 1.020625 -5.73125 1.04125 -4.5625 1.0625 C-1.18424326 1.41577477 -1.18424326 1.41577477 0 0 Z " fill="#BCAE89" transform="translate(268,126)"/>
<path d="M0 0 C3.63 0 7.26 0 11 0 C11 1.32 11 2.64 11 4 C8.98177083 3.96744792 6.96354167 3.93489583 4.9453125 3.90234375 C2.91814596 3.87350758 2.91814596 3.87350758 1 5 C0.67 3.35 0.34 1.7 0 0 Z " fill="#C3B799" transform="translate(195,127)"/>
<path d="M0 0 C0.69867188 0.144375 1.39734375 0.28875 2.1171875 0.4375 C3.02726562 0.623125 3.93734375 0.80875 4.875 1 C5.77992188 1.185625 6.68484375 1.37125 7.6171875 1.5625 C9.92407903 2.06019595 9.92407903 2.06019595 12 2 C11.67 2.99 11.34 3.98 11 5 C3.57142857 6.28571429 3.57142857 6.28571429 0 5 C0 3.35 0 1.7 0 0 Z " fill="#A9B28E" transform="translate(357,274)"/>
<path d="M0 0 C2 2 2 2 2 6 C2.66 6.33 3.32 6.66 4 7 C2.35 7.66 0.7 8.32 -1 9 C-4 3.25 -4 3.25 -4 1 C-2.125 0.375 -2.125 0.375 0 0 Z " fill="#FFEBDD" transform="translate(98,268)"/>
<path d="M0 0 C1.65 0 3.3 0 5 0 C5 0.66 5 1.32 5 2 C6.98 2 8.96 2 11 2 C11 3.32 11 4.64 11 6 C8.69 6 6.38 6 4 6 C4 4.68 4 3.36 4 2 C3.34 2 2.68 2 2 2 C1.67 3.32 1.34 4.64 1 6 C0.67 4.02 0.34 2.04 0 0 Z " fill="#A7AFA8" transform="translate(278,165)"/>
<path d="M0 0 C1.11375 0.2475 1.11375 0.2475 2.25 0.5 C5.19006578 1.11925696 5.19006578 1.11925696 9 1 C9 2.32 9 3.64 9 5 C6.03 5 3.06 5 0 5 C0 3.35 0 1.7 0 0 Z " fill="#C4B698" transform="translate(182,126)"/>
<path d="M0 0 C4 0 8 0 12 0 C12.33 1.32 12.66 2.64 13 4 C12.34 4 11.68 4 11 4 C11 3.34 11 2.68 11 2 C10.34 2.66 9.68 3.32 9 4 C5.375 4.125 5.375 4.125 2 4 C1.34 2.68 0.68 1.36 0 0 Z " fill="#C1AB99" transform="translate(106,161)"/>
<path d="M0 0 C-0.33 1.32 -0.66 2.64 -1 4 C-2.98 4 -4.96 4 -7 4 C-7 3.01 -7 2.02 -7 1 C-7.66 1 -8.32 1 -9 1 C-8.67 1.99 -8.34 2.98 -8 4 C-8.99 4 -9.98 4 -11 4 C-10.67 2.68 -10.34 1.36 -10 0 C-3.375 -1.125 -3.375 -1.125 0 0 Z " fill="#96815C" transform="translate(236,107)"/>
<path d="M0 0 C-0.33 1.32 -0.66 2.64 -1 4 C-5 4 -5 4 -8 3 C-8.66 3.66 -9.32 4.32 -10 5 C-10.33 3.35 -10.66 1.7 -11 0 C-7.01803543 -1.05404945 -4.01804691 -0.84098656 0 0 Z " fill="#ACB491" transform="translate(306,284)"/>
<path d="M0 0 C0 1.32 0 2.64 0 4 C-2.01822917 3.96744792 -4.03645833 3.93489583 -6.0546875 3.90234375 C-8.08185404 3.87350758 -8.08185404 3.87350758 -10 5 C-10 3.68 -10 2.36 -10 1 C-6.78548731 -0.60725635 -3.56387464 -0.05748185 0 0 Z " fill="#ADB491" transform="translate(373,267)"/>
<path d="M0 0 C1.5778125 0.2475 1.5778125 0.2475 3.1875 0.5 C6.20468796 0.89569678 8.97093972 1.09178971 12 1 C11.67 2.32 11.34 3.64 11 5 C9.68 5 8.36 5 7 5 C6.67 4.67 6.34 4.34 6 4 C5.360625 4.165 4.72125 4.33 4.0625 4.5 C2 5 2 5 0 4 C0 2.68 0 1.36 0 0 Z " fill="#B1A27F" transform="translate(243,134)"/>
<path d="M0 0 C0.66 0.66 1.32 1.32 2 2 C1.01 2.495 1.01 2.495 0 3 C0 2.01 0 1.02 0 0 Z M2 0 C2.66 0 3.32 0 4 0 C3.67 0.66 3.34 1.32 3 2 C2.67 1.34 2.34 0.68 2 0 Z M0 3 C0.33 4.32 0.66 5.64 1 7 C0.34 7 -0.32 7 -1 7 C-1.33 7.99 -1.66 8.98 -2 10 C-2.99 10.33 -3.98 10.66 -5 11 C-5 8.35220307 -4.82804069 6.48412207 -4 4 C-2 3 -2 3 0 3 Z " fill="#FFC9D7" transform="translate(36,291)"/>
<path d="M0 0 C3.76687864 0 4.91190305 0.23537317 8 2 C7.67 2.99 7.34 3.98 7 5 C4.03 5 1.06 5 -2 5 C-1 1 -1 1 0 0 Z " fill="#ACB491" transform="translate(305,266)"/>
<path d="M0 0 C4.31687378 0.35001679 6.19275066 1.77686187 9 5 C6.03 5 3.06 5 0 5 C-0.33 3.68 -0.66 2.36 -1 1 C-0.67 0.67 -0.34 0.34 0 0 Z " fill="#9DA783" transform="translate(291,255)"/>
<path d="M0 0 C0 1.65 0 3.3 0 5 C-2.31 5 -4.62 5 -7 5 C-7 3.68 -7 2.36 -7 1 C-4 0 -4 0 0 0 Z " fill="#C6B39E" transform="translate(76,160)"/>
<path d="M0 0 C1.98 0 3.96 0 6 0 C6 0.66 6 1.32 6 2 C6.99 2.33 7.98 2.66 9 3 C8.34 3 7.68 3 7 3 C7 3.99 7 4.98 7 6 C6.01 6 5.02 6 4 6 C4 4.68 4 3.36 4 2 C3.67 2.66 3.34 3.32 3 4 C2.34 4 1.68 4 1 4 C0.67 4.66 0.34 5.32 0 6 C0 4.02 0 2.04 0 0 Z " fill="#998561" transform="translate(182,105)"/>
<path d="M0 0 C0.33 1.32 0.66 2.64 1 4 C-0.98 3.34 -2.96 2.68 -5 2 C-5.33 4.64 -5.66 7.28 -6 10 C-6.66 9.67 -7.32 9.34 -8 9 C-8.36190476 3.57142857 -8.36190476 3.57142857 -6.8125 1.125 C-4.43963721 -0.34781139 -2.74086056 -0.22223194 0 0 Z " fill="#F5F5E0" transform="translate(221,198)"/>
<path d="M0 0 C0.66 0.33 1.32 0.66 2 1 C3.37342831 1.0689472 4.75002102 1.08467708 6.125 1.0625 C7.40375 1.041875 8.6825 1.02125 10 1 C10 1.99 10 2.98 10 4 C9.05125 3.979375 8.1025 3.95875 7.125 3.9375 C4.09333717 3.77448174 4.09333717 3.77448174 2 5 C-0.125 4.5625 -0.125 4.5625 -2 4 C-2 3.01 -2 2.02 -2 1 C-1.34 0.67 -0.68 0.34 0 0 Z " fill="#B7A887" transform="translate(186,118)"/>
<path d="M0 0 C-0.33 1.65 -0.66 3.3 -1 5 C-3.31 5 -5.62 5 -8 5 C-8 3.68 -8 2.36 -8 1 C-5.10765685 0.17361624 -3.11257569 0 0 0 Z " fill="#A9B09F" transform="translate(369,166)"/>
<path d="M0 0 C2.64 0 5.28 0 8 0 C7.67 1.32 7.34 2.64 7 4 C4.69 4.33 2.38 4.66 0 5 C0 3.35 0 1.7 0 0 Z " fill="#A9B1A4" transform="translate(340,167)"/>
<path d="M0 0 C0.33 0.66 0.66 1.32 1 2 C0.67 2.66 0.34 3.32 0 4 C-0.93972656 3.98259766 -0.93972656 3.98259766 -1.8984375 3.96484375 C-3.12433594 3.95130859 -3.12433594 3.95130859 -4.375 3.9375 C-5.59316406 3.92009766 -5.59316406 3.92009766 -6.8359375 3.90234375 C-9.04937142 3.85533666 -9.04937142 3.85533666 -11 5 C-11.33 3.68 -11.66 2.36 -12 1 C-9.36 1 -6.72 1 -4 1 C-4 1.66 -4 2.32 -4 3 C-3.34 3 -2.68 3 -2 3 C-2 2.34 -2 1.68 -2 1 C-1.34 0.67 -0.68 0.34 0 0 Z " fill="#BBA392" transform="translate(89,161)"/>
<path d="M0 0 C1.65 0.33 3.3 0.66 5 1 C5 2.32 5 3.64 5 5 C2.69 5.33 0.38 5.66 -2 6 C-2 4.68 -2 3.36 -2 2 C-1.34 2 -0.68 2 0 2 C0 1.34 0 0.68 0 0 Z " fill="#A8B08D" transform="translate(289,274)"/>
<path d="M0 0 C2.64 0 5.28 0 8 0 C8.66 1.32 9.32 2.64 10 4 C9.236875 3.814375 8.47375 3.62875 7.6875 3.4375 C4.91032625 2.77180827 4.91032625 2.77180827 2 4 C1.34 3.67 0.68 3.34 0 3 C0 2.01 0 1.02 0 0 Z " fill="#BAAC87" transform="translate(263,119)"/>
<path d="M0 0 C2.31 0.66 4.62 1.32 7 2 C7 2.99 7 3.98 7 5 C3.98968256 5.93423645 3.13349732 6.04449911 0 5 C0 3.35 0 1.7 0 0 Z " fill="#B5BB99" transform="translate(335,274)"/>
<path d="M0 0 C2.00720923 0.28674418 4.0085944 0.61866701 6 1 C6 1.99 6 2.98 6 4 C4.02 4.33 2.04 4.66 0 5 C-0.5625 3.0625 -0.5625 3.0625 -1 1 C-0.67 0.67 -0.34 0.34 0 0 Z " fill="#967063" transform="translate(89,149)"/>
<path d="M0 0 C2.31 0.33 4.62 0.66 7 1 C6.67 2.65 6.34 4.3 6 6 C3.03 5.505 3.03 5.505 0 5 C0 3.35 0 1.7 0 0 Z " fill="#AFB794" transform="translate(294,266)"/>
<path d="M0 0 C1.32 0.66 2.64 1.32 4 2 C3.67 3.65 3.34 5.3 3 7 C1.68 7 0.36 7 -1 7 C-1.04254356 5.00045254 -1.04080783 2.99958364 -1 1 C-0.67 0.67 -0.34 0.34 0 0 Z " fill="#A3D728" transform="translate(195,265)"/>
<path d="M0 0 C0.66 0.33 1.32 0.66 2 1 C1.67 1.66 1.34 2.32 1 3 C0.66666667 6 0.66666667 6 1 9 C1.99 9.66 2.98 10.32 4 11 C2.68 11.33 1.36 11.66 0 12 C-2.31332486 8.53001271 -2.33957563 7.07490752 -2 3 C-1.34 2.01 -0.68 1.02 0 0 Z " fill="#FFEAE1" transform="translate(169,198)"/>
<path d="M0 0 C7.75 0.875 7.75 0.875 10 2 C7.44931155 4.35448165 6.28982642 4.98327924 2.75 5.1875 C1.8425 5.125625 0.935 5.06375 0 5 C0 3.35 0 1.7 0 0 Z " fill="#A0A9A3" transform="translate(278,182)"/>
<path d="M0 0 C2.64 0 5.28 0 8 0 C7.34 1.32 6.68 2.64 6 4 C5.67 3.67 5.34 3.34 5 3 C3.68 3.99 2.36 4.98 1 6 C0.34 5.67 -0.32 5.34 -1 5 C-0.67 3.35 -0.34 1.7 0 0 Z " fill="#9BA5A0" transform="translate(319,175)"/>
<path d="M0 0 C1.98 0 3.96 0 6 0 C6.33 1.32 6.66 2.64 7 4 C4.36 4 1.72 4 -1 4 C-0.67 2.68 -0.34 1.36 0 0 Z " fill="#C6B399" transform="translate(35,169)"/>
<path d="M0 0 C2.64 0 5.28 0 8 0 C8 1.32 8 2.64 8 4 C5.36 4 2.72 4 0 4 C0 2.68 0 1.36 0 0 Z " fill="#C1AC95" transform="translate(48,161)"/>
<path d="M0 0 C2.64 0.33 5.28 0.66 8 1 C7.34 2.32 6.68 3.64 6 5 C4.02 5 2.04 5 0 5 C0 3.35 0 1.7 0 0 Z " fill="#C0B394" transform="translate(196,134)"/>
<path d="M0 0 C2.31 0 4.62 0 7 0 C6.34 1.32 5.68 2.64 5 4 C4.34 4 3.68 4 3 4 C3 4.66 3 5.32 3 6 C1.68 5.67 0.36 5.34 -1 5 C-0.67 3.35 -0.34 1.7 0 0 Z " fill="#697B54" transform="translate(317,255)"/>
<path d="M0 0 C1.485 0.99 1.485 0.99 3 2 C3.66 1.67 4.32 1.34 5 1 C5.99 1.33 6.98 1.66 8 2 C8 2.99 8 3.98 8 5 C4.94736336 5.98120464 3.05263664 5.98120464 0 5 C0 3.35 0 1.7 0 0 Z " fill="#BCA593" transform="translate(98,176)"/>
<path d="M0 0 C0.33 0.66 0.66 1.32 1 2 C2.65 1.34 4.3 0.68 6 0 C5.67 1.32 5.34 2.64 5 4 C2.50935112 4.68707555 0.62113708 5 -2 5 C-2 3.68 -2 2.36 -2 1 C-1.34 0.67 -0.68 0.34 0 0 Z " fill="#A0A99F" transform="translate(325,166)"/>
<path d="M0 0 C1.67542976 0.28604898 3.34385343 0.61781233 5 1 C5.33 2.32 5.66 3.64 6 5 C3.69 5.33 1.38 5.66 -1 6 C-1.042721 4.33388095 -1.04063832 2.66617115 -1 1 C-0.67 0.67 -0.34 0.34 0 0 Z " fill="#926B5E" transform="translate(97,149)"/>
<path d="M0 0 C0 1.65 0 3.3 0 5 C-2.64 5 -5.28 5 -8 5 C-8.33 4.34 -8.66 3.68 -9 3 C-8.05125 2.690625 -7.1025 2.38125 -6.125 2.0625 C-0.05882353 0 -0.05882353 0 0 0 Z " fill="#CABFA0" transform="translate(236,126)"/>
<path d="M0 0 C1.98 0 3.96 0 6 0 C6.33 1.32 6.66 2.64 7 4 C4.69 4 2.38 4 0 4 C0 2.68 0 1.36 0 0 Z " fill="#C6BA95" transform="translate(251,127)"/>
<path d="M0 0 C0.33 0 0.66 0 1 0 C1 1.98 1 3.96 1 6 C-1.31 6 -3.62 6 -6 6 C-6 5.01 -6 4.02 -6 3 C-4.02 2.67 -2.04 2.34 0 2 C0 1.34 0 0.68 0 0 Z " fill="#9D8963" transform="translate(256,105)"/>
<path d="M0 0 C2.31 0.66 4.62 1.32 7 2 C6.67 2.99 6.34 3.98 6 5 C4.02 5 2.04 5 0 5 C0 3.35 0 1.7 0 0 Z " fill="#9B8663" transform="translate(217,106)"/>
<path d="M0 0 C2.31 0 4.62 0 7 0 C7 1.32 7 2.64 7 4 C5.68 4 4.36 4 3 4 C2.67 3.67 2.34 3.34 2 3 C1.01 3.33 0.02 3.66 -1 4 C-0.67 2.68 -0.34 1.36 0 0 Z " fill="#A3ACA6" transform="translate(326,183)"/>
<path d="M0 0 C1.98 0 3.96 0 6 0 C5.67 1.65 5.34 3.3 5 5 C3.35 5 1.7 5 0 5 C0 3.35 0 1.7 0 0 Z " fill="#CBBBA0" transform="translate(58,177)"/>
<path d="M0 0 C2.31 0.33 4.62 0.66 7 1 C7 1.99 7 2.98 7 4 C4.36 4.33 1.72 4.66 -1 5 C-0.67 3.35 -0.34 1.7 0 0 Z " fill="#BDA594" transform="translate(84,169)"/>
<path d="M0 0 C0 1.65 0 3.3 0 5 C-1.65 5.33 -3.3 5.66 -5 6 C-5.33 4.68 -5.66 3.36 -6 2 C-1.125 0 -1.125 0 0 0 Z " fill="#6F7D80" transform="translate(311,154)"/>
<path d="M0 0 C0.99 0.33 1.98 0.66 3 1 C1.9024777 3.99324263 1.32317108 4.84610901 -1.625 6.25 C-2.40875 6.4975 -3.1925 6.745 -4 7 C-2.92598892 4.08482708 -2.22189824 2.22189824 0 0 Z " fill="#4DB8E4" transform="translate(291,217)"/>
<path d="M0 0 C2.31 0.33 4.62 0.66 7 1 C7 2.32 7 3.64 7 5 C4.69 5 2.38 5 0 5 C0 3.35 0 1.7 0 0 Z " fill="#ABB3AB" transform="translate(311,182)"/>
<path d="M0 0 C0 1.32 0 2.64 0 4 C-2.31 4 -4.62 4 -7 4 C-7 3.01 -7 2.02 -7 1 C-4.53721199 -0.231394 -2.7204945 -0.07159196 0 0 Z " fill="#A7AFA4" transform="translate(360,175)"/>
<path d="M0 0 C2.64 0 5.28 0 8 0 C8 1.32 8 2.64 8 4 C6.02 4 4.04 4 2 4 C1.34 2.68 0.68 1.36 0 0 Z " fill="#A9B0A5" transform="translate(313,167)"/>
<path d="M0 0 C-0.33 1.32 -0.66 2.64 -1 4 C-3.31 3.67 -5.62 3.34 -8 3 C-8 2.34 -8 1.68 -8 1 C-5.29120665 -0.35439668 -2.99066732 -0.06501451 0 0 Z " fill="#B9AB87" transform="translate(262,119)"/>
<path d="M0 0 C2.97 0.495 2.97 0.495 6 1 C5.67 2.32 5.34 3.64 5 5 C3.35 4.67 1.7 4.34 0 4 C0 2.68 0 1.36 0 0 Z " fill="#B5BB99" transform="translate(324,283)"/>
<path d="M0 0 C2.125 0.9375 2.125 0.9375 4 2 C3.67 2.99 3.34 3.98 3 5 C1.35 5.33 -0.3 5.66 -2 6 C-2 4.35 -2 2.7 -2 1 C-1.34 0.67 -0.68 0.34 0 0 Z " fill="#C1C6A4" transform="translate(290,282)"/>
<path d="M0 0 C0.37125 0.495 0.7425 0.99 1.125 1.5 C3.74694393 3.59755514 5.73842472 3.21743835 9 3 C9.33 2.01 9.66 1.02 10 0 C10.33 0.99 10.66 1.98 11 3 C8.67471713 5.32528287 8.15334102 5.29511025 5 5.3125 C4.29875 5.32925781 3.5975 5.34601563 2.875 5.36328125 C2.25625 5.24339844 1.6375 5.12351563 1 5 C0.34 4.01 -0.32 3.02 -1 2 C-0.67 1.34 -0.34 0.68 0 0 Z " fill="#F9F7DA" transform="translate(193,247)"/>
<path d="M0 0 C0.66 0.66 1.32 1.32 2 2 C1.625 4.125 1.625 4.125 1 6 C-0.32 6 -1.64 6 -3 6 C-3.33 4.35 -3.66 2.7 -4 1 C-2.125 0.375 -2.125 0.375 0 0 Z " fill="#7C898A" transform="translate(288,154)"/>
<path d="M0 0 C0.33 0.66 0.66 1.32 1 2 C1.66 2.33 2.32 2.66 3 3 C2.67 3.99 2.34 4.98 2 6 C0.68 5.67 -0.64 5.34 -2 5 C-2.33 3.68 -2.66 2.36 -3 1 C-2.01 0.67 -1.02 0.34 0 0 Z " fill="#A58676" transform="translate(66,148)"/>
<path d="M0 0 C2.31 0.33 4.62 0.66 7 1 C7.33 1.99 7.66 2.98 8 4 C7.01 4.495 7.01 4.495 6 5 C6 4.34 6 3.68 6 3 C5.071875 3.495 5.071875 3.495 4.125 4 C2 5 2 5 0 5 C0 3.35 0 1.7 0 0 Z " fill="#B6A887" transform="translate(238,126)"/>
<path d="M0 0 C0 1.32 0 2.64 0 4 C-2.31 4 -4.62 4 -7 4 C-7 3.01 -7 2.02 -7 1 C-2.25 0 -2.25 0 0 0 Z " fill="#A6AF8C" transform="translate(304,275)"/>
<path d="M0 0 C0 1.65 0 3.3 0 5 C-1.65 5 -3.3 5 -5 5 C-5 3.68 -5 2.36 -5 1 C-1.125 0 -1.125 0 0 0 Z " fill="#AEB6AD" transform="translate(309,182)"/>
<path d="M0 0 C0.66 0.66 1.32 1.32 2 2 C1.01 3.485 1.01 3.485 0 5 C-2.625 5.1875 -2.625 5.1875 -5 5 C-5.33 3.68 -5.66 2.36 -6 1 C-4.7934375 1.0309375 -4.7934375 1.0309375 -3.5625 1.0625 C-1.06645115 1.29633621 -1.06645115 1.29633621 0 0 Z " fill="#A6AF8C" transform="translate(352,266)"/>
<path d="M0 0 C2.375 -0.125 2.375 -0.125 5 0 C7 2 7 2 7.125 4.625 C7.08375 5.40875 7.0425 6.1925 7 7 C5.83040013 6.02433888 4.66438823 5.044375 3.5 4.0625 C2.8503125 3.51722656 2.200625 2.97195313 1.53125 2.41015625 C1.0259375 1.94480469 0.520625 1.47945313 0 1 C0 0.67 0 0.34 0 0 Z " fill="#96D10D" transform="translate(197,261)"/>
<path d="M0 0 C0.99 0.33 1.98 0.66 3 1 C3 1.99 3 2.98 3 4 C4.65 3.67 6.3 3.34 8 3 C7.67 3.66 7.34 4.32 7 5 C4.69 5 2.38 5 0 5 C0 3.35 0 1.7 0 0 Z " fill="#B9BFB2" transform="translate(334,174)"/>
<path d="M0 0 C1.98 0 3.96 0 6 0 C6 0.99 6 1.98 6 3 C3.69 3.33 1.38 3.66 -1 4 C-0.67 2.68 -0.34 1.36 0 0 Z " fill="#AAB2AA" transform="translate(313,175)"/>
<path d="M0 0 C2.475 0.495 2.475 0.495 5 1 C4.67 2.32 4.34 3.64 4 5 C2.68 5 1.36 5 0 5 C0 3.35 0 1.7 0 0 Z " fill="#B0B7AF" transform="translate(299,174)"/>
<path d="M0 0 C0.99 0.33 1.98 0.66 3 1 C2.01 1.495 2.01 1.495 1 2 C2.32 2.33 3.64 2.66 5 3 C5 3.66 5 4.32 5 5 C3.824375 4.9690625 3.824375 4.9690625 2.625 4.9375 C0.01885039 4.81315937 0.01885039 4.81315937 -2 6 C-1.125 1.125 -1.125 1.125 0 0 Z " fill="#BDC2AA" transform="translate(350,166)"/>
<path d="M0 0 C2 2 2 2 2 6 C0.02 6 -1.96 6 -4 6 C-2.25 1.125 -2.25 1.125 0 0 Z " fill="#758384" transform="translate(301,154)"/>
<path d="M0 0 C2.31 0 4.62 0 7 0 C7.33 0.66 7.66 1.32 8 2 C7.01 2 6.02 2 5 2 C5 2.66 5 3.32 5 4 C3.35 4 1.7 4 0 4 C0 2.68 0 1.36 0 0 Z " fill="#988160" transform="translate(198,107)"/>
<path d="M0 0 C0.99 0 1.98 0 3 0 C3.12375 0.639375 3.2475 1.27875 3.375 1.9375 C3.684375 2.9584375 3.684375 2.9584375 4 4 C4.66 4.33 5.32 4.66 6 5 C4.1875 5.6875 4.1875 5.6875 2 6 C0.25 4.5625 0.25 4.5625 -1 3 C-0.67 2.01 -0.34 1.02 0 0 Z " fill="#B9AB86" transform="translate(238,107)"/>
<path d="M0 0 C2.31 0 4.62 0 7 0 C6.67 1.65 6.34 3.3 6 5 C5.01 4.67 4.02 4.34 3 4 C2.67 3.34 2.34 2.68 2 2 C1.34 1.34 0.68 0.68 0 0 Z " fill="#99A37F" transform="translate(308,255)"/>
<path d="M0 0 C0.66 0 1.32 0 2 0 C2.33 1.98 2.66 3.96 3 6 C1.02 6 -0.96 6 -3 6 C-3 5.01 -3 4.02 -3 3 C-2.01 3 -1.02 3 0 3 C0 2.01 0 1.02 0 0 Z " fill="#8F9B76" transform="translate(286,254)"/>
<path d="M0 0 C-3.18762365 2.12508244 -5.26512223 2.5020163 -9 3 C-8.67 2.01 -8.34 1.02 -8 0 C-4.71023192 -1.09658936 -3.28696233 -0.79953138 0 0 Z " fill="#FFF2C1" transform="translate(190,175)"/>
<path d="M0 0 C1.65 0 3.3 0 5 0 C5 1.32 5 2.64 5 4 C3.35 4 1.7 4 0 4 C0 2.68 0 1.36 0 0 Z " fill="#BFB495" transform="translate(222,135)"/>
<path d="M0 0 C0.33 0 0.66 0 1 0 C1 1.98 1 3.96 1 6 C-0.65 6 -2.3 6 -4 6 C-4 5.01 -4 4.02 -4 3 C-2.68 2.67 -1.36 2.34 0 2 C0 1.34 0 0.68 0 0 Z " fill="#8F7854" transform="translate(195,105)"/>
<path d="M0 0 C0.33 0.99 0.66 1.98 1 3 C1.66 3 2.32 3 3 3 C3.33 2.01 3.66 1.02 4 0 C4.66 0.66 5.32 1.32 6 2 C5.67 2.66 5.34 3.32 5 4 C1.9375 4.625 1.9375 4.625 -1 5 C-0.67 3.35 -0.34 1.7 0 0 Z " fill="#ABB390" transform="translate(321,275)"/>
<path d="M0 0 C3.7952131 1.49097658 5.61042731 3.75700849 8 7 C4.78448712 6.65548076 3.97940123 5.97711248 1.75 3.5 C0 1 0 1 0 0 Z " fill="#FFFCF0" transform="translate(198,222)"/>
<path d="M0 0 C0.66 0.33 1.32 0.66 2 1 C2 2.32 2 3.64 2 5 C-0.97 4.505 -0.97 4.505 -4 4 C-4 3.34 -4 2.68 -4 2 C-2.125 0.9375 -2.125 0.9375 0 0 Z " fill="#AAB28F" transform="translate(342,283)"/>
<path d="M0 0 C1.65 0 3.3 0 5 0 C5.33 1.32 5.66 2.64 6 4 C4.02 4 2.04 4 0 4 C-0.33 3.34 -0.66 2.68 -1 2 C-0.67 1.34 -0.34 0.68 0 0 Z " fill="#A3AC89" transform="translate(339,267)"/>
<path d="M0 0 C0.66 1.32 1.32 2.64 2 4 C0.35 4.66 -1.3 5.32 -3 6 C-3 3 -3 3 -1.5 1.3125 C-0.7575 0.6628125 -0.7575 0.6628125 0 0 Z " fill="#FAFCF2" transform="translate(195,261)"/>
<path d="M0 0 C2.31 0 4.62 0 7 0 C6.34 1.32 5.68 2.64 5 4 C3.35 3.67 1.7 3.34 0 3 C0 2.01 0 1.02 0 0 Z " fill="#AAB2A5" transform="translate(346,175)"/>
<path d="M0 0 C1.98 0 3.96 0 6 0 C5.67 0.99 5.34 1.98 5 3 C3.35 3.33 1.7 3.66 0 4 C0 2.68 0 1.36 0 0 Z " fill="#B8A989" transform="translate(211,127)"/>
<path d="M0 0 C0 1.65 0 3.3 0 5 C-2.97 4.505 -2.97 4.505 -6 4 C-4.82249287 1.64498575 -2.80021952 0 0 0 Z " fill="#B6A786" transform="translate(243,118)"/>
<path d="M0 0 C0 1.65 0 3.3 0 5 C-1.32 4.67 -2.64 4.34 -4 4 C-4 3.01 -4 2.02 -4 1 C-2 0 -2 0 0 0 Z " fill="#A2AB88" transform="translate(326,267)"/>
<path d="M0 0 C1.65 0 3.3 0 5 0 C4.01 0.495 4.01 0.495 3 1 C3.33 1.99 3.66 2.98 4 4 C2.68 4.33 1.36 4.66 0 5 C0 3.35 0 1.7 0 0 Z " fill="#657750" transform="translate(308,256)"/>
<path d="M0 0 C0.99 0.33 1.98 0.66 3 1 C2.67 2.32 2.34 3.64 2 5 C1.01 5 0.02 5 -1 5 C-0.67 3.35 -0.34 1.7 0 0 Z " fill="#ECF7FA" transform="translate(249,216)"/>
<path d="M0 0 C0.99 0 1.98 0 3 0 C2.67 1.65 2.34 3.3 2 5 C1.01 5.33 0.02 5.66 -1 6 C-1.042721 4.33388095 -1.04063832 2.66617115 -1 1 C-0.67 0.67 -0.34 0.34 0 0 Z " fill="#CBBAA3" transform="translate(74,176)"/>
<path d="M0 0 C1.98 0.495 1.98 0.495 4 1 C4 1.99 4 2.98 4 4 C2.35 4 0.7 4 -1 4 C-0.67 2.68 -0.34 1.36 0 0 Z " fill="#BFAA93" transform="translate(33,177)"/>
<path d="M0 0 C1.98 0.99 1.98 0.99 4 2 C4 3.32 4 4.64 4 6 C2.68 6 1.36 6 0 6 C0 4.02 0 2.04 0 0 Z " fill="#B2B9AC" transform="translate(329,173)"/>
<path d="M0 0 C0.99 0.33 1.98 0.66 3 1 C2.01 1.495 2.01 1.495 1 2 C1 2.99 1 3.98 1 5 C0.01 5 -0.98 5 -2 5 C-2.33 4.01 -2.66 3.02 -3 2 C-2.01 1.34 -1.02 0.68 0 0 Z " fill="#CDBEA3" transform="translate(65,168)"/>
<path d="M0 0 C1.98 0 3.96 0 6 0 C6.33 0.99 6.66 1.98 7 3 C4.69 3 2.38 3 0 3 C0 2.01 0 1.02 0 0 Z " fill="#BAA190" transform="translate(92,162)"/>
<path d="M0 0 C1.32 0.33 2.64 0.66 4 1 C3.67 2.32 3.34 3.64 3 5 C2.01 4.67 1.02 4.34 0 4 C0 2.68 0 1.36 0 0 Z " fill="#7D8A88" transform="translate(318,155)"/>
<path d="M0 0 C1.9375 0.3125 1.9375 0.3125 4 1 C4.33 1.99 4.66 2.98 5 4 C3.02 4 1.04 4 -1 4 C-1.33 3.34 -1.66 2.68 -2 2 C-1.34 2 -0.68 2 0 2 C0 1.34 0 0.68 0 0 Z " fill="#8B6056" transform="translate(60,150)"/>
</svg>
