<?xml version="1.0" encoding="UTF-8"?>
<svg version="1.1" xmlns="http://www.w3.org/2000/svg" width="400" height="400">
<path d="M0 0 C132 0 264 0 400 0 C400 132 400 264 400 400 C268 400 136 400 0 400 C0 268 0 136 0 0 Z " fill="#F0F0DC" transform="translate(0,0)"/>
<path d="M0 0 C1.94706848 -0.00472824 1.94706848 -0.00472824 3.93347168 -0.009552 C5.36124709 -0.00776222 6.78902219 -0.00571127 8.21679688 -0.00341797 C9.67028825 -0.00409105 11.12377952 -0.00506111 12.57727051 -0.00631714 C15.62720814 -0.00779393 18.67711654 -0.00564017 21.72705078 -0.00097656 C25.64485247 0.00472073 29.56258566 0.00144162 33.48038483 -0.00454903 C36.48285441 -0.00815515 39.48530764 -0.00701582 42.48777771 -0.00442123 C43.93273425 -0.00375211 45.37769226 -0.00457989 46.82264709 -0.00690079 C48.83879571 -0.00942812 50.8549495 -0.00489598 52.87109375 0 C54.59531555 0.00119339 54.59531555 0.00119339 56.35437012 0.00241089 C58.93554688 0.12939453 58.93554688 0.12939453 59.93554688 1.12939453 C60.02409848 3.79565484 60.05079361 6.43586568 60.03320312 9.10205078 C60.0310807 10.29851479 60.0310807 10.29851479 60.02891541 11.51914978 C60.02330004 14.07676889 60.01074499 16.63430171 59.99804688 19.19189453 C59.99303385 20.92171098 59.9884706 22.65152879 59.984375 24.38134766 C59.97332562 28.63073006 59.95605074 32.88004765 59.93554688 37.12939453 C61.20333984 37.00701416 62.47113281 36.88463379 63.77734375 36.75854492 C64.49047729 36.68970596 65.20361084 36.620867 65.93835449 36.54994202 C69.11780647 35.88044691 70.47358605 34.05438058 72.43554688 31.56689453 C73.44101562 30.32746094 73.44101562 30.32746094 74.46679688 29.06298828 C75.19382813 28.10585937 75.19382813 28.10585937 75.93554688 27.12939453 C77.73242188 27.28955078 77.73242188 27.28955078 79.93554688 28.12939453 C81.63867188 30.56298828 81.63867188 30.56298828 83.18554688 33.56689453 C83.70632812 34.55560547 84.22710937 35.54431641 84.76367188 36.56298828 C85.93554688 39.12939453 85.93554688 39.12939453 85.93554688 41.12939453 C86.59554687 41.12939453 87.25554687 41.12939453 87.93554688 41.12939453 C88.10570312 40.14841797 88.27585938 39.16744141 88.45117188 38.15673828 C90.32122541 27.64850617 92.5548119 17.27159945 95.93554688 7.12939453 C97.91554687 7.62439453 97.91554687 7.62439453 99.93554688 8.12939453 C100.94037549 12.71755193 101.93701188 17.30738588 102.92626953 21.89892578 C103.26356925 23.45897741 103.60305881 25.01855731 103.94482422 26.57763672 C104.43715889 28.82543874 104.92145785 31.07484867 105.40429688 33.32470703 C105.55741333 34.01557404 105.71052979 34.70644104 105.86828613 35.41824341 C106.71120399 39.38927327 107.09009341 43.07254811 106.93554688 47.12939453 C111.15681929 44.02155919 111.71232683 38.56273813 112.953125 33.75830078 C113.55664063 31.62158203 113.55664063 31.62158203 114.93554688 28.12939453 C116.88525391 27.29638672 116.88525391 27.29638672 118.93554688 27.12939453 C121.11914063 28.96533203 121.11914063 28.96533203 123.37304688 31.50439453 C126.84400473 35.40394023 127.52757699 36.04780056 132.93554688 37.12939453 C132.93554688 25.24939453 132.93554688 13.36939453 132.93554688 1.12939453 C135.69227108 -0.24896757 137.92067503 -0.00542945 141.00585938 -0.01586914 C142.28058105 -0.02224899 143.55530273 -0.02862885 144.86865234 -0.03520203 C146.26595014 -0.03673047 147.66324844 -0.03784455 149.06054688 -0.03857422 C150.48779331 -0.0417861 151.91503942 -0.04515012 153.34228516 -0.04866028 C156.33496871 -0.05465198 159.32762337 -0.05650009 162.3203125 -0.0559082 C166.16069007 -0.05580647 170.00088323 -0.06947028 173.84121704 -0.08668041 C176.78882707 -0.09778099 179.7363922 -0.09982803 182.684021 -0.09929848 C184.10024655 -0.10048109 185.51647317 -0.10491853 186.93267822 -0.11263084 C188.91017287 -0.12239301 190.88772139 -0.11829826 192.86523438 -0.11352539 C193.99171387 -0.11495041 195.11819336 -0.11637543 196.27880859 -0.11784363 C198.93554688 0.12939453 198.93554688 0.12939453 200.93554688 2.12939453 C201.11065073 4.7823121 201.1671017 7.32925627 201.13085938 9.98095703 C201.12661453 11.14200455 201.12661453 11.14200455 201.12228394 12.32650757 C201.11107441 14.8026261 201.0859689 17.27838503 201.06054688 19.75439453 C201.05051805 21.43147265 201.04139203 23.10855642 201.03320312 24.78564453 C201.01113261 28.90036676 200.97659789 33.01481965 200.93554688 37.12939453 C206.05533417 36.74185095 206.05533417 36.74185095 210.19335938 34.02783203 C210.80953125 33.19509766 211.42570312 32.36236328 212.06054688 31.50439453 C213.94335938 28.96533203 213.94335938 28.96533203 215.93554688 27.12939453 C218.47070312 26.97705078 218.47070312 26.97705078 220.93554688 28.12939453 C222.73632812 30.85205078 222.73632812 30.85205078 224.24804688 34.19189453 C224.75980469 35.29662109 225.2715625 36.40134766 225.79882812 37.53955078 C226.17394531 38.39419922 226.5490625 39.24884766 226.93554688 40.12939453 C229.68594828 31.84893074 231.82881956 23.57883508 233.62792969 15.04785156 C234.84431489 9.3118585 234.84431489 9.3118585 235.93554688 7.12939453 C237.81054688 7.25439453 237.81054688 7.25439453 239.93554688 8.12939453 C242.29938883 14.11623825 243.36344492 20.46722225 244.64990234 26.75244141 C245.06106421 28.75691663 245.48035728 30.75957428 245.90039062 32.76220703 C246.16207031 34.03064453 246.42375 35.29908203 246.69335938 36.60595703 C247.05131592 38.33966553 247.05131592 38.33966553 247.41650391 40.10839844 C247.93554688 43.12939453 247.93554688 43.12939453 247.93554688 47.12939453 C248.59554688 47.12939453 249.25554687 47.12939453 249.93554688 47.12939453 C250.01804687 46.22189453 250.10054688 45.31439453 250.18554688 44.37939453 C250.96243557 38.755648 253.05357917 33.46017749 254.93554688 28.12939453 C256.58554687 27.79939453 258.23554688 27.46939453 259.93554688 27.12939453 C260.67611328 27.97824219 260.67611328 27.97824219 261.43164062 28.84423828 C262.07230469 29.57771484 262.71296875 30.31119141 263.37304688 31.06689453 C264.01113281 31.79779297 264.64921875 32.52869141 265.30664062 33.28173828 C268.06758983 36.41346244 269.24961746 36.35006688 273.49804688 36.69189453 C274.50996094 36.77568359 275.521875 36.85947266 276.56445312 36.94580078 C277.73814453 37.03667969 277.73814453 37.03667969 278.93554688 37.12939453 C278.60554688 38.44939453 278.27554687 39.76939453 277.93554688 41.12939453 C267.71133163 42.20293713 267.71133163 42.20293713 263.35742188 39.57080078 C261.42148963 37.84030019 259.63619301 36.09013949 257.93554688 34.12939453 C257.80414307 34.84957764 257.67273926 35.56976074 257.53735352 36.31176758 C256.95619535 39.03271945 256.19567658 41.57664648 255.30664062 44.21142578 C254.99404297 45.14277344 254.68144531 46.07412109 254.359375 47.03369141 C253.87114258 48.47325195 253.87114258 48.47325195 253.37304688 49.94189453 C252.87901367 51.41045898 252.87901367 51.41045898 252.375 52.90869141 C251.56455972 55.31652122 250.75132633 57.72336949 249.93554688 60.12939453 C248.61554688 60.12939453 247.29554688 60.12939453 245.93554688 60.12939453 C245.79455566 59.47455078 245.65356445 58.81970703 245.50830078 58.14501953 C244.86039881 55.13951851 244.21048714 52.1344554 243.56054688 49.12939453 C243.33882813 48.09943359 243.11710937 47.06947266 242.88867188 46.00830078 C241.91857099 41.52871728 240.93840382 37.06423849 239.77929688 32.62939453 C238.88037056 28.90051502 238.77693342 25.9361174 238.93554688 22.12939453 C238.27554687 22.12939453 237.61554688 22.12939453 236.93554688 22.12939453 C236.78859375 23.04205078 236.78859375 23.04205078 236.63867188 23.97314453 C235.61994215 29.94500846 234.33918796 35.81672519 232.87304688 41.69189453 C232.69870117 42.39443359 232.52435547 43.09697266 232.34472656 43.82080078 C231.06509127 48.87030573 231.06509127 48.87030573 229.93554688 51.12939453 C228.06494141 50.85205078 228.06494141 50.85205078 225.93554688 50.12939453 C224.77880859 48.56298828 224.77880859 48.56298828 223.86523438 46.56689453 C223.52621094 45.85275391 223.1871875 45.13861328 222.83789062 44.40283203 C222.49886719 43.65259766 222.15984375 42.90236328 221.81054688 42.12939453 C219.80341282 36.81014841 219.80341282 36.81014841 215.93554688 33.12939453 C215.56429687 33.99564453 215.56429687 33.99564453 215.18554688 34.87939453 C213.63620786 37.66820476 212.55380154 39.24962195 209.93554688 41.12939453 C207.72875977 41.30029297 207.72875977 41.30029297 205.28320312 41.23876953 C204.46988525 41.22297852 203.65656738 41.2071875 202.81860352 41.19091797 C202.19719482 41.17061523 201.57578613 41.1503125 200.93554688 41.12939453 C200.94602051 41.84595215 200.95649414 42.56250977 200.96728516 43.30078125 C201.00875987 46.53528358 201.0348458 49.76973006 201.06054688 53.00439453 C201.07730469 54.13232422 201.0940625 55.26025391 201.11132812 56.42236328 C201.11777344 57.49873047 201.12421875 58.57509766 201.13085938 59.68408203 C201.14133301 60.67907715 201.15180664 61.67407227 201.16259766 62.69921875 C200.93554688 65.12939453 200.93554688 65.12939453 198.93554688 67.12939453 C196.22738647 67.36990356 196.22738647 67.36990356 192.74169922 67.35644531 C191.4405014 67.35629425 190.13930359 67.35614319 188.79867554 67.35598755 C187.37294361 67.34577346 185.94721323 67.33534146 184.52148438 67.32470703 C183.06702875 67.32097748 181.61257061 67.31813024 180.15811157 67.31613159 C176.32756632 67.30849053 172.49717241 67.2888381 168.66668701 67.26672363 C164.75893196 67.24627531 160.85115249 67.23713205 156.94335938 67.22705078 C149.2740195 67.20559256 141.60480438 67.17145104 133.93554688 67.12939453 C132.6307907 64.51988218 132.82253115 62.60238168 132.83789062 59.68408203 C132.84111328 58.60771484 132.84433594 57.53134766 132.84765625 56.42236328 C132.85603516 55.29443359 132.86441406 54.16650391 132.87304688 53.00439453 C132.87755859 51.86873047 132.88207031 50.73306641 132.88671875 49.56298828 C132.89853073 46.75173815 132.91500181 43.94059223 132.93554688 41.12939453 C131.84886719 41.19126953 130.7621875 41.25314453 129.64257812 41.31689453 C125.93554688 41.12939453 125.93554688 41.12939453 124.00976562 39.81689453 C123.55214844 39.26001953 123.09453125 38.70314453 122.62304688 38.12939453 C121.75656378 37.10385838 120.86598468 36.0972803 119.93554688 35.12939453 C119.27554688 35.12939453 118.61554688 35.12939453 117.93554688 35.12939453 C117.71415039 35.85118896 117.49275391 36.5729834 117.26464844 37.31665039 C116.25546247 40.57235154 115.22091698 43.8194305 114.18554688 47.06689453 C113.8375 48.20320313 113.48945313 49.33951172 113.13085938 50.51025391 C112.7828125 51.58984375 112.43476563 52.66943359 112.07617188 53.78173828 C111.76196289 54.78197021 111.44775391 55.78220215 111.12402344 56.81274414 C109.93554688 59.12939453 109.93554688 59.12939453 107.80175781 59.96362305 C107.1859082 60.01832764 106.57005859 60.07303223 105.93554688 60.12939453 C103.75823248 51.76078586 101.90612691 43.3651576 100.24804688 34.87939453 C99.91063477 33.17203125 99.91063477 33.17203125 99.56640625 31.43017578 C99.02009845 28.6637661 98.47651738 25.89685194 97.93554688 23.12939453 C96.02604572 25.99364626 95.44431548 27.60008121 94.71679688 30.87548828 C94.40162109 32.25510742 94.40162109 32.25510742 94.08007812 33.66259766 C93.86738281 34.62101562 93.6546875 35.57943359 93.43554688 36.56689453 C93.01316791 38.46248015 92.58624744 40.35706082 92.15429688 42.25048828 C91.96802734 43.09023193 91.78175781 43.92997559 91.58984375 44.79516602 C90.94435038 47.09798771 90.0774517 49.03419232 88.93554688 51.12939453 C84.63423721 49.69562464 83.69929682 46.51323937 81.74804688 42.69189453 C81.38001953 41.99773437 81.01199219 41.30357422 80.6328125 40.58837891 C77.93554688 35.41903681 77.93554688 35.41903681 77.93554688 33.12939453 C76.98679688 33.89251953 76.03804687 34.65564453 75.06054688 35.44189453 C74.526875 35.87115234 73.99320313 36.30041016 73.44335938 36.74267578 C71.68262581 38.25209998 71.68262581 38.25209998 69.93554688 41.12939453 C67.55273438 41.42236328 67.55273438 41.42236328 64.81054688 41.31689453 C63.90046875 41.28982422 62.99039063 41.26275391 62.05273438 41.23486328 C61.3540625 41.20005859 60.65539062 41.16525391 59.93554688 41.12939453 C59.94078369 41.88148193 59.94602051 42.63356934 59.95141602 43.40844727 C59.97211914 46.79458796 59.98518564 50.18071537 59.99804688 53.56689453 C60.00642578 54.75089844 60.01480469 55.93490234 60.0234375 57.15478516 C60.02666016 58.27949219 60.02988281 59.40419922 60.03320312 60.56298828 C60.03843994 61.60511475 60.04367676 62.64724121 60.04907227 63.72094727 C59.93554688 66.12939453 59.93554688 66.12939453 58.93554688 67.12939453 C56.91604479 67.22874601 54.89303773 67.25738961 52.87109375 67.25878906 C51.5730481 67.26194122 50.27500244 67.26509338 48.93762207 67.26834106 C47.50984666 67.26655128 46.08207156 67.26450033 44.65429688 67.26220703 C43.2008055 67.26288011 41.74731423 67.26385017 40.29382324 67.2651062 C37.24388561 67.26658299 34.19397721 67.26442923 31.14404297 67.25976562 C27.22624128 67.25406834 23.30850809 67.25734744 19.39070892 67.26333809 C16.38823934 67.26694422 13.38578611 67.26580488 10.38331604 67.2632103 C8.9383595 67.26254117 7.49340149 67.26336895 6.04844666 67.26568985 C4.03229804 67.26821718 2.01614425 67.26368505 0 67.25878906 C-1.7242218 67.25759567 -1.7242218 67.25759567 -3.48327637 67.25637817 C-6.06445312 67.12939453 -6.06445312 67.12939453 -7.06445312 66.12939453 C-7.15182958 64.27569842 -7.17143466 62.41871912 -7.16210938 60.56298828 C-7.15727539 58.87592773 -7.15727539 58.87592773 -7.15234375 57.15478516 C-7.13977539 55.3787793 -7.13977539 55.3787793 -7.12695312 53.56689453 C-7.12244141 52.37902344 -7.11792969 51.19115234 -7.11328125 49.96728516 C-7.10144987 47.02127227 -7.08496599 44.07535772 -7.06445312 41.12939453 C-8.90523437 41.23767578 -8.90523437 41.23767578 -10.78320312 41.34814453 C-13.84429391 41.34814453 -14.89762883 41.23031293 -17.59570312 39.59814453 C-18.24539062 38.94845703 -18.89507812 38.29876953 -19.56445312 37.62939453 C-20.23476562 36.97970703 -20.90507813 36.33001953 -21.59570312 35.66064453 C-22.08039063 35.15533203 -22.56507812 34.65001953 -23.06445312 34.12939453 C-23.30228516 35.05945313 -23.30228516 35.05945313 -23.54492188 36.00830078 C-25.69664272 44.17532962 -28.33708238 52.1413245 -31.06445312 60.12939453 C-32.38445312 59.79939453 -33.70445313 59.46939453 -35.06445312 59.12939453 C-35.90655644 55.30783668 -36.74246338 51.48497784 -37.57299805 47.66088867 C-37.9934167 45.73107853 -38.4185351 43.80229417 -38.84375 41.87353516 C-40.27034434 35.29057575 -41.48739014 28.84231713 -42.06445312 22.12939453 C-42.72445312 22.12939453 -43.38445313 22.12939453 -44.06445312 22.12939453 C-44.16242187 22.73783203 -44.26039062 23.34626953 -44.36132812 23.97314453 C-45.38005785 29.94500846 -46.66081204 35.81672519 -48.12695312 41.69189453 C-48.30129883 42.39443359 -48.47564453 43.09697266 -48.65527344 43.82080078 C-49.93490873 48.87030573 -49.93490873 48.87030573 -51.06445312 51.12939453 C-54.34939748 50.13507281 -55.56309252 48.58740243 -57.13476562 45.68798828 C-57.83126952 44.32013939 -58.51583072 42.94615561 -59.18945312 41.56689453 C-61.27234679 36.57552441 -61.27234679 36.57552441 -65.06445312 33.12939453 C-65.31195313 33.70689453 -65.55945313 34.28439453 -65.81445312 34.87939453 C-67.30547868 37.56324053 -68.67076721 39.18856812 -71.06445312 41.12939453 C-74.08007812 41.52001953 -74.08007812 41.52001953 -77.31445312 41.37939453 C-78.39210938 41.34330078 -79.46976563 41.30720703 -80.58007812 41.27001953 C-81.39992188 41.22361328 -82.21976563 41.17720703 -83.06445312 41.12939453 C-83.39445312 39.80939453 -83.72445312 38.48939453 -84.06445312 37.12939453 C-83.37480469 37.16162109 -82.68515625 37.19384766 -81.97460938 37.22705078 C-77.31418233 37.16951464 -74.18384112 37.01093337 -70.43554688 34.05908203 C-68.89124756 32.43591406 -67.38914977 30.77117863 -65.93945312 29.06298828 C-65.32070312 28.42490234 -64.70195313 27.78681641 -64.06445312 27.12939453 C-63.07445313 27.12939453 -62.08445312 27.12939453 -61.06445312 27.12939453 C-57.59945312 33.56439453 -57.59945312 33.56439453 -54.06445312 40.12939453 C-51.69947319 33.6256997 -50.04914417 27.09084594 -48.59863281 20.3347168 C-47.55396795 15.64075424 -46.082351 11.49768483 -44.06445312 7.12939453 C-43.07445312 7.12939453 -42.08445313 7.12939453 -41.06445312 7.12939453 C-37.726598 20.35653321 -35.28376153 33.67260731 -33.06445312 47.12939453 C-32.40445313 47.12939453 -31.74445313 47.12939453 -31.06445312 47.12939453 C-30.81695312 45.87126953 -30.56945312 44.61314453 -30.31445312 43.31689453 C-29.08611511 37.72706644 -27.11757937 32.46154279 -25.06445312 27.12939453 C-20.30119541 27.80683563 -18.30756499 30.8618993 -15.25976562 34.31689453 C-12.54968423 36.55439946 -10.49447643 36.6660518 -7.06445312 37.12939453 C-7.06968994 36.04408447 -7.07492676 34.95877441 -7.08032227 33.84057617 C-7.09837149 29.82821471 -7.10988484 25.81585687 -7.11938477 21.8034668 C-7.12442517 20.06420285 -7.13125743 18.32494317 -7.13989258 16.58569336 C-7.15197104 14.09113516 -7.15768421 11.5966328 -7.16210938 9.10205078 C-7.16727066 8.31975601 -7.17243195 7.53746124 -7.17774963 6.73146057 C-7.17794538 4.86372339 -7.12645007 2.99610249 -7.06445312 1.12939453 C-5.2502943 -0.68476429 -2.43999611 0.0016888 0 0 Z " fill="#FE9B03" transform="translate(100.064453125,135.87060546875)"/>
<path d="M0 0 C1.94706848 -0.00472824 1.94706848 -0.00472824 3.93347168 -0.009552 C5.36124709 -0.00776222 6.78902219 -0.00571127 8.21679688 -0.00341797 C9.67028825 -0.00409105 11.12377952 -0.00506111 12.57727051 -0.00631714 C15.62720814 -0.00779393 18.67711654 -0.00564017 21.72705078 -0.00097656 C25.64485247 0.00472073 29.56258566 0.00144162 33.48038483 -0.00454903 C36.48285441 -0.00815515 39.48530764 -0.00701582 42.48777771 -0.00442123 C43.93273425 -0.00375211 45.37769226 -0.00457989 46.82264709 -0.00690079 C48.83879571 -0.00942812 50.8549495 -0.00489598 52.87109375 0 C54.59531555 0.00119339 54.59531555 0.00119339 56.35437012 0.00241089 C58.93554688 0.12939453 58.93554688 0.12939453 59.93554688 1.12939453 C60.03489836 3.14889662 60.06354195 5.17190368 60.06494141 7.19384766 C60.06809357 8.49189331 60.07124573 9.78993896 60.07449341 11.12731934 C60.07270363 12.55509474 60.07065268 13.98286984 60.06835938 15.41064453 C60.06903245 16.86413591 60.07000251 18.31762717 60.07125854 19.77111816 C60.07273533 22.8210558 60.07058158 25.87096419 60.06591797 28.92089844 C60.06022068 32.83870012 60.06349979 36.75643331 60.06949043 40.67423248 C60.07309656 43.67670207 60.07195722 46.6791553 60.06936264 49.68162537 C60.06869351 51.12658191 60.0695213 52.57153992 60.07184219 54.01649475 C60.07436952 56.03264336 60.06983739 58.04879715 60.06494141 60.06494141 C60.06414581 61.21442261 60.06335022 62.36390381 60.06253052 63.54821777 C59.93554688 66.12939453 59.93554688 66.12939453 58.93554688 67.12939453 C56.91604479 67.22874601 54.89303773 67.25738961 52.87109375 67.25878906 C51.5730481 67.26194122 50.27500244 67.26509338 48.93762207 67.26834106 C47.50984666 67.26655128 46.08207156 67.26450033 44.65429688 67.26220703 C43.2008055 67.26288011 41.74731423 67.26385017 40.29382324 67.2651062 C37.24388561 67.26658299 34.19397721 67.26442923 31.14404297 67.25976562 C27.22624128 67.25406834 23.30850809 67.25734744 19.39070892 67.26333809 C16.38823934 67.26694422 13.38578611 67.26580488 10.38331604 67.2632103 C8.9383595 67.26254117 7.49340149 67.26336895 6.04844666 67.26568985 C4.03229804 67.26821718 2.01614425 67.26368505 0 67.25878906 C-1.7242218 67.25759567 -1.7242218 67.25759567 -3.48327637 67.25637817 C-6.06445312 67.12939453 -6.06445312 67.12939453 -7.06445312 66.12939453 C-7.15182958 64.27569842 -7.17143466 62.41871912 -7.16210938 60.56298828 C-7.15727539 58.87592773 -7.15727539 58.87592773 -7.15234375 57.15478516 C-7.13977539 55.3787793 -7.13977539 55.3787793 -7.12695312 53.56689453 C-7.12244141 52.37902344 -7.11792969 51.19115234 -7.11328125 49.96728516 C-7.10144987 47.02127227 -7.08496599 44.07535772 -7.06445312 41.12939453 C-8.90523437 41.23767578 -8.90523437 41.23767578 -10.78320312 41.34814453 C-13.84429391 41.34814453 -14.89762883 41.23031293 -17.59570312 39.59814453 C-18.24539062 38.94845703 -18.89507812 38.29876953 -19.56445312 37.62939453 C-20.23476562 36.97970703 -20.90507813 36.33001953 -21.59570312 35.66064453 C-22.08039063 35.15533203 -22.56507812 34.65001953 -23.06445312 34.12939453 C-23.30228516 35.05945313 -23.30228516 35.05945313 -23.54492188 36.00830078 C-25.69664272 44.17532962 -28.33708238 52.1413245 -31.06445312 60.12939453 C-32.38445312 59.79939453 -33.70445313 59.46939453 -35.06445312 59.12939453 C-35.90655644 55.30783668 -36.74246338 51.48497784 -37.57299805 47.66088867 C-37.9934167 45.73107853 -38.4185351 43.80229417 -38.84375 41.87353516 C-40.27034434 35.29057575 -41.48739014 28.84231713 -42.06445312 22.12939453 C-42.72445312 22.12939453 -43.38445313 22.12939453 -44.06445312 22.12939453 C-44.16242187 22.73783203 -44.26039062 23.34626953 -44.36132812 23.97314453 C-45.38005785 29.94500846 -46.66081204 35.81672519 -48.12695312 41.69189453 C-48.30129883 42.39443359 -48.47564453 43.09697266 -48.65527344 43.82080078 C-49.93490873 48.87030573 -49.93490873 48.87030573 -51.06445312 51.12939453 C-54.34939748 50.13507281 -55.56309252 48.58740243 -57.13476562 45.68798828 C-57.83126952 44.32013939 -58.51583072 42.94615561 -59.18945312 41.56689453 C-61.27234679 36.57552441 -61.27234679 36.57552441 -65.06445312 33.12939453 C-65.31195313 33.70689453 -65.55945313 34.28439453 -65.81445312 34.87939453 C-67.30547868 37.56324053 -68.67076721 39.18856812 -71.06445312 41.12939453 C-74.08007812 41.52001953 -74.08007812 41.52001953 -77.31445312 41.37939453 C-78.39210938 41.34330078 -79.46976563 41.30720703 -80.58007812 41.27001953 C-81.39992188 41.22361328 -82.21976563 41.17720703 -83.06445312 41.12939453 C-83.39445312 39.80939453 -83.72445312 38.48939453 -84.06445312 37.12939453 C-83.37480469 37.16162109 -82.68515625 37.19384766 -81.97460938 37.22705078 C-77.31418233 37.16951464 -74.18384112 37.01093337 -70.43554688 34.05908203 C-68.89124756 32.43591406 -67.38914977 30.77117863 -65.93945312 29.06298828 C-65.32070312 28.42490234 -64.70195313 27.78681641 -64.06445312 27.12939453 C-63.07445313 27.12939453 -62.08445312 27.12939453 -61.06445312 27.12939453 C-57.59945312 33.56439453 -57.59945312 33.56439453 -54.06445312 40.12939453 C-51.69947319 33.6256997 -50.04914417 27.09084594 -48.59863281 20.3347168 C-47.55396795 15.64075424 -46.082351 11.49768483 -44.06445312 7.12939453 C-43.07445312 7.12939453 -42.08445313 7.12939453 -41.06445312 7.12939453 C-37.726598 20.35653321 -35.28376153 33.67260731 -33.06445312 47.12939453 C-32.40445313 47.12939453 -31.74445313 47.12939453 -31.06445312 47.12939453 C-30.81695312 45.87126953 -30.56945312 44.61314453 -30.31445312 43.31689453 C-29.08611511 37.72706644 -27.11757937 32.46154279 -25.06445312 27.12939453 C-20.30119541 27.80683563 -18.30756499 30.8618993 -15.25976562 34.31689453 C-12.54968423 36.55439946 -10.49447643 36.6660518 -7.06445312 37.12939453 C-7.06968994 36.04408447 -7.07492676 34.95877441 -7.08032227 33.84057617 C-7.09837149 29.82821471 -7.10988484 25.81585687 -7.11938477 21.8034668 C-7.12442517 20.06420285 -7.13125743 18.32494317 -7.13989258 16.58569336 C-7.15197104 14.09113516 -7.15768421 11.5966328 -7.16210938 9.10205078 C-7.16727066 8.31975601 -7.17243195 7.53746124 -7.17774963 6.73146057 C-7.17794538 4.86372339 -7.12645007 2.99610249 -7.06445312 1.12939453 C-5.2502943 -0.68476429 -2.43999611 0.0016888 0 0 Z " fill="#FF011C" transform="translate(100.064453125,135.87060546875)"/>
<path d="M0 0 C1.875 0.125 1.875 0.125 4 1 C6.36384195 6.98684372 7.42789805 13.33782772 8.71435547 19.62304688 C9.12551734 21.6275221 9.5448104 23.63017975 9.96484375 25.6328125 C10.35736328 27.53546875 10.35736328 27.53546875 10.7578125 29.4765625 C10.9964502 30.63236816 11.23508789 31.78817383 11.48095703 32.97900391 C12 36 12 36 12 40 C12.66 40 13.32 40 14 40 C14.0825 39.0925 14.165 38.185 14.25 37.25 C15.0268887 31.62625347 17.11803229 26.33078295 19 21 C20.65 20.67 22.3 20.34 24 20 C24.49371094 20.56589844 24.98742187 21.13179687 25.49609375 21.71484375 C26.13675781 22.44832031 26.77742188 23.18179688 27.4375 23.9375 C28.07558594 24.66839844 28.71367187 25.39929688 29.37109375 26.15234375 C32.13204295 29.28406791 33.31407059 29.22067235 37.5625 29.5625 C38.57441406 29.64628906 39.58632813 29.73007813 40.62890625 29.81640625 C41.80259766 29.90728516 41.80259766 29.90728516 43 30 C42.67 31.32 42.34 32.64 42 34 C31.77578475 35.0735426 31.77578475 35.0735426 27.421875 32.44140625 C25.48594275 30.71090566 23.70064614 28.96074496 22 27 C21.86859619 27.72018311 21.73719238 28.44036621 21.60180664 29.18237305 C21.02064848 31.90332492 20.26012971 34.44725195 19.37109375 37.08203125 C18.90219727 38.47905273 18.90219727 38.47905273 18.42382812 39.90429688 C18.09833984 40.86400391 17.77285156 41.82371094 17.4375 42.8125 C17.10814453 43.79154297 16.77878906 44.77058594 16.43945312 45.77929688 C15.62901285 48.18712669 14.81577946 50.59397496 14 53 C12.68 53 11.36 53 10 53 C9.85900879 52.34515625 9.71801758 51.6903125 9.57275391 51.015625 C8.92485194 48.01012398 8.27494026 45.00506087 7.625 42 C7.40328125 40.97003906 7.1815625 39.94007813 6.953125 38.87890625 C5.98302411 34.39932275 5.00285694 29.93484396 3.84375 25.5 C2.94482369 21.77112049 2.84138655 18.80672287 3 15 C2.34 15 1.68 15 1 15 C0.90203125 15.6084375 0.8040625 16.216875 0.703125 16.84375 C-0.31560473 22.81561393 -1.59635891 28.68733066 -3.0625 34.5625 C-3.2368457 35.26503906 -3.41119141 35.96757812 -3.59082031 36.69140625 C-4.8704556 41.7409112 -4.8704556 41.7409112 -6 44 C-7.87060547 43.72265625 -7.87060547 43.72265625 -10 43 C-11.15673828 41.43359375 -11.15673828 41.43359375 -12.0703125 39.4375 C-12.40933594 38.72335938 -12.74835938 38.00921875 -13.09765625 37.2734375 C-13.43667969 36.52320313 -13.77570313 35.77296875 -14.125 35 C-16.13213406 29.68075388 -16.13213406 29.68075388 -20 26 C-20.2475 26.5775 -20.495 27.155 -20.75 27.75 C-22.29933902 30.53881023 -23.38174533 32.12022742 -26 34 C-29.02941893 34.33485805 -31.96544826 34.23342706 -35 34 C-35 32.68 -35 31.36 -35 30 C-34.01 30.020625 -33.02 30.04125 -32 30.0625 C-27.91783286 29.55842673 -26.40725818 27.48014548 -23.875 24.375 C-23.25367188 23.53710938 -22.63234375 22.69921875 -21.9921875 21.8359375 C-20 20 -20 20 -17.46484375 19.84765625 C-13.94816479 21.49174546 -13.26715383 23.57256712 -11.6875 27.0625 C-10.91986328 28.71958984 -10.91986328 28.71958984 -10.13671875 30.41015625 C-9.76160156 31.26480469 -9.38648438 32.11945313 -9 33 C-6.2495986 24.71953621 -4.10672732 16.44944055 -2.30761719 7.91845703 C-1.09123198 2.18246397 -1.09123198 2.18246397 0 0 Z " fill="#696968" transform="translate(336,143)"/>
<path d="M0 0 C0.99 0 1.98 0 3 0 C6.33785513 13.22713867 8.78069159 26.54321278 11 40 C11.66 40 12.32 40 13 40 C13.2475 38.741875 13.495 37.48375 13.75 36.1875 C14.97833802 30.59767191 16.94687375 25.33214826 19 20 C22.8398383 20.54611034 24.34324837 22.15305038 26.875 25 C29.58228577 27.83910119 30.64404282 28.89829795 34.5 30 C35.325 30 36.15 30 37 30 C37 31.32 37 32.64 37 34 C30.25158562 34.8435518 30.25158562 34.8435518 26.6875 32.44140625 C24.71393169 30.68986437 22.82629022 28.9040047 21 27 C20.84144531 27.62003906 20.68289062 28.24007812 20.51953125 28.87890625 C18.36781041 37.04593509 15.72737074 45.01192996 13 53 C11.68 52.67 10.36 52.34 9 52 C8.15789669 48.17844214 7.32198974 44.35558331 6.49145508 40.53149414 C6.07103643 38.601684 5.64591803 36.67289963 5.22070312 34.74414062 C3.79410879 28.16118122 2.57706299 21.7129226 2 15 C1.34 15 0.68 15 0 15 C-0.09796875 15.6084375 -0.1959375 16.216875 -0.296875 16.84375 C-1.31560473 22.81561393 -2.59635891 28.68733066 -4.0625 34.5625 C-4.2368457 35.26503906 -4.41119141 35.96757812 -4.59082031 36.69140625 C-5.8704556 41.7409112 -5.8704556 41.7409112 -7 44 C-10.28494436 43.00567828 -11.49863939 41.4580079 -13.0703125 38.55859375 C-13.76681639 37.19074486 -14.4513776 35.81676108 -15.125 34.4375 C-17.20789367 29.44612987 -17.20789367 29.44612987 -21 26 C-21.2475 26.5775 -21.495 27.155 -21.75 27.75 C-23.24102556 30.433846 -24.60631409 32.05917359 -27 34 C-30.015625 34.390625 -30.015625 34.390625 -33.25 34.25 C-34.32765625 34.21390625 -35.4053125 34.1778125 -36.515625 34.140625 C-37.33546875 34.09421875 -38.1553125 34.0478125 -39 34 C-39.33 32.68 -39.66 31.36 -40 30 C-39.31035156 30.03222656 -38.62070312 30.06445312 -37.91015625 30.09765625 C-33.24972921 30.04012011 -30.119388 29.88153884 -26.37109375 26.9296875 C-24.82679444 25.30651952 -23.32469665 23.6417841 -21.875 21.93359375 C-21.25625 21.29550781 -20.6375 20.65742188 -20 20 C-19.01 20 -18.02 20 -17 20 C-13.535 26.435 -13.535 26.435 -10 33 C-7.63502006 26.49630517 -5.98469104 19.9614514 -4.53417969 13.20532227 C-3.48951483 8.51135971 -2.01789788 4.3682903 0 0 Z " fill="#6A6A68" transform="translate(56,143)"/>
<path d="M0 0 C1.32 0.33 2.64 0.66 4 1 C5.00482861 5.5881574 6.001465 10.17799135 6.99072266 14.76953125 C7.32802238 16.32958288 7.66751193 17.88916278 8.00927734 19.44824219 C8.50161201 21.69604421 8.98591097 23.94545414 9.46875 26.1953125 C9.62186646 26.8861795 9.77498291 27.57704651 9.93273926 28.28884888 C10.77565711 32.25987874 11.15454653 35.94315358 11 40 C15.22127242 36.89216466 15.77677996 31.4333436 17.01757812 26.62890625 C17.62109375 24.4921875 17.62109375 24.4921875 19 21 C20.94970703 20.16699219 20.94970703 20.16699219 23 20 C25.18359375 21.8359375 25.18359375 21.8359375 27.4375 24.375 C30.52575493 27.84458728 32.29681836 29.55207794 37 30 C37 31.32 37 32.64 37 34 C30.9416945 34.72699666 30.9416945 34.72699666 28.26953125 32.6640625 C27.2352418 31.57614322 26.23051421 30.45912914 25.26171875 29.3125 C24.84535156 28.879375 24.42898437 28.44625 24 28 C23.34 28 22.68 28 22 28 C21.77860352 28.72179443 21.55720703 29.44358887 21.32910156 30.18725586 C20.31991559 33.44295701 19.2853701 36.69003597 18.25 39.9375 C17.72792969 41.64196289 17.72792969 41.64196289 17.1953125 43.38085938 C16.67324219 45.00024414 16.67324219 45.00024414 16.140625 46.65234375 C15.82641602 47.65257568 15.51220703 48.65280762 15.18847656 49.68334961 C14 52 14 52 11.86621094 52.83422852 C11.25036133 52.88893311 10.63451172 52.9436377 10 53 C7.8226856 44.63139133 5.97058003 36.23576306 4.3125 27.75 C4.08755859 26.61175781 3.86261719 25.47351563 3.63085938 24.30078125 C3.08455158 21.53437156 2.5409705 18.76745741 2 16 C0.09049885 18.86425173 -0.4912314 20.47068668 -1.21875 23.74609375 C-1.42886719 24.66583984 -1.63898438 25.58558594 -1.85546875 26.53320312 C-2.06816406 27.49162109 -2.28085938 28.45003906 -2.5 29.4375 C-2.92237897 31.33308562 -3.34929944 33.22766629 -3.78125 35.12109375 C-3.96751953 35.9608374 -4.15378906 36.80058105 -4.34570312 37.66577148 C-4.9911965 39.96859318 -5.85809518 41.90479779 -7 44 C-11.30130966 42.56623011 -12.23625005 39.38384483 -14.1875 35.5625 C-14.55552734 34.86833984 -14.92355469 34.17417969 -15.30273438 33.45898438 C-18 28.28964228 -18 28.28964228 -18 26 C-18.94875 26.763125 -19.8975 27.52625 -20.875 28.3125 C-21.40867188 28.74175781 -21.94234375 29.17101562 -22.4921875 29.61328125 C-24.25292107 31.12270545 -24.25292107 31.12270545 -26 34 C-28.3828125 34.29296875 -28.3828125 34.29296875 -31.125 34.1875 C-32.49011719 34.14689453 -32.49011719 34.14689453 -33.8828125 34.10546875 C-34.58148438 34.07066406 -35.28015625 34.03585938 -36 34 C-36 32.68 -36 31.36 -36 30 C-34.845 30.020625 -33.69 30.04125 -32.5 30.0625 C-27.10160046 29.46482005 -24.73397909 25.95861653 -21.46875 21.93359375 C-20.9840625 21.29550781 -20.499375 20.65742188 -20 20 C-18.203125 20.16015625 -18.203125 20.16015625 -16 21 C-14.296875 23.43359375 -14.296875 23.43359375 -12.75 26.4375 C-12.22921875 27.42621094 -11.7084375 28.41492188 -11.171875 29.43359375 C-10 32 -10 32 -10 34 C-9.34 34 -8.68 34 -8 34 C-7.82984375 33.01902344 -7.6596875 32.03804687 -7.484375 31.02734375 C-5.61432146 20.51911164 -3.38073497 10.14220492 0 0 Z " fill="#696968" transform="translate(196,143)"/>
<path d="M0 0 C3.0625 0.3125 3.0625 0.3125 4.9375 1.625 C6.0625 3.3125 6.0625 3.3125 6.0625 6.3125 C6.825625 6.250625 7.58875 6.18875 8.375 6.125 C11.0625 6.3125 11.0625 6.3125 12.70996094 7.57568359 C15.05112691 10.58201116 14.40878563 14.29068174 14.3125 17.9375 C14.30734375 18.72640625 14.3021875 19.5153125 14.296875 20.328125 C14.21673563 26.15826437 14.21673563 26.15826437 13.0625 27.3125 C11.15965013 27.41224389 9.25311747 27.4433063 7.34765625 27.4453125 C6.18685547 27.44660156 5.02605469 27.44789063 3.83007812 27.44921875 C2.60740234 27.44535156 1.38472656 27.44148438 0.125 27.4375 C-1.09380859 27.44136719 -2.31261719 27.44523437 -3.56835938 27.44921875 C-5.31149414 27.44728516 -5.31149414 27.44728516 -7.08984375 27.4453125 C-8.16226318 27.44418457 -9.23468262 27.44305664 -10.33959961 27.44189453 C-12.9375 27.3125 -12.9375 27.3125 -14.9375 26.3125 C-14.82251733 24.10362243 -14.69506495 21.89539213 -14.5625 19.6875 C-14.49289063 18.45773438 -14.42328125 17.22796875 -14.3515625 15.9609375 C-13.9560513 12.47596145 -13.17488151 9.58200399 -11.9375 6.3125 C-9.9575 6.3125 -7.9775 6.3125 -5.9375 6.3125 C-5.81375 5.69375 -5.69 5.075 -5.5625 4.4375 C-4.5547783 1.01124621 -3.5238816 0.37488102 0 0 Z " fill="#FDFAF5" transform="translate(266.9375,155.6875)"/>
<path d="M0 0 C0.99 0.33 1.98 0.66 3 1 C3 1.66 3 2.32 3 3 C5.88253469 4.08452065 5.88253469 4.08452065 8.5625 4.25 C9.366875 4.4975 10.17125 4.745 11 5 C12.1875 7.5 12.1875 7.5 13 10 C13.66 10.33 14.32 10.66 15 11 C15 11.66 15 12.32 15 13 C15.66 13.33 16.32 13.66 17 14 C17.8125 15.8125 17.8125 15.8125 18 18 C16.52689113 20.78253897 15.32244059 21.83877971 12.5 23.25 C10 24 10 24 7 24 C7 24.66 7 25.32 7 26 C0.25 26.125 0.25 26.125 -2 25 C-2.05786668 21.20839703 -2.09355054 17.41690689 -2.125 13.625 C-2.14175781 12.54476563 -2.15851563 11.46453125 -2.17578125 10.3515625 C-2.18222656 9.3203125 -2.18867187 8.2890625 -2.1953125 7.2265625 C-2.20578613 6.27346191 -2.21625977 5.32036133 -2.22705078 4.33837891 C-2 2 -2 2 0 0 Z " fill="#F9F4B0" transform="translate(2,17)"/>
<path d="M0 0 C0.99 0.33 1.98 0.66 3 1 C2.34 1.66 1.68 2.32 1 3 C1.30092586 5.26427415 1.30092586 5.26427415 2 8 C2.37541175 10.66245968 2.68318163 13.32967372 3 16 C2.34 16.33 1.68 16.66 1 17 C1.33 17.99 1.66 18.98 2 20 C1.01 20.33 0.02 20.66 -1 21 C-1.8458523 22.99920291 -1.8458523 22.99920291 -2.25 25.375 C-2.42015625 26.16648437 -2.5903125 26.95796875 -2.765625 27.7734375 C-3.17317222 30.17015491 -3.17317222 30.17015491 -2 33 C-2.66 33 -3.32 33 -4 33 C-3.34 34.32 -2.68 35.64 -2 37 C-3.98 37.495 -3.98 37.495 -6 38 C-9 33.25 -9 33.25 -9 31 C-9.5775 30.7525 -10.155 30.505 -10.75 30.25 C-13.3002997 28.83316683 -15.01785701 27.12372463 -17 25 C-17 25.99 -17 26.98 -17 28 C-18.32 27.34 -19.64 26.68 -21 26 C-21 25.01 -21 24.02 -21 23 C-19.515 23.99 -19.515 23.99 -18 25 C-18 23.35 -18 21.7 -18 20 C-14.63983107 21.12005631 -13.30935087 22.37211797 -11 25 C-11 25.66 -11 26.32 -11 27 C-10.34 27 -9.68 27 -9 27 C-9.33 25.35 -9.66 23.7 -10 22 C-9.34 22 -8.68 22 -8 22 C-8.33 21.01 -8.66 20.02 -9 19 C-8.625 16.625 -8.625 16.625 -8 14 C-7.814375 13.071875 -7.62875 12.14375 -7.4375 11.1875 C-7.293125 10.465625 -7.14875 9.74375 -7 9 C-7.66 8.67 -8.32 8.34 -9 8 C-6 6 -6 6 -4 6 C-4.99 5.34 -5.98 4.68 -7 4 C-6.67 3.01 -6.34 2.02 -6 1 C-3.03 1.495 -3.03 1.495 0 2 C0 1.34 0 0.68 0 0 Z " fill="#F1DDDE" transform="translate(46,336)"/>
<path d="M0 0 C2.4375 1 2.4375 1 4 2 C4.66 1.34 5.32 0.68 6 0 C10.0608573 -0.45971969 12.33438682 -0.36821155 15.9375 1.625 C18.54438019 4.62686204 18.17437155 6.14269005 18 10 C17.01257813 10.06058594 16.02515625 10.12117187 15.0078125 10.18359375 C13.72648437 10.26738281 12.44515625 10.35117188 11.125 10.4375 C9.84882813 10.51871094 8.57265625 10.59992188 7.2578125 10.68359375 C4.11699848 10.79206027 4.11699848 10.79206027 2 12 C1.319375 10.2984375 1.319375 10.2984375 0.625 8.5625 C-0.57095806 4.95278308 -0.57095806 4.95278308 -3 4 C-3.66 5.98 -4.32 7.96 -5 10 C-6.98 10 -8.96 10 -11 10 C-11.31785906 6.50355037 -11.39644605 4.602598 -9.4375 1.625 C-6.10803184 -0.59464544 -3.93006023 -0.42107788 0 0 Z " fill="#FDF6F7" transform="translate(123,158)"/>
<path d="M0 0 C2 3 2 3 3 5.625 C3.76047262 8.15139938 3.76047262 8.15139938 6 9 C6.33 7.35 6.66 5.7 7 4 C10.96 4 14.92 4 19 4 C19.33 4.99 19.66 5.98 20 7 C19.154375 7.185625 18.30875 7.37125 17.4375 7.5625 C13.41394824 9.24507619 11.50063944 11.36896929 8.7109375 14.63671875 C7 16 7 16 5.00390625 15.92578125 C2.58994704 14.81056033 1.32326935 13.48442366 -0.4375 11.5 C-3.15011573 8.6412304 -4.8873865 7.12462465 -9 7 C-9 6.01 -9 5.02 -9 4 C-6.36 4 -3.72 4 -1 4 C-0.67 2.68 -0.34 1.36 0 0 Z " fill="#FDEBED" transform="translate(121,166)"/>
<path d="M0 0 C1.97986082 0.11347619 3.95891598 0.2410935 5.9375 0.375 C7.03964844 0.44460938 8.14179688 0.51421875 9.27734375 0.5859375 C10.62505859 0.79089844 10.62505859 0.79089844 12 1 C12.33 1.66 12.66 2.32 13 3 C14.32 3 15.64 3 17 3 C16.67 4.32 16.34 5.64 16 7 C17.32 7 18.64 7 20 7 C20.99 7 21.98 7 23 7 C23 7.66 23 8.32 23 9 C19.71609035 10.95470812 17.67768381 12.02657584 13.8125 11.875 C10.98536049 10.99544549 9.79883885 10.29851631 8 8 C8 8.66 8 9.32 8 10 C5.03 9.505 5.03 9.505 2 9 C2.33 7.02 2.66 5.04 3 3 C2.01 2.67 1.02 2.34 0 2 C0 1.34 0 0.68 0 0 Z " fill="#E4E7F5" transform="translate(263,295)"/>
<path d="M0 0 C0.99 0.33 1.98 0.66 3 1 C4.1875 4.5625 4.1875 4.5625 5 8 C5.99 7.67 6.98 7.34 8 7 C7.34 6.67 6.68 6.34 6 6 C6.33 4.68 6.66 3.36 7 2 C9.12493141 1.97306425 11.24995912 1.95363372 13.375 1.9375 C14.55835937 1.92589844 15.74171875 1.91429687 16.9609375 1.90234375 C20 2 20 2 22 3 C23.32860925 3.35169068 24.66158328 3.68770276 26 4 C26 5.65 26 7.3 26 9 C25.01 8.67 24.02 8.34 23 8 C23.33 7.67 23.66 7.34 24 7 C21.03 6.505 21.03 6.505 18 6 C18 6.66 18 7.32 18 8 C18.99 7.67 19.98 7.34 21 7 C21 7.66 21 8.32 21 9 C15.39 9 9.78 9 4 9 C4 8.34 4 7.68 4 7 C2.35 7 0.7 7 -1 7 C-1 7.66 -1 8.32 -1 9 C-1.66 9 -2.32 9 -3 9 C-2.01 6.03 -1.02 3.06 0 0 Z " fill="#90928B" transform="translate(75,214)"/>
<path d="M0 0 C3.36016893 1.12005631 4.69064913 2.37211797 7 5 C7 5.66 7 6.32 7 7 C7.66 7 8.32 7 9 7 C8.67 5.35 8.34 3.7 8 2 C10.31 2.33 12.62 2.66 15 3 C16.08209949 6.24629847 15.78140875 6.87436498 15 10 C15.33 10.99 15.66 11.98 16 13 C15.34 13 14.68 13 14 13 C14.66 14.32 15.32 15.64 16 17 C14.68 17.33 13.36 17.66 12 18 C9 13.25 9 13.25 9 11 C8.13375 10.62875 8.13375 10.62875 7.25 10.25 C4.6997003 8.83316683 2.98214299 7.12372463 1 5 C1 5.99 1 6.98 1 8 C-0.32 7.34 -1.64 6.68 -3 6 C-3 5.01 -3 4.02 -3 3 C-1.515 3.99 -1.515 3.99 0 5 C0 3.35 0 1.7 0 0 Z " fill="#EBD0D7" transform="translate(28,356)"/>
<path d="M0 0 C3.875 1.75 3.875 1.75 5 4 C5.33 3.34 5.66 2.68 6 2 C7.875 2.25 7.875 2.25 10 3 C11.25 5.0625 11.25 5.0625 12 7 C10.6875 9.5 10.6875 9.5 8 12 C4.29998705 12.45251957 0.70986572 12.28783441 -3 12 C-3.08090971 10.37581255 -3.13914995 8.75048255 -3.1875 7.125 C-3.22230469 6.22007812 -3.25710937 5.31515625 -3.29296875 4.3828125 C-3.19628906 3.59648437 -3.09960938 2.81015625 -3 2 C-2.01 1.34 -1.02 0.68 0 0 Z " fill="#F3C3D5" transform="translate(3,388)"/>
<path d="M0 0 C4.75 -0.125 4.75 -0.125 7 1 C7 1.66 7 2.32 7 3 C7.66 3.33 8.32 3.66 9 4 C8.34 4 7.68 4 7 4 C7 5.32 7 6.64 7 8 C7.66 8.33 8.32 8.66 9 9 C3.72 9 -1.56 9 -7 9 C-7 7.35 -7 5.7 -7 4 C-7.66 4 -8.32 4 -9 4 C-9 5.65 -9 7.3 -9 9 C-9.66 9 -10.32 9 -11 9 C-11 7.02 -11 5.04 -11 3 C-7.37 3 -3.74 3 0 3 C0 2.01 0 1.02 0 0 Z " fill="#767872" transform="translate(155,214)"/>
<path d="M0 0 C5.94 0 11.88 0 18 0 C18 3.96 18 7.92 18 12 C17.34 12 16.68 12 16 12 C16 11.01 16 10.02 16 9 C15.34 9 14.68 9 14 9 C13.67 8.34 13.34 7.68 13 7 C12.01 7.495 12.01 7.495 11 8 C11 7.34 11 6.68 11 6 C10.01 5.67 9.02 5.34 8 5 C8 4.34 8 3.68 8 3 C6.68 3.33 5.36 3.66 4 4 C3.67 3.01 3.34 2.02 3 1 C2.01 0.67 1.02 0.34 0 0 Z " fill="#FFFFB4" transform="translate(382,0)"/>
<path d="M0 0 C0.66 0 1.32 0 2 0 C2.33 0.99 2.66 1.98 3 3 C4.66611905 3.042721 6.33382885 3.04063832 8 3 C8.33 2.67 8.66 2.34 9 2 C11.5 1.875 11.5 1.875 14 2 C15 3 15 3 15.0625 6.0625 C15.041875 7.031875 15.02125 8.00125 15 9 C14.34 9 13.68 9 13 9 C13 7.35 13 5.7 13 4 C12.34 4 11.68 4 11 4 C11 5.65 11 7.3 11 9 C7.33333333 9 3.66666667 9 0 9 C0 6.03 0 3.06 0 0 Z " fill="#7F817B" transform="translate(165,214)"/>
<path d="M0 0 C3 1 3 1 4.6875 4.0625 C5.120625 5.031875 5.55375 6.00125 6 7 C6.33 6.67 6.66 6.34 7 6 C9.35313555 5.92728259 11.70833668 5.91629132 14.0625 5.9375 C15.35285156 5.94652344 16.64320313 5.95554688 17.97265625 5.96484375 C18.97167969 5.97644531 19.97070312 5.98804688 21 6 C19 8 19 8 16.3984375 8.1953125 C15.40070313 8.17210937 14.40296875 8.14890625 13.375 8.125 C11.87066406 8.09792969 11.87066406 8.09792969 10.3359375 8.0703125 C9.56507813 8.04710937 8.79421875 8.02390625 8 8 C7.67 9.65 7.34 11.3 7 13 C6.01 12.67 5.02 12.34 4 12 C2.3125 8.4375 2.3125 8.4375 1 5 C0.67 5.99 0.34 6.98 0 8 C-2.64 7.67 -5.28 7.34 -8 7 C-8 6.67 -8 6.34 -8 6 C-6.02 6 -4.04 6 -2 6 C-1.34 4.02 -0.68 2.04 0 0 Z " fill="#FF1932" transform="translate(120,162)"/>
<path d="M0 0 C2.31243792 -0.02685412 4.6249627 -0.04632841 6.9375 -0.0625 C8.22527344 -0.07410156 9.51304688 -0.08570313 10.83984375 -0.09765625 C14 0 14 0 15 1 C15.04063832 2.66617115 15.042721 4.33388095 15 6 C14.01 6 13.02 6 12 6 C12 6.66 12 7.32 12 8 C11.34 8 10.68 8 10 8 C10 7.34 10 6.68 10 6 C8.35 6 6.7 6 5 6 C5 4.68 5 3.36 5 2 C4.34 2 3.68 2 3 2 C2.67 3.32 2.34 4.64 2 6 C1.67 5.01 1.34 4.02 1 3 C0.01 4.32 -0.98 5.64 -2 7 C-2.33 5.02 -2.66 3.04 -3 1 C-2.01 1.495 -2.01 1.495 -1 2 C-0.67 1.34 -0.34 0.68 0 0 Z " fill="#91928E" transform="translate(81,247)"/>
<path d="M0 0 C0.66 0 1.32 0 2 0 C2.33 1.32 2.66 2.64 3 4 C3 3.34 3 2.68 3 2 C4.32 2.33 5.64 2.66 7 3 C7 4.65 7 6.3 7 8 C2.71 8 -1.58 8 -6 8 C-6 6.68 -6 5.36 -6 4 C-6.66 4 -7.32 4 -8 4 C-8.33 5.32 -8.66 6.64 -9 8 C-9 6.02 -9 4.04 -9 2 C-7.6078125 2.2784375 -7.6078125 2.2784375 -6.1875 2.5625 C-2.98656229 3.24123881 -2.98656229 3.24123881 0 2 C0 1.34 0 0.68 0 0 Z " fill="#A1A39E" transform="translate(278,245)"/>
<path d="M0 0 C0.66 0 1.32 0 2 0 C2.66 1.65 3.32 3.3 4 5 C4.33 4.34 4.66 3.68 5 3 C6.65 3 8.3 3 10 3 C10.33 4.65 10.66 6.3 11 8 C9.68 8.33 8.36 8.66 7 9 C7 9.66 7 10.32 7 11 C6.34 11 5.68 11 5 11 C5 10.34 5 9.68 5 9 C4.34 9 3.68 9 3 9 C3 8.34 3 7.68 3 7 C1.02 7.66 -0.96 8.32 -3 9 C-2.5020163 5.26512223 -2.12508244 3.18762365 0 0 Z " fill="#7E807A" transform="translate(232,214)"/>
<path d="M0 0 C0.66 0 1.32 0 2 0 C2 0.99 2 1.98 2 3 C3.98 3 5.96 3 8 3 C8 4.65 8 6.3 8 8 C4.0186217 9.3271261 0.14954773 9.06915913 -4 9 C-4 7 -4 5 -4 3 C-3.01 3 -2.02 3 -1 3 C-0.67 2.01 -0.34 1.02 0 0 Z " fill="#9FA19D" transform="translate(234,257)"/>
<path d="M0 0 C1.65 0 3.3 0 5 0 C5 0.66 5 1.32 5 2 C6.65 2 8.3 2 10 2 C10 1.34 10 0.68 10 0 C10.66 0 11.32 0 12 0 C12 2.64 12 5.28 12 8 C11.34 8 10.68 8 10 8 C10 6.68 10 5.36 10 4 C9.34 4 8.68 4 8 4 C7.67 5.32 7.34 6.64 7 8 C6.34 7.67 5.68 7.34 5 7 C5.33 6.34 5.66 5.68 6 5 C5.34 4.67 4.68 4.34 4 4 C4 5.32 4 6.64 4 8 C2.68 8 1.36 8 0 8 C0 5.36 0 2.72 0 0 Z " fill="#ACAFAB" transform="translate(243,257)"/>
<path d="M0 0 C0.78375 0.04125 1.5675 0.0825 2.375 0.125 C2.705 0.785 3.035 1.445 3.375 2.125 C1.725 2.455 0.075 2.785 -1.625 3.125 C-1.955 4.445 -2.285 5.765 -2.625 7.125 C-0.645 7.125 1.335 7.125 3.375 7.125 C3.705 5.805 4.035 4.485 4.375 3.125 C6.025 3.125 7.675 3.125 9.375 3.125 C9.375 4.775 9.375 6.425 9.375 8.125 C5.31892005 9.10829211 1.54437798 9.36100253 -2.625 9.125 C-4.625 7.125 -4.625 7.125 -4.875 4.625 C-4.51649553 1.03995533 -3.59522993 0.17120143 0 0 Z " fill="#868881" transform="translate(133.625,213.875)"/>
<path d="M0 0 C1.75 1.4375 1.75 1.4375 3 3 C1.35 3.66 -0.3 4.32 -2 5 C-2.33 4.67 -2.66 4.34 -3 4 C-3.33 4.66 -3.66 5.32 -4 6 C-4.66 6 -5.32 6 -6 6 C-6.66 5.34 -7.32 4.68 -8 4 C-8 4.66 -8 5.32 -8 6 C-10.97 6 -13.94 6 -17 6 C-17 4.33333333 -17 2.66666667 -17 1 C-13.37 1 -9.74 1 -6 1 C-6 1.66 -6 2.32 -6 3 C-5.34 3 -4.68 3 -4 3 C-4 2.34 -4 1.68 -4 1 C-2.1875 0.3125 -2.1875 0.3125 0 0 Z " fill="#999B97" transform="translate(120,259)"/>
<path d="M0 0 C3.3 0 6.6 0 10 0 C9.67 1.65 9.34 3.3 9 5 C9.99 5 10.98 5 12 5 C12 5.99 12 6.98 12 8 C9.69 8 7.38 8 5 8 C5 7.34 5 6.68 5 6 C4.34 6 3.68 6 3 6 C3 4.68 3 3.36 3 2 C2.34 2 1.68 2 1 2 C0.67 3.32 0.34 4.64 0 6 C0 4.02 0 2.04 0 0 Z " fill="#A2A5A0" transform="translate(294,247)"/>
<path d="M0 0 C0.66 0 1.32 0 2 0 C2 0.99 2 1.98 2 3 C3.32 3 4.64 3 6 3 C6 4.98 6 6.96 6 9 C5.34 9 4.68 9 4 9 C4 7.35 4 5.7 4 4 C3.34 4 2.68 4 2 4 C2 5.65 2 7.3 2 9 C0.33388095 9.042721 -1.33382885 9.04063832 -3 9 C-4 8 -4 8 -4.0625 4.4375 C-4.041875 3.303125 -4.02125 2.16875 -4 1 C-2.68 1.33 -1.36 1.66 0 2 C0 1.34 0 0.68 0 0 Z " fill="#888A84" transform="translate(114,214)"/>
<path d="M0 0 C0.99 0 1.98 0 3 0 C3 1.32 3 2.64 3 4 C4.65 4 6.3 4 8 4 C8 4.99 8 5.98 8 7 C6.35 7 4.7 7 3 7 C3 8.32 3 9.64 3 11 C2.01 11 1.02 11 0 11 C0 9.68 0 8.36 0 7 C-1.32 7 -2.64 7 -4 7 C-4 6.01 -4 5.02 -4 4 C-2.68 4 -1.36 4 0 4 C0 2.68 0 1.36 0 0 Z " fill="#FEA316" transform="translate(265,167)"/>
<path d="M0 0 C0.33 0.66 0.66 1.32 1 2 C1.66 2.33 2.32 2.66 3 3 C2.34 3 1.68 3 1 3 C1 4.32 1 5.64 1 7 C1.66 7.33 2.32 7.66 3 8 C2.01 8 1.02 8 0 8 C0 6.35 0 4.7 0 3 C-0.99 3.495 -0.99 3.495 -2 4 C-2 5.32 -2 6.64 -2 8 C-3.32 8 -4.64 8 -6 8 C-5.67 7.34 -5.34 6.68 -5 6 C-6.32 5.34 -7.64 4.68 -9 4 C-9 5.32 -9 6.64 -9 8 C-9.66 8 -10.32 8 -11 8 C-11 5.69 -11 3.38 -11 1 C-10.28972656 1.01160156 -9.57945312 1.02320313 -8.84765625 1.03515625 C-7.92855469 1.04417969 -7.00945312 1.05320313 -6.0625 1.0625 C-4.68771484 1.07990234 -4.68771484 1.07990234 -3.28515625 1.09765625 C-1.03406673 1.25949049 -1.03406673 1.25949049 0 0 Z " fill="#60605E" transform="translate(282,215)"/>
<path d="M0 0 C0.66 0 1.32 0 2 0 C2.33 0.66 2.66 1.32 3 2 C3.66 2.33 4.32 2.66 5 3 C4.01 4.485 4.01 4.485 3 6 C3.66 6 4.32 6 5 6 C5 6.66 5 7.32 5 8 C2.03 8 -0.94 8 -4 8 C-4.33 6.35 -4.66 4.7 -5 3 C-3.35 2.67 -1.7 2.34 0 2 C0 1.34 0 0.68 0 0 Z " fill="#B9BCB4" transform="translate(103,233)"/>
<path d="M0 0 C2.05078125 0.03255208 4.1015625 0.06510417 6.15234375 0.09765625 C7.15234375 3.09765625 7.15234375 3.09765625 6.15234375 6.09765625 C5.19328125 5.85015625 5.19328125 5.85015625 4.21484375 5.59765625 C2.34407554 5.05838958 2.34407554 5.05838958 1.15234375 5.09765625 C1.15234375 6.08765625 1.15234375 7.07765625 1.15234375 8.09765625 C-0.16765625 8.09765625 -1.48765625 8.09765625 -2.84765625 8.09765625 C-2.89007348 5.7647085 -2.88858562 3.43063058 -2.84765625 1.09765625 C-1.84765625 0.09765625 -1.84765625 0.09765625 0 0 Z " fill="#949691" transform="translate(146.84765625,271.90234375)"/>
<path d="M0 0 C0.66 0 1.32 0 2 0 C2 2.97 2 5.94 2 9 C-0.33333333 9 -2.66666667 9 -5 9 C-5.33 9.66 -5.66 10.32 -6 11 C-6 8.36 -6 5.72 -6 3 C-4.35 3 -2.7 3 -1 3 C-0.67 2.01 -0.34 1.02 0 0 Z " fill="#777974" transform="translate(250,214)"/>
<path d="M0 0 C7.42857143 -0.14285714 7.42857143 -0.14285714 11 1 C10.67 1.66 10.34 2.32 10 3 C10.66 3 11.32 3 12 3 C11.67 3.99 11.34 4.98 11 6 C8.36 6 5.72 6 3 6 C3 4.68 3 3.36 3 2 C2.34 2 1.68 2 1 2 C0.67 3.32 0.34 4.64 0 6 C0 4.02 0 2.04 0 0 Z " fill="#999B97" transform="translate(107,247)"/>
<path d="M0 0 C0.33 0 0.66 0 1 0 C1 2.64 1 5.28 1 8 C0.195625 7.814375 -0.60875 7.62875 -1.4375 7.4375 C-2.283125 7.293125 -3.12875 7.14875 -4 7 C-4.33 7.33 -4.66 7.66 -5 8 C-7.0625 7.5625 -7.0625 7.5625 -9 7 C-8.67 5.35 -8.34 3.7 -8 2 C-6.8553125 2.2784375 -6.8553125 2.2784375 -5.6875 2.5625 C-2.91032625 3.22819173 -2.91032625 3.22819173 0 2 C0 1.34 0 0.68 0 0 Z " fill="#999B97" transform="translate(282,270)"/>
<path d="M0 0 C0.66 0.33 1.32 0.66 2 1 C2 3.31 2 5.62 2 8 C1.34 8 0.68 8 0 8 C-0.33 8.66 -0.66 9.32 -1 10 C-2.65 9.67 -4.3 9.34 -6 9 C-5.34 6.69 -4.68 4.38 -4 2 C-2.68 2 -1.36 2 0 2 C0 1.34 0 0.68 0 0 Z " fill="#9D9F9A" transform="translate(291,245)"/>
<path d="M0 0 C1.70840281 1.63412443 2.93453047 2.86906094 4 5 C4.33 4.34 4.66 3.68 5 3 C5.66 3 6.32 3 7 3 C7 4.98 7 6.96 7 9 C5.68 9 4.36 9 3 9 C3 8.34 3 7.68 3 7 C1.35 7 -0.3 7 -2 7 C-2.33 7.66 -2.66 8.32 -3 9 C-2.5020163 5.26512223 -2.12508244 3.18762365 0 0 Z " fill="#6B6C69" transform="translate(291,214)"/>
<path d="M0 0 C2.97 0.495 2.97 0.495 6 1 C6 1.66 6 2.32 6 3 C6.66 3.33 7.32 3.66 8 4 C7.34 4 6.68 4 6 4 C6 5.32 6 6.64 6 8 C6.66 8.33 7.32 8.66 8 9 C5.69 9 3.38 9 1 9 C0.67 6.03 0.34 3.06 0 0 Z " fill="#8E9088" transform="translate(156,214)"/>
<path d="M0 0 C3.3 0 6.6 0 10 0 C10 2.33333333 10 4.66666667 10 7 C8.35 7 6.7 7 5 7 C5 6.34 5 5.68 5 5 C4.34 5 3.68 5 3 5 C3 3.68 3 2.36 3 1 C2.34 1 1.68 1 1 1 C0.67 2.32 0.34 3.64 0 5 C0 3.35 0 1.7 0 0 Z " fill="#949692" transform="translate(256,260)"/>
<path d="M0 0 C2.31 0 4.62 0 7 0 C7 2.31 7 4.62 7 7 C5.1875 7.625 5.1875 7.625 3 8 C2.01 7.34 1.02 6.68 0 6 C-0.1875 2.875 -0.1875 2.875 0 0 Z " fill="#9EA099" transform="translate(137,235)"/>
<path d="M0 0 C2.875 -0.1875 2.875 -0.1875 6 0 C6.66 0.99 7.32 1.98 8 3 C7.67 3.99 7.34 4.98 7 6 C4.36 6 1.72 6 -1 6 C-0.67 4.02 -0.34 2.04 0 0 Z " fill="#FCF6ED" transform="translate(264,156)"/>
<path d="M0 0 C1.81242052 -0.02687279 3.62495233 -0.04633715 5.4375 -0.0625 C6.44683594 -0.07410156 7.45617187 -0.08570313 8.49609375 -0.09765625 C11 0 11 0 12 1 C12.04063832 2.66617115 12.042721 4.33388095 12 6 C10.35 6 8.7 6 7 6 C7 4.68 7 3.36 7 2 C6.34 2 5.68 2 5 2 C4.67 3.32 4.34 4.64 4 6 C3.67 4.68 3.34 3.36 3 2 C2.34 2 1.68 2 1 2 C0.67 3.32 0.34 4.64 0 6 C0 4.02 0 2.04 0 0 Z " fill="#989A95" transform="translate(154,247)"/>
<path d="M0 0 C0.66 0 1.32 0 2 0 C2 0.99 2 1.98 2 3 C2.99 3 3.98 3 5 3 C5 4.65 5 6.3 5 8 C4.67 6.68 4.34 5.36 4 4 C3.34 4 2.68 4 2 4 C2 5.32 2 6.64 2 8 C0.0625 8.5625 0.0625 8.5625 -2 9 C-3 8 -3 8 -3.0625 4.9375 C-3.041875 3.968125 -3.02125 2.99875 -3 2 C-2.01 2 -1.02 2 0 2 C0 1.34 0 0.68 0 0 Z " fill="#9FA19D" transform="translate(156,257)"/>
<path d="M0 0 C1.65 0.33 3.3 0.66 5 1 C6 4 6 4 6 8 C5.34 8 4.68 8 4 8 C4 6.68 4 5.36 4 4 C3.34 4 2.68 4 2 4 C1.67 5.32 1.34 6.64 1 8 C0.67 6.68 0.34 5.36 0 4 C-0.66 4 -1.32 4 -2 4 C-2 5.32 -2 6.64 -2 8 C-3.98 8 -5.96 8 -8 8 C-7.38125 7.7525 -6.7625 7.505 -6.125 7.25 C-3.64931313 5.79371361 -3.04874998 4.62187494 -2 2 C-1.34 2 -0.68 2 0 2 C0 1.34 0 0.68 0 0 Z " fill="#9C9E9A" transform="translate(127,257)"/>
<path d="M0 0 C2.64 0 5.28 0 8 0 C8 2.97 8 5.94 8 9 C7.34 9 6.68 9 6 9 C6 6.69 6 4.38 6 2 C4.68 2 3.36 2 2 2 C2 2.66 2 3.32 2 4 C2.99 4.33 3.98 4.66 5 5 C3.68 5 2.36 5 1 5 C0.67 6.32 0.34 7.64 0 9 C0 6.03 0 3.06 0 0 Z " fill="#6F706C" transform="translate(262,214)"/>
<path d="M0 0 C0.66 0 1.32 0 2 0 C2 2.97 2 5.94 2 9 C0.35 9 -1.3 9 -3 9 C-3.33 7.35 -3.66 5.7 -4 4 C-2.68 3.34 -1.36 2.68 0 2 C0 1.34 0 0.68 0 0 Z " fill="#81837D" transform="translate(303,214)"/>
<path d="M0 0 C0.99 0.33 1.98 0.66 3 1 C4.1875 4.5625 4.1875 4.5625 5 8 C6.32 8.33 7.64 8.66 9 9 C7.35 9 5.7 9 4 9 C4 8.34 4 7.68 4 7 C2.35 7 0.7 7 -1 7 C-1 7.66 -1 8.32 -1 9 C-1.66 9 -2.32 9 -3 9 C-2.01 6.03 -1.02 3.06 0 0 Z " fill="#737470" transform="translate(75,214)"/>
<path d="M0 0 C5.875 3.75 5.875 3.75 7 6 C9.01669827 7.13350534 9.01669827 7.13350534 11 8 C11 8.66 11 9.32 11 10 C6.59061785 9.49607061 4.21156184 8.0379639 1 5 C-0.3125 2.75 -0.3125 2.75 -1 1 C-0.67 0.67 -0.34 0.34 0 0 Z " fill="#E1D4E0" transform="translate(117,390)"/>
<path d="M0 0 C0.66 0.33 1.32 0.66 2 1 C1.67 2.32 1.34 3.64 1 5 C-2.8063457 4.32829194 -6.35206816 3.27253436 -10 2 C-7.8653878 -2.26922441 -3.9391851 -0.83812449 0 0 Z " fill="#E4E6F5" transform="translate(261,286)"/>
<path d="M0 0 C0.33 0.99 0.66 1.98 1 3 C3.97 3 6.94 3 10 3 C10 4.65 10 6.3 10 8 C7.69 8 5.38 8 3 8 C3 6.68 3 5.36 3 4 C2.34 4 1.68 4 1 4 C0.67 5.32 0.34 6.64 0 8 C0 5.36 0 2.72 0 0 Z " fill="#8E908B" transform="translate(90,257)"/>
<path d="M0 0 C1.67542976 0.28604898 3.34385343 0.61781233 5 1 C4.67 2.32 4.34 3.64 4 5 C4.99 5.33 5.98 5.66 7 6 C6.67 6.99 6.34 7.98 6 9 C4.68 8.01 3.36 7.02 2 6 C1.67 6.66 1.34 7.32 1 8 C0.34 8 -0.32 8 -1 8 C-1.04241723 5.66705225 -1.04092937 3.33297433 -1 1 C-0.67 0.67 -0.34 0.34 0 0 Z " fill="#9A9C97" transform="translate(248,245)"/>
<path d="M0 0 C2.33294775 -0.04241723 4.66702567 -0.04092937 7 0 C8 1 8 1 8.0625 3.5625 C8.041875 4.366875 8.02125 5.17125 8 6 C5.36 6 2.72 6 0 6 C0 4.02 0 2.04 0 0 Z " fill="#9C9E98" transform="translate(83,272)"/>
<path d="M0 0 C1.33599921 0.32248257 2.66893378 0.65772583 4 1 C5.32 1 6.64 1 8 1 C8 1.66 8 2.32 8 3 C7.01 3 6.02 3 5 3 C5 3.66 5 4.32 5 5 C5.99 5.33 6.98 5.66 8 6 C6.68 6 5.36 6 4 6 C3.34 5.34 2.68 4.68 2 4 C2 4.66 2 5.32 2 6 C0.68 5.67 -0.64 5.34 -2 5 C-1.125 1.125 -1.125 1.125 0 0 Z " fill="#949691" transform="translate(258,272)"/>
<path d="M0 0 C1.67542976 0.28604898 3.34385343 0.61781233 5 1 C5 2.65 5 4.3 5 6 C4.01 6 3.02 6 2 6 C2 6.66 2 7.32 2 8 C1.34 8 0.68 8 0 8 C-0.38063221 5.6739143 -0.71269945 3.33944736 -1 1 C-0.67 0.67 -0.34 0.34 0 0 Z " fill="#A9ABA7" transform="translate(91,247)"/>
<path d="M0 0 C0.99 0.33 1.98 0.66 3 1 C2.34 1 1.68 1 1 1 C1 1.99 1 2.98 1 4 C2.65 3.34 4.3 2.68 6 2 C5.67 1.34 5.34 0.68 5 0 C6.32 0.33 7.64 0.66 9 1 C9 2.65 9 4.3 9 6 C2.9453125 6.1953125 2.9453125 6.1953125 1 6 C0.34 5.34 -0.32 4.68 -1 4 C-0.625 1.875 -0.625 1.875 0 0 Z " fill="#93958F" transform="translate(298,235)"/>
<path d="M0 0 C0.66 0 1.32 0 2 0 C4.09230769 4.43076923 4.09230769 4.43076923 3.625 7.3125 C3.41875 7.869375 3.2125 8.42625 3 9 C3 8.34 3 7.68 3 7 C1.02 7.66 -0.96 8.32 -3 9 C-2.5020163 5.26512223 -2.12508244 3.18762365 0 0 Z " fill="#797A76" transform="translate(232,214)"/>
<path d="M0 0 C0 1.98 0 3.96 0 6 C-0.99 5.67 -1.98 5.34 -3 5 C-2.67 4.67 -2.34 4.34 -2 4 C-4.97 3.505 -4.97 3.505 -8 3 C-8 3.66 -8 4.32 -8 5 C-7.01 4.67 -6.02 4.34 -5 4 C-5 4.66 -5 5.32 -5 6 C-6.65 5.67 -8.3 5.34 -10 5 C-9.625 3.0625 -9.625 3.0625 -9 1 C-6.04335481 -0.4783226 -3.25770263 -0.06032783 0 0 Z " fill="#616360" transform="translate(101,217)"/>
<path d="M0 0 C1.98 0 3.96 0 6 0 C6.33 1.65 6.66 3.3 7 5 C4.69 5.33 2.38 5.66 0 6 C0 4.02 0 2.04 0 0 Z " fill="#9EA098" transform="translate(285,235)"/>
<path d="M0 0 C0.78375 0.04125 1.5675 0.0825 2.375 0.125 C2.705 0.785 3.035 1.445 3.375 2.125 C1.725 2.455 0.075 2.785 -1.625 3.125 C-1.955 4.445 -2.285 5.765 -2.625 7.125 C-0.975 7.125 0.675 7.125 2.375 7.125 C2.375 7.785 2.375 8.445 2.375 9.125 C0 9.25 0 9.25 -2.625 9.125 C-4.625 7.125 -4.625 7.125 -4.875 4.625 C-4.51649553 1.03995533 -3.59522993 0.17120143 0 0 Z " fill="#6C6D6A" transform="translate(133.625,213.875)"/>
<path d="M0 0 C0.99 0.66 1.98 1.32 3 2 C2.67 2.66 2.34 3.32 2 4 C2.66 4.33 3.32 4.66 4 5 C3.01 5.495 3.01 5.495 2 6 C2 6.99 2 7.98 2 9 C-1.465 7.02 -1.465 7.02 -5 5 C-4.01 4.67 -3.02 4.34 -2 4 C-0.79117904 1.99983534 -0.79117904 1.99983534 0 0 Z " fill="#E8E9F2" transform="translate(149,319)"/>
<path d="M0 0 C1.134375 0.020625 2.26875 0.04125 3.4375 0.0625 C3.4375 0.7225 3.4375 1.3825 3.4375 2.0625 C2.7775 2.0625 2.1175 2.0625 1.4375 2.0625 C1.1075 3.3825 0.7775 4.7025 0.4375 6.0625 C0.1075 5.0725 -0.2225 4.0825 -0.5625 3.0625 C-0.8925 4.0525 -1.2225 5.0425 -1.5625 6.0625 C-2.8825 5.7325 -4.2025 5.4025 -5.5625 5.0625 C-4.43693182 0.07784091 -4.43693182 0.07784091 0 0 Z " fill="#989995" transform="translate(139.5625,271.9375)"/>
<path d="M0 0 C0.66 0 1.32 0 2 0 C2 2.64 2 5.28 2 8 C0.35 7.67 -1.3 7.34 -3 7 C-2.67 5.35 -2.34 3.7 -2 2 C-1.34 2 -0.68 2 0 2 C0 1.34 0 0.68 0 0 Z " fill="#9E9F9B" transform="translate(100,270)"/>
<path d="M0 0 C0.66 0 1.32 0 2 0 C2 0.66 2 1.32 2 2 C2.99 2.33 3.98 2.66 5 3 C4.67 4.65 4.34 6.3 4 8 C2.68 8 1.36 8 0 8 C0 5.36 0 2.72 0 0 Z " fill="#9EA19C" transform="translate(258,245)"/>
<path d="M0 0 C0.66 0 1.32 0 2 0 C2.66 0.99 3.32 1.98 4 3 C4.66 3 5.32 3 6 3 C5.625 4.9375 5.625 4.9375 5 7 C4.01 7.495 4.01 7.495 3 8 C3 7.34 3 6.68 3 6 C1.35 6.33 -0.3 6.66 -2 7 C-1.125 2.25 -1.125 2.25 0 0 Z " fill="#898A86" transform="translate(220,233)"/>
<path d="M0 0 C0.66 0 1.32 0 2 0 C2 2.64 2 5.28 2 8 C0.35 7.67 -1.3 7.34 -3 7 C-2.67 5.35 -2.34 3.7 -2 2 C-1.34 2 -0.68 2 0 2 C0 1.34 0 0.68 0 0 Z " fill="#A0A39A" transform="translate(171,233)"/>
<path d="M0 0 C2.31 0 4.62 0 7 0 C7 1.98 7 3.96 7 6 C5.68 6 4.36 6 3 6 C3 4.35 3 2.7 3 1 C2.34 1 1.68 1 1 1 C1 2.65 1 4.3 1 6 C0.67 6 0.34 6 0 6 C0 4.02 0 2.04 0 0 Z " fill="#989A93" transform="translate(273,235)"/>
<path d="M0 0 C0.66 0 1.32 0 2 0 C2.33 0.99 2.66 1.98 3 3 C3.99 2.67 4.98 2.34 6 2 C6 2.66 6 3.32 6 4 C5.34 4 4.68 4 4 4 C4 4.99 4 5.98 4 7 C4.66 7.33 5.32 7.66 6 8 C4.02 8 2.04 8 0 8 C0 5.36 0 2.72 0 0 Z " fill="#9C9E9A" transform="translate(103,270)"/>
<path d="M0 0 C2.31 0 4.62 0 7 0 C7 1.98 7 3.96 7 6 C5.68 6 4.36 6 3 6 C3 4.35 3 2.7 3 1 C2.34 1 1.68 1 1 1 C0.67 2.32 0.34 3.64 0 5 C0 3.35 0 1.7 0 0 Z " fill="#999B95" transform="translate(242,235)"/>
<path d="M0 0 C0.66 0 1.32 0 2 0 C2 0.99 2 1.98 2 3 C3.32 3.33 4.64 3.66 6 4 C5.34 4 4.68 4 4 4 C4 5.32 4 6.64 4 8 C2.68 8 1.36 8 0 8 C0 6.68 0 5.36 0 4 C-0.66 3.67 -1.32 3.34 -2 3 C-1.34 3 -0.68 3 0 3 C0 2.01 0 1.02 0 0 Z " fill="#9C9F98" transform="translate(228,232)"/>
<path d="M0 0 C0.33 0 0.66 0 1 0 C1 2.64 1 5.28 1 8 C-0.65 7.67 -2.3 7.34 -4 7 C-4 5.68 -4 4.36 -4 3 C-2.68 2.67 -1.36 2.34 0 2 C0 1.34 0 0.68 0 0 Z " fill="#9B9D97" transform="translate(137,245)"/>
<path d="M0 0 C1.32 0.66 2.64 1.32 4 2 C3.67 3.32 3.34 4.64 3 6 C1.68 6 0.36 6 -1 6 C-1.625 4.125 -1.625 4.125 -2 2 C-1.34 1.34 -0.68 0.68 0 0 Z " fill="#A5A7A2" transform="translate(127,247)"/>
<path d="M0 0 C1.75 1.4375 1.75 1.4375 3 3 C1.35 3.66 -0.3 4.32 -2 5 C-2.33 4.67 -2.66 4.34 -3 4 C-3.33 4.66 -3.66 5.32 -4 6 C-4.66 6 -5.32 6 -6 6 C-6.33 5.01 -6.66 4.02 -7 3 C-6.01 3 -5.02 3 -4 3 C-4 2.34 -4 1.68 -4 1 C-2.1875 0.3125 -2.1875 0.3125 0 0 Z " fill="#90928D" transform="translate(120,259)"/>
<path d="M0 0 C1.98 0.495 1.98 0.495 4 1 C3.67 2.65 3.34 4.3 3 6 C1.68 5.67 0.36 5.34 -1 5 C-0.67 3.35 -0.34 1.7 0 0 Z " fill="#A3A5A0" transform="translate(310,247)"/>
<path d="M0 0 C0 1.98 0 3.96 0 6 C-2.97 5.505 -2.97 5.505 -6 5 C-6 3.68 -6 2.36 -6 1 C-1.125 0 -1.125 0 0 0 Z " fill="#EFF3EC" transform="translate(241,246)"/>
<path d="M0 0 C1.98 0.495 1.98 0.495 4 1 C3.67 2.65 3.34 4.3 3 6 C1.68 5.67 0.36 5.34 -1 5 C-0.67 3.35 -0.34 1.7 0 0 Z " fill="#A4A6A1" transform="translate(102,247)"/>
<path d="M0 0 C2.0625 0.4375 2.0625 0.4375 4 1 C4 1.99 4 2.98 4 4 C3.67 4.33 3.34 4.66 3 5 C3.33 5.66 3.66 6.32 4 7 C2.35 6.67 0.7 6.34 -1 6 C-1.042721 4.33388095 -1.04063832 2.66617115 -1 1 C-0.67 0.67 -0.34 0.34 0 0 Z " fill="#6C6D69" transform="translate(122,216)"/>
<path d="M0 0 C0.99 0.33 1.98 0.66 3 1 C3 1.66 3 2.32 3 3 C3.99 3.33 4.98 3.66 6 4 C4.02 4.99 2.04 5.98 0 7 C-0.66 5.35 -1.32 3.7 -2 2 C-1.34 1.34 -0.68 0.68 0 0 Z " fill="#F9EEAA" transform="translate(2,17)"/>
<path d="M0 0 C2.64 0.99 5.28 1.98 8 3 C7.67 3.99 7.34 4.98 7 6 C4.0625 5.25 4.0625 5.25 1 4 C0.67 2.68 0.34 1.36 0 0 Z " fill="#E7E9F6" transform="translate(256,296)"/>
<path d="M0 0 C1.32 0 2.64 0 4 0 C4 1.65 4 3.3 4 5 C2.35 4.67 0.7 4.34 -1 4 C-0.67 2.68 -0.34 1.36 0 0 Z " fill="#A2A5A0" transform="translate(142,260)"/>
<path d="M0 0 C0.99 0.33 1.98 0.66 3 1 C3 2.65 3 4.3 3 6 C1.68 5.67 0.36 5.34 -1 5 C-1 1 -1 1 0 0 Z " fill="#9C9E99" transform="translate(150,247)"/>
<path d="M0 0 C1.65 0 3.3 0 5 0 C5 0.99 5 1.98 5 3 C4.01 3 3.02 3 2 3 C2 4.32 2 5.64 2 7 C1.34 7 0.68 7 0 7 C0 4.69 0 2.38 0 0 Z " fill="#8B8D86" transform="translate(271,216)"/>
<path d="M0 0 C1.9375 0.8125 1.9375 0.8125 4 2 C4.33 2.99 4.66 3.98 5 5 C4.401875 5.144375 3.80375 5.28875 3.1875 5.4375 C1.43849596 5.8872439 -0.28677023 6.42892341 -2 7 C-1.34 4.69 -0.68 2.38 0 0 Z " fill="#ECC8DC" transform="translate(34,376)"/>
<path d="M0 0 C1.98 0.495 1.98 0.495 4 1 C3.67 2.65 3.34 4.3 3 6 C1.68 5.67 0.36 5.34 -1 5 C-0.67 3.35 -0.34 1.7 0 0 Z " fill="#989A95" transform="translate(176,247)"/>
<path d="M0 0 C0.66 0 1.32 0 2 0 C2.99 2.64 3.98 5.28 5 8 C3.35 8 1.7 8 0 8 C0 5.36 0 2.72 0 0 Z " fill="#959792" transform="translate(221,245)"/>
<path d="M0 0 C1.98 0.495 1.98 0.495 4 1 C4 2.65 4 4.3 4 6 C2.35 5.67 0.7 5.34 -1 5 C-1 4.34 -1 3.68 -1 3 C-0.34 2.67 0.32 2.34 1 2 C0.67 1.34 0.34 0.68 0 0 Z " fill="#979993" transform="translate(123,235)"/>
<path d="M0 0 C2 2 2 2 2.125 4.625 C2.08375 5.40875 2.0425 6.1925 2 7 C0.33333333 7 -1.33333333 7 -3 7 C-3 5.02 -3 3.04 -3 1 C-2.01 0.67 -1.02 0.34 0 0 Z " fill="#92948D" transform="translate(119,234)"/>
<path d="M0 0 C1.32 0.33 2.64 0.66 4 1 C4 2.65 4 4.3 4 6 C2.68 6 1.36 6 0 6 C0 4.02 0 2.04 0 0 Z " fill="#999B94" transform="translate(157,235)"/>
<path d="M0 0 C0.33 0.66 0.66 1.32 1 2 C0.06421005 4.35981813 -0.93347808 6.69631264 -2 9 C-2.66 8.67 -3.32 8.34 -4 8 C-4.40729228 5.67843403 -4.74438677 3.3431213 -5 1 C-4.34 1 -3.68 1 -3 1 C-3 1.66 -3 2.32 -3 3 C-2.34 3 -1.68 3 -1 3 C-0.67 2.01 -0.34 1.02 0 0 Z " fill="#636461" transform="translate(258,216)"/>
<path d="M0 0 C0.66 0 1.32 0 2 0 C2.33 2.64 2.66 5.28 3 8 C2.01 8.33 1.02 8.66 0 9 C0 6.03 0 3.06 0 0 Z " fill="#898B84" transform="translate(165,214)"/>
<path d="M0 0 C1.32 0 2.64 0 4 0 C4 2.97 4 5.94 4 9 C3.01 8.67 2.02 8.34 1 8 C0.67 5.36 0.34 2.72 0 0 Z " fill="#C4C7B9" transform="translate(161,214)"/>
<path d="M0 0 C0.99 0.33 1.98 0.66 3 1 C3 2.65 3 4.3 3 6 C1.35 5.67 -0.3 5.34 -2 5 C-1.34 3.35 -0.68 1.7 0 0 Z " fill="#949691" transform="translate(112,272)"/>
<path d="M0 0 C1.32 0.33 2.64 0.66 4 1 C4 2.65 4 4.3 4 6 C2.68 6 1.36 6 0 6 C0 4.02 0 2.04 0 0 Z " fill="#959792" transform="translate(281,247)"/>
<path d="M0 0 C2.475 0.495 2.475 0.495 5 1 C5 2.65 5 4.3 5 6 C4.67 4.68 4.34 3.36 4 2 C3.34 2 2.68 2 2 2 C2 3.32 2 4.64 2 6 C1.34 6 0.68 6 0 6 C0 4.02 0 2.04 0 0 Z " fill="#979994" transform="translate(169,247)"/>
<path d="M0 0 C1.98 0.495 1.98 0.495 4 1 C3.67 2.65 3.34 4.3 3 6 C1.68 5.34 0.36 4.68 -1 4 C-0.67 2.68 -0.34 1.36 0 0 Z " fill="#93958E" transform="translate(259,235)"/>
<path d="M0 0 C2.31 0.33 4.62 0.66 7 1 C7.33 1.99 7.66 2.98 8 4 C5.36 3.34 2.72 2.68 0 2 C0 1.34 0 0.68 0 0 Z " fill="#E9ECF7" transform="translate(296,320)"/>
<path d="M0 0 C0.99 0.33 1.98 0.66 3 1 C2.67 2.65 2.34 4.3 2 6 C0.68 5.67 -0.64 5.34 -2 5 C-1.125 1.125 -1.125 1.125 0 0 Z " fill="#92948F" transform="translate(122,272)"/>
<path d="M0 0 C0.99 0.33 1.98 0.66 3 1 C3 2.65 3 4.3 3 6 C1.68 6 0.36 6 -1 6 C-0.67 4.02 -0.34 2.04 0 0 Z " fill="#9D9F9B" transform="translate(145,274)"/>
<path d="M0 0 C0.66 0 1.32 0 2 0 C2 2.64 2 5.28 2 8 C1.67 6.68 1.34 5.36 1 4 C0.01 4 -0.98 4 -2 4 C-2.33 4.99 -2.66 5.98 -3 7 C-2.67 5.35 -2.34 3.7 -2 2 C-1.34 2 -0.68 2 0 2 C0 1.34 0 0.68 0 0 Z " fill="#90918D" transform="translate(270,270)"/>
<path d="M0 0 C1.32 0 2.64 0 4 0 C4 0.66 4 1.32 4 2 C3.34 2 2.68 2 2 2 C2 3.98 2 5.96 2 8 C1.34 8 0.68 8 0 8 C0 5.36 0 2.72 0 0 Z " fill="#A3A5A1" transform="translate(243,257)"/>
<path d="M0 0 C0 1.65 0 3.3 0 5 C-2.97 4.505 -2.97 4.505 -6 4 C-6 3.01 -6 2.02 -6 1 C-3.92446352 0.4465236 -2.15634036 0 0 0 Z " fill="#B8BAB5" transform="translate(242,260)"/>
<path d="M0 0 C1.32 0 2.64 0 4 0 C4 1.98 4 3.96 4 6 C2.68 5.67 1.36 5.34 0 5 C0 3.35 0 1.7 0 0 Z " fill="#91938C" transform="translate(312,235)"/>
<path d="M0 0 C0.99 0.33 1.98 0.66 3 1 C2 4 2 4 0 7 C-0.33 7.66 -0.66 8.32 -1 9 C-1.66 9 -2.32 9 -3 9 C-2.01 6.03 -1.02 3.06 0 0 Z " fill="#626361" transform="translate(75,214)"/>
<path d="M0 0 C1.98 0.495 1.98 0.495 4 1 C4 2.32 4 3.64 4 5 C2.35 4.67 0.7 4.34 -1 4 C-0.67 2.68 -0.34 1.36 0 0 Z " fill="#90918C" transform="translate(163,260)"/>
<path d="M0 0 C0.66 0 1.32 0 2 0 C2.33 0.66 2.66 1.32 3 2 C3.66 2.33 4.32 2.66 5 3 C3.68799596 4.35432675 2.35368596 5.68733482 1 7 C0.67 7 0.34 7 0 7 C0 4.69 0 2.38 0 0 Z " fill="#949690" transform="translate(103,233)"/>
<path d="M0 0 C0.99 0 1.98 0 3 0 C3 1.65 3 3.3 3 5 C1.68 5.33 0.36 5.66 -1 6 C-1.042721 4.33388095 -1.04063832 2.66617115 -1 1 C-0.67 0.67 -0.34 0.34 0 0 Z " fill="#9FA29A" transform="translate(133,235)"/>
<path d="M0 0 C0.99 0 1.98 0 3 0 C3 1.98 3 3.96 3 6 C1.68 5.67 0.36 5.34 -1 5 C-0.67 3.35 -0.34 1.7 0 0 Z " fill="#8E908B" transform="translate(94,235)"/>
<path d="M0 0 C1.98 0.495 1.98 0.495 4 1 C3.67 2.32 3.34 3.64 3 5 C1.68 4.67 0.36 4.34 -1 4 C-0.67 2.68 -0.34 1.36 0 0 Z " fill="#90928D" transform="translate(293,260)"/>
<path d="M0 0 C0.99 0.33 1.98 0.66 3 1 C3 1.66 3 2.32 3 3 C2.01 3.33 1.02 3.66 0 4 C0.66 4.66 1.32 5.32 2 6 C0.68 5.67 -0.64 5.34 -2 5 C-2 3.68 -2 2.36 -2 1 C-1.34 0.67 -0.68 0.34 0 0 Z " fill="#8C8E89" transform="translate(141,247)"/>
<path d="M0 0 C0.66 0 1.32 0 2 0 C4.09230769 4.43076923 4.09230769 4.43076923 3.625 7.3125 C3.41875 7.869375 3.2125 8.42625 3 9 C2.34 7.35 1.68 5.7 1 4 C0.34 4 -0.32 4 -1 4 C-0.67 2.68 -0.34 1.36 0 0 Z " fill="#5B5B5A" transform="translate(232,214)"/>
<path d="M0 0 C1.98 0 3.96 0 6 0 C6 0.99 6 1.98 6 3 C4.02 3 2.04 3 0 3 C0 2.01 0 1.02 0 0 Z " fill="#FEA41A" transform="translate(264,159)"/>
<path d="M0 0 C0.99 0.33 1.98 0.66 3 1 C3 1.66 3 2.32 3 3 C2.01 3.33 1.02 3.66 0 4 C0.66 4.66 1.32 5.32 2 6 C0.68 5.67 -0.64 5.34 -2 5 C-1.125 1.125 -1.125 1.125 0 0 Z " fill="#8B8D87" transform="translate(228,247)"/>
<path d="M0 0 C1.32 0 2.64 0 4 0 C3.67 1.32 3.34 2.64 3 4 C2.34 4 1.68 4 1 4 C0.67 4.66 0.34 5.32 0 6 C0 4.02 0 2.04 0 0 Z " fill="#92938E" transform="translate(300,247)"/>
<path d="M0 0 C1.32 0.33 2.64 0.66 4 1 C4 2.65 4 4.3 4 6 C3.01 6 2.02 6 1 6 C0.67 4.02 0.34 2.04 0 0 Z " fill="#9A9C95" transform="translate(303,235)"/>
<path d="M0 0 C0.66 0 1.32 0 2 0 C2.33 2.31 2.66 4.62 3 7 C2.01 7 1.02 7 0 7 C0 4.69 0 2.38 0 0 Z " fill="#62635F" transform="translate(110,215)"/>
</svg>
