<?xml version="1.0" encoding="UTF-8"?>
<svg version="1.1" xmlns="http://www.w3.org/2000/svg" width="400" height="400">
<path d="M0 0 C132 0 264 0 400 0 C400 132 400 264 400 400 C268 400 136 400 0 400 C0 268 0 136 0 0 Z " fill="#FDF6FD" transform="translate(0,0)"/>
<path d="M0 0 C1.09633255 -0.00571014 2.1926651 -0.01142029 3.32221985 -0.01730347 C4.53054977 -0.01842133 5.7388797 -0.01953918 6.98382568 -0.02069092 C8.88638374 -0.02813828 8.88638374 -0.02813828 10.82737732 -0.03573608 C14.31308724 -0.04886908 17.7987779 -0.0553071 21.28450871 -0.05974674 C23.46253024 -0.06267679 25.64054649 -0.06678153 27.81856537 -0.07125092 C34.63372945 -0.08492991 41.44888149 -0.09459388 48.26405835 -0.09845281 C56.12956451 -0.10293088 63.99489665 -0.12046531 71.86034989 -0.1494534 C77.94026744 -0.17108227 84.02013609 -0.18115777 90.1000917 -0.18249393 C93.73102361 -0.18354135 97.36179203 -0.18943531 100.99268341 -0.20731354 C105.04582743 -0.22688176 109.09860839 -0.22250047 113.15179443 -0.21600342 C114.35202744 -0.2252182 115.55226044 -0.23443298 116.78886414 -0.243927 C123.94787047 -0.207931 128.86946476 0.19323081 134.15472412 5.46075439 C137.22938606 10.60747112 136.51025509 17.22541767 136.57659912 23.01544189 C136.62107178 24.90649658 136.62107178 24.90649658 136.66644287 26.83575439 C136.73693437 29.93738055 136.78973653 33.03826386 136.82659912 36.14044189 C138.47659912 36.14044189 140.12659912 36.14044189 141.82659912 36.14044189 C142.15659912 36.80044189 142.48659912 37.46044189 142.82659912 38.14044189 C145.26589658 36.21468074 147.62750507 34.33953595 149.82659912 32.14044189 C150.81659912 32.14044189 151.80659912 32.14044189 152.82659912 32.14044189 C153.15659912 31.15044189 153.48659912 30.16044189 153.82659912 29.14044189 C154.15659912 30.13044189 154.48659912 31.12044189 154.82659912 32.14044189 C157.86794403 30.47120119 157.86794403 30.47120119 158.82659912 28.14044189 C163.70159912 29.01544189 163.70159912 29.01544189 164.82659912 30.14044189 C165.48659912 29.48044189 166.14659912 28.82044189 166.82659912 28.14044189 C167.81659912 28.14044189 168.80659912 28.14044189 169.82659912 28.14044189 C170.81659912 27.81044189 171.80659912 27.48044189 172.82659912 27.14044189 C172.82659912 74.66044189 172.82659912 122.18044189 172.82659912 171.14044189 C40.82659912 171.14044189 -91.17340088 171.14044189 -227.17340088 171.14044189 C-227.17340088 119.33044189 -227.17340088 67.52044189 -227.17340088 14.14044189 C-220.17340088 13.14044189 -220.17340088 13.14044189 -217.17340088 15.14044189 C-216.51340088 15.14044189 -215.85340088 15.14044189 -215.17340088 15.14044189 C-214.18340088 16.62544189 -214.18340088 16.62544189 -213.17340088 18.14044189 C-212.18340088 18.14044189 -211.19340088 18.14044189 -210.17340088 18.14044189 C-209.51340088 18.80044189 -208.85340088 19.46044189 -208.17340088 20.14044189 C-207.51340088 19.48044189 -206.85340088 18.82044189 -206.17340088 18.14044189 C-205.51340088 19.13044189 -204.85340088 20.12044189 -204.17340088 21.14044189 C-204.50340088 21.80044189 -204.83340088 22.46044189 -205.17340088 23.14044189 C-203.78121338 22.61450439 -203.78121338 22.61450439 -202.36090088 22.07794189 C-199.17340088 21.14044189 -199.17340088 21.14044189 -196.17340088 22.14044189 C-195.51340088 23.13044189 -194.85340088 24.12044189 -194.17340088 25.14044189 C-192.09886528 26.36404869 -192.09886528 26.36404869 -189.17340088 26.14044189 C-188.51340088 26.14044189 -187.85340088 26.14044189 -187.17340088 26.14044189 C-186.55465088 26.92419189 -185.93590088 27.70794189 -185.29840088 28.51544189 C-183.28487914 31.00273345 -182.08697229 31.99582456 -179.17340088 33.14044189 C-179.17340088 33.80044189 -179.17340088 34.46044189 -179.17340088 35.14044189 C-179.83340088 35.14044189 -180.49340088 35.14044189 -181.17340088 35.14044189 C-180.84340088 35.80044189 -180.51340088 36.46044189 -180.17340088 37.14044189 C-179.18340088 37.14044189 -178.19340088 37.14044189 -177.17340088 37.14044189 C-176.51340088 38.79044189 -175.85340088 40.44044189 -175.17340088 42.14044189 C-173.19340088 42.14044189 -171.21340088 42.14044189 -169.17340088 42.14044189 C-168.78152588 43.02731689 -168.38965088 43.91419189 -167.98590088 44.82794189 C-166.09695589 48.2801517 -164.01138623 50.44799426 -161.17340088 53.14044189 C-160.51340088 54.13044189 -159.85340088 55.12044189 -159.17340088 56.14044189 C-157.11414949 56.86426656 -157.11414949 56.86426656 -155.17340088 57.14044189 C-154.98777588 58.03762939 -154.98777588 58.03762939 -154.79840088 58.95294189 C-154.21864103 61.40275538 -154.21864103 61.40275538 -152.17340088 64.14044189 C-151.18340088 63.81044189 -150.19340088 63.48044189 -149.17340088 63.14044189 C-148.18340088 65.45044189 -147.19340088 67.76044189 -146.17340088 70.14044189 C-145.18340088 70.14044189 -144.19340088 70.14044189 -143.17340088 70.14044189 C-142.18340088 71.62544189 -142.18340088 71.62544189 -141.17340088 73.14044189 C-140.69902588 73.60321533 -140.22465088 74.06598877 -139.73590088 74.54278564 C-137.25867645 77.07574762 -135.55656273 80.09527114 -133.67340088 83.08184814 C-132.17273711 85.39063168 -132.17273711 85.39063168 -129.17340088 87.14044189 C-127.85340088 87.14044189 -126.53340088 87.14044189 -125.17340088 87.14044189 C-123.81971492 88.45310707 -122.48540492 89.78611514 -121.17340088 91.14044189 C-118.29947797 91.2720006 -118.29947797 91.2720006 -116.11090088 90.57794189 C-114.17340088 90.14044189 -114.17340088 90.14044189 -112.17340088 91.14044189 C-109.41938912 90.43928884 -109.41938912 90.43928884 -106.36090088 89.32794189 C-105.32320557 88.97087158 -104.28551025 88.61380127 -103.21636963 88.24591064 C-101.28505755 87.54429149 -99.36791425 86.80122828 -97.47418213 86.00372314 C-95.17340088 85.14044189 -95.17340088 85.14044189 -92.17340088 85.14044189 C-90.62560545 82.87827934 -89.39727805 80.58819624 -88.17340088 78.14044189 C-87.43090088 77.85169189 -86.68840088 77.56294189 -85.92340088 77.26544189 C-82.82241048 75.99685491 -80.75316616 74.25717238 -78.17340088 72.14044189 C-74.67340088 70.14044189 -74.67340088 70.14044189 -72.17340088 70.14044189 C-71.84340088 69.48044189 -71.51340088 68.82044189 -71.17340088 68.14044189 C-70.18340088 68.14044189 -69.19340088 68.14044189 -68.17340088 68.14044189 C-68.17340088 67.48044189 -68.17340088 66.82044189 -68.17340088 66.14044189 C-67.22465088 65.85169189 -66.27590088 65.56294189 -65.29840088 65.26544189 C-62.1212851 64.3721908 -62.1212851 64.3721908 -60.17340088 62.14044189 C-59.51340088 62.14044189 -58.85340088 62.14044189 -58.17340088 62.14044189 C-57.32777588 61.62481689 -56.48215088 61.10919189 -55.61090088 60.57794189 C-50.34196564 58.37456898 -45.78566045 59.50188956 -40.36090088 60.82794189 C-37.6639089 61.21322646 -36.44222798 60.56896266 -34.17340088 59.14044189 C-34.17340088 59.80044189 -34.17340088 60.46044189 -34.17340088 61.14044189 C-33.18340088 60.81044189 -32.19340088 60.48044189 -31.17340088 60.14044189 C-30.18340088 61.13044189 -29.19340088 62.12044189 -28.17340088 63.14044189 C-27.18340088 62.15044189 -27.18340088 62.15044189 -26.17340088 61.14044189 C-25.18340088 61.80044189 -24.19340088 62.46044189 -23.17340088 63.14044189 C-22.18340088 62.48044189 -21.19340088 61.82044189 -20.17340088 61.14044189 C-20.71867432 60.54618408 -21.26394775 59.95192627 -21.82574463 59.33966064 C-24.29578597 56.62472631 -26.73423313 53.88313427 -29.17340088 51.14044189 C-30.04351807 50.19427002 -30.91363525 49.24809814 -31.81011963 48.27325439 C-33.04181885 46.87719971 -33.04181885 46.87719971 -34.29840088 45.45294189 C-35.064104 44.60344971 -35.82980713 43.75395752 -36.61871338 42.87872314 C-38.17340088 40.14044189 -38.17340088 40.14044189 -38.11090088 36.52325439 C-37.17474105 33.1452777 -36.63309132 31.93412086 -34.04840088 29.70294189 C-31.5120459 27.38222843 -29.15904212 25.06659011 -26.92340088 22.45294189 C-23.85535314 18.89900424 -20.71855175 15.41558324 -17.54840088 11.95294189 C-17.09303955 11.45383301 -16.63767822 10.95472412 -16.16851807 10.44049072 C-6.60983736 0.02055833 -6.60983736 0.02055833 0 0 Z M141.82659912 35.14044189 C143.82659912 36.14044189 143.82659912 36.14044189 143.82659912 36.14044189 Z " fill="#FABCFE" transform="translate(227.17340087890625,228.85955810546875)"/>
<path d="M0 0 C1.09633255 -0.00571014 2.1926651 -0.01142029 3.32221985 -0.01730347 C4.53054977 -0.01842133 5.7388797 -0.01953918 6.98382568 -0.02069092 C8.25219772 -0.02565582 9.52056976 -0.03062073 10.82737732 -0.03573608 C14.31308724 -0.04886908 17.7987779 -0.0553071 21.28450871 -0.05974674 C23.46253024 -0.06267679 25.64054649 -0.06678153 27.81856537 -0.07125092 C34.63372945 -0.08492991 41.44888149 -0.09459388 48.26405835 -0.09845281 C56.12956451 -0.10293088 63.99489665 -0.12046531 71.86034989 -0.1494534 C77.94026744 -0.17108227 84.02013609 -0.18115777 90.1000917 -0.18249393 C93.73102361 -0.18354135 97.36179203 -0.18943531 100.99268341 -0.20731354 C105.04582743 -0.22688176 109.09860839 -0.22250047 113.15179443 -0.21600342 C114.35202744 -0.2252182 115.55226044 -0.23443298 116.78886414 -0.243927 C127.00844432 -0.19254221 127.00844432 -0.19254221 131.82659912 3.14044189 C137.0302009 8.50013546 136.39134895 14.48255032 136.32269287 21.51153564 C136.3241481 22.70722672 136.32560333 23.90291779 136.32710266 25.13484192 C136.32544552 27.6589502 136.31390519 30.18306878 136.29315186 32.70709229 C136.26422654 36.56096557 136.27254266 40.41346008 136.2855835 44.26739502 C136.27934482 46.72378189 136.27095287 49.18016442 136.26019287 51.63653564 C136.26312851 52.78464218 136.26606415 53.93274872 136.26908875 55.11564636 C136.14152699 65.98948881 136.14152699 65.98948881 132.82659912 71.14044189 C126.56189139 75.91298215 120.79541534 75.71603682 113.11761475 75.67388916 C111.21637093 75.68681252 111.21637093 75.68681252 109.27671814 75.69999695 C105.81589116 75.72241381 102.35552315 75.71956988 98.89465141 75.71067548 C95.99952129 75.70554983 93.10447623 75.71287075 90.20935488 75.72014755 C83.37742901 75.73712155 76.54572665 75.73360551 69.71380615 75.71685791 C62.67729291 75.69993134 55.6413998 75.71578351 48.60495424 75.74808079 C42.55120408 75.77480964 36.49764658 75.7820441 30.44384336 75.77356571 C26.83356168 75.76864692 23.22365313 75.77079484 19.61341858 75.79135323 C15.58708189 75.81318588 11.56191519 75.79427497 7.5355835 75.77154541 C6.34680099 75.78323761 5.15801849 75.79492981 3.93321228 75.80697632 C-4.34471627 75.71190251 -8.10281471 74.18493456 -14.00152588 68.32403564 C-14.47074463 67.74782471 -14.93996338 67.17161377 -15.42340088 66.57794189 C-17.93672088 63.57890162 -20.51324805 60.66657419 -23.18121338 57.80352783 C-25.07905699 55.76179034 -26.95400223 53.70001013 -28.82330322 51.63214111 C-30.10694109 50.21387215 -31.39969837 48.80387269 -32.69293213 47.39434814 C-38.04314349 41.23832562 -38.04314349 41.23832562 -38.61090088 36.45294189 C-36.97588407 32.68529446 -35.11472353 30.67860553 -32.11871338 27.93731689 C-30.237083 26.19926474 -28.58734107 24.39822464 -26.92340088 22.45294189 C-23.85535314 18.89900424 -20.71855175 15.41558324 -17.54840088 11.95294189 C-16.86535889 11.20427856 -16.86535889 11.20427856 -16.16851807 10.44049072 C-6.60983736 0.02055833 -6.60983736 0.02055833 0 0 Z " fill="#FE6461" transform="translate(227.17340087890625,228.85955810546875)"/>
<path d="M0 0 C1.26895615 -0.00700928 2.53791229 -0.01401855 3.84532166 -0.02124023 C7.31442336 -0.03942499 10.7830475 -0.03242657 14.25215721 -0.01972389 C17.88886136 -0.00957085 21.52552563 -0.01899595 25.16223145 -0.02526855 C31.2685477 -0.0325383 37.37467021 -0.02297509 43.48095703 -0.00390625 C50.53273499 0.01786139 57.5840503 0.01080953 64.63581705 -0.01121187 C70.69886681 -0.02938522 76.76177759 -0.03191481 82.82484579 -0.0214572 C86.44231337 -0.01523282 90.05956374 -0.01435729 93.67701721 -0.02760315 C97.71073645 -0.04134249 101.74366271 -0.02228067 105.77734375 0 C106.97129257 -0.00809692 108.16524139 -0.01619385 109.39537048 -0.02453613 C118.62263044 0.06992208 122.38171097 2.19304553 128.82617188 8.76757812 C132.19383468 12.21395091 135.42397294 15.74740343 138.56054688 19.40429688 C141.4379354 22.73050883 144.41162401 25.96935075 147.37304688 29.22070312 C148.37078125 30.35765625 148.37078125 30.35765625 149.38867188 31.51757812 C149.99195313 32.13117188 150.59523437 32.74476563 151.21679688 33.37695312 C152.38867188 35.51757812 152.38867188 35.51757812 152.49023438 38.80273438 C151.01579003 43.77506263 148.39170714 46.3640589 144.76367188 49.95507812 C143.47775224 51.27725277 142.19258694 52.60016151 140.90820312 53.92382812 C140.29412598 54.54773438 139.68004883 55.17164063 139.04736328 55.81445312 C137.11090244 57.80278855 135.26450297 59.8541152 133.45117188 61.95507812 C132.93941406 62.54417969 132.42765625 63.13328125 131.90039062 63.74023438 C130.78634428 65.05003046 129.68688125 66.37226431 128.59570312 67.70117188 C127.99113281 68.42433594 127.3865625 69.1475 126.76367188 69.89257812 C126.23515625 70.5396875 125.70664063 71.18679687 125.16210938 71.85351562 C121.5623068 75.23130394 117.64739651 75.7681584 112.85450745 75.78500366 C111.7540509 75.79353363 110.65359436 75.8020636 109.51979065 75.81085205 C108.32224655 75.80994568 107.12470245 75.80903931 105.89086914 75.80810547 C104.62205902 75.81482269 103.3532489 75.82153992 102.04598999 75.82846069 C98.5728341 75.84609503 95.09977681 75.85081492 91.62658048 75.85209227 C89.45506791 75.85351563 87.28358027 75.85778869 85.1120739 75.8630867 C77.53197518 75.88157694 69.9519467 75.88975839 62.37182617 75.88818359 C55.31271493 75.88698175 48.25390922 75.90809481 41.1948753 75.93967092 C35.12762504 75.96584088 29.06047455 75.97655063 22.99316829 75.97527277 C19.37230008 75.97476344 15.75170364 75.98043063 12.1308918 76.00162888 C8.09233899 76.02462872 4.05446939 76.01548611 0.01586914 76.00341797 C-1.77741066 76.02027649 -1.77741066 76.02027649 -3.60691833 76.03747559 C-9.89408779 75.98966987 -13.88003447 75.83779089 -18.61132812 71.51757812 C-22.71904434 66.02327731 -22.04433937 59.67724439 -22.00976562 53.11132812 C-22.0126358 51.91326538 -22.01550598 50.71520264 -22.01846313 49.48083496 C-22.02050095 46.95255052 -22.01499097 44.42425021 -22.00244141 41.89599609 C-21.98638479 38.0312161 -22.00230082 34.16748193 -22.02148438 30.30273438 C-22.01950189 27.84309666 -22.01565812 25.38345959 -22.00976562 22.92382812 C-22.01583832 21.7705603 -22.02191101 20.61729248 -22.02816772 19.42907715 C-21.93665972 8.96539564 -21.93665972 8.96539564 -18.61132812 4.51757812 C-13.00935193 -0.59071313 -7.30292357 -0.04952575 0 0 Z " fill="#054A69" transform="translate(59.611328125,104.482421875)"/>
<path d="M0 0 C1.66124405 -0.01268921 1.66124405 -0.01268921 3.35604858 -0.02563477 C4.5665387 -0.01956207 5.77702881 -0.01348938 7.02420044 -0.00723267 C8.94182693 -0.0151181 8.94182693 -0.0151181 10.89819336 -0.02316284 C14.40246664 -0.03683684 17.90647487 -0.03153688 21.41075277 -0.02202559 C25.0808289 -0.01442611 28.75088245 -0.0214757 32.42095947 -0.02618408 C38.58627389 -0.03164218 44.75148051 -0.02445009 50.91677856 -0.01016235 C58.03774544 0.00614987 65.15845443 0.00088639 72.27941501 -0.01564157 C78.39760791 -0.02927223 84.51572333 -0.03116796 90.63392651 -0.02332556 C94.28604234 -0.01865584 97.93803713 -0.01800453 101.59014511 -0.02793503 C105.664672 -0.03823998 109.73875731 -0.02394156 113.81326294 -0.00723267 C115.01970459 -0.01330536 116.22614624 -0.01937805 117.46914673 -0.02563477 C124.10676377 0.02480899 128.94901476 0.35164184 134.21975708 4.78793335 C134.64651733 5.26593384 135.07327759 5.74393433 135.51296997 6.23641968 C135.99918823 6.77218628 136.48540649 7.30795288 136.98635864 7.85995483 C137.48111694 8.42375854 137.97587524 8.98756226 138.48562622 9.56845093 C139.27320313 10.44509399 139.27320313 10.44509399 140.07669067 11.33944702 C141.57584239 13.01247718 143.06290882 14.69555664 144.54812622 16.38095093 C145.5458606 17.49276733 145.5458606 17.49276733 146.56375122 18.62704468 C148.25154228 20.5238379 149.90129619 22.44852199 151.54812622 24.38095093 C152.74695435 25.74413452 152.74695435 25.74413452 153.97000122 27.13485718 C154.80015747 28.10294312 155.63031372 29.07102905 156.48562622 30.06845093 C157.64384888 31.40456421 157.64384888 31.40456421 158.82546997 32.76766968 C160.77652303 35.72743043 161.25101615 36.92141457 160.54812622 40.38095093 C158.89578247 42.70516968 158.89578247 42.70516968 156.61062622 45.06845093 C155.78691528 45.93856812 154.96320435 46.8086853 154.11453247 47.70516968 C153.26761841 48.58817749 152.42070435 49.4711853 151.54812622 50.38095093 C150.04173529 52.0418435 148.54156619 53.70840352 147.04812622 55.38095093 C146.31078247 56.19821655 145.57343872 57.01548218 144.81375122 57.85751343 C143.25365188 59.59514132 141.70203358 61.34040893 140.15750122 63.09188843 C138.9896106 64.41059937 138.9896106 64.41059937 137.79812622 65.75595093 C137.10203247 66.5474353 136.40593872 67.33891968 135.68875122 68.15438843 C128.87393042 75.24279693 128.87393042 75.24279693 124.28853226 75.515172 C122.86498995 75.52158223 122.86498995 75.52158223 121.41268921 75.52812195 C120.32477081 75.53527725 119.23685242 75.54243256 118.1159668 75.54980469 C116.91698761 75.55249359 115.71800842 75.5551825 114.48269653 75.55795288 C113.22407806 75.56452408 111.96545959 75.57109528 110.66870117 75.5778656 C106.48789751 75.59891492 102.30709345 75.60926977 98.12625122 75.61923218 C96.68694794 75.62327961 95.24764486 75.62739653 93.80834198 75.63158226 C87.04550696 75.65063699 80.28268288 75.6648666 73.51982617 75.67319423 C65.71482827 75.6829638 57.91011418 75.70927453 50.10521626 75.74969512 C44.07200864 75.77986719 38.0388823 75.79466418 32.00560069 75.79797524 C28.40255444 75.80032482 24.79981128 75.80927239 21.19684601 75.83443642 C17.17476075 75.86207316 13.15330823 75.85788274 9.13113403 75.85092163 C7.94025177 75.86373169 6.74936951 75.87654175 5.5223999 75.88973999 C-0.7822445 75.84991249 -4.68780734 75.66962724 -9.45187378 71.38095093 C-14.6625226 65.90520655 -14.03227572 59.88958445 -13.98312378 52.75595093 C-13.98886414 50.92556274 -13.98886414 50.92556274 -13.99472046 49.05819702 C-13.99743779 46.48283054 -13.99008933 43.90743637 -13.97335815 41.3321228 C-13.95194825 37.39464671 -13.97316834 33.4589954 -13.99874878 29.52157593 C-13.99610547 27.01636357 -13.99098045 24.51115236 -13.98312378 22.00595093 C-13.9912207 20.83080933 -13.99931763 19.65566772 -14.00765991 18.44491577 C-13.93548135 12.14024496 -13.81255297 8.09893687 -9.45187378 3.38095093 C-6.27913943 0.51125533 -4.24965316 0.0049969 0 0 Z " fill="#CB579C" transform="translate(51.451873779296875,187.61904907226563)"/>
<path d="M0 0 C1.11735535 -0.00845947 2.23471069 -0.01691895 3.38592529 -0.02563477 C5.21804314 -0.01652573 5.21804314 -0.01652573 7.08717346 -0.00723267 C8.37695099 -0.01248962 9.66672852 -0.01774658 10.99559021 -0.02316284 C14.53078634 -0.03683653 18.06571973 -0.03153737 21.60092044 -0.02202559 C25.30216092 -0.01442759 29.00337899 -0.02147513 32.70462036 -0.02618408 C38.92120906 -0.03164192 45.13769084 -0.02445005 51.35426331 -0.01016235 C58.53773337 0.00615711 65.72094789 0.00088101 72.90441173 -0.01564157 C79.07439306 -0.02926425 85.24429754 -0.03117208 91.41428906 -0.02332556 C95.09823071 -0.0186524 98.78205235 -0.01801417 102.46598625 -0.02793503 C106.57424372 -0.03822568 110.68206219 -0.02395456 114.79029846 -0.00723267 C116.61937996 -0.01634171 116.61937996 -0.01634171 118.4854126 -0.02563477 C119.60558777 -0.01717529 120.72576294 -0.00871582 121.87988281 0 C122.85086631 0.00113108 123.8218498 0.00226215 124.82225704 0.00342751 C129.19568609 0.61922885 131.7900293 2.63025683 134.7827301 5.77938843 C137.34402411 11.14037156 137.07512734 16.13612245 137.03468323 22.00595093 C137.03851013 23.22620972 137.04233704 24.44646851 137.04627991 25.70370483 C137.04899723 28.27907132 137.04164878 30.85446548 137.0249176 33.42977905 C137.0035077 37.36725515 137.02472779 41.30290645 137.05030823 45.24032593 C137.04766492 47.74553828 137.04253989 50.2507495 137.03468323 52.75595093 C137.04278015 53.93109253 137.05087708 55.10623413 137.05921936 56.31698608 C136.9870408 62.6216569 136.86411242 66.66296499 132.50343323 71.38095093 C129.31843761 74.26501975 127.25611612 74.76110546 122.98908997 74.78881836 C121.30693893 74.81017853 121.30693893 74.81017853 119.59080505 74.83197021 C118.36475555 74.8321817 117.13870605 74.83239319 115.87550354 74.83261108 C114.58079132 74.84429321 113.2860791 74.85597534 111.95213318 74.86801147 C108.40233201 74.89877481 104.85273244 74.90993163 101.30281162 74.91565371 C99.0828657 74.92001086 96.86297183 74.92838795 94.64304352 74.93815231 C86.89205254 74.97189686 79.14121374 74.98903305 71.39015198 74.99179077 C64.17578564 74.99482301 56.96227779 75.03523607 49.7481606 75.09293902 C43.54669926 75.1407873 37.34552055 75.16152291 31.14387584 75.1615814 C27.44332933 75.16211848 23.74362314 75.1736105 20.0432663 75.21275711 C15.91121971 75.25543405 11.78116653 75.24177814 7.64894104 75.22323608 C5.82201218 75.25391678 5.82201218 75.25391678 3.95817566 75.28521729 C-1.86293196 75.2134853 -5.61418358 74.9131193 -10.12065125 71.03118896 C-11.27552567 69.84247216 -12.40320223 68.62647755 -13.49656677 67.38095093 C-14.54818816 66.29720514 -15.60127951 65.214881 -16.65672302 64.13485718 C-17.62883013 63.075311 -18.59627526 62.01146911 -19.55906677 60.94345093 C-20.07219421 60.38069458 -20.58532166 59.81793823 -21.11399841 59.23812866 C-24.46124082 55.55695458 -27.79361616 51.86133068 -31.02781677 48.08016968 C-32.00071998 46.95460347 -33.00098842 45.85208028 -34.02781677 44.77548218 C-36.20575109 42.42210315 -37.42627112 40.79120098 -37.97312927 37.59970093 C-37.32224234 33.20354656 -34.97515128 31.01107287 -31.93406677 28.00595093 C-30.82138086 26.8568953 -29.70939782 25.70715862 -28.59812927 24.55673218 C-28.05962341 24.00839722 -27.52111755 23.46006226 -26.96629333 22.89511108 C-25.17735337 21.05208689 -23.48303129 19.14112055 -21.80906677 17.19345093 C-19.15711044 14.13850123 -16.49457923 11.09401204 -13.80906677 8.06845093 C-13.08332458 7.24731812 -12.3575824 6.4261853 -11.60984802 5.58016968 C-7.81135702 1.62721139 -5.58966091 0.0065138 0 0 Z " fill="#5F5698" transform="translate(226.49656677246094,146.61904907226563)"/>
<path d="M0 0 C2.375 0.375 2.375 0.375 5 1 C7.72502965 0.62277985 7.72502965 0.62277985 10 0 C9.57847656 0.42410156 9.15695313 0.84820312 8.72265625 1.28515625 C7.90087891 2.16494141 7.90087891 2.16494141 7.0625 3.0625 C6.51722656 3.63097656 5.97195312 4.19945312 5.41015625 4.78515625 C3.40945399 7.92753349 3.06047359 10.28692164 3 14 C4.55578779 16.95242949 4.55578779 16.95242949 7 19.5 C8.23943359 20.90958984 8.23943359 20.90958984 9.50390625 22.34765625 C12.12711369 25.13507073 14.77878995 27.8664465 17.58984375 30.46484375 C19.16515293 32.17979252 20.05340883 33.88274536 21 36 C20.01 36 19.02 36 18 36 C17.67 36.66 17.34 37.32 17 38 C16.38125 37.814375 15.7625 37.62875 15.125 37.4375 C12.95839822 36.76313824 12.95839822 36.76313824 11 38 C10.62875 37.484375 10.2575 36.96875 9.875 36.4375 C8.00697364 34.65506017 8.00697364 34.65506017 5.125 35.375 C4.09375 35.58125 3.0625 35.7875 2 36 C0.32577014 35.70700977 -1.34178227 35.37309899 -3 35 C-4.03125 35 -5.0625 35 -6.125 35 C-9 35 -9 35 -12 34 C-13.8307883 34.6873623 -13.8307883 34.6873623 -15.6875 35.8125 C-19.73396735 37.98212721 -23.51894737 39.03977444 -28 40 C-28 40.66 -28 41.32 -28 42 C-28.969375 42.28875 -29.93875 42.5775 -30.9375 42.875 C-34.10664203 43.64214682 -34.10664203 43.64214682 -35 46 C-35.66 46 -36.32 46 -37 46 C-37.556875 46.598125 -38.11375 47.19625 -38.6875 47.8125 C-41 50 -41 50 -44.625 51.375 C-48.27466272 52.64987778 -48.27466272 52.64987778 -49.125 56.0625 C-49.41375 57.031875 -49.7025 58.00125 -50 59 C-53.29564692 60.90800611 -55.12388592 61 -59 61 C-61.01586684 61.96761608 -63.01753602 62.96567096 -65 64 C-65.66 64 -66.32 64 -67 64 C-67.66 64.66 -68.32 65.32 -69 66 C-69.78375 65.835 -70.5675 65.67 -71.375 65.5 C-74.41320245 64.92129477 -75.43957492 65.38788051 -78 67 C-78.99 66.01 -78.99 66.01 -80 65 C-80.99 65 -81.98 65 -83 65 C-85.6875 62.5 -85.6875 62.5 -88 60 C-88.495 60.99 -88.495 60.99 -89 62 C-92.49661445 60.60135422 -93.50063004 59.3985719 -95 56 C-95.53625 55.29875 -96.0725 54.5975 -96.625 53.875 C-98 52 -98 52 -98 50 C-98.99 49.505 -98.99 49.505 -100 49 C-100.99 48.34 -101.98 47.68 -103 47 C-103 46.01 -103 45.02 -103 44 C-103.99 44.33 -104.98 44.66 -106 45 C-107.41377341 42.36095629 -108.37240135 39.92879371 -109 37 C-110.32 37.66 -111.64 38.32 -113 39 C-114.33333333 36.33333333 -115.66666667 33.66666667 -117 31 C-117.639375 30.87625 -118.27875 30.7525 -118.9375 30.625 C-121 30 -121 30 -122.0625 28.125 C-122.371875 27.42375 -122.68125 26.7225 -123 26 C-123.97850195 24.97895449 -124.97980427 23.9793879 -126 23 C-129 19.44444444 -129 19.44444444 -129 16 C-131.31 16.33 -133.62 16.66 -136 17 C-136.66 15.02 -137.32 13.04 -138 11 C-138.99 11 -139.98 11 -141 11 C-141 10.34 -141 9.68 -141 9 C-138.46375044 7.73187522 -136.70457449 7.87246058 -133.86456299 7.86869812 C-132.23268539 7.86268585 -132.23268539 7.86268585 -130.56784058 7.85655212 C-129.36886139 7.85708084 -128.1698822 7.85760956 -126.93457031 7.8581543 C-125.00252368 7.85282087 -123.07047706 7.84748146 -121.13843107 7.84191763 C-119.05777408 7.83671531 -116.97712341 7.83380528 -114.89646149 7.83133507 C-110.55957553 7.82542781 -106.22277178 7.80888936 -101.88592529 7.78999329 C-100.40134054 7.78365565 -98.91675573 7.77733003 -97.43217087 7.77101612 C-96.68860258 7.76785031 -95.94503428 7.7646845 -95.17893362 7.76142275 C-85.0808923 7.71934708 -74.98288874 7.68637964 -64.88476562 7.67407227 C-58.07556707 7.66568803 -51.26657149 7.64318258 -44.45747447 7.6047166 C-40.85447432 7.58496483 -37.25177753 7.57254824 -33.64871979 7.57755089 C-29.62653371 7.58306723 -25.60510202 7.55777715 -21.58300781 7.5300293 C-20.39212555 7.53663071 -19.20124329 7.54323212 -17.97427368 7.55003357 C-11.69353999 7.47879434 -7.75022942 7.27532565 -3 3 C-2.484375 2.401875 -1.96875 1.80375 -1.4375 1.1875 C-0.963125 0.795625 -0.48875 0.40375 0 0 Z M-98 48 C-97 50 -97 50 -97 50 Z M-96 51 C-95 53 -95 53 -95 53 Z " fill="#FEE1FE" transform="translate(187,255)"/>
<path d="M0 0 C1.32 0.33 2.64 0.66 4 1 C3.67 1.66 3.34 2.32 3 3 C8.28 3 13.56 3 19 3 C19 3.66 19 4.32 19 5 C19.9075 5.12375 20.815 5.2475 21.75 5.375 C26.39527319 6.26832177 29.31071724 8.10127783 33 11 C32.67 11.33 32.34 11.66 32 12 C32.804375 11.979375 33.60875 11.95875 34.4375 11.9375 C37 12 37 12 38 13 C38.1603556 16.02807044 38.25960448 19.03585454 38.31640625 22.06640625 C38.33718735 22.97502914 38.35796844 23.88365204 38.37937927 24.81980896 C38.44497672 27.73395946 38.5038068 30.64820304 38.5625 33.5625 C38.60567554 35.53321291 38.64928951 37.50391626 38.69335938 39.47460938 C38.80066843 44.31630988 38.90190675 49.15810437 39 54 C38.01 53.67 37.02 53.34 36 53 C35.505 53.99 35.505 53.99 35 55 C33 53 33 53 31.25 50.8125 C29.0752284 48.65375843 29.0752284 48.65375843 25.875 49.125 C22.90318627 49.78308824 22.90318627 49.78308824 21 52 C21 50 21 48 21 46 C20.01 46.66 19.02 47.32 18 48 C17.01 47.01 16.02 46.02 15 45 C14.01 45.495 14.01 45.495 13 46 C12.67 44.68 12.34 43.36 12 42 C10.515 42.495 10.515 42.495 9 43 C7.66666667 42.33333333 6.33333333 41.66666667 5 41 C3.35 41 1.7 41 0 41 C0 27.47 0 13.94 0 0 Z " fill="#FFDFFE" transform="translate(0,202)"/>
<path d="M0 0 C2.50839019 1.00335608 5.01350295 2.00573875 7.5 3.0625 C9.99645662 3.99867123 12.38543736 4.5075907 15 5 C15.04939115 9.09338652 15.08571501 13.18665798 15.10986328 17.28027344 C15.11992877 18.67320781 15.13358234 20.06612102 15.15087891 21.45898438 C15.1751022 23.4595436 15.18540814 25.46025615 15.1953125 27.4609375 C15.21102295 29.26763916 15.21102295 29.26763916 15.22705078 31.11083984 C15 34 15 34 13 36 C10 37 10 37 8 37 C7.01 37.495 7.01 37.495 6 38 C5.34 37.34 4.68 36.68 4 36 C1.00667261 36.9977758 0.05233685 37.7522025 -2 40 C-2.66 39.34 -3.32 38.68 -4 38 C-8.29718241 39.90985885 -11.6891507 42.6891507 -15 46 C-17.31 45.34 -19.62 44.68 -22 44 C-22.01458252 43.17798096 -22.02916504 42.35596191 -22.04418945 41.5090332 C-22.11876333 37.77638677 -22.21539512 34.04462541 -22.3125 30.3125 C-22.33505859 29.01892578 -22.35761719 27.72535156 -22.38085938 26.39257812 C-22.41630859 25.14541016 -22.45175781 23.89824219 -22.48828125 22.61328125 C-22.51446533 21.46641846 -22.54064941 20.31955566 -22.56762695 19.13793945 C-23.03643824 15.73555018 -24.03999781 13.78598682 -26 11 C-25.34 10.67 -24.68 10.34 -24 10 C-23.67 9.34 -23.34 8.68 -23 8 C-22.0925 8.103125 -21.185 8.20625 -20.25 8.3125 C-16.83148927 8.34284978 -16.83148927 8.34284978 -14.75 5.625 C-13.88375 4.325625 -13.88375 4.325625 -13 3 C-12.34 2.34 -11.68 1.68 -11 1 C-4.25 3.875 -4.25 3.875 -2 5 C-1.855625 4.360625 -1.71125 3.72125 -1.5625 3.0625 C-1 1 -1 1 0 0 Z " fill="#FEDFFE" transform="translate(385,222)"/>
<path d="M0 0 C0.99 0 1.98 0 3 0 C3 0.99 3 1.98 3 3 C6.63 3 10.26 3 14 3 C14 2.01 14 1.02 14 0 C14.99 0 15.98 0 17 0 C17 0.99 17 1.98 17 3 C17.94875 3.103125 18.8975 3.20625 19.875 3.3125 C23 4 23 4 25 7 C25.1953125 9.69921875 25.1953125 9.69921875 25.125 12.6875 C25.10695312 13.68136719 25.08890625 14.67523438 25.0703125 15.69921875 C25.04710937 16.45847656 25.02390625 17.21773437 25 18 C23.783125 17.938125 22.56625 17.87625 21.3125 17.8125 C17.33639233 17.85464955 14.9979376 18.17337312 12 21 C10.71076255 23.93197548 9.7989609 26.90159067 9 30 C6.91781638 30.10832169 4.83400871 30.18573541 2.75 30.25 C1.00976562 30.31960937 1.00976562 30.31960937 -0.765625 30.390625 C-4 30 -4 30 -6.390625 28.578125 C-8.83939227 24.65534248 -8.58203598 21.03248775 -8.5 16.5 C-8.51546875 15.64535156 -8.5309375 14.79070312 -8.546875 13.91015625 C-8.52234559 9.97931771 -8.48207752 7.70197253 -6.21875 4.40625 C-4 3 -4 3 0 3 C0 2.01 0 1.02 0 0 Z " fill="#FDF9FC" transform="translate(167,208)"/>
<path d="M0 0 C4.08302671 1.3610089 4.51910783 3.19980446 6.57421875 6.93359375 C6.90291458 7.52672867 7.23161041 8.11986359 7.57026672 8.73097229 C8.26293309 9.98529179 8.95107504 11.24211888 9.63500977 12.5012207 C10.68443204 14.43185584 11.74813296 16.3540465 12.81445312 18.27539062 C18 27.69852879 18 27.69852879 18 30 C6.78 30 -4.44 30 -16 30 C-7.94763514 13.89527027 -7.94763514 13.89527027 -4.0625 7.125 C-3.66482422 6.42503906 -3.26714844 5.72507813 -2.85742188 5.00390625 C-1.90815445 3.33411053 -0.95459612 1.66675512 0 0 Z " fill="#F7F9FA" transform="translate(175,128)"/>
<path d="M0 0 C0.99 0 1.98 0 3 0 C4.03595522 4.02871475 3.86988854 5.65055731 3 10 C9.6 10 16.2 10 23 10 C23 11.32 23 12.64 23 14 C21.02 14 19.04 14 17 14 C17 14.66 17 15.32 17 16 C16.34 16 15.68 16 15 16 C14.505 15.01 14.505 15.01 14 14 C13.34 14 12.68 14 12 14 C12.495 16.475 12.495 16.475 13 19 C15.97 19 18.94 19 22 19 C22.495 21.475 22.495 21.475 23 24 C22.38511719 23.91621094 21.77023438 23.83242187 21.13671875 23.74609375 C20.32847656 23.64425781 19.52023438 23.54242188 18.6875 23.4375 C17.88699219 23.33308594 17.08648437 23.22867188 16.26171875 23.12109375 C13.83182884 22.85244822 13.83182884 22.85244822 11 24 C11 22.02 11 20.04 11 18 C10.34 18 9.68 18 9 18 C9 19.98 9 21.96 9 24 C8.443125 23.814375 7.88625 23.62875 7.3125 23.4375 C5.02890312 22.85368345 5.02890312 22.85368345 2.875 23.4375 C-1.40341014 24.27458024 -5.65393531 24.07595065 -10 24 C-10 23.01 -10 22.02 -10 21 C-10.66 21 -11.32 21 -12 21 C-12 21.99 -12 22.98 -12 24 C-13.32 23.67 -14.64 23.34 -16 23 C-16 21.68 -16 20.36 -16 19 C-15.34 19 -14.68 19 -14 19 C-13.34 17.35 -12.68 15.7 -12 14 C-12.9075 14.04125 -13.815 14.0825 -14.75 14.125 C-17.8782046 14.00468444 -19.38614006 13.6085292 -22 12 C-22 11.34 -22 10.68 -22 10 C-20.56359829 9.80426392 -19.12580496 9.61872184 -17.6875 9.4375 C-16.88699219 9.33308594 -16.08648437 9.22867188 -15.26171875 9.12109375 C-13 9 -13 9 -10 10 C-9.67 10.66 -9.34 11.32 -9 12 C-8.34 10.68 -7.68 9.36 -7 8 C-6.34 8 -5.68 8 -5 8 C-5 8.66 -5 9.32 -5 10 C-4.01 10 -3.02 10 -2 10 C-1.34 6.7 -0.68 3.4 0 0 Z " fill="#074A69" transform="translate(111,132)"/>
<path d="M0 0 C5.94 0 11.88 0 18 0 C18.49230769 9.35384615 18.49230769 9.35384615 16 12.625 C15.34 13.07875 14.68 13.5325 14 14 C15.15173355 16.46800047 16.04783565 18.04783565 18 20 C18.27450545 23.34896654 18.08628804 26.63476663 18 30 C12.06 30 6.12 30 0 30 C0 21 0 21 2.5 17.9375 C3.325 17.298125 4.15 16.65875 5 16 C3.61410019 12.90837736 2.50816459 11.50816459 0 9 C0 6.03 0 3.06 0 0 Z " fill="#E7E5EF" transform="translate(215,169)"/>
<path d="M0 0 C1.093125 0.00257813 2.18625 0.00515625 3.3125 0.0078125 C4.405625 0.00523437 5.49875 0.00265625 6.625 0 C9.3125 0.1328125 9.3125 0.1328125 10.3125 1.1328125 C10.38508946 3.31920703 10.39623783 5.50781639 10.375 7.6953125 C10.36597656 8.89285156 10.35695312 10.09039062 10.34765625 11.32421875 C10.33605469 12.25105469 10.32445312 13.17789062 10.3125 14.1328125 C9.3225 14.1328125 8.3325 14.1328125 7.3125 14.1328125 C7.3125 18.7528125 7.3125 23.3728125 7.3125 28.1328125 C5.0025 28.1328125 2.6925 28.1328125 0.3125 28.1328125 C-0.6875 27.1328125 -0.6875 27.1328125 -0.78515625 24.41015625 C-0.77355469 23.30800781 -0.76195312 22.20585937 -0.75 21.0703125 C-0.74097656 19.96558594 -0.73195312 18.86085938 -0.72265625 17.72265625 C-0.71105469 16.86800781 -0.69945312 16.01335937 -0.6875 15.1328125 C-1.6775 14.8028125 -2.6675 14.4728125 -3.6875 14.1328125 C-3.71435938 11.98704613 -3.73383088 9.84118605 -3.75 7.6953125 C-3.76160156 6.50035156 -3.77320313 5.30539062 -3.78515625 4.07421875 C-3.65588833 0.1806689 -3.65588833 0.1806689 0 0 Z " fill="#FEEFEF" transform="translate(220.6875,255.8671875)"/>
<path d="M0 0 C1.65 0 3.3 0 5 0 C5 0.66 5 1.32 5 2 C15.56 2 26.12 2 37 2 C37.33 1.34 37.66 0.68 38 0 C38.66 0 39.32 0 40 0 C40 0.66 40 1.32 40 2 C43.3 2 46.6 2 50 2 C50 3.98 50 5.96 50 8 C48.35 8.33 46.7 8.66 45 9 C45 8.34 45 7.68 45 7 C42.03 7 39.06 7 36 7 C36 5.68 36 4.36 36 3 C35.34 3 34.68 3 34 3 C33.67 4.32 33.34 5.64 33 7 C33 5.68 33 4.36 33 3 C32.34 3 31.68 3 31 3 C31 4.32 31 5.64 31 7 C16.75 7 16.75 7 13 6 C13 5.01 13 4.02 13 3 C12.34 3 11.68 3 11 3 C11 4.32 11 5.64 11 7 C5.375 7.25 5.375 7.25 2 5 C2 5.66 2 6.32 2 7 C1.34 7 0.68 7 0 7 C0 4.69 0 2.38 0 0 Z " fill="#C7D4DD" transform="translate(50,115)"/>
<path d="M0 0 C2.05078125 0.03255208 4.1015625 0.06510417 6.15234375 0.09765625 C6.94880059 8.78756926 7.2808688 17.37223324 7.15234375 26.09765625 C4.84234375 26.09765625 2.53234375 26.09765625 0.15234375 26.09765625 C-0.17765625 22.13765625 -0.50765625 18.17765625 -0.84765625 14.09765625 C-1.50765625 14.09765625 -2.16765625 14.09765625 -2.84765625 14.09765625 C-2.87451563 11.95188988 -2.89398713 9.8060298 -2.91015625 7.66015625 C-2.92175781 6.46519531 -2.93335938 5.27023437 -2.9453125 4.0390625 C-2.81615523 0.14884541 -2.81615523 0.14884541 0 0 Z " fill="#FFEFEF" transform="translate(209.84765625,257.90234375)"/>
<path d="M0 0 C2.33294775 -0.04241723 4.66702567 -0.04092937 7 0 C8 1 8 1 8.09765625 3.72265625 C8.08605469 4.82480469 8.07445312 5.92695313 8.0625 7.0625 C8.05347656 8.16722656 8.04445312 9.27195312 8.03515625 10.41015625 C8.02355469 11.26480469 8.01195312 12.11945313 8 13 C7.34 13 6.68 13 6 13 C5.67 17.29 5.34 21.58 5 26 C2.69 26 0.38 26 -2 26 C-2.02686553 24.02090602 -2.04633375 22.04171029 -2.0625 20.0625 C-2.07410156 18.96035156 -2.08570313 17.85820312 -2.09765625 16.72265625 C-2 14 -2 14 -1 13 C-0.76518307 10.81707226 -0.58636677 8.62796826 -0.4375 6.4375 C-0.35371094 5.23996094 -0.26992187 4.04242188 -0.18359375 2.80859375 C-0.12300781 1.88175781 -0.06242188 0.95492188 0 0 Z " fill="#FEF0F1" transform="translate(233,258)"/>
<path d="M0 0 C2.5 1.5625 2.5 1.5625 4 4 C4 7.77684879 3.78395245 10.03513544 1.375 13 C-2.07663304 14.45331917 -4.42809484 13.92604949 -8 13 C-10.46324069 9.30513897 -10.38991688 7.36706908 -10 3 C-7.7773391 -1.05308751 -4.20075589 -0.5158823 0 0 Z " fill="#FBF3F8" transform="translate(190,229)"/>
<path d="M0 0 C0.66 0 1.32 0 2 0 C2 0.66 2 1.32 2 2 C8.6 2 15.2 2 22 2 C22 3.98 22 5.96 22 8 C18.04 8 14.08 8 10 8 C9.67 7.34 9.34 6.68 9 6 C8.45859375 6.32742187 7.9171875 6.65484375 7.359375 6.9921875 C4.49280933 8.21664767 2.3547013 8.19892146 -0.75 8.125 C-1.73484375 8.10695312 -2.7196875 8.08890625 -3.734375 8.0703125 C-4.85585937 8.03550781 -4.85585937 8.03550781 -6 8 C-6 6.68 -6 5.36 -6 4 C-6.66 4 -7.32 4 -8 4 C-8.33 4.99 -8.66 5.98 -9 7 C-9 5.35 -9 3.7 -9 2 C-6.36 2 -3.72 2 -1 2 C-0.67 1.34 -0.34 0.68 0 0 Z " fill="#EEC4DD" transform="translate(70,197)"/>
<path d="M0 0 C6.93 0.495 6.93 0.495 14 1 C14 1.66 14 2.32 14 3 C14.56332031 2.67386719 15.12664062 2.34773437 15.70703125 2.01171875 C18.24155399 0.89341996 19.93537302 0.76246133 22.6875 0.8125 C23.86892578 0.82216797 23.86892578 0.82216797 25.07421875 0.83203125 C27 1 27 1 28 2 C29.32 2 30.64 2 32 2 C31.67 3.32 31.34 4.64 31 6 C31 5.01 31 4.02 31 3 C30.34 3 29.68 3 29 3 C29 3.99 29 4.98 29 6 C27.02 6.33 25.04 6.66 23 7 C23 6.01 23 5.02 23 4 C22.67 4.99 22.34 5.98 22 7 C18.7 7 15.4 7 12 7 C12 7.66 12 8.32 12 9 C11.34 9 10.68 9 10 9 C10 8.34 10 7.68 10 7 C6.7 7 3.4 7 0 7 C0 4.69 0 2.38 0 0 Z " fill="#FEC7C7" transform="translate(306,239)"/>
<path d="M0 0 C0.49230769 7.38461538 0.49230769 7.38461538 -2 10.5 C-2.66 10.995 -3.32 11.49 -4 12 C-2.84826645 14.46800047 -1.95216435 16.04783565 0 18 C0.27240673 21.01826653 0.08675125 23.96370622 0 27 C-5.61 27 -11.22 27 -17 27 C-17 24.69 -17 22.38 -17 20 C-16.34 19.67 -15.68 19.34 -15 19 C-15 20.98 -15 22.96 -15 25 C-11.04 25 -7.08 25 -3 25 C-4.18180084 19.97734643 -5.44992282 16.9050849 -9 13 C-8.195625 12.13375 -7.39125 11.2675 -6.5625 10.375 C-4.00260623 7.3477099 -3.45993719 4.9554598 -3 1 C-1 0 -1 0 0 0 Z " fill="#EDEDF3" transform="translate(233,171)"/>
<path d="M0 0 C8.91 0 17.82 0 27 0 C27 1.32 27 2.64 27 4 C18.09 4 9.18 4 0 4 C0 2.68 0 1.36 0 0 Z " fill="#D06CA8" transform="translate(162,217)"/>
<path d="M0 0 C5.54578207 -0.19458884 9.63138137 0.45136001 15 2 C17.18703385 1.62092718 17.18703385 1.62092718 19 1 C19.99 1.33 20.98 1.66 22 2 C22.639375 1.835 23.27875 1.67 23.9375 1.5 C26.31772734 0.92297519 27.69706679 1.25977147 30 2 C30 3.32 30 4.64 30 6 C23.33333333 6 16.66666667 6 10 6 C10 5.01 10 4.02 10 3 C9.34 3 8.68 3 8 3 C7.67 3.99 7.34 4.98 7 6 C6.67 5.34 6.34 4.68 6 4 C5.34 4.66 4.68 5.32 4 6 C2.68 5.34 1.36 4.68 0 4 C0 2.68 0 1.36 0 0 Z " fill="#FFABAA" transform="translate(277,254)"/>
<path d="M0 0 C3.53107313 1.39600566 6.01980182 0.78165651 9.6875 0.0625 C9.6875 1.7125 9.6875 3.3625 9.6875 5.0625 C0.7775 5.0625 -8.1325 5.0625 -17.3125 5.0625 C-17.3125 3.4125 -17.3125 1.7625 -17.3125 0.0625 C-14.6725 0.3925 -12.0325 0.7225 -9.3125 1.0625 C-9.3125 1.7225 -9.3125 2.3825 -9.3125 3.0625 C-8.6525 3.0625 -7.9925 3.0625 -7.3125 3.0625 C-6.9825 2.4025 -6.6525 1.7425 -6.3125 1.0625 C-3.78896916 -0.74002203 -2.94013351 -1.19194602 0 0 Z " fill="#FFB2B1" transform="translate(327.3125,254.9375)"/>
<path d="M0 0 C2.86503068 1.2843241 5.15427705 2.41598787 7 5 C7 6.98 7 8.96 7 11 C3.04 11 -0.92 11 -5 11 C-5 5 -5 5 -2.5 2.125 C-1.2625 1.073125 -1.2625 1.073125 0 0 Z " fill="#685F9E" transform="translate(223,185)"/>
<path d="M0 0 C3.96 0 7.92 0 12 0 C12 6 12 6 9.625 8.875 C7 11 7 11 5 11 C2.375 8.875 2.375 8.875 0 6 C0 4.02 0 2.04 0 0 Z " fill="#7971A8" transform="translate(218,172)"/>
<path d="M0 0 C0.99 0 1.98 0 3 0 C3.33 0.66 3.66 1.32 4 2 C5.0828125 1.690625 5.0828125 1.690625 6.1875 1.375 C9.44641585 0.94047789 11.08304504 1.58319331 14 3 C13.67 3.99 13.34 4.98 13 6 C11.68 6 10.36 6 9 6 C7.52466797 6.01740234 7.52466797 6.01740234 6.01953125 6.03515625 C4.96121094 6.04417969 3.90289062 6.05320313 2.8125 6.0625 C1.74644531 6.07410156 0.68039062 6.08570313 -0.41796875 6.09765625 C-3 6 -3 6 -4 5 C-4.556875 5.144375 -5.11375 5.28875 -5.6875 5.4375 C-8.50492615 6.12281987 -11.11111385 6.0656565 -14 6 C-14 4.68 -14 3.36 -14 2 C-9.38 2 -4.76 2 0 2 C0 1.34 0 0.68 0 0 Z " fill="#9E98C0" transform="translate(282,181)"/>
<path d="M0 0 C6 0 12 0 18 0 C18.12375 0.639375 18.2475 1.27875 18.375 1.9375 C18.58125 2.618125 18.7875 3.29875 19 4 C19.66 4.33 20.32 4.66 21 5 C20.01 5.495 20.01 5.495 19 6 C18.01 5.67 17.02 5.34 16 5 C14.43881572 4.93259135 12.8749748 4.91485544 11.3125 4.9375 C10.50425781 4.94652344 9.69601562 4.95554687 8.86328125 4.96484375 C8.24839844 4.97644531 7.63351562 4.98804688 7 5 C7 4.34 7 3.68 7 3 C6.34 2.67 5.68 2.34 5 2 C4.67 2.99 4.34 3.98 4 5 C1.36 5 -1.28 5 -4 5 C-4.33 5.66 -4.66 6.32 -5 7 C-5 5.02 -5 3.04 -5 1 C-4.34 1.66 -3.68 2.32 -3 3 C-2.01 2.67 -1.02 2.34 0 2 C0 1.34 0 0.68 0 0 Z " fill="#FFA9A8" transform="translate(286,275)"/>
<path d="M0 0 C0.66 0 1.32 0 2 0 C2 0.66 2 1.32 2 2 C3.65614657 2.38218767 5.32457024 2.71395102 7 3 C7.33 2.67 7.66 2.34 8 2 C10.01964199 1.92755947 12.04167124 1.91622812 14.0625 1.9375 C15.71958984 1.95103516 15.71958984 1.95103516 17.41015625 1.96484375 C18.26480469 1.97644531 19.11945313 1.98804688 20 2 C20 3.65 20 5.3 20 7 C13.4 7 6.8 7 0 7 C0 4.69 0 2.38 0 0 Z " fill="#E4A2C9" transform="translate(75,232)"/>
<path d="M0 0 C0.66 0.66 1.32 1.32 2 2 C2.99 1.67 3.98 1.34 5 1 C7.6875 1.4375 7.6875 1.4375 10 2 C10 3.65 10 5.3 10 7 C8.906875 6.835 7.81375 6.67 6.6875 6.5 C3.12474127 5.93281816 3.12474127 5.93281816 0 6 C-0.33 5.34 -0.66 4.68 -1 4 C-1.99 5.485 -1.99 5.485 -3 7 C-4.32 6.67 -5.64 6.34 -7 6 C-6.67 4.35 -6.34 2.7 -6 1 C-3.92446352 0.4465236 -2.15634036 0 0 0 Z " fill="#81616A" transform="translate(259,99)"/>
<path d="M0 0 C5.94 0 11.88 0 18 0 C18 1.65 18 3.3 18 5 C16.14375 4.7215625 16.14375 4.7215625 14.25 4.4375 C11.15447094 4.0464858 9.00102565 4.09969231 6 5 C4.00036972 5.03845443 1.99948367 5.04544281 0 5 C0 3.35 0 1.7 0 0 Z " fill="#779AAC" transform="translate(50,161)"/>
<path d="M0 0 C0.66 0 1.32 0 2 0 C2 0.66 2 1.32 2 2 C2.99 2 3.98 2 5 2 C5.33 1.34 5.66 0.68 6 0 C6 1.98 6 3.96 6 6 C3.24973583 6.05404449 0.50053797 6.09369306 -2.25 6.125 C-3.02730469 6.14175781 -3.80460937 6.15851563 -4.60546875 6.17578125 C-11.72431144 6.23662606 -11.72431144 6.23662606 -15 4 C-15 3.34 -15 2.68 -15 2 C-13.56359829 1.80426392 -12.12580496 1.61872184 -10.6875 1.4375 C-9.88699219 1.33308594 -9.08648437 1.22867188 -8.26171875 1.12109375 C-6 1 -6 1 -3 2 C-2.67 2.66 -2.34 3.32 -2 4 C-1.34 2.68 -0.68 1.36 0 0 Z " fill="#89A7B7" transform="translate(104,140)"/>
<path d="M0 0 C2.5542193 0.31763979 2.5542193 0.31763979 5.41015625 -0.84375 C5.41015625 1.13625 5.41015625 3.11625 5.41015625 5.15625 C0.13015625 5.15625 -5.14984375 5.15625 -10.58984375 5.15625 C-10.25984375 3.50625 -9.92984375 1.85625 -9.58984375 0.15625 C-6.44065834 -1.4183427 -3.41668955 -0.44281102 0 0 Z " fill="#7C9EAF" transform="translate(87.58984375,150.84375)"/>
<path d="M0 0 C0.33 0 0.66 0 1 0 C1.79645684 8.68991301 2.12852505 17.27457699 2 26 C0.68 25.67 -0.64 25.34 -2 25 C-2 20.71 -2 16.42 -2 12 C-1.34 12 -0.68 12 0 12 C0 8.04 0 4.08 0 0 Z " fill="#FEDCDC" transform="translate(215,258)"/>
<path d="M0 0 C0.66 0.33 1.32 0.66 2 1 C1.67 1.66 1.34 2.32 1 3 C1.66 3 2.32 3 3 3 C3 10.92 3 18.84 3 27 C2.67 27 2.34 27 2 27 C2 23.04 2 19.08 2 15 C1.01 14.67 0.02 14.34 -1 14 C-1.02685938 11.85423363 -1.04633088 9.70837355 -1.0625 7.5625 C-1.07410156 6.36753906 -1.08570313 5.17257812 -1.09765625 3.94140625 C-1 1 -1 1 0 0 Z " fill="#FFD2D2" transform="translate(218,256)"/>
<path d="M0 0 C0.66 0 1.32 0 2 0 C2 0.66 2 1.32 2 2 C6.455 1.505 6.455 1.505 11 1 C11.33 2.65 11.66 4.3 12 6 C9.72923158 6.02699725 7.45837179 6.04639453 5.1875 6.0625 C3.29064453 6.07990234 3.29064453 6.07990234 1.35546875 6.09765625 C-2 6 -2 6 -5 5 C-5.33 4.01 -5.66 3.02 -6 2 C-4.35 2 -2.7 2 -1 2 C-0.67 1.34 -0.34 0.68 0 0 Z " fill="#7196A9" transform="translate(76,140)"/>
<path d="M0 0 C1.32 0.33 2.64 0.66 4 1 C3.01 1 2.02 1 1 1 C1 1.66 1 2.32 1 3 C1.84304688 2.75443359 1.84304688 2.75443359 2.703125 2.50390625 C5.13059056 1.97135003 7.26889681 1.90101319 9.75 1.9375 C10.54921875 1.94652344 11.3484375 1.95554687 12.171875 1.96484375 C12.77515625 1.97644531 13.3784375 1.98804687 14 2 C14 3.98 14 5.96 14 8 C13.67 8 13.34 8 13 8 C13 6.35 13 4.7 13 3 C12.34 3 11.68 3 11 3 C11 4.65 11 6.3 11 8 C10.34 8 9.68 8 9 8 C9 6.35 9 4.7 9 3 C8.34 3 7.68 3 7 3 C7 4.65 7 6.3 7 8 C4.69 8 2.38 8 0 8 C0 5.36 0 2.72 0 0 Z " fill="#795760" transform="translate(300,98)"/>
<path d="M0 0 C-0.33 2.31 -0.66 4.62 -1 7 C-5.455 7.495 -5.455 7.495 -10 8 C-10 5.69 -10 3.38 -10 1 C-6.59437148 0.22157062 -3.49234244 -0.09978121 0 0 Z " fill="#ADA9CA" transform="translate(339,156)"/>
<path d="M0 0 C1.32 0 2.64 0 4 0 C4 2.31 4 4.62 4 7 C0.37 7 -3.26 7 -7 7 C-7 5.35 -7 3.7 -7 2 C-4.69 2 -2.38 2 0 2 C0 1.34 0 0.68 0 0 Z " fill="#C6C4DA" transform="translate(309,156)"/>
<path d="M0 0 C2.05078125 0.03255208 4.1015625 0.06510417 6.15234375 0.09765625 C6.15234375 1.74765625 6.15234375 3.39765625 6.15234375 5.09765625 C1.20234375 5.09765625 -3.74765625 5.09765625 -8.84765625 5.09765625 C-8.84765625 3.77765625 -8.84765625 2.45765625 -8.84765625 1.09765625 C-7.39359375 1.12859375 -7.39359375 1.12859375 -5.91015625 1.16015625 C-2.67139686 1.09405912 -2.77992149 0.14693031 0 0 Z " fill="#A9A3C7" transform="translate(322.84765625,191.90234375)"/>
<path d="M0 0 C1.23556641 0.01740234 1.23556641 0.01740234 2.49609375 0.03515625 C3.32238281 0.04417969 4.14867187 0.05320312 5 0.0625 C5.63808594 0.07410156 6.27617187 0.08570313 6.93359375 0.09765625 C6.93359375 1.41765625 6.93359375 2.73765625 6.93359375 4.09765625 C7.59359375 3.10765625 8.25359375 2.11765625 8.93359375 1.09765625 C9.59359375 2.41765625 10.25359375 3.73765625 10.93359375 5.09765625 C7.60026042 5.09765625 4.26692708 5.09765625 0.93359375 5.09765625 C0.60359375 5.75765625 0.27359375 6.41765625 -0.06640625 7.09765625 C-1.05640625 7.09765625 -2.04640625 7.09765625 -3.06640625 7.09765625 C-3.10894981 5.09810879 -3.10721408 3.09723989 -3.06640625 1.09765625 C-2.06640625 0.09765625 -2.06640625 0.09765625 0 0 Z " fill="#FFACAB" transform="translate(312.06640625,274.90234375)"/>
<path d="M0 0 C0.33 0 0.66 0 1 0 C1.02696365 1.79158489 1.04637917 3.58328473 1.0625 5.375 C1.07410156 6.37273437 1.08570313 7.37046875 1.09765625 8.3984375 C1 11 1 11 0 13 C-0.93972656 12.98259766 -0.93972656 12.98259766 -1.8984375 12.96484375 C-3.12433594 12.95130859 -3.12433594 12.95130859 -4.375 12.9375 C-5.59316406 12.92009766 -5.59316406 12.92009766 -6.8359375 12.90234375 C-9.04937142 12.85533666 -9.04937142 12.85533666 -11 14 C-11 13.34 -11 12.68 -11 12 C-11.66 11.67 -12.32 11.34 -13 11 C-10.66376225 9.17481425 -8.91101935 7.98989627 -5.88671875 8.0234375 C-3.91462383 8.28264713 -1.95536303 8.63544079 0 9 C0 6.03 0 3.06 0 0 Z " fill="#CE66A4" transform="translate(192,217)"/>
<path d="M0 0 C0 1.98 0 3.96 0 6 C-0.763125 5.814375 -1.52625 5.62875 -2.3125 5.4375 C-5.08967375 4.77180827 -5.08967375 4.77180827 -8 6 C-12.55555556 6.22222222 -12.55555556 6.22222222 -15 5 C-14.67 3.68 -14.34 2.36 -14 1 C-13.22914063 1.01160156 -12.45828125 1.02320313 -11.6640625 1.03515625 C-10.15972656 1.04869141 -10.15972656 1.04869141 -8.625 1.0625 C-7.12839844 1.07990234 -7.12839844 1.07990234 -5.6015625 1.09765625 C-3.41286962 1.01549811 -2.0034407 0 0 0 Z " fill="#FFABAA" transform="translate(350,274)"/>
<path d="M0 0 C0.66 0 1.32 0 2 0 C2 0.66 2 1.32 2 2 C2.66 2 3.32 2 4 2 C3.67 3.32 3.34 4.64 3 6 C-1.95 6 -6.9 6 -12 6 C-12 4.68 -12 3.36 -12 2 C-10.35 2 -8.7 2 -7 2 C-7 2.99 -7 3.98 -7 5 C-6.34 5 -5.68 5 -5 5 C-4.67 4.01 -4.34 3.02 -4 2 C-2.68 2 -1.36 2 0 2 C0 1.34 0 0.68 0 0 Z " fill="#B2AECD" transform="translate(340,181)"/>
<path d="M0 0 C1.65 0 3.3 0 5 0 C5 0.66 5 1.32 5 2 C6.65 2 8.3 2 10 2 C10 3.65 10 5.3 10 7 C6.28400809 7.20086443 5.22791555 7.1519437 2 5 C2 5.66 2 6.32 2 7 C1.34 7 0.68 7 0 7 C0 4.69 0 2.38 0 0 Z " fill="#98B1C0" transform="translate(50,115)"/>
<path d="M0 0 C0.66 0 1.32 0 2 0 C2 0.66 2 1.32 2 2 C5.3 2 8.6 2 12 2 C12.33 1.34 12.66 0.68 13 0 C13 1.98 13 3.96 13 6 C8.71 6 4.42 6 0 6 C0 4.02 0 2.04 0 0 Z " fill="#85A5B5" transform="translate(65,130)"/>
<path d="M0 0 C0.99 0.495 0.99 0.495 2 1 C3.92120836 0.76813003 5.84211181 0.53148403 7.7578125 0.2578125 C11.18581655 -0.13634824 14.55228611 -0.06156632 18 0 C18.33 1.32 18.66 2.64 19 4 C17.02 3.34 15.04 2.68 13 2 C13 2.66 13 3.32 13 4 C11.453125 3.9690625 11.453125 3.9690625 9.875 3.9375 C6.44847031 3.99276661 3.35427586 4.34550715 0 5 C0 3.35 0 1.7 0 0 Z " fill="#E7ACCF" transform="translate(126,214)"/>
<path d="M0 0 C0 1.65 0 3.3 0 5 C-2.33294775 5.04241723 -4.66702567 5.04092937 -7 5 C-7.33 4.67 -7.66 4.34 -8 4 C-8.99 4.33 -9.98 4.66 -11 5 C-11.33 3.68 -11.66 2.36 -12 1 C-10.66961551 0.6550855 -9.33542939 0.32483418 -8 0 C-7.154375 -0.20625 -6.30875 -0.4125 -5.4375 -0.625 C-3 -1 -3 -1 0 0 Z " fill="#B3AECD" transform="translate(351,158)"/>
<path d="M0 0 C0.33 0.33 0.66 0.66 1 1 C2.32 1 3.64 1 5 1 C4.67 2.32 4.34 3.64 4 5 C4 4.01 4 3.02 4 2 C3.34 2 2.68 2 2 2 C2 2.99 2 3.98 2 5 C0.02 5.33 -1.96 5.66 -4 6 C-4 5.01 -4 4.02 -4 3 C-4.33 3.66 -4.66 4.32 -5 5 C-5.66 5 -6.32 5 -7 5 C-7 4.34 -7 3.68 -7 3 C-7.66 3 -8.32 3 -9 3 C-9 2.34 -9 1.68 -9 1 C-6.01787087 -0.49106457 -3.28390342 -0.11941467 0 0 Z " fill="#FECCCC" transform="translate(333,240)"/>
<path d="M0 0 C0.33 0 0.66 0 1 0 C1 1.98 1 3.96 1 6 C5.29 6 9.58 6 14 6 C14 4.35 14 2.7 14 1 C14.33 1 14.66 1 15 1 C15.33 3.31 15.66 5.62 16 8 C10.39 8 4.78 8 -1 8 C-1 1 -1 1 0 0 Z " fill="#FEFEFE" transform="translate(217,190)"/>
<path d="M0 0 C0 1.98 0 3.96 0 6 C-0.556875 5.814375 -1.11375 5.62875 -1.6875 5.4375 C-4.41123342 4.92219908 -6.32244694 5.3658427 -9 6 C-9.66 6 -10.32 6 -11 6 C-11 4.35 -11 2.7 -11 1 C-8.98177083 1.03255208 -6.96354167 1.06510417 -4.9453125 1.09765625 C-3.0426929 1.00214322 -1.80150594 0 0 0 Z " fill="#7397AA" transform="translate(120,150)"/>
<path d="M0 0 C0.33 1.65 0.66 3.3 1 5 C0.34 5 -0.32 5 -1 5 C-1 4.01 -1 3.02 -1 2 C-1.66 2 -2.32 2 -3 2 C-2.67 2.99 -2.34 3.98 -2 5 C-5.3 5 -8.6 5 -12 5 C-12 4.01 -12 3.02 -12 2 C-12.66 2 -13.32 2 -14 2 C-14.33 2.99 -14.66 3.98 -15 5 C-15 3.68 -15 2.36 -15 1 C-13.9275 1.020625 -12.855 1.04125 -11.75 1.0625 C-7.66349059 0.99439151 -4.08592001 0 0 0 Z " fill="#FFB6B5" transform="translate(329,265)"/>
<path d="M0 0 C4.33333333 0 8.66666667 0 13 0 C13 1.65 13 3.3 13 5 C5.25 5.125 5.25 5.125 3 4 C3 3.34 3 2.68 3 2 C2.34 2 1.68 2 1 2 C0.67 2.66 0.34 3.32 0 4 C0 2.68 0 1.36 0 0 Z " fill="#E5A5CB" transform="translate(62,214)"/>
<path d="M0 0 C0.639375 0.144375 1.27875 0.28875 1.9375 0.4375 C5.93844788 1.17236798 9.95504896 1.58581111 14 2 C14 2.99 14 3.98 14 5 C13.071875 4.979375 12.14375 4.95875 11.1875 4.9375 C7.97713989 4.84230396 7.97713989 4.84230396 5 6 C2.3125 5.5625 2.3125 5.5625 0 5 C0 3.35 0 1.7 0 0 Z " fill="#E4A1C9" transform="translate(88,213)"/>
<path d="M0 0 C1.32 0 2.64 0 4 0 C3.67 1.65 3.34 3.3 3 5 C3.66 5 4.32 5 5 5 C4.67 7.97 4.34 10.94 4 14 C3.01 14 2.02 14 1 14 C1.33 11.69 1.66 9.38 2 7 C1.01 7 0.02 7 -1 7 C-0.67 4.69 -0.34 2.38 0 0 Z " fill="#245A77" transform="translate(174,139)"/>
<path d="M0 0 C0.66 0 1.32 0 2 0 C2 0.66 2 1.32 2 2 C3.32 2 4.64 2 6 2 C5.67 3.32 5.34 4.64 5 6 C5 5.01 5 4.02 5 3 C4.34 3 3.68 3 3 3 C3 3.99 3 4.98 3 6 C-0.3 6 -3.6 6 -7 6 C-6.67 4.35 -6.34 2.7 -6 1 C-4.7934375 1.0309375 -4.7934375 1.0309375 -3.5625 1.0625 C-1.06645115 1.29633621 -1.06645115 1.29633621 0 0 Z " fill="#789BAD" transform="translate(104,130)"/>
<path d="M0 0 C0.66 0 1.32 0 2 0 C2.33 0.99 2.66 1.98 3 3 C4.65 3.33 6.3 3.66 8 4 C7.67 5.65 7.34 7.3 7 9 C6.401875 8.814375 5.80375 8.62875 5.1875 8.4375 C2.83591238 7.77906313 2.83591238 7.77906313 0 9 C0 6.03 0 3.06 0 0 Z " fill="#8A6B74" transform="translate(322,97)"/>
<path d="M0 0 C3.90432869 0 6.38026598 0.68373308 10 2 C9.67 3.32 9.34 4.64 9 6 C6 6 3 6 0 6 C0 4.02 0 2.04 0 0 Z " fill="#E095C2" transform="translate(50,213)"/>
<path d="M0 0 C0.33 0 0.66 0 1 0 C1 1.98 1 3.96 1 6 C-2.63 6 -6.26 6 -10 6 C-10 4.35 -10 2.7 -10 1 C-6.7 1.33 -3.4 1.66 0 2 C0 1.34 0 0.68 0 0 Z " fill="#A49FC4" transform="translate(265,191)"/>
<path d="M0 0 C3.96 0 7.92 0 12 0 C12 1.32 12 2.64 12 4 C10.02 4 8.04 4 6 4 C6 4.66 6 5.32 6 6 C5.34 6 4.68 6 4 6 C3.67 5.34 3.34 4.68 3 4 C2.01 4.33 1.02 4.66 0 5 C0 3.35 0 1.7 0 0 Z " fill="#7698AB" transform="translate(122,142)"/>
<path d="M0 0 C0.33 0 0.66 0 1 0 C1 1.98 1 3.96 1 6 C-3.3164922 6.76173392 -6.74433453 7.16063604 -11 6 C-11 4.68 -11 3.36 -11 2 C-7.37 2 -3.74 2 0 2 C0 1.34 0 0.68 0 0 Z " fill="#9C97BF" transform="translate(349,171)"/>
<path d="M0 0 C0.66 0 1.32 0 2 0 C2 0.66 2 1.32 2 2 C3.32 2 4.64 2 6 2 C6 2.99 6 3.98 6 5 C6.66 5 7.32 5 8 5 C8 4.01 8 3.02 8 2 C9.32 2.33 10.64 2.66 12 3 C11.67 4.32 11.34 5.64 11 7 C6.25 7.125 6.25 7.125 4 6 C2.68 6 1.36 6 0 6 C0 4.02 0 2.04 0 0 Z " fill="#A49EC4" transform="translate(325,171)"/>
<path d="M0 0 C0.66 0.66 1.32 1.32 2 2 C2.33 1.34 2.66 0.68 3 0 C5.31 0 7.62 0 10 0 C10 0.99 10 1.98 10 3 C9.01 3 8.02 3 7 3 C7 3.66 7 4.32 7 5 C7.99 5.33 8.98 5.66 10 6 C5.125 5.125 5.125 5.125 4 4 C3.54625 4.825 3.0925 5.65 2.625 6.5 C2.08875 7.325 1.5525 8.15 1 9 C0.34 9 -0.32 9 -1 9 C-1 8.34 -1 7.68 -1 7 C-0.34 7 0.32 7 1 7 C0.67 4.69 0.34 2.38 0 0 Z " fill="#6B4850" transform="translate(331,100)"/>
<path d="M0 0 C1.65 0 3.3 0 5 0 C5.33 1.98 5.66 3.96 6 6 C4.68 6.33 3.36 6.66 2 7 C2 7.99 2 8.98 2 10 C1.34 10 0.68 10 0 10 C0 6.7 0 3.4 0 0 Z " fill="#92757E" transform="translate(315,99)"/>
<path d="M0 0 C3.96 0 7.92 0 12 0 C12 1.32 12 2.64 12 4 C9.03 4 6.06 4 3 4 C2.67 4.66 2.34 5.32 2 6 C1.34 5.67 0.68 5.34 0 5 C0 3.35 0 1.7 0 0 Z " fill="#E5A7CC" transform="translate(50,224)"/>
<path d="M0 0 C3.3 0 6.6 0 10 0 C10 0.66 10 1.32 10 2 C7.36 2 4.72 2 2 2 C2 2.66 2 3.32 2 4 C2.66 4 3.32 4 4 4 C5.625 5.5 5.625 5.5 7 7 C6.67 7.99 6.34 8.98 6 10 C5.34 10 4.68 10 4 10 C0.41209106 6.30656433 0 5.40242057 0 0 Z " fill="#5A5094" transform="translate(219,173)"/>
<path d="M0 0 C2.97 0.495 2.97 0.495 6 1 C6.125 3.375 6.125 3.375 6 6 C5.34 6.66 4.68 7.32 4 8 C2.68 8 1.36 8 0 8 C0 5.36 0 2.72 0 0 Z " fill="#4E272E" transform="translate(222,112)"/>
<path d="M0 0 C1.98 0.495 1.98 0.495 4 1 C3.01 1 2.02 1 1 1 C1 2.32 1 3.64 1 5 C1.99 5 2.98 5 4 5 C4.66 3.68 5.32 2.36 6 1 C6.99 1.33 7.98 1.66 9 2 C8.67 3.65 8.34 5.3 8 7 C4.625 7.125 4.625 7.125 1 7 C0.34 6.34 -0.32 5.68 -1 5 C-0.625 2.375 -0.625 2.375 0 0 Z " fill="#EFCAE1" transform="translate(51,198)"/>
<path d="M0 0 C2.97 0 5.94 0 9 0 C9 1.98 9 3.96 9 6 C7.35 6.33 5.7 6.66 4 7 C4 6.34 4 5.68 4 5 C3.34 5 2.68 5 2 5 C1.34 3.35 0.68 1.7 0 0 Z " fill="#BFCED7" transform="translate(91,117)"/>
<path d="M0 0 C0.33 0 0.66 0 1 0 C1 1.65 1 3.3 1 5 C0.67 4.34 0.34 3.68 0 3 C-0.66 3 -1.32 3 -2 3 C-2.33 3.66 -2.66 4.32 -3 5 C-6.681512 6.05186057 -10.19055107 6.08859184 -14 6 C-14 4.68 -14 3.36 -14 2 C-9.38 2 -4.76 2 0 2 C0 1.34 0 0.68 0 0 Z " fill="#BDB9D4" transform="translate(282,181)"/>
<path d="M0 0 C0.66 0 1.32 0 2 0 C2 0.66 2 1.32 2 2 C2.804375 1.979375 3.60875 1.95875 4.4375 1.9375 C7 2 7 2 8 3 C8.04063832 4.66617115 8.042721 6.33388095 8 8 C7.34 8 6.68 8 6 8 C6 6.35 6 4.7 6 3 C5.34 3 4.68 3 4 3 C4 4.65 4 6.3 4 8 C2.68 8 1.36 8 0 8 C0 5.36 0 2.72 0 0 Z " fill="#84646D" transform="translate(254,112)"/>
<path d="M0 0 C3.96 0 7.92 0 12 0 C12 1.32 12 2.64 12 4 C9.03 4 6.06 4 3 4 C2.67 4.66 2.34 5.32 2 6 C1.34 5.67 0.68 5.34 0 5 C0 3.35 0 1.7 0 0 Z " fill="#BDB9D4" transform="translate(310,183)"/>
<path d="M0 0 C2.01822917 0.26041667 4.03645833 0.52083333 6.0546875 0.78125 C8.00498344 1.0372485 8.00498344 1.0372485 10 1 C10.33 2.65 10.66 4.3 11 6 C7.37 5.67 3.74 5.34 0 5 C0 3.35 0 1.7 0 0 Z " fill="#7FA0B1" transform="translate(123,150)"/>
<path d="M0 0 C3.96 0 7.92 0 12 0 C12 1.32 12 2.64 12 4 C9.03 4 6.06 4 3 4 C2.67 4.66 2.34 5.32 2 6 C1.34 5.67 0.68 5.34 0 5 C0 3.35 0 1.7 0 0 Z " fill="#9BB5C2" transform="translate(122,132)"/>
<path d="M0 0 C0.66 0 1.32 0 2 0 C2 0.66 2 1.32 2 2 C4.31 2 6.62 2 9 2 C9 3.65 9 5.3 9 7 C8.67 6.01 8.34 5.02 8 4 C7.34 4 6.68 4 6 4 C5.67 4.99 5.34 5.98 5 7 C4.67 6.01 4.34 5.02 4 4 C3.67 5.32 3.34 6.64 3 8 C2.01 8 1.02 8 0 8 C0 5.36 0 2.72 0 0 Z " fill="#CAC7DC" transform="translate(284,156)"/>
<path d="M0 0 C0.639375 0.33 1.27875 0.66 1.9375 1 C3.96525921 2.22866351 3.96525921 2.22866351 6.25 1.625 C6.8275 1.41875 7.405 1.2125 8 1 C8 2.65 8 4.3 8 6 C6.35 6 4.7 6 3 6 C3 5.01 3 4.02 3 3 C2.34 3 1.68 3 1 3 C1 3.99 1 4.98 1 6 C-0.32 5.67 -1.64 5.34 -3 5 C-3 3.68 -3 2.36 -3 1 C-2.01 0.67 -1.02 0.34 0 0 Z " fill="#87A6B6" transform="translate(98,150)"/>
<path d="M0 0 C1.66611905 -0.042721 3.33382885 -0.04063832 5 0 C5.33 0.33 5.66 0.66 6 1 C7.34061543 0.69728039 8.67405895 0.36162029 10 0 C10.66 0 11.32 0 12 0 C12 1.32 12 2.64 12 4 C9 4 6 4 3 4 C2.67 4.66 2.34 5.32 2 6 C1.34 6 0.68 6 0 6 C0 4.02 0 2.04 0 0 Z " fill="#88A6B6" transform="translate(50,152)"/>
<path d="M0 0 C0.99 0.33 1.98 0.66 3 1 C3 2.65 3 4.3 3 6 C1.02 6 -0.96 6 -3 6 C-3 4.68 -3 3.36 -3 2 C-3.66 2 -4.32 2 -5 2 C-5.33 3.32 -5.66 4.64 -6 6 C-6 4.35 -6 2.7 -6 1 C-4.7934375 1.0309375 -4.7934375 1.0309375 -3.5625 1.0625 C-1.06645115 1.29633621 -1.06645115 1.29633621 0 0 Z " fill="#FED0D0" transform="translate(345,240)"/>
<path d="M0 0 C0.66 0 1.32 0 2 0 C2.66 0.99 3.32 1.98 4 3 C6.05925139 3.72382467 6.05925139 3.72382467 8 4 C7.67 4.66 7.34 5.32 7 6 C3.37 6 -0.26 6 -4 6 C-3.67 4.68 -3.34 3.36 -3 2 C-2.34 2 -1.68 2 -1 2 C-0.67 1.34 -0.34 0.68 0 0 Z " fill="#E8B0D1" transform="translate(54,232)"/>
<path d="M0 0 C0 1.65 0 3.3 0 5 C-0.598125 4.773125 -1.19625 4.54625 -1.8125 4.3125 C-2.8953125 4.1578125 -2.8953125 4.1578125 -4 4 C-5.77190909 5.35444301 -5.77190909 5.35444301 -7 7 C-7 6.01 -7 5.02 -7 4 C-8.32 4 -9.64 4 -11 4 C-11 3.34 -11 2.68 -11 2 C-7.17679443 0.57741188 -4.08718695 -0.24042276 0 0 Z " fill="#E7ACD0" transform="translate(73,234)"/>
<path d="M0 0 C3.63 0 7.26 0 11 0 C11 0.99 11 1.98 11 3 C7.32589215 4.17571451 3.83070817 4.07366746 0 4 C0 2.68 0 1.36 0 0 Z " fill="#E6AACE" transform="translate(113,224)"/>
<path d="M0 0 C0.99 0.495 0.99 0.495 2 1 C3.34061543 0.69728039 4.67405895 0.36162029 6 0 C6.99 0 7.98 0 9 0 C8.67 1.65 8.34 3.3 8 5 C5.69 5 3.38 5 1 5 C0.67 3.35 0.34 1.7 0 0 Z " fill="#E4A4CB" transform="translate(76,214)"/>
<path d="M0 0 C2.64 0.33 5.28 0.66 8 1 C8 1.66 8 2.32 8 3 C8.66 3 9.32 3 10 3 C10.33 2.34 10.66 1.68 11 1 C11 2.32 11 3.64 11 5 C7.7 5 4.4 5 1 5 C0.67 3.35 0.34 1.7 0 0 Z " fill="#88A7B6" transform="translate(65,151)"/>
<path d="M0 0 C2.83967231 0 5.23735711 0.40267181 8 1 C7.67 2.32 7.34 3.64 7 5 C6.01 4.67 5.02 4.34 4 4 C3.01 5.485 3.01 5.485 2 7 C1.34 7 0.68 7 0 7 C0 4.69 0 2.38 0 0 Z " fill="#E4A3C9" transform="translate(97,234)"/>
<path d="M0 0 C0.66 0 1.32 0 2 0 C2 0.66 2 1.32 2 2 C2.66 2 3.32 2 4 2 C3.67 3.32 3.34 4.64 3 6 C2.67 5.34 2.34 4.68 2 4 C1.34 4.66 0.68 5.32 0 6 C0 5.01 0 4.02 0 3 C-0.66 3 -1.32 3 -2 3 C-1.67 3.99 -1.34 4.98 -1 6 C-3.31 6 -5.62 6 -8 6 C-7.67 4.68 -7.34 3.36 -7 2 C-7 2.99 -7 3.98 -7 5 C-6.34 5 -5.68 5 -5 5 C-4.67 4.01 -4.34 3.02 -4 2 C-2.68 2 -1.36 2 0 2 C0 1.34 0 0.68 0 0 Z " fill="#E9B5D4" transform="translate(80,222)"/>
<path d="M0 0 C3.49234244 -0.09978121 6.59437148 0.22157062 10 1 C9.67 2.32 9.34 3.64 9 5 C7.68 4.67 6.36 4.34 5 4 C5 3.34 5 2.68 5 2 C4.34 2 3.68 2 3 2 C2.67 2.66 2.34 3.32 2 4 C1.01 4 0.02 4 -1 4 C-0.67 2.68 -0.34 1.36 0 0 Z " fill="#E7ACCF" transform="translate(105,214)"/>
<path d="M0 0 C0.66 0 1.32 0 2 0 C2 0.66 2 1.32 2 2 C3.32 2 4.64 2 6 2 C6.33 3.65 6.66 5.3 7 7 C4.69 7.33 2.38 7.66 0 8 C0 5.36 0 2.72 0 0 Z " fill="#E7ADD0" transform="translate(70,197)"/>
<path d="M0 0 C1.98 0.66 3.96 1.32 6 2 C6 2.66 6 3.32 6 4 C6.66 4 7.32 4 8 4 C8.33 3.34 8.66 2.68 9 2 C9 3.32 9 4.64 9 6 C2.84765625 6.09765625 2.84765625 6.09765625 1 6 C0 5 0 5 -0.0625 2.4375 C-0.041875 1.633125 -0.02125 0.82875 0 0 Z " fill="#FFACAB" transform="translate(325,274)"/>
<path d="M0 0 C3.63 0 7.26 0 11 0 C11 1.32 11 2.64 11 4 C7.37 4 3.74 4 0 4 C0.33 3.34 0.66 2.68 1 2 C0.67 1.67 0.34 1.34 0 1 C0 0.67 0 0.34 0 0 Z " fill="#B5B1CF" transform="translate(289,193)"/>
<path d="M0 0 C2.625 0.375 2.625 0.375 5 1 C5 2.65 5 4.3 5 6 C2.03 5.505 2.03 5.505 -1 5 C-1.33 4.01 -1.66 3.02 -2 2 C-1.34 1.34 -0.68 0.68 0 0 Z " fill="#8C6E77" transform="translate(264,100)"/>
<path d="M0 0 C2.64 0 5.28 0 8 0 C8 1.98 8 3.96 8 6 C7.34 5.34 6.68 4.68 6 4 C5.34 4.66 4.68 5.32 4 6 C2.68 5.34 1.36 4.68 0 4 C0 2.68 0 1.36 0 0 Z " fill="#FEBEBE" transform="translate(277,254)"/>
<path d="M0 0 C0.33 0.66 0.66 1.32 1 2 C3.31 2 5.62 2 8 2 C8 3.32 8 4.64 8 6 C6.35 6 4.7 6 3 6 C3 5.01 3 4.02 3 3 C2.34 3 1.68 3 1 3 C1 3.99 1 4.98 1 6 C-0.32 5.67 -1.64 5.34 -3 5 C-3 4.01 -3 3.02 -3 2 C-2.34 2 -1.68 2 -1 2 C-0.67 1.34 -0.34 0.68 0 0 Z " fill="#BBB7D4" transform="translate(309,201)"/>
<path d="M0 0 C0.66 0 1.32 0 2 0 C2 0.66 2 1.32 2 2 C2.66 2 3.32 2 4 2 C3.67 3.32 3.34 4.64 3 6 C-0.04386724 6.08226668 -2.07175348 5.97608217 -5 5 C-5.33 4.01 -5.66 3.02 -6 2 C-4.35 2 -2.7 2 -1 2 C-0.67 1.34 -0.34 0.68 0 0 Z " fill="#92AEBC" transform="translate(76,140)"/>
<path d="M0 0 C3.3 0 6.6 0 10 0 C10 1.32 10 2.64 10 4 C7.03 4 4.06 4 1 4 C0.67 2.68 0.34 1.36 0 0 Z " fill="#92AEBC" transform="translate(86,132)"/>
<path d="M0 0 C0.66 0 1.32 0 2 0 C2.33 0.66 2.66 1.32 3 2 C5.02463255 2.65213292 5.02463255 2.65213292 7 3 C7 4.66666667 7 6.33333333 7 8 C5.68 7.67 4.36 7.34 3 7 C3.66 6.67 4.32 6.34 5 6 C4.34 5.67 3.68 5.34 3 5 C2.67 5.99 2.34 6.98 2 8 C1.34 8 0.68 8 0 8 C0 5.36 0 2.72 0 0 Z " fill="#74525A" transform="translate(229,112)"/>
<path d="M0 0 C1.65 0.33 3.3 0.66 5 1 C4.67 2.65 4.34 4.3 4 6 C2.35 5.67 0.7 5.34 -1 5 C-0.67 3.35 -0.34 1.7 0 0 Z " fill="#8D6E77" transform="translate(230,100)"/>
<path d="M0 0 C0.33 0.66 0.66 1.32 1 2 C3.31 2 5.62 2 8 2 C8 3.32 8 4.64 8 6 C2.25 6.125 2.25 6.125 0 5 C0 3.35 0 1.7 0 0 Z " fill="#AAA5C8" transform="translate(269,191)"/>
<path d="M0 0 C0.66 0 1.32 0 2 0 C2 0.66 2 1.32 2 2 C3.98 2 5.96 2 8 2 C7.67 3.32 7.34 4.64 7 6 C4.69 6 2.38 6 0 6 C0 4.02 0 2.04 0 0 Z " fill="#ACA7CA" transform="translate(259,181)"/>
<path d="M0 0 C1.98 0 3.96 0 6 0 C6.33 1.32 6.66 2.64 7 4 C4.50935112 4.68707555 2.62113708 5 0 5 C0 3.35 0 1.7 0 0 Z " fill="#6E93A7" transform="translate(50,161)"/>
<path d="M0 0 C2 2 2 2 2 6 C-0.31 6 -2.62 6 -5 6 C-5 4.35 -5 2.7 -5 1 C-2.625 0.375 -2.625 0.375 0 0 Z " fill="#D5D4E4" transform="translate(319,157)"/>
<path d="M0 0 C2.64 0 5.28 0 8 0 C8 1.32 8 2.64 8 4 C5.36 4 2.72 4 0 4 C0 2.68 0 1.36 0 0 Z " fill="#84A4B4" transform="translate(55,132)"/>
<path d="M0 0 C2.475 0.495 2.475 0.495 5 1 C4.67 2.65 4.34 4.3 4 6 C3.01 6 2.02 6 1 6 C0.67 6.66 0.34 7.32 0 8 C0 5.36 0 2.72 0 0 Z " fill="#795861" transform="translate(245,114)"/>
<path d="M0 0 C0.66 0 1.32 0 2 0 C2 4.29 2 8.58 2 13 C1.01 13.495 1.01 13.495 0 14 C-0.66 13.34 -1.32 12.68 -2 12 C-1.34 12 -0.68 12 0 12 C0 8.04 0 4.08 0 0 Z " fill="#FF807F" transform="translate(231,258)"/>
<path d="M0 0 C1.65 0 3.3 0 5 0 C4.67 2.31 4.34 4.62 4 7 C2.68 7 1.36 7 0 7 C-1.125 2.25 -1.125 2.25 0 0 Z " fill="#D4D2E3" transform="translate(334,156)"/>
<path d="M0 0 C0.66 0 1.32 0 2 0 C2 0.66 2 1.32 2 2 C2.99 2 3.98 2 5 2 C5.33 1.34 5.66 0.68 6 0 C6 1.98 6 3.96 6 6 C4.02 6 2.04 6 0 6 C0 4.02 0 2.04 0 0 Z " fill="#7C9DAF" transform="translate(104,140)"/>
<path d="M0 0 C2.475 0.495 2.475 0.495 5 1 C5 3.31 5 5.62 5 8 C4.34 7.67 3.68 7.34 3 7 C3 6.34 3 5.68 3 5 C2.34 5 1.68 5 1 5 C0.67 5.99 0.34 6.98 0 8 C0 5.36 0 2.72 0 0 Z " fill="#6E4B54" transform="translate(273,98)"/>
<path d="M0 0 C0.33 0.66 0.66 1.32 1 2 C3.31 2 5.62 2 8 2 C8 3.32 8 4.64 8 6 C5.36 6 2.72 6 0 6 C0 4.02 0 2.04 0 0 Z " fill="#E7ADD0" transform="translate(93,222)"/>
<path d="M0 0 C2.64 0 5.28 0 8 0 C8 1.32 8 2.64 8 4 C5.36 4 2.72 4 0 4 C0 2.68 0 1.36 0 0 Z " fill="#ABA6C9" transform="translate(303,193)"/>
<path d="M0 0 C2.97 0 5.94 0 9 0 C9 1.32 9 2.64 9 4 C7.33388095 4.042721 5.66617115 4.04063832 4 4 C3.67 3.67 3.34 3.34 3 3 C2.01 3.33 1.02 3.66 0 4 C0 2.68 0 1.36 0 0 Z " fill="#9EB6C4" transform="translate(59,142)"/>
<path d="M0 0 C2.97 0.33 5.94 0.66 9 1 C9 1.33 9 1.66 9 2 C7.02 2 5.04 2 3 2 C3.33 3.65 3.66 5.3 4 7 C2.68 7 1.36 7 0 7 C0 4.69 0 2.38 0 0 Z " fill="#FFB5B4" transform="translate(306,239)"/>
<path d="M0 0 C0.99 0 1.98 0 3 0 C3 0.99 3 1.98 3 3 C3.99 3 4.98 3 6 3 C6 3.99 6 4.98 6 6 C4.02 6 2.04 6 0 6 C0 4.02 0 2.04 0 0 Z " fill="#C8569B" transform="translate(184,233)"/>
<path d="M0 0 C2.64 0 5.28 0 8 0 C7.34 1.98 6.68 3.96 6 6 C5.38125 5.67 4.7625 5.34 4.125 5 C2.08981656 3.85806765 2.08981656 3.85806765 0 4 C0 2.68 0 1.36 0 0 Z " fill="#E6ABCF" transform="translate(116,214)"/>
<path d="M0 0 C0.66 0 1.32 0 2 0 C2.66 0.66 3.32 1.32 4 2 C5.32 2 6.64 2 8 2 C7.67 3.32 7.34 4.64 7 6 C7 5.01 7 4.02 7 3 C6.34 3 5.68 3 5 3 C5 3.99 5 4.98 5 6 C3.35 6 1.7 6 0 6 C0 4.02 0 2.04 0 0 Z " fill="#8EABBA" transform="translate(50,140)"/>
<path d="M0 0 C0.33 0.99 0.66 1.98 1 3 C1.99 3 2.98 3 4 3 C4 2.01 4 1.02 4 0 C4.66 0 5.32 0 6 0 C6 2.64 6 5.28 6 8 C5.34 8 4.68 8 4 8 C4 6.68 4 5.36 4 4 C3.01 4 2.02 4 1 4 C0.67 5.32 0.34 6.64 0 8 C0 5.36 0 2.72 0 0 Z " fill="#623E46" transform="translate(222,98)"/>
<path d="M0 0 C2.64 0 5.28 0 8 0 C8 1.32 8 2.64 8 4 C6.35 4 4.7 4 3 4 C3 3.01 3 2.02 3 1 C2.34 1 1.68 1 1 1 C0.67 1.99 0.34 2.98 0 4 C0 2.68 0 1.36 0 0 Z " fill="#FFB3B2" transform="translate(303,266)"/>
<path d="M0 0 C1.98 0 3.96 0 6 0 C5.34 1.98 4.68 3.96 4 6 C2.68 6 1.36 6 0 6 C0 4.02 0 2.04 0 0 Z " fill="#9B95BE" transform="translate(341,191)"/>
<path d="M0 0 C2.31 0 4.62 0 7 0 C7 1.65 7 3.3 7 5 C5.68 5 4.36 5 3 5 C3 4.01 3 3.02 3 2 C2.34 2 1.68 2 1 2 C0.67 2.99 0.34 3.98 0 5 C0 3.35 0 1.7 0 0 Z " fill="#D6D4E4" transform="translate(294,158)"/>
<path d="M0 0 C0.33 0.66 0.66 1.32 1 2 C3.31 2 5.62 2 8 2 C8 3.32 8 4.64 8 6 C6.35 6 4.7 6 3 6 C3 5.01 3 4.02 3 3 C2.34 3 1.68 3 1 3 C0.67 3.99 0.34 4.98 0 6 C0 4.02 0 2.04 0 0 Z " fill="#92AEBC" transform="translate(113,140)"/>
<path d="M0 0 C0.66 0 1.32 0 2 0 C3.4606285 2.64738916 4 3.89448334 4 7 C2.35 7 0.7 7 -1 7 C-0.67 4.69 -0.34 2.38 0 0 Z " fill="#9DB6C3" transform="translate(88,115)"/>
<path d="M0 0 C1.98 0 3.96 0 6 0 C5.67 0.66 5.34 1.32 5 2 C5.33 2.33 5.66 2.66 6 3 C6 3.66 6 4.32 6 5 C4.35 5 2.7 5 1 5 C0.67 3.35 0.34 1.7 0 0 Z " fill="#E4A3CA" transform="translate(65,224)"/>
<path d="M0 0 C2.31 0 4.62 0 7 0 C7 0.99 7 1.98 7 3 C6.34 3 5.68 3 5 3 C4.67 3.66 4.34 4.32 4 5 C2.68 4.67 1.36 4.34 0 4 C0 2.68 0 1.36 0 0 Z " fill="#F3D6E8" transform="translate(76,199)"/>
<path d="M0 0 C2.125 0.9375 2.125 0.9375 4 2 C3.67 3.32 3.34 4.64 3 6 C1.35 6 -0.3 6 -2 6 C-2 4.35 -2 2.7 -2 1 C-1.34 0.67 -0.68 0.34 0 0 Z " fill="#FFB4B3" transform="translate(342,254)"/>
<path d="M0 0 C0 1.65 0 3.3 0 5 C-1.98 5 -3.96 5 -6 5 C-6 4.01 -6 3.02 -6 2 C-2.25 0 -2.25 0 0 0 Z " fill="#FF9E9C" transform="translate(337,255)"/>
<path d="M0 0 C2.31 0 4.62 0 7 0 C6.67 1.32 6.34 2.64 6 4 C4.35 4 2.7 4 1 4 C0.67 2.68 0.34 1.36 0 0 Z " fill="#A5A0C5" transform="translate(330,193)"/>
<path d="M0 0 C1.67542976 0.28604898 3.34385343 0.61781233 5 1 C5 1.99 5 2.98 5 4 C5.66 4.33 6.32 4.66 7 5 C6.01 5 5.02 5 4 5 C3.67 4.67 3.34 4.34 3 4 C2.01 4.33 1.02 4.66 0 5 C-0.5625 3.0625 -0.5625 3.0625 -1 1 C-0.67 0.67 -0.34 0.34 0 0 Z " fill="#DEDDEA" transform="translate(340,158)"/>
<path d="M0 0 C1.98 0 3.96 0 6 0 C5.67 1.32 5.34 2.64 5 4 C3.35 4 1.7 4 0 4 C0 2.68 0 1.36 0 0 Z " fill="#FFACAB" transform="translate(331,266)"/>
<path d="M0 0 C0 0.66 0 1.32 0 2 C0.66 2 1.32 2 2 2 C1.67 3.32 1.34 4.64 1 6 C-0.65 6 -2.3 6 -4 6 C-4 4.35 -4 2.7 -4 1 C-2 0 -2 0 0 0 Z " fill="#FFB8B7" transform="translate(344,264)"/>
<path d="M0 0 C1.98 0.495 1.98 0.495 4 1 C4 2.32 4 3.64 4 5 C2.35 5 0.7 5 -1 5 C-0.67 3.35 -0.34 1.7 0 0 Z " fill="#FEF5F5" transform="translate(223,249)"/>
<path d="M0 0 C0.66 0 1.32 0 2 0 C2 0.66 2 1.32 2 2 C2.66 2 3.32 2 4 2 C3.67 3.32 3.34 4.64 3 6 C1.35 5.67 -0.3 5.34 -2 5 C-1.34 3.35 -0.68 1.7 0 0 Z " fill="#9E99C0" transform="translate(340,181)"/>
<path d="M0 0 C2.31 0 4.62 0 7 0 C7 1.33333333 7 2.66666667 7 4 C4.69 4 2.38 4 0 4 C0 2.68 0 1.36 0 0 Z " fill="#B5B1D0" transform="translate(338,173)"/>
<path d="M0 0 C1.32 0 2.64 0 4 0 C4 1.98 4 3.96 4 6 C2.68 6 1.36 6 0 6 C0 4.02 0 2.04 0 0 Z " fill="#6F94A7" transform="translate(141,140)"/>
<path d="M0 0 C1.65 0 3.3 0 5 0 C5 1.98 5 3.96 5 6 C4.67 4.68 4.34 3.36 4 2 C3.01 2.66 2.02 3.32 1 4 C1.66 4.66 2.32 5.32 3 6 C1.68 5.67 0.36 5.34 -1 5 C-0.67 3.35 -0.34 1.7 0 0 Z " fill="#74515A" transform="translate(238,114)"/>
<path d="M0 0 C2.64 0 5.28 0 8 0 C7.67 1.32 7.34 2.64 7 4 C6.38125 3.814375 5.7625 3.62875 5.125 3.4375 C2.95839822 2.76313824 2.95839822 2.76313824 1 4 C0.67 2.68 0.34 1.36 0 0 Z " fill="#FFBAB9" transform="translate(291,266)"/>
<path d="M0 0 C1.2065625 0.0309375 1.2065625 0.0309375 2.4375 0.0625 C2.4375 1.3825 2.4375 2.7025 2.4375 4.0625 C0.7875 4.3925 -0.8625 4.7225 -2.5625 5.0625 C-3.125 3.125 -3.125 3.125 -3.5625 1.0625 C-2.5625 0.0625 -2.5625 0.0625 0 0 Z " fill="#E4A3CA" transform="translate(109.5625,223.9375)"/>
<path d="M0 0 C1.66666667 0 3.33333333 0 5 0 C5 1.65 5 3.3 5 5 C3.35 5.33 1.7 5.66 0 6 C0 4.02 0 2.04 0 0 Z " fill="#E9B5D4" transform="translate(50,213)"/>
<path d="M0 0 C1.32 0 2.64 0 4 0 C4.33 1.65 4.66 3.3 5 5 C3.02 5 1.04 5 -1 5 C-0.67 3.35 -0.34 1.7 0 0 Z " fill="#A9A4C8" transform="translate(283,192)"/>
<path d="M0 0 C0.33 0 0.66 0 1 0 C2.33583899 4.84241633 3.25328119 8.93437617 3 14 C2.34 14 1.68 14 1 14 C1 12.02 1 10.04 1 8 C0.34 8 -0.32 8 -1 8 C-1.33 7.01 -1.66 6.02 -2 5 C-1.34 5 -0.68 5 0 5 C0 3.35 0 1.7 0 0 Z " fill="#2B6480" transform="translate(121,142)"/>
<path d="M0 0 C2.64 0 5.28 0 8 0 C8 1.32 8 2.64 8 4 C5.69 4 3.38 4 1 4 C1.66 3.67 2.32 3.34 3 3 C3 2.34 3 1.68 3 1 C2.01 0.67 1.02 0.34 0 0 Z " fill="#98B2C0" transform="translate(126,142)"/>
<path d="M0 0 C1.98 0.495 1.98 0.495 4 1 C4 1.66 4 2.32 4 3 C3.01 3.495 3.01 3.495 2 4 C2.66 4.66 3.32 5.32 4 6 C2.35 5.67 0.7 5.34 -1 5 C-0.67 3.35 -0.34 1.7 0 0 Z " fill="#654149" transform="translate(264,114)"/>
<path d="M0 0 C1.32 0 2.64 0 4 0 C3.67 1.65 3.34 3.3 3 5 C1.68 4.67 0.36 4.34 -1 4 C-0.67 2.68 -0.34 1.36 0 0 Z " fill="#FEF1F1" transform="translate(233,252)"/>
<path d="M0 0 C1.32 0 2.64 0 4 0 C3.67 1.65 3.34 3.3 3 5 C1.68 4.67 0.36 4.34 -1 4 C-0.67 2.68 -0.34 1.36 0 0 Z " fill="#FEF2F2" transform="translate(212,252)"/>
<path d="M0 0 C1.32 0 2.64 0 4 0 C4 1.32 4 2.64 4 4 C1.36 4 -1.28 4 -4 4 C-3.67 3.01 -3.34 2.02 -3 1 C-3 1.66 -3 2.32 -3 3 C-2.34 3 -1.68 3 -1 3 C-0.67 2.01 -0.34 1.02 0 0 Z " fill="#E9B4D4" transform="translate(58,224)"/>
<path d="M0 0 C0.99 0 1.98 0 3 0 C3.33 1.65 3.66 3.3 4 5 C2.35 5.33 0.7 5.66 -1 6 C-0.67 4.02 -0.34 2.04 0 0 Z " fill="#89A7B7" transform="translate(111,132)"/>
<path d="M0 0 C1.32 0 2.64 0 4 0 C4 0.99 4 1.98 4 3 C3.01 3 2.02 3 1 3 C1 3.66 1 4.32 1 5 C1.99 5.33 2.98 5.66 4 6 C2.68 6 1.36 6 0 6 C-0.38218767 4.34385343 -0.71395102 2.67542976 -1 1 C-0.67 0.67 -0.34 0.34 0 0 Z " fill="#664149" transform="translate(343,100)"/>
<path d="M0 0 C0.99 0 1.98 0 3 0 C3 1.98 3 3.96 3 6 C1.68 6 0.36 6 -1 6 C-0.67 4.02 -0.34 2.04 0 0 Z " fill="#B1ACCD" transform="translate(313,173)"/>
<path d="M0 0 C1.32 0 2.64 0 4 0 C4 0.99 4 1.98 4 3 C3.01 3.33 2.02 3.66 1 4 C1.66 4.66 2.32 5.32 3 6 C1.68 5.67 0.36 5.34 -1 5 C-0.67 3.35 -0.34 1.7 0 0 Z " fill="#623D45" transform="translate(289,100)"/>
<path d="M0 0 C0 1.65 0 3.3 0 5 C-1.65 5 -3.3 5 -5 5 C-5 3.68 -5 2.36 -5 1 C-2 0 -2 0 0 0 Z " fill="#FFB1B0" transform="translate(286,265)"/>
<path d="M0 0 C0.99 0.33 1.98 0.66 3 1 C3 2.32 3 3.64 3 5 C1.35 5 -0.3 5 -2 5 C-1.34 3.35 -0.68 1.7 0 0 Z " fill="#E098C3" transform="translate(92,234)"/>
<path d="M0 0 C0 1.32 0 2.64 0 4 C-2.31 3.67 -4.62 3.34 -7 3 C-7 2.34 -7 1.68 -7 1 C-4.53721199 -0.231394 -2.7204945 -0.07159196 0 0 Z " fill="#A5A0C5" transform="translate(322,183)"/>
<path d="M0 0 C0 1.32 0 2.64 0 4 C-2.31 3.67 -4.62 3.34 -7 3 C-7 2.34 -7 1.68 -7 1 C-4.53721199 -0.231394 -2.7204945 -0.07159196 0 0 Z " fill="#769AAC" transform="translate(134,132)"/>
<path d="M0 0 C0.99 0 1.98 0 3 0 C3.33 1.32 3.66 2.64 4 4 C2.02 4.99 2.02 4.99 0 6 C0 4.02 0 2.04 0 0 Z " fill="#E8D7E4" transform="translate(223,113)"/>
<path d="M0 0 C1.65 0 3.3 0 5 0 C5 0.66 5 1.32 5 2 C6.65 2 8.3 2 10 2 C10 2.33 10 2.66 10 3 C5.545 3.495 5.545 3.495 1 4 C0.67 2.68 0.34 1.36 0 0 Z " fill="#D7C4D0" transform="translate(300,97)"/>
<path d="M0 0 C0.66 0 1.32 0 2 0 C2.33 1.65 2.66 3.3 3 5 C1.02 5 -0.96 5 -3 5 C-1.625 2.5 -1.625 2.5 0 0 Z " fill="#DF90C0" transform="translate(83,234)"/>
<path d="M0 0 C1.98 0 3.96 0 6 0 C6 0.99 6 1.98 6 3 C4.02 3 2.04 3 0 3 C0 2.01 0 1.02 0 0 Z " fill="#CA5C9E" transform="translate(175,223)"/>
<path d="M0 0 C2.31 0 4.62 0 7 0 C7 0.99 7 1.98 7 3 C4.69 3 2.38 3 0 3 C0 2.01 0 1.02 0 0 Z " fill="#EDC0DB" transform="translate(95,215)"/>
<path d="M0 0 C1.98 0 3.96 0 6 0 C5.67 1.32 5.34 2.64 5 4 C4.34 4 3.68 4 3 4 C3 3.34 3 2.68 3 2 C2.34 2 1.68 2 1 2 C0.67 2.66 0.34 3.32 0 4 C0 2.68 0 1.36 0 0 Z " fill="#E8B1D2" transform="translate(62,214)"/>
<path d="M0 0 C0 1.98 0 3.96 0 6 C-0.99 6 -1.98 6 -3 6 C-3 5.34 -3 4.68 -3 4 C-3.66 4 -4.32 4 -5 4 C-4.67 3.01 -4.34 2.02 -4 1 C-1 0 -1 0 0 0 Z " fill="#F3D7E9" transform="translate(71,198)"/>
<path d="M0 0 C3 0 3 0 4.6875 1.5 C5.120625 1.995 5.55375 2.49 6 3 C5.67 3.99 5.34 4.98 5 6 C4.34 6 3.68 6 3 6 C0 2.53846154 0 2.53846154 0 0 Z " fill="#675E9C" transform="translate(220,177)"/>
<path d="M0 0 C0.66 0 1.32 0 2 0 C4 2 4 2 4 5 C2.35 5 0.7 5 -1 5 C-0.67 3.35 -0.34 1.7 0 0 Z " fill="#5B849A" transform="translate(78,151)"/>
<path d="M0 0 C1.65 0 3.3 0 5 0 C4 3 4 3 2 6 C1.34 6 0.68 6 0 6 C0 4.02 0 2.04 0 0 Z " fill="#94AFBE" transform="translate(50,152)"/>
<path d="M0 0 C0.99 0.33 1.98 0.66 3 1 C2.67 2.98 2.34 4.96 2 7 C1.01 7.33 0.02 7.66 -1 8 C-1.33 5.69 -1.66 3.38 -2 1 C-1.34 0.67 -0.68 0.34 0 0 Z " fill="#185775" transform="translate(111,138)"/>
<path d="M0 0 C0.99 0 1.98 0 3 0 C3.33 1.65 3.66 3.3 4 5 C2.68 5.33 1.36 5.66 0 6 C0 4.02 0 2.04 0 0 Z " fill="#FFB7B6" transform="translate(309,276)"/>
<path d="M0 0 C0.99 0 1.98 0 3 0 C3.33 1.65 3.66 3.3 4 5 C2.68 4.67 1.36 4.34 0 4 C0 2.68 0 1.36 0 0 Z " fill="#FF8D8C" transform="translate(323,255)"/>
<path d="M0 0 C1.98 0 3.96 0 6 0 C6 0.99 6 1.98 6 3 C4.35 3 2.7 3 1 3 C0.67 2.01 0.34 1.02 0 0 Z " fill="#CC60A1" transform="translate(165,230)"/>
<path d="M0 0 C1.98 0 3.96 0 6 0 C6 0.99 6 1.98 6 3 C4.35 3 2.7 3 1 3 C0.67 2.01 0.34 1.02 0 0 Z " fill="#CA5A9D" transform="translate(165,223)"/>
<path d="M0 0 C0.99 0.33 1.98 0.66 3 1 C3 2.32 3 3.64 3 5 C1.02 5 -0.96 5 -3 5 C-2.67 4.01 -2.34 3.02 -2 2 C-1.34 2 -0.68 2 0 2 C0 1.34 0 0.68 0 0 Z " fill="#E39FC7" transform="translate(83,200)"/>
<path d="M0 0 C0.66 0 1.32 0 2 0 C1.67 1.98 1.34 3.96 1 6 C0.01 6 -0.98 6 -2 6 C-2 4.68 -2 3.36 -2 2 C-1.34 2 -0.68 2 0 2 C0 1.34 0 0.68 0 0 Z " fill="#AEA9CB" transform="translate(306,181)"/>
<path d="M0 0 C1.98 0.66 3.96 1.32 6 2 C5.67 2.99 5.34 3.98 5 5 C3.33333333 5 1.66666667 5 0 5 C0 3.35 0 1.7 0 0 Z " fill="#BBB8D4" transform="translate(290,182)"/>
<path d="M0 0 C1.98 0 3.96 0 6 0 C5.34 1.32 4.68 2.64 4 4 C3.34 4 2.68 4 2 4 C2 3.34 2 2.68 2 2 C1.34 2 0.68 2 0 2 C0 1.34 0 0.68 0 0 Z " fill="#E3E2ED" transform="translate(221,175)"/>
</svg>
