<?xml version="1.0" encoding="UTF-8"?>
<svg version="1.1" xmlns="http://www.w3.org/2000/svg" width="400" height="400">
<path d="M0 0 C132 0 264 0 400 0 C400 132 400 264 400 400 C268 400 136 400 0 400 C0 268 0 136 0 0 Z " fill="#EEE8F7" transform="translate(0,0)"/>
<path d="M0 0 C1.01689104 0.00075944 2.03378209 0.00151888 3.08148801 0.00230134 C4.25240763 -0.00168076 5.42332724 -0.00566286 6.62972927 -0.00976562 C7.92737127 -0.00393994 9.22501326 0.00188574 10.56197774 0.00788796 C11.94551278 0.00701653 13.3290475 0.0052667 14.71258044 0.00270963 C18.52763086 -0.00178022 22.3425698 0.00626211 26.15760601 0.01626575 C30.26667542 0.0248745 34.37573816 0.02198192 38.48481405 0.0204612 C45.6084471 0.01941071 52.73204361 0.02570439 59.85566747 0.03693688 C70.15532269 0.05316678 80.45496018 0.05839731 90.7546268 0.06091286 C107.46372573 0.06529392 124.17280517 0.07861413 140.88189352 0.09751809 C157.11659304 0.11586628 173.35128728 0.13002797 189.58599508 0.13853371 C191.08617219 0.13932188 191.08617219 0.13932188 192.6166559 0.14012598 C197.63377847 0.14273598 202.65090107 0.14526342 207.66802371 0.14774978 C249.31322106 0.16849506 290.9583946 0.20428081 332.6035732 0.24839699 C332.6035732 16.74839699 332.6035732 33.24839699 332.6035732 50.24839699 C328.6035732 52.24839699 324.6035732 54.24839699 320.6035732 56.24839699 C320.9335732 56.90839699 321.2635732 57.56839699 321.6035732 58.24839699 C320.1495107 58.68152199 320.1495107 58.68152199 318.6660732 59.12339699 C315.49693117 59.89054381 315.49693117 59.89054381 314.6035732 62.24839699 C312.67779195 63.02964699 312.67779195 63.02964699 310.2910732 63.74839699 C307.21178692 64.6849072 304.46685562 65.78455118 301.6035732 67.24839699 C299.61136764 67.93800661 297.61251714 68.60918756 295.6035732 69.24839699 C295.6035732 69.90839699 295.6035732 70.56839699 295.6035732 71.24839699 C293.6235732 71.57839699 291.6435732 71.90839699 289.6035732 72.24839699 C290.68447753 70.37199566 291.76841727 68.49734275 292.8535732 66.62339699 C293.75849508 65.05718606 293.75849508 65.05718606 294.6816982 63.45933449 C296.56200525 60.31784589 298.56283145 57.28724699 300.6035732 54.24839699 C299.5927065 54.3893882 298.5818398 54.53037941 297.54034078 54.67564309 C279.98826611 57.11707883 262.47197574 59.52665337 244.8120693 61.04673684 C241.08969332 61.38663099 237.3781129 61.81121435 233.6660732 62.24839699 C232.44017477 62.39277199 231.21427633 62.53714699 229.95122945 62.68589699 C226.3532362 63.13354429 222.76989712 63.66533303 219.18316305 64.19517434 C212.13059919 65.20510109 205.07204291 65.96829267 197.98247945 66.66245949 C184.68035074 68.00313009 171.41092865 69.54849847 158.14181173 71.18089211 C151.86169847 71.95267289 145.58028562 72.71373256 139.2988857 73.47495949 C137.4220384 73.70251931 137.4220384 73.70251931 135.50727499 73.93467629 C123.98143596 75.32925072 112.45143238 76.68491837 100.9160732 77.99839699 C100.02377004 78.10002144 99.13146688 78.20164589 98.21212423 78.30634987 C85.35860098 79.76423004 72.49669957 81.10238512 59.61260641 82.26109231 C52.82140657 82.88196864 46.0991397 83.71972596 39.35308492 84.71543801 C32.96306412 85.62372134 26.55469387 86.36989162 20.14312398 87.10826027 C17.84150707 87.37479429 15.54094525 87.64946609 13.24029195 87.92417824 C5.66675442 88.80932552 -1.75796608 89.47663785 -9.3964268 89.24839699 C-7.58347753 86.52897309 -5.73167462 84.50580322 -3.3964268 82.24839699 C-4.0564268 81.62964699 -4.7164268 81.01089699 -5.3964268 80.37339699 C-7.3964268 78.24839699 -7.3964268 78.24839699 -7.3964268 76.24839699 C-6.7364268 76.24839699 -6.0764268 76.24839699 -5.3964268 76.24839699 C-5.3964268 75.58839699 -5.3964268 74.92839699 -5.3964268 74.24839699 C-4.10409073 72.87528992 -2.77205534 71.53804875 -1.3964268 70.24839699 C-2.2626768 70.68152199 -3.1289268 71.11464699 -4.0214268 71.56089699 C-7.3964268 72.24839699 -7.3964268 72.24839699 -9.1308018 71.37339699 C-10.7714268 70.06089699 -10.7714268 70.06089699 -13.3964268 67.24839699 C-13.3964268 66.25839699 -13.3964268 65.26839699 -13.3964268 64.24839699 C-14.3864268 63.58839699 -15.3764268 62.92839699 -16.3964268 62.24839699 C-16.7089268 58.74839699 -16.7089268 58.74839699 -16.3964268 55.24839699 C-15.7364268 54.58839699 -15.0764268 53.92839699 -14.3964268 53.24839699 C-14.7264268 52.58839699 -15.0564268 51.92839699 -15.3964268 51.24839699 C-13.4164268 50.75339699 -13.4164268 50.75339699 -11.3964268 50.24839699 C-11.7264268 49.58839699 -12.0564268 48.92839699 -12.3964268 48.24839699 C-10.06309346 45.91506366 -7.72976013 43.58173033 -5.3964268 41.24839699 C-9.52394129 41.85538442 -12.72854159 43.28650491 -16.3964268 45.24839699 C-19.3964268 41.49839699 -19.3964268 41.49839699 -19.3964268 39.24839699 C-18.0214268 37.62339699 -18.0214268 37.62339699 -16.3964268 36.24839699 C-15.7364268 36.24839699 -15.0764268 36.24839699 -14.3964268 36.24839699 C-14.0664268 34.92839699 -13.7364268 33.60839699 -13.3964268 32.24839699 C-12.7364268 32.24839699 -12.0764268 32.24839699 -11.3964268 32.24839699 C-11.0664268 31.25839699 -10.7364268 30.26839699 -10.3964268 29.24839699 C-9.06309346 27.91506366 -7.72976013 26.58173033 -6.3964268 25.24839699 C-5.39074437 23.58515298 -4.38977881 21.91903446 -3.3964268 20.24839699 C-2.7364268 19.91839699 -2.0764268 19.58839699 -1.3964268 19.24839699 C-1.9120518 18.52652199 -2.4276768 17.80464699 -2.9589268 17.06089699 C-4.65621529 13.74011516 -4.29350159 12.74698867 -3.3964268 9.24839699 C-3.76499543 7.01672514 -3.76499543 7.01672514 -4.3964268 5.24839699 C-3.7364268 5.24839699 -3.0764268 5.24839699 -2.3964268 5.24839699 C-2.3964268 4.58839699 -2.3964268 3.92839699 -2.3964268 3.24839699 C-3.0564268 2.91839699 -3.7164268 2.58839699 -4.3964268 2.24839699 C-2.3964268 0.24839699 -2.3964268 0.24839699 0 0 Z M-20.3964268 42.24839699 C-19.7364268 42.24839699 -19.0764268 42.24839699 -18.3964268 42.24839699 C-18.7264268 42.90839699 -19.0564268 43.56839699 -19.3964268 44.24839699 C-19.7264268 43.58839699 -20.0564268 42.92839699 -20.3964268 42.24839699 Z M-8.3964268 79.24839699 C-7.7364268 79.24839699 -7.0764268 79.24839699 -6.3964268 79.24839699 C-6.7264268 79.90839699 -7.0564268 80.56839699 -7.3964268 81.24839699 C-7.7264268 80.58839699 -8.0564268 79.92839699 -8.3964268 79.24839699 Z " fill="#EBEAF8" transform="translate(67.39642679691315,-0.24839699268341064)"/>
<path d="M0 0 C-1.66299414 4.86473573 -4.35402153 8.90059874 -7.125 13.1875 C-12.14081814 21.03626212 -17.06563925 28.9360828 -21.9375 36.875 C-23.30462959 39.10159806 -24.67181679 41.32816074 -26.0390625 43.5546875 C-27.03728027 45.18035645 -27.03728027 45.18035645 -28.05566406 46.83886719 C-30.96335135 51.56623221 -33.88738981 56.28340312 -36.8125 61 C-42.58307374 70.30815525 -48.30168998 79.64746311 -54 89 C-65.31136326 88.40754512 -76.46244786 87.17023537 -87.6875 85.6875 C-89.43169414 85.46064179 -91.1759166 85.23400117 -92.92016602 85.00756836 C-103.51027738 83.62586517 -114.08273747 82.14321121 -124.64916992 80.59057617 C-137.46811762 78.73726751 -150.32617418 77.19297245 -163.18045044 75.60778809 C-176.20801732 73.99971058 -189.2131496 72.31991831 -202.19807434 70.39372253 C-209.42081294 69.33584335 -216.64722319 68.43867587 -223.90234375 67.63671875 C-238.69210622 65.96399623 -253.43787373 63.99165262 -268.1875 62 C-272.04289762 61.48157 -275.89838652 60.96382687 -279.75393677 60.4465332 C-282.2570783 60.11025149 -284.76007232 59.77286976 -287.26290894 59.43432617 C-293.10778873 58.64556114 -298.95364944 57.87476651 -304.80712891 57.15234375 C-305.8647493 57.02029541 -306.92236969 56.88824707 -308.01203918 56.75219727 C-309.9741318 56.50864386 -311.9369021 56.27046189 -313.9004364 56.03881836 C-322.35989407 54.98343057 -322.35989407 54.98343057 -326 53 C-327.63520187 50.83114586 -328.97791575 48.83488934 -330.3125 46.5 C-330.67150391 45.90574219 -331.03050781 45.31148437 -331.40039062 44.69921875 C-334 40.31206845 -334 40.31206845 -334 38 C-317.36847564 35.96247261 -300.72404947 34.05093254 -284.0743103 32.16937256 C-273.39896473 30.96255264 -262.72612631 29.74461288 -252.0625 28.4375 C-244.21764562 27.47818562 -236.36636595 26.60549281 -228.50683594 25.77563477 C-208.75464176 23.68946861 -189.03282747 21.3654212 -169.3125 19 C-168.57765255 18.91186916 -167.8428051 18.82373833 -167.08568954 18.73293686 C-160.58603648 17.95330609 -154.08648512 17.17282987 -147.58705139 16.39137268 C-132.3947967 14.56495437 -117.19998418 12.76103377 -102 11 C-101.09443359 10.89494141 -100.18886719 10.78988281 -99.25585938 10.68164062 C-89.86145299 9.59739078 -80.4607627 8.63125626 -71.04174805 7.78466797 C-59.18177932 6.69615848 -47.36520801 5.17417058 -35.546875 3.7109375 C-34.66266373 3.60162903 -33.77845245 3.49232056 -32.8674469 3.37969971 C-27.41365279 2.70541081 -27.41365279 2.70541081 -21.96044922 2.02636719 C-19.26042706 1.68927984 -16.55995516 1.3560208 -13.859375 1.0234375 C-13.0416864 0.92034271 -12.2239978 0.81724792 -11.38153076 0.71102905 C-7.5618258 0.2438033 -3.85752885 -0.12677779 0 0 Z " fill="#FEA602" transform="translate(368,54)"/>
<path d="M0 0 C9.10282947 0.55792638 18.09348722 1.43027779 27.125 2.6875 C28.38143311 2.85830078 29.63786621 3.02910156 30.93237305 3.20507812 C35.28907477 3.7974206 39.64454138 4.39859626 44 5 C51.27046569 6.00268346 58.54129639 7.00268192 65.8125 8 C66.75450256 8.12939972 67.69650513 8.25879944 68.66705322 8.39212036 C81.60765754 10.16711736 94.55541238 11.83315605 107.52700806 13.36425781 C117.84552763 14.58405149 128.12460432 15.98912995 138.40405273 17.50048828 C148.14321132 18.9164137 157.90216539 20.09715035 167.67510986 21.24899292 C177.10094627 22.36329336 186.49269518 23.62107869 195.875 25.0625 C205.78836633 26.58369528 215.70341089 27.7945077 225.67651367 28.84912109 C238.82597006 30.26022592 251.90950744 32.12706801 265 34 C263.53816755 37.80745249 261.85882642 40.91166092 259.5 44.25 C258.8915625 45.12140625 258.283125 45.9928125 257.65625 46.890625 C255.70322159 49.37797251 254.78052528 49.87960902 251.68432617 50.35717773 C250.73017822 50.46489502 249.77603027 50.5726123 248.79296875 50.68359375 C247.73013672 50.80669922 246.66730469 50.92980469 245.57226562 51.05664062 C244.45529297 51.18232422 243.33832031 51.30800781 242.1875 51.4375 C234.59107206 52.29876268 227.03237132 53.26235977 219.48022461 54.45336914 C213.45000222 55.40052227 207.41055734 56.28627468 201.37182617 57.17724609 C199.92086485 57.39163872 198.47001724 57.60680241 197.01928711 57.82275391 C187.39162403 59.25575898 177.75800854 60.56471188 168.09567261 61.74304199 C149.87469205 63.97718241 131.6479049 66.22914281 113.5 69 C103.11211718 70.58150948 92.70738468 72.001949 82.28710938 73.35083008 C80.58332057 73.57148417 78.87970002 73.79344227 77.17626953 74.0168457 C67.12462306 75.33206114 57.12557965 76.42142481 47 77 C40.0176276 66.33061084 33.23880889 55.56096853 26.62060547 44.66259766 C23.38671212 39.34942489 20.13152349 34.04932139 16.875 28.75 C16.18962158 27.63375244 15.50424316 26.51750488 14.7980957 25.36743164 C10.43999543 18.28716093 6.00215413 11.27190398 1.40625 4.34375 C0 2 0 2 0 0 Z " fill="#FE6462" transform="translate(46,112)"/>
<path d="M0 0 C-1.33188741 3.56454713 -2.91816049 6.71513246 -4.90625 9.95703125 C-5.76657837 11.36553345 -5.76657837 11.36553345 -6.64428711 12.80249023 C-7.25667236 13.79579346 -7.86905762 14.78909668 -8.5 15.8125 C-9.13365479 16.84640869 -9.76730957 17.88031738 -10.42016602 18.94555664 C-14.67539546 25.87842761 -18.95907346 32.79327011 -23.2890625 39.6796875 C-25.46208773 43.13608769 -27.61910468 46.60223185 -29.7734375 50.0703125 C-30.43996338 51.141604 -31.10648926 52.21289551 -31.79321289 53.31665039 C-33.10918673 55.4319777 -34.42355712 57.54830365 -35.73608398 59.66577148 C-36.93744681 61.59421225 -38.1494191 63.51609733 -39.37353516 65.43017578 C-40.37967307 67.01987973 -41.35510031 68.63006916 -42.27880859 70.26904297 C-43.44921875 72.21484375 -43.44921875 72.21484375 -46 75 C-52.87958597 75.63546414 -59.35016953 74.14070828 -66.06884766 72.75268555 C-67.25697052 72.51366516 -68.44509338 72.27464478 -69.66921997 72.02838135 C-72.91044746 71.37472718 -76.15013543 70.7142376 -79.38931704 70.05056739 C-82.79825664 69.35379585 -86.20896386 68.66578427 -89.61947632 67.97676086 C-95.35168299 66.81744687 -101.08273433 65.65256875 -106.81298828 64.48364258 C-114.84967796 62.84422426 -122.88828864 61.21439471 -130.92736745 59.58673799 C-142.33778984 57.27597946 -153.74721839 54.96031417 -165.15478516 52.63549805 C-166.25137451 52.41251541 -167.34796387 52.18953278 -168.4777832 51.95979309 C-170.57424628 51.53198325 -172.66975405 51.0994605 -174.76419449 50.6618557 C-177.10033566 50.18401847 -179.44191972 49.73252989 -181.78643417 49.29763222 C-183.03925312 49.05538603 -184.29207207 48.81313984 -185.58285522 48.56355286 C-186.72549017 48.3512695 -187.86812511 48.13898615 -189.04538536 47.92026997 C-193.05406719 46.67169107 -194.6776093 44.80311361 -196.73632812 41.24414062 C-197.2690332 40.16422852 -197.2690332 40.16422852 -197.8125 39.0625 C-198.42061523 37.98838867 -198.42061523 37.98838867 -199.04101562 36.89257812 C-200.85604282 33.61215209 -202.12925887 30.64790068 -203 27 C-194.97938988 25.91501154 -186.95849943 24.83210641 -178.9375 23.75 C-177.74264984 23.58871613 -176.54779968 23.42743225 -175.31674194 23.26126099 C-161.82085168 21.4404923 -148.32378288 19.64032 -134.8125 17.9375 C-122.30712881 16.35557269 -109.84450879 14.52584971 -97.37704468 12.67260742 C-83.8418014 10.66423828 -70.29232383 8.8361378 -56.71514893 7.13568115 C-43.08484256 5.42794378 -29.48672295 3.54153539 -15.89892578 1.52319336 C-15.2003949 1.42073303 -14.50186401 1.31827271 -13.78216553 1.21270752 C-11.9082479 0.93774935 -10.03491023 0.65884663 -8.16162109 0.37963867 C-5.39717383 0.04769153 -2.7791736 -0.07678178 0 0 Z " fill="#BC5191" transform="translate(299,165)"/>
<path d="M0 0 C7.4123081 0.54798174 14.47303471 1.85159346 21.71484375 3.48828125 C34.52816656 6.30637945 47.38011581 8.89214113 60.25390625 11.41796875 C62.24303719 11.8089835 64.23216273 12.20002574 66.22128296 12.59109497 C74.42301357 14.20240328 82.62568454 15.80889353 90.82885742 17.4128418 C95.91926536 18.40840146 101.00888733 19.40790145 106.09806633 20.40972328 C108.01172936 20.78559206 109.92569021 21.15994817 111.83996773 21.53267479 C130.85505132 25.2352557 130.85505132 25.2352557 140 28 C138.75522849 31.17909138 137.47431878 34.06337258 135.65234375 36.953125 C135.21212891 37.654375 134.77191406 38.355625 134.31835938 39.078125 C133.86267578 39.79484375 133.40699219 40.5115625 132.9375 41.25 C132.47794922 41.9821875 132.01839844 42.714375 131.54492188 43.46875 C128.15472274 48.84527726 128.15472274 48.84527726 127 50 C125.37457841 50.33675597 123.7373967 50.61683111 122.09765625 50.875 C121.00332275 51.0512793 119.90898926 51.22755859 118.78149414 51.40917969 C117.55422607 51.60415039 116.32695801 51.79912109 115.0625 52 C97.96229933 54.77527318 80.92152545 57.86727384 63.87719727 60.96484375 C62.81472778 61.15749817 61.7522583 61.35015259 60.65759277 61.54864502 C58.65476387 61.91195089 56.65214547 62.27641997 54.64978027 62.64227295 C49.7760253 63.52654577 44.90929883 64.33985527 40 65 C35.41318785 58.86271613 31.4095349 52.45577021 27.5 45.875 C22.79927293 37.96263828 18.00359133 30.11655721 13.125 22.3125 C12.50689453 21.32169434 11.88878906 20.33088867 11.25195312 19.31005859 C7.95868896 14.05240686 4.59860472 8.86416476 1.06201172 3.76635742 C0 2 0 2 0 0 Z " fill="#5B528F" transform="translate(110,216)"/>
<path d="M0 0 C-1.28028761 3.41222195 -2.75515271 6.43207704 -4.6875 9.51953125 C-5.48172363 10.79123169 -5.48172363 10.79123169 -6.29199219 12.08862305 C-7.13745605 13.43694214 -7.13745605 13.43694214 -8 14.8125 C-8.5765332 15.75971924 -9.15306641 16.70693848 -9.74707031 17.68286133 C-12.32440631 21.89077862 -14.8603849 25.96693532 -18.046875 29.7421875 C-28.78691138 43.04754321 -26.12743045 59.68890271 -26 76 C-38.54 76 -51.08 76 -64 76 C-63.9175 70.781875 -63.835 65.56375 -63.75 60.1875 C-63.88124217 45.81374809 -66.04799218 36.26726243 -75.47851562 24.97607422 C-78.09853982 21.57323792 -80.01026859 17.79224342 -82 14 C-72.85128454 11.79675513 -63.67817974 9.94672834 -54.4140625 8.30078125 C-53.05933637 8.05855985 -51.70463099 7.81622242 -50.34994507 7.57377625 C-47.53855482 7.07151974 -44.72671235 6.5718934 -41.91455078 6.07397461 C-38.32610374 5.43820275 -34.73926501 4.79379896 -31.15275002 4.14722919 C-28.36698371 3.64634243 -25.58025335 3.15099416 -22.79322433 2.65718651 C-20.83233633 2.30847675 -18.87240773 1.95438559 -16.9125061 1.60017395 C-11.20777974 0.59825134 -5.79664475 -0.3159563 0 0 Z " fill="#04425E" transform="translate(234,270)"/>
<path d="M0 0 C21.45 0 42.9 0 65 0 C65 2.33333333 65 4.66666667 65 7 C65.495 8.485 65.495 8.485 66 10 C65.34 10 64.68 10 64 10 C64.165 10.598125 64.33 11.19625 64.5 11.8125 C65 14 65 14 65 17 C65.99 18.485 65.99 18.485 67 20 C66.4225 20.185625 65.845 20.37125 65.25 20.5625 C62.39805879 22.38457355 61.50139868 24.37604367 59.94140625 27.3125 C58.86823909 29.23618553 57.74687112 30.65014504 56 32 C55.34 32 54.68 32 54 32 C53.7525 32.969375 53.505 33.93875 53.25 34.9375 C52.8375 35.948125 52.425 36.95875 52 38 C50 38.625 50 38.625 48 39 C47.690625 39.639375 47.38125 40.27875 47.0625 40.9375 C45.60115732 43.77422403 43.9235646 43.84417214 41 45 C39.28891311 46.62102968 37.62746694 48.29503463 36 50 C34.78519078 51.11994343 33.5554903 52.22391843 32.3125 53.3125 C31.73113281 53.82425781 31.14976563 54.33601563 30.55078125 54.86328125 C29 56 29 56 27 56 C26.67 56.66 26.34 57.32 26 58 C23.6693782 58.35179197 21.33564933 58.68330179 19 59 C16.84971696 59.94978897 16.84971696 59.94978897 15 61 C11.58995071 62.03334827 8.55720485 62 5 62 C4.34 62.66 3.68 63.32 3 64 C2.01 63.67 1.02 63.34 0 63 C0 42.21 0 21.42 0 0 Z " fill="#FFC4E3" transform="translate(0,0)"/>
<path d="M0 0 C21.78 0 43.56 0 66 0 C66.99 2.475 66.99 2.475 68 5 C68.99 5.99 68.99 5.99 70 7 C69.34 8.32 68.68 9.64 68 11 C68.99 11.495 68.99 11.495 70 12 C69.195625 12.763125 68.39125 13.52625 67.5625 14.3125 C64.83200976 16.79430898 64.83200976 16.79430898 64 20 C63.154375 20.66 62.30875 21.32 61.4375 22 C60.633125 22.66 59.82875 23.32 59 24 C59 24.99 59 25.98 59 27 C57.95094439 30.8734361 57.07327551 33.3995361 54 36 C53.401875 36.61875 52.80375 37.2375 52.1875 37.875 C45.29850746 44.56716418 45.29850746 44.56716418 41 46 C40.505 46.99 40.505 46.99 40 48 C39.34 48 38.68 48 38 48 C37.505 48.99 37.505 48.99 37 50 C31.98493976 55.55722892 31.98493976 55.55722892 28 56 C28.33 54.35 28.66 52.7 29 51 C26.09399739 49.74335022 24.20395416 49 21 49 C20.34 49 19.68 49 19 49 C18.34 48.01 17.68 47.02 17 46 C14.94074861 45.27617533 14.94074861 45.27617533 13 45 C13.33 43.68 13.66 42.36 14 41 C13.34 41 12.68 41 12 41 C11.1646875 39.2675 11.1646875 39.2675 10.3125 37.5 C7.7507994 32.37659881 5.07561331 27.07561331 1 23 C0.32215008 20.66989091 -0.34416793 18.33640176 -1 16 C-1.66 15.01 -2.32 14.02 -3 13 C-2.34 12.34 -1.68 11.68 -1 11 C-1.165 10.2575 -1.33 9.515 -1.5 8.75 C-2 6 -2 6 0 0 Z " fill="#C5C1FF" transform="translate(127,0)"/>
<path d="M0 0 C0.556875 0.226875 1.11375 0.45375 1.6875 0.6875 C1.3575 1.6775 1.0275 2.6675 0.6875 3.6875 C-1.875 4.875 -1.875 4.875 -4.3125 5.6875 C-3.8175 7.6675 -3.8175 7.6675 -3.3125 9.6875 C-5.2925 10.6775 -5.2925 10.6775 -7.3125 11.6875 C-6.8175 12.6775 -6.8175 12.6775 -6.3125 13.6875 C-6.9725 14.0175 -7.6325 14.3475 -8.3125 14.6875 C-8.56265873 18.10392759 -8.56265873 18.10392759 -8.3125 21.6875 C-7.3225 22.3475 -6.3325 23.0075 -5.3125 23.6875 C-3.97324475 25.99399516 -3.15975588 28.14573237 -2.3125 30.6875 C-0.9203125 30.44 -0.9203125 30.44 0.5 30.1875 C3.6875 29.6875 3.6875 29.6875 6.6875 29.6875 C5.3125 31.6875 5.3125 31.6875 3.6875 33.6875 C3.0275 33.6875 2.3675 33.6875 1.6875 33.6875 C1.6875 34.3475 1.6875 35.0075 1.6875 35.6875 C1.0275 35.6875 0.3675 35.6875 -0.3125 35.6875 C1.3375 37.6675 2.9875 39.6475 4.6875 41.6875 C3.63875002 44.30937494 3.03818687 45.48121361 0.5625 46.9375 C-0.05625 47.185 -0.675 47.4325 -1.3125 47.6875 C-1.3125 48.3475 -1.3125 49.0075 -1.3125 49.6875 C-4.54124934 50.02495928 -7.7705587 50.35673369 -11 50.6875 C-12.36801758 50.83058594 -12.36801758 50.83058594 -13.76367188 50.9765625 C-14.64990234 51.06679687 -15.53613281 51.15703125 -16.44921875 51.25 C-17.26092529 51.33378906 -18.07263184 51.41757813 -18.90893555 51.50390625 C-21.38634466 51.69314055 -23.8288748 51.71842452 -26.3125 51.6875 C-25.8175 53.6675 -25.8175 53.6675 -25.3125 55.6875 C-33.74107143 57.11607143 -33.74107143 57.11607143 -38.3125 54.6875 C-38.6425 55.6775 -38.9725 56.6675 -39.3125 57.6875 C-40.2096875 57.4090625 -40.2096875 57.4090625 -41.125 57.125 C-43.47658762 56.46656313 -43.47658762 56.46656313 -46.3125 57.6875 C-47.64818021 57.36369874 -48.98173011 57.03092449 -50.3125 56.6875 C-51.3025 57.1825 -51.3025 57.1825 -52.3125 57.6875 C-52.9725 57.3575 -53.6325 57.0275 -54.3125 56.6875 C-54.6425 57.3475 -54.9725 58.0075 -55.3125 58.6875 C-55.3125 58.0275 -55.3125 57.3675 -55.3125 56.6875 C-57.7875 57.1825 -57.7875 57.1825 -60.3125 57.6875 C-60.3125 46.1375 -60.3125 34.5875 -60.3125 22.6875 C-58.9925 22.3575 -57.6725 22.0275 -56.3125 21.6875 C-55.0440625 21.130625 -55.0440625 21.130625 -53.75 20.5625 C-51.3125 19.6875 -51.3125 19.6875 -48.3125 20.6875 C-45.67445411 20.29352665 -45.67445411 20.29352665 -43.3125 19.6875 C-43.3125 19.0275 -43.3125 18.3675 -43.3125 17.6875 C-41.9925 17.6875 -40.6725 17.6875 -39.3125 17.6875 C-38.9825 17.0275 -38.6525 16.3675 -38.3125 15.6875 C-37.72597656 15.91050781 -37.13945313 16.13351563 -36.53515625 16.36328125 C-34.27515656 16.9387227 -34.27515656 16.9387227 -32.49609375 15.54296875 C-31.91988281 14.99253906 -31.34367187 14.44210938 -30.75 13.875 C-28.63043881 11.88761635 -26.75519744 10.31596496 -24.3125 8.6875 C-23.52875 7.8625 -22.745 7.0375 -21.9375 6.1875 C-18.51865629 2.93145838 -16.02542944 1.6875 -11.3125 1.6875 C-10.6525 2.0175 -9.9925 2.3475 -9.3125 2.6875 C-7.11715714 2.8707055 -7.11715714 2.8707055 -4.9375 1.125 C-2.3125 -0.3125 -2.3125 -0.3125 0 0 Z M-1.3125 38.6875 C-0.6525 39.3475 0.0075 40.0075 0.6875 40.6875 C0.6875 40.0275 0.6875 39.3675 0.6875 38.6875 C0.0275 38.6875 -0.6325 38.6875 -1.3125 38.6875 Z M-13.3125 0.6875 C-11.3125 1.6875 -11.3125 1.6875 -11.3125 1.6875 Z " fill="#FEE4F2" transform="translate(60.3125,40.3125)"/>
<path d="M0 0 C13.86 0 27.72 0 42 0 C45.36019988 7.84046639 45.62484882 12.22103288 42.9375 20.125 C42.628125 20.74375 42.31875 21.3625 42 22 C41.34 22 40.68 22 40 22 C40 22.66 40 23.32 40 24 C39.01 24.66 38.02 25.32 37 26 C35.7934375 27.4540625 35.7934375 27.4540625 34.5625 28.9375 C32.45548395 31.45564113 30.76275363 33.2851874 28 35 C27.34 35 26.68 35 26 35 C24.62689293 36.29233607 23.28965176 37.62437146 22 39 C21.34 38.67 20.68 38.34 20 38 C19.67 38.66 19.34 39.32 19 40 C17.15234375 40.6328125 17.15234375 40.6328125 14.9375 41.125 C13.83728516 41.37636719 13.83728516 41.37636719 12.71484375 41.6328125 C12.14894531 41.75398438 11.58304688 41.87515625 11 42 C11 42.66 11 43.32 11 44 C9.68 44 8.36 44 7 44 C7 43.34 7 42.68 7 42 C4.69 43.32 2.38 44.64 0 46 C0 30.82 0 15.64 0 0 Z " fill="#FFAAD0" transform="translate(0,0)"/>
<path d="M0 0 C5.46256275 -0.12381149 10.92430488 -0.21443826 16.38793945 -0.2746582 C18.24550609 -0.29976702 20.10297427 -0.33386134 21.96020508 -0.37719727 C24.63387358 -0.43801124 27.30623365 -0.4662452 29.98046875 -0.48828125 C31.2213752 -0.52699089 31.2213752 -0.52699089 32.48735046 -0.56648254 C36.79248198 -0.56856582 38.48058345 -0.40196926 41.99731445 2.31958008 C44.55287946 5.73998093 45.07361166 7.73052363 45 12 C43.48079774 15.97886305 41.58901421 18.60732386 38 21 C37.60828247 22.65391846 37.27942455 24.32345271 37 26 C35.9375 28.3125 35.9375 28.3125 35 30 C34.01 30 33.02 30 32 30 C32 30.99 32 31.98 32 33 C31.360625 33.12375 30.72125 33.2475 30.0625 33.375 C29.381875 33.58125 28.70125 33.7875 28 34 C27.67 34.66 27.34 35.32 27 36 C23.39702611 36 22.03580484 34.8214829 19 33 C18.01 33 17.02 33 16 33 C12.65787747 33 11.73968629 32.71123682 9.375 30.4375 C8.92125 29.963125 8.4675 29.48875 8 29 C9 26 9 26 10 25 C7.525 24.01 7.525 24.01 5 23 C5 22.34 5 21.68 5 21 C3.35 20.67 1.7 20.34 0 20 C0.33 19.34 0.66 18.68 1 18 C0.34 17.34 -0.32 16.68 -1 16 C-2.21505804 11.48692727 -2.39445835 9.69984546 -0.0625 5.5625 C0.618125 4.716875 1.29875 3.87125 2 3 C1.34 3 0.68 3 0 3 C0 2.01 0 1.02 0 0 Z " fill="#BDC8FF" transform="translate(142,0)"/>
<path d="M0 0 C0.556875 0.226875 1.11375 0.45375 1.6875 0.6875 C1.3575 1.6775 1.0275 2.6675 0.6875 3.6875 C-1.875 4.875 -1.875 4.875 -4.3125 5.6875 C-3.8175 7.6675 -3.8175 7.6675 -3.3125 9.6875 C-5.2925 10.6775 -5.2925 10.6775 -7.3125 11.6875 C-6.8175 12.6775 -6.8175 12.6775 -6.3125 13.6875 C-6.9725 14.0175 -7.6325 14.3475 -8.3125 14.6875 C-8.498125 16.358125 -8.498125 16.358125 -8.6875 18.0625 C-9.3125 21.6875 -9.3125 21.6875 -11.25 23.4375 C-11.930625 23.85 -12.61125 24.2625 -13.3125 24.6875 C-13.9725 25.6775 -14.6325 26.6675 -15.3125 27.6875 C-17.30367408 28.38008229 -19.3046136 29.04497635 -21.3125 29.6875 C-23.48282476 31.12740623 -23.48282476 31.12740623 -25.3125 32.6875 C-28.8057521 35.01633474 -30.24172578 34.6875 -34.3125 34.6875 C-34.3125 35.3475 -34.3125 36.0075 -34.3125 36.6875 C-35.93701419 37.02319297 -37.56212917 37.3559796 -39.1875 37.6875 C-40.09242187 37.873125 -40.99734375 38.05875 -41.9296875 38.25 C-44.3125 38.6875 -44.3125 38.6875 -46.3125 38.6875 C-46.9725 38.0275 -47.6325 37.3675 -48.3125 36.6875 C-48.9725 37.6775 -49.6325 38.6675 -50.3125 39.6875 C-51.97916667 39.6875 -53.64583333 39.6875 -55.3125 39.6875 C-56.9625 40.6775 -58.6125 41.6675 -60.3125 42.6875 C-60.3125 36.0875 -60.3125 29.4875 -60.3125 22.6875 C-58.9925 22.3575 -57.6725 22.0275 -56.3125 21.6875 C-55.0440625 21.130625 -55.0440625 21.130625 -53.75 20.5625 C-51.3125 19.6875 -51.3125 19.6875 -48.3125 20.6875 C-45.67445411 20.29352665 -45.67445411 20.29352665 -43.3125 19.6875 C-43.3125 19.0275 -43.3125 18.3675 -43.3125 17.6875 C-41.9925 17.6875 -40.6725 17.6875 -39.3125 17.6875 C-38.9825 17.0275 -38.6525 16.3675 -38.3125 15.6875 C-37.72597656 15.91050781 -37.13945313 16.13351563 -36.53515625 16.36328125 C-34.27515656 16.9387227 -34.27515656 16.9387227 -32.49609375 15.54296875 C-31.91988281 14.99253906 -31.34367187 14.44210938 -30.75 13.875 C-28.63043881 11.88761635 -26.75519744 10.31596496 -24.3125 8.6875 C-23.52875 7.8625 -22.745 7.0375 -21.9375 6.1875 C-18.51865629 2.93145838 -16.02542944 1.6875 -11.3125 1.6875 C-10.6525 2.0175 -9.9925 2.3475 -9.3125 2.6875 C-7.11715714 2.8707055 -7.11715714 2.8707055 -4.9375 1.125 C-2.3125 -0.3125 -2.3125 -0.3125 0 0 Z M-13.3125 0.6875 C-11.3125 1.6875 -11.3125 1.6875 -11.3125 1.6875 Z " fill="#FED5EA" transform="translate(60.3125,40.3125)"/>
<path d="M0 0 C4.29 0 8.58 0 13 0 C16.2392067 5.96014034 16.31897872 10.38275083 15 17 C13.9375 20.125 13.9375 20.125 13 22 C12.34 22 11.68 22 11 22 C11 22.66 11 23.32 11 24 C10.01 24.66 9.02 25.32 8 26 C6.7934375 27.4540625 6.7934375 27.4540625 5.5625 28.9375 C3.45548395 31.45564113 1.76275363 33.2851874 -1 35 C-1.66 35 -2.32 35 -3 35 C-4.37310707 36.29233607 -5.71034824 37.62437146 -7 39 C-7.66 38.67 -8.32 38.34 -9 38 C-9.33 38.66 -9.66 39.32 -10 40 C-11.84765625 40.6328125 -11.84765625 40.6328125 -14.0625 41.125 C-15.16271484 41.37636719 -15.16271484 41.37636719 -16.28515625 41.6328125 C-16.85105469 41.75398438 -17.41695312 41.87515625 -18 42 C-18 42.66 -18 43.32 -18 44 C-19.32 44 -20.64 44 -22 44 C-22 43.34 -22 42.68 -22 42 C-24.31 43.32 -26.62 44.64 -29 46 C-29.13496251 43.89758397 -29.23197307 41.7927039 -29.3125 39.6875 C-29.37050781 38.51574219 -29.42851562 37.34398437 -29.48828125 36.13671875 C-29 33 -29 33 -26.6640625 31.1484375 C-23.80877059 29.91756386 -20.97338876 28.91022105 -18 28 C-11.75008633 26.19207977 -11.75008633 26.19207977 -6.5625 22.5 C-4.5926486 20.60894266 -2.51884428 19.99428064 0 19 C2.22737884 14.54524233 3.55083063 11.06764183 3 6 C1.56249809 4.31201173 1.56249809 4.31201173 0 3 C0 2.01 0 1.02 0 0 Z " fill="#FFB7D8" transform="translate(29,0)"/>
<path d="M0 0 C7.26 0 14.52 0 22 0 C22 0.66 22 1.32 22 2 C23.0209375 2.8971875 23.0209375 2.8971875 24.0625 3.8125 C24.701875 4.534375 25.34125 5.25625 26 6 C25.625 8.5625 25.625 8.5625 25 11 C25.99 12.485 25.99 12.485 27 14 C26.04082472 17.48791011 24.7030608 19.6348218 22 22 C21.34 22.66 20.68 23.32 20 24 C18.68252676 24.69748583 17.35085807 25.36959957 16 26 C16 27.32 16 28.64 16 30 C15.34 30 14.68 30 14 30 C13.67 29.01 13.34 28.02 13 27 C11.40075493 25.8460192 11.40075493 25.8460192 9.5 24.9375 C6.10178817 23.20357634 6.10178817 23.20357634 5 21 C2.47266765 20.34444881 2.47266765 20.34444881 0 20 C0.33 19.34 0.66 18.68 1 18 C0.34 17.34 -0.32 16.68 -1 16 C-2.21505804 11.48692727 -2.39445835 9.69984546 -0.0625 5.5625 C0.618125 4.716875 1.29875 3.87125 2 3 C1.34 3 0.68 3 0 3 C0 2.01 0 1.02 0 0 Z " fill="#B8BBFF" transform="translate(142,0)"/>
<path d="M0 0 C3.96 0 7.92 0 12 0 C12.66 1.65 13.32 3.3 14 5 C14.66 5.66 15.32 6.32 16 7 C15.34 8.32 14.68 9.64 14 11 C14.66 11.33 15.32 11.66 16 12 C15.195625 12.763125 14.39125 13.52625 13.5625 14.3125 C10.83200976 16.79430898 10.83200976 16.79430898 10 20 C9.154375 20.66 8.30875 21.32 7.4375 22 C6.633125 22.66 5.82875 23.32 5 24 C5 24.99 5 25.98 5 27 C3.95094439 30.8734361 3.07327551 33.3995361 0 36 C-0.598125 36.61875 -1.19625 37.2375 -1.8125 37.875 C-8.70149254 44.56716418 -8.70149254 44.56716418 -13 46 C-13.33 46.66 -13.66 47.32 -14 48 C-14.66 48 -15.32 48 -16 48 C-16.33 48.66 -16.66 49.32 -17 50 C-22.01506024 55.55722892 -22.01506024 55.55722892 -26 56 C-25.67 54.35 -25.34 52.7 -25 51 C-27.90600261 49.74335022 -29.79604584 49 -33 49 C-33.66 49 -34.32 49 -35 49 C-34.67 47.68 -34.34 46.36 -34 45 C-32 45 -30 45 -28 45 C-26.824375 44.2265625 -26.824375 44.2265625 -25.625 43.4375 C-24.75875 42.963125 -23.8925 42.48875 -23 42 C-22.01 42.33 -21.02 42.66 -20 43 C-19.401875 42.360625 -18.80375 41.72125 -18.1875 41.0625 C-16 39 -16 39 -13 38 C-12.690625 37.34 -12.38125 36.68 -12.0625 36 C-11 34 -11 34 -8.875 33.25 C-8.25625 33.1675 -7.6375 33.085 -7 33 C-7 32.01 -7 31.02 -7 30 C-6.360625 29.814375 -5.72125 29.62875 -5.0625 29.4375 C-4.381875 28.963125 -3.70125 28.48875 -3 28 C-2.65458149 25.66842508 -2.32205743 23.33491639 -2 21 C-0.125 18.875 -0.125 18.875 2 17 C4.47374416 13.55442778 5.63869667 11.2579778 5 7 C3.57230324 4.20950178 2.21574667 2.21574667 0 0 Z " fill="#C7D2FF" transform="translate(181,0)"/>
<path d="M0 0 C4.1210395 0.08059399 6.81143636 0.45230311 10.0625 3.0625 C14.12555022 7.76708446 13.49560398 13.41381177 13.31640625 19.26953125 C12.875 22.5 12.875 22.5 10.875 24.5 C8.14802777 24.67170903 5.53593532 24.7324568 2.8125 24.6875 C2.06677734 24.68685547 1.32105469 24.68621094 0.55273438 24.68554688 C-4.98471841 24.64028159 -4.98471841 24.64028159 -6.125 23.5 C-6.2241657 21.87742456 -6.25579777 20.25060169 -6.2578125 18.625 C-6.25910156 17.64015625 -6.26039062 16.6553125 -6.26171875 15.640625 C-6.25785156 14.60421875 -6.25398438 13.5678125 -6.25 12.5 C-6.25580078 10.94539062 -6.25580078 10.94539062 -6.26171875 9.359375 C-6.26042969 8.37453125 -6.25914063 7.3896875 -6.2578125 6.375 C-6.25668457 5.46492187 -6.25555664 4.55484375 -6.25439453 3.6171875 C-6.00756726 -0.42146546 -3.55634117 0.19380606 0 0 Z " fill="#FEF3F3" transform="translate(117.125,141.5)"/>
<path d="M0 0 C22.81439577 4.09662927 45.53269505 8.65786703 68.25671387 13.22387695 C73.20535507 14.21776874 78.15445734 15.20935941 83.10351562 16.20117188 C92.73611722 18.13192456 102.36822435 20.06513147 112 22 C111.505 23.485 111.505 23.485 111 25 C111.66 25.33 112.32 25.66 113 26 C105.17646201 25.28780938 97.58231715 23.82583045 89.88671875 22.26953125 C88.50940005 21.99358846 87.13202342 21.71793469 85.7545929 21.44255066 C82.86528907 20.86406631 79.97651656 20.28302146 77.08813477 19.69995117 C73.47790263 18.97123097 69.86671957 18.24737254 66.25515556 17.52528572 C49.78144175 14.23026539 33.33622232 10.82700498 16.91723633 7.26831055 C11.62205528 6.12382299 6.31617297 5.04234408 1 4 C0.67 4.66 0.34 5.32 0 6 C0 4.02 0 2.04 0 0 Z M-4 7 C-3.34 7.66 -2.68 8.32 -2 9 C-2.99 9.33 -3.98 9.66 -5 10 C-4.67 9.01 -4.34 8.02 -4 7 Z " fill="#C9C4F3" transform="translate(109,212)"/>
<path d="M0 0 C2.4375 0.375 2.4375 0.375 4.4375 2.375 C4.5625 6 4.5625 6 4.4375 9.375 C5.0975 9.375 5.7575 9.375 6.4375 9.375 C6.4375 12.675 6.4375 15.975 6.4375 19.375 C5.7775 19.375 5.1175 19.375 4.4375 19.375 C4.44910156 20.08527344 4.46070313 20.79554687 4.47265625 21.52734375 C4.48619141 22.90599609 4.48619141 22.90599609 4.5 24.3125 C4.51160156 25.22902344 4.52320313 26.14554688 4.53515625 27.08984375 C4.4375 29.375 4.4375 29.375 3.4375 30.375 C-0.0625 30.5 -0.0625 30.5 -3.5625 30.375 C-4.5625 29.375 -4.5625 29.375 -4.66015625 27.08984375 C-4.64275391 25.71505859 -4.64275391 25.71505859 -4.625 24.3125 C-4.61597656 23.39339844 -4.60695313 22.47429687 -4.59765625 21.52734375 C-4.58605469 20.81707031 -4.57445312 20.10679688 -4.5625 19.375 C-5.2225 19.375 -5.8825 19.375 -6.5625 19.375 C-6.5625 16.075 -6.5625 12.775 -6.5625 9.375 C-5.9025 9.375 -5.2425 9.375 -4.5625 9.375 C-4.789375 8.6325 -5.01625 7.89 -5.25 7.125 C-5.5625 4.375 -5.5625 4.375 -4.4375 2.0625 C-2.5625 0.375 -2.5625 0.375 0 0 Z " fill="#FEFBF6" transform="translate(287.5625,82.625)"/>
<path d="M0 0 C0.33 0 0.66 0 1 0 C1.05383848 2.45862401 1.09359038 4.9160755 1.125 7.375 C1.14175781 8.07367188 1.15851563 8.77234375 1.17578125 9.4921875 C1.19344267 11.32897486 1.10303261 13.16601963 1 15 C-1 17 -1 17 -4.6953125 17.1953125 C-6.17200108 17.182009 -7.64862358 17.15814835 -9.125 17.125 C-9.87910156 17.11597656 -10.63320312 17.10695312 -11.41015625 17.09765625 C-13.27357254 17.0740687 -15.13682593 17.03819719 -17 17 C-16.67 13.04 -16.34 9.08 -16 5 C-11.05 5 -6.1 5 -1 5 C-0.67 3.35 -0.34 1.7 0 0 Z " fill="#FEC7C7" transform="translate(129,149)"/>
<path d="M0 0 C1.66666667 0 3.33333333 0 5 0 C4.67 1.32 4.34 2.64 4 4 C5.32 3.67 6.64 3.34 8 3 C8 2.34 8 1.68 8 1 C8.66 1 9.32 1 10 1 C8.63855967 6.19822672 6.53269829 9.09543873 3 13 C3.66 13.66 4.32 14.32 5 15 C5 15.66 5 16.32 5 17 C5.66 17.66 6.32 18.32 7 19 C6.34 19.33 5.68 19.66 5 20 C4.855625 20.66 4.71125 21.32 4.5625 22 C4.376875 22.66 4.19125 23.32 4 24 C3.01 24.33 2.02 24.66 1 25 C1.33 24.01 1.66 23.02 2 22 C1.34 21.67 0.68 21.34 0 21 C-0.66 20.01 -1.32 19.02 -2 18 C-2.66 18.66 -3.32 19.32 -4 20 C-4.66 19.34 -5.32 18.68 -6 18 C-8.10820797 18.3185177 -8.10820797 18.3185177 -10 19 C-10.75 16.75 -10.75 16.75 -11 14 C-9.3125 11.625 -9.3125 11.625 -7 10 C-4.75 10.25 -4.75 10.25 -3 11 C-2.67 10.01 -2.34 9.02 -2 8 C-1.34 7.34 -0.68 6.68 0 6 C-0.33 5.01 -0.66 4.02 -1 3 C-0.67 2.01 -0.34 1.02 0 0 Z M-6 15 C-5.34 15.66 -4.68 16.32 -4 17 C-4 16.34 -4 15.68 -4 15 C-4.66 15 -5.32 15 -6 15 Z " fill="#DAF5EB" transform="translate(342,196)"/>
<path d="M0 0 C0 0.33 0 0.66 0 1 C2.31 1.33 4.62 1.66 7 2 C7 2.33 7 2.66 7 3 C6.42483643 3.06993164 5.84967285 3.13986328 5.25708008 3.21191406 C2.44193069 3.55562256 -0.37282167 3.90245454 -3.1875 4.25 C-4.77062988 4.44480957 -4.77062988 4.44480957 -6.38574219 4.64355469 C-12.56911316 5.41445447 -18.74268674 6.23595974 -24.91015625 7.125 C-26.21509033 7.3115918 -27.52002441 7.49818359 -28.86450195 7.69042969 C-31.42778368 8.05958091 -33.99015807 8.43509584 -36.55151367 8.81738281 C-37.72560791 8.98592773 -38.89970215 9.15447266 -40.109375 9.328125 C-41.15061523 9.4818457 -42.19185547 9.63556641 -43.26464844 9.79394531 C-45.83491234 9.98756391 -47.57476177 9.80551 -50 9 C-49.34 9 -48.68 9 -48 9 C-48 8.34 -48 7.68 -48 7 C-48.99 6.67 -49.98 6.34 -51 6 C-49.65591064 5.83395264 -49.65591064 5.83395264 -48.28466797 5.66455078 C-44.88870346 5.24437286 -41.49289113 4.82300126 -38.09716797 4.40087891 C-36.64084502 4.22007854 -35.18446667 4.03972377 -33.72802734 3.85986328 C-31.6075912 3.59791844 -29.48733419 3.3345896 -27.3671875 3.0703125 C-26.66688416 2.98307922 -25.96658081 2.89584595 -25.24505615 2.80596924 C-19.46883457 2.07773644 -13.71279017 1.24238974 -7.95751953 0.36279297 C-5.26545423 0.03256274 -2.70797246 -0.06959596 0 0 Z " fill="#D8C7EF" transform="translate(187,177)"/>
<path d="M0 0 C15.06814672 2.71770181 30.08934854 5.51110247 45 9 C45 9.99 45 10.98 45 12 C37.73728631 11.32174027 30.70305672 10.03526666 23.5625 8.5625 C22.49451172 8.34529297 21.42652344 8.12808594 20.32617188 7.90429688 C18.22512232 7.4768995 16.12436369 7.04806902 14.02392578 6.61767578 C9.68533664 5.73146308 5.34301382 4.86422999 1 4 C0.67 4.66 0.34 5.32 0 6 C0 4.02 0 2.04 0 0 Z M-4 7 C-3.34 7.66 -2.68 8.32 -2 9 C-2.99 9.33 -3.98 9.66 -5 10 C-4.67 9.01 -4.34 8.02 -4 7 Z " fill="#D4C8F5" transform="translate(109,212)"/>
<path d="M0 0 C3.3 0 6.6 0 10 0 C10 1.32 10 2.64 10 4 C-2.30029536 6.31610331 -14.5668336 8.52816099 -27 10 C-27.33 8.35 -27.66 6.7 -28 5 C-24 5 -24 5 -22.1875 5.625 C-18.85058198 6.19704309 -16.16514215 5.03475801 -13 4 C-13 3.34 -13 2.68 -13 2 C-11.68 1.67 -10.36 1.34 -9 1 C-9 1.66 -9 2.32 -9 3 C-8.01 3 -7.02 3 -6 3 C-5.67 2.34 -5.34 1.68 -5 1 C-4.67 1.66 -4.34 2.32 -4 3 C-3.01 2.67 -2.02 2.34 -1 2 C-0.67 1.34 -0.34 0.68 0 0 Z " fill="#B2C0CE" transform="translate(206,281)"/>
<path d="M0 0 C1.98 0 3.96 0 6 0 C5.67 0.99 5.34 1.98 5 3 C4.67 2.34 4.34 1.68 4 1 C3.34 1 2.68 1 2 1 C2.33 2.32 2.66 3.64 3 5 C3.99 5 4.98 5 6 5 C6.33 4.01 6.66 3.02 7 2 C10.19902639 1.91113816 12.92677456 2.08941469 16 3 C16 2.34 16 1.68 16 1 C16.66 1 17.32 1 18 1 C18.33 1.99 18.66 2.98 19 4 C19.9075 3.979375 20.815 3.95875 21.75 3.9375 C24.44735267 3.98937217 26.4448 4.26994286 29 5 C29.66 5 30.32 5 31 5 C30.67 6.65 30.34 8.3 30 10 C27.03 9.505 27.03 9.505 24 9 C24 8.01 24 7.02 24 6 C23.01 7.485 23.01 7.485 22 9 C19.0625 8.625 19.0625 8.625 16 8 C15.67 7.34 15.34 6.68 15 6 C14.67 6.66 14.34 7.32 14 8 C13.34 8 12.68 8 12 8 C11.67 7.01 11.34 6.02 11 5 C10.67 5.66 10.34 6.32 10 7 C6.4780279 7.08004482 3.38018531 7.04005702 0 6 C0 4.02 0 2.04 0 0 Z " fill="#FEDADB" transform="translate(212,141)"/>
<path d="M0 0 C0.80050781 0.20882813 1.60101563 0.41765625 2.42578125 0.6328125 C3.23402344 0.83648437 4.04226563 1.04015625 4.875 1.25 C5.48988281 1.41757812 6.10476563 1.58515625 6.73828125 1.7578125 C4.92578125 4.7578125 4.92578125 4.7578125 2.73828125 7.7578125 C1.74828125 7.7578125 0.75828125 7.7578125 -0.26171875 7.7578125 C-0.92171875 8.4178125 -1.58171875 9.0778125 -2.26171875 9.7578125 C-2.26171875 9.0978125 -2.26171875 8.4378125 -2.26171875 7.7578125 C-3.25171875 7.7578125 -4.24171875 7.7578125 -5.26171875 7.7578125 C-5.26171875 8.4178125 -5.26171875 9.0778125 -5.26171875 9.7578125 C-5.88046875 9.8609375 -6.49921875 9.9640625 -7.13671875 10.0703125 C-9.62698359 10.63306623 -9.62698359 10.63306623 -11.26171875 13.7578125 C-11.92171875 13.7578125 -12.58171875 13.7578125 -13.26171875 13.7578125 C-13.59171875 12.1078125 -13.92171875 10.4578125 -14.26171875 8.7578125 C-9.63671875 4.7578125 -9.63671875 4.7578125 -6.26171875 4.7578125 C-5.93171875 3.7678125 -5.60171875 2.7778125 -5.26171875 1.7578125 C-2.26171875 -0.2421875 -2.26171875 -0.2421875 0 0 Z " fill="#E5F9F9" transform="translate(327.26171875,260.2421875)"/>
<path d="M0 0 C0.66 0 1.32 0 2 0 C2.33 0.99 2.66 1.98 3 3 C4.32 2.67 5.64 2.34 7 2 C7.66 3.65 8.32 5.3 9 7 C6.36 7.33 3.72 7.66 1 8 C1 6.68 1 5.36 1 4 C0.34 4 -0.32 4 -1 4 C-1 5.32 -1 6.64 -1 8 C-9.57142857 9.28571429 -9.57142857 9.28571429 -13 8 C-13 6.02 -13 4.04 -13 2 C-12.01 2.33 -11.02 2.66 -10 3 C-10.33 4.32 -10.66 5.64 -11 7 C-10.34 7 -9.68 7 -9 7 C-8.67 5.68 -8.34 4.36 -8 3 C-6.865625 2.87625 -5.73125 2.7525 -4.5625 2.625 C-3.386875 2.41875 -2.21125 2.2125 -1 2 C-0.67 1.34 -0.34 0.68 0 0 Z " fill="#FDE3B6" transform="translate(122,90)"/>
<path d="M0 0 C0.66 0.33 1.32 0.66 2 1 C2 1.66 2 2.32 2 3 C6.48133574 3.72256829 6.48133574 3.72256829 11 4 C12.87802847 4.31582461 14.75272797 4.65167032 16.625 5 C18.12933594 5.2784375 18.12933594 5.2784375 19.6640625 5.5625 C20.43492187 5.706875 21.20578125 5.85125 22 6 C21.67 7.32 21.34 8.64 21 10 C18.62388845 9.71583399 16.24939504 9.42291099 13.875 9.125 C12.87726563 9.00705078 12.87726563 9.00705078 11.859375 8.88671875 C7.68488304 8.35467566 3.96711277 7.36836643 0 6 C-0.99 6 -1.98 6 -3 6 C-2.625 3.5625 -2.625 3.5625 -2 1 C-1.34 0.67 -0.68 0.34 0 0 Z " fill="#C9CBDD" transform="translate(192,239)"/>
<path d="M0 0 C0.66 0 1.32 0 2 0 C2 0.66 2 1.32 2 2 C2.928125 1.7215625 2.928125 1.7215625 3.875 1.4375 C6 1 6 1 8 2 C8 1.34 8 0.68 8 0 C9.32 0.66 10.64 1.32 12 2 C12 3.98 12 5.96 12 8 C7.38 8 2.76 8 -2 8 C-2 2 -2 2 0 0 Z " fill="#EFF2F5" transform="translate(184,314)"/>
<path d="M0 0 C0.33 0.99 0.66 1.98 1 3 C1.66 3 2.32 3 3 3 C3 2.01 3 1.02 3 0 C6.34252724 -0.07427838 8.8035914 -0.06546953 12 1 C13.299375 1.2475 13.299375 1.2475 14.625 1.5 C17 2 17 2 18 3 C20.05396726 2.59070014 20.05396726 2.59070014 22 2 C22 3.66666667 22 5.33333333 22 7 C20.54263913 7.19491452 19.08405407 7.38069358 17.625 7.5625 C16.81289063 7.66691406 16.00078125 7.77132812 15.1640625 7.87890625 C13 8 13 8 11 7 C11 6.34 11 5.68 11 5 C10.01 5.33 9.02 5.66 8 6 C7.67 5.34 7.34 4.68 7 4 C6.2265625 4.2784375 6.2265625 4.2784375 5.4375 4.5625 C2.14091261 5.15419517 -0.72245735 4.567267 -4 4 C-2.68 3.34 -1.36 2.68 0 2 C0 1.34 0 0.68 0 0 Z " fill="#FEDEDF" transform="translate(262,149)"/>
<path d="M0 0 C1.65 0 3.3 0 5 0 C6.14285714 4.57142857 6.14285714 4.57142857 5.3125 7.0625 C5.209375 7.701875 5.10625 8.34125 5 9 C6.85432087 11.27144074 6.85432087 11.27144074 9 13 C9.66 12.67 10.32 12.34 11 12 C12.99960012 11.960008 15.00047242 11.95653201 17 12 C17 13.65 17 15.3 17 17 C11.68098483 17.50657287 9.13515188 16.32610043 5 13 C0.77603116 8.89019248 0.38415199 5.66624179 0 0 Z " fill="#FBF3F8" transform="translate(228,194)"/>
<path d="M0 0 C1.32 0 2.64 0 4 0 C4 0.66 4 1.32 4 2 C4.66 2 5.32 2 6 2 C5.1875 5.4375 5.1875 5.4375 4 9 C3.01 9.33 2.02 9.66 1 10 C0.34 8.68 -0.32 7.36 -1 6 C-0.34 5.01 0.32 4.02 1 3 C0.67 2.01 0.34 1.02 0 0 Z M-1 9 C-0.34 9.99 0.32 10.98 1 12 C0.125 14.6875 0.125 14.6875 -1 17 C0.32 17.33 1.64 17.66 3 18 C3.33 17.34 3.66 16.68 4 16 C4.33 17.32 4.66 18.64 5 20 C4.01 20.66 3.02 21.32 2 22 C1.34 20.68 0.68 19.36 0 18 C-1.32 18.33 -2.64 18.66 -4 19 C-3.88637738 17.5199159 -3.75877092 16.04089926 -3.625 14.5625 C-3.55539062 13.73878906 -3.48578125 12.91507813 -3.4140625 12.06640625 C-3.27742187 11.38449219 -3.14078125 10.70257813 -3 10 C-2.34 9.67 -1.68 9.34 -1 9 Z " fill="#FFD5F6" transform="translate(12,241)"/>
<path d="M0 0 C0.66 0 1.32 0 2 0 C2.33 1.98 2.66 3.96 3 6 C2.0925 6.12375 1.185 6.2475 0.25 6.375 C-4.36303483 7.0204452 -8.94059757 7.86517028 -13.5234375 8.6953125 C-14.34070313 8.79585937 -15.15796875 8.89640625 -16 9 C-17 8 -17 8 -17.0625 5.4375 C-17.041875 4.633125 -17.02125 3.82875 -17 3 C-15.68 2.67 -14.36 2.34 -13 2 C-13 2.66 -13 3.32 -13 4 C-13.99 4 -14.98 4 -16 4 C-16 4.99 -16 5.98 -16 7 C-12.72226496 6.24849977 -12.72226496 6.24849977 -11 3 C-8.3984375 2.48828125 -8.3984375 2.48828125 -5.375 2.3125 C-3.87066406 2.21388672 -3.87066406 2.21388672 -2.3359375 2.11328125 C-1.17964844 2.05720703 -1.17964844 2.05720703 0 2 C0 1.34 0 0.68 0 0 Z " fill="#F2D5E6" transform="translate(133,195)"/>
<path d="M0 0 C1.65 0 3.3 0 5 0 C5 2.31 5 4.62 5 7 C4.34 7 3.68 7 3 7 C2.67 6.01 2.34 5.02 2 4 C1.34 5.32 0.68 6.64 0 8 C-1.0725 7.979375 -2.145 7.95875 -3.25 7.9375 C-6.14790424 7.9857984 -8.28612141 8.13155885 -11 9 C-10.34 8.67 -9.68 8.34 -9 8 C-8.34444881 5.47266765 -8.34444881 5.47266765 -8 3 C-8.99 3 -9.98 3 -11 3 C-11.33 4.32 -11.66 5.64 -12 7 C-12.33 5.35 -12.66 3.7 -13 2 C-11.02 2 -9.04 2 -7 2 C-7 2.66 -7 3.32 -7 4 C-5.02 3.67 -3.04 3.34 -1 3 C-0.67 2.01 -0.34 1.02 0 0 Z " fill="#FDE0AF" transform="translate(76,95)"/>
<path d="M0 0 C0.99 0.33 1.98 0.66 3 1 C3 1.99 3 2.98 3 4 C2.01 4.66 1.02 5.32 0 6 C-0.33 6.99 -0.66 7.98 -1 9 C-0.34 9 0.32 9 1 9 C1.33 9.99 1.66 10.98 2 12 C0.02 12.99 0.02 12.99 -2 14 C-2 13.34 -2 12.68 -2 12 C-2.99 12 -3.98 12 -5 12 C-5.33 12.99 -5.66 13.98 -6 15 C-6.66 14.67 -7.32 14.34 -8 14 C-8 12.02 -8 10.04 -8 8 C-7.01 7.67 -6.02 7.34 -5 7 C-5 6.34 -5 5.68 -5 5 C-4.34 5 -3.68 5 -3 5 C-3 4.34 -3 3.68 -3 3 C-2.01 2.34 -1.02 1.68 0 1 C0 0.67 0 0.34 0 0 Z " fill="#E1EFFA" transform="translate(285,266)"/>
<path d="M0 0 C0.66 1.32 1.32 2.64 2 4 C2.66 2.68 3.32 1.36 4 0 C4 1.65 4 3.3 4 5 C4.66 3.68 5.32 2.36 6 1 C6.66 1 7.32 1 8 1 C8.33 2.65 8.66 4.3 9 6 C0.09 6.99 0.09 6.99 -9 8 C-9.33 6.35 -9.66 4.7 -10 3 C-8.68 2.34 -7.36 1.68 -6 1 C-6 1.66 -6 2.32 -6 3 C-6.66 3 -7.32 3 -8 3 C-7.67 3.99 -7.34 4.98 -7 6 C-6.34 6 -5.68 6 -5 6 C-4.67 5.01 -4.34 4.02 -4 3 C-3.01 3 -2.02 3 -1 3 C-0.67 2.01 -0.34 1.02 0 0 Z " fill="#F1D6E5" transform="translate(161,191)"/>
<path d="M0 0 C0.33 0.66 0.66 1.32 1 2 C5.455 1.505 5.455 1.505 10 1 C9.67 2.98 9.34 4.96 9 7 C9.66 6.01 10.32 5.02 11 4 C11.66 4.33 12.32 4.66 13 5 C13 5.99 13 6.98 13 8 C7.80790596 8.21192221 3.873261 7.5912689 -1 6 C-0.67 4.02 -0.34 2.04 0 0 Z " fill="#C7C9DC" transform="translate(222,245)"/>
<path d="M0 0 C3.3 0 6.6 0 10 0 C10 1.32 10 2.64 10 4 C4.39 4.99 -1.22 5.98 -7 7 C-7.33 5.68 -7.66 4.36 -8 3 C-7.34 3 -6.68 3 -6 3 C-5.67 2.34 -5.34 1.68 -5 1 C-4.67 1.66 -4.34 2.32 -4 3 C-3.01 2.67 -2.02 2.34 -1 2 C-0.67 1.34 -0.34 0.68 0 0 Z " fill="#BEC9D6" transform="translate(206,281)"/>
<path d="M0 0 C0.804375 0.144375 1.60875 0.28875 2.4375 0.4375 C6.61359481 1.09688339 10.79598059 1.56091353 15 2 C14.04867187 2.42925781 14.04867187 2.42925781 13.078125 2.8671875 C10.58438799 4.22655542 10.03567876 5.41080309 9 8 C8.67 7.34 8.34 6.68 8 6 C6.02 6.66 4.04 7.32 2 8 C2 7.34 2 6.68 2 6 C1.01 5.67 0.02 5.34 -1 5 C-0.67 3.35 -0.34 1.7 0 0 Z " fill="#DDDBFF" transform="translate(141,62)"/>
<path d="M0 0 C2.4375 0.375 2.4375 0.375 5 1 C5.33 1.66 5.66 2.32 6 3 C7.65 2.34 9.3 1.68 11 1 C11.66 1.66 12.32 2.32 13 3 C11.68 4.32 10.36 5.64 9 7 C9 6.34 9 5.68 9 5 C6.37098712 6.52206009 4.15634036 7.84365964 2 10 C0.39644899 6.49223216 -0.22036864 3.85645121 0 0 Z " fill="#E4F3FB" transform="translate(285,280)"/>
<path d="M0 0 C1.32 0.66 2.64 1.32 4 2 C3.67 2.66 3.34 3.32 3 4 C3.66 4.33 4.32 4.66 5 5 C1.7 5.66 -1.6 6.32 -5 7 C-5 6.34 -5 5.68 -5 5 C-5.66 5 -6.32 5 -7 5 C-7.33 5.66 -7.66 6.32 -8 7 C-8.33 5.35 -8.66 3.7 -9 2 C-7.35 1.67 -5.7 1.34 -4 1 C-4 1.66 -4 2.32 -4 3 C-2.68 2.67 -1.36 2.34 0 2 C0 1.34 0 0.68 0 0 Z " fill="#A5B8C7" transform="translate(171,287)"/>
<path d="M0 0 C0.66 0 1.32 0 2 0 C1.67 1.65 1.34 3.3 1 5 C1.350625 4.484375 1.70125 3.96875 2.0625 3.4375 C4 2 4 2 7.6875 2.3125 C8.780625 2.539375 9.87375 2.76625 11 3 C10.67 3.99 10.34 4.98 10 6 C3.625 8.125 3.625 8.125 -0.1875 7.5625 C-1.445625 7.376875 -2.70375 7.19125 -4 7 C-3.67 5.02 -3.34 3.04 -3 1 C-2.34 1 -1.68 1 -1 1 C-1 1.66 -1 2.32 -1 3 C-0.34 3 0.32 3 1 3 C0.67 2.01 0.34 1.02 0 0 Z " fill="#FEE4E5" transform="translate(250,145)"/>
<path d="M0 0 C1.958964 0.30852185 3.91715713 0.6219418 5.875 0.9375 C6.96554688 1.11152344 8.05609375 1.28554687 9.1796875 1.46484375 C12 2 12 2 14 3 C14 3.66 14 4.32 14 5 C9.48382401 5.07654536 5.40914783 5.10228696 1 4 C0.67 4.66 0.34 5.32 0 6 C0 4.02 0 2.04 0 0 Z M-4 7 C-3.34 7.66 -2.68 8.32 -2 9 C-2.99 9.33 -3.98 9.66 -5 10 C-4.67 9.01 -4.34 8.02 -4 7 Z " fill="#DFD2FB" transform="translate(109,212)"/>
<path d="M0 0 C0.5775 0.37125 1.155 0.7425 1.75 1.125 C1.42 1.455 1.09 1.785 0.75 2.125 C1.41 2.455 2.07 2.785 2.75 3.125 C2.75 3.785 2.75 4.445 2.75 5.125 C-3.19 5.62 -3.19 5.62 -9.25 6.125 C-9.58 4.805 -9.91 3.485 -10.25 2.125 C-9.92 2.785 -9.59 3.445 -9.25 4.125 C-8.59 4.125 -7.93 4.125 -7.25 4.125 C-6.92 3.135 -6.59 2.145 -6.25 1.125 C-3.76424847 -0.67502697 -2.91724311 -1.13448343 0 0 Z " fill="#E0AECD" transform="translate(146.25,194.875)"/>
<path d="M0 0 C2 2 2 2 2.3125 4.5 C2.1578125 5.7375 2.1578125 5.7375 2 7 C1.01 7.66 0.02 8.32 -1 9 C-0.67 7.02 -0.34 5.04 0 3 C-1.98 3.33 -3.96 3.66 -6 4 C-6.33 5.32 -6.66 6.64 -7 8 C-8 7 -8 7 -8.0625 3.9375 C-8.041875 2.968125 -8.02125 1.99875 -8 1 C-5.23749964 -0.38125018 -3.05268901 -0.19079306 0 0 Z " fill="#CED7E0" transform="translate(192,304)"/>
<path d="M0 0 C2.31 0.66 4.62 1.32 7 2 C7 2.66 7 3.32 7 4 C8.65 4.33 10.3 4.66 12 5 C11.67 5.66 11.34 6.32 11 7 C10.01 6.67 9.02 6.34 8 6 C8 6.66 8 7.32 8 8 C7.01 8.33 6.02 8.66 5 9 C4.67 8.01 4.34 7.02 4 6 C3.34 6 2.68 6 2 6 C2 5.34 2 4.68 2 4 C1.01 3.67 0.02 3.34 -1 3 C-0.67 2.01 -0.34 1.02 0 0 Z " fill="#D8D2FF" transform="translate(133,48)"/>
<path d="M0 0 C0.33 0.66 0.66 1.32 1 2 C2.65 2 4.3 2 6 2 C6 2.66 6 3.32 6 4 C4.8553125 4.1546875 4.8553125 4.1546875 3.6875 4.3125 C0.97045327 4.75593985 0.97045327 4.75593985 -0.5 6.5625 C-2 8 -2 8 -4.6875 8.1875 C-5.450625 8.125625 -6.21375 8.06375 -7 8 C-6.67 6.35 -6.34 4.7 -6 3 C-5.01 2.67 -4.02 2.34 -3 2 C-2.34 2.33 -1.68 2.66 -1 3 C-0.67 2.01 -0.34 1.02 0 0 Z " fill="#FBE6FF" transform="translate(39,212)"/>
<path d="M0 0 C0.99 0 1.98 0 3 0 C3.33 1.65 3.66 3.3 4 5 C0.26513121 5.5745952 -3.21293268 6 -7 6 C-7 4.35 -7 2.7 -7 1 C-5.5459375 1.0309375 -5.5459375 1.0309375 -4.0625 1.0625 C-1.12534105 1.35618499 -1.12534105 1.35618499 0 0 Z " fill="#FDE6BE" transform="translate(89,96)"/>
<path d="M0 0 C0.66 0 1.32 0 2 0 C2 2.31 2 4.62 2 7 C1.67 6.01 1.34 5.02 1 4 C0.01 4 -0.98 4 -2 4 C-2.33 5.32 -2.66 6.64 -3 8 C-4.98 8 -6.96 8 -9 8 C-9.625 5.625 -9.625 5.625 -10 3 C-9.34 2.34 -8.68 1.68 -8 1 C-7.01 1 -6.02 1 -5 1 C-6 3 -6 3 -8 6 C-6.68 6 -5.36 6 -4 6 C-4 5.01 -4 4.02 -4 3 C-2.68 2.67 -1.36 2.34 0 2 C0 1.34 0 0.68 0 0 Z " fill="#FEEACB" transform="translate(106,92)"/>
<path d="M0 0 C0 2.97 0 5.94 0 9 C-1.98 9 -3.96 9 -6 9 C-6 6.36 -6 3.72 -6 1 C-3 0 -3 0 0 0 Z " fill="#255873" transform="translate(192,307)"/>
<path d="M0 0 C0.66 0 1.32 0 2 0 C1.67 0.66 1.34 1.32 1 2 C0.67 1.34 0.34 0.68 0 0 Z M-1 2 C-0.34 2 0.32 2 1 2 C1 3.32 1 4.64 1 6 C0.34 6 -0.32 6 -1 6 C-1.0825 6.61875 -1.165 7.2375 -1.25 7.875 C-2 10 -2 10 -4.0625 11.25 C-4.701875 11.4975 -5.34125 11.745 -6 12 C-6.99 11.01 -7.98 10.02 -9 9 C-8.67 8.01 -8.34 7.02 -8 6 C-6.67203709 5.64587656 -5.33783393 5.31478446 -4 5 C-2.9805881 4.01979625 -1.97753644 3.02196992 -1 2 Z " fill="#E5F9F3" transform="translate(343,248)"/>
<path d="M0 0 C1.66611905 -0.042721 3.33382885 -0.04063832 5 0 C5.33 0.33 5.66 0.66 6 1 C8.05396726 0.59070014 8.05396726 0.59070014 10 0 C10 1.66666667 10 3.33333333 10 5 C8.54364629 5.22174933 7.08477044 5.42698698 5.625 5.625 C4.81289063 5.74101562 4.00078125 5.85703125 3.1640625 5.9765625 C2.44992187 5.98429688 1.73578125 5.99203125 1 6 C0.34 5.34 -0.32 4.68 -1 4 C-0.625 1.875 -0.625 1.875 0 0 Z " fill="#FEAFAF" transform="translate(274,151)"/>
<path d="M0 0 C0.66 0.33 1.32 0.66 2 1 C2.5625 2.9375 2.5625 2.9375 3 5 C3.33 5.66 3.66 6.32 4 7 C3.67 7.66 3.34 8.32 3 9 C-0.0625 9.625 -0.0625 9.625 -3 10 C-3.66 8.02 -4.32 6.04 -5 4 C-4.360625 3.71125 -3.72125 3.4225 -3.0625 3.125 C-0.84793921 2.17176549 -0.84793921 2.17176549 0 0 Z " fill="#D9E2FF" transform="translate(263,257)"/>
<path d="M0 0 C0.99 0 1.98 0 3 0 C3 0.66 3 1.32 3 2 C2.01 2 1.02 2 0 2 C0 2.99 0 3.98 0 5 C3.27773504 4.24849977 3.27773504 4.24849977 5 1 C6.32 1.33 7.64 1.66 9 2 C8.67 3.32 8.34 4.64 8 6 C1.84765625 6.87890625 1.84765625 6.87890625 0 7 C-1 6 -1 6 -1.125 3.5 C-1 1 -1 1 0 0 Z " fill="#EDCDDF" transform="translate(117,197)"/>
<path d="M0 0 C1.98 0 3.96 0 6 0 C6 0.66 6 1.32 6 2 C7.65 1.67 9.3 1.34 11 1 C10.67 1.99 10.34 2.98 10 4 C10.33 4.33 10.66 4.66 11 5 C8.01758453 5.77321882 5.02419525 6.41196203 2 7 C2.66 6.67 3.32 6.34 4 6 C4.65555119 3.47266765 4.65555119 3.47266765 5 1 C4.01 1 3.02 1 2 1 C1.67 2.32 1.34 3.64 1 5 C0.67 3.35 0.34 1.7 0 0 Z " fill="#FEF0DE" transform="translate(63,97)"/>
<path d="M0 0 C0.99 0.99 1.98 1.98 3 3 C2.690625 3.598125 2.38125 4.19625 2.0625 4.8125 C0.89790296 7.08956772 0.89790296 7.08956772 0 10 C-0.99 10.33 -1.98 10.66 -3 11 C-3.66 10.67 -4.32 10.34 -5 10 C-4.71125 9.443125 -4.4225 8.88625 -4.125 8.3125 C-2.94687457 5.9654682 -2.94687457 5.9654682 -1.9375 3.3125 C-1 1 -1 1 0 0 Z " fill="#F5F0FF" transform="translate(201,372)"/>
<path d="M0 0 C0.66 0.33 1.32 0.66 2 1 C1.8125 3.375 1.8125 3.375 1 6 C-1.4375 7.25 -1.4375 7.25 -4 8 C-4.99 8.495 -4.99 8.495 -6 9 C-6.33 7.68 -6.66 6.36 -7 5 C-3.375 2 -3.375 2 0 2 C0 1.34 0 0.68 0 0 Z " fill="#D5EFD7" transform="translate(398,45)"/>
<path d="M0 0 C0.66 0.33 1.32 0.66 2 1 C1.67 1.66 1.34 2.32 1 3 C1.66 3.33 2.32 3.66 3 4 C3.625 6.0625 3.625 6.0625 4 8 C4.66 8 5.32 8 6 8 C6 8.66 6 9.32 6 10 C5.21625 9.67 4.4325 9.34 3.625 9 C1.15667503 7.88133489 1.15667503 7.88133489 -1 8 C-1.04241723 5.66705225 -1.04092937 3.33297433 -1 1 C-0.67 0.67 -0.34 0.34 0 0 Z M7 6 C7.99 6.33 8.98 6.66 10 7 C9.34 7 8.68 7 8 7 C7.67 7.66 7.34 8.32 7 9 C7 8.01 7 7.02 7 6 Z " fill="#FFD5F7" transform="translate(66,42)"/>
<path d="M0 0 C-1.41519715 2.0343459 -2.54982123 2.90410393 -4.98046875 3.421875 C-6.98176954 3.66273952 -8.9909944 3.83532741 -11 4 C-11 2.68 -11 1.36 -11 0 C-3.57142857 -1.28571429 -3.57142857 -1.28571429 0 0 Z " fill="#D0CCF6" transform="translate(190,275)"/>
<path d="M0 0 C3.96 0 7.92 0 12 0 C12 0.66 12 1.32 12 2 C9.69 2 7.38 2 5 2 C5 2.66 5 3.32 5 4 C3.35 4 1.7 4 0 4 C0 2.68 0 1.36 0 0 Z " fill="#BFC1D8" transform="translate(159,251)"/>
<path d="M0 0 C0.66 0 1.32 0 2 0 C2 0.99 2 1.98 2 3 C2.66 3 3.32 3 4 3 C4 4.32 4 5.64 4 7 C2.02 7 0.04 7 -2 7 C-2.125 4.625 -2.125 4.625 -2 2 C-1.34 1.34 -0.68 0.68 0 0 Z " fill="#F2F5F7" transform="translate(184,314)"/>
<path d="M0 0 C2.64 0.33 5.28 0.66 8 1 C7.67 2.32 7.34 3.64 7 5 C3.7 4.67 0.4 4.34 -3 4 C-2.34 3.67 -1.68 3.34 -1 3 C-0.67 2.01 -0.34 1.02 0 0 Z " fill="#C3C5DA" transform="translate(206,244)"/>
<path d="M0 0 C3.63 0 7.26 0 11 0 C11 0.66 11 1.32 11 2 C9.02 2 7.04 2 5 2 C5 2.66 5 3.32 5 4 C3.35 4 1.7 4 0 4 C0 2.68 0 1.36 0 0 Z " fill="#BFBFDA" transform="translate(159,257)"/>
<path d="M0 0 C0.99 0.33 1.98 0.66 3 1 C2.67 2.32 2.34 3.64 2 5 C2.66 5 3.32 5 4 5 C4.33 3.68 4.66 2.36 5 1 C5.99 1 6.98 1 8 1 C7.00156904 3.99529289 6.48615558 5.15840327 4 7 C1.8125 6.6875 1.8125 6.6875 0 6 C0 4.02 0 2.04 0 0 Z " fill="#FEEDD6" transform="translate(109,92)"/>
<path d="M0 0 C2.125 0.9375 2.125 0.9375 4 2 C3.34 2 2.68 2 2 2 C2 3.32 2 4.64 2 6 C3.98 6 5.96 6 8 6 C8 6.33 8 6.66 8 7 C3.38 7 -1.24 7 -6 7 C-6 6.67 -6 6.34 -6 6 C-4.02 6 -2.04 6 0 6 C0 4.68 0 3.36 0 2 C-0.66 1.67 -1.32 1.34 -2 1 C-1.34 0.67 -0.68 0.34 0 0 Z " fill="#DDE1E9" transform="translate(188,315)"/>
<path d="M0 0 C0.66 0 1.32 0 2 0 C3.625 2.5 3.625 2.5 5 5 C1.37 5.33 -2.26 5.66 -6 6 C-4 4 -2 2 0 0 Z " fill="#FEE4D9" transform="translate(54,85)"/>
<path d="M0 0 C2.31 0.33 4.62 0.66 7 1 C7.33 2.32 7.66 3.64 8 5 C4.7 4.67 1.4 4.34 -2 4 C-1.34 2.68 -0.68 1.36 0 0 Z " fill="#C8BCEC" transform="translate(154,221)"/>
<path d="M0 0 C1.65 0 3.3 0 5 0 C5 1.32 5 2.64 5 4 C2.36 4.33 -0.28 4.66 -3 5 C-2.34 4.67 -1.68 4.34 -1 4 C-0.34786708 1.97536745 -0.34786708 1.97536745 0 0 Z " fill="#DDD0FC" transform="translate(147,284)"/>
<path d="M0 0 C0.66 0.66 1.32 1.32 2 2 C3.32 2 4.64 2 6 2 C6 2.66 6 3.32 6 4 C3.69 4.66 1.38 5.32 -1 6 C-1.33 4.68 -1.66 3.36 -2 2 C-1.34 2 -0.68 2 0 2 C0 1.34 0 0.68 0 0 Z " fill="#D6DDE4" transform="translate(200,282)"/>
<path d="M0 0 C3.96 0 7.92 0 12 0 C12 0.33 12 0.66 12 1 C10.02 1 8.04 1 6 1 C6 1.66 6 2.32 6 3 C4.02 3 2.04 3 0 3 C0 2.01 0 1.02 0 0 Z " fill="#CECDE1" transform="translate(158,245)"/>
<path d="M0 0 C2.33944736 0.28730055 4.6739143 0.61936779 7 1 C6.67 1.99 6.34 2.98 6 4 C4 4.66666667 2 5.33333333 0 6 C-0.38218767 4.34385343 -0.71395102 2.67542976 -1 1 C-0.67 0.67 -0.34 0.34 0 0 Z " fill="#FED5D5" transform="translate(254,147)"/>
<path d="M0 0 C1.98 0 3.96 0 6 0 C5.67 0.99 5.34 1.98 5 3 C4.67 2.34 4.34 1.68 4 1 C3.34 1 2.68 1 2 1 C2.33 2.32 2.66 3.64 3 5 C3.66 5 4.32 5 5 5 C4.67 5.66 4.34 6.32 4 7 C2.68 6.67 1.36 6.34 0 6 C0 4.02 0 2.04 0 0 Z " fill="#FEECEC" transform="translate(212,141)"/>
<path d="M0 0 C1.65 0 3.3 0 5 0 C4.01 0.495 4.01 0.495 3 1 C3 1.66 3 2.32 3 3 C3.66 3.33 4.32 3.66 5 4 C2.69 4.33 0.38 4.66 -2 5 C-2.33 3.68 -2.66 2.36 -3 1 C-2.67 1.66 -2.34 2.32 -2 3 C-1.34 3 -0.68 3 0 3 C0 2.01 0 1.02 0 0 Z " fill="#F2D9E8" transform="translate(139,196)"/>
<path d="M0 0 C1.32 0.33 2.64 0.66 4 1 C4.33 2.32 4.66 3.64 5 5 C2.69 5.33 0.38 5.66 -2 6 C-1.34 5.67 -0.68 5.34 0 5 C0 3.35 0 1.7 0 0 Z " fill="#98AEBE" transform="translate(206,281)"/>
<path d="M0 0 C2.02054804 1.64169528 4.02043058 3.30911778 6 5 C6 5.33 6 5.66 6 6 C4.02 6 2.04 6 0 6 C0 4.02 0 2.04 0 0 Z " fill="#FE7A79" transform="translate(121,144)"/>
<path d="M0 0 C0.99 0 1.98 0 3 0 C3.33 1.65 3.66 3.3 4 5 C2.35 5 0.7 5 -1 5 C-0.67 3.35 -0.34 1.7 0 0 Z " fill="#FDEBD0" transform="translate(89,96)"/>
<path d="M0 0 C0.66 0.33 1.32 0.66 2 1 C2 1.66 2 2.32 2 3 C0.02 3.99 -1.96 4.98 -4 6 C-4 5.01 -4 4.02 -4 3 C-2 1.3125 -2 1.3125 0 0 Z " fill="#D9E0FF" transform="translate(257,265)"/>
<path d="M0 0 C0.99 0.33 1.98 0.66 3 1 C3 1.66 3 2.32 3 3 C1.35 3 -0.3 3 -2 3 C-1.34 2.01 -0.68 1.02 0 0 Z M-5 2 C-3.02 2.99 -3.02 2.99 -1 4 C-1.66 4.66 -2.32 5.32 -3 6 C-3 5.34 -3 4.68 -3 4 C-3.66 4 -4.32 4 -5 4 C-5 3.34 -5 2.68 -5 2 Z " fill="#E4F7FA" transform="translate(308,272)"/>
<path d="M0 0 C2.33333333 0 4.66666667 0 7 0 C6.67 1.32 6.34 2.64 6 4 C4.35 3.67 2.7 3.34 1 3 C0.67 2.01 0.34 1.02 0 0 Z " fill="#DCDFE9" transform="translate(199,243)"/>
<path d="M0 0 C0.99 0 1.98 0 3 0 C3 1.98 3 3.96 3 6 C2.01 6 1.02 6 0 6 C0 4.02 0 2.04 0 0 Z " fill="#FDB42B" transform="translate(286,93)"/>
<path d="M0 0 C1.32 0.66 2.64 1.32 4 2 C3.01 3.485 3.01 3.485 2 5 C1.01 5 0.02 5 -1 5 C-0.67 3.35 -0.34 1.7 0 0 Z " fill="#7292A6" transform="translate(179,285)"/>
<path d="M0 0 C0.99 0 1.98 0 3 0 C3.33 1.32 3.66 2.64 4 4 C2.68 4.33 1.36 4.66 0 5 C-0.5625 3.0625 -0.5625 3.0625 -1 1 C-0.67 0.67 -0.34 0.34 0 0 Z " fill="#FEE2E2" transform="translate(276,151)"/>
<path d="M0 0 C0.99 0.33 1.98 0.66 3 1 C3 1.99 3 2.98 3 4 C1.02 4.33 -0.96 4.66 -3 5 C-2.01 3.35 -1.02 1.7 0 0 Z " fill="#D9EACA" transform="translate(360,67)"/>
<path d="M0 0 C2.125 0.9375 2.125 0.9375 4 2 C3.34 2 2.68 2 2 2 C1.67 2.66 1.34 3.32 1 4 C0.01 4.33 -0.98 4.66 -2 5 C-2 3.68 -2 2.36 -2 1 C-1.34 0.67 -0.68 0.34 0 0 Z " fill="#D5EFD7" transform="translate(381,58)"/>
<path d="M0 0 C1.32 0 2.64 0 4 0 C4 0.66 4 1.32 4 2 C3.34 2 2.68 2 2 2 C1.34 3.32 0.68 4.64 0 6 C-0.38218767 4.34385343 -0.71395102 2.67542976 -1 1 C-0.67 0.67 -0.34 0.34 0 0 Z " fill="#B6C5D1" transform="translate(163,288)"/>
<path d="M0 0 C0.66 0.66 1.32 1.32 2 2 C1.67 2.99 1.34 3.98 1 5 C-0.98 5 -2.96 5 -5 5 C-4 2 -4 2 -1.9375 0.8125 C-1.298125 0.544375 -0.65875 0.27625 0 0 Z " fill="#F4DAFF" transform="translate(64,223)"/>
<path d="M0 0 C0 0.66 0 1.32 0 2 C-2.70879335 3.35439668 -5.00933268 3.06501451 -8 3 C-5.53387212 -0.1151089 -3.89156016 -0.31553191 0 0 Z " fill="#D9D4FE" transform="translate(169,180)"/>
<path d="M0 0 C0.99 0.66 1.98 1.32 3 2 C2.34 2 1.68 2 1 2 C1 2.99 1 3.98 1 5 C-0.32 5 -1.64 5 -3 5 C-2.625 3.0625 -2.625 3.0625 -2 1 C-1.34 0.67 -0.68 0.34 0 0 Z " fill="#FDB225" transform="translate(101,93)"/>
</svg>
