<?xml version="1.0" encoding="UTF-8"?>
<svg version="1.1" xmlns="http://www.w3.org/2000/svg" width="400" height="400">
<path d="M0 0 C132 0 264 0 400 0 C400 132 400 264 400 400 C268 400 136 400 0 400 C0 268 0 136 0 0 Z " fill="#F7DEF0" transform="translate(0,0)"/>
<path d="M0 0 C54.12 0 108.24 0 164 0 C165.03315908 5.16579541 165.09504845 5.69052627 162.83203125 9.9765625 C162.35056641 10.894375 161.86910156 11.8121875 161.37304688 12.7578125 C160.60057617 14.17707031 160.60057617 14.17707031 159.8125 15.625 C159.31685547 16.57890625 158.82121094 17.5328125 158.31054688 18.515625 C154.0410899 26.52438181 154.0410899 26.52438181 150 29 C147.203125 29.29296875 147.203125 29.29296875 144.25 29.1875 C143.26515625 29.16042969 142.2803125 29.13335937 141.265625 29.10546875 C140.51796875 29.07066406 139.7703125 29.03585938 139 29 C138.34 30.98 137.68 32.96 137 35 C138.299375 35.144375 139.59875 35.28875 140.9375 35.4375 C144.875 35.875 144.875 35.875 146 37 C145.7036365 43.40145161 143.19675618 48.17921675 140.1875 53.75 C139.74857422 54.59949219 139.30964844 55.44898438 138.85742188 56.32421875 C135.04372905 63.49826795 135.04372905 63.49826795 131 66 C127.984375 66.29296875 127.984375 66.29296875 124.75 66.1875 C123.13351563 66.14689453 123.13351563 66.14689453 121.484375 66.10546875 C120.66453125 66.07066406 119.8446875 66.03585938 119 66 C118.5359375 67.423125 118.5359375 67.423125 118.0625 68.875 C117 72 117 72 116 74 C119.3 74 122.6 74 126 74 C127.12166839 77.99522546 126.94373497 79.99479374 125.0859375 83.6875 C124.43818359 84.98300781 124.43818359 84.98300781 123.77734375 86.3046875 C123.31457031 87.19414062 122.85179687 88.08359375 122.375 89 C121.93542969 89.88945312 121.49585938 90.77890625 121.04296875 91.6953125 C118.61929023 96.45737879 116.3963313 100.78398087 112 104 C108.66796875 104.48828125 108.66796875 104.48828125 105.1875 104.3125 C104.02605469 104.26738281 102.86460938 104.22226563 101.66796875 104.17578125 C100.78753906 104.11777344 99.90710938 104.05976563 99 104 C98.34 105.98 97.68 107.96 97 110 C100.3 110.33 103.6 110.66 107 111 C107.99070738 113.53113459 108.21679587 115.35847043 107.34048462 117.95159912 C106.24573038 120.33606337 105.07367847 122.6642422 103.86328125 124.9921875 C103.4274321 125.85635284 102.99158295 126.72051819 102.54252625 127.61087036 C101.14550248 130.37239817 99.72914676 133.12349624 98.3125 135.875 C97.37701446 137.7194233 96.44275562 139.56446933 95.50976562 141.41015625 C91.81418568 148.69393256 88.10879264 155.93898998 84 163 C81.52402635 162.63834458 80.33339961 162.43067151 78.77075195 160.41210938 C78.43003662 159.72955078 78.08932129 159.04699219 77.73828125 158.34375 C77.1498645 157.19314087 77.1498645 157.19314087 76.54956055 156.01928711 C75.93721558 154.77223999 75.93721558 154.77223999 75.3125 153.5 C74.43015984 151.76147894 73.54733726 150.02320265 72.6640625 148.28515625 C71.99938965 146.96088623 71.99938965 146.96088623 71.32128906 145.60986328 C69.33550937 141.68747139 67.25990412 137.81457507 65.1875 133.9375 C64.10906452 131.89897106 63.03351688 129.85894777 61.95898438 127.81835938 C61.08608168 126.16322208 60.20741605 124.51112735 59.328125 122.859375 C58.86921875 121.97765625 58.4103125 121.0959375 57.9375 120.1875 C57.36322266 119.09501953 57.36322266 119.09501953 56.77734375 117.98046875 C56 116 56 116 56 112 C59.21451269 110.39274365 62.43612536 110.94251815 66 111 C65.505 110.21625 65.01 109.4325 64.5 108.625 C63 106 63 106 63 104 C62.33613281 104.04640625 61.67226562 104.0928125 60.98828125 104.140625 C60.10527344 104.17671875 59.22226563 104.2128125 58.3125 104.25 C57.44238281 104.29640625 56.57226562 104.3428125 55.67578125 104.390625 C51.87870284 103.83630698 50.6669869 102.81081516 48 100 C45.80211617 96.44610201 43.95765659 92.75258254 42.125 89 C41.61453125 88.00226563 41.1040625 87.00453125 40.578125 85.9765625 C40.10117187 85.01492187 39.62421875 84.05328125 39.1328125 83.0625 C38.69855957 82.18722656 38.26430664 81.31195313 37.81689453 80.41015625 C36.91824971 77.75880489 37.02879358 76.58189647 38 74 C40.64 74 43.28 74 46 74 C45.505 73.05125 45.01 72.1025 44.5 71.125 C43 68 43 68 43 66 C42.32453125 66.04640625 41.6490625 66.0928125 40.953125 66.140625 C40.06109375 66.17671875 39.1690625 66.2128125 38.25 66.25 C37.36828125 66.29640625 36.4865625 66.3428125 35.578125 66.390625 C32.15855159 65.87250782 31.26912346 64.56454646 29 62 C26.84270267 58.62007995 25.04155786 55.05381182 23.1875 51.5 C22.67251953 50.54996094 22.15753906 49.59992188 21.62695312 48.62109375 C21.14548828 47.70457031 20.66402344 46.78804687 20.16796875 45.84375 C19.72735107 45.01037109 19.2867334 44.17699219 18.83276367 43.31835938 C17.89616557 40.71093178 18.04300424 39.55591031 19 37 C21.31 37 23.62 37 26 37 C25.505 36.05125 25.01 35.1025 24.5 34.125 C23 31 23 31 23 29 C21.783125 29.0825 20.56625 29.165 19.3125 29.25 C16.44025948 29.44472817 15.13101389 29.07413469 12.59765625 27.640625 C8.79098787 23.77098917 6.58803362 19.30226396 4.125 14.5 C3.61453125 13.54996094 3.1040625 12.59992188 2.578125 11.62109375 C2.10117187 10.70457031 1.62421875 9.78804687 1.1328125 8.84375 C0.69855957 8.01037109 0.26430664 7.17699219 -0.18310547 6.31835938 C-1 4 -1 4 0 0 Z " fill="#391656" transform="translate(20,119)"/>
<path d="M0 0 C0.99 0.66 1.98 1.32 3 2 C5.72259754 2.11713169 8.34628543 2.14175295 11.0625 2.0625 C18.75944584 1.87972292 18.75944584 1.87972292 21 3 C21.99 2.67 22.98 2.34 24 2 C26.22818441 1.93062938 28.45834524 1.91542916 30.6875 1.9375 C32.45673828 1.95103516 32.45673828 1.95103516 34.26171875 1.96484375 C35.16535156 1.97644531 36.06898438 1.98804688 37 2 C37 2.66 37 3.32 37 4 C37.515625 3.79375 38.03125 3.5875 38.5625 3.375 C43.01460053 2.69006146 47.05870558 4.60465635 51.125 6.3125 C54.04035248 7.3573681 54.04035248 7.3573681 56.5 5.5625 C57.325 5.046875 58.15 4.53125 59 4 C62.3125 4.3125 62.3125 4.3125 65 5 C64.34 5.33 63.68 5.66 63 6 C64.64541457 8.43765121 65.48479838 9.57204689 68 11 C72.36228701 11.46935999 76.62752987 11.25129139 81 11 C82.32 11 83.64 11 85 11 C85 13 85 15 85 17 C84.34 17 83.68 17 83 17 C82.67 17.66 82.34 18.32 82 19 C80.625 21.125 80.625 21.125 79 23 C78.01 23 77.02 23 76 23 C76 22.34 76 21.68 76 21 C75.34 21 74.68 21 74 21 C73.67 22.65 73.34 24.3 73 26 C74.26418246 26.69965443 75.53665402 27.38434763 76.8125 28.0625 C77.87404297 28.63677734 77.87404297 28.63677734 78.95703125 29.22265625 C81.14697801 30.30263511 81.14697801 30.30263511 84 29 C84.94875 29.495 85.8975 29.99 86.875 30.5 C90.38061393 32.18269469 91.38247938 31.97770827 95 31 C95.99 31.33 96.98 31.66 98 32 C98.99 31.67 99.98 31.34 101 31 C101.33 32.32 101.66 33.64 102 35 C101.01 35.33 100.02 35.66 99 36 C99 36.99 99 37.98 99 39 C99.66 39.66 100.32 40.32 101 41 C100.34 41 99.68 41 99 41 C98.67 41.66 98.34 42.32 98 43 C97.05125 42.835 96.1025 42.67 95.125 42.5 C91.39256302 41.8088796 91.39256302 41.8088796 88 43 C88 42.01 88 41.02 88 40 C87.34 40 86.68 40 86 40 C85.67 40.66 85.34 41.32 85 42 C85.66 42.33 86.32 42.66 87 43 C85.125 46.875 85.125 46.875 84 48 C86.31 48.33 88.62 48.66 91 49 C91 49.99 91 50.98 91 52 C91.61875 52.28875 92.2375 52.5775 92.875 52.875 C95 54 95 54 97 56 C98.31446211 56.54769255 99.65107122 57.04374468 101 57.5 C103.7419269 58.42741645 104.90626198 58.90626198 107 61 C107.99 61.66 108.98 62.32 110 63 C110.99 63.66 111.98 64.32 113 65 C115.58333333 64.91666667 115.58333333 64.91666667 118 64 C118.66 63.01 119.32 62.02 120 61 C120 61.66 120 62.32 120 63 C120.66 63 121.32 63 122 63 C122.66 63.66 123.32 64.32 124 65 C124 61.72724974 123.70074844 59.153368 123 56 C122.21625 55.896875 121.4325 55.79375 120.625 55.6875 C118 55 118 55 116 52 C118.475 51.505 118.475 51.505 121 51 C121.33 51.66 121.66 52.32 122 53 C123.32 52.67 124.64 52.34 126 52 C126.33 52.99 126.66 53.98 127 55 C127.66 55.33 128.32 55.66 129 56 C129 55.34 129 54.68 129 54 C129.66 54 130.32 54 131 54 C131 54.66 131 55.32 131 56 C131.99 56 132.98 56 134 56 C134 56.66 134 57.32 134 58 C134.66 58.33 135.32 58.66 136 59 C135.67 59.99 135.34 60.98 135 62 C134.01 62 133.02 62 132 62 C131.01 62.495 131.01 62.495 130 63 C130 64.32 130 65.64 130 67 C129.67 67.99 129.34 68.98 129 70 C129.99 70.66 130.98 71.32 132 72 C132.3721042 73.32303717 132.70630173 74.65737935 133 76 C134.89755144 78.34973818 134.89755144 78.34973818 138.125 78.125 C139.07375 78.08375 140.0225 78.0425 141 78 C141.33 78.66 141.66 79.32 142 80 C62.8 80 -16.4 80 -98 80 C-97.34 78.68 -96.68 77.36 -96 76 C-95.32453125 76.04640625 -94.6490625 76.0928125 -93.953125 76.140625 C-88.36366224 76.55886728 -88.36366224 76.55886728 -83.625 74.0625 C-83.08875 73.381875 -82.5525 72.70125 -82 72 C-81.38253906 71.86464844 -80.76507813 71.72929687 -80.12890625 71.58984375 C-75.87350302 70.41082377 -73.28401493 66.60633937 -71 63 C-70.19555307 59.96929295 -69.94929839 57.12901361 -70 54 C-70.94875 53.9175 -71.8975 53.835 -72.875 53.75 C-76 53 -76 53 -77.25 51.25 C-77.4975 50.5075 -77.745 49.765 -78 49 C-78.37125 48.0925 -78.7425 47.185 -79.125 46.25 C-79.41375 45.5075 -79.7025 44.765 -80 44 C-80.33 44.66 -80.66 45.32 -81 46 C-81.66 44.02 -82.32 42.04 -83 40 C-83.99 40 -84.98 40 -86 40 C-86.33 40.66 -86.66 41.32 -87 42 C-87.99 42 -88.98 42 -90 42 C-90 41.01 -90 40.02 -90 39 C-91.98 39 -93.96 39 -96 39 C-95.505 38.236875 -95.01 37.47375 -94.5 36.6875 C-92.75631692 34.07636249 -92.75631692 34.07636249 -93 31 C-92.67 30.34 -92.34 29.68 -92 29 C-91.34 29 -90.68 29 -90 29 C-89.67 27.68 -89.34 26.36 -89 25 C-88.34 25 -87.68 25 -87 25 C-87 24.34 -87 23.68 -87 23 C-83.37 22.67 -79.74 22.34 -76 22 C-76 22.66 -76 23.32 -76 24 C-75.34 24 -74.68 24 -74 24 C-73.67 23.34 -73.34 22.68 -73 22 C-73 22.66 -73 23.32 -73 24 C-71.21858253 24.86358623 -71.21858253 24.86358623 -69 25 C-66.72855926 23.14567913 -66.72855926 23.14567913 -65 21 C-65.639375 20.896875 -66.27875 20.79375 -66.9375 20.6875 C-67.618125 20.460625 -68.29875 20.23375 -69 20 C-69.33 19.01 -69.66 18.02 -70 17 C-64.85714286 12.57142857 -64.85714286 12.57142857 -61 12 C-61 11.01 -61 10.02 -61 9 C-59.25 7.875 -59.25 7.875 -57 7 C-56.401875 7.33 -55.80375 7.66 -55.1875 8 C-51.76633535 9.56396098 -49.44377617 8.20834252 -46 7 C-45.26523438 6.65582031 -44.53046875 6.31164062 -43.7734375 5.95703125 C-40.22159978 4.73139711 -36.78127361 4.57906891 -33.0625 4.4375 C-29.29588765 4.27220515 -25.59214701 4.09967562 -21.8671875 3.47265625 C-18.86492898 2.97773352 -16.10145832 2.936106 -13.0625 3 C-8.57113271 3.04474588 -4.41397569 2.80254103 0 2 C0 1.34 0 0.68 0 0 Z M126 62 C127 64 127 64 127 64 Z " fill="#B8EAF9" transform="translate(131,320)"/>
<path d="M0 0 C0.99 0.66 1.98 1.32 3 2 C5.72259754 2.11713169 8.34628543 2.14175295 11.0625 2.0625 C18.75944584 1.87972292 18.75944584 1.87972292 21 3 C21.99 2.67 22.98 2.34 24 2 C26.22818441 1.93062938 28.45834524 1.91542916 30.6875 1.9375 C32.45673828 1.95103516 32.45673828 1.95103516 34.26171875 1.96484375 C35.16535156 1.97644531 36.06898438 1.98804688 37 2 C37 2.66 37 3.32 37 4 C37.515625 3.79375 38.03125 3.5875 38.5625 3.375 C43.01460053 2.69006146 47.05870558 4.60465635 51.125 6.3125 C54.04035248 7.3573681 54.04035248 7.3573681 56.5 5.5625 C57.325 5.046875 58.15 4.53125 59 4 C62.3125 4.3125 62.3125 4.3125 65 5 C64.34 5.33 63.68 5.66 63 6 C64.64541457 8.43765121 65.48479838 9.57204689 68 11 C72.36228701 11.46935999 76.62752987 11.25129139 81 11 C82.32 11 83.64 11 85 11 C85 13 85 15 85 17 C84.34 17 83.68 17 83 17 C82.67 17.66 82.34 18.32 82 19 C80.625 21.125 80.625 21.125 79 23 C78.01 23 77.02 23 76 23 C76 22.34 76 21.68 76 21 C75.34 21 74.68 21 74 21 C73.67 22.65 73.34 24.3 73 26 C74.26418246 26.69965443 75.53665402 27.38434763 76.8125 28.0625 C77.87404297 28.63677734 77.87404297 28.63677734 78.95703125 29.22265625 C81.14697801 30.30263511 81.14697801 30.30263511 84 29 C84.94875 29.495 85.8975 29.99 86.875 30.5 C90.38061393 32.18269469 91.38247938 31.97770827 95 31 C95.99 31.33 96.98 31.66 98 32 C98.99 31.67 99.98 31.34 101 31 C101.33 32.32 101.66 33.64 102 35 C101.01 35.33 100.02 35.66 99 36 C99 36.99 99 37.98 99 39 C99.66 39.66 100.32 40.32 101 41 C100.34 41 99.68 41 99 41 C98.67 41.66 98.34 42.32 98 43 C97.05125 42.835 96.1025 42.67 95.125 42.5 C91.39256302 41.8088796 91.39256302 41.8088796 88 43 C88 42.01 88 41.02 88 40 C87.34 40 86.68 40 86 40 C85.67 40.66 85.34 41.32 85 42 C85.66 42.33 86.32 42.66 87 43 C86.34 44.32 85.68 45.64 85 47 C84.34 47 83.68 47 83 47 C82.34 48.32 81.68 49.64 81 51 C80.7525 50.360625 80.505 49.72125 80.25 49.0625 C79.21635115 46.81523431 79.21635115 46.81523431 77.0625 46.5 C76.381875 46.335 75.70125 46.17 75 46 C74.525625 45.319375 74.05125 44.63875 73.5625 43.9375 C72.16066752 41.74334007 72.16066752 41.74334007 69.625 41.6875 C67.04219805 41.99497642 64.54417995 42.46438317 62 43 C60.33333333 43 58.66666667 43 57 43 C57 42.34 57 41.68 57 41 C56.05125 41.020625 55.1025 41.04125 54.125 41.0625 C51 41 51 41 49 40 C46.97983241 41.95871451 46.97983241 41.95871451 45.2578125 44.09765625 C42.33087793 46.56377586 40.65590455 46.50717269 36.875 46.4375 C35.29332031 46.43556641 35.29332031 46.43556641 33.6796875 46.43359375 C32.79539063 46.29050781 31.91109375 46.14742188 31 46 C30.34 45.01 29.68 44.02 29 43 C28.505 43.99 28.505 43.99 28 45 C27.0409375 44.7215625 27.0409375 44.7215625 26.0625 44.4375 C22.68889579 43.95555654 19.95585848 44.30296769 16.6015625 44.74609375 C13.65375896 45.03379229 10.77361567 45.03306457 7.8125 45 C3.7294299 44.95860005 0.01927093 45.23442458 -4 46 C-5.99961564 46.03920815 -8.00049364 46.04443347 -10 46 C-12.92024369 45.88476681 -12.92024369 45.88476681 -15.375 46.5625 C-18.26481337 47.04413556 -20.20779763 46.85317295 -23 46 C-23.33 45.34 -23.66 44.68 -24 44 C-25.32 44.99 -26.64 45.98 -28 47 C-28.33 46.01 -28.66 45.02 -29 44 C-29.66 43.67 -30.32 43.34 -31 43 C-31.495 43.99 -31.495 43.99 -32 45 C-35.011071 45.9463366 -36.93798575 46.01139037 -40.0625 45.4375 C-42.92588543 44.72373696 -42.92588543 44.72373696 -45 46 C-47.87336805 47.43668403 -49.94983694 46.69321888 -53 46 C-53 46.66 -53 47.32 -53 48 C-55.39049367 50.73199277 -57.60041507 52.68403164 -61 54 C-61.99 54 -62.98 54 -64 54 C-65.69719127 54.94726954 -67.36935236 55.94228261 -69 57 C-69.33 56.01 -69.66 55.02 -70 54 C-70.94875 53.9175 -71.8975 53.835 -72.875 53.75 C-76 53 -76 53 -77.25 51.25 C-77.4975 50.5075 -77.745 49.765 -78 49 C-78.37125 48.0925 -78.7425 47.185 -79.125 46.25 C-79.41375 45.5075 -79.7025 44.765 -80 44 C-80.33 44.66 -80.66 45.32 -81 46 C-81.66 44.02 -82.32 42.04 -83 40 C-83.99 40 -84.98 40 -86 40 C-86.33 40.66 -86.66 41.32 -87 42 C-87.99 42 -88.98 42 -90 42 C-90 41.01 -90 40.02 -90 39 C-91.98 39 -93.96 39 -96 39 C-95.505 38.236875 -95.01 37.47375 -94.5 36.6875 C-92.75631692 34.07636249 -92.75631692 34.07636249 -93 31 C-92.67 30.34 -92.34 29.68 -92 29 C-91.34 29 -90.68 29 -90 29 C-89.67 27.68 -89.34 26.36 -89 25 C-88.34 25 -87.68 25 -87 25 C-87 24.34 -87 23.68 -87 23 C-83.37 22.67 -79.74 22.34 -76 22 C-76 22.66 -76 23.32 -76 24 C-75.34 24 -74.68 24 -74 24 C-73.67 23.34 -73.34 22.68 -73 22 C-73 22.66 -73 23.32 -73 24 C-71.21858253 24.86358623 -71.21858253 24.86358623 -69 25 C-66.72855926 23.14567913 -66.72855926 23.14567913 -65 21 C-65.639375 20.896875 -66.27875 20.79375 -66.9375 20.6875 C-67.618125 20.460625 -68.29875 20.23375 -69 20 C-69.33 19.01 -69.66 18.02 -70 17 C-64.85714286 12.57142857 -64.85714286 12.57142857 -61 12 C-61 11.01 -61 10.02 -61 9 C-59.25 7.875 -59.25 7.875 -57 7 C-56.401875 7.33 -55.80375 7.66 -55.1875 8 C-51.76633535 9.56396098 -49.44377617 8.20834252 -46 7 C-45.26523438 6.65582031 -44.53046875 6.31164062 -43.7734375 5.95703125 C-40.22159978 4.73139711 -36.78127361 4.57906891 -33.0625 4.4375 C-29.29588765 4.27220515 -25.59214701 4.09967562 -21.8671875 3.47265625 C-18.86492898 2.97773352 -16.10145832 2.936106 -13.0625 3 C-8.57113271 3.04474588 -4.41397569 2.80254103 0 2 C0 1.34 0 0.68 0 0 Z " fill="#C4DBF3" transform="translate(131,320)"/>
<path d="M0 0 C2.02404288 1.72418468 2.34130961 2.84107204 2.6875 5.4375 C3.3475 5.1075 4.0075 4.7775 4.6875 4.4375 C4.6875 5.0975 4.6875 5.7575 4.6875 6.4375 C6.1415625 6.0971875 6.1415625 6.0971875 7.625 5.75 C12.30211979 5.06134432 16.4831254 6.38944628 20.6875 8.4375 C21.1825 9.4275 21.1825 9.4275 21.6875 10.4375 C23.3375 9.4475 24.9875 8.4575 26.6875 7.4375 C26.6875 8.0975 26.6875 8.7575 26.6875 9.4375 C28.0075 9.7675 29.3275 10.0975 30.6875 10.4375 C31.0175 9.4475 31.3475 8.4575 31.6875 7.4375 C32.3475 7.4375 33.0075 7.4375 33.6875 7.4375 C33.6875 6.7775 33.6875 6.1175 33.6875 5.4375 C36.125 6.1875 36.125 6.1875 38.6875 7.4375 C39.6875 9.375 39.6875 9.375 39.6875 11.4375 C38.1532452 13.61775682 37.04416511 14.32540525 34.5 15.125 C33.901875 15.228125 33.30375 15.33125 32.6875 15.4375 C32.6875 18.55007569 32.86111624 20.54515685 33.6875 23.4375 C36.96523504 22.68599977 36.96523504 22.68599977 38.6875 19.4375 C41.35416667 22.10416667 44.02083333 24.77083333 46.6875 27.4375 C50.48297921 26.46973902 50.48297921 26.46973902 53.6875 24.4375 C53.92113881 22.58858054 54.10053635 20.73261969 54.25 18.875 C54.37568359 17.35712891 54.37568359 17.35712891 54.50390625 15.80859375 C54.56449219 15.02613281 54.62507813 14.24367188 54.6875 13.4375 C55.0175 13.4375 55.3475 13.4375 55.6875 13.4375 C55.6875 37.5275 55.6875 61.6175 55.6875 86.4375 C30.6075 86.4375 5.5275 86.4375 -20.3125 86.4375 C-19.9825 84.4575 -19.6525 82.4775 -19.3125 80.4375 C-19.9725 80.4375 -20.6325 80.4375 -21.3125 80.4375 C-21.8075 79.4475 -21.8075 79.4475 -22.3125 78.4375 C-23.3025 78.9325 -23.3025 78.9325 -24.3125 79.4375 C-24.6425 76.4675 -24.9725 73.4975 -25.3125 70.4375 C-26.3025 70.9325 -26.3025 70.9325 -27.3125 71.4375 C-27.3125 70.7775 -27.3125 70.1175 -27.3125 69.4375 C-29.48124252 69.94353992 -31.31217627 70.43733813 -33.3125 71.4375 C-33.9725 70.7775 -34.6325 70.1175 -35.3125 69.4375 C-37.39583333 69.60416667 -37.39583333 69.60416667 -39.3125 70.4375 C-39.8075 71.4275 -39.8075 71.4275 -40.3125 72.4375 C-40.6425 71.4475 -40.9725 70.4575 -41.3125 69.4375 C-44.2825 69.9325 -44.2825 69.9325 -47.3125 70.4375 C-47.6425 69.4475 -47.9725 68.4575 -48.3125 67.4375 C-46.8275 66.4475 -46.8275 66.4475 -45.3125 65.4375 C-44.9825 64.4475 -44.6525 63.4575 -44.3125 62.4375 C-43.6525 61.7775 -42.9925 61.1175 -42.3125 60.4375 C-42.3125 59.1175 -42.3125 57.7975 -42.3125 56.4375 C-39.8125 54.1875 -39.8125 54.1875 -37.3125 52.4375 C-36.6525 53.4275 -35.9925 54.4175 -35.3125 55.4375 C-36.6325 56.4275 -37.9525 57.4175 -39.3125 58.4375 C-38.425625 58.19 -37.53875 57.9425 -36.625 57.6875 C-33.3125 57.4375 -33.3125 57.4375 -30.4375 59.375 C-29.73625 60.055625 -29.035 60.73625 -28.3125 61.4375 C-27.9825 60.7775 -27.6525 60.1175 -27.3125 59.4375 C-25.8275 58.9425 -25.8275 58.9425 -24.3125 58.4375 C-24.3125 59.0975 -24.3125 59.7575 -24.3125 60.4375 C-22.6625 61.0975 -21.0125 61.7575 -19.3125 62.4375 C-19.83730001 56.14841518 -19.83730001 56.14841518 -22.3125 50.4375 C-22.9725 50.4375 -23.6325 50.4375 -24.3125 50.4375 C-24.8075 45.4875 -24.8075 45.4875 -25.3125 40.4375 C-25.9725 40.4375 -26.6325 40.4375 -27.3125 40.4375 C-26.3225 37.1375 -25.3325 33.8375 -24.3125 30.4375 C-23.9825 30.4375 -23.6525 30.4375 -23.3125 30.4375 C-22.9825 32.0875 -22.6525 33.7375 -22.3125 35.4375 C-21.3225 34.4475 -20.3325 33.4575 -19.3125 32.4375 C-17.8275 32.9325 -17.8275 32.9325 -16.3125 33.4375 C-16.3125 31.4575 -16.3125 29.4775 -16.3125 27.4375 C-15.3225 27.7675 -14.3325 28.0975 -13.3125 28.4375 C-13.3125 29.4275 -13.3125 30.4175 -13.3125 31.4375 C-10.8375 29.9525 -10.8375 29.9525 -8.3125 28.4375 C-9.26125 28.14875 -10.21 27.86 -11.1875 27.5625 C-14.3125 26.4375 -14.3125 26.4375 -16.3125 24.4375 C-17.19921875 22.34375 -17.19921875 22.34375 -18 19.9375 C-18.27199219 19.1434375 -18.54398437 18.349375 -18.82421875 17.53125 C-19.3125 15.4375 -19.3125 15.4375 -18.3125 13.4375 C-15.8375 13.9325 -15.8375 13.9325 -13.3125 14.4375 C-12.15438612 11.49020463 -12.15438612 11.49020463 -12.3125 8.4375 C-11.3225 8.7675 -10.3325 9.0975 -9.3125 9.4375 C-9.3125 10.0975 -9.3125 10.7575 -9.3125 11.4375 C-8.6525 11.4375 -7.9925 11.4375 -7.3125 11.4375 C-7.22363816 8.23847361 -7.40191469 5.51072544 -8.3125 2.4375 C-2.9664028 -0.72155744 -2.9664028 -0.72155744 0 0 Z M-33.3125 67.4375 C-32.3125 69.4375 -32.3125 69.4375 -32.3125 69.4375 Z " fill="#E9EFFB" transform="translate(344.3125,313.5625)"/>
<path d="M0 0 C1.53402726 -0.00067496 3.06805441 -0.00164659 4.6020813 -0.00289917 C7.80781071 -0.00436798 11.01351214 -0.00224853 14.21923828 0.00244141 C18.30298031 0.0081285 22.38665645 0.00486093 26.47039604 -0.00113106 C29.63620488 -0.00476705 32.80199844 -0.00358404 35.96780777 -0.00100327 C37.47231174 -0.00034188 38.97681715 -0.00113447 40.48131943 -0.00348282 C48.45609796 -0.01319866 56.33870823 0.0893572 64.2578125 1.1328125 C65.37948089 5.12803796 65.20154747 7.12760624 63.34375 10.8203125 C62.91191406 11.68398437 62.48007813 12.54765625 62.03515625 13.4375 C61.57238281 14.32695312 61.10960937 15.21640625 60.6328125 16.1328125 C60.19324219 17.02226562 59.75367188 17.91171875 59.30078125 18.828125 C56.87710273 23.59019129 54.6541438 27.91679337 50.2578125 31.1328125 C46.92578125 31.62109375 46.92578125 31.62109375 43.4453125 31.4453125 C41.70314453 31.37763672 41.70314453 31.37763672 39.92578125 31.30859375 C39.04535156 31.25058594 38.16492188 31.19257813 37.2578125 31.1328125 C36.5978125 33.1128125 35.9378125 35.0928125 35.2578125 37.1328125 C38.5578125 37.4628125 41.8578125 37.7928125 45.2578125 38.1328125 C46.24851988 40.66394709 46.47460837 42.49128293 45.59829712 45.08441162 C44.50354288 47.46887587 43.33149097 49.7970547 42.12109375 52.125 C41.6852446 52.98916534 41.24939545 53.85333069 40.80033875 54.74368286 C39.40331498 57.50521067 37.98695926 60.25630874 36.5703125 63.0078125 C35.63482696 64.8522358 34.70056812 66.69728183 33.76757812 68.54296875 C30.07199818 75.82674506 26.36660514 83.07180248 22.2578125 90.1328125 C19.78183885 89.77115708 18.59121211 89.56348401 17.02856445 87.54492188 C16.68784912 86.86236328 16.34713379 86.17980469 15.99609375 85.4765625 C15.60381592 84.70948975 15.21153809 83.94241699 14.80737305 83.15209961 C14.39914307 82.32073486 13.99091309 81.48937012 13.5703125 80.6328125 C12.68797234 78.89429144 11.80514976 77.15601515 10.921875 75.41796875 C10.25720215 74.09369873 10.25720215 74.09369873 9.57910156 72.74267578 C7.59332187 68.82028389 5.51771662 64.94738757 3.4453125 61.0703125 C2.36687702 59.03178356 1.29132938 56.99176027 0.21679688 54.95117188 C-0.65610582 53.29603458 -1.53477145 51.64393985 -2.4140625 49.9921875 C-2.87296875 49.11046875 -3.331875 48.22875 -3.8046875 47.3203125 C-4.18753906 46.59199219 -4.57039063 45.86367187 -4.96484375 45.11328125 C-5.7421875 43.1328125 -5.7421875 43.1328125 -5.7421875 39.1328125 C-2.52767481 37.52555615 0.69393786 38.07533065 4.2578125 38.1328125 C3.7628125 37.3490625 3.2678125 36.5653125 2.7578125 35.7578125 C1.2578125 33.1328125 1.2578125 33.1328125 1.2578125 31.1328125 C0.59394531 31.17921875 -0.06992188 31.225625 -0.75390625 31.2734375 C-2.07841797 31.32757813 -2.07841797 31.32757813 -3.4296875 31.3828125 C-4.29980469 31.42921875 -5.16992188 31.475625 -6.06640625 31.5234375 C-9.86348466 30.96911948 -11.0752006 29.94362766 -13.7421875 27.1328125 C-15.94007133 23.57891451 -17.78453091 19.88539504 -19.6171875 16.1328125 C-20.12765625 15.13507813 -20.638125 14.13734375 -21.1640625 13.109375 C-21.64101563 12.14773437 -22.11796875 11.18609375 -22.609375 10.1953125 C-23.26075439 8.88240234 -23.26075439 8.88240234 -23.92529297 7.54296875 C-24.82393779 4.89161739 -24.71339392 3.71470897 -23.7421875 1.1328125 C-15.85805563 -0.15249117 -7.96401502 -0.01239217 0 0 Z " fill="#E5563D" transform="translate(81.7421875,191.8671875)"/>
<path d="M0 0 C2.10246344 -0.02329504 4.2053874 0.00327561 6.3076458 0.04075623 C6.8026458 0.53575623 6.8026458 0.53575623 7.3076458 1.04075623 C7.0112823 7.44220784 4.50440198 12.21997297 1.4951458 17.79075623 C1.05622002 18.64024841 0.61729424 19.4897406 0.16506767 20.36497498 C-3.64862515 27.53902418 -3.64862515 27.53902418 -7.6923542 30.04075623 C-10.7079792 30.33372498 -10.7079792 30.33372498 -13.9423542 30.22825623 C-15.55883858 30.18765076 -15.55883858 30.18765076 -17.2079792 30.14622498 C-18.02782295 30.11142029 -18.8476667 30.0766156 -19.6923542 30.04075623 C-19.9811042 30.98950623 -20.2698542 31.93825623 -20.5673542 32.91575623 C-21.6923542 36.04075623 -21.6923542 36.04075623 -23.6923542 38.04075623 C-26.4874897 38.32164001 -26.4874897 38.32164001 -30.09811592 38.36302185 C-31.08378044 38.37791656 -31.08378044 38.37791656 -32.08935738 38.39311218 C-34.26696116 38.42236348 -36.4442736 38.43595992 -38.6220417 38.44700623 C-40.13417762 38.45850865 -41.64631345 38.47002412 -43.15844917 38.48155212 C-46.33106026 38.50257443 -49.50356996 38.51425806 -52.67624092 38.52122498 C-56.74113262 38.53219525 -60.80468449 38.58024508 -64.86915588 38.63716888 C-67.99359227 38.67442537 -71.11770605 38.68483283 -74.24234581 38.68789673 C-75.74071898 38.69395051 -77.23908641 38.71001101 -78.73724174 38.73626709 C-80.83513029 38.77040869 -82.9297494 38.76663235 -85.02780342 38.75364685 C-86.22090126 38.76093811 -87.4139991 38.76822937 -88.64325142 38.77574158 C-91.6923542 38.04075623 -91.6923542 38.04075623 -94.10888863 35.12120056 C-95.6923542 32.04075623 -95.6923542 32.04075623 -95.6923542 30.04075623 C-96.36782295 30.08716248 -97.0432917 30.13356873 -97.7392292 30.18138123 C-99.07727608 30.23552185 -99.07727608 30.23552185 -100.4423542 30.29075623 C-101.32407295 30.33716248 -102.2057917 30.38356873 -103.1142292 30.43138123 C-106.53380261 29.91326404 -107.42323075 28.60530268 -109.6923542 26.04075623 C-111.84965153 22.66083617 -113.65079634 19.09456804 -115.5048542 15.54075623 C-116.01983467 14.59071716 -116.53481514 13.6406781 -117.06540108 12.66184998 C-117.78759834 11.28706482 -117.78759834 11.28706482 -118.52438545 9.88450623 C-118.96500313 9.05112732 -119.4056208 8.21774841 -119.85959053 7.3591156 C-120.81592092 4.6967546 -120.47790806 3.68053334 -119.6923542 1.04075623 C-104.59288908 0.9099006 -89.49342015 0.77949058 -74.39394665 0.6496048 C-67.38233002 0.58928054 -60.37071468 0.52881282 -53.35910225 0.46800232 C-46.58991924 0.40929478 -39.82073282 0.35099371 -33.05154419 0.29293823 C-30.47164418 0.2707459 -27.89174533 0.24841839 -25.31184769 0.22595215 C-21.69267382 0.194459 -18.07349609 0.16345067 -14.45431709 0.1325531 C-13.39263817 0.12320236 -12.33095924 0.11385162 -11.23710823 0.10421753 C-9.28735615 0.08775981 -7.33758764 0.07310225 -5.38780594 0.06063843 C-3.59180574 0.04739076 -1.79584331 0.02718505 0 0 Z " fill="#A80861" transform="translate(158.6923542022705,154.95924377441406)"/>
<path d="M0 0 C0.33 0.66 0.66 1.32 1 2 C2.32 1.67 3.64 1.34 5 1 C5.33 1.99 5.66 2.98 6 4 C6.99 4.495 6.99 4.495 8 5 C8 4.34 8 3.68 8 3 C8.66 3 9.32 3 10 3 C10 3.66 10 4.32 10 5 C10.99 5 11.98 5 13 5 C13 5.66 13 6.32 13 7 C13.99 7.495 13.99 7.495 15 8 C14.67 8.99 14.34 9.98 14 11 C13.01 11 12.02 11 11 11 C10.34 11.33 9.68 11.66 9 12 C9 13.32 9 14.64 9 16 C8.67 16.99 8.34 17.98 8 19 C8.99 19.66 9.98 20.32 11 21 C11.3721042 22.32303717 11.70630173 23.65737935 12 25 C13.89755144 27.34973818 13.89755144 27.34973818 17.125 27.125 C18.07375 27.08375 19.0225 27.0425 20 27 C20.33 27.66 20.66 28.32 21 29 C-49.62 29 -120.24 29 -193 29 C-191.68 28.34 -190.36 27.68 -189 27 C-188.731875 26.175 -188.46375 25.35 -188.1875 24.5 C-187 22 -187 22 -183.5625 20.75 C-182.386875 20.5025 -181.21125 20.255 -180 20 C-179.01 19.67 -178.02 19.34 -177 19 C-176.67 18.34 -176.34 17.68 -176 17 C-173.33333333 17 -170.66666667 17 -168 17 C-167.34 16.34 -166.68 15.68 -166 15 C-165.87625 15.78375 -165.7525 16.5675 -165.625 17.375 C-165.20882007 20.14057822 -165.20882007 20.14057822 -163 22 C-160.664495 22.934202 -159.53971207 23.22332913 -157.1875 22.25 C-156.465625 21.8375 -155.74375 21.425 -155 21 C-153.80375 20.505 -152.6075 20.01 -151.375 19.5 C-148.00448724 18.24380662 -148.00448724 18.24380662 -146 16 C-138.85198691 13.66314957 -132.47919018 13 -125 13 C-123.9275 12.67 -122.855 12.34 -121.75 12 C-118.72257729 11.19268728 -116.8368972 10.88681178 -113.8125 10.9375 C-110.75469084 10.98762802 -108.84587925 10.81310836 -106 10 C-102 10 -102 10 -99.0625 11.0625 C-95.81967912 12.05520027 -94.20306352 11.94207751 -91 11 C-90.505 11.99 -90.505 11.99 -90 13 C-89.13375 12.7215625 -89.13375 12.7215625 -88.25 12.4375 C-85.69309567 11.94032416 -84.50863843 12.37284039 -82 13 C-80.68 13 -79.36 13 -78 13 C-74.86808156 13 -72.92040894 13.26989776 -70 14 C-68.10332891 13.71447643 -68.10332891 13.71447643 -66 13 C-64.824375 12.71125 -63.64875 12.4225 -62.4375 12.125 C-59.07438289 11.32258208 -59.07438289 11.32258208 -57.5 9.4375 C-55.01695059 7.05791098 -52.3155518 7.18084828 -49 7 C-47.66666667 8.33333333 -46.33333333 9.66666667 -45 11 C-42.5417707 11.16671852 -42.5417707 11.16671852 -40 11 C-39.01 11 -38.02 11 -37 11 C-35.3125 13.5 -35.3125 13.5 -34 16 C-31.53199953 14.84826645 -29.95216435 13.95216435 -28 12 C-27.34 12 -26.68 12 -26 12 C-26 12.99 -26 13.98 -26 15 C-23.75637427 15.2284549 -23.75637427 15.2284549 -21.875 13 C-20.946875 12.01 -20.946875 12.01 -20 11 C-20.99 9.02 -20.99 9.02 -22 7 C-16.25 7.75 -16.25 7.75 -14 10 C-13.01 10.66 -12.02 11.32 -11 12 C-10.01 12.66 -9.02 13.32 -8 14 C-5.41666667 13.91666667 -5.41666667 13.91666667 -3 13 C-2.34 12.01 -1.68 11.02 -1 10 C-1 10.66 -1 11.32 -1 12 C-0.34 12 0.32 12 1 12 C1.99 12.99 1.99 12.99 3 14 C3 10.72724974 2.70074844 8.153368 2 5 C1.21625 4.896875 0.4325 4.79375 -0.375 4.6875 C-3 4 -3 4 -5 1 C-2 0 -2 0 0 0 Z M5 11 C6 13 6 13 6 13 Z " fill="#B0F5FE" transform="translate(252,371)"/>
<path d="M0 0 C0.99 0.66 1.98 1.32 3 2 C5.72259754 2.11713169 8.34628543 2.14175295 11.0625 2.0625 C18.75944584 1.87972292 18.75944584 1.87972292 21 3 C21.99 2.67 22.98 2.34 24 2 C26.22818441 1.93062938 28.45834524 1.91542916 30.6875 1.9375 C32.45673828 1.95103516 32.45673828 1.95103516 34.26171875 1.96484375 C35.16535156 1.97644531 36.06898438 1.98804688 37 2 C37 2.66 37 3.32 37 4 C37.515625 3.79375 38.03125 3.5875 38.5625 3.375 C43.01460053 2.69006146 47.05870558 4.60465635 51.125 6.3125 C54.04035248 7.3573681 54.04035248 7.3573681 56.5 5.5625 C57.7375 4.7890625 57.7375 4.7890625 59 4 C62.3125 4.3125 62.3125 4.3125 65 5 C64.34 5.33 63.68 5.66 63 6 C64.64541457 8.43765121 65.48479838 9.57204689 68 11 C72.36228701 11.46935999 76.62752987 11.25129139 81 11 C82.32 11 83.64 11 85 11 C85 14 85 14 83.5 15.6875 C82.7575 16.3371875 82.7575 16.3371875 82 17 C81.01 16.01 81.01 16.01 80 15 C78.824375 15.7425 78.824375 15.7425 77.625 16.5 C75 18 75 18 73 18 C72.67 18.99 72.34 19.98 72 21 C71.43152344 21.04898437 70.86304688 21.09796875 70.27734375 21.1484375 C66.41713881 21.5222136 62.98444389 22.00466683 59.25 23.125 C55.90410018 24.02581918 54.28128326 23.84375855 51 23 C50.34 23.33 49.68 23.66 49 24 C48.505 23.01 48.505 23.01 48 22 C45.51587793 21.17195931 43.64779693 21 41 21 C37 21 37 21 34 20 C33.67 20.66 33.34 21.32 33 22 C33 21.34 33 20.68 33 20 C32.34 20 31.68 20 31 20 C30.505 22.475 30.505 22.475 30 25 C23.88972614 26.25799756 18.24957564 27 12 27 C10.71609375 27.01740234 10.71609375 27.01740234 9.40625 27.03515625 C7.96765625 27.04869141 7.96765625 27.04869141 6.5 27.0625 C5.06140625 27.07990234 5.06140625 27.07990234 3.59375 27.09765625 C1 27 1 27 -2 26 C-2 25.34 -2 24.68 -2 24 C-3.64666203 24.1135629 -5.29236082 24.24117381 -6.9375 24.375 C-8.31228516 24.47941406 -8.31228516 24.47941406 -9.71484375 24.5859375 C-10.46894531 24.72257812 -11.22304687 24.85921875 -12 25 C-12.33 25.66 -12.66 26.32 -13 27 C-14.0209375 26.7834375 -14.0209375 26.7834375 -15.0625 26.5625 C-18.36273082 25.93054091 -21.67144426 25.45686059 -25 25 C-25.33 25.66 -25.66 26.32 -26 27 C-26.66 25.68 -27.32 24.36 -28 23 C-33.89228125 23.55369423 -33.89228125 23.55369423 -39.6875 24.6875 C-42.84416438 25.11407627 -45.07839766 24.15505209 -48 23 C-48.433125 23.495 -48.86625 23.99 -49.3125 24.5 C-51 26 -51 26 -54 26 C-55.0625 24.1875 -55.0625 24.1875 -56 22 C-55.67 21.01 -55.34 20.02 -55 19 C-57.31 18.67 -59.62 18.34 -62 18 C-61.67 18.99 -61.34 19.98 -61 21 C-63.64 20.67 -66.28 20.34 -69 20 C-69.33 19.01 -69.66 18.02 -70 17 C-64.85714286 12.57142857 -64.85714286 12.57142857 -61 12 C-61 11.01 -61 10.02 -61 9 C-59.25 7.875 -59.25 7.875 -57 7 C-56.1028125 7.495 -56.1028125 7.495 -55.1875 8 C-51.76633535 9.56396098 -49.44377617 8.20834252 -46 7 C-45.26523438 6.65582031 -44.53046875 6.31164062 -43.7734375 5.95703125 C-40.22159978 4.73139711 -36.78127361 4.57906891 -33.0625 4.4375 C-29.29588765 4.27220515 -25.59214701 4.09967562 -21.8671875 3.47265625 C-18.86492898 2.97773352 -16.10145832 2.936106 -13.0625 3 C-8.57113271 3.04474588 -4.41397569 2.80254103 0 2 C0 1.34 0 0.68 0 0 Z " fill="#C6C8ED" transform="translate(131,320)"/>
<path d="M0 0 C26.73 0 53.46 0 81 0 C80.34 0.33 79.68 0.66 79 1 C79 1.66 79 2.32 79 3 C78.67 3.33 78.34 3.66 78 4 C79.32 4.33 80.64 4.66 82 5 C76.25 8 76.25 8 74 8 C72.89116253 13.84293118 72.89116253 13.84293118 73.9375 19.5625 C76.58746007 21.40944187 78.86872379 21.55904841 82.05859375 21.3828125 C84.21104728 21.08359665 84.21104728 21.08359665 86.5 19.375 C88.41127245 16.34881863 88.37478243 14.52295483 88 11 C87.505 9.515 87.505 9.515 87 8 C87.66 8 88.32 8 89 8 C90.60029091 10.44750374 91.00316286 11.8576715 90.9375 14.8125 C89.89960078 18.34135735 88.41281778 20.53321008 86.15625 23.38671875 C84.7975844 25.11455327 84.7975844 25.11455327 84 28 C74.95955631 28.09274137 65.91927675 28.16378568 56.87846088 28.20724869 C52.68027742 28.22811042 48.48241978 28.25640168 44.28442383 28.30175781 C40.23195894 28.34526685 36.17980715 28.36914775 32.12712669 28.37950897 C30.58215596 28.38689134 29.03720208 28.40130763 27.49236488 28.42292023 C25.32567139 28.45202308 23.16026617 28.45595337 20.9934082 28.45410156 C19.76096878 28.46298401 18.52852936 28.47186646 17.25874329 28.48101807 C13.38306478 27.90893514 11.77448123 26.70668217 9 24 C6.89285764 21.02635959 5.2976565 17.7974471 3.625 14.5625 C3.16222656 13.71623047 2.69945312 12.86996094 2.22265625 11.99804688 C1.79082031 11.17498047 1.35898437 10.35191406 0.9140625 9.50390625 C0.3255249 8.38737671 0.3255249 8.38737671 -0.27490234 7.24829102 C-1 5 -1 5 0 0 Z " fill="#351253" transform="translate(21,120)"/>
<path d="M0 0 C0.98086578 0.00007553 1.96173157 0.00015106 2.97232056 0.00022888 C4.03381317 0.00539017 5.09530579 0.01055145 6.18896484 0.01586914 C7.8161293 0.01799156 7.8161293 0.01799156 9.47616577 0.02015686 C12.95077234 0.02576737 16.42531515 0.03832167 19.89990234 0.05102539 C22.25146392 0.05603904 24.60302649 0.06060218 26.95458984 0.06469727 C32.7280492 0.07574021 38.50147122 0.0924886 44.27490234 0.11352539 C45.2791022 3.84294644 45.37079317 5.7959304 43.6159668 9.24194336 C43.22838699 10.01980194 42.84080719 10.79766052 42.44148254 11.59909058 C42.01139389 12.42627594 41.58130524 13.2534613 41.13818359 14.10571289 C40.70233444 14.96987823 40.26648529 15.83404358 39.81742859 16.72439575 C38.42040483 19.48592356 37.0040491 22.23702163 35.58740234 24.98852539 C34.6519168 26.83294869 33.71765796 28.67799472 32.78466797 30.52368164 C29.08908802 37.80745795 25.38369499 45.05251537 21.27490234 52.11352539 C18.79892869 51.75186997 17.60830195 51.5441969 16.0456543 49.52563477 C15.70493896 48.84307617 15.36422363 48.16051758 15.01318359 47.45727539 C14.62090576 46.69020264 14.22862793 45.92312988 13.82446289 45.1328125 C13.41623291 44.30144775 13.00800293 43.47008301 12.58740234 42.61352539 C11.70506219 40.87500433 10.82223961 39.13672805 9.93896484 37.39868164 C9.49584961 36.51583496 9.05273438 35.63298828 8.59619141 34.72338867 C6.61041171 30.80099678 4.53480646 26.92810046 2.46240234 23.05102539 C1.38396687 21.01249645 0.30841923 18.97247316 -0.76611328 16.93188477 C-1.63901598 15.27674748 -2.51768161 13.62465274 -3.39697266 11.97290039 C-3.85587891 11.09118164 -4.31478516 10.20946289 -4.78759766 9.30102539 C-5.17044922 8.57270508 -5.55330078 7.84438477 -5.94775391 7.09399414 C-6.72509766 5.11352539 -6.72509766 5.11352539 -6.72509766 1.11352539 C-4.28542269 -0.10631209 -2.72605241 -0.00698988 0 0 Z " fill="#E7B832" transform="translate(82.72509765625,229.886474609375)"/>
<path d="M0 0 C1.73828006 0.20432934 3.46725621 0.48980919 5.1875 0.8125 C6.68410156 1.09287109 6.68410156 1.09287109 8.2109375 1.37890625 C11 2 11 2 14.3125 3.25 C17.80241125 4.22392872 19.68591829 3.28044066 23 2 C23.66 2.33 24.32 2.66 25 3 C26.155 2.67 27.31 2.34 28.5 2 C32 1 32 1 34 2 C34 1.34 34 0.68 34 0 C34.66 0 35.32 0 36 0 C36.495 1.485 36.495 1.485 37 3 C37.721875 2.814375 38.44375 2.62875 39.1875 2.4375 C42.12826973 1.98004693 44.14103058 2.26483643 47 3 C47.495 6.465 47.495 6.465 48 10 C49.32 9.67 50.64 9.34 52 9 C52 11.97 52 14.94 52 18 C51.03578125 18.06058594 50.0715625 18.12117188 49.078125 18.18359375 C47.81484375 18.26738281 46.5515625 18.35117187 45.25 18.4375 C43.99703125 18.51871094 42.7440625 18.59992188 41.453125 18.68359375 C38.16084995 18.89285146 38.16084995 18.89285146 35.671875 19.59765625 C34 20 34 20 32 19 C32 20.65 32 22.3 32 24 C33.32 23.67 34.64 23.34 36 23 C36.495 24.98 36.495 24.98 37 27 C30.93303301 27.77040851 25.11485027 28.09706112 19 28 C19 27.01 19 26.02 19 25 C18.34 25 17.68 25 17 25 C16.67 25.66 16.34 26.32 16 27 C16 26.34 16 25.68 16 25 C15.01 25 14.02 25 13 25 C13 25.66 13 26.32 13 27 C10 28 10 28 7 27 C7 26.34 7 25.68 7 25 C6.34 25.33 5.68 25.66 5 26 C5.33 26.66 5.66 27.32 6 28 C3.69 28.33 1.38 28.66 -1 29 C-1.125 26.625 -1.125 26.625 -1 24 C-0.34 23.34 0.32 22.68 1 22 C1.99 22 2.98 22 4 22 C4.2981424 18.2236068 4.2981424 18.2236068 3 16 C2.34 16 1.68 16 1 16 C1 16.66 1 17.32 1 18 C0.34 18 -0.32 18 -1 18 C-1.125 15.125 -1.125 15.125 -1 12 C-0.34 11.34 0.32 10.68 1 10 C-0.32 10 -1.64 10 -3 10 C-2.69201674 8.51988629 -2.378482 7.04092675 -2.0625 5.5625 C-1.88847656 4.73878906 -1.71445313 3.91507813 -1.53515625 3.06640625 C-1 1 -1 1 0 0 Z " fill="#E8C2DC" transform="translate(253,244)"/>
<path d="M0 0 C0.99 0.99 1.98 1.98 3 3 C1.68 3.99 0.36 4.98 -1 6 C0.3303125 5.62875 0.3303125 5.62875 1.6875 5.25 C5 5 5 5 7.875 6.9375 C8.57625 7.618125 9.2775 8.29875 10 9 C10.33 8.34 10.66 7.68 11 7 C11.99 6.67 12.98 6.34 14 6 C14 6.66 14 7.32 14 8 C15.65 8.66 17.3 9.32 19 10 C19.103125 9.401875 19.20625 8.80375 19.3125 8.1875 C20.09824033 5.68741714 20.96918853 4.62464918 23 3 C23.66 3 24.32 3 25 3 C25.495 5.475 25.495 5.475 26 8 C26.33 8 26.66 8 27 8 C27.33 6.02 27.66 4.04 28 2 C31 5.75 31 5.75 31 8 C31.66 8.33 32.32 8.66 33 9 C33 9.99 33 10.98 33 12 C33.33 11.34 33.66 10.68 34 10 C36.0625 9.375 36.0625 9.375 38 9 C38 8.34 38 7.68 38 7 C39.32 7.66 40.64 8.32 42 9 C41.34 9 40.68 9 40 9 C40 9.66 40 10.32 40 11 C40.66 11.33 41.32 11.66 42 12 C42.625 14.5625 42.625 14.5625 43 17 C42.01 17.495 42.01 17.495 41 18 C41 17.34 41 16.68 41 16 C40.34 16 39.68 16 39 16 C39 15.34 39 14.68 39 14 C38.34 14 37.68 14 37 14 C38.33332095 17.99996286 40.4957827 18.83782337 44 21 C43.7525 21.928125 43.7525 21.928125 43.5 22.875 C42.64267363 26.51863709 43.44461626 28.63000189 45 32 C45.99 32.495 45.99 32.495 47 33 C47 32.34 47 31.68 47 31 C47.66 31.33 48.32 31.66 49 32 C50.98570441 32 52.97153763 31.99768251 54.95703125 31.96875 C57.39296825 32.00601099 59.63993309 32.40998327 62 33 C62 33.33 62 33.66 62 34 C47.48 34 32.96 34 18 34 C18.33 32.02 18.66 30.04 19 28 C18.34 28 17.68 28 17 28 C16.67 27.34 16.34 26.68 16 26 C15.34 26.33 14.68 26.66 14 27 C13.67 24.03 13.34 21.06 13 18 C12.34 18.33 11.68 18.66 11 19 C11 18.34 11 17.68 11 17 C8.83125748 17.50603992 7.00032373 17.99983813 5 19 C4.34 18.34 3.68 17.68 3 17 C0.91666667 17.16666667 0.91666667 17.16666667 -1 18 C-1.33 18.66 -1.66 19.32 -2 20 C-2.33 19.01 -2.66 18.02 -3 17 C-4.98 17.33 -6.96 17.66 -9 18 C-9.33 17.01 -9.66 16.02 -10 15 C-9.01 14.34 -8.02 13.68 -7 13 C-6.67 12.01 -6.34 11.02 -6 10 C-5.34 9.34 -4.68 8.68 -4 8 C-4 6.68 -4 5.36 -4 4 C-2 1.75 -2 1.75 0 0 Z M5 15 C6 17 6 17 6 17 Z " fill="#DCF6FE" transform="translate(306,366)"/>
<path d="M0 0 C0.495 0.99 0.495 0.99 1 2 C2.32 1.67 3.64 1.34 5 1 C5.495 2.485 5.495 2.485 6 4 C6.66 4.33 7.32 4.66 8 5 C8 4.34 8 3.68 8 3 C8.66 3 9.32 3 10 3 C10 3.66 10 4.32 10 5 C10.99 5 11.98 5 13 5 C13 5.66 13 6.32 13 7 C13.66 7.33 14.32 7.66 15 8 C14.67 8.99 14.34 9.98 14 11 C13.01 11 12.02 11 11 11 C10.34 11.33 9.68 11.66 9 12 C9 13.32 9 14.64 9 16 C8.505 17.485 8.505 17.485 8 19 C8.99 19.66 9.98 20.32 11 21 C11.3721042 22.32303717 11.70630173 23.65737935 12 25 C13.89755144 27.34973818 13.89755144 27.34973818 17.125 27.125 C18.07375 27.08375 19.0225 27.0425 20 27 C20.495 27.99 20.495 27.99 21 29 C14.86190075 29.02479809 8.72383095 29.04290645 2.58569336 29.05493164 C0.49942517 29.0599471 -1.58683953 29.06676105 -3.6730957 29.07543945 C-6.67920801 29.08762736 -9.68527366 29.09325631 -12.69140625 29.09765625 C-14.08088219 29.10539818 -14.08088219 29.10539818 -15.49842834 29.11329651 C-20.44098798 29.11372055 -25.10574213 28.77832589 -30 28 C-31.32 28 -32.64 28 -34 28 C-34.66 27.34 -35.32 26.68 -36 26 C-38.10820797 26.3185177 -38.10820797 26.3185177 -40 27 C-40.33 25.68 -40.66 24.36 -41 23 C-40.195625 22.5875 -39.39125 22.175 -38.5625 21.75 C-35.85890282 20.26547669 -35.85890282 20.26547669 -35.1875 17.8125 C-35.125625 17.214375 -35.06375 16.61625 -35 16 C-34.1028125 15.8453125 -34.1028125 15.8453125 -33.1875 15.6875 C-30.70138466 14.90614947 -29.77056558 13.85104584 -28 12 C-27.34 12 -26.68 12 -26 12 C-26 12.99 -26 13.98 -26 15 C-23.75637427 15.2284549 -23.75637427 15.2284549 -21.875 13 C-21.25625 12.34 -20.6375 11.68 -20 11 C-20.66 9.68 -21.32 8.36 -22 7 C-16.25 7.75 -16.25 7.75 -14 10 C-13.01 10.66 -12.02 11.32 -11 12 C-10.01 12.66 -9.02 13.32 -8 14 C-5.41666667 13.91666667 -5.41666667 13.91666667 -3 13 C-2.34 12.01 -1.68 11.02 -1 10 C-1 10.66 -1 11.32 -1 12 C-0.34 12 0.32 12 1 12 C1.66 12.66 2.32 13.32 3 14 C3 10.72724974 2.70074844 8.153368 2 5 C1.21625 4.896875 0.4325 4.79375 -0.375 4.6875 C-3 4 -3 4 -5 1 C-2 0 -2 0 0 0 Z M5 11 C6 13 6 13 6 13 Z " fill="#C0F6FE" transform="translate(252,371)"/>
<path d="M0 0 C36.96 0 73.92 0 112 0 C113 4 113 4 112 6 C75.7 6 39.4 6 2 6 C1.34 4.02 0.68 2.04 0 0 Z " fill="#3E1A5B" transform="translate(44,150)"/>
<path d="M0 0 C0.33 0.66 0.66 1.32 1 2 C1.66 2.33 2.32 2.66 3 3 C3.33 3.99 3.66 4.98 4 6 C5.65 5.34 7.3 4.68 9 4 C10.65 5.32 12.3 6.64 14 8 C14.99 6.68 15.98 5.36 17 4 C18.32 4.66 19.64 5.32 21 6 C20.7215625 7.11375 20.7215625 7.11375 20.4375 8.25 C20.00796892 10.94990963 20.14877026 12.44631077 21 15 C20.34 15 19.68 15 19 15 C18.505 17.475 18.505 17.475 18 20 C17.34 19.67 16.68 19.34 16 19 C15.01 19.33 14.02 19.66 13 20 C10.8125 19.0625 10.8125 19.0625 9 18 C8.34 18.66 7.68 19.32 7 20 C6.67 19.67 6.34 19.34 6 19 C5.34 19.66 4.68 20.32 4 21 C4 20.34 4 19.68 4 19 C3.34 18.67 2.68 18.34 2 18 C2.66 18 3.32 18 4 18 C4 17.01 4 16.02 4 15 C3.34 15 2.68 15 2 15 C1.67 15.99 1.34 16.98 1 18 C0.34 18 -0.32 18 -1 18 C-1.33 18.66 -1.66 19.32 -2 20 C-6.875 18.25 -6.875 18.25 -8 16 C-8.99 16 -9.98 16 -11 16 C-11.99 15.67 -12.98 15.34 -14 15 C-14.875 13.125 -14.875 13.125 -15 11 C-14.505 10.525625 -14.01 10.05125 -13.5 9.5625 C-13.005 9.046875 -12.51 8.53125 -12 8 C-12.23043864 5.34533951 -12.23043864 5.34533951 -13 3 C-11.33388095 2.957279 -9.66617115 2.95936168 -8 3 C-7.67 3.33 -7.34 3.66 -7 4 C-6.34 3.01 -5.68 2.02 -5 1 C-2.375 0.3125 -2.375 0.3125 0 0 Z " fill="#EFD4F5" transform="translate(285,294)"/>
<path d="M0 0 C0.495 0.99 0.495 0.99 1 2 C0.67 2.99 0.34 3.98 0 5 C0.87483915 7.16715557 0.87483915 7.16715557 2 9 C1.01 9.33 0.02 9.66 -1 10 C-1 10.66 -1 11.32 -1 12 C-3.69357651 13.34678825 -5.74632961 13.02342589 -8.75 12.9375 C-13.37926615 12.88807723 -16.62427611 13.51039187 -21 15 C-23.7825589 15.10351782 -26.53372566 15.06343874 -29.31640625 14.97265625 C-32.0141185 15.00014386 -34.36961456 15.43540812 -37 16 C-39.62113708 16 -41.50935112 15.68707555 -44 15 C-44.33 13.68 -44.66 12.36 -45 11 C-43.73160474 10.49384702 -42.46016898 9.99530901 -41.1875 9.5 C-40.47980469 9.2215625 -39.77210938 8.943125 -39.04296875 8.65625 C-37 8 -37 8 -34 8 C-33.195625 7.67 -32.39125 7.34 -31.5625 7 C-28.00514812 5.61176512 -25.59347107 5.80217631 -22 7 C-21.46375 6.38125 -20.9275 5.7625 -20.375 5.125 C-17.68896977 2.7217098 -15.44585438 1.93977847 -12 1 C-11.34 1.66 -10.68 2.32 -10 3 C-8.07709645 3.09906404 -8.07709645 3.09906404 -6 2.75 C-5.29875 2.66234375 -4.5975 2.5746875 -3.875 2.484375 C-1.77180455 2.1103165 -1.77180455 2.1103165 0 0 Z M-30 8 C-29.67 8.66 -29.34 9.32 -29 10 C-28.67 9.34 -28.34 8.68 -28 8 C-28.66 8 -29.32 8 -30 8 Z " fill="#FFD9E8" transform="translate(175,99)"/>
<path d="M0 0 C0.33 0 0.66 0 1 0 C1.33 5.61 1.66 11.22 2 17 C2.99 15.68 3.98 14.36 5 13 C7.33317216 12.22227595 9.61435923 11.57584432 12 11 C12 11.66 12 12.32 12 13 C13.32 13.33 14.64 13.66 16 14 C16.12375 15.11375 16.12375 15.11375 16.25 16.25 C17.1396946 19.51221354 18.48503749 20.80954878 21 23 C21.66 22.67 22.32 22.34 23 22 C23.33 23.32 23.66 24.64 24 26 C23.34 26 22.68 26 22 26 C22 26.66 22 27.32 22 28 C20.5459375 28.680625 20.5459375 28.680625 19.0625 29.375 C15.92920418 30.65786221 15.92920418 30.65786221 15 33 C11 33 11 33 9.25 31.5 C8.8375 31.005 8.425 30.51 8 30 C8 30.66 8 31.32 8 32 C7.34 32.66 6.68 33.32 6 34 C4.68 34 3.36 34 2 34 C2 33.34 2 32.68 2 32 C1.34 32 0.68 32 0 32 C0 21.44 0 10.88 0 0 Z " fill="#F0D4F5" transform="translate(0,274)"/>
<path d="M0 0 C36.3 0 72.6 0 110 0 C110 0.99 110 1.98 110 3 C73.7 3 37.4 3 0 3 C0 2.01 0 1.02 0 0 Z " fill="#430E53" transform="translate(46,153)"/>
<path d="M0 0 C0.66 0 1.32 0 2 0 C2.66 0.66 3.32 1.32 4 2 C4.99 1.67 5.98 1.34 7 1 C7 1.66 7 2.32 7 3 C7.66 3 8.32 3 9 3 C9.33 2.34 9.66 1.68 10 1 C10.66 1.33 11.32 1.66 12 2 C12.33 1.34 12.66 0.68 13 0 C13.99 0.66 14.98 1.32 16 2 C16.33 1.34 16.66 0.68 17 0 C17 0.99 17 1.98 17 3 C18.32 3 19.64 3 21 3 C21.33 2.01 21.66 1.02 22 0 C22 0.99 22 1.98 22 3 C22.99 3 23.98 3 25 3 C25 2.01 25 1.02 25 0 C26.32 0.33 27.64 0.66 29 1 C29 1.66 29 2.32 29 3 C28.34 3.33 27.68 3.66 27 4 C27 5.65 27 7.3 27 9 C28.32 8.67 29.64 8.34 31 8 C31.495 9.98 31.495 9.98 32 12 C25.93303301 12.77040851 20.11485027 13.09706112 14 13 C14 12.01 14 11.02 14 10 C13.34 10 12.68 10 12 10 C11.67 10.66 11.34 11.32 11 12 C11 11.34 11 10.68 11 10 C10.01 10 9.02 10 8 10 C8 10.66 8 11.32 8 12 C5 13 5 13 2 12 C2 11.34 2 10.68 2 10 C1.01 10.495 1.01 10.495 0 11 C0.33 11.66 0.66 12.32 1 13 C-1.31 13.33 -3.62 13.66 -6 14 C-6.125 11.625 -6.125 11.625 -6 9 C-5.34 8.34 -4.68 7.68 -4 7 C-3.01 7 -2.02 7 -1 7 C-0.67 4.69 -0.34 2.38 0 0 Z " fill="#F3C8E7" transform="translate(258,259)"/>
<path d="M0 0 C2 1 4 2 6 3 C4.90931332 6.77545388 4.0916909 9.47043472 1 12 C1.99 12.33 2.98 12.66 4 13 C3.42655063 15.86724686 3.1385485 16.8614515 1 19 C1 18.34 1 17.68 1 17 C0.40832031 17.15597656 -0.18335938 17.31195313 -0.79296875 17.47265625 C-8.64147627 19.4059754 -8.64147627 19.4059754 -13 18 C-11.68 19.32 -10.36 20.64 -9 22 C-8.2575 21.62875 -7.515 21.2575 -6.75 20.875 C-4 20 -4 20 -1.8125 20.8125 C-1.214375 21.204375 -0.61625 21.59625 0 22 C0.66 22.33 1.32 22.66 2 23 C2 23.99 2 24.98 2 26 C-1.44022935 27.72011467 -5.23811157 27.51818499 -9 27 C-11.3125 25 -11.3125 25 -13 23 C-14.32 23 -15.64 23 -17 23 C-17.75 20.75 -17.75 20.75 -18 18 C-16.1875 15.6875 -16.1875 15.6875 -14 14 C-13.34 14 -12.68 14 -12 14 C-11.67 12.68 -11.34 11.36 -11 10 C-10.1028125 9.87625 -10.1028125 9.87625 -9.1875 9.75 C-6.4033704 8.79544128 -5.56688858 7.42867729 -4 5 C-3.01 5.33 -2.02 5.66 -1 6 C-0.67 4.02 -0.34 2.04 0 0 Z " fill="#F7C2F5" transform="translate(222,270)"/>
<path d="M0 0 C11.88 0 23.76 0 36 0 C34 6 34 6 33 7 C28.7621318 7.28986285 24.5184707 7.31395309 20.27197266 7.35009766 C18.84407251 7.36665961 17.41625536 7.39395386 15.98876953 7.43212891 C13.93217916 7.48686343 11.87753277 7.5087617 9.8203125 7.5234375 C8.58555176 7.54325684 7.35079102 7.56307617 6.07861328 7.58349609 C3 7 3 7 1.07373047 4.59228516 C0 2 0 2 0 0 Z " fill="#FE6D51" transform="translate(83,223)"/>
<path d="M0 0 C4.21796616 0.86080942 6.17690429 2.46458565 9.0625 5.625 C9.85768932 9.44190873 9.38655186 11.04170665 7.5 14.4375 C4.29253157 17.31599731 2.3475666 17.70017661 -1.9375 17.625 C-4.73939446 15.85858828 -6.45274911 14.59450178 -7.9375 11.625 C-8.47785146 7.57236402 -8.27949395 6.08769769 -5.8125 2.75 C-2.9375 0.625 -2.9375 0.625 0 0 Z " fill="#FDF7F1" transform="translate(100.9375,241.375)"/>
<path d="M0 0 C2.79493035 0.47573282 4.60393888 0.9165121 6.9375 2.5 C9.27918764 6.01253146 9.43373677 7.36469356 8.9375 11.5 C6.85920296 15.24093467 5.61208281 16.29149259 1.5 17.5625 C-2.0625 17.5 -2.0625 17.5 -4.9375 16 C-7.74196009 12.70063519 -8.21155149 10.82249312 -8.0625 6.5 C-6.27312249 2.76600219 -4.20092343 0.68586505 0 0 Z " fill="#FDEEED" transform="translate(101.0625,200.5)"/>
<path d="M0 0 C4.4297642 0.79102932 5.89210172 1.98974785 8.5 5.625 C9.125 8.625 9.125 8.625 8.5 11.625 C6.50028288 14.49959336 5.01060972 16.25407801 1.52734375 17.109375 C-2.21889787 17.36145855 -4.14043025 16.93063428 -7 14.5 C-8.77801176 11.09214413 -9.20960213 9.40954468 -8.5 5.625 C-5.89210172 1.98974785 -4.4297642 0.79102932 0 0 Z " fill="#F3ECF1" transform="translate(101.5,125.375)"/>
<path d="M0 0 C3.34265205 1.20706879 3.94704566 1.92056849 6 5 C6.47609586 8.65006827 6.21601636 10.56796727 4.5625 13.875 C1.30981455 16.57234891 -0.73320049 16.72978547 -4.87109375 16.484375 C-7 16 -7 16 -9.5625 13.875 C-11.26523868 10.46952264 -11.70338515 8.75138748 -11 5 C-7.72846952 0.57381171 -5.48700963 -0.8172142 0 0 Z " fill="#FAEDF3" transform="translate(104,163)"/>
<path d="M0 0 C22.77 0 45.54 0 69 0 C69 0.99 69 1.98 69 3 C46.56 3 24.12 3 1 3 C0.67 2.01 0.34 1.02 0 0 Z " fill="#A6055F" transform="translate(66,190)"/>
<path d="M0 0 C4.63826091 0.44598663 7.44124272 0.96846602 11 4 C13.46278801 4 14.85224119 3.14547137 17 2 C17 2.66 17 3.32 17 4 C18.32 4.33 19.64 4.66 21 5 C21.33 4.01 21.66 3.02 22 2 C22.66 2 23.32 2 24 2 C24 1.34 24 0.68 24 0 C26.4375 0.75 26.4375 0.75 29 2 C30 3.9375 30 3.9375 30 6 C28.4657452 8.18025682 27.35666511 8.88790525 24.8125 9.6875 C24.214375 9.790625 23.61625 9.89375 23 10 C23 10.99 23 11.98 23 13 C21.35 13 19.7 13 18 13 C18 12.01 18 11.02 18 10 C17.13375 10.3403125 17.13375 10.3403125 16.25 10.6875 C14 11 14 11 11.9375 9.5625 C10.9784375 8.7890625 10.9784375 8.7890625 10 8 C9.01 8 8.02 8 7 8 C7.33 6.68 7.66 5.36 8 4 C7.34 4 6.68 4 6 4 C6 4.66 6 5.32 6 6 C5.01 6.33 4.02 6.66 3 7 C2.67 6.01 2.34 5.02 2 4 C1.34870203 2.65909241 0.68486725 1.32407669 0 0 Z " fill="#F2E8F9" transform="translate(354,319)"/>
<path d="M0 0 C1.9375 0.3125 1.9375 0.3125 4 1 C4.33 1.99 4.66 2.98 5 4 C5.598125 3.67 6.19625 3.34 6.8125 3 C10.34185503 1.38658056 13.33834117 2.13276501 17 3 C17.33 3.33 17.66 3.66 18 4 C18.33 3.34 18.66 2.68 19 2 C20.65 2 22.3 2 24 2 C24.33 1.34 24.66 0.68 25 0 C25.66 0 26.32 0 27 0 C27.33 0.99 27.66 1.98 28 3 C29.32 3 30.64 3 32 3 C32.495 5.475 32.495 5.475 33 8 C28.33333333 8 23.66666667 8 19 8 C18.01 8.495 18.01 8.495 17 9 C16.67 7.35 16.34 5.7 16 4 C14.68 4 13.36 4 12 4 C12 4.99 12 5.98 12 7 C5.25 8 5.25 8 3 8 C2.67 7.34 2.34 6.68 2 6 C1.34 6.66 0.68 7.32 0 8 C0 5.36 0 2.72 0 0 Z " fill="#60565C" transform="translate(253,164)"/>
<path d="M0 0 C23.43 0.33 46.86 0.66 71 1 C71 1.66 71 2.32 71 3 C35.36 3.495 35.36 3.495 -1 4 C-0.67 2.68 -0.34 1.36 0 0 Z " fill="#C24488" transform="translate(176,172)"/>
<path d="M0 0 C1.9375 0.625 1.9375 0.625 4 2 C4.12375 2.928125 4.2475 3.85625 4.375 4.8125 C5.26223791 9.33741334 7.33198135 10.3465397 11 13 C8.35261084 14.4606285 7.10551666 15 4 15 C3.34 14.34 2.68 13.68 2 13 C1.01 13 0.02 13 -1 13 C-1.33 12.67 -1.66 12.34 -2 12 C-2.33 12.66 -2.66 13.32 -3 14 C-6.0625 14.625 -6.0625 14.625 -9 15 C-9 14.01 -9 13.02 -9 12 C-9.66 12 -10.32 12 -11 12 C-9.67890085 7.88991376 -7.21365783 6.89779994 -3.62109375 5.015625 C-1.52928891 3.70509666 -0.74865411 2.32914611 0 0 Z " fill="#FAC2F3" transform="translate(56,267)"/>
<path d="M0 0 C3.465 1.98 3.465 1.98 7 4 C6.67 5.65 6.34 7.3 6 9 C7.32 8.67 8.64 8.34 10 8 C10 8.99 10 9.98 10 11 C9.01 11.495 9.01 11.495 8 12 C8 12.99 8 13.98 8 15 C4.25 17 4.25 17 2 17 C1.34 17.66 0.68 18.32 0 19 C0 18.01 0 17.02 0 16 C-1.175625 15.566875 -1.175625 15.566875 -2.375 15.125 C-5 14 -5 14 -7 12 C-6.01 12 -5.02 12 -4 12 C-3.67 10.68 -3.34 9.36 -3 8 C-2.34 8 -1.68 8 -1 8 C-1.309375 6.8553125 -1.309375 6.8553125 -1.625 5.6875 C-2 3 -2 3 0 0 Z " fill="#FDCBE4" transform="translate(174,156)"/>
<path d="M0 0 C0.99 0 1.98 0 3 0 C3 0.66 3 1.32 3 2 C38.97 2 74.94 2 112 2 C112 2.33 112 2.66 112 3 C75.04 3.33 38.08 3.66 0 4 C0 2.68 0 1.36 0 0 Z " fill="#E8B745" transform="translate(135,252)"/>
<path d="M0 0 C0.66 0.66 1.32 1.32 2 2 C1.34 2 0.68 2 0 2 C-0.0825 2.721875 -0.165 3.44375 -0.25 4.1875 C-1.15469776 7.58011658 -2.74825957 9.33885222 -5 12 C-5.70885894 13.31138904 -6.39456452 14.63777017 -7 16 C-7.99 15.34 -8.98 14.68 -10 14 C-10.99 15.485 -10.99 15.485 -12 17 C-14.62697064 17.22137393 -17.00893964 17.28162025 -19.625 17.1875 C-20.33140625 17.17396484 -21.0378125 17.16042969 -21.765625 17.14648438 C-23.51074128 17.1111104 -25.25546608 17.05730221 -27 17 C-26.34 15.68 -25.68 14.36 -25 13 C-23.98679687 13.06960938 -23.98679687 13.06960938 -22.953125 13.140625 C-17.36366224 13.55886728 -17.36366224 13.55886728 -12.625 11.0625 C-12.08875 10.381875 -11.5525 9.70125 -11 9 C-10.38382813 8.87625 -9.76765625 8.7525 -9.1328125 8.625 C-6.23015721 7.77440504 -5.15694959 6.24784277 -3.25 3.9375 C-2.63640625 3.20402344 -2.0228125 2.47054688 -1.390625 1.71484375 C-0.93171875 1.14894531 -0.4728125 0.58304687 0 0 Z " fill="#C0F3FD" transform="translate(60,383)"/>
<path d="M0 0 C17.16 0.33 34.32 0.66 52 1 C52 1.66 52 2.32 52 3 C34.84 3.33 17.68 3.66 0 4 C0 2.68 0 1.36 0 0 Z " fill="#734F80" transform="translate(195,132)"/>
<path d="M0 0 C1.57394531 -0.00386719 1.57394531 -0.00386719 3.1796875 -0.0078125 C5.70116355 0.10588801 7.70452214 0.51470857 10.125 1.125 C11.23875 0.96 12.3525 0.795 13.5 0.625 C17.05390573 0.13480611 19.64736406 0.3616165 23.125 1.125 C22.795 2.775 22.465 4.425 22.125 6.125 C21.465 6.125 20.805 6.125 20.125 6.125 C20.125 4.805 20.125 3.485 20.125 2.125 C19.465 2.125 18.805 2.125 18.125 2.125 C18.125 3.115 18.125 4.105 18.125 5.125 C17.465 5.125 16.805 5.125 16.125 5.125 C15.795 4.795 15.465 4.465 15.125 4.125 C13.78900079 4.44748257 12.45606622 4.78272583 11.125 5.125 C9.805 5.125 8.485 5.125 7.125 5.125 C5.6090625 5.186875 5.6090625 5.186875 4.0625 5.25 C1.125 5.125 1.125 5.125 -1.875 3.125 C-1.545 3.455 -1.215 3.785 -0.875 4.125 C-3.875 5.125 -3.875 5.125 -7.875 5.125 C-7.875 3.805 -7.875 2.485 -7.875 1.125 C-5.17261702 -0.22619149 -3.01485554 -0.00737128 0 0 Z " fill="#95828D" transform="translate(274.875,176.875)"/>
<path d="M0 0 C2.81256281 -0.02684312 5.62487241 -0.04676188 8.4375 -0.0625 C9.23994141 -0.07087891 10.04238281 -0.07925781 10.86914062 -0.08789062 C12.91295221 -0.0965143 14.95683902 -0.0522815 17 0 C17.33 0.33 17.66 0.66 18 1 C18.556875 0.855625 19.11375 0.71125 19.6875 0.5625 C22.50492615 -0.12281987 25.11111385 -0.0656565 28 0 C28.33 1.32 28.66 2.64 29 4 C28.01 4 27.02 4 26 4 C25.67 4.33 25.34 4.66 25 5 C23.31391034 5.07205511 21.62499341 5.08386068 19.9375 5.0625 C19.01839844 5.05347656 18.09929687 5.04445312 17.15234375 5.03515625 C16.44207031 5.02355469 15.73179687 5.01195312 15 5 C15 4.34 15 3.68 15 3 C14.01 2.67 13.02 2.34 12 2 C12.33 2.99 12.66 3.98 13 5 C9.7 5 6.4 5 3 5 C2.67 4.01 2.34 3.02 2 2 C1.34 2 0.68 2 0 2 C-0.33 2.66 -0.66 3.32 -1 4 C-0.67 2.68 -0.34 1.36 0 0 Z " fill="#97858F" transform="translate(258,137)"/>
<path d="M0 0 C0.5775 0.37125 1.155 0.7425 1.75 1.125 C2.74 0.465 3.73 -0.195 4.75 -0.875 C7.125 -0.0625 7.125 -0.0625 9.75 1.125 C10.6575 1.29 11.565 1.455 12.5 1.625 C13.61375 1.8725 13.61375 1.8725 14.75 2.125 C15.08 2.785 15.41 3.445 15.75 4.125 C15.09 4.785 14.43 5.445 13.75 6.125 C10.75 6.125 10.75 6.125 7.75 5.125 C7.42 5.785 7.09 6.445 6.75 7.125 C4.275 6.63 4.275 6.63 1.75 6.125 C1.75 5.465 1.75 4.805 1.75 4.125 C0.203125 4.3725 0.203125 4.3725 -1.375 4.625 C-4.73244326 5.05821848 -7.87336157 5.20735703 -11.25 5.125 C-11.91 3.805 -12.57 2.485 -13.25 1.125 C-10.91666667 1.125 -8.58333333 1.125 -6.25 1.125 C-5.59 0.75375 -4.93 0.3825 -4.25 0 C-2.25 -0.875 -2.25 -0.875 0 0 Z " fill="#FFC1E9" transform="translate(146.25,231.875)"/>
<path d="M0 0 C0.66 0 1.32 0 2 0 C2 0.66 2 1.32 2 2 C10.25 2 18.5 2 27 2 C27 2.66 27 3.32 27 4 C26.34 4 25.68 4 25 4 C25 4.66 25 5.32 25 6 C21.83439497 7.05520168 19.37887057 7.41366117 16.125 6.4375 C13.23958781 5.84344455 10.89337676 6.4894041 8 7 C5.6679198 7.07646165 3.33154122 7.09143299 1 7 C0 6 0 6 -0.0625 2.9375 C-0.041875 1.968125 -0.02125 0.99875 0 0 Z " fill="#AC95A3" transform="translate(294,225)"/>
<path d="M0 0 C0.99 0 1.98 0 3 0 C3 0.66 3 1.32 3 2 C32.37 2 61.74 2 92 2 C92 2.33 92 2.66 92 3 C46.46 3.495 46.46 3.495 0 4 C0 2.68 0 1.36 0 0 Z " fill="#E76552" transform="translate(155,212)"/>
<path d="M0 0 C0.66 0 1.32 0 2 0 C2 0.66 2 1.32 2 2 C3.65 1.67 5.3 1.34 7 1 C6.67 1.99 6.34 2.98 6 4 C6.66 4 7.32 4 8 4 C8.33 3.01 8.66 2.02 9 1 C19.55808656 0.81548975 19.55808656 0.81548975 24 2 C23.34 2.66 22.68 3.32 22 4 C22.33 4.66 22.66 5.32 23 6 C20.33333333 6 17.66666667 6 15 6 C13.2365625 6.2784375 13.2365625 6.2784375 11.4375 6.5625 C9.7359375 6.7790625 9.7359375 6.7790625 8 7 C7.67 6.67 7.34 6.34 7 6 C5.48071962 5.92820036 3.95832518 5.91607993 2.4375 5.9375 C1.19806641 5.95103516 1.19806641 5.95103516 -0.06640625 5.96484375 C-1.02353516 5.98224609 -1.02353516 5.98224609 -2 6 C-1.125 1.125 -1.125 1.125 0 0 Z " fill="#9A8791" transform="translate(300,136)"/>
<path d="M0 0 C10.23777565 1.71236817 10.23777565 1.71236817 14.3125 3.25 C17.8002588 4.22332804 19.73176506 3.40067212 23 2 C23.33 3.65 23.66 5.3 24 7 C19.61742454 8.20898633 17.02089784 8.2184264 13 6 C13.33 6.66 13.66 7.32 14 8 C12.35 7.67 10.7 7.34 9 7 C9 6.01 9 5.02 9 4 C8.34 4 7.68 4 7 4 C7 5.32 7 6.64 7 8 C6.34 8 5.68 8 5 8 C4.67 7.01 4.34 6.02 4 5 C3.01 5 2.02 5 1 5 C0.67 5.99 0.34 6.98 0 8 C0 5.36 0 2.72 0 0 Z " fill="#4B4448" transform="translate(253,244)"/>
<path d="M0 0 C2.31243792 -0.02685412 4.6249627 -0.04632841 6.9375 -0.0625 C8.22527344 -0.07410156 9.51304687 -0.08570312 10.83984375 -0.09765625 C14 0 14 0 15 1 C16.32 1 17.64 1 19 1 C19 2.65 19 4.3 19 6 C16.36 6 13.72 6 11 6 C11.33 5.34 11.66 4.68 12 4 C11.34 3.67 10.68 3.34 10 3 C9.67 3.99 9.34 4.98 9 6 C8.443125 5.79375 7.88625 5.5875 7.3125 5.375 C4.340462 4.89304789 2.68020059 5.73434972 0 7 C0 4.69 0 2.38 0 0 Z " fill="#61575C" transform="translate(267,126)"/>
<path d="M0 0 C1.32 0.33 2.64 0.66 4 1 C3.34 1.66 2.68 2.32 2 3 C1.34 2.67 0.68 2.34 0 2 C0 1.34 0 0.68 0 0 Z M-2 1 C-1.34 1.33 -0.68 1.66 0 2 C0 2.66 0 3.32 0 4 C-0.99 3.67 -1.98 3.34 -3 3 C-2.67 2.34 -2.34 1.68 -2 1 Z M-7 4 C-5.68 4.33 -4.36 4.66 -3 5 C-3.33 5.66 -3.66 6.32 -4 7 C-4.99 6.67 -5.98 6.34 -7 6 C-7 5.34 -7 4.68 -7 4 Z M-15 6 C-13.54054712 6.08708669 -12.08234132 6.19526907 -10.625 6.3125 C-9.40683594 6.39951172 -9.40683594 6.39951172 -8.1640625 6.48828125 C-6 7 -6 7 -4 10 C-4.66 10 -5.32 10 -6 10 C-6 10.99 -6 11.98 -6 13 C-6.99 12.67 -7.98 12.34 -9 12 C-9.33 11.34 -9.66 10.68 -10 10 C-12.24572616 10.88611695 -12.24572616 10.88611695 -13.375 13.5 C-15 16 -15 16 -17.1875 16.8125 C-17.785625 16.874375 -18.38375 16.93625 -19 17 C-18.67 15.68 -18.34 14.36 -18 13 C-17.34 13 -16.68 13 -16 13 C-16.33 12.01 -16.66 11.02 -17 10 C-16.0625 7.8125 -16.0625 7.8125 -15 6 Z " fill="#D7D6F1" transform="translate(32,328)"/>
<path d="M0 0 C0.66 0 1.32 0 2 0 C2 0.66 2 1.32 2 2 C6.64586892 1.51515724 6.64586892 1.51515724 11 0 C11.33 0.66 11.66 1.32 12 2 C14.31 2 16.62 2 19 2 C17.53541868 4.38958004 16.61427191 5.7766284 13.9375 6.75 C9.63397192 7.11625771 5.31383749 7.27161199 1 7 C0 6 0 6 -0.0625 2.9375 C-0.041875 1.968125 -0.02125 0.99875 0 0 Z " fill="#B89DAD" transform="translate(252,225)"/>
<path d="M0 0 C2.0625 0.4375 2.0625 0.4375 4 1 C3.01 1.33 2.02 1.66 1 2 C1 2.66 1 3.32 1 4 C1.66 4.33 2.32 4.66 3 5 C3 4.34 3 3.68 3 3 C8.86784772 1.19450839 13.90805035 1 20 1 C20.66 2.98 21.32 4.96 22 7 C20.1875 7.625 20.1875 7.625 18 8 C17.01 7.34 16.02 6.68 15 6 C12.66800612 5.92094936 10.33167378 5.91201231 8 6 C7.67 5.34 7.34 4.68 7 4 C6.34 4.66 5.68 5.32 5 6 C2.375 6.125 2.375 6.125 0 6 C-0.38218767 4.34385343 -0.71395102 2.67542976 -1 1 C-0.67 0.67 -0.34 0.34 0 0 Z " fill="#917F8A" transform="translate(253,216)"/>
<path d="M0 0 C1.75032844 0.14183696 3.50025534 0.28863429 5.25 0.4375 C6.71179688 0.55931641 6.71179688 0.55931641 8.203125 0.68359375 C11 1 11 1 13.1328125 1.56640625 C16.13000722 2.26240753 18.98665507 1.44642147 22 1 C22.66 1.33 23.32 1.66 24 2 C23.67 3.32 23.34 4.64 23 6 C22.4225 5.814375 21.845 5.62875 21.25 5.4375 C18.76855951 4.95499768 17.39011444 5.28296567 15 6 C14.34 6 13.68 6 13 6 C13 5.34 13 4.68 13 4 C11.02 4.99 11.02 4.99 9 6 C8.67 5.01 8.34 4.02 8 3 C7.34 3 6.68 3 6 3 C5.67 3.99 5.34 4.98 5 6 C4.67 5.34 4.34 4.68 4 4 C3.34 4 2.68 4 2 4 C2 4.66 2 5.32 2 6 C1.34 6 0.68 6 0 6 C0 4.02 0 2.04 0 0 Z " fill="#8C7B85" transform="translate(252,256)"/>
<path d="M0 0 C0.66 0 1.32 0 2 0 C2 0.66 2 1.32 2 2 C5.63 2 9.26 2 13 2 C13 1.34 13 0.68 13 0 C14.65 0 16.3 0 18 0 C18.33 1.98 18.66 3.96 19 6 C17.89591797 5.98259766 17.89591797 5.98259766 16.76953125 5.96484375 C15.79371094 5.95582031 14.81789063 5.94679687 13.8125 5.9375 C12.84957031 5.92589844 11.88664062 5.91429687 10.89453125 5.90234375 C8.01664622 5.91540905 8.01664622 5.91540905 5.32421875 6.56640625 C3 7 3 7 0 6 C0 4.02 0 2.04 0 0 Z " fill="#9C8994" transform="translate(252,145)"/>
<path d="M0 0 C0.66 0 1.32 0 2 0 C2.33 0.99 2.66 1.98 3 3 C3.721875 2.814375 4.44375 2.62875 5.1875 2.4375 C8.12826973 1.98004693 10.14103058 2.26483643 13 3 C13 4.65 13 6.3 13 8 C12.67 6.68 12.34 5.36 12 4 C11.34 4 10.68 4 10 4 C10 5.32 10 6.64 10 8 C6.7 8 3.4 8 0 8 C0 6.68 0 5.36 0 4 C-0.66 4 -1.32 4 -2 4 C-1.67 5.32 -1.34 6.64 -1 8 C-1.66 8 -2.32 8 -3 8 C-3.33 6.02 -3.66 4.04 -4 2 C-3.34 1.67 -2.68 1.34 -2 1 C-1.34 1.33 -0.68 1.66 0 2 C0 1.34 0 0.68 0 0 Z " fill="#6D6068" transform="translate(287,244)"/>
<path d="M0 0 C10.56 0 21.12 0 32 0 C32 0.33 32 0.66 32 1 C27.05 1 22.1 1 17 1 C16.67 1.66 16.34 2.32 16 3 C16 2.34 16 1.68 16 1 C15.34 1 14.68 1 14 1 C13.67 1.66 13.34 2.32 13 3 C12.01 3 11.02 3 10 3 C10 3.66 10 4.32 10 5 C8.02 5.33 6.04 5.66 4 6 C4 4.68 4 3.36 4 2 C3.34 3.32 2.68 4.64 2 6 C1.34 5.67 0.68 5.34 0 5 C0 3.35 0 1.7 0 0 Z " fill="#FFBFED" transform="translate(179,255)"/>
<path d="M0 0 C0.66 0 1.32 0 2 0 C2.33 0.99 2.66 1.98 3 3 C3.66 2.67 4.32 2.34 5 2 C4.67 3.32 4.34 4.64 4 6 C4.66 6 5.32 6 6 6 C6 4.35 6 2.7 6 1 C7.32 1.66 8.64 2.32 10 3 C9.67 4.32 9.34 5.64 9 7 C5.7 7 2.4 7 -1 7 C-1 6.01 -1 5.02 -1 4 C-1.66 4 -2.32 4 -3 4 C-3.33 4.99 -3.66 5.98 -4 7 C-5.65 7 -7.3 7 -9 7 C-9.33 5.68 -9.66 4.36 -10 3 C-8.02 3 -6.04 3 -4 3 C-3.67 2.34 -3.34 1.68 -3 1 C-2.01 1.33 -1.02 1.66 0 2 C0 1.34 0 0.68 0 0 Z " fill="#9E8A95" transform="translate(356,175)"/>
<path d="M0 0 C0.66 0 1.32 0 2 0 C2.33 0.66 2.66 1.32 3 2 C3.763125 1.79375 4.52625 1.5875 5.3125 1.375 C8 1 8 1 11 3 C11 4.32 11 5.64 11 7 C6.1666528 7.08333357 1.76307437 6.95261487 -3 6 C-3 5.34 -3 4.68 -3 4 C-3.99 4.495 -3.99 4.495 -5 5 C-4.67 5.66 -4.34 6.32 -4 7 C-4.99 6.67 -5.98 6.34 -7 6 C-6.67 4.68 -6.34 3.36 -6 2 C-4.02 2 -2.04 2 0 2 C0 1.34 0 0.68 0 0 Z " fill="#988590" transform="translate(295,185)"/>
<path d="M0 0 C1.32 0 2.64 0 4 0 C4 1.32 4 2.64 4 4 C-1.94 4 -7.88 4 -14 4 C-14 3.34 -14 2.68 -14 2 C-13.34 2 -12.68 2 -12 2 C-12.33 1.01 -12.66 0.02 -13 -1 C-8.01027048 -2.2170072 -4.84925296 -1.52661667 0 0 Z " fill="#B39EAA" transform="translate(330,178)"/>
<path d="M0 0 C5.75 1.75 5.75 1.75 8 4 C7.01 4.495 7.01 4.495 6 5 C6 8.55955169 6.89341295 9.27899173 9 12 C9 12.66 9 13.32 9 14 C6.25 14.0625 6.25 14.0625 3 13 C0.65342326 9.58050469 -1.33321831 5.89902087 -0.59765625 1.70703125 C-0.40042969 1.14371094 -0.20320313 0.58039063 0 0 Z " fill="#E7E1F7" transform="translate(326,327)"/>
<path d="M0 0 C0.66 0 1.32 0 2 0 C2.33 1.65 2.66 3.3 3 5 C-3.625 6.125 -3.625 6.125 -7 5 C-7 4.34 -7 3.68 -7 3 C-7.66 3 -8.32 3 -9 3 C-9.33 3.99 -9.66 4.98 -10 6 C-11.65 6.33 -13.3 6.66 -15 7 C-15 5.35 -15 3.7 -15 2 C-14.2575 2.020625 -13.515 2.04125 -12.75 2.0625 C-10.08608477 2.11253087 -10.08608477 2.11253087 -7.9375 1.4375 C-6 1 -6 1 -3.875 1.5625 C-3.25625 1.706875 -2.6375 1.85125 -2 2 C-1.34 1.34 -0.68 0.68 0 0 Z " fill="#92808A" transform="translate(304,216)"/>
<path d="M0 0 C1.875 1.625 1.875 1.625 3 3 C2.01 3.495 2.01 3.495 1 4 C0.67 4.66 0.34 5.32 0 6 C-3.0625 6.625 -3.0625 6.625 -6 7 C-10 2.25 -10 2.25 -10 0 C-6.22975476 -2.61016978 -4.04832185 -1.80882466 0 0 Z " fill="#DECBEC" transform="translate(51,309)"/>
<path d="M0 0 C1.18613892 0.00785522 1.18613892 0.00785522 2.39624023 0.01586914 C3.67724609 0.02070313 3.67724609 0.02070313 4.98413086 0.02563477 C5.88196289 0.03401367 6.77979492 0.04239258 7.70483398 0.05102539 C8.6065332 0.05553711 9.50823242 0.06004883 10.43725586 0.06469727 C12.67234712 0.07652315 14.90730835 0.09300319 17.14233398 0.11352539 C16.15233398 1.43352539 15.16233398 2.75352539 14.14233398 4.11352539 C14.14233398 3.45352539 14.14233398 2.79352539 14.14233398 2.11352539 C13.15233398 2.11352539 12.16233398 2.11352539 11.14233398 2.11352539 C11.14233398 2.77352539 11.14233398 3.43352539 11.14233398 4.11352539 C8.14233398 5.11352539 8.14233398 5.11352539 5.14233398 4.11352539 C5.14233398 3.45352539 5.14233398 2.79352539 5.14233398 2.11352539 C4.15233398 2.60852539 4.15233398 2.60852539 3.14233398 3.11352539 C3.47233398 3.77352539 3.80233398 4.43352539 4.14233398 5.11352539 C1.83233398 5.44352539 -0.47766602 5.77352539 -2.85766602 6.11352539 C-2.90038702 4.44740634 -2.89830434 2.77969654 -2.85766602 1.11352539 C-1.85766602 0.11352539 -1.85766602 0.11352539 0 0 Z " fill="#86767F" transform="translate(254.857666015625,266.886474609375)"/>
<path d="M0 0 C0.78375 0.185625 1.5675 0.37125 2.375 0.5625 C4.97089775 1.25962266 4.97089775 1.25962266 7 0 C8.99960012 -0.039992 11.00047242 -0.04346799 13 0 C11.66666667 2.66666667 10.33333333 5.33333333 9 8 C8.01 8 7.02 8 6 8 C5.67 7.34 5.34 6.68 5 6 C4.01 5.67 3.02 5.34 2 5 C1.67 5.66 1.34 6.32 1 7 C0.31292445 4.50935112 0 2.62113708 0 0 Z " fill="#FCD3F2" transform="translate(284,262)"/>
<path d="M0 0 C1.99954746 -0.04254356 4.00041636 -0.04080783 6 0 C6.33 0.33 6.66 0.66 7 1 C8.32 1 9.64 1 11 1 C11.33 2.65 11.66 4.3 12 6 C7.38 6 2.76 6 -2 6 C-1.34 5.67 -0.68 5.34 0 5 C0 3.35 0 1.7 0 0 Z " fill="#6C6067" transform="translate(267,206)"/>
<path d="M0 0 C0 1.65 0 3.3 0 5 C-0.66 4.67 -1.32 4.34 -2 4 C-2.33 4.66 -2.66 5.32 -3 6 C-3.78375 5.835 -4.5675 5.67 -5.375 5.5 C-9.51787914 4.71088016 -12.03154087 5.61966639 -16 7 C-16 5.02 -16 3.04 -16 1 C-15.08476562 1.01160156 -14.16953125 1.02320313 -13.2265625 1.03515625 C-12.03804688 1.04417969 -10.84953125 1.05320313 -9.625 1.0625 C-7.84996094 1.07990234 -7.84996094 1.07990234 -6.0390625 1.09765625 C-3.65796152 1.02114272 -2.13969746 0 0 0 Z " fill="#97858F" transform="translate(340,186)"/>
<path d="M0 0 C1.32 0 2.64 0 4 0 C4 0.66 4 1.32 4 2 C4.99 2.33 5.98 2.66 7 3 C7.33 3.99 7.66 4.98 8 6 C7.34 6.66 6.68 7.32 6 8 C4.68 8 3.36 8 2 8 C-0.71126384 9.42621684 -0.71126384 9.42621684 -3 11 C-3.33 10.34 -3.66 9.68 -4 9 C-3.34 9 -2.68 9 -2 9 C-2.226875 8.443125 -2.45375 7.88625 -2.6875 7.3125 C-3 5 -3 5 -1.8125 2.25 C-1.214375 1.5075 -0.61625 0.765 0 0 Z " fill="#F4C1F4" transform="translate(69,279)"/>
<path d="M0 0 C0.33 0 0.66 0 1 0 C1.33 1.98 1.66 3.96 2 6 C2.99 4.35 3.98 2.7 5 1 C5.99 1.33 6.98 1.66 8 2 C7.34 2 6.68 2 6 2 C5.67 3.32 5.34 4.64 5 6 C6.65 6 8.3 6 10 6 C10.33 7.65 10.66 9.3 11 11 C9.02 11.99 9.02 11.99 7 13 C6.67 11.35 6.34 9.7 6 8 C5.01 8.99 4.02 9.98 3 11 C2.67 10.01 2.34 9.02 2 8 C1.34 8 0.68 8 0 8 C0 5.36 0 2.72 0 0 Z " fill="#DADCF4" transform="translate(0,335)"/>
<path d="M0 0 C-0.391875 0.556875 -0.78375 1.11375 -1.1875 1.6875 C-1.5896875 2.8321875 -1.5896875 2.8321875 -2 4 C-0.71815438 6.74832154 -0.71815438 6.74832154 1 9 C-5.43487859 10.33554084 -5.43487859 10.33554084 -8 8.8125 C-9 7 -9 7 -8.875 5 C-6.88860553 0.45966979 -4.88658538 -0.39620963 0 0 Z " fill="#FFC0EC" transform="translate(188,243)"/>
<path d="M0 0 C0.33 0.66 0.66 1.32 1 2 C3.64 2 6.28 2 9 2 C9 2.99 9 3.98 9 5 C9.66 5.33 10.32 5.66 11 6 C9.54182203 6.16802051 8.0834516 6.33437143 6.625 6.5 C5.40683594 6.63921875 5.40683594 6.63921875 4.1640625 6.78125 C1.15393039 7.08552328 -1.08780856 6.77658438 -4 6 C-4 4.35 -4 2.7 -4 1 C-2 0 -2 0 0 0 Z " fill="#97858F" transform="translate(322,145)"/>
<path d="M0 0 C0.66 0 1.32 0 2 0 C2.33 0.99 2.66 1.98 3 3 C4.32 3 5.64 3 7 3 C7.33 4.65 7.66 6.3 8 8 C6.54176788 8.0270043 5.08339325 8.04639787 3.625 8.0625 C2.81289063 8.07410156 2.00078125 8.08570313 1.1640625 8.09765625 C-1 8 -1 8 -3 7 C-3 6.01 -3 5.02 -3 4 C-2.34 3.67 -1.68 3.34 -1 3 C-0.67 2.01 -0.34 1.02 0 0 Z " fill="#776971" transform="translate(278,164)"/>
<path d="M0 0 C0 0.66 0 1.32 0 2 C0.33 1.34 0.66 0.68 1 0 C1.66 0 2.32 0 3 0 C3.33 1.65 3.66 3.3 4 5 C0.7 5 -2.6 5 -6 5 C-6.33 4.34 -6.66 3.68 -7 3 C-7.66 3.66 -8.32 4.32 -9 5 C-9.99 5 -10.98 5 -12 5 C-12.33 3.68 -12.66 2.36 -13 1 C-8.59085217 -0.10228696 -4.51617599 -0.07654536 0 0 Z " fill="#998791" transform="translate(347,137)"/>
<path d="M0 0 C2.3125 1.375 2.3125 1.375 3.3125 4.375 C-0.4375 7.375 -0.4375 7.375 -2.6875 7.375 C-2.6875 6.715 -2.6875 6.055 -2.6875 5.375 C-4.3375 5.705 -5.9875 6.035 -7.6875 6.375 C-8.0175 4.725 -8.3475 3.075 -8.6875 1.375 C-8.0275 1.045 -7.3675 0.715 -6.6875 0.375 C-6.6875 1.035 -6.6875 1.695 -6.6875 2.375 C-6.130625 1.83875 -5.57375 1.3025 -5 0.75 C-2.6875 -0.625 -2.6875 -0.625 0 0 Z " fill="#DFD1F0" transform="translate(263.6875,314.625)"/>
<path d="M0 0 C1.1446875 0.495 1.1446875 0.495 2.3125 1 C4.99069135 2.17436686 4.99069135 2.17436686 8 2 C10.66666667 2 13.33333333 2 16 2 C16 2.66 16 3.32 16 4 C11.545 5.485 11.545 5.485 7 7 C6.34 6.34 5.68 5.68 5 5 C4.01 5.33 3.02 5.66 2 6 C1.34 5.67 0.68 5.34 0 5 C0 4.34 0 3.68 0 3 C-0.66 2.67 -1.32 2.34 -2 2 C-1.34 1.34 -0.68 0.68 0 0 Z " fill="#EDC6F2" transform="translate(226,294)"/>
<path d="M0 0 C0.33 0.66 0.66 1.32 1 2 C3.64 1.67 6.28 1.34 9 1 C9 1.66 9 2.32 9 3 C8.34 3 7.68 3 7 3 C7 3.66 7 4.32 7 5 C3.3174023 5.75325862 0.59619903 6.19873301 -3 5 C-4.36893239 4.94729537 -4.36893239 4.94729537 -7 6 C-6.67 4.35 -6.34 2.7 -6 1 C-4.02 0.67 -2.04 0.34 0 0 Z " fill="#97848F" transform="translate(317,256)"/>
<path d="M0 0 C4.29 0 8.58 0 13 0 C13 0.66 13 1.32 13 2 C13.33 1.34 13.66 0.68 14 0 C14.66 0 15.32 0 16 0 C16 1.65 16 3.3 16 5 C12.48922184 5.10030795 9.43193393 4.68638679 6 4 C4.3337447 3.9629721 2.66598681 3.95240038 1 4 C0.67 2.68 0.34 1.36 0 0 Z " fill="#94828C" transform="translate(323,227)"/>
<path d="M0 0 C0.7734375 0.09023437 1.546875 0.18046875 2.34375 0.2734375 C4.5 0.625 4.5 0.625 7.5 1.625 C6.84 3.275 6.18 4.925 5.5 6.625 C5.17 5.305 4.84 3.985 4.5 2.625 C3.51 2.625 2.52 2.625 1.5 2.625 C1.83 3.615 2.16 4.605 2.5 5.625 C-0.47 5.625 -3.44 5.625 -6.5 5.625 C-6.83 3.975 -7.16 2.325 -7.5 0.625 C-4.46268644 -0.38743785 -3.09613977 -0.38185724 0 0 Z " fill="#94808C" transform="translate(284.5,226.375)"/>
<path d="M0 0 C0.66 0.66 1.32 1.32 2 2 C5.09926819 1.67801034 5.09926819 1.67801034 8 1 C8.33 1.66 8.66 2.32 9 3 C10.32 2.67 11.64 2.34 13 2 C12.67 3.65 12.34 5.3 12 7 C10.14375 6.7215625 10.14375 6.7215625 8.25 6.4375 C5.23720423 6.05288777 2.89989173 5.9125406 0 7 C0 4.69 0 2.38 0 0 Z " fill="#9C8994" transform="translate(309,185)"/>
<path d="M0 0 C0.33 0.66 0.66 1.32 1 2 C3.97 2 6.94 2 10 2 C10 1.34 10 0.68 10 0 C10.66 0 11.32 0 12 0 C12 0.66 12 1.32 12 2 C12.99 2.33 13.98 2.66 15 3 C14.34 3 13.68 3 13 3 C13 3.99 13 4.98 13 6 C12.01 6 11.02 6 10 6 C10 5.01 10 4.02 10 3 C9.01 3.495 9.01 3.495 8 4 C8.33 4.99 8.66 5.98 9 7 C8.2575 6.814375 7.515 6.62875 6.75 6.4375 C4.05009037 6.00796892 2.55368923 6.14877026 0 7 C0 4.69 0 2.38 0 0 Z " fill="#A08C97" transform="translate(290,145)"/>
<path d="M0 0 C1.41805831 0.28482368 2.83440379 0.57818144 4.25 0.875 C5.03890625 1.03742188 5.8278125 1.19984375 6.640625 1.3671875 C8.97526452 1.99336565 10.85361537 2.90921437 13 4 C14.99110401 4.38290462 16.99100513 4.72604615 19 5 C19 5.33 19 5.66 19 6 C16.20775927 6.08071788 13.41783434 6.14035408 10.625 6.1875 C9.8309375 6.21263672 9.036875 6.23777344 8.21875 6.26367188 C6.14413852 6.29004405 4.06899135 6.15486462 2 6 C0 3 0 3 0 0 Z " fill="#F6624C" transform="translate(84,224)"/>
<path d="M0 0 C2.375 -0.125 2.375 -0.125 5 0 C5.66 0.66 6.32 1.32 7 2 C6.44444444 6.55555556 6.44444444 6.55555556 5 8 C3.33382885 8.04063832 1.66611905 8.042721 0 8 C0 5.36 0 2.72 0 0 Z " fill="#7D6F75" transform="translate(252,124)"/>
<path d="M0 0 C0.66 0 1.32 0 2 0 C2.33 0.66 2.66 1.32 3 2 C3.33 1.67 3.66 1.34 4 1 C7.72224599 0.70613847 8.77786243 0.85190829 12 3 C11.34 4.32 10.68 5.64 10 7 C8 6 8 6 7 5 C5.32995171 5.31595508 3.66362417 5.65179959 2 6 C0.68 6 -0.64 6 -2 6 C-1.125 1.125 -1.125 1.125 0 0 Z " fill="#8E7C86" transform="translate(254,176)"/>
<path d="M0 0 C1.2065625 0.2475 1.2065625 0.2475 2.4375 0.5 C5.39989752 1.07802878 7.55460529 0.83891771 10.5625 0.5 C11.80193359 0.36078125 11.80193359 0.36078125 13.06640625 0.21875 C14.02353516 0.11046875 14.02353516 0.11046875 15 0 C14.67 1.65 14.34 3.3 14 5 C13.34 5 12.68 5 12 5 C11.67 4.67 11.34 4.34 11 4 C8.5835876 4.48328248 6.34167817 5.21944061 4 6 C3.34 4.68 2.68 3.36 2 2 C1.34 2 0.68 2 0 2 C-0.33 2.66 -0.66 3.32 -1 4 C-0.67 2.68 -0.34 1.36 0 0 Z " fill="#7D6D76" transform="translate(301,177)"/>
<path d="M0 0 C0 1.98 0 3.96 0 6 C-3.96 6 -7.92 6 -12 6 C-12 5.01 -12 4.02 -12 3 C-11.67 3.33 -11.34 3.66 -11 4 C-10.34 3.34 -9.68 2.68 -9 2 C-7.08984375 1.3671875 -7.08984375 1.3671875 -4.9375 0.875 C-4.22464844 0.70742187 -3.51179688 0.53984375 -2.77734375 0.3671875 C-1 0 -1 0 0 0 Z " fill="#94828D" transform="translate(352,216)"/>
<path d="M0 0 C0.66 0 1.32 0 2 0 C2 1.98 2 3.96 2 6 C-2.29 5.67 -6.58 5.34 -11 5 C-10.67 3.68 -10.34 2.36 -10 1 C-7 1 -4 1 -1 1 C-0.67 0.67 -0.34 0.34 0 0 Z " fill="#917F89" transform="translate(285,186)"/>
<path d="M0 0 C3.55778921 3.55778921 3.95168196 8.64709495 4.125 13.5 C4.08375 14.325 4.0425 15.15 4 16 C3.01 16 2.02 16 1 16 C-0.74511597 10.76465209 -1.2857653 6.52479577 -1 1 C-0.67 0.67 -0.34 0.34 0 0 Z " fill="#FFEDF3" transform="translate(389,164)"/>
<path d="M0 0 C0.66 0.33 1.32 0.66 2 1 C1.49166802 4.76165664 0.8405007 6.50035938 -2 9 C-2.99 10.485 -2.99 10.485 -4 12 C-4.45375 11.195625 -4.9075 10.39125 -5.375 9.5625 C-6.74725665 6.91143428 -6.74725665 6.91143428 -9 6 C-8.67 5.01 -8.34 4.02 -8 3 C-6.515 3.99 -6.515 3.99 -5 5 C-3.35 3.35 -1.7 1.7 0 0 Z " fill="#C9F2FC" transform="translate(35,385)"/>
<path d="M0 0 C4.62 0 9.24 0 14 0 C14 0.66 14 1.32 14 2 C13.34 2 12.68 2 12 2 C12 2.66 12 3.32 12 4 C7.05908166 5.64697278 3.74200601 4.72436582 -1 3 C-0.67 2.01 -0.34 1.02 0 0 Z " fill="#907E89" transform="translate(307,227)"/>
<path d="M0 0 C3.66666667 0 7.33333333 0 11 0 C11 0.66 11 1.32 11 2 C10.67 2.33 10.34 2.66 10 3 C10.33 3.66 10.66 4.32 11 5 C7.04 5 3.08 5 -1 5 C-0.67 3.35 -0.34 1.7 0 0 Z " fill="#94818C" transform="translate(293,257)"/>
<path d="M0 0 C1.98 1.32 3.96 2.64 6 4 C5.01 5.485 5.01 5.485 4 7 C0.13351728 5.95902388 -3.49461443 4.96301592 -7 3 C-6.34 2.34 -5.68 1.68 -5 1 C-4.01 1.33 -3.02 1.66 -2 2 C-1.34 1.34 -0.68 0.68 0 0 Z " fill="#EDBCF0" transform="translate(133,286)"/>
<path d="M0 0 C0.99 0.99 1.98 1.98 3 3 C1.625 5 1.625 5 0 7 C-0.66 7 -1.32 7 -2 7 C-2.33 8.32 -2.66 9.64 -3 11 C-4.65 10.67 -6.3 10.34 -8 10 C-6.625 7.5 -6.625 7.5 -5 5 C-4.34 5 -3.68 5 -3 5 C-2.67 4.01 -2.34 3.02 -2 2 C-1.34 1.34 -0.68 0.68 0 0 Z " fill="#FECDF3" transform="translate(27,255)"/>
<path d="M0 0 C1.48117801 0.28127421 2.95993249 0.57533732 4.4375 0.875 C5.67306641 1.11863281 5.67306641 1.11863281 6.93359375 1.3671875 C7.61550781 1.57601562 8.29742187 1.78484375 9 2 C9.33 2.66 9.66 3.32 10 4 C9.01 4 8.02 4 7 4 C7 5.32 7 6.64 7 8 C6.34 8 5.68 8 5 8 C4.67 7.01 4.34 6.02 4 5 C3.01 5 2.02 5 1 5 C0.67 5.99 0.34 6.98 0 8 C0 5.36 0 2.72 0 0 Z " fill="#60555C" transform="translate(253,244)"/>
<path d="M0 0 C2.4044979 1.88178097 2.99790027 2.99224715 3.8125 6 C4 9 4 9 2 12 C-0.625 12.6875 -0.625 12.6875 -3 13 C-2.1646875 11.948125 -2.1646875 11.948125 -1.3125 10.875 C-0.879375 9.92625 -0.44625 8.9775 0 8 C-1.1915405 4.69871355 -1.1915405 4.69871355 -3 2 C-2.01 1.34 -1.02 0.68 0 0 Z " fill="#D6E5F6" transform="translate(19,358)"/>
<path d="M0 0 C0.33 0.66 0.66 1.32 1 2 C1.66 2 2.32 2 3 2 C3 2.66 3 3.32 3 4 C3.99 3.67 4.98 3.34 6 3 C5.979375 3.78375 5.95875 4.5675 5.9375 5.375 C5.81315937 7.98114961 5.81315937 7.98114961 7 10 C6.34 10.66 5.68 11.32 5 12 C2 10 2 10 1.3125 7.875 C1.209375 7.25625 1.10625 6.6375 1 6 C0.34 6 -0.32 6 -1 6 C-0.67 4.02 -0.34 2.04 0 0 Z " fill="#FFD7F3" transform="translate(303,262)"/>
<path d="M0 0 C0.99 0 1.98 0 3 0 C2.67 0.66 2.34 1.32 2 2 C2.33 2.33 2.66 2.66 3 3 C-0.38018531 4.04005702 -3.4780279 4.08004482 -7 4 C-7.33 2.35 -7.66 0.7 -8 -1 C-4.32264395 -2.22578535 -3.44933477 -1.46596728 0 0 Z " fill="#897882" transform="translate(284,218)"/>
<path d="M0 0 C0.33 1.65 0.66 3.3 1 5 C-1.25221384 6.36741555 -2.52557758 7.04066478 -5.1875 6.8125 C-5.785625 6.544375 -6.38375 6.27625 -7 6 C-7.33 5.01 -7.66 4.02 -8 3 C-5.53387212 -0.1151089 -3.89156016 -0.31553191 0 0 Z " fill="#E8C1EF" transform="translate(197,293)"/>
<path d="M0 0 C2.475 0.495 2.475 0.495 5 1 C5 3.31 5 5.62 5 8 C3.35 8 1.7 8 0 8 C0 5.36 0 2.72 0 0 Z " fill="#533D68" transform="translate(99,130)"/>
<path d="M0 0 C1.98 0 3.96 0 6 0 C6.93423645 3.01031744 7.04449911 3.86650268 6 7 C3.69 6.34 1.38 5.68 -1 5 C-0.67 3.35 -0.34 1.7 0 0 Z " fill="#9B8893" transform="translate(330,257)"/>
<path d="M0 0 C0.66 0 1.32 0 2 0 C2 0.66 2 1.32 2 2 C3.65 1.67 5.3 1.34 7 1 C6.34 2.65 5.68 4.3 5 6 C2.69 6 0.38 6 -2 6 C-1.125 1.125 -1.125 1.125 0 0 Z " fill="#A4909B" transform="translate(300,136)"/>
<path d="M0 0 C1.32 0 2.64 0 4 0 C4 0.66 4 1.32 4 2 C4.66 2 5.32 2 6 2 C6.66 2.66 7.32 3.32 8 4 C8.66 3.34 9.32 2.68 10 2 C9.67 3.32 9.34 4.64 9 6 C8.443125 5.79375 7.88625 5.5875 7.3125 5.375 C4.340462 4.89304789 2.68020059 5.73434972 0 7 C0 4.69 0 2.38 0 0 Z " fill="#5A5256" transform="translate(267,126)"/>
<path d="M0 0 C0 0.99 0 1.98 0 3 C-1.258125 3.185625 -2.51625 3.37125 -3.8125 3.5625 C-4.87404297 3.71912109 -4.87404297 3.71912109 -5.95703125 3.87890625 C-8 4 -8 4 -11 3 C-11 2.01 -11 1.02 -11 0 C-7.03295711 -1.32234763 -3.94567332 -1.12733524 0 0 Z " fill="#927F8A" transform="translate(290,268)"/>
<path d="M0 0 C0.93423645 3.01031744 1.04449911 3.86650268 0 7 C-0.99 6.67 -1.98 6.34 -3 6 C-3.6875 3.9375 -3.6875 3.9375 -4 2 C-4.66 2 -5.32 2 -6 2 C-6 2.99 -6 3.98 -6 5 C-6.99 5 -7.98 5 -9 5 C-8.625 3.0625 -8.625 3.0625 -8 1 C-5.29120665 -0.35439668 -2.99066732 -0.06501451 0 0 Z " fill="#92808B" transform="translate(289,257)"/>
<path d="M0 0 C2.64 0 5.28 0 8 0 C8 0.99 8 1.98 8 3 C8.66 3 9.32 3 10 3 C10 3.66 10 4.32 10 5 C8.02 5.33 6.04 5.66 4 6 C4 5.34 4 4.68 4 4 C2.68 4 1.36 4 0 4 C0 2.68 0 1.36 0 0 Z " fill="#93818C" transform="translate(278,147)"/>
<path d="M0 0 C2.31 0.66 4.62 1.32 7 2 C6.67 2.99 6.34 3.98 6 5 C3.4375 6.1875 3.4375 6.1875 1 7 C0.01 6.01 -0.98 5.02 -2 4 C-1.34 2.68 -0.68 1.36 0 0 Z " fill="#D4CCEE" transform="translate(49,321)"/>
<path d="M0 0 C0.66 0 1.32 0 2 0 C2.125 7.75 2.125 7.75 1 10 C0.34 10 -0.32 10 -1 10 C-1.33 10.66 -1.66 11.32 -2 12 C-2.33 9.69 -2.66 7.38 -3 5 C-2.01 4.67 -1.02 4.34 0 4 C0 2.68 0 1.36 0 0 Z " fill="#FED2F7" transform="translate(9,254)"/>
<path d="M0 0 C1.98 0 3.96 0 6 0 C6 1.98 6 3.96 6 6 C4.02 6 2.04 6 0 6 C0 4.02 0 2.04 0 0 Z " fill="#A994A0" transform="translate(354,216)"/>
<path d="M0 0 C2 0.3125 2 0.3125 4 1 C5.231394 3.46278801 5.07159196 5.2795055 5 8 C4.34 8 3.68 8 3 8 C2.67 7.34 2.34 6.68 2 6 C1.67 6.66 1.34 7.32 1 8 C0.34 8 -0.32 8 -1 8 C-1.04241723 5.66705225 -1.04092937 3.33297433 -1 1 C-0.67 0.67 -0.34 0.34 0 0 Z " fill="#61565D" transform="translate(253,204)"/>
<path d="M0 0 C0.66 0 1.32 0 2 0 C2 0.66 2 1.32 2 2 C3.65 2 5.3 2 7 2 C7.33 3.32 7.66 4.64 8 6 C4.71303767 6.79953138 3.28976808 7.09658936 0 6 C0 4.02 0 2.04 0 0 Z " fill="#A28E99" transform="translate(252,145)"/>
<path d="M0 0 C1.98 0 3.96 0 6 0 C6 2.31 6 4.62 6 7 C4.35 6.67 2.7 6.34 1 6 C0.67 4.02 0.34 2.04 0 0 Z " fill="#B39EA9" transform="translate(271,145)"/>
<path d="M0 0 C2.475 0.99 2.475 0.99 5 2 C5 2.99 5 3.98 5 5 C7.31 5.33 9.62 5.66 12 6 C12 6.33 12 6.66 12 7 C8.04 7 4.08 7 0 7 C0 4.66666667 0 2.33333333 0 0 Z " fill="#CCF8FF" transform="translate(283,393)"/>
<path d="M0 0 C2.475 0.495 2.475 0.495 5 1 C5 3.31 5 5.62 5 8 C3.35 8 1.7 8 0 8 C0 5.36 0 2.72 0 0 Z " fill="#AD2068" transform="translate(99,167)"/>
<path d="M0 0 C2.31 0.33 4.62 0.66 7 1 C7 1.99 7 2.98 7 4 C7.33 4.33 7.66 4.66 8 5 C5.07175348 5.97608217 3.04386724 6.08226668 0 6 C0 4.02 0 2.04 0 0 Z " fill="#92818B" transform="translate(357,136)"/>
<path d="M0 0 C2 2 2 2 2 4 C2.66 4.66 3.32 5.32 4 6 C2.8553125 6.2165625 2.8553125 6.2165625 1.6875 6.4375 C-1.08172908 6.9632594 -1.08172908 6.9632594 -4 8 C-4.33 7.34 -4.66 6.68 -5 6 C-2.59016393 1.29508197 -2.59016393 1.29508197 0 0 Z " fill="#D0DFF4" transform="translate(240,346)"/>
<path d="M0 0 C0.66 0 1.32 0 2 0 C2 0.66 2 1.32 2 2 C3.65 2 5.3 2 7 2 C7.33 2.66 7.66 3.32 8 4 C7.34 4 6.68 4 6 4 C6 4.66 6 5.32 6 6 C4.34385343 6.38218767 2.67542976 6.71395102 1 7 C0 6 0 6 -0.0625 2.9375 C-0.041875 1.968125 -0.02125 0.99875 0 0 Z " fill="#917E89" transform="translate(252,225)"/>
<path d="M0 0 C3 0 6 0 9 0 C9 1.65 9 3.3 9 5 C8.4225 4.814375 7.845 4.62875 7.25 4.4375 C4.77399031 3.95605367 3.39805371 4.36051901 1 5 C0.34 4.67 -0.32 4.34 -1 4 C-0.67 2.68 -0.34 1.36 0 0 Z " fill="#8D7C86" transform="translate(329,217)"/>
<path d="M0 0 C2.64 0.33 5.28 0.66 8 1 C8 1.99 8 2.98 8 4 C8.66 4.33 9.32 4.66 10 5 C7.69 5 5.38 5 3 5 C2.67 4.01 2.34 3.02 2 2 C1.34 2 0.68 2 0 2 C-0.33 2.66 -0.66 3.32 -1 4 C-0.67 2.68 -0.34 1.36 0 0 Z " fill="#8D7C86" transform="translate(258,137)"/>
<path d="M0 0 C0.66 0 1.32 0 2 0 C2.33 0.66 2.66 1.32 3 2 C3.66 2.33 4.32 2.66 5 3 C4.67 3.66 4.34 4.32 4 5 C4.66 5 5.32 5 6 5 C5.67 5.99 5.34 6.98 5 8 C3.35 8 1.7 8 0 8 C0 5.36 0 2.72 0 0 Z " fill="#70636A" transform="translate(260,124)"/>
<path d="M0 0 C0.86625 0.4640625 0.86625 0.4640625 1.75 0.9375 C3.84294184 1.92583364 5.74535275 2.5168613 8 3 C7.67 3.99 7.34 4.98 7 6 C6.34 6 5.68 6 5 6 C4.67 6.66 4.34 7.32 4 8 C1.28004282 6.64002141 0.32968759 4.65937518 -1 2 C-0.67 1.34 -0.34 0.68 0 0 Z " fill="#CDE9F8" transform="translate(248,360)"/>
<path d="M0 0 C1.67542976 0.28604898 3.34385343 0.61781233 5 1 C5 2.65 5 4.3 5 6 C4.67 4.68 4.34 3.36 4 2 C3.34 2 2.68 2 2 2 C2 3.32 2 4.64 2 6 C0.02 6 -1.96 6 -4 6 C-3.34 5.67 -2.68 5.34 -2 5 C-1.6278958 3.67696283 -1.29369827 2.34262065 -1 1 C-0.67 0.67 -0.34 0.34 0 0 Z " fill="#534B4F" transform="translate(295,246)"/>
<path d="M0 0 C1.32 0.66 2.64 1.32 4 2 C3.67 2.99 3.34 3.98 3 5 C3 4.34 3 3.68 3 3 C2.34 3 1.68 3 1 3 C0.67 3.99 0.34 4.98 0 6 C-1.65 6 -3.3 6 -5 6 C-5.33 4.68 -5.66 3.36 -6 2 C-4.02 2 -2.04 2 0 2 C0 1.34 0 0.68 0 0 Z " fill="#8A7983" transform="translate(352,176)"/>
<path d="M0 0 C-0.66 1.32 -1.32 2.64 -2 4 C-2.33 4 -2.66 4 -3 4 C-3.99 4.33 -4.98 4.66 -6 5 C-7.32 5 -8.64 5 -10 5 C-10 3.68 -10 2.36 -10 1 C-6.78548731 -0.60725635 -3.56387464 -0.05748185 0 0 Z " fill="#8D7C86" transform="translate(277,177)"/>
<path d="M0 0 C1.65 0 3.3 0 5 0 C5 0.66 5 1.32 5 2 C4.34 2 3.68 2 3 2 C3 2.99 3 3.98 3 5 C3.66 5.33 4.32 5.66 5 6 C4.401875 5.79375 3.80375 5.5875 3.1875 5.375 C0.71549154 4.69328085 0.71549154 4.69328085 -2 7 C-2.66 5.02 -3.32 3.04 -4 1 C-3.01 1.33 -2.02 1.66 -1 2 C-0.67 1.34 -0.34 0.68 0 0 Z " fill="#4D464A" transform="translate(272,166)"/>
<path d="M0 0 C1.32 0 2.64 0 4 0 C4 0.66 4 1.32 4 2 C3.34 2 2.68 2 2 2 C1.67 2.66 1.34 3.32 1 4 C0.67 2.68 0.34 1.36 0 0 Z M-4 2 C-1.9375 2.4375 -1.9375 2.4375 0 3 C-0.33 3.99 -0.66 4.98 -1 6 C-3.0625 6.6875 -3.0625 6.6875 -5 7 C-5 3 -5 3 -4 2 Z " fill="#EEC4F2" transform="translate(61,289)"/>
<path d="M0 0 C0.99 0.99 1.98 1.98 3 3 C2.25 4.9375 2.25 4.9375 1 7 C-1.125 7.75 -1.125 7.75 -3 8 C-3.66 6.68 -4.32 5.36 -5 4 C-3.35 2.68 -1.7 1.36 0 0 Z M-3 4 C-2 6 -2 6 -2 6 Z " fill="#FED6F9" transform="translate(307,282)"/>
<path d="M0 0 C3 3.625 3 3.625 3 7 C2.68911632 8.67099977 2.35919668 10.33871537 2 12 C1.71125 11.360625 1.4225 10.72125 1.125 10.0625 C0.17176549 7.84793921 0.17176549 7.84793921 -2 7 C-2.125 4.625 -2.125 4.625 -2 2 C-1.34 1.34 -0.68 0.68 0 0 Z " fill="#FBD2F6" transform="translate(10,270)"/>
<path d="M0 0 C0.99 1.32 1.98 2.64 3 4 C2.01 4.495 2.01 4.495 1 5 C1 5.66 1 6.32 1 7 C-1.31 6.67 -3.62 6.34 -6 6 C-5.67 5.01 -5.34 4.02 -5 3 C-4.01 3 -3.02 3 -2 3 C-2 2.34 -2 1.68 -2 1 C-1.34 0.67 -0.68 0.34 0 0 Z " fill="#FECDF3" transform="translate(256,259)"/>
<path d="M0 0 C0.99 0 1.98 0 3 0 C3.66 1.65 4.32 3.3 5 5 C1.94736336 5.98120464 0.05263664 5.98120464 -3 5 C-1.125 1.125 -1.125 1.125 0 0 Z " fill="#FEBFEA" transform="translate(83,252)"/>
<path d="M0 0 C2.475 0.495 2.475 0.495 5 1 C5 2.32 5 3.64 5 5 C4.01 5 3.02 5 2 5 C2 5.99 2 6.98 2 8 C1.34 8 0.68 8 0 8 C0 5.36 0 2.72 0 0 Z " fill="#E8BB40" transform="translate(99,246)"/>
<path d="M0 0 C0.86625 0.2784375 0.86625 0.2784375 1.75 0.5625 C4.20692525 1.04023546 5.64397534 0.75729364 8 0 C8 1.32 8 2.64 8 4 C5.23735711 4.59732819 2.83967231 5 0 5 C0 3.35 0 1.7 0 0 Z " fill="#FFC1E9" transform="translate(162,238)"/>
<path d="M0 0 C2.475 0.495 2.475 0.495 5 1 C5 3.31 5 5.62 5 8 C4.34 8 3.68 8 3 8 C3 7.01 3 6.02 3 5 C2.34 5 1.68 5 1 5 C0.67 5.99 0.34 6.98 0 8 C0 5.36 0 2.72 0 0 Z " fill="#E55941" transform="translate(99,205)"/>
<path d="M0 0 C2.35171131 0.59861742 4.6859378 1.26924352 7 2 C7.33 2.66 7.66 3.32 8 4 C7.01 4.99 6.02 5.98 5 7 C4.67 6.34 4.34 5.68 4 5 C2.68 5.33 1.36 5.66 0 6 C0 4.02 0 2.04 0 0 Z " fill="#8C7C85" transform="translate(336,176)"/>
<path d="M0 0 C3.83225427 -0.08912219 7.26562152 0.12132271 11 1 C10.34 1.66 9.68 2.32 9 3 C9.33 3.66 9.66 4.32 10 5 C4.25 5.125 4.25 5.125 2 4 C2 3.34 2 2.68 2 2 C1.34 2 0.68 2 0 2 C0 1.34 0 0.68 0 0 Z " fill="#8A7983" transform="translate(313,137)"/>
<path d="M0 0 C1.98 0 3.96 0 6 0 C6.33 1.32 6.66 2.64 7 4 C2.25 5 2.25 5 0 5 C0 3.35 0 1.7 0 0 Z " fill="#97858F" transform="translate(289,137)"/>
<path d="M0 0 C-0.33 1.32 -0.66 2.64 -1 4 C-5.75 5.125 -5.75 5.125 -8 4 C-8 3.01 -8 2.02 -8 1 C-5.29120665 -0.35439668 -2.99066732 -0.06501451 0 0 Z " fill="#9C8A94" transform="translate(313,147)"/>
<path d="M0 0 C0.66 0 1.32 0 2 0 C2 0.66 2 1.32 2 2 C3.32 2.33 4.64 2.66 6 3 C6 3.99 6 4.98 6 6 C4.34385343 6.38218767 2.67542976 6.71395102 1 7 C0 6 0 6 -0.0625 2.9375 C-0.041875 1.968125 -0.02125 0.99875 0 0 Z " fill="#93808C" transform="translate(294,225)"/>
<path d="M0 0 C2.31 0 4.62 0 7 0 C6.875 1.875 6.875 1.875 6 4 C2.9375 5.25 2.9375 5.25 0 6 C0 4.02 0 2.04 0 0 Z " fill="#8F7E88" transform="translate(324,187)"/>
<path d="M0 0 C2.31 0.33 4.62 0.66 7 1 C6.34 2.32 5.68 3.64 5 5 C3.02 5 1.04 5 -1 5 C-0.67 3.35 -0.34 1.7 0 0 Z " fill="#A38E99" transform="translate(277,177)"/>
<path d="M0 0 C0 1.98 0 3.96 0 6 C-1.98 6 -3.96 6 -6 6 C-5.67 4.35 -5.34 2.7 -5 1 C-1.125 0 -1.125 0 0 0 Z " fill="#998791" transform="translate(332,136)"/>
<path d="M0 0 C1.65 0 3.3 0 5 0 C5.33 1.65 5.66 3.3 6 5 C3.69 5 1.38 5 -1 5 C-0.67 3.35 -0.34 1.7 0 0 Z " fill="#A08C98" transform="translate(346,257)"/>
<path d="M0 0 C0.99 0.33 1.98 0.66 3 1 C4.09658936 4.28976808 3.79953138 5.71303767 3 9 C1.35 7.35 -0.3 5.7 -2 4 C-1.34 2.68 -0.68 1.36 0 0 Z " fill="#FFEDF4" transform="translate(381,148)"/>
<path d="M0 0 C-0.99 0.99 -1.98 1.98 -3 3 C-3.99 2.67 -4.98 2.34 -6 2 C-6.99 2.33 -7.98 2.66 -9 3 C-9.33 1.68 -9.66 0.36 -10 -1 C-6.18510326 -2.46726798 -3.70988378 -1.43336419 0 0 Z " fill="#FABAED" transform="translate(97,273)"/>
<path d="M0 0 C1.134375 0.020625 2.26875 0.04125 3.4375 0.0625 C0.97596154 3.87788462 0.97596154 3.87788462 -1.75 4.8125 C-2.348125 4.895 -2.94625 4.9775 -3.5625 5.0625 C-4.125 3.125 -4.125 3.125 -4.5625 1.0625 C-3.5625 0.0625 -3.5625 0.0625 0 0 Z " fill="#94818B" transform="translate(267.5625,226.9375)"/>
<path d="M0 0 C1.32 0.66 2.64 1.32 4 2 C4 3.32 4 4.64 4 6 C2.02 6 0.04 6 -2 6 C-1.34 4.02 -0.68 2.04 0 0 Z " fill="#A995A0" transform="translate(302,186)"/>
<path d="M0 0 C2.625 0.375 2.625 0.375 5 1 C4.67 2.32 4.34 3.64 4 5 C4 4.34 4 3.68 4 3 C3.01 3.495 3.01 3.495 2 4 C2.33 4.66 2.66 5.32 3 6 C1.68 6 0.36 6 -1 6 C-1.625 4.125 -1.625 4.125 -2 2 C-1.34 1.34 -0.68 0.68 0 0 Z " fill="#534B4F" transform="translate(260,206)"/>
<path d="M0 0 C2.64 0 5.28 0 8 0 C8 1.65 8 3.3 8 5 C4 5 4 5 1 4 C1.66 3.67 2.32 3.34 3 3 C3 2.34 3 1.68 3 1 C2.01 1.33 1.02 1.66 0 2 C0 1.34 0 0.68 0 0 Z " fill="#907E88" transform="translate(257,187)"/>
<path d="M0 0 C2.31 0 4.62 0 7 0 C7 1.66666667 7 3.33333333 7 5 C5.02 5 3.04 5 1 5 C0.67 3.35 0.34 1.7 0 0 Z " fill="#96838E" transform="translate(341,187)"/>
<path d="M0 0 C0.99 0.33 1.98 0.66 3 1 C1.38405168 3.04119788 -0.2856382 5.04072937 -2 7 C-2.66 7 -3.32 7 -4 7 C-4.33 6.01 -4.66 5.02 -5 4 C-4.01 4 -3.02 4 -2 4 C-2 3.01 -2 2.02 -2 1 C-1.34 0.67 -0.68 0.34 0 0 Z " fill="#D9EEFB" transform="translate(302,365)"/>
<path d="M0 0 C0.66 0 1.32 0 2 0 C1.34 1.32 0.68 2.64 0 4 C0 2.68 0 1.36 0 0 Z M-4.4375 2.9375 C-3.303125 2.958125 -2.16875 2.97875 -1 3 C-1 3.66 -1 4.32 -1 5 C-3.875 5.625 -3.875 5.625 -7 6 C-7.66 5.34 -8.32 4.68 -9 4 C-8 3 -8 3 -4.4375 2.9375 Z " fill="#D5C7EC" transform="translate(69,315)"/>
<path d="M0 0 C2.64 0 5.28 0 8 0 C8 0.66 8 1.32 8 2 C7.34 2 6.68 2 6 2 C5.67 2.66 5.34 3.32 5 4 C2 4 2 4 0 3 C0 2.01 0 1.02 0 0 Z " fill="#D0C2EA" transform="translate(106,315)"/>
<path d="M0 0 C0.391875 0.515625 0.78375 1.03125 1.1875 1.5625 C-1.76089041 2.5452968 -3.75380972 2.5625 -6.8125 2.5625 C-7.8025 3.0575 -7.8025 3.0575 -8.8125 3.5625 C-8.125 1.625 -8.125 1.625 -6.8125 -0.4375 C-3.81506139 -1.590361 -2.58419401 -2.04953318 0 0 Z " fill="#E4C4ED" transform="translate(75.8125,298.4375)"/>
<path d="M0 0 C2.9375 0.75 2.9375 0.75 6 2 C6.875 4.125 6.875 4.125 7 6 C6.01 6 5.02 6 4 6 C4 5.34 4 4.68 4 4 C2.68 4 1.36 4 0 4 C0 2.68 0 1.36 0 0 Z " fill="#EEC7F2" transform="translate(46,292)"/>
<path d="M0 0 C1.65 0 3.3 0 5 0 C5 1.65 5 3.3 5 5 C3.02 5 1.04 5 -1 5 C-1 4.34 -1 3.68 -1 3 C-0.34 3 0.32 3 1 3 C0.67 2.01 0.34 1.02 0 0 Z " fill="#917F89" transform="translate(273,267)"/>
<path d="M0 0 C0.99 0.33 1.98 0.66 3 1 C3 2.32 3 3.64 3 5 C1.68 5.33 0.36 5.66 -1 6 C-1.33 4.35 -1.66 2.7 -2 1 C-1.34 0.67 -0.68 0.34 0 0 Z " fill="#5C5358" transform="translate(274,246)"/>
<path d="M0 0 C2.31 0 4.62 0 7 0 C6.3125 1.9375 6.3125 1.9375 5 4 C2.375 4.75 2.375 4.75 0 5 C0 3.35 0 1.7 0 0 Z " fill="#82727B" transform="translate(289,218)"/>
<path d="M0 0 C0.99 0.33 1.98 0.66 3 1 C3 1.99 3 2.98 3 4 C3.66 4.33 4.32 4.66 5 5 C2.69 5.33 0.38 5.66 -2 6 C-1.34 5.67 -0.68 5.34 0 5 C0 3.35 0 1.7 0 0 Z " fill="#7D6E76" transform="translate(267,206)"/>
<path d="M0 0 C1.65 0 3.3 0 5 0 C5 1.65 5 3.3 5 5 C3.02 5 1.04 5 -1 5 C-1 4.34 -1 3.68 -1 3 C-0.34 3 0.32 3 1 3 C0.67 2.01 0.34 1.02 0 0 Z " fill="#8B7A84" transform="translate(317,177)"/>
<path d="M0 0 C1.32 0 2.64 0 4 0 C4.66 1.98 5.32 3.96 6 6 C5.34 6 4.68 6 4 6 C4 5.34 4 4.68 4 4 C2.68 4 1.36 4 0 4 C0 2.68 0 1.36 0 0 Z " fill="#B8A0AC" transform="translate(265,168)"/>
<path d="M0 0 C2.475 0.495 2.475 0.495 5 1 C4.67 1.99 4.34 2.98 4 4 C3.34 4 2.68 4 2 4 C2 4.66 2 5.32 2 6 C1.34 6 0.68 6 0 6 C0 4.02 0 2.04 0 0 Z " fill="#8C7B84" transform="translate(252,136)"/>
<path d="M0 0 C0.99 0.33 1.98 0.66 3 1 C3 1.66 3 2.32 3 3 C3.66 3 4.32 3 5 3 C4.67 3.99 4.34 4.98 4 6 C3.01 6 2.02 6 1 6 C1 5.34 1 4.68 1 4 C0.34 4 -0.32 4 -1 4 C-0.67 2.68 -0.34 1.36 0 0 Z " fill="#D2F5FD" transform="translate(285,378)"/>
<path d="M0 0 C0.99 0 1.98 0 3 0 C3 0.66 3 1.32 3 2 C3.66 2 4.32 2 5 2 C5 2.66 5 3.32 5 4 C1.25 5.125 1.25 5.125 -1 4 C-0.67 2.68 -0.34 1.36 0 0 Z " fill="#D4CDEF" transform="translate(231,321)"/>
<path d="M0 0 C-3 2 -3 2 -5 2 C-5 2.66 -5 3.32 -5 4 C-5.99 3.67 -6.98 3.34 -8 3 C-7.67 2.01 -7.34 1.02 -7 0 C-3.86650268 -1.04449911 -3.01031744 -0.93423645 0 0 Z " fill="#E6C0D8" transform="translate(261,217)"/>
<path d="M0 0 C0.99 0.33 1.98 0.66 3 1 C3 2.32 3 3.64 3 5 C0.03 4.505 0.03 4.505 -3 4 C-2.67 3.01 -2.34 2.02 -2 1 C-1.34 0.67 -0.68 0.34 0 0 Z " fill="#8D7C86" transform="translate(331,177)"/>
<path d="M0 0 C0.66 0.33 1.32 0.66 2 1 C1.67 3.31 1.34 5.62 1 8 C-0.32 7.67 -1.64 7.34 -3 7 C-3 6.01 -3 5.02 -3 4 C-2.34 3.67 -1.68 3.34 -1 3 C-0.67 2.01 -0.34 1.02 0 0 Z " fill="#AB95A0" transform="translate(278,164)"/>
<path d="M0 0 C0 1.65 0 3.3 0 5 C-1.65 5 -3.3 5 -5 5 C-5.66 3.68 -6.32 2.36 -7 1 C-1.125 0 -1.125 0 0 0 Z " fill="#7D6E77" transform="translate(266,146)"/>
<path d="M0 0 C0 0.66 0 1.32 0 2 C-0.66 2 -1.32 2 -2 2 C-2 2.66 -2 3.32 -2 4 C-3.65 4.33 -5.3 4.66 -7 5 C-6.67 3.68 -6.34 2.36 -6 1 C-3.92446352 0.4465236 -2.15634036 0 0 0 Z " fill="#897882" transform="translate(326,257)"/>
<path d="M0 0 C0.66 0.33 1.32 0.66 2 1 C2.625 3.5625 2.625 3.5625 3 6 C1.68 6.33 0.36 6.66 -1 7 C-1.04254356 5.00045254 -1.04080783 2.99958364 -1 1 C-0.67 0.67 -0.34 0.34 0 0 Z " fill="#94818C" transform="translate(272,217)"/>
<path d="M0 0 C1.65 0 3.3 0 5 0 C5.33 1.32 5.66 2.64 6 4 C4.68 4 3.36 4 2 4 C1.34 2.68 0.68 1.36 0 0 Z " fill="#A08B97" transform="translate(295,217)"/>
<path d="M0 0 C0.33 2.31 0.66 4.62 1 7 C-0.32 6.67 -1.64 6.34 -3 6 C-3 4.35 -3 2.7 -3 1 C-1 0 -1 0 0 0 Z " fill="#BCA6B1" transform="translate(321,145)"/>
<path d="M0 0 C1.65 0 3.3 0 5 0 C5 1.65 5 3.3 5 5 C3.35 4.67 1.7 4.34 0 4 C0 2.68 0 1.36 0 0 Z " fill="#A5919B" transform="translate(266,137)"/>
<path d="M0 0 C1.32 0.33 2.64 0.66 4 1 C4 2.32 4 3.64 4 5 C2.68 5 1.36 5 0 5 C0 3.35 0 1.7 0 0 Z " fill="#A08A98" transform="translate(252,268)"/>
<path d="M0 0 C1.98 0 3.96 0 6 0 C5.67 1.32 5.34 2.64 5 4 C3.35 3.67 1.7 3.34 0 3 C0 2.01 0 1.02 0 0 Z " fill="#887881" transform="translate(339,258)"/>
<path d="M0 0 C0.66 0.66 1.32 1.32 2 2 C-0.12780579 4.34058637 -2.11562221 5.70700306 -5 7 C-4.75 4.625 -4.75 4.625 -4 2 C-1.9375 0.6875 -1.9375 0.6875 0 0 Z " fill="#FDC0E0" transform="translate(132,230)"/>
<path d="M0 0 C-0.33 1.65 -0.66 3.3 -1 5 C-1.66 5 -2.32 5 -3 5 C-3.33 4.67 -3.66 4.34 -4 4 C-4.99 4.495 -4.99 4.495 -6 5 C-6 4.01 -6 3.02 -6 2 C-2.25 0 -2.25 0 0 0 Z " fill="#A18D99" transform="translate(316,177)"/>
<path d="M0 0 C-1 2 -1 2 -4 4 C-4.33 3.01 -4.66 2.02 -5 1 C-5.66 0.67 -6.32 0.34 -7 0 C-4.3333581 -1.33332095 -2.83319697 -0.67102033 0 0 Z " fill="#9B8892" transform="translate(278,127)"/>
<path d="M0 0 C2.31 0 4.62 0 7 0 C7 0.99 7 1.98 7 3 C6.01 2.67 5.02 2.34 4 2 C4 2.66 4 3.32 4 4 C2.68 3.34 1.36 2.68 0 2 C0 1.34 0 0.68 0 0 Z " fill="#D5E6F7" transform="translate(270,354)"/>
<path d="M0 0 C0.99 0.33 1.98 0.66 3 1 C3 2.32 3 3.64 3 5 C1.68 4.67 0.36 4.34 -1 4 C-0.67 2.68 -0.34 1.36 0 0 Z " fill="#A18D98" transform="translate(362,217)"/>
<path d="M0 0 C0 0.66 0 1.32 0 2 C-0.66 2 -1.32 2 -2 2 C-2.33 2.66 -2.66 3.32 -3 4 C-3.99 4.33 -4.98 4.66 -6 5 C-6.33 4.01 -6.66 3.02 -7 2 C-2.25 0 -2.25 0 0 0 Z " fill="#8B7A84" transform="translate(290,177)"/>
<path d="M0 0 C0 1.65 0 3.3 0 5 C-1.32 5 -2.64 5 -4 5 C-4 3.68 -4 2.36 -4 1 C-2 0 -2 0 0 0 Z " fill="#998691" transform="translate(371,137)"/>
</svg>
