<?xml version="1.0" encoding="UTF-8"?>
<svg version="1.1" xmlns="http://www.w3.org/2000/svg" width="400" height="400">
<path d="M0 0 C132 0 264 0 400 0 C400 132 400 264 400 400 C268 400 136 400 0 400 C0 268 0 136 0 0 Z " fill="#D9E5EB" transform="translate(0,0)"/>
<path d="M0 0 C5.40423683 3.13142695 8.65927226 7.10672303 10.65234375 13.0859375 C10.74255755 14.6280742 10.77609987 16.17385016 10.77539158 17.71862316 C10.77738263 18.6755633 10.77937368 19.63250344 10.78142506 20.61844176 C10.7770558 22.1986773 10.7770558 22.1986773 10.77259827 23.81083679 C10.77345269 24.92820986 10.77430712 26.04558293 10.77518743 27.19681579 C10.77684131 30.96024675 10.77132232 34.72363365 10.76586914 38.48706055 C10.76558722 41.17712505 10.76570101 43.86718681 10.76631165 46.55725098 C10.76683648 52.35871021 10.76369386 58.1601582 10.75807381 63.96161461 C10.74995339 72.34958879 10.74734303 80.73755754 10.74608582 89.12553523 C10.74389615 102.73383972 10.73723837 116.34213822 10.7277832 129.95043945 C10.71860688 143.17114227 10.71152712 156.39184347 10.70727539 169.61254883 C10.70701267 170.42721045 10.70674994 171.24187207 10.70647926 172.08122041 C10.70517424 176.16805995 10.70391053 180.2548995 10.70266736 184.34173906 C10.6922974 218.25647639 10.67440655 252.1712058 10.65234375 286.0859375 C-1.55765625 286.0859375 -13.76765625 286.0859375 -26.34765625 286.0859375 C-26.40543927 231.85968918 -26.41920451 177.63363165 -26.36262512 123.40737438 C-26.35382921 114.84718353 -26.3461958 106.28700257 -26.34625244 97.72680664 C-26.34625058 96.63984061 -26.34625058 96.63984061 -26.34624869 95.53091568 C-26.34625024 94.82190032 -26.34625179 94.11288497 -26.3462534 93.3823843 C-26.34623027 80.2291342 -26.32023619 67.07638484 -26.24899292 53.92330933 C-26.2284084 49.92639767 -26.22187288 45.92985042 -26.22781372 41.93289185 C-26.23420552 37.3723768 -26.213423 32.81288424 -26.16916466 28.25258636 C-26.15821123 26.65093403 -26.15705986 25.04917499 -26.16721535 23.4475174 C-26.2465448 9.44173164 -26.2465448 9.44173164 -20.89431763 3.47904968 C-15.13566014 -1.70790075 -7.2495598 -2.82262395 0 0 Z " fill="#B7F0FE" transform="translate(241.34765625,27.9140625)"/>
<path d="M0 0 C4.13110244 4.07388495 6.85025067 7.79036256 7.24609566 13.63128281 C7.25449406 15.12475121 7.25180191 16.61830605 7.24050903 18.11175537 C7.24221788 18.93596709 7.24392673 19.76017882 7.24568737 20.60936666 C7.24898504 23.37475699 7.23797398 26.1399054 7.22705078 28.90527344 C7.22648673 30.88613377 7.22680311 32.86699452 7.22793579 34.84785461 C7.22851053 40.22971402 7.21673655 45.6114846 7.20278788 50.99332333 C7.19030076 56.61608876 7.18911161 62.23885614 7.18673706 67.8616333 C7.18051635 78.51110113 7.16409753 89.16052799 7.14403808 99.80997777 C7.12169746 111.93317151 7.11069027 124.0563672 7.10064721 136.1795764 C7.07973183 161.11974033 7.04454437 186.05986787 7 211 C11.62 211 16.24 211 21 211 C21 211.99 21 212.98 21 214 C-65.13 214 -151.26 214 -240 214 C-240 213.01 -240 212.02 -240 211 C-170.7 211 -101.4 211 -30 211 C-30.15836496 145.53997336 -30.15836496 145.53997336 -30.36035156 80.08007812 C-30.37841797 67.42089844 -30.37841797 67.42089844 -30.3817749 61.49499512 C-30.38550223 57.35525949 -30.40049489 53.21572895 -30.42230225 49.0760498 C-30.44976051 43.79359775 -30.45796063 38.51144346 -30.4522891 33.22892666 C-30.45347487 31.29152987 -30.46139403 29.35412256 -30.47686052 27.41678715 C-30.49681115 24.79575352 -30.49194183 22.17587066 -30.48101807 19.55480957 C-30.49849405 18.4228075 -30.49849405 18.4228075 -30.51632309 17.26793671 C-30.44879919 11.22374712 -28.71685986 6.02467985 -24.62346101 1.46749926 C-17.07667625 -5.29380643 -8.32945537 -5.36787124 0 0 Z " fill="#5EC8E8" transform="translate(310,103)"/>
<path d="M0 0 C5.24244577 3.0095522 9.05263645 7.32378908 11.375 12.9375 C11.62109566 15.70982742 11.62109566 15.70982742 11.61550903 18.96124268 C11.61825836 20.19520782 11.62100769 21.42917297 11.62384033 22.70053101 C11.61676255 24.06500342 11.60949293 25.42947484 11.60205078 26.79394531 C11.60148654 28.23294059 11.60180347 29.67193645 11.60293579 31.1109314 C11.60350981 35.01557912 11.59174748 38.92010406 11.57778788 42.82472324 C11.56528881 46.90599 11.56411067 50.98725954 11.56173706 55.06854248 C11.55551987 62.79620049 11.53910582 70.52380194 11.51903808 78.25143504 C11.49668652 87.04941775 11.48568752 95.84740316 11.47564721 104.6454072 C11.45473979 122.74281005 11.41806057 140.84013536 11.375 158.9375 C-0.505 158.9375 -12.385 158.9375 -24.625 158.9375 C-24.71530779 139.74431602 -24.7889863 120.55130416 -24.83224869 101.35796165 C-24.85287042 92.44608324 -24.88098356 83.53434624 -24.92675781 74.62255859 C-24.96663752 66.85467421 -24.99243564 59.08689225 -25.00135398 51.31890833 C-25.00656683 47.20610222 -25.01881064 43.0935891 -25.04792023 38.98087692 C-25.0751074 35.10832892 -25.08343843 31.2361941 -25.07743073 27.36355972 C-25.0785295 25.94378157 -25.08646408 24.52398934 -25.1018219 23.10429382 C-25.23852281 9.81350517 -25.23852281 9.81350517 -20.625 4.9375 C-14.06155767 -0.96959809 -8.56086083 -2.50921783 0 0 Z " fill="#FEAB3B" transform="translate(175.625,155.0625)"/>
<path d="M0 0 C4.57714712 3.45621313 7.33664714 6.84239207 9.0625 12.3125 C9.24038904 15.22821226 9.31557892 18.04474048 9.28955078 20.95825195 C9.28984283 21.8172963 9.29013489 22.67634064 9.29043579 23.56141663 C9.2890462 26.39130878 9.27350245 29.22093527 9.2578125 32.05078125 C9.25408105 34.01661536 9.2512347 35.98245133 9.24923706 37.94828796 C9.241611 43.11533772 9.22197127 48.28227456 9.1998291 53.44927979 C9.17934859 58.72463453 9.17023062 64.00000756 9.16015625 69.27539062 C9.13872444 79.62115128 9.10355061 89.96679857 9.0625 100.3125 C-2.8175 100.3125 -14.6975 100.3125 -26.9375 100.3125 C-27.05060973 88.71614267 -27.14227913 77.1201537 -27.19656086 65.52336884 C-27.22261774 60.13809154 -27.25794473 54.7532123 -27.31469727 49.36816406 C-27.36915591 44.16803594 -27.39894993 38.96828991 -27.41188622 33.76789856 C-27.4211012 31.78719572 -27.43909614 29.80651301 -27.46615028 27.82597351 C-27.50262487 25.04433549 -27.50743769 22.26426183 -27.50512695 19.48242188 C-27.52310333 18.66961761 -27.54107971 17.85681335 -27.55960083 17.01937866 C-27.50595695 11.02328983 -25.75799704 6.94418567 -21.9375 2.3125 C-15.93979269 -2.95200118 -7.08184016 -3.73129212 0 0 Z " fill="#FEDD45" transform="translate(112.9375,213.6875)"/>
<path d="M0 0 C5.40423683 3.13142695 8.65927226 7.10672303 10.65234375 13.0859375 C11.38221785 20.5306533 8.89107916 25.30264483 4.33984375 30.9609375 C-0.1240623 34.49053763 -4.32622718 35.33632769 -9.91015625 34.9609375 C-15.50605675 34.14248947 -18.94160922 31.68199088 -22.66015625 27.4609375 C-26.45644693 22.11800988 -26.12995382 16.46352529 -25.34765625 10.0859375 C-23.3670284 5.64494495 -20.51570867 2.95518581 -16.66015625 0.0859375 C-11.11067618 -1.58937724 -5.50016147 -2.14149382 0 0 Z " fill="#91CCE5" transform="translate(241.34765625,27.9140625)"/>
<path d="M0 0 C4.59047821 2.63527453 7.99478431 6.17706863 10.375 10.9375 C10.87739048 16.43908755 11.13705731 21.32545569 8.75 26.375 C3.64415557 31.88393741 0.13570564 34.62924544 -7.4375 35.25 C-12.71913856 35.16164545 -16.41912076 33.12057945 -20.13671875 29.44140625 C-24.5767905 24.33977653 -24.97511235 20.18877011 -24.90625 13.6640625 C-24.38333098 8.5946531 -21.77673296 5.97405966 -18.125 2.6875 C-12.05424475 -1.56202867 -7.12505069 -2.08837693 0 0 Z " fill="#FA8808" transform="translate(175.625,155.0625)"/>
<path d="M0 0 C3.5541525 2.6837478 6.0682293 5.3239586 8.0625 9.3125 C8.55578755 15.16725711 8.91994288 20.50234281 6.375 25.875 C1.54448433 30.96662462 -2.05015767 33.42805585 -9.125 33.6875 C-14.93553616 33.61832695 -18.6675954 32.2609059 -22.9375 28.3125 C-27.04328062 23.83452397 -27.62748622 18.96866563 -27.3828125 13.03125 C-26.5427742 7.9025951 -24.22477453 4.4096634 -20.43359375 0.93359375 C-14.56292368 -3.12636363 -6.26644384 -3.30167471 0 0 Z " fill="#FEB90A" transform="translate(112.9375,213.6875)"/>
<path d="M0 0 C86.13 0 172.26 0 261 0 C261 0.99 261 1.98 261 3 C174.87 3 88.74 3 0 3 C0 2.01 0 1.02 0 0 Z " fill="#1D4554" transform="translate(70,314)"/>
<path d="M0 0 C3.15689734 1.60714774 5.19415756 2.97438234 7.375 5.75 C8.65032852 10.34118266 8.65906754 14.38894602 6.875 18.75 C4.42048507 21.69541791 2.47868195 23.32507906 -1 25 C-5.63390035 25.34325188 -9.0193681 24.62593526 -12.9375 22.125 C-15.94468128 19.02669202 -17.3010486 16.96928614 -17.375 12.6875 C-17.27061547 8.1094928 -16.06740869 5.49343768 -13 2 C-8.79089144 -0.56244894 -4.80520471 -0.68288871 0 0 Z " fill="#F2F9FC" transform="translate(303,105)"/>
<path d="M0 0 C3.89423016 2.13800871 6.65114833 4.23233331 9 8 C9.86120395 12.77153538 9.70334178 16.79427124 7.25 21 C2.82031537 24.93749745 -0.78512166 25.43999749 -6.58984375 25.3203125 C-10.04527671 24.86108154 -11.71037435 23.57582886 -14 21 C-16.28352953 17.95529396 -16.42464146 14.79109142 -16.3125 11.02734375 C-15.78010527 7.57343294 -14.28137423 5.58155505 -12 3 C-7.94891762 0.35798975 -4.8162435 -0.70236884 0 0 Z " fill="#F8FBFD" transform="translate(237,32)"/>
<path d="M0 0 C3.05954846 2.29466134 4.99002369 4.24709072 5.68359375 8.08984375 C5.69011594 12.32274639 5.67117643 14.96548326 3.5 18.6875 C-0.92968463 22.62499745 -4.53512166 23.12749749 -10.33984375 23.0078125 C-13.79527671 22.54858154 -15.46037435 21.26332886 -17.75 18.6875 C-20.03352953 15.64279396 -20.17464146 12.47859142 -20.0625 8.71484375 C-19.53010527 5.26093294 -18.03137423 3.26905505 -15.75 0.6875 C-10.2887135 -3.07471959 -5.90432045 -2.81797112 0 0 Z " fill="#FDF8F1" transform="translate(175.75,161.3125)"/>
<path d="M0 0 C4.11092959 1.77517414 6.73298981 4.13768634 9 8 C9.69913436 12.27248776 9.45269709 15.84310743 7.875 19.875 C4.55845935 23.63374607 0.93861973 25.1506139 -4 25.5 C-8.72535126 25.31895206 -10.79163664 23.36114257 -14 20 C-16.5422395 16.53330978 -16.36849437 13.20083582 -16 9 C-12.78089278 1.71465209 -7.74014694 -1.29002449 0 0 Z " fill="#FEFBF2" transform="translate(107,217)"/>
<path d="M0 0 C4.28485635 4.33117912 6.17473841 7.54012861 6.375 13.625 C6.30286042 19.64144089 5.28373999 23.6746703 1 28 C-3.58198656 31.5062158 -8.17950082 32.61510305 -13.8984375 32.3203125 C-19.64595637 31.44429661 -23.26585605 28.25277505 -27 24 C-29.89738823 19.28543448 -29.49093941 14.36137007 -29 9 C-27.26675422 3.80026266 -24.44573242 1.13816406 -20 -2 C-13.13293747 -5.2842473 -6.29264173 -4.05525801 0 0 Z M-22 6 C-24.54657728 10.19746186 -24.81364572 14.20945327 -24 19 C-22.26622697 22.3887382 -19.88678357 24.49976311 -16.5625 26.375 C-11.89358034 27.51376089 -9.13332307 27.59999457 -4.8125 25.3125 C-0.52837792 21.78999962 0.82029636 19.61733279 1.4375 14.0625 C1.26839443 9.80265006 -0.21139819 7.25336878 -3 4 C-9.49436866 0.03272877 -16.38109638 1.06632853 -22 6 Z " fill="#28A3C3" transform="translate(310,103)"/>
<path d="M0 0 C4.91511194 1.34048507 4.91511194 1.34048507 6.4375 3.9375 C6.9375 6.8125 6.9375 6.8125 6.4375 9.9375 C4.12012395 12.98319423 2.65924087 14.66931298 -1.125 15.5 C-4.45834898 14.73076562 -5.61452434 13.75124263 -7.5625 10.9375 C-8.12895882 6.97228823 -8.13840314 4.85894502 -6 1.4375 C-3.5625 -0.0625 -3.5625 -0.0625 0 0 Z " fill="#E4A310" transform="translate(104.5625,222.0625)"/>
<path d="M0 0 C2.5 1.5625 2.5 1.5625 4 4 C3.93913078 7.46954545 3.6274029 9.91947278 1.875 12.9375 C-1.22289358 14.69297303 -3.52844534 14.48723574 -7 14 C-9.5 11.875 -9.5 11.875 -11 9 C-10.936318 5.81590023 -10.51040601 3.85067668 -8.875 1.125 C-5.83167192 -0.70099685 -3.45750445 -0.42460581 0 0 Z " fill="#E0740B" transform="translate(172,165)"/>
<path d="M0 0 C2.5 1.5625 2.5 1.5625 4 4 C3.93913078 7.46954545 3.6274029 9.91947278 1.875 12.9375 C-1.22289358 14.69297303 -3.52844534 14.48723574 -7 14 C-9.5 11.875 -9.5 11.875 -11 9 C-10.936318 5.81590023 -10.51040601 3.85067668 -8.875 1.125 C-5.83167192 -0.70099685 -3.45750445 -0.42460581 0 0 Z " fill="#79B4CF" transform="translate(237,38)"/>
<path d="M0 0 C2.34572071 2.11871548 2.89543972 3.4025127 3.4375 6.5 C3 9 3 9 1.4375 11.3125 C-1.92771179 13.64226201 -3.98972923 13.57289582 -8 13 C-10.5 11.4375 -10.5 11.4375 -12 9 C-12 5.22315121 -11.78395245 2.96486456 -9.375 0 C-5.88418213 -1.46981805 -3.60851044 -0.98413921 0 0 Z " fill="#0C8EAD" transform="translate(303,111)"/>
<path d="M0 0 C0.86625 -0.01675781 1.7325 -0.03351563 2.625 -0.05078125 C5 0.3125 5 0.3125 6.8203125 1.671875 C8 3.3125 8 3.3125 7.875 5.875 C7 8.3125 7 8.3125 4 10.3125 C-2.85468862 10.85652291 -2.85468862 10.85652291 -6.5 9.125 C-8 7.3125 -8 7.3125 -8.4375 4.75 C-8.293125 3.945625 -8.14875 3.14125 -8 2.3125 C-4.78169935 0.16696623 -3.73213493 0.01666132 0 0 Z " fill="#FCC02A" transform="translate(104,351.6875)"/>
<path d="M0 0 C1.3303125 0.00773437 1.3303125 0.00773437 2.6875 0.015625 C3.574375 0.01046875 4.46125 0.0053125 5.375 0 C7.6875 0.265625 7.6875 0.265625 9.6875 2.265625 C10 5.265625 10 5.265625 9.6875 8.265625 C6.0062559 10.71978773 2.96488037 10.85946654 -1.3125 10.265625 C-3.8125 8.765625 -3.8125 8.765625 -5.3125 7.265625 C-4.2422356 0.48728382 -4.2422356 0.48728382 0 0 Z " fill="#F89423" transform="translate(166.3125,351.734375)"/>
<path d="M0 0 C2.4375 1 2.4375 1 4 2 C4.125 4.875 4.125 4.875 4 8 C2 10 2 10 -0.27734375 10.265625 C-1.15519531 10.26046875 -2.03304687 10.2553125 -2.9375 10.25 C-3.81277344 10.25515625 -4.68804687 10.2603125 -5.58984375 10.265625 C-8 10 -8 10 -11 8 C-11.4375 5.5625 -11.4375 5.5625 -11 3 C-7.85694557 -0.64594314 -4.57672641 -0.40863629 0 0 Z " fill="#F79729" transform="translate(172,329)"/>
<path d="M0 0 C0.78503906 0.00515625 1.57007813 0.0103125 2.37890625 0.015625 C3.55259766 0.00789063 3.55259766 0.00789063 4.75 0 C6.94140625 0.265625 6.94140625 0.265625 9.94140625 2.265625 C9.68579302 4.6087463 9.34869853 6.94405903 8.94140625 9.265625 C6.61454172 10.42905727 5.09419212 10.46458488 2.50390625 10.515625 C1.72144531 10.54140625 0.93898437 10.5671875 0.1328125 10.59375 C-2.05859375 10.265625 -2.05859375 10.265625 -3.85546875 8.91015625 C-5.05859375 7.265625 -5.05859375 7.265625 -4.87109375 4.703125 C-3.8934706 1.77025556 -3.17863964 0.41014705 0 0 Z " fill="#90CCE6" transform="translate(231.05859375,351.734375)"/>
<path d="M0 0 C0.78503906 0.00515625 1.57007813 0.0103125 2.37890625 0.015625 C3.55259766 0.00789063 3.55259766 0.00789063 4.75 0 C6.94140625 0.265625 6.94140625 0.265625 9.94140625 2.265625 C10.36692877 5.03152138 10.29974061 6.61614398 8.94140625 9.078125 C5.76656924 10.96318447 2.48805472 10.82224186 -1.05859375 10.265625 C-3.55859375 8.765625 -3.55859375 8.765625 -5.05859375 7.265625 C-3.99273586 0.51519172 -3.99273586 0.51519172 0 0 Z " fill="#30A7C6" transform="translate(296.05859375,351.734375)"/>
<path d="M0 0 C1 1 1 1 1.125 4.5 C1 8 1 8 0 9 C-1.66608987 9.04384447 -3.33380554 9.0396713 -5 9 C-5.99 9 -6.98 9 -8 9 C-12.8 8.2 -12.8 8.2 -14 7 C-14.1875 4.5625 -14.1875 4.5625 -14 2 C-12 0 -12 0 -9 -0.0625 C-8.01 -0.041875 -7.02 -0.02125 -6 0 C-3.49749232 -1.25125384 -2.59701335 -0.83774624 0 0 Z " fill="#74B2CD" transform="translate(240,105)"/>
<path d="M0 0 C4.70588235 0.70588235 4.70588235 0.70588235 6 2 C6.23529412 7.52941176 6.23529412 7.52941176 5 10 C1.28400809 10.20086443 0.22791555 10.1519437 -3 8 C-3 8.66 -3 9.32 -3 10 C-4.65 9.67 -6.3 9.34 -8 9 C-9.125 3.25 -9.125 3.25 -8 1 C-6.865625 1.020625 -5.73125 1.04125 -4.5625 1.0625 C-1.18424326 1.41577477 -1.18424326 1.41577477 0 0 Z " fill="#7AB7D2" transform="translate(235,88)"/>
<path d="M0 0 C0.33 0 0.66 0 1 0 C1 31.02 1 62.04 1 94 C0.34 93.67 -0.32 93.34 -1 93 C-1 92.34 -1 91.68 -1 91 C-2.98 91.495 -2.98 91.495 -5 92 C-5.33 90.68 -5.66 89.36 -6 88 C-3.525 87.01 -3.525 87.01 -1 86 C-0.67 57.62 -0.34 29.24 0 0 Z " fill="#C4E9ED" transform="translate(215,41)"/>
<path d="M0 0 C2.8125 1.125 2.8125 1.125 5 3 C5.8125 6.1875 5.8125 6.1875 6 9 C5.01 9 4.02 9 3 9 C2.34 7.35 1.68 5.7 1 4 C0.34 5.98 -0.32 7.96 -1 10 C-4.375 10.125 -4.375 10.125 -8 10 C-10 8 -10 8 -10.375 5.5625 C-10 3 -10 3 -8.375 1.1875 C-5.30319788 -0.34840106 -3.40279918 -0.41666929 0 0 Z " fill="#FCC12D" transform="translate(106,329)"/>
<path d="M0 0 C3.0625 0.1875 3.0625 0.1875 5.0625 2.1875 C5.4375 4.625 5.4375 4.625 5.0625 7.1875 C3.5625 9.0625 3.5625 9.0625 1.0625 10.1875 C-2.61241017 10.30580697 -5.79747328 9.9000167 -8.9375 7.9375 C-10.27168933 5.60266867 -10.15172686 3.82963132 -9.9375 1.1875 C-9.2775 1.1875 -8.6175 1.1875 -7.9375 1.1875 C-7.504375 2.3940625 -7.504375 2.3940625 -7.0625 3.625 C-6.20487432 6.3201468 -6.20487432 6.3201468 -3.9375 7.1875 C-3.958125 6.218125 -3.97875 5.24875 -4 4.25 C-3.91836957 0.2501087 -3.91836957 0.2501087 0 0 Z " fill="#0D91B1" transform="translate(300.9375,176.8125)"/>
<path d="M0 0 C0.66 0 1.32 0 2 0 C2 0.66 2 1.32 2 2 C2.99 2 3.98 2 5 2 C5 2.99 5 3.98 5 5 C4.01 5 3.02 5 2 5 C2 6.98 2 8.96 2 11 C-2.7707929 10.56629155 -6.63364259 8.35665609 -10 5 C-10 4.01 -10 3.02 -10 2 C-6.7 2 -3.4 2 0 2 C0 1.34 0 0.68 0 0 Z " fill="#E3A926" transform="translate(106,164)"/>
<path d="M0 0 C4 2 4 2 5.8125 3.375 C7.96556052 4.23773871 7.96556052 4.23773871 9.80859375 3.234375 C11.5788041 2.22282623 13.29355142 1.11575484 15 0 C14.60196439 2.88575819 14.20990931 3.82189513 11.9375 5.75 C11.298125 6.1625 10.65875 6.575 10 7 C11.65 7.33 13.3 7.66 15 8 C15 8.99 15 9.98 15 11 C10.05 11 5.1 11 0 11 C0 10.01 0 9.02 0 8 C1.65 7.67 3.3 7.34 5 7 C4.175 6.401875 3.35 5.80375 2.5 5.1875 C1.675 4.465625 0.85 3.74375 0 3 C0 2.01 0 1.02 0 0 Z " fill="#E3A927" transform="translate(96,152)"/>
<path d="M0 0 C0.886875 0.70125 1.77375 1.4025 2.6875 2.125 C5.77424074 4.36847416 5.77424074 4.36847416 8.625 3.375 C9.40875 2.92125 10.1925 2.4675 11 2 C11.763125 1.62875 12.52625 1.2575 13.3125 0.875 C13.869375 0.58625 14.42625 0.2975 15 0 C14.52797514 4.24822374 12.03344482 6.19989709 9 9 C10.98 9 12.96 9 15 9 C15 9.66 15 10.32 15 11 C10.05 11 5.1 11 0 11 C0 10.01 0 9.02 0 8 C1.32 7.67 2.64 7.34 4 7 C3.34 6.401875 2.68 5.80375 2 5.1875 C0 3 0 3 0 0 Z " fill="#76B3CE" transform="translate(226,75)"/>
<path d="M0 0 C2.64652992 -0.46703469 4.36924133 -0.39884037 6.66796875 1.0546875 C9.14632727 3.23281731 10.80140524 4.85756827 11.37890625 8.1796875 C11.375 10.375 11.375 10.375 11 14 C10.54109375 13.66226562 10.0821875 13.32453125 9.609375 12.9765625 C5.01807574 9.63691049 5.01807574 9.63691049 0 7 C0 4.69 0 2.38 0 0 Z " fill="#D9EDFA" transform="translate(293,333)"/>
<path d="M0 0 C0.66 0 1.32 0 2 0 C2 0.66 2 1.32 2 2 C2.99 2 3.98 2 5 2 C5 2.66 5 3.32 5 4 C4.01 4 3.02 4 2 4 C2 6.31 2 8.62 2 11 C-1.38361519 10.38271885 -3.52002561 9.13020282 -6.25 7.0625 C-6.95640625 6.53785156 -7.6628125 6.01320312 -8.390625 5.47265625 C-8.92171875 4.98667969 -9.4528125 4.50070313 -10 4 C-10 3.34 -10 2.68 -10 2 C-6.7 2 -3.4 2 0 2 C0 1.34 0 0.68 0 0 Z " fill="#E3760A" transform="translate(171,231)"/>
<path d="M0 0 C0.66 0 1.32 0 2 0 C2 0.66 2 1.32 2 2 C2.99 2 3.98 2 5 2 C5 2.66 5 3.32 5 4 C4.01 4 3.02 4 2 4 C2 6.31 2 8.62 2 11 C-2.49014624 9.50328459 -6.47848764 7.16631659 -10 4 C-10 3.34 -10 2.68 -10 2 C-6.7 2 -3.4 2 0 2 C0 1.34 0 0.68 0 0 Z " fill="#E3760B" transform="translate(171,215)"/>
<path d="M0 0 C0.9075 0.680625 1.815 1.36125 2.75 2.0625 C5.66507078 4.19520383 5.66507078 4.19520383 8.0625 3.9375 C10.47654948 2.76941154 12.74070614 1.44343774 15 0 C14.52797514 4.24822374 12.03344482 6.19989709 9 9 C10.98 9 12.96 9 15 9 C15 9.66 15 10.32 15 11 C10.05 11 5.1 11 0 11 C0 10.34 0 9.68 0 9 C1.98 9 3.96 9 6 9 C6 8.34 6 7.68 6 7 C5.38125 6.71125 4.7625 6.4225 4.125 6.125 C2 5 2 5 0 3 C0 2.01 0 1.02 0 0 Z " fill="#E07106" transform="translate(161,202)"/>
<path d="M0 0 C1.98 1.65 3.96 3.3 6 5 C6.556875 4.71125 7.11375 4.4225 7.6875 4.125 C10.08494645 2.9586747 12.51596939 1.9660119 15 1 C13.55746343 4.36591866 11.66735273 6.51047079 9 9 C10.98 9 12.96 9 15 9 C15 9.66 15 10.32 15 11 C10.05 11 5.1 11 0 11 C0 10.34 0 9.68 0 9 C1.65 8.67 3.3 8.34 5 8 C3.7625 6.8553125 3.7625 6.8553125 2.5 5.6875 C0 3 0 3 0 0 Z " fill="#078DAD" transform="translate(291,147)"/>
<path d="M0 0 C3.77853482 0.61511032 5.22571222 2.62402825 7.6875 5.4375 C8.0175 3.7875 8.3475 2.1375 8.6875 0.4375 C9.3475 0.4375 10.0075 0.4375 10.6875 0.4375 C10.6875 3.7375 10.6875 7.0375 10.6875 10.4375 C6.6875 8.4375 6.6875 8.4375 4.6875 6.375 C2.60897384 4.36142778 1.49981342 3.83925906 -1.3125 3.4375 C-0.9825 5.4175 -0.6525 7.3975 -0.3125 9.4375 C-1.3025 9.4375 -2.2925 9.4375 -3.3125 9.4375 C-3.9375 6.0625 -3.9375 6.0625 -4.3125 2.4375 C-2.3125 0.4375 -2.3125 0.4375 0 0 Z " fill="#90CCE6" transform="translate(230.3125,340.5625)"/>
<path d="M0 0 C3.77853482 0.61511032 5.22571222 2.62402825 7.6875 5.4375 C8.0175 3.7875 8.3475 2.1375 8.6875 0.4375 C9.3475 0.4375 10.0075 0.4375 10.6875 0.4375 C10.6875 3.7375 10.6875 7.0375 10.6875 10.4375 C6.6875 8.4375 6.6875 8.4375 4.6875 6.375 C2.60897384 4.36142778 1.49981342 3.83925906 -1.3125 3.4375 C-1.3125 5.4175 -1.3125 7.3975 -1.3125 9.4375 C-1.9725 9.4375 -2.6325 9.4375 -3.3125 9.4375 C-3.9375 6.0625 -3.9375 6.0625 -4.3125 2.4375 C-2.3125 0.4375 -2.3125 0.4375 0 0 Z " fill="#F98B10" transform="translate(165.3125,340.5625)"/>
<path d="M0 0 C0.9796875 0.00515625 1.959375 0.0103125 2.96875 0.015625 C3.9484375 0.01046875 4.928125 0.0053125 5.9375 0 C8.46875 0.265625 8.46875 0.265625 10.46875 2.265625 C10.59375 5.890625 10.59375 5.890625 10.46875 9.265625 C9.47875 9.595625 8.48875 9.925625 7.46875 10.265625 C7.46875 7.955625 7.46875 5.645625 7.46875 3.265625 C6.47875 2.935625 5.48875 2.605625 4.46875 2.265625 C4.46875 3.915625 4.46875 5.565625 4.46875 7.265625 C3.47875 7.265625 2.48875 7.265625 1.46875 7.265625 C1.13875 5.945625 0.80875 4.625625 0.46875 3.265625 C-0.19125 3.265625 -0.85125 3.265625 -1.53125 3.265625 C-1.53125 5.245625 -1.53125 7.225625 -1.53125 9.265625 C-2.52125 8.935625 -3.51125 8.605625 -4.53125 8.265625 C-4.65625 5.390625 -4.65625 5.390625 -4.53125 2.265625 C-2.53125 0.265625 -2.53125 0.265625 0 0 Z " fill="#0B90AF" transform="translate(295.53125,160.734375)"/>
<path d="M0 0 C3.73647845 0.16245558 5.52538742 0.58783644 8.375 3.0625 C8.91125 3.701875 9.4475 4.34125 10 5 C10.33 3.35 10.66 1.7 11 0 C11.66 0 12.32 0 13 0 C13 3.3 13 6.6 13 10 C9 8 9 8 7 5.9375 C4.92147384 3.92392778 3.81231342 3.40175906 1 3 C1 4.98 1 6.96 1 9 C0.34 9 -0.32 9 -1 9 C-1.625 5.625 -1.625 5.625 -2 2 C-1.34 1.34 -0.68 0.68 0 0 Z " fill="#2FA6C5" transform="translate(293,341)"/>
<path d="M0 0 C0.66 0 1.32 0 2 0 C2 3.3 2 6.6 2 10 C-2 9 -2 9 -3.9375 7 C-6.30854261 4.70080717 -7.77231982 4.35863113 -11 4 C-10.67 5.98 -10.34 7.96 -10 10 C-10.66 10 -11.32 10 -12 10 C-12.625 6.625 -12.625 6.625 -13 3 C-11 1 -11 1 -8.75 0.5625 C-4.72603688 1.20267595 -2.95974963 3.24674453 0 6 C0 4.02 0 2.04 0 0 Z " fill="#31A8C6" transform="translate(304,329)"/>
<path d="M0 0 C0.66 0 1.32 0 2 0 C2 3.3 2 6.6 2 10 C-2 8 -2 8 -4.5625 5.9375 C-6.92026019 3.83615651 -6.92026019 3.83615651 -10 3 C-9.67 4.98 -9.34 6.96 -9 9 C-9.99 9.33 -10.98 9.66 -12 10 C-12.625 6.625 -12.625 6.625 -13 3 C-12.34 2.34 -11.68 1.68 -11 1 C-4.82215289 1.33697348 -4.82215289 1.33697348 -2.0625 3.5625 C-1.711875 4.036875 -1.36125 4.51125 -1 5 C-0.67 3.35 -0.34 1.7 0 0 Z " fill="#FEBA0E" transform="translate(109,363)"/>
<path d="M0 0 C0.66 0 1.32 0 2 0 C2 3.3 2 6.6 2 10 C-2 8 -2 8 -4.5625 5.9375 C-6.92026019 3.83615651 -6.92026019 3.83615651 -10 3 C-9.67 4.98 -9.34 6.96 -9 9 C-9.99 9 -10.98 9 -12 9 C-13 8 -13 8 -13.1875 5.5625 C-13 3 -13 3 -11 1 C-4.82215289 1.33697348 -4.82215289 1.33697348 -2.0625 3.5625 C-1.711875 4.036875 -1.36125 4.51125 -1 5 C-0.67 3.35 -0.34 1.7 0 0 Z " fill="#F98A0E" transform="translate(174,363)"/>
<path d="M0 0 C0.66 0 1.32 0 2 0 C2 3.3 2 6.6 2 10 C-2 8 -2 8 -4.5625 5.875 C-6.88377389 3.69514462 -6.88377389 3.69514462 -10 4 C-9.67 5.65 -9.34 7.3 -9 9 C-9.99 9.33 -10.98 9.66 -12 10 C-12.625 6.625 -12.625 6.625 -13 3 C-12.34 2.34 -11.68 1.68 -11 1 C-4.82215289 1.33697348 -4.82215289 1.33697348 -2.0625 3.5625 C-1.711875 4.036875 -1.36125 4.51125 -1 5 C-0.67 3.35 -0.34 1.7 0 0 Z " fill="#92CDE7" transform="translate(239,363)"/>
<path d="M0 0 C0.66 0 1.32 0 2 0 C2 3.3 2 6.6 2 10 C-2 8 -2 8 -4.5625 5.9375 C-6.92026019 3.83615651 -6.92026019 3.83615651 -10 3 C-9.67 4.98 -9.34 6.96 -9 9 C-9.99 9 -10.98 9 -12 9 C-13 8 -13 8 -13.1875 5.5625 C-13 3 -13 3 -11 1 C-7.3829832 0.41345673 -6.22207622 0.84207914 -3.1875 3 C-2.465625 3.66 -1.74375 4.32 -1 5 C-0.67 3.35 -0.34 1.7 0 0 Z " fill="#E3A10E" transform="translate(109,181)"/>
<path d="M0 0 C0.66 0 1.32 0 2 0 C2 3.3 2 6.6 2 10 C-2 8 -2 8 -4.5625 5.875 C-6.88377389 3.69514462 -6.88377389 3.69514462 -10 4 C-10 5.65 -10 7.3 -10 9 C-10.99 8.67 -11.98 8.34 -13 8 C-13.125 5.625 -13.125 5.625 -13 3 C-12.34 2.34 -11.68 1.68 -11 1 C-4.82215289 1.33697348 -4.82215289 1.33697348 -2.0625 3.5625 C-1.711875 4.036875 -1.36125 4.51125 -1 5 C-0.67 3.35 -0.34 1.7 0 0 Z " fill="#31A7C5" transform="translate(304,363)"/>
<path d="M0 0 C2.912575 0.08566397 4.56798024 0.57910955 6.66796875 2.625 C8.15706463 4.37937424 9.58267863 6.18714709 11 8 C7.04 8 3.08 8 -1 8 C-0.67 5.36 -0.34 2.72 0 0 Z " fill="#E8EEED" transform="translate(164,344)"/>
<path d="M0 0 C2.912575 0.08566397 4.56798024 0.57910955 6.66796875 2.625 C8.15706463 4.37937424 9.58267863 6.18714709 11 8 C7.04 8 3.08 8 -1 8 C-0.67 5.36 -0.34 2.72 0 0 Z " fill="#DAEEFA" transform="translate(294,344)"/>
<path d="M0 0 C2.912575 0.08566397 4.56798024 0.57910955 6.66796875 2.625 C8.15706463 4.37937424 9.58267863 6.18714709 11 8 C7.04 8 3.08 8 -1 8 C-0.67 6.68 -0.34 5.36 0 4 C0 2.68 0 1.36 0 0 Z " fill="#E1F0FC" transform="translate(229,344)"/>
<path d="M0 0 C2.05078125 0.03255208 4.1015625 0.06510417 6.15234375 0.09765625 C6.71484375 2.03515625 6.71484375 2.03515625 7.15234375 4.09765625 C6.15234375 5.09765625 6.15234375 5.09765625 4.0859375 5.1953125 C3.26222656 5.18371094 2.43851563 5.17210937 1.58984375 5.16015625 C0.76355469 5.15113281 -0.06273437 5.14210938 -0.9140625 5.1328125 C-1.55214844 5.12121094 -2.19023437 5.10960937 -2.84765625 5.09765625 C-2.84765625 0.15051037 -2.84765625 0.15051037 0 0 Z " fill="#EAE9E2" transform="translate(166.84765625,353.90234375)"/>
<path d="M0 0 C0 3.63 0 7.26 0 11 C-0.33 11 -0.66 11 -1 11 C-1 7.7 -1 4.4 -1 1 C-1.66 1 -2.32 1 -3 1 C-3 2.98 -3 4.96 -3 7 C-3.47050781 6.66226562 -3.94101563 6.32453125 -4.42578125 5.9765625 C-5.04839844 5.53054688 -5.67101562 5.08453125 -6.3125 4.625 C-6.92738281 4.18414062 -7.54226562 3.74328125 -8.17578125 3.2890625 C-9.7652392 2.16589093 -11.38062171 1.07958553 -13 0 C-11.58456585 -0.19658808 -10.16755969 -0.38187546 -8.75 -0.5625 C-7.96109375 -0.66691406 -7.1721875 -0.77132813 -6.359375 -0.87890625 C-4 -1 -4 -1 0 0 Z " fill="#ECEAD8" transform="translate(112,362)"/>
<path d="M0 0 C3.5625 0.125 3.5625 0.125 5.5625 1.125 C5.2325 2.445 4.9025 3.765 4.5625 5.125 C1.5925 5.125 -1.3775 5.125 -4.4375 5.125 C-4.4375 0.16136364 -4.4375 0.16136364 0 0 Z " fill="#D6EDF9" transform="translate(298.4375,353.875)"/>
<path d="M0 0 C0.598125 0.268125 1.19625 0.53625 1.8125 0.8125 C2.8125 3.8125 2.8125 3.8125 1.875 6 C1.3490625 6.8971875 1.3490625 6.8971875 0.8125 7.8125 C-1.5625 7.625 -1.5625 7.625 -4.1875 6.8125 C-5.5 4.25 -5.5 4.25 -6.1875 1.8125 C-3.93528616 0.44508445 -2.66192242 -0.22816478 0 0 Z " fill="#7DBAD4" transform="translate(238.1875,104.1875)"/>
<path d="M0 0 C2.97 0 5.94 0 9 0 C9.33 1.32 9.66 2.64 10 4 C9 5 9 5 7.15234375 5.09765625 C5.1015625 5.06510417 3.05078125 5.03255208 1 5 C0.67 3.35 0.34 1.7 0 0 Z " fill="#E8EBE8" transform="translate(164,332)"/>
<path d="M0 0 C6.75 -0.125 6.75 -0.125 9 1 C8.67 2.32 8.34 3.64 8 5 C5.03 5 2.06 5 -1 5 C-0.67 3.35 -0.34 1.7 0 0 Z " fill="#DFF0FB" transform="translate(230,354)"/>
<path d="M0 0 C6.75 -0.125 6.75 -0.125 9 1 C8.67 2.32 8.34 3.64 8 5 C5.03 5 2.06 5 -1 5 C-0.67 3.35 -0.34 1.7 0 0 Z " fill="#EAEFE8" transform="translate(100,354)"/>
<path d="M0 0 C4.95 0 9.9 0 15 0 C15 0.66 15 1.32 15 2 C11.37 2 7.74 2 4 2 C4.33 3.32 4.66 4.64 5 6 C4.01 5.67 3.02 5.34 2 5 C1.34 3.35 0.68 1.7 0 0 Z " fill="#FEBA10" transform="translate(96,344)"/>
<path d="M0 0 C6.0546875 -0.1953125 6.0546875 -0.1953125 8 0 C8.66 0.66 9.32 1.32 10 2 C9.34 2 8.68 2 8 2 C8 3.98 8 5.96 8 8 C6.66102417 7.04956626 5.32894573 6.08940853 4 5.125 C3.2575 4.59132813 2.515 4.05765625 1.75 3.5078125 C1.1725 3.01023437 0.595 2.51265625 0 2 C0 1.34 0 0.68 0 0 Z " fill="#EAE6DA" transform="translate(166,339)"/>
<path d="M0 0 C0.99 0.33 1.98 0.66 3 1 C3.125 6.75 3.125 6.75 2 9 C-1.49234244 9.09978121 -4.59437148 8.77842938 -8 8 C-7.67 7.01 -7.34 6.02 -7 5 C-4 4 -4 4 -1.8125 4.9375 C-1.214375 5.288125 -0.61625 5.63875 0 6 C0 4.02 0 2.04 0 0 Z " fill="#76B3CF" transform="translate(238,89)"/>
<path d="M0 0 C4.95 0 9.9 0 15 0 C15 0.66 15 1.32 15 2 C11.7 2.33 8.4 2.66 5 3 C5 3.66 5 4.32 5 5 C3.0625 4.1875 3.0625 4.1875 1 3 C0.67 2.01 0.34 1.02 0 0 Z " fill="#91CCE6" transform="translate(226,333)"/>
<path d="M0 0 C-0.99 0.495 -0.99 0.495 -2 1 C-2 2.98 -2 4.96 -2 7 C-2.47050781 6.66226562 -2.94101563 6.32453125 -3.42578125 5.9765625 C-4.04839844 5.53054688 -4.67101562 5.08453125 -5.3125 4.625 C-5.92738281 4.18414062 -6.54226562 3.74328125 -7.17578125 3.2890625 C-8.7652392 2.16589093 -10.38062171 1.07958553 -12 0 C-10.56359829 -0.19573608 -9.12580496 -0.38127816 -7.6875 -0.5625 C-6.88699219 -0.66691406 -6.08648437 -0.77132813 -5.26171875 -0.87890625 C-3 -1 -3 -1 0 0 Z " fill="#E1F0FC" transform="translate(241,362)"/>
<path d="M0 0 C-0.99 0.495 -0.99 0.495 -2 1 C-2 2.98 -2 4.96 -2 7 C-3.5027237 6.02501855 -5.00211963 5.04490611 -6.5 4.0625 C-7.3353125 3.51722656 -8.170625 2.97195313 -9.03125 2.41015625 C-9.6809375 1.94480469 -10.330625 1.47945313 -11 1 C-11 0.67 -11 0.34 -11 0 C-3.375 -1.125 -3.375 -1.125 0 0 Z " fill="#EAF0EF" transform="translate(176,362)"/>
<path d="M0 0 C0.89589844 -0.01417969 1.79179688 -0.02835937 2.71484375 -0.04296875 C5.0625 0.1875 5.0625 0.1875 7.0625 2.1875 C6.7325 3.1775 6.4025 4.1675 6.0625 5.1875 C5.0725 4.5275 4.0825 3.8675 3.0625 3.1875 C-1.73957547 2.6388217 -1.73957547 2.6388217 -5.875 4.6875 C-6.225625 5.1825 -6.57625 5.6775 -6.9375 6.1875 C-5.93879694 0.62329726 -5.69437562 0.04084918 0 0 Z " fill="#FEBA0E" transform="translate(103.9375,351.8125)"/>
<path d="M0 0 C3.96 0 7.92 0 12 0 C11.01 0.495 11.01 0.495 10 1 C10 2.98 10 4.96 10 7 C9.52949219 6.66226562 9.05898438 6.32453125 8.57421875 5.9765625 C7.95160156 5.53054688 7.32898438 5.08453125 6.6875 4.625 C6.07261719 4.18414062 5.45773437 3.74328125 4.82421875 3.2890625 C3.2347608 2.16589093 1.61937829 1.07958553 0 0 Z " fill="#DCEFFA" transform="translate(294,362)"/>
<path d="M0 0 C0.99 0 1.98 0 3 0 C3 1.32 3 2.64 3 4 C5.64 4 8.28 4 11 4 C11.33 4.99 11.66 5.98 12 7 C10.56344146 7.08131463 9.1255517 7.13933559 7.6875 7.1875 C6.48673828 7.23970703 6.48673828 7.23970703 5.26171875 7.29296875 C3 7 3 7 1.20703125 5.73828125 C0 4 0 4 0 0 Z " fill="#9DD3E9" transform="translate(226,355)"/>
<path d="M0 0 C3 0 3 0 6 1 C6 2.98 6 4.96 6 7 C1.125 6.125 1.125 6.125 0 5 C-0.04063832 3.33382885 -0.042721 1.66611905 0 0 Z " fill="#91CDE1" transform="translate(226,107)"/>
<path d="M0 0 C2.64 1.65 5.28 3.3 8 5 C7.67 6.32 7.34 7.64 7 9 C5.02 9 3.04 9 1 9 C0.67 9.66 0.34 10.32 0 11 C0 10.01 0 9.02 0 8 C1.32 7.67 2.64 7.34 4 7 C3.34 6.401875 2.68 5.80375 2 5.1875 C0 3 0 3 0 0 Z " fill="#83C0D9" transform="translate(226,75)"/>
<path d="M0 0 C0.78375 0.04125 1.5675 0.0825 2.375 0.125 C2.045 1.115 1.715 2.105 1.375 3.125 C0.385 3.125 -0.605 3.125 -1.625 3.125 C-1.295 5.105 -0.965 7.085 -0.625 9.125 C-1.615 9.125 -2.605 9.125 -3.625 9.125 C-4.25 5.75 -4.25 5.75 -4.625 2.125 C-2.625 0.125 -2.625 0.125 0 0 Z " fill="#9ED4EA" transform="translate(230.625,340.875)"/>
<path d="M0 0 C3.465 1.485 3.465 1.485 7 3 C6.67 3.99 6.34 4.98 6 6 C5.01 6.33 4.02 6.66 3 7 C2.67 6.34 2.34 5.68 2 5 C1.01 5 0.02 5 -1 5 C-1.33 4.01 -1.66 3.02 -2 2 C-1.34 1.34 -0.68 0.68 0 0 Z " fill="#D6D3C1" transform="translate(387,67)"/>
<path d="M0 0 C3 0 3 0 6 1 C5.814375 1.61875 5.62875 2.2375 5.4375 2.875 C4.76313824 5.04160178 4.76313824 5.04160178 6 7 C4.35 6.67 2.7 6.34 1 6 C0.67 4.02 0.34 2.04 0 0 Z " fill="#96D2E5" transform="translate(226,91)"/>
<path d="M0 0 C0.78375 0.04125 1.5675 0.0825 2.375 0.125 C2.045 1.115 1.715 2.105 1.375 3.125 C0.385 3.125 -0.605 3.125 -1.625 3.125 C-1.625 5.105 -1.625 7.085 -1.625 9.125 C-2.285 9.125 -2.945 9.125 -3.625 9.125 C-4.25 5.75 -4.25 5.75 -4.625 2.125 C-2.625 0.125 -2.625 0.125 0 0 Z " fill="#F69D37" transform="translate(165.625,340.875)"/>
<path d="M0 0 C3.3 0 6.6 0 10 0 C10 0.99 10 1.98 10 3 C2.25 3.125 2.25 3.125 0 2 C0 1.34 0 0.68 0 0 Z " fill="#45AFCB" transform="translate(293,359)"/>
<path d="M0 0 C0.78375 0.04125 1.5675 0.0825 2.375 0.125 C2.045 1.115 1.715 2.105 1.375 3.125 C0.055 3.125 -1.265 3.125 -2.625 3.125 C-2.295 5.105 -1.965 7.085 -1.625 9.125 C-2.285 9.125 -2.945 9.125 -3.625 9.125 C-4.25 5.75 -4.25 5.75 -4.625 2.125 C-2.625 0.125 -2.625 0.125 0 0 Z " fill="#41ADCA" transform="translate(295.625,329.875)"/>
<path d="M0 0 C2.125 0.375 2.125 0.375 4 1 C3.67 1.66 3.34 2.32 3 3 C2.34 3 1.68 3 1 3 C1 4.98 1 6.96 1 9 C0.34 9 -0.32 9 -1 9 C-1.625 5.625 -1.625 5.625 -2 2 C-1.34 1.34 -0.68 0.68 0 0 Z " fill="#4BB1CD" transform="translate(293,341)"/>
<path d="M0 0 C1.65 0 3.3 0 5 0 C4.625 2.4375 4.625 2.4375 4 5 C3.01 5.495 3.01 5.495 2 6 C2 5.34 2 4.68 2 4 C1.34 4 0.68 4 0 4 C-0.33 4.66 -0.66 5.32 -1 6 C-1 2 -1 2 0 0 Z " fill="#D6D4C2" transform="translate(395,70)"/>
<path d="M0 0 C0.625 1.875 0.625 1.875 1 4 C-1 6 -1 6 -3.1640625 6.1953125 C-4.38222656 6.16050781 -4.38222656 6.16050781 -5.625 6.125 C-6.44226563 6.10695313 -7.25953125 6.08890625 -8.1015625 6.0703125 C-8.72804687 6.04710937 -9.35453125 6.02390625 -10 6 C-10 5.34 -10 4.68 -10 4 C-6.7 3.67 -3.4 3.34 0 3 C0 2.01 0 1.02 0 0 Z " fill="#FA890A" transform="translate(175,333)"/>
<path d="M0 0 C4.70588235 0.70588235 4.70588235 0.70588235 6 2 C6.25 4.4375 6.25 4.4375 6 7 C5.01 7.66 4.02 8.32 3 9 C3 7.02 3 5.04 3 3 C1.68 2.34 0.36 1.68 -1 1 C-0.67 0.67 -0.34 0.34 0 0 Z " fill="#058CAB" transform="translate(300,177)"/>
<path d="M0 0 C0.33 1.32 0.66 2.64 1 4 C-0.90401138 5.90401138 -2.33425686 6.93520439 -5.046875 7.19921875 C-7.03233273 7.1886578 -9.0169914 7.09915043 -11 7 C-11 6.67 -11 6.34 -11 6 C-9.906875 5.9175 -8.81375 5.835 -7.6875 5.75 C-3.98120137 5.36647473 -3.98120137 5.36647473 -2.125 3 C-1.75375 2.34 -1.3825 1.68 -1 1 C-0.67 0.67 -0.34 0.34 0 0 Z " fill="#FBC642" transform="translate(111,355)"/>
<path d="M0 0 C6.0546875 -0.1953125 6.0546875 -0.1953125 8 0 C8.66 0.66 9.32 1.32 10 2 C9.67 2.99 9.34 3.98 9 5 C8.34 4.34 7.68 3.68 7 3 C4.67724823 2.59952556 2.34260643 2.2602896 0 2 C0 1.34 0 0.68 0 0 Z " fill="#FA890B" transform="translate(166,352)"/>
<path d="M0 0 C0.99 0.33 1.98 0.66 3 1 C2.67 2.32 2.34 3.64 2 5 C0.68 5.33 -0.64 5.66 -2 6 C-2.33 4.68 -2.66 3.36 -3 2 C-2.01 1.34 -1.02 0.68 0 0 Z " fill="#CADBE4" transform="translate(212,127)"/>
<path d="M0 0 C1.98 0.495 1.98 0.495 4 1 C3.67 2.32 3.34 3.64 3 5 C1.68 4.67 0.36 4.34 -1 4 C-0.67 2.68 -0.34 1.36 0 0 Z " fill="#E9ECE3" transform="translate(100,332)"/>
<path d="M0 0 C1.98 0.495 1.98 0.495 4 1 C3.67 2.32 3.34 3.64 3 5 C1.68 4.67 0.36 4.34 -1 4 C-0.67 2.68 -0.34 1.36 0 0 Z " fill="#5AC9EB" transform="translate(300,179)"/>
<path d="M0 0 C2 2 2 2 2 6 C-0.375 5.6875 -0.375 5.6875 -3 5 C-3.66 4.01 -4.32 3.02 -5 2 C-2.525 2.495 -2.525 2.495 0 3 C0 2.01 0 1.02 0 0 Z " fill="#E3A10C" transform="translate(106,169)"/>
<path d="M0 0 C1.98 0 3.96 0 6 0 C6 1.32 6 2.64 6 4 C4.02 4 2.04 4 0 4 C0 2.68 0 1.36 0 0 Z " fill="#E0C682" transform="translate(100,168)"/>
<path d="M0 0 C2.35953094 2.35953094 2.49141413 3.77895617 3 7 C2.01 7.33 1.02 7.66 0 8 C-0.38063221 5.6739143 -0.71269945 3.33944736 -1 1 C-0.67 0.67 -0.34 0.34 0 0 Z " fill="#FBC237" transform="translate(97,365)"/>
<path d="M0 0 C2.35953094 2.35953094 2.49141413 3.77895617 3 7 C2.01 7 1.02 7 0 7 C-1 6 -1 6 -1.125 3.5 C-1 1 -1 1 0 0 Z " fill="#F69B32" transform="translate(162,365)"/>
<path d="M0 0 C-1.75 5.75 -1.75 5.75 -4 8 C-4.6875 5.6875 -4.6875 5.6875 -5 3 C-3.40083326 0.79162689 -2.76966516 0 0 0 Z " fill="#F8901B" transform="translate(166,352)"/>
<path d="M0 0 C0.99 0 1.98 0 3 0 C3.33 1.98 3.66 3.96 4 6 C3.01 6 2.02 6 1 6 C0 5 0 5 -0.0625 2.4375 C-0.041875 1.633125 -0.02125 0.82875 0 0 Z " fill="#E3AC33" transform="translate(96,184)"/>
<path d="M0 0 C0.33 0 0.66 0 1 0 C1 2.31 1 4.62 1 7 C1.66 7 2.32 7 3 7 C3 7.99 3 8.98 3 10 C2.01 10 1.02 10 0 10 C0 9.01 0 8.02 0 7 C-0.66 6.67 -1.32 6.34 -2 6 C-1.34 6 -0.68 6 0 6 C0 4.02 0 2.04 0 0 Z " fill="#DEC78E" transform="translate(108,169)"/>
<path d="M0 0 C0.99 0 1.98 0 3 0 C3 1.65 3 3.3 3 5 C1.68 4.67 0.36 4.34 -1 4 C-0.67 2.68 -0.34 1.36 0 0 Z " fill="#B4F0FA" transform="translate(236,107)"/>
<path d="M0 0 C0.66 0.33 1.32 0.66 2 1 C1.67 2.32 1.34 3.64 1 5 C-1.97 4.67 -4.94 4.34 -8 4 C-8 3.67 -8 3.34 -8 3 C-6.865625 2.87625 -5.73125 2.7525 -4.5625 2.625 C-3.386875 2.41875 -2.21125 2.2125 -1 2 C-0.67 1.34 -0.34 0.68 0 0 Z " fill="#F69C34" transform="translate(174,356)"/>
<path d="M0 0 C0.33 0.99 0.66 1.98 1 3 C2.65 3.33 4.3 3.66 6 4 C6 4.66 6 5.32 6 6 C4.33388095 6.042721 2.66617115 6.04063832 1 6 C0 5 0 5 -0.0625 2.4375 C-0.041875 1.633125 -0.02125 0.82875 0 0 Z " fill="#FEBA10" transform="translate(97,333)"/>
<path d="M0 0 C0.66 0 1.32 0 2 0 C2 1.98 2 3.96 2 6 C1.01 6 0.02 6 -1 6 C-1.042721 4.33388095 -1.04063832 2.66617115 -1 1 C-0.67 0.67 -0.34 0.34 0 0 Z " fill="#FEF9C2" transform="translate(103,253)"/>
<path d="M0 0 C0.66 0 1.32 0 2 0 C2 1.98 2 3.96 2 6 C1.01 6 0.02 6 -1 6 C-1.042721 4.33388095 -1.04063832 2.66617115 -1 1 C-0.67 0.67 -0.34 0.34 0 0 Z " fill="#DCF5FB" transform="translate(298,235)"/>
<path d="M0 0 C0.66 0 1.32 0 2 0 C2 1.98 2 3.96 2 6 C1.01 6 0.02 6 -1 6 C-1.042721 4.33388095 -1.04063832 2.66617115 -1 1 C-0.67 0.67 -0.34 0.34 0 0 Z " fill="#DDF6FB" transform="translate(298,226)"/>
<path d="M0 0 C0.66 0 1.32 0 2 0 C2 1.98 2 3.96 2 6 C1.01 6 0.02 6 -1 6 C-1.042721 4.33388095 -1.04063832 2.66617115 -1 1 C-0.67 0.67 -0.34 0.34 0 0 Z " fill="#F4FCFE" transform="translate(233,226)"/>
<path d="M0 0 C0.66 0 1.32 0 2 0 C2 1.98 2 3.96 2 6 C1.01 6 0.02 6 -1 6 C-1.042721 4.33388095 -1.04063832 2.66617115 -1 1 C-0.67 0.67 -0.34 0.34 0 0 Z " fill="#DDF6FB" transform="translate(298,217)"/>
<path d="M0 0 C0.66 0 1.32 0 2 0 C2 1.98 2 3.96 2 6 C1.01 6 0.02 6 -1 6 C-1.042721 4.33388095 -1.04063832 2.66617115 -1 1 C-0.67 0.67 -0.34 0.34 0 0 Z " fill="#F5FCFE" transform="translate(233,217)"/>
<path d="M0 0 C0.99 0 1.98 0 3 0 C2.67 1.65 2.34 3.3 2 5 C1.01 4.67 0.02 4.34 -1 4 C-0.67 2.68 -0.34 1.36 0 0 Z " fill="#B7F3FB" transform="translate(236,91)"/>
</svg>
