<?xml version="1.0" encoding="UTF-8"?>
<svg version="1.1" xmlns="http://www.w3.org/2000/svg" width="400" height="400">
<path d="M0 0 C132 0 264 0 400 0 C400 132 400 264 400 400 C268 400 136 400 0 400 C0 268 0 136 0 0 Z " fill="#EEEFE6" transform="translate(0,0)"/>
<path d="M0 0 C8.94366331 6.46919588 14.42685613 14.99188572 17.4375 25.546875 C19.4178182 32.31024998 22.01933325 38.83498343 24.57141113 45.39724731 C29.00085692 56.79066215 33.35529858 68.19417025 37.27050781 79.77685547 C38.24371627 83.28661992 38.24371627 83.28661992 40.1875 86.25 C40.56261719 85.08984375 40.93773437 83.9296875 41.32421875 82.734375 C43.95089021 74.68857467 46.687146 66.80042357 50.04296875 59.0234375 C51.59953343 55.25155722 52.83371955 51.39978536 54.08984375 47.51953125 C55.60459855 43.00761036 57.28297449 38.56317424 58.97631836 34.11572266 C60.45668107 30.22445683 61.84901438 26.31795555 63.1875 22.375 C67.7274341 10.01526104 75.27329953 1.311241 87.046875 -4.69921875 C96.49008597 -8.38675361 108.25699708 -8.34619704 117.6875 -4.6875 C128.69167791 0.70935775 137.5811181 8.70693703 141.79833984 20.43505859 C142.33837325 22.02476881 142.87135568 23.61688624 143.3984375 25.2109375 C144.0109991 27.00966735 144.62549491 28.80773941 145.24169922 30.60522461 C145.56007751 31.53599823 145.87845581 32.46677185 146.20648193 33.42575073 C147.81153975 38.04654572 149.511209 42.63111108 151.21875 47.21484375 C151.57195816 48.1637146 151.92516632 49.11258545 152.28907776 50.09020996 C153.42001002 53.12334358 154.55359284 56.15547737 155.6875 59.1875 C156.50890914 61.38792501 157.33027846 63.58836488 158.15161133 65.78881836 C164.69553801 83.30817459 171.27857157 100.81285526 177.875 118.3125 C178.2386648 119.27729719 178.2386648 119.27729719 178.60967636 120.26158524 C183.75854204 133.91979847 188.91974896 147.57315997 194.1328125 161.20703125 C194.5108754 162.19633133 194.88893829 163.18563141 195.27845764 164.20491028 C197.01213163 168.73998742 198.74921022 173.27370362 200.49291992 177.80493164 C201.09560928 179.37774052 201.698234 180.95057417 202.30078125 182.5234375 C202.70062729 183.55649773 202.70062729 183.55649773 203.10855103 184.61042786 C207.42974946 195.91649145 209.31996032 207.22034964 205.234375 218.9375 C200.82567738 228.67611563 192.79512328 238.05652442 182.77734375 242.26171875 C180.59304668 242.98981777 178.40755556 243.64134571 176.1875 244.25 C175.1975 244.58 174.2075 244.91 173.1875 245.25 C158.67345149 246.30852808 148.55460048 242.70279225 137.21875 233.68359375 C125.13567069 221.84766833 120.67306238 199.0062285 114.93911743 183.38885498 C112.45731531 176.63178945 109.90661022 169.91599834 107.1875 163.25 C104.1875 155.75323974 104.1875 155.75323974 104.1875 152.25 C103.5275 152.25 102.8675 152.25 102.1875 152.25 C102.06568359 153.39662109 102.06568359 153.39662109 101.94140625 154.56640625 C100.89696654 159.6695495 99.00529494 164.33968854 97.125 169.1875 C93.98080927 177.41376294 90.96931202 185.66545472 88.125 194 C74.62102491 233.12200719 74.62102491 233.12200719 58.890625 241.46875 C49.15449299 246.04277175 37.71728686 247.10942846 27.4375 243.625 C14.49571923 238.24513183 7.29405853 230.52172788 1.97827148 217.72216797 C-1.85753389 208.24623913 -5.3711715 198.64202644 -8.9375 189.0625 C-9.7431938 186.90679047 -10.5491815 184.75119076 -11.35546875 182.59570312 C-13.51509174 176.81647444 -15.67101501 171.03597542 -17.8125 165.25 C-18.19049744 164.23851898 -18.56849487 163.22703796 -18.95794678 162.18490601 C-19.32486633 161.19407013 -19.69178589 160.20323425 -20.06982422 159.18237305 C-20.40392303 158.28463669 -20.73802185 157.38690033 -21.08224487 156.46195984 C-21.8125 154.25 -21.8125 154.25 -21.8125 152.25 C-22.4725 152.25 -23.1325 152.25 -23.8125 152.25 C-24.18616699 154.13501221 -24.18616699 154.13501221 -24.56738281 156.05810547 C-25.81703502 161.6632315 -27.731672 166.94633931 -29.734375 172.3203125 C-30.11684387 173.35960907 -30.49931274 174.39890564 -30.89337158 175.46969604 C-31.70094716 177.66080993 -32.51127941 179.85090956 -33.32421875 182.04003906 C-34.55032139 185.34220036 -35.76811024 188.6473292 -36.984375 191.953125 C-40.31717058 200.99144857 -43.66434839 210.02598693 -47.1875 218.9921875 C-47.62320313 220.10190918 -48.05890625 221.21163086 -48.5078125 222.35498047 C-52.92542174 232.15737762 -60.93203735 238.73254634 -70.625 243.125 C-80.72758922 246.69061972 -91.60057062 246.50937024 -101.48046875 242.38671875 C-104.49472792 240.91745674 -107.15103496 239.29251968 -109.8125 237.25 C-110.8025 236.528125 -111.7925 235.80625 -112.8125 235.0625 C-120.80022951 228.1621054 -124.71050977 218.33800118 -126.30078125 208.109375 C-126.9885027 196.72825923 -122.72211975 186.71667492 -118.8125 176.25 C-118.31373089 174.901574 -117.81555385 173.5529289 -117.31787109 172.20410156 C-115.08744822 166.16161731 -112.85070214 160.1215607 -110.59326172 154.08911133 C-106.74754529 143.81146255 -103.035621 133.49726106 -99.46191406 123.12158203 C-97.96636184 118.81146798 -96.38643642 114.53193182 -94.8125 110.25 C-94.14519805 108.4168978 -93.47854719 106.58355848 -92.8125 104.75 C-68.8125 38.75 -68.8125 38.75 -67.8046875 35.99609375 C-67.14894115 34.18117372 -66.50800598 32.36082629 -65.8828125 30.53515625 C-60.52023642 15.09005077 -54.53919056 4.05716335 -39.8125 -3.75 C-26.5808621 -9.65623584 -12.10673193 -7.49757003 0 0 Z " fill="#FB718B" transform="translate(159.8125,79.75)"/>
<path d="M0 0 C8.04584437 5.81977893 14.33871527 13.89087637 16.7890625 23.64453125 C18.27713706 33.37537173 17.49484903 41.47007978 14.25390625 50.65625 C13.94373062 51.55972168 13.63355499 52.46319336 13.3139801 53.39404297 C9.68001982 63.88743273 5.81391266 74.29861558 1.94271851 84.70623779 C-0.37488574 90.93900928 -2.68052888 97.17619551 -4.984375 103.4140625 C-5.34253264 104.38346708 -5.34253264 104.38346708 -5.7079258 105.3724556 C-10.79167431 119.13812718 -15.77031478 132.94094989 -20.73239136 146.75085449 C-24.74680033 157.9216628 -28.77966329 169.08583488 -32.8125 180.25 C-33.21740662 181.37208862 -33.62231323 182.49417725 -34.03948975 183.65026855 C-36.27673226 189.84688586 -38.52599241 196.03884161 -40.79623413 202.22344971 C-41.46240128 204.04349175 -42.12451745 205.86502278 -42.78213501 207.68817139 C-48.01233635 222.17440889 -53.09541681 233.83526775 -67.28125 241.6015625 C-77.1280389 246.16390802 -88.47763131 247.11012536 -98.8125 243.5 C-102.82551609 241.82546181 -106.34967454 239.90751722 -109.8125 237.25 C-110.8025 236.528125 -111.7925 235.80625 -112.8125 235.0625 C-120.80022951 228.1621054 -124.71050977 218.33800118 -126.30078125 208.109375 C-126.9885027 196.72825923 -122.72211975 186.71667492 -118.8125 176.25 C-118.31373089 174.901574 -117.81555385 173.5529289 -117.31787109 172.20410156 C-115.08744822 166.16161731 -112.85070214 160.1215607 -110.59326172 154.08911133 C-106.74754529 143.81146255 -103.035621 133.49726106 -99.46191406 123.12158203 C-97.96636184 118.81146798 -96.38643642 114.53193182 -94.8125 110.25 C-94.14519805 108.4168978 -93.47854719 106.58355848 -92.8125 104.75 C-68.8125 38.75 -68.8125 38.75 -67.8046875 35.99609375 C-67.14894115 34.18117372 -66.50800598 32.36082629 -65.8828125 30.53515625 C-60.52023642 15.09005077 -54.53919056 4.05716335 -39.8125 -3.75 C-26.5808621 -9.65623584 -12.10673193 -7.49757003 0 0 Z " fill="#27557C" transform="translate(159.8125,79.75)"/>
<path d="M0 0 C2.1676412 2.1676412 2.73468485 3.55638786 3.78979492 6.3996582 C4.13674408 7.32616684 4.48369324 8.25267548 4.84115601 9.20726013 C5.21712921 10.2281221 5.59310242 11.24898407 5.98046875 12.30078125 C6.58140854 13.91177452 6.58140854 13.91177452 7.19448853 15.55531311 C8.06887065 17.90119881 8.94074578 20.24802007 9.81045532 22.59564209 C11.20365647 26.35610883 12.60295857 30.11427051 14.00463867 33.87158203 C14.48788153 35.16717072 14.971112 36.46276402 15.45433044 37.75836182 C15.69665342 38.4080619 15.9389764 39.05776199 16.1886425 39.72714996 C16.93739503 41.73551754 17.6854205 43.74415453 18.4332428 45.75286865 C23.61299627 59.66384945 28.84410665 73.55533428 34.08402252 87.44374466 C34.81233323 89.37455789 35.54024121 91.30552245 36.26800537 93.23654175 C41.13345961 106.14617498 46.0101066 119.05135045 50.9375 131.9375 C51.31605637 132.92803375 51.69461273 133.9185675 52.0846405 134.93911743 C53.82061122 139.47985454 55.56000884 144.01922349 57.3059082 148.55615234 C57.9084357 150.12855398 58.51089772 151.70098071 59.11328125 153.2734375 C59.37983521 153.96211914 59.64638916 154.65080078 59.92102051 155.36035156 C64.24223645 166.66644047 66.13247134 177.97031803 62.046875 189.6875 C57.63817738 199.42611563 49.60762328 208.80652442 39.58984375 213.01171875 C37.40554668 213.73981777 35.22005556 214.39134571 33 215 C32.01 215.33 31.02 215.66 30 216 C15.48595149 217.05852808 5.36710048 213.45279225 -5.96875 204.43359375 C-18.05170493 192.59779017 -22.51447734 169.75644333 -28.24824524 154.13917542 C-30.72997182 147.38248171 -33.26619875 140.65986627 -36 134 C-36.7838536 132.08862126 -37.55783308 130.17308944 -38.3125 128.25 C-38.65925781 127.38890625 -39.00601562 126.5278125 -39.36328125 125.640625 C-40.52898695 120.80616454 -38.91272541 116.35160458 -37.21264648 111.80053711 C-36.65875496 110.30500053 -36.65875496 110.30500053 -36.09367371 108.7792511 C-35.69022232 107.70612167 -35.28677094 106.63299225 -34.87109375 105.52734375 C-34.44923294 104.39125168 -34.02737213 103.25515961 -33.59272766 102.0846405 C-32.44884828 99.00510174 -31.30063175 95.92721976 -30.15098572 92.84983063 C-27.98943698 87.05630771 -25.84536573 81.25627256 -23.69921875 75.45703125 C-23.45897602 74.80833321 -23.21873329 74.15963516 -22.97121048 73.4912796 C-18.12672628 60.40612245 -13.40765826 47.27784601 -8.75 34.125 C-8.40871063 33.16197968 -8.06742126 32.19895935 -7.71578979 31.20675659 C-2.93144469 18.77368466 -2.93144469 18.77368466 -0.4375 5.8125 C-0.35371094 4.72582031 -0.26992188 3.63914062 -0.18359375 2.51953125 C-0.09271484 1.27236328 -0.09271484 1.27236328 0 0 Z " fill="#07D49F" transform="translate(303,109)"/>
<path d="M0 0 C9.19932692 6.49272223 14.65107758 15.27309017 18.05078125 25.8671875 C19.57798892 37.03865145 16.09742212 46.84792157 12.296875 57.18359375 C11.72877235 58.76191253 11.16175444 60.3406221 10.59570312 61.91967773 C8.60376038 67.45411874 6.57607849 72.97522746 4.546875 78.49609375 C3.72586754 80.73403337 2.90490583 82.97198977 2.08398438 85.20996094 C-1.94981824 96.19906818 -5.99763598 107.18295555 -10.05654907 118.16281128 C-14.68952284 130.69621122 -19.2955101 143.23852714 -23.828125 155.80859375 C-24.08974426 156.53409424 -24.35136353 157.25959473 -24.62091064 158.00708008 C-27.83743954 166.93535678 -31.01085786 175.87798467 -34.12084961 184.84399414 C-37.10918365 193.43938403 -40.27915593 201.96786075 -43.453125 210.49609375 C-43.783125 210.49609375 -44.113125 210.49609375 -44.453125 210.49609375 C-44.46585449 209.64934082 -44.47858398 208.80258789 -44.49169922 207.93017578 C-44.8665318 198.49710531 -46.978381 191.11527902 -50.578125 182.37109375 C-51.33720839 180.46544287 -52.08939697 178.5571576 -52.84146118 176.64872742 C-53.3404682 175.3840844 -53.84172851 174.12032804 -54.3453064 172.85749817 C-56.79489795 166.70238688 -58.97253786 160.46701388 -61.08251953 154.18896484 C-62.86913925 148.94498177 -64.94868109 143.86380953 -67.1015625 138.76000977 C-69.5332317 132.88772192 -71.76703781 126.94034783 -74.015625 120.99609375 C-74.48419922 119.76761719 -74.95277344 118.53914063 -75.43554688 117.2734375 C-77.97943653 110.56326144 -80.39131459 103.8387195 -82.57397461 97.00195312 C-83.37889478 94.50867094 -83.37889478 94.50867094 -84.5793457 92.3684082 C-86.84957779 87.5038064 -83.81772884 81.0757627 -82.203125 76.30859375 C-81.98277588 75.65785889 -81.76242676 75.00712402 -81.53540039 74.33666992 C-79.78446668 69.25293302 -77.75154931 64.3165259 -75.6328125 59.375 C-74.07148966 55.56475188 -72.8184171 51.6814394 -71.55078125 47.765625 C-70.03602645 43.25370411 -68.35765051 38.80926799 -66.66430664 34.36181641 C-65.18394393 30.47055058 -63.79161062 26.5640493 -62.453125 22.62109375 C-57.9131909 10.26135479 -50.36732547 1.55733475 -38.59375 -4.453125 C-25.45454394 -9.58393067 -11.69730644 -7.17111939 0 0 Z " fill="#FBCE64" transform="translate(285.453125,79.50390625)"/>
<path d="M0 0 C6.40020164 5.40370154 10.14193897 11.28549046 11.37890625 19.5234375 C11.95596987 28.09344614 8.86301124 35.41037474 3.359375 41.94921875 C-2.25120095 47.15342121 -8.8466374 50.17932838 -16.5 50.5 C-24.75834143 50.14294479 -31.21696472 46.71242102 -37.203125 41.109375 C-42.26759714 35.16412509 -44.83662961 28.20216362 -44.34375 20.40234375 C-43.0950609 11.67570967 -39.53615273 5.96154589 -33 0 C-22.02425438 -7.13506239 -11.18378233 -6.61489189 0 0 Z " fill="#020806" transform="translate(343,263)"/>
<path d="M0 0 C5.84847877 4.02700133 9.58625262 9.00875786 11.83203125 15.74609375 C12.61844233 25.01451003 12.55265386 33.00728195 6.83203125 40.74609375 C1.72794493 46.71813384 -5.19398453 49.98578473 -12.90234375 51.1640625 C-22.12719588 51.64615223 -29.39995275 47.82528098 -36.16796875 41.74609375 C-41.44838018 34.1404686 -43.44334157 26.90795562 -42.16796875 17.74609375 C-40.596795 9.80753166 -35.35291322 4.21605068 -29.10546875 -0.62890625 C-19.40656081 -5.99425958 -9.54792209 -5.5223117 0 0 Z " fill="#F2F5F6" transform="translate(152.16796875,88.25390625)"/>
<path d="M0 0 C6.72253295 4.58804622 11.59490441 10.14567817 14 18 C15.17482799 26.07551667 13.91553934 33.54265915 9.44140625 40.3828125 C3.86939068 47.40285707 -2.83820875 50.78262483 -11.5703125 52.5078125 C-18.90299234 53.05010072 -24.98321141 49.95041675 -31 46 C-36.04948289 41.56558183 -39.96986207 35.85013382 -40.46875 29.01171875 C-40.50314694 27.57068532 -40.51281518 26.12888692 -40.5 24.6875 C-40.49355469 23.9342041 -40.48710937 23.1809082 -40.48046875 22.40478516 C-40.2020831 13.92684307 -37.27334774 8.93476392 -31.1875 3.125 C-22.10281169 -4.19369282 -10.47879696 -5.45044255 0 0 Z " fill="#060404" transform="translate(214,261)"/>
<path d="M0 0 C6.46716714 4.64073806 11.44088296 9.95670463 13 18 C13.70024892 27.54762473 12.30461495 34.62202357 6.51171875 42.36328125 C0.93599379 48.40004806 -6.65275982 50.92334401 -14.6875 51.5 C-21.94967139 51.33369073 -28.4938983 47.95504445 -33.98828125 43.32421875 C-40.54301129 36.24901387 -41.5674381 28.78533942 -41.35546875 19.34765625 C-40.87423534 14.81560099 -39.58780126 11.70073676 -37 8 C-36.46375 7.13375 -35.9275 6.2675 -35.375 5.375 C-25.48811702 -4.51188298 -12.17604485 -7.45919865 0 0 Z " fill="#070604" transform="translate(277,88)"/>
<path d="M0 0 C2.78889184 2.78889184 3.80912131 6.13053973 5.1875 9.75 C5.47302734 10.45382813 5.75855469 11.15765625 6.05273438 11.8828125 C6.31763672 12.57632813 6.58253906 13.26984375 6.85546875 13.984375 C7.09934326 14.61053711 7.34321777 15.23669922 7.59448242 15.88183594 C8.60326095 21.15104875 6.35059387 26.5449276 4.8203125 31.55859375 C4.60688202 32.26597183 4.39345154 32.97334991 4.17355347 33.7021637 C3.72318451 35.19108229 3.2709321 36.67943235 2.81689453 38.16723633 C2.12864596 40.42553677 1.44870507 42.68622172 0.76953125 44.94726562 C0.3286242 46.40119314 -0.11276631 47.85497416 -0.5546875 49.30859375 C-0.75480438 49.97547714 -0.95492126 50.64236053 -1.16110229 51.32945251 C-2.50117083 55.69381505 -4.17155955 59.82027125 -6 64 C-6.63164973 65.70984574 -7.24390302 67.42704406 -7.83203125 69.15234375 C-8.15316895 70.0865918 -8.47430664 71.02083984 -8.80517578 71.98339844 C-9.30380127 73.44567871 -9.30380127 73.44567871 -9.8125 74.9375 C-13.74936207 86.44864219 -13.74936207 86.44864219 -15.92578125 91.95703125 C-16.21412842 92.68994385 -16.50247559 93.42285645 -16.79956055 94.17797852 C-17.33747378 95.52825051 -17.88660873 96.87412257 -18.44848633 98.21459961 C-19.2676699 100.18463859 -19.2676699 100.18463859 -20 103 C-18.27773504 106.24849977 -18.27773504 106.24849977 -15 107 C-15.66 107 -16.32 107 -17 107 C-17 107.66 -17 108.32 -17 109 C-16.34 109.33 -15.68 109.66 -15 110 C-17.97 110 -20.94 110 -24 110 C-24.33 111.98 -24.66 113.96 -25 116 C-23.6078125 115.690625 -23.6078125 115.690625 -22.1875 115.375 C-19 115 -19 115 -16 117 C-16.33 117.99 -16.66 118.98 -17 120 C-20.66666667 120 -24.33333333 120 -28 120 C-28.19335938 120.66386719 -28.38671875 121.32773438 -28.5859375 122.01171875 C-31.17223199 130.78207381 -31.17223199 130.78207381 -33 135 C-36 134 -36 134 -37.203125 131.70703125 C-37.54859375 130.75183594 -37.8940625 129.79664063 -38.25 128.8125 C-38.60578125 127.87019531 -38.9615625 126.92789063 -39.328125 125.95703125 C-40.47005225 120.93122354 -38.98057563 116.53323788 -37.21264648 111.80053711 C-36.65875496 110.30500053 -36.65875496 110.30500053 -36.09367371 108.7792511 C-35.69022232 107.70612167 -35.28677094 106.63299225 -34.87109375 105.52734375 C-34.44923294 104.39125168 -34.02737213 103.25515961 -33.59272766 102.0846405 C-32.44884828 99.00510174 -31.30063175 95.92721976 -30.15098572 92.84983063 C-27.98943698 87.05630771 -25.84536573 81.25627256 -23.69921875 75.45703125 C-23.45897602 74.80833321 -23.21873329 74.15963516 -22.97121048 73.4912796 C-18.12672628 60.40612245 -13.40765826 47.27784601 -8.75 34.125 C-8.40871063 33.16197968 -8.06742126 32.19895935 -7.71578979 31.20675659 C-2.93144469 18.77368466 -2.93144469 18.77368466 -0.4375 5.8125 C-0.35371094 4.72582031 -0.26992188 3.63914062 -0.18359375 2.51953125 C-0.09271484 1.27236328 -0.09271484 1.27236328 0 0 Z " fill="#08C48F" transform="translate(303,109)"/>
<path d="M0 0 C1.57791089 2.36686634 2.65108085 4.27636857 3.6875 6.875 C3.95949219 7.53242187 4.23148438 8.18984375 4.51171875 8.8671875 C8.02513675 24.2137973 -8.05293295 53.92104466 -13.25 68.5 C-13.59547882 69.4698584 -13.94095764 70.4397168 -14.29690552 71.43896484 C-17.78766173 81.22198117 -21.29476991 90.98391815 -25.17871094 100.61914062 C-26.16304911 103.05291249 -26.16304911 103.05291249 -26 106 C-22.37 106 -18.74 106 -15 106 C-15 107.65 -15 109.3 -15 111 C-19.66666667 111 -24.33333333 111 -29 111 C-29.72316406 112.71509766 -29.72316406 112.71509766 -30.4609375 114.46484375 C-31.0986122 115.95587725 -31.73665195 117.44675466 -32.375 118.9375 C-32.69210938 119.69224609 -33.00921875 120.44699219 -33.3359375 121.22460938 C-35.7734375 126.88671875 -35.7734375 126.88671875 -38 128 C-39.97316212 123.29309149 -40.10965909 120.86849674 -38.35375977 116.09448242 C-37.73470009 114.36964882 -37.73470009 114.36964882 -37.10313416 112.60997009 C-36.63291417 111.35833585 -36.16232728 110.1068394 -35.69140625 108.85546875 C-35.21170131 107.54022018 -34.73363206 106.22437403 -34.25709534 104.90797424 C-32.97751884 101.38720146 -31.67571221 97.87503874 -30.36954498 94.36405945 C-29.02510361 90.73816916 -27.70174981 87.10460534 -26.37646484 83.47167969 C-24.00465276 76.97885076 -21.61617232 70.49232358 -19.21918106 64.00875282 C-16.49203162 56.63043618 -13.78917333 49.24328785 -11.08943176 41.85490417 C-9.48422908 37.4625048 -7.87612903 33.07128315 -6.25610352 28.68432617 C-5.96920151 27.90556625 -5.6822995 27.12680634 -5.38670349 26.32444763 C-4.86379241 24.90565928 -4.33932862 23.48744163 -3.81288147 22.06996155 C-1.816251 16.64463493 -0.84144158 12.02059394 -0.4375 6.25 C-0.35371094 5.07953125 -0.26992187 3.9090625 -0.18359375 2.703125 C-0.09271484 1.36507812 -0.09271484 1.36507812 0 0 Z " fill="#DB5A76" transform="translate(177,108)"/>
<path d="M0 0 C1.98 0.66 3.96 1.32 6 2 C6 2.66 6 3.32 6 4 C6.4125 3.525625 6.825 3.05125 7.25 2.5625 C9.28591495 0.7447188 10.30034358 0.30853216 13 0 C15.00212229 0.32033957 17.00239695 0.65259077 19 1 C19.66 0.67 20.32 0.34 21 0 C23.3400417 0.28241883 25.67504723 0.61250787 28 1 C28.33 2.32 28.66 3.64 29 5 C29.66 5 30.32 5 31 5 C31.33 3.68 31.66 2.36 32 1 C34.66666667 1 37.33333333 1 40 1 C40.886875 0.979375 41.77375 0.95875 42.6875 0.9375 C51.19607843 1.09803922 51.19607843 1.09803922 55 3 C54.34 4.32 53.68 5.64 53 7 C52.34 6.67 51.68 6.34 51 6 C50.01 7.32 49.02 8.64 48 10 C52.95 10.99 52.95 10.99 58 12 C58.33 11.34 58.66 10.68 59 10 C59 11.65 59 13.3 59 15 C58.505 14.01 58.505 14.01 58 13 C57.34 13 56.68 13 56 13 C56 13.66 56 14.32 56 15 C52.61118982 16.04271083 49.53109033 16.07512958 46 16 C45.01 16 44.02 16 43 16 C40 16 37 16 34 16 C34 15.01 34 14.02 34 13 C33.34 13 32.68 13 32 13 C32 13.99 32 14.98 32 16 C30.35 16 28.7 16 27 16 C27.66 15.67 28.32 15.34 29 15 C29 14.34 29 13.68 29 13 C27.68 13.99 26.36 14.98 25 16 C25 15.01 25 14.02 25 13 C24.34 13 23.68 13 23 13 C22.67 13.99 22.34 14.98 22 16 C21.40985107 15.99476318 20.81970215 15.98952637 20.21166992 15.98413086 C17.53695745 15.96333953 14.86226199 15.95033299 12.1875 15.9375 C10.7943457 15.92493164 10.7943457 15.92493164 9.37304688 15.91210938 C8.48037109 15.90888672 7.58769531 15.90566406 6.66796875 15.90234375 C5.84578857 15.89710693 5.0236084 15.89187012 4.17651367 15.88647461 C1.81827404 15.91258476 1.81827404 15.91258476 -1 17 C-1 15.35 -1 13.7 -1 12 C0.65 12.33 2.3 12.66 4 13 C4.66 11.35 5.32 9.7 6 8 C5.67 7.67 5.34 7.34 5 7 C4.34 6.34 3.68 5.68 3 5 C1.68 5 0.36 5 -1 5 C-1 1 -1 1 0 0 Z " fill="#3F688B" transform="translate(90,146)"/>
<path d="M0 0 C2.875 -0.125 2.875 -0.125 6 0 C6.66 0.66 7.32 1.32 8 2 C5.44931155 4.35448165 4.28982642 4.98327924 0.75 5.1875 C-0.61125 5.0946875 -0.61125 5.0946875 -2 5 C-1.67 8.3 -1.34 11.6 -1 15 C-0.34 13.68 0.32 12.36 1 11 C4.55480419 9.57807832 8.21809237 10 12 10 C12 10.66 12 11.32 12 12 C12.99 11.34 13.98 10.68 15 10 C16.9375 10 16.9375 10 19 11 C22.44939544 15.23782869 23.06655549 17.39933297 24 23 C13.11 23 2.22 23 -9 23 C-9 22.34 -9 21.68 -9 21 C-8.34 21 -7.68 21 -7 21 C-7.01160156 20.10796875 -7.02320313 19.2159375 -7.03515625 18.296875 C-7.04417969 17.12640625 -7.05320312 15.9559375 -7.0625 14.75 C-7.07410156 13.58984375 -7.08570313 12.4296875 -7.09765625 11.234375 C-6.95185005 6.40527379 -6.95185005 6.40527379 -6 4 C-3.5 2.875 -3.5 2.875 -1 2 C-0.67 1.34 -0.34 0.68 0 0 Z " fill="#05D39E" transform="translate(319,278)"/>
<path d="M0 0 C3.6770517 1.25303182 5.15460777 3.28081848 7.1875 6.5 C7.69667969 7.2940625 8.20585937 8.088125 8.73046875 8.90625 C11.11344397 12.83632605 11.31523584 15.35027143 11 20 C9.74544028 22.82275936 8.71615278 24.46288541 6.25 26.3125 C1.93198763 27.63189267 -1.68329318 27.58520303 -5.8125 25.75 C-8.15515261 23.87587791 -8.89266933 22.7433868 -10 20 C-10.768419 13.07074794 -7.6795754 8.36401849 -3.69140625 2.96875 C-2 1 -2 1 0 0 Z " fill="#F66F89" transform="translate(200,272)"/>
<path d="M0 0 C3.74225404 1.1566967 5.28964665 1.79776291 7.4375 5.0625 C8 8.5 8 8.5 7.4375 12.0625 C4.99151113 15.44371991 3.54453441 16.83186783 -0.5625 17.6875 C-4.66953441 16.83186783 -6.11651113 15.44371991 -8.5625 12.0625 C-9.36035988 7.59448469 -9.07984028 5.81499495 -6.5 2.0625 C-3.5625 0.0625 -3.5625 0.0625 0 0 Z " fill="#2B587F" transform="translate(137.5625,102.9375)"/>
<path d="M0 0 C2 3 2 3 1.71899414 5.359375 C-3.41593542 24.21825382 -9.88665824 42.65931762 -16.4375 61.0625 C-16.79578888 62.07078857 -17.15407776 63.07907715 -17.52322388 64.11791992 C-18.55205176 67.00837329 -19.58540911 69.89715341 -20.62109375 72.78515625 C-20.93223114 73.6568898 -21.24336853 74.52862335 -21.56393433 75.42677307 C-21.85535309 76.23476852 -22.14677185 77.04276398 -22.44702148 77.87524414 C-22.6996727 78.57831192 -22.95232391 79.2813797 -23.21263123 80.00575256 C-24.02870245 82.07269757 -24.97788784 84.02785468 -26 86 C-26.66 86 -27.32 86 -28 86 C-27.7230127 85.17012573 -27.7230127 85.17012573 -27.44042969 84.32348633 C-26.16923689 80.51273459 -24.90009801 76.70136155 -23.640625 72.88671875 C-21.01881759 64.96117625 -18.33694838 57.06097652 -15.5625 49.1875 C-6.97369144 24.84296628 -6.97369144 24.84296628 0 0 Z " fill="#E95F7C" transform="translate(180,116)"/>
<path d="M0 0 C2.875 -0.125 2.875 -0.125 6 0 C6.66 0.66 7.32 1.32 8 2 C4.63824835 5.10315537 2.47353123 5.147075 -2 5 C-1.68985608 7.08368538 -1.3767948 9.16693668 -1.0625 11.25 C-0.88847656 12.41015625 -0.71445312 13.5703125 -0.53515625 14.765625 C-0.1272264 17.23106961 0.33901303 19.59424562 1 22 C-2.21451269 23.60725635 -5.43612536 23.05748185 -9 23 C-9 22.34 -9 21.68 -9 21 C-8.34 21 -7.68 21 -7 21 C-7.01160156 20.10796875 -7.02320313 19.2159375 -7.03515625 18.296875 C-7.04417969 17.12640625 -7.05320312 15.9559375 -7.0625 14.75 C-7.07410156 13.58984375 -7.08570313 12.4296875 -7.09765625 11.234375 C-6.95185005 6.40527379 -6.95185005 6.40527379 -6 4 C-3.5 2.875 -3.5 2.875 -1 2 C-0.67 1.34 -0.34 0.68 0 0 Z " fill="#05C795" transform="translate(319,278)"/>
<path d="M0 0 C2.10409639 -0.02701408 4.20829178 -0.04640223 6.3125 -0.0625 C7.48425781 -0.07410156 8.65601563 -0.08570312 9.86328125 -0.09765625 C13 0 13 0 16 1 C16.33 1.66 16.66 2.32 17 3 C18.65 2.67 20.3 2.34 22 2 C21.8125 3.875 21.8125 3.875 21 6 C16.71006828 8.37596218 12.4568516 8.23581603 7.6875 8.125 C6.94693359 8.11597656 6.20636719 8.10695313 5.44335938 8.09765625 C3.62876533 8.07424213 1.81433929 8.03837615 0 8 C0 5.36 0 2.72 0 0 Z " fill="#EAC25E" transform="translate(250,116)"/>
<path d="M0 0 C0.95465783 2.16967689 1.14401212 3.56328793 0.3984375 5.82421875 C-0.35870385 7.5684743 -1.17609198 9.28627131 -2 11 C1.9813783 12.3271261 5.85045227 12.06915913 10 12 C10 13.65 10 15.3 10 17 C5.33333333 17 0.66666667 17 -4 17 C-4.72316406 18.71509766 -4.72316406 18.71509766 -5.4609375 20.46484375 C-6.0986122 21.95587725 -6.73665195 23.44675466 -7.375 24.9375 C-7.69210938 25.69224609 -8.00921875 26.44699219 -8.3359375 27.22460938 C-10.7734375 32.88671875 -10.7734375 32.88671875 -13 34 C-13.66 32.35 -14.32 30.7 -15 29 C-14.01 29 -13.02 29 -12 29 C-11.83129395 28.46632812 -11.66258789 27.93265625 -11.48876953 27.3828125 C-9.5698391 21.45553507 -7.31541223 15.73005217 -4.875 10 C-4.51535156 9.14277344 -4.15570313 8.28554687 -3.78515625 7.40234375 C-1.13188959 1.13188959 -1.13188959 1.13188959 0 0 Z " fill="#E85F7C" transform="translate(152,202)"/>
<path d="M0 0 C0.99 -0.33 1.98 -0.66 3 -1 C5.1875 -0.0625 5.1875 -0.0625 7 1 C7 1.99 7 2.98 7 4 C-4 4 -15 4 -26 4 C-26 2.68 -26 1.36 -26 0 C-24.62328125 0.01740234 -24.62328125 0.01740234 -23.21875 0.03515625 C-15.27383919 0.14658264 -15.27383919 0.14658264 -7.375 -0.5625 C-4.33045829 -0.95716281 -2.8412022 -0.84183769 0 0 Z " fill="#99AFC1" transform="translate(132,168)"/>
<path d="M0 0 C3 0 3 0 6 1 C8.33414529 0.67240066 10.66752239 0.33926947 13 0 C13.66 0.33 14.32 0.66 15 1 C16.98687243 0.73942657 18.97357502 0.47682163 20.95703125 0.19140625 C23.46252713 -0.04333428 25.58613759 0.3211012 28 1 C27.67 2.32 27.34 3.64 27 5 C24.69 5.66 22.38 6.32 20 7 C19.34 6.34 18.68 5.68 18 5 C15.41645782 4.83312552 15.41645782 4.83312552 13 5 C13 4.01 13 3.02 13 2 C12.34 2 11.68 2 11 2 C11 2.66 11 3.32 11 4 C6.91257012 4.88376862 4.04916379 5.34972126 0 4 C0 2.68 0 1.36 0 0 Z " fill="#AB8D45" transform="translate(215,147)"/>
<path d="M0 0 C-0.49262574 6.6504475 -2.40107669 11.89734303 -5 18 C-6.02376761 20.65835455 -7.01058917 23.32859076 -8 26 C-9.32 25.67 -10.64 25.34 -12 25 C-11.67 23.35 -11.34 21.7 -11 20 C-10.34 20 -9.68 20 -9 20 C-8.896875 18.906875 -8.79375 17.81375 -8.6875 16.6875 C-8.01354797 11.39080658 -7.03562053 5.94986359 -5 1 C-2 0 -2 0 0 0 Z " fill="#E4F1DE" transform="translate(83,324)"/>
<path d="M0 0 C0.66 0 1.32 0 2 0 C2 0.66 2 1.32 2 2 C4.64 2 7.28 2 10 2 C10 3.32 10 4.64 10 6 C0.76 6 -8.48 6 -18 6 C-18 4.68 -18 3.36 -18 2 C-16.68 2 -15.36 2 -14 2 C-14 2.99 -14 3.98 -14 5 C-13.34 5 -12.68 5 -12 5 C-12 4.01 -12 3.02 -12 2 C-8.125 2.875 -8.125 2.875 -7 4 C-7 3.01 -7 2.02 -7 1 C-4.69 1.33 -2.38 1.66 0 2 C0 1.34 0 0.68 0 0 Z " fill="#A68842" transform="translate(233,166)"/>
<path d="M0 0 C-0.30921884 1.45903258 -0.62248799 2.91720722 -0.9375 4.375 C-1.11152344 5.18710938 -1.28554688 5.99921875 -1.46484375 6.8359375 C-2 9 -2 9 -3 11 C-4.423125 11.2165625 -4.423125 11.2165625 -5.875 11.4375 C-9.11003166 12.0198057 -10.02934054 12.48193513 -12 15 C-11.835 14.113125 -11.67 13.22625 -11.5 12.3125 C-10.88114353 9.11112531 -10.88114353 9.11112531 -11.25 6.3125 C-11.1675 5.549375 -11.085 4.78625 -11 4 C-7.63097288 1.37964558 -4.26920922 0 0 0 Z " fill="#D4B257" transform="translate(276,99)"/>
<path d="M0 0 C1.5159375 0.0309375 1.5159375 0.0309375 3.0625 0.0625 C4.62513888 0.0625 6.18778351 0.03633062 7.75 0 C16.25857843 0.16053922 16.25857843 0.16053922 20.0625 2.0625 C19.4025 3.3825 18.7425 4.7025 18.0625 6.0625 C16.0625 6.0625 14.0625 6.0625 12.0625 6.0625 C11.4025 5.4025 10.7425 4.7425 10.0625 4.0625 C7.72101268 4.33267161 5.38745277 4.67500787 3.0625 5.0625 C1.0628305 5.09885763 -0.93809462 5.11126598 -2.9375 5.0625 C-3.5 3.125 -3.5 3.125 -3.9375 1.0625 C-2.9375 0.0625 -2.9375 0.0625 0 0 Z " fill="#8FA7BB" transform="translate(124.9375,146.9375)"/>
<path d="M0 0 C2.00720923 0.28674418 4.0085944 0.61866701 6 1 C6 2.32 6 3.64 6 5 C4.20841511 5.02696365 2.41671527 5.04637917 0.625 5.0625 C-0.37273437 5.07410156 -1.37046875 5.08570313 -2.3984375 5.09765625 C-5 5 -5 5 -7 4 C-7 3.34 -7 2.68 -7 2 C-7.66 2 -8.32 2 -9 2 C-8.67 2.99 -8.34 3.98 -8 5 C-14.625 6.25 -14.625 6.25 -18 4 C-18 3.01 -18 2.02 -18 1 C-16.17662109 1.01740234 -16.17662109 1.01740234 -14.31640625 1.03515625 C-12.73177236 1.04453278 -11.14713682 1.05363313 -9.5625 1.0625 C-8.76005859 1.07087891 -7.95761719 1.07925781 -7.13085938 1.08789062 C-5.08704779 1.0965143 -3.04316098 1.0522815 -1 1 C-0.67 0.67 -0.34 0.34 0 0 Z " fill="#AE9046" transform="translate(233,157)"/>
<path d="M0 0 C7.26 0.33 14.52 0.66 22 1 C21.67 2.32 21.34 3.64 21 5 C20.34 4.34 19.68 3.68 19 3 C18.01 4.485 18.01 4.485 17 6 C17 4.68 17 3.36 17 2 C16.34 2 15.68 2 15 2 C14.67 2.66 14.34 3.32 14 4 C13.67 4.33 13.34 4.66 13 5 C10.66055264 4.71269945 8.3260857 4.38063221 6 4 C6 3.34 6 2.68 6 2 C5.34 2 4.68 2 4 2 C3.67 2.99 3.34 3.98 3 5 C1.35 4.67 -0.3 4.34 -2 4 C-1.34 2.68 -0.68 1.36 0 0 Z " fill="#A3B7C7" transform="translate(90,177)"/>
<path d="M0 0 C6.27 0 12.54 0 19 0 C19 1.32 19 2.64 19 4 C12.66666667 4 6.33333333 4 0 4 C0 2.68 0 1.36 0 0 Z " fill="#04916D" transform="translate(297,235)"/>
<path d="M0 0 C6.875 1.875 6.875 1.875 8 3 C8.23192865 4.51469448 8.41215238 6.03754562 8.5625 7.5625 C8.64628906 8.38878906 8.73007812 9.21507813 8.81640625 10.06640625 C8.87699219 10.70449219 8.93757813 11.34257813 9 12 C7.68397477 11.38245741 6.37226444 10.75571258 5.0625 10.125 C4.33160156 9.77695313 3.60070312 9.42890625 2.84765625 9.0703125 C1 8 1 8 0 6 C-0.039992 4.00039988 -0.04346799 1.99952758 0 0 Z " fill="#D3B056" transform="translate(253,102)"/>
<path d="M0 0 C0 1.65 0 3.3 0 5 C-3.28696233 5.79953138 -4.71023192 6.09658936 -8 5 C-10.63804589 5.39397335 -10.63804589 5.39397335 -13 6 C-13.5625 4.0625 -13.5625 4.0625 -14 2 C-13 1 -13 1 -11.00390625 0.9375 C-9.37890454 0.97910004 -7.75390453 1.0207665 -6.12890625 1.0625 C-3.76646677 0.99314398 -2.35126565 0 0 0 Z " fill="#AD8F46" transform="translate(276,146)"/>
<path d="M0 0 C2.0625 0.4375 2.0625 0.4375 4 1 C3.85795259 2.58367747 3.71119847 4.16693318 3.5625 5.75 C3.48128906 6.63171875 3.40007812 7.5134375 3.31640625 8.421875 C3.03761535 10.69350452 2.61209423 12.79851823 2 15 C0.68 14.67 -0.64 14.34 -2 14 C-1.85970581 11.8537974 -1.71261836 9.70803782 -1.5625 7.5625 C-1.48128906 6.36753906 -1.40007812 5.17257813 -1.31640625 3.94140625 C-1 1 -1 1 0 0 Z " fill="#E5F2DF" transform="translate(133,58)"/>
<path d="M0 0 C-0.99 0.495 -0.99 0.495 -2 1 C-2 1.66 -2 2.32 -2 3 C-1.34 3.33 -0.68 3.66 0 4 C-5.28 4 -10.56 4 -16 4 C-16 2.68 -16 1.36 -16 0 C-10.42289352 -1.06795656 -5.60563042 -0.82622671 0 0 Z " fill="#994556" transform="translate(168,225)"/>
<path d="M0 0 C0.598125 0.185625 1.19625 0.37125 1.8125 0.5625 C4.16408762 1.22093687 4.16408762 1.22093687 7 0 C9.1875 0.9375 9.1875 0.9375 11 2 C11 2.99 11 3.98 11 5 C6.05 5 1.1 5 -4 5 C-4 4.01 -4 3.02 -4 2 C-3.01 2 -2.02 2 -1 2 C-0.67 1.34 -0.34 0.68 0 0 Z " fill="#8DA5BA" transform="translate(128,167)"/>
<path d="M0 0 C0.66 0.66 1.32 1.32 2 2 C2.66 1.67 3.32 1.34 4 1 C5.66611905 0.957279 7.33382885 0.95936168 9 1 C12.05270463 1.15811388 12.05270463 1.15811388 15 0 C15 1.65 15 3.3 15 5 C14.67 4.34 14.34 3.68 14 3 C13.34 3 12.68 3 12 3 C12.33 3.99 12.66 4.98 13 6 C8.71 6 4.42 6 0 6 C0 4.02 0 2.04 0 0 Z " fill="#9D813F" transform="translate(245,146)"/>
<path d="M0 0 C3.66010724 0.90788992 3.66010724 0.90788992 5.875 -0.4375 C5.875 1.2125 5.875 2.8625 5.875 4.5625 C4.225 4.5625 2.575 4.5625 0.875 4.5625 C0.875 3.9025 0.875 3.2425 0.875 2.5625 C0.215 2.5625 -0.445 2.5625 -1.125 2.5625 C-1.125 3.2225 -1.125 3.8825 -1.125 4.5625 C-5.875 5.6875 -5.875 5.6875 -8.125 4.5625 C-8.125 3.5725 -8.125 2.5825 -8.125 1.5625 C-5.26825731 -0.46102607 -3.33905943 -0.48568137 0 0 Z " fill="#89A3B7" transform="translate(105.125,146.4375)"/>
<path d="M0 0 C0.33 0.66 0.66 1.32 1 2 C3.31 2 5.62 2 8 2 C8.33 3.32 8.66 4.64 9 6 C4.71 6 0.42 6 -4 6 C-4 4.35 -4 2.7 -4 1 C-2 0 -2 0 0 0 Z " fill="#AF4F62" transform="translate(173,223)"/>
<path d="M0 0 C5.94 0 11.88 0 18 0 C17.01 0.495 17.01 0.495 16 1 C16.33 1.99 16.66 2.98 17 4 C13.21293268 4 9.73486879 3.5745952 6 3 C6 2.34 6 1.68 6 1 C5.34 1 4.68 1 4 1 C4 1.66 4 2.32 4 3 C2.68 3.33 1.36 3.66 0 4 C0 2.68 0 1.36 0 0 Z " fill="#9AAFC2" transform="translate(115,178)"/>
<path d="M0 0 C4.29 0 8.58 0 13 0 C13 1.65 13 3.3 13 5 C9 5 5 5 1 5 C0.67 3.35 0.34 1.7 0 0 Z " fill="#A94D5F" transform="translate(149,214)"/>
<path d="M0 0 C2.97 0 5.94 0 9 0 C9 0.99 9 1.98 9 3 C9.66 3 10.32 3 11 3 C11 2.01 11 1.02 11 0 C11.99 0 12.98 0 14 0 C14 1.32 14 2.64 14 4 C9.38 4 4.76 4 0 4 C0 2.68 0 1.36 0 0 Z " fill="#A54A5C" transform="translate(149,245)"/>
<path d="M0 0 C0.33 0.99 0.66 1.98 1 3 C-0.0625 4.5 -0.0625 4.5 -2 6 C-5.5 6.125 -5.5 6.125 -9 6 C-9.99 6.33 -10.98 6.66 -12 7 C-12 5.35 -12 3.7 -12 2 C-11.21753906 1.93941406 -10.43507813 1.87882813 -9.62890625 1.81640625 C-8.61699219 1.73261719 -7.60507813 1.64882812 -6.5625 1.5625 C-5.55316406 1.48128906 -4.54382813 1.40007812 -3.50390625 1.31640625 C-1.06359221 1.26788532 -1.06359221 1.26788532 0 0 Z " fill="#A2B6C7" transform="translate(101,156)"/>
<path d="M0 0 C0.66 0.66 1.32 1.32 2 2 C5.693507 2.20146402 8.47940432 2.17353189 12 1 C12 2.65 12 4.3 12 6 C8.04 6 4.08 6 0 6 C0 4.02 0 2.04 0 0 Z " fill="#048B68" transform="translate(289,213)"/>
<path d="M0 0 C3.96 0 7.92 0 12 0 C12 1.32 12 2.64 12 4 C8.37 4 4.74 4 1 4 C0.67 2.68 0.34 1.36 0 0 Z " fill="#A94C5E" transform="translate(171,215)"/>
<path d="M0 0 C0 1.65 0 3.3 0 5 C-3.96 5 -7.92 5 -12 5 C-11.67 3.68 -11.34 2.36 -11 1 C-9.54182203 0.83197949 -8.0834516 0.66562857 -6.625 0.5 C-5.81289062 0.4071875 -5.00078125 0.314375 -4.1640625 0.21875 C-2 0 -2 0 0 0 Z " fill="#A44A5C" transform="translate(200,234)"/>
<path d="M0 0 C3.63 0 7.26 0 11 0 C11 1.32 11 2.64 11 4 C7.37 4 3.74 4 0 4 C0 2.68 0 1.36 0 0 Z " fill="#048E6B" transform="translate(275,235)"/>
<path d="M0 0 C0.33 0 0.66 0 1 0 C1 1.65 1 3.3 1 5 C0.67 4.34 0.34 3.68 0 3 C-0.66 3 -1.32 3 -2 3 C-2 3.66 -2 4.32 -2 5 C-5.38018531 6.04005702 -8.4780279 6.08004482 -12 6 C-12 4.68 -12 3.36 -12 2 C-8.04 2 -4.08 2 0 2 C0 1.34 0 0.68 0 0 Z " fill="#9CB1C3" transform="translate(148,156)"/>
<path d="M0 0 C3.3 0 6.6 0 10 0 C10 1.32 10 2.64 10 4 C6.37 4 2.74 4 -1 4 C-0.67 2.68 -0.34 1.36 0 0 Z " fill="#AD4E61" transform="translate(165,245)"/>
<path d="M0 0 C3.63 0 7.26 0 11 0 C11.33 0.66 11.66 1.32 12 2 C11.67 2.66 11.34 3.32 11 4 C7.37 4 3.74 4 0 4 C0 2.68 0 1.36 0 0 Z " fill="#97ADC0" transform="translate(89,168)"/>
<path d="M0 0 C0.99 1.32 1.98 2.64 3 4 C2 5 2 5 -1.5625 5.0625 C-2.696875 5.041875 -3.83125 5.02125 -5 5 C-5.33 5.66 -5.66 6.32 -6 7 C-6.33 6.67 -6.66 6.34 -7 6 C-7.66 6.66 -8.32 7.32 -9 8 C-9.66 8 -10.32 8 -11 8 C-11 7.34 -11 6.68 -11 6 C-10.34 5.67 -9.68 5.34 -9 5 C-8.67 4.01 -8.34 3.02 -8 2 C-6.2984375 1.7834375 -6.2984375 1.7834375 -4.5625 1.5625 C-1.19222799 1.38828522 -1.19222799 1.38828522 0 0 Z " fill="#FEF9F5" transform="translate(312,10)"/>
<path d="M0 0 C1.67542976 0.28604898 3.34385343 0.61781233 5 1 C4.67 2.32 4.34 3.64 4 5 C0.33333333 5 -3.33333333 5 -7 5 C-7 3.68 -7 2.36 -7 1 C-5.5459375 1.0309375 -5.5459375 1.0309375 -4.0625 1.0625 C-1.12534105 1.35618499 -1.12534105 1.35618499 0 0 Z " fill="#048664" transform="translate(282,224)"/>
<path d="M0 0 C3.96 0 7.92 0 12 0 C12 0.99 12 1.98 12 3 C11.67 2.34 11.34 1.68 11 1 C10.34 1 9.68 1 9 1 C9.33 1.99 9.66 2.98 10 4 C3.375 5.25 3.375 5.25 0 3 C0 2.01 0 1.02 0 0 Z " fill="#9A803F" transform="translate(215,158)"/>
<path d="M0 0 C3.74161103 0 7.28953557 0.51338171 11 1 C11 1.99 11 2.98 11 4 C6.91257012 4.88376862 4.04916379 5.34972126 0 4 C0 2.68 0 1.36 0 0 Z " fill="#9F8340" transform="translate(215,147)"/>
<path d="M0 0 C0.36923077 6.52307692 0.36923077 6.52307692 -1.5 8.9375 C-1.995 9.288125 -2.49 9.63875 -3 10 C-3.66 9.67 -4.32 9.34 -5 9 C-5.36666667 3.5 -5.36666667 3.5 -3.625 1.125 C-2 0 -2 0 0 0 Z " fill="#05BE8E" transform="translate(319,270)"/>
<path d="M0 0 C0.598125 0.165 1.19625 0.33 1.8125 0.5 C4.11344336 1.1114124 4.11344336 1.1114124 7 1 C7.99 1 8.98 1 10 1 C9.34 2.98 8.68 4.96 8 7 C7.4225 6.67 6.845 6.34 6.25 6 C3.80116138 4.72924102 3.80116138 4.72924102 0 5 C0 3.35 0 1.7 0 0 Z " fill="#A28541" transform="translate(244,167)"/>
<path d="M0 0 C0.33 0.99 0.66 1.98 1 3 C1.66 3.33 2.32 3.66 3 4 C2.1875 5.9375 2.1875 5.9375 1 8 C0.01 8.33 -0.98 8.66 -2 9 C-2 8.01 -2 7.02 -2 6 C-3.32 6.33 -4.64 6.66 -6 7 C-6 6.34 -6 5.68 -6 5 C-5.38125 4.9175 -4.7625 4.835 -4.125 4.75 C-1.81562433 4.18741541 -1.81562433 4.18741541 -0.75 1.9375 C-0.5025 1.298125 -0.255 0.65875 0 0 Z " fill="#E16880" transform="translate(207,289)"/>
<path d="M0 0 C2.875 -0.125 2.875 -0.125 6 0 C6.66 0.66 7.32 1.32 8 2 C5.64031256 4.09749995 4.45383006 4.96905704 1.25 5.1875 C0.13625 5.0946875 0.13625 5.0946875 -1 5 C-1 2 -1 2 0 0 Z " fill="#04CB98" transform="translate(319,278)"/>
<path d="M0 0 C0 1.65 0 3.3 0 5 C-2.31 5 -4.62 5 -7 5 C-7.33 3.68 -7.66 2.36 -8 1 C-5.10765685 0.17361624 -3.11257569 0 0 0 Z " fill="#A54A5D" transform="translate(157,234)"/>
<path d="M0 0 C1.32 0.99 2.64 1.98 4 3 C3.34 4.32 2.68 5.64 2 7 C1.01 6.67 0.02 6.34 -1 6 C-1.33 6.66 -1.66 7.32 -2 8 C-3.32 7.34 -4.64 6.68 -6 6 C-5.34 5.34 -4.68 4.68 -4 4 C-3.01 4 -2.02 4 -1 4 C-0.67 2.68 -0.34 1.36 0 0 Z " fill="#D5F4E9" transform="translate(123,43)"/>
<path d="M0 0 C2.9375 0.75 2.9375 0.75 6 2 C6.875 4.125 6.875 4.125 7 6 C6.01 6.33 5.02 6.66 4 7 C3.67 6.34 3.34 5.68 3 5 C1.68 5 0.36 5 -1 5 C-1 1 -1 1 0 0 Z " fill="#89A3B8" transform="translate(90,146)"/>
<path d="M0 0 C3.96 0 7.92 0 12 0 C11.01 0.495 11.01 0.495 10 1 C10 1.66 10 2.32 10 3 C10.66 3.33 11.32 3.66 12 4 C10.35 4 8.7 4 7 4 C7 3.01 7 2.02 7 1 C6.34 1 5.68 1 5 1 C5 1.99 5 2.98 5 4 C3.35 4 1.7 4 0 4 C0.66 3.67 1.32 3.34 2 3 C2 2.34 2 1.68 2 1 C1.34 0.67 0.68 0.34 0 0 Z " fill="#A0B4C6" transform="translate(117,158)"/>
<path d="M0 0 C1.98 0 3.96 0 6 0 C6.5625 1.9375 6.5625 1.9375 7 4 C6 5 6 5 2.9375 5.0625 C1.4834375 5.0315625 1.4834375 5.0315625 0 5 C0 3.35 0 1.7 0 0 Z " fill="#8AA3B8" transform="translate(112,147)"/>
<path d="M0 0 C0.598125 0.350625 1.19625 0.70125 1.8125 1.0625 C1.1525 3.0425 0.4925 5.0225 -0.1875 7.0625 C-2.1875 6.0625 -2.1875 6.0625 -3.1875 3.0625 C-4.1775 3.0625 -5.1675 3.0625 -6.1875 3.0625 C-5.8575 2.0725 -5.5275 1.0825 -5.1875 0.0625 C-2.1875 -0.9375 -2.1875 -0.9375 0 0 Z " fill="#D5F4E9" transform="translate(57.1875,355.9375)"/>
<path d="M0 0 C2.31 0 4.62 0 7 0 C7 1.32 7 2.64 7 4 C4.69 4 2.38 4 0 4 C0 2.68 0 1.36 0 0 Z " fill="#038E6A" transform="translate(324,235)"/>
<path d="M0 0 C0.66 0.33 1.32 0.66 2 1 C2 2.32 2 3.64 2 5 C1.34 5 0.68 5 0 5 C-0.33 5.66 -0.66 6.32 -1 7 C-2.64142963 8.0409066 -4.30712215 9.04504326 -6 10 C-4.6302836 6.00499382 -2.74277578 3.19990508 0 0 Z " fill="#E1F7EE" transform="translate(55,369)"/>
<path d="M0 0 C2.64 0 5.28 0 8 0 C8 1.32 8 2.64 8 4 C5.36 4 2.72 4 0 4 C0 2.68 0 1.36 0 0 Z " fill="#A44A5C" transform="translate(165,235)"/>
<path d="M0 0 C0 1.65 0 3.3 0 5 C-2.64 5 -5.28 5 -8 5 C-8 3.68 -8 2.36 -8 1 C-1.125 0 -1.125 0 0 0 Z " fill="#A1485A" transform="translate(197,224)"/>
<path d="M0 0 C3.3 0 6.6 0 10 0 C9.67 0.99 9.34 1.98 9 3 C9 2.34 9 1.68 9 1 C8.01 1 7.02 1 6 1 C5.67 1.99 5.34 2.98 5 4 C2.03 3.505 2.03 3.505 -1 3 C-0.67 2.01 -0.34 1.02 0 0 Z " fill="#A2B6C7" transform="translate(118,168)"/>
<path d="M0 0 C2.64 0 5.28 0 8 0 C8 1.32 8 2.64 8 4 C5.36 4 2.72 4 0 4 C0 2.68 0 1.36 0 0 Z " fill="#048765" transform="translate(316,225)"/>
<path d="M0 0 C2.64 0 5.28 0 8 0 C8 1.32 8 2.64 8 4 C5.36 4 2.72 4 0 4 C0 2.68 0 1.36 0 0 Z " fill="#A28642" transform="translate(235,168)"/>
<path d="M0 0 C0.99 0.33 1.98 0.66 3 1 C3 3.31 3 5.62 3 8 C1.35 8 -0.3 8 -2 8 C-1.34 5.36 -0.68 2.72 0 0 Z " fill="#FCEDD8" transform="translate(242,325)"/>
<path d="M0 0 C0.99 0 1.98 0 3 0 C3.33 0.66 3.66 1.32 4 2 C4.99 2.33 5.98 2.66 7 3 C6.34 3 5.68 3 5 3 C5 3.66 5 4.32 5 5 C5.66 5.33 6.32 5.66 7 6 C4.69 6 2.38 6 0 6 C0 4.02 0 2.04 0 0 Z " fill="#048664" transform="translate(281,213)"/>
<path d="M0 0 C0 1.65 0 3.3 0 5 C-1.98 5 -3.96 5 -6 5 C-6 3.68 -6 2.36 -6 1 C-3.92446352 0.4465236 -2.15634036 0 0 0 Z " fill="#048F6B" transform="translate(295,234)"/>
<path d="M0 0 C2.31 0 4.62 0 7 0 C7 1.32 7 2.64 7 4 C4.69 4 2.38 4 0 4 C0 2.68 0 1.36 0 0 Z " fill="#9AB0C2" transform="translate(134,178)"/>
<path d="M0 0 C1.98 0 3.96 0 6 0 C5.34 1.65 4.68 3.3 4 5 C2 5 0 5 -2 5 C-1 2 -1 2 0 0 Z " fill="#A3B7C7" transform="translate(139,148)"/>
<path d="M0 0 C1.5 1.25 1.5 1.25 3 3 C3 4.32 3 5.64 3 7 C-1.75 8.125 -1.75 8.125 -4 7 C-4 6.01 -4 5.02 -4 4 C-3.34 4 -2.68 4 -2 4 C-2 4.66 -2 5.32 -2 6 C-1.34 6 -0.68 6 0 6 C0 4.02 0 2.04 0 0 Z " fill="#04A077" transform="translate(317,293)"/>
<path d="M0 0 C2.31 0.33 4.62 0.66 7 1 C7 1.66 7 2.32 7 3 C4.69 3.33 2.38 3.66 0 4 C0 2.68 0 1.36 0 0 Z " fill="#AF4F62" transform="translate(152,225)"/>
<path d="M0 0 C0.99 0 1.98 0 3 0 C3 0.66 3 1.32 3 2 C5.31 2.33 7.62 2.66 10 3 C10 3.33 10 3.66 10 4 C8.906875 3.979375 7.81375 3.95875 6.6875 3.9375 C3.05615809 3.81455548 3.05615809 3.81455548 0 5 C0 3.35 0 1.7 0 0 Z " fill="#93AABD" transform="translate(89,158)"/>
<path d="M0 0 C0.33 0.99 0.66 1.98 1 3 C2.93618425 3.67156616 2.93618425 3.67156616 5 4 C5.66 4.33 6.32 4.66 7 5 C7.33 4.34 7.66 3.68 8 3 C8 3.99 8 4.98 8 6 C5.36 6 2.72 6 0 6 C0 4.02 0 2.04 0 0 Z " fill="#B99A4B" transform="translate(245,146)"/>
<path d="M0 0 C1.32 1.32 2.64 2.64 4 4 C2.68 5.32 1.36 6.64 0 8 C-0.38063221 5.6739143 -0.71269945 3.33944736 -1 1 C-0.67 0.67 -0.34 0.34 0 0 Z " fill="#E0F7EE" transform="translate(127,28)"/>
<path d="M0 0 C0 1.98 0 3.96 0 6 C-1.65 5.67 -3.3 5.34 -5 5 C-5 3 -5 3 -3.625 1.375 C-2 0 -2 0 0 0 Z " fill="#C2A24F" transform="translate(235,166)"/>
<path d="M0 0 C0.99 0 1.98 0 3 0 C3 1.65 3 3.3 3 5 C2.34 5 1.68 5 1 5 C0.67 6.32 0.34 7.64 0 9 C0 6.03 0 3.06 0 0 Z " fill="#05DBA4" transform="translate(313,282)"/>
<path d="M0 0 C1.98 0 3.96 0 6 0 C5.67 1.65 5.34 3.3 5 5 C4.01 5 3.02 5 2 5 C1.34 4.34 0.68 3.68 0 3 C0 2.01 0 1.02 0 0 Z " fill="#8D404F" transform="translate(149,214)"/>
<path d="M0 0 C0.99 0.33 1.98 0.66 3 1 C2.67 2.32 2.34 3.64 2 5 C0.68 4.67 -0.64 4.34 -2 4 C-1.34 2.68 -0.68 1.36 0 0 Z " fill="#8AA3B8" transform="translate(90,177)"/>
<path d="M0 0 C0.99 0 1.98 0 3 0 C3 2.64 3 5.28 3 8 C2.01 8 1.02 8 0 8 C0 5.36 0 2.72 0 0 Z " fill="#DBB95B" transform="translate(250,116)"/>
<path d="M0 0 C1.32 0 2.64 0 4 0 C4 1.65 4 3.3 4 5 C2.68 4.67 1.36 4.34 0 4 C0 2.68 0 1.36 0 0 Z " fill="#708EA9" transform="translate(135,96)"/>
<path d="M0 0 C1.98 0 3.96 0 6 0 C5.34 1.32 4.68 2.64 4 4 C2.68 3.67 1.36 3.34 0 3 C0 2.01 0 1.02 0 0 Z " fill="#9C4657" transform="translate(158,235)"/>
<path d="M0 0 C1.98 0 3.96 0 6 0 C5.34 1.32 4.68 2.64 4 4 C2.68 3.67 1.36 3.34 0 3 C0 2.01 0 1.02 0 0 Z " fill="#9B4657" transform="translate(163,215)"/>
<path d="M0 0 C0 1.65 0 3.3 0 5 C-1.65 5 -3.3 5 -5 5 C-5.33 4.01 -5.66 3.02 -6 2 C-1.125 0 -1.125 0 0 0 Z " fill="#9AB0C2" transform="translate(111,146)"/>
<path d="M0 0 C0.33 0.99 0.66 1.98 1 3 C-3.75 7 -3.75 7 -6 7 C-6 6.34 -6 5.68 -6 5 C-5.38125 4.9175 -4.7625 4.835 -4.125 4.75 C-1.81562433 4.18741541 -1.81562433 4.18741541 -0.75 1.9375 C-0.5025 1.298125 -0.255 0.65875 0 0 Z " fill="#321A1C" transform="translate(207,289)"/>
<path d="M0 0 C1.98 0 3.96 0 6 0 C5.34 1.32 4.68 2.64 4 4 C2.68 3.67 1.36 3.34 0 3 C0 2.01 0 1.02 0 0 Z " fill="#964454" transform="translate(201,235)"/>
<path d="M0 0 C2.31 0 4.62 0 7 0 C6.01 0.495 6.01 0.495 5 1 C4.67 1.99 4.34 2.98 4 4 C2.68 3.67 1.36 3.34 0 3 C0.66 3 1.32 3 2 3 C2 2.34 2 1.68 2 1 C1.34 0.67 0.68 0.34 0 0 Z " fill="#038060" transform="translate(288,225)"/>
<path d="M0 0 C1.65 0 3.3 0 5 0 C4.01 0.33 3.02 0.66 2 1 C2.33 2.32 2.66 3.64 3 5 C1.68 4.67 0.36 4.34 -1 4 C-0.67 2.68 -0.34 1.36 0 0 Z " fill="#BD9D4C" transform="translate(263,147)"/>
<path d="M0 0 C2.9375 0.8125 2.9375 0.8125 6 2 C6.33 2.99 6.66 3.98 7 5 C5.35 5 3.7 5 2 5 C2 4.01 2 3.02 2 2 C1.34 2 0.68 2 0 2 C0 1.34 0 0.68 0 0 Z " fill="#B19348" transform="translate(226,147)"/>
</svg>
