<?xml version="1.0" encoding="UTF-8"?>
<svg version="1.1" xmlns="http://www.w3.org/2000/svg" width="400" height="400">
<path d="M0 0 C132 0 264 0 400 0 C400 132 400 264 400 400 C268 400 136 400 0 400 C0 268 0 136 0 0 Z " fill="#CDE2EA" transform="translate(0,0)"/>
<path d="M0 0 C0.66 0 1.32 0 2 0 C2 31.02 2 62.04 2 94 C13.15683594 93.93039063 13.15683594 93.93039063 24.5390625 93.859375 C29.25131604 93.83893668 33.96351493 93.81968087 38.67578125 93.8046875 C46.15522614 93.78077685 53.63447514 93.75249133 61.11376953 93.69824219 C67.14380414 93.65477863 73.17362867 93.63086145 79.20380783 93.62049103 C81.50432009 93.61310066 83.80482086 93.59866907 86.10524368 93.57707977 C89.32773936 93.54803987 92.54936717 93.54404436 95.77197266 93.54589844 C96.72287781 93.53151733 97.67378296 93.51713623 98.65350342 93.50231934 C105.56283008 93.54532982 108.8697464 94.97408819 113.875 99.8125 C115.53616141 103.04253607 115.370935 105.41429498 115 109 C113.72323383 112.68843561 112.78336104 114.47819184 109.52206421 116.65058899 C104.83111207 118.44783688 100.75160411 118.39705862 95.77197266 118.34057617 C94.75672516 118.34101425 93.74147766 118.34145233 92.69546509 118.34190369 C89.35146622 118.33981953 86.00797341 118.31650551 82.6640625 118.29296875 C80.340935 118.28737148 78.01780395 118.283102 75.69467163 118.28010559 C69.58886896 118.26866718 63.48328135 118.23920834 57.37756348 118.20599365 C51.14366566 118.17527131 44.909733 118.16159561 38.67578125 118.14648438 C26.45041128 118.11433788 14.2252572 118.06157786 2 118 C2 124.27 2 130.54 2 137 C4.30659103 136.99333817 6.61318207 136.98667633 8.9896698 136.97981262 C30.69441245 136.91855545 52.39914371 136.87388442 74.10395336 136.84456348 C85.26342873 136.82908784 96.42284071 136.80798495 107.58227539 136.77368164 C117.30767096 136.74380069 127.03302062 136.72443007 136.75846082 136.71773452 C141.90906634 136.71382006 147.05954052 136.70460597 152.21010399 136.68280983 C157.05684982 136.66246533 161.90341007 136.6561621 166.75019455 136.66067696 C168.52998042 136.65985084 170.30977243 136.65387309 172.08952141 136.64238358 C174.51838023 136.62747121 176.94653713 136.63104159 179.37541199 136.63923645 C180.08067321 136.63049793 180.78593444 136.6217594 181.51256722 136.61275607 C187.21155557 136.66477586 190.24938157 138.34400959 194.3125 142.1875 C196.49482442 145.82470737 196.93518657 148.91555266 196 153 C193.89692781 156.78220493 191.06744395 159.4932302 187 161 C184.46064686 161.18481188 182.03354305 161.26138648 179.4956665 161.24050903 C178.73679162 161.24221788 177.97791673 161.24392673 177.19604564 161.24568737 C174.65176006 161.2489831 172.10773787 161.23797725 169.56347656 161.22705078 C167.7402497 161.22648669 165.91702238 161.2268032 164.09379578 161.22793579 C159.14167154 161.22851037 154.18964391 161.21673906 149.23754215 161.20278788 C144.06321259 161.19029802 138.88888089 161.18911139 133.71453857 161.18673706 C123.91505224 161.18051716 114.11561045 161.16409943 104.31614375 161.14403808 C91.07492608 161.11751836 77.83369625 161.10671056 64.59245872 161.09503365 C43.72827244 161.07621922 22.86418017 161.03637691 2 161 C2 192.02 2 223.04 2 255 C1.34 255 0.68 255 0 255 C0 170.85 0 86.7 0 0 Z " fill="#72FCB1" transform="translate(64,73)"/>
<path d="M0 0 C31.74637547 -0.09041777 63.49270188 -0.16203423 95.2391756 -0.20426132 C98.98676181 -0.20926417 102.73434777 -0.21444146 106.48193359 -0.21972656 C107.22801342 -0.2207758 107.97409325 -0.22182505 108.74278156 -0.22290608 C120.82470653 -0.2403134 132.9065554 -0.27185287 144.98843522 -0.30861118 C157.38469548 -0.34601156 169.78091587 -0.36823393 182.17723024 -0.37635398 C189.82703439 -0.38184365 197.47662346 -0.39918486 205.12636141 -0.43166587 C210.99125912 -0.45530053 216.8560463 -0.45782211 222.72099304 -0.45243073 C225.12764689 -0.45353282 227.53430875 -0.4615112 229.94091415 -0.4768219 C233.22341284 -0.49668384 236.50498661 -0.49195228 239.7875061 -0.48101807 C241.22039614 -0.49849512 241.22039614 -0.49849512 242.68223345 -0.51632524 C249.57989253 -0.45409756 252.81125202 1.02383522 257.875 5.75 C259.57235084 9.14470168 259.63443653 12.33436671 259 16 C257.37135253 19.25729493 256.17459655 21.32978942 252.98623371 23.14903069 C248.61940094 24.39342113 244.42702755 24.26798614 239.90776062 24.24050903 C238.88260041 24.24221788 237.85744019 24.24392673 236.80121452 24.24568737 C233.36179028 24.24898489 229.9225606 24.23797407 226.4831543 24.22705078 C224.01939397 24.22648673 221.5556333 24.22680312 219.09187317 24.22793579 C213.78534627 24.22839141 208.47888008 24.22271397 203.172369 24.21146011 C195.50007372 24.19519959 187.82780221 24.18999654 180.15549157 24.18748413 C167.70740732 24.18310789 155.2593493 24.16980073 142.8112793 24.15087891 C130.71980928 24.13251826 118.62834638 24.11836266 106.53686523 24.10986328 C105.79142996 24.10933783 105.04599468 24.10881239 104.27797046 24.10827102 C100.53830586 24.10566093 96.79864121 24.10313351 93.05897653 24.10064721 C62.03929802 24.07991693 31.01965443 24.04414256 0 24 C0 16.08 0 8.16 0 0 Z " fill="#FDFD7D" transform="translate(66,252)"/>
<path d="M0 0 C28.71116979 -0.09255541 57.42230371 -0.16395773 86.13359261 -0.20724869 C99.46445013 -0.2278828 112.79518169 -0.25601971 126.12597656 -0.30175781 C137.74371365 -0.34159943 149.36138243 -0.36742664 160.97918594 -0.37635398 C167.13198354 -0.38157321 173.28458569 -0.39385826 179.43732071 -0.42292023 C185.227165 -0.45004684 191.0167331 -0.45845045 196.8066349 -0.45243073 C198.93270556 -0.45353218 201.05878535 -0.46150226 203.1848011 -0.4768219 C206.08636036 -0.49670637 208.98687512 -0.4919445 211.88845825 -0.48101807 C212.73088078 -0.49266943 213.5733033 -0.5043208 214.44125378 -0.51632524 C220.71751579 -0.45238707 224.29901826 1.38905098 228.875 5.8125 C230.5542101 9.07763075 230.43721578 11.37735495 230 15 C227.51292452 19.97415095 225.11991186 21.97718316 220 24 C216.96987961 24.40945294 213.98035259 24.39258924 210.92642212 24.36076355 C209.57116002 24.36460846 209.57116002 24.36460846 208.18851888 24.36853105 C205.16667502 24.37346512 202.14533285 24.35698206 199.12353516 24.34057617 C196.95519014 24.33972982 194.78684427 24.3402052 192.61849976 24.34190369 C186.73466987 24.34276474 180.85102331 24.32512095 174.96723604 24.30418181 C168.81730865 24.28543351 162.6673771 24.28366602 156.51742554 24.28010559 C144.87281476 24.27077972 133.22828843 24.24615852 121.58371484 24.21605712 C108.32628238 24.18253005 95.06884588 24.16603135 81.81138158 24.15097082 C54.54087264 24.1196095 27.27044461 24.06623439 0 24 C0 16.08 0 8.16 0 0 Z " fill="#FEA398" transform="translate(66,295)"/>
<path d="M0 0 C13.45628076 -0.09037126 26.91235994 -0.16375684 40.3688755 -0.20724869 C46.61728821 -0.22812265 52.86548252 -0.25643747 59.11376953 -0.30175781 C65.14380414 -0.34522137 71.17362867 -0.36913855 77.20380783 -0.37950897 C79.50432009 -0.38689934 81.80482086 -0.40133093 84.10524368 -0.42292023 C87.32773936 -0.45196013 90.54936717 -0.45595564 93.77197266 -0.45410156 C94.72287781 -0.46848267 95.67378296 -0.48286377 96.65350342 -0.49768066 C103.56283008 -0.45467018 106.8697464 0.97408819 111.875 5.8125 C113.53616141 9.04253607 113.370935 11.41429498 113 15 C111.72323383 18.68843561 110.78336104 20.47819184 107.52206421 22.65058899 C102.83111207 24.44783688 98.75160411 24.39705862 93.77197266 24.34057617 C92.75672516 24.34101425 91.74147766 24.34145233 90.69546509 24.34190369 C87.35146622 24.33981953 84.00797341 24.31650551 80.6640625 24.29296875 C78.340935 24.28737148 76.01780395 24.283102 73.69467163 24.28010559 C67.58886896 24.26866718 61.48328135 24.23920834 55.37756348 24.20599365 C49.14366566 24.17527131 42.909733 24.16159561 36.67578125 24.14648438 C24.45041128 24.11433788 12.2252572 24.06157786 0 24 C0 16.08 0 8.16 0 0 Z " fill="#87C3FE" transform="translate(66,167)"/>
<path d="M0 0 C11.25699785 -0.06951197 22.51394463 -0.12281744 33.7711134 -0.15543652 C38.99828358 -0.17109208 44.22530691 -0.19232852 49.45239258 -0.22631836 C54.49686947 -0.25891546 59.54120511 -0.27685384 64.58577919 -0.28463173 C66.51031022 -0.29017459 68.43483353 -0.30099841 70.35930443 -0.31719017 C73.05505451 -0.33896904 75.75022101 -0.34196673 78.44604492 -0.34057617 C79.63935173 -0.35675491 79.63935173 -0.35675491 80.85676575 -0.3732605 C86.90609625 -0.33949783 89.99462515 1.10302379 94.3125 5.1875 C96.49482442 8.82470737 96.93518657 11.91555266 96 16 C93.89692781 19.78220493 91.06744395 22.4932302 87 24 C84.46064686 24.18481188 82.03354305 24.26138648 79.4956665 24.24050903 C78.73679162 24.24221788 77.97791673 24.24392673 77.19604564 24.24568737 C74.65176006 24.2489831 72.10773787 24.23797725 69.56347656 24.22705078 C67.7402497 24.22648669 65.91702238 24.2268032 64.09379578 24.22793579 C59.14167154 24.22851037 54.18964391 24.21673906 49.23754215 24.20278788 C44.06321259 24.19029802 38.88888089 24.18911139 33.71453857 24.18673706 C23.91505224 24.18051716 14.11561045 24.16409943 4.31614375 24.14403808 C-6.83971601 24.12169495 -17.99557789 24.11068964 -29.15145445 24.10064721 C-52.10099434 24.07973366 -75.05049468 24.04454776 -98 24 C-98 23.67 -98 23.34 -98 23 C-49.985 22.505 -49.985 22.505 -1 22 C-1.495 18.535 -1.495 18.535 -2 15 C-1.34 15 -0.68 15 0 15 C0.33 14.34 0.66 13.68 1 13 C-0.32 13 -1.64 13 -3 13 C-2.5359375 11.7315625 -2.5359375 11.7315625 -2.0625 10.4375 C-0.98388755 6.94787149 -0.47703992 3.61432947 0 0 Z " fill="#7CFBBA" transform="translate(164,210)"/>
<path d="M0 0 C21.12 0 42.24 0 64 0 C63.34 0.33 62.68 0.66 62 1 C61.67 1.66 61.34 2.32 61 3 C61 2.34 61 1.68 61 1 C60.01 1 59.02 1 58 1 C57.95875 1.598125 57.9175 2.19625 57.875 2.8125 C57 5 57 5 53.9375 6.75 C52.968125 7.1625 51.99875 7.575 51 8 C51 8.66 51 9.32 51 10 C50.01 10 49.02 10 48 10 C48 10.66 48 11.32 48 12 C49.32 12 50.64 12 52 12 C52.33 11.34 52.66 10.68 53 10 C53.495 10.99 53.495 10.99 54 12 C56.97 12 59.94 12 63 12 C63 11.34 63 10.68 63 10 C62.34 9.67 61.68 9.34 61 9 C63.475 9.495 63.475 9.495 66 10 C66 10.66 66 11.32 66 12 C67.0669812 11.99214478 67.0669812 11.99214478 68.15551758 11.98413086 C71.37450275 11.96335982 74.59347383 11.95033942 77.8125 11.9375 C78.93205078 11.92912109 80.05160156 11.92074219 81.20507812 11.91210938 C82.81479492 11.90727539 82.81479492 11.90727539 84.45703125 11.90234375 C85.9416687 11.89448853 85.9416687 11.89448853 87.45629883 11.88647461 C90 12 90 12 93 13 C93.7425 12.835 94.485 12.67 95.25 12.5 C98.69467864 11.87369479 101.57364074 12.39534837 105 13 C105 12.01 105 11.02 105 10 C104.01 9.67 103.02 9.34 102 9 C103.33333333 7.66666667 104.66666667 6.33333333 106 5 C107.051875 3.9171875 107.051875 3.9171875 108.125 2.8125 C110.86282957 0.16593142 112.43577413 -0.12369173 116.1328125 -0.09765625 C116.93847656 -0.09443359 117.74414062 -0.09121094 118.57421875 -0.08789062 C119.83685547 -0.07532227 119.83685547 -0.07532227 121.125 -0.0625 C121.97449219 -0.05798828 122.82398438 -0.05347656 123.69921875 -0.04882812 C125.79950909 -0.03702874 127.8997633 -0.01909306 130 0 C130 2 130 2 128.125 4 C127.073125 4.99 127.073125 4.99 126 6 C125.34 6.66 124.68 7.32 124 8 C122.16015625 8.6328125 122.16015625 8.6328125 120.0625 9.125 C119.37285156 9.29257812 118.68320313 9.46015625 117.97265625 9.6328125 C116 10 116 10 113 10 C113 10.99 113 11.98 113 13 C114.45922693 12.88590407 115.91740598 12.75834456 117.375 12.625 C118.18710938 12.55539062 118.99921875 12.48578125 119.8359375 12.4140625 C122.20334191 12.17107412 122.20334191 12.17107412 124 10 C124.495 10.99 124.495 10.99 125 12 C125.99 12.66 126.98 13.32 128 14 C127.01 15.98 126.02 17.96 125 20 C124.34 20 123.68 20 123 20 C123 20.66 123 21.32 123 22 C120.53365684 23.23317158 118.92448827 23.12311024 116.16586304 23.12025452 C115.14500107 23.12162918 114.1241391 23.12300385 113.07234192 23.12442017 C111.94809311 23.12082489 110.8238443 23.11722961 109.66552734 23.11352539 C108.48505325 23.11367142 107.30457916 23.11381744 106.08833313 23.1139679 C102.84680225 23.11338959 99.60531425 23.10836583 96.36379194 23.10139394 C92.97785089 23.09515306 89.59190905 23.09455602 86.20596313 23.09336853 C79.7921899 23.09025739 73.37843366 23.08204691 66.96466792 23.07201904 C59.66367453 23.06085119 52.36268035 23.05534576 45.06168056 23.05032361 C30.04110934 23.03986412 15.0205602 23.02152132 0 23 C0 15.41 0 7.82 0 0 Z M91 14 C92 16 92 16 92 16 Z M103 14 C104 16 104 16 104 16 Z " fill="#FEFE6B" transform="translate(66,253)"/>
<path d="M0 0 C9.91864351 -0.0904954 19.83701125 -0.16382786 29.75597477 -0.20724869 C34.36213119 -0.22809221 38.96798965 -0.25635044 43.57397461 -0.30175781 C48.02196098 -0.34533141 52.46966138 -0.36916143 56.91784477 -0.37950897 C58.6118768 -0.38687973 60.30589379 -0.40127321 61.99980354 -0.42292023 C64.37919631 -0.45210826 66.7574189 -0.45594973 69.13696289 -0.45410156 C70.17922279 -0.47567322 70.17922279 -0.47567322 71.24253845 -0.49768066 C76.6365828 -0.45257125 79.63734238 1.06439036 84 4 C86.64930485 7.34042786 86.3625472 10.86696196 86 15 C84.07698606 19.59386663 81.29273699 21.59830829 77 24 C74.27181239 24.3600547 71.96491445 24.50999285 69.25048828 24.45410156 C68.12263664 24.45497772 68.12263664 24.45497772 66.97200012 24.45587158 C64.50428957 24.45310062 62.03781015 24.42205752 59.5703125 24.390625 C57.8525356 24.38315904 56.13475015 24.37746779 54.41696167 24.37347412 C49.90897864 24.3582456 45.40151605 24.31898817 40.89373779 24.2746582 C36.28860513 24.23364518 31.68338789 24.21545026 27.078125 24.1953125 C18.05181859 24.15249073 9.02603412 24.08216402 0 24 C0 16.08 0 8.16 0 0 Z " fill="#FEDA70" transform="translate(66,125)"/>
<path d="M0 0 C25.74 0 51.48 0 78 0 C78 0.66 78 1.32 78 2 C77.34 2 76.68 2 76 2 C76.99 4.475 76.99 4.475 78 7 C77.34 7 76.68 7 76 7 C77.44754255 8.44754255 79.03962913 8.55733561 81 9 C79.68 10.32 78.36 11.64 77 13 C78.32 13 79.64 13 81 13 C81.33 12.34 81.66 11.68 82 11 C82 11.66 82 12.32 82 13 C83.65 13 85.3 13 87 13 C85.625 14.5 85.625 14.5 84 16 C83.34 16 82.68 16 82 16 C81.67 17.32 81.34 18.64 81 20 C80.34 20 79.68 20 79 20 C79 20.66 79 21.32 79 22 C76.01756445 23.49121778 72.97384248 23.13001472 69.70458984 23.11352539 C68.57761436 23.11374443 68.57761436 23.11374443 67.4278717 23.1139679 C64.9388645 23.11326996 62.44993167 23.10548314 59.9609375 23.09765625 C58.23743735 23.09579165 56.51393666 23.09436794 54.79043579 23.09336853 C50.24974103 23.08954669 45.70907815 23.07971922 41.168396 23.06866455 C36.53674755 23.05844329 31.90509397 23.05386937 27.2734375 23.04882812 C18.18227539 23.03809667 9.09114533 23.02050255 0 23 C0 15.41 0 7.82 0 0 Z " fill="#FE9A90" transform="translate(66,295)"/>
<path d="M0 0 C8.22367726 -0.0905653 16.44696327 -0.16386722 24.6710062 -0.20724869 C28.49025138 -0.22807536 32.30913608 -0.25630161 36.12817383 -0.30175781 C39.81755527 -0.34539325 43.50659117 -0.36917408 47.19621086 -0.37950897 C48.59997938 -0.38686883 50.00373014 -0.40124091 51.40735054 -0.42292023 C65.07167636 -0.62547174 65.07167636 -0.62547174 71 4 C73.18273184 6.38736295 73.93688352 7.91715789 74.125 11.14453125 C73.89632677 15.45359234 73.35790629 17.54790784 70.625 21 C66.58981008 24.07443041 63.63165004 24.12307863 58.69262695 24.11352539 C57.39150467 24.11344986 56.09038239 24.11337433 54.74983215 24.11329651 C53.3293148 24.10818985 51.90879783 24.10297385 50.48828125 24.09765625 C49.03525338 24.09579091 47.58222489 24.09436756 46.12919617 24.09336853 C42.30693828 24.08955246 38.48471845 24.07972993 34.66247559 24.06866455 C30.76131709 24.05843087 26.86015243 24.05386671 22.95898438 24.04882812 C15.30597023 24.03810685 7.6529953 24.02051741 0 24 C0 16.08 0 8.16 0 0 Z " fill="#FB998F" transform="translate(66,82)"/>
<path d="M0 0 C24.42 0 48.84 0 74 0 C72.02 2.64 70.04 5.28 68 8 C68 8.66 68 9.32 68 10 C67.34 10 66.68 10 66 10 C65.67 10.66 65.34 11.32 65 12 C64.34 12 63.68 12 63 12 C63 11.34 63 10.68 63 10 C62.01 10 61.02 10 60 10 C59.67 10.66 59.34 11.32 59 12 C58.34 12 57.68 12 57 12 C57 11.34 57 10.68 57 10 C56.01 10 55.02 10 54 10 C53.67 10.66 53.34 11.32 53 12 C52.34 12 51.68 12 51 12 C51 11.34 51 10.68 51 10 C49.02 9.34 47.04 8.68 45 8 C44.01 9.65 43.02 11.3 42 13 C43.32 13.33 44.64 13.66 46 14 C46.33 13.01 46.66 12.02 47 11 C48.32 11.99 49.64 12.98 51 14 C50.34 14 49.68 14 49 14 C49 14.66 49 15.32 49 16 C48.34 16 47.68 16 47 16 C46.71125 16.78375 46.4225 17.5675 46.125 18.375 C45 21 45 21 43 23 C41.12704468 23.24050903 41.12704468 23.24050903 38.82568359 23.22705078 C37.53457169 23.22682419 37.53457169 23.22682419 36.21737671 23.22659302 C35.28712677 23.21627045 34.35687683 23.20594788 33.3984375 23.1953125 C32.44683746 23.1924826 31.49523743 23.18965271 30.51480103 23.18673706 C27.46807408 23.17551989 24.42163846 23.15041263 21.375 23.125 C19.31250424 23.11497218 17.25000388 23.10584599 15.1875 23.09765625 C10.12479679 23.077275 5.06272544 23.03812931 0 23 C0 15.41 0 7.82 0 0 Z " fill="#76B7FE" transform="translate(66,168)"/>
<path d="M0 0 C0.66 0 1.32 0 2 0 C2 45.21 2 90.42 2 137 C12.23 137 22.46 137 33 137 C33 138.98 33 140.96 33 143 C33.66 143.99 34.32 144.98 35 146 C34.01 147.32 33.02 148.64 32 150 C33.32 150.33 34.64 150.66 36 151 C36 153.67884659 35.88590541 155.50335747 35 158 C25.83065307 164.11289795 13.0201835 160 2 160 C2 191.35 2 222.7 2 255 C1.34 255 0.68 255 0 255 C0 170.85 0 86.7 0 0 Z " fill="#61A87E" transform="translate(64,73)"/>
<path d="M0 0 C5.28355502 -0.09930776 10.56655984 -0.17167464 15.85083008 -0.21972656 C17.64617382 -0.23977001 19.44145287 -0.26701251 21.23657227 -0.30175781 C23.8258465 -0.35059849 26.4142534 -0.3730412 29.00390625 -0.390625 C29.79898087 -0.41127014 30.59405548 -0.43191528 31.41322327 -0.45318604 C37.08004792 -0.45543801 40.32320138 0.77326917 45 4 C47.64930485 7.34042786 47.3625472 10.86696196 47 15 C45.07698606 19.59386663 42.29273699 21.59830829 38 24 C35.27181239 24.3600547 32.96491445 24.50999285 30.25048828 24.45410156 C29.12263664 24.45497772 29.12263664 24.45497772 27.97200012 24.45587158 C25.50428957 24.45310062 23.03781015 24.42205752 20.5703125 24.390625 C18.8525356 24.38315904 17.13475015 24.37746779 15.41696167 24.37347412 C10.90897864 24.3582456 6.40151605 24.31898817 1.89373779 24.2746582 C-2.71139487 24.23364518 -7.31661211 24.21545026 -11.921875 24.1953125 C-20.94814457 24.1524909 -29.9740289 24.08427361 -39 24 C-39 23.67 -39 23.34 -39 23 C-12.27 22.505 -12.27 22.505 15 22 C15 19.69 15 17.38 15 15 C15.33 14.67 15.66 14.34 16 14 C12.98509443 12.99503148 10.95818308 12.89664697 7.8125 12.9375 C6.91144531 12.94652344 6.01039062 12.95554688 5.08203125 12.96484375 C4.05142578 12.98224609 4.05142578 12.98224609 3 13 C3 12.34 3 11.68 3 11 C2.01 11.66 1.02 12.32 0 13 C-0.99 13 -1.98 13 -3 13 C-2.67 12.01 -2.34 11.02 -2 10 C-1.34 9.67 -0.68 9.34 0 9 C-0.185625 7.88625 -0.37125 6.7725 -0.5625 5.625 C-1 2 -1 2 0 0 Z " fill="#FBE384" transform="translate(105,125)"/>
<path d="M0 0 C3.77062132 2.07014504 7.005306 4.12142833 9 8 C9.54464126 12.20151831 9.27720541 14.44558918 7.375 18.25 C4.4180585 21.673827 1.5970455 23.64906743 -2.99450374 24.26951253 C-5.35949418 24.37761757 -7.70621713 24.38543434 -10.07357788 24.36076355 C-11.42883998 24.36460846 -11.42883998 24.36460846 -12.81148112 24.36853105 C-15.83332498 24.37346512 -18.85466715 24.35698206 -21.87646484 24.34057617 C-24.04480986 24.33972982 -26.21315573 24.3402052 -28.38150024 24.34190369 C-34.26533013 24.34276474 -40.14897669 24.32512095 -46.03276396 24.30418181 C-52.18269135 24.28543351 -58.3326229 24.28366602 -64.48257446 24.28010559 C-76.12718524 24.27077972 -87.77171157 24.24615852 -99.41628516 24.21605712 C-112.67371762 24.18253005 -125.93115412 24.16603135 -139.18861842 24.15097082 C-166.45912578 24.11960951 -193.72955816 24.06683839 -221 24 C-221 23.67 -221 23.34 -221 23 C-151.37 22.67 -81.74 22.34 -10 22 C-11.98 19.525 -11.98 19.525 -14 17 C-15.35339927 13.09511029 -15.42949334 9.96636002 -13.75 6.1875 C-9.69237996 1.11547495 -6.74430127 -0.66120601 0 0 Z " fill="#ED9A93" transform="translate(287,295)"/>
<path d="M0 0 C1.68216214 0.00031737 3.36434441 0.01165683 5.04638672 0.03173828 C6.37390457 0.03598312 6.37390457 0.03598312 7.72824097 0.04031372 C10.56098834 0.05152838 13.39342206 0.07663508 16.22607422 0.10205078 C18.14403841 0.11207893 20.06200755 0.12120507 21.97998047 0.12939453 C26.68713298 0.15147189 31.39405038 0.18601033 36.10107422 0.22705078 C35.31087891 0.83548828 34.52068359 1.44392578 33.70654297 2.07080078 C29.96685797 5.1657125 28.17786033 8.91372577 26.10107422 13.22705078 C24.78107422 13.22705078 23.46107422 13.22705078 22.10107422 13.22705078 C22.10107422 12.56705078 22.10107422 11.90705078 22.10107422 11.22705078 C21.44107422 11.22705078 20.78107422 11.22705078 20.10107422 11.22705078 C20.10107422 11.88705078 20.10107422 12.54705078 20.10107422 13.22705078 C18.78107422 13.22705078 17.46107422 13.22705078 16.10107422 13.22705078 C16.10107422 12.56705078 16.10107422 11.90705078 16.10107422 11.22705078 C15.44107422 11.22705078 14.78107422 11.22705078 14.10107422 11.22705078 C14.10107422 11.88705078 14.10107422 12.54705078 14.10107422 13.22705078 C5.19107422 13.22705078 -3.71892578 13.22705078 -12.89892578 13.22705078 C-12.89892578 12.56705078 -12.89892578 11.90705078 -12.89892578 11.22705078 C-13.55892578 11.22705078 -14.21892578 11.22705078 -14.89892578 11.22705078 C-14.89892578 11.88705078 -14.89892578 12.54705078 -14.89892578 13.22705078 C-15.62080078 13.04142578 -16.34267578 12.85580078 -17.08642578 12.66455078 C-20.02719551 12.20709771 -22.03995636 12.49188721 -24.89892578 13.22705078 C-24.89892578 12.23705078 -24.89892578 11.24705078 -24.89892578 10.22705078 C-24.15642578 10.00017578 -23.41392578 9.77330078 -22.64892578 9.53955078 C-19.38752987 7.98297546 -17.96997603 6.14186225 -15.89892578 3.22705078 C-15.23892578 3.55705078 -14.57892578 3.88705078 -13.89892578 4.22705078 C-14.22892578 5.21705078 -14.55892578 6.20705078 -14.89892578 7.22705078 C-14.23892578 7.22705078 -13.57892578 7.22705078 -12.89892578 7.22705078 C-12.23892578 6.56705078 -11.57892578 5.90705078 -10.89892578 5.22705078 C-10.56892578 6.21705078 -10.23892578 7.20705078 -9.89892578 8.22705078 C-10.22892578 8.55705078 -10.55892578 8.88705078 -10.89892578 9.22705078 C-10.23892578 9.55705078 -9.57892578 9.88705078 -8.89892578 10.22705078 C-8.56892578 9.23705078 -8.23892578 8.24705078 -7.89892578 7.22705078 C-6.90892578 6.89705078 -5.91892578 6.56705078 -4.89892578 6.22705078 C-5.20830078 5.29892578 -5.20830078 5.29892578 -5.52392578 4.35205078 C-5.64767578 3.65080078 -5.77142578 2.94955078 -5.89892578 2.22705078 C-3.89892578 0.22705078 -3.89892578 0.22705078 0 0 Z " fill="#FEADA3" transform="translate(244.89892578125,294.77294921875)"/>
<path d="M0 0 C16.17 0 32.34 0 49 0 C47.35 1.32 45.7 2.64 44 4 C42.81743503 5.85041705 42.81743503 5.85041705 42.1875 7.75 C41.795625 8.8225 41.40375 9.895 41 11 C40.34 11 39.68 11 39 11 C39 11.66 39 12.32 39 13 C30.09 13 21.18 13 12 13 C12 12.01 12 11.02 12 10 C11.34 10 10.68 10 10 10 C10 10.99 10 11.98 10 13 C7.03 13 4.06 13 1 13 C1 12.01 1 11.02 1 10 C1.66 9.67 2.32 9.34 3 9 C1.91215032 5.75016865 1.91215032 5.75016865 0 3 C0 2.01 0 1.02 0 0 Z " fill="#82FEBD" transform="translate(196,210)"/>
<path d="M0 0 C8.25 0 16.5 0 25 0 C24 3 24 3 22 4 C22 5.98 22 7.96 22 10 C22.66 10 23.32 10 24 10 C23.835 10.598125 23.67 11.19625 23.5 11.8125 C22.8885876 14.11344336 22.8885876 14.11344336 23 17 C22.34 17.33 21.68 17.66 21 18 C20.6278958 19.32303717 20.29369827 20.65737935 20 22 C19 23 19 23 17.14233398 23.11352539 C16.35157471 23.10828857 15.56081543 23.10305176 14.74609375 23.09765625 C13.9770874 23.09515869 13.20808105 23.09266113 12.41577148 23.09008789 C11.43294189 23.08098389 10.4501123 23.07187988 9.4375 23.0625 C4.7659375 23.0315625 4.7659375 23.0315625 0 23 C0 15.41 0 7.82 0 0 Z " fill="#FE9B91" transform="translate(66,83)"/>
<path d="M0 0 C3.34849818 2.34803226 5.48357473 5.05404971 6.5390625 9.03125 C6.82355148 12.92425704 5.99705197 15.47774561 3.625 18.4375 C0.29217909 21.69096803 -1.27747236 22.19822231 -5.8125 22.375 C-9.62620542 22.32547136 -10.75306428 22.16976831 -14 19.9375 C-16.33057888 16.51446227 -17.43234199 14.11552056 -18 10 C-16.73493818 6.00506792 -15.42091563 2.56568672 -12 0 C-7.77551488 -1.40816171 -4.26753121 -1.28461399 0 0 Z " fill="#47E090" transform="translate(254,211)"/>
<path d="M0 0 C2.70552388 2.19823815 4.44778333 3.89556667 6 7 C6.37766377 12.00404498 6.11200434 14.99885156 3 19 C0.47450701 21.81689603 -1.71884281 22.2730238 -5.375 22.5 C-10.4446815 22.3494154 -12.55877551 20.61328571 -16 17 C-17.73125121 13.53749757 -17.47815224 9.78591771 -17 6 C-12.85630473 -0.95548849 -7.48367318 -2.10770118 0 0 Z " fill="#F9BA52" transform="translate(146,126)"/>
<path d="M0 0 C10.38324014 -0.14809693 20.64523146 0.29798179 31 1 C31 2.32 31 3.64 31 5 C30.34 5.66 29.68 6.32 29 7 C28.34 7 27.68 7 27 7 C26.67 7.66 26.34 8.32 26 9 C27.32 9 28.64 9 30 9 C30 10.32 30 11.64 30 13 C28.84242188 12.98839844 27.68484375 12.97679687 26.4921875 12.96484375 C24.95312662 12.95545923 23.41406399 12.94635974 21.875 12.9375 C21.11445313 12.92912109 20.35390625 12.92074219 19.5703125 12.91210938 C15.2488005 12.89348217 11.26674272 13.22890192 7 14 C4.625 13.5625 4.625 13.5625 3 13 C3 12.01 3 11.02 3 10 C2.34 10 1.68 10 1 10 C1 10.99 1 11.98 1 13 C-0.32 13 -1.64 13 -3 13 C-2.690625 12.154375 -2.38125 11.30875 -2.0625 10.4375 C-0.98461179 6.9502146 -0.43418696 3.61822465 0 0 Z " fill="#81FDBB" transform="translate(164,210)"/>
<path d="M0 0 C7.26 0.33 14.52 0.66 22 1 C21.67 2.98 21.34 4.96 21 7 C21.99 7 22.98 7 24 7 C26.1875 8.875 26.1875 8.875 28 11 C28 11.66 28 12.32 28 13 C27.278125 12.814375 26.55625 12.62875 25.8125 12.4375 C22.8527768 11.97709861 20.88369435 12.29856083 18 13 C12 13 6 13 0 13 C0 8.71 0 4.42 0 0 Z " fill="#74FBB0" transform="translate(66,210)"/>
<path d="M0 0 C1.051875 0.185625 2.10375 0.37125 3.1875 0.5625 C6.62363423 0.95681049 8.70437302 0.73236155 12 0 C12.99 0.33 13.98 0.66 15 1 C15.33 0.67 15.66 0.34 16 0 C18.18639453 -0.07258946 20.37500389 -0.08373783 22.5625 -0.0625 C24.35880859 -0.04896484 24.35880859 -0.04896484 26.19140625 -0.03515625 C27.11824219 -0.02355469 28.04507813 -0.01195312 29 0 C29 2.97 29 5.94 29 9 C29.66 9 30.32 9 31 9 C31 9.66 31 10.32 31 11 C25.72 11 20.44 11 15 11 C16.55544811 7.88910379 18.19020355 4.96148509 20 2 C19.01 2 18.02 2 17 2 C17 2.66 17 3.32 17 4 C16.34 4 15.68 4 15 4 C14.855625 4.969375 14.71125 5.93875 14.5625 6.9375 C14 10 14 10 13 11 C10.625 11.375 10.625 11.375 8 11 C6.1875 8.5 6.1875 8.5 5 6 C4.34 6.66 3.68 7.32 3 8 C3.99 8.33 4.98 8.66 6 9 C6 9.66 6 10.32 6 11 C3.36 11 0.72 11 -2 11 C-0.50163895 7.88801935 1.19933758 4.9465385 3 2 C2.34 2 1.68 2 1 2 C1 2.66 1 3.32 1 4 C0.34 4 -0.32 4 -1 4 C-0.67 2.68 -0.34 1.36 0 0 Z " fill="#EC9790" transform="translate(25,301)"/>
<path d="M0 0 C3.27522945 2.15475621 3.90229594 3.6641423 5 7.4375 C5 11 5 11 3.625 13.9375 C0.30186066 16.54853806 -1.76370783 16.52426701 -5.87890625 16.46875 C-8.49187166 15.89129908 -9.39676847 15.11960978 -11 13 C-11.81024071 9.57205855 -12.34856361 7.07473779 -11.25 3.6875 C-8.13465377 -0.51821741 -4.87480455 -0.51313732 0 0 Z " fill="#FDFBEB" transform="translate(317,256)"/>
<path d="M0 0 C3.8425303 0.72047443 5.45767292 1.57152696 8 4.5625 C8.6598016 7.36235377 8.61636963 9.75715409 8 12.5625 C5.96260881 15.61858679 4.52656037 16.3832454 1.0625 17.5625 C-2 17.5625 -2 17.5625 -4.8125 15.75 C-7.35187354 13.21062646 -7.90325001 12.2881249 -8.375 8.75 C-8 5.5625 -8 5.5625 -5.875 2.6875 C-3 0.5625 -3 0.5625 0 0 Z " fill="#EBF4FC" transform="translate(167,170.4375)"/>
<path d="M0 0 C2.61904157 0.53863308 3.76638607 0.97425118 5.875 2.6875 C7.28719248 6.04145713 7.32519252 8.46095988 6.875 12.0625 C4.85279734 15.01802697 3.34903861 15.88731182 0 17.125 C-3.125 17.0625 -3.125 17.0625 -6.5 15.0625 C-9.125 12.0625 -9.125 12.0625 -9.8125 8.5625 C-9.125 5.0625 -9.125 5.0625 -7.125 2.0625 C-4.05807963 0.01788642 -3.45606293 -0.26143649 0 0 Z " fill="#FEF3F2" transform="translate(129.125,85.9375)"/>
<path d="M0 0 C3.34903861 1.23768818 4.85279734 2.10697303 6.875 5.0625 C7.32519252 8.66404012 7.28719248 11.08354287 5.875 14.4375 C3.2755307 16.54956881 1.19486461 17.03461356 -2.1171875 17.28515625 C-4.125 17.0625 -4.125 17.0625 -7.125 15.0625 C-9.64016 11.28976 -9.99868735 9.51036289 -9.125 5.0625 C-6.17069028 1.68614603 -4.55909952 0.09118199 0 0 Z " fill="#FEF4F3" transform="translate(285.125,297.9375)"/>
<path d="M0 0 C2.5 1.5 2.5 1.5 4 4 C4.60443392 6.80917861 4.66040854 9.19757073 4 12 C1.41832046 15.03727005 -0.12498993 15.87499856 -4.0625 16.4375 C-7.49463398 15.92633111 -8.79039533 15.70062793 -11 13 C-11.8934171 9.9566179 -12.22284093 7.16548398 -12 4 C-9.30942552 -0.79624146 -5.01612629 -0.98677894 0 0 Z " fill="#EDFBF5" transform="translate(252,214)"/>
<path d="M0 0 C3.07469523 1.70251719 5.40613254 3.81226508 7 7 C7.39431433 11.73177192 7.45299639 14.09400722 5.3125 18.375 C2.09516256 22.02711277 -0.19650435 22.76976651 -4.9375 23.375 C-8.86684549 22.89385565 -10.92648237 21.44484357 -14 19 C-16.68121076 14.97818385 -16.81344335 11.72763609 -16 7 C-12.26262691 0.28940074 -7.25088901 -1.11926475 0 0 Z M-10.375 4.625 C-12.38506043 7.56278062 -12.92733979 9.4396496 -13 13 C-11.86220128 15.32731556 -10.83159286 17.16840714 -9 19 C-5.94590807 19.43364388 -3.05083168 19.46321528 0 19 C2.814179 17.10744542 2.814179 17.10744542 4 14 C4 10.07983866 3.55226285 7.82839428 1.375 4.5625 C-2.67488297 1.89810331 -6.36908812 1.88411292 -10.375 4.625 Z " fill="#F7E64C" transform="translate(318,253)"/>
<path d="M0 0 C3.39488422 2.05107588 4.80323081 3.70484621 7 7 C7.48990241 12.19296559 6.95682924 15.66331712 4 20 C-0.01612795 22.67741863 -3.20274224 23.69960009 -8 23 C-11.6578218 20.96006092 -13.66946174 19.49580738 -16 16 C-16.73770467 11.87878449 -16.90833211 7.82024032 -15.0078125 4.01171875 C-10.93089084 -0.81379022 -5.97866043 -1.18774723 0 0 Z M-13 8 C-13.71869773 11.83305454 -13.32531424 13.43695612 -11.375 16.8125 C-8.4680222 19.48997956 -6.93559391 20 -3 20 C0.72843964 18.26655125 0.72843964 18.26655125 3 15 C3.28395581 12.06578994 3.49548029 9.84901166 3 7 C0.45767292 4.00902696 -1.1574697 3.15797443 -5 2.4375 C-9.10389613 3.20698052 -10.53959272 4.67121368 -13 8 Z " fill="#4E99F8" transform="translate(172,168)"/>
<path d="M0 0 C1.90625 0.41015625 1.90625 0.41015625 4.40625 1.91015625 C6.51761591 5.42909943 6.84862143 8.41122356 5.90625 12.41015625 C3.33252616 15.43806666 1.75378406 16.27178334 -2.15625 16.91015625 C-5.09375 16.41015625 -5.09375 16.41015625 -7.40625 14.84765625 C-9.66206266 11.58926019 -10.09375 9.36539846 -10.09375 5.41015625 C-7.71389134 0.54696681 -5.12937433 -0.3732194 0 0 Z " fill="#FDF8EF" transform="translate(142.09375,128.58984375)"/>
<path d="M0 0 C3.3 0 6.6 0 10 0 C10.495 0.99 10.495 0.99 11 2 C9.35 2.66 7.7 3.32 6 4 C6 4.99 6 5.98 6 7 C4.68 7 3.36 7 2 7 C2 7.66 2 8.32 2 9 C2.99 9.33 3.98 9.66 5 10 C-2.46135831 11.0117096 -2.46135831 11.0117096 -5.875 10.9375 C-8.22065881 10.7633169 -8.22065881 10.7633169 -10 13 C-10 12.34 -10 11.68 -10 11 C-12.91652174 10.83318891 -12.91652174 10.83318891 -16 11 C-16.66 11.66 -17.32 12.32 -18 13 C-18 12.34 -18 11.68 -18 11 C-19.670625 11.061875 -19.670625 11.061875 -21.375 11.125 C-25 11 -25 11 -27 9 C-27.66 9.66 -28.32 10.32 -29 11 C-29.66 10.01 -30.32 9.02 -31 8 C-30.67 7.01 -30.34 6.02 -30 5 C-28.948125 5.185625 -27.89625 5.37125 -26.8125 5.5625 C-23.34670804 5.96021383 -21.32426259 5.69984476 -18 5 C-15.3125 5.4375 -15.3125 5.4375 -13 6 C-12.34 6 -11.68 6 -11 6 C-10.34 5.34 -9.68 4.68 -9 4 C-8.34 4 -7.68 4 -7 4 C-6.34 3.34 -5.68 2.68 -5 2 C-4.67 2.66 -4.34 3.32 -4 4 C-2.68 4 -1.36 4 0 4 C0 2.68 0 1.36 0 0 Z " fill="#D4D8D0" transform="translate(49,291)"/>
<path d="M0 0 C1.670625 0.061875 1.670625 0.061875 3.375 0.125 C3.49875 0.90875 3.6225 1.6925 3.75 2.5 C4.16617993 5.26557822 4.16617993 5.26557822 6.375 7.125 C7.035 7.455 7.695 7.785 8.375 8.125 C10.87691281 9.3759564 12.40489568 11.15489568 14.375 13.125 C14.375 14.115 14.375 15.105 14.375 16.125 C15.625 17.875 15.625 17.875 17.375 19.125 C18.365 19.125 19.355 19.125 20.375 19.125 C21.035 22.425 21.695 25.725 22.375 29.125 C18.48693233 26.75835011 16.28669813 25.22149599 14.375 21.125 C13.715 20.795 13.055 20.465 12.375 20.125 C9.88483207 18.87991604 9.38813282 17.65783204 8.375 15.125 C7.715 15.125 7.055 15.125 6.375 15.125 C6.2925 14.50625 6.21 13.8875 6.125 13.25 C5.57505805 10.9484856 5.57505805 10.9484856 3.375 10 C2.385 9.566875 2.385 9.566875 1.375 9.125 C1.045 8.465 0.715 7.805 0.375 7.125 C-0.615 7.455 -1.605 7.785 -2.625 8.125 C-3.615 6.145 -4.605 4.165 -5.625 2.125 C-3.625 0.125 -3.625 0.125 0 0 Z M8.375 13.125 C9.375 15.125 9.375 15.125 9.375 15.125 Z " fill="#E1F5FF" transform="translate(57.625,-0.125)"/>
<path d="M0 0 C21.12 0 42.24 0 64 0 C64 0.33 64 0.66 64 1 C63.09507812 1.11214844 63.09507812 1.11214844 62.171875 1.2265625 C57.76762399 1.95113283 55.58436325 2.35720043 52.5 5.75 C51.03514366 8.92385541 50.33017956 11.53311466 50 15 C49.71125 14.360625 49.4225 13.72125 49.125 13.0625 C48.17176549 10.84793921 48.17176549 10.84793921 46 10 C46 10.99 46 11.98 46 13 C44.68 13 43.36 13 42 13 C43.231394 9.30581799 45.20791354 7.64890254 48 5 C47.505 3.515 47.505 3.515 47 2 C23.735 1.505 23.735 1.505 0 1 C0 0.67 0 0.34 0 0 Z " fill="#F5B5B0" transform="translate(66,82)"/>
<path d="M0 0 C0.598125 0.165 1.19625 0.33 1.8125 0.5 C4.45691627 1.104438 6.45687233 1.16458414 9.0625 0.375 C9.701875 0.25125 10.34125 0.1275 11 0 C13 2 13 2 13.23046875 3.91015625 C13.11111111 9.88888889 13.11111111 9.88888889 12 11 C9.625 11.3125 9.625 11.3125 7 11 C5.1875 9 5.1875 9 4 7 C3.67 7.33 3.34 7.66 3 8 C3.66 8.33 4.32 8.66 5 9 C5 9.66 5 10.32 5 11 C2.69 11 0.38 11 -2 11 C-0.50163895 7.88801935 1.19933758 4.9465385 3 2 C2.01 2 1.02 2 0 2 C0 2.66 0 3.32 0 4 C-0.66 4 -1.32 4 -2 4 C-1.34 2.68 -0.68 1.36 0 0 Z " fill="#61A6FA" transform="translate(26,173)"/>
<path d="M0 0 C1.9375 0.375 1.9375 0.375 4 1 C6.9585307 1.10476454 6.9585307 1.10476454 9.625 0.4375 C10.40875 0.293125 11.1925 0.14875 12 0 C13 1 13 1 13.25 3.3125 C12.95899829 6.44076838 12.05619793 7.68677733 10 10 C10.99 10.33 11.98 10.66 13 11 C10.69 11 8.38 11 6 11 C6.639375 10.071875 7.27875 9.14375 7.9375 8.1875 C10.08622093 5.15780057 10.08622093 5.15780057 11 2 C8.46255685 2.54708727 8.46255685 2.54708727 6 4 C5.17768475 7.01614295 5.17768475 7.01614295 5 10 C4 11 4 11 1.5 11.125 C-1 11 -1 11 -2 10 C-2.27314815 4.26388889 -2.27314815 4.26388889 -2 2 C-1.34 1.34 -0.68 0.68 0 0 Z " fill="#F2E568" transform="translate(34,258)"/>
<path d="M0 0 C1.03125 0.185625 2.0625 0.37125 3.125 0.5625 C6.76148442 0.97307082 9.45437009 0.778309 13 0 C14.50662097 3.01324195 14.17770373 5.68286377 14 9 C13.34 9.66 12.68 10.32 12 11 C10.68 11 9.36 11 8 11 C6.25 8.5 6.25 8.5 5 6 C4.34 6.66 3.68 7.32 3 8 C3.99 8.33 4.98 8.66 6 9 C6 9.66 6 10.32 6 11 C3.69 11 1.38 11 -1 11 C0.49836105 7.88801935 2.19933758 4.9465385 4 2 C2.35 2.33 0.7 2.66 -1 3 C-0.67 2.01 -0.34 1.02 0 0 Z " fill="#56E19A" transform="translate(25,216)"/>
<path d="M0 0 C3.69230769 0.69230769 3.69230769 0.69230769 5 2 C5.1328125 3.8125 5.1328125 3.8125 5.125 6 C5.12757812 6.721875 5.13015625 7.44375 5.1328125 8.1875 C5 10 5 10 4 11 C1.625 11.375 1.625 11.375 -1 11 C-2.8125 8.5 -2.8125 8.5 -4 6 C-4.33 6.66 -4.66 7.32 -5 8 C-4.34 8.33 -3.68 8.66 -3 9 C-3 9.66 -3 10.32 -3 11 C-5.31 11 -7.62 11 -10 11 C-8.66666667 8.33333333 -7.33333333 5.66666667 -6 3 C-6.66 2.67 -7.32 2.34 -8 2 C-8 2.66 -8 3.32 -8 4 C-8.66 4 -9.32 4 -10 4 C-9.67 3.01 -9.34 2.02 -9 1 C-6.33333333 1 -3.66666667 1 -1 1 C-0.67 0.67 -0.34 0.34 0 0 Z " fill="#EE8F88" transform="translate(34,88)"/>
<path d="M0 0 C1.7015625 0.2784375 1.7015625 0.2784375 3.4375 0.5625 C4.613125 0.706875 5.78875 0.85125 7 1 C7.33 0.67 7.66 0.34 8 0 C9.66617115 -0.04063832 11.33388095 -0.042721 13 0 C11.68 0.33 10.36 0.66 9 1 C9 1.66 9 2.32 9 3 C10.32 3.33 11.64 3.66 13 4 C13.625 5.875 13.625 5.875 14 8 C12 10 12 10 8.9609375 10.1953125 C7.77757812 10.17210938 6.59421875 10.14890625 5.375 10.125 C4.18648437 10.10695313 2.99796875 10.08890625 1.7734375 10.0703125 C0.85820312 10.04710938 -0.05703125 10.02390625 -1 10 C0.52360906 6.89978679 2.19821362 3.94837771 4 1 C3.01 1 2.02 1 1 1 C1 1.66 1 2.32 1 3 C0.34 3 -0.32 3 -1 3 C-0.67 2.01 -0.34 1.02 0 0 Z " fill="#E9B8B9" transform="translate(150,89)"/>
<path d="M0 0 C0.66 0.33 1.32 0.66 2 1 C1.67 1.99 1.34 2.98 1 4 C1.66 4 2.32 4 3 4 C3.66 3.34 4.32 2.68 5 2 C5.33 2.99 5.66 3.98 6 5 C5.67 5.33 5.34 5.66 5 6 C5.66 6.33 6.32 6.66 7 7 C7.33 6.01 7.66 5.02 8 4 C8.99 4 9.98 4 11 4 C11.33 5.98 11.66 7.96 12 10 C9.03 10 6.06 10 3 10 C3 9.34 3 8.68 3 8 C2.34 8 1.68 8 1 8 C1 8.66 1 9.32 1 10 C0.278125 9.814375 -0.44375 9.62875 -1.1875 9.4375 C-4.12826973 8.98004693 -6.14103058 9.26483643 -9 10 C-9 9.01 -9 8.02 -9 7 C-7.88625 6.6596875 -7.88625 6.6596875 -6.75 6.3125 C-3.48860409 4.75592468 -2.07105025 2.91481146 0 0 Z " fill="#FEB8AE" transform="translate(229,298)"/>
<path d="M0 0 C27.72 0 55.44 0 84 0 C84 0.33 84 0.66 84 1 C64.53 1 45.06 1 25 1 C24.67 1.66 24.34 2.32 24 3 C24 2.34 24 1.68 24 1 C23.113125 1.37125 22.22625 1.7425 21.3125 2.125 C17.59173995 3.10784228 16.32561865 2.76062164 13 1 C12.67 1.66 12.34 2.32 12 3 C10.68 3 9.36 3 8 3 C7.67 2.34 7.34 1.68 7 1 C4.69 1.33 2.38 1.66 0 2 C0 1.34 0 0.68 0 0 Z " fill="#D0DAD4" transform="translate(66,276)"/>
<path d="M0 0 C0 2.97 0 5.94 0 9 C0.66 9 1.32 9 2 9 C2 9.66 2 10.32 2 11 C-2.54805635 11.17835515 -5.8794254 10.99785435 -10 9 C-9.690625 8.4225 -9.38125 7.845 -9.0625 7.25 C-8.07416636 5.15705816 -7.4831387 3.25464725 -7 1 C-4.50935112 0.31292445 -2.62113708 0 0 0 Z " fill="#D7CBC2" transform="translate(54,301)"/>
<path d="M0 0 C2.97 0.495 2.97 0.495 6 1 C6 1.66 6 2.32 6 3 C6.66 3 7.32 3 8 3 C8.33 4.65 8.66 6.3 9 8 C9.99 8 10.98 8 12 8 C12.66 6.68 13.32 5.36 14 4 C14.04254356 5.99954746 14.04080783 8.00041636 14 10 C13 11 13 11 10.625 11.375 C9.75875 11.25125 8.8925 11.1275 8 11 C6.1875 8.5 6.1875 8.5 5 6 C4.34 6.66 3.68 7.32 3 8 C3.99 8.33 4.98 8.66 6 9 C6 9.66 6 10.32 6 11 C3.36 11 0.72 11 -2 11 C-0.50163895 7.88801935 1.19933758 4.9465385 3 2 C2.34 2 1.68 2 1 2 C1 2.66 1 3.32 1 4 C0.34 4 -0.32 4 -1 4 C-0.67 2.68 -0.34 1.36 0 0 Z " fill="#ED928B" transform="translate(25,301)"/>
<path d="M0 0 C4.875 0.875 4.875 0.875 6 2 C6.23728814 8.52542373 6.23728814 8.52542373 5 11 C3.02 11 1.04 11 -1 11 C-2.38550197 8.22899606 -2.1877467 6.0665294 -2 3 C-1.34 2.01 -0.68 1.02 0 0 Z " fill="#F4E65E" transform="translate(50,258)"/>
<path d="M0 0 C1.32 0 2.64 0 4 0 C4.268125 0.763125 4.53625 1.52625 4.8125 2.3125 C5.80258135 4.99059911 5.80258135 4.99059911 7.5625 6.5625 C9.30786325 8.30786325 9.67702213 9.57766594 10 12 C9 13 9 13 5.85717773 13.11352539 C4.46597303 13.11336633 3.07476239 13.10767506 1.68359375 13.09765625 C0.95253922 13.0962413 0.22148468 13.09482635 -0.53172302 13.09336853 C-2.87535632 13.08775408 -5.21889539 13.07519922 -7.5625 13.0625 C-9.14778508 13.05748686 -10.73307166 13.05292363 -12.31835938 13.04882812 C-16.2122761 13.03777997 -20.10612205 13.02050572 -24 13 C-24 12.67 -24 12.34 -24 12 C-13.66192051 10.8444462 -3.38437692 10.90223913 7 11 C6.34 10.05125 5.68 9.1025 5 8.125 C3 5 3 5 3 3 C2.01 3 1.02 3 0 3 C0 2.01 0 1.02 0 0 Z " fill="#FFFF71" transform="translate(173,263)"/>
<path d="M0 0 C2.625 0.375 2.625 0.375 5 1 C6.25 7.625 6.25 7.625 4 11 C-0.875 10.125 -0.875 10.125 -2 9 C-2.1875 5.5625 -2.1875 5.5625 -2 2 C-1.34 1.34 -0.68 0.68 0 0 Z " fill="#51E197" transform="translate(287,216)"/>
<path d="M0 0 C3.33333333 1.66666667 6.66666667 3.33333333 10 5 C10 5.66 10 6.32 10 7 C10.99 7 11.98 7 13 7 C13 7.66 13 8.32 13 9 C13.66 9 14.32 9 15 9 C15 9.66 15 10.32 15 11 C8.25576158 11.53953907 5.18330198 9.65275165 0.125 5.4375 C-1 4 -1 4 -1 1 C-0.67 0.67 -0.34 0.34 0 0 Z " fill="#A9D4E8" transform="translate(230,44)"/>
<path d="M0 0 C3.29714793 0.32971479 4.6226839 0.6226839 7 3 C6.44444444 7.55555556 6.44444444 7.55555556 5 9 C2.0625 9.1875 2.0625 9.1875 -1 9 C-1.66 8.34 -2.32 7.68 -3 7 C-2.67028521 3.70285207 -2.3773161 2.3773161 0 0 Z " fill="#DB6962" transform="translate(282,302)"/>
<path d="M0 0 C3.0625 0.1875 3.0625 0.1875 5.0625 2.1875 C4.73278521 5.48464793 4.4398161 6.8101839 2.0625 9.1875 C-1.23464793 8.85778521 -2.5601839 8.5648161 -4.9375 6.1875 C-4.21574268 0.26908996 -4.21574268 0.26908996 0 0 Z " fill="#DB6962" transform="translate(127.9375,89.8125)"/>
<path d="M0 0 C0.66 0 1.32 0 2 0 C2 2.97 2 5.94 2 9 C6.70836982 8.659873 6.70836982 8.659873 10.875 6.6875 C12.13079812 4.80380283 12.61704951 3.22111286 13 1 C11.35 1.66 9.7 2.32 8 3 C8.33 2.01 8.66 1.02 9 0 C10.98 0 12.96 0 15 0 C15.26218749 3.14624993 15.24754367 4.61837017 13.5 7.3125 C13.005 7.869375 12.51 8.42625 12 9 C12.99 9.33 13.98 9.66 15 10 C9.39 10 3.78 10 -2 10 C-2 9.34 -2 8.68 -2 8 C-1.34 8 -0.68 8 0 8 C0 6.35 0 4.7 0 3 C-0.66 2.67 -1.32 2.34 -2 2 C-1.34 1.34 -0.68 0.68 0 0 Z " fill="#F5E554" transform="translate(337,259)"/>
<path d="M0 0 C5.75 0.875 5.75 0.875 8 2 C8.625 5.0625 8.625 5.0625 9 8 C9.99 8 10.98 8 12 8 C12.33 6.35 12.66 4.7 13 3 C13.33 3 13.66 3 14 3 C14.125 5.875 14.125 5.875 14 9 C13.34 9.66 12.68 10.32 12 11 C10.0625 10.875 10.0625 10.875 8 10 C6.25 7.9375 6.25 7.9375 5 6 C4.34 6.66 3.68 7.32 3 8 C3.99 8.33 4.98 8.66 6 9 C6 9.66 6 10.32 6 11 C3.69 11 1.38 11 -1 11 C0.49836105 7.88801935 2.19933758 4.9465385 4 2 C2.35 2.33 0.7 2.66 -1 3 C-0.67 2.01 -0.34 1.02 0 0 Z " fill="#F6BE61" transform="translate(25,131)"/>
<path d="M0 0 C3.125 0.375 3.125 0.375 6 1 C6.625 3.875 6.625 3.875 7 7 C5 9 5 9 1.9375 9.1875 C-1 9 -1 9 -2 8 C-2.1875 5.0625 -2.1875 5.0625 -2 2 C-1.34 1.34 -0.68 0.68 0 0 Z " fill="#1AC979" transform="translate(246,217)"/>
<path d="M0 0 C4 2 4 2 6 4 C6.45375 3.34 6.9075 2.68 7.375 2 C7.91125 1.34 8.4475 0.68 9 0 C9.66 0 10.32 0 11 0 C11 3.3 11 6.6 11 10 C10.34 10 9.68 10 9 10 C8.67 8.68 8.34 7.36 8 6 C7.01 6.99 6.02 7.98 5 9 C4.34 8.01 3.68 7.02 3 6 C2.67 7.32 2.34 8.64 2 10 C1.34 10 0.68 10 0 10 C0 6.7 0 3.4 0 0 Z " fill="#F2E664" transform="translate(354,259)"/>
<path d="M0 0 C2.5 0.25 2.5 0.25 4.5 2.25 C4.8125 4.75 4.8125 4.75 4.5 7.25 C1.5 9.25 1.5 9.25 -1.125 8.9375 C-3.5 8.25 -3.5 8.25 -4.5 7.25 C-4.6875 4.8125 -4.6875 4.8125 -4.5 2.25 C-2.5 0.25 -2.5 0.25 0 0 Z " fill="#DECE2E" transform="translate(313.5,259.75)"/>
<path d="M0 0 C2.5 0.25 2.5 0.25 4.5 2.25 C4.125 5.375 4.125 5.375 3.5 8.25 C0.625 8.875 0.625 8.875 -2.5 9.25 C-4.5 7.25 -4.5 7.25 -4.75 4.75 C-4.40058445 1.25584452 -3.49415548 0.34941555 0 0 Z " fill="#2181E1" transform="translate(167.5,174.75)"/>
<path d="M0 0 C3.125 0.375 3.125 0.375 6 1 C6.625 3.875 6.625 3.875 7 7 C5 9 5 9 2.5 9.25 C0 9 0 9 -2 7 C-2.25 4.5 -2.25 4.5 -2 2 C-1.34 1.34 -0.68 0.68 0 0 Z " fill="#DFA135" transform="translate(138,132)"/>
<path d="M0 0 C1.65 0.33 3.3 0.66 5 1 C5.33 3.31 5.66 5.62 6 8 C6.66 8 7.32 8 8 8 C8 8.66 8 9.32 8 10 C5.03 10 2.06 10 -1 10 C-2.10191901 5.59232396 -1.58706842 4.1077065 0 0 Z " fill="#67A9F8" transform="translate(206,174)"/>
<path d="M0 0 C0.84454356 3.37817425 1.10844919 5.67465243 0 9 C-1.65 9.33 -3.3 9.66 -5 10 C-5.77842938 6.59437148 -6.09978121 3.49234244 -6 0 C-3.50907189 -1.24546405 -2.58919267 -0.7767578 0 0 Z " fill="#45E08F" transform="translate(275,217)"/>
<path d="M0 0 C1.65 0 3.3 0 5 0 C5.95024979 3.69541586 5.95024979 6.30458414 5 10 C3.35 10 1.7 10 0 10 C-1.2380014 6.42355152 -0.74926071 3.66305234 0 0 Z " fill="#ED948F" transform="translate(166,89)"/>
<path d="M0 0 C4 2 4 2 4.75 4.125 C4.8325 4.74375 4.915 5.3625 5 6 C5.66 6 6.32 6 7 6 C7.433125 4.7934375 7.433125 4.7934375 7.875 3.5625 C9 1 9 1 11 0 C11 3.3 11 6.6 11 10 C10.67 10 10.34 10 10 10 C9.67 8.35 9.34 6.7 9 5 C8.34 6.32 7.68 7.64 7 9 C6.34 9 5.68 9 5 9 C4.34 8.01 3.68 7.02 3 6 C2.67 7.65 2.34 9.3 2 11 C1.34 11 0.68 11 0 11 C0 7.37 0 3.74 0 0 Z " fill="#F17D75" transform="translate(324,301)"/>
<path d="M0 0 C-0.49831724 3.68754757 -1.10067643 5.60490662 -4 8 C-3.01 8 -2.02 8 -1 8 C0.41377341 5.36095629 1.37240135 2.92879371 2 0 C2.66 0.33 3.32 0.66 4 1 C4.125 7.75 4.125 7.75 3 10 C0.03 10 -2.94 10 -6 10 C-7 8 -7 8 -6.25 5 C-4.88706543 1.72895702 -3.77663077 0 0 0 Z " fill="#D9E0D2" transform="translate(45,260)"/>
<path d="M0 0 C0.66 1.32 1.32 2.64 2 4 C3.98 3.34 5.96 2.68 8 2 C8.33 2.99 8.66 3.98 9 5 C9.99 5 10.98 5 12 5 C12 5.66 12 6.32 12 7 C10.7934375 6.9690625 10.7934375 6.9690625 9.5625 6.9375 C7.06645115 6.70366379 7.06645115 6.70366379 6 8 C4.48071962 8.07179964 2.95832518 8.08392007 1.4375 8.0625 C0.61121094 8.05347656 -0.21507812 8.04445313 -1.06640625 8.03515625 C-1.70449219 8.02355469 -2.34257812 8.01195312 -3 8 C-3 7.01 -3 6.02 -3 5 C-2.01 5 -1.02 5 0 5 C0 3.35 0 1.7 0 0 Z " fill="#FFFEA3" transform="translate(182,258)"/>
<path d="M0 0 C1.32 0.33 2.64 0.66 4 1 C4.87890625 7.15234375 4.87890625 7.15234375 5 9 C4 10 4 10 0.9375 10.0625 C-0.031875 10.041875 -1.00125 10.02125 -2 10 C-3.10844919 6.67465243 -2.84454356 4.37817425 -2 1 C-1.67 1.99 -1.34 2.98 -1 4 C-0.01 4 0.98 4 2 4 C2 3.01 2 2.02 2 1 C1.34 0.67 0.68 0.34 0 0 Z " fill="#7EB8FB" transform="translate(51,174)"/>
<path d="M0 0 C0.66 0.33 1.32 0.66 2 1 C1.01 2.485 1.01 2.485 0 4 C1.32 4.33 2.64 4.66 4 5 C3.67 6.65 3.34 8.3 3 10 C1.02 10 -0.96 10 -3 10 C-3.75 7.8125 -3.75 7.8125 -4 5 C-2.0625 2.1875 -2.0625 2.1875 0 0 Z " fill="#F0857D" transform="translate(52,89)"/>
<path d="M0 0 C0.99 0.33 1.98 0.66 3 1 C2.34 1 1.68 1 1 1 C1.01160156 1.71027344 1.02320313 2.42054688 1.03515625 3.15234375 C1.04417969 4.07144531 1.05320312 4.99054688 1.0625 5.9375 C1.07410156 6.85402344 1.08570313 7.77054687 1.09765625 8.71484375 C1 11 1 11 0 12 C-1.34267413 12.08631874 -2.68974322 12.10706473 -4.03515625 12.09765625 C-4.84404297 12.09443359 -5.65292969 12.09121094 -6.48632812 12.08789062 C-7.33646484 12.07951172 -8.18660156 12.07113281 -9.0625 12.0625 C-9.91650391 12.05798828 -10.77050781 12.05347656 -11.65039062 12.04882812 C-13.76695663 12.03700373 -15.88348685 12.01906769 -18 12 C-18 11.67 -18 11.34 -18 11 C-17.01257813 10.97421875 -16.02515625 10.9484375 -15.0078125 10.921875 C-13.72648437 10.86515625 -12.44515625 10.8084375 -11.125 10.75 C-9.84882813 10.70359375 -8.57265625 10.6571875 -7.2578125 10.609375 C-3.95342967 10.37232706 -3.95342967 10.37232706 -2.625 8.15625 C-2.41875 7.4446875 -2.2125 6.733125 -2 6 C-1.62875 4.9275 -1.2575 3.855 -0.875 2.75 C-0.58625 1.8425 -0.2975 0.935 0 0 Z " fill="#E2E4CA" transform="translate(353,258)"/>
<path d="M0 0 C1.67542976 0.28604898 3.34385343 0.61781233 5 1 C5.75 2.625 5.75 2.625 6 5 C4.1875 8.25 4.1875 8.25 2 11 C1.34 11 0.68 11 0 11 C0.66 9.35 1.32 7.7 2 6 C1.01 6 0.02 6 -1 6 C-1.042721 4.33388095 -1.04063832 2.66617115 -1 1 C-0.67 0.67 -0.34 0.34 0 0 Z " fill="#65E2A5" transform="translate(50,216)"/>
<path d="M0 0 C0.66 0 1.32 0 2 0 C2 1.32 2 2.64 2 4 C2.66 4 3.32 4 4 4 C4.66 2.68 5.32 1.36 6 0 C6.66 0 7.32 0 8 0 C7.608125 0.886875 7.21625 1.77375 6.8125 2.6875 C5.62820892 6.00303974 5.62820892 6.00303974 7.375 8.875 C8.179375 9.926875 8.179375 9.926875 9 11 C6.53199953 9.84826645 4.95216435 8.95216435 3 7 C2.67 8.32 2.34 9.64 2 11 C1.34 11 0.68 11 0 11 C0 7.37 0 3.74 0 0 Z " fill="#F7BD5D" transform="translate(186,131)"/>
<path d="M0 0 C1.32 0.33 2.64 0.66 4 1 C4.625 2.8125 4.625 2.8125 5 5 C4.01 6.485 4.01 6.485 3 8 C3.66 8.33 4.32 8.66 5 9 C5 9.66 5 10.32 5 11 C2.69 11 0.38 11 -2 11 C-0.66666667 8.33333333 0.66666667 5.66666667 2 3 C0.68 3.33 -0.64 3.66 -2 4 C-1.34 2.68 -0.68 1.36 0 0 Z " fill="#F3E55E" transform="translate(26,258)"/>
<path d="M0 0 C0.66 0 1.32 0 2 0 C2 1.32 2 2.64 2 4 C3.32 2.68 4.64 1.36 6 0 C6.99 0.33 7.98 0.66 9 1 C7.515 2.485 7.515 2.485 6 4 C7.39759905 7.54518884 7.39759905 7.54518884 9 11 C7.0625 10.1875 7.0625 10.1875 5 9 C4.67 8.01 4.34 7.02 4 6 C3.34 6 2.68 6 2 6 C2 7.65 2 9.3 2 11 C1.34 11 0.68 11 0 11 C0 7.37 0 3.74 0 0 Z " fill="#50E196" transform="translate(305,216)"/>
<path d="M0 0 C2.86724686 0.57344937 3.8614515 0.8614515 6 3 C6.125 5.625 6.125 5.625 6 8 C5.01 8 4.02 8 3 8 C3.66 8.33 4.32 8.66 5 9 C5 9.66 5 10.32 5 11 C2.69 11 0.38 11 -2 11 C-0.50163895 7.88801935 1.19933758 4.9465385 3 2 C2.01 2 1.02 2 0 2 C0 2.66 0 3.32 0 4 C-0.66 4 -1.32 4 -2 4 C-1.34 2.68 -0.68 1.36 0 0 Z " fill="#67AAFA" transform="translate(26,173)"/>
<path d="M0 0 C2.97 0.495 2.97 0.495 6 1 C6.33 3.31 6.66 5.62 7 8 C6.34 7.34 5.68 6.68 5 6 C4.34 6.66 3.68 7.32 3 8 C3.99 8.33 4.98 8.66 6 9 C6 9.66 6 10.32 6 11 C3.69 11 1.38 11 -1 11 C0.49836105 7.88801935 2.19933758 4.9465385 4 2 C2.35 2.33 0.7 2.66 -1 3 C-0.67 2.01 -0.34 1.02 0 0 Z " fill="#5EE2A0" transform="translate(25,216)"/>
<path d="M0 0 C0.99 0 1.98 0 3 0 C3.33 3.63 3.66 7.26 4 11 C2.02 11 0.04 11 -2 11 C-2 10.34 -2 9.68 -2 9 C-1.34 9 -0.68 9 0 9 C0 7.35 0 5.7 0 4 C-0.66 4 -1.32 4 -2 4 C-1.34 2.68 -0.68 1.36 0 0 Z " fill="#64E2A4" transform="translate(43,216)"/>
<path d="M0 0 C2.97 0.495 2.97 0.495 6 1 C5.67 3.31 5.34 5.62 5 8 C3.0625 8.5625 3.0625 8.5625 1 9 C0 8 0 8 -0.09765625 6.15234375 C-0.06510417 4.1015625 -0.03255208 2.05078125 0 0 Z " fill="#F2C578" transform="translate(33,131)"/>
<path d="M0 0 C2.375 -0.1875 2.375 -0.1875 5 0 C7 3 7 3 6.625 5.1875 C6.41875 5.785625 6.2125 6.38375 6 7 C5.67 6.34 5.34 5.68 5 5 C4.67 5.66 4.34 6.32 4 7 C4.66 7.33 5.32 7.66 6 8 C6 8.66 6 9.32 6 10 C3.69 10 1.38 10 -1 10 C0.33333333 7.33333333 1.66666667 4.66666667 3 2 C2.34 1.67 1.68 1.34 1 1 C1 1.66 1 2.32 1 3 C0.34 3 -0.32 3 -1 3 C-0.67 2.01 -0.34 1.02 0 0 Z " fill="#EE9089" transform="translate(25,89)"/>
<path d="M0 0 C0.66 0 1.32 0 2 0 C2.33 0.99 2.66 1.98 3 3 C3.99 2.01 4.98 1.02 6 0 C6.66 0.33 7.32 0.66 8 1 C7.34 1.66 6.68 2.32 6 3 C6.26676204 4.98491642 6.26676204 4.98491642 7 7 C7.33 7.99 7.66 8.98 8 10 C6.68 9.34 5.36 8.68 4 8 C4 7.34 4 6.68 4 6 C3.34 6 2.68 6 2 6 C2 7.32 2 8.64 2 10 C1.34 10 0.68 10 0 10 C0 6.7 0 3.4 0 0 Z " fill="#F08279" transform="translate(185,89)"/>
<path d="M0 0 C1.65 0 3.3 0 5 0 C5.6875 2.25 5.6875 2.25 6 5 C4.5625 7.3125 4.5625 7.3125 3 9 C4.32 9 5.64 9 7 9 C7 9.66 7 10.32 7 11 C4.36 11 1.72 11 -1 11 C0.49836105 7.88801935 2.19933758 4.9465385 4 2 C2.68 2.33 1.36 2.66 0 3 C0 2.01 0 1.02 0 0 Z " fill="#F0877E" transform="translate(41,301)"/>
<path d="M0 0 C0.66 0 1.32 0 2 0 C2 1.32 2 2.64 2 4 C2.66 4 3.32 4 4 4 C4.66 2.68 5.32 1.36 6 0 C6.66 0.33 7.32 0.66 8 1 C7.608125 1.7425 7.21625 2.485 6.8125 3.25 C6.544375 4.1575 6.27625 5.065 6 6 C7.26352052 8.32511472 7.26352052 8.32511472 9 10 C6.50638429 8.79618552 4.31856917 7.54571278 2 6 C2 7.32 2 8.64 2 10 C1.34 10 0.68 10 0 10 C0 6.7 0 3.4 0 0 Z " fill="#55A0FA" transform="translate(224,174)"/>
<path d="M0 0 C0.99 0 1.98 0 3 0 C3 2.97 3 5.94 3 9 C3.66 9 4.32 9 5 9 C5 9.66 5 10.32 5 11 C2.69 11 0.38 11 -2 11 C-2 10.34 -2 9.68 -2 9 C-1.01 9 -0.02 9 1 9 C0.67 7.35 0.34 5.7 0 4 C-0.66 4 -1.32 4 -2 4 C-1.34 2.68 -0.68 1.36 0 0 Z " fill="#EE8E86" transform="translate(51,301)"/>
<path d="M0 0 C0.99 0.33 1.98 0.66 3 1 C4.2684375 0.7215625 4.2684375 0.7215625 5.5625 0.4375 C6.7690625 0.2209375 6.7690625 0.2209375 8 0 C8.66 0.66 9.32 1.32 10 2 C7 4 7 4 4 4 C3.67 4.66 3.34 5.32 3 6 C2.01 5.34 1.02 4.68 0 4 C0 4.66 0 5.32 0 6 C-0.66 6 -1.32 6 -2 6 C-2 4.35 -2 2.7 -2 1 C-1.34 0.67 -0.68 0.34 0 0 Z " fill="#D5DAD1" transform="translate(2,295)"/>
<path d="M0 0 C1.65 0.33 3.3 0.66 5 1 C4.45276317 4.37462715 3.9451 6.08235 2 9 C2.99 9 3.98 9 5 9 C5 9.66 5 10.32 5 11 C2.69 11 0.38 11 -2 11 C-0.50163895 7.88801935 1.19933758 4.9465385 3 2 C1.68 2.33 0.36 2.66 -1 3 C-0.67 2.01 -0.34 1.02 0 0 Z " fill="#F7BD5F" transform="translate(171,131)"/>
<path d="M0 0 C1.65 0.33 3.3 0.66 5 1 C5 3.97 5 6.94 5 10 C3.35 10.33 1.7 10.66 0 11 C-0.66 10.01 -1.32 9.02 -2 8 C0.475 8.495 0.475 8.495 3 9 C3 8.01 3 7.02 3 6 C2.34 6 1.68 6 1 6 C1 5.34 1 4.68 1 4 C1.66 4 2.32 4 3 4 C3 3.34 3 2.68 3 2 C1.35 2.33 -0.3 2.66 -2 3 C-1.34 2.01 -0.68 1.02 0 0 Z " fill="#F7BD5D" transform="translate(163,131)"/>
<path d="M0 0 C1.65 0.33 3.3 0.66 5 1 C5.9765625 7.0546875 5.9765625 7.0546875 6 9 C5.34 9.66 4.68 10.32 4 11 C1.375 10.625 1.375 10.625 -1 10 C-0.67 9.34 -0.34 8.68 0 8 C1.98 8.495 1.98 8.495 4 9 C4 8.01 4 7.02 4 6 C3.01 5.67 2.02 5.34 1 5 C1.99 4.67 2.98 4.34 4 4 C4 3.34 4 2.68 4 2 C2.35 2.33 0.7 2.66 -1 3 C-0.67 2.01 -0.34 1.02 0 0 Z " fill="#50E197" transform="translate(298,216)"/>
<path d="M0 0 C1.98 0 3.96 0 6 0 C4.68 0.33 3.36 0.66 2 1 C2 1.66 2 2.32 2 3 C3.32 3.66 4.64 4.32 6 5 C5.67 6.65 5.34 8.3 5 10 C3.02 10 1.04 10 -1 10 C-1 9.34 -1 8.68 -1 8 C0.65 8 2.3 8 4 8 C4 7.01 4 6.02 4 5 C2.68 5 1.36 5 0 5 C0 3.35 0 1.7 0 0 Z " fill="#5EA4F9" transform="translate(197,174)"/>
<path d="M0 0 C0.99 0 1.98 0 3 0 C3.33 1.98 3.66 3.96 4 6 C1.03 6 -1.94 6 -5 6 C-5 5.01 -5 4.02 -5 3 C-3.68 3 -2.36 3 -1 3 C-0.67 2.01 -0.34 1.02 0 0 Z " fill="#FEC5BD" transform="translate(237,302)"/>
<path d="M0 0 C0.66 0 1.32 0 2 0 C3.125 6.625 3.125 6.625 2 10 C1.34 10 0.68 10 0 10 C0 9.01 0 8.02 0 7 C-1.32 7 -2.64 7 -4 7 C-2.92598892 4.08482708 -2.22189824 2.22189824 0 0 Z " fill="#60A4F8" transform="translate(192,174)"/>
<path d="M0 0 C4.75 1.875 4.75 1.875 7 3 C7 3.66 7 4.32 7 5 C6.38125 5.12375 5.7625 5.2475 5.125 5.375 C2.80879168 5.87197356 2.80879168 5.87197356 1 8 C1 7.34 1 6.68 1 6 C0.01 6 -0.98 6 -2 6 C-1.49396008 3.83125748 -1.00016187 2.00032373 0 0 Z M-1 8 C1 9 1 9 1 9 Z " fill="#A2D0FE" transform="translate(110,175)"/>
<path d="M0 0 C2 2 2 2 2 4 C2.66 4.33 3.32 4.66 4 5 C4 5.99 4 6.98 4 8 C1.03 8 -1.94 8 -5 8 C-5 7.01 -5 6.02 -5 5 C-4.01 4.67 -3.02 4.34 -2 4 C-0.79117904 1.99983534 -0.79117904 1.99983534 0 0 Z " fill="#FEC0B9" transform="translate(137,300)"/>
<path d="M0 0 C0.12375 0.5775 0.2475 1.155 0.375 1.75 C1.00648824 4.02335767 1.88858191 5.9253529 3 8 C2.34 8.66 1.68 9.32 1 10 C-0.98 8.35 -2.96 6.7 -5 5 C-4 2 -4 2 -1.9375 0.8125 C-1.298125 0.544375 -0.65875 0.27625 0 0 Z " fill="#E1F5FE" transform="translate(84,27)"/>
<path d="M0 0 C2.97 0.495 2.97 0.495 6 1 C5.4409112 4.24271506 4.5867822 5.93057424 2 8 C1.34 8 0.68 8 0 8 C-0.79953138 4.71303767 -1.09658936 3.28976808 0 0 Z " fill="#E1E8E5" transform="translate(168,132)"/>
<path d="M0 0 C2.64 0 5.28 0 8 0 C6.78065514 4.03321763 5.44045073 7.54269479 3 11 C2.34 11 1.68 11 1 11 C2.19899698 7.9168649 3.47700477 4.93720508 5 2 C3.35 2 1.7 2 0 2 C0 1.34 0 0.68 0 0 Z " fill="#F5BF65" transform="translate(48,131)"/>
<path d="M0 0 C0.66 0 1.32 0 2 0 C2 2.97 2 5.94 2 9 C2.66 9 3.32 9 4 9 C4 9.66 4 10.32 4 11 C2.02 11 0.04 11 -2 11 C-2 10.34 -2 9.68 -2 9 C-1.34 9 -0.68 9 0 9 C0 7.35 0 5.7 0 4 C-0.66 4 -1.32 4 -2 4 C-1.34 2.68 -0.68 1.36 0 0 Z " fill="#F4C26D" transform="translate(43,131)"/>
<path d="M0 0 C0.66 0 1.32 0 2 0 C2 2.97 2 5.94 2 9 C2.66 9 3.32 9 4 9 C4 9.66 4 10.32 4 11 C2.02 11 0.04 11 -2 11 C-2 10.34 -2 9.68 -2 9 C-1.34 9 -0.68 9 0 9 C-0.2475 7.8553125 -0.2475 7.8553125 -0.5 6.6875 C-1 4 -1 4 -1 1 C-0.67 0.67 -0.34 0.34 0 0 Z " fill="#EF8981" transform="translate(308,301)"/>
<path d="M0 0 C0.66 0 1.32 0 2 0 C2 2.97 2 5.94 2 9 C2.66 9 3.32 9 4 9 C4 9.66 4 10.32 4 11 C2.02 11 0.04 11 -2 11 C-2 10.34 -2 9.68 -2 9 C-1.34 9 -0.68 9 0 9 C-0.2475 7.8553125 -0.2475 7.8553125 -0.5 6.6875 C-1 4 -1 4 -1 1 C-0.67 0.67 -0.34 0.34 0 0 Z " fill="#F0867E" transform="translate(319,301)"/>
<path d="M0 0 C0.66 0 1.32 0 2 0 C2 0.66 2 1.32 2 2 C2.66 2 3.32 2 4 2 C4 3.65 4 5.3 4 7 C0.86650268 8.04449911 0.01031744 7.93423645 -3 7 C-2.690625 6.401875 -2.38125 5.80375 -2.0625 5.1875 C-0.89790296 2.91043228 -0.89790296 2.91043228 0 0 Z " fill="#DEECF1" transform="translate(176,133)"/>
<path d="M0 0 C0.66 0 1.32 0 2 0 C2 2.97 2 5.94 2 9 C2.66 9 3.32 9 4 9 C4 9.66 4 10.32 4 11 C2.02 11 0.04 11 -2 11 C-2 10.34 -2 9.68 -2 9 C-1.34 9 -0.68 9 0 9 C0 7.02 0 5.04 0 3 C-0.66 2.67 -1.32 2.34 -2 2 C-1.34 1.34 -0.68 0.68 0 0 Z " fill="#F6C16A" transform="translate(181,131)"/>
<path d="M0 0 C1.65 0 3.3 0 5 0 C5.75 1.6875 5.75 1.6875 6 4 C4.0625 6.75 4.0625 6.75 2 9 C3.32 9.33 4.64 9.66 6 10 C3.69 10 1.38 10 -1 10 C0.49836105 6.88801935 2.19933758 3.9465385 4 1 C3.01 1 2.02 1 1 1 C1 1.66 1 2.32 1 3 C0.34 3 -0.32 3 -1 3 C-0.67 2.01 -0.34 1.02 0 0 Z " fill="#F08077" transform="translate(150,89)"/>
<path d="M0 0 C2.31 0 4.62 0 7 0 C6.39301257 4.12751449 4.96189209 7.3321148 3 11 C2.34 11 1.68 11 1 11 C2.875 5.25 2.875 5.25 4 3 C2.68 2.67 1.36 2.34 0 2 C0 1.34 0 0.68 0 0 Z " fill="#52E197" transform="translate(277,216)"/>
<path d="M0 0 C1.65 0 3.3 0 5 0 C5.19412181 1.47831221 5.38012131 2.95769316 5.5625 4.4375 C5.66691406 5.26121094 5.77132812 6.08492187 5.87890625 6.93359375 C5.91886719 7.61550781 5.95882812 8.29742187 6 9 C5 10 5 10 2.4375 10.0625 C1.633125 10.041875 0.82875 10.02125 0 10 C0 9.01 0 8.02 0 7 C0.99 7.33 1.98 7.66 3 8 C2.67 6.68 2.34 5.36 2 4 C2.66 4 3.32 4 4 4 C4 3.01 4 2.02 4 1 C3.01 1 2.02 1 1 1 C1 1.66 1 2.32 1 3 C0.34 3 -0.32 3 -1 3 C-0.67 2.01 -0.34 1.02 0 0 Z " fill="#4E9AF8" transform="translate(217,174)"/>
<path d="M0 0 C2.91387197 0.2913872 3.82565583 0.79452294 5.75 3.0625 C6.1625 3.701875 6.575 4.34125 7 5 C6.01 5.495 6.01 5.495 5 6 C4.01 7.485 4.01 7.485 3 9 C1.66666667 6.33333333 0.33333333 3.66666667 -1 1 C-0.67 0.67 -0.34 0.34 0 0 Z " fill="#E1F4FE" transform="translate(95,41)"/>
<path d="M0 0 C1.32 0 2.64 0 4 0 C4.268125 0.763125 4.53625 1.52625 4.8125 2.3125 C5.79559745 5.01789666 5.79559745 5.01789666 7.6875 6.5625 C8.120625 7.036875 8.55375 7.51125 9 8 C8.58203125 10.08984375 8.58203125 10.08984375 8 12 C7.16094435 10.87926138 6.32892169 9.75325453 5.5 8.625 C4.80390625 7.68527344 4.80390625 7.68527344 4.09375 6.7265625 C3 5 3 5 3 3 C2.01 3 1.02 3 0 3 C0 2.01 0 1.02 0 0 Z " fill="#FFFE8F" transform="translate(173,263)"/>
<path d="M0 0 C0.33 0 0.66 0 1 0 C2.84974093 5.19689119 2.84974093 5.19689119 3 8 C0.625 11 0.625 11 -2 13 C-2 12.34 -2 11.68 -2 11 C-2.99 10.67 -3.98 10.34 -5 10 C-4.360625 9.649375 -3.72125 9.29875 -3.0625 8.9375 C-0.17836168 6.22815794 -0.2899178 3.84141089 0 0 Z " fill="#52E198" transform="translate(256,219)"/>
<path d="M0 0 C1.65 0 3.3 0 5 0 C5 2.97 5 5.94 5 9 C3.35 9.33 1.7 9.66 0 10 C0 9.01 0 8.02 0 7 C0.99 7.33 1.98 7.66 3 8 C3 7.34 3 6.68 3 6 C2.34 5.34 1.68 4.68 1 4 C1.66 3.34 2.32 2.68 3 2 C1.68 2.33 0.36 2.66 -1 3 C-0.67 2.01 -0.34 1.02 0 0 Z " fill="#F17D74" transform="translate(178,89)"/>
<path d="M0 0 C1.32 0 2.64 0 4 0 C4.26218749 3.14624993 4.24754367 4.61837017 2.5 7.3125 C1.7575 8.1478125 1.7575 8.1478125 1 9 C1.99 9.33 2.98 9.66 4 10 C1.69 10 -0.62 10 -3 10 C-2.0409375 8.6078125 -2.0409375 8.6078125 -1.0625 7.1875 C1.08622093 4.15780057 1.08622093 4.15780057 2 1 C1.34 0.67 0.68 0.34 0 0 Z " fill="#F6E650" transform="translate(43,259)"/>
<path d="M0 0 C2 1.3125 2 1.3125 4 3 C4 3.99 4 4.98 4 6 C2.02 6.33 0.04 6.66 -2 7 C-2.6875 5.1875 -2.6875 5.1875 -3 3 C-1.5625 1.25 -1.5625 1.25 0 0 Z " fill="#D4E9F3" transform="translate(344,184)"/>
<path d="M0 0 C2.475 0.99 2.475 0.99 5 2 C4.01 2.495 4.01 2.495 3 3 C3.66 4.65 4.32 6.3 5 8 C3.35 8 1.7 8 0 8 C0 5.36 0 2.72 0 0 Z " fill="#C5C5B9" transform="translate(119,392)"/>
<path d="M0 0 C3.3 0 6.6 0 10 0 C9.67 0.99 9.34 1.98 9 3 C5.7 3 2.4 3 -1 3 C-0.67 2.01 -0.34 1.02 0 0 Z " fill="#FECDC7" transform="translate(144,305)"/>
<path d="M0 0 C0.66 0.33 1.32 0.66 2 1 C2.125 7.75 2.125 7.75 1 10 C-1.64 10 -4.28 10 -7 10 C-6.38125 9.7525 -5.7625 9.505 -5.125 9.25 C-1.96407491 7.3906323 -1.32893668 5.18417205 -0.375 1.75 C-0.25125 1.1725 -0.1275 0.595 0 0 Z " fill="#E3E2B5" transform="translate(47,260)"/>
<path d="M0 0 C2.475 0.99 2.475 0.99 5 2 C5 3.32 5 4.64 5 6 C3.35 6 1.7 6 0 6 C-1.125 2.25 -1.125 2.25 0 0 Z " fill="#EAA8A5" transform="translate(166,93)"/>
<path d="M0 0 C0.125 2.875 0.125 2.875 0 6 C-0.66 6.66 -1.32 7.32 -2 8 C-2.268125 7.360625 -2.53625 6.72125 -2.8125 6.0625 C-3.88667752 3.66868314 -3.88667752 3.66868314 -7 3 C-7 2.34 -7 1.68 -7 1 C-4.50935112 0.31292445 -2.62113708 0 0 0 Z " fill="#E3DEE4" transform="translate(166,89)"/>
<path d="M0 0 C2.31 0.33 4.62 0.66 7 1 C6.67 1.99 6.34 2.98 6 4 C6.33 4.99 6.66 5.98 7 7 C4 7 4 7 2 6 C1.27306096 4.02111039 0.60183749 2.02045442 0 0 Z " fill="#E1F4FE" transform="translate(87,35)"/>
<path d="M0 0 C0.66 0 1.32 0 2 0 C2 2.97 2 5.94 2 9 C2.66 9.33 3.32 9.66 4 10 C2.02 10 0.04 10 -2 10 C-1.34 9.67 -0.68 9.34 0 9 C0 7.02 0 5.04 0 3 C-0.66 2.67 -1.32 2.34 -2 2 C-1.34 1.34 -0.68 0.68 0 0 Z " fill="#5BA1F9" transform="translate(43,174)"/>
<path d="M0 0 C0.99 0.33 1.98 0.66 3 1 C3 2.98 3 4.96 3 7 C1.68 7 0.36 7 -1 7 C-1.04254356 5.00045254 -1.04080783 2.99958364 -1 1 C-0.67 0.67 -0.34 0.34 0 0 Z " fill="#DBE0CD" transform="translate(51,260)"/>
<path d="M0 0 C1.32 0.33 2.64 0.66 4 1 C4 2.65 4 4.3 4 6 C2.68 6.33 1.36 6.66 0 7 C0 4.69 0 2.38 0 0 Z " fill="#CCE7E6" transform="translate(287,218)"/>
<path d="M0 0 C2.31 0.66 4.62 1.32 7 2 C6.67 2.99 6.34 3.98 6 5 C4.02 5 2.04 5 0 5 C-0.33 4.01 -0.66 3.02 -1 2 C-0.67 1.34 -0.34 0.68 0 0 Z " fill="#C2D7D5" transform="translate(336,395)"/>
<path d="M0 0 C0.99 0.33 1.98 0.66 3 1 C2.67 4.3 2.34 7.6 2 11 C1.34 11 0.68 11 0 11 C0 7.37 0 3.74 0 0 Z " fill="#ED8E86" transform="translate(324,301)"/>
<path d="M0 0 C2.97 0 5.94 0 9 0 C9 0.99 9 1.98 9 3 C6.03 3 3.06 3 0 3 C0 2.01 0 1.02 0 0 Z " fill="#C0FEDD" transform="translate(197,220)"/>
<path d="M0 0 C1.32 0.33 2.64 0.66 4 1 C4 3.31 4 5.62 4 8 C3.67 7.34 3.34 6.68 3 6 C0.47266765 5.34444881 0.47266765 5.34444881 -2 5 C-1.67 3.68 -1.34 2.36 -1 1 C-1 1.99 -1 2.98 -1 4 C-0.01 4 0.98 4 2 4 C2 3.01 2 2.02 2 1 C1.34 0.67 0.68 0.34 0 0 Z " fill="#569EF9" transform="translate(51,174)"/>
<path d="M0 0 C0.33 0 0.66 0 1 0 C1.33 1.65 1.66 3.3 2 5 C2.99 5 3.98 5 5 5 C5.66 3.68 6.32 2.36 7 1 C7.04254356 2.99954746 7.04080783 5.00041636 7 7 C6 8 6 8 3.4375 8.0625 C2.633125 8.041875 1.82875 8.02125 1 8 C-0.35439668 5.29120665 -0.06501451 2.99066732 0 0 Z " fill="#F0857D" transform="translate(32,304)"/>
<path d="M0 0 C1.98 0 3.96 0 6 0 C6.6875 1.8125 6.6875 1.8125 7 4 C5.5625 5.75 5.5625 5.75 4 7 C3.566875 6.0409375 3.566875 6.0409375 3.125 5.0625 C2.17176549 2.84793921 2.17176549 2.84793921 0 2 C0 1.34 0 0.68 0 0 Z " fill="#C9E4F7" transform="translate(199,175)"/>
<path d="M0 0 C0.66 0.33 1.32 0.66 2 1 C1.67 2.65 1.34 4.3 1 6 C-1.475 5.01 -1.475 5.01 -4 4 C-3.67 3.01 -3.34 2.02 -3 1 C-2.01 0.67 -1.02 0.34 0 0 Z " fill="#E8B7B6" transform="translate(54,93)"/>
<path d="M0 0 C0 0.66 0 1.32 0 2 C-4.455 2.495 -4.455 2.495 -9 3 C-9 2.01 -9 1.02 -9 0 C-5.62182575 -0.84454356 -3.32534757 -1.10844919 0 0 Z " fill="#FFFEB8" transform="translate(129,263)"/>
<path d="M0 0 C0.99 0 1.98 0 3 0 C2.43628586 3.26954202 1.50037734 4.82575883 -1 7 C-1.66 6.67 -2.32 6.34 -3 6 C-2.67 4.68 -2.34 3.36 -2 2 C-1.34 2 -0.68 2 0 2 C0 1.34 0 0.68 0 0 Z " fill="#D5D1C6" transform="translate(42,303)"/>
<path d="M0 0 C1.65 0 3.3 0 5 0 C5 1.65 5 3.3 5 5 C3.35 4.67 1.7 4.34 0 4 C0 2.68 0 1.36 0 0 Z " fill="#89E4BB" transform="translate(269,222)"/>
<path d="M0 0 C0.33 0 0.66 0 1 0 C1 3.3 1 6.6 1 10 C1.99 10 2.98 10 4 10 C4 10.99 4 11.98 4 13 C2.68 13 1.36 13 0 13 C0 8.71 0 4.42 0 0 Z " fill="#97FDC5" transform="translate(66,210)"/>
<path d="M0 0 C1.67542976 0.28604898 3.34385343 0.61781233 5 1 C4.67 1.99 4.34 2.98 4 4 C1.9375 4.6875 1.9375 4.6875 0 5 C-0.5625 3.0625 -0.5625 3.0625 -1 1 C-0.67 0.67 -0.34 0.34 0 0 Z " fill="#94C5F8" transform="translate(205,179)"/>
<path d="M0 0 C0.99 0 1.98 0 3 0 C3 2.31 3 4.62 3 7 C2.01 7 1.02 7 0 7 C0 4.69 0 2.38 0 0 Z " fill="#CBE7FD" transform="translate(34,175)"/>
<path d="M0 0 C0.99 0 1.98 0 3 0 C3 2.31 3 4.62 3 7 C2.01 7 1.02 7 0 7 C0 4.69 0 2.38 0 0 Z " fill="#DEE7F3" transform="translate(34,90)"/>
<path d="M0 0 C0.99 0 1.98 0 3 0 C3 2.31 3 4.62 3 7 C2.01 7 1.02 7 0 7 C0 4.69 0 2.38 0 0 Z " fill="#D7D3C8" transform="translate(34,303)"/>
<path d="M0 0 C0.33 0 0.66 0 1 0 C1.25 2.3125 1.25 2.3125 1 5 C-1 6.8125 -1 6.8125 -3 8 C-3.33 6.68 -3.66 5.36 -4 4 C-3.34 4 -2.68 4 -2 4 C-1.34 2.68 -0.68 1.36 0 0 Z " fill="#CFD3CC" transform="translate(62,303)"/>
<path d="M0 0 C0.99 0 1.98 0 3 0 C3 2.31 3 4.62 3 7 C2.01 7 1.02 7 0 7 C0 4.69 0 2.38 0 0 Z " fill="#CDE8EF" transform="translate(34,218)"/>
<path d="M0 0 C0.66 0.66 1.32 1.32 2 2 C0.02 2.99 0.02 2.99 -2 4 C-2 4.99 -2 5.98 -2 7 C-3.32 7 -4.64 7 -6 7 C-5.34 5.35 -4.68 3.7 -4 2 C-3.01 2 -2.02 2 -1 2 C-0.67 1.34 -0.34 0.68 0 0 Z " fill="#A1FDCC" transform="translate(167,216)"/>
<path d="M0 0 C1.32 0 2.64 0 4 0 C4 1.65 4 3.3 4 5 C2.68 5.33 1.36 5.66 0 6 C0 4.02 0 2.04 0 0 Z " fill="#C5E3FD" transform="translate(39,177)"/>
<path d="M0 0 C0.99 0 1.98 0 3 0 C3 2.31 3 4.62 3 7 C2.01 7 1.02 7 0 7 C0 4.69 0 2.38 0 0 Z " fill="#D4EBF5" transform="translate(34,133)"/>
<path d="M0 0 C0.33 1.32 0.66 2.64 1 4 C2.65 4 4.3 4 6 4 C6 4.99 6 5.98 6 7 C4.35 7 2.7 7 1 7 C0.67 4.69 0.34 2.38 0 0 Z " fill="#D9EBF8" transform="translate(195,175)"/>
<path d="M0 0 C0.66 0.33 1.32 0.66 2 1 C2 2.98 2 4.96 2 7 C1.01 7 0.02 7 -1 7 C-1.04254356 5.00045254 -1.04080783 2.99958364 -1 1 C-0.67 0.67 -0.34 0.34 0 0 Z " fill="#D5E0E1" transform="translate(35,260)"/>
<path d="M0 0 C0.33 0.66 0.66 1.32 1 2 C0.67 2.66 0.34 3.32 0 4 C-0.66 4 -1.32 4 -2 4 C-2 4.99 -2 5.98 -2 7 C-3.32 7 -4.64 7 -6 7 C-4.77065985 3.31197956 -3.06140622 2.27643027 0 0 Z " fill="#FEC2B9" transform="translate(114,88)"/>
<path d="M0 0 C0.99 0.33 1.98 0.66 3 1 C3 1.99 3 2.98 3 4 C2.34 4 1.68 4 1 4 C1.33 5.98 1.66 7.96 2 10 C1.34 10 0.68 10 0 10 C0 6.7 0 3.4 0 0 Z " fill="#F8E642" transform="translate(354,259)"/>
<path d="M0 0 C0 1.32 0 2.64 0 4 C-1.65 4 -3.3 4 -5 4 C-5 3.01 -5 2.02 -5 1 C-3 0 -3 0 0 0 Z " fill="#79E3B1" transform="translate(274,216)"/>
<path d="M0 0 C0 0.66 0 1.32 0 2 C-2.64 2 -5.28 2 -8 2 C-8 1.34 -8 0.68 -8 0 C-4.71023192 -1.09658936 -3.28696233 -0.79953138 0 0 Z " fill="#EF8A82" transform="translate(31,310)"/>
<path d="M0 0 C0.66 0 1.32 0 2 0 C2 3.3 2 6.6 2 10 C1.67 10 1.34 10 1 10 C1 8.02 1 6.04 1 4 C0.34 4 -0.32 4 -1 4 C-0.67 2.68 -0.34 1.36 0 0 Z " fill="#F8E641" transform="translate(363,259)"/>
<path d="M0 0 C1.32 0.33 2.64 0.66 4 1 C3.34 2.32 2.68 3.64 2 5 C2 4.34 2 3.68 2 3 C0.68 3.33 -0.64 3.66 -2 4 C-1.34 2.68 -0.68 1.36 0 0 Z " fill="#F0E573" transform="translate(26,258)"/>
<path d="M0 0 C0.33 0.66 0.66 1.32 1 2 C2.32 2 3.64 2 5 2 C5 2.66 5 3.32 5 4 C2.69 4 0.38 4 -2 4 C-1.34 2.68 -0.68 1.36 0 0 Z " fill="#4CE194" transform="translate(26,223)"/>
<path d="M0 0 C0.99 0 1.98 0 3 0 C3 1.65 3 3.3 3 5 C1.68 5.33 0.36 5.66 -1 6 C-0.67 4.02 -0.34 2.04 0 0 Z " fill="#DEECF8" transform="translate(40,92)"/>
</svg>
