<?xml version="1.0" encoding="UTF-8"?>
<svg version="1.1" xmlns="http://www.w3.org/2000/svg" width="400" height="400">
<path d="M0 0 C132 0 264 0 400 0 C400 132 400 264 400 400 C268 400 136 400 0 400 C0 268 0 136 0 0 Z " fill="#F3F0FE" transform="translate(0,0)"/>
<path d="M0 0 C4.63145553 2.32070783 7.13716073 5.5114922 9.06640625 10.34765625 C9.58880342 13.86829808 9.53438484 17.32230034 9.45703125 20.875 C9.45137146 21.86391739 9.44571167 22.85283478 9.43988037 23.87171936 C9.4176064 27.01003768 9.36742623 30.14718682 9.31640625 33.28515625 C9.29632967 35.42120739 9.27808093 37.55727655 9.26171875 39.69335938 C9.21777136 44.91185285 9.15094995 50.12967099 9.06640625 55.34765625 C9.70578125 55.65703125 10.34515625 55.96640625 11.00390625 56.28515625 C13.06640625 57.34765625 13.06640625 57.34765625 14.06640625 58.34765625 C14.65243396 64.55955001 14.65243396 64.55955001 12.25390625 67.78515625 C10.06640625 69.34765625 10.06640625 69.34765625 7.06640625 69.34765625 C7.0728588 69.92743036 7.07931135 70.50720448 7.08595943 71.1045475 C7.24116318 85.27108389 7.3566817 99.4374914 7.42909145 113.60470009 C7.46504751 120.45618015 7.51398655 127.30708958 7.59448242 134.15820312 C7.67222596 140.77826947 7.71247609 147.39790188 7.73054695 154.01844406 C7.74341375 156.53569198 7.76853907 159.05291002 7.80651665 161.56990433 C8.17109082 186.74916757 8.17109082 186.74916757 0.06640625 198.34765625 C-0.67981967 199.46521781 -1.42374371 200.58432001 -2.16529846 201.70498657 C-2.74883591 202.57706757 -3.33237335 203.44914856 -3.93359375 204.34765625 C-6.31799896 203.97540733 -7.59355267 203.73776473 -9.20703125 201.88671875 C-9.97760594 200.5477769 -10.73951966 199.20383016 -11.49484825 197.85622883 C-12.45354282 196.18466502 -13.44853695 194.53340188 -14.47849464 192.90478039 C-18.69413253 185.93032723 -19.78287399 180.61508353 -19.61474609 172.54223633 C-19.61606033 170.85733597 -19.61606033 170.85733597 -19.61740112 169.13839722 C-19.61325559 165.46392739 -19.56674358 161.7913343 -19.51953125 158.1171875 C-19.50832842 155.55459083 -19.49979338 152.99198123 -19.49380493 150.42936707 C-19.47331811 144.39802446 -19.42614118 138.36747457 -19.36570799 132.33644837 C-19.29835078 125.46338304 -19.26558105 118.59028398 -19.23553538 111.71697009 C-19.17303122 97.59350054 -19.06768022 83.47061484 -18.93359375 69.34765625 C-19.5575 69.20585938 -20.18140625 69.0640625 -20.82421875 68.91796875 C-23.47665549 68.20082845 -24.4023451 67.64452922 -25.93359375 65.34765625 C-26.58117084 59.30360339 -26.58117084 59.30360339 -24.62109375 56.41015625 C-22.93359375 55.34765625 -22.93359375 55.34765625 -19.93359375 55.34765625 C-19.94691742 54.77438095 -19.96024109 54.20110565 -19.97396851 53.61045837 C-20.10707998 47.6244051 -20.19735683 41.63877453 -20.26318359 35.65161133 C-20.29329032 33.41966668 -20.33418573 31.1878397 -20.38623047 28.95629883 C-20.45931256 25.74140346 -20.49311203 22.52807669 -20.51953125 19.3125 C-20.55049896 18.32056137 -20.58146667 17.32862274 -20.6133728 16.30662537 C-20.61624381 10.34873311 -19.77881914 7.03570051 -15.61611938 2.68873596 C-10.92051492 -1.0539588 -5.71082455 -1.92668222 0 0 Z " fill="#2385C8" transform="translate(318.93359375,53.65234375)"/>
<path d="M0 0 C4.95520521 2.57289501 8.49116963 5.98233926 11 11 C11.08949417 12.45037107 11.1175844 13.90478629 11.11352539 15.35791016 C11.11344986 16.25869293 11.11337433 17.15947571 11.11329651 18.08755493 C11.10813522 19.06155243 11.10297394 20.03554993 11.09765625 21.0390625 C11.0962413 22.03505463 11.09482635 23.03104675 11.09336853 24.05722046 C11.08775936 27.24651053 11.0752053 30.43573106 11.0625 33.625 C11.05748618 35.78385315 11.05292307 37.94270741 11.04882812 40.1015625 C11.03778695 45.4010655 11.02103988 50.70052778 11 56 C11.639375 56.309375 12.27875 56.61875 12.9375 56.9375 C15 58 15 58 16 59 C16.35897436 65.46153846 16.35897436 65.46153846 14 69 C11.375 69.6875 11.375 69.6875 9 70 C9.00553076 70.5816177 9.01106152 71.1632354 9.01675987 71.76247787 C9.14968291 85.96174215 9.24875566 100.16091231 9.31087303 114.36066818 C9.34171674 121.22781572 9.38371285 128.09454612 9.45263672 134.96142578 C9.51918124 141.59445458 9.55375621 148.22716557 9.56926346 154.8605423 C9.5803076 157.38500009 9.60187413 159.90943553 9.63438034 162.43370819 C9.94172635 187.30076648 9.94172635 187.30076648 3 197 C2.10971394 198.57478893 1.23203864 200.15687282 0.375 201.75 C-0.7265625 203.671875 -0.7265625 203.671875 -2 205 C-3.32 205 -4.64 205 -6 205 C-7.65000386 202.06482399 -9.29427432 199.12647526 -10.9375 196.1875 C-11.64036133 194.93743164 -11.64036133 194.93743164 -12.35742188 193.66210938 C-12.80537109 192.85966797 -13.25332031 192.05722656 -13.71484375 191.23046875 C-14.12855225 190.49207764 -14.54226074 189.75368652 -14.96850586 188.99291992 C-16.6977316 185.651933 -17.12432611 183.01243394 -17.12025452 179.31135559 C-17.12162918 178.34801804 -17.12300385 177.38468048 -17.12442017 176.39215088 C-17.12082489 175.33695251 -17.11722961 174.28175415 -17.11352539 173.19458008 C-17.11367142 172.08223495 -17.11381744 170.96988983 -17.1139679 169.82383728 C-17.11327 166.13904892 -17.10548331 162.45431081 -17.09765625 158.76953125 C-17.09579163 156.21791105 -17.09436794 153.66629049 -17.09336853 151.1146698 C-17.08993763 145.07987877 -17.08205231 139.04510939 -17.07201904 133.01032704 C-17.06084404 126.13977402 -17.05534395 119.26922014 -17.05032361 112.3986603 C-17.03986934 98.26576351 -17.02227852 84.13288274 -17 70 C-17.62390625 69.85820313 -18.2478125 69.71640625 -18.890625 69.5703125 C-21.54306174 68.8531722 -22.46875135 68.29687297 -24 66 C-24.64757709 59.95594714 -24.64757709 59.95594714 -22.6875 57.0625 C-21 56 -21 56 -18 56 C-18.01332367 55.4267247 -18.02664734 54.8534494 -18.04037476 54.26280212 C-18.17348623 48.27674885 -18.26376308 42.29111828 -18.32958984 36.30395508 C-18.35969657 34.07201043 -18.40059198 31.84018345 -18.45263672 29.60864258 C-18.52571881 26.39374721 -18.55951828 23.18042044 -18.5859375 19.96484375 C-18.61690521 18.97290512 -18.64787292 17.98096649 -18.67977905 16.95896912 C-18.68265006 11.00107686 -17.84522539 7.68804426 -13.68252563 3.34107971 C-9.45955807 -0.02489344 -5.33991513 -0.83500603 0 0 Z " fill="#F25480" transform="translate(114,53)"/>
<path d="M0 0 C4.63145553 2.32070783 7.13716073 5.5114922 9.06640625 10.34765625 C9.58880342 13.86829808 9.53438484 17.32230034 9.45703125 20.875 C9.45137146 21.86391739 9.44571167 22.85283478 9.43988037 23.87171936 C9.4176064 27.01003768 9.36742623 30.14718682 9.31640625 33.28515625 C9.29632967 35.42120739 9.27808093 37.55727655 9.26171875 39.69335938 C9.21777136 44.91185285 9.15094995 50.12967099 9.06640625 55.34765625 C9.70578125 55.65703125 10.34515625 55.96640625 11.00390625 56.28515625 C13.06640625 57.34765625 13.06640625 57.34765625 14.06640625 58.34765625 C14.65243396 64.55955001 14.65243396 64.55955001 12.25390625 67.78515625 C10.06640625 69.34765625 10.06640625 69.34765625 7.06640625 69.34765625 C7.0728588 69.92743036 7.07931135 70.50720448 7.08595943 71.1045475 C7.24116318 85.27108389 7.3566817 99.4374914 7.42909145 113.60470009 C7.46504751 120.45618015 7.51398655 127.30708958 7.59448242 134.15820312 C7.67222596 140.77826947 7.71247609 147.39790188 7.73054695 154.01844406 C7.74341375 156.53569198 7.76853907 159.05291002 7.80651665 161.56990433 C8.17109082 186.74916757 8.17109082 186.74916757 0.06640625 198.34765625 C-0.67981967 199.46521781 -1.42374371 200.58432001 -2.16529846 201.70498657 C-2.74883591 202.57706757 -3.33237335 203.44914856 -3.93359375 204.34765625 C-6.31799896 203.97540733 -7.59355267 203.73776473 -9.20703125 201.88671875 C-9.97760594 200.5477769 -10.73951966 199.20383016 -11.49484825 197.85622883 C-12.45354282 196.18466502 -13.44853695 194.53340188 -14.47849464 192.90478039 C-18.69413253 185.93032723 -19.78287399 180.61508353 -19.61474609 172.54223633 C-19.61606033 170.85733597 -19.61606033 170.85733597 -19.61740112 169.13839722 C-19.61325559 165.46392739 -19.56674358 161.7913343 -19.51953125 158.1171875 C-19.50832842 155.55459083 -19.49979338 152.99198123 -19.49380493 150.42936707 C-19.47331811 144.39802446 -19.42614118 138.36747457 -19.36570799 132.33644837 C-19.29835078 125.46338304 -19.26558105 118.59028398 -19.23553538 111.71697009 C-19.17303122 97.59350054 -19.06768022 83.47061484 -18.93359375 69.34765625 C-19.5575 69.20585938 -20.18140625 69.0640625 -20.82421875 68.91796875 C-23.47665549 68.20082845 -24.4023451 67.64452922 -25.93359375 65.34765625 C-26.58117084 59.30360339 -26.58117084 59.30360339 -24.62109375 56.41015625 C-22.93359375 55.34765625 -22.93359375 55.34765625 -19.93359375 55.34765625 C-19.94691742 54.77438095 -19.96024109 54.20110565 -19.97396851 53.61045837 C-20.10707998 47.6244051 -20.19735683 41.63877453 -20.26318359 35.65161133 C-20.29329032 33.41966668 -20.33418573 31.1878397 -20.38623047 28.95629883 C-20.45931256 25.74140346 -20.49311203 22.52807669 -20.51953125 19.3125 C-20.55049896 18.32056137 -20.58146667 17.32862274 -20.6133728 16.30662537 C-20.61624381 10.34873311 -19.77881914 7.03570051 -15.61611938 2.68873596 C-10.92051492 -1.0539588 -5.71082455 -1.92668222 0 0 Z M-17.93359375 69.34765625 C-18.0014377 83.6648168 -18.05644945 97.98187015 -18.08903027 112.29915524 C-18.10466938 118.9476343 -18.12587584 125.59596661 -18.15991211 132.24438477 C-18.19256765 138.66345417 -18.21045998 145.08241223 -18.21822548 151.5015583 C-18.22375782 153.94750279 -18.23456111 156.39344136 -18.25078392 158.8393383 C-18.27264003 162.27184983 -18.27555719 165.70390441 -18.27416992 169.13647461 C-18.28495575 170.1420491 -18.29574158 171.1476236 -18.30685425 172.18367004 C-18.2660021 181.5581155 -15.7709643 188.58453819 -10.74609375 196.41015625 C-10.19405273 197.27930664 -10.19405273 197.27930664 -9.63085938 198.16601562 C-8.74034779 199.56539097 -7.83824173 200.95737776 -6.93359375 202.34765625 C-1.65128735 200.59932481 0.4967811 195.72363074 2.98023129 191.13133335 C8.19177656 180.26514218 7.17723517 168.52071019 6.9453125 156.75 C6.92849061 154.21841209 6.91569641 151.68679453 6.90672302 149.15516663 C6.87610752 143.21932767 6.80550246 137.2848573 6.71457762 131.34971672 C6.61317894 124.58062494 6.56429846 117.81145101 6.5193187 111.04178607 C6.42581886 97.14274453 6.26110235 83.2456298 6.06640625 69.34765625 C-1.85359375 69.34765625 -9.77359375 69.34765625 -17.93359375 69.34765625 Z " fill="#034163" transform="translate(318.93359375,53.65234375)"/>
<path d="M0 0 C6.93 0 13.86 0 21 0 C21.20426377 13.00549178 21.36897775 26.00989844 21.46630955 39.01663876 C21.51305129 45.05784688 21.57633281 51.09788995 21.67895508 57.13842773 C21.77757273 62.98057368 21.83073016 68.82160737 21.85389519 74.66452217 C21.87037827 76.88072762 21.90256253 79.09688008 21.95157051 81.3126049 C22.26802052 96.2286543 20.41174156 106.51614866 12 119 C7.73035891 117.5767863 6.8123638 114.48061703 4.875 110.6875 C4.51535156 110.01009766 4.15570313 109.33269531 3.78515625 108.63476562 C1.34168838 103.95374011 -0.12704176 100.10890705 -0.12025452 94.76055908 C-0.12162918 93.92205917 -0.12300385 93.08355927 -0.12442017 92.21965027 C-0.12082489 91.30830826 -0.11722961 90.39696625 -0.11352539 89.45800781 C-0.11367142 88.49182022 -0.11381744 87.52563263 -0.1139679 86.53016663 C-0.11327144 83.33779655 -0.1054915 80.14548488 -0.09765625 76.953125 C-0.09579112 74.73923779 -0.09436767 72.52535017 -0.09336853 70.3114624 C-0.08955082 64.48519755 -0.07972687 58.65895764 -0.06866455 52.83270264 C-0.05843441 46.88716977 -0.05386747 40.94163288 -0.04882812 34.99609375 C-0.03810396 23.33071645 -0.02051317 11.6653642 0 0 Z " fill="#C04CBC" transform="translate(201,135)"/>
<path d="M0 0 C4.89269398 2.4001895 7.47121022 5.20913393 10 10 C10.53392178 13.5580074 10.4666437 17.05749947 10.390625 20.6484375 C10.38496521 21.66096588 10.37930542 22.67349426 10.37347412 23.71670532 C10.35116254 26.93662677 10.30097472 30.1554174 10.25 33.375 C10.22992831 35.56378596 10.21167871 37.75258944 10.1953125 39.94140625 C10.15131505 45.29465378 10.08445518 50.64724608 10 56 C10.61875 56.103125 11.2375 56.20625 11.875 56.3125 C14 57 14 57 16 60 C15.7790626 66.18624706 15.7790626 66.18624706 13.38256836 68.68945312 C8.6802594 71.27598807 2.98456578 70.51772969 -2.27172852 70.50097656 C-4.42795422 70.5000043 -6.58061615 70.54163699 -8.73632812 70.5859375 C-10.11457595 70.59114535 -11.49283608 70.59383268 -12.87109375 70.59375 C-14.11818115 70.60083984 -15.36526855 70.60792969 -16.65014648 70.61523438 C-20.9057305 69.83365346 -22.41660668 68.41611852 -25 65 C-24.8125 61.1875 -24.8125 61.1875 -24 58 C-22.35 57.34 -20.7 56.68 -19 56 C-19.00888245 55.45178085 -19.01776489 54.90356171 -19.0269165 54.33872986 C-19.11568748 48.61207549 -19.17585701 42.88561787 -19.21972656 37.15844727 C-19.23979182 35.02360082 -19.26705058 32.888809 -19.30175781 30.75415039 C-19.35049943 27.67841075 -19.37302006 24.60340031 -19.390625 21.52734375 C-19.41127014 20.57915268 -19.43191528 19.63096161 -19.45318604 18.65403748 C-19.45523658 12.54288798 -18.57735337 8.99729374 -15 4 C-10.34118473 -0.2254371 -6.06339117 -1.0668085 0 0 Z " fill="#024162" transform="translate(216,53)"/>
<path d="M0 0 C4.95520521 2.57289501 8.49116963 5.98233926 11 11 C11.08949417 12.45037107 11.1175844 13.90478629 11.11352539 15.35791016 C11.11344986 16.25869293 11.11337433 17.15947571 11.11329651 18.08755493 C11.10813522 19.06155243 11.10297394 20.03554993 11.09765625 21.0390625 C11.0962413 22.03505463 11.09482635 23.03104675 11.09336853 24.05722046 C11.08775936 27.24651053 11.0752053 30.43573106 11.0625 33.625 C11.05748618 35.78385315 11.05292307 37.94270741 11.04882812 40.1015625 C11.03778695 45.4010655 11.02103988 50.70052778 11 56 C11.639375 56.309375 12.27875 56.61875 12.9375 56.9375 C15 58 15 58 16 59 C16.35897436 65.46153846 16.35897436 65.46153846 14 69 C8.78885916 70.73704695 3.20489409 70.26499452 -2.2512207 70.29516602 C-3.70704856 70.30670859 -5.16283335 70.32719667 -6.6184082 70.35668945 C-8.72376201 70.39934461 -10.82786167 70.41552823 -12.93359375 70.42578125 C-14.8216272 70.44765503 -14.8216272 70.44765503 -16.74780273 70.4699707 C-20 70 -20 70 -22.41430664 68.19604492 C-24.70136738 65.02866827 -24.48441227 62.80609637 -24 59 C-22.6875 57.0625 -22.6875 57.0625 -21 56 C-20.01 56 -19.02 56 -18 56 C-18.01332367 55.4267247 -18.02664734 54.8534494 -18.04037476 54.26280212 C-18.17348623 48.27674885 -18.26376308 42.29111828 -18.32958984 36.30395508 C-18.35969657 34.07201043 -18.40059198 31.84018345 -18.45263672 29.60864258 C-18.52571881 26.39374721 -18.55951828 23.18042044 -18.5859375 19.96484375 C-18.61690521 18.97290512 -18.64787292 17.98096649 -18.67977905 16.95896912 C-18.68265006 11.00107686 -17.84522539 7.68804426 -13.68252563 3.34107971 C-9.45955807 -0.02489344 -5.33991513 -0.83500603 0 0 Z " fill="#034162" transform="translate(114,53)"/>
<path d="M0 0 C1.32 0 2.64 0 4 0 C5.57200902 2.06014085 6.7921144 3.95533459 8.0390625 6.203125 C8.40599213 6.83732361 8.77292175 7.47152222 9.15097046 8.12493896 C10.32314827 10.15886991 11.47399137 12.20402933 12.625 14.25 C13.40751019 15.61405312 14.19134924 16.97734485 14.9765625 18.33984375 C24.08531708 34.20501334 24.08531708 34.20501334 23 44 C20.85319927 51.24545246 16.39399026 54.76305187 10.25 58.8125 C4.91434937 60.76206465 -0.08151686 61.08057762 -5.46875 59.0859375 C-12.23912575 55.58791003 -16.43814094 51.27131912 -19 44 C-21.29089614 34.52550809 -16.5057 27.42898322 -11.80859375 19.6171875 C-11.34050293 18.85245117 -10.87241211 18.08771484 -10.39013672 17.29980469 C-9.03617035 15.05983925 -7.74672654 12.79398529 -6.47265625 10.5078125 C-5.69086683 9.12977538 -4.90835014 7.75215053 -4.125 6.375 C-3.76865479 5.72950195 -3.41230957 5.08400391 -3.04516602 4.41894531 C-2.0078125 2.6484375 -2.0078125 2.6484375 0 0 Z " fill="#F24775" transform="translate(108,268)"/>
<path d="M0 0 C0.99 0 1.98 0 3 0 C4.47278187 2.03481251 5.70992293 3.99181743 6.94140625 6.16796875 C7.30975082 6.79979568 7.6780954 7.43162262 8.05760193 8.08259583 C8.83683174 9.42387239 9.61070149 10.76827491 10.37963867 12.11547852 C11.55116737 14.16764861 12.73777063 16.21042851 13.92773438 18.25195312 C14.68319836 19.55676713 15.43778395 20.86209018 16.19140625 22.16796875 C16.54352676 22.77650192 16.89564728 23.3850351 17.25843811 24.01200867 C20.95609032 30.50322223 22.9702392 35.52915815 22 43 C20.17872541 49.37446105 17.49321221 53.33785853 12 57 C6.70234047 59.89871936 1.94017283 61.16871693 -4 60 C-11.23396894 57.05682039 -15.61887068 52.98242521 -19 46 C-19.33 45.34 -19.66 44.68 -20 44 C-22.73269666 28.97016838 -8.93240854 12.75126157 -1 1 C-0.67 0.67 -0.34 0.34 0 0 Z " fill="#2687C9" transform="translate(312,268)"/>
<path d="M0 0 C1.80883789 0.21289062 1.80883789 0.21289062 4 1 C5.56811523 2.99023438 5.56811523 2.99023438 7.05859375 5.59375 C7.88520508 7.016875 7.88520508 7.016875 8.72851562 8.46875 C9.29248047 9.4690625 9.85644531 10.469375 10.4375 11.5 C10.99759766 12.469375 11.55769531 13.43875 12.13476562 14.4375 C13.2448681 16.36495914 14.34510028 18.29813891 15.43505859 20.23706055 C16.43489459 22.00229362 17.45670473 23.75537629 18.50634766 25.49145508 C22.45176017 32.12960111 22.89579429 37.31449215 22 45 C20.04812257 51.58758633 14.34345366 56.02821964 8.5625 59.4375 C2.12801873 60.84994711 -3.33508636 60.59823499 -9.14453125 57.33984375 C-14.23961671 53.66065572 -18.10218988 48.63101686 -19.6171875 42.50390625 C-20.69185772 30.24289605 -13.32048952 20.93570319 -7 11 C-6.21360561 9.73644682 -5.42827844 8.47222812 -4.64453125 7.20703125 C-3.1243816 4.7841948 -1.58389964 2.38142657 0 0 Z " fill="#C04EBD" transform="translate(210,268)"/>
<path d="M0 0 C7.92 0 15.84 0 24 0 C24.20411163 14.57008161 24.36949398 29.13925926 24.46630955 43.71045589 C24.51248189 50.47798725 24.57528766 57.2445595 24.67895508 64.01147461 C24.77913187 70.5537248 24.83070351 77.09535719 24.85389519 83.63833809 C24.87040174 86.12246853 24.90263318 88.60655062 24.95157051 91.09025383 C25.23776732 106.23096513 24.62246018 118.6892868 15 131 C12.70655823 132.43516541 12.70655823 132.43516541 11 133 C9.34218111 130.27794663 7.70095788 127.54624351 6.0625 124.8125 C5.59392578 124.04357422 5.12535156 123.27464844 4.64257812 122.48242188 C4.19462891 121.73154297 3.74667969 120.98066406 3.28515625 120.20703125 C2.66459351 119.17799683 2.66459351 119.17799683 2.03149414 118.12817383 C0.16809178 114.28361091 -0.12503974 110.41009157 -0.12025452 106.18473816 C-0.12162918 105.24389374 -0.12300385 104.30304932 -0.12442017 103.33369446 C-0.12082489 102.31373886 -0.11722961 101.29378326 -0.11352539 100.24291992 C-0.11367142 99.15954346 -0.11381744 98.07616699 -0.1139679 96.95996094 C-0.11327192 93.38344309 -0.1054942 89.80697749 -0.09765625 86.23046875 C-0.09579095 83.74896778 -0.09436758 81.26746644 -0.09336853 78.78596497 C-0.08955215 72.25773093 -0.07972934 65.72951918 -0.06866455 59.20129395 C-0.05789079 52.53849711 -0.05386686 45.8756938 -0.04882812 39.21289062 C-0.03810631 26.14191572 -0.02051659 13.0709632 0 0 Z M2 47 C1.79496542 55.44216724 1.63060274 63.88233296 1.53369045 72.32633877 C1.48712785 76.24919578 1.42420695 80.17023189 1.32104492 84.09204102 C0.38562204 108.995699 0.38562204 108.995699 11 131 C15.63910149 129.45363284 17.02931087 125.52765125 19.22960663 121.42419338 C22.93708593 113.92445948 23.02731422 106.89107853 22.78125 98.66015625 C22.76627608 97.15704912 22.75491352 95.65390218 22.74694824 94.15074158 C22.71681564 90.24861352 22.63861225 86.34897732 22.54931641 82.44781494 C22.46656583 78.4453704 22.43074931 74.44251171 22.390625 70.43945312 C22.30555866 62.6250497 22.16520398 54.81319538 22 47 C15.4 47 8.8 47 2 47 Z " fill="#E6EEF8" transform="translate(301,123)"/>
<path d="M0 0 C8.91 0 17.82 0 27 0 C27.15857783 14.62192136 27.28728561 29.24330133 27.3626852 43.86589241 C27.39863952 50.65684115 27.44757508 57.44721408 27.52807617 64.23779297 C27.60582629 70.79949618 27.64607126 77.36082771 27.6641407 83.92296982 C27.67700639 86.41788989 27.70212951 88.91277987 27.7401104 91.407444 C28.10542076 116.41180656 28.10542076 116.41180656 20 128 C19.48275864 128.78384064 18.96551727 129.56768127 18.43260193 130.37527466 C17.34751137 131.95901309 16.18609654 133.49042259 15 135 C12.406856 134.64168465 11.29526089 134.37408571 9.64379883 132.28173828 C9.25216553 131.55196777 8.86053223 130.82219727 8.45703125 130.0703125 C8.02326172 129.27496094 7.58949219 128.47960937 7.14257812 127.66015625 C6.70365234 126.82355469 6.26472656 125.98695313 5.8125 125.125 C5.36197266 124.29613281 4.91144531 123.46726562 4.44726562 122.61328125 C1.83457038 117.76393085 -0.12647539 113.954322 -0.12025452 108.34931946 C-0.12162918 107.39439606 -0.12300385 106.43947266 -0.12442017 105.45561218 C-0.12082489 104.40976456 -0.11722961 103.36391693 -0.11352539 102.28637695 C-0.11374443 100.63248962 -0.11374443 100.63248962 -0.1139679 98.94519043 C-0.11327002 95.29286751 -0.10548344 91.64059529 -0.09765625 87.98828125 C-0.09579163 85.4590813 -0.09436793 82.92988098 -0.09336853 80.40068054 C-0.08993768 74.41901338 -0.08205244 68.43736805 -0.07201904 62.45570964 C-0.06084387 55.64561498 -0.05534391 48.83551946 -0.05032361 42.02541792 C-0.03986946 28.01693331 -0.02152958 14.00847174 0 0 Z M3 12 C2.9094665 24.73527848 2.83614975 37.47034161 2.79275131 50.20586967 C2.77191745 56.12011592 2.74367632 62.0341297 2.69824219 67.94824219 C2.654635 73.66058752 2.63083132 79.37270989 2.62049103 85.08520889 C2.61312636 87.2596093 2.59874505 89.43399813 2.57707977 91.60830307 C2.54784846 94.66475104 2.54405227 97.72028919 2.54589844 100.77685547 C2.53151733 101.66662582 2.51713623 102.55639618 2.50231934 103.47312927 C2.55838871 112.10735011 5.68334595 119.29975903 10.125 126.625 C10.62257812 127.46289062 11.12015625 128.30078125 11.6328125 129.1640625 C12.08398438 129.76992187 12.53515625 130.37578125 13 131 C13.66 131 14.32 131 15 131 C24.15744851 117.40944623 25.23535072 106.14273761 24.87890625 90.02734375 C24.86207854 87.76480161 24.84928711 85.50222622 24.84031677 83.23963928 C24.80628025 77.34193163 24.71816306 71.44628273 24.61798096 65.54937744 C24.52519828 59.50911292 24.48465734 53.46850915 24.43945312 47.42773438 C24.34350817 35.61744871 24.18547516 23.8092192 24 12 C17.07 12 10.14 12 3 12 Z " fill="#CB6CC8" transform="translate(198,123)"/>
<path d="M0 0 C7.59 0 15.18 0 23 0 C23.18128975 14.73502191 23.32835868 29.46934083 23.41449738 44.20523167 C23.45557415 51.04893263 23.51147183 57.89188642 23.60351562 64.73510742 C23.69242753 71.34869001 23.73837725 77.96170499 23.75901794 84.57591057 C23.77371263 87.08957004 23.80240712 89.60319086 23.84584045 92.11651802 C24.08242352 106.38407396 24.12006964 118.38259222 15 130 C14.34 130.33 13.68 130.66 13 131 C13.79153677 128.07131396 14.61956529 125.52142088 16.41848755 123.05583191 C23.18402151 113.33051249 21.85530261 101.94637779 21.8046875 90.61328125 C21.81594953 88.34212338 21.82983534 86.07097714 21.84622192 83.79985046 C21.88213836 77.85354456 21.88264871 71.90775411 21.87554932 65.96136475 C21.87463396 59.88105144 21.90752983 53.80092876 21.9375 47.72070312 C21.99124848 35.81368693 22.00442915 23.90713683 22 12 C15.07 12 8.14 12 1 12 C1.04039254 24.73549025 1.09756536 37.47060638 1.18390274 50.20586967 C1.22333411 56.12000478 1.25554403 62.03399196 1.27099609 67.94824219 C1.28619102 73.66076054 1.32068753 79.37287208 1.36830902 85.08520889 C1.38309348 87.25953756 1.39103932 89.43392431 1.39188385 91.60830307 C1.39426405 94.66492329 1.4214291 97.7204288 1.45410156 100.77685547 C1.4490712 101.66662582 1.44404083 102.55639618 1.43885803 103.47312927 C1.54669578 110.03624442 3.33479349 115.05269946 6 121 C6.6872487 122.99302124 7.36515933 124.98967123 8 127 C2.67379157 122.1254945 -0.21238799 115.63947822 -0.60127258 108.46957397 C-0.61556519 106.4463695 -0.60293195 104.42284925 -0.56762695 102.39990234 C-0.56835709 101.28653503 -0.56908722 100.17316772 -0.56983948 99.02606201 C-0.566381 95.37884266 -0.52759985 91.73293128 -0.48828125 88.0859375 C-0.478947 85.54432879 -0.47183378 83.00271104 -0.46684265 80.46109009 C-0.44976106 74.47586638 -0.41043358 68.49119636 -0.3600952 62.50619376 C-0.30399368 55.68632656 -0.27666331 48.86643598 -0.25161803 42.04639506 C-0.19951008 28.03062775 -0.10790304 14.01544313 0 0 Z " fill="#F9EDFA" transform="translate(200,123)"/>
<path d="M0 0 C0.33 0 0.66 0 1 0 C1.00238835 0.56376815 1.00477671 1.1275363 1.00723743 1.70838833 C1.06649583 15.45621323 1.14230131 29.2038623 1.23571491 42.95149899 C1.28039419 49.59990433 1.31965589 56.24821956 1.34643555 62.89672852 C1.37249251 69.31591316 1.41291258 75.734863 1.46318626 82.15390205 C1.47983866 84.59979895 1.49136304 87.04573645 1.49761391 89.49168205 C1.50727235 92.92430972 1.53535398 96.35633888 1.56762695 99.78881836 C1.56619186 100.79439285 1.56475677 101.79996735 1.5632782 102.83601379 C1.68322815 111.88948956 3.97553925 118.82777198 8.6875 126.5625 C9.31011719 127.59503906 9.93273437 128.62757813 10.57421875 129.69140625 C11.27998047 130.83416016 11.27998047 130.83416016 12 132 C16.84322992 130.38559003 18.52403217 126.11590405 20.85023403 121.83250523 C26.10716203 110.95029237 25.22296052 99.21795925 25.09765625 87.40234375 C25.10332007 84.87072092 25.11294514 82.33910417 25.12632751 79.80751038 C25.1482869 73.87198241 25.13091108 67.93743325 25.09355396 62.00206047 C25.05321147 55.23264827 25.06452194 48.46360965 25.07967007 41.69412982 C25.1096394 27.79576879 25.07637185 13.89815536 25 0 C25.33 0 25.66 0 26 0 C26.16418285 14.75214513 26.28728206 29.50416787 26.3626852 44.25704384 C26.39864126 51.1085239 26.4475803 57.95943333 26.52807617 64.81054688 C26.60581971 71.43061322 26.64606984 78.05024563 26.6641407 84.67078781 C26.6770075 87.18803573 26.70213282 89.70525377 26.7401104 92.22224808 C27.10468457 117.40151132 27.10468457 117.40151132 19 129 C18.25377408 130.11756156 17.50985004 131.23666376 16.76829529 132.35733032 C16.18475784 133.22941132 15.6012204 134.10149231 15 135 C12.61559479 134.62775108 11.34004108 134.39010848 9.7265625 132.5390625 C8.95598781 131.20012065 8.19407409 129.85617391 7.4387455 128.50857258 C6.48005093 126.83700877 5.4850568 125.18574563 4.45509911 123.55712414 C0.23946122 116.58267098 -0.84928024 111.26742728 -0.68115234 103.19458008 C-0.6820285 102.07131317 -0.68290466 100.94804626 -0.68380737 99.79074097 C-0.67966184 96.11627114 -0.63314983 92.44367805 -0.5859375 88.76953125 C-0.57473467 86.20693458 -0.56619963 83.64432498 -0.56021118 81.08171082 C-0.53972436 75.05036821 -0.49254743 69.01981832 -0.43211424 62.98879212 C-0.36475703 56.11572679 -0.3319873 49.24262773 -0.30194163 42.36931384 C-0.23943747 28.24584429 -0.13408647 14.12295859 0 0 Z " fill="#2285C8" transform="translate(300,123)"/>
<path d="M0 0 C0.33 0 0.66 0 1 0 C1.350625 1.2375 1.70125 2.475 2.0625 3.75 C4.11625161 10.00098183 7.55900044 15.42840893 11 21 C14.51275526 19.82908158 14.65017234 19.33661933 16.26171875 16.18359375 C16.65810547 15.41982422 17.05449219 14.65605469 17.46289062 13.86914062 C17.86701172 13.06669922 18.27113281 12.26425781 18.6875 11.4375 C19.31108398 10.22803711 19.31108398 10.22803711 19.94726562 8.99414062 C20.97363362 7.0003913 21.99071198 5.00243503 23 3 C23.66 3.33 24.32 3.66 25 4 C23.92177933 6.21095812 22.83762596 8.41867306 21.75 10.625 C21.44964844 11.24246094 21.14929688 11.85992187 20.83984375 12.49609375 C18.82957212 16.55940875 16.58868299 20.2773364 14 24 C11.61559479 23.62775108 10.34004108 23.39010848 8.7265625 21.5390625 C8.36304688 20.90742188 7.99953125 20.27578125 7.625 19.625 C7.2125 18.91085938 6.8 18.19671875 6.375 17.4609375 C5.92125 16.64882812 5.4675 15.83671875 5 15 C4.443125 14.06414062 3.88625 13.12828125 3.3125 12.1640625 C2.755625 11.20242187 2.19875 10.24078125 1.625 9.25 C1.10164063 8.34765625 0.57828125 7.4453125 0.0390625 6.515625 C-1.09904923 3.7601966 -1.08117043 2.72200556 0 0 Z " fill="#4196D0" transform="translate(301,234)"/>
<path d="M0 0 C0.66 0 1.32 0 2 0 C2.21914062 0.52207031 2.43828125 1.04414063 2.6640625 1.58203125 C5.40250716 7.93833978 8.61635355 13.9658305 12 20 C12.99 19.67 13.98 19.34 15 19 C15.91097994 17.23144489 15.91097994 17.23144489 16.5 15.125 C17.49088119 11.92822855 18.55666776 10.27571578 21 8 C22.17574711 5.90010348 22.17574711 5.90010348 23 4 C23.66 4 24.32 4 25 4 C23.40376856 8.39383706 21.21975667 12.28995807 18.875 16.3125 C18.50246094 16.95767578 18.12992188 17.60285156 17.74609375 18.26757812 C16.83367787 19.84675945 15.91724491 21.42361864 15 23 C13.68 23 12.36 23 11 23 C9.3428892 20.11048311 7.70137532 17.21239261 6.0625 14.3125 C5.59392578 13.49587891 5.12535156 12.67925781 4.64257812 11.83789062 C4.19462891 11.04189453 3.74667969 10.24589844 3.28515625 9.42578125 C2.87144775 8.69786377 2.45773926 7.96994629 2.03149414 7.2199707 C0.91698275 4.82133116 0.41826727 2.60366372 0 0 Z " fill="#F26089" transform="translate(97,235)"/>
<path d="M0 0 C1.6875 0.3125 1.6875 0.3125 4 1 C6.33094534 1.3496418 8.66404762 1.68554487 11 2 C11 1.34 11 0.68 11 0 C11.66 0.33 12.32 0.66 13 1 C12.67 2.98 12.34 4.96 12 7 C11.67 5.68 11.34 4.36 11 3 C10.34 3.66 9.68 4.32 9 5 C9.33 5.66 9.66 6.32 10 7 C8.35 7 6.7 7 5 7 C5 6.34 5 5.68 5 5 C4.67 5.66 4.34 6.32 4 7 C2.35 7 0.7 7 -1 7 C-1.625 4.625 -1.625 4.625 -2 2 C-1.34 1.34 -0.68 0.68 0 0 Z " fill="#95B6CD" transform="translate(69,340)"/>
<path d="M0 0 C0.66 0 1.32 0 2 0 C2.33 0.66 2.66 1.32 3 2 C5.64 2 8.28 2 11 2 C10.01 2.495 10.01 2.495 9 3 C9 4.32 9 5.64 9 7 C5.04 7 1.08 7 -3 7 C-2.67 5.35 -2.34 3.7 -2 2 C-1.34 2 -0.68 2 0 2 C0 1.34 0 0.68 0 0 Z " fill="#A7BCCB" transform="translate(311,340)"/>
<path d="M0 0 C2.05078125 0.03255208 4.1015625 0.06510417 6.15234375 0.09765625 C6.13171875 0.88140625 6.11109375 1.66515625 6.08984375 2.47265625 C5.96550312 5.07880586 5.96550312 5.07880586 7.15234375 7.09765625 C3.85234375 7.09765625 0.55234375 7.09765625 -2.84765625 7.09765625 C-2.89019981 5.09810879 -2.88846408 3.09723989 -2.84765625 1.09765625 C-1.84765625 0.09765625 -1.84765625 0.09765625 0 0 Z " fill="#82B9DF" transform="translate(313.84765625,301.90234375)"/>
<path d="M0 0 C0.66 0 1.32 0 2 0 C2.66 1.65 3.32 3.3 4 5 C4 4.01 4 3.02 4 2 C6.31 2 8.62 2 11 2 C11 3.65 11 5.3 11 7 C8.03 7 5.06 7 2 7 C2 6.34 2 5.68 2 5 C0.02 5.99 0.02 5.99 -2 7 C-1.34 4.69 -0.68 2.38 0 0 Z " fill="#82A6BC" transform="translate(102,340)"/>
<path d="M0 0 C0.66 0 1.32 0 2 0 C2.29132813 0.59167969 2.58265625 1.18335938 2.8828125 1.79296875 C5.63170781 7.09193989 8.15290146 10.50558013 13 14 C12.67 15.32 12.34 16.64 12 18 C8.57772237 16.85924079 8.38821966 16.4452807 6.73828125 13.4375 C6.34189453 12.72335938 5.94550781 12.00921875 5.53710938 11.2734375 C4.93092773 10.14808594 4.93092773 10.14808594 4.3125 9 C3.89677734 8.24976563 3.48105469 7.49953125 3.05273438 6.7265625 C0 1.17249076 0 1.17249076 0 0 Z " fill="#D180D0" transform="translate(200,240)"/>
<path d="M0 0 C0.66 0 1.32 0 2 0 C2.33 0.66 2.66 1.32 3 2 C5.02463255 2.65213292 5.02463255 2.65213292 7 3 C6.67 4.32 6.34 5.64 6 7 C4.02 7 2.04 7 0 7 C0 4.69 0 2.38 0 0 Z " fill="#A6BECE" transform="translate(211,340)"/>
<path d="M0 0 C2.64 0 5.28 0 8 0 C8 1.65 8 3.3 8 5 C5.36 5 2.72 5 0 5 C0 3.33333333 0 1.66666667 0 0 Z " fill="#96B3C5" transform="translate(189,342)"/>
<path d="M0 0 C1.23556641 0.01740234 1.23556641 0.01740234 2.49609375 0.03515625 C3.32238281 0.04417969 4.14867187 0.05320312 5 0.0625 C5.63808594 0.07410156 6.27617187 0.08570313 6.93359375 0.09765625 C6.93359375 1.74765625 6.93359375 3.39765625 6.93359375 5.09765625 C6.60359375 3.77765625 6.27359375 2.45765625 5.93359375 1.09765625 C5.27359375 1.09765625 4.61359375 1.09765625 3.93359375 1.09765625 C3.93359375 2.41765625 3.93359375 3.73765625 3.93359375 5.09765625 C3.27359375 5.09765625 2.61359375 5.09765625 1.93359375 5.09765625 C1.60359375 4.76765625 1.27359375 4.43765625 0.93359375 4.09765625 C-0.05640625 4.42765625 -1.04640625 4.75765625 -2.06640625 5.09765625 C-2.62890625 3.16015625 -2.62890625 3.16015625 -3.06640625 1.09765625 C-2.06640625 0.09765625 -2.06640625 0.09765625 0 0 Z " fill="#81A4BA" transform="translate(131.06640625,341.90234375)"/>
<path d="M0 0 C2.05078125 0.03255208 4.1015625 0.06510417 6.15234375 0.09765625 C5.16234375 1.58265625 5.16234375 1.58265625 4.15234375 3.09765625 C4.81234375 3.75765625 5.47234375 4.41765625 6.15234375 5.09765625 C3.51234375 5.09765625 0.87234375 5.09765625 -1.84765625 5.09765625 C-2.41015625 3.16015625 -2.41015625 3.16015625 -2.84765625 1.09765625 C-1.84765625 0.09765625 -1.84765625 0.09765625 0 0 Z " fill="#8EADC2" transform="translate(141.84765625,341.90234375)"/>
<path d="M0 0 C2.475 0.495 2.475 0.495 5 1 C5 2.98 5 4.96 5 7 C3.35 7 1.7 7 0 7 C0 4.69 0 2.38 0 0 Z " fill="#92B0C3" transform="translate(205,340)"/>
<path d="M0 0 C1.65 0 3.3 0 5 0 C4.67 2.64 4.34 5.28 4 8 C3.01 8 2.02 8 1 8 C-0.35439668 5.29120665 -0.06501451 2.99066732 0 0 Z " fill="#F5799C" transform="translate(107,302)"/>
<path d="M0 0 C2.31 0 4.62 0 7 0 C6.34 1.32 5.68 2.64 5 4 C4.34 4 3.68 4 3 4 C2.67 5.32 2.34 6.64 2 8 C1.34 8 0.68 8 0 8 C0 5.36 0 2.72 0 0 Z " fill="#E6AEFF" transform="translate(0,0)"/>
<path d="M0 0 C0.66 0 1.32 0 2 0 C2 1.32 2 2.64 2 4 C2.99 4.33 3.98 4.66 5 5 C4.01 5 3.02 5 2 5 C2 5.66 2 6.32 2 7 C0.35 7 -1.3 7 -3 7 C-2.67 5.35 -2.34 3.7 -2 2 C-1.34 2 -0.68 2 0 2 C0 1.34 0 0.68 0 0 Z " fill="#8DAEC5" transform="translate(95,340)"/>
<path d="M0 0 C2.0625 0.4375 2.0625 0.4375 4 1 C3.67 2.98 3.34 4.96 3 7 C2.01 6.67 1.02 6.34 0 6 C-0.38218767 4.34385343 -0.71395102 2.67542976 -1 1 C-0.67 0.67 -0.34 0.34 0 0 Z " fill="#F7A8BF" transform="translate(114,302)"/>
<path d="M0 0 C0.66 0.33 1.32 0.66 2 1 C1.67 2.98 1.34 4.96 1 7 C0.67 5.68 0.34 4.36 0 3 C-0.66 3.66 -1.32 4.32 -2 5 C-1.67 5.66 -1.34 6.32 -1 7 C-2.65 7 -4.3 7 -6 7 C-5.67 5.35 -5.34 3.7 -5 2 C-3.35 2 -1.7 2 0 2 C0 1.34 0 0.68 0 0 Z " fill="#6F96AE" transform="translate(80,340)"/>
<path d="M0 0 C0.66 0 1.32 0 2 0 C2.66 0.99 3.32 1.98 4 3 C4.66 2.34 5.32 1.68 6 1 C6 2.98 6 4.96 6 7 C5.01 6.67 4.02 6.34 3 6 C2.67 5.34 2.34 4.68 2 4 C1.34 4.99 0.68 5.98 0 7 C0 4.69 0 2.38 0 0 Z " fill="#81A1B6" transform="translate(219,340)"/>
<path d="M0 0 C0.66 0.33 1.32 0.66 2 1 C1.67 2.65 1.34 4.3 1 6 C-0.32 6 -1.64 6 -3 6 C-2.42655063 3.13275314 -2.1385485 2.1385485 0 0 Z " fill="#E4F8FF" transform="translate(198,394)"/>
<path d="M0 0 C1.98 0.495 1.98 0.495 4 1 C3.67 2.32 3.34 3.64 3 5 C1.68 4.67 0.36 4.34 -1 4 C-0.67 2.68 -0.34 1.36 0 0 Z " fill="#A2B9C9" transform="translate(303,342)"/>
<path d="M0 0 C1.98 0.495 1.98 0.495 4 1 C3.67 2.32 3.34 3.64 3 5 C1.68 4.67 0.36 4.34 -1 4 C-0.67 2.68 -0.34 1.36 0 0 Z " fill="#8BAEC5" transform="translate(83,342)"/>
<path d="M0 0 C0.66 0.33 1.32 0.66 2 1 C2.625 3.5625 2.625 3.5625 3 6 C1.68 6 0.36 6 -1 6 C-1 3 -1 3 0 0 Z " fill="#D9F3FF" transform="translate(164,393)"/>
<path d="M0 0 C1.32 0.33 2.64 0.66 4 1 C4 2.32 4 3.64 4 5 C2.68 5 1.36 5 0 5 C0 3.35 0 1.7 0 0 Z " fill="#88AAC0" transform="translate(118,342)"/>
<path d="M0 0 C1.98 0.495 1.98 0.495 4 1 C4 2.32 4 3.64 4 5 C2.35 4.67 0.7 4.34 -1 4 C-0.67 2.68 -0.34 1.36 0 0 Z " fill="#85A7BC" transform="translate(149,342)"/>
<path d="M0 0 C1.65 0 3.3 0 5 0 C4.01 0.495 4.01 0.495 3 1 C3 2.32 3 3.64 3 5 C1.35 4.67 -0.3 4.34 -2 4 C-1.01 3.67 -0.02 3.34 1 3 C0.67 2.01 0.34 1.02 0 0 Z " fill="#BFCDDA" transform="translate(317,342)"/>
<path d="M0 0 C1.98 0.495 1.98 0.495 4 1 C3.67 2.32 3.34 3.64 3 5 C1.68 4.67 0.36 4.34 -1 4 C-0.67 2.68 -0.34 1.36 0 0 Z " fill="#8CA8BB" transform="translate(314,342)"/>
<path d="M0 0 C0.99 0 1.98 0 3 0 C3 1.65 3 3.3 3 5 C1.68 4.67 0.36 4.34 -1 4 C-0.67 2.68 -0.34 1.36 0 0 Z " fill="#8AA9BC" transform="translate(232,342)"/>
<path d="M0 0 C0.66 0 1.32 0 2 0 C2 2.64 2 5.28 2 8 C1.34 8 0.68 8 0 8 C-0.38063221 5.6739143 -0.71269945 3.33944736 -1 1 C-0.67 0.67 -0.34 0.34 0 0 Z " fill="#D999D9" transform="translate(206,302)"/>
</svg>
