<?xml version="1.0" encoding="UTF-8"?>
<svg version="1.1" xmlns="http://www.w3.org/2000/svg" width="400" height="400">
<path d="M0 0 C132 0 264 0 400 0 C400 132 400 264 400 400 C268 400 136 400 0 400 C0 268 0 136 0 0 Z " fill="#E9FDDD" transform="translate(0,0)"/>
<path d="M0 0 C132 0 264 0 400 0 C400 68.97 400 137.94 400 209 C398.02 209.33 396.04 209.66 394 210 C390.88214887 210.64644661 390.88214887 210.64644661 390 213 C388 213.33333333 386 213.66666667 384 214 C383.67 214.66 383.34 215.32 383 216 C382.4225 216.103125 381.845 216.20625 381.25 216.3125 C377.96486163 217.31629228 376.28947698 219.51973328 374 222 C373.01 220.68 372.02 219.36 371 218 C369.88625 218.495 368.7725 218.99 367.625 219.5 C364 221 364 221 362 221 C361.896875 221.639375 361.79375 222.27875 361.6875 222.9375 C361.460625 223.618125 361.23375 224.29875 361 225 C360.01 225.33 359.02 225.66 358 226 C358 225.34 358 224.68 358 224 C357.319375 224.7425 357.319375 224.7425 356.625 225.5 C355 227 355 227 353 227 C352.34 228.32 351.68 229.64 351 231 C349.68 231 348.36 231 347 231 C346.34 232.32 345.68 233.64 345 235 C340.74356026 235.35969913 338.86024653 234.57772336 335.5 232 C310.12990524 213.46460134 279.43862552 201.42160484 248.6875 195.4375 C247.64916016 195.22931641 246.61082031 195.02113281 245.54101562 194.80664062 C242.36493913 194.17929177 239.18371112 193.58724127 236 193 C235.04005127 192.80583496 234.08010254 192.61166992 233.09106445 192.41162109 C223.35470046 190.63041448 213.64491807 190.69693111 203.78198242 190.73925781 C200.8355623 190.74991657 197.88976029 190.73934408 194.94335938 190.7265625 C181.86589 190.71724113 169.0504657 191.41302498 156.15161133 193.67480469 C153 194 153 194 150.5625 192.25 C149 190 149 190 149 187 C146.03 187.99 146.03 187.99 143 189 C143 186 143 186 144 183 C142.2857711 181.76603959 142.2857711 181.76603959 140 181 C137.2806707 181.78702351 137.2806707 181.78702351 135 183 C134.375 181.125 134.375 181.125 134 179 C134.66 178.34 135.32 177.68 136 177 C134.35 177.99 132.7 178.98 131 180 C129.8944811 179.06409496 128.79064547 178.12620142 127.6875 177.1875 C126.76517578 176.40439453 126.76517578 176.40439453 125.82421875 175.60546875 C124.14575321 174.12827531 122.56117966 172.59960869 121 171 C121.66 170.34 122.32 169.68 123 169 C122.67 168.34 122.34 167.68 122 167 C120.02 168.32 118.04 169.64 116 171 C111.545 167.535 111.545 167.535 107 164 C108.06546953 161.86906094 109.29159719 160.63412443 111 159 C110.21625 159.598125 109.4325 160.19625 108.625 160.8125 C105 162 105 162 102.65625 161.2265625 C100.05023348 159.89942446 97.52825835 158.46928151 95 157 C93.56738461 156.30237859 92.13026499 155.61388132 90.6875 154.9375 C87.42863693 153.30480307 84.76303753 151.39947996 82 149 C77.36389669 144.95777006 77.36389669 144.95777006 72 142 C72.33 140.35 72.66 138.7 73 137 C72.4225 137.350625 71.845 137.70125 71.25 138.0625 C69 139 69 139 66.8125 138.8125 C65.9153125 138.4103125 65.9153125 138.4103125 65 138 C64.67 137.01 64.34 136.02 64 135 C62.54166642 133.37485532 62.54166642 133.37485532 61 132 C60.67 131.67 60.34 131.34 60 131 C59.01 131.66 58.02 132.32 57 133 C54 131.375 54 131.375 51 129 C50.625 125.75 50.625 125.75 51 123 C48.0280615 124.12451727 45.66559313 125.22293791 43 127 C41.1171875 126.734375 41.1171875 126.734375 39 126 C38.21882813 125.73703125 37.43765625 125.4740625 36.6328125 125.203125 C31.18336924 123.13199703 27.46852732 120.80300197 23 117 C20.07679999 115.47703511 17.05078994 114.24328428 14 113 C12.32995871 112.2996601 10.66314839 111.59155519 9 110.875 C8.2575 110.56304687 7.515 110.25109375 6.75 109.9296875 C5 109 5 109 4 107 C4.99 106.01 4.99 106.01 6 105 C5.38125 105.495 4.7625 105.99 4.125 106.5 C2 108 2 108 0 108 C0 72.36 0 36.72 0 0 Z " fill="#FCF2EB" transform="translate(0,0)"/>
<path d="M0 0 C0 30.36 0 60.72 0 92 C-57.75 92 -115.5 92 -175 92 C-173.35 90.02 -171.7 88.04 -170 86 C-170.33 85.01 -170.66 84.02 -171 83 C-170.0126546 81.32580562 -169.01187895 79.65948148 -168 78 C-168 76.68 -168 75.36 -168 74 C-167.75 71.375 -167.75 71.375 -167 69 C-165 67.8125 -165 67.8125 -163 67 C-162.505 66.01 -162.505 66.01 -162 65 C-161.01 65 -160.02 65 -159 65 C-155.85739562 59.12469616 -154.63013221 55.50687201 -156 49 C-155.67 48.01 -155.34 47.02 -155 46 C-154.67 46.66 -154.34 47.32 -154 48 C-149.43766974 49.14273056 -145.21014881 49.34249495 -140.6875 48.0625 C-137.0671284 45.28407528 -135.13795643 41.98265336 -133 38 C-133.99 38 -134.98 38 -136 38 C-136.66 37.34 -137.32 36.68 -138 36 C-140.60280568 36.32041397 -140.60280568 36.32041397 -143 37 C-143 36.34 -143 35.68 -143 35 C-143.99 35 -144.98 35 -146 35 C-146.33 35.66 -146.66 36.32 -147 37 C-148.5 35.625 -148.5 35.625 -150 34 C-150 33.34 -150 32.68 -150 32 C-150.66 31.67 -151.32 31.34 -152 31 C-151.34 31 -150.68 31 -150 31 C-150.495 28.525 -150.495 28.525 -151 26 C-149.35 25.34 -147.7 24.68 -146 24 C-146.495 21.525 -146.495 21.525 -147 19 C-146.34 18.67 -145.68 18.34 -145 18 C-146.32 17.67 -147.64 17.34 -149 17 C-148.34 15.68 -147.68 14.36 -147 13 C-146.236875 13.020625 -145.47375 13.04125 -144.6875 13.0625 C-141.89814214 13.12942841 -141.89814214 13.12942841 -139 12 C-138.34 12.99 -137.68 13.98 -137 15 C-136.01 15.66 -135.02 16.32 -134 17 C-134.99 17.66 -135.98 18.32 -137 19 C-137.165 19.680625 -137.33 20.36125 -137.5 21.0625 C-137.665 21.701875 -137.83 22.34125 -138 23 C-138.99 23.33 -139.98 23.66 -141 24 C-141 24.66 -141 25.32 -141 26 C-141.66 26 -142.32 26 -143 26 C-142.505 28.475 -142.505 28.475 -142 31 C-141.01 30.67 -140.02 30.34 -139 30 C-137 30 -135 30 -133 30 C-128.28652568 29.58514365 -123.62027028 29.04328684 -119 28 C-118.505 28.99 -118.505 28.99 -118 30 C-118.61875 30.061875 -119.2375 30.12375 -119.875 30.1875 C-120.57625 30.455625 -121.2775 30.72375 -122 31 C-122.69658363 32.65438613 -123.36096883 34.32254318 -124 36 C-126.125 37.8125 -126.125 37.8125 -128 39 C-124.55930376 41.29379749 -123.27709699 42 -119 42 C-117.68 42 -116.36 42 -115 42 C-114.01 41.505 -113.02 41.01 -112 40.5 C-109 39 -109 39 -105 39 C-104.01 38.01 -104.01 38.01 -103 37 C-101.68 37 -100.36 37 -99 37 C-98.505 36.01 -98.505 36.01 -98 35 C-95.6015625 34.1484375 -95.6015625 34.1484375 -92.625 33.375 C-91.15933594 32.98441406 -91.15933594 32.98441406 -89.6640625 32.5859375 C-87 32 -87 32 -84 32 C-83.67 31.34 -83.34 30.68 -83 30 C-81.2578125 29.3671875 -81.2578125 29.3671875 -79.125 28.875 C-78.42632812 28.70742188 -77.72765625 28.53984375 -77.0078125 28.3671875 C-75 28 -75 28 -72 28 C-71.67 27.34 -71.34 26.68 -71 26 C-68.8203125 25.65625 -68.8203125 25.65625 -66.125 25.5 C-62.41961747 25.28394271 -61.19107794 25.12738529 -58 23 C-56.3603125 22.5359375 -56.3603125 22.5359375 -54.6875 22.0625 C-51.14249605 21.04105818 -48.27526803 19.67105512 -45 18 C-42.95546085 17.21183796 -40.9007225 16.46829957 -38.83203125 15.74609375 C-36.71777418 14.95622627 -36.71777418 14.95622627 -34 13 C-31.38572617 11.86950321 -28.77655395 10.92868743 -26.0625 10.0625 C-22.97709619 9.06601688 -22.97709619 9.06601688 -20.125 7.5625 C-17.71425847 6.35712923 -15.45931203 5.40368874 -12.9375 4.5 C-10.43965743 3.60077668 -8.54179412 2.71882821 -6.25 1.3125 C-4 0 -4 0 0 0 Z M-159 47 C-157.515 47.99 -157.515 47.99 -156 49 C-156.33 49.66 -156.66 50.32 -157 51 C-157.66 49.68 -158.32 48.36 -159 47 Z " fill="#C1FAF7" transform="translate(400,308)"/>
<path d="M0 0 C1.35600815 -0.01865616 1.35600815 -0.01865616 2.7394104 -0.03768921 C24.15734253 -0.27519544 44.28864938 0.49710338 65.234375 5.2734375 C66.00152832 5.43859863 66.76868164 5.60375977 67.55908203 5.77392578 C71.86981206 6.71348388 76.03884678 7.91296287 80.234375 9.2734375 C81.06388672 9.53995117 81.89339844 9.80646484 82.74804688 10.08105469 C121.95151358 22.80498686 154.56519728 42.80931042 184.234375 71.2734375 C183.29717791 72.39176559 182.35636326 73.50706261 181.4140625 74.62109375 C180.89054199 75.24250244 180.36702148 75.86391113 179.82763672 76.50415039 C177.83392254 78.71813241 175.63095703 80.51124483 173.234375 82.2734375 C172.66783203 81.67208984 172.66783203 81.67208984 172.08984375 81.05859375 C166.85128402 75.64827796 161.15397228 70.9160178 155.234375 66.2734375 C154.65010742 65.81275879 154.06583984 65.35208008 153.46386719 64.87744141 C129.76091525 46.3016356 103.96522724 33.20452434 75.234375 24.2734375 C74.12449219 23.92410156 73.01460937 23.57476562 71.87109375 23.21484375 C68.01934292 22.09377924 64.14855726 21.14372656 60.234375 20.2734375 C59.4295166 20.08861816 58.6246582 19.90379883 57.79541016 19.71337891 C42.00307322 16.25761646 26.33088561 15.87304652 10.234375 15.8359375 C9.23180664 15.82985474 8.22923828 15.82377197 7.19628906 15.81750488 C-5.76874939 15.76608156 -18.06719123 16.63991177 -30.765625 19.2734375 C-31.87196289 19.49233643 -32.97830078 19.71123535 -34.11816406 19.93676758 C-70.06799414 27.36018157 -104.98407273 42.95185877 -132.765625 67.2734375 C-133.63445312 68.03398437 -134.50328125 68.79453125 -135.3984375 69.578125 C-139.64734822 73.35631091 -143.81131692 77.18731915 -147.765625 81.2734375 C-151.21764139 79.79622328 -153.41524436 77.83549749 -156.015625 75.1484375 C-156.72203125 74.42398438 -157.4284375 73.69953125 -158.15625 72.953125 C-158.68734375 72.39882813 -159.2184375 71.84453125 -159.765625 71.2734375 C-155.5727643 65.94737121 -150.97645469 61.80612639 -145.67578125 57.58984375 C-143.80810472 56.10322337 -141.95961594 54.59198259 -140.13671875 53.05078125 C-120.81405653 36.72298769 -98.24924081 24.45408121 -74.765625 15.2734375 C-74.02892578 14.98243164 -73.29222656 14.69142578 -72.53320312 14.39160156 C-49.73063045 5.50299541 -24.47095554 0.31396031 0 0 Z " fill="#04B0DF" transform="translate(187.765625,189.7265625)"/>
<path d="M0 0 C0.50789063 0.34933594 1.01578125 0.69867188 1.5390625 1.05859375 C5.69405656 3.80524712 8.90884805 5.6181636 14 6 C13.67 7.32 13.34 8.64 13 10 C12.34 10 11.68 10 11 10 C10.67 10.66 10.34 11.32 10 12 C9.34 11.34 8.68 10.68 8 10 C7.34 10.66 6.68 11.32 6 12 C5.319375 12.28875 4.63875 12.5775 3.9375 12.875 C1.86484705 13.84145519 1.86484705 13.84145519 1.0625 15.875 C0.97735549 18.76991327 2.1879016 19.82548191 4 22 C4 22.66 4 23.32 4 24 C4.66 24 5.32 24 6 24 C6.33 23.34 6.66 22.68 7 22 C7.66 22.33 8.32 22.66 9 23 C9.34153937 24.66500443 9.67449498 26.33178677 10 28 C13.62495785 31.62495785 17.06223351 34.44070532 22 36 C22.99 36 23.98 36 25 36 C26.485 36.495 26.485 36.495 28 37 C28 37.66 28 38.32 28 39 C28.78375 38.649375 29.5675 38.29875 30.375 37.9375 C31.24125 37.628125 32.1075 37.31875 33 37 C33.66 37.33 34.32 37.66 35 38 C34 40 34 40 32 42 C31.01 42 30.02 42 29 42 C28.505 42.99 28.505 42.99 28 44 C27.01 44.804375 26.02 45.60875 25 46.4375 C21.80719023 48.71848207 21.80719023 48.71848207 21 52 C20.67 52.33 20.34 52.66 20 53 C21.98 53.66 23.96 54.32 26 55 C26 55.66 26 56.32 26 57 C28.64 56.67 31.28 56.34 34 56 C34.66 56.99 35.32 57.98 36 59 C36.99 59 37.98 59 39 59 C39.33 59.99 39.66 60.98 40 62 C41.485 62.495 41.485 62.495 43 63 C43 64.66666667 43 66.33333333 43 68 C44.45833358 69.62514468 44.45833358 69.62514468 46 71 C44.2227831 72.7772169 41.847528 72.11988099 39.48136902 72.12442017 C38.29454277 72.11902725 38.29454277 72.11902725 37.08374023 72.11352539 C36.25454071 72.11367142 35.42534119 72.11381744 34.5710144 72.1139679 C31.81684802 72.11326851 29.06274839 72.10547493 26.30859375 72.09765625 C24.40430234 72.09579216 22.50001045 72.09436822 20.59571838 72.09336853 C15.57332037 72.08954263 10.55095108 72.07971173 5.52856445 72.06866455 C-0.49195512 72.05665775 -6.51248428 72.05204853 -12.53301239 72.04621124 C-21.68869493 72.03650001 -30.84431439 72.01734396 -40 72 C-40 49.23 -40 26.46 -40 3 C-37.03 3.495 -37.03 3.495 -34 4 C-33.34 4 -32.68 4 -32 4 C-32 4.66 -32 5.32 -32 6 C-28.71303767 6.79953138 -27.28976808 7.09658936 -24 6 C-21.9375 6.875 -21.9375 6.875 -20 8 C-18.0745356 9.1490712 -18.0745356 9.1490712 -16 9 C-15.01 8.67 -14.02 8.34 -13 8 C-12.360625 8.350625 -11.72125 8.70125 -11.0625 9.0625 C-9.04826336 10.24551814 -9.04826336 10.24551814 -7 9.4375 C-3.48512312 6.91118224 -1.36403298 4.09209895 0 0 Z " fill="#CFFEB4" transform="translate(40,328)"/>
<path d="M0 0 C0 17.16 0 34.32 0 52 C-45.87 52 -91.74 52 -139 52 C-138.34 51.01 -137.68 50.02 -137 49 C-137.66 48.01 -138.32 47.02 -139 46 C-137.68 46 -136.36 46 -135 46 C-132.406659 44.93215371 -131.002501 44.002501 -129 42 C-128.34 42.66 -127.68 43.32 -127 44 C-125.906875 43.34 -124.81375 42.68 -123.6875 42 C-121.06292462 40.41535071 -120.1743622 40 -117 40 C-115.44076683 39.42021294 -113.90050455 38.78847341 -112.375 38.125 C-108.18501003 36.37763267 -104.18228749 35.26162421 -99.71484375 34.4921875 C-99.14894531 34.32976562 -98.58304687 34.16734375 -98 34 C-97.505 33.01 -97.505 33.01 -97 32 C-94.890625 31.4375 -94.890625 31.4375 -92.25 31 C-89.30925891 30.47636377 -86.89713549 29.95751249 -84.125 28.8125 C-82 28 -82 28 -80.0625 28.5625 C-76.775931 29.259651 -74.8000397 27.64350156 -72 26 C-71.34 25.34 -70.68 24.68 -70 24 C-68.515 24.495 -68.515 24.495 -67 25 C-64.75360973 24.46830678 -64.75360973 24.46830678 -62.4375 23.5625 C-58.17040359 22 -58.17040359 22 -56 22 C-55.505 20.515 -55.505 20.515 -55 19 C-53.515 19.495 -53.515 19.495 -52 20 C-50.66150329 19.00692179 -49.32848691 18.00642948 -48 17 C-46 17 -44 17 -42 17 C-41.67 16.34 -41.34 15.68 -41 15 C-40.34 15 -39.68 15 -39 15 C-35.25811088 13.47552666 -31.58538954 11.86440256 -28 10 C-27.505 10.495 -27.505 10.495 -27 11 C-26.34 10.34 -25.68 9.68 -25 9 C-24.236875 8.896875 -23.47375 8.79375 -22.6875 8.6875 C-19.05723022 7.75882634 -17.58596749 5.65061668 -15 3 C-12.4375 1.8125 -12.4375 1.8125 -10 1 C-9.0409375 0.4121875 -9.0409375 0.4121875 -8.0625 -0.1875 C-6 -1 -6 -1 0 0 Z " fill="#B1FAF9" transform="translate(400,348)"/>
<path d="M0 0 C0.66 0.66 1.32 1.32 2 2 C1.34 2.66 0.68 3.32 0 4 C0.49886719 4.21914062 0.99773438 4.43828125 1.51171875 4.6640625 C4.01142178 5.76806061 6.50569454 6.88385786 9 8 C10.14082031 8.5053125 11.28164063 9.010625 12.45703125 9.53125 C13.62621094 10.0571875 14.79539062 10.583125 16 11.125 C17.11375 11.62257813 18.2275 12.12015625 19.375 12.6328125 C22.40399306 14.21041305 22.53864729 15.07729458 24 18 C26.32315031 18.7013284 28.65789079 19.36485174 31 20 C31.70125 20.391875 32.4025 20.78375 33.125 21.1875 C35.78423806 22.33983649 37.27747377 21.88482102 40 21 C40.70125 20.46375 41.4025 19.9275 42.125 19.375 C42.74375 18.92125 43.3625 18.4675 44 18 C44.99 18.33 45.98 18.66 47 19 C47 20.98 47 22.96 47 25 C47.99 25.33 48.98 25.66 50 26 C50 26.66 50 27.32 50 28 C51.97536745 27.65213292 51.97536745 27.65213292 54 27 C54.33 26.34 54.66 25.68 55 25 C55.66 25.33 56.32 25.66 57 26 C57 26.99 57 27.98 57 29 C58.41666667 30.58333333 58.41666667 30.58333333 60 32 C60.33 32.66 60.66 33.32 61 34 C61.86625 33.7525 61.86625 33.7525 62.75 33.5 C65 33 65 33 69 33 C68.89300781 33.73992187 68.78601563 34.47984375 68.67578125 35.2421875 C68.72556472 38.19098313 68.72556472 38.19098313 71.23046875 40.1328125 C72.20628906 40.79023438 73.18210937 41.44765625 74.1875 42.125 C75.15042969 42.78757813 76.11335938 43.45015625 77.10546875 44.1328125 C79.70885301 45.81218858 82.33210646 47.42577711 85 49 C85.98097656 49.59039062 86.96195312 50.18078125 87.97265625 50.7890625 C88.99230469 51.39492187 90.01195313 52.00078125 91.0625 52.625 C92.08472656 53.23601562 93.10695313 53.84703125 94.16015625 54.4765625 C96.55092305 55.75909214 98.32182974 56.70371652 101 57 C103.72981832 55.64599355 103.72981832 55.64599355 106 54 C106 54.99 106 55.98 106 57 C105.34 57 104.68 57 104 57 C104 57.99 104 58.98 104 60 C105.76401402 61.6877081 105.76401402 61.6877081 108 63.1875 C108.7425 63.71730469 109.485 64.24710937 110.25 64.79296875 C110.8275 65.19128906 111.405 65.58960938 112 66 C113.98 64.68 115.96 63.36 118 62 C118.625 63.875 118.625 63.875 119 66 C118.34 66.66 117.68 67.32 117 68 C118.98 68.99 120.96 69.98 123 71 C123 71.66 123 72.32 123 73 C124.32 73.66 125.64 74.32 127 75 C128.98 73.515 128.98 73.515 131 72 C131 75 131 75 130 78 C131.98 77.34 133.96 76.68 136 76 C137.32 77.32 138.64 78.64 140 80 C139.67 80.99 139.34 81.98 139 83 C139.66 83 140.32 83 141 83 C142.32 83 143.64 83 145 83 C145 84.32 145 85.64 145 87 C146.4166747 88.7511573 146.4166747 88.7511573 148 90 C137.71495723 92.92044424 127.45127607 95.7287863 117 98 C118.70928527 94.38792546 120.86149089 91.24977106 123.171875 88 C124.28229698 85.96614604 124.28229698 85.96614604 123.140625 83.75 C122.76421875 83.1725 122.3878125 82.595 122 82 C121.34 82 120.68 82 120 82 C119.34 81.34 118.68 80.68 118 80 C117.319375 79.67 116.63875 79.34 115.9375 79 C114 78 114 78 113 76 C112.67 76.66 112.34 77.32 112 78 C111.34 78 110.68 78 110 78 C109.67 78.66 109.34 79.32 109 80 C108.62875 78.576875 108.62875 78.576875 108.25 77.125 C107.34566709 73.95023986 107.34566709 73.95023986 105.125 72.875 C104.42375 72.58625 103.7225 72.2975 103 72 C101.66666667 70.66666667 100.33333333 69.33333333 99 68 C98.34 68 97.68 68 97 68 C96.34 69.98 95.68 71.96 95 74 C94.34 74 93.68 74 93 74 C93 74.66 93 75.32 93 76 C92.34 76 91.68 76 91 76 C90.67 76.66 90.34 77.32 90 78 C89.20046862 74.71303767 88.90341064 73.28976808 90 70 C89.12085312 67.3430809 89.12085312 67.3430809 88 65 C87.67 65.66 87.34 66.32 87 67 C82.5 70 82.5 70 80 70 C79.1875 67.8125 79.1875 67.8125 79 65 C81.4375 62.1875 81.4375 62.1875 84 60 C82.35 58.68 80.7 57.36 79 56 C78.67 57.32 78.34 58.64 78 60 C77.34 60 76.68 60 76 60 C75.505 60.99 75.505 60.99 75 62 C74.505 60.02 74.505 60.02 74 58 C74.99 57.34 75.98 56.68 77 56 C75.47764564 52.95529127 72.81575514 51.79729052 70 50 C69.505 50.99 69.505 50.99 69 52 C68.34 52 67.68 52 67 52 C66.505 52.99 66.505 52.99 66 54 C65.375 52.125 65.375 52.125 65 50 C65.99 49.01 65.99 49.01 67 48 C66.071875 47.38125 65.14375 46.7625 64.1875 46.125 C62.125 44.75 60.0625 43.375 58 42 C57.505 42.99 57.505 42.99 57 44 C56.34 44 55.68 44 55 44 C54.505 44.99 54.505 44.99 54 46 C53.31292445 43.50935112 53 41.62113708 53 39 C51.23267901 37.5305191 51.23267901 37.5305191 49 36.3125 C48.2575 35.87550781 47.515 35.43851563 46.75 34.98828125 C46.1725 34.66214844 45.595 34.33601563 45 34 C44.505 34.99 44.505 34.99 44 36 C43.38125 35.34 42.7625 34.68 42.125 34 C40.24362573 31.7715451 40.24362573 31.7715451 38 32 C37.505 32.99 37.505 32.99 37 34 C36.34 34 35.68 34 35 34 C34.505 34.99 34.505 34.99 34 36 C33.34 36 32.68 36 32 36 C31.505 36.99 31.505 36.99 31 38 C30.505 36.02 30.505 36.02 30 34 C30.99 33.34 31.98 32.68 33 32 C32.505 31.01 32.505 31.01 32 30 C31.01 30 30.02 30 29 30 C26.44143249 28.91454712 24.98611612 27.98611612 23 26 C22.34 26 21.68 26 21 26 C20.34 25.34 19.68 24.68 19 24 C16.97007007 22.91737071 14.90465842 21.95641528 12.8125 21 C11 20 11 20 10 18 C9.34 18 8.68 18 8 18 C7.67 19.32 7.34 20.64 7 22 C6.34 22 5.68 22 5 22 C4.67 22.66 4.34 23.32 4 24 C3.67 22.35 3.34 20.7 3 19 C-0.11785113 19.64644661 -0.11785113 19.64644661 -1 22 C-1.66 21.01 -2.32 20.02 -3 19 C-3 19.66 -3 20.32 -3 21 C-3.66 21 -4.32 21 -5 21 C-5.13517903 18.24835568 -5.23415251 15.50335479 -5.3125 12.75 C-5.35439453 11.97269531 -5.39628906 11.19539063 -5.43945312 10.39453125 C-5.48727455 8.15648863 -5.46976923 6.19040326 -5 4 C-2.48046875 1.453125 -2.48046875 1.453125 0 0 Z M5 16 C4.67 16.99 4.34 17.98 4 19 C4.99 18.67 5.98 18.34 7 18 C7 17.34 7 16.68 7 16 C6.34 16 5.68 16 5 16 Z M93 66 C93.33 66.66 93.66 67.32 94 68 C94.33 67.34 94.66 66.68 95 66 C94.34 66 93.68 66 93 66 Z M91 68 C91.33 68.66 91.66 69.32 92 70 C92.33 69.34 92.66 68.68 93 68 C92.34 68 91.68 68 91 68 Z " fill="#FEFEDD" transform="translate(5,104)"/>
<path d="M0 0 C41.16232755 4.9559993 81.07324573 35.24814191 110 63 C109.06280291 64.11832809 108.12198826 65.23362511 107.1796875 66.34765625 C106.65616699 66.96906494 106.13264648 67.59047363 105.59326172 68.23071289 C103.59954754 70.44469491 101.39658203 72.23780733 99 74 C98.62230469 73.59910156 98.24460937 73.19820313 97.85546875 72.78515625 C92.61690902 67.37484046 86.91959728 62.6425803 81 58 C80.41573242 57.53932129 79.83146484 57.07864258 79.22949219 56.60400391 C55.19616418 37.76928513 27.0075712 21.92482412 -3 15 C-2.5547115 9.72684667 -1.91626837 4.98229776 0 0 Z " fill="#4D599E" transform="translate(262,198)"/>
<path d="M0 0 C0.508783 1.55966218 1.00663469 3.12289241 1.5 4.6875 C1.7784375 5.55761719 2.056875 6.42773438 2.34375 7.32421875 C2.99850805 9.99391677 3.11831495 12.26396684 3 15 C1.99324219 15.268125 0.98648438 15.53625 -0.05078125 15.8125 C-36.64246588 25.87102406 -70.58688924 45.70645222 -97 73 C-100.45201639 71.52278578 -102.64961936 69.56205999 -105.25 66.875 C-105.95640625 66.15054688 -106.6628125 65.42609375 -107.390625 64.6796875 C-107.92171875 64.12539063 -108.4528125 63.57109375 -109 63 C-104.8071393 57.67393371 -100.21082969 53.53268889 -94.91015625 49.31640625 C-93.04247972 47.82978587 -91.19399094 46.31854509 -89.37109375 44.77734375 C-67.65546794 26.42747813 -29.60180604 0 0 0 Z " fill="#05F262" transform="translate(137,198)"/>
<path d="M0 0 C6.24139213 0.89162745 7.2620591 1.15723546 12 4 C15.69523952 4.71923208 15.69523952 4.71923208 19 5 C19 5.66 19 6.32 19 7 C19.763125 6.79375 20.52625 6.5875 21.3125 6.375 C24 6 24 6 27 8 C28.9001177 9.24174796 28.9001177 9.24174796 31 10 C31.61875 9.814375 32.2375 9.62875 32.875 9.4375 C36.11212666 8.77103275 38.11585809 10.55792905 41 12 C43.16299211 11.77242269 43.16299211 11.77242269 45 11 C47.83967231 11 50.23735711 11.40267181 53 12 C51.73025028 7.58477891 51.73025028 7.58477891 49 4 C49.33 3.01 49.66 2.02 50 1 C50.495 1.495 50.495 1.495 51 2 C51.66 1.34 52.32 0.68 53 0 C53.66 0 54.32 0 55 0 C55 1.32 55 2.64 55 4 C55.66 3.01 56.32 2.02 57 1 C57.99 1 58.98 1 60 1 C59.67 1.66 59.34 2.32 59 3 C59.99 3.33 60.98 3.66 62 4 C61 6 61 6 60 7 C61.98 7.66 63.96 8.32 66 9 C66 9.66 66 10.32 66 11 C68.64 10.67 71.28 10.34 74 10 C74.99 11.485 74.99 11.485 76 13 C76.99 13 77.98 13 79 13 C79.495 14.485 79.495 14.485 80 16 C81.485 16.495 81.485 16.495 83 17 C83 18.66666667 83 20.33333333 83 22 C84.45833358 23.62514468 84.45833358 23.62514468 86 25 C84.2227831 26.7772169 81.847528 26.11988099 79.48136902 26.12442017 C78.29454277 26.11902725 78.29454277 26.11902725 77.08374023 26.11352539 C76.25454071 26.11367142 75.42534119 26.11381744 74.5710144 26.1139679 C71.81684802 26.11326851 69.06274839 26.10547493 66.30859375 26.09765625 C64.40430234 26.09579216 62.50001045 26.09436822 60.59571838 26.09336853 C55.57332037 26.08954263 50.55095108 26.07971173 45.52856445 26.06866455 C40.4077188 26.05845198 35.28686852 26.05387124 30.16601562 26.04882812 C20.1106624 26.03808952 10.05533808 26.02049215 0 26 C0 17.42 0 8.84 0 0 Z " fill="#BFFCAF" transform="translate(0,374)"/>
<path d="M0 0 C0.87527344 0.25265625 1.75054687 0.5053125 2.65234375 0.765625 C5.15812097 1.78905427 6.27307394 2.77194498 8.0625 4.75 C9.0525 5.41 10.0425 6.07 11.0625 6.75 C10.50521087 10.09373475 9.71076111 12.78312999 8.0625 15.75 C8.7225 16.41 9.3825 17.07 10.0625 17.75 C9.7325 18.74 9.4025 19.73 9.0625 20.75 C9.7225 21.08 10.3825 21.41 11.0625 21.75 C11.371875 22.389375 11.68125 23.02875 12 23.6875 C13.01595922 26.06971493 13.01595922 26.06971493 16.0625 27.75 C17.0525 27.09 18.0425 26.43 19.0625 25.75 C19.454375 26.20375 19.84625 26.6575 20.25 27.125 C23.65119419 30.17434651 26.54297041 30.75 31.0625 30.75 C32.0525 30.09 33.0425 29.43 34.0625 28.75 C34.7225 29.41 35.3825 30.07 36.0625 30.75 C39.83164404 30.75 41.06961009 30.74525994 44.0625 28.75 C45.18766085 26.91715557 45.18766085 26.91715557 46.0625 24.75 C46.619375 23.88375 47.17625 23.0175 47.75 22.125 C48.183125 21.34125 48.61625 20.5575 49.0625 19.75 C48.5675 18.76 48.5675 18.76 48.0625 17.75 C47.0725 17.75 46.0825 17.75 45.0625 17.75 C47.67159091 11.04090909 47.67159091 11.04090909 49.0625 8.75 C52.19599732 7.70550089 53.05218256 7.81576355 56.0625 8.75 C57.1875 12.0625 57.1875 12.0625 58.0625 15.75 C57.0725 17.235 57.0725 17.235 56.0625 18.75 C55.4025 18.75 54.7425 18.75 54.0625 18.75 C54.0625 20.07 54.0625 21.39 54.0625 22.75 C53.44905243 24.43698082 52.79154086 26.10965807 52.0625 27.75 C55.93271116 30.33014077 57.6114711 29.55927798 62.0625 28.75 C62.7225 28.75 63.3825 28.75 64.0625 28.75 C64.7225 28.564375 65.3825 28.37875 66.0625 28.1875 C68.0625 27.75 68.0625 27.75 70.0625 28.75 C69.75 30.6875 69.75 30.6875 69.0625 32.75 C67.5775 33.245 67.5775 33.245 66.0625 33.75 C65.546875 34.265625 65.03125 34.78125 64.5 35.3125 C64.025625 35.786875 63.55125 36.26125 63.0625 36.75 C62.4025 36.75 61.7425 36.75 61.0625 36.75 C60.0725 39.72 60.0725 39.72 59.0625 42.75 C59.7225 43.08 60.3825 43.41 61.0625 43.75 C63.0625 44.75 65.0625 45.75 67.0625 46.75 C63.53632356 49.10078429 62.11085119 48.99370599 57.9387207 48.97705078 C56.67763992 48.97689972 55.41655914 48.97674866 54.11726379 48.97659302 C52.74093468 48.96637976 51.36460717 48.95594777 49.98828125 48.9453125 C48.58009542 48.94158172 47.171907 48.93873506 45.76371765 48.93673706 C42.0597719 48.92910564 38.35598332 48.90946148 34.65209961 48.8873291 C30.87160366 48.86686003 27.09108228 48.85773308 23.31054688 48.84765625 C15.89445964 48.82621504 8.47850186 48.79208513 1.0625 48.75 C1.7225 47.76 2.3825 46.77 3.0625 45.75 C2.0725 45.09 1.0825 44.43 0.0625 43.75 C0.7225 41.77 1.3825 39.79 2.0625 37.75 C5.88003091 38.29536156 7.51283977 39.94537375 10.0625 42.75 C11.90133881 45.03728734 11.90133881 45.03728734 14.6875 44.875 C15.47125 44.83375 16.255 44.7925 17.0625 44.75 C18.68199011 42.17786866 19.10658751 41.07330841 18.6875 38 C18.48125 37.2575 18.275 36.515 18.0625 35.75 C17.7325 36.41 17.4025 37.07 17.0625 37.75 C16.7325 36.76 16.4025 35.77 16.0625 34.75 C16.7225 34.75 17.3825 34.75 18.0625 34.75 C15.63494264 32.32244264 13.17060492 31.17454809 10.0625 29.75 C9.4025 29.75 8.7425 29.75 8.0625 29.75 C7.4025 28.76 6.7425 27.77 6.0625 26.75 C5.258125 26.62625 4.45375 26.5025 3.625 26.375 C1.0625 25.75 1.0625 25.75 -0.75 23.1875 C-1.141875 22.383125 -1.53375 21.57875 -1.9375 20.75 C-0.27083333 20.75 1.39583333 20.75 3.0625 20.75 C3.7225 19.1 4.3825 17.45 5.0625 15.75 C4.0725 15.75 3.0825 15.75 2.0625 15.75 C0.2034877 14.17698959 -0.84559958 12.93380083 -1.9375 10.75 C-3.9175 11.74 -5.8975 12.73 -7.9375 13.75 C-6.78164715 9.83788267 -5.58215038 6.8754959 -2.9375 3.75 C-4.2575 3.42 -5.5775 3.09 -6.9375 2.75 C-6.9375 1.76 -6.9375 0.77 -6.9375 -0.25 C-4.17772114 -1.62988943 -2.91771199 -0.87402826 0 0 Z M-1.9375 1.75 C-0.9375 3.75 -0.9375 3.75 -0.9375 3.75 Z M10.0625 25.75 C11.0625 27.75 11.0625 27.75 11.0625 27.75 Z " fill="#C6FED1" transform="translate(99.9375,351.25)"/>
<path d="M0 0 C2.78211944 0.37596209 4.5879284 0.67318459 6.8125 2.4375 C8 4 8 4 8 6 C9.98 5.67 11.96 5.34 14 5 C14.66 6.32 15.32 7.64 16 9 C16.721875 8.814375 17.44375 8.62875 18.1875 8.4375 C21 8 21 8 23.4375 8.5 C26.54333299 9.10601619 28.91372753 8.60383592 32 8 C45 8 45 8 48 9 C48 9.66 48 10.32 48 11 C47.34 11 46.68 11 46 11 C45.67 11.66 45.34 12.32 45 13 C44.401875 12.79375 43.80375 12.5875 43.1875 12.375 C40.71549154 11.69328085 40.71549154 11.69328085 38 14 C35 14 35 14 32 13 C32.495 14.485 32.495 14.485 33 16 C32.34 16 31.68 16 31 16 C32.32 17.65 33.64 19.3 35 21 C34.34 21.99 33.68 22.98 33 24 C32.34 24 31.68 24 31 24 C31.2784375 24.9590625 31.2784375 24.9590625 31.5625 25.9375 C31.706875 26.618125 31.85125 27.29875 32 28 C31.505 28.495 31.505 28.495 31 29 C33.64 30.32 36.28 31.64 39 33 C38.34 33.99 37.68 34.98 37 36 C34 35 34 35 32 33 C30.7625 32.2884375 30.7625 32.2884375 29.5 31.5625 C27 30 27 30 25 27 C24.01 27 23.02 27 22 27 C21.01 26.34 20.02 25.68 19 25 C19.495 23.515 19.495 23.515 20 22 C22.31 21.67 24.62 21.34 27 21 C26.29660434 18.49034386 26.29660434 18.49034386 25 16 C23.02919843 15.25723969 23.02919843 15.25723969 21 15 C20.34 14.34 19.68 13.68 19 13 C15.0659119 11.41123365 12.98531935 10.63804595 8.9375 12.125 C6.90157371 13.42452742 4.90292616 14.78362417 2.9375 16.1875 C-0.14577177 18.08994429 -1.47031836 18.66777761 -5 18 C-6.625 16.6875 -6.625 16.6875 -8 15 C-10.38001173 12.29544122 -12.53931952 11.06482476 -16 10 C-16.99 10.495 -16.99 10.495 -18 11 C-18 10.01 -18 9.02 -18 8 C-14.71303767 7.20046862 -13.28976808 6.90341064 -10 8 C-9.01 8 -8.02 8 -7 8 C-5.31763529 8.62599617 -3.6476038 9.28752268 -2 10 C0.34146478 7.23185709 0.34146478 7.23185709 -0.4375 4.4375 C-0.623125 3.633125 -0.80875 2.82875 -1 2 C-0.67 1.34 -0.34 0.68 0 0 Z " fill="#DFFECB" transform="translate(90,321)"/>
<path d="M0 0 C0.60328125 0.32742188 1.2065625 0.65484375 1.828125 0.9921875 C4.37547299 2.17423027 6.22412038 2.15421553 9 2 C9.66 3.32 10.32 4.64 11 6 C10.01 6.33 9.02 6.66 8 7 C6.79117904 9.00016466 6.79117904 9.00016466 6 11 C5.34 11 4.68 11 4 11 C5.36983503 14.16115776 5.9890638 14.9927092 9 17 C11.15274948 16.69159401 11.15274948 16.69159401 13 16 C13 16.99 13 17.98 13 19 C12.34 19.66 11.68 20.32 11 21 C12.32 20.67 13.64 20.34 15 20 C15 23.69418201 13.71820705 25.77836178 12 29 C11.13375 28.690625 11.13375 28.690625 10.25 28.375 C7.48032433 27.91338739 6.35438733 28.57055055 4 30 C3.67 29.34 3.34 28.68 3 28 C2.4225 28.350625 1.845 28.70125 1.25 29.0625 C-1.40158116 30.16732548 -2.32733014 29.80180096 -5 29 C-5.66 29.33 -6.32 29.66 -7 30 C-7.33 29.67 -7.66 29.34 -8 29 C-9.98 29.99 -9.98 29.99 -12 31 C-12 28 -12 28 -11 26 C-10.113125 26.061875 -9.22625 26.12375 -8.3125 26.1875 C-4.62029058 25.97850701 -2.99400987 25.07917352 0 23 C0.66 22.67 1.32 22.34 2 22 C0.77759242 17.95665186 -0.60438306 14.49360803 -3 11 C-3.66 10.67 -4.32 10.34 -5 10 C-5.33 10.66 -5.66 11.32 -6 12 C-7.32 11.67 -8.64 11.34 -10 11 C-9.69593558 7.75480334 -9.43719323 6.38099448 -6.93359375 4.19921875 C-6.10988281 3.70035156 -5.28617187 3.20148438 -4.4375 2.6875 C-3.61121094 2.17574219 -2.78492187 1.66398437 -1.93359375 1.13671875 C-1.29550781 0.76160156 -0.65742187 0.38648438 0 0 Z M12 2 C12.66 2.33 13.32 2.66 14 3 C13.34 3.66 12.68 4.32 12 5 C12 4.01 12 3.02 12 2 Z " fill="#F1FFD1" transform="translate(114,276)"/>
<path d="M0 0 C0.66 0 1.32 0 2 0 C2.66 0.99 3.32 1.98 4 3 C4.99 3.66 5.98 4.32 7 5 C6.01 5.66 5.02 6.32 4 7 C3.835 7.680625 3.67 8.36125 3.5 9.0625 C3.335 9.701875 3.17 10.34125 3 11 C2.01 11.33 1.02 11.66 0 12 C0 12.66 0 13.32 0 14 C-0.66 14 -1.32 14 -2 14 C-1.67 15.65 -1.34 17.3 -1 19 C-0.01 18.67 0.98 18.34 2 18 C4 18 6 18 8 18 C12.71347432 17.58514365 17.37972972 17.04328684 22 16 C22.495 16.99 22.495 16.99 23 18 C22.38125 18.061875 21.7625 18.12375 21.125 18.1875 C20.42375 18.455625 19.7225 18.72375 19 19 C18.71125 19.78375 18.4225 20.5675 18.125 21.375 C16.58677442 24.96419303 14.51027038 25.55010571 11 27 C10.67 26.34 10.34 25.68 10 25 C8.824375 25.309375 8.824375 25.309375 7.625 25.625 C6.75875 25.74875 5.8925 25.8725 5 26 C4.34 25.34 3.68 24.68 3 24 C0.39719432 24.32041397 0.39719432 24.32041397 -2 25 C-2 24.34 -2 23.68 -2 23 C-2.99 23 -3.98 23 -5 23 C-5.33 23.66 -5.66 24.32 -6 25 C-7.5 23.625 -7.5 23.625 -9 22 C-9 21.34 -9 20.68 -9 20 C-9.66 19.67 -10.32 19.34 -11 19 C-10.34 19 -9.68 19 -9 19 C-9.33 17.35 -9.66 15.7 -10 14 C-8.35 13.34 -6.7 12.68 -5 12 C-5.33 10.35 -5.66 8.7 -6 7 C-5.34 6.67 -4.68 6.34 -4 6 C-5.32 5.67 -6.64 5.34 -8 5 C-7.34 3.68 -6.68 2.36 -6 1 C-4.7934375 1.0309375 -4.7934375 1.0309375 -3.5625 1.0625 C-1.06645115 1.29633621 -1.06645115 1.29633621 0 0 Z " fill="#D3FAEC" transform="translate(259,320)"/>
<path d="M0 0 C0.87527344 0.25265625 1.75054687 0.5053125 2.65234375 0.765625 C5.15812097 1.78905427 6.27307394 2.77194498 8.0625 4.75 C9.0525 5.41 10.0425 6.07 11.0625 6.75 C10.50521087 10.09373475 9.71076111 12.78312999 8.0625 15.75 C8.7225 16.41 9.3825 17.07 10.0625 17.75 C9.7325 18.74 9.4025 19.73 9.0625 20.75 C9.7225 21.08 10.3825 21.41 11.0625 21.75 C11.9140625 23.59765625 11.9140625 23.59765625 12.6875 25.8125 C12.94789062 26.54597656 13.20828125 27.27945312 13.4765625 28.03515625 C13.66992188 28.60105469 13.86328125 29.16695313 14.0625 29.75 C12.0625 29.75 10.0625 29.75 8.0625 29.75 C7.4025 28.76 6.7425 27.77 6.0625 26.75 C5.258125 26.62625 4.45375 26.5025 3.625 26.375 C1.0625 25.75 1.0625 25.75 -0.75 23.1875 C-1.141875 22.383125 -1.53375 21.57875 -1.9375 20.75 C-0.27083333 20.75 1.39583333 20.75 3.0625 20.75 C3.7225 19.1 4.3825 17.45 5.0625 15.75 C4.0725 15.75 3.0825 15.75 2.0625 15.75 C0.2034877 14.17698959 -0.84559958 12.93380083 -1.9375 10.75 C-3.9175 11.74 -5.8975 12.73 -7.9375 13.75 C-6.78164715 9.83788267 -5.58215038 6.8754959 -2.9375 3.75 C-4.2575 3.42 -5.5775 3.09 -6.9375 2.75 C-6.9375 1.76 -6.9375 0.77 -6.9375 -0.25 C-4.17772114 -1.62988943 -2.91771199 -0.87402826 0 0 Z M-1.9375 1.75 C-0.9375 3.75 -0.9375 3.75 -0.9375 3.75 Z M10.0625 25.75 C11.0625 27.75 11.0625 27.75 11.0625 27.75 Z " fill="#CFFBC4" transform="translate(99.9375,351.25)"/>
<path d="M0 0 C0.50789063 0.34933594 1.01578125 0.69867188 1.5390625 1.05859375 C5.69405656 3.80524712 8.90884805 5.6181636 14 6 C13.67 7.32 13.34 8.64 13 10 C12.34 10 11.68 10 11 10 C10.67 10.66 10.34 11.32 10 12 C9.34 11.34 8.68 10.68 8 10 C7.34 10.66 6.68 11.32 6 12 C5.319375 12.28875 4.63875 12.5775 3.9375 12.875 C1.86484705 13.84145519 1.86484705 13.84145519 1.0625 15.875 C0.9774058 18.76820282 2.11756462 19.89167237 4 22 C3.01 22.66 2.02 23.32 1 24 C0.401875 23.505 -0.19625 23.01 -0.8125 22.5 C-2.97029994 20.71723582 -2.97029994 20.71723582 -6 21 C-6.0825 20.21625 -6.165 19.4325 -6.25 18.625 C-6.72806339 15.85250896 -6.72806339 15.85250896 -9.0625 14.6875 C-9.701875 14.460625 -10.34125 14.23375 -11 14 C-11.33 14.66 -11.66 15.32 -12 16 C-12.45375 15.38125 -12.9075 14.7625 -13.375 14.125 C-14.97108919 11.94080167 -14.97108919 11.94080167 -17 10 C-15.25 8.875 -15.25 8.875 -13 8 C-11.66666667 8.66666667 -10.33333333 9.33333333 -9 10 C-5.13212226 8.91215939 -3.25571169 6.18910963 -1 3 C-0.67 2.01 -0.34 1.02 0 0 Z M-20 8 C-19.34 8.33 -18.68 8.66 -18 9 C-17.375 11.0625 -17.375 11.0625 -17 13 C-18.32 12.67 -19.64 12.34 -21 12 C-20.67 10.68 -20.34 9.36 -20 8 Z " fill="#DDFEBB" transform="translate(40,328)"/>
<path d="M0 0 C0.66 0.33 1.32 0.66 2 1 C2.33 1.99 2.66 2.98 3 4 C0.09492679 6.42089434 -2.63147043 8.31573522 -6 10 C-6.33 10.66 -6.66 11.32 -7 12 C-7.66 12 -8.32 12 -9 12 C-9 12.66 -9 13.32 -9 14 C-9.99 14.495 -9.99 14.495 -11 15 C-11.65555119 17.52733235 -11.65555119 17.52733235 -12 20 C-10.68 20.66 -9.36 21.32 -8 22 C-8.17625835 24.37948772 -8.69719773 25.70225849 -10.40234375 27.37890625 C-11.90649092 28.62115486 -13.45129851 29.81376056 -15 31 C-14.34 31.33 -13.68 31.66 -13 32 C-17.29 32 -21.58 32 -26 32 C-23 29 -23 29 -20 28 C-20.2475 27.4225 -20.495 26.845 -20.75 26.25 C-20.8325 25.5075 -20.915 24.765 -21 24 C-19.0625 21.75 -19.0625 21.75 -17 20 C-17.99 18.68 -18.98 17.36 -20 16 C-19.67 15.38125 -19.34 14.7625 -19 14.125 C-17.85806765 12.08981656 -17.85806765 12.08981656 -18 10 C-16.66666667 9.66666667 -15.33333333 9.33333333 -14 9 C-12.948125 8.7215625 -12.948125 8.7215625 -11.875 8.4375 C-10 8 -10 8 -8 8 C-7.773125 7.38125 -7.54625 6.7625 -7.3125 6.125 C-5.61545208 3.37739861 -3.97485929 3.06789821 -1 2 C-0.67 1.34 -0.34 0.68 0 0 Z " fill="#C1FBE5" transform="translate(223,368)"/>
<path d="M0 0 C1.41791408 0.45445964 2.83428046 0.91374944 4.25 1.375 C5.43335938 1.75785156 5.43335938 1.75785156 6.640625 2.1484375 C8.87077452 2.95335902 10.90362113 3.898286 13 5 C13.70125 5.350625 14.4025 5.70125 15.125 6.0625 C16.41666667 6.70833333 17.70833333 7.35416667 19 8 C19 8.66 19 9.32 19 10 C18.34 10 17.68 10 17 10 C16.67 10.66 16.34 11.32 16 12 C13.30114269 12.57422496 10.76207303 13 8 13 C7.34 13.66 6.68 14.32 6 15 C4.67607028 16.01241685 3.34400833 17.01439389 2 18 C2 17.34 2 16.68 2 16 C1.01 16.33 0.02 16.66 -1 17 C-4.19298246 10.61403509 -4.19298246 10.61403509 -3.3125 7.8125 C-2.879375 7.214375 -2.44625 6.61625 -2 6 C-0.41540971 3.14962302 -0.41540971 3.14962302 0 0 Z M-1 13 C0 15 0 15 0 15 Z " fill="#E6FFC0" transform="translate(35,312)"/>
<path d="M0 0 C0.66 0.33 1.32 0.66 2 1 C2 1.33 2 1.66 2 2 C3.32 2 4.64 2 6 2 C7.32 2 8.64 2 10 2 C10.99 3.98 11.98 5.96 13 8 C12.01 8.33 11.02 8.66 10 9 C9.26676204 11.01508358 9.26676204 11.01508358 9 13 C8.34 13 7.68 13 7 13 C6.67 13.66 6.34 14.32 6 15 C1.89957626 15 -1.94021527 14.61279769 -6 14 C-6.33 12.35 -6.66 10.7 -7 9 C-6.01 8.67 -5.02 8.34 -4 8 C-4 6.68 -4 5.36 -4 4 C-2 1.75 -2 1.75 0 0 Z " fill="#FDDFF1" transform="translate(366,84)"/>
<path d="M0 0 C2.51083114 1.25541557 2.87125446 2.50063488 4 5 C3.34 5 2.68 5 2 5 C2.165 5.928125 2.33 6.85625 2.5 7.8125 C3 11 3 11 3 14 C1.5 15.6875 1.5 15.6875 0 17 C2.475 17.99 2.475 17.99 5 19 C4.34 19.33 3.68 19.66 3 20 C4.32 21.32 5.64 22.64 7 24 C6.34 24.99 5.68 25.98 5 27 C3.68 27 2.36 27 1 27 C-1 25 -1 25 -3 22 C-5.56282742 21.27034634 -5.56282742 21.27034634 -8 21 C-8.51243563 15.61942591 -7.02247549 13.34480851 -4 9 C-4 7.68 -4 6.36 -4 5 C-2 2.25 -2 2.25 0 0 Z " fill="#DBFED8" transform="translate(168,326)"/>
<path d="M0 0 C0.8971875 0.5259375 0.8971875 0.5259375 1.8125 1.0625 C4.10813214 2.33304698 4.10813214 2.33304698 7 1 C9.6875 2.4375 9.6875 2.4375 12 4 C11.01 5.485 11.01 5.485 10 7 C10.80161791 9.67145537 10.80161791 9.67145537 12 12 C13.65 11.67 15.3 11.34 17 11 C18.125 15.75 18.125 15.75 17 18 C17.66 18.66 18.32 19.32 19 20 C18.34 20.99 17.68 21.98 17 23 C16.34 23 15.68 23 15 23 C15.33 24.32 15.66 25.64 16 27 C15.01 26.67 14.02 26.34 13 26 C12.01 26.33 11.02 26.66 10 27 C10.37125 25.906875 10.7425 24.81375 11.125 23.6875 C11.558125 21.8621875 11.558125 21.8621875 12 20 C11.34 19.01 10.68 18.02 10 17 C9.71125 16.319375 9.4225 15.63875 9.125 14.9375 C7.75594512 12.57968326 6.49110723 11.99644289 4 11 C4 9.35 4 7.7 4 6 C2.68 6.33 1.36 6.66 0 7 C0 4.66666667 0 2.33333333 0 0 Z M7 26 C7.99 26.33 8.98 26.66 10 27 C9.67 27.99 9.34 28.98 9 30 C8.67 29.34 8.34 28.68 8 28 C7.34 27.67 6.68 27.34 6 27 C6.33 26.67 6.66 26.34 7 26 Z " fill="#D8FBF4" transform="translate(281,306)"/>
<path d="M0 0 C4.03810445 1.34603482 5.47295076 3.65336723 8 7 C8 7.66 8 8.32 8 9 C7.67 9.33 7.34 9.66 7 10 C10.62528568 10.20140476 12.86501708 9.85776765 16 8 C14.53427687 12.64145658 14.53427687 12.64145658 12.23046875 14.1875 C9.55603548 15.16172438 7.86910277 15.01420532 5.0625 14.625 C1.67020429 14.17409207 -1.57564589 13.93874143 -5 14 C-5.33 14.66 -5.66 15.32 -6 16 C-8.475 15.01 -8.475 15.01 -11 14 C-9.48995984 10.2248996 -9.48995984 10.2248996 -7.09375 9.125 C-4.52854572 7.74668128 -3.70044251 6.37298433 -2.25 3.875 C-1.82203125 3.15054687 -1.3940625 2.42609375 -0.953125 1.6796875 C-0.63859375 1.12539063 -0.3240625 0.57109375 0 0 Z " fill="#E7FCEA" transform="translate(267,275)"/>
<path d="M0 0 C0 2.31 0 4.62 0 7 C-0.928125 7.144375 -1.85625 7.28875 -2.8125 7.4375 C-6.00725111 7.92100111 -6.00725111 7.92100111 -9 9 C-9.33 9.66 -9.66 10.32 -10 11 C-12 11.33333333 -14 11.66666667 -16 12 C-16.33 12.66 -16.66 13.32 -17 14 C-17.5775 14.103125 -18.155 14.20625 -18.75 14.3125 C-22.03513837 15.31629228 -23.71052302 17.51973328 -26 20 C-26.45375 19.360625 -26.9075 18.72125 -27.375 18.0625 C-28.83921726 15.90297594 -28.83921726 15.90297594 -31 15 C-29.68 13.35 -28.36 11.7 -27 10 C-26.34 10.33 -25.68 10.66 -25 11 C-22.31400569 11 -20.89053197 9.94765856 -18.5625 8.625 C-17.78003906 8.18414062 -16.99757813 7.74328125 -16.19140625 7.2890625 C-14.42569986 6.25041169 -12.70448799 5.13632533 -11 4 C-10.01 4 -9.02 4 -8 4 C-1.875 0 -1.875 0 0 0 Z " fill="#F1FFFC" transform="translate(400,202)"/>
<path d="M0 0 C0.66 0.99 1.32 1.98 2 3 C0.25 4.5625 0.25 4.5625 -2 6 C-4 5.625 -4 5.625 -6 5 C-9.04890915 5.46195593 -10.33779373 6.22519582 -13 8 C-13.99 7.67 -14.98 7.34 -16 7 C-18.87517597 9.17105124 -21.4542872 11.4542872 -24 14 C-25.65204456 14.70211894 -27.31923769 15.36971413 -29 16 C-29.66 16.33 -30.32 16.66 -31 17 C-30.62319858 14.42334323 -30.27990468 13.25570731 -28.328125 11.47265625 C-27.64234375 11.00730469 -26.9565625 10.54195313 -26.25 10.0625 C-22.78863496 7.61588766 -19.90130105 5.08263236 -17 2 C-16.01 2.33 -15.02 2.66 -14 3 C-12.31791365 2.02616054 -10.65261839 1.02304948 -9 0 C-5.69073148 -0.9685664 -3.23122477 -1.33705853 0 0 Z " fill="#DDFCF9" transform="translate(362,276)"/>
<path d="M0 0 C0.556875 0.268125 1.11375 0.53625 1.6875 0.8125 C2.0175 2.1325 2.3475 3.4525 2.6875 4.8125 C2.0275 4.8125 1.3675 4.8125 0.6875 4.8125 C-1.35419485 7.71798882 -2.3125 9.21392046 -2.3125 12.8125 C-3.3025 12.8125 -4.2925 12.8125 -5.3125 12.8125 C-4.9825 14.1325 -4.6525 15.4525 -4.3125 16.8125 C-7.59946233 17.61203138 -9.02273192 17.90908936 -12.3125 16.8125 C-11.0280241 11.04520321 -7.1234781 -0.57757931 0 0 Z M1.6875 -0.1875 C3.6875 0.8125 3.6875 0.8125 3.6875 0.8125 Z " fill="#F8FDF0" transform="translate(326.3125,202.1875)"/>
<path d="M0 0 C3.44756956 1.21130822 5.49405626 2.38510218 8 5 C9.88316159 6.10836423 9.88316159 6.10836423 12 7 C12.86625 7.391875 13.7325 7.78375 14.625 8.1875 C15.40875 8.455625 16.1925 8.72375 17 9 C17.66 8.67 18.32 8.34 19 8 C19 10.31 19 12.62 19 15 C15.73045798 14.43628586 14.17424117 13.50037734 12 11 C11.67 11.66 11.34 12.32 11 13 C9.68 11.68 8.36 10.36 7 9 C6.67 9.66 6.34 10.32 6 11 C4.125 10.75 4.125 10.75 2 10 C0.875 8.1875 0.875 8.1875 0 6 C-0.37125 5.2575 -0.7425 4.515 -1.125 3.75 C-1.41375 3.1725 -1.7025 2.595 -2 2 C-1.34 1.34 -0.68 0.68 0 0 Z " fill="#FDDDF3" transform="translate(381,90)"/>
<path d="M0 0 C-1.485 1.485 -1.485 1.485 -3 3 C-3.33 2.34 -3.66 1.68 -4 1 C-4.99 1.33 -5.98 1.66 -7 2 C-7 1.34 -7 0.68 -7 0 C-4.3333581 -1.33332095 -2.83319697 -0.67102033 0 0 Z M-7 2 C-7 2.66 -7 3.32 -7 4 C-7.66 4 -8.32 4 -9 4 C-9.66 5.32 -10.32 6.64 -11 8 C-12.32 8 -13.64 8 -15 8 C-15.66 9.32 -16.32 10.64 -17 12 C-17.99 11.67 -18.98 11.34 -20 11 C-21.32044761 5.59816887 -21.32044761 5.59816887 -20.0625 3.25 C-15.58133963 0.53414523 -11.49051557 -0.99367704 -7 2 Z " fill="#F1FFF6" transform="translate(362,223)"/>
<path d="M0 0 C0.85271484 0.10828125 0.85271484 0.10828125 1.72265625 0.21875 C5.49992039 0.67277841 9.12490269 1 12.9375 1 C16 1 16 1 18 2 C18 2.66 18 3.32 18 4 C18.37125 3.505 18.7425 3.01 19.125 2.5 C21.74694393 0.40244486 23.73842472 0.78256165 27 1 C27.33 2.32 27.66 3.64 28 5 C18.33333333 5 8.66666667 5 -1 5 C-1.33 4.34 -1.66 3.68 -2 3 C-1.34 2.01 -0.68 1.02 0 0 Z " fill="#9A9DA6" transform="translate(334,178)"/>
<path d="M0 0 C0 0.66 0 1.32 0 2 C1.98 1.67 3.96 1.34 6 1 C6.5625 2.9375 6.5625 2.9375 7 5 C6 6 6 6 4.05053711 6.11352539 C3.2178833 6.10828857 2.38522949 6.10305176 1.52734375 6.09765625 C0.62822266 6.09443359 -0.27089844 6.09121094 -1.19726562 6.08789062 C-2.14279297 6.07951172 -3.08832031 6.07113281 -4.0625 6.0625 C-5.01189453 6.05798828 -5.96128906 6.05347656 -6.93945312 6.04882812 C-9.29303065 6.0370011 -11.64648477 6.02052025 -14 6 C-13.67 4.68 -13.34 3.36 -13 2 C-11.20873548 1.66451233 -9.41697413 1.33167645 -7.625 1 C-6.62726563 0.814375 -5.62953125 0.62875 -4.6015625 0.4375 C-2 0 -2 0 0 0 Z " fill="#A5A9AF" transform="translate(342,186)"/>
<path d="M0 0 C1.03125 0.33 2.0625 0.66 3.125 1 C6.48426709 1.9715192 9.49106202 2.17116771 13 2 C13 1.34 13 0.68 13 0 C13.66 0 14.32 0 15 0 C15.33 0.66 15.66 1.32 16 2 C16.99 2.33 17.98 2.66 19 3 C19 3.99 19 4.98 19 6 C12.33333333 6 5.66666667 6 -1 6 C-1.042721 4.33388095 -1.04063832 2.66617115 -1 1 C-0.67 0.67 -0.34 0.34 0 0 Z " fill="#A6CE8E" transform="translate(50,177)"/>
<path d="M0 0 C-1.0704301 3.10424729 -1.88143566 3.93413092 -4.8125 5.5625 C-5.864375 6.036875 -6.91625 6.51125 -8 7 C-10.69703607 8.53240686 -12.80625355 9.80625355 -15 12 C-15.33 11.67 -15.66 11.34 -16 11 C-16.66 11.66 -17.32 12.32 -18 13 C-18.66 12.34 -19.32 11.68 -20 11 C-20.99 10.67 -21.98 10.34 -23 10 C-22.67 9.01 -22.34 8.02 -22 7 C-17.25 5.875 -17.25 5.875 -15 7 C-14.67 6.34 -14.34 5.68 -14 5 C-12.00945124 4.30562253 -10.00744615 3.64389782 -8 3 C-6.9275 2.46375 -5.855 1.9275 -4.75 1.375 C-2 0 -2 0 0 0 Z " fill="#F5FDE6" transform="translate(252,249)"/>
<path d="M0 0 C2.35953094 2.35953094 2.49141413 3.77895617 3 7 C3.99 7.33 4.98 7.66 6 8 C5.34 8.66 4.68 9.32 4 10 C2.68 9.34 1.36 8.68 0 8 C-0.66 8.66 -1.32 9.32 -2 10 C-2.33 9.01 -2.66 8.02 -3 7 C-5.37402417 5.19212694 -5.37402417 5.19212694 -8 4 C-8.99 4.495 -8.99 4.495 -10 5 C-9.1875 2.5625 -9.1875 2.5625 -8 0 C-4.67679974 -1.10773342 -3.30835256 -0.93312508 0 0 Z " fill="#F2FFC5" transform="translate(42,286)"/>
<path d="M0 0 C0.94875 0.165 1.8975 0.33 2.875 0.5 C5.80168901 1.0526635 5.80168901 1.0526635 8 1 C8 1.66 8 2.32 8 3 C11.28696233 3.79953138 12.71023192 4.09658936 16 3 C16.99 3.99 17.98 4.98 19 6 C16.83304275 8.16695725 16.00388632 8.73495121 13 9 C10.9375 7.625 10.9375 7.625 9 6 C8.01 5.67 7.02 5.34 6 5 C5.67 5.66 5.34 6.32 5 7 C4.34 6.34 3.68 5.68 3 5 C2.01 5.33 1.02 5.66 0 6 C0 4.02 0 2.04 0 0 Z " fill="#DCFFB8" transform="translate(0,331)"/>
<path d="M0 0 C1.30324219 0.23396484 1.30324219 0.23396484 2.6328125 0.47265625 C4.36144531 0.76462891 4.36144531 0.76462891 6.125 1.0625 C7.83042969 1.35833984 7.83042969 1.35833984 9.5703125 1.66015625 C12.9753892 1.99756134 15.67178131 1.72330588 19 1 C19.33 1.99 19.66 2.98 20 4 C14.35600642 6.44064587 9.02248522 6.19289099 3 6 C3 5.34 3 4.68 3 4 C2.01 4.33 1.02 4.66 0 5 C0 3.35 0 1.7 0 0 Z " fill="#A1CC8A" transform="translate(48,186)"/>
<path d="M0 0 C1.32 0.66 2.64 1.32 4 2 C3.67 2.66 3.34 3.32 3 4 C3.33 4.99 3.66 5.98 4 7 C2.35 8.65 0.7 10.3 -1 12 C-2.32 11.34 -3.64 10.68 -5 10 C-5 7.28070943 -4.94379835 5.5167956 -4 3 C-1.9375 1.25 -1.9375 1.25 0 0 Z " fill="#E7FDF9" transform="translate(362,238)"/>
<path d="M0 0 C2.475 0.99 2.475 0.99 5 2 C5.33 1.67 5.66 1.34 6 1 C7.66617115 0.95936168 9.33388095 0.957279 11 1 C11.33 1.99 11.66 2.98 12 4 C7.46961834 5.76795382 3.83737371 6.0912712 -1 6 C-1.99 6.33 -2.98 6.66 -4 7 C-4 5.35 -4 3.7 -4 2 C-2.68 2 -1.36 2 0 2 C0 1.34 0 0.68 0 0 Z " fill="#9EB2B5" transform="translate(200,133)"/>
<path d="M0 0 C0.33 0.66 0.66 1.32 1 2 C2.32407669 2.68486725 3.65909241 3.34870203 5 4 C6.35113205 4.97581759 7.68946944 5.97029741 9 7 C7.95125002 9.62187494 7.35068687 10.79371361 4.875 12.25 C4.25625 12.4975 3.6375 12.745 3 13 C3.33 11.68 3.66 10.36 4 9 C2.02 9.33 0.04 9.66 -2 10 C-2.6875 8.375 -2.6875 8.375 -3 6 C-1.5625 2.75 -1.5625 2.75 0 0 Z " fill="#F7FFD2" transform="translate(100,270)"/>
<path d="M0 0 C3.81684226 1.55500981 6.19195732 4.03595495 9 7 C8.01 7.33 7.02 7.66 6 8 C5.67 8.66 5.34 9.32 5 10 C4.34 10 3.68 10 3 10 C2.34 9.01 1.68 8.02 1 7 C0.01 7.495 0.01 7.495 -1 8 C-1.66 7.67 -2.32 7.34 -3 7 C-3.1875 4.625 -3.1875 4.625 -3 2 C-2.01 1.34 -1.02 0.68 0 0 Z " fill="#FAFFC6" transform="translate(3,261)"/>
<path d="M0 0 C2 2 2 2 2 4 C-0.56018518 6.21421421 -3.18300938 8.12200625 -6 10 C-6.66 9.34 -7.32 8.68 -8 8 C-9.98 8.66 -11.96 9.32 -14 10 C-14.66 9.01 -15.32 8.02 -16 7 C-13.50935112 6.31292445 -11.62113708 6 -9 6 C-8.67 5.34 -8.34 4.68 -8 4 C-5.68191636 2.96514123 -3.34824702 1.9644586 -1 1 C-0.67 0.67 -0.34 0.34 0 0 Z " fill="#CAFEDD" transform="translate(186,373)"/>
<path d="M0 0 C0.763125 0.20625 1.52625 0.4125 2.3125 0.625 C2.01631606 4.17920724 1.50912957 5.42837043 -1.0625 8 C-1.92875 8.53625 -2.795 9.0725 -3.6875 9.625 C-4.6775 9.295 -5.6675 8.965 -6.6875 8.625 C-7.0175 7.965 -7.3475 7.305 -7.6875 6.625 C-8.3475 5.965 -9.0075 5.305 -9.6875 4.625 C-3.03303571 -0.42321429 -3.03303571 -0.42321429 0 0 Z " fill="#EAFEF1" transform="translate(307.6875,263.375)"/>
<path d="M0 0 C0 3.63 0 7.26 0 11 C-1.32 10.67 -2.64 10.34 -4 10 C-4.99 10 -5.98 10 -7 10 C-6.67 9.01 -6.34 8.02 -6 7 C-6.87914688 4.3430809 -6.87914688 4.3430809 -8 2 C-1.125 0 -1.125 0 0 0 Z " fill="#FDD1F2" transform="translate(400,56)"/>
<path d="M0 0 C5.68965517 0.90517241 5.68965517 0.90517241 8.25 1.6875 C8.8275 1.790625 9.405 1.89375 10 2 C10.66 1.34 11.32 0.68 12 0 C12 0.66 12 1.32 12 2 C12.66 2.33 13.32 2.66 14 3 C13.67 3.99 13.34 4.98 13 6 C9.04 6 5.08 6 1 6 C0.67 4.02 0.34 2.04 0 0 Z " fill="#98C783" transform="translate(46,169)"/>
<path d="M0 0 C0.79921875 0.00902344 1.5984375 0.01804688 2.421875 0.02734375 C3.02515625 0.03894531 3.6284375 0.05054688 4.25 0.0625 C4.25 1.7125 4.25 3.3625 4.25 5.0625 C3.64671875 5.05089844 3.0434375 5.03929687 2.421875 5.02734375 C1.62265625 5.01832031 0.8234375 5.00929687 0 5 C-0.78890625 4.98839844 -1.5778125 4.97679687 -2.390625 4.96484375 C-4.65691002 5.05864694 -6.5788895 5.43008937 -8.75 6.0625 C-8.75 4.4125 -8.75 2.7625 -8.75 1.0625 C-5.75519083 0.1901588 -3.11424089 -0.04579766 0 0 Z " fill="#B0C0BF" transform="translate(193.75,150.9375)"/>
<path d="M0 0 C2.31 0.66 4.62 1.32 7 2 C7 2.66 7 3.32 7 4 C7.99 4.33 8.98 4.66 10 5 C10 5.66 10 6.32 10 7 C10.66 7.33 11.32 7.66 12 8 C9.69 8.66 7.38 9.32 5 10 C0.125 4.375 0.125 4.375 -1 1 C-0.67 0.67 -0.34 0.34 0 0 Z " fill="#D9FDC0" transform="translate(65,343)"/>
<path d="M0 0 C-0.625 2.4375 -0.625 2.4375 -2 5 C-4.9375 5.75 -4.9375 5.75 -8 6 C-8.99 6.33 -9.98 6.66 -11 7 C-11.99 7 -12.98 7 -14 7 C-14.33 7.66 -14.66 8.32 -15 9 C-15.66 8.67 -16.32 8.34 -17 8 C-17 7.34 -17 6.68 -17 6 C-16.236875 5.731875 -15.47375 5.46375 -14.6875 5.1875 C-12.00893218 4.20735832 -12.00893218 4.20735832 -10.5 2.4375 C-7.56237848 -0.37772062 -3.8846634 0 0 0 Z " fill="#DDFAE3" transform="translate(239,315)"/>
<path d="M0 0 C1.6290187 0.09050104 3.25459628 0.24727869 4.875 0.4375 C7.62619649 0.75432875 10.22703147 1 13 1 C13.66 1.33 14.32 1.66 15 2 C14.67 2.99 14.34 3.98 14 5 C12.68 4.67 11.36 4.34 10 4 C9.67 4.66 9.34 5.32 9 6 C5 6 5 6 2.5625 4.9375 C1.2940625 4.4734375 1.2940625 4.4734375 0 4 C-0.99 4.495 -0.99 4.495 -2 5 C-1.125 1.125 -1.125 1.125 0 0 Z " fill="#EDFFCA" transform="translate(77,299)"/>
<path d="M0 0 C0.99 0.66 1.98 1.32 3 2 C2.34 2.66 1.68 3.32 1 4 C1.33 4.66 1.66 5.32 2 6 C1.01 6.33 0.02 6.66 -1 7 C-1.66 7.66 -2.32 8.32 -3 9 C-5.5 8.875 -5.5 8.875 -8 8 C-9.3125 5.9375 -9.3125 5.9375 -10 4 C-8.906875 3.71125 -7.81375 3.4225 -6.6875 3.125 C-2.95986155 2.18106796 -2.95986155 2.18106796 0 0 Z " fill="#F1FDE9" transform="translate(266,256)"/>
<path d="M0 0 C1.32 0.33 2.64 0.66 4 1 C4 1.33 4 1.66 4 2 C6.31 2 8.62 2 11 2 C11 1.34 11 0.68 11 0 C11.66 0 12.32 0 13 0 C13.33 1.65 13.66 3.3 14 5 C12.39602723 5.16852247 10.7918131 5.33474886 9.1875 5.5 C8.29417969 5.5928125 7.40085938 5.685625 6.48046875 5.78125 C4 6 4 6 1 6 C0.67 4.02 0.34 2.04 0 0 Z " fill="#92A9B0" transform="translate(180,133)"/>
<path d="M0 0 C1.7074998 1.28062485 3.37373596 2.61767557 5 4 C5 8.20203536 4.70452381 9.73203373 2 13 C1.01 11.02 0.02 9.04 -1 7 C-1.99 7 -2.98 7 -4 7 C-4 6.34 -4 5.68 -4 5 C-3.34 4.67 -2.68 4.34 -2 4 C-0.86649466 1.98330173 -0.86649466 1.98330173 0 0 Z " fill="#E3FEF5" transform="translate(310,280)"/>
<path d="M0 0 C-1.24128461 3.43740355 -2.39387505 6.39387505 -5 9 C-8.1875 9.75 -8.1875 9.75 -11 10 C-9.83617004 5.63563764 -8.93629606 3.33717578 -5 1 C-3 0 -3 0 0 0 Z " fill="#FCFEF5" transform="translate(372,168)"/>
<path d="M0 0 C1.32 0 2.64 0 4 0 C4.33 0.66 4.66 1.32 5 2 C5.75925781 1.83242187 6.51851563 1.66484375 7.30078125 1.4921875 C8.29464844 1.28851563 9.28851563 1.08484375 10.3125 0.875 C11.29863281 0.66617188 12.28476562 0.45734375 13.30078125 0.2421875 C16 0 16 0 19 2 C18.67 2.99 18.34 3.98 18 5 C17.67 4.34 17.34 3.68 17 3 C15.02 3.99 15.02 3.99 13 5 C13 4.01 13 3.02 13 2 C12.34 2 11.68 2 11 2 C10.67 2.99 10.34 3.98 10 5 C6.66666667 5 3.33333333 5 0 5 C0 3.35 0 1.7 0 0 Z " fill="#8B8D9B" transform="translate(312,178)"/>
<path d="M0 0 C-0.33 1.32 -0.66 2.64 -1 4 C-4.96 4 -8.92 4 -13 4 C-13 2.66666667 -13 1.33333333 -13 0 C-11.20909747 -0.19466332 -9.41723495 -0.38051213 -7.625 -0.5625 C-6.12839844 -0.71912109 -6.12839844 -0.71912109 -4.6015625 -0.87890625 C-2 -1 -2 -1 0 0 Z " fill="#60CEE3" transform="translate(206,195)"/>
<path d="M0 0 C0.99 0 1.98 0 3 0 C1.51194289 5.80342274 -1.59097555 10.17590879 -5 15 C-5.5534764 12.92446352 -6 11.15634036 -6 9 C-5.01 8.34 -4.02 7.68 -3 7 C-3.33 6.34 -3.66 5.68 -4 5 C-2 2 -2 2 0 0 Z " fill="#C0CBCF" transform="translate(327,206)"/>
<path d="M0 0 C3.96519457 1.32173152 6.16075605 2.96494613 9 6 C9.66 6.33 10.32 6.66 11 7 C10.67 7.99 10.34 8.98 10 10 C7.525 9.01 7.525 9.01 5 8 C5 7.34 5 6.68 5 6 C2.03 5.505 2.03 5.505 -1 5 C-0.67 3.35 -0.34 1.7 0 0 Z " fill="#99A4C5" transform="translate(312,223)"/>
<path d="M0 0 C0.598125 0.309375 1.19625 0.61875 1.8125 0.9375 C4.08956772 2.10209704 4.08956772 2.10209704 7 3 C6.67 3.66 6.34 4.32 6 5 C6.66 5.33 7.32 5.66 8 6 C7.07767578 5.98259766 7.07767578 5.98259766 6.13671875 5.96484375 C4.92435547 5.95130859 4.92435547 5.95130859 3.6875 5.9375 C2.88699219 5.92589844 2.08648437 5.91429687 1.26171875 5.90234375 C-1.16861334 5.90342145 -1.16861334 5.90342145 -4 7 C-4 5.35 -4 3.7 -4 2 C-3.01 2 -2.02 2 -1 2 C-0.67 1.34 -0.34 0.68 0 0 Z " fill="#90C37C" transform="translate(66,169)"/>
<path d="M0 0 C0.33 0.66 0.66 1.32 1 2 C2.45823212 2.0270043 3.91660675 2.04639787 5.375 2.0625 C6.59316406 2.07990234 6.59316406 2.07990234 7.8359375 2.09765625 C10.04937142 2.14466334 10.04937142 2.14466334 12 1 C12.33 2.65 12.66 4.3 13 6 C8.66666667 6 4.33333333 6 0 6 C0 4.02 0 2.04 0 0 Z " fill="#9C9FA8" transform="translate(331,169)"/>
<path d="M0 0 C0.99 0.99 1.98 1.98 3 3 C0.74889828 4.91760517 -0.6852584 5.94004922 -3.625 6.5 C-6.36365337 6.78722409 -6.36365337 6.78722409 -8 10 C-8.33 8.68 -8.66 7.36 -9 6 C-6.03 4.02 -3.06 2.04 0 0 Z " fill="#DDFCE1" transform="translate(217,322)"/>
<path d="M0 0 C3.94139078 1.66751148 6.7892812 4.22710649 10 7 C9.67 7.99 9.34 8.98 9 10 C8.443125 9.360625 7.88625 8.72125 7.3125 8.0625 C4.72793878 5.75735081 3.34460827 5.51455512 0 5 C-0.99 4.34 -1.98 3.68 -3 3 C-2.01 2.01 -1.02 1.02 0 0 Z " fill="#EEFEC5" transform="translate(43,266)"/>
<path d="M0 0 C3 1 3 1 4.375 3.5 C5.77933274 6.24852772 5.77933274 6.24852772 8.6875 6.8125 C9.8321875 6.9053125 9.8321875 6.9053125 11 7 C7.88089144 8.79275866 5.32317572 9.34290718 1.75 9.625 C0.85796875 9.69976562 -0.0340625 9.77453125 -0.953125 9.8515625 C-1.62859375 9.90054688 -2.3040625 9.94953125 -3 10 C-2.360625 9.525625 -1.72125 9.05125 -1.0625 8.5625 C0.88293306 7.16261274 0.88293306 7.16261274 2 6 C1.34 4.02 0.68 2.04 0 0 Z " fill="#EEFADD" transform="translate(140,187)"/>
<path d="M0 0 C2.64 0.33 5.28 0.66 8 1 C7.67 2.32 7.34 3.64 7 5 C4.39417629 5.93065133 3.35801776 6.14917407 0.75 5.0625 C0.1725 4.711875 -0.405 4.36125 -1 4 C-0.67 2.68 -0.34 1.36 0 0 Z " fill="#A4B8B8" transform="translate(185,142)"/>
<path d="M0 0 C0 0.99 0 1.98 0 3 C-0.99 3.33 -1.98 3.66 -3 4 C-3 3.34 -3 2.68 -3 2 C-2.01 1.34 -1.02 0.68 0 0 Z M-5 3 C-4.34 3.33 -3.68 3.66 -3 4 C-3 4.66 -3 5.32 -3 6 C-3.66 6 -4.32 6 -5 6 C-5.33 6.66 -5.66 7.32 -6 8 C-7.32 7.67 -8.64 7.34 -10 7 C-8.36587557 5.29159719 -7.13093906 4.06546953 -5 3 Z M-13 5 C-11.515 5.99 -11.515 5.99 -10 7 C-10.33 7.99 -10.66 8.98 -11 10 C-11.99 9.34 -12.98 8.68 -14 8 C-13.67 7.01 -13.34 6.02 -13 5 Z " fill="#E5FFFF" transform="translate(393,242)"/>
<path d="M0 0 C3.35433109 0.94933899 6.69246505 1.89748835 10 3 C9.01 3.33 8.02 3.66 7 4 C7 4.66 7 5.32 7 6 C4.33333333 6 1.66666667 6 -1 6 C-1.042721 4.33388095 -1.04063832 2.66617115 -1 1 C-0.67 0.67 -0.34 0.34 0 0 Z " fill="#91C57D" transform="translate(50,177)"/>
<path d="M0 0 C1.32 0.66 2.64 1.32 4 2 C2.73275237 4.53449526 1.56198435 4.91309755 -1 6 C-1.66 6 -2.32 6 -3 6 C-3.33 6.66 -3.66 7.32 -4 8 C-4.33 6.68 -4.66 5.36 -5 4 C-3.35 3.34 -1.7 2.68 0 2 C0 1.34 0 0.68 0 0 Z M5 0 C5.66 0.33 6.32 0.66 7 1 C6.01 1 5.02 1 4 1 C4.33 0.67 4.66 0.34 5 0 Z " fill="#CAFDE1" transform="translate(196,369)"/>
<path d="M0 0 C0 1.65 0 3.3 0 5 C-3.63 5 -7.26 5 -11 5 C-10.67 3.68 -10.34 2.36 -10 1 C-8.88625 1.020625 -7.7725 1.04125 -6.625 1.0625 C-3.92916508 1.01602009 -2.35646307 0 0 0 Z " fill="#81BB6F" transform="translate(81,178)"/>
<path d="M0 0 C-0.66 1.65 -1.32 3.3 -2 5 C-4.31 5.33 -6.62 5.66 -9 6 C-9.33 5.01 -9.66 4.02 -10 3 C-7.29536552 -0.8183075 -4.37912428 -0.24787496 0 0 Z " fill="#D1FEDD" transform="translate(190,360)"/>
<path d="M0 0 C0.33 1.65 0.66 3.3 1 5 C-1.97 4.67 -4.94 4.34 -8 4 C-8 3.01 -8 2.02 -8 1 C-5.29120665 -0.35439668 -2.99066732 -0.06501451 0 0 Z " fill="#A5B9BA" transform="translate(207,151)"/>
<path d="M0 0 C2.625 0.375 2.625 0.375 5 1 C3.74160485 4.77518545 2.44096192 5.19759138 -1 7 C-1.99 7.33 -2.98 7.66 -4 8 C-2.25 2.25 -2.25 2.25 0 0 Z " fill="#D1FDE0" transform="translate(194,356)"/>
<path d="M0 0 C0.66 0.66 1.32 1.32 2 2 C1.34 2 0.68 2 0 2 C-0.66 3.32 -1.32 4.64 -2 6 C-3.66666667 6 -5.33333333 6 -7 6 C-6.3125 3.5625 -6.3125 3.5625 -5 1 C-2.5 0.0625 -2.5 0.0625 0 0 Z " fill="#EDFFCD" transform="translate(101,300)"/>
<path d="M0 0 C0.66 0 1.32 0 2 0 C2 0.66 2 1.32 2 2 C3.98 2 5.96 2 8 2 C7.34 3.65 6.68 5.3 6 7 C5.34 6.34 4.68 5.68 4 5 C1.89179203 5.3185177 1.89179203 5.3185177 0 6 C0 4.02 0 2.04 0 0 Z " fill="#989BA4" transform="translate(353,169)"/>
<path d="M0 0 C0.66 0 1.32 0 2 0 C2 1.65 2 3.3 2 5 C-0.66666667 5 -3.33333333 5 -6 5 C-5.67 4.01 -5.34 3.02 -5 2 C-3.35 2 -1.7 2 0 2 C0 1.34 0 0.68 0 0 Z " fill="#9497A1" transform="translate(350,169)"/>
<path d="M0 0 C2.64 0.33 5.28 0.66 8 1 C7.67 2.32 7.34 3.64 7 5 C4.69 5 2.38 5 0 5 C0 3.35 0 1.7 0 0 Z " fill="#97ACB1" transform="translate(194,142)"/>
<path d="M0 0 C2.4375 0.8125 2.4375 0.8125 5 2 C5.33 2.99 5.66 3.98 6 5 C3.37886292 5 1.49064888 4.68707555 -1 4 C-1.33 4.66 -1.66 5.32 -2 6 C-1.125 1.125 -1.125 1.125 0 0 Z " fill="#DEFCEF" transform="translate(275,306)"/>
<path d="M0 0 C0.598125 0.20625 1.19625 0.4125 1.8125 0.625 C1.4825 1.945 1.1525 3.265 0.8125 4.625 C-0.5075 4.955 -1.8275 5.285 -3.1875 5.625 C-3.8475 4.305 -4.5075 2.985 -5.1875 1.625 C-2.1875 -0.375 -2.1875 -0.375 0 0 Z " fill="#66F794" transform="translate(81.1875,227.375)"/>
<path d="M0 0 C0 0.66 0 1.32 0 2 C-5.75 4 -5.75 4 -8 4 C-8 3.01 -8 2.02 -8 1 C-8.66 0.67 -9.32 0.34 -10 0 C-2.25 -1.125 -2.25 -1.125 0 0 Z " fill="#93C67F" transform="translate(68,188)"/>
<path d="M0 0 C0.928125 0.2784375 0.928125 0.2784375 1.875 0.5625 C4.04160178 1.23686176 4.04160178 1.23686176 6 0 C6 1.98 6 3.96 6 6 C4.35 6 2.7 6 1 6 C0.67 4.02 0.34 2.04 0 0 Z " fill="#A2A6AC" transform="translate(314,169)"/>
<path d="M0 0 C1.98 0 3.96 0 6 0 C6.33 1.32 6.66 2.64 7 4 C4.36 4 1.72 4 -1 4 C-0.67 2.68 -0.34 1.36 0 0 Z " fill="#BCC1C1" transform="translate(329,188)"/>
<path d="M0 0 C0.33 0.66 0.66 1.32 1 2 C2.98 2 4.96 2 7 2 C7 3.32 7 4.64 7 6 C4.69 6 2.38 6 0 6 C0 4.02 0 2.04 0 0 Z " fill="#999BA5" transform="translate(322,169)"/>
<path d="M0 0 C1.4540625 0.0309375 1.4540625 0.0309375 2.9375 0.0625 C3.2675 1.3825 3.5975 2.7025 3.9375 4.0625 C2.2875 4.3925 0.6375 4.7225 -1.0625 5.0625 C-2.0525 3.7425 -3.0425 2.4225 -4.0625 1.0625 C-3.0625 0.0625 -3.0625 0.0625 0 0 Z " fill="#FDD2F2" transform="translate(389.0625,52.9375)"/>
<path d="M0 0 C2.475 0.495 2.475 0.495 5 1 C4.67 2.32 4.34 3.64 4 5 C2.68 5.33 1.36 5.66 0 6 C0 4.02 0 2.04 0 0 Z " fill="#A9BCBC" transform="translate(214,133)"/>
<path d="M0 0 C0.66 0.33 1.32 0.66 2 1 C2 2.32 2 3.64 2 5 C0.35 5.33 -1.3 5.66 -3 6 C-3.33 5.01 -3.66 4.02 -4 3 C-3.34 3 -2.68 3 -2 3 C-2 2.34 -2 1.68 -2 1 C-1.34 0.67 -0.68 0.34 0 0 Z " fill="#EDFED3" transform="translate(135,193)"/>
<path d="M0 0 C1.65 0 3.3 0 5 0 C5.33 1.32 5.66 2.64 6 4 C4.02 4.33 2.04 4.66 0 5 C0 3.35 0 1.7 0 0 Z " fill="#8DA6AC" transform="translate(185,152)"/>
<path d="M0 0 C1.32 0.33 2.64 0.66 4 1 C3.67 1.66 3.34 2.32 3 3 C3.99 3 4.98 3 6 3 C6 3.99 6 4.98 6 6 C4.35 6 2.7 6 1 6 C0.67 4.02 0.34 2.04 0 0 Z " fill="#A5BABA" transform="translate(180,133)"/>
<path d="M0 0 C1.65 0 3.3 0 5 0 C4.34 0.66 3.68 1.32 3 2 C2.30251417 3.31747324 1.63040043 4.64914193 1 6 C0.01 5.67 -0.98 5.34 -2 5 C-1.34 3.35 -0.68 1.7 0 0 Z " fill="#C8D4CB" transform="translate(183,151)"/>
<path d="M0 0 C1.98 0 3.96 0 6 0 C5.67 1.32 5.34 2.64 5 4 C3.35 4 1.7 4 0 4 C0 2.68 0 1.36 0 0 Z " fill="#99AFB3" transform="translate(204,143)"/>
<path d="M0 0 C0.99 0.33 1.98 0.66 3 1 C2.67 2.65 2.34 4.3 2 6 C1.01 6 0.02 6 -1 6 C-1.042721 4.33388095 -1.04063832 2.66617115 -1 1 C-0.67 0.67 -0.34 0.34 0 0 Z " fill="#B2B7B9" transform="translate(308,177)"/>
<path d="M0 0 C1.65 0 3.3 0 5 0 C5.33 1.32 5.66 2.64 6 4 C4.02 4 2.04 4 0 4 C0 2.68 0 1.36 0 0 Z " fill="#A2CD8B" transform="translate(79,171)"/>
<path d="M0 0 C2.31 0 4.62 0 7 0 C7.33 1.32 7.66 2.64 8 4 C7.21625 3.814375 6.4325 3.62875 5.625 3.4375 C3.02910225 2.74037734 3.02910225 2.74037734 1 4 C0.67 2.68 0.34 1.36 0 0 Z " fill="#92AAB0" transform="translate(209,152)"/>
<path d="M0 0 C0.33 0.66 0.66 1.32 1 2 C1.99 1.67 2.98 1.34 4 1 C6 3 6 3 6 6 C4.02 5.34 2.04 4.68 0 4 C0 2.68 0 1.36 0 0 Z " fill="#868998" transform="translate(308,169)"/>
<path d="M0 0 C0 1.65 0 3.3 0 5 C-1.65 5 -3.3 5 -5 5 C-5 4.01 -5 3.02 -5 2 C-1.125 0 -1.125 0 0 0 Z " fill="#95ADB2" transform="translate(215,142)"/>
<path d="M0 0 C0.66 1.32 1.32 2.64 2 4 C1 5 1 5 -1.5625 5.0625 C-2.7690625 5.0315625 -2.7690625 5.0315625 -4 5 C-4 4.34 -4 3.68 -4 3 C-3.34 3 -2.68 3 -2 3 C-2 2.34 -2 1.68 -2 1 C-1.34 0.67 -0.68 0.34 0 0 Z " fill="#B4B9BA" transform="translate(347,187)"/>
<path d="M0 0 C-0.75 1.9375 -0.75 1.9375 -2 4 C-4.125 4.75 -4.125 4.75 -6 5 C-5.6875 3.0625 -5.6875 3.0625 -5 1 C-2 0 -2 0 0 0 Z " fill="#D9FED5" transform="translate(160,343)"/>
<path d="M0 0 C0.99 0 1.98 0 3 0 C1.95125002 2.62187494 1.35068687 3.79371361 -1.125 5.25 C-1.74375 5.4975 -2.3625 5.745 -3 6 C-2.42655063 3.13275314 -2.1385485 2.1385485 0 0 Z " fill="#DCFCF8" transform="translate(327,291)"/>
<path d="M0 0 C0.99 0.33 1.98 0.66 3 1 C3 1.99 3 2.98 3 4 C1.68 4.33 0.36 4.66 -1 5 C-1.66 4.01 -2.32 3.02 -3 2 C-2.34 2 -1.68 2 -1 2 C-0.67 1.34 -0.34 0.68 0 0 Z " fill="#88F8A5" transform="translate(85,224)"/>
<path d="M0 0 C2.97 0.495 2.97 0.495 6 1 C5.01 1.33 4.02 1.66 3 2 C2.26676204 4.01508358 2.26676204 4.01508358 2 6 C0 2.25 0 2.25 0 0 Z " fill="#B4D59A" transform="translate(46,169)"/>
<path d="M0 0 C1.65 0 3.3 0 5 0 C5.33 0.99 5.66 1.98 6 3 C4.35 3.33 2.7 3.66 1 4 C0.67 2.68 0.34 1.36 0 0 Z " fill="#AEBFBF" transform="translate(206,134)"/>
</svg>
