<?xml version="1.0" encoding="UTF-8"?>
<svg version="1.1" xmlns="http://www.w3.org/2000/svg" width="400" height="400">
<path d="M0 0 C132 0 264 0 400 0 C400 132 400 264 400 400 C268 400 136 400 0 400 C0 268 0 136 0 0 Z " fill="#EDE9EA" transform="translate(0,0)"/>
<path d="M0 0 C5.69686993 4.07877991 9.96452129 8.54998864 13.75 14.4375 C14.20375 15.13746094 14.6575 15.83742187 15.125 16.55859375 C20.21373472 26.47102492 19.35070024 41.26486144 16.24584961 51.7199707 C13.84301513 58.85099384 10.42108881 64.70717051 6.75 71.4375 C-18.99 71.4375 -44.73 71.4375 -71.25 71.4375 C-71.4975 62.40375 -71.745 53.37 -72 44.0625 C-72.10924805 41.22994629 -72.21849609 38.39739258 -72.33105469 35.47900391 C-72.75934761 16.5578054 -72.75934761 16.5578054 -68.76708984 11.57080078 C-65.94206646 8.88304369 -62.75074309 7.14172134 -59.25 5.4375 C-57.99293158 4.58968903 -56.74317082 3.73070655 -55.5078125 2.8515625 C-37.90125063 -7.20305762 -18.11183405 -11.24888062 0 0 Z " fill="#FE9B05" transform="translate(273.25,128.5625)"/>
<path d="M0 0 C3.50409887 2.49180364 6.81043113 5.11748197 10 8 C10.52898392 8.41901077 11.05796783 8.83802155 11.60298157 9.26972961 C13.5685637 11.70419181 13.36150003 13.37749528 13.34057617 16.48120117 C13.34034958 17.60213669 13.34012299 18.7230722 13.33988953 19.87797546 C13.32440567 21.08742325 13.30892181 22.29687103 13.29296875 23.54296875 C13.28872391 24.78170242 13.28447906 26.0204361 13.28010559 27.29670715 C13.26614733 30.58649001 13.23920213 33.87583203 13.20599365 37.16546631 C13.17527933 40.52366746 13.16159739 43.88193318 13.14648438 47.24023438 C13.11337359 53.82699574 13.06314257 60.4134618 13 67 C3.08206953 67.27845491 -6.83492704 67.49145621 -16.75597477 67.62174606 C-21.36338208 67.68429362 -25.96810991 67.76905487 -30.57397461 67.90527344 C-35.02219694 68.03600118 -39.46784949 68.10747165 -43.91784477 68.13852692 C-45.61224284 68.16064398 -47.30650508 68.20384307 -48.99980354 68.26876068 C-54.23237056 68.4613245 -58.9477501 68.47961204 -64 67 C-67.54049882 63.41762672 -69.28897092 59.69180367 -71 55 C-71.32121826 54.26950439 -71.64243652 53.53900879 -71.97338867 52.78637695 C-76.96158896 41.02404011 -78.19405572 28.22408777 -73.9375 16.0625 C-69.00392845 4.88250173 -61.13302696 -3.6560334 -49.75 -8.375 C-32.83825034 -14.73072291 -14.85189316 -8.97264191 0 0 Z " fill="#FE0521" transform="translate(187,133)"/>
<path d="M0 0 C0.33 0 0.66 0 1 0 C1.0231348 11.1784617 1.04092092 22.35691775 1.05181217 33.53539848 C1.0570385 38.72559325 1.06413164 43.91577167 1.07543945 49.10595703 C1.08627718 54.11150397 1.09227873 59.11703516 1.09487724 64.12259293 C1.09672989 66.03562798 1.10034744 67.94866214 1.10573006 69.86169052 C1.11295221 72.53395219 1.11399044 75.20614816 1.11352539 77.87841797 C1.11712067 78.67539093 1.12071594 79.47236389 1.12442017 80.29348755 C1.11405216 85.77189568 1.11405216 85.77189568 0 88 C-0.66 88 -1.32 88 -2 88 C-2.4021875 89.2065625 -2.4021875 89.2065625 -2.8125 90.4375 C-3.204375 91.283125 -3.59625 92.12875 -4 93 C-5.485 93.495 -5.485 93.495 -7 94 C-7.73323796 96.01508358 -7.73323796 96.01508358 -8 98 C-8.66 98 -9.32 98 -10 98 C-10 99.65 -10 101.3 -10 103 C-11.485 103.495 -11.485 103.495 -13 104 C-12.67 104.66 -12.34 105.32 -12 106 C-12.66 106 -13.32 106 -14 106 C-14.33 106.66 -14.66 107.32 -15 108 C-15.66 107.34 -16.32 106.68 -17 106 C-17.99 106 -18.98 106 -20 106 C-20 105.34 -20 104.68 -20 104 C-21.175625 104.495 -21.175625 104.495 -22.375 105 C-25 106 -25 106 -27 106 C-26 103 -25 100 -24 97 C-24.99 96.505 -24.99 96.505 -26 96 C-25.505 94.515 -25.505 94.515 -25 93 C-25.33 93.33 -25.66 93.66 -26 94 C-26.99 93.01 -26.99 93.01 -28 92 C-27.505 90.515 -27.505 90.515 -27 89 C-27.33 88.01 -27.66 87.02 -28 86 C-28.99 86.495 -28.99 86.495 -30 87 C-30.73075648 89.3140622 -31.40138258 91.64828869 -32 94 C-32.66 94 -33.32 94 -34 94 C-34 94.66 -34 95.32 -34 96 C-34.66 96 -35.32 96 -36 96 C-36.33 96.66 -36.66 97.32 -37 98 C-37.33 97.67 -37.66 97.34 -38 97 C-38.99 97.495 -38.99 97.495 -40 98 C-40 98.66 -40 99.32 -40 100 C-42 101.625 -42 101.625 -44 103 C-43.855625 102.443125 -43.71125 101.88625 -43.5625 101.3125 C-42.97230872 98.88615805 -42.476571 96.45093655 -42 94 C-42.66 94 -43.32 94 -44 94 C-44.33 93.34 -44.66 92.68 -45 92 C-48.81984796 91.22188282 -51.26840331 90.75613444 -55 92 C-55 90.02 -55 88.04 -55 86 C-54.195625 85.71125 -53.39125 85.4225 -52.5625 85.125 C-49.8673532 84.26737432 -49.8673532 84.26737432 -49 82 C-58.9 82 -68.8 82 -79 82 C-79 80.68 -79 79.36 -79 78 C-74.38 78 -69.76 78 -65 78 C-64.67 77.34 -64.34 76.68 -64 76 C-61.03 76.33 -58.06 76.66 -55 77 C-55 76.01 -55 75.02 -55 74 C-56.32 74 -57.64 74 -59 74 C-59.33 73.01 -59.66 72.02 -60 71 C-60.66 71.99 -61.32 72.98 -62 74 C-63.32 73.67 -64.64 73.34 -66 73 C-66 72.01 -66 71.02 -66 70 C-65.401875 69.87625 -64.80375 69.7525 -64.1875 69.625 C-61.73768652 69.04524015 -61.73768652 69.04524015 -59 67 C-60.98 66.34 -62.96 65.68 -65 65 C-65 64.34 -65 63.68 -65 63 C-65.66 63 -66.32 63 -67 63 C-67 63.66 -67 64.32 -67 65 C-72.94 65 -78.88 65 -85 65 C-85 63.35 -85 61.7 -85 60 C-83.783125 60.165 -82.56625 60.33 -81.3125 60.5 C-78.18392164 60.89454541 -75.15831196 61.09869725 -72 61 C-72 61.66 -72 62.32 -72 63 C-71.34 63 -70.68 63 -70 63 C-69.34 61.35 -68.68 59.7 -68 58 C-67.67 58.66 -67.34 59.32 -67 60 C-66.34 60 -65.68 60 -65 60 C-64.855625 59.195625 -64.71125 58.39125 -64.5625 57.5625 C-64 55 -64 55 -63 54 C-62.31867549 52.33927151 -61.65257873 50.672233 -61 49 C-60.67 48.34 -60.34 47.68 -60 47 C-58.35 47 -56.7 47 -55 47 C-54.67 46.34 -54.34 45.68 -54 45 C-51.79214774 43.02870334 -50.36698653 42.07160713 -47.4375 41.5 C-44.61761046 40.92156112 -43.8976451 40.07015829 -42 38 C-41.01 37.67 -40.02 37.34 -39 37 C-38.34 37.99 -37.68 38.98 -37 40 C-37.66 40 -38.32 40 -39 40 C-39.433125 41.11375 -39.433125 41.11375 -39.875 42.25 C-40.82302644 44.56739797 -41.84845911 46.77917115 -43 49 C-41.35 49 -39.7 49 -38 49 C-38 48.34 -38 47.68 -38 47 C-37.34 47 -36.68 47 -36 47 C-35.67 47.66 -35.34 48.32 -35 49 C-34.01 49 -33.02 49 -32 49 C-32 50.65 -32 52.3 -32 54 C-32.825 54.103125 -33.65 54.20625 -34.5 54.3125 C-38.59289012 55.11646056 -42.12540225 56.46352158 -46 58 C-46 57.34 -46 56.68 -46 56 C-49.18234105 57.75454385 -49.18234105 57.75454385 -52 60 C-49.03 60.33 -46.06 60.66 -43 61 C-43 62.32 -43 63.64 -43 65 C-43.77085937 64.97679687 -44.54171875 64.95359375 -45.3359375 64.9296875 C-46.33882813 64.91164063 -47.34171875 64.89359375 -48.375 64.875 C-49.37273437 64.85179687 -50.37046875 64.82859375 -51.3984375 64.8046875 C-54.16262173 64.72783152 -54.16262173 64.72783152 -56 67 C-56.33 67.99 -56.66 68.98 -57 70 C-53.04 69.01 -53.04 69.01 -49 68 C-49 68.66 -49 69.32 -49 70 C-48.030625 69.979375 -47.06125 69.95875 -46.0625 69.9375 C-43 70 -43 70 -42 71 C-41.01 70.67 -40.02 70.34 -39 70 C-39 68.68 -39 67.36 -39 66 C-39.99 65.505 -39.99 65.505 -41 65 C-41 63.02 -41 61.04 -41 59 C-40.34 59 -39.68 59 -39 59 C-39 59.66 -39 60.32 -39 61 C-37.68 61 -36.36 61 -35 61 C-32.99598989 61.30830925 -30.99488234 61.63729412 -29 62 C-28.7525 61.13375 -28.505 60.2675 -28.25 59.375 C-26.92925946 55.80900055 -25.18286171 53.09825534 -23 50 C-21.88214887 47.88214887 -21.88214887 47.88214887 -21 45 C-20.67 44.01 -20.34 43.02 -20 42 C-20 40.68 -20 39.36 -20 38 C-20 37.34 -20 36.68 -20 36 C-20.66 35.34 -21.32 34.68 -22 34 C-22 33.01 -22 32.02 -22 31 C-22.66 31 -23.32 31 -24 31 C-24.33 31.99 -24.66 32.98 -25 34 C-25.32613618 29.32538149 -24.70582788 26.83325617 -22 23 C-20.35 23.66 -18.7 24.32 -17 25 C-13.46177109 20.48847187 -10.52551302 16.16582209 -8 11 C-6.69254251 9.31295807 -5.35827971 7.64639965 -4 6 C-3.278125 4.906875 -2.55625 3.81375 -1.8125 2.6875 C-1.214375 1.800625 -0.61625 0.91375 0 0 Z M-16 100 C-15 102 -15 102 -15 102 Z M-18 101 C-18 101.66 -18 102.32 -18 103 C-17.34 102.67 -16.68 102.34 -16 102 C-16.66 101.67 -17.32 101.34 -18 101 Z M-20 102 C-20 102.66 -20 103.32 -20 104 C-19.34 103.67 -18.68 103.34 -18 103 C-18.66 102.67 -19.32 102.34 -20 102 Z " fill="#D1E2D7" transform="translate(399,168)"/>
<path d="M0 0 C24.75 0 49.5 0 75 0 C69.17304063 11.65391874 56.7918482 21.35732232 47.6171875 30.515625 C46.26752411 31.86596373 44.91800905 33.21645074 43.56863403 34.56707764 C40.76840204 37.36877019 37.96640363 40.16868019 35.16308594 42.96728516 C31.56272168 46.56189196 27.96694805 50.16105259 24.37243462 53.76150894 C21.59999422 56.53754796 18.82519531 59.31121958 16.04965591 62.08415985 C14.72117777 63.4119699 13.39344485 64.74052597 12.06646347 66.06983185 C10.22623352 67.91258329 8.38286094 69.75213029 6.53857422 71.59082031 C5.98905594 72.14236282 5.43953766 72.69390533 4.87336731 73.26216125 C1.1142751 77 1.1142751 77 0 77 C0 51.59 0 26.18 0 0 Z " fill="#FD0F96" transform="translate(202,202)"/>
<path d="M0 0 C24.75 0 49.5 0 75 0 C75 25.08 75 50.16 75 76 C70.27746287 71.95211103 65.77378073 67.92254522 61.39379883 63.5390625 C60.7749733 62.92359558 60.15614777 62.30812866 59.51856995 61.67401123 C57.49543107 59.66028961 55.47600639 57.64289563 53.45703125 55.625 C52.04179488 54.21298095 50.62648504 52.80103554 49.21110535 51.38916016 C46.25492625 48.438948 43.30080026 45.48669731 40.34790039 42.53320312 C36.57027121 38.75547207 32.7857934 34.98468309 28.99953175 31.21560669 C26.07841926 28.30562485 23.16187536 25.39109702 20.24658775 22.47528076 C18.85319119 21.08306129 17.45817959 19.69245621 16.06150246 18.30352783 C14.10887601 16.36072934 12.16272338 14.41166011 10.21801758 12.4609375 C9.64494873 11.89348816 9.07187988 11.32603882 8.48144531 10.74139404 C7.68061272 9.93426971 7.68061272 9.93426971 6.86360168 9.11083984 C6.40442258 8.65220551 5.94524347 8.19357117 5.47214985 7.72103882 C3.42164762 5.3238685 1.74981185 2.62471778 0 0 Z " fill="#0781FE" transform="translate(125,202)"/>
<path d="M0 0 C0.99 0.495 0.99 0.495 2 1 C2 19.15 2 37.3 2 56 C27.74 56 53.48 56 80 56 C77 59 77 59 73.79194641 59.32279968 C72.45265335 59.3137903 71.11341314 59.2877958 69.7746582 59.2487793 C68.65899491 59.23445343 68.65899491 59.23445343 67.52079296 59.21983814 C65.11365209 59.18547417 62.70750527 59.13024411 60.30078125 59.07421875 C58.81459706 59.0499332 57.32838986 59.02701582 55.84216309 59.00549316 C50.3319812 58.91608678 44.82225506 58.80018163 39.3125 58.6875 C26.999375 58.460625 14.68625 58.23375 2 58 C2 83.08 2 108.16 2 134 C1.67 134 1.34 134 1 134 C0.67 108.59 0.34 83.18 0 57 C-25.41 57 -50.82 57 -77 57 C-77 56.67 -77 56.34 -77 56 C-51.59 56 -26.18 56 0 56 C0 37.52 0 19.04 0 0 Z M89 34 C89.33 34.99 89.66 35.98 90 37 C90.639375 37.309375 91.27875 37.61875 91.9375 37.9375 C94.489354 39.25209145 94.87307058 40.42416132 96 43 C96.66 43.66 97.32 44.32 98 45 C97.67 45.33 97.34 45.66 97 46 C97.78375 46.226875 98.5675 46.45375 99.375 46.6875 C102 48 102 48 103.3125 50.625 C103.539375 51.40875 103.76625 52.1925 104 53 C104.66 53 105.32 53 106 53 C107 54 108 55 109 56 C110.051875 56.5259375 110.051875 56.5259375 111.125 57.0625 C113 58 113 58 114 60 C114.61875 59.67 115.2375 59.34 115.875 59 C118 58 118 58 120 58 C120.33 57.34 120.66 56.68 121 56 C121.99 56 122.98 56 124 56 C124.33 55.34 124.66 54.68 125 54 C128.875 55.75 128.875 55.75 130 58 C123.25 62 123.25 62 121 62 C121.495 63.98 121.495 63.98 122 66 C121.34 66 120.68 66 120 66 C120.495 68.475 120.495 68.475 121 71 C120.01 71.33 119.02 71.66 118 72 C118.66 72.66 119.32 73.32 120 74 C119.34 74 118.68 74 118 74 C117.505 74.99 117.505 74.99 117 76 C124.50137668 78.13070644 124.50137668 78.13070644 132 77 C132.99 76.34 133.98 75.68 135 75 C135.33 75.99 135.66 76.98 136 78 C136.99 78.495 136.99 78.495 138 79 C137.01 79.66 136.02 80.32 135 81 C134.67 81.99 134.34 82.98 134 84 C133.01 83.67 132.02 83.34 131 83 C130.34 84.32 129.68 85.64 129 87 C128.34 87 127.68 87 127 87 C127 86.34 127 85.68 127 85 C126.09507812 85.14308594 126.09507812 85.14308594 125.171875 85.2890625 C124.37265625 85.39992187 123.5734375 85.51078125 122.75 85.625 C121.96109375 85.74101562 121.1721875 85.85703125 120.359375 85.9765625 C117.67847541 86.00319395 116.27305911 85.36592084 114 84 C114.62533375 86.52363988 114.62533375 86.52363988 116 89 C120.0683654 90.55555148 124.69503828 90.07296545 129 90 C128.67 91.32 128.34 92.64 128 94 C128.99 94 129.98 94 131 94 C131 95.32 131 96.64 131 98 C125.63368795 98.84731243 121.40426079 98.93535283 116 98 C114.68 98 113.36 98 112 98 C110.65835921 97.7018576 109.32148827 97.37756808 108 97 C107.7525 95.783125 107.505 94.56625 107.25 93.3125 C106.27803892 89.36911506 104.66958103 87.08670307 102 84 C101.32033324 82.33859237 100.65061095 80.67299959 100 79 C99.34 78.67 98.68 78.34 98 78 C97.65657551 76.66923011 97.32380126 75.33568021 97 74 C96.34 73.34 95.68 72.68 95 72 C94.01 72.495 94.01 72.495 93 73 C92.87625 72.13375 92.87625 72.13375 92.75 71.25 C91.74722163 68.24166488 90.49166911 66.95292984 88 65 C84.85518209 64.19684346 84.85518209 64.19684346 82 64 C82.66 62.35 83.32 60.7 84 59 C82.68 58.01 81.36 57.02 80 56 C81.85480707 51.28681874 83.86282932 46.64258559 85.87695312 41.99609375 C87.01799355 39.34979053 88.08808486 36.73574541 89 34 Z " fill="#F7D7E3" transform="translate(200,144)"/>
<path d="M0 0 C0.763125 0.185625 1.52625 0.37125 2.3125 0.5625 C5.08967375 1.22819173 5.08967375 1.22819173 8 0 C8 0.99 8 1.98 8 3 C9.423125 2.9690625 9.423125 2.9690625 10.875 2.9375 C14 3 14 3 16 4 C15.67 4.66 15.34 5.32 15 6 C13.68 6 12.36 6 11 6 C9.34329588 7.90336809 9.34329588 7.90336809 8 10 C7.34 10.33 6.68 10.66 6 11 C6.99 11.99 7.98 12.98 9 14 C7.35 14.66 5.7 15.32 4 16 C4 15.34 4 14.68 4 14 C1.03595495 16.80804268 -1.44499019 19.18315774 -3 23 C-2.01 23 -1.02 23 0 23 C2.33333333 23 4.66666667 23 7 23 C7.495 24.485 7.495 24.485 8 26 C3.375 29 3.375 29 0 29 C-1.71140469 30.96185416 -3.37873325 32.96302383 -5 35 C-5.99 35.495 -5.99 35.495 -7 36 C-7 36.99 -7 37.98 -7 39 C-7.62648437 39.13277344 -8.25296875 39.26554687 -8.8984375 39.40234375 C-9.71570312 39.57894531 -10.53296875 39.75554687 -11.375 39.9375 C-12.18710937 40.11152344 -12.99921875 40.28554688 -13.8359375 40.46484375 C-16.029463 40.92330693 -16.029463 40.92330693 -18 42 C-18.12375 41.360625 -18.2475 40.72125 -18.375 40.0625 C-18.58125 39.381875 -18.7875 38.70125 -19 38 C-19.66 37.67 -20.32 37.34 -21 37 C-22.485 37.495 -22.485 37.495 -24 38 C-24 37.34 -24 36.68 -24 36 C-25.485 36.495 -25.485 36.495 -27 37 C-28.68437744 36.37943989 -30.35008418 35.70710678 -32 35 C-32.9075 34.835 -33.815 34.67 -34.75 34.5 C-35.4925 34.335 -36.235 34.17 -37 34 C-37.33 33.34 -37.66 32.68 -38 32 C-38.99 32.495 -38.99 32.495 -40 33 C-40 32.01 -40 31.02 -40 30 C-40.66 29.67 -41.32 29.34 -42 29 C-42.33 29.66 -42.66 30.32 -43 31 C-43.66 30.34 -44.32 29.68 -45 29 C-44.525625 28.608125 -44.05125 28.21625 -43.5625 27.8125 C-41.64820367 25.59191626 -41.38733012 23.86624291 -41 21 C-40.01 20.67 -39.02 20.34 -38 20 C-37.34 19.34 -36.68 18.68 -36 18 C-33.875 18.375 -33.875 18.375 -32 19 C-31.67 18.01 -31.34 17.02 -31 16 C-29.00045254 15.95745644 -26.99958364 15.95919217 -25 16 C-24.67 16.33 -24.34 16.66 -24 17 C-23.01 14.69 -22.02 12.38 -21 10 C-20 13 -20 13 -20 15 C-19.34 15 -18.68 15 -18 15 C-18.33 13.02 -18.66 11.04 -19 9 C-18.21625 8.54625 -17.4325 8.0925 -16.625 7.625 C-13.96301969 6.11571258 -13.96301969 6.11571258 -12 4 C-11.030625 4.185625 -10.06125 4.37125 -9.0625 4.5625 C-7.5465625 4.7790625 -7.5465625 4.7790625 -6 5 C-4.22809091 3.64555699 -4.22809091 3.64555699 -3 2 C-2.34 2 -1.68 2 -1 2 C-0.67 1.34 -0.34 0.68 0 0 Z " fill="#F2E3D9" transform="translate(66,268)"/>
<path d="M0 0 C0.99 0.99 1.98 1.98 3 3 C2.34 3 1.68 3 1 3 C0.566875 4.11375 0.566875 4.11375 0.125 5.25 C-0.82302644 7.56739797 -1.84845911 9.77917115 -3 12 C-1.35 12 0.3 12 2 12 C2 11.34 2 10.68 2 10 C2.66 10 3.32 10 4 10 C4.495 10.99 4.495 10.99 5 12 C5.99 12 6.98 12 8 12 C8 13.65 8 15.3 8 17 C7.175 17.103125 6.35 17.20625 5.5 17.3125 C1.40710988 18.11646056 -2.12540225 19.46352158 -6 21 C-6 20.34 -6 19.68 -6 19 C-9.18234105 20.75454385 -9.18234105 20.75454385 -12 23 C-9.03 23.33 -6.06 23.66 -3 24 C-3 25.32 -3 26.64 -3 28 C-3.77085937 27.97679687 -4.54171875 27.95359375 -5.3359375 27.9296875 C-6.84027344 27.90261719 -6.84027344 27.90261719 -8.375 27.875 C-9.37273437 27.85179687 -10.37046875 27.82859375 -11.3984375 27.8046875 C-14.16262173 27.72783152 -14.16262173 27.72783152 -16 30 C-16.33 30.99 -16.66 31.98 -17 33 C-14.36 32.34 -11.72 31.68 -9 31 C-9 31.66 -9 32.32 -9 33 C-8.030625 32.979375 -7.06125 32.95875 -6.0625 32.9375 C-3 33 -3 33 -2 34 C-1.01 33.67 -0.02 33.34 1 33 C1 31.68 1 30.36 1 29 C0.34 28.67 -0.32 28.34 -1 28 C-1 26.02 -1 24.04 -1 22 C-0.34 22 0.32 22 1 22 C1 22.66 1 23.32 1 24 C2.32 24 3.64 24 5 24 C5.99 24 6.98 24 8 24 C8 25.32 8 26.64 8 28 C6.02 28.99 6.02 28.99 4 30 C4.66 30.99 5.32 31.98 6 33 C6.68177416 34.32567199 7.35191436 35.65753688 8 37 C5 37 5 37 3.3125 35.5 C2.879375 35.005 2.44625 34.51 2 34 C2.33 34.99 2.66 35.98 3 37 C-4.26 37 -11.52 37 -19 37 C-19.33 36.01 -19.66 35.02 -20 34 C-20.66 34.99 -21.32 35.98 -22 37 C-23.32 36.67 -24.64 36.34 -26 36 C-26 35.01 -26 34.02 -26 33 C-25.401875 32.87625 -24.80375 32.7525 -24.1875 32.625 C-21.73768652 32.04524015 -21.73768652 32.04524015 -19 30 C-20.98 29.34 -22.96 28.68 -25 28 C-25 27.34 -25 26.68 -25 26 C-25.66 26 -26.32 26 -27 26 C-27 26.66 -27 27.32 -27 28 C-32.94 28 -38.88 28 -45 28 C-45 26.35 -45 24.7 -45 23 C-43.783125 23.165 -42.56625 23.33 -41.3125 23.5 C-38.18392164 23.89454541 -35.15831196 24.09869725 -32 24 C-32 24.66 -32 25.32 -32 26 C-31.34 26 -30.68 26 -30 26 C-29.34 24.35 -28.68 22.7 -28 21 C-27.67 21.66 -27.34 22.32 -27 23 C-26.34 23 -25.68 23 -25 23 C-24.855625 22.195625 -24.71125 21.39125 -24.5625 20.5625 C-24 18 -24 18 -23 17 C-22.31867549 15.33927151 -21.65257873 13.672233 -21 12 C-20.67 11.34 -20.34 10.68 -20 10 C-18.35 10 -16.7 10 -15 10 C-14.67 9.34 -14.34 8.68 -14 8 C-11.79214774 6.02870334 -10.36698653 5.07160713 -7.4375 4.5 C-4.63445548 3.92501651 -3.84353513 3.10689729 -2 1 C-1.34 0.67 -0.68 0.34 0 0 Z " fill="#DDCDD5" transform="translate(359,205)"/>
<path d="M0 0 C1.67004829 0.31595508 3.33637583 0.65179959 5 1 C6.32 1 7.64 1 9 1 C10.3008868 1.31863826 11.59328204 1.67386664 12.875 2.0625 C16.53488619 3.04258188 19.28139299 2.92965175 23 2 C23.495 2.99 23.495 2.99 24 4 C23.67 4.66 23.34 5.32 23 6 C25.97 5.505 25.97 5.505 29 5 C29.495 5.99 29.495 5.99 30 7 C25.44508386 9.20399168 20.97093824 9.58846263 16 10 C16 9.34 16 8.68 16 8 C14.35 8.66 12.7 9.32 11 10 C9.02 8.35 7.04 6.7 5 5 C4.67 5.66 4.34 6.32 4 7 C3.01 7.33 2.02 7.66 1 8 C0.67 8.66 0.34 9.32 0 10 C-2.86724686 9.42655063 -3.8614515 9.1385485 -6 7 C-6.226875 7.639375 -6.45375 8.27875 -6.6875 8.9375 C-8 11 -8 11 -10.375 11.75 C-13 12 -13 12 -17 12 C-19.35416349 12.94992562 -21.68895182 13.94952356 -24 15 C-24.99 15.33 -25.98 15.66 -27 16 C-27.33 16.66 -27.66 17.32 -28 18 C-28.598125 18.144375 -29.19625 18.28875 -29.8125 18.4375 C-32.41135928 19.1057781 -33.88969881 20.38210242 -36 22 C-36.66 22 -37.32 22 -38 22 C-38.309375 22.8353125 -38.309375 22.8353125 -38.625 23.6875 C-40.16803688 26.28260748 -42.06339457 27.78157663 -44.41015625 29.640625 C-47.86776843 32.59701084 -50.48507256 36.22760885 -53 40 C-55 39 -55 39 -57 37 C-57.99 37 -58.98 37 -60 37 C-56.42964824 26.0339196 -56.42964824 26.0339196 -53 23 C-52.34 22.278125 -51.68 21.55625 -51 20.8125 C-49 19 -49 19 -46 19 C-43.69416267 16.9247464 -41.74182279 14.69162167 -39.75 12.3125 C-35.46580453 8.70988108 -31.51889369 9 -26 9 C-21.57161496 7.95329081 -18.54211625 6.80926462 -15 4 C-13.125 3.4375 -13.125 3.4375 -11 3 C-10.01 2.649375 -9.02 2.29875 -8 1.9375 C-5 1 -5 1 -1 1 C-0.67 0.67 -0.34 0.34 0 0 Z " fill="#F2FAF5" transform="translate(179,92)"/>
<path d="M0 0 C2.5625 0.1875 2.5625 0.1875 4.5625 2.1875 C4.8925 1.5275 5.2225 0.8675 5.5625 0.1875 C6.201875 0.496875 6.84125 0.80625 7.5 1.125 C12.67273526 2.91962244 18.26714177 3.97427732 23.5625 2.1875 C24.5525 1.5275 25.5425 0.8675 26.5625 0.1875 C27.0575 1.6725 27.0575 1.6725 27.5625 3.1875 C28.2225 3.5175 28.8825 3.8475 29.5625 4.1875 C28.5725 4.8475 27.5825 5.5075 26.5625 6.1875 C26.2325 7.1775 25.9025 8.1675 25.5625 9.1875 C24.5725 8.8575 23.5825 8.5275 22.5625 8.1875 C21.9025 9.5075 21.2425 10.8275 20.5625 12.1875 C19.9025 12.1875 19.2425 12.1875 18.5625 12.1875 C18.5625 11.5275 18.5625 10.8675 18.5625 10.1875 C17.95921875 10.28289062 17.3559375 10.37828125 16.734375 10.4765625 C15.93515625 10.58742187 15.1359375 10.69828125 14.3125 10.8125 C13.52359375 10.92851562 12.7346875 11.04453125 11.921875 11.1640625 C9.24097541 11.19069395 7.83555911 10.55342084 5.5625 9.1875 C6.18783375 11.71113988 6.18783375 11.71113988 7.5625 14.1875 C11.6308654 15.74305148 16.25753828 15.26046545 20.5625 15.1875 C20.2325 16.5075 19.9025 17.8275 19.5625 19.1875 C20.5525 19.1875 21.5425 19.1875 22.5625 19.1875 C22.5625 20.5075 22.5625 21.8275 22.5625 23.1875 C17.19618795 24.03481243 12.96676079 24.12285283 7.5625 23.1875 C6.2425 23.1875 4.9225 23.1875 3.5625 23.1875 C2.22085921 22.8893576 0.88398827 22.56506808 -0.4375 22.1875 C-0.685 20.970625 -0.9325 19.75375 -1.1875 18.5 C-1.9326495 15.44435098 -2.46880961 14.14860018 -4.5 11.625 C-6.95878376 8.53169139 -7.13320968 6.06720155 -7.4375 2.1875 C-6.798125 2.043125 -6.15875 1.89875 -5.5 1.75 C-2.96490689 1.05861097 -2.72071564 0.20928582 0 0 Z " fill="#F1DBE5" transform="translate(308.4375,218.8125)"/>
<path d="M0 0 C4.16227208 1.71919934 6.1889675 3.87487042 8 8 C7.6875 10.3125 7.6875 10.3125 7 12 C7.99 12.66 8.98 13.32 10 14 C9.64950425 17.24208567 9.43778819 18.61527704 6.9375 20.8125 C6.298125 21.204375 5.65875 21.59625 5 22 C3.35 20.68 1.7 19.36 0 18 C-0.99 18.66 -1.98 19.32 -3 20 C-1.35 20.33 0.3 20.66 2 21 C2 21.66 2 22.32 2 23 C-1.53345599 24.76672799 -5.15204268 24.64028001 -9 24 C-12.05299924 22.52146802 -14.07378379 20.79244362 -16 18 C-17.44477501 13.75504249 -17.54132277 10.35330692 -15.875 6.1875 C-10.99242866 0.49116677 -7.41842062 -1.10601907 0 0 Z " fill="#2F95FE" transform="translate(182,217)"/>
<path d="M0 0 C2.48637255 3.22556439 2.63737075 3.59167901 2.25 7.375 C1.95093139 8.91932844 1.63867946 10.4611695 1.3125 12 C1.209375 13.299375 1.10625 14.59875 1 15.9375 C0.3125 19 0.3125 19 -1.75 20.4375 C-2.389375 20.623125 -3.02875 20.80875 -3.6875 21 C-4.21085937 20.36191406 -4.73421875 19.72382813 -5.2734375 19.06640625 C-8.32543686 16.45393431 -10.35181293 16.32641622 -14.3125 15.9375 C-17.7890625 15.58984375 -17.7890625 15.58984375 -20.6875 15 C-23.15164424 11.30378364 -23.48850302 8.28819801 -22.6875 4 C-21.07428201 1.00494189 -19.12451221 -1.48592241 -15.8203125 -2.66796875 C-10.4404005 -3.50550084 -4.59041421 -3.11761152 0 0 Z " fill="#FCF5E9" transform="translate(256.6875,163)"/>
<path d="M0 0 C0.99 0.495 0.99 0.495 2 1 C2 19.15 2 37.3 2 56 C27.41 56 52.82 56 79 56 C79 56.33 79 56.66 79 57 C53.31783469 57.9667128 27.70325927 58.08291374 2 58 C2 83.08 2 108.16 2 134 C1.67 134 1.34 134 1 134 C0.67 108.59 0.34 83.18 0 57 C-25.41 57 -50.82 57 -77 57 C-77 56.67 -77 56.34 -77 56 C-51.59 56 -26.18 56 0 56 C0 37.52 0 19.04 0 0 Z " fill="#F7DFC8" transform="translate(200,144)"/>
<path d="M0 0 C0.33 0 0.66 0 1 0 C1.02694851 1.95825873 1.04637218 3.91662226 1.0625 5.875 C1.07410156 6.96554688 1.08570313 8.05609375 1.09765625 9.1796875 C1 12 1 12 0 14 C-0.66 14 -1.32 14 -2 14 C-2.268125 14.804375 -2.53625 15.60875 -2.8125 16.4375 C-3.204375 17.283125 -3.59625 18.12875 -4 19 C-4.99 19.33 -5.98 19.66 -7 20 C-7.73323796 22.01508358 -7.73323796 22.01508358 -8 24 C-8.66 24 -9.32 24 -10 24 C-10 25.65 -10 27.3 -10 29 C-10.99 29.33 -11.98 29.66 -13 30 C-12.67 30.66 -12.34 31.32 -12 32 C-12.66 32 -13.32 32 -14 32 C-14.33 32.66 -14.66 33.32 -15 34 C-15.66 33.34 -16.32 32.68 -17 32 C-17.99 32 -18.98 32 -20 32 C-20 31.34 -20 30.68 -20 30 C-20.78375 30.33 -21.5675 30.66 -22.375 31 C-25 32 -25 32 -27 32 C-26 29 -25 26 -24 23 C-24.66 22.67 -25.32 22.34 -26 22 C-25.67 21.01 -25.34 20.02 -25 19 C-25.33 19.33 -25.66 19.66 -26 20 C-26.66 19.34 -27.32 18.68 -28 18 C-26.68 16.68 -25.36 15.36 -24 14 C-23.34 14.33 -22.68 14.66 -22 15 C-21.67 14.01 -21.34 13.02 -21 12 C-20.401875 12.20625 -19.80375 12.4125 -19.1875 12.625 C-16.71549154 13.30671915 -16.71549154 13.30671915 -14 11 C-13.01 12.485 -13.01 12.485 -12 14 C-7.77988194 11.79877327 -7.77988194 11.79877327 -5.375 8 C-5.25125 7.34 -5.1275 6.68 -5 6 C-3.70766393 4.62689293 -2.37562854 3.28965176 -1 2 C-0.67 1.34 -0.34 0.68 0 0 Z M-16 26 C-15 28 -15 28 -15 28 Z M-18 27 C-18 27.66 -18 28.32 -18 29 C-17.34 28.67 -16.68 28.34 -16 28 C-16.66 27.67 -17.32 27.34 -18 27 Z M-20 28 C-20 28.66 -20 29.32 -20 30 C-19.34 29.67 -18.68 29.34 -18 29 C-18.66 28.67 -19.32 28.34 -20 28 Z " fill="#C7E8D8" transform="translate(399,242)"/>
<path d="M0 0 C0.33 0.66 0.66 1.32 1 2 C2.175625 1.7215625 2.175625 1.7215625 3.375 1.4375 C8.03933441 0.87456309 12.35977729 1.40392396 17 2 C17 3.32 17 4.64 17 6 C16.22914063 5.97679687 15.45828125 5.95359375 14.6640625 5.9296875 C13.15972656 5.90261719 13.15972656 5.90261719 11.625 5.875 C10.62726563 5.85179687 9.62953125 5.82859375 8.6015625 5.8046875 C5.83737827 5.72783152 5.83737827 5.72783152 4 8 C3.67 8.99 3.34 9.98 3 11 C5.64 10.34 8.28 9.68 11 9 C11 9.66 11 10.32 11 11 C11.969375 10.979375 12.93875 10.95875 13.9375 10.9375 C17 11 17 11 18 12 C18.99 11.67 19.98 11.34 21 11 C21 9.68 21 8.36 21 7 C20.34 6.67 19.68 6.34 19 6 C19 4.02 19 2.04 19 0 C19.66 0 20.32 0 21 0 C21 0.66 21 1.32 21 2 C22.32 2 23.64 2 25 2 C25.99 2 26.98 2 28 2 C28 3.32 28 4.64 28 6 C26.02 6.99 26.02 6.99 24 8 C24.66 8.99 25.32 9.98 26 11 C26.68177416 12.32567199 27.35191436 13.65753688 28 15 C25 15 25 15 23.3125 13.5 C22.879375 13.005 22.44625 12.51 22 12 C22.495 13.485 22.495 13.485 23 15 C15.74 15 8.48 15 1 15 C0.67 14.01 0.34 13.02 0 12 C-0.99 13.485 -0.99 13.485 -2 15 C-3.32 14.67 -4.64 14.34 -6 14 C-6 13.01 -6 12.02 -6 11 C-5.401875 10.87625 -4.80375 10.7525 -4.1875 10.625 C-1.73768652 10.04524015 -1.73768652 10.04524015 1 8 C-0.98 7.34 -2.96 6.68 -5 6 C-5 5.34 -5 4.68 -5 4 C-5.66 4 -6.32 4 -7 4 C-7 4.66 -7 5.32 -7 6 C-12.94 6 -18.88 6 -25 6 C-25 4.35 -25 2.7 -25 1 C-23.783125 1.165 -22.56625 1.33 -21.3125 1.5 C-18.18392164 1.89454541 -15.15831196 2.09869725 -12 2 C-12 2.66 -12 3.32 -12 4 C-11.34 4 -10.68 4 -10 4 C-9.67 3.34 -9.34 2.68 -9 2 C-7.34385343 1.61781233 -5.67542976 1.28604898 -4 1 C-2 0 -2 0 0 0 Z " fill="#B1AEB1" transform="translate(339,227)"/>
<path d="M0 0 C2.19747131 -0.29805007 2.19747131 -0.29805007 4 -1 C4.495 0.485 4.495 0.485 5 2 C5.61875 1.2575 5.61875 1.2575 6.25 0.5 C8 -1 8 -1 12 -1 C12 3 12 3 10.5625 4.625 C10.046875 5.07875 9.53125 5.5325 9 6 C8.67 6.66 8.34 7.32 8 8 C8.99 8 9.98 8 11 8 C11 8.66 11 9.32 11 10 C8.09399739 11.25664978 6.20395416 12 3 12 C2.505 11.01 2.505 11.01 2 10 C1.43796875 10.32742187 0.8759375 10.65484375 0.296875 10.9921875 C-2.26859964 12.11785494 -3.96842277 12.2068111 -6.75 12.125 C-7.54921875 12.10695312 -8.3484375 12.08890625 -9.171875 12.0703125 C-9.77515625 12.04710937 -10.3784375 12.02390625 -11 12 C-11 11.34 -11 10.68 -11 10 C-11.66 10 -12.32 10 -13 10 C-13 10.66 -13 11.32 -13 12 C-20 12 -27 12 -34 12 C-34 10.68 -34 9.36 -34 8 C-32.68 7.34 -31.36 6.68 -30 6 C-30 6.66 -30 7.32 -30 8 C-21.585 7.505 -21.585 7.505 -13 7 C-12.67 5.68 -12.34 4.36 -12 3 C-11.34 3 -10.68 3 -10 3 C-10 2.01 -10 1.02 -10 0 C-5.70043856 -1.7589115 -4.02552414 -2.28113035 0 0 Z " fill="#E5DFE0" transform="translate(68,230)"/>
<path d="M0 0 C2.44346528 2.24675132 4.0471894 4.54177401 5.69921875 7.4140625 C6.42915039 8.67863281 6.42915039 8.67863281 7.17382812 9.96875 C7.9230957 11.28359375 7.9230957 11.28359375 8.6875 12.625 C9.19861328 13.50929687 9.70972656 14.39359375 10.23632812 15.3046875 C14 21.85719501 14 21.85719501 14 23 C5.09 23 -3.82 23 -13 23 C-6.25 10.625 -6.25 10.625 -3.125 5.3125 C-2.23167969 3.79076172 -2.23167969 3.79076172 -1.3203125 2.23828125 C-0.88460937 1.49964844 -0.44890625 0.76101562 0 0 Z " fill="#FCE2F2" transform="translate(223,217)"/>
<path d="M0 0 C0.99 0.33 1.98 0.66 3 1 C3 1.99 3 2.98 3 4 C3.66 3.67 4.32 3.34 5 3 C6.54613014 3.08651631 8.08909387 3.24002636 9.625 3.4375 C10.85089844 3.59025391 10.85089844 3.59025391 12.1015625 3.74609375 C12.72804687 3.82988281 13.35453125 3.91367187 14 4 C14 3.01 14 2.02 14 1 C14.66 1 15.32 1 16 1 C16 2.32 16 3.64 16 5 C15.34 5 14.68 5 14 5 C13.67 5.99 13.34 6.98 13 8 C12.34 8 11.68 8 11 8 C10.67 8.66 10.34 9.32 10 10 C9.67 10.33 9.34 10.66 9 11 C10.32 11 11.64 11 13 11 C13.33 10.34 13.66 9.68 14 9 C14.33 9.66 14.66 10.32 15 11 C13.88200014 12.33920838 12.75538103 13.67122556 11.625 15 C10.68527344 16.11375 10.68527344 16.11375 9.7265625 17.25 C9.15679687 17.8275 8.58703125 18.405 8 19 C7.34 19 6.68 19 6 19 C5.01 21.475 5.01 21.475 4 24 C2.68 23.34 1.36 22.68 0 22 C0 18.66666667 0 15.33333333 0 12 C-0.99 12.33 -1.98 12.66 -3 13 C-3.99 12.67 -4.98 12.34 -6 12 C-9.11785113 12.64644661 -9.11785113 12.64644661 -10 15 C-10.99 15.66 -11.98 16.32 -13 17 C-14.32 16.01 -15.64 15.02 -17 14 C-15.625 12 -15.625 12 -14 10 C-13.34 10 -12.68 10 -12 10 C-11.34 8.02 -10.68 6.04 -10 4 C-9.401875 4.185625 -8.80375 4.37125 -8.1875 4.5625 C-5.83591238 5.22093687 -5.83591238 5.22093687 -3 4 C-2.67 3.34 -2.34 2.68 -2 2 C-1.34 1.34 -0.68 0.68 0 0 Z " fill="#F1ECDF" transform="translate(204,347)"/>
<path d="M0 0 C0.33333333 1.33333333 0.66666667 2.66666667 1 4 C1.2475 4.639375 1.495 5.27875 1.75 5.9375 C2.12515736 9.03254822 0.81796142 10.57605144 -1 13 C-1.66 13 -2.32 13 -3 13 C-3.66 14.65 -4.32 16.3 -5 18 C-5.66 18 -6.32 18 -7 18 C-7.99 20.475 -7.99 20.475 -9 23 C-9.66 23 -10.32 23 -11 23 C-11 23.66 -11 24.32 -11 25 C-11.66 25 -12.32 25 -13 25 C-13.33 25.66 -13.66 26.32 -14 27 C-14.66 26.67 -15.32 26.34 -16 26 C-16.33 26.99 -16.66 27.98 -17 29 C-18.9375 30.25 -18.9375 30.25 -21 31 C-21.66 30.67 -22.32 30.34 -23 30 C-23.33 30.99 -23.66 31.98 -24 33 C-25.890625 34.46484375 -25.890625 34.46484375 -28.25 35.9375 C-31.66977209 38.12462697 -34.88435781 40.38688074 -38 43 C-38.495 41.515 -38.495 41.515 -39 40 C-38.07421875 38.28125 -38.07421875 38.28125 -36.6875 36.5 C-36.01267578 35.61828125 -36.01267578 35.61828125 -35.32421875 34.71875 C-34.88722656 34.1515625 -34.45023438 33.584375 -34 33 C-33.34 32.01 -32.68 31.02 -32 30 C-30.67405895 29.63837971 -29.34061543 29.30271961 -28 29 C-27.67 28.34 -27.34 27.68 -27 27 C-22.41176471 23 -22.41176471 23 -20 23 C-18.77950766 21.51561743 -17.56163098 20.02886034 -16.3671875 18.5234375 C-14.53498683 16.48184247 -12.37047346 15.34540386 -10 14 C-9.34 13.01 -8.68 12.02 -8 11 C-7.34 11 -6.68 11 -6 11 C-5.67 10.01 -5.34 9.02 -5 8 C-4.505 7.525625 -4.01 7.05125 -3.5 6.5625 C-1.74754685 4.73702797 -1.48820218 3.44101088 -1 1 C-0.67 0.67 -0.34 0.34 0 0 Z " fill="#F7F7E5" transform="translate(280,275)"/>
<path d="M0 0 C2.83830161 1.41915081 4.17272237 3.44181132 6 6 C6 6.99 6 7.98 6 9 C6.33 9.66 6.66 10.32 7 11 C7.99 11.33 8.98 11.66 10 12 C10.69258229 13.99117408 11.35747635 15.9921136 12 18 C13.5412312 19.70921589 13.5412312 19.70921589 15 21 C15 21.66 15 22.32 15 23 C12.65147472 24.17426264 11.26225935 24.11508173 8.6484375 24.09765625 C7.79765625 24.09443359 6.946875 24.09121094 6.0703125 24.08789062 C5.18085937 24.07951172 4.29140625 24.07113281 3.375 24.0625 C2.4778125 24.05798828 1.580625 24.05347656 0.65625 24.04882812 C-1.56256648 24.03702591 -3.78125018 24.02056155 -6 24 C-5.47599609 23.07574219 -5.47599609 23.07574219 -4.94140625 22.1328125 C-4.63074219 21.42898438 -4.32007812 20.72515625 -4 20 C-4.89163577 17.88316159 -4.89163577 17.88316159 -6 16 C-5.67 15.34 -5.34 14.68 -5 14 C-5.28112064 11.99199544 -5.61067967 9.98985949 -6 8 C-4.68 7.67 -3.36 7.34 -2 7 C-1.34 4.69 -0.68 2.38 0 0 Z " fill="#EEDCCF" transform="translate(121,376)"/>
<path d="M0 0 C1.9490625 0.2475 1.9490625 0.2475 3.9375 0.5 C12.5692253 1.48554097 12.5692253 1.48554097 21 0 C21.721875 0.144375 22.44375 0.28875 23.1875 0.4375 C26.85592161 1.17118432 30.26061046 1.06337948 34 1 C34.495 2.98 34.495 2.98 35 5 C34.34 5 33.68 5 33 5 C32.505 4.01 32.505 4.01 32 3 C31.319375 3.309375 30.63875 3.61875 29.9375 3.9375 C26.63034088 5.13370649 23.48454122 5.59005397 20 6 C20.33 6.99 20.66 7.98 21 9 C24.3 9 27.6 9 31 9 C31.33 9.66 31.66 10.32 32 11 C31.01 12.485 31.01 12.485 30 14 C29.34 13.34 28.68 12.68 28 12 C26.824375 12.5259375 26.824375 12.5259375 25.625 13.0625 C24.75875 13.371875 23.8925 13.68125 23 14 C22.34 13.67 21.68 13.34 21 13 C21 12.34 21 11.68 21 11 C20.34 11 19.68 11 19 11 C18.67 11.66 18.34 12.32 18 13 C17.113125 12.979375 16.22625 12.95875 15.3125 12.9375 C12.37830369 12.99286219 9.84506304 13.3305734 7 14 C6.8046875 11.94921875 6.609375 9.8984375 6.4140625 7.84765625 C6.27742188 7.23792969 6.14078125 6.62820312 6 6 C3.7763932 4.7018576 3.7763932 4.7018576 0 5 C0 3.35 0 1.7 0 0 Z " fill="#EEBCDB" transform="translate(304,159)"/>
<path d="M0 0 C0.33 0 0.66 0 1 0 C1.5230337 5.96258424 0.97693033 8.91850171 -2.7109375 13.65234375 C-4 15 -4 15 -6 16 C-6.309375 16.94875 -6.61875 17.8975 -6.9375 18.875 C-7.94794567 21.84689902 -8.62997461 23.06088831 -11 25 C-10.67 25.66 -10.34 26.32 -10 27 C-10.825 27.433125 -11.65 27.86625 -12.5 28.3125 C-13.325 28.869375 -14.15 29.42625 -15 30 C-15.04631168 32.95199987 -15.04631168 32.95199987 -14.75 35.6875 C-15.08209765 40.08779384 -16.84552008 43.21042372 -19 47 C-19.99 47 -20.98 47 -22 47 C-21.67 46.2575 -21.34 45.515 -21 44.75 C-19.77217129 41.86116688 -19.77217129 41.86116688 -20 38 C-20 37.34 -20 36.68 -20 36 C-20.66 35.34 -21.32 34.68 -22 34 C-22 33.01 -22 32.02 -22 31 C-22.66 31 -23.32 31 -24 31 C-24.33 31.99 -24.66 32.98 -25 34 C-25.32613618 29.32538149 -24.70582788 26.83325617 -22 23 C-19.525 23.99 -19.525 23.99 -17 25 C-13.46177109 20.48847187 -10.52551302 16.16582209 -8 11 C-6.69254251 9.31295807 -5.35827971 7.64639965 -4 6 C-2.9171875 4.3603125 -2.9171875 4.3603125 -1.8125 2.6875 C-1.214375 1.800625 -0.61625 0.91375 0 0 Z " fill="#DDDCD7" transform="translate(399,168)"/>
<path d="M0 0 C3.96 0 7.92 0 12 0 C11.88651017 3.62570152 11.75975535 7.25008101 11.625 10.875 C11.57859375 12.42380859 11.57859375 12.42380859 11.53125 14.00390625 C11.47324219 15.48310547 11.47324219 15.48310547 11.4140625 16.9921875 C11.3826416 17.90339355 11.3512207 18.81459961 11.31884766 19.75341797 C11 22 11 22 9 24 C6 24.25 6 24.25 3 24 C0.47871644 21.47871644 0.70646931 20.48760987 0.5859375 16.9921875 C0.54726562 16.00605469 0.50859375 15.01992187 0.46875 14.00390625 C0.4378125 12.97136719 0.406875 11.93882812 0.375 10.875 C0.33632812 9.83472656 0.29765625 8.79445312 0.2578125 7.72265625 C0.16335671 5.14873598 0.08058229 2.57439195 0 0 Z " fill="#FDEDF0" transform="translate(150,160)"/>
<path d="M0 0 C3 3.75 3 3.75 3 6 C7.40914783 7.10228696 11.48382401 7.07654536 16 7 C15.67 8.32 15.34 9.64 15 11 C15.99 11 16.98 11 18 11 C18 12.32 18 13.64 18 15 C12.63368795 15.84731243 8.40426079 15.93535283 3 15 C1.68 15 0.36 15 -1 15 C-2.32 14.67 -3.64 14.34 -5 14 C-5.66 10.37 -6.32 6.74 -7 3 C-5.02 3.99 -5.02 3.99 -3 5 C-2.814375 4.0409375 -2.814375 4.0409375 -2.625 3.0625 C-2.41875 2.381875 -2.2125 1.70125 -2 1 C-1.34 0.67 -0.68 0.34 0 0 Z " fill="#ECDCE3" transform="translate(313,227)"/>
<path d="M0 0 C1.32 0.33 2.64 0.66 4 1 C3.34 3.31 2.68 5.62 2 8 C2.66 8.66 3.32 9.32 4 10 C3.401875 10.5775 2.80375 11.155 2.1875 11.75 C0.02336042 13.88033488 0.02336042 13.88033488 -1.5 16 C-3.18126067 18.24168089 -4.88973916 20.15352176 -7 22 C-7.99 22 -8.98 22 -10 22 C-11.02611949 23.65071396 -12.02308143 25.31970006 -13 27 C-16.4137931 30 -16.4137931 30 -19 30 C-19.33 30.66 -19.66 31.32 -20 32 C-21.32 31.67 -22.64 31.34 -24 31 C-22.35 28.69 -20.7 26.38 -19 24 C-17.68 24.33 -16.36 24.66 -15 25 C-15.33 24.01 -15.66 23.02 -16 22 C-14.17805188 19.42414232 -12.22875556 17.22875556 -10 15 C-5.60268217 10.35140687 -2.65747554 5.82600408 0 0 Z M4 0 C4.66 0 5.32 0 6 0 C5.67 0.66 5.34 1.32 5 2 C4.67 1.34 4.34 0.68 4 0 Z " fill="#F6F5E5" transform="translate(132,216)"/>
<path d="M0 0 C0.70125 0.15597656 1.4025 0.31195313 2.125 0.47265625 C8.14636245 1.7080173 12.95453195 2.14065435 19 1 C19.6875 3.8125 19.6875 3.8125 20 7 C18.5625 8.875 18.5625 8.875 17 10 C17.66 10 18.32 10 19 10 C19.495 11.98 19.495 11.98 20 14 C18.01432292 14.22786458 16.02864583 14.45572917 14.04296875 14.68359375 C11.80603607 14.97170735 11.80603607 14.97170735 9 16 C9 14.02 9 12.04 9 10 C9.804375 9.71125 10.60875 9.4225 11.4375 9.125 C14.1326468 8.26737432 14.1326468 8.26737432 15 6 C5.1 6 -4.8 6 -15 6 C-15 4.68 -15 3.36 -15 2 C-10.38 2 -5.76 2 -1 2 C-0.67 1.34 -0.34 0.68 0 0 Z " fill="#ACAAAC" transform="translate(335,244)"/>
<path d="M0 0 C1.98 0.66 3.96 1.32 6 2 C6.36789096 6.29206125 5.48155943 8.50743487 3 12 C1.4375 13.8125 1.4375 13.8125 0 15 C-0.66 15 -1.32 15 -2 15 C-2.33 15.66 -2.66 16.32 -3 17 C-3.495 17.804375 -3.99 18.60875 -4.5 19.4375 C-6.10975995 21.98536996 -6.10975995 21.98536996 -7 25 C-7.66 25 -8.32 25 -9 25 C-9.33 26.32 -9.66 27.64 -10 29 C-10.99 28.67 -11.98 28.34 -13 28 C-12.75 24.625 -12.75 24.625 -12 21 C-9.9375 19.5625 -9.9375 19.5625 -8 19 C-8.268125 18.46375 -8.53625 17.9275 -8.8125 17.375 C-9 15 -9 15 -6.625 12 C-5.75875 11.01 -4.8925 10.02 -4 9 C-3.34786708 6.97536745 -3.34786708 6.97536745 -3 5 C-2.0398183 3.31008021 -1.04644066 1.63790712 0 0 Z M-14 29 C-13.34 29 -12.68 29 -12 29 C-12 29.99 -12 30.98 -12 32 C-11.34 32.33 -10.68 32.66 -10 33 C-10 33.66 -10 34.32 -10 35 C-11.32 35.33 -12.64 35.66 -14 36 C-14 33.69 -14 31.38 -14 29 Z " fill="#D7E9E5" transform="translate(352,259)"/>
<path d="M0 0 C0.763125 0.33 1.52625 0.66 2.3125 1 C4.99069135 2.17436686 4.99069135 2.17436686 8 2 C10 5 10 5 9.625 7.1875 C9.315625 8.0846875 9.315625 8.0846875 9 9 C7.35 9 5.7 9 4 9 C3.67 9.66 3.34 10.32 3 11 C3 10.34 3 9.68 3 9 C-1.73231287 8.76915547 -5.48795113 9.61167727 -10 11 C-10.66 11 -11.32 11 -12 11 C-12.66 11.66 -13.32 12.32 -14 13 C-14.99 12.34 -15.98 11.68 -17 11 C-17.99 11.495 -17.99 11.495 -19 12 C-19.33 11.01 -19.66 10.02 -20 9 C-17.75482826 6.4180525 -16.27259758 5.77002296 -13 5 C-11.7625 4.1646875 -11.7625 4.1646875 -10.5 3.3125 C-9.675 2.879375 -8.85 2.44625 -8 2 C-5.6875 2.8125 -5.6875 2.8125 -4 4 C-2.68 2.68 -1.36 1.36 0 0 Z " fill="#E7DCF1" transform="translate(346,11)"/>
<path d="M0 0 C-0.66 1.65 -1.32 3.3 -2 5 C-0.02 5 1.96 5 4 5 C3.67 3.35 3.34 1.7 3 0 C6.37462715 0.54723683 8.08235 1.0549 11 3 C10.67 3.99 10.34 4.98 10 6 C8.68 5.67 7.36 5.34 6 5 C6 5.66 6 6.32 6 7 C7.32 7.33 8.64 7.66 10 8 C10 9.65 10 11.3 10 13 C8.35 13.33 6.7 13.66 5 14 C5.33 13.01 5.66 12.02 6 11 C6.66 11 7.32 11 8 11 C8 10.34 8 9.68 8 9 C6.68 9 5.36 9 4 9 C3.34 10.32 2.68 11.64 2 13 C-1.37462715 12.45276317 -3.08235 11.9451 -6 10 C-6 10.66 -6 11.32 -6 12 C-6.99 11.67 -7.98 11.34 -9 11 C-9 10.01 -9 9.02 -9 8 C-7.35 8 -5.7 8 -4 8 C-4 7.34 -4 6.68 -4 6 C-5.32 6 -6.64 6 -8 6 C-7.25 3.5625 -7.25 3.5625 -6 1 C-3.84657966 0.12517299 -2.30989225 0 0 0 Z " fill="#FEB344" transform="translate(245,163)"/>
<path d="M0 0 C2.61715838 2.38923768 4.36199113 4.97100751 6.1875 8 C6.71730469 8.86625 7.24710938 9.7325 7.79296875 10.625 C9 13 9 13 9 16 C3.39 16 -2.22 16 -8 16 C-6.98787713 11.95150853 -5.56619189 9.31072099 -3.4375 5.75 C-2.79683594 4.67234375 -2.15617188 3.5946875 -1.49609375 2.484375 C-1.00238281 1.66453125 -0.50867188 0.8446875 0 0 Z " fill="#FD189A" transform="translate(223,222)"/>
<path d="M0 0 C0.33 0.66 0.66 1.32 1 2 C2.32 1.67 3.64 1.34 5 1 C5 1.66 5 2.32 5 3 C5.928125 2.79375 6.85625 2.5875 7.8125 2.375 C11 2 11 2 14 4 C14.845625 4.28875 15.69125 4.5775 16.5625 4.875 C19 6 19 6 20.25 7.875 C20.9653479 9.90181904 21.49355446 11.9130951 22 14 C21.48050781 13.65066406 20.96101563 13.30132812 20.42578125 12.94140625 C16.56370041 10.42141635 13.59449192 8.74505274 9 8 C8.21625 7.484375 7.4325 6.96875 6.625 6.4375 C3.24809255 4.58824116 0.79913376 4.78893701 -3 5 C-6 5 -6 5 -7.90234375 4.3203125 C-10.94948116 3.85501405 -12.12563337 5.0854905 -14.5625 6.875 C-17.14065926 8.74449154 -18.95603916 9.98534639 -22 11 C-22.33 10.34 -22.66 9.68 -23 9 C-20.92989732 5.89484598 -20.23688458 5.42803731 -17 4 C-16.360625 3.649375 -15.72125 3.29875 -15.0625 2.9375 C-12.70901233 1.86773288 -10.54542371 1.43458454 -8 1 C-7.13375 0.814375 -6.2675 0.62875 -5.375 0.4375 C-3 0 -3 0 0 0 Z " fill="#EBD5EF" transform="translate(344,30)"/>
<path d="M0 0 C0.66386719 0.144375 1.32773437 0.28875 2.01171875 0.4375 C2.89472656 0.623125 3.77773438 0.80875 4.6875 1 C5.99267578 1.2784375 5.99267578 1.2784375 7.32421875 1.5625 C9.93712964 1.98972047 12.35813038 2.07616201 15 2 C15 1.34 15 0.68 15 0 C15.66 0 16.32 0 17 0 C17 0.66 17 1.32 17 2 C18.98 2 20.96 2 23 2 C23.33 1.34 23.66 0.68 24 0 C24.66 0 25.32 0 26 0 C26 0.66 26 1.32 26 2 C29.96 2 33.92 2 38 2 C37.67 3.65 37.34 5.3 37 7 C36.34 7.33 35.68 7.66 35 8 C34.505 6.515 34.505 6.515 34 5 C34 5.99 34 6.98 34 8 C32.91460937 7.855625 31.82921875 7.71125 30.7109375 7.5625 C29.2656509 7.37480044 27.82033693 7.18731162 26.375 7 C25.30572266 6.85691406 25.30572266 6.85691406 24.21484375 6.7109375 C20.96834411 6.29395589 17.88273207 6 14.6015625 6 C12 6 12 6 10 5 C9.67 5.99 9.34 6.98 9 8 C8.67 7.01 8.34 6.02 8 5 C7.67 5.33 7.34 5.66 7 6 C5 5.33333333 3 4.66666667 1 4 C0.67 4.66 0.34 5.32 0 6 C0 4.02 0 2.04 0 0 Z " fill="#965A63" transform="translate(329,146)"/>
<path d="M0 0 C4.20196558 1.73559448 6.05981587 3.91540184 8 8 C8 8.99 8 9.98 8 11 C7.01 11 6.02 11 5 11 C4.566875 10.05125 4.13375 9.1025 3.6875 8.125 C2.20697799 4.79958063 2.20697799 4.79958063 -1 3 C-5.32351988 2.43954372 -7.29704773 2.5213942 -10.9375 5 C-13.22957916 8.33393332 -13.76889643 10.10056709 -13.46875 14.0625 C-12.58556388 17.71300264 -11.120231 19.00305216 -8 21 C-4.62281543 21.39701254 -1.38234984 21.29554513 2 21 C2 21.66 2 22.32 2 23 C-1.53345599 24.76672799 -5.15204268 24.64028001 -9 24 C-12.05299924 22.52146802 -14.07378379 20.79244362 -16 18 C-17.44477501 13.75504249 -17.54132277 10.35330692 -15.875 6.1875 C-10.99242866 0.49116677 -7.41842062 -1.10601907 0 0 Z " fill="#E5F1FE" transform="translate(182,217)"/>
<path d="M0 0 C0.99 0.66 1.98 1.32 3 2 C2.67 2.66 2.34 3.32 2 4 C2 7.41099168 2.49145406 10.63088314 3 14 C-0.625 17 -0.625 17 -4 17 C-5.33981486 17.3062434 -6.67511887 17.63451555 -8 18 C-8.12375 18.7425 -8.2475 19.485 -8.375 20.25 C-8.95486701 22.80141485 -9.73708739 24.7267573 -11 27 C-11.99 26.67 -12.98 26.34 -14 26 C-14.8125 23.8125 -14.8125 23.8125 -15 21 C-12.6875 18.4375 -12.6875 18.4375 -10 16 C-9.62875 15.2575 -9.2575 14.515 -8.875 13.75 C-8 12 -8 12 -5 11 C-3.68964993 7.82757352 -3 5.44118336 -3 2 C-2.01 1.34 -1.02 0.68 0 0 Z M3 0 C3.66 0.66 4.32 1.32 5 2 C4.34 2 3.68 2 3 2 C3 1.34 3 0.68 3 0 Z " fill="#EFE5D2" transform="translate(176,354)"/>
<path d="M0 0 C1.051875 0.350625 2.10375 0.70125 3.1875 1.0625 C6.84505734 1.96189935 8.48221137 2.00508247 12 1 C12.66 1 13.32 1 14 1 C16.04355685 0.68495165 18.0850209 0.36093404 20.125 0.0234375 C21.053125 0.01183594 21.053125 0.01183594 22 0 C22.66 0.66 23.32 1.32 24 2 C26.01954441 1.66179847 26.01954441 1.66179847 28 1 C28.66 1 29.32 1 30 1 C30 2.65 30 4.3 30 6 C3 6 3 6 0 5 C0 3.35 0 1.7 0 0 Z " fill="#BA96AA" transform="translate(337,167)"/>
<path d="M0 0 C2 1 2 1 2 1 Z M-1 1 C1 1.3125 1 1.3125 3 2 C3.99 2 4.98 2 6 2 C5.67 2.66 5.34 3.32 5 4 C4.34 4 3.68 4 3 4 C2.67 5.65 2.34 7.3 2 9 C-1.81489674 10.46726798 -4.29011622 9.43336419 -8 8 C-8.33 8.66 -8.66 9.32 -9 10 C-9.66 10.66 -10.32 11.32 -11 12 C-10.34 13.32 -9.68 14.64 -9 16 C-9.99 16.33 -10.98 16.66 -12 17 C-14.42429075 14.95450468 -15.83858751 13.69945412 -16.5625 10.5625 C-15.72101232 6.72905614 -14.14799562 5.27727343 -11 3 C-7.375 3.375 -7.375 3.375 -4 4 C-2.31201173 2.56249809 -2.31201173 2.56249809 -1 1 Z " fill="#F1D1EB" transform="translate(391,84)"/>
<path d="M0 0 C4 2 4 2 5.125 4.3125 C5.41375 5.199375 5.7025 6.08625 6 7 C6.95906559 9.45760557 7.87049346 11.77506759 9.1875 14.0625 C10.20085074 16.47895177 9.81278627 17.56164118 9 20 C9 20.66 9 21.32 9 22 C9.66 22.33 10.32 22.66 11 23 C9.02 23.66 7.04 24.32 5 25 C5.185625 24.278125 5.37125 23.55625 5.5625 22.8125 C6.01995307 19.87173027 5.73516357 17.85896942 5 15 C4.67 15.66 4.34 16.32 4 17 C3.34 17 2.68 17 2 17 C2 17.66 2 18.32 2 19 C1.34 19 0.68 19 0 19 C0 12.73 0 6.46 0 0 Z " fill="#F2E0FA" transform="translate(0,207)"/>
<path d="M0 0 C2.8125 -0.1875 2.8125 -0.1875 6 0 C7.5625 1.375 7.5625 1.375 9 3 C10.66392045 3.67349161 12.33032028 4.3409159 14 5 C14.33 5.66 14.66 6.32 15 7 C16.98 6.67 18.96 6.34 21 6 C20.34 7.98 19.68 9.96 19 12 C18.34 12 17.68 12 17 12 C17 12.66 17 13.32 17 14 C16.01 14.33 15.02 14.66 14 15 C14 14.34 14 13.68 14 13 C13.34 13 12.68 13 12 13 C11.67 13.66 11.34 14.32 11 15 C10.67 13.35 10.34 11.7 10 10 C9.01 10.33 8.02 10.66 7 11 C6.608125 10.236875 6.21625 9.47375 5.8125 8.6875 C3.83331022 5.75283929 2.1133183 4.59873102 -1 3 C-0.67 2.01 -0.34 1.02 0 0 Z " fill="#F6F1CF" transform="translate(104,290)"/>
<path d="M0 0 C7 2 7 2 8.8125 4.625 C9.204375 5.40875 9.59625 6.1925 10 7 C10.66 7 11.32 7 12 7 C11.63692621 9.68674602 11.33095772 11.55872304 9.6875 13.75 C7.80095268 15.14744246 6.29800696 15.6037919 4 16 C3.34 14.68 2.68 13.36 2 12 C1.67 12.99 1.34 13.98 1 15 C0.67 15 0.34 15 0 15 C0 10.05 0 5.1 0 0 Z " fill="#F1DAF5" transform="translate(0,249)"/>
<path d="M0 0 C0.66 0.33 1.32 0.66 2 1 C1.39147683 5.86818533 -0.73753022 9.72958829 -3 14 C-3.33 14.66 -3.66 15.32 -4 16 C-6.0625 16.625 -6.0625 16.625 -8 17 C-8 17.66 -8 18.32 -8 19 C-10 21 -10 21 -12 22 C-12.33 22.99 -12.66 23.98 -13 25 C-14.65 25.33 -16.3 25.66 -18 26 C-17.67 23.69 -17.34 21.38 -17 19 C-15.35 18.67 -13.7 18.34 -12 18 C-11.67 17.01 -11.34 16.02 -11 15 C-10.34870203 13.65909241 -9.68486725 12.32407669 -9 11 C-8.01 11 -7.02 11 -6 11 C-5.62875 9.6696875 -5.62875 9.6696875 -5.25 8.3125 C-3.96065232 4.89572865 -2.40019871 2.7202252 0 0 Z " fill="#F0EAF7" transform="translate(261,67)"/>
<path d="M0 0 C0 9 0 9 -1 13 C-4.3 13 -7.6 13 -11 13 C-11.33 12.01 -11.66 11.02 -12 10 C-11.01 9.67 -10.02 9.34 -9 9 C-9 8.34 -9 7.68 -9 7 C-9.66 6.67 -10.32 6.34 -11 6 C-10.67 4.35 -10.34 2.7 -10 1 C-8.88625 1.020625 -7.7725 1.04125 -6.625 1.0625 C-3.92916508 1.01602009 -2.35646307 0 0 0 Z " fill="#CFDBD6" transform="translate(367,245)"/>
<path d="M0 0 C3.13640103 1.0729793 6.05822545 2.48166475 9 4 C11.35152963 5.21139405 13.47604851 6.15868284 16 7 C16.75 9.25 16.75 9.25 17 12 C15.0625 14.3125 15.0625 14.3125 13 16 C11.02 15.01 9.04 14.02 7 13 C7 12.01 7 11.02 7 10 C6.34 9.67 5.68 9.34 5 9 C4.67 8.01 4.34 7.02 4 6 C0.99992729 4.29144978 0.99992729 4.29144978 -2 3 C-2 2.34 -2 1.68 -2 1 C-1.34 0.67 -0.68 0.34 0 0 Z " fill="#F4ECC9" transform="translate(149,336)"/>
<path d="M0 0 C0.66 0 1.32 0 2 0 C2 0.66 2 1.32 2 2 C5.96 2 9.92 2 14 2 C14 1.34 14 0.68 14 0 C14.66 0 15.32 0 16 0 C16.33 0.66 16.66 1.32 17 2 C17.99 2 18.98 2 20 2 C20 3.65 20 5.3 20 7 C18.54364629 7.22174933 17.08477044 7.42698698 15.625 7.625 C14.81289063 7.74101562 14.00078125 7.85703125 13.1640625 7.9765625 C12.44992187 7.98429688 11.73578125 7.99203125 11 8 C10.34 7.34 9.68 6.68 9 6 C9 5.01 9 4.02 9 3 C8.34 3 7.68 3 7 3 C7 4.32 7 5.64 7 7 C4.69 7 2.38 7 0 7 C0 5.68 0 4.36 0 3 C-0.66 3 -1.32 3 -2 3 C-2.33 3.99 -2.66 4.98 -3 6 C-3 4.68 -3 3.36 -3 2 C-2.01 2 -1.02 2 0 2 C0 1.34 0 0.68 0 0 Z " fill="#935961" transform="translate(347,215)"/>
<path d="M0 0 C-0.66 1.98 -1.32 3.96 -2 6 C-2.99 5.67 -3.98 5.34 -5 5 C-7.0133653 6.31306433 -9.01231606 7.64837492 -11 9 C-14.3878246 10.04861238 -16.63632051 10.1212265 -20 9 C-20 7.02 -20 5.04 -20 3 C-19.34 3 -18.68 3 -18 3 C-17.67 2.34 -17.34 1.68 -17 1 C-17 1.66 -17 2.32 -17 3 C-15.3743193 2.69106068 -13.74947252 2.3777305 -12.125 2.0625 C-10.76761719 1.80146484 -10.76761719 1.80146484 -9.3828125 1.53515625 C-2.28026135 -0.06000688 -2.28026135 -0.06000688 0 0 Z " fill="#E9F8FA" transform="translate(91,29)"/>
<path d="M0 0 C1.485 0.99 1.485 0.99 3 2 C4.65549531 2.38499891 6.3222433 2.72793135 8 3 C8.33 2.01 8.66 1.02 9 0 C9.66 0 10.32 0 11 0 C11 0.99 11 1.98 11 3 C12.65 3.33 14.3 3.66 16 4 C15.34 5.65 14.68 7.3 14 9 C13.34 9 12.68 9 12 9 C12 9.99 12 10.98 12 12 C12.99 12.33 13.98 12.66 15 13 C13.68 14.32 12.36 15.64 11 17 C10.67 16.34 10.34 15.68 10 15 C9.34 15 8.68 15 8 15 C9 12 9 12 10 10 C9.67 9.01 9.34 8.02 9 7 C4.545 7.495 4.545 7.495 0 8 C0 5.36 0 2.72 0 0 Z " fill="#DAE0DF" transform="translate(344,239)"/>
<path d="M0 0 C0.33 0.66 0.66 1.32 1 2 C1.99 2.33 2.98 2.66 4 3 C3.67 4.65 3.34 6.3 3 8 C1.68 8.33 0.36 8.66 -1 9 C-1 8.34 -1 7.68 -1 7 C-3.91634129 6.7497843 -3.91634129 6.7497843 -7 7 C-7.99 8.485 -7.99 8.485 -9 10 C-9 8.68 -9 7.36 -9 6 C-10.98 6.33 -12.96 6.66 -15 7 C-14.67 5.35 -14.34 3.7 -14 2 C-9.60384387 1.29661502 -5.4439671 1 -1 1 C-0.67 0.67 -0.34 0.34 0 0 Z " fill="#DDDEDF" transform="translate(357,231)"/>
<path d="M0 0 C1.99965715 0.03703069 4.00056665 0.04760556 6 0 C6 1.65 6 3.3 6 5 C5.360625 4.814375 4.72125 4.62875 4.0625 4.4375 C0.57154799 3.93879257 -2.35100615 4.31523144 -5.81640625 4.84375 C-8.13332365 5.00954015 -9.77037783 4.58341026 -12 4 C-14.00946222 4.27050453 -16.01354224 4.59367909 -18 5 C-18.33 3.68 -18.66 2.36 -19 1 C-16.96044851 0.63384906 -14.91821752 0.28260721 -12.875 -0.0625 C-11.73804687 -0.25972656 -10.60109375 -0.45695313 -9.4296875 -0.66015625 C-6.00246041 -0.9997562 -3.35595259 -0.67873198 0 0 Z " fill="#B2B0B3" transform="translate(83,168)"/>
<path d="M0 0 C3.1634614 1.5817307 4.86147435 4.24242745 7 7 C7 7.66 7 8.32 7 9 C7.99 8.67 8.98 8.34 10 8 C12.51698632 9.07254877 14.66805545 10.54803452 17 12 C17 12.99 17 13.98 17 15 C11.51546521 15.97502841 8.15404342 16.22877553 3 14 C3.4021875 12.6696875 3.4021875 12.6696875 3.8125 11.3125 C4.39309751 7.79457985 4.39309751 7.79457985 1.5625 5.125 C0.716875 4.42375 -0.12875 3.7225 -1 3 C-0.67 2.01 -0.34 1.02 0 0 Z " fill="#EDD0D5" transform="translate(47,338)"/>
<path d="M0 0 C0.99 0.99 1.98 1.98 3 3 C2.34 3 1.68 3 1 3 C0.566875 4.11375 0.566875 4.11375 0.125 5.25 C-0.431875 6.61125 -0.431875 6.61125 -1 8 C-1.433125 9.11375 -1.433125 9.11375 -1.875 10.25 C-3 12 -3 12 -4.9375 12.8125 C-7 13 -7 13 -10 12 C-10 11.34 -10 10.68 -10 10 C-10.66 10 -11.32 10 -12 10 C-12 10.66 -12 11.32 -12 12 C-12.66 12 -13.32 12 -14 12 C-14.33 10.68 -14.66 9.36 -15 8 C-12.65717832 6.73848063 -10.49509909 5.8454385 -7.9375 5.0625 C-5.06537899 4.02364772 -3.95040223 3.24296257 -2 1 C-1.34 0.67 -0.68 0.34 0 0 Z " fill="#E5D9E0" transform="translate(359,205)"/>
<path d="M0 0 C1.19625 0.185625 2.3925 0.37125 3.625 0.5625 C7.28283707 1.0311197 10.37862166 0.81481013 14 0 C14 0.66 14 1.32 14 2 C14.99 1.67 15.98 1.34 17 1 C17.33 1.66 17.66 2.32 18 3 C18.45375 2.505 18.9075 2.01 19.375 1.5 C21 0 21 0 23 0 C23 1.65 23 3.3 23 5 C19.03546121 5.74335102 15.7523018 6.08552193 11.75 5.5 C8.07575133 4.73095217 8.07575133 4.73095217 5 6 C4.0409375 5.7525 4.0409375 5.7525 3.0625 5.5 C0.68227266 4.92297519 -0.69706679 5.25977147 -3 6 C-3.33 4.68 -3.66 3.36 -4 2 C-3.01 2 -2.02 2 -1 2 C-1.33 2.66 -1.66 3.32 -2 4 C-1.34 4 -0.68 4 0 4 C0 2.68 0 1.36 0 0 Z " fill="#AFACAF" transform="translate(37,167)"/>
<path d="M0 0 C0.33 0.66 0.66 1.32 1 2 C1.66 2 2.32 2 3 2 C3.33 2.99 3.66 3.98 4 5 C4.66 5.33 5.32 5.66 6 6 C6.625 8.5625 6.625 8.5625 7 11 C6.01 11.33 5.02 11.66 4 12 C3.7525 11.360625 3.505 10.72125 3.25 10.0625 C2.18437567 7.81258459 2.18437567 7.81258459 -0.125 7.25 C-0.74375 7.1675 -1.3625 7.085 -2 7 C-2.99 8.485 -2.99 8.485 -4 10 C-6.38564077 9.42415568 -8.66682784 8.77772405 -11 8 C-10.25 5.5625 -10.25 5.5625 -9 3 C-7.125 2.25 -7.125 2.25 -5 2 C-2.23124888 1.50210731 -2.23124888 1.50210731 0 0 Z " fill="#F3C1E6" transform="translate(363,91)"/>
<path d="M0 0 C0.66 0.33 1.32 0.66 2 1 C1.34 2.65 0.68 4.3 0 6 C-0.66 6 -1.32 6 -2 6 C-1.67 7.98 -1.34 9.96 -1 12 C-1.66 12 -2.32 12 -3 12 C-3.33 12.66 -3.66 13.32 -4 14 C-3.67 14.33 -3.34 14.66 -3 15 C-3.33 15.99 -3.66 16.98 -4 18 C-7.3 18 -10.6 18 -14 18 C-12.02141271 14.04282542 -10.12154105 12.0454059 -7 9 C-5.9739266 7.68662604 -4.97272675 6.35335895 -4 5 C-2.67130142 3.32963607 -1.33895632 1.66215268 0 0 Z " fill="#EDE0D0" transform="translate(163,382)"/>
<path d="M0 0 C1.65 0 3.3 0 5 0 C4.649375 0.94875 4.29875 1.8975 3.9375 2.875 C2.64973223 5.87060172 2.64973223 5.87060172 4 8 C3.01 8.99 2.02 9.98 1 11 C1.33 11.99 1.66 12.98 2 14 C1.34 14 0.68 14 0 14 C-0.33 14.99 -0.66 15.98 -1 17 C-1.495 17.474375 -1.99 17.94875 -2.5 18.4375 C-4.24185971 20.25193719 -4.57855013 21.55559077 -5 24 C-5.99 23.67 -6.98 23.34 -8 23 C-6.99463106 19.56498947 -5.80781281 16.51348 -4 13.4375 C-2.3725222 10.64027254 -1.1012571 8.02845702 0 5 C-0.66 5 -1.32 5 -2 5 C-1.34 3.35 -0.68 1.7 0 0 Z " fill="#E4F1FA" transform="translate(273,0)"/>
<path d="M0 0 C0.33 0.99 0.66 1.98 1 3 C1.99 2.67 2.98 2.34 4 2 C3.67 3.32 3.34 4.64 3 6 C2.34 6 1.68 6 1 6 C1 7.65 1 9.3 1 11 C0.01 11.495 0.01 11.495 -1 12 C-1 10.68 -1 9.36 -1 8 C-4.3 8 -7.6 8 -11 8 C-11.66 6.68 -12.32 5.36 -13 4 C-11.56445975 3.49440092 -10.1264798 2.9957251 -8.6875 2.5 C-7.88699219 2.2215625 -7.08648437 1.943125 -6.26171875 1.65625 C-4 1 -4 1 -1 1 C-0.67 0.67 -0.34 0.34 0 0 Z " fill="#EFBCDC" transform="translate(336,161)"/>
<path d="M0 0 C0.99 0.33 1.98 0.66 3 1 C3 1.66 3 2.32 3 3 C3.66 3 4.32 3 5 3 C5.33 2.34 5.66 1.68 6 1 C9 2 9 2 11 4 C11.99 4 12.98 4 14 4 C16 6 16 6 17 8 C16.34 8.66 15.68 9.32 15 10 C11.48283697 10 10.62878252 9.17554415 8 7 C7.67 7.66 7.34 8.32 7 9 C5.68 8.67 4.36 8.34 3 8 C2.67 8.66 2.34 9.32 2 10 C1.34 10 0.68 10 0 10 C0 6.7 0 3.4 0 0 Z " fill="#EBBCEE" transform="translate(0,371)"/>
<path d="M0 0 C1.3125 2.3125 1.3125 2.3125 2 5 C1.125 7.3125 1.125 7.3125 0 9 C-2.31 8.34 -4.62 7.68 -7 7 C-7.33 7.66 -7.66 8.32 -8 9 C-9.64295195 10.36244796 -11.30824337 11.69864875 -13 13 C-13 9.45724226 -12.1855185 8.34556864 -10.25 5.4375 C-9.73953125 4.65246094 -9.2290625 3.86742187 -8.703125 3.05859375 C-5.90522301 -0.32327403 -4.24458883 -1.41486294 0 0 Z " fill="#E8D2DD" transform="translate(369,185)"/>
<path d="M0 0 C0.99 0 1.98 0 3 0 C3.99 0.33 4.98 0.66 6 1 C5.375 3.4375 5.375 3.4375 4 6 C0.88090554 6.86272825 -1.7724251 7 -5 7 C-5.33 6.01 -5.66 5.02 -6 4 C-7.65 4.66 -9.3 5.32 -11 6 C-10.34 4.02 -9.68 2.04 -9 0 C-8.01 0 -7.02 0 -6 0 C-3.47064411 -1.26467795 -2.65809097 -0.7249339 0 0 Z " fill="#F6F1CE" transform="translate(180,334)"/>
<path d="M0 0 C0 0.66 0 1.32 0 2 C1.98 2 3.96 2 6 2 C6 1.34 6 0.68 6 0 C6.66 0 7.32 0 8 0 C8 0.66 8 1.32 8 2 C10.31 2.33 12.62 2.66 15 3 C13.35 4.65 11.7 6.3 10 8 C9.01 7.67 8.02 7.34 7 7 C6.67 8.32 6.34 9.64 6 11 C5.01 10.34 4.02 9.68 3 9 C3.66 9 4.32 9 5 9 C5 8.34 5 7.68 5 7 C4.01 7 3.02 7 2 7 C2.33 5.68 2.66 4.36 3 3 C-1.455 3.495 -1.455 3.495 -6 4 C-6.33 3.34 -6.66 2.68 -7 2 C-4.35261084 0.5393715 -3.10551666 0 0 0 Z " fill="#E3DEE1" transform="translate(326,231)"/>
<path d="M0 0 C1.34262065 -0.29369827 2.67696283 -0.6278958 4 -1 C4.99 -1 5.98 -1 7 -1 C7.33 -0.34 7.66 0.32 8 1 C8.99 1.33 9.98 1.66 11 2 C11 2.66 11 3.32 11 4 C12.32 4.66 13.64 5.32 15 6 C15 6.99 15 7.98 15 9 C12 8 12 8 10 6 C9.01 6.495 9.01 6.495 8 7 C7.566875 6.505 7.13375 6.01 6.6875 5.5 C5.00259517 3.66781808 5.00259517 3.66781808 2 4 C1.67 3.67 1.34 3.34 1 3 C0.34 3.66 -0.32 4.32 -1 5 C-2.98 4.34 -4.96 3.68 -7 3 C-7 2.01 -7 1.02 -7 0 C-3.98968256 -0.93423645 -3.13349732 -1.04449911 0 0 Z M8 3 C9 5 9 5 9 5 Z " fill="#F4ECC9" transform="translate(87,302)"/>
<path d="M0 0 C-0.66 1.65 -1.32 3.3 -2 5 C-0.68 5.33 0.64 5.66 2 6 C0.515 8.475 0.515 8.475 -1 11 C-0.01 11 0.98 11 2 11 C2 11.66 2 12.32 2 13 C-1.37462715 12.45276317 -3.08235 11.9451 -6 10 C-6 10.66 -6 11.32 -6 12 C-6.99 11.67 -7.98 11.34 -9 11 C-9 10.01 -9 9.02 -9 8 C-7.35 8 -5.7 8 -4 8 C-4 7.34 -4 6.68 -4 6 C-5.32 6 -6.64 6 -8 6 C-7.25 3.5625 -7.25 3.5625 -6 1 C-3.84657966 0.12517299 -2.30989225 0 0 0 Z " fill="#FEA217" transform="translate(245,163)"/>
<path d="M0 0 C1.216875 0.165 2.43375 0.33 3.6875 0.5 C6.81607836 0.89454541 9.84168804 1.09869725 13 1 C13 1.66 13 2.32 13 3 C13.66 3 14.32 3 15 3 C15.33 2.34 15.66 1.68 16 1 C18.31 1 20.62 1 23 1 C23 2.32 23 3.64 23 5 C22.01 5 21.02 5 20 5 C20 4.34 20 3.68 20 3 C19.34 3 18.68 3 18 3 C18 3.66 18 4.32 18 5 C12.06 5 6.12 5 0 5 C0 3.35 0 1.7 0 0 Z " fill="#A09CA0" transform="translate(314,228)"/>
<path d="M0 0 C0.33 0.66 0.66 1.32 1 2 C6.28 2 11.56 2 17 2 C17 3.32 17 4.64 17 6 C10.33333333 6 3.66666667 6 -3 6 C-3 4.68 -3 3.36 -3 2 C-2.01 1.34 -1.02 0.68 0 0 Z " fill="#A39FA3" transform="translate(37,236)"/>
<path d="M0 0 C0.66 0 1.32 0 2 0 C2 0.66 2 1.32 2 2 C5.96 2 9.92 2 14 2 C13.67 3.65 13.34 5.3 13 7 C12.01 7.495 12.01 7.495 11 8 C10.67 7.01 10.34 6.02 10 5 C10 5.99 10 6.98 10 8 C8.20767663 7.69128878 6.41615679 7.37790936 4.625 7.0625 C3.62726563 6.88847656 2.62953125 6.71445313 1.6015625 6.53515625 C-1 6 -1 6 -3 5 C-3 4.34 -3 3.68 -3 3 C-2.01 3 -1.02 3 0 3 C0 2.01 0 1.02 0 0 Z " fill="#A97482" transform="translate(353,146)"/>
<path d="M0 0 C2.97 0.99 5.94 1.98 9 3 C9 3.66 9 4.32 9 5 C10.65 5.33 12.3 5.66 14 6 C13 7.5 13 7.5 11 9 C5.89740699 9.82299887 5.89740699 9.82299887 3 9 C0.8402849 6.92295342 -0.60069693 4.63714809 -2 2 C-1.34 1.34 -0.68 0.68 0 0 Z " fill="#F6F1DB" transform="translate(98,269)"/>
<path d="M0 0 C2.56695636 0.39491636 4.67123994 0.83561997 7 2 C7 2.66 7 3.32 7 4 C7.66 4.33 8.32 4.66 9 5 C9.33 5.66 9.66 6.32 10 7 C11.84971696 8.05021103 11.84971696 8.05021103 14 9 C15.33333333 9.66666667 16.66666667 10.33333333 18 11 C18 11.99 18 12.98 18 14 C14.43009831 13.68500867 12.45920452 12.73954766 9.8125 10.4375 C7.36839843 7.78168982 7.36839843 7.78168982 5 8 C5 7.34 5 6.68 5 6 C4.38125 5.731875 3.7625 5.46375 3.125 5.1875 C1 4 1 4 -1 1 C-0.67 0.67 -0.34 0.34 0 0 Z " fill="#ECC2E0" transform="translate(18,349)"/>
<path d="M0 0 C2.5 1.375 2.5 1.375 5 3 C5 3.66 5 4.32 5 5 C5.86625 5.185625 5.86625 5.185625 6.75 5.375 C9.13375602 6.03715445 10.93571186 6.62380791 13 8 C14.25 10.625 14.25 10.625 15 13 C13.68 13.33 12.36 13.66 11 14 C10.34 12.68 9.68 11.36 9 10 C8.01 10 7.02 10 6 10 C5.67 9.01 5.34 8.02 5 7 C4.01 7.33 3.02 7.66 2 8 C-0.1875 6.5625 -0.1875 6.5625 -2 5 C-1.34 3.35 -0.68 1.7 0 0 Z " fill="#F5EDC7" transform="translate(115,316)"/>
<path d="M0 0 C0.99 0.33 1.98 0.66 3 1 C3.639375 1.144375 4.27875 1.28875 4.9375 1.4375 C7.28834724 2.07864016 8.97002409 2.62485503 11 4 C12.75 7.125 12.75 7.125 14 10 C11.525 11.485 11.525 11.485 9 13 C5.52337488 10.50396146 3.81321213 9.20159602 3 5 C2.01979625 3.9805881 1.02196992 2.97753644 0 2 C0 1.34 0 0.68 0 0 Z " fill="#F9C9E5" transform="translate(294,171)"/>
<path d="M0 0 C0.66 0.66 1.32 1.32 2 2 C-0.13206212 6.67239145 -2.02502456 10.59287819 -6 14 C-6.99 13.67 -7.98 13.34 -9 13 C-9 11.35 -9 9.7 -9 8 C-8.34 8 -7.68 8 -7 8 C-6.731875 7.401875 -6.46375 6.80375 -6.1875 6.1875 C-4.59850549 3.26040485 -2.98104381 1.4905219 0 0 Z " fill="#E9F7FB" transform="translate(237,45)"/>
<path d="M0 0 C0.33 1.32 0.66 2.64 1 4 C1.33 3.34 1.66 2.68 2 2 C5.3 2 8.6 2 12 2 C12 1.34 12 0.68 12 0 C12.66 0 13.32 0 14 0 C14 0.66 14 1.32 14 2 C14.99 2 15.98 2 17 2 C17 3.32 17 4.64 17 6 C11.64650569 6.84528858 7.3921546 6.97058783 2 6 C1.34 6 0.68 6 0 6 C0 4.02 0 2.04 0 0 Z " fill="#9A989B" transform="translate(314,236)"/>
<path d="M0 0 C0.61875 0.33 1.2375 0.66 1.875 1 C3.91018344 2.14193235 3.91018344 2.14193235 6 2 C5.63287028 4.71675995 5.27255401 6.61063713 3.6875 8.875 C2 10 2 10 -0.1875 9.6875 C-0.785625 9.460625 -1.38375 9.23375 -2 9 C-2.33 9.66 -2.66 10.32 -3 11 C-3.66 11 -4.32 11 -5 11 C-5.33 10.01 -5.66 9.02 -6 8 C-5.34 8 -4.68 8 -4 8 C-3.71125 7.05125 -3.4225 6.1025 -3.125 5.125 C-2 2 -2 2 0 0 Z " fill="#F0F4F8" transform="translate(229,79)"/>
<path d="M0 0 C2.97 0 5.94 0 9 0 C9 1.98 9 3.96 9 6 C6.69 6 4.38 6 2 6 C2 10.95 2 15.9 2 21 C1.67 21 1.34 21 1 21 C0.67 14.07 0.34 7.14 0 0 Z " fill="#FCD6D9" transform="translate(150,161)"/>
<path d="M0 0 C0.33 3.3 0.66 6.6 1 10 C-0.98 10.33 -2.96 10.66 -5 11 C-6.25 8.3125 -6.25 8.3125 -7 5 C-4.06521739 0 -4.06521739 0 0 0 Z " fill="#E6F8FC" transform="translate(240,25)"/>
<path d="M0 0 C1.875 0.5625 1.875 0.5625 4 2 C5.7929152 6.84087105 6 10.88390546 6 16 C6.33 16.66 6.66 17.32 7 18 C6.01 18.66 5.02 19.32 4 20 C3.01 19.67 2.02 19.34 1 19 C1.2784375 17.8553125 1.2784375 17.8553125 1.5625 16.6875 C2.22819173 13.91032625 2.22819173 13.91032625 1 11 C1.20625 10.360625 1.4125 9.72125 1.625 9.0625 C1.74875 8.381875 1.8725 7.70125 2 7 C1.01971384 5.65210653 0.02028865 4.31787285 -1 3 C-0.67 2.01 -0.34 1.02 0 0 Z " fill="#EDD7D2" transform="translate(104,380)"/>
<path d="M0 0 C0.99 0 1.98 0 3 0 C2.34 1.32 1.68 2.64 1 4 C1.33 4.33 1.66 4.66 2 5 C2.36162029 6.32594105 2.69728039 7.65938457 3 9 C1.01432292 9.22786458 -0.97135417 9.45572917 -2.95703125 9.68359375 C-5.19396393 9.97170735 -5.19396393 9.97170735 -8 11 C-8 9.02 -8 7.04 -8 5 C-7.236875 4.731875 -6.47375 4.46375 -5.6875 4.1875 C-2.99592628 3.19146475 -2.99592628 3.19146475 -1.375 1.375 C-0.694375 0.694375 -0.694375 0.694375 0 0 Z " fill="#D1D8D6" transform="translate(352,249)"/>
<path d="M0 0 C0.99 0.495 0.99 0.495 2 1 C2.8353125 1.4021875 2.8353125 1.4021875 3.6875 1.8125 C12.16666667 6.16666667 12.16666667 6.16666667 15 9 C14.01 9.99 13.02 10.98 12 12 C11.01 11.01 10.02 10.02 9 9 C8.01 9.495 8.01 9.495 7 10 C6.01 9.01 5.02 8.02 4 7 C2.02 7.99 2.02 7.99 0 9 C0 6.03 0 3.06 0 0 Z " fill="#EBBEDE" transform="translate(0,338)"/>
<path d="M0 0 C0.87011719 0.10828125 0.87011719 0.10828125 1.7578125 0.21875 C6.20087574 0.7466387 10.51631578 1.11496626 15 1 C15 2.32 15 3.64 15 5 C14.01 5.33 13.02 5.66 12 6 C12 5.01 12 4.02 12 3 C11.67 3.66 11.34 4.32 11 5 C7.37 5 3.74 5 0 5 C0 3.35 0 1.7 0 0 Z " fill="#AC8B9D" transform="translate(304,159)"/>
<path d="M0 0 C0.66 0 1.32 0 2 0 C2 0.66 2 1.32 2 2 C5.465 1.505 5.465 1.505 9 1 C9 2.65 9 4.3 9 6 C4.05 6 -0.9 6 -6 6 C-6 4.68 -6 3.36 -6 2 C-4.35 2 -2.7 2 -1 2 C-0.67 1.34 -0.34 0.68 0 0 Z " fill="#AA8A9B" transform="translate(358,158)"/>
<path d="M0 0 C1 2 1 2 0.1875 5.4375 C-1 9 -1 9 -3 12 C-3.66 12 -4.32 12 -5 12 C-5.061875 12.556875 -5.12375 13.11375 -5.1875 13.6875 C-6.35672428 17.01529218 -8.35322804 18.73133832 -11 21 C-11.99 21 -12.98 21 -14 21 C-9.52975671 13.85304569 -4.89706361 6.86184293 0 0 Z " fill="#F5D9F0" transform="translate(274,97)"/>
<path d="M0 0 C3.40312738 1.05875074 6.01353231 2.00902154 9 4 C11.01508358 4.73323796 11.01508358 4.73323796 13 5 C13.66 4.67 14.32 4.34 15 4 C15.66 4.66 16.32 5.32 17 6 C16.34 6 15.68 6 15 6 C14.34 7.32 13.68 8.64 13 10 C12.34 9.34 11.68 8.68 11 8 C10.360625 8.185625 9.72125 8.37125 9.0625 8.5625 C8.381875 8.706875 7.70125 8.85125 7 9 C5.97895449 8.02149805 4.9793879 7.02019573 4 6 C2.68 6 1.36 6 0 6 C0 4.02 0 2.04 0 0 Z " fill="#EBBDE5" transform="translate(0,355)"/>
<path d="M0 0 C2.31 0 4.62 0 7 0 C7.33 1.65 7.66 3.3 8 5 C6.35 6.32 4.7 7.64 3 9 C1.35 7.35 -0.3 5.7 -2 4 C-1.34 2.68 -0.68 1.36 0 0 Z " fill="#E9F3FE" transform="translate(184,230)"/>
<path d="M0 0 C1.216875 0.165 2.43375 0.33 3.6875 0.5 C6.81607836 0.89454541 9.84168804 1.09869725 13 1 C13.33 1.66 13.66 2.32 14 3 C13.01 4.485 13.01 4.485 12 6 C11.34 5.34 10.68 4.68 10 4 C8.824375 4.5259375 8.824375 4.5259375 7.625 5.0625 C6.325625 5.5265625 6.325625 5.5265625 5 6 C4.34 5.67 3.68 5.34 3 5 C3 4.34 3 3.68 3 3 C2.34 3 1.68 3 1 3 C0.67 3.66 0.34 4.32 0 5 C-1.65 5 -3.3 5 -5 5 C-4.67 4.01 -4.34 3.02 -4 2 C-3.01 2 -2.02 2 -1 2 C-0.67 1.34 -0.34 0.68 0 0 Z " fill="#A38494" transform="translate(322,167)"/>
<path d="M0 0 C0 0.99 0 1.98 0 3 C-0.66 3 -1.32 3 -2 3 C-2 2.34 -2 1.68 -2 1 C-2.53109375 1.32742187 -3.0621875 1.65484375 -3.609375 1.9921875 C-6.62694157 3.2642989 -8.98693023 3.1959363 -12.25 3.125 C-13.32765625 3.10695312 -14.4053125 3.08890625 -15.515625 3.0703125 C-16.33546875 3.04710937 -17.1553125 3.02390625 -18 3 C-17.67 1.68 -17.34 0.36 -17 -1 C-11.28684797 -2.60682401 -5.64216972 -1.64563284 0 0 Z " fill="#AAA8AB" transform="translate(102,161)"/>
<path d="M0 0 C0.66 0 1.32 0 2 0 C2.25 2.8125 2.25 2.8125 2 6 C-0.59505748 8.78728396 -3.22287334 9.82431969 -7 10 C-9.47276139 9.19120096 -11.65210122 8.15093077 -14 7 C-13.01 5.68 -12.02 4.36 -11 3 C-8 4 -8 4 -6 6 C-4.02 5.34 -2.04 4.68 0 4 C0 2.68 0 1.36 0 0 Z " fill="#D5F1E4" transform="translate(398,355)"/>
<path d="M0 0 C0.87324262 2.44507934 1.10151327 3.67700322 0.3125 6.1875 C-1 8 -1 8 -2.875 9 C-5 9 -5 9 -7.25 7.0625 C-7.8275 6.381875 -8.405 5.70125 -9 5 C-9.33 5.66 -9.66 6.32 -10 7 C-10.99 7.495 -10.99 7.495 -12 8 C-12 6.02 -12 4.04 -12 2 C-11.01 1.67 -10.02 1.34 -9 1 C-5.8125 2.9375 -5.8125 2.9375 -3 5 C-2.690625 4.360625 -2.38125 3.72125 -2.0625 3.0625 C-1 1 -1 1 0 0 Z " fill="#EED1D6" transform="translate(31,307)"/>
<path d="M0 0 C0.94786377 0.01571045 1.89572754 0.0314209 2.87231445 0.04760742 C3.9003418 0.05727539 4.92836914 0.06694336 5.98754883 0.0769043 C7.59533203 0.11460937 7.59533203 0.11460937 9.2355957 0.15307617 C10.31905273 0.16661133 11.40250977 0.18014648 12.51879883 0.1940918 C15.19572975 0.22946974 17.87166408 0.27883429 20.5480957 0.34057617 C20.8780957 1.33057617 21.2080957 2.32057617 21.5480957 3.34057617 C12.6380957 3.34057617 3.7280957 3.34057617 -5.4519043 3.34057617 C-2.4519043 0.34057617 -2.4519043 0.34057617 0 0 Z " fill="#FEF9FD" transform="translate(215.451904296875,236.659423828125)"/>
<path d="M0 0 C2.33303944 0.03703237 4.66715242 0.04760913 7 0 C7.33 1.32 7.66 2.64 8 4 C7.34 4 6.68 4 6 4 C5.67 3.34 5.34 2.68 5 2 C4.071875 2.495 4.071875 2.495 3.125 3 C-1.26211512 4.40387684 -5.43151427 4.15967523 -10 4 C-9.625 2.0625 -9.625 2.0625 -9 0 C-5.94536813 -1.52731594 -3.33661472 -0.49228742 0 0 Z " fill="#B28FA1" transform="translate(331,160)"/>
<path d="M0 0 C3 1 3 1 5 3 C6.98821313 3.39764263 8.98944339 3.73775349 11 4 C11.33 4.99 11.66 5.98 12 7 C10.68 8.32 9.36 9.64 8 11 C4.49810101 9.10708163 2.00875939 7.48889789 0 4 C0 2.68 0 1.36 0 0 Z M6 5 C7 7 7 7 7 7 Z " fill="#D1EFE2" transform="translate(371,342)"/>
<path d="M0 0 C1.98 0.66 3.96 1.32 6 2 C6.33 3.65 6.66 5.3 7 7 C2.545 7.495 2.545 7.495 -2 8 C-2.66 6.68 -3.32 5.36 -4 4 C-2.68 2.68 -1.36 1.36 0 0 Z " fill="#F4F7EC" transform="translate(178,120)"/>
<path d="M0 0 C1.32 0 2.64 0 4 0 C3.125 4.75 3.125 4.75 2 7 C1.34 7 0.68 7 0 7 C-0.93423645 3.98968256 -1.04449911 3.13349732 0 0 Z M-3 5 C-1.68 6.32 -0.36 7.64 1 9 C-0.65 10.65 -2.3 12.3 -4 14 C-4.99 13.67 -5.98 13.34 -7 13 C-4.125 6.125 -4.125 6.125 -3 5 Z " fill="#F7F7E5" transform="translate(237,317)"/>
<path d="M0 0 C1.32 0.66 2.64 1.32 4 2 C4 3.32 4 4.64 4 6 C-0.62 6 -5.24 6 -10 6 C-10 4.68 -10 3.36 -10 2 C-8.3603125 2.061875 -8.3603125 2.061875 -6.6875 2.125 C-2.91107771 2.32074666 -2.91107771 2.32074666 0 0 Z " fill="#A3A1A4" transform="translate(58,158)"/>
<path d="M0 0 C0.66 0 1.32 0 2 0 C2 0.66 2 1.32 2 2 C3.32 2 4.64 2 6 2 C6.99 2 7.98 2 9 2 C9 3.32 9 4.64 9 6 C7.02 6.99 7.02 6.99 5 8 C5 8.99 5 9.98 5 11 C4.34 11 3.68 11 3 11 C2.87625 10.360625 2.7525 9.72125 2.625 9.0625 C2.41875 8.381875 2.2125 7.70125 2 7 C1.34 6.67 0.68 6.34 0 6 C0 4.02 0 2.04 0 0 Z " fill="#BEBFC0" transform="translate(358,227)"/>
<path d="M0 0 C0.66 0.33 1.32 0.66 2 1 C2 1.66 2 2.32 2 3 C2.66 3.61875 3.32 4.2375 4 4.875 C6 7 6 7 6 11 C6.66 11.66 7.32 12.32 8 13 C7.67 13.66 7.34 14.32 7 15 C6.01 15 5.02 15 4 15 C3.67 15.66 3.34 16.32 3 17 C2.67 16.34 2.34 15.68 2 15 C2.33 14.01 2.66 13.02 3 12 C1.54952831 7.15480773 1.54952831 7.15480773 -2 4 C-2 3.34 -2 2.68 -2 2 C-1.34 2 -0.68 2 0 2 C0 1.34 0 0.68 0 0 Z " fill="#F2E1F9" transform="translate(10,231)"/>
<path d="M0 0 C5.625 -0.25 5.625 -0.25 9 2 C9.99 2 10.98 2 12 2 C12.33 2.99 12.66 3.98 13 5 C8.71 5 4.42 5 0 5 C0 3.35 0 1.7 0 0 Z " fill="#A8A6A9" transform="translate(34,228)"/>
<path d="M0 0 C0.99 0.33 1.98 0.66 3 1 C3 4 3 4 0.625 6.625 C-2 9 -2 9 -4 10 C-4.65555119 12.52733235 -4.65555119 12.52733235 -5 15 C-6.32 15.33 -7.64 15.66 -9 16 C-7.07914303 9.64639618 -4.21771163 5.09034163 0 0 Z " fill="#F2E1F4" transform="translate(267,83)"/>
<path d="M0 0 C1.33333333 0.66666667 2.66666667 1.33333333 4 2 C4.70125 2.28875 5.4025 2.5775 6.125 2.875 C8.43561328 4.26136797 8.84846934 5.62016998 10 8 C10.99 8.33 11.98 8.66 13 9 C13.33 9.99 13.66 10.98 14 12 C11.75 12.75 11.75 12.75 9 13 C6.56167372 11.17125529 5.22655065 9.93452144 4.5 6.9375 C3.80462325 4.24291509 2.20953242 3.56805527 0 2 C0 1.34 0 0.68 0 0 Z " fill="#EBC5E5" transform="translate(36,363)"/>
<path d="M0 0 C3.96 0.33 7.92 0.66 12 1 C12 2.32 12 3.64 12 5 C8.04 5 4.08 5 0 5 C0 3.35 0 1.7 0 0 Z " fill="#A09DA0" transform="translate(344,228)"/>
<path d="M0 0 C2.18517571 0.30215964 2.18517571 0.30215964 4.97265625 -0.84375 C4.97265625 0.80625 4.97265625 2.45625 4.97265625 4.15625 C0.63932292 4.15625 -3.69401042 4.15625 -8.02734375 4.15625 C-8.02734375 2.83625 -8.02734375 1.51625 -8.02734375 0.15625 C-5.22236667 -1.24623854 -2.99799115 -0.49312752 0 0 Z " fill="#A08D98" transform="translate(362.02734375,176.84375)"/>
<path d="M0 0 C2.97 0.99 5.94 1.98 9 3 C9 3.66 9 4.32 9 5 C9.78375 5.28875 10.5675 5.5775 11.375 5.875 C14 7 14 7 16 9 C15.34 9.66 14.68 10.32 14 11 C11.47534987 9.48520992 8.95127955 7.97029241 6.4375 6.4375 C4.32613805 5.19233783 2.20733252 4.06278973 0 3 C0 2.01 0 1.02 0 0 Z " fill="#F5EDC7" transform="translate(131,328)"/>
<path d="M0 0 C2.80848017 1.40424009 2.92414585 3.10864198 4 6 C5.16857941 8.55626747 5.98929269 9.98929269 8 12 C7.67 12.99 7.34 13.98 7 15 C2.21907043 11.25840295 -1.15994016 8.30044878 -2 2 C-1.34 1.34 -0.68 0.68 0 0 Z " fill="#EFD1D2" transform="translate(31,318)"/>
<path d="M0 0 C0.66 0 1.32 0 2 0 C2 0.66 2 1.32 2 2 C3.98 2 5.96 2 8 2 C7.67 3.32 7.34 4.64 7 6 C3.37 6 -0.26 6 -4 6 C-4.33 4.68 -4.66 3.36 -5 2 C-3.68 2 -2.36 2 -1 2 C-0.67 1.34 -0.34 0.68 0 0 Z " fill="#A9A6A9" transform="translate(61,236)"/>
<path d="M0 0 C1.65 0 3.3 0 5 0 C5 1.98 5 3.96 5 6 C1.7 6 -1.6 6 -5 6 C-5.33 4.68 -5.66 3.36 -6 2 C-4.35 2 -2.7 2 -1 2 C-0.67 1.34 -0.34 0.68 0 0 Z " fill="#A9A7A9" transform="translate(86,236)"/>
<path d="M0 0 C0.33 0.66 0.66 1.32 1 2 C3.97 2 6.94 2 10 2 C10.33 1.34 10.66 0.68 11 0 C11 0.66 11 1.32 11 2 C12.32 2 13.64 2 15 2 C14.34 3.65 13.68 5.3 13 7 C12.43796875 6.67257813 11.8759375 6.34515625 11.296875 6.0078125 C8.73140036 4.88214506 7.03157723 4.7931889 4.25 4.875 C3.05117188 4.90207031 3.05117188 4.90207031 1.828125 4.9296875 C0.92320313 4.96449219 0.92320313 4.96449219 0 5 C0 3.35 0 1.7 0 0 Z " fill="#A09EA1" transform="translate(45,175)"/>
<path d="M0 0 C0.99 0 1.98 0 3 0 C3.33 0.66 3.66 1.32 4 2 C4.556875 1.835 5.11375 1.67 5.6875 1.5 C8.18691249 0.95958649 10.45045662 0.92917935 13 1 C12.67 2.32 12.34 3.64 12 5 C8.04 5 4.08 5 0 5 C0 3.35 0 1.7 0 0 Z " fill="#A5A3A6" transform="translate(34,159)"/>
<path d="M0 0 C0.33 0.66 0.66 1.32 1 2 C3.64 1.34 6.28 0.68 9 0 C9.66 1.98 10.32 3.96 11 6 C7.37 6 3.74 6 0 6 C0 4.02 0 2.04 0 0 Z " fill="#A5A4A6" transform="translate(341,236)"/>
<path d="M0 0 C0.66 0 1.32 0 2 0 C2 0.66 2 1.32 2 2 C3.32 2.33 4.64 2.66 6 3 C6.33 4.32 6.66 5.64 7 7 C4.69 7 2.38 7 0 7 C0 5.68 0 4.36 0 3 C-0.66 3 -1.32 3 -2 3 C-2.33 3.99 -2.66 4.98 -3 6 C-3 4.68 -3 3.36 -3 2 C-2.01 2 -1.02 2 0 2 C0 1.34 0 0.68 0 0 Z " fill="#A2727D" transform="translate(347,215)"/>
<path d="M0 0 C0.66 0 1.32 0 2 0 C2.33 1.32 2.66 2.64 3 4 C3.66 4 4.32 4 5 4 C5.33 4.99 5.66 5.98 6 7 C7.49985609 8.66710346 7.49985609 8.66710346 9 10 C8.34 11.65 7.68 13.3 7 15 C4.41578816 12.75285927 3.75083692 11.28491153 3 8 C2.484375 6.96875 1.96875 5.9375 1.4375 4.875 C0 2 0 2 0 0 Z " fill="#D2EEE3" transform="translate(353,319)"/>
<path d="M0 0 C4.62 0 9.24 0 14 0 C10 4 10 4 7.421875 4.390625 C6.54015625 4.34421875 5.6584375 4.2978125 4.75 4.25 C3.85796875 4.21390625 2.9659375 4.1778125 2.046875 4.140625 C1.37140625 4.09421875 0.6959375 4.0478125 0 4 C0 2.68 0 1.36 0 0 Z " fill="#A2A0A3" transform="translate(320,246)"/>
<path d="M0 0 C0.33 0.66 0.66 1.32 1 2 C0.01 3.485 0.01 3.485 -1 5 C-0.67 5.66 -0.34 6.32 0 7 C-0.66 7 -1.32 7 -2 7 C-2.68707555 9.49064888 -3 11.37886292 -3 14 C-3.99 13.67 -4.98 13.34 -6 13 C-6.33 12.01 -6.66 11.02 -7 10 C-5.8203125 7.7734375 -5.8203125 7.7734375 -4.125 5.375 C-3.57070313 4.57835937 -3.01640625 3.78171875 -2.4453125 2.9609375 C-1 1 -1 1 0 0 Z " fill="#F4EFF5" transform="translate(60,200)"/>
<path d="M0 0 C1.65 0.33 3.3 0.66 5 1 C4.67 3.97 4.34 6.94 4 10 C3.34 9.67 2.68 9.34 2 9 C2.33 8.34 2.66 7.68 3 7 C2.01 7.33 1.02 7.66 0 8 C0 7.01 0 6.02 0 5 C-0.66 5 -1.32 5 -2 5 C-1.34 3.35 -0.68 1.7 0 0 Z " fill="#F3F3F8" transform="translate(59,153)"/>
<path d="M0 0 C0.886875 0.165 1.77375 0.33 2.6875 0.5 C5.53596892 0.92995757 8.13004802 1.08441035 11 1 C11.33 2.32 11.66 3.64 12 5 C8.04 5 4.08 5 0 5 C0 3.35 0 1.7 0 0 Z " fill="#A5A4A6" transform="translate(64,159)"/>
<path d="M0 0 C0 1.65 0 3.3 0 5 C-3.63 5 -7.26 5 -11 5 C-10.67 3.68 -10.34 2.36 -10 1 C-8.88625 1.020625 -7.7725 1.04125 -6.625 1.0625 C-3.92916508 1.01602009 -2.35646307 0 0 0 Z " fill="#969597" transform="translate(367,245)"/>
<path d="M0 0 C1.485 0.99 1.485 0.99 3 2 C5.06381575 1.67156616 5.06381575 1.67156616 7 1 C7.66 1 8.32 1 9 1 C9 2.65 9 4.3 9 6 C2.25 6.125 2.25 6.125 0 5 C0 3.35 0 1.7 0 0 Z " fill="#AF8C9E" transform="translate(358,167)"/>
<path d="M0 0 C2.97 0.33 5.94 0.66 9 1 C9 1.99 9 2.98 9 4 C7.66666667 4.33333333 6.33333333 4.66666667 5 5 C3.9171875 5.309375 3.9171875 5.309375 2.8125 5.625 C2.214375 5.74875 1.61625 5.8725 1 6 C0 5 0 5 -0.0625 2.4375 C-0.041875 1.633125 -0.02125 0.82875 0 0 Z " fill="#9C7E8E" transform="translate(341,159)"/>
<path d="M0 0 C0.66 0.66 1.32 1.32 2 2 C1.67 2.66 1.34 3.32 1 4 C1.66 4 2.32 4 3 4 C3 3.01 3 2.02 3 1 C4.98 1 6.96 1 9 1 C8.625 3.4375 8.625 3.4375 8 6 C7.01 6.495 7.01 6.495 6 7 C6 5.35 6 3.7 6 2 C5.34 2 4.68 2 4 2 C4 2.99 4 3.98 4 5 C2.68 5 1.36 5 0 5 C0 4.01 0 3.02 0 2 C-0.33 2.99 -0.66 3.98 -1 5 C-1.99 4.67 -2.98 4.34 -4 4 C-4 3.01 -4 2.02 -4 1 C-2.125 0.375 -2.125 0.375 0 0 Z " fill="#91555D" transform="translate(60,147)"/>
<path d="M0 0 C1.98 0 3.96 0 6 0 C4.98379995 3.04860014 4.22608429 3.86666922 2 6 C1.67 6.66 1.34 7.32 1 8 C-0.32 7.67 -1.64 7.34 -3 7 C-2.01 4.69 -1.02 2.38 0 0 Z " fill="#E4EAF7" transform="translate(297,0)"/>
<path d="M0 0 C2 2 4 4 6 6 C5.34 7.65 4.68 9.3 4 11 C-0.90322581 6.70967742 -0.90322581 6.70967742 -1.375 3.25 C-1 1 -1 1 0 0 Z M1 5 C1 5.66 1 6.32 1 7 C1.66 6.67 2.32 6.34 3 6 C2.34 5.67 1.68 5.34 1 5 Z " fill="#F5EDC7" transform="translate(108,309)"/>
<path d="M0 0 C0.99 0.33 1.98 0.66 3 1 C2.67 1.66 2.34 2.32 2 3 C1.93049459 4.54023996 1.91547643 6.08334988 1.9375 7.625 C1.94652344 8.44226563 1.95554688 9.25953125 1.96484375 10.1015625 C1.97644531 10.72804687 1.98804688 11.35453125 2 12 C1.01 12.33 0.02 12.66 -1 13 C-1.2236337 11.58566794 -1.42826476 10.16832382 -1.625 8.75 C-1.74101562 7.96109375 -1.85703125 7.1721875 -1.9765625 6.359375 C-2.00319395 3.67847541 -1.36592084 2.27305911 0 0 Z " fill="#D8EBFE" transform="translate(167,222)"/>
<path d="M0 0 C0.33 0.66 0.66 1.32 1 2 C4.96 2 8.92 2 13 2 C12.67 3.65 12.34 5.3 12 7 C11.01 7.495 11.01 7.495 10 8 C9.67 7.01 9.34 6.02 9 5 C8.67 5.66 8.34 6.32 8 7 C6.68 6.34 5.36 5.68 4 5 C4 4.34 4 3.68 4 3 C2.68 3 1.36 3 0 3 C0 2.01 0 1.02 0 0 Z " fill="#8E525A" transform="translate(354,146)"/>
<path d="M0 0 C0.6875 1.8125 0.6875 1.8125 1 4 C0 5.8125 0 5.8125 -2 7 C-5.6875 6.6875 -5.6875 6.6875 -9 6 C-9.33 5.01 -9.66 4.02 -10 3 C-6.7 3 -3.4 3 0 3 C0 2.01 0 1.02 0 0 Z " fill="#DDE6E4" transform="translate(350,247)"/>
<path d="M0 0 C2.55028983 1.27514492 2.93081711 2.40341297 4 5 C4 5.99 4 6.98 4 8 C3.01 8.33 2.02 8.66 1 9 C0.67 8.01 0.34 7.02 0 6 C-0.66 6.66 -1.32 7.32 -2 8 C-2.6875 5.6875 -2.6875 5.6875 -3 3 C-1.5625 1.1875 -1.5625 1.1875 0 0 Z " fill="#F9C9E5" transform="translate(309,180)"/>
<path d="M0 0 C0.99 0 1.98 0 3 0 C2.01 3.96 1.02 7.92 0 12 C-0.99 10.68 -1.98 9.36 -3 8 C-2.63671875 5.859375 -2.63671875 5.859375 -1.6875 3.75 C-1.38199219 3.04359375 -1.07648438 2.3371875 -0.76171875 1.609375 C-0.38466797 0.81273438 -0.38466797 0.81273438 0 0 Z " fill="#F5CCEC" transform="translate(301,92)"/>
<path d="M0 0 C0.66 0 1.32 0 2 0 C2 0.66 2 1.32 2 2 C2.61875 1.79375 3.2375 1.5875 3.875 1.375 C4.57625 1.25125 5.2775 1.1275 6 1 C6.66 1.66 7.32 2.32 8 3 C7.34 4.32 6.68 5.64 6 7 C5.34 7 4.68 7 4 7 C3.34 6.34 2.68 5.68 2 5 C1.01 5 0.02 5 -1 5 C-0.67 3.35 -0.34 1.7 0 0 Z " fill="#F6F1DB" transform="translate(201,338)"/>
<path d="M0 0 C0.9075 0.165 1.815 0.33 2.75 0.5 C5.91372977 0.98672766 7.94173339 0.80954116 11 0 C10.67 1.32 10.34 2.64 10 4 C6.7 4 3.4 4 0 4 C-0.33 3.01 -0.66 2.02 -1 1 C-0.67 0.67 -0.34 0.34 0 0 Z " fill="#99989A" transform="translate(356,254)"/>
<path d="M0 0 C2.64 0 5.28 0 8 0 C8 1.65 8 3.3 8 5 C6.68 5.33 5.36 5.66 4 6 C4 5.34 4 4.68 4 4 C2.68 4 1.36 4 0 4 C0 2.68 0 1.36 0 0 Z " fill="#615FA1" transform="translate(50,217)"/>
<path d="M0 0 C0.33 0.66 0.66 1.32 1 2 C2.98 2 4.96 2 7 2 C7 3.32 7 4.64 7 6 C6.2575 5.814375 5.515 5.62875 4.75 5.4375 C2.05009037 5.00796892 0.55368923 5.14877026 -2 6 C-2 4.35 -2 2.7 -2 1 C-1.34 0.67 -0.68 0.34 0 0 Z " fill="#A9A7AA" transform="translate(36,175)"/>
<path d="M0 0 C2.4294516 3.6441774 2.16179575 5.71241272 2 10 C1.01 10 0.02 10 -1 10 C-1.66 8.68 -2.32 7.36 -3 6 C-3.99 6 -4.98 6 -6 6 C-5.67 5.34 -5.34 4.68 -5 4 C-3.68 4 -2.36 4 -1 4 C-0.67 2.68 -0.34 1.36 0 0 Z " fill="#FBEDD8" transform="translate(255,172)"/>
<path d="M0 0 C0.99 0.99 1.98 1.98 3 3 C2.67 3.66 2.34 4.32 2 5 C1.34 5 0.68 5 0 5 C-0.33 6.32 -0.66 7.64 -1 9 C-1.99 8.34 -2.98 7.68 -4 7 C-3.39816251 4.97954558 -2.72693904 2.97888961 -2 1 C-1.34 0.67 -0.68 0.34 0 0 Z " fill="#EECDE9" transform="translate(8,282)"/>
<path d="M0 0 C0.66 0 1.32 0 2 0 C2.33 0.66 2.66 1.32 3 2 C3.99 2 4.98 2 6 2 C6 3.65 6 5.3 6 7 C4.02 7 2.04 7 0 7 C-1.04449911 3.86650268 -0.93423645 3.01031744 0 0 Z " fill="#A2747E" transform="translate(361,215)"/>
<path d="M0 0 C1.32 0.33 2.64 0.66 4 1 C4.33 2.98 4.66 4.96 5 7 C0.25 7.125 0.25 7.125 -2 6 C-1.34 4.02 -0.68 2.04 0 0 Z " fill="#F5EBF1" transform="translate(236,116)"/>
<path d="M0 0 C0.66 0.66 1.32 1.32 2 2 C1.5985369 6.54991515 -0.35467581 10.77938576 -2 15 C-2.66 15 -3.32 15 -4 15 C-2.73076923 2.73076923 -2.73076923 2.73076923 0 0 Z " fill="#F5C5EA" transform="translate(312,97)"/>
<path d="M0 0 C0.33 1.32 0.66 2.64 1 4 C-2.3 4.33 -5.6 4.66 -9 5 C-8.67 3.68 -8.34 2.36 -8 1 C-5.07175348 0.02391783 -3.04386724 -0.08226668 0 0 Z " fill="#999699" transform="translate(354,254)"/>
<path d="M0 0 C2.97 0 5.94 0 9 0 C9 1.32 9 2.64 9 4 C6 4 3 4 0 4 C0 2.68 0 1.36 0 0 Z " fill="#A7A5A8" transform="translate(45,238)"/>
<path d="M0 0 C-1.125 1.9375 -1.125 1.9375 -3 4 C-6.1875 4.75 -6.1875 4.75 -9 5 C-9.33 3.68 -9.66 2.36 -10 1 C-6.61981469 -0.04005702 -3.5219721 -0.08004482 0 0 Z " fill="#AEACAF" transform="translate(74,168)"/>
<path d="M0 0 C0.66 0 1.32 0 2 0 C4.29648649 2.5614657 5 3.47967572 5 7 C3.02 7.99 3.02 7.99 1 9 C-1.125 3.375 -1.125 3.375 0 0 Z " fill="#F3E1F2" transform="translate(22,256)"/>
<path d="M0 0 C2.31 0 4.62 0 7 0 C7 1.65 7 3.3 7 5 C3 5 3 5 0 4 C0 2.68 0 1.36 0 0 Z " fill="#A3A1A3" transform="translate(48,229)"/>
<path d="M0 0 C0.33 0 0.66 0 1 0 C1 1.98 1 3.96 1 6 C-1.60582371 6.93065133 -2.64198224 7.14917407 -5.25 6.0625 C-5.8275 5.711875 -6.405 5.36125 -7 5 C-7 4.01 -7 3.02 -7 2 C-3 2 -3 2 -1 3 C-0.67 3.33 -0.34 3.66 0 4 C0 2.68 0 1.36 0 0 Z " fill="#6A68A6" transform="translate(48,215)"/>
<path d="M0 0 C-0.33 0.66 -0.66 1.32 -1 2 C-2.92578125 2.59765625 -2.92578125 2.59765625 -5.3125 3.0625 C-6.48232422 3.29646484 -6.48232422 3.29646484 -7.67578125 3.53515625 C-8.44277344 3.68855469 -9.20976562 3.84195313 -10 4 C-11.33531635 4.32529853 -12.66939662 4.65593093 -14 5 C-9.74404706 -0.49155218 -6.48540926 -0.63582444 0 0 Z " fill="#F5F9FE" transform="translate(182,217)"/>
<path d="M0 0 C0.99 0.33 1.98 0.66 3 1 C3 2.65 3 4.3 3 6 C1.35 6.33 -0.3 6.66 -2 7 C-2 5.02 -2 3.04 -2 1 C-1.34 0.67 -0.68 0.34 0 0 Z " fill="#C8BDC2" transform="translate(311,235)"/>
<path d="M0 0 C0 0.66 0 1.32 0 2 C1.98 2 3.96 2 6 2 C6 1.34 6 0.68 6 0 C6.66 0 7.32 0 8 0 C8.33 0.99 8.66 1.98 9 3 C4.03926578 4.32286246 -0.91111512 4.08893197 -6 4 C-6.33 3.34 -6.66 2.68 -7 2 C-4.35261084 0.5393715 -3.10551666 0 0 0 Z " fill="#DDD3D9" transform="translate(326,231)"/>
<path d="M0 0 C2.97 0 5.94 0 9 0 C9.33 1.32 9.66 2.64 10 4 C9.34 4 8.68 4 8 4 C7.67 3.34 7.34 2.68 7 2 C5.8553125 2.5259375 5.8553125 2.5259375 4.6875 3.0625 C2 4 2 4 -1 3 C-0.67 2.01 -0.34 1.02 0 0 Z " fill="#A88898" transform="translate(329,160)"/>
<path d="M0 0 C2 0.25 2 0.25 4 1 C4.33 1.99 4.66 2.98 5 4 C3.35 5.32 1.7 6.64 0 8 C0 6.68 0 5.36 0 4 C-0.33 3.01 -0.66 2.02 -1 1 C-0.67 0.67 -0.34 0.34 0 0 Z " fill="#F0F6EF" transform="translate(284,314)"/>
<path d="M0 0 C0.33 0.66 0.66 1.32 1 2 C0.01 3.485 0.01 3.485 -1 5 C-1.66 4.34 -2.32 3.68 -3 3 C-4.65 3.66 -6.3 4.32 -8 5 C-8 4.01 -8 3.02 -8 2 C-4.77208445 -0.1519437 -3.71599191 -0.20086443 0 0 Z " fill="#B592A4" transform="translate(335,168)"/>
<path d="M0 0 C1.98 0 3.96 0 6 0 C5.67 0.99 5.34 1.98 5 3 C3.67696283 3.3721042 2.34262065 3.70630173 1 4 C0.67 4.66 0.34 5.32 0 6 C-0.66 6 -1.32 6 -2 6 C-2 4.68 -2 3.36 -2 2 C-1.34 2 -0.68 2 0 2 C0 1.34 0 0.68 0 0 Z " fill="#E9E1F3" transform="translate(298,29)"/>
<path d="M0 0 C0.66 0 1.32 0 2 0 C2 0.66 2 1.32 2 2 C2.99 2 3.98 2 5 2 C5 3.32 5 4.64 5 6 C2.625 6.1875 2.625 6.1875 0 6 C-0.66 5.01 -1.32 4.02 -2 3 C-1.34 3 -0.68 3 0 3 C0 2.01 0 1.02 0 0 Z " fill="#ABA9AC" transform="translate(326,236)"/>
<path d="M0 0 C0.66 0.33 1.32 0.66 2 1 C1.34 2.65 0.68 4.3 0 6 C-1.65 6 -3.3 6 -5 6 C-4.75 4.125 -4.75 4.125 -4 2 C-2.0625 0.6875 -2.0625 0.6875 0 0 Z " fill="#C4C1C4" transform="translate(77,167)"/>
<path d="M0 0 C1.32 0.99 2.64 1.98 4 3 C3.34 3 2.68 3 2 3 C1.67 4.98 1.34 6.96 1 9 C0.34 9 -0.32 9 -1 9 C-1.80967438 6.08517222 -2.21845993 4.53886783 -1.0625 1.6875 C-0.711875 1.130625 -0.36125 0.57375 0 0 Z " fill="#F4E0F1" transform="translate(256,103)"/>
<path d="M0 0 C2.97 0 5.94 0 9 0 C9 0.66 9 1.32 9 2 C6.09399739 3.25664978 4.20395416 4 1 4 C0.67 2.68 0.34 1.36 0 0 Z " fill="#A19EA1" transform="translate(70,238)"/>
<path d="M0 0 C0 0.66 0 1.32 0 2 C0.66 2.33 1.32 2.66 2 3 C0.68 3 -0.64 3 -2 3 C-2.66 4.65 -3.32 6.3 -4 8 C-4.66 6.68 -5.32 5.36 -6 4 C-2.25 0 -2.25 0 0 0 Z " fill="#FCECD6" transform="translate(241,161)"/>
<path d="M0 0 C1.32 0.66 2.64 1.32 4 2 C4 3.32 4 4.64 4 6 C2.35 6 0.7 6 -1 6 C-1.33 5.01 -1.66 4.02 -2 3 C-1.34 2.01 -0.68 1.02 0 0 Z " fill="#BFBDC0" transform="translate(58,158)"/>
<path d="M0 0 C0.33 0 0.66 0 1 0 C1 1.98 1 3.96 1 6 C-1.31 6 -3.62 6 -6 6 C-6 4.68 -6 3.36 -6 2 C-4.35 2 -2.7 2 -1 2 C-0.67 1.34 -0.34 0.68 0 0 Z " fill="#90545C" transform="translate(54,146)"/>
<path d="M0 0 C0.66 0.33 1.32 0.66 2 1 C1.25 2.9375 1.25 2.9375 0 5 C-2.125 5.75 -2.125 5.75 -4 6 C-4 3 -4 3 -2 1 C-1.34 0.67 -0.68 0.34 0 0 Z " fill="#EEF1FB" transform="translate(33,80)"/>
<path d="M0 0 C0.33 0.66 0.66 1.32 1 2 C1.99 2.33 2.98 2.66 4 3 C4.33 4.65 4.66 6.3 5 8 C4.01 8.33 3.02 8.66 2 9 C0 3.375 0 3.375 0 0 Z " fill="#ECC3D9" transform="translate(10,325)"/>
<path d="M0 0 C0.66 0 1.32 0 2 0 C2 0.66 2 1.32 2 2 C2.66 2 3.32 2 4 2 C4.33 3.32 4.66 4.64 5 6 C3.02 6 1.04 6 -1 6 C-0.67 4.02 -0.34 2.04 0 0 Z " fill="#FBEBD3" transform="translate(244,162)"/>
<path d="M0 0 C1.65 0 3.3 0 5 0 C5.66 1.32 6.32 2.64 7 4 C5.1875 4.625 5.1875 4.625 3 5 C2.01 4.34 1.02 3.68 0 3 C0 2.01 0 1.02 0 0 Z " fill="#E9E1F3" transform="translate(378,25)"/>
<path d="M0 0 C0.6875 1.75 0.6875 1.75 1 4 C-0.3125 6.25 -0.3125 6.25 -2 8 C-2.66 8 -3.32 8 -4 8 C-4.33 7.01 -4.66 6.02 -5 5 C-3.35 3.35 -1.7 1.7 0 0 Z " fill="#F6F4E5" transform="translate(229,331)"/>
<path d="M0 0 C0.33 0.99 0.66 1.98 1 3 C0.01 4.485 0.01 4.485 -1 6 C-2.32 5.67 -3.64 5.34 -5 5 C-5 4.01 -5 3.02 -5 2 C-4.360625 1.855625 -3.72125 1.71125 -3.0625 1.5625 C-1.02454854 1.18992819 -1.02454854 1.18992819 0 0 Z " fill="#9F9DA0" transform="translate(338,236)"/>
<path d="M0 0 C1.98 0.495 1.98 0.495 4 1 C3.67 2.98 3.34 4.96 3 7 C2.01 7.33 1.02 7.66 0 8 C0 5.33333333 0 2.66666667 0 0 Z " fill="#D9EDE8" transform="translate(337,302)"/>
<path d="M0 0 C0.33 0.66 0.66 1.32 1 2 C1.66 2 2.32 2 3 2 C3.33 1.34 3.66 0.68 4 0 C4 0.66 4 1.32 4 2 C4.66 2.33 5.32 2.66 6 3 C6 3.66 6 4.32 6 5 C5.01 5.33 4.02 5.66 3 6 C2.67 5.34 2.34 4.68 2 4 C-0.52733235 3.34444881 -0.52733235 3.34444881 -3 3 C-2.01 2.67 -1.02 2.34 0 2 C0 1.34 0 0.68 0 0 Z " fill="#CBD3D2" transform="translate(352,256)"/>
<path d="M0 0 C0.66 0 1.32 0 2 0 C2 0.66 2 1.32 2 2 C2.66 2 3.32 2 4 2 C4 3.32 4 4.64 4 6 C2.68 6 1.36 6 0 6 C0 4.02 0 2.04 0 0 Z " fill="#A9A5A8" transform="translate(358,227)"/>
<path d="M0 0 C1.32 0 2.64 0 4 0 C4 1.32 4 2.64 4 4 C2.02 4 0.04 4 -2 4 C-1 1 -1 1 0 0 Z " fill="#A7A5A7" transform="translate(76,229)"/>
<path d="M0 0 C0 0.99 0 1.98 0 3 C-3 5 -3 5 -5.1875 4.625 C-5.785625 4.41875 -6.38375 4.2125 -7 4 C-3.375 0 -3.375 0 0 0 Z " fill="#E4DEE3" transform="translate(353,224)"/>
<path d="M0 0 C0.99 0 1.98 0 3 0 C3 1.65 3 3.3 3 5 C1.35 5.33 -0.3 5.66 -2 6 C-1.67 5.01 -1.34 4.02 -1 3 C-0.34 3 0.32 3 1 3 C0.67 2.01 0.34 1.02 0 0 Z " fill="#FEA217" transform="translate(252,171)"/>
<path d="M0 0 C2.475 0.495 2.475 0.495 5 1 C4.67 2.32 4.34 3.64 4 5 C2.68 5 1.36 5 0 5 C0 3.35 0 1.7 0 0 Z " fill="#B1AFB1" transform="translate(91,167)"/>
<path d="M0 0 C1.65 0 3.3 0 5 0 C5 1.32 5 2.64 5 4 C3.35 4 1.7 4 0 4 C0 2.68 0 1.36 0 0 Z " fill="#FE2D43" transform="translate(154,162)"/>
<path d="M0 0 C1.65 0 3.3 0 5 0 C5 1.32 5 2.64 5 4 C3.35 4 1.7 4 0 4 C0 2.68 0 1.36 0 0 Z " fill="#BB95A8" transform="translate(352,160)"/>
<path d="M0 0 C0.66 0.66 1.32 1.32 2 2 C3.32 2 4.64 2 6 2 C5.34 3.32 4.68 4.64 4 6 C2.68 6 1.36 6 0 6 C0 4.02 0 2.04 0 0 Z " fill="#ABA9AC" transform="translate(78,158)"/>
<path d="M0 0 C1.98 0.495 1.98 0.495 4 1 C4 5 4 5 3 7 C2.01 7.33 1.02 7.66 0 8 C-0.33 7.34 -0.66 6.68 -1 6 C-0.33333333 4.66666667 0.33333333 3.33333333 1 2 C0.67 1.34 0.34 0.68 0 0 Z " fill="#F5ECF3" transform="translate(235,108)"/>
<path d="M0 0 C0.99 0.33 1.98 0.66 3 1 C2.01 2.32 1.02 3.64 0 5 C-1.65 4.67 -3.3 4.34 -5 4 C-4.01 3.67 -3.02 3.34 -2 3 C-2 2.34 -2 1.68 -2 1 C-1.34 0.67 -0.68 0.34 0 0 Z " fill="#EDF3F2" transform="translate(294,338)"/>
<path d="M0 0 C5.75 1.625 5.75 1.625 8 5 C7.34 5 6.68 5 6 5 C5.67 5.66 5.34 6.32 5 7 C3.35 4.69 1.7 2.38 0 0 Z " fill="#EFD1D2" transform="translate(39,333)"/>
<path d="M0 0 C2.97 0.495 2.97 0.495 6 1 C5.34 2.32 4.68 3.64 4 5 C2.68 5 1.36 5 0 5 C0 3.35 0 1.7 0 0 Z " fill="#A4A1A4" transform="translate(34,245)"/>
<path d="M0 0 C2.125 0.9375 2.125 0.9375 4 2 C4 2.99 4 3.98 4 5 C2 5 0 5 -2 5 C-2 3.68 -2 2.36 -2 1 C-1.34 0.67 -0.68 0.34 0 0 Z " fill="#BB98AB" transform="translate(356,176)"/>
<path d="M0 0 C0.66 0 1.32 0 2 0 C2 1.65 2 3.3 2 5 C0.35 5 -1.3 5 -3 5 C-1.125 1.125 -1.125 1.125 0 0 Z " fill="#AAA8AB" transform="translate(58,167)"/>
<path d="M0 0 C0.66 0 1.32 0 2 0 C2 0.66 2 1.32 2 2 C3.65 2 5.3 2 7 2 C7 2.66 7 3.32 7 4 C4.69 4.33 2.38 4.66 0 5 C0 3.35 0 1.7 0 0 Z " fill="#FBFBF5" transform="translate(234,167)"/>
<path d="M0 0 C0.99 0 1.98 0 3 0 C3.433125 0.9590625 3.433125 0.9590625 3.875 1.9375 C4.82823451 4.15206079 4.82823451 4.15206079 7 5 C4.69 5 2.38 5 0 5 C0 3.35 0 1.7 0 0 Z " fill="#9A969A" transform="translate(34,159)"/>
<path d="M0 0 C0 1.65 0 3.3 0 5 C-0.33 4.34 -0.66 3.68 -1 3 C-1.33 3.66 -1.66 4.32 -2 5 C-3.32 5 -4.64 5 -6 5 C-6 4.01 -6 3.02 -6 2 C-1.125 0 -1.125 0 0 0 Z " fill="#9C9A9D" transform="translate(65,228)"/>
<path d="M0 0 C1.98 0 3.96 0 6 0 C6.33 0.66 6.66 1.32 7 2 C6.01 2 5.02 2 4 2 C3.67 2.66 3.34 3.32 3 4 C2.34 3.67 1.68 3.34 1 3 C0.67 3.66 0.34 4.32 0 5 C0 3.35 0 1.7 0 0 Z " fill="#B4B0B4" transform="translate(34,228)"/>
<path d="M0 0 C0 1.65 0 3.3 0 5 C-1.65 5 -3.3 5 -5 5 C-5 3.68 -5 2.36 -5 1 C-1.125 0 -1.125 0 0 0 Z " fill="#979598" transform="translate(354,245)"/>
<path d="M0 0 C0.66 0 1.32 0 2 0 C2.33 1.65 2.66 3.3 3 5 C1.35 4.67 -0.3 4.34 -2 4 C-1.34 2.68 -0.68 1.36 0 0 Z " fill="#C0BBBF" transform="translate(35,237)"/>
<path d="M0 0 C0.33 0.66 0.66 1.32 1 2 C1.99 2.33 2.98 2.66 4 3 C4 3.99 4 4.98 4 6 C2.68 6 1.36 6 0 6 C0 4.02 0 2.04 0 0 Z " fill="#B694A7" transform="translate(311,167)"/>
<path d="M0 0 C0.99 0 1.98 0 3 0 C3 1.98 3 3.96 3 6 C2.01 5.67 1.02 5.34 0 5 C0 3.35 0 1.7 0 0 Z " fill="#BF9BAF" transform="translate(341,159)"/>
<path d="M0 0 C2.475 0.495 2.475 0.495 5 1 C4.34 2.32 3.68 3.64 3 5 C2.34 5 1.68 5 1 5 C0.67 3.35 0.34 1.7 0 0 Z " fill="#B391A3" transform="translate(315,160)"/>
</svg>
