<?xml version="1.0" encoding="UTF-8"?>
<svg version="1.1" xmlns="http://www.w3.org/2000/svg" width="400" height="400">
<path d="M0 0 C132 0 264 0 400 0 C400 132 400 264 400 400 C268 400 136 400 0 400 C0 268 0 136 0 0 Z " fill="#FCE3F4" transform="translate(0,0)"/>
<path d="M0 0 C3.50955071 1.27197892 5.4201376 4.41566399 7.69165039 7.24902344 C25.13174228 28.17238739 49.0851645 42.62675734 73.72485352 53.68408203 C75.49613925 54.48958124 77.25907646 55.31347264 79.01782227 56.14599609 C111.2940252 71.35845871 147.1884965 80.70437604 182.38696289 86.05371094 C183.077845 86.16058731 183.76872711 86.26746368 184.48054504 86.37757874 C187.83782906 86.8953091 191.19322013 87.38701063 194.56054688 87.83764648 C195.7601001 88.01593994 196.95965332 88.1942334 198.19555664 88.37792969 C199.25846924 88.52302979 200.32138184 88.66812988 201.41650391 88.81762695 C204.06665039 89.74902344 204.06665039 89.74902344 205.890625 92.1003418 C210.56712901 102.63291228 209.14997585 119.00494211 205.91821289 129.84277344 C205.06665039 131.74902344 205.06665039 131.74902344 203.06665039 132.74902344 C201.73672782 132.93293919 200.40038022 133.07142008 199.06274414 133.18652344 C131.6877015 139.82984078 48.54489547 163.55036719 4.06665039 217.74902344 C3.05650997 219.07469086 2.05291825 220.40550065 1.06665039 221.74902344 C-1.22517941 221.37028885 -2.5977049 221.07881388 -4.27709961 219.42871094 C-12.72349285 206.24548906 -13.38470942 189.18738896 -14.73123169 174.01651001 C-14.87732117 172.37758586 -15.02840235 170.73910407 -15.18258667 169.10092163 C-16.93027743 150.19390568 -17.27842421 131.39812853 -17.24902344 112.42651367 C-17.24439899 109.19199693 -17.25131143 105.95785694 -17.26953125 102.72338867 C-17.7322277 19.71912364 -17.7322277 19.71912364 -3.53100586 0.88964844 C-1.93334961 -0.25097656 -1.93334961 -0.25097656 0 0 Z " fill="#FBCA44" transform="translate(111.933349609375,89.2509765625)"/>
<path d="M0 0 C51.81 0 103.62 0 157 0 C157.04125 13.15875 157.0825 26.3175 157.125 39.875 C157.14320801 44.03335449 157.16141602 48.19170898 157.18017578 52.47607422 C157.18920898 57.54516602 157.18920898 57.54516602 157.19088745 59.91653442 C157.19396315 61.57645743 157.20100657 63.2363759 157.21115112 64.89627075 C157.22573339 67.40732616 157.22781394 69.91810798 157.22705078 72.42919922 C157.234247 73.171472 157.24144321 73.91374477 157.2488575 74.67851067 C157.22805267 79.77194733 157.22805267 79.77194733 155 82 C154.01 82 153.02 82 152 82 C150.3174387 83.31321858 148.65002828 84.64613064 147 86 C146.34 86 145.68 86 145 86 C143.09147687 87.59043594 142.07051552 88.84016482 141.0625 91.125 C140.711875 91.74375 140.36125 92.3625 140 93 C138.67405895 93.36162029 137.34061543 93.69728039 136 94 C135.67 94.99 135.34 95.98 135 97 C134.360625 97.598125 133.72125 98.19625 133.0625 98.8125 C130.76796776 100.88886821 130.76796776 100.88886821 130.25 104 C128.62168977 107.90794456 126.7890696 108.60873614 123.02734375 110.26171875 C120.70868709 111.10608505 118.43158444 111.59473593 116 112 C113.76591887 112.99083967 113.76591887 112.99083967 112 114 C112 113.34 112 112.68 112 112 C110.906875 112.66 109.81375 113.32 108.6875 114 C106.06292462 115.58464929 105.1743622 116 102 116 C101.67 116.99 101.34 117.98 101 119 C100.01 119 99.02 119 98 119 C95.0047587 120.02276532 93.2551922 120.7448078 91 123 C90.01 123.33 89.02 123.66 88 124 C86.81480735 126.43276386 86 128.28017286 86 131 C86.66 131.33 87.32 131.66 88 132 C89.23022528 134.69111779 90.09117379 137.33213308 90.875 140.1875 C92.22304716 143.5576179 92.84066955 143.55573465 96 145 C97.80969451 146.90765518 99.37625233 148.92521132 101 151 C99.35 151 97.7 151 96 151 C95.67 151.99 95.34 152.98 95 154 C94.34 153.34 93.68 152.68 93 152 C90.93125966 151.3574765 90.93125966 151.3574765 89 151 C88.67 151.99 88.34 152.98 88 154 C87.67 153.01 87.34 152.02 87 151 C84.525 151.99 84.525 151.99 82 153 C82 152.34 82 151.68 82 151 C80.35 151.66 78.7 152.32 77 153 C77 152.34 77 151.68 77 151 C74.36 151 71.72 151 69 151 C68.67 151.99 68.34 152.98 68 154 C66.02 153.01 64.04 152.02 62 151 C61.67 152.32 61.34 153.64 61 155 C60.34 154.01 59.68 153.02 59 152 C56.79274927 151.63637182 56.79274927 151.63637182 54.375 151.8125 C53.55773437 151.83957031 52.74046875 151.86664063 51.8984375 151.89453125 C51.27195312 151.92933594 50.64546875 151.96414062 50 152 C50 151.34 50 150.68 50 150 C49.401875 150.226875 48.80375 150.45375 48.1875 150.6875 C47.465625 150.790625 46.74375 150.89375 46 151 C44.25 149.5625 44.25 149.5625 43 148 C42.67 148.66 42.34 149.32 42 150 C41.5875 149.54625 41.175 149.0925 40.75 148.625 C37.48547856 145.59365866 35.50814714 145 31 145 C30.01 145 29.02 145 28 145 C27.34 144.34 26.68 143.68 26 143 C24.66400079 143.32248257 23.33106622 143.65772583 22 144 C21.195625 143.79375 20.39125 143.5875 19.5625 143.375 C16.1429209 142.87457379 14.74316902 144.04059356 12 146 C12 143 12 143 14 141 C14 140.34 14 139.68 14 139 C7.41816638 138.1068493 1.57849492 138.04505719 -5 139 C-5 135 -5 135 -4 132 C-3.01 131.67 -2.02 131.34 -1 131 C-1.33 130.34 -1.66 129.68 -2 129 C-1.01 128.34 -0.02 127.68 1 127 C1.28875 126.319375 1.5775 125.63875 1.875 124.9375 C3 123 3 123 5.625 122.25 C6.40875 122.1675 7.1925 122.085 8 122 C7.28436734 119.9837767 7.28436734 119.9837767 6 118 C3.97536745 117.34786708 3.97536745 117.34786708 2 117 C1.67 116.34 1.34 115.68 1 115 C0.01 114.01 0.01 114.01 -1 113 C-1.71927295 110.68234271 -2.3909893 108.34904126 -3 106 C-5.31 105.67 -7.62 105.34 -10 105 C-10.33 103.68 -10.66 102.36 -11 101 C-11.99 101.33 -12.98 101.66 -14 102 C-14.99 101.34 -15.98 100.68 -17 100 C-17.99 100.495 -17.99 100.495 -19 101 C-20.485 100.505 -20.485 100.505 -22 100 C-22.33 100.66 -22.66 101.32 -23 102 C-24.65 101.34 -26.3 100.68 -28 100 C-28 99.34 -28 98.68 -28 98 C-28.598125 97.896875 -29.19625 97.79375 -29.8125 97.6875 C-32.33391022 96.89505679 -33.19465768 95.88056492 -35 94 C-35.66 93.731875 -36.32 93.46375 -37 93.1875 C-40.04968849 91.37674746 -40.80199178 89.27875933 -42 86 C-41.6875 82.625 -41.6875 82.625 -41 80 C-41.99 79.67 -42.98 79.34 -44 79 C-43.34 77.02 -42.68 75.04 -42 73 C-42.66 73 -43.32 73 -44 73 C-44.12375 72.030625 -44.2475 71.06125 -44.375 70.0625 C-44.58125 69.051875 -44.7875 68.04125 -45 67 C-45.66 66.67 -46.32 66.34 -47 66 C-46.835 65.236875 -46.67 64.47375 -46.5 63.6875 C-45.90854604 60.96403764 -45.90854604 60.96403764 -46 58 C-45.34 58 -44.68 58 -44 58 C-43.731875 57.030625 -43.46375 56.06125 -43.1875 55.0625 C-42.5996875 53.5465625 -42.5996875 53.5465625 -42 52 C-40.515 51.505 -40.515 51.505 -39 51 C-38.34 50.01 -37.68 49.02 -37 48 C-36.34 48 -35.68 48 -35 48 C-35 47.01 -35 46.02 -35 45 C-32.75 43.4375 -32.75 43.4375 -30 42 C-28.9171875 41.4121875 -28.9171875 41.4121875 -27.8125 40.8125 C-26 40 -26 40 -24 40 C-23.7525 39.195625 -23.505 38.39125 -23.25 37.5625 C-22 35 -22 35 -19.875 34.1875 C-19.25625 34.125625 -18.6375 34.06375 -18 34 C-18 34.99 -18 35.98 -18 37 C-17.34 37 -16.68 37 -16 37 C-15.731875 36.071875 -15.46375 35.14375 -15.1875 34.1875 C-14.06158049 31.165295 -13.48806924 29.91389941 -11 28 C-10.319375 27.7525 -9.63875 27.505 -8.9375 27.25 C-5.85926703 25.26404325 -5.76207238 22.42932572 -5 19 C-5.66 19 -6.32 19 -7 19 C-8 16 -8 16 -7.25 13.875 C-6 12 -6 12 -3 11 C-2.34 10.01 -1.68 9.02 -1 8 C1.125 6.8125 1.125 6.8125 3 6 C1.68 5.34 0.36 4.68 -1 4 C-0.67 2.68 -0.34 1.36 0 0 Z " fill="#FFFEC7" transform="translate(243,0)"/>
<path d="M0 0 C46.53 0 93.06 0 141 0 C141.04125 13.15875 141.0825 26.3175 141.125 39.875 C141.14320801 44.03335449 141.16141602 48.19170898 141.18017578 52.47607422 C141.18920898 57.54516602 141.18920898 57.54516602 141.19088745 59.91653442 C141.19396315 61.57645743 141.20100657 63.2363759 141.21115112 64.89627075 C141.22573339 67.40732616 141.22781394 69.91810798 141.22705078 72.42919922 C141.234247 73.171472 141.24144321 73.91374477 141.2488575 74.67851067 C141.22805267 79.77194733 141.22805267 79.77194733 139 82 C138.01 82 137.02 82 136 82 C134.3174387 83.31321858 132.65002828 84.64613064 131 86 C130.34 86 129.68 86 129 86 C127.09147687 87.59043594 126.07051552 88.84016482 125.0625 91.125 C124.711875 91.74375 124.36125 92.3625 124 93 C122.67405895 93.36162029 121.34061543 93.69728039 120 94 C119.505 95.485 119.505 95.485 119 97 C118.360625 97.598125 117.72125 98.19625 117.0625 98.8125 C114.76796776 100.88886821 114.76796776 100.88886821 114.25 104 C112.62168977 107.90794456 110.7890696 108.60873614 107.02734375 110.26171875 C104.70868709 111.10608505 102.43158444 111.59473593 100 112 C97.76591887 112.99083967 97.76591887 112.99083967 96 114 C96 113.34 96 112.68 96 112 C94.3603125 112.99 94.3603125 112.99 92.6875 114 C90.06292462 115.58464929 89.1743622 116 86 116 C85.505 117.485 85.505 117.485 85 119 C84.01 119 83.02 119 82 119 C79.0047587 120.02276532 77.2551922 120.7448078 75 123 C73.515 123.495 73.515 123.495 72 124 C70.81480735 126.43276386 70 128.28017286 70 131 C70.66 131.33 71.32 131.66 72 132 C73.23022528 134.69111779 74.09117379 137.33213308 74.875 140.1875 C76.22304716 143.5576179 76.84066955 143.55573465 80 145 C81.80969451 146.90765518 83.37625233 148.92521132 85 151 C83.35 151 81.7 151 80 151 C79.67 151.99 79.34 152.98 79 154 C78.34 153.34 77.68 152.68 77 152 C74.93125966 151.3574765 74.93125966 151.3574765 73 151 C72.67 151.99 72.34 152.98 72 154 C71.67 153.01 71.34 152.02 71 151 C69.35 151.66 67.7 152.32 66 153 C66 152.34 66 151.68 66 151 C64.35 151.66 62.7 152.32 61 153 C61 152.34 61 151.68 61 151 C58.36 151 55.72 151 53 151 C52.67 151.99 52.34 152.98 52 154 C50.02 153.01 48.04 152.02 46 151 C45.67 152.32 45.34 153.64 45 155 C44.34 154.01 43.68 153.02 43 152 C40.79274927 151.63637182 40.79274927 151.63637182 38.375 151.8125 C37.55773437 151.83957031 36.74046875 151.86664063 35.8984375 151.89453125 C35.27195312 151.92933594 34.64546875 151.96414062 34 152 C34 151.34 34 150.68 34 150 C33.1028125 150.3403125 33.1028125 150.3403125 32.1875 150.6875 C31.465625 150.790625 30.74375 150.89375 30 151 C28.25 149.5625 28.25 149.5625 27 148 C26.67 148.66 26.34 149.32 26 150 C25.5875 149.54625 25.175 149.0925 24.75 148.625 C21.48547856 145.59365866 19.50814714 145 15 145 C14.01 145 13.02 145 12 145 C11.34 144.34 10.68 143.68 10 143 C8.66400079 143.32248257 7.33106622 143.65772583 6 144 C5.195625 143.79375 4.39125 143.5875 3.5625 143.375 C0.1429209 142.87457379 -1.25683098 144.04059356 -4 146 C-4 143 -4 143 -2.25 140.875 C-0.02459308 139.02049423 1.15328685 138.28467132 4 138 C4.66 138.33 5.32 138.66 6 139 C6 138.34 6 137.68 6 137 C6.99 137 7.98 137 9 137 C9.12375 136.401875 9.2475 135.80375 9.375 135.1875 C10 133 10 133 12 130 C11.01 130.33 10.02 130.66 9 131 C8.01 130.01 7.02 129.02 6 128 C5.01 128.99 5.01 128.99 4 130 C1 129 1 129 -0.6875 125.9375 C-1.120625 124.968125 -1.55375 123.99875 -2 123 C-0.2984375 122.5978125 -0.2984375 122.5978125 1.4375 122.1875 C3.2009375 121.5996875 3.2009375 121.5996875 5 121 C5.33 120.01 5.66 119.02 6 118 C7.9375 117.1875 7.9375 117.1875 10 117 C10.66 117.66 11.32 118.32 12 119 C15.4802949 121.04017287 18.95746186 122 23 122 C26 122 26 122 28 123 C28.2475 122.195625 28.495 121.39125 28.75 120.5625 C30 118 30 118 31.8125 117.375 C32.534375 117.25125 33.25625 117.1275 34 117 C39.7390014 113.90976848 44.08955354 110.21392861 48 105 C47.01 104.505 47.01 104.505 46 104 C46.53109375 103.61328125 47.0621875 103.2265625 47.609375 102.828125 C52.02315433 99.60377443 52.02315433 99.60377443 56 95.875 C58.93621247 93.12230081 62.37759578 91.68385196 66 90 C66.69609375 89.62359375 67.3921875 89.2471875 68.109375 88.859375 C70.47646147 87.7834266 71.60097719 88.14320614 74 89 C74.268125 88.236875 74.53625 87.47375 74.8125 86.6875 C75.9750973 84.05635874 76.97291463 82.94262348 79 81 C79.6837045 79.67532254 80.34964186 78.34136367 81 77 C81.98028616 75.65210653 82.97971135 74.31787285 84 73 C84.99 71.515 84.99 71.515 86 70 C85.67 69.34 85.34 68.68 85 68 C86.11375 67.5359375 86.11375 67.5359375 87.25 67.0625 C91.15428589 64.13428559 92.3187963 60.48007912 94 56 C94.66 56 95.32 56 96 56 C96.41572266 55.04287109 96.41572266 55.04287109 96.83984375 54.06640625 C97.20207031 53.24011719 97.56429687 52.41382813 97.9375 51.5625 C98.29714844 50.73878906 98.65679687 49.91507813 99.02734375 49.06640625 C100 47 100 47 101 46 C102.01965427 43.67518826 103.02059602 41.34205301 104 39 C103.175 38.0925 102.35 37.185 101.5 36.25 C98.96705003 33.46375503 99 33.12741739 99 29 C97.58022091 26.77256213 97.58022091 26.77256213 96 25 C95.34 25.33 94.68 25.66 94 26 C93.505 24.02 93.505 24.02 93 22 C92.34 22 91.68 22 91 22 C91 21.34 91 20.68 91 20 C90.319375 20.2475 89.63875 20.495 88.9375 20.75 C84.74051421 21.10719028 82.40059526 19.28049398 79 17 C76.1315587 14.89767656 76.1315587 14.89767656 73 14 C72.67 14.66 72.34 15.32 72 16 C71.01 15.01 71.01 15.01 70 14 C68.09210888 14.30124597 66.18433173 14.60324498 64.27734375 14.91015625 C61.64175216 15.01413328 59.95040992 14.44703884 57.5 13.5 C52.86279325 11.72695036 49.84433835 12.08124617 45 13 C42 13 42 13 39 11.875 C38.01 11.58625 37.02 11.2975 36 11 C35.01 11.66 34.02 12.32 33 13 C33 12.34 33 11.68 33 11 C31.35 11.66 29.7 12.32 28 13 C27.505 12.01 27.505 12.01 27 11 C26.01 10.67 25.02 10.34 24 10 C23.67 10.66 23.34 11.32 23 12 C22.01 12 21.02 12 20 12 C19.67 12.66 19.34 13.32 19 14 C18.01 13.67 17.02 13.34 16 13 C16 12.01 16 11.02 16 10 C15.67 10.66 15.34 11.32 15 12 C14.01 11.67 13.02 11.34 12 11 C12 9.68 12 8.36 12 7 C10.02 7.66 8.04 8.32 6 9 C5.01 7.68 4.02 6.36 3 5 C2.34 5.66 1.68 6.32 1 7 C1.33 5.35 1.66 3.7 2 2 C1.34 2 0.68 2 0 2 C0 1.34 0 0.68 0 0 Z " fill="#FEFEDE" transform="translate(259,0)"/>
<path d="M0 0 C5.28 0 10.56 0 16 0 C16 0.66 16 1.32 16 2 C16.66 2 17.32 2 18 2 C18 2.99 18 3.98 18 5 C18.66 4.34 19.32 3.68 20 3 C20.99 5.475 20.99 5.475 22 8 C22.928125 7.62875 23.85625 7.2575 24.8125 6.875 C25.864375 6.58625 26.91625 6.2975 28 6 C28.99 6.66 29.98 7.32 31 8 C30.34 8 29.68 8 29 8 C29.495 9.485 29.495 9.485 30 11 C30.99 10.34 31.98 9.68 33 9 C34.14147825 12.42443476 33.86817488 12.90744155 32.5 16.0625 C31.58292479 18.09350941 31.58292479 18.09350941 31 20 C31.495 20.99 31.495 20.99 32 22 C31.67 22.66 31.34 23.32 31 24 C31.66 24.33 32.32 24.66 33 25 C32.5359375 26.2065625 32.5359375 26.2065625 32.0625 27.4375 C30.46488156 32.79422067 29.6384806 37.8308836 30.5625 43.375 C31 46 31 46 29 49 C29 49.99 29 50.98 29 52 C28.33333333 54 27.66666667 56 27 58 C26.51998921 60.21360349 26.0756277 62.4296457 25.66015625 64.65625 C25 67 25 67 23.57421875 69.80078125 C18.51232486 80.08785594 16.32397023 91.97191069 20 103 C20.66 103.66 21.32 104.32 22 105 C22.59765625 106.875 22.59765625 106.875 23.0625 109 C23.55455208 111.21220107 23.98325137 112.96650273 25 115 C24 118 24 118 22 120 C21.67 120.66 21.34 121.32 21 122 C19.68 122 18.36 122 17 122 C16.67 122.66 16.34 123.32 16 124 C16.89163577 126.11683841 16.89163577 126.11683841 18 128 C18.99 128 19.98 128 21 128 C21.66 127.34 22.32 126.68 23 126 C23.66 127.32 24.32 128.64 25 130 C25.99 130 26.98 130 28 130 C27.690625 130.598125 27.38125 131.19625 27.0625 131.8125 C25.89790296 134.08956772 25.89790296 134.08956772 25 137 C24.01 137 23.02 137 22 137 C22 137.66 22 138.32 22 139 C21.05125 139.144375 20.1025 139.28875 19.125 139.4375 C16.1065506 139.82935399 16.1065506 139.82935399 14 141 C14 140.34 14 139.68 14 139 C7.41816638 138.1068493 1.57849492 138.04505719 -5 139 C-5 135 -5 135 -4 132 C-3.01 131.67 -2.02 131.34 -1 131 C-1.33 130.34 -1.66 129.68 -2 129 C-1.01 128.34 -0.02 127.68 1 127 C1.28875 126.319375 1.5775 125.63875 1.875 124.9375 C3 123 3 123 5.625 122.25 C6.40875 122.1675 7.1925 122.085 8 122 C7.28436734 119.9837767 7.28436734 119.9837767 6 118 C3.97536745 117.34786708 3.97536745 117.34786708 2 117 C1.67 116.34 1.34 115.68 1 115 C0.01 114.01 0.01 114.01 -1 113 C-1.71927295 110.68234271 -2.3909893 108.34904126 -3 106 C-5.31 105.67 -7.62 105.34 -10 105 C-10.33 103.68 -10.66 102.36 -11 101 C-11.99 101.33 -12.98 101.66 -14 102 C-14.99 101.34 -15.98 100.68 -17 100 C-17.99 100.495 -17.99 100.495 -19 101 C-20.485 100.505 -20.485 100.505 -22 100 C-22.33 100.66 -22.66 101.32 -23 102 C-24.65 101.34 -26.3 100.68 -28 100 C-28 99.34 -28 98.68 -28 98 C-28.598125 97.896875 -29.19625 97.79375 -29.8125 97.6875 C-32.33391022 96.89505679 -33.19465768 95.88056492 -35 94 C-35.66 93.731875 -36.32 93.46375 -37 93.1875 C-40.04968849 91.37674746 -40.80199178 89.27875933 -42 86 C-41.6875 82.625 -41.6875 82.625 -41 80 C-41.99 79.67 -42.98 79.34 -44 79 C-43.34 77.02 -42.68 75.04 -42 73 C-42.66 73 -43.32 73 -44 73 C-44.12375 72.030625 -44.2475 71.06125 -44.375 70.0625 C-44.58125 69.051875 -44.7875 68.04125 -45 67 C-45.66 66.67 -46.32 66.34 -47 66 C-46.835 65.236875 -46.67 64.47375 -46.5 63.6875 C-45.90854604 60.96403764 -45.90854604 60.96403764 -46 58 C-45.34 58 -44.68 58 -44 58 C-43.731875 57.030625 -43.46375 56.06125 -43.1875 55.0625 C-42.5996875 53.5465625 -42.5996875 53.5465625 -42 52 C-40.515 51.505 -40.515 51.505 -39 51 C-38.34 50.01 -37.68 49.02 -37 48 C-36.34 48 -35.68 48 -35 48 C-35 47.01 -35 46.02 -35 45 C-32.75 43.4375 -32.75 43.4375 -30 42 C-28.9171875 41.4121875 -28.9171875 41.4121875 -27.8125 40.8125 C-26 40 -26 40 -24 40 C-23.7525 39.195625 -23.505 38.39125 -23.25 37.5625 C-22 35 -22 35 -19.875 34.1875 C-19.25625 34.125625 -18.6375 34.06375 -18 34 C-18 34.99 -18 35.98 -18 37 C-17.34 37 -16.68 37 -16 37 C-15.731875 36.071875 -15.46375 35.14375 -15.1875 34.1875 C-14.06158049 31.165295 -13.48806924 29.91389941 -11 28 C-10.319375 27.7525 -9.63875 27.505 -8.9375 27.25 C-5.85926703 25.26404325 -5.76207238 22.42932572 -5 19 C-5.66 19 -6.32 19 -7 19 C-8 16 -8 16 -7.25 13.875 C-6 12 -6 12 -3 11 C-2.34 10.01 -1.68 9.02 -1 8 C1.125 6.8125 1.125 6.8125 3 6 C1.68 5.34 0.36 4.68 -1 4 C-0.67 2.68 -0.34 1.36 0 0 Z " fill="#FFEEC8" transform="translate(243,0)"/>
<path d="M0 0 C6.31094392 1.31730033 12.47869361 2.94706878 18.67749023 4.71557617 C37.00604743 9.93137957 55.46364673 14.43892002 74.3203125 17.3046875 C75.01119461 17.41156387 75.70207672 17.51844025 76.41389465 17.6285553 C79.77117867 18.14628567 83.12656974 18.63798719 86.49389648 19.08862305 C87.69344971 19.2669165 88.89300293 19.44520996 90.12890625 19.62890625 C91.19181885 19.77400635 92.25473145 19.91910645 93.34985352 20.06860352 C96 21 96 21 97.82397461 23.35131836 C102.50047862 33.88388885 101.08332545 50.25591868 97.8515625 61.09375 C97 63 97 63 95 64 C93.67007743 64.18391576 92.33372983 64.32239664 90.99609375 64.4375 C63.8693082 67.11403647 36.71523236 73.36532603 10.7800293 81.69995117 C9.78269775 82.01810791 8.78536621 82.33626465 7.7578125 82.6640625 C6.47608154 83.08872803 6.47608154 83.08872803 5.16845703 83.52197266 C3 84 3 84 0 83 C0.20496094 82.01 0.40992188 81.02 0.62109375 80 C0.89338761 78.66669902 1.16551402 77.33336382 1.4375 76 C1.57220703 75.35160156 1.70691406 74.70320313 1.84570312 74.03515625 C1.97783203 73.38417969 2.10996094 72.73320312 2.24609375 72.0625 C2.36654053 71.47597656 2.4869873 70.88945312 2.61108398 70.28515625 C3.65030535 64.17899684 4.16362815 58.20331546 4.203125 52.01171875 C4.20995804 51.27452606 4.21679108 50.53733337 4.22383118 49.77780151 C4.24078667 47.41432043 4.24715088 45.05103825 4.25 42.6875 C4.25200409 41.88408173 4.25400818 41.08066345 4.256073 40.25289917 C4.26342262 28.2476663 3.62251175 16.75374438 1 5 C0.66498249 3.33367105 0.330862 1.66715903 0 0 Z " fill="#BE2B73" transform="translate(220,158)"/>
<path d="M0 0 C2.72972521 1.20708387 5.45882365 2.41554882 8.1875 3.625 C9.0132251 3.99036865 9.8389502 4.3557373 10.68969727 4.73217773 C16.33527756 7.23772959 21.91743159 9.85570668 27.48828125 12.5234375 C30.30475828 13.70767367 33.00460673 14.65279703 35.91796875 15.5390625 C48.92853686 19.5790964 48.92853686 19.5790964 51.80859375 23.3984375 C52.63424455 26.31602218 52.77793014 28.9769845 53 32 C53.32473182 34.09031326 53.6614709 36.17878342 54.0078125 38.265625 C55.23882663 46.74810784 55.35042968 55.12818621 55.3125 63.6875 C55.31126129 64.87064789 55.31126129 64.87064789 55.30999756 66.07769775 C55.28150099 77.90797417 54.82764228 89.45595585 52 101 C51.85433594 102.0621875 51.70867187 103.124375 51.55859375 104.21875 C48.95029487 108.87315802 44.32643232 109.54880149 39.4375 111.125 C26.10600685 115.73904201 13.59998549 121.68875727 1 128 C-0.24980314 124.25059058 0.418659 122.46300921 1.3125 118.625 C5.21620484 100.60252201 5.37011916 82.17511228 5.3125 63.8125 C5.31126129 62.13877823 5.31126129 62.13877823 5.30999756 60.4312439 C5.32387896 33.79599822 5.32387896 33.79599822 0.8984375 7.60546875 C0 4 0 4 0 0 Z " fill="#FE6D50" transform="translate(170,136)"/>
<path d="M0 0 C1.32 0.66 2.64 1.32 4 2 C3.48967606 5.77639718 2.79233071 7.44722581 0 10 C0.37253906 10.69867188 0.74507812 11.39734375 1.12890625 12.1171875 C1.60199219 13.02726562 2.07507813 13.93734375 2.5625 14.875 C3.03816406 15.77992187 3.51382813 16.68484375 4.00390625 17.6171875 C4.49697266 18.79667969 4.49697266 18.79667969 5 20 C4.67 20.66 4.34 21.32 4 22 C3.34 22 2.68 22 2 22 C2 22.66 2 23.32 2 24 C2.99 23.67 3.98 23.34 5 23 C6.94897488 28.84692464 7.75583778 35.29377818 5.9375 41.25 C4.84404621 45.62381518 5.69987192 47.77458374 7 52 C6.1875 54.25 6.1875 54.25 5 56 C4.06236007 58.8129198 3.74449208 61.06609507 3.5 64 C3.25550792 66.93390493 2.93763993 69.1870802 2 72 C2.350625 72.94875 2.70125 73.8975 3.0625 74.875 C4.18556605 78.6185535 3.42825469 79.5186292 2 83 C2.77227173 85.76740335 2.77227173 85.76740335 4 88 C3.01 88.495 3.01 88.495 2 89 C1.01 88.01 1.01 88.01 0 87 C-1.98821313 86.60235737 -3.98944339 86.26224651 -6 86 C-6.33 84.68 -6.66 83.36 -7 82 C-7.99 82.33 -8.98 82.66 -10 83 C-10.99 82.34 -11.98 81.68 -13 81 C-13.99 81.495 -13.99 81.495 -15 82 C-16.485 81.505 -16.485 81.505 -18 81 C-18.33 81.66 -18.66 82.32 -19 83 C-20.65 82.34 -22.3 81.68 -24 81 C-24 80.34 -24 79.68 -24 79 C-24.598125 78.896875 -25.19625 78.79375 -25.8125 78.6875 C-28.33391022 77.89505679 -29.19465768 76.88056492 -31 75 C-31.66 74.731875 -32.32 74.46375 -33 74.1875 C-36.04968849 72.37674746 -36.80199178 70.27875933 -38 67 C-37.6875 63.625 -37.6875 63.625 -37 61 C-37.99 60.67 -38.98 60.34 -40 60 C-39.34 58.02 -38.68 56.04 -38 54 C-38.66 54 -39.32 54 -40 54 C-40.12375 53.030625 -40.2475 52.06125 -40.375 51.0625 C-40.58125 50.051875 -40.7875 49.04125 -41 48 C-41.66 47.67 -42.32 47.34 -43 47 C-42.835 46.236875 -42.67 45.47375 -42.5 44.6875 C-41.90854604 41.96403764 -41.90854604 41.96403764 -42 39 C-41.34 39 -40.68 39 -40 39 C-39.731875 38.030625 -39.46375 37.06125 -39.1875 36.0625 C-38.5996875 34.5465625 -38.5996875 34.5465625 -38 33 C-36.515 32.505 -36.515 32.505 -35 32 C-34.34 31.01 -33.68 30.02 -33 29 C-32.34 29 -31.68 29 -31 29 C-31 28.01 -31 27.02 -31 26 C-28.75 24.4375 -28.75 24.4375 -26 23 C-25.278125 22.608125 -24.55625 22.21625 -23.8125 21.8125 C-22 21 -22 21 -20 21 C-19.7525 20.195625 -19.505 19.39125 -19.25 18.5625 C-18 16 -18 16 -15.875 15.1875 C-15.25625 15.125625 -14.6375 15.06375 -14 15 C-14 15.99 -14 16.98 -14 18 C-13.34 18 -12.68 18 -12 18 C-11.731875 17.071875 -11.46375 16.14375 -11.1875 15.1875 C-10.06158049 12.165295 -9.48806924 10.91389941 -7 9 C-5.9790625 8.5978125 -5.9790625 8.5978125 -4.9375 8.1875 C-2.06642305 6.42780767 -1.86972903 4.14440495 -1 1 C-0.67 0.67 -0.34 0.34 0 0 Z " fill="#FFCDCB" transform="translate(239,19)"/>
<path d="M0 0 C2.98946888 0.45877333 5.97875301 0.91868215 8.96777344 1.38037109 C11.74615062 1.80886548 14.52556642 2.22979478 17.30566406 2.64697266 C21.1304699 3.22327539 24.95068444 3.82521155 28.76953125 4.43969727 C30.35650074 4.69086874 31.94478197 4.93387226 33.53417969 5.16918945 C35.86249144 5.51539888 38.18481628 5.88948229 40.5078125 6.26953125 C41.21712921 6.36869339 41.92644592 6.46785553 42.65725708 6.57002258 C46.08772187 7.16018046 47.69925959 7.62920378 49.92529297 10.3737793 C54.33357193 21.14612295 53.12678691 37.11016915 49.8515625 48.09375 C49 50 49 50 47 51 C45.40116522 51.24262827 43.79530956 51.4398179 42.1875 51.61328125 C41.20241455 51.72502686 40.2173291 51.83677246 39.20239258 51.9519043 C38.14560303 52.07090088 37.08881348 52.18989746 36 52.3125 C27.40348255 53.32033203 19.026202 54.64862487 10.62304688 56.72973633 C7.00015579 57.61855805 3.73627779 58.21039234 0 58 C0.2165625 57.14664063 0.433125 56.29328125 0.65625 55.4140625 C4.72654742 37.13541203 4.36054834 18.17656941 0 0 Z " fill="#4A2567" transform="translate(268,171)"/>
<path d="M0 0 C0.33 0 0.66 0 1 0 C1.05786668 3.79160297 1.09355054 7.58309311 1.125 11.375 C1.14175781 12.45523438 1.15851563 13.53546875 1.17578125 14.6484375 C1.18222656 15.6796875 1.18867188 16.7109375 1.1953125 17.7734375 C1.20578613 18.72653809 1.21625977 19.67963867 1.22705078 20.66162109 C1 23 1 23 -1 25 C-1.99 25 -2.98 25 -4 25 C-5.6825613 26.31321858 -7.34997172 27.64613064 -9 29 C-9.66 29 -10.32 29 -11 29 C-12.90852313 30.59043594 -13.92948448 31.84016482 -14.9375 34.125 C-15.288125 34.74375 -15.63875 35.3625 -16 36 C-17.32594105 36.36162029 -18.65938457 36.69728039 -20 37 C-20.33 37.99 -20.66 38.98 -21 40 C-21.639375 40.598125 -22.27875 41.19625 -22.9375 41.8125 C-25.23203224 43.88886821 -25.23203224 43.88886821 -25.75 47 C-27.37831023 50.90794456 -29.2109304 51.60873614 -32.97265625 53.26171875 C-35.29131291 54.10608505 -37.56841556 54.59473593 -40 55 C-42.23408113 55.99083967 -42.23408113 55.99083967 -44 57 C-44 56.34 -44 55.68 -44 55 C-45.093125 55.66 -46.18625 56.32 -47.3125 57 C-49.93707538 58.58464929 -50.8256378 59 -54 59 C-54.33 59.99 -54.66 60.98 -55 62 C-55.99 62 -56.98 62 -58 62 C-60.9952413 63.02276532 -62.7448078 63.7448078 -65 66 C-66.485 66.495 -66.485 66.495 -68 67 C-69.18519265 69.43276386 -70 71.28017286 -70 74 C-69.34 74.33 -68.68 74.66 -68 75 C-66.76977472 77.69111779 -65.90882621 80.33213308 -65.125 83.1875 C-63.77695284 86.5576179 -63.15933045 86.55573465 -60 88 C-58.19030549 89.90765518 -56.62374767 91.92521132 -55 94 C-56.65 94 -58.3 94 -60 94 C-60.33 94.99 -60.66 95.98 -61 97 C-61.66 96.34 -62.32 95.68 -63 95 C-65.06874034 94.3574765 -65.06874034 94.3574765 -67 94 C-67.33 94.99 -67.66 95.98 -68 97 C-68.59167969 96.33613281 -69.18335938 95.67226562 -69.79296875 94.98828125 C-70.58316406 94.10527344 -71.37335938 93.22226563 -72.1875 92.3125 C-73.00347656 91.39855469 -73.81945312 90.48460937 -74.66015625 89.54296875 C-76.42586869 87.62397242 -78.19025882 85.86243047 -80.125 84.125 C-81.053125 83.073125 -81.053125 83.073125 -82 82 C-81.6875 80.125 -81.6875 80.125 -81 78 C-81.33 76.865625 -81.66 75.73125 -82 74.5625 C-83.43575672 69.4476167 -82.41436664 66.54469014 -80 62 C-79.731875 61.175 -79.46375 60.35 -79.1875 59.5 C-77.40892096 55.75562306 -74.92313906 53.77081282 -71.0703125 52.2265625 C-69.69096516 51.74248966 -68.30942941 51.26460777 -66.92578125 50.79296875 C-64.22459772 49.68071671 -62.23445577 47.85140621 -60 46 C-59.01 46 -58.02 46 -57 46 C-56.34 45.34 -55.68 44.68 -55 44 C-52 43 -52 43 -49 44 C-46.30305165 42.89858275 -46.30305165 42.89858275 -44 41 C-43.3185177 39.10820797 -43.3185177 39.10820797 -43 37 C-42.03114628 35.31503702 -41.03013277 33.64821244 -40 32 C-39.62875 31.2575 -39.2575 30.515 -38.875 29.75 C-37.66414198 27.32828396 -36.80616317 26.8594683 -34.5 25.1875 C-31.99694739 22.99732896 -31.34399812 22.21064909 -31 19 C-30.01 19.33 -29.02 19.66 -28 20 C-27.9175 19.38125 -27.835 18.7625 -27.75 18.125 C-27 16 -27 16 -25.125 14.875 C-24.42375 14.58625 -23.7225 14.2975 -23 14 C-20.26557741 12.1770516 -18.27203348 10.34532488 -16 8 C-14.09276551 6.09276551 -12.22002394 4.52626646 -10 3 C-9.34 3 -8.68 3 -8 3 C-7.67 2.34 -7.34 1.68 -7 1 C-4.69 1.33 -2.38 1.66 0 2 C0 1.34 0 0.68 0 0 Z " fill="#FEFEF2" transform="translate(399,57)"/>
<path d="M0 0 C0.99 0.33 1.98 0.66 3 1 C3.33 1.99 3.66 2.98 4 4 C5.65 3.67 7.3 3.34 9 3 C9.33 3.99 9.66 4.98 10 6 C11.0828125 5.690625 11.0828125 5.690625 12.1875 5.375 C16.2883569 4.82821908 18.84069637 6.40548532 22.4375 8.25 C25.85606241 9.25055485 27.77975248 8.34801059 31 7 C31.639375 8.11375 32.27875 9.2275 32.9375 10.375 C35.14601456 13.49327198 36.69571533 14.54770955 40.4375 15.3125 C41.95779308 15.54522373 43.4786027 15.77460781 45 16 C47.01089078 16.63305821 49.01463373 17.29094062 51 18 C51.99 18.33 52.98 18.66 54 19 C54.495 20.485 54.495 20.485 55 22 C55.99 21.67 56.98 21.34 58 21 C58.2475 21.61875 58.495 22.2375 58.75 22.875 C60.24624309 25.41861325 61.31072677 25.8926522 64 27 C66.89449478 28.31567944 68.85485103 29.64033613 71 32 C70.67 32.33 70.34 32.66 70 33 C71.36125 33.61875 71.36125 33.61875 72.75 34.25 C75.83065057 35.90881185 77.80618395 37.29991871 80 40 C80 40.99 80 41.98 80 43 C71.18575308 43.06946967 62.37160022 43.12279566 53.5571394 43.15543652 C49.46434557 43.17110146 45.37173886 43.19235458 41.27905273 43.22631836 C37.33035248 43.25888267 33.38183235 43.27684677 29.43300819 43.28463173 C27.92548092 43.29018054 26.41796364 43.30101595 24.91051292 43.31719017 C22.80104541 43.3389263 20.69232491 43.34196864 18.58276367 43.34057617 C17.38141281 43.34723801 16.18006195 43.35389984 14.94230652 43.36076355 C12 43 12 43 10.16670227 41.63496399 C8.64251488 39.49903646 7.75389603 37.51298677 7 35 C7.33 34.01 7.66 33.02 8 32 C7.34 31.67 6.68 31.34 6 31 C6 30.01 6 29.02 6 28 C5.34 28 4.68 28 4 28 C3.67 26.68 3.34 25.36 3 24 C2.01 24 1.02 24 0 24 C-3.2352275 21.20740313 -5.65407402 18.16132294 -6.875 14.0625 C-6.91625 13.381875 -6.9575 12.70125 -7 12 C-6.01 12 -5.02 12 -4 12 C-4 12.66 -4 13.32 -4 14 C-2.35 14.33 -0.7 14.66 1 15 C1 14.34 1 13.68 1 13 C1.66 13 2.32 13 3 13 C2.5359375 11.9790625 2.5359375 11.9790625 2.0625 10.9375 C0.78838259 7.41494009 0 3.77212424 0 0 Z M-4 16 C-3 18 -3 18 -3 18 Z " fill="#FEFEED" transform="translate(205,357)"/>
<path d="M0 0 C1.2065625 0.0309375 1.2065625 0.0309375 2.4375 0.0625 C2.7675 1.0525 3.0975 2.0425 3.4375 3.0625 C2.7775 3.0625 2.1175 3.0625 1.4375 3.0625 C1.9325 3.92875 2.4275 4.795 2.9375 5.6875 C4.4852761 9.16999623 4.70552896 11.31009458 4.4375 15.0625 C5.7575 14.4025 7.0775 13.7425 8.4375 13.0625 C8.4375 14.0525 8.4375 15.0425 8.4375 16.0625 C9.7575 16.7225 11.0775 17.3825 12.4375 18.0625 C12.4375 18.7225 12.4375 19.3825 12.4375 20.0625 C13.0975 20.7225 13.7575 21.3825 14.4375 22.0625 C13.4475 24.5375 13.4475 24.5375 12.4375 27.0625 C13.0975 27.3925 13.7575 27.7225 14.4375 28.0625 C14.1075 28.7225 13.7775 29.3825 13.4375 30.0625 C12.7775 30.0625 12.1175 30.0625 11.4375 30.0625 C11.57845064 31.6879308 11.72542087 33.31284051 11.875 34.9375 C11.95621094 35.84242187 12.03742188 36.74734375 12.12109375 37.6796875 C12.30739285 40.07360861 12.30739285 40.07360861 13.4375 42.0625 C12.4475 42.0625 11.4575 42.0625 10.4375 42.0625 C10.623125 42.784375 10.80875 43.50625 11 44.25 C11.87777606 49.89284609 9.54881824 55.66613249 8.15625 61.125 C5.59697414 71.58464916 5.70485343 81.64428493 8.4375 92.0625 C8.4375 95.0625 8.4375 95.0625 6.4375 98.0625 C5.7775 98.0625 5.1175 98.0625 4.4375 98.0625 C5.0975 101.0325 5.7575 104.0025 6.4375 107.0625 C9.4075 106.0725 9.4075 106.0725 12.4375 105.0625 C13.4275 106.7125 14.4175 108.3625 15.4375 110.0625 C14.7775 110.0625 14.1175 110.0625 13.4375 110.0625 C13.1075 110.7225 12.7775 111.3825 12.4375 112.0625 C13.32913577 114.17933841 13.32913577 114.17933841 14.4375 116.0625 C15.4275 116.0625 16.4175 116.0625 17.4375 116.0625 C18.4275 115.0725 18.4275 115.0725 19.4375 114.0625 C20.0975 115.3825 20.7575 116.7025 21.4375 118.0625 C22.4275 118.0625 23.4175 118.0625 24.4375 118.0625 C24.128125 118.660625 23.81875 119.25875 23.5 119.875 C22.33540296 122.15206772 22.33540296 122.15206772 21.4375 125.0625 C20.4475 125.0625 19.4575 125.0625 18.4375 125.0625 C18.4375 125.7225 18.4375 126.3825 18.4375 127.0625 C17.014375 127.2790625 17.014375 127.2790625 15.5625 127.5 C12.5440506 127.89185399 12.5440506 127.89185399 10.4375 129.0625 C10.4375 128.4025 10.4375 127.7425 10.4375 127.0625 C3.85566638 126.1693493 -1.98400508 126.10755719 -8.5625 127.0625 C-8.5625 123.0625 -8.5625 123.0625 -7.5625 120.0625 C-6.0775 119.5675 -6.0775 119.5675 -4.5625 119.0625 C-4.8925 118.4025 -5.2225 117.7425 -5.5625 117.0625 C-4.0775 116.0725 -4.0775 116.0725 -2.5625 115.0625 C-2.27375 114.381875 -1.985 113.70125 -1.6875 113 C-0.5625 111.0625 -0.5625 111.0625 2.0625 110.3125 C2.84625 110.23 3.63 110.1475 4.4375 110.0625 C3.72186734 108.0462767 3.72186734 108.0462767 2.4375 106.0625 C0.41286745 105.41036708 0.41286745 105.41036708 -1.5625 105.0625 C-1.8925 104.4025 -2.2225 103.7425 -2.5625 103.0625 C-3.2225 102.4025 -3.8825 101.7425 -4.5625 101.0625 C-5.27484806 98.28434257 -5.5625 95.93878285 -5.5625 93.0625 C-5.87338368 91.39150023 -6.20330332 89.72378463 -6.5625 88.0625 C-5.9025 88.0625 -5.2425 88.0625 -4.5625 88.0625 C-4.7275 87.485 -4.8925 86.9075 -5.0625 86.3125 C-5.5625 84.0625 -5.5625 84.0625 -5.5625 80.0625 C-5.8925 79.4025 -6.2225 78.7425 -6.5625 78.0625 C-6.22265625 76.109375 -6.22265625 76.109375 -5.625 73.8125 C-4.90297637 70.86265344 -4.56903415 68.70312189 -4.625 65.625 C-4.604375 64.779375 -4.58375 63.93375 -4.5625 63.0625 C-3.5725 62.4025 -2.5825 61.7425 -1.5625 61.0625 C-1.7790625 59.144375 -1.7790625 59.144375 -2 57.1875 C-2.08121094 56.46820313 -2.16242188 55.74890625 -2.24609375 55.0078125 C-2.47542961 52.98845684 -2.47542961 52.98845684 -3.5625 51.0625 C-3.2325 50.134375 -2.9025 49.20625 -2.5625 48.25 C-0.77840462 42.65983448 -1.92543791 36.78744983 -2.5625 31.0625 C-3.5525 31.0625 -4.5425 31.0625 -5.5625 31.0625 C-5.5625 30.4025 -5.5625 29.7425 -5.5625 29.0625 C-4.9025 29.0625 -4.2425 29.0625 -3.5625 29.0625 C-4.19932842 26.07275814 -5.19485047 23.63376757 -6.625 20.9375 C-8.5625 17.28314057 -8.5625 17.28314057 -8.5625 15.0625 C-7.9025 15.0625 -7.2425 15.0625 -6.5625 15.0625 C-5.27473847 12.28424544 -5.27473847 12.28424544 -4.5625 9.0625 C-5.80598469 6.67944804 -5.80598469 6.67944804 -7.5625 5.0625 C-6.9025 5.0625 -6.2425 5.0625 -5.5625 5.0625 C-5.253125 4.423125 -4.94375 3.78375 -4.625 3.125 C-3.05351796 0.07447605 -3.05351796 0.07447605 0 0 Z " fill="#FFE0C8" transform="translate(246.5625,11.9375)"/>
<path d="M0 0 C0.66 0.33 1.32 0.66 2 1 C2 1.66 2 2.32 2 3 C3.65 3.33 5.3 3.66 7 4 C7 3.34 7 2.68 7 2 C7.99 2 8.98 2 10 2 C10.33 1.34 10.66 0.68 11 0 C11.66 1.98 12.32 3.96 13 6 C14.32 6 15.64 6 17 6 C18.2375 7.2684375 18.2375 7.2684375 19.5 8.5625 C20.7375 9.7690625 20.7375 9.7690625 22 11 C24.27523089 10.95502158 24.27523089 10.95502158 26 10 C26 10.99 26 11.98 26 13 C26.66 13.33 27.32 13.66 28 14 C27.67 14.66 27.34 15.32 27 16 C27.66 16.33 28.32 16.66 29 17 C29.72159424 18.64363134 30.39351421 20.31050386 31 22 C31.66 22 32.32 22 33 22 C33.12375 22.61875 33.2475 23.2375 33.375 23.875 C33.87197356 26.19120832 33.87197356 26.19120832 36 28 C36 29.32 36 30.64 36 32 C33.06195004 32.08086376 30.12611925 32.1404283 27.1875 32.1875 C26.35412109 32.21263672 25.52074219 32.23777344 24.66210938 32.26367188 C23.45844727 32.27817383 23.45844727 32.27817383 22.23046875 32.29296875 C21.49207764 32.3086792 20.75368652 32.32438965 19.99291992 32.34057617 C17.4286127 31.90235388 16.60716681 31.00380638 15 29 C13.75 26.5 13.75 26.5 13 24 C13.33 23.01 13.66 22.02 14 21 C13.34 20.67 12.68 20.34 12 20 C12 19.01 12 18.02 12 17 C11.34 17 10.68 17 10 17 C9.67 15.68 9.34 14.36 9 13 C8.01 13 7.02 13 6 13 C2.79134491 10.23034001 0.37641083 7.15432655 -0.9375 3.125 C-0.958125 2.42375 -0.97875 1.7225 -1 1 C-0.67 0.67 -0.34 0.34 0 0 Z M2 5 C3 7 3 7 3 7 Z " fill="#FEEEE6" transform="translate(199,368)"/>
<path d="M0 0 C5.28 0 10.56 0 16 0 C16 0.66 16 1.32 16 2 C16.66 2 17.32 2 18 2 C18 2.99 18 3.98 18 5 C18.66 4.34 19.32 3.68 20 3 C19.08695652 9.65217391 19.08695652 9.65217391 18.3125 12.75 C17.70732241 15.28019785 17.70732241 15.28019785 20 18 C19.67 18.99 19.34 19.98 19 21 C19.20625 21.5775 19.4125 22.155 19.625 22.75 C20.22356769 26.34140616 18.55589987 28.76372827 17 32 C14.21510722 30.60755361 12.87698471 28.44008012 11 26 C9.02 26.99 9.02 26.99 7 28 C7.04125 26.96875 7.0825 25.9375 7.125 24.875 C7.00367821 21.11402455 6.19990205 18.51971267 5 15 C5.33 14.01 5.66 13.02 6 12 C1.17557816 13.26946514 1.17557816 13.26946514 -2 17 C-2.66 17 -3.32 17 -4 17 C-4.33 17.66 -4.66 18.32 -5 19 C-5.66 19 -6.32 19 -7 19 C-8 16 -8 16 -7.25 13.875 C-6 12 -6 12 -3 11 C-2.34 10.01 -1.68 9.02 -1 8 C1.125 6.8125 1.125 6.8125 3 6 C1.68 5.34 0.36 4.68 -1 4 C-0.67 2.68 -0.34 1.36 0 0 Z " fill="#FFE7D5" transform="translate(243,0)"/>
<path d="M0 0 C0.99 0.33 1.98 0.66 3 1 C2.01 1.495 2.01 1.495 1 2 C4.3 2 7.6 2 11 2 C11 2.99 11 3.98 11 5 C11.33 4.01 11.66 3.02 12 2 C16.875 2.875 16.875 2.875 18 4 C18.33 3.34 18.66 2.68 19 2 C29 2 29 2 30.875 2.5625 C33.2667793 3.05492515 34.70012027 2.73924706 37 2 C37.495 2.99 37.495 2.99 38 4 C38.33 3.34 38.66 2.68 39 2 C40.98 2 42.96 2 45 2 C45 2.99 45 3.98 45 5 C43.68 5.33 42.36 5.66 41 6 C41 6.66 41 7.32 41 8 C40.34 8 39.68 8 39 8 C39 8.33 39 8.66 39 9 C39.66 9.33 40.32 9.66 41 10 C40.67 11.65 40.34 13.3 40 15 C40.66 15 41.32 15 42 15 C42 13.35 42 11.7 42 10 C42.33 10 42.66 10 43 10 C43 11.98 43 13.96 43 16 C40.69 16 38.38 16 36 16 C36 16.66 36 17.32 36 18 C35.34 18 34.68 18 34 18 C34 17.34 34 16.68 34 16 C31.525 15.505 31.525 15.505 29 15 C29 13.68 29 12.36 29 11 C28.67 12.65 28.34 14.3 28 16 C22 16 16 16 10 16 C10 12 10 12 12 10 C12 9.34 12 8.68 12 8 C7.8803623 6.70756464 4.33168317 5.73747375 0 6 C-0.38218767 4.34385343 -0.71395102 2.67542976 -1 1 C-0.67 0.67 -0.34 0.34 0 0 Z " fill="#FCFAE8" transform="translate(293,149)"/>
<path d="M0 0 C1.3921875 0.2784375 1.3921875 0.2784375 2.8125 0.5625 C6.01343771 1.24123881 6.01343771 1.24123881 9 0 C9.99 1.65 10.98 3.3 12 5 C11.34 5 10.68 5 10 5 C9.67 5.66 9.34 6.32 9 7 C9.89163577 9.11683841 9.89163577 9.11683841 11 11 C11.99 11 12.98 11 14 11 C14.66 10.34 15.32 9.68 16 9 C16.66 10.32 17.32 11.64 18 13 C18.99 13 19.98 13 21 13 C20.690625 13.598125 20.38125 14.19625 20.0625 14.8125 C18.89790296 17.08956772 18.89790296 17.08956772 18 20 C17.01 20 16.02 20 15 20 C15 20.66 15 21.32 15 22 C13.576875 22.2165625 13.576875 22.2165625 12.125 22.4375 C9.1065506 22.82935399 9.1065506 22.82935399 7 24 C7 23.34 7 22.68 7 22 C0.41816638 21.1068493 -5.42150508 21.04505719 -12 22 C-12 18 -12 18 -11 15 C-10.01 14.67 -9.02 14.34 -8 14 C-8.33 13.34 -8.66 12.68 -9 12 C-8.01 11.34 -7.02 10.68 -6 10 C-5.71125 9.319375 -5.4225 8.63875 -5.125 7.9375 C-4 6 -4 6 -1.375 5.25 C-0.199375 5.12625 -0.199375 5.12625 1 5 C0.67 3.35 0.34 1.7 0 0 Z " fill="#FCECDF" transform="translate(250,117)"/>
<path d="M0 0 C1.4606285 2.64738916 2 3.89448334 2 7 C3.32 6.67 4.64 6.34 6 6 C6 9.11257569 5.82638376 11.10765685 5 14 C5.99 13.67 6.98 13.34 8 13 C11.1875 13.9375 11.1875 13.9375 14 15 C14 15.99 14 16.98 14 18 C17.09718886 18.99552499 18.90271275 18.89921243 22 18 C25.02131474 18 27.13966342 18.0232997 30 19 C31.3726682 20.97321053 32.70427617 22.97543152 34 25 C36.53188648 26.75322937 36.53188648 26.75322937 39 28 C40.96317377 29.96317377 42.57053717 31.61756195 44 34 C43.6875 36.75 43.6875 36.75 43 39 C40.7740808 36.93307503 39.3638036 34.9427197 37.875 32.3125 C36.23330937 29.90805464 35.57360107 29.11182811 32.67578125 28.546875 C30.41189992 28.5610909 28.24181143 28.69230039 26 29 C25 25.125 25 25.125 25 24 C23.68 23.67 22.36 23.34 21 23 C20.67 23.66 20.34 24.32 20 25 C17 26 17 26 14.0625 24.625 C13.051875 24.08875 12.04125 23.5525 11 23 C8.76474965 22.31363375 8.76474965 22.31363375 7 22 C6.67 22.66 6.34 23.32 6 24 C4.86756424 22.61019248 3.74436881 21.21285323 2.625 19.8125 C1.99851563 19.03519531 1.37203125 18.25789063 0.7265625 17.45703125 C-2.50735207 12.85492206 -3.34821407 8.54018041 -4 3 C-2.68 2.01 -1.36 1.02 0 0 Z " fill="#FFFEFA" transform="translate(219,327)"/>
<path d="M0 0 C0.33 0.99 0.66 1.98 1 3 C0.67 3.33 0.34 3.66 0 4 C0.33 4.66 0.66 5.32 1 6 C-1.31 6 -3.62 6 -6 6 C-5.67 6.99 -5.34 7.98 -5 9 C-2.525 9.495 -2.525 9.495 0 10 C0.33 9.34 0.66 8.68 1 8 C1 8.66 1 9.32 1 10 C1.66 10 2.32 10 3 10 C3 9.34 3 8.68 3 8 C3.66 8.33 4.32 8.66 5 9 C5.33 9.99 5.66 10.98 6 12 C8.00016466 13.20882096 8.00016466 13.20882096 10 14 C9.3125 16.4375 9.3125 16.4375 8 19 C3.84837521 20.72984366 1.0817815 19.41975009 -3 18 C-3.99 18.33 -4.98 18.66 -6 19 C-6.66 18.01 -7.32 17.02 -8 16 C-8.66 16 -9.32 16 -10 16 C-10.33 16.66 -10.66 17.32 -11 18 C-11.433125 17.505 -11.86625 17.01 -12.3125 16.5 C-13.99740483 14.66781808 -13.99740483 14.66781808 -17 15 C-19.1875 12.5 -19.1875 12.5 -21 10 C-20.34 10 -19.68 10 -19 10 C-18.67 9.01 -18.34 8.02 -18 7 C-18 7.99 -18 8.98 -18 10 C-17.34 10 -16.68 10 -16 10 C-16 10.66 -16 11.32 -16 12 C-15.34 12 -14.68 12 -14 12 C-14 11.34 -14 10.68 -14 10 C-11 9 -11 9 -10 9 C-9.67 7.35 -9.34 5.7 -9 4 C-9.99 3.67 -10.98 3.34 -12 3 C-12.33 2.01 -12.66 1.02 -13 0 C-12.34 0 -11.68 0 -11 0 C-11 0.66 -11 1.32 -11 2 C-10.34 2 -9.68 2 -9 2 C-9 1.34 -9 0.68 -9 0 C-5.93109813 -1.53445094 -3.29905734 -0.54984289 0 0 Z " fill="#FEFDED" transform="translate(343,155)"/>
<path d="M0 0 C7.046875 -0.3203125 7.046875 -0.3203125 10 2 C12.49892355 7.35483617 11.79873234 10.60380297 10 16 C6.3962102 17.52160014 3.94779314 18 0 18 C0 17.34 0 16.68 0 16 C-0.99 16 -1.98 16 -3 16 C-5.09972674 12.58794404 -5.33083127 9.9699753 -5 6 C-4 3.625 -4 3.625 -3 2 C-2.01 2 -1.02 2 0 2 C0 1.34 0 0.68 0 0 Z " fill="#F8EAF1" transform="translate(244,191)"/>
<path d="M0 0 C4.54920976 1.13145011 7.361279 5.09194612 10.27734375 8.56640625 C8.55579587 12.33128667 6.28500261 14.71704522 3.27734375 17.56640625 C-0.85733043 15.97614695 -4.26635026 13.23886374 -6.72265625 9.56640625 C-7.2926319 6.65260549 -7.07928203 4.57225214 -6.72265625 1.56640625 C-4.88262374 -0.27362626 -2.4535289 0.00443676 0 0 Z " fill="#F3EEF4" transform="translate(293.72265625,190.43359375)"/>
<path d="M0 0 C10 0 10 0 11.875 0.5625 C14.2667793 1.05492515 15.70012027 0.73924706 18 0 C18.33 0.66 18.66 1.32 19 2 C19.33 1.34 19.66 0.68 20 0 C21.98 0 23.96 0 26 0 C26 0.99 26 1.98 26 3 C24.68 3.33 23.36 3.66 22 4 C22 4.66 22 5.32 22 6 C21.34 6 20.68 6 20 6 C20 6.33 20 6.66 20 7 C20.66 7.33 21.32 7.66 22 8 C21.67 9.65 21.34 11.3 21 13 C21.66 13 22.32 13 23 13 C23 11.35 23 9.7 23 8 C23.33 8 23.66 8 24 8 C24 9.98 24 11.96 24 14 C21.69 14 19.38 14 17 14 C17 14.66 17 15.32 17 16 C16.34 16 15.68 16 15 16 C15 15.34 15 14.68 15 14 C13.35 13.67 11.7 13.34 10 13 C10.875 8.125 10.875 8.125 12 7 C11.34 6.67 10.68 6.34 10 6 C10.33 5.34 10.66 4.68 11 4 C8.7915684 4 6.58280589 4.00993319 4.375 4.0625 C2 4 2 4 0 3 C0 2.01 0 1.02 0 0 Z " fill="#E9E1CA" transform="translate(312,151)"/>
<path d="M0 0 C0.99 0.33 1.98 0.66 3 1 C3 1.99 3 2.98 3 4 C3.33 3.67 3.66 3.34 4 3 C5.99958364 2.95919217 8.00045254 2.95745644 10 3 C9.67 5.97 9.34 8.94 9 12 C8.01 12 7.02 12 6 12 C6 10.68 6 9.36 6 8 C5.34 8 4.68 8 4 8 C3.67 9.98 3.34 11.96 3 14 C1.68 14 0.36 14 -1 14 C-1.33 13.01 -1.66 12.02 -2 11 C-2.33 12.65 -2.66 14.3 -3 16 C-4.32 16 -5.64 16 -7 16 C-8.33257403 6.58997722 -8.33257403 6.58997722 -7 2 C-4.03 2.495 -4.03 2.495 -1 3 C-0.67 2.01 -0.34 1.02 0 0 Z " fill="#FEF5E1" transform="translate(151,193)"/>
<path d="M0 0 C0.91007813 0.00902344 1.82015625 0.01804687 2.7578125 0.02734375 C3.45648438 0.03894531 4.15515625 0.05054687 4.875 0.0625 C4.545 2.7025 4.215 5.3425 3.875 8.0625 C5.195 7.4025 6.515 6.7425 7.875 6.0625 C8.865 7.5475 8.865 7.5475 9.875 9.0625 C9.875 8.4025 9.875 7.7425 9.875 7.0625 C10.865 7.0625 11.855 7.0625 12.875 7.0625 C12.545 8.0525 12.215 9.0425 11.875 10.0625 C10.45956585 10.25908808 9.04255969 10.44437546 7.625 10.625 C6.83609375 10.72941406 6.0471875 10.83382812 5.234375 10.94140625 C2.83968235 11.06431266 1.18004807 10.63876202 -1.125 10.0625 C-3.49541609 10.15253157 -3.49541609 10.15253157 -5.875 10.5 C-6.67421875 10.60183594 -7.4734375 10.70367187 -8.296875 10.80859375 C-8.90015625 10.89238281 -9.5034375 10.97617188 -10.125 11.0625 C-10.125 7.0625 -10.125 7.0625 -9.125 4.0625 C-8.135 3.7325 -7.145 3.4025 -6.125 3.0625 C-6.455 2.4025 -6.785 1.7425 -7.125 1.0625 C-4.60024538 -0.19987731 -2.81299534 -0.03606404 0 0 Z " fill="#FBE3E4" transform="translate(248.125,127.9375)"/>
<path d="M0 0 C0.99 0.66 1.98 1.32 3 2 C3 2.66 3 3.32 3 4 C5.475 4.99 5.475 4.99 8 6 C8.125 8.375 8.125 8.375 8 11 C6 13 6 13 3 13.25 C0 13 0 13 -2 11 C-1.6875 8.625 -1.6875 8.625 -1 6 C-0.814375 5.236875 -0.62875 4.47375 -0.4375 3.6875 C-0.293125 3.130625 -0.14875 2.57375 0 2 C-0.66 2 -1.32 2 -2 2 C-1.67 2.99 -1.34 3.98 -1 5 C-1.6875 7.625 -1.6875 7.625 -3 10 C-5.125 10.8125 -5.125 10.8125 -7 11 C-9.15502531 7.76746204 -9.46856135 6.74849077 -9 3 C-6.72678821 -0.66239677 -4.03980218 -0.42081273 0 0 Z " fill="#FEEEEC" transform="translate(200,193)"/>
<path d="M0 0 C4.95 0 9.9 0 15 0 C14.01 1.32 13.02 2.64 12 4 C10.7625 3.9690625 10.7625 3.9690625 9.5 3.9375 C8.675 3.958125 7.85 3.97875 7 4 C5.28288757 6.44496043 5.28288757 6.44496043 4 9 C3.34 9 2.68 9 2 9 C1.34 10.32 0.68 11.64 0 13 C-1.65 12.67 -3.3 12.34 -5 12 C-4.67 11.01 -4.34 10.02 -4 9 C-3.360625 8.855625 -2.72125 8.71125 -2.0625 8.5625 C0.20311706 8.19895007 0.20311706 8.19895007 1.25 5.9375 C1.4975 5.298125 1.745 4.65875 2 4 C1.34 3.67 0.68 3.34 0 3 C0 2.01 0 1.02 0 0 Z " fill="#FFE2DE" transform="translate(222,0)"/>
<path d="M0 0 C0.99 0.66 1.98 1.32 3 2 C3 6 3 6 2 8 C1.34 8 0.68 8 0 8 C-0.33 8.99 -0.66 9.98 -1 11 C-1.99 11.33 -2.98 11.66 -4 12 C-4 11.34 -4 10.68 -4 10 C-6.46326712 8.3553326 -6.46326712 8.3553326 -9 7 C-9.33 7.66 -9.66 8.32 -10 9 C-10.99 8.01 -11.98 7.02 -13 6 C-12.67 5.34 -12.34 4.68 -12 4 C-11.01 4 -10.02 4 -9 4 C-8.34 3.835 -7.68 3.67 -7 3.5 C-5 3 -5 3 -2 3 C-1.34 2.01 -0.68 1.02 0 0 Z " fill="#FFFFFA" transform="translate(371,182)"/>
<path d="M0 0 C3.75 0.1875 3.75 0.1875 7 1 C7.33 2.32 7.66 3.64 8 5 C9.32 5.33 10.64 5.66 12 6 C11.01 6.99 10.02 7.98 9 9 C6.525 8.01 6.525 8.01 4 7 C3.67 7.66 3.34 8.32 3 9 C1 9 1 9 -0.5 7.5625 C-0.995 7.046875 -1.49 6.53125 -2 6 C-2.66 5.67 -3.32 5.34 -4 5 C-2.4375 2.4375 -2.4375 2.4375 0 0 Z " fill="#FFCCE2" transform="translate(168,380)"/>
<path d="M0 0 C2 3.75 2 3.75 2 6 C0.46279297 5.87431641 0.46279297 5.87431641 -1.10546875 5.74609375 C-2.46611879 5.64287202 -3.82679746 5.54002735 -5.1875 5.4375 C-5.86103516 5.38142578 -6.53457031 5.32535156 -7.22851562 5.26757812 C-11.017131 4.99036237 -14.31827794 5.03488839 -18 6 C-18.33 4.68 -18.66 3.36 -19 2 C-14.18072711 0.3935757 -9.84934619 0.78766345 -5 2 C-4.01 1.67 -3.02 1.34 -2 1 C-1.34 1.33 -0.68 1.66 0 2 C0 1.34 0 0.68 0 0 Z " fill="#BE988F" transform="translate(222,133)"/>
<path d="M0 0 C0.66 0 1.32 0 2 0 C2 2.31 2 4.62 2 7 C-1.96 7 -5.92 7 -10 7 C-10 6.34 -10 5.68 -10 5 C-10.66 5 -11.32 5 -12 5 C-12 5.66 -12 6.32 -12 7 C-12.66 7 -13.32 7 -14 7 C-13.67 5.35 -13.34 3.7 -13 2 C-11.68 1.67 -10.36 1.34 -9 1 C-9 1.66 -9 2.32 -9 3 C-4.545 2.505 -4.545 2.505 0 2 C0 1.34 0 0.68 0 0 Z " fill="#AC836E" transform="translate(60,199)"/>
<path d="M0 0 C3.89459074 0.21081851 3.89459074 0.21081851 7 -1 C7.33 0.65 7.66 2.3 8 4 C4.56043651 4.98273243 1.51035101 5.47198469 -2 4.375 C-4.60774518 3.88604778 -5.78020166 4.65226529 -8 6 C-9 3 -9 3 -8 0 C-4.71303767 -0.79953138 -3.28976808 -1.09658936 0 0 Z " fill="#B89185" transform="translate(212,125)"/>
<path d="M0 0 C0.99 0.66 1.98 1.32 3 2 C3 2.66 3 3.32 3 4 C2.34 4 1.68 4 1 4 C0.67 4.99 0.34 5.98 0 7 C-2.92079805 9.07530387 -4.37546731 10 -8 10 C-8 7.69 -8 5.38 -8 3 C-7.01 3 -6.02 3 -5 3 C-3.30280873 2.05273046 -1.63064764 1.05771739 0 0 Z M3 0 C3.99 0.495 3.99 0.495 5 1 C4.67 1.66 4.34 2.32 4 3 C3.67 2.01 3.34 1.02 3 0 Z " fill="#E4D0E9" transform="translate(8,21)"/>
<path d="M0 0 C0.66 0.66 1.32 1.32 2 2 C2.99 2.33 3.98 2.66 5 3 C5.66 3.66 6.32 4.32 7 5 C6.34 5 5.68 5 5 5 C5.33 6.32 5.66 7.64 6 9 C2.37 9 -1.26 9 -5 9 C-5 5.39222485 -4.0095568 3.93704456 -2 1 C-1.34 0.67 -0.68 0.34 0 0 Z " fill="#E7D3EA" transform="translate(23,15)"/>
<path d="M0 0 C6.02134944 0.68424425 8.91160897 2.70718941 13 7 C12.67 7.66 12.34 8.32 12 9 C9.03 9 6.06 9 3 9 C3.66 8.01 4.32 7.02 5 6 C3.35 5.67 1.7 5.34 0 5 C-0.33 4.01 -0.66 3.02 -1 2 C-0.67 1.34 -0.34 0.68 0 0 Z " fill="#EAD0EA" transform="translate(30,22)"/>
<path d="M0 0 C4 0 8 0 12 0 C12 1.65 12 3.3 12 5 C8 6 8 6 4 7 C3.34 5.35 2.68 3.7 2 2 C1.34 2.66 0.68 3.32 0 4 C0 2.68 0 1.36 0 0 Z " fill="#A57A60" transform="translate(67,190)"/>
<path d="M0 0 C0.66 0 1.32 0 2 0 C2 0.66 2 1.32 2 2 C2.7425 1.979375 3.485 1.95875 4.25 1.9375 C6.70462279 1.99328688 8.66109261 2.3069904 11 3 C11 3.99 11 4.98 11 6 C5 6 -1 6 -7 6 C-7 4.68 -7 3.36 -7 2 C-5.02 2 -3.04 2 -1 2 C-0.67 1.34 -0.34 0.68 0 0 Z " fill="#B89E86" transform="translate(310,159)"/>
<path d="M0 0 C0.66 0.33 1.32 0.66 2 1 C2.625 3.0625 2.625 3.0625 3 5 C2.67 4.34 2.34 3.68 2 3 C0.02 3.66 -1.96 4.32 -4 5 C-4 5.66 -4 6.32 -4 7 C-7.46153846 10 -7.46153846 10 -10 10 C-10.33 9.01 -10.66 8.02 -11 7 C-10.34 7 -9.68 7 -9 7 C-8.7525 6.21625 -8.505 5.4325 -8.25 4.625 C-7 2 -7 2 -5.0625 0.6875 C-3 0 -3 0 0 0 Z " fill="#F8C4EC" transform="translate(61,380)"/>
<path d="M0 0 C3.49234244 -0.09978121 6.59437148 0.22157062 10 1 C10 2.32 10 3.64 10 5 C5.38 5 0.76 5 -4 5 C-3.67 3.68 -3.34 2.36 -3 1 C-2.34 1.33 -1.68 1.66 -1 2 C-0.67 1.34 -0.34 0.68 0 0 Z " fill="#C39F98" transform="translate(192,295)"/>
<path d="M0 0 C1.79244141 0.01740234 1.79244141 0.01740234 3.62109375 0.03515625 C5.41740234 0.04869141 5.41740234 0.04869141 7.25 0.0625 C8.17683594 0.07410156 9.10367188 0.08570313 10.05859375 0.09765625 C9.39859375 1.74765625 8.73859375 3.39765625 8.05859375 5.09765625 C4.39192708 5.09765625 0.72526042 5.09765625 -2.94140625 5.09765625 C-3.50390625 3.16015625 -3.50390625 3.16015625 -3.94140625 1.09765625 C-2.94140625 0.09765625 -2.94140625 0.09765625 0 0 Z " fill="#B18875" transform="translate(43.94140625,189.90234375)"/>
<path d="M0 0 C0 1.32 0 2.64 0 4 C-4.29 4 -8.58 4 -13 4 C-13 3.01 -13 2.02 -13 1 C-8.56920804 -1.6256545 -4.84724834 -1.43622173 0 0 Z " fill="#CDAAA8" transform="translate(216,296)"/>
<path d="M0 0 C0.33 0.33 0.66 0.66 1 1 C2.32 1 3.64 1 5 1 C5 2.32 5 3.64 5 5 C1.7 5 -1.6 5 -5 5 C-5.33 4.34 -5.66 3.68 -6 3 C-6.66 3.66 -7.32 4.32 -8 5 C-8 3.68 -8 2.36 -8 1 C-5.32916926 -0.33541537 -2.92701445 0 0 0 Z " fill="#A17659" transform="translate(78,201)"/>
<path d="M0 0 C0.33 0.99 0.66 1.98 1 3 C1.33 2.34 1.66 1.68 2 1 C2.99 1.33 3.98 1.66 5 2 C5.33 2 5.66 2 6 2 C6.99 2 7.98 2 9 2 C8.67 2.99 8.34 3.98 8 5 C-1.41002278 6.33257403 -1.41002278 6.33257403 -6 5 C-6 4.01 -6 3.02 -6 2 C-2.25 0 -2.25 0 0 0 Z " fill="#B99C86" transform="translate(252,133)"/>
<path d="M0 0 C0.886875 0.309375 1.77375 0.61875 2.6875 0.9375 C5.46709155 1.8290671 8.13136375 2.49377007 11 3 C11 3.66 11 4.32 11 5 C11.99 5.33 12.98 5.66 14 6 C9.38 6 4.76 6 0 6 C0 4.02 0 2.04 0 0 Z " fill="#FFBCE1" transform="translate(125,394)"/>
<path d="M0 0 C0.66 0.66 1.32 1.32 2 2 C3.32392972 3.01241685 4.65599167 4.01439389 6 5 C5.67 5.66 5.34 6.32 5 7 C4.34 6.67 3.68 6.34 3 6 C2.01 6.99 1.02 7.98 0 9 C-1.32 8.34 -2.64 7.68 -4 7 C-3.6875 4.625 -3.6875 4.625 -3 2 C-2.01 1.34 -1.02 0.68 0 0 Z " fill="#FFFFFA" transform="translate(347,181)"/>
<path d="M0 0 C1.32 0 2.64 0 4 0 C4 3.3 4 6.6 4 10 C2.68 10 1.36 10 0 10 C-0.19412181 8.52168779 -0.38012131 7.04230684 -0.5625 5.5625 C-0.66691406 4.73878906 -0.77132812 3.91507813 -0.87890625 3.06640625 C-0.91886719 2.38449219 -0.95882812 1.70257813 -1 1 C-0.67 0.67 -0.34 0.34 0 0 Z " fill="#FEF9EB" transform="translate(144,199)"/>
<path d="M0 0 C4.33333333 0 8.66666667 0 13 0 C13 1.98 13 3.96 13 6 C12.01 6 11.02 6 10 6 C10.33 5.34 10.66 4.68 11 4 C8.7915684 4 6.58280589 4.00993319 4.375 4.0625 C2 4 2 4 0 3 C0 2.01 0 1.02 0 0 Z " fill="#BAA087" transform="translate(312,151)"/>
<path d="M0 0 C0.99 0.33 1.98 0.66 3 1 C3 2.32 3 3.64 3 5 C1.68 5 0.36 5 -1 5 C-1 6.65 -1 8.3 -1 10 C-1.99 10.495 -1.99 10.495 -3 11 C-3 9.35 -3 7.7 -3 6 C-4.32 5.67 -5.64 5.34 -7 5 C-7 4.01 -7 3.02 -7 2 C-4.03 2.495 -4.03 2.495 -1 3 C-0.67 2.01 -0.34 1.02 0 0 Z " fill="#FEE9B1" transform="translate(151,193)"/>
<path d="M0 0 C0.99 0 1.98 0 3 0 C3.33 0.66 3.66 1.32 4 2 C4.33 1.34 4.66 0.68 5 0 C6.98 0 8.96 0 11 0 C11 0.99 11 1.98 11 3 C9.68 3.33 8.36 3.66 7 4 C7 4.66 7 5.32 7 6 C6.34 6 5.68 6 5 6 C5 5.34 5 4.68 5 4 C3.02 4 1.04 4 -1 4 C-0.67 2.68 -0.34 1.36 0 0 Z " fill="#D5C5B0" transform="translate(327,151)"/>
<path d="M0 0 C0.99 0.33 1.98 0.66 3 1 C2.01 1.495 2.01 1.495 1 2 C4.3 2 7.6 2 11 2 C11 3.32 11 4.64 11 6 C7.37 6 3.74 6 0 6 C-0.33 4.35 -0.66 2.7 -1 1 C-0.67 0.67 -0.34 0.34 0 0 Z " fill="#BDA58D" transform="translate(293,149)"/>
<path d="M0 0 C0.99 0 1.98 0 3 0 C3 0.66 3 1.32 3 2 C4.32 2 5.64 2 7 2 C6.125 5.875 6.125 5.875 5 7 C2.5 7.125 2.5 7.125 0 7 C-1 6 -1 6 -1.125 3.5 C-1 1 -1 1 0 0 Z " fill="#CAA4A0" transform="translate(195,122)"/>
<path d="M0 0 C0 1.98 0 3.96 0 6 C-1.98 6 -3.96 6 -6 6 C-6.33 5.34 -6.66 4.68 -7 4 C-7.99 4.495 -7.99 4.495 -9 5 C-9 4.01 -9 3.02 -9 2 C-5.86501708 0.14223235 -3.62528568 -0.20140476 0 0 Z " fill="#CCA9A7" transform="translate(201,285)"/>
<path d="M0 0 C0.28875 0.804375 0.5775 1.60875 0.875 2.4375 C1.73262568 5.1326468 1.73262568 5.1326468 4 6 C3 7 3 7 0.75 7.4375 C-3.44858555 6.76954321 -4.54333585 4.3691394 -7 1 C-4.53721199 -0.231394 -2.7204945 -0.07159196 0 0 Z " fill="#FFFEF9" transform="translate(308,393)"/>
<path d="M0 0 C2.64 0 5.28 0 8 0 C9.125 3.75 9.125 3.75 8 6 C7.67 5.01 7.34 4.02 7 3 C6.67 3.99 6.34 4.98 6 6 C3.36 5.67 0.72 5.34 -2 5 C-1.34 3.35 -0.68 1.7 0 0 Z " fill="#BD978F" transform="translate(149,285)"/>
<path d="M0 0 C0.66 0 1.32 0 2 0 C2 0.66 2 1.32 2 2 C3.32 2 4.64 2 6 2 C6 3.32 6 4.64 6 6 C5.34 6 4.68 6 4 6 C4 6.66 4 7.32 4 8 C3.34 8 2.68 8 2 8 C2 7.34 2 6.68 2 6 C0.35 5.67 -1.3 5.34 -3 5 C-3 4.01 -3 3.02 -3 2 C-2.01 2 -1.02 2 0 2 C0 1.34 0 0.68 0 0 Z " fill="#C7B29C" transform="translate(325,159)"/>
<path d="M0 0 C7.57142857 4 7.57142857 4 10 8 C8.02 8.99 8.02 8.99 6 10 C6 9.34 6 8.68 6 8 C5.401875 7.95875 4.80375 7.9175 4.1875 7.875 C2 7 2 7 0.25 3.9375 C-0.1625 2.968125 -0.575 1.99875 -1 1 C-0.67 0.67 -0.34 0.34 0 0 Z " fill="#FFFFFA" transform="translate(292,384)"/>
<path d="M0 0 C1.4540625 0.0309375 1.4540625 0.0309375 2.9375 0.0625 C3.25 2.375 3.25 2.375 2.9375 5.0625 C0.4375 6.875 0.4375 6.875 -2.0625 8.0625 C-2.7225 5.7525 -3.3825 3.4425 -4.0625 1.0625 C-3.0625 0.0625 -3.0625 0.0625 0 0 Z " fill="#FFDAEE" transform="translate(128.0625,66.9375)"/>
<path d="M0 0 C1.65 0 3.3 0 5 0 C4.67 2.97 4.34 5.94 4 9 C3.01 9 2.02 9 1 9 C0.67 6.03 0.34 3.06 0 0 Z " fill="#FEFCF7" transform="translate(156,196)"/>
<path d="M0 0 C2.97 0 5.94 0 9 0 C8.67 1.32 8.34 2.64 8 4 C5.03 4 2.06 4 -1 4 C-0.67 2.68 -0.34 1.36 0 0 Z " fill="#C19D95" transform="translate(281,244)"/>
<path d="M0 0 C0.66 0 1.32 0 2 0 C2 0.66 2 1.32 2 2 C4.475 2.99 4.475 2.99 7 4 C6.34 5.65 5.68 7.3 5 9 C4.01 8.34 3.02 7.68 2 7 C2 6.34 2 5.68 2 5 C1.01 5.33 0.02 5.66 -1 6 C-1.042721 4.33388095 -1.04063832 2.66617115 -1 1 C-0.67 0.67 -0.34 0.34 0 0 Z " fill="#EED1EA" transform="translate(45,27)"/>
<path d="M0 0 C0.5775 0.165 1.155 0.33 1.75 0.5 C4.26664369 1.14462031 4.26664369 1.14462031 8 1 C7.67 2.32 7.34 3.64 7 5 C5.824375 4.9690625 5.824375 4.9690625 4.625 4.9375 C2.01885039 4.81315937 2.01885039 4.81315937 0 6 C0 4.02 0 2.04 0 0 Z " fill="#C29D97" transform="translate(176,286)"/>
<path d="M0 0 C2.4375 0.375 2.4375 0.375 5 1 C5.33 1.66 5.66 2.32 6 3 C6.66 2.67 7.32 2.34 8 2 C7.67 3.98 7.34 5.96 7 8 C5.68 7.67 4.36 7.34 3 7 C2.67 5.68 2.34 4.36 2 3 C0.68 3.33 -0.64 3.66 -2 4 C-1.34 2.68 -0.68 1.36 0 0 Z " fill="#FFFFFA" transform="translate(265,363)"/>
<path d="M0 0 C1.2065625 0.0309375 1.2065625 0.0309375 2.4375 0.0625 C2.4375 0.7225 2.4375 1.3825 2.4375 2.0625 C3.7575 1.4025 5.0775 0.7425 6.4375 0.0625 C7.0975 0.7225 7.7575 1.3825 8.4375 2.0625 C1.6875 4.0625 1.6875 4.0625 -0.5625 4.0625 C-0.8925 4.7225 -1.2225 5.3825 -1.5625 6.0625 C-2.2225 4.4125 -2.8825 2.7625 -3.5625 1.0625 C-2.5625 0.0625 -2.5625 0.0625 0 0 Z " fill="#FFC8E1" transform="translate(151.5625,382.9375)"/>
<path d="M0 0 C1.32 0 2.64 0 4 0 C7 3.21428571 7 3.21428571 7 6 C3.37471432 6.20140476 1.13498292 5.85776765 -2 4 C-2 3.34 -2 2.68 -2 2 C-1.34 2 -0.68 2 0 2 C0 1.34 0 0.68 0 0 Z " fill="#FFFFFA" transform="translate(284,379)"/>
<path d="M0 0 C2.64 0 5.28 0 8 0 C8.33 1.32 8.66 2.64 9 4 C6.36 4 3.72 4 1 4 C0.67 2.68 0.34 1.36 0 0 Z " fill="#C1AA93" transform="translate(337,161)"/>
<path d="M0 0 C2.97 0.495 2.97 0.495 6 1 C6 2.65 6 4.3 6 6 C4.33388095 6.042721 2.66617115 6.04063832 1 6 C0 5 0 5 -0.0625 2.4375 C-0.041875 1.633125 -0.02125 0.82875 0 0 Z " fill="#C7A39F" transform="translate(185,285)"/>
<path d="M0 0 C2.97 0 5.94 0 9 0 C9.33 1.32 9.66 2.64 10 4 C9.01 3.67 8.02 3.34 7 3 C5.66893378 2.65772583 4.33599921 2.32248257 3 2 C3 2.66 3 3.32 3 4 C1.68 3.67 0.36 3.34 -1 3 C-0.67 2.01 -0.34 1.02 0 0 Z " fill="#BB958B" transform="translate(257,254)"/>
<path d="M0 0 C0 0.99 0 1.98 0 3 C-0.33 3.33 -0.66 3.66 -1 4 C-0.34 4.66 0.32 5.32 1 6 C-0.32 7.32 -1.64 8.64 -3 10 C-3.66 9.34 -4.32 8.68 -5 8 C-4.67 7.01 -4.34 6.02 -4 5 C-4 4.01 -4 3.02 -4 2 C-2.68 1.34 -1.36 0.68 0 0 Z " fill="#FFD3DD" transform="translate(193,33)"/>
<path d="M0 0 C2.64 0 5.28 0 8 0 C7.67 1.32 7.34 2.64 7 4 C4.69 4 2.38 4 0 4 C0 2.68 0 1.36 0 0 Z " fill="#BFA693" transform="translate(284,254)"/>
<path d="M0 0 C0.33 1.65 0.66 3.3 1 5 C-0.32 5.33 -1.64 5.66 -3 6 C-2.67 5.34 -2.34 4.68 -2 4 C-2.99 4 -3.98 4 -5 4 C-5 3.34 -5 2.68 -5 2 C-5.66 2 -6.32 2 -7 2 C-7.33 2.66 -7.66 3.32 -8 4 C-8 3.01 -8 2.02 -8 1 C-5.29120665 -0.35439668 -2.99066732 -0.06501451 0 0 Z " fill="#B99E86" transform="translate(314,244)"/>
<path d="M0 0 C0.928125 0.2784375 0.928125 0.2784375 1.875 0.5625 C4.04160178 1.23686176 4.04160178 1.23686176 6 0 C5.40312566 3.34249629 4.26396123 5.46436342 2 8 C1.34 8 0.68 8 0 8 C0.66 6.35 1.32 4.7 2 3 C1.34 3 0.68 3 0 3 C0 2.01 0 1.02 0 0 Z " fill="#CF6399" transform="translate(244,196)"/>
<path d="M0 0 C2.5 1.375 2.5 1.375 5 3 C5 3.66 5 4.32 5 5 C2.03 5 -0.94 5 -4 5 C-2.68 3.35 -1.36 1.7 0 0 Z " fill="#FCBCE5" transform="translate(87,395)"/>
<path d="M0 0 C0.66 0 1.32 0 2 0 C1.3125 2.4375 1.3125 2.4375 0 5 C-2.5 5.875 -2.5 5.875 -5 6 C-5.66 5.67 -6.32 5.34 -7 5 C-7 4.01 -7 3.02 -7 2 C-5.02 2 -3.04 2 -1 2 C-0.67 1.34 -0.34 0.68 0 0 Z " fill="#C2AC96" transform="translate(310,159)"/>
<path d="M0 0 C0.99 0.66 1.98 1.32 3 2 C3.33 1.34 3.66 0.68 4 0 C4.99 0.33 5.98 0.66 7 1 C6.01 1.495 6.01 1.495 5 2 C5 2.66 5 3.32 5 4 C2.36 4 -0.28 4 -3 4 C-3 3.01 -3 2.02 -3 1 C-2.01 0.67 -1.02 0.34 0 0 Z " fill="#F5C1E9" transform="translate(58,396)"/>
<path d="M0 0 C0.66 0.33 1.32 0.66 2 1 C2.625 3.5625 2.625 3.5625 3 6 C1.576875 6.2165625 1.576875 6.2165625 0.125 6.4375 C-2.8934494 6.82935399 -2.8934494 6.82935399 -5 8 C-5.33 7.01 -5.66 6.02 -6 5 C-5.01 5 -4.02 5 -3 5 C-2.67 4.34 -2.34 3.68 -2 3 C-1.34 2.01 -0.68 1.02 0 0 Z " fill="#D9C9B9" transform="translate(262,133)"/>
<path d="M0 0 C0.66 0 1.32 0 2 0 C2 1.98 2 3.96 2 6 C-0.97 5.505 -0.97 5.505 -4 5 C-3.67 3.68 -3.34 2.36 -3 1 C-2.34 1.33 -1.68 1.66 -1 2 C-0.67 1.34 -0.34 0.68 0 0 Z " fill="#C29D97" transform="translate(206,285)"/>
<path d="M0 0 C0.66 0 1.32 0 2 0 C2 0.66 2 1.32 2 2 C2.639375 2.103125 3.27875 2.20625 3.9375 2.3125 C4.618125 2.539375 5.29875 2.76625 6 3 C6.33 3.99 6.66 4.98 7 6 C6.21625 5.814375 5.4325 5.62875 4.625 5.4375 C2.02910225 4.74037734 2.02910225 4.74037734 0 6 C0 4.02 0 2.04 0 0 Z " fill="#BEA48E" transform="translate(348,149)"/>
<path d="M0 0 C0 0.66 0 1.32 0 2 C-2.64 2 -5.28 2 -8 2 C-8 1.01 -8 0.02 -8 -1 C-3.375 -2.25 -3.375 -2.25 0 0 Z " fill="#EDD9ED" transform="translate(40,11)"/>
<path d="M0 0 C0.66 0.99 1.32 1.98 2 3 C2 2.34 2 1.68 2 1 C2.66 1.33 3.32 1.66 4 2 C4.33 1.67 4.66 1.34 5 1 C5.33 1.99 5.66 2.98 6 4 C2.71303767 4.79953138 1.28976808 5.09658936 -2 4 C-1.34 2.68 -0.68 1.36 0 0 Z " fill="#BF9A91" transform="translate(239,134)"/>
<path d="M0 0 C2.125 0.9375 2.125 0.9375 4 2 C4 2.66 4 3.32 4 4 C4.66 4.33 5.32 4.66 6 5 C4.25 5.6875 4.25 5.6875 2 6 C-0.25 4.6875 -0.25 4.6875 -2 3 C-2 2.34 -2 1.68 -2 1 C-1.34 0.67 -0.68 0.34 0 0 Z " fill="#FFFFF9" transform="translate(274,370)"/>
<path d="M0 0 C-0.66 1.32 -1.32 2.64 -2 4 C-3.65 4 -5.3 4 -7 4 C-7 3.01 -7 2.02 -7 1 C-3.375 -1.125 -3.375 -1.125 0 0 Z " fill="#C19C94" transform="translate(210,296)"/>
<path d="M0 0 C0.66 0.66 1.32 1.32 2 2 C1.67 2.66 1.34 3.32 1 4 C1.66 4 2.32 4 3 4 C3.33 3.01 3.66 2.02 4 1 C4.99 1.33 5.98 1.66 7 2 C6.67 2.99 6.34 3.98 6 5 C4.02 5 2.04 5 0 5 C0 3.35 0 1.7 0 0 Z " fill="#BC978D" transform="translate(270,253)"/>
<path d="M0 0 C2.31 0 4.62 0 7 0 C7 1.32 7 2.64 7 4 C6.401875 3.835 5.80375 3.67 5.1875 3.5 C2.88655664 2.8885876 2.88655664 2.8885876 0 3 C0 2.01 0 1.02 0 0 Z " fill="#BA9E88" transform="translate(293,254)"/>
<path d="M0 0 C0.99 0 1.98 0 3 0 C3 1.65 3 3.3 3 5 C2.01 4.67 1.02 4.34 0 4 C0 4.66 0 5.32 0 6 C-0.66 6 -1.32 6 -2 6 C-1.125 1.125 -1.125 1.125 0 0 Z " fill="#9D704F" transform="translate(48,200)"/>
<path d="M0 0 C1.98 0 3.96 0 6 0 C4.75 2 4.75 2 3 4 C1.68 4 0.36 4 -1 4 C-0.67 2.68 -0.34 1.36 0 0 Z " fill="#BD988E" transform="translate(174,296)"/>
<path d="M0 0 C0.33 1.32 0.66 2.64 1 4 C0.01 4.33 -0.98 4.66 -2 5 C-2.33 4.01 -2.66 3.02 -3 2 C-3.66 2 -4.32 2 -5 2 C-5.33 2.66 -5.66 3.32 -6 4 C-6 3.01 -6 2.02 -6 1 C-4 0 -4 0 0 0 Z " fill="#BA9489" transform="translate(165,286)"/>
<path d="M0 0 C2 2 2 2 2 5 C-0.31 5 -2.62 5 -5 5 C-5 4.01 -5 3.02 -5 2 C-4.01 1.67 -3.02 1.34 -2 1 C-1.34 1.33 -0.68 1.66 0 2 C0 1.34 0 0.68 0 0 Z " fill="#B99287" transform="translate(271,243)"/>
<path d="M0 0 C0 1.98 0 3.96 0 6 C-3 6 -3 6 -6 5 C-5 2 -5 2 -3 0.8125 C-1 0 -1 0 0 0 Z " fill="#C1A894" transform="translate(301,242)"/>
<path d="M0 0 C0.99 0.33 1.98 0.66 3 1 C2.01 1.495 2.01 1.495 1 2 C1.99 2.33 2.98 2.66 4 3 C4 3.99 4 4.98 4 6 C2.35 5.67 0.7 5.34 -1 5 C-0.67 3.35 -0.34 1.7 0 0 Z " fill="#C3AC96" transform="translate(293,149)"/>
<path d="M0 0 C2 3.75 2 3.75 2 6 C0.68 5.67 -0.64 5.34 -2 5 C-1.67 4.34 -1.34 3.68 -1 3 C-1.99 3.33 -2.98 3.66 -4 4 C-4 3.01 -4 2.02 -4 1 C-2.02 1.495 -2.02 1.495 0 2 C0 1.34 0 0.68 0 0 Z " fill="#CBA7A4" transform="translate(222,133)"/>
<path d="M0 0 C0.33 1.32 0.66 2.64 1 4 C-1.07553648 4.5534764 -2.84365964 5 -5 5 C-5 4.01 -5 3.02 -5 2 C-3.35 1.34 -1.7 0.68 0 0 Z " fill="#BB958B" transform="translate(201,133)"/>
<path d="M0 0 C1.98 0 3.96 0 6 0 C5.34 1.32 4.68 2.64 4 4 C2.35 3.67 0.7 3.34 -1 3 C-0.67 2.01 -0.34 1.02 0 0 Z " fill="#BDA48E" transform="translate(293,161)"/>
<path d="M0 0 C2.375 0.3125 2.375 0.3125 5 1 C5.66 1.99 6.32 2.98 7 4 C4.69 4 2.38 4 0 4 C0 2.68 0 1.36 0 0 Z " fill="#BDA58E" transform="translate(305,151)"/>
<path d="M0 0 C1.65 0 3.3 0 5 0 C5 0.99 5 1.98 5 3 C4.360625 3.12375 3.72125 3.2475 3.0625 3.375 C2.381875 3.58125 1.70125 3.7875 1 4 C0.67 4.66 0.34 5.32 0 6 C0 4.02 0 2.04 0 0 Z " fill="#BBA189" transform="translate(333,151)"/>
<path d="M0 0 C1.98 0 3.96 0 6 0 C6 0.99 6 1.98 6 3 C4.35 2.67 2.7 2.34 1 2 C1 2.66 1 3.32 1 4 C0.34 4 -0.32 4 -1 4 C-0.67 2.68 -0.34 1.36 0 0 Z " fill="#A2775C" transform="translate(41,190)"/>
<path d="M0 0 C2.46278801 1.231394 3.42497687 2.78064923 5 5 C3.35 5.66 1.7 6.32 0 7 C0 4.66666667 0 2.33333333 0 0 Z " fill="#FFCEDF" transform="translate(182,385)"/>
<path d="M0 0 C1.65 0.33 3.3 0.66 5 1 C4.67 1.99 4.34 2.98 4 4 C2.35 4 0.7 4 -1 4 C-0.67 2.68 -0.34 1.36 0 0 Z " fill="#B58E81" transform="translate(167,296)"/>
<path d="M0 0 C2.97 0.495 2.97 0.495 6 1 C5.67 1.99 5.34 2.98 5 4 C2 4 2 4 0 3 C0 2.01 0 1.02 0 0 Z " fill="#F3D2F4" transform="translate(0,229)"/>
<path d="M0 0 C0.99 0.33 1.98 0.66 3 1 C3 2.32 3 3.64 3 5 C1.68 5 0.36 5 -1 5 C-0.67 3.35 -0.34 1.7 0 0 Z " fill="#9E7356" transform="translate(66,201)"/>
<path d="M0 0 C1.65 0 3.3 0 5 0 C4.67 1.32 4.34 2.64 4 4 C2.35 4 0.7 4 -1 4 C-0.67 2.68 -0.34 1.36 0 0 Z " fill="#C2AB95" transform="translate(339,151)"/>
<path d="M0 0 C0.66 0.33 1.32 0.66 2 1 C2 2.32 2 3.64 2 5 C0.68 4.67 -0.64 4.34 -2 4 C-2 3.01 -2 2.02 -2 1 C-1.34 0.67 -0.68 0.34 0 0 Z " fill="#BE9991" transform="translate(218,124)"/>
<path d="M0 0 C1.65 0 3.3 0 5 0 C5 0.99 5 1.98 5 3 C3.35 3.33 1.7 3.66 0 4 C0 2.68 0 1.36 0 0 Z " fill="#F5D8EE" transform="translate(62,16)"/>
</svg>
